<?xml version="1.0" encoding="utf-8"?>
<!-- Generator: Adobe Illustrator 28.4.1, SVG Export Plug-In . SVG Version: 6.00 Build 0)  -->
<svg version="1.1" id="Layer_1" xmlns="http://www.w3.org/2000/svg" xmlns:xlink="http://www.w3.org/1999/xlink" x="0px" y="0px"
	 viewBox="0 0 1080 1080" style="enable-background:new 0 0 1080 1080;" xml:space="preserve">
<style type="text/css">
	.st0{fill:#FFFFFF;}
</style>
<g>
	<path class="st0" d="M698.61,750.29c-1.09,19.28-0.34,38.87-3.65,57.76c-7.32,41.87-44.82,70.94-88.15,70.58
		c-42.12-0.34-78.19-30.48-85.93-71.9c-0.78-4.18-1.45-8.46-1.47-12.7c-0.14-29.7-0.55-59.41,0.01-89.1
		c0.85-45.81,38.87-83.72,84.66-85.2c47.86-1.55,88.78,33.39,92.38,79.94c1.3,16.76,0.21,33.7,0.21,50.56
		C697.32,750.26,697.97,750.28,698.61,750.29z M654.48,749.26c0.01,0,0.02,0,0.02,0c0-14.15,0.68-28.35-0.15-42.45
		c-1.52-26.06-22.17-45.02-47.42-44.53c-24.99,0.49-45.01,20.88-45.32,46.81c-0.32,26.74-0.53,53.49,0.05,80.23
		c0.43,19.83,9.57,35.12,28.25,43.01c29.95,12.66,62.31-7.38,64.4-39.94C655.24,778.07,654.48,763.64,654.48,749.26z"/>
	<path class="st0" d="M915.49,777.9c0,25.2,0.23,50.41-0.08,75.61c-0.2,15.95-14.43,25.57-28.96,20.15
		c-8.58-3.2-13.32-10.7-13.33-21.34c-0.05-46.81-0.02-93.61-0.12-140.42c-0.05-23.68-13.21-41.9-34.26-47.78
		c-31.06-8.67-60.02,13.15-60.08,45.42c-0.08,46.81,0.07,93.61-0.18,140.42c-0.03,4.99-1,10.48-3.26,14.84
		c-4.46,8.59-14.5,12.05-23.76,9.46c-9.4-2.63-15.55-10.3-15.68-20.34c-0.2-15.07-0.06-30.15-0.06-45.23
		c0-33.3-0.09-66.61,0.02-99.91c0.15-44.99,34.5-83.96,77.86-88.54c56.8-5.99,101.37,33.64,101.95,90.84
		c0.23,22.28,0.04,44.56,0.04,66.83C915.56,777.9,915.52,777.9,915.49,777.9z"/>
	<path class="st0" d="M384.92,726.08c3.39,0,6.71,0,10.04,0c16.19-0.01,32.39-0.16,48.58,0.02c13.55,0.14,23.24,9.35,22.9,21.31
		c-0.34,11.99-9.57,19.94-23.34,19.97c-19.29,0.04-38.58,0.01-58.33,0.01c0,21.44,0,42.25,0,64.25c2.58,0,5.16,0,7.73,0
		c26.99-0.01,53.98-0.15,80.97,0.02c13.95,0.09,23.75,10.22,22.67,22.8c-0.94,10.89-9.29,19.31-20.57,19.38
		c-38.23,0.24-76.47,0.19-114.71-0.01c-9.27-0.05-16.57-6.82-18.26-15.98c-0.57-3.07-0.68-6.26-0.69-9.39
		c-0.07-65.9-0.1-131.8-0.11-197.7c0-18.98,7.57-26.48,26.66-26.48c34.86-0.01,69.73-0.06,104.59,0.03
		c16,0.04,26.3,12.58,22.43,27.02c-2.65,9.9-10.82,15.84-22.33,15.87c-26.54,0.08-53.08,0.02-79.62,0.02c-2.67,0-5.35,0-8.6,0
		C384.92,686.88,384.92,706.06,384.92,726.08z"/>
	<path class="st0" d="M164.45,747.73c0-33.95-0.09-67.91,0.04-101.86c0.06-16.83,14.2-27.23,29.01-21.65
		c8.79,3.31,13.47,10.8,13.47,21.93c0.01,28.11-0.07,56.21-0.09,84.32c-0.02,31.48,0.1,62.96-0.14,94.44
		c-0.04,5.33,1.5,6.9,6.83,6.85c26.31-0.25,52.62-0.21,78.92-0.07c12.92,0.07,22,8.32,22.71,20.11
		c0.71,11.85-7.75,21.95-19.61,22.03c-37.1,0.26-74.2,0.22-111.3-0.02c-10.11-0.07-16.7-6.18-18.69-16.22
		c-0.78-3.94-1.07-8.03-1.08-12.05c-0.08-32.6-0.05-65.21-0.05-97.81C164.46,747.73,164.46,747.73,164.45,747.73z"/>
	<path class="st0" d="M500.19,216.87c-1.72,11.49-4.12,22.93-5,34.48c-1.69,22.32,4.39,42.32,22.68,56.38
		c22.06,16.96,45.08,32.68,67.42,49.29c14.58,10.84,29.44,21.49,42.79,33.73c13.6,12.47,21.25,28.85,23.16,47.49
		c1.11,10.87-1.77,21-6.58,30.77c-1.63-7.57-2.98-15.22-4.94-22.71c-7.25-27.77-23.41-47.75-50.07-59.71
		c-18.6-8.35-36.88-17.74-54.23-28.41c-11.14-6.85-21.05-16.15-30.28-25.57c-27.33-27.86-30.08-60.35-15.97-95.32
		c2.91-7.2,6.78-14.02,10.21-21.01C499.65,216.48,499.92,216.67,500.19,216.87z"/>
	<path class="st0" d="M914.96,923.34c0,2.6,0,4.57,0,6.95c-250.04,0-499.88,0-750.28,0c-0.11-2.18-0.21-4.3-0.35-6.95
		C414.62,923.34,664.44,923.34,914.96,923.34z"/>
	<path class="st0" d="M417,286.17c5.98,25.56,14.84,49.95,28.37,72.52c16.94,28.27,40.77,50.11,66.29,70.28
		c20.98,16.59,42.94,32.05,60,53.07c14.51,17.87,21.95,37.98,19.6,61.24c-0.16,1.56-0.4,3.12-0.75,4.65
		c-0.19,0.84-0.68,1.62-1.34,3.1c-3.51-7.87-6.53-15.29-10.07-22.45c-13.44-27.16-32.32-49.46-57.89-66.19
		c-27.14-17.76-53.32-36.78-73.95-62.38c-25.18-31.23-34.62-67-31.44-106.54c0.11-1.34,0.36-2.67,0.58-4
		C416.57,288.35,416.79,287.26,417,286.17z"/>
	<path class="st0" d="M587.71,105.3c-3.36-3.55-6.71-7.11-10.09-10.64c-17.09-17.85-38.79-24.01-62.69-25.4
		c-37.72-2.2-69.32,11.27-97.18,35.83c-19.99,17.62-42.47,31.19-69.02,36.2c-8.43,1.59-17.42,1.54-25.98,0.63
		c-7.27-0.78-13.08-5.36-15.97-11.92c15.4-3.79,30.76-6.85,45.67-11.4c23.46-7.16,44.44-19.39,63.7-34.45
		c30.34-23.72,64.73-35.52,103.18-35.22c30.48,0.24,56.75,18.93,67.33,47.44c0.99,2.68,1.59,5.5,2.38,8.25
		C588.58,104.86,588.14,105.08,587.71,105.3z"/>
	<path class="st0" d="M271.6,403.65c19.7-27.95,22.31-60.29,24.61-92.62c1.8-25.32,6.77-49.88,16.7-73.26
		c11.73-27.63,33.3-45.5,60.77-60.03c-1.14,2.57-1.39,3.57-1.95,4.33c-27.98,38.16-40.46,82.23-49.3,127.81
		c-3.84,19.77-5.94,40.09-15.99,58.23C298.11,383.15,287.12,395.49,271.6,403.65z"/>
	<path class="st0" d="M548.8,118.21c-9.02,8.51-17.15,15.43-31.46,13.97c-65.2-6.66-124.34,10.61-176.92,49.52
		c-18.95,14.03-36.84,29.49-55.2,44.31c-1.54,1.24-3,2.59-5.28,4.57c16.25-30.88,64.36-79.53,120.36-100.46
		C448.77,112.02,498.18,107.98,548.8,118.21z"/>
	<path class="st0" d="M570.37,185.23c-13.33,17.44-23.66,34.59-27.31,55.25c-1.13-3.75-2.14-7.55-3.41-11.25
		c-8.12-23.55-23.28-32.5-47.49-26.98c-28.04,6.39-54.01,16.98-73.31,39.89c5.05-17.14,11.88-33.62,27.64-43.45
		c32.74-20.42,68.48-27.28,106.54-19.98C558.61,179.79,563.83,182.72,570.37,185.23z"/>
	<path class="st0" d="M389.71,240.82c-3.51,12.65-7.81,25.15-10.37,37.99c-6.86,34.36-4.17,68.64,4.49,102.24
		c6.37,24.74,14.91,48.92,22.48,73.35c0.38,1.22,0.8,2.43,0.45,4.1c-0.61-0.71-1.36-1.34-1.82-2.14
		c-25.54-44-44.32-90.46-49.48-141.47c-1.39-13.71,0.11-27.74,0.68-41.61c0.11-2.72,1.32-6.16,3.25-7.93
		c9.64-8.84,19.69-17.24,29.6-25.79C389.22,239.99,389.47,240.41,389.71,240.82z"/>
	<path class="st0" d="M553.37,382.74c34.03,18.49,60.72,43.32,69.62,82.9c7.96,35.41-5.28,80.6-29.48,99.66
		C614.78,496.11,605.86,434.54,553.37,382.74z"/>
	<path class="st0" d="M592.94,236.97c6,23.34,19.95,36.95,41.86,43.84c11.42,3.59,21.89,10.24,32.75,15.57
		c5.64,2.77,11.02,6.2,16.86,8.39c12.28,4.6,22.11,0.57,28.38-10.9c0.82-1.5,1.62-3.02,2.64-4.93c6.31,25.13-5.35,48.73-22.47,51.23
		c-5.2-17.84-20.27-25.19-35.52-32.06c-9.81-4.42-20.38-7.29-29.89-12.23c-9.87-5.12-19.68-10.96-28.08-18.17
		C588.4,268.22,586.16,251.25,592.94,236.97z"/>
	<path class="st0" d="M582.51,278.4c15.7,15.22,32.02,25.44,52.22,29.9c-16.78,8.53-20.46,22.04-10.08,38.96
		c5.83,9.51,13.33,18.03,20.33,26.79c13.54,16.94,18.77,35.99,15.23,57.42c-0.11,0.66-0.21,1.33-0.4,1.98
		c-0.12,0.41-0.4,0.78-1.13,2.14c-0.59-1.95-1.16-3.15-1.31-4.4c-2.56-22.38-11.44-41.68-26.89-58.25
		c-11.63-12.47-22.68-25.52-33.45-38.75c-9.15-11.24-14.2-24.45-15.17-38.96C581.51,290.26,582.2,285.23,582.51,278.4z"/>
	<path class="st0" d="M717.58,255.92c-31.68-11.83-60.94-3.18-90.65,5.53c-0.69-7.45,3.27-11.6,8.43-13.61
		c6.82-2.66,14.18-3.93,21.34-5.69c8.06-1.98,16.28-3.43,24.19-5.86c7.74-2.38,13.82-7.41,17.93-14.55
		c5.71-9.94,7.33-21.96-2.9-31.36c-2.23-2.05-3.09-5.57-4.59-8.42c3.38-1.31,6.67-2.96,10.16-3.79c2.31-0.55,4.92-0.07,7.38,0.2
		c12.16,1.31,16.92,9.07,10.99,19.75c-8.28,14.91-8.86,30.35-5.6,46.41C714.91,247.79,716.11,250.95,717.58,255.92z"/>
	<path class="st0" d="M541.14,31.51c9.51-4.79,18.19-5.29,26.78-3.69c27.38,5.09,46.05,23.91,51.51,51.32
		c0.83,4.19,1.69,8.38,2.24,12.61c2.07,16.09,6.77,30.73,21.79,40c-8.38-0.9-15.81-3.43-21.57-9.57c-8.22-8.76-15.01-18.98-14.67-31
		c0.83-28.71-24.77-52.01-51.08-57.05C551.62,33.26,547.07,32.54,541.14,31.51z"/>
	<path class="st0" d="M568.68,152.55c13.16-3.03,26.51-6.16,39.9-9.12c1.78-0.39,4.57-0.72,5.51,0.26
		c10.5,10.86,22.88,18.44,37.55,22.6C621.97,171.01,594.05,166.44,568.68,152.55z"/>
	<path class="st0" d="M461.04,425.4c-20.67,17.04-28.44,39.33-30.19,64.47c-4.29-28.47-1.04-56.19,7.72-84.79
		C446.46,412.22,453.49,418.57,461.04,425.4z"/>
	<path class="st0" d="M528.11,1004.84c7.32,3.06,10.5,8.59,11.08,15.83c0.95,11.85-5.87,20.13-17.67,20.9
		c-6.26,0.41-12.57,0.02-18.84,0.23c-4.2,0.14-5.43-1.85-5.41-5.72c0.1-17.73,0.14-35.46,0-53.19c-0.04-4.57,2.03-5.84,6.17-5.66
		c4.48,0.2,8.98-0.11,13.46,0.05c6.63,0.23,13.44,0.7,16.48,7.94C536.47,992.59,534.68,999.19,528.11,1004.84z M502.21,1007.64
		c0,10.35,0,19.81,0,29.65c5.97,0,11.33,0.01,16.7-0.01c1.12,0,2.25-0.01,3.36-0.16c8.28-1.17,12.99-7.26,12.61-16.27
		c-0.34-7.96-4.88-12.7-13.26-13.15C515.37,1007.37,509.1,1007.64,502.21,1007.64z M501.87,1003.31c6.76,0,12.8,0.42,18.75-0.12
		c5.71-0.52,9.45-3.94,9.91-10.03c0.43-5.82-2.5-9.98-8-10.64c-6.74-0.8-13.64-0.19-20.66-0.19
		C501.87,989.51,501.87,995.97,501.87,1003.31z"/>
	<path class="st0" d="M169,1009.63c0-8.54,0.18-17.09-0.07-25.63c-0.14-4.8,1.27-7.13,6.47-6.78c5.15,0.34,10.35-0.09,15.51,0.17
		c11.4,0.56,19.55,8.31,20.13,19.59c0.43,8.3,0.43,16.65,0,24.95c-0.59,11.48-9.14,19.38-20.69,19.84
		c-21.4,0.85-21.4,0.85-21.35-20.67C169.01,1017.27,169,1013.45,169,1009.63z M173.62,1037.28c5.95,0,11.33,0.15,16.7-0.03
		c9.22-0.31,15.8-6.48,16.2-15.64c0.35-8.08,0.3-16.2-0.03-24.29c-0.31-7.69-5.87-14.31-13.06-15.03
		c-6.39-0.64-12.9-0.13-19.82-0.13C173.62,1000.6,173.62,1018.5,173.62,1037.28z"/>
	<path class="st0" d="M421.61,1022.03c4.83,6.44,9.24,12.3,13.64,18.16c-0.58,0.56-1.17,1.12-1.75,1.68
		c-1.2-0.58-2.68-0.89-3.53-1.8c-2.15-2.28-4.48-4.58-5.91-7.31c-5.41-10.3-14.05-11.94-25.09-9.39
		c-0.28,5.63-0.58,11.68-0.87,17.72c-0.71,0.11-1.41,0.22-2.12,0.33c-0.57-1.75-1.63-3.5-1.64-5.25
		c-0.12-17.73-0.01-35.46-0.11-53.19c-0.02-3.93,1.33-5.86,5.46-5.7c5.83,0.22,11.69-0.13,17.48,0.41
		c10.81,1,17.25,6.89,19.08,16.75c2.25,12.18-1.63,20.98-11.5,26.1C423.95,1020.95,423.14,1021.3,421.61,1022.03z M399.01,1018.34
		c6.04,0,11.64,0.33,17.18-0.07c9.74-0.72,15.46-7,15.72-16.64c0.31-11.46-4.31-18.28-14.04-19.35c-6.12-0.67-12.37-0.13-18.87-0.13
		C399.01,994.46,399.01,1006.21,399.01,1018.34z"/>
	<path class="st0" d="M842.24,1042.71c-2.97-3.57-6.36-6.57-8.4-10.3c-5.64-10.3-14.32-11.45-24.98-9.12
		c-0.27,5.88-0.55,11.92-0.82,17.96c-0.74,0.08-1.49,0.16-2.23,0.24c-0.47-1.61-1.33-3.21-1.34-4.82c-0.09-17.99,0-35.98-0.1-53.96
		c-0.02-3.6,1.08-5.54,4.95-5.42c5.84,0.18,11.71-0.12,17.52,0.38c10.62,0.91,17.47,6.77,19.27,15.84
		c2.49,12.55-1.35,21.73-11.28,26.92c-0.93,0.49-1.88,0.92-2.86,1.4c4.25,6.36,8.3,12.4,12.26,18.5
		C844.33,1040.49,843.46,1041.28,842.24,1042.71z M808.69,1018.26c6.5,0,12.55,0.47,18.51-0.11c8.83-0.87,14.28-6.99,14.88-15.59
		c0.74-10.79-3.07-18.08-12.09-19.71c-6.83-1.23-14.06-0.24-21.29-0.24C808.69,994.43,808.69,1005.86,808.69,1018.26z"/>
	<path class="st0" d="M668.87,1009.19c0-8.77,0.12-17.54-0.05-26.31c-0.08-3.98,1.31-5.8,5.46-5.65c5.61,0.2,11.26-0.2,16.86,0.14
		c11.26,0.69,19.28,8.77,19.73,20.05c0.33,8.08,0.32,16.2-0.01,24.28c-0.45,11.14-8.76,19.45-19.83,20.01
		c-5.61,0.28-11.25-0.13-16.86,0.12c-4.26,0.19-5.41-1.74-5.34-5.65c0.18-8.99,0.06-17.99,0.06-26.98
		C668.89,1009.19,668.88,1009.19,668.87,1009.19z M673.48,1037.29c5.49,0,10.61,0.08,15.72-0.02c10.27-0.19,16.8-6.42,17.2-16.76
		c0.28-7.41,0.25-14.84,0.02-22.25c-0.25-7.88-5.19-14.84-12.26-15.77c-6.75-0.88-13.71-0.19-20.68-0.19
		C673.48,1000.85,673.48,1018.73,673.48,1037.29z"/>
	<path class="st0" d="M735.43,1009.02c0-4.27-0.19-8.56,0.04-12.82c0.63-11.36,9.51-19.57,20.89-19.51
		c11.34,0.06,20.45,8.32,20.93,19.57c0.38,8.98,0.38,18-0.01,26.98c-0.48,11.09-9.85,19.58-20.98,19.63
		c-11.19,0.05-20.2-8.36-20.83-19.69C735.21,1018.48,735.43,1013.74,735.43,1009.02z M739.56,1009.81c0,4.04-0.15,8.09,0.03,12.13
		c0.4,8.96,7.02,15.74,15.73,16.35c8.49,0.59,16.58-5.51,17.33-14.48c0.78-9.36,0.79-18.89-0.02-28.24
		c-0.77-8.92-8.95-14.98-17.43-14.35c-8.7,0.65-15.25,7.49-15.6,16.46C739.43,1001.72,739.56,1005.77,739.56,1009.81z"/>
	<path class="st0" d="M912.68,1041.94c-1.23-2.16-3.12-4.18-3.56-6.49c-1.57-8.15-6.12-11.27-14.18-9.62
		c-1.08,0.22-2.26,0.16-3.37,0.01c-10.41-1.36-19.17-0.19-20.79,12.83c-0.14,1.11-1.75,2.04-3.76,2.52
		c5.56-21.98,14.26-42.71,23.42-63.91c9.88,20.73,17.33,42.03,25.15,63.19C914.61,1040.96,913.65,1041.45,912.68,1041.94z
		 M877.47,1020.8c8.92,0,17.07,0,26.22,0c-4.35-11.98-8.45-23.26-13.15-36.21C885.74,997.88,881.67,1009.16,877.47,1020.8z"/>
	<path class="st0" d="M568.03,977.62c0.47,2.28,1.31,4.57,1.34,6.86c0.13,11.69-0.02,23.39,0.06,35.08
		c0.07,11.12,6.48,18.2,16.34,18.29c9.7,0.09,16.55-7.19,16.69-18.06c0.15-11.69,0.02-23.39,0.1-35.08c0.02-2.29,0.45-4.58,0.7-6.87
		c0.69-0.1,1.39-0.21,2.08-0.31c0.59,1.76,1.68,3.52,1.7,5.29c0.14,12.82,0.34,25.64-0.02,38.45c-0.36,12.65-9.85,21.71-21.49,21.27
		c-12.14-0.46-20.39-9.29-20.52-22.2c-0.12-12.14-0.07-24.29,0-36.43c0.01-2.03,0.49-4.07,0.76-6.1
		C566.52,977.75,567.27,977.69,568.03,977.62z"/>
	<path class="st0" d="M271.89,1026.64c1.36,1.69,2.65,3.45,4.08,5.07c4.77,5.39,10.84,7.06,17.71,5.64c5.33-1.1,9.55-3.8,11.35-9.38
		c2.05-6.35,0.42-11.46-5.79-14.83c-5.11-2.77-10.73-4.58-16.03-7.02c-7.87-3.63-11.62-9.56-10.51-16.17
		c1.28-7.59,7.05-12.41,15.75-13.16c8.84-0.76,17.81,3.48,19.98,9.58c0.22,0.63-0.35,1.54-0.87,3.55c-2.22-1.93-3.72-3.36-5.35-4.63
		c-5.76-4.49-12.29-6.35-18.78-2.58c-2.89,1.68-5.99,5.61-6.15,8.66c-0.15,2.99,2.63,7.15,5.35,9.02c4.16,2.85,9.42,4.09,14.14,6.17
		c9.79,4.32,14.17,10.64,13.26,18.88c-0.98,8.85-7.09,14.94-16.83,16.75c-8.73,1.63-18.5-2.77-22.45-10.29
		c-0.68-1.3-0.68-2.96-0.99-4.46C270.47,1027.16,271.18,1026.9,271.89,1026.64z"/>
	<path class="st0" d="M329.23,977.28c6.86,0,13.72-0.01,20.58,0c5.83,0.01,11.67-0.08,17.49,0.14c1.27,0.05,2.5,1.23,3.75,1.9
		c-1.29,0.85-2.53,2.35-3.87,2.44c-4.66,0.3-9.35,0.12-15.5,0.12c0,20.15,0,39.77,0,59.4c-0.89,0-1.78,0.01-2.67,0.01
		c-2.49-9.5-0.7-19.35-1.04-29.01c-0.34-9.81-0.07-19.64-0.07-29.81c-6.76-0.49-12.92-0.94-19.07-1.39
		C328.97,979.82,329.1,978.55,329.23,977.28z"/>
	<path class="st0" d="M464.68,978.04c4.61,5.68,4.12,59.41,0,64.09C464.68,1020.09,464.68,999.06,464.68,978.04z"/>
	<path class="st0" d="M239.09,978.1c4.43,5.23,4.12,59.02,0,64.22C239.09,1020.14,239.09,999.12,239.09,978.1z"/>
	<path class="st0" d="M636.05,1042.3c0-22.32,0-43.28,0-65.05C640.5,981.92,640.67,1036.66,636.05,1042.3z"/>
</g>
</svg>
