<?xml version="1.0" encoding="utf-8"?>
<!-- Generator: Adobe Illustrator 28.4.1, SVG Export Plug-In . SVG Version: 6.00 Build 0)  -->
<svg version="1.1" id="Layer_1" xmlns="http://www.w3.org/2000/svg" xmlns:xlink="http://www.w3.org/1999/xlink" x="0px" y="0px"
	 viewBox="0 0 1080 1080" style="enable-background:new 0 0 1080 1080;" xml:space="preserve">
<style type="text/css">
	.st0{enable-background:new    ;}
	.st1{fill:#FFFFFF;}
</style>
<g class="st0">
	<path class="st1" d="M171.71,1044.66c-0.44-0.42-0.66-0.96-0.66-1.6v-62.1c0-0.68,0.21-1.22,0.63-1.62
		c0.42-0.41,0.96-0.61,1.6-0.61h19.94c3.38,0,6.53,0.59,9.44,1.78c2.91,1.18,5.43,2.83,7.56,4.92c2.1,2.06,3.72,4.47,4.87,7.23
		c1.15,2.76,1.72,5.66,1.72,8.7v21.36c0,3.01-0.58,5.89-1.72,8.65c-1.15,2.76-2.77,5.17-4.87,7.23c-2.13,2.1-4.65,3.74-7.56,4.92
		c-2.91,1.18-6.06,1.78-9.44,1.78h-19.94C172.67,1045.29,172.15,1045.08,171.71,1044.66z M193.22,1040.82c2.87,0,5.5-0.49,7.86-1.47
		c2.37-0.98,4.41-2.33,6.14-4.06c1.62-1.69,2.88-3.62,3.75-5.78c0.88-2.16,1.32-4.43,1.32-6.8v-21.41c0-2.33-0.44-4.59-1.32-6.77
		c-0.88-2.18-2.13-4.1-3.75-5.76c-1.73-1.73-3.77-3.07-6.14-4.03c-2.37-0.96-4.99-1.45-7.86-1.45h-17.66v57.54H193.22z"/>
	<path class="st1" d="M240.23,1044.81c-0.44-0.42-0.66-0.94-0.66-1.55V980.8c0-0.68,0.21-1.21,0.63-1.6
		c0.42-0.39,0.96-0.58,1.6-0.58c0.64,0,1.18,0.19,1.62,0.58c0.44,0.39,0.66,0.92,0.66,1.6v62.46c0,0.61-0.22,1.12-0.66,1.55
		c-0.44,0.42-0.98,0.63-1.62,0.63C241.2,1045.44,240.67,1045.23,240.23,1044.81z"/>
	<path class="st1" d="M272.12,1044.63c-0.47-0.44-0.71-1.02-0.71-1.73c0-1.39,0.88-2.08,2.64-2.08h20.55
		c1.73-0.07,3.38-0.47,4.97-1.22c1.59-0.74,2.98-1.76,4.16-3.04c1.22-1.32,2.17-2.82,2.87-4.49c0.69-1.67,1.04-3.46,1.04-5.35
		c0-1.93-0.37-3.71-1.12-5.35c-0.74-1.64-1.76-3.07-3.04-4.29c-1.22-1.15-2.64-2.05-4.26-2.69c-1.62-0.64-3.32-1-5.07-1.07h-9.13
		c-2.44,0-4.73-0.42-6.88-1.27c-2.15-0.84-4.03-2.03-5.66-3.55c-1.66-1.52-2.94-3.32-3.86-5.4c-0.91-2.08-1.37-4.32-1.37-6.72
		c0-2.4,0.46-4.67,1.37-6.8c0.91-2.13,2.2-4.02,3.86-5.68c1.62-1.62,3.51-2.88,5.66-3.78c2.15-0.9,4.44-1.34,6.88-1.34h19.33
		c1.83,0,2.74,0.73,2.74,2.18c0,1.59-0.91,2.38-2.74,2.38H284.2c-1.69,0-3.29,0.33-4.79,0.99c-1.51,0.66-2.83,1.58-3.98,2.76
		c-1.15,1.15-2.05,2.5-2.69,4.06s-0.96,3.18-0.96,4.87c0,1.76,0.32,3.42,0.96,4.97c0.64,1.56,1.56,2.93,2.74,4.11
		c1.15,1.18,2.47,2.11,3.96,2.77c1.49,0.66,3.08,0.99,4.77,0.99h9.39c2.5,0,4.88,0.43,7.13,1.29c2.25,0.86,4.24,2.09,5.96,3.68
		s3.07,3.47,4.03,5.63c0.96,2.17,1.45,4.5,1.45,7c0,2.57-0.48,5-1.45,7.28c-0.96,2.28-2.31,4.29-4.03,6.01
		c-1.73,1.72-3.72,3.08-5.99,4.06c-2.27,0.98-4.63,1.47-7.1,1.47h-19.53C273.24,1045.29,272.6,1045.07,272.12,1044.63z"/>
	<path class="st1" d="M351.68,1044.81c-0.39-0.42-0.58-0.96-0.58-1.6v-59.92h-18.77c-0.64,0-1.18-0.22-1.6-0.66
		c-0.42-0.44-0.63-0.98-0.63-1.62c0-0.61,0.21-1.13,0.63-1.57c0.42-0.44,0.96-0.66,1.6-0.66h42.62c0.68,0,1.23,0.22,1.65,0.66
		c0.42,0.44,0.63,0.98,0.63,1.62c0,0.68-0.21,1.22-0.63,1.62c-0.42,0.41-0.97,0.61-1.65,0.61h-19.43v59.92
		c0,0.61-0.21,1.13-0.63,1.57c-0.42,0.44-0.96,0.66-1.6,0.66C352.6,1045.44,352.07,1045.23,351.68,1044.81z"/>
	<path class="st1" d="M398.41,1044.68c-0.44-0.44-0.66-0.96-0.66-1.57V981c0-0.64,0.22-1.17,0.66-1.6c0.44-0.42,0.96-0.63,1.57-0.63
		h17.71c3.21,0,6.27,0.55,9.16,1.65c2.89,1.1,5.42,2.66,7.59,4.69c2.16,2.06,3.86,4.47,5.07,7.23s1.83,5.72,1.83,8.9
		s-0.61,6.13-1.83,8.85c-1.22,2.72-2.91,5.07-5.07,7.03c-2.17,1.96-4.69,3.48-7.59,4.57c-2.89,1.08-6,1.62-9.31,1.62h-1.17
		l18.92,18.01c0.47,0.37,0.71,0.95,0.71,1.73c0,0.61-0.24,1.12-0.71,1.55c-0.47,0.42-1.01,0.63-1.62,0.63
		c-0.68,0-1.23-0.22-1.67-0.66l-22.12-21.26h-7.61v19.79c0,0.61-0.22,1.13-0.66,1.57c-0.44,0.44-0.98,0.66-1.62,0.66
		C399.37,1045.34,398.85,1045.12,398.41,1044.68z M417.59,1018.75c2.81,0,5.4-0.45,7.76-1.34c2.37-0.9,4.43-2.16,6.19-3.78
		c1.69-1.59,2.99-3.44,3.91-5.56c0.91-2.11,1.37-4.39,1.37-6.82c0-2.4-0.47-4.69-1.4-6.88c-0.93-2.18-2.24-4.1-3.93-5.76
		c-1.73-1.66-3.75-2.95-6.09-3.88c-2.33-0.93-4.85-1.39-7.56-1.39h-15.58v35.41H417.59z"/>
	<path class="st1" d="M463.69,1044.81c-0.44-0.42-0.66-0.94-0.66-1.55V980.8c0-0.68,0.21-1.21,0.63-1.6
		c0.42-0.39,0.96-0.58,1.6-0.58c0.64,0,1.18,0.19,1.62,0.58c0.44,0.39,0.66,0.92,0.66,1.6v62.46c0,0.61-0.22,1.12-0.66,1.55
		c-0.44,0.42-0.98,0.63-1.62,0.63C464.65,1045.44,464.12,1045.23,463.69,1044.81z"/>
	<path class="st1" d="M491.72,1044.76c-0.41-0.35-0.66-0.8-0.76-1.34V980.9c0-0.64,0.2-1.18,0.61-1.62
		c0.41-0.44,0.95-0.66,1.62-0.66h25.93c2.33,0,4.56,0.46,6.67,1.37c2.11,0.91,3.97,2.18,5.56,3.8c1.59,1.62,2.82,3.54,3.7,5.73
		c0.88,2.2,1.32,4.5,1.32,6.9c0,3.04-0.73,5.81-2.18,8.3c-1.46,2.49-3.43,4.51-5.94,6.06c2.98,1.62,5.34,3.87,7.1,6.75
		c1.79,2.94,2.69,6.14,2.69,9.59c0,2.47-0.47,4.8-1.4,7c-0.93,2.2-2.22,4.13-3.88,5.78c-1.69,1.69-3.65,3.01-5.86,3.96
		c-2.22,0.95-4.52,1.42-6.93,1.42h-26.79C492.61,1045.29,492.12,1045.11,491.72,1044.76z M519.62,1008.71
		c1.66-0.07,3.23-0.42,4.72-1.07c1.49-0.64,2.79-1.52,3.91-2.64c1.12-1.12,1.99-2.41,2.61-3.88c0.63-1.47,0.94-3.04,0.94-4.69
		c0-1.83-0.33-3.55-0.99-5.17c-0.66-1.62-1.58-3.01-2.77-4.16c-1.18-1.15-2.55-2.06-4.11-2.74c-1.56-0.68-3.2-1.05-4.92-1.12h-23.44
		v25.47H519.62z M519.98,1040.67c1.79,0,3.48-0.36,5.07-1.07c1.59-0.71,3.01-1.71,4.26-2.99c1.22-1.25,2.16-2.7,2.82-4.34
		c0.66-1.64,0.99-3.36,0.99-5.15c0-1.79-0.32-3.51-0.96-5.15c-0.64-1.64-1.56-3.1-2.74-4.39c-1.18-1.29-2.56-2.3-4.14-3.04
		c-1.57-0.74-3.22-1.15-4.95-1.22h-24.76v27.35H519.98z"/>
	<path class="st1" d="M573.63,1044c-2.88-1.3-5.33-3.12-7.36-5.45c-1.93-2.2-3.42-4.72-4.46-7.56c-1.05-2.84-1.57-5.75-1.57-8.73
		v-41.15c0-0.64,0.22-1.18,0.66-1.62c0.44-0.44,1-0.66,1.67-0.66c0.61,0,1.15,0.23,1.62,0.68c0.47,0.46,0.71,0.99,0.71,1.6v40.84
		c0,2.71,0.45,5.23,1.34,7.58c0.9,2.35,2.17,4.42,3.83,6.21c1.66,1.79,3.61,3.18,5.86,4.16c2.25,0.98,4.71,1.47,7.38,1.47
		c2.77,0,5.35-0.51,7.74-1.55c2.38-1.03,4.47-2.48,6.27-4.34c1.76-1.86,3.12-4.03,4.08-6.52c0.96-2.49,1.45-5.15,1.45-7.99v-39.88
		c0-0.64,0.23-1.18,0.69-1.62c0.46-0.44,1.01-0.66,1.65-0.66c0.61,0,1.15,0.23,1.62,0.68s0.71,0.99,0.71,1.6v40.18
		c0,3.15-0.55,6.19-1.65,9.13c-1.1,2.94-2.66,5.56-4.69,7.86c-2.13,2.4-4.72,4.28-7.76,5.63c-3.04,1.35-6.43,2.03-10.15,2.03
		C579.72,1045.95,576.51,1045.3,573.63,1044z"/>
	<path class="st1" d="M633.48,1044.81c-0.44-0.42-0.66-0.94-0.66-1.55V980.8c0-0.68,0.21-1.21,0.63-1.6
		c0.42-0.39,0.96-0.58,1.6-0.58c0.64,0,1.18,0.19,1.62,0.58c0.44,0.39,0.66,0.92,0.66,1.6v62.46c0,0.61-0.22,1.12-0.66,1.55
		c-0.44,0.42-0.98,0.63-1.62,0.63C634.45,1045.44,633.92,1045.23,633.48,1044.81z"/>
	<path class="st1" d="M663.44,1044.66c-0.44-0.42-0.66-0.96-0.66-1.6v-62.1c0-0.68,0.21-1.22,0.63-1.62
		c0.42-0.41,0.96-0.61,1.6-0.61h19.94c3.38,0,6.53,0.59,9.44,1.78c2.91,1.18,5.43,2.83,7.56,4.92c2.1,2.06,3.72,4.47,4.87,7.23
		c1.15,2.76,1.72,5.66,1.72,8.7v21.36c0,3.01-0.58,5.89-1.72,8.65c-1.15,2.76-2.77,5.17-4.87,7.23c-2.13,2.1-4.65,3.74-7.56,4.92
		c-2.91,1.18-6.05,1.78-9.44,1.78h-19.94C664.41,1045.29,663.88,1045.08,663.44,1044.66z M684.96,1040.82c2.88,0,5.5-0.49,7.87-1.47
		c2.37-0.98,4.41-2.33,6.14-4.06c1.62-1.69,2.88-3.62,3.75-5.78c0.88-2.16,1.32-4.43,1.32-6.8v-21.41c0-2.33-0.44-4.59-1.32-6.77
		c-0.88-2.18-2.13-4.1-3.75-5.76c-1.72-1.73-3.77-3.07-6.14-4.03c-2.37-0.96-4.99-1.45-7.87-1.45H667.3v57.54H684.96z"/>
	<path class="st1" d="M745.23,1044.05c-2.96-1.23-5.56-2.97-7.79-5.2c-2.2-2.17-3.92-4.64-5.15-7.43c-1.23-2.79-1.85-5.69-1.85-8.7
		v-21.36c0-3.01,0.62-5.92,1.85-8.73c1.23-2.81,2.95-5.31,5.15-7.51c2.23-2.2,4.84-3.92,7.81-5.15c2.98-1.23,6.14-1.85,9.49-1.85
		c3.38,0,6.56,0.62,9.54,1.85s5.58,2.95,7.81,5.15c2.2,2.17,3.91,4.66,5.12,7.48c1.22,2.83,1.83,5.74,1.83,8.75v21.36
		c0,3.01-0.61,5.91-1.83,8.7c-1.22,2.79-2.93,5.27-5.12,7.43c-2.23,2.2-4.84,3.92-7.81,5.17c-2.98,1.25-6.16,1.88-9.54,1.88
		S748.19,1045.28,745.23,1044.05z M762.66,1039.83c2.44-1.03,4.57-2.46,6.39-4.29c1.72-1.73,3.07-3.71,4.03-5.96
		c0.96-2.25,1.45-4.54,1.45-6.88v-21.41c0-2.33-0.48-4.61-1.45-6.82c-0.96-2.21-2.31-4.2-4.03-5.96c-1.83-1.83-3.96-3.25-6.39-4.29
		c-2.44-1.03-5.07-1.55-7.92-1.55c-2.84,0-5.49,0.52-7.94,1.55c-2.45,1.03-4.58,2.46-6.37,4.29c-1.76,1.76-3.12,3.75-4.08,5.96
		c-0.96,2.22-1.45,4.49-1.45,6.82v21.41c0,2.33,0.48,4.63,1.45,6.88c0.96,2.25,2.33,4.24,4.08,5.96c1.79,1.83,3.92,3.26,6.37,4.29
		c2.45,1.03,5.1,1.55,7.94,1.55C757.59,1041.38,760.23,1040.87,762.66,1039.83z"/>
	<path class="st1" d="M804.14,1044.68c-0.44-0.44-0.66-0.96-0.66-1.57V981c0-0.64,0.22-1.17,0.66-1.6c0.44-0.42,0.96-0.63,1.57-0.63
		h17.71c3.21,0,6.27,0.55,9.16,1.65c2.89,1.1,5.42,2.66,7.59,4.69c2.16,2.06,3.86,4.47,5.07,7.23c1.22,2.76,1.83,5.72,1.83,8.9
		s-0.61,6.13-1.83,8.85c-1.22,2.72-2.91,5.07-5.07,7.03c-2.17,1.96-4.69,3.48-7.59,4.57c-2.89,1.08-6,1.62-9.31,1.62h-1.17
		l18.92,18.01c0.47,0.37,0.71,0.95,0.71,1.73c0,0.61-0.24,1.12-0.71,1.55s-1.01,0.63-1.62,0.63c-0.68,0-1.23-0.22-1.67-0.66
		l-22.12-21.26H808v19.79c0,0.61-0.22,1.13-0.66,1.57c-0.44,0.44-0.98,0.66-1.62,0.66C805.1,1045.34,804.58,1045.12,804.14,1044.68z
		 M823.32,1018.75c2.81,0,5.4-0.45,7.76-1.34c2.37-0.9,4.43-2.16,6.19-3.78c1.69-1.59,2.99-3.44,3.91-5.56
		c0.91-2.11,1.37-4.39,1.37-6.82c0-2.4-0.47-4.69-1.4-6.88c-0.93-2.18-2.24-4.1-3.93-5.76c-1.72-1.66-3.75-2.95-6.09-3.88
		c-2.33-0.93-4.85-1.39-7.56-1.39H808v35.41H823.32z"/>
	<path class="st1" d="M869.26,1044.78c-0.44-0.44-0.66-0.98-0.66-1.62v-41.15c0-2.98,0.52-5.89,1.57-8.73
		c1.05-2.84,2.54-5.38,4.46-7.61c2.03-2.3,4.49-4.1,7.38-5.4c2.89-1.3,6.1-1.95,9.62-1.95c3.75,0,7.14,0.67,10.17,2
		c3.03,1.34,5.61,3.21,7.74,5.61c2.03,2.3,3.59,4.92,4.69,7.86c1.1,2.94,1.65,6,1.65,9.18v40.18c0,0.61-0.24,1.14-0.71,1.6
		c-0.47,0.46-1.01,0.69-1.62,0.69c-0.64,0-1.19-0.22-1.65-0.66c-0.46-0.44-0.69-0.98-0.69-1.62v-19.53h-37.95v19.53
		c0,0.61-0.24,1.14-0.71,1.6c-0.47,0.46-1.01,0.69-1.62,0.69C870.26,1045.44,869.7,1045.22,869.26,1044.78z M911.22,1018.96v-15.73
		c0-2.81-0.48-5.45-1.45-7.94s-2.33-4.66-4.08-6.52c-1.79-1.86-3.88-3.31-6.27-4.34s-4.96-1.55-7.74-1.55
		c-2.67,0-5.13,0.49-7.38,1.47s-4.2,2.35-5.86,4.11c-1.66,1.76-2.94,3.84-3.83,6.24c-0.9,2.4-1.34,4.96-1.34,7.66v16.59H911.22z"/>
</g>
<g>
	<path class="st1" d="M698.61,750.29c-1.09,19.28-0.34,38.87-3.65,57.76c-7.32,41.87-44.82,70.94-88.15,70.58
		c-42.12-0.34-78.19-30.48-85.93-71.9c-0.78-4.18-1.45-8.46-1.47-12.7c-0.14-29.7-0.55-59.41,0.01-89.1
		c0.85-45.81,38.87-83.72,84.66-85.2c47.86-1.55,88.78,33.39,92.38,79.94c1.3,16.76,0.21,33.7,0.21,50.56
		C697.32,750.26,697.97,750.28,698.61,750.29z M654.48,749.26c0.01,0,0.02,0,0.02,0c0-14.15,0.68-28.35-0.15-42.45
		c-1.52-26.06-22.17-45.02-47.42-44.53c-24.99,0.49-45.01,20.88-45.32,46.81c-0.32,26.74-0.53,53.49,0.05,80.23
		c0.43,19.83,9.57,35.12,28.25,43.01c29.95,12.66,62.31-7.38,64.4-39.94C655.24,778.07,654.48,763.64,654.48,749.26z"/>
	<path class="st1" d="M915.49,777.9c0,25.2,0.23,50.41-0.08,75.61c-0.2,15.95-14.43,25.57-28.96,20.15
		c-8.58-3.2-13.32-10.7-13.33-21.34c-0.05-46.81-0.02-93.61-0.12-140.42c-0.05-23.68-13.21-41.9-34.26-47.78
		c-31.06-8.67-60.02,13.15-60.08,45.42c-0.08,46.81,0.07,93.61-0.18,140.42c-0.03,4.99-1,10.48-3.26,14.84
		c-4.46,8.59-14.5,12.05-23.76,9.46c-9.4-2.63-15.55-10.3-15.68-20.34c-0.2-15.07-0.06-30.15-0.06-45.23
		c0-33.3-0.09-66.61,0.02-99.91c0.15-44.99,34.5-83.96,77.86-88.54c56.8-5.99,101.37,33.64,101.95,90.84
		c0.23,22.28,0.04,44.56,0.04,66.83C915.56,777.9,915.52,777.9,915.49,777.9z"/>
	<path class="st1" d="M384.92,726.08c3.39,0,6.71,0,10.04,0c16.19-0.01,32.39-0.16,48.58,0.02c13.55,0.14,23.24,9.35,22.9,21.31
		c-0.34,11.99-9.57,19.94-23.34,19.97c-19.29,0.04-38.58,0.01-58.33,0.01c0,21.44,0,42.25,0,64.25c2.58,0,5.16,0,7.73,0
		c26.99-0.01,53.98-0.15,80.97,0.02c13.95,0.09,23.75,10.22,22.67,22.8c-0.94,10.89-9.29,19.31-20.57,19.38
		c-38.23,0.24-76.47,0.19-114.71-0.01c-9.27-0.05-16.57-6.82-18.26-15.98c-0.57-3.07-0.68-6.26-0.69-9.39
		c-0.07-65.9-0.1-131.8-0.11-197.7c0-18.98,7.57-26.48,26.66-26.48c34.86-0.01,69.73-0.06,104.59,0.03
		c16,0.04,26.3,12.58,22.43,27.02c-2.65,9.9-10.82,15.84-22.33,15.87c-26.54,0.08-53.08,0.02-79.62,0.02c-2.67,0-5.35,0-8.6,0
		C384.92,686.88,384.92,706.06,384.92,726.08z"/>
	<path class="st1" d="M164.45,747.73c0-33.95-0.09-67.91,0.04-101.86c0.06-16.83,14.2-27.23,29.01-21.65
		c8.79,3.31,13.47,10.8,13.47,21.93c0.01,28.11-0.07,56.21-0.09,84.32c-0.02,31.48,0.1,62.96-0.14,94.44
		c-0.04,5.33,1.5,6.9,6.83,6.85c26.31-0.25,52.62-0.21,78.92-0.07c12.92,0.07,22,8.32,22.71,20.11
		c0.71,11.85-7.75,21.95-19.61,22.03c-37.1,0.26-74.2,0.22-111.3-0.02c-10.11-0.07-16.7-6.18-18.69-16.22
		c-0.78-3.94-1.07-8.03-1.08-12.05c-0.08-32.6-0.05-65.21-0.05-97.81C164.46,747.73,164.46,747.73,164.45,747.73z"/>
	<path class="st1" d="M500.19,216.87c-1.72,11.49-4.12,22.93-5,34.48c-1.69,22.32,4.39,42.32,22.68,56.38
		c22.06,16.96,45.08,32.68,67.42,49.29c14.58,10.84,29.44,21.49,42.79,33.73c13.6,12.47,21.25,28.85,23.16,47.49
		c1.11,10.87-1.77,21-6.58,30.77c-1.63-7.57-2.98-15.22-4.94-22.71c-7.25-27.77-23.41-47.75-50.07-59.71
		c-18.6-8.35-36.88-17.74-54.23-28.41c-11.14-6.85-21.05-16.15-30.28-25.57c-27.33-27.86-30.08-60.35-15.97-95.32
		c2.91-7.2,6.78-14.02,10.21-21.01C499.65,216.48,499.92,216.67,500.19,216.87z"/>
	<path class="st1" d="M914.96,923.34c0,2.6,0,4.57,0,6.95c-250.04,0-499.88,0-750.28,0c-0.11-2.18-0.21-4.3-0.35-6.95
		C414.62,923.34,664.44,923.34,914.96,923.34z"/>
	<path class="st1" d="M417,286.17c5.98,25.56,14.84,49.95,28.37,72.52c16.94,28.27,40.77,50.11,66.29,70.28
		c20.98,16.59,42.94,32.05,60,53.07c14.51,17.87,21.95,37.98,19.6,61.24c-0.16,1.56-0.4,3.12-0.75,4.65
		c-0.19,0.84-0.68,1.62-1.34,3.1c-3.51-7.87-6.53-15.29-10.07-22.45c-13.44-27.16-32.32-49.46-57.89-66.19
		c-27.14-17.76-53.32-36.78-73.95-62.38c-25.18-31.23-34.62-67-31.44-106.54c0.11-1.34,0.36-2.67,0.58-4
		C416.57,288.35,416.79,287.26,417,286.17z"/>
	<path class="st1" d="M587.71,105.3c-3.36-3.55-6.71-7.11-10.09-10.64c-17.09-17.85-38.79-24.01-62.69-25.4
		c-37.72-2.2-69.32,11.27-97.18,35.83c-19.99,17.62-42.47,31.19-69.02,36.2c-8.43,1.59-17.42,1.54-25.98,0.63
		c-7.27-0.78-13.08-5.36-15.97-11.92c15.4-3.79,30.76-6.85,45.67-11.4c23.46-7.16,44.44-19.39,63.7-34.45
		c30.34-23.72,64.73-35.52,103.18-35.22c30.48,0.24,56.75,18.93,67.33,47.44c0.99,2.68,1.59,5.5,2.38,8.25
		C588.58,104.86,588.14,105.08,587.71,105.3z"/>
	<path class="st1" d="M271.6,403.65c19.7-27.95,22.31-60.29,24.61-92.62c1.8-25.32,6.77-49.88,16.7-73.26
		c11.73-27.63,33.3-45.5,60.77-60.03c-1.14,2.57-1.39,3.57-1.95,4.33c-27.98,38.16-40.46,82.23-49.3,127.81
		c-3.84,19.77-5.94,40.09-15.99,58.23C298.11,383.15,287.12,395.49,271.6,403.65z"/>
	<path class="st1" d="M548.8,118.21c-9.02,8.51-17.15,15.43-31.46,13.97c-65.2-6.66-124.34,10.61-176.92,49.52
		c-18.95,14.03-36.84,29.49-55.2,44.31c-1.54,1.24-3,2.59-5.28,4.57c16.25-30.88,64.36-79.53,120.36-100.46
		C448.77,112.02,498.18,107.98,548.8,118.21z"/>
	<path class="st1" d="M570.37,185.23c-13.33,17.44-23.66,34.59-27.31,55.25c-1.13-3.75-2.14-7.55-3.41-11.25
		c-8.12-23.55-23.28-32.5-47.49-26.98c-28.04,6.39-54.01,16.98-73.31,39.89c5.05-17.14,11.88-33.62,27.64-43.45
		c32.74-20.42,68.48-27.28,106.54-19.98C558.61,179.79,563.83,182.72,570.37,185.23z"/>
	<path class="st1" d="M389.71,240.82c-3.51,12.65-7.81,25.15-10.37,37.99c-6.86,34.36-4.17,68.64,4.49,102.24
		c6.37,24.74,14.91,48.92,22.48,73.35c0.38,1.22,0.8,2.43,0.45,4.1c-0.61-0.71-1.36-1.34-1.82-2.14
		c-25.54-44-44.32-90.46-49.48-141.47c-1.39-13.71,0.11-27.74,0.68-41.61c0.11-2.72,1.32-6.16,3.25-7.93
		c9.64-8.84,19.69-17.24,29.6-25.79C389.22,239.99,389.47,240.41,389.71,240.82z"/>
	<path class="st1" d="M553.37,382.74c34.03,18.49,60.72,43.32,69.62,82.9c7.96,35.41-5.28,80.6-29.48,99.66
		C614.78,496.11,605.86,434.54,553.37,382.74z"/>
	<path class="st1" d="M592.94,236.97c6,23.34,19.95,36.95,41.86,43.84c11.42,3.59,21.89,10.24,32.75,15.57
		c5.64,2.77,11.02,6.2,16.86,8.39c12.28,4.6,22.11,0.57,28.38-10.9c0.82-1.5,1.62-3.02,2.64-4.93c6.31,25.13-5.35,48.73-22.47,51.23
		c-5.2-17.84-20.27-25.19-35.52-32.06c-9.81-4.42-20.38-7.29-29.89-12.23c-9.87-5.12-19.68-10.96-28.08-18.17
		C588.4,268.22,586.16,251.25,592.94,236.97z"/>
	<path class="st1" d="M582.51,278.4c15.7,15.22,32.02,25.44,52.22,29.9c-16.78,8.53-20.46,22.04-10.08,38.96
		c5.83,9.51,13.33,18.03,20.33,26.79c13.54,16.94,18.77,35.99,15.23,57.42c-0.11,0.66-0.21,1.33-0.4,1.98
		c-0.12,0.41-0.4,0.78-1.13,2.14c-0.59-1.95-1.16-3.15-1.31-4.4c-2.56-22.38-11.44-41.68-26.89-58.25
		c-11.63-12.47-22.68-25.52-33.45-38.75c-9.15-11.24-14.2-24.45-15.17-38.96C581.51,290.26,582.2,285.23,582.51,278.4z"/>
	<path class="st1" d="M717.58,255.92c-31.68-11.83-60.94-3.18-90.65,5.53c-0.69-7.45,3.27-11.6,8.43-13.61
		c6.82-2.66,14.18-3.93,21.34-5.69c8.06-1.98,16.28-3.43,24.19-5.86c7.74-2.38,13.82-7.41,17.93-14.55
		c5.71-9.94,7.33-21.96-2.9-31.36c-2.23-2.05-3.09-5.57-4.59-8.42c3.38-1.31,6.67-2.96,10.16-3.79c2.31-0.55,4.92-0.07,7.38,0.2
		c12.16,1.31,16.92,9.07,10.99,19.75c-8.28,14.91-8.86,30.35-5.6,46.41C714.91,247.79,716.11,250.95,717.58,255.92z"/>
	<path class="st1" d="M541.14,31.51c9.51-4.79,18.19-5.29,26.78-3.69c27.38,5.09,46.05,23.91,51.51,51.32
		c0.83,4.19,1.69,8.38,2.24,12.61c2.07,16.09,6.77,30.73,21.79,40c-8.38-0.9-15.81-3.43-21.57-9.57c-8.22-8.76-15.01-18.98-14.67-31
		c0.83-28.71-24.77-52.01-51.08-57.05C551.62,33.26,547.07,32.54,541.14,31.51z"/>
	<path class="st1" d="M568.68,152.55c13.16-3.03,26.51-6.16,39.9-9.12c1.78-0.39,4.57-0.72,5.51,0.26
		c10.5,10.86,22.88,18.44,37.55,22.6C621.97,171.01,594.05,166.44,568.68,152.55z"/>
	<path class="st1" d="M461.04,425.4c-20.67,17.04-28.44,39.33-30.19,64.47c-4.29-28.47-1.04-56.19,7.72-84.79
		C446.46,412.22,453.49,418.57,461.04,425.4z"/>
</g>
</svg>
