<?xml version="1.0" encoding="utf-8"?>
<!-- Generator: Adobe Illustrator 22.0.0, SVG Export Plug-In . SVG Version: 6.00 Build 0)  -->
<svg version="1.1" id="Layer_1" xmlns="http://www.w3.org/2000/svg" xmlns:xlink="http://www.w3.org/1999/xlink" x="0px" y="0px"
	 viewBox="0 0 216 216" style="enable-background:new 0 0 216 216;" xml:space="preserve">
<style type="text/css">
	.st0{fill:#FFFFFF;}
	.st1{fill:#2A2D7C;}
	.st2{fill:#F99D33;}
</style>
<g>
	<path class="st0" d="M44.5,212c-1.1,0-2.2-0.2-3.2-0.7c-2-0.9-3.6-2.5-4.3-4.6l-0.1-0.2c-1.1-0.4-2.1-1-3.2-1.8
		c-2.6,1.9-5.9,2.9-9.7,2.9c-16,0-16-17.8-16-26.4c0-7.8,0-25.9,16.5-25.9c2.6,0,5,0.5,7,1.5c-0.2-3.7,1.3-6.4,1.8-7.4
		c1.7-3.1,3.4-6.1,5.1-9l0.6-1.1c1.5-2.5,3-5,4.3-7.5c0.6-1.2,1-3.1,1-4.2c0-0.6-0.1-5.2-0.4-13.4c-0.5,0.1-1.1,0.1-1.7,0.1
		c-4.6,0-9.8-3.2-11.3-5.5c-2.4-3.4-1-7.5-0.1-10c1.7-4.9,3.6-9.6,5.4-14c1.2-2.9,3-5.6,5.5-8.3c2.4-2.6,5.1-5.2,8.1-7.9
		c0.3-0.3,0.6-0.5,0.9-0.8c-3.8-3.4-6.2-8.3-6.2-13.7c0-10.1,8.2-18.4,18.4-18.4s18.4,8.2,18.4,18.4c0,1.3-0.1,2.7-0.4,3.9
		c1.6-0.4,2.7-0.7,2.7-0.7c2.3-0.7,4.8-1.6,7.7-2.9c2.4-1.1,4.6-2,6.6-2.8c1-0.4,2.1-0.8,3.4-1c0.2-0.1,0.3-0.3,0.4-0.4
		c1.9-1.7,11-8.4,12.3-9.3c0.2-0.2,0.5-0.4,0.7-0.6c-8.4-1.7-14.7-9.1-14.7-18C100,12.3,108.3,4,118.4,4c8.6,0,15.8,5.9,17.8,13.8
		c1.9-1.5,3.9-2.2,5.3-2.5c2.4-0.6,8.7-2.1,13.8-3.3l2.5-0.6c2.2-0.5,4.2-0.8,6.1-0.8c2.5,0,4.6,0.5,6.5,1.4
		c1.4,0.7,18,10.5,18.2,10.5c5.4,3.4,6.9,9.4,3.7,14.5c-0.9,1.5-3.6,6-9.1,6c-2.3,0-4.2-0.8-5.6-1.5c-1.2-0.6-3.5-1.7-6-2.9
		c3.2,3.1,6,5.9,7.1,6.9c2.5,2.4,4.3,7.2,4.4,10.6c0.2,1.3,1.9,14.8,1.9,14.8c0.7,5.9,1.6,7.8,2,8.4c1.4,2,7.7,11.6,9.8,15.3
		c2.1,3.5,2.1,7.4,0.3,10.8c4.7,2.3,7.9,7.2,7.9,12.7v8.4c0,2.4-0.6,4.7-1.7,6.8c3,2.6,4.8,6.4,4.8,10.7v8.4
		c0,7.8-6.4,14.2-14.2,14.2l0,17.8h0.4c4.4,0,8,3.6,8,8v6.7c0,4.4-3.6,8-8,8H180c-0.3,0-0.6,0-0.9-0.1c-0.3,0-0.6,0.1-0.9,0.1h-6
		c-1.4,0-2.7-0.4-3.8-1c-1.1,0.6-2.5,1-3.8,1h-6c-0.1,0-0.3,0-0.4,0c-0.1,0-0.3,0-0.4,0h-6.2c-0.9,0-1.8-0.2-2.6-0.4
		c-0.8,0.3-1.7,0.4-2.6,0.4h-5.8c-0.5,0-1,0-1.5-0.1c-0.5,0.1-1,0.1-1.5,0.1h-4c-0.3,0-0.6,0-0.9,0c-1.4,0.5-3,0.7-4.6,0.7
		c-2.2,0-4.3-0.5-6.1-1.3c-1,0.4-2,0.6-3.1,0.6h-14.6c-1.3,0-2.5-0.3-3.6-0.9c-1.1,0.5-2.3,0.9-3.6,0.9h-5.8c-1.3,0-2.5-0.3-3.6-0.9
		c-0.2,0.1-0.4,0.2-0.6,0.3c-1.4,1-3,1.6-4.8,1.6l-0.6,0c-2.8-0.2-5.7-0.3-8.4-0.3c-16.3,0-25.3,3.7-25.3,3.7
		C46.6,211.7,45.6,212,44.5,212z M59.2,153.8c2.6,0,5.2,0.8,7.3,2.2c0.1,0,2.5,0,2.5,0c-0.3-1.2-0.5-2.4-0.5-3.7v-8.4
		c0-7.8,6.4-14.2,14.2-14.2h6.9c-2-4.3-4-10.2-4.8-12.8c-1.9,0-3.8,0.1-5.5,0.2c-2.2,0.1-4.6,0.3-7.4,0.7c-0.6,2.7-1,5.5-1.5,8.2
		c-0.2,1.4-0.5,2.8-0.7,4.1c-0.6,3.5-1.5,7.6-3.6,11.4c-2.5,4.5-4.8,8.6-7.2,12.4C58.9,153.8,59.1,153.8,59.2,153.8z M132.3,129.7
		c-0.2-1-0.4-2.1-0.4-3.2v-8.4c0-3.6,1.3-7,3.6-9.5c-4.6-28-4.6-28-4.6-28.4c-0.3-5,2.1-8.8,2.9-10c1.3-2,4.6-7.4,7.1-11.4
		c-2.2-1.3-4.7-2.9-6.3-3.8c-3.4,2.2-13.1,8.7-17.1,11.3c-3.5,2.3-3.5,2.3-3.8,2.5c-0.7,0.4-1.5,0.6-2.3,0.8c-0.4,0.5-0.8,0.7-1,0.9
		c-2.6,1.8-5.2,3.3-7.1,4.4c-3.6,2-7.9,4.2-13.1,5.3c-1.1,0.2-2.3,0.6-3.6,1.2c-1.2,3.2-2.1,6.5-2.8,9.7c2.7,0.1,6,0.3,8.1,0.4
		c6.1,0.3,9.7,2.5,12.8,8l0.2,0.4c1.7,3.6,4.2,11.3,7.8,23.4l0.1,0.5c0.7,2,0.5,4.2-0.4,6.2H132.3z M174.1,103.9
		c-4.5-5.9-11.8-15.6-11.9-15.7c-0.9-1.3-1.9-4-2.7-7.1c-1.3,1.5-2.5,2.9-3.4,3.9c0.5,4.6,1.6,14.6,1.7,15.6l0.1,0.9
		c0.1,0.7,0.2,1.5,0.2,2.3H174.1z"/>
	<path class="st1" d="M107,56.4c2.1-1.9,9.9-7.7,11.6-8.8c1.9-1.3,3.3-3.2,4.5-5.1c1.9-3,10-11.2,18-18.3c0.7-0.6,1.5-0.9,2.4-1.1
		c3.8-1,18.8-4.8,20.7-4.7c2.8,0.3,16,8.1,19.5,10.5c2.1,1.4,2.6,2.9,1.8,4.3c-1,1.6-2.3,2.2-4.4,1.1c-1.6-0.8-13.2-7.1-15.4-7.1
		c-2.5,0-10.4,1.6-11.8,2.2c-1.3,0.5-1.5,1-0.7,2.2c0.2,0.3,13.3,13.7,19.1,19.6c2.8,2.8,2.7,5.1,2.9,6.7c0.7,5.3,1.8,14.7,2.4,19.2
		c0.2,2.5,1,4,1.9,5.6c2.7,4.6,8.1,12.1,10.3,15.9c0.4,0.7,1.8,2.5-1.4,4.7c-2.8,2.2-4.7-0.3-5.5-1.1c-1.7-2-3.3-4.1-4.9-6.1
		c-3.2-4.1-6.4-8.2-9.3-12.5c-0.1-0.2-4.4-16.5-4.4-16.6c-0.7-2.1-0.9-2.1-2.5-0.6c-2.1,2-10.8,12.2-13.2,15
		c-0.4,0.5-0.8,1.2-0.7,1.8c0.1,1.8,0.3,3.6,0.5,5.4c0.3,3.1,1.9,16.5,1.9,18.2c0,0.8,0.1,1.3-3,1.7c-3.2,0.4-3.8-0.4-3.9-1.3
		c-1.3-6.7-3.1-20-3.6-23.2c-0.5-4.4-1-6.2,0.9-9.6c2.5-3.8,7.7-12.4,10.1-16.3c0.8-1.3,0.5-2.3-1.8-4c-3.5-2.2-9.8-5.8-12.8-7.6
		c-1-0.7-2-0.7-3-0.1c-0.5,0.3-22.9,15.1-22.9,15.1c-1.4,0.8-2.9-0.6-3.2-1.1C106.6,59.7,105.4,57.6,107,56.4z"/>
	<path class="st2" d="M94.4,99.7c1.4,0.2,2.5,1.6,2.9,2.7s4.2,10.8,5.8,16.2c0.6,2,1.1,4,1.7,6c0,0.3,0.1,0.6,0.1,0.9
		c0.3,1.5-1.2,2.5-2.5,3.2c-1,0.5-3.4,1-4.1,0.1c-1.3-2-5.8-14-6.7-16.4s-2.4-3.4-4.5-3.6c-2.8-0.1-5.5,0-8.3,0.2
		c-3.7,0.2-7.4,0.6-11,1.2c-1.6,0.2-2.7,1.1-3.1,2.7c-0.1,0.4-2.1,10.9-2.9,15.7c-0.5,3.1-1.2,6.2-2.8,9c-3.3,6-6.8,11.8-10.6,17.4
		c-1.2,1.7-3,4-4,4.8c-1.8,1.2-5.2-1.7-5.2-3.3c0-1.6,0.5-2.2,1.2-3.3c3.2-6,9.1-15.5,9.9-16.8c0.8-1.3,2.2-3.4,2.2-5.5
		c-0.1-2.1,0.1-4.2,0-6.2c-0.2-4.6-0.4-11.7-0.4-14.2c0-2.4,0.7-10.5,2.1-14.6c0.3-1,3.1-11.1,2.9-11.8c-0.8,0.1-5,3.9-6.4,5.5
		c-1.2,1.3-2.1,2.8-2.7,4.5c-0.7,2.1-4.3,11-4.6,11.5c-0.2,0.5-1,1.5-3.1,0.8c-2-0.8-3-1.5-2.6-2.6c1.6-4.5,4.1-11.2,6-15.7
		c0.9-2.3,2.3-4.2,4-6c2.4-2.6,4.9-5,7.6-7.3c1.9-1.7,4.1-2.5,6.5-3.1c0.4-0.1,21.7-5.8,24-6.5c3-0.9,6-2,8.8-3.3
		c2.1-0.9,4.2-1.9,6.4-2.7c1-0.4,3.5-1.2,4.8,1.5c0.7,1.3,0.7,2.6,0,3.2c-2,1.4-4.2,2.7-6.4,3.9c-3.5,1.9-7,3.7-10.9,4.5
		c-2.1,0.4-4.1,1.2-6.1,2c-1.6,0.7-2.5,1.8-3.1,3.4c-1.5,4.1-2.8,8.2-3.7,12.5c-0.4,1.7-0.7,3.5-0.9,5.2c-0.2,2.2,1.7,3,2.8,3.2
		C78,98.6,92.9,99.5,94.4,99.7z"/>
	<path class="st1" d="M200,152.3c0,3.4-2.8,6.2-6.2,6.2H82.7c-3.4,0-6.2-2.8-6.2-6.2v-8.4c0-3.4,2.8-6.2,6.2-6.2h111.1
		c3.4,0,6.2,2.8,6.2,6.2V152.3z"/>
	<path class="st1" d="M196.9,126.5c0,3.4-2.8,6.2-6.2,6.2h-44.5c-3.4,0-6.2-2.8-6.2-6.2v-8.4c0-3.4,2.8-6.2,6.2-6.2h44.5
		c3.4,0,6.2,2.8,6.2,6.2V126.5z"/>
	<path class="st1" d="M64.7,167.5c0,3.1-2.5,5.7-5.5,5.7c-3,0-5.5-2.5-5.5-5.7c0-3.1,2.5-5.7,5.5-5.7
		C62.2,161.8,64.7,164.4,64.7,167.5z M61.9,198v-23.1h-5.2v23.5c-8,0.9-13.4,2.6-13.4,2.6l1.1,3c0,0,13.3-5.8,37.5-4
		C74.9,198,68,197.7,61.9,198z"/>
	<path d="M26.9,176.2c0-5.1-0.4-7.3-2.3-7.3c-2.3,0-2.5,3.1-2.5,12.3c0,10.4,0.2,13.1,2.7,13.1c2.1,0,2.4-3.5,2.4-8.9h5.6v1.2
		c0,7.5-1.5,13.2-8.7,13.2c-7.4,0-8-7.9-8-18.4c0-9,0.3-17.9,8.6-17.9c5.1,0,7.9,3.1,7.9,11.4v1.5H26.9z"/>
	<path d="M43.2,199.7c-7.6,0-8.7-7.1-8.7-18.2s1-18.2,8.7-18.2c8.2,0,8.7,8.5,8.7,18.2C51.9,191.2,51.4,199.7,43.2,199.7z
		 M43.2,194.2c2.3,0,2.7-3.1,2.7-12.7s-0.3-12.7-2.7-12.7c-2.3,0-2.6,3.1-2.6,12.7S40.9,194.2,43.2,194.2z"/>
	<path d="M66.9,164h6.7l4.8,22.7h0.1V164h5.4v35h-6.6l-5.1-24.1h-0.1V199h-5.2V164z"/>
	<path d="M90.9,170.7h-5.2V164h16.2v6.7h-5.2V199h-5.8V170.7z"/>
	<path d="M103.9,164h14.3v6.7h-8.5v7h7.9v6.7h-7.9v8h8.8v6.7h-14.6V164z"/>
	<path d="M131.6,174.6c0-2.3-0.2-5.8-2.3-5.8c-2.4,0-2.7,3.4-2.7,12.7c0,9.6,0.3,12.6,2.7,12.6c2,0,2.7-2.5,2.7-7.3v-1.1h-2.7v-5.5
		h8.1V199h-4l-0.1-3.3h-0.1c-0.9,3.1-3.1,4-5.3,4c-6.2,0-7.2-6.5-7.2-17.4c0-11.5,0.6-18.9,8.8-18.9c7.5,0,7.8,7.3,7.8,11.3H131.6z"
		/>
	<path d="M140.4,164h9.7c4.9,0,6.6,4.3,6.6,9.1c0,5.1-1.4,7.6-4.1,8.5v0.1c3.7,0.7,3.9,4,4,8.7c0.1,6.9,0.3,7.6,1.1,8.1v0.4h-6.2
		c-0.4-1.2-0.6-3.1-0.6-7.1c0-6.1-0.6-7.3-2.4-7.3h-2.2V199h-5.8V164z M146.2,178.8h1.8c2.3,0,3-2.5,3-4.6c0-2.6-0.7-4.4-3-4.4h-1.8
		V178.8z"/>
	<path d="M164.7,164h7.2l6.1,35h-6l-0.9-6.7h-5.9l-0.9,6.7h-6L164.7,164z M168.3,170.4L168.3,170.4l-2.1,15.6h4.2L168.3,170.4z"/>
	<path d="M180,164h5.8v28.3h8.4v6.7H180V164z"/>
	<circle class="st2" cx="63.1" cy="54.3" r="10.5"/>
	<circle class="st1" cx="118.4" cy="22.4" r="10.5"/>
</g>
</svg>
