<?xml version="1.0" encoding="utf-8"?>
<!-- Generator: Adobe Illustrator 22.0.0, SVG Export Plug-In . SVG Version: 6.00 Build 0)  -->
<svg version="1.1" id="Layer_1" xmlns="http://www.w3.org/2000/svg" xmlns:xlink="http://www.w3.org/1999/xlink" x="0px" y="0px"
	 viewBox="0 0 890.6 1094.7" style="enable-background:new 0 0 890.6 1094.7;" xml:space="preserve">
<style type="text/css">
	.st0{clip-path:url(#SVGID_2_);}
	.st1{fill:#305528;}
	.st2{fill:#355C2C;}
	.st3{opacity:0.55;fill:url(#SVGID_3_);}
	.st4{fill:#038141;}
	.st5{fill:url(#SVGID_4_);}
	.st6{fill:url(#SVGID_5_);}
	.st7{fill:url(#SVGID_6_);}
	.st8{fill:url(#SVGID_7_);}
	.st9{fill:#FFFFFF;}
	.st10{fill:url(#SVGID_8_);}
	.st11{fill:url(#SVGID_9_);}
	.st12{fill:url(#SVGID_10_);}
	.st13{fill:url(#SVGID_11_);}
	.st14{fill:url(#SVGID_12_);}
	.st15{fill:url(#SVGID_13_);}
	.st16{display:none;fill:#25174F;}
	.st17{display:none;}
	.st18{display:inline;}
	.st19{fill:#25174F;}
	.st20{fill:url(#SVGID_14_);}
	.st21{fill:url(#SVGID_15_);}
	.st22{fill:url(#SVGID_16_);}
	.st23{fill:url(#SVGID_17_);}
	.st24{fill:url(#SVGID_18_);}
	.st25{opacity:0.82;fill:url(#SVGID_19_);}
	.st26{opacity:0.82;fill:url(#SVGID_20_);}
	.st27{fill:url(#SVGID_21_);}
	.st28{fill:url(#SVGID_22_);}
	.st29{fill:url(#SVGID_23_);}
	.st30{fill:#895738;}
	.st31{fill:#714D39;}
	.st32{opacity:0.22;fill:#603A17;}
	.st33{fill:url(#SVGID_24_);}
	.st34{fill:url(#SVGID_25_);}
	.st35{fill:url(#SVGID_26_);}
	.st36{fill:url(#SVGID_27_);}
	.st37{fill:url(#SVGID_28_);}
	.st38{fill:url(#SVGID_29_);}
	.st39{fill:url(#SVGID_30_);}
	.st40{fill:url(#SVGID_31_);}
	.st41{fill:url(#SVGID_32_);}
	.st42{fill:url(#SVGID_33_);}
	.st43{opacity:0.49;fill:url(#SVGID_34_);}
	.st44{fill:url(#SVGID_35_);}
	.st45{fill:#0F4B4F;}
	.st46{fill:#C7DC60;}
</style>
<g>
	<defs>
		<rect id="SVGID_1_" x="0.7" y="0.2" width="889.9" height="1094.1"/>
	</defs>
	<clipPath id="SVGID_2_">
		<use xlink:href="#SVGID_1_"  style="overflow:visible;"/>
	</clipPath>
	<g class="st0">
		<circle class="st1" cx="-64.6" cy="831.8" r="5"/>
		<path class="st2" d="M-104.4,881.5c0.1,3.3-2.5,6-5.8,6.1c-3.3,0.1-6-2.5-6.1-5.8c-0.1-3.3,2.5-6,5.8-6.1
			C-107.2,875.6-104.5,878.2-104.4,881.5z"/>
		
			<linearGradient id="SVGID_3_" gradientUnits="userSpaceOnUse" x1="-102.5941" y1="1053.6309" x2="913.5956" y2="130.3849" gradientTransform="matrix(1 0 0 -1 0 1078.4619)">
			<stop  offset="0" style="stop-color:#EAE46D"/>
			<stop  offset="0.8415" style="stop-color:#95C13D"/>
		</linearGradient>
		<rect x="0.7" y="0.2" class="st3" width="956.2" height="1105.7"/>
		<path class="st4" d="M5,1072"/>
		<linearGradient id="SVGID_4_" gradientUnits="userSpaceOnUse" x1="724.5353" y1="457.8687" x2="956.5367" y2="457.8687">
			<stop  offset="0" style="stop-color:#FFFFFF;stop-opacity:0.1"/>
			<stop  offset="1" style="stop-color:#FFFFFF"/>
		</linearGradient>
		<path class="st5" d="M875.2,347.3c-44.9,0-81.3,36.4-81.3,81.3c0,4.2,0.3,8.2,0.9,12.2c-2.1-0.2-4.2-0.3-6.3-0.3
			c-35.3,0-64,28.6-64,64c0,35.3,28.6,64,64,64c34.6,0,62.8-27.5,63.9-61.8c7.2,2.1,14.9,3.3,22.8,3.3c44.9,0,81.3-36.4,81.3-81.3
			S920.1,347.3,875.2,347.3z"/>
		<linearGradient id="SVGID_5_" gradientUnits="userSpaceOnUse" x1="681.1705" y1="609.6454" x2="811.2648" y2="609.6454">
			<stop  offset="0" style="stop-color:#FFFFFF"/>
			<stop  offset="1" style="stop-color:#FFFFFF;stop-opacity:0.1"/>
		</linearGradient>
		<circle class="st6" cx="746.2" cy="609.6" r="65"/>
		<linearGradient id="SVGID_6_" gradientUnits="userSpaceOnUse" x1="81.7823" y1="679.2156" x2="236.3799" y2="487.9962">
			<stop  offset="0" style="stop-color:#FFFFFF"/>
			<stop  offset="1" style="stop-color:#FFFFFF;stop-opacity:0.1"/>
		</linearGradient>
		<path class="st7" d="M331.9,628.5c0.2-1.9,0.4-3.8,0.4-5.8c0-23.1-16.1-42.5-37.7-47.5c0.5-3.2,0.8-6.6,0.8-10
			c0-34.7-28.2-62.9-62.9-62.9c-3.7,0-7.4,0.3-11,1c-2.9-83.7-71.6-150.6-156-150.6c-86.2,0-156.1,69.9-156.1,156.1
			c0,86.2,69.9,156.1,156.1,156.1c48.6,0,92.1-22.3,120.7-57.1c11.5,12.5,27.9,20.3,46.2,20.3c0.8,0,1.6,0,2.5-0.1
			c0.9,8-9.3,15.5-5,21.9c-14.5,15.2-10.5,35.8-10.5,58.4c0,46.7,37.9,84.6,84.6,84.6s84.6-37.9,84.6-84.6
			C388.7,671.4,365,640,331.9,628.5z"/>
		<linearGradient id="SVGID_7_" gradientUnits="userSpaceOnUse" x1="-119.0911" y1="538.3654" x2="134.9796" y2="538.3654">
			<stop  offset="0" style="stop-color:#FFFFFF"/>
			<stop  offset="1" style="stop-color:#FFFFFF;stop-opacity:0.1"/>
		</linearGradient>
		<circle class="st8" cx="7.9" cy="538.4" r="127"/>
		<circle class="st9" cx="108.3" cy="629.4" r="105.2"/>
		<linearGradient id="SVGID_8_" gradientUnits="userSpaceOnUse" x1="122.3611" y1="660.8154" x2="265.3644" y2="660.8154">
			<stop  offset="0" style="stop-color:#FFFFFF;stop-opacity:0.1"/>
			<stop  offset="1" style="stop-color:#FFFFFF"/>
		</linearGradient>
		<circle class="st10" cx="193.9" cy="660.8" r="71.5"/>
		<linearGradient id="SVGID_9_" gradientUnits="userSpaceOnUse" x1="84.5294" y1="639.5978" x2="631.9533" y2="896.7363">
			<stop  offset="0" style="stop-color:#275B52"/>
			<stop  offset="1" style="stop-color:#112B27"/>
		</linearGradient>
		<path class="st11" d="M-123.4,712.1c0,0,29.3-36.6,200.1-71.6c42.3-8.7,87.8-2.7,123.1,17c42.6,23.7,69.4,56.6,113.2,54.7
			c67.9-2.9,161-47.1,238.6-4.4s130,48.6,192-8.8s195.9,42.7,195.9,42.7l-18,91l-1068.2,6.1L-123.4,712.1z"/>
		<linearGradient id="SVGID_10_" gradientUnits="userSpaceOnUse" x1="197.8297" y1="915.0728" x2="-121.4592" y2="706.7348">
			<stop  offset="0" style="stop-color:#355C2C"/>
			<stop  offset="2.534872e-02" style="stop-color:#355D2D"/>
			<stop  offset="1" style="stop-color:#3D7C3B"/>
		</linearGradient>
		<path class="st12" d="M-40.6,676.9c0,0,221.8,36.6,323.1,162.4c-236.3,9.1-429.2,0-429.2,0V676.9H-40.6z"/>
		<linearGradient id="SVGID_11_" gradientUnits="userSpaceOnUse" x1="1067.0039" y1="397.7592" x2="587.2683" y2="969.1268">
			<stop  offset="0" style="stop-color:#3D7C3B"/>
			<stop  offset="0.2369" style="stop-color:#3C7839"/>
			<stop  offset="0.5743" style="stop-color:#3A6C34"/>
			<stop  offset="0.8858" style="stop-color:#355C2C"/>
		</linearGradient>
		<path class="st13" d="M406.7,840.8c0,0,91.1-114.9,496.5-121.4c2.2,132.3,0,216.8,0,216.8S525.9,977.4,406.7,840.8z"/>
		
			<linearGradient id="SVGID_12_" gradientUnits="userSpaceOnUse" x1="656.4537" y1="725.9575" x2="508.6942" y2="1011.6653" gradientTransform="matrix(0.996 -8.915955e-02 8.915955e-02 0.996 -56.8475 63.9842)">
			<stop  offset="0.4667" style="stop-color:#3D7C3B"/>
			<stop  offset="0.617" style="stop-color:#3C7A3A"/>
			<stop  offset="0.7728" style="stop-color:#3B7136"/>
			<stop  offset="0.9306" style="stop-color:#376430"/>
			<stop  offset="1" style="stop-color:#355C2C"/>
		</linearGradient>
		<path class="st14" d="M286.2,824.1c0,0,352.2-53.3,624.5,118.3C783.3,976.1,432.5,1120.2,286.2,824.1z"/>
		<g>
			
				<linearGradient id="SVGID_13_" gradientUnits="userSpaceOnUse" x1="149.2811" y1="806.1076" x2="383.1936" y2="806.1076" gradientTransform="matrix(0.9998 -2.178538e-02 2.178538e-02 0.9998 -13.162 11.4429)">
				<stop  offset="0" style="stop-color:#275B52"/>
				<stop  offset="1" style="stop-color:#112B27"/>
			</linearGradient>
			<path class="st15" d="M371.7,852.7c9.6-2.5,16.7-11.5,16.3-20.7s-8.1-17.7-17.9-19.5c-9.7-1.8-20.5,3.1-24.8,11.5
				c5-11,1.4-25.3-9.2-32s-27.4-4-33.8,6.4c-8.9-21.8-36.4-35.3-60.9-30.1s-42.8,28.8-40.5,52c2.6-5.1-2.6-10.8-8.1-13.1
				c-12.9-5.3-29.8,0.4-36.1,12.1c-6.3,11.7-1,27.5,11.3,33.8c8.4,4.3,18.4,4.3,28,4.2c26.4-0.3,52.8-0.6,79.3-1
				c33-0.4,66-0.8,98.7-4.9"/>
			<path class="st16" d="M199.1,804.2c8.9,18.7,25.1,29.6,30.6,32.9l-1.5-0.5c-5.1-1.6-10.1-3-15.2-4.3c-11.5-17.4-32-28-32-28
				c9.6,15.3,23.5,24.1,29.6,27.4c-3.6-0.9-7.2-1.7-10.8-2.4c-0.9-0.2-1.7-0.3-2.6-0.5c-12.3-14.8-30.9-22.8-30.9-22.8
				c10.5,13.1,23.4,19.9,28.8,22.4c-0.8-0.2-1.6-0.3-2.4-0.5c0,0,0,0,0,0c0,0,0,0-0.1,0c-3.6-0.7-7.2-1.2-10.8-1.7
				c-11.4-13.8-28.7-21.3-28.7-21.3c10.4,12.9,23.3,19.3,27.6,21.2c-3.1-0.4-6.2-0.8-9.3-1.1c-1.6-0.2-3.2-0.3-4.8-0.4
				c-10.1-8.2-21.9-11.4-21.9-11.4c8.9,7.4,17.5,10.4,20.8,11.3c-5.6-0.4-11.2-0.7-16.6-0.6c-4.7-1-14.9-2.4-25.9,0.8
				c0,0,14.9,3.6,28.3-0.1c3.5,0,7,0.2,10.6,0.4c-2.5,0.4-10.3,2.3-14,9.7c0,0,10.6-1.8,14.8-9.7c3,0.2,6.1,0.5,9.2,0.8
				c1.9,0.2,3.7,0.4,5.6,0.7c-3.3,0.5-13.4,3-18.3,12.7c0,0,13.8-2.3,19.2-12.5c3.9,0.5,7.7,1.1,11.6,1.8
				c-5.1,1.1-15.8,4.6-21.3,15.5c0,0,16.7-2.8,23.6-15.1c2.5,0.5,5.1,1,7.6,1.5c3,0.6,5.9,1.3,8.9,2c-4.4,0.3-20.8,2.3-30.7,15.6
				c0,0,21.2-1.8,31.6-15.4c6.1,1.5,12.3,3.2,18.4,5.1l0.4,0.1c-6,0-23.7,1.3-36.7,13.6c0,0,24-0.1,38.3-13.1l1.5,0.5
				c0.6,0.2,1.2,0.4,1.8,0.6l1.7,0.6l6.9,2.5c2.3,0.8,4.6,1.7,6.9,2.6l6.8,2.7l0.6-1.1l-6.9-2.7c-2.3-0.9-4.6-1.9-7-2.6l-7-2.4
				l-1.8-0.6c-0.6-0.2-1.2-0.4-1.8-0.6l-0.5-0.1C221.3,817.6,199.1,804.2,199.1,804.2z"/>
			<g class="st17">
				<g class="st18">
					<path class="st19" d="M217.2,685.8c3.6-0.1,9.8,3.6,14,10.7c4.2,7.1,4.6,14.3,2.7,17.4c-3.6-0.4-9.1-4.6-13-11.3
						C216.9,696,215.9,689.2,217.2,685.8z"/>
				</g>
				<g class="st18">
					<path class="st19" d="M252.9,761.5c-4.3-16.7-10.5-33-18.3-48.4l-1.8,0.9c7.7,15.3,13.9,31.4,18.2,48L252.9,761.5z"/>
					<g>
						<path class="st19" d="M254.6,705.2c-3.6,0.8-8.1,5.9-10.6,13.5c-1.2,3.8-1.8,7.5-1.7,10.5c0,3.1,0.6,5.6,1.7,7.1
							c3.5-0.4,8.8-4.8,11.6-12.6C258.3,716.1,257.1,708.4,254.6,705.2z"/>
						<path class="st19" d="M214.4,725.2c2.8-2.2,9.5-3.3,16.8-0.6c3.7,1.3,6.6,3.4,8.8,5.5c2.1,2.2,3.4,4.5,3.7,6.3
							c-2.9,2.1-9.9,2.1-16.9-0.7C219.6,733,215.2,728.4,214.4,725.2z"/>
					</g>
					<g>
						<path class="st19" d="M223.5,746.3c3.1-1.9,9.8-2.3,16.8,1.1c7,3.5,11.1,9.3,11.1,13.1l0,0c-3.1,1.8-9.9,1.1-16.7-2.4
							C228,754.5,224,749.6,223.5,746.3z"/>
						<path class="st19" d="M265.6,730.5c-3.6,0.4-8.7,5-12,12.3c-3.3,7.3-3.7,14.2-1.9,17.5l0,0c3.5,0,9.3-3.9,12.8-11.3
							C268.1,741.7,267.7,734,265.6,730.5z"/>
					</g>
				</g>
				<g class="st18">
					<path class="st19" d="M260.4,811.5c-0.8-17.3-3.4-34.5-7.9-51.2l-1.9,0.5c4.4,16.6,7,33.6,7.8,50.7L260.4,811.5z"/>
					<g>
						<path class="st19" d="M273.9,756.8c-3.7,0.1-9.1,4.1-13.2,11c-4,6.9-5.1,13.8-3.7,17.3c3.5,0.3,9.7-2.9,13.9-9.9
							c2.2-3.5,3.3-7.2,3.7-10.4C275.1,761.5,274.7,758.6,273.9,756.8z"/>
						<path class="st19" d="M230.3,768c3.2-1.6,10-1.3,16.6,2.9c6.6,4.2,10.1,10.5,9.7,14.2c-3.3,1.4-10,0-16.4-4.2
							c-3.1-2.1-5.6-4.5-7.3-6.8C231.3,771.9,230.4,769.7,230.3,768z"/>
					</g>
					<g>
						<path class="st19" d="M234.9,790.5c3.4-1.2,10.1-0.2,16.2,4.6c3,2.4,5.3,5.3,6.6,8c1.3,2.7,1.9,5.3,1.5,7.1l0,0
							c-3.4,1.1-10-1-15.8-5.9C237.5,799.5,234.7,793.9,234.9,790.5z"/>
						<path class="st19" d="M279.4,783.9c-3.7-0.3-9.5,3.1-14.3,9.5c-2.4,3.2-3.9,6.5-4.9,9.4c-1,2.9-1.1,5.5-0.6,7.3l0,0
							c3.5,0.7,9.8-1.9,14.9-8.3C279.5,795.4,280.7,787.7,279.4,783.9z"/>
					</g>
				</g>
				<g class="st18">
					<path class="st19" d="M257.4,862.1c2.8-17.1,3.8-34.4,3-51.7l-2,0.1c0.7,17.1-0.3,34.3-3,51.3L257.4,862.1z"/>
					<g>
						<path class="st19" d="M281.9,811.4c-3.6-0.7-9.9,2.1-15.2,8c-5.5,5.9-7.9,12.4-7.3,16.1c3.4,1.1,10.1-0.8,15.7-6.7
							c2.8-3,4.8-6.3,5.9-9.4C282.1,816.2,282.4,813.4,281.9,811.4z"/>
						<path class="st19" d="M237,813.2c3.5-0.8,10,0.8,15.6,6.3c5.5,5.5,7.7,12.3,6.5,15.9c-3.5,0.7-9.8-2.1-15.1-7.5
							c-2.7-2.7-4.5-5.6-5.7-8.2C237.1,817.2,236.7,814.9,237,813.2z"/>
					</g>
					<g>
						<path class="st19" d="M236.7,836.2c3.5-0.5,10,1.9,14.8,7.9c5,6,6.3,13.1,4.9,16.5l0,0c-3.5,0.3-9.6-3.1-14.3-9
							c-2.3-3-4-6-4.8-8.7C236.5,840.1,236.3,837.8,236.7,836.2z"/>
						<path class="st19" d="M281.6,839.1c-3.5-1.1-9.9,1-16,6.3c-5.9,5.3-9.2,11.5-8.8,15.3l0,0c3.3,1.4,10,0.2,16.3-5.1
							c3.2-2.6,5.3-5.8,6.8-8.7C281.3,843.9,281.9,841.1,281.6,839.1z"/>
					</g>
				</g>
			</g>
			<path class="st16" d="M319.3,756.1c9.7,12.6,11.6,27.5,11.9,32.4l0.2-1.2c0.7-4,1.5-8,2.4-11.9c-8-13.9-8.1-31.7-8.1-31.7
				c7.2,11.9,8.4,24.5,8.5,29.8c0.7-2.8,1.4-5.5,2.1-8.3c0.2-0.6,0.4-1.3,0.5-1.9c-5.9-13.6-4.9-29.1-4.9-29.1
				c5.3,11.7,5.6,23,5.4,27.6c0.2-0.6,0.4-1.2,0.5-1.8c0,0,0,0,0,0c0,0,0,0,0-0.1c0.8-2.7,1.7-5.4,2.6-8
				c-5.5-12.6-4.7-27.1-4.7-27.1c5.3,11.6,5.2,22.7,4.9,26.3c0.8-2.3,1.6-4.5,2.5-6.7c0.5-1.2,0.9-2.3,1.4-3.5
				c-2.1-9.8-0.2-19-0.2-19c2,8.7,1,15.6,0.5,18.2c1.7-4,3.4-7.9,5.3-11.6c1-3.6,3.6-11,9.6-17.5c0,0-2.7,11.5-9.9,19.4
				c-1.2,2.4-2.3,4.9-3.4,7.4c1.2-1.6,5.1-6.3,11.6-6.3c0,0-4.9,6.7-11.8,6.8c-0.9,2.2-1.8,4.4-2.6,6.6c-0.5,1.4-1,2.7-1.5,4.1
				c1.5-2.1,6.7-8.2,15-8.1c0,0-6.4,8.7-15.3,8.8c-1,2.8-1.9,5.7-2.8,8.6c2.5-3.1,8.7-9.2,18-9.2c0,0-7.7,10.5-18.5,10.9
				c-0.6,1.9-1.1,3.8-1.6,5.7c-0.6,2.3-1.2,4.5-1.7,6.8c1.8-2.9,8.8-13.5,21.4-15.6c0,0-8.6,13.9-21.5,16.4
				c-1.1,4.7-2.1,9.5-2.9,14.4l-0.1,0.3c2.1-4.1,9.1-15.8,22.1-20.5c0,0-8.4,16.4-22.3,21.7l-0.2,1.2c-0.1,0.5-0.2,0.9-0.2,1.4
				l-0.2,1.4l-0.7,5.6c-0.3,1.9-0.4,3.8-0.6,5.6l-0.5,5.6l-0.9,0l0.5-5.7c0.2-1.9,0.3-3.8,0.6-5.7l0.8-5.7l0.2-1.4
				c0.1-0.5,0.2-0.9,0.2-1.4l0.1-0.4C320.7,776.1,319.3,756.1,319.3,756.1z"/>
			<g>
				
					<linearGradient id="SVGID_14_" gradientUnits="userSpaceOnUse" x1="195.4559" y1="816.8099" x2="279.3348" y2="816.8099" gradientTransform="matrix(0.9893 0.1458 -0.1458 0.9893 107.9428 -42.5927)">
					<stop  offset="0" style="stop-color:#C7DC60"/>
					<stop  offset="1" style="stop-color:#3D7C3B"/>
				</linearGradient>
				<path class="st20" d="M186.7,763.7c0,0,8.2-1.2,14-1c2.6,0.1,4.6,2.6,4.3,5.4l-1,10.1c-0.1,0.6,0.3,1.2,0.9,1.4l0,0
					c0.7,0.2,1.3-0.3,1.4-1l1.9-14.5c0,0,7.3,3.5,12.3,6.2c2,1.1,3.3,3.5,3.1,6l-1.2,19.6c0,0.6,0.3,1.1,0.8,1.2l0,0
					c0.6,0.2,1.2-0.3,1.3-1l1.9-21.8c0,0,6.1,4.6,9.9,7.4c1.7,1.3,2.5,3.6,1.9,5.8l-5.8,21c-0.1,0.5,0,1.1,0.4,1.4l0,0
					c0.6,0.5,1.5,0.2,1.7-0.6l7.4-23.1c0,0,3.7,0.7,12,10.7c2.4,2.9,2.5,7.2,0.3,10.1l-8.2,10.7c-0.4,0.6-0.4,1.4,0.1,1.9l0,0
					c0.5,0.6,1.5,0.6,2,0l11.7-15.1c0,0,5.4,8.2,3.3,15c-2.1,6.8-1.7,15.3-8.3,16.4c-6.6,1.1-13.5,0.7-13.5,0.7l-52-63.8
					L186.7,763.7z"/>
				
					<linearGradient id="SVGID_15_" gradientUnits="userSpaceOnUse" x1="194.778" y1="829.5301" x2="260.7311" y2="829.5301" gradientTransform="matrix(0.9893 0.1458 -0.1458 0.9893 107.9428 -42.5927)">
					<stop  offset="0" style="stop-color:#C7DC60"/>
					<stop  offset="1" style="stop-color:#3D7C3B"/>
				</linearGradient>
				<path class="st21" d="M241.9,837l-55.2-73.3c0,0-2.2,8.8-2.9,15.6c-0.3,3.3,1.5,6.5,4.3,7.7c3.8,1.6,9,3.8,11.5,4.6
					c0.6,0.2,1.1,0.8,1.1,1.5l0,0c0,1-0.8,1.8-1.7,1.5c-4.2-1-14.8-3.5-15.7-5c0,0,2.3,9.8,3.9,15.6c0.7,2.4,2.5,4.2,4.8,4.7
					c5,1,14.3,2.8,19.2,2.5c0.5,0,1,0.4,1.1,0.9l0,0c0.2,0.7-0.3,1.4-1,1.4c-4,0-16-0.2-20.6-1.7c0,0,2.9,7.7,5,12.7
					c0.8,2,2.5,3.3,4.4,3.5c4.3,0.5,12.1,0.5,19.8-3.7c0.7-0.4,1.5-0.1,2,0.6l0,0c0.6,0.9,0.3,2.1-0.6,2.6
					c-4.4,2.2-16.4,7.4-23.3,3.7c0,0,11.7,24.5,24,23.7C234.5,855.5,238.5,858.9,241.9,837z"/>
			</g>
			<g>
				
					<linearGradient id="SVGID_16_" gradientUnits="userSpaceOnUse" x1="243.803" y1="762.9354" x2="295.8046" y2="814.3111" gradientTransform="matrix(1.0007 -2.956347e-02 1.526112e-02 1.0564 -9.2328 -22.6709)">
					<stop  offset="0" style="stop-color:#3D7C3B"/>
					<stop  offset="0.2369" style="stop-color:#3C7839"/>
					<stop  offset="0.5743" style="stop-color:#3A6C34"/>
					<stop  offset="0.8858" style="stop-color:#355C2C"/>
				</linearGradient>
				<path class="st22" d="M294.6,742c0,0-0.1,0.1-0.1,0.1c-0.6,0.5-1.3,1-2.1,1.5c-2,1.3-4.7,2.8-8.8,4.7c-9,4.3-2.8,29.5-1.4,34.9
					c0.1,0.6,0,1.2-0.4,1.5c-0.4,0.4-1,0.3-1.3-0.2c-6.4-11-2.7-35.1-2.7-35.1c-1.2,0.1-5.8,3.3-9.5,6c-3.7,2.7-5.8,8.2-5,13.4
					c1.9,13.1,9.5,28.6,11.3,32c0.2,0.4,0.5,1.1,0.3,1.6c-0.2,0.6-0.5,0.8-0.8,0.8c-0.2,0-0.4-0.2-0.7-0.4
					c-11.7-12.2-13.1-41.7-13.1-41.7c-2.3,1.4-7.3,9.9-10.2,14.7c-1.4,2.4-1.7,5.6-0.9,8.3c3.4,10.2,14.3,25.2,17.6,29.1
					c0.5,0.6,1.1,1,0.7,1.8c-0.3,0.6-0.9,1-1.5,0.9c-0.2,0-0.3-0.1-0.5-0.2c-14.1-10.4-19.3-33.6-19.3-33.6
					c-1.9,2.5-4.9,14.8-6.3,21.2c-0.7,3.1-0.3,6.3,0.9,8.9c5.3,11,16.6,16.4,21,18.2c0.8,0.3,1,1.3,0.5,2.2c-0.4,0.7-1,1-1.6,1
					c-14.3-1.3-22.5-19.7-22.5-19.7s-6.7,33.6,11.6,47.6c18.3,13.9,31.4-6.2,32.5-12.4c0-0.3,0.1-0.5,0.1-0.7c0-0.1,0.1-0.3,0.1-0.4
					L294.6,742C294.6,742,294.6,742,294.6,742z M275.1,792.7c3.4-6.3,5.3,5.8,5.3,5.8C280,800.6,273.8,795.2,275.1,792.7z
					 M267.2,804.6c0.6-1.5,2.8-1.1,3.6-0.6c0.8,0.5,3.2,2.9,2.6,4.4c-0.6,1.5-4,1-4.8,0.5C267.9,808.4,266.6,806,267.2,804.6z
					 M266.1,825c0.5-1.6,4.5-0.6,6,0.1c1.5,0.7,4.5,3.2,4,4.7c-0.5,1.6-4.4,1.2-5.9,0.4C268.6,829.5,265.5,826.5,266.1,825z
					 M269.3,851c-1.8,0.5-4.4-0.8-4.7-3.3c-0.4-2.5,2-4.7,3.7-5.2c1.8-0.5,5.8-0.3,6.1,2.2C274.8,847.2,271.1,850.5,269.3,851z
					 M281.7,818.2c-0.8,0.7-2.5-0.9-2.9-1.8c-0.5-0.9-0.9-3.6-0.2-4.3c0.8-0.7,2.3,1.2,2.8,2.1C281.8,815.2,282.4,817.5,281.7,818.2
					z M286.2,790.9c-0.2,0.8-1,2.5-1.6,2.3c-0.6-0.2-0.7-2.3-0.5-3.1c0.2-0.8,1.2-2.6,1.8-2.4S286.4,790,286.2,790.9z M288,778.3
					c-1.2,1.4-4.1-9.1-2-9.4C289.8,768.4,288,778.3,288,778.3z"/>
				
					<linearGradient id="SVGID_17_" gradientUnits="userSpaceOnUse" x1="301.1637" y1="911.989" x2="402.8927" y2="967.7183" gradientTransform="matrix(0.7947 0.4419 -0.3915 1.0497 387.296 -336.4669)">
					<stop  offset="0" style="stop-color:#3D7C3B"/>
					<stop  offset="0.2369" style="stop-color:#3C7839"/>
					<stop  offset="0.5743" style="stop-color:#3A6C34"/>
					<stop  offset="0.8858" style="stop-color:#355C2C"/>
				</linearGradient>
				<path class="st23" d="M311.7,846.3c-0.8-0.1-1.4-0.8-1.5-1.8l0,0c-0.2-1.3,0.6-2.5,1.7-2.7c25.1-3,22.3-27.4,22.3-27.4
					c-6.3,9-23.9,13.3-28.3,14.3c-0.6,0.1-1.1-0.4-1.1-1.1c-0.1-0.7,0.4-1.4,0.9-1.5c13.7-2.6,28.1-17.8,28.1-17.8
					c1.3-11.7-5.2-28-5.2-28c-9.7,21.8-23.4,27.8-26.6,29c-0.4,0.1-0.8-0.1-1-0.5c-0.3-0.7,0-1.7,0.6-1.9
					c15.2-4.8,24.4-31.6,24.4-31.6c-0.7-6-10.9-15.7-10.9-15.7c-1.9,17.4-10.9,28.3-13.7,31.3c-0.4,0.5-1.1,0.4-1.4-0.2
					c-0.2-0.5-0.1-1.2,0.3-1.6c9.9-9.9,11.9-31.7,11.9-31.7c-1-3.5-4.1-3.6-7.8-6.5c-3.4-2.6-8.6-7.8-9.7-8.9c0,0-0.1-0.1-0.1-0.1
					c0,0-0.1,0.1-0.1,0.1l-12.1,106.2c0,0,0,0,0,0c0,1.3,0.5,26.9,25.5,21c19.9-4.7,23.9-33.9,23.9-33.9
					C323.9,846.3,315,846.6,311.7,846.3z M302.4,796.7c0.6-0.4,2.3-0.6,2.5,0.2c0.3,0.8-0.9,2-1.6,2.4c-0.6,0.4-2.3,0.9-2.5,0.1
					S301.8,797.1,302.4,796.7z M297.8,779.3c2.4,1.1-4,6.4-4.9,5C292.9,784.3,293.6,777.4,297.8,779.3z M289.9,805.8
					c1.3-2.4,3.2-5,4.4-0.9c0.4,1.3-1.1,2.7-2.7,3.6C290.3,809.2,289.1,807.4,289.9,805.8z M289,823c-0.2-1.1,1.6-2.4,2.5-2.7
					c0.9-0.3,1.9,0,2.1,1.1c0.2,1.1-0.5,2.3-1.4,2.6C291.3,824.4,289.2,824.1,289,823z M297.3,849.6c-0.8,2-3.3,2.6-4.8,1.7
					c-1.4-0.8-4.2-4.5-3.4-6.5c0.8-2,4.4-1.3,5.8-0.5C296.5,845.2,298.1,847.5,297.3,849.6z M297.1,835.8c-1.2,0.8-4.4,1.2-5-0.5
					c-0.6-1.7,1.7-4.3,2.9-5c1.2-0.8,4.4-1.7,5-0.1C300.5,831.9,298.2,835.1,297.1,835.8z M302.1,817.3c-0.5,0.2-2.3,0-2.5-0.9
					c-0.1-0.9,1.5-1.8,2-2c0.5-0.2,1.7-0.1,1.8,0.8C303.5,816.1,302.5,817.2,302.1,817.3z"/>
			</g>
		</g>
		<linearGradient id="SVGID_18_" gradientUnits="userSpaceOnUse" x1="-84.1053" y1="700.8593" x2="608.3948" y2="1159.2999">
			<stop  offset="0" style="stop-color:#EAE46D"/>
			<stop  offset="4.343308e-02" style="stop-color:#D6DB5F"/>
			<stop  offset="0.1185" style="stop-color:#BACF4D"/>
			<stop  offset="0.1915" style="stop-color:#A6C743"/>
			<stop  offset="0.2607" style="stop-color:#99C33E"/>
			<stop  offset="0.3222" style="stop-color:#95C13D"/>
		</linearGradient>
		<path class="st24" d="M-166.2,839.8c0,0,364.3-81.5,598.4,32.6s507.4,60.8,507.4,60.8v158.6H-166.2
			C-166.2,1091.8-339.7,962.9-166.2,839.8z"/>
		<linearGradient id="SVGID_19_" gradientUnits="userSpaceOnUse" x1="212.8205" y1="208.3653" x2="212.8205" y2="316.7723">
			<stop  offset="0" style="stop-color:#FFFFFF"/>
			<stop  offset="1" style="stop-color:#FFFFFF;stop-opacity:0.1"/>
		</linearGradient>
		<path class="st25" d="M392.5,316.8c-9.1-28.1-41.3-48.8-79.6-48.8c-9.7,0-19,1.3-27.6,3.8c-10.2-36.6-43.7-63.4-83.5-63.4
			c-35.1,0-65.4,20.9-79,50.9c-5.7-1.4-11.6-2.2-17.7-2.2c-35.8,0-65.5,25.7-71.9,59.6H392.5z"/>
		<linearGradient id="SVGID_20_" gradientUnits="userSpaceOnUse" x1="171.1862" y1="72.9476" x2="171.1862" y2="135.255">
			<stop  offset="0" style="stop-color:#FFFFFF"/>
			<stop  offset="1" style="stop-color:#FFFFFF;stop-opacity:0.1"/>
		</linearGradient>
		<path class="st26" d="M274.4,135.3c-5.2-16.1-23.7-28-45.8-28c-5.6,0-10.9,0.8-15.9,2.2c-5.9-21-25.1-36.4-48-36.4
			c-20.2,0-37.6,12-45.4,29.3c-3.3-0.8-6.7-1.2-10.2-1.2c-20.6,0-37.7,14.8-41.3,34.3H274.4z"/>
		<linearGradient id="SVGID_21_" gradientUnits="userSpaceOnUse" x1="3.0581" y1="1096.2588" x2="1541.9298" y2="-442.613">
			<stop  offset="0" style="stop-color:#FFFFFF;stop-opacity:0"/>
			<stop  offset="0.8481" style="stop-color:#FFFFFF;stop-opacity:0.8125"/>
			<stop  offset="1" style="stop-color:#FFFFFF"/>
		</linearGradient>
		<polygon class="st27" points="763.8,139.4 784,293.7 132.8,1215.7 -359.9,1210 		"/>
		<linearGradient id="SVGID_22_" gradientUnits="userSpaceOnUse" x1="350.932" y1="780.7204" x2="605.6379" y2="537.5174">
			<stop  offset="0" style="stop-color:#275B52"/>
			<stop  offset="1" style="stop-color:#112B27"/>
		</linearGradient>
		<path class="st28" d="M418.7,510.8c0,0-119.2,37.6-22,119.2c-47.1,109.8,72.2,141.2,122.3,72.2c3.1,87.8,134.9,75.3,156.9,6.3
			c22-69-6.3-84.7-6.3-84.7s75.3-65.9,22-97.3c15.7-56.5-103.5-150.6-163.1-50.2C487.8,429.2,425,407.2,418.7,510.8z"/>
		<linearGradient id="SVGID_23_" gradientUnits="userSpaceOnUse" x1="707.1213" y1="823.584" x2="899.4162" y2="281.7944">
			<stop  offset="0" style="stop-color:#275B52"/>
			<stop  offset="1" style="stop-color:#112B27"/>
		</linearGradient>
		<path class="st29" d="M690.3,589c11.5,2.8,86.4,103.7,161.3,23c54.7,57.6,115.2,23,135.4-54.7c77.8,20.2,123.9-149.8,40.3-178.6
			c66.3-72-49-193-100.8-149.8c-123.9-83.6-253.5,25.9-236.3,77.8c-66.3-8.6-77.8,95.1-28.8,135.4C586.6,450.7,595.3,566,690.3,589z
			"/>
		<path class="st30" d="M599.6,530l57.6,80.7l17.3-273.7h43.2v152.7l81.3-86.6c3.1-3.3,8.5-2.1,9.9,2.1c0.9,2.6,2.1,5.7,3.8,9.5
			c-5.8,2.9-95.1,132.5-95.1,132.5l37.5,593.5H625.5l28.8-495.6L576.5,530H599.6z"/>
		<path class="st30" d="M599.6,530l57.6,80.7l17.3-273.7h43.2v152.7l81.3-86.6c3.1-3.3,8.5-2.1,9.9,2.1c0.9,2.6,2.1,5.7,3.8,9.5
			c-5.8,2.9-95.1,132.5-95.1,132.5l37.5,593.5H625.5l28.8-495.6L576.5,530H599.6z"/>
		<path class="st31" d="M799,403.1l-81.3,86.6V336.9h-23v803.9h60.5l-37.5-593.5c0,0,89.3-129.7,95.1-132.5c-1.7-3.8-3-7-3.8-9.5
			C807.5,401,802.1,399.8,799,403.1z"/>
		<path class="st32" d="M717.7,547.3c0,0,89.3-129.7,95.1-132.5c-1.7-3.8-3-7-3.8-9.5c-1.4-4.2-6.9-5.4-9.9-2.1l-81.3,86.6V336.9
			h-43.2l-17.3,273.7L599.6,530h-23l71.5,106l70.4-76.4L717.7,547.3z"/>
		
			<linearGradient id="SVGID_24_" gradientUnits="userSpaceOnUse" x1="-187.7492" y1="871.3876" x2="922.8083" y2="-239.1699" gradientTransform="matrix(0.9959 9.065767e-02 -9.065767e-02 0.9959 52.8627 -37.6632)">
			<stop  offset="0" style="stop-color:#FFFFFF;stop-opacity:0"/>
			<stop  offset="1" style="stop-color:#FFFFFF"/>
		</linearGradient>
		<polygon class="st33" points="481.5,207.3 487.2,331.2 -457.3,1145.6 -736.5,1120.1 481.5,207.3 		"/>
		<linearGradient id="SVGID_25_" gradientUnits="userSpaceOnUse" x1="838.9135" y1="494.1065" x2="978.8172" y2="202.2371">
			<stop  offset="0" style="stop-color:#275B52"/>
			<stop  offset="1" style="stop-color:#112B27"/>
		</linearGradient>
		<path class="st34" d="M802.7,266.4c0,0-109.5,34.6-20.2,109.5c-43.2,100.8,66.3,129.7,112.4,66.3c2.9,80.7,123.9,69.1,144.1,5.8
			c20.2-63.4-5.8-77.8-5.8-77.8s69.1-60.5,20.2-89.3c14.4-51.9-95.1-138.3-149.8-46.1C866.1,191.4,808.5,171.3,802.7,266.4z"/>
		<linearGradient id="SVGID_26_" gradientUnits="userSpaceOnUse" x1="528.7956" y1="-42.2423" x2="871.9338" y2="318.2204">
			<stop  offset="0" style="stop-color:#33A180"/>
			<stop  offset="0.2063" style="stop-color:#319E7E"/>
			<stop  offset="0.3777" style="stop-color:#2E9577"/>
			<stop  offset="0.5365" style="stop-color:#29886B"/>
			<stop  offset="0.6879" style="stop-color:#22765C"/>
			<stop  offset="0.8339" style="stop-color:#156049"/>
			<stop  offset="0.974" style="stop-color:#034734"/>
			<stop  offset="0.9997" style="stop-color:#004330"/>
		</linearGradient>
		<path class="st35" d="M451.2,33c-1.5,5.6-72,57.6,8.6,172.9c-66.3,80.7,20.2,152.7,80.7,126.8c8.6,72,121,100.8,164.2,31.7
			C733.6,407.5,820,396,869,309.6c98,8.6,123.9-74.9,132.5-135.4s20.2-227.6-118.1-207.4C854.6-122.6,497.3-134.1,451.2,33z"/>
		<linearGradient id="SVGID_27_" gradientUnits="userSpaceOnUse" x1="154.4025" y1="88.1341" x2="651.5574" y2="441.7003">
			<stop  offset="0" style="stop-color:#33A180"/>
			<stop  offset="0.1376" style="stop-color:#30997A"/>
			<stop  offset="0.3628" style="stop-color:#29866A"/>
			<stop  offset="0.6478" style="stop-color:#1B6951"/>
			<stop  offset="0.9785" style="stop-color:#014532"/>
			<stop  offset="0.9997" style="stop-color:#004330"/>
		</linearGradient>
		<path class="st36" d="M466.9,162.6c-9,11.7-199.5-2.9-141.2,175.8c-79.8,77.8-15.3,135.4,43,138.3
			c24.6,77.8,160.7,132.5,215.4,53.3c72.5,20.2,131.4-50.4,103.8-177.2c92.1-49,12.3-190.2-70.6-152.7
			C614.2,93.5,506.8,110.8,466.9,162.6z"/>
		
			<linearGradient id="SVGID_28_" gradientUnits="userSpaceOnUse" x1="593.2348" y1="990.0177" x2="687.9833" y2="990.0177" gradientTransform="matrix(0.9997 -2.309386e-02 2.309386e-02 0.9997 -15.0972 15.9136)">
			<stop  offset="0" style="stop-color:#42847F"/>
			<stop  offset="0.1815" style="stop-color:#346371"/>
			<stop  offset="0.3639" style="stop-color:#2A4A66"/>
			<stop  offset="0.5416" style="stop-color:#24375D"/>
			<stop  offset="0.7106" style="stop-color:#202957"/>
			<stop  offset="0.8674" style="stop-color:#1E1F53"/>
			<stop  offset="1" style="stop-color:#1D1C52"/>
		</linearGradient>
		<path class="st37" d="M606.6,1077.8c0.1,0,0.1,0,0.2,0c0.3,0,0.5-0.3,0.4-0.6c-1-16.2,3.4-35.9,13.1-58.7l0.2-0.4l0.4-0.1
			c2.3-0.3,4.6-0.6,7-0.8c11.6-1.4,23.5-2.8,34.3-5.3c0.3-0.1,0.4-0.3,0.4-0.6c0-0.2-0.2-0.4-0.3-0.4c-0.1,0-0.1,0-0.2,0
			c-10.8,2.5-22.7,3.9-34.3,5.3c-1.9,0.2-3.8,0.5-5.7,0.7l-1.2,0.1l0.5-1.2c6.7-15.2,15.7-31.8,26.8-49.2l0.2-0.3l0.3-0.1
			c5.2-1.5,11.3-3,17.7-4.6c2.6-0.6,5.3-1.3,8-2c0.1,0,0.2-0.1,0.3-0.2c0.1-0.1,0.1-0.3,0.1-0.4c0-0.2-0.2-0.3-0.3-0.4
			c-0.1,0-0.1,0-0.2,0c-2.7,0.7-5.4,1.3-8,2c-5.2,1.3-10.6,2.6-15.3,3.9l-1.8,0.5l1.1-1.7c21.5-33.3,42.9-58.3,43.1-58.5
			c0.1-0.1,0.1-0.2,0.1-0.4c0-0.1,0-0.3-0.1-0.4c-0.1-0.1-0.1-0.1-0.2-0.1c-0.2,0-0.3,0-0.5,0.2c-0.2,0.3-22.9,26.7-44.8,61
			c-2.4,3.7-4.8,7.6-7.1,11.5l-0.9,1.6l-0.3-1.8c-1.6-8.7-6.3-30.4-6.8-32.4c0-0.2-0.2-0.3-0.3-0.3c-0.1,0-0.2,0-0.3,0
			c-0.1,0-0.2,0.1-0.3,0.3c-0.1,0.1-0.1,0.3,0,0.4c0.8,3.3,6.5,30.2,7.2,34.8l0,0.3l-0.2,0.3c-8.7,14.8-15.8,28.8-21,41.6l-0.6,1.4
			l-0.7-1.2c-7.1-12.7-11.7-26.4-15.2-38.1c0-0.2-0.2-0.3-0.3-0.3c-0.1,0-0.2,0-0.3,0c-0.2,0.1-0.4,0.4-0.3,0.7
			c3.7,12.3,8.5,26.6,16,39.6l0.3,0.4l-0.1,0.5c-7.9,20.2-11.5,38.1-10.6,53.1C606.3,1077.5,606.4,1077.7,606.6,1077.8z"/>
		<g>
			<linearGradient id="SVGID_29_" gradientUnits="userSpaceOnUse" x1="675.5517" y1="1040.7653" x2="1005.8396" y2="1040.7653">
				<stop  offset="0" style="stop-color:#275B52"/>
				<stop  offset="1" style="stop-color:#112B27"/>
			</linearGradient>
			<path class="st38" d="M699.3,1107c-13.6-3.5-23.9-17.1-23.7-31.1c0.2-14.1,10.9-27.3,24.6-30.4c13.7-3.1,29.1,4.1,35.4,16.7
				c-7.4-16.7-2.8-38.5,12-49.2c14.8-10.7,38.6-7.1,48,8.6c11.8-33.5,50.3-55.1,85.1-47.9c34.8,7.3,61.4,42.5,58.8,77.9
				c-3.8-7.7,3.3-16.6,11.1-20.3c18-8.4,42-0.4,51.3,17.3s2.3,42-15,52c-11.7,6.8-25.9,7.1-39.4,7.3c-37.3,0.4-74.6,0.8-111.9,1.2
				c-46.5,0.5-93.2,1-139.5-4.1"/>
			<path class="st19" d="M744.7,964.6c47.8,42.8,62,96,65.5,113.5l0.4-4.4c1.3-14.7,3.2-29.3,5.5-43.7
				c-40.5-48-48.3-111.9-48.3-111.9c36.2,41,46.6,85.9,49.5,105c1.8-10.2,3.7-20.4,5.9-30.4c0.5-2.4,1-4.8,1.6-7.1
				c-31.3-47.3-33.4-103.6-33.4-103.6c28.2,40.8,33.7,81.2,34.7,97.9c0.5-2.3,1.1-4.5,1.6-6.8c0,0-0.1,0-0.1,0c0,0,0.1-0.1,0.1-0.2
				c2.4-9.9,5.1-19.8,8-29.5c-29.4-43.9-31.3-96.5-31.3-96.5c27.8,40.4,31.8,80.3,32.3,93.4c2.6-8.4,5.2-16.7,8.1-25
				c1.5-4.3,3.1-8.6,4.7-12.9c-13.3-34.7-8.5-68.4-8.5-68.4c12.2,30.7,10.8,55.9,9.7,65.5c5.7-15,11.9-29.6,18.8-43.5
				c2.8-13.1,11.2-40.8,34.9-65.7c0,0-7.1,42.1-35.6,72.6c-4.2,9-8.2,18.2-11.9,27.6c4.4-6,20-24.1,48.2-25.8c0,0-19,25.4-49,27.7
				c-3.1,8.1-6.1,16.2-8.9,24.5c-1.7,5-3.3,10.1-4.9,15.2c5.8-7.9,26.1-31.3,62.8-33.6c0,0-24.7,33-63.6,36.1
				c-3.2,10.5-6.2,21-8.9,31.8c9.8-11.9,34.3-35.8,75.4-38.3c0,0-29.8,39.9-77,44.7c-1.7,7-3.3,14-4.7,21.1
				c-1.7,8.3-3.3,16.7-4.7,25.1c6.5-11.1,33.3-51,87.5-62.4c0,0-32.2,52.6-88,65c-3,17.4-5.3,35-6.8,52.7l-0.1,1.2
				c7.6-15.4,33.6-59.6,88.7-80c0,0-30.3,61.5-89.1,84.6l-0.4,4.4c-0.1,1.7-0.3,3.4-0.4,5.1l-0.2,5.1l-1,20.5
				c-0.5,6.8-0.3,13.6-0.3,20.5l0,20.5l-4.1,0.3l0.1-20.7c0.1-6.9-0.1-13.8,0.4-20.7l1.1-20.7l0.3-5.2c0.1-1.7,0.3-3.4,0.5-5.1
				l0.1-1.4C759.1,1036,744.7,964.6,744.7,964.6z"/>
			<path class="st19" d="M510.5,987c-12.6,43.9-1,81.3,3.5,93.2l-1.9-2.5c-6.3-8.4-13-16.4-19.9-24.3c6.3-44.3-13.2-85.7-13.2-85.7
				c-6.3,38.4,4.4,69.4,9.9,82c-4.9-5.5-10-10.9-15.1-16.1c-1.2-1.2-2.4-2.5-3.6-3.7c1-40.4-19.1-75.1-19.1-75.1
				c-1.5,35.3,10.4,61.7,16.1,72.1c-1.2-1.2-2.3-2.3-3.5-3.5c0,0,0,0,0.1,0c0,0-0.1,0-0.2-0.1c-5.2-5.1-10.6-10-16-14.7
				c1.1-37.6-17.6-70-17.6-70c-1.5,34.9,11.2,60.4,15.9,68.5c-4.7-4.1-9.5-8.1-14.3-12c-2.6-2-5.1-4-7.7-6
				c-5.1-26-20.7-44.5-20.7-44.5c4.3,23.1,14.6,37.8,19,43.1c-9.1-6.9-18.3-13.3-27.8-19.1c-6.6-6.8-22.2-20.3-45.9-26.4
				c0,0,20.3,22.7,48.9,30.3c5.9,3.8,11.8,7.9,17.6,12.2c-4.9-1.9-21.1-6.9-38.8,2.7c0,0,21.1,8.1,40-1.8c4.9,3.7,9.8,7.5,14.7,11.4
				c2.9,2.4,5.8,4.8,8.7,7.3c-6.5-2.5-27.6-9-50.5,3.5c0,0,27.4,10.6,52-2.3c5.9,5.1,11.7,10.3,17.4,15.8c-10.4-3.5-34.2-8.6-60,5.4
				c0,0,33.1,12.8,63.3-2.2c3.7,3.6,7.3,7.2,10.8,10.9c4.2,4.4,8.3,8.8,12.4,13.3c-8.1-4.2-39.4-18.2-76.4-4.5
				c0,0,39.3,19.5,77.6,5.9c8.4,9.4,16.4,19.1,24,29.2l0.5,0.7c-10.4-6.4-42.8-23.2-83.7-14.6c0,0,41.5,25.6,85.7,17.2l1.9,2.5
				c0.7,1,1.5,1.9,2.2,2.9l2.1,3l8.3,12c2.9,3.9,5.3,8.1,7.9,12.2l7.7,12.3l2.6-1.3l-7.9-12.4c-2.7-4.1-5.2-8.3-8.1-12.3l-8.5-12
				l-2.1-3c-0.7-1-1.5-1.9-2.2-2.9l-0.6-0.8C528.9,1035.4,510.5,987,510.5,987z"/>
			<g>
				<linearGradient id="SVGID_30_" gradientUnits="userSpaceOnUse" x1="730.47" y1="1017.5218" x2="860.5504" y2="1017.5218">
					<stop  offset="2.621188e-04" style="stop-color:#125028"/>
					<stop  offset="4.219938e-02" style="stop-color:#16542B"/>
					<stop  offset="0.331" style="stop-color:#2C6C45"/>
					<stop  offset="0.5965" style="stop-color:#3A7F5D"/>
					<stop  offset="0.8281" style="stop-color:#418B6D"/>
					<stop  offset="1" style="stop-color:#449073"/>
				</linearGradient>
				<path class="st39" d="M860.4,918.3c-0.1,0-0.2,0.1-0.3,0.1c-1.2,0.6-2.6,1.2-4.2,1.8c-3.9,1.5-9.2,3.1-17,4.9
					c-17.3,4.1-14,48.7-13.2,58.2c0.1,1-0.4,2-1.2,2.4c-0.9,0.5-1.9,0.1-2.3-0.9c-7.9-20.7,5.9-59.9,5.9-59.9
					c-2.2-0.2-11.3,3.6-18.7,6.8c-7.4,3.3-12.7,11.7-13,20.7c-0.7,22.7,8,51.4,10.2,57.7c0.3,0.8,0.5,2,0.1,2.8
					c-0.5,0.9-1.1,1.2-1.7,1c-0.4-0.1-0.7-0.4-1-0.9c-17-24.5-10.5-74.6-10.5-74.6c-4.5,1.5-16,14-22.5,21.3
					c-3.2,3.6-4.8,8.8-4,13.6c2.9,18.3,17.6,47.2,22.3,55c0.7,1.2,1.7,2,0.7,3.2c-0.8,1-1.9,1.3-2.9,1c-0.3-0.1-0.6-0.2-0.8-0.4
					c-21.8-22.3-24-63.1-24-63.1c-4.2,3.6-13.2,23.1-17.6,33.4c-2.1,4.9-2.5,10.5-1.1,15.3c6,20.2,24.4,33.2,31.6,37.8
					c1.3,0.8,1.4,2.6,0.2,4c-0.8,1-2,1.4-3.1,1.1c-25-7-33.8-40.9-33.8-40.9s-22.1,54.2,6,83.9c28.1,29.7,57.5,0.4,61.3-9.7
					c0.2-0.4,0.3-0.8,0.5-1.2c0.1-0.2,0.2-0.5,0.3-0.7l53.8-173.7C860.5,918.4,860.5,918.4,860.4,918.3z M810.5,996.9
					c7.9-9.4,7.6,11.6,7.6,11.6C816.8,1011.9,807.4,1000.6,810.5,996.9z M792.8,1014.1c1.5-2.2,5.3-0.8,6.5,0.3
					c1.2,1.1,4.9,6,3.3,8.2c-1.5,2.2-7.4,0.3-8.6-0.8C792.9,1020.8,791.3,1016.4,792.8,1014.1z M784.7,1048.1
					c1.4-2.4,8.1,0.5,10.6,2.2c2.5,1.7,7.1,6.9,5.7,9.3c-1.4,2.4-8.2,0.4-10.6-1.3C787.8,1056.6,783.3,1050.5,784.7,1048.1z
					 M782.5,1093c-3.3,0.3-7.5-2.8-7.4-7.1c0.1-4.3,4.9-7.2,8.2-7.5c3.3-0.3,10.4,1.4,10.2,5.7
					C793.4,1088.4,785.8,1092.6,782.5,1093z M814.3,1042c-1.5,0.9-4.1-2.4-4.6-4.1c-0.6-1.7-0.6-6.4,0.9-7.2
					c1.5-0.9,3.7,2.8,4.3,4.5C815.5,1037,815.9,1041.2,814.3,1042z M830.7,997.6c-0.6,1.3-2.5,3.9-3.6,3.4c-1.1-0.6-0.6-4.1,0-5.5
					c0.6-1.3,2.9-4,4-3.4C832.2,992.7,831.3,996.3,830.7,997.6z M837.8,977.2c-2.6,2-4.6-16.8-0.6-16.5
					C844,961.2,837.8,977.2,837.8,977.2z"/>
				<linearGradient id="SVGID_31_" gradientUnits="userSpaceOnUse" x1="805.8995" y1="1027.613" x2="912.1556" y2="1027.613">
					<stop  offset="2.621188e-04" style="stop-color:#125028"/>
					<stop  offset="4.219938e-02" style="stop-color:#16542B"/>
					<stop  offset="0.331" style="stop-color:#2C6C45"/>
					<stop  offset="0.5965" style="stop-color:#3A7F5D"/>
					<stop  offset="0.8281" style="stop-color:#418B6D"/>
					<stop  offset="1" style="stop-color:#449073"/>
				</linearGradient>
				<path class="st40" d="M859,1099.7c-1.3-0.4-2.2-1.8-2.1-3.5l0,0c0.1-2.2,1.9-4.1,3.7-3.9c45.3,3.6,47.8-38.4,47.8-38.4
					c-13.9,12.9-46.3,14.2-54.5,14.3c-1,0-1.8-1-1.7-2.2c0.1-1.2,1.1-2.3,2.1-2.2c25.1,0.3,55.2-20.3,55.2-20.3
					c5.9-19.1-0.7-48.9-0.7-48.9c-23.8,33.3-49.9,38.7-55.9,39.5c-0.7,0.1-1.4-0.4-1.7-1.2c-0.4-1.3,0.5-2.8,1.7-2.9
					c28.3-2.9,52.9-44.7,52.9-44.7c0.7-10.3-14.6-30.1-14.6-30.1c-8.7,28.7-27.9,43.8-33.8,47.9c-0.9,0.6-2,0.2-2.4-0.9
					c-0.3-1,0.1-2.1,0.9-2.6c20.5-13.3,30.7-49.2,30.7-49.2c-0.8-6.2-6.1-7.4-11.9-13.6c-5.2-5.5-12.8-16.1-14.4-18.3
					c-0.1-0.1-0.1-0.1-0.1-0.2c-0.1,0-0.2,0.1-0.3,0.1l-53.6,174.3c0,0,0,0,0,0.1c-0.4,2.1-7.3,45.3,38.8,44
					c36.7-1.1,52.6-48.7,52.6-48.7C880.6,1103.7,864.7,1101.3,859,1099.7z M857.6,1013c1.2-0.4,4.2-0.3,4.4,1.1
					c0.2,1.4-2.3,3.1-3.5,3.5c-1.2,0.4-4.3,0.7-4.5-0.7C853.8,1015.6,856.4,1013.5,857.6,1013z M854.7,982.2c4,2.7-9,9.4-10.3,6.7
					C844.5,989,848,977.6,854.7,982.2z M832.8,1024c3-3.7,7.2-7.3,8,0c0.2,2.3-2.8,4.2-5.8,5.1
					C832.3,1029.9,830.8,1026.4,832.8,1024z M825.9,1052.7c0-1.9,3.6-3.4,5.2-3.6c1.6-0.2,3.4,0.7,3.4,2.6c0,1.9-1.6,3.7-3.2,3.9
					C829.6,1055.7,825.9,1054.6,825.9,1052.7z M832.6,1100.2c-2,3.1-6.7,3.1-9,1.2s-6-8.9-4-12.1c2-3.1,8.2-0.7,10.5,1.3
					C832.4,1092.5,834.6,1097,832.6,1100.2z M836.3,1077c-2.3,0.9-8.2,0.5-8.7-2.6s4.2-6.6,6.6-7.5c2.3-0.9,8.3-1.4,8.9,1.6
					C843.5,1071.6,838.6,1076.1,836.3,1077z M850.7,1047.6c-0.9,0.1-4.2-0.8-4.1-2.3c0-1.5,3.2-2.6,4.1-2.7c0.9-0.1,3,0.4,3,1.9
					C853.7,1046,851.6,1047.5,850.7,1047.6z"/>
			</g>
			<linearGradient id="SVGID_32_" gradientUnits="userSpaceOnUse" x1="415.2222" y1="973.2548" x2="568.0544" y2="1121.7145">
				<stop  offset="0" style="stop-color:#275B52"/>
				<stop  offset="1" style="stop-color:#112B27"/>
			</linearGradient>
			<path class="st41" d="M368,1123.8c-15.3-4-26.9-19.2-26.7-35c0.2-15.8,12.3-30.7,27.7-34.2s32.7,4.6,39.8,18.8
				c-8.3-18.8-3.1-43.3,13.5-55.3s43.4-7.9,54,9.6c13.3-37.7,56.6-62,95.7-53.9c39.1,8.2,69,47.8,66.1,87.7
				c-4.3-8.7,3.7-18.7,12.4-22.8c20.3-9.5,47.3-0.4,57.7,19.4c10.4,19.8,2.5,47.2-16.8,58.5c-13.1,7.7-29.1,8-44.3,8.2
				c-42,0.4-83.9,0.9-125.9,1.3c-52.3,0.5-104.8,1.1-156.9-4.6"/>
			<g>
				
					<linearGradient id="SVGID_33_" gradientUnits="userSpaceOnUse" x1="567.9014" y1="1041.9171" x2="717.4274" y2="955.5883" gradientTransform="matrix(0.9997 -2.309386e-02 2.309386e-02 0.9997 -15.0972 15.9136)">
					<stop  offset="0" style="stop-color:#275B52"/>
					<stop  offset="0.801" style="stop-color:#3D7C3B"/>
				</linearGradient>
				<path class="st42" d="M604.8,1077.2c1.4,0.9,42,15.6,53,1.2l-27.6-6.9c0,0,32.8,5.3,39.3-2.9c6.5-8.2,27.3-35.9,27.3-35.9
					s-26.8-0.1-29.9-1.5c0,0,23.6-0.8,32.1-17.4c8.5-16.6,8.8-42.1,8.8-42.1l-20.1,7.5c0,0,15.6-8.4,13.9-18.8
					c-1.7-10.4-10.9-51.9-8.4-56.1c2.5-4.1-26.9,4.1-36.5,13.2c-9.6,9.1-0.1,25.8-0.1,25.8s-14.9-12.5-18.2-18.1
					c-3.2-5.7-22.2,17.1-23.3,18.3c-1.1,1.2,1.1,36,4,40.1c2.9,4.1-16.8-17.2-17.1-23c-0.3-5.8-15.9,19.3-14.4,30.9
					c1.5,11.6,10,34,10,34s-14.7-7.3-17.4-16.1C577.5,1000.7,560.7,1047.8,604.8,1077.2z"/>
				
					<linearGradient id="SVGID_34_" gradientUnits="userSpaceOnUse" x1="560.6512" y1="1030.4685" x2="709.8719" y2="944.3159" gradientTransform="matrix(0.9997 -2.309386e-02 2.309386e-02 0.9997 -15.0972 15.9136)">
					<stop  offset="0" style="stop-color:#275B52"/>
					<stop  offset="0.801" style="stop-color:#3D7C3B"/>
				</linearGradient>
				<path class="st43" d="M579.5,1009.6c2.6,8.8,17.4,16.1,17.4,16.1s-8.5-22.4-10-34c-1.5-11.6,14.1-36.7,14.4-30.9
					c0.3,5.8,20,27.1,17.1,23c-2.9-4.1-5.1-38.9-4-40.1c1.1-1.2,20.1-24,23.3-18.3c3.2,5.7,18.2,18.1,18.2,18.1s-9.5-16.7,0.1-25.8
					c8.4-7.9,31.7-15.2,36-14.2l0.5,1c0,0-93.7,115.4-84.9,174.1c-1.9-0.7-3.2-1.2-3.4-1.3C560.1,1047.9,576.9,1000.8,579.5,1009.6z
					"/>
			</g>
			<path class="st19" d="M571.3,855.1c33.8,28.6,44.6,65.1,47.4,77.1l0.2-3c0.6-10.2,1.6-20.3,3-30.3
				c-28.9-32.4-35.5-76.4-35.5-76.4c25.8,27.6,33.8,58.4,36.2,71.6c1-7.1,2.2-14.1,3.5-21.1c0.3-1.7,0.6-3.3,0.9-5
				c-22.5-32.1-25.1-70.9-25.1-70.9c20.2,27.7,24.8,55.4,25.8,66.9c0.3-1.6,0.6-3.1,1-4.7c0,0,0,0-0.1,0c0,0,0-0.1,0.1-0.2
				c1.5-6.9,3.2-13.7,5-20.5c-21.1-29.7-23.5-66-23.5-66c20,27.3,23.5,54.8,24.1,63.9c1.6-5.9,3.3-11.7,5.1-17.4c1-3,2-6,3-9
				c-9.9-23.7-7.2-47.1-7.2-47.1c9,20.9,8.6,38.4,7.9,45c3.6-10.5,7.6-20.6,12.1-30.4c1.7-9.1,6.9-28.4,22.9-46
				c0,0-4.1,29.2-23.2,50.8c-2.7,6.3-5.3,12.7-7.7,19.3c2.9-4.2,13.3-17,32.8-18.7c0,0-12.6,17.9-33.3,20.1
				c-2,5.6-3.9,11.3-5.7,17.1c-1.1,3.5-2.1,7-3.1,10.6c3.9-5.5,17.4-22.1,42.7-24.4c0,0-16.4,23.3-43.2,26.1
				c-2,7.3-3.9,14.7-5.6,22.1c6.5-8.4,23-25.4,51.3-27.9c0,0-19.8,28.1-52.3,32.3c-1,4.9-2,9.7-2.9,14.7c-1,5.8-1.9,11.6-2.8,17.4
				c4.3-7.8,22-35.9,59.2-44.8c0,0-21.2,36.9-59.5,46.6c-1.7,12.1-3,24.2-3.7,36.5l-0.1,0.8c5-10.8,22-41.8,59.7-56.9
				c0,0-19.8,43-59.9,60.1l-0.2,3c-0.1,1.2-0.2,2.3-0.2,3.5l-0.1,3.5l-0.3,14.1c-0.2,4.7,0.1,9.4,0.2,14.1l0.4,14.1l-2.8,0.3
				l-0.3-14.3c-0.1-4.8-0.3-9.5-0.1-14.3l0.4-14.3l0.1-3.6c0-1.2,0.2-2.4,0.2-3.6l0.1-0.9C582.6,904.1,571.3,855.1,571.3,855.1z"/>
			<g>
				
					<linearGradient id="SVGID_35_" gradientUnits="userSpaceOnUse" x1="472.019" y1="955.76" x2="697.98" y2="1095.3671" gradientTransform="matrix(0.9997 -2.309386e-02 2.309386e-02 0.9997 -15.0972 15.9136)">
					<stop  offset="0" style="stop-color:#C7DC60"/>
					<stop  offset="9.260535e-02" style="stop-color:#B3C958"/>
					<stop  offset="0.3925" style="stop-color:#7FA349"/>
					<stop  offset="0.6545" style="stop-color:#5D8D40"/>
					<stop  offset="0.8658" style="stop-color:#46803C"/>
					<stop  offset="1" style="stop-color:#3D7C3B"/>
				</linearGradient>
				<path class="st44" d="M505.1,1068.9c-9-10.7-19.1-20.7-25.5-33.1c-6.4-12.4-8.6-28.2-1.2-40c7.4-11.8,26.5-16,35.7-5.5
					c3.7,4.2,7.3,10.9,12.7,9.6c5.2-1.3,5.5-8.7,3.5-13.6c-3.3-8-9.7-14.3-15.4-20.9c-5.7-6.6-11-14.2-11.4-22.9
					c-0.4-8.7,6-18.2,14.7-18c3.2,0.1,6.5,1.4,9.7,0.7c5.3-1.1,8-7.5,7.5-13c-0.5-5.4-3-10.5-4.2-15.8
					c-4.1-18.8,13.6-38.9,32.8-37.2c19.1,1.6,33.2,24.4,26,42.3c-2.2,5.5-6.1,10.4-7.3,16.2c-1.3,5.8,1.4,13.3,7.3,14.1
					c6,0.8,10.4-5.4,15.9-7.8c9.2-4.1,20.3,3.7,22.7,13.5c2.4,9.7-1.5,20-6.9,28.4c-5.4,8.5-12.2,16.1-16.5,25.1
					c-1.5,3.2-2.6,7.3-0.2,9.9c3.8,4.2,10.2-0.4,15.3-2.8c12.1-5.9,27.5,3.4,32,16.1c4.5,12.7,0.9,26.9-4.9,39.1l0,0
					c-9.3,19.6-23.8,36.1-38.4,52c-14.1,15.4-26.4,33.8-41,48.4c-20.5,20.5-23.1-14.2-29.2-28.9
					C530.5,1104.4,519.1,1085.6,505.1,1068.9z"/>
			</g>
		</g>
		<path class="st45" d="M610.8,1028.3c0.5-0.8-0.8-1.3-1.2-0.6c-22.8,38-40.5,78.2-51.3,121.1c4-48.3,5.4-96.8,3.9-145.3
			c0,0,0,0,0-0.1c7.5-16.1,16.6-31.3,27.4-45.4c0.5-0.7-0.5-1.6-1.1-0.9c-10.3,13.5-19.1,28-26.4,43.4c-0.3-10.5-0.8-21.1-1.4-31.6
			c-1.1-19.5-2.7-38.9-4.6-58.4c-0.1-0.9-1.5-0.8-1.4,0.1c2.1,20.3,3.6,40.6,4.8,61c-6.3-8-12.5-16-18.8-24
			c-0.5-0.7-1.7,0.1-1.1,0.8c6.6,8.5,13.3,17,19.9,25.4c0,0.1,0.1,0.1,0.2,0.1c1.9,36,2.3,72.1,1.1,108.1
			c-12.9-23.4-27.9-45.5-44.9-66.1c-0.6-0.7-1.7,0.1-1.1,0.8c17.5,21.1,32.9,43.9,46,68c-0.4,10.8-0.9,21.6-1.5,32.4
			c-1.1,19.3-2.7,38.5-4.7,57.8c-0.1,0.9,1.3,1.1,1.4,0.2c0.6-6,1.2-12,1.7-18c0.1-0.1,0.2-0.2,0.2-0.3
			C568.2,1111.2,586.6,1068.5,610.8,1028.3z"/>
		<g>
			<path class="st46" d="M717.7,877.1c0,6.7-5.4,12.1-12.1,12.1s-12.1-5.4-12.1-12.1c0-6.7,5.4-12.1,12.1-12.1
				S717.7,870.5,717.7,877.1z"/>
			<path class="st46" d="M320.1,1041.4c0,6.7-5.4,12.1-12.1,12.1s-12.1-5.4-12.1-12.1c0-6.7,5.4-12.1,12.1-12.1
				S320.1,1034.7,320.1,1041.4z"/>
			<circle class="st9" cx="311" cy="972.2" r="9.9"/>
			<circle class="st9" cx="-43.4" cy="891.5" r="9.9"/>
			<circle class="st9" cx="780.2" cy="845.8" r="6.7"/>
			<path class="st2" d="M389.9,902.4c0,5.4-4.4,9.7-9.7,9.7s-9.7-4.4-9.7-9.7c0-5.4,4.4-9.7,9.7-9.7S389.9,897,389.9,902.4z"/>
			<path class="st2" d="M202.6,1040.7c0,5.4-4.4,9.7-9.7,9.7s-9.7-4.4-9.7-9.7c0-5.4,4.4-9.7,9.7-9.7S202.6,1035.3,202.6,1040.7z"/>
			<path class="st2" d="M729.9,1040.7c0,5.4-4.4,9.7-9.7,9.7c-5.4,0-9.7-4.4-9.7-9.7c0-5.4,4.4-9.7,9.7-9.7
				C725.5,1031,729.9,1035.3,729.9,1040.7z"/>
			<path class="st2" d="M458.4,933c0,2.8-2.3,5.1-5.1,5.1s-5.1-2.3-5.1-5.1c0-2.8,2.3-5.1,5.1-5.1S458.4,930.2,458.4,933z"/>
			<path class="st2" d="M729.2,930.1c0,2.8-2.3,5.1-5.1,5.1s-5.1-2.3-5.1-5.1c0-2.8,2.3-5.1,5.1-5.1S729.2,927.3,729.2,930.1z"/>
			<path class="st2" d="M262.5,990.6c0,2.8-2.3,5.1-5.1,5.1s-5.1-2.3-5.1-5.1c0-2.8,2.3-5.1,5.1-5.1S262.5,987.8,262.5,990.6z"/>
			<path class="st2" d="M52.2,993.5c0,2.8-2.3,5.1-5.1,5.1s-5.1-2.3-5.1-5.1c0-2.8,2.3-5.1,5.1-5.1S52.2,990.7,52.2,993.5z"/>
		</g>
	</g>
</g>
</svg>
