<?xml version="1.0" encoding="utf-8"?>
<!-- Generator: Adobe Illustrator 22.0.0, SVG Export Plug-In . SVG Version: 6.00 Build 0)  -->
<svg version="1.1" id="Layer_1" xmlns="http://www.w3.org/2000/svg" xmlns:xlink="http://www.w3.org/1999/xlink" x="0px" y="0px"
	 viewBox="0 0 1837 2249.8" style="enable-background:new 0 0 1837 2249.8;" xml:space="preserve">
<style type="text/css">
	.st0{clip-path:url(#SVGID_2_);}
	.st1{fill:#305528;}
	.st2{fill:#355C2C;}
	.st3{opacity:0.55;fill:url(#SVGID_3_);}
	.st4{fill:#038141;}
	.st5{fill:url(#SVGID_4_);}
	.st6{fill:url(#SVGID_5_);}
	.st7{fill:url(#SVGID_6_);}
	.st8{fill:url(#SVGID_7_);}
	.st9{fill:#FFFFFF;}
	.st10{fill:url(#SVGID_8_);}
	.st11{fill:url(#SVGID_9_);}
	.st12{fill:url(#SVGID_10_);}
	.st13{fill:url(#SVGID_11_);}
	.st14{fill:url(#SVGID_12_);}
	.st15{fill:url(#SVGID_13_);}
	.st16{display:none;fill:#25174F;}
	.st17{display:none;}
	.st18{display:inline;}
	.st19{fill:#25174F;}
	.st20{fill:url(#SVGID_14_);}
	.st21{fill:url(#SVGID_15_);}
	.st22{fill:url(#SVGID_16_);}
	.st23{fill:url(#SVGID_17_);}
	.st24{fill:url(#SVGID_18_);}
	.st25{opacity:0.82;fill:url(#SVGID_19_);}
	.st26{opacity:0.82;fill:url(#SVGID_20_);}
	.st27{fill:url(#SVGID_21_);}
	.st28{fill:url(#SVGID_22_);}
	.st29{fill:url(#SVGID_23_);}
	.st30{fill:#895738;}
	.st31{fill:#714D39;}
	.st32{opacity:0.22;fill:#603A17;}
	.st33{fill:url(#SVGID_24_);}
	.st34{fill:url(#SVGID_25_);}
	.st35{fill:url(#SVGID_26_);}
	.st36{fill:url(#SVGID_27_);}
	.st37{fill:url(#SVGID_28_);}
	.st38{fill:url(#SVGID_29_);}
	.st39{fill:url(#SVGID_30_);}
	.st40{fill:url(#SVGID_31_);}
	.st41{fill:url(#SVGID_32_);}
	.st42{fill:url(#SVGID_33_);}
	.st43{opacity:0.49;fill:url(#SVGID_34_);}
	.st44{fill:url(#SVGID_35_);}
	.st45{fill:#0F4B4F;}
	.st46{fill:#C7DC60;}
</style>
<g>
	<defs>
		<rect id="SVGID_1_" x="8" width="1829" height="2248.7"/>
	</defs>
	<clipPath id="SVGID_2_">
		<use xlink:href="#SVGID_1_"  style="overflow:visible;"/>
	</clipPath>
	<g class="st0">
		<circle class="st1" cx="-126.2" cy="1709.1" r="10.2"/>
		<path class="st2" d="M-208.1,1811.4c0.1,6.8-5.2,12.4-12,12.5c-6.8,0.1-12.4-5.2-12.5-12c-0.1-6.8,5.2-12.4,12-12.5
			C-213.8,1799.2-208.2,1804.6-208.1,1811.4z"/>
		
			<linearGradient id="SVGID_3_" gradientUnits="userSpaceOnUse" x1="-204.3138" y1="2182.9224" x2="1884.2828" y2="285.355" gradientTransform="matrix(1 0 0 -1 0 2233.5522)">
			<stop  offset="0" style="stop-color:#EAE46D"/>
			<stop  offset="0.8415" style="stop-color:#95C13D"/>
		</linearGradient>
		<rect x="8" class="st3" width="1965.2" height="2272.5"/>
		<path class="st4" d="M16.8,2202.8"/>
		<linearGradient id="SVGID_4_" gradientUnits="userSpaceOnUse" x1="1495.7031" y1="940.6615" x2="1972.5406" y2="940.6615">
			<stop  offset="0" style="stop-color:#FFFFFF;stop-opacity:0.1"/>
			<stop  offset="1" style="stop-color:#FFFFFF"/>
		</linearGradient>
		<path class="st5" d="M1805.4,713.4c-92.3,0-167.1,74.8-167.1,167.1c0,8.6,0.6,17,1.9,25.2c-4.3-0.4-8.6-0.6-13-0.6
			c-72.6,0-131.5,58.9-131.5,131.5c0,72.6,58.9,131.5,131.5,131.5c71.1,0,129-56.5,131.4-127c14.9,4.3,30.6,6.7,46.9,6.7
			c92.3,0,167.1-74.8,167.1-167.1S1897.7,713.4,1805.4,713.4z"/>
		<linearGradient id="SVGID_5_" gradientUnits="userSpaceOnUse" x1="1406.5746" y1="1252.6113" x2="1673.9602" y2="1252.6113">
			<stop  offset="0" style="stop-color:#FFFFFF"/>
			<stop  offset="1" style="stop-color:#FFFFFF;stop-opacity:0.1"/>
		</linearGradient>
		<circle class="st6" cx="1540.3" cy="1252.6" r="133.7"/>
		<linearGradient id="SVGID_6_" gradientUnits="userSpaceOnUse" x1="174.639" y1="1395.6005" x2="492.3869" y2="1002.5829">
			<stop  offset="0" style="stop-color:#FFFFFF"/>
			<stop  offset="1" style="stop-color:#FFFFFF;stop-opacity:0.1"/>
		</linearGradient>
		<path class="st7" d="M688.8,1291.4c0.5-3.9,0.7-7.9,0.7-11.9c0-47.5-33-87.3-77.4-97.6c1.1-6.7,1.6-13.5,1.6-20.5
			c0-71.4-57.9-129.2-129.2-129.2c-7.7,0-15.2,0.7-22.6,2c-6-171.9-147.2-309.5-320.6-309.5c-177.2,0-320.9,143.7-320.9,320.9
			c0,177.2,143.7,320.9,320.9,320.9c100,0,189.3-45.7,248.1-117.4c23.6,25.6,57.4,41.7,95,41.7c1.7,0,3.4-0.1,5.1-0.1
			c1.8,16.5-19.1,31.8-10.3,44.9c-29.9,31.2-21.5,73.5-21.5,120.1c0,96,77.8,173.8,173.8,173.8s173.8-77.8,173.8-173.8
			C805.4,1379.6,756.7,1315.1,688.8,1291.4z"/>
		<linearGradient id="SVGID_7_" gradientUnits="userSpaceOnUse" x1="-238.2204" y1="1106.1079" x2="283.9765" y2="1106.1079">
			<stop  offset="0" style="stop-color:#FFFFFF"/>
			<stop  offset="1" style="stop-color:#FFFFFF;stop-opacity:0.1"/>
		</linearGradient>
		<circle class="st8" cx="22.9" cy="1106.1" r="261.1"/>
		<circle class="st9" cx="229.1" cy="1293.1" r="216.1"/>
		<linearGradient id="SVGID_8_" gradientUnits="userSpaceOnUse" x1="258.0416" y1="1357.7821" x2="551.9592" y2="1357.7821">
			<stop  offset="0" style="stop-color:#FFFFFF;stop-opacity:0.1"/>
			<stop  offset="1" style="stop-color:#FFFFFF"/>
		</linearGradient>
		<circle class="st10" cx="405" cy="1357.8" r="147"/>
		<linearGradient id="SVGID_9_" gradientUnits="userSpaceOnUse" x1="180.2851" y1="1314.173" x2="1305.4174" y2="1842.6753">
			<stop  offset="0" style="stop-color:#275B52"/>
			<stop  offset="1" style="stop-color:#112B27"/>
		</linearGradient>
		<path class="st11" d="M-247,1463.2c0,0,60.2-75.3,411.3-147.3c87-17.8,180.4-5.5,253,34.8c87.6,48.6,142.7,116.3,232.6,112.4
			c139.5-6,330.9-96.8,490.4-9.1c159.5,87.7,267.1,99.8,394.7-18.1c127.6-117.9,402.7,87.7,402.7,87.7l-37,187l-2195.5,12.6
			L-247,1463.2z"/>
		<linearGradient id="SVGID_10_" gradientUnits="userSpaceOnUse" x1="413.1537" y1="1880.3627" x2="-243.0876" y2="1452.1611">
			<stop  offset="0" style="stop-color:#355C2C"/>
			<stop  offset="2.534872e-02" style="stop-color:#355D2D"/>
			<stop  offset="1" style="stop-color:#3D7C3B"/>
		</linearGradient>
		<path class="st12" d="M-76.8,1390.9c0,0,455.9,75.2,664,333.7c-485.6,18.8-882.1,0-882.1,0v-333.7H-76.8z"/>
		<linearGradient id="SVGID_11_" gradientUnits="userSpaceOnUse" x1="2199.5862" y1="817.117" x2="1213.5753" y2="1991.4612">
			<stop  offset="0" style="stop-color:#3D7C3B"/>
			<stop  offset="0.2369" style="stop-color:#3C7839"/>
			<stop  offset="0.5743" style="stop-color:#3A6C34"/>
			<stop  offset="0.8858" style="stop-color:#355C2C"/>
		</linearGradient>
		<path class="st13" d="M842.4,1727.8c0,0,187.2-236.2,1020.5-249.6c4.5,271.8,0,445.6,0,445.6S1087.5,2008.6,842.4,1727.8z"/>
		
			<linearGradient id="SVGID_12_" gradientUnits="userSpaceOnUse" x1="1343.7874" y1="1505.3369" x2="1040.0939" y2="2092.5583" gradientTransform="matrix(0.996 -8.915955e-02 8.915955e-02 0.996 -106.0574 117.4093)">
			<stop  offset="0.4667" style="stop-color:#3D7C3B"/>
			<stop  offset="0.617" style="stop-color:#3C7A3A"/>
			<stop  offset="0.7728" style="stop-color:#3B7136"/>
			<stop  offset="0.9306" style="stop-color:#376430"/>
			<stop  offset="1" style="stop-color:#355C2C"/>
		</linearGradient>
		<path class="st14" d="M594.9,1693.4c0,0,724-109.5,1283.5,243C1616.5,2005.7,895.4,2301.9,594.9,1693.4z"/>
		<g>
			
				<linearGradient id="SVGID_13_" gradientUnits="userSpaceOnUse" x1="311.949" y1="1655.9655" x2="792.7144" y2="1655.9655" gradientTransform="matrix(0.9998 -2.178538e-02 2.178538e-02 0.9998 -25.6107 24.0691)">
				<stop  offset="0" style="stop-color:#275B52"/>
				<stop  offset="1" style="stop-color:#112B27"/>
			</linearGradient>
			<path class="st15" d="M770.4,1752.3c19.7-5.2,34.3-23.7,33.6-42.6c-0.7-18.9-16.7-36.4-36.7-40.2c-20-3.8-42.2,6.5-51,23.6
				c10.3-22.7,2.9-51.9-18.9-65.8c-21.9-13.9-56.3-8.3-69.6,13.1c-18.2-44.7-74.8-72.7-125.2-61.8c-50.4,10.9-88,59.2-83.3,106.8
				c5.3-10.5-5.3-22.3-16.7-27c-26.5-10.8-61.2,0.8-74.1,24.9c-12.9,24-2,56.6,23.3,69.5c17.2,8.8,37.9,8.8,57.5,8.5
				c54.3-0.7,108.6-1.3,162.9-2c67.7-0.8,135.7-1.7,202.8-10"/>
			<path class="st16" d="M415.7,1652.4c18.4,38.5,51.7,60.9,62.9,67.6l-3.1-1c-10.4-3.3-20.9-6.2-31.3-8.8
				c-23.6-35.8-65.8-57.6-65.8-57.6c19.8,31.5,48.2,49.5,60.7,56.3c-7.4-1.8-14.9-3.5-22.3-5c-1.8-0.4-3.5-0.7-5.3-1.1
				c-25.3-30.4-63.5-47-63.5-47c21.6,26.9,48,41,59.2,46.1c-1.7-0.3-3.3-0.6-5-0.9c0,0,0,0,0,0c0,0-0.1,0-0.2,0
				c-7.4-1.3-14.8-2.5-22.1-3.5c-23.4-28.4-59.1-43.8-59.1-43.8c21.3,26.6,47.8,39.7,56.7,43.5c-6.4-0.9-12.7-1.6-19-2.3
				c-3.3-0.3-6.6-0.6-9.9-0.9c-20.8-16.9-45.1-23.4-45.1-23.4c18.2,15.2,35.9,21.3,42.8,23.3c-11.6-0.9-23-1.4-34.2-1.3
				c-9.6-2-30.6-4.9-53.2,1.7c0,0,30.6,7.5,58.1-0.1c7.1,0.1,14.4,0.4,21.7,0.9c-5.2,0.8-21.1,4.6-28.9,20c0,0,21.9-3.7,30.3-19.9
				c6.3,0.4,12.6,1,18.9,1.7c3.8,0.4,7.7,0.9,11.6,1.4c-6.7,1.1-27.5,6.1-37.6,26c0,0,28.4-4.8,39.4-25.8c7.9,1,15.9,2.2,23.9,3.6
				c-10.4,2.2-32.5,9.5-43.7,31.8c0,0,34.3-5.8,48.5-31c5.2,1,10.4,2,15.6,3.1c6.1,1.3,12.2,2.7,18.3,4.2c-9.1,0.6-42.8,4.7-63.1,32
				c0,0,43.6-3.7,65-31.6c12.6,3.1,25.3,6.5,37.8,10.6l0.9,0.3c-12.3,0.1-48.7,2.6-75.4,27.9c0,0,49.2-0.2,78.7-26.9l3.1,1
				c1.2,0.4,2.4,0.7,3.6,1.1l3.6,1.3l14.3,5c4.8,1.6,9.4,3.6,14.1,5.4l14.1,5.6l1.2-2.2l-14.3-5.6c-4.8-1.8-9.5-3.8-14.3-5.4
				l-14.5-5l-3.6-1.3c-1.2-0.4-2.4-0.8-3.6-1.1l-1-0.3C461.5,1679.9,415.7,1652.4,415.7,1652.4z"/>
			<g class="st17">
				<g class="st18">
					<path class="st19" d="M453,1409.2c7.5-0.2,20.2,7.3,28.8,22c8.6,14.7,9.5,29.5,5.5,35.8c-7.3-0.8-18.7-9.4-26.8-23.2
						C452.3,1430,450.4,1416.1,453,1409.2z"/>
				</g>
				<g class="st18">
					<path class="st19" d="M526.3,1564.6c-8.9-34.4-21.6-67.8-37.7-99.5l-3.6,1.8c15.9,31.4,28.5,64.6,37.4,98.7L526.3,1564.6z"/>
					<g>
						<path class="st19" d="M529.9,1449c-7.3,1.7-16.6,12.1-21.9,27.7c-2.5,7.8-3.8,15.3-3.6,21.6c0,6.3,1.3,11.5,3.5,14.7
							c7.3-0.8,18.1-10,23.8-25.8C537.3,1471.3,535,1455.5,529.9,1449z"/>
						<path class="st19" d="M447.1,1490c5.8-4.5,19.6-6.8,34.5-1.2c7.6,2.8,13.6,7,18.1,11.4c4.4,4.5,7,9.2,7.5,13
							c-5.9,4.2-20.2,4.4-34.7-1.4C457.9,1506.1,448.9,1496.7,447.1,1490z"/>
					</g>
					<g>
						<path class="st19" d="M465.9,1533.4c6.3-3.9,20.1-4.8,34.5,2.4c14.3,7.1,22.8,19.2,22.9,26.9l0,0c-6.4,3.6-20.4,2.2-34.4-5
							C475.1,1550.4,466.9,1540.2,465.9,1533.4z"/>
						<path class="st19" d="M552.5,1501.1c-7.5,0.9-17.9,10.3-24.6,25.3c-6.8,15-7.5,29.3-3.8,36.1l0,0c7.3-0.1,19.2-8.1,26.3-23.2
							C557.7,1524.1,556.7,1508.1,552.5,1501.1z"/>
					</g>
				</g>
				<g class="st18">
					<path class="st19" d="M541.8,1667.5c-1.6-35.5-6.9-70.8-16.1-105.2l-3.9,1.1c9.1,34,14.4,69.1,16,104.3L541.8,1667.5z"/>
					<g>
						<path class="st19" d="M569.4,1555.1c-7.6,0.1-18.7,8.4-27.1,22.6c-8.2,14.2-10.6,28.3-7.6,35.5c7.3,0.7,19.9-6,28.6-20.3
							c4.5-7.2,6.8-14.7,7.7-21.4C572,1564.6,571.2,1558.8,569.4,1555.1z"/>
						<path class="st19" d="M480,1578.2c6.6-3.2,20.6-2.7,34,5.9c13.6,8.5,20.7,21.5,20,29.2c-6.8,2.9-20.5,0-33.6-8.6
							c-6.4-4.3-11.6-9.2-15-13.9C482,1586.1,480.1,1581.6,480,1578.2z"/>
					</g>
					<g>
						<path class="st19" d="M489.3,1624.3c6.9-2.5,20.7-0.5,33.2,9.5c6.1,5,11,10.8,13.7,16.5c2.7,5.6,3.8,10.9,3.1,14.7l0,0
							c-7,2.2-20.6-2.1-32.6-12.1C494.7,1642.8,488.9,1631.2,489.3,1624.3z"/>
						<path class="st19" d="M580.7,1610.9c-7.5-0.7-19.5,6.4-29.3,19.6c-5,6.6-8.1,13.4-10.1,19.4c-2,6-2.3,11.3-1.1,15l0,0
							c7.2,1.5,20.2-3.8,30.6-17.2C580.9,1634.5,583.5,1618.6,580.7,1610.9z"/>
					</g>
				</g>
				<g class="st18">
					<path class="st19" d="M535.6,1771.4c5.7-35.1,7.7-70.7,6.2-106.2l-4.1,0.2c1.5,35.2-0.5,70.6-6.1,105.4L535.6,1771.4z"/>
					<g>
						<path class="st19" d="M586,1667.3c-7.3-1.5-20.3,4.2-31.2,16.4c-11.2,12.2-16.2,25.5-15,33.1c6.9,2.2,20.7-1.7,32.3-13.8
							c5.7-6.1,9.8-13,12-19.3C586.3,1677.2,586.9,1671.3,586,1667.3z"/>
						<path class="st19" d="M493.7,1671c7.2-1.7,20.5,1.7,32,13c11.3,11.2,15.8,25.4,13.3,32.7c-7.3,1.4-20.1-4.3-31-15.5
							c-5.6-5.6-9.3-11.5-11.7-16.8C493.9,1679.2,493,1674.4,493.7,1671z"/>
					</g>
					<g>
						<path class="st19" d="M493.1,1718.2c7.2-1,20.5,3.9,30.5,16.2c10.3,12.4,12.9,26.8,10,33.9l0,0c-7.3,0.7-19.8-6.3-29.4-18.6
							c-4.7-6.1-8.2-12.4-9.9-17.9C492.5,1726.3,492.2,1721.5,493.1,1718.2z"/>
						<path class="st19" d="M585.3,1724.1c-7.2-2.3-20.3,2.1-32.8,13c-12.1,10.9-19,23.6-18.1,31.4l0,0c6.8,2.9,20.6,0.4,33.5-10.5
							c6.5-5.4,10.9-11.9,13.9-18C584.7,1734,585.9,1728.2,585.3,1724.1z"/>
					</g>
				</g>
			</g>
			<path class="st16" d="M662.7,1553.7c20,26,23.8,56.6,24.6,66.6l0.4-2.5c1.4-8.3,3-16.5,4.8-24.6c-16.3-28.6-16.7-65.1-16.7-65.1
				c14.7,24.5,17.2,50.3,17.5,61.2c1.3-5.7,2.8-11.4,4.3-17c0.4-1.3,0.7-2.7,1.1-4c-12.1-27.9-10.2-59.8-10.2-59.8
				c11,24.1,11.4,47.2,11.1,56.7c0.4-1.3,0.7-2.5,1.1-3.8c0,0,0,0,0,0c0,0,0-0.1,0.1-0.1c1.7-5.5,3.4-11,5.3-16.4
				c-11.4-25.9-9.6-55.7-9.6-55.7c10.8,23.9,10.6,46.6,10.2,54.1c1.6-4.7,3.3-9.3,5-13.8c0.9-2.4,1.9-4.8,2.8-7.1
				c-4.4-20.1-0.4-39.1-0.4-39.1c4.1,17.8,2.1,32,1.1,37.4c3.4-8.3,7-16.3,11-23.9c2-7.3,7.3-22.7,19.6-35.9c0,0-5.5,23.6-20.3,39.8
				c-2.4,4.9-4.7,10-7,15.2c2.4-3.2,10.5-12.9,23.7-12.9c0,0-10.1,13.7-24.2,13.9c-1.9,4.5-3.7,9-5.4,13.6c-1,2.8-2.1,5.6-3.1,8.4
				c3.1-4.2,13.7-16.8,30.9-16.7c0,0-13.2,17.8-31.4,18.1c-2,5.8-4,11.7-5.8,17.7c5.2-6.4,17.8-19,37-19c0,0-15.9,21.5-38.1,22.5
				c-1.1,3.9-2.2,7.8-3.3,11.8c-1.2,4.6-2.4,9.3-3.5,14c3.6-6.1,18.1-27.7,43.9-32.1c0,0-17.7,28.6-44.2,33.6
				c-2.3,9.7-4.3,19.6-5.9,29.6l-0.1,0.7c4.3-8.4,18.7-32.5,45.4-42c0,0-17.3,33.7-45.8,44.6l-0.4,2.5c-0.2,1-0.3,1.9-0.5,2.9
				l-0.4,2.9l-1.5,11.5c-0.6,3.8-0.8,7.7-1.2,11.6l-1.1,11.6l-1.9,0l1.1-11.7c0.4-3.9,0.7-7.8,1.3-11.7l1.6-11.7l0.4-2.9
				c0.1-1,0.3-1.9,0.5-2.9l0.1-0.8C665.7,1594.6,662.7,1553.7,662.7,1553.7z"/>
			<g>
				
					<linearGradient id="SVGID_14_" gradientUnits="userSpaceOnUse" x1="436.2384" y1="1706.1254" x2="608.6364" y2="1706.1254" gradientTransform="matrix(0.9893 0.1458 -0.1458 0.9893 198.244 -120.0052)">
					<stop  offset="0" style="stop-color:#C7DC60"/>
					<stop  offset="1" style="stop-color:#3D7C3B"/>
				</linearGradient>
				<path class="st20" d="M390.3,1569.3c0,0,16.9-2.4,28.8-2c5.3,0.2,9.4,5.3,8.8,11.1l-2,20.9c-0.1,1.3,0.7,2.5,1.9,2.9l0,0
					c1.3,0.4,2.6-0.6,2.8-2.1l3.9-29.8c0,0,15.1,7.1,25.3,12.8c4.2,2.4,6.8,7.2,6.4,12.4l-2.5,40.2c-0.1,1.2,0.7,2.3,1.7,2.6l0,0
					c1.3,0.3,2.5-0.6,2.6-2.1l3.9-44.8c0,0,12.6,9.4,20.3,15.2c3.5,2.7,5.1,7.5,3.9,11.9l-11.8,43.3c-0.3,1.1,0.1,2.2,0.9,2.8l0,0
					c1.3,1,3,0.4,3.5-1.2l15.2-47.5c0,0,7.6,1.4,24.7,22.1c4.9,5.9,5.1,14.7,0.5,20.7l-16.9,21.9c-0.9,1.2-0.8,2.9,0.2,4l0,0
					c1.1,1.3,3,1.3,4-0.1l24.1-31.1c0,0,11.1,16.8,6.8,30.8c-4.2,14-3.5,31.4-17.1,33.7c-13.6,2.3-27.7,1.4-27.7,1.4l-107-131.2
					L390.3,1569.3z"/>
				
					<linearGradient id="SVGID_15_" gradientUnits="userSpaceOnUse" x1="434.845" y1="1732.2695" x2="570.4" y2="1732.2695" gradientTransform="matrix(0.9893 0.1458 -0.1458 0.9893 198.244 -120.0052)">
					<stop  offset="0" style="stop-color:#C7DC60"/>
					<stop  offset="1" style="stop-color:#3D7C3B"/>
				</linearGradient>
				<path class="st21" d="M503.7,1719.9l-113.5-150.6c0,0-4.5,18.1-5.9,32.2c-0.7,6.8,3,13.3,8.9,15.8c7.8,3.3,18.5,7.8,23.6,9.5
					c1.3,0.4,2.2,1.7,2.2,3.2l0,0c0,2.1-1.7,3.6-3.5,3.2c-8.7-2-30.3-7.2-32.2-10.3c0,0,4.6,20.2,8,32c1.4,4.9,5.2,8.7,9.9,9.6
					c10.3,2.1,29.3,5.7,39.5,5.1c1.1-0.1,2.1,0.8,2.3,1.9l0,0c0.3,1.5-0.7,3-2.1,2.9c-8.3,0-32.9-0.4-42.3-3.4c0,0,6,15.7,10.2,26.1
					c1.6,4,5.1,6.8,9.1,7.3c8.7,1,25,1.1,40.8-7.5c1.4-0.8,3.2-0.3,4.1,1.1l0,0c1.2,1.8,0.6,4.4-1.2,5.3
					c-9.1,4.5-33.6,15.2-47.9,7.7c0,0,24,50.3,49.4,48.6C488.4,1757.9,496.7,1765,503.7,1719.9z"/>
			</g>
			<g>
				
					<linearGradient id="SVGID_16_" gradientUnits="userSpaceOnUse" x1="507.2136" y1="1560.0106" x2="614.0936" y2="1665.6041" gradientTransform="matrix(1.0007 -2.956347e-02 1.526112e-02 1.0564 -18.4271 -38.299)">
					<stop  offset="0" style="stop-color:#3D7C3B"/>
					<stop  offset="0.2369" style="stop-color:#3C7839"/>
					<stop  offset="0.5743" style="stop-color:#3A6C34"/>
					<stop  offset="0.8858" style="stop-color:#355C2C"/>
				</linearGradient>
				<path class="st22" d="M612,1524.6c-0.1,0.1-0.2,0.1-0.3,0.2c-1.2,1-2.7,2-4.4,3.1c-4.1,2.6-9.7,5.7-18,9.7
					c-18.5,8.8-5.9,60.7-3,71.8c0.3,1.1-0.1,2.4-0.9,3.1c-0.9,0.8-2.1,0.6-2.7-0.5c-13.1-22.6-5.5-72.1-5.5-72.1
					c-2.5,0.2-11.9,6.8-19.5,12.4c-7.6,5.6-11.9,16.8-10.4,27.5c3.8,27,19.4,58.8,23.1,65.8c0.5,0.9,1,2.2,0.6,3.3
					c-0.4,1.2-1,1.7-1.6,1.6c-0.4,0-0.9-0.3-1.3-0.8c-24.1-25-26.9-85.7-26.9-85.7c-4.7,2.8-15.1,20.3-20.9,30.3
					c-2.9,5-3.6,11.5-1.8,17c6.9,21,29.4,51.7,36.1,59.9c1.1,1.3,2.3,2,1.4,3.6c-0.7,1.3-1.9,2-3,1.9c-0.3,0-0.7-0.1-1-0.3
					c-29-21.3-39.7-69-39.7-69c-4,5.2-10.1,30.3-12.9,43.5c-1.4,6.3-0.7,12.9,1.9,18.3c10.9,22.5,34.1,33.6,43.1,37.4
					c1.6,0.7,2.1,2.7,1.1,4.6c-0.7,1.4-2,2.1-3.2,2c-29.4-2.6-46.2-40.6-46.2-40.6s-13.8,69.1,23.8,97.8
					c37.6,28.6,64.6-12.7,66.7-25.5c0.1-0.5,0.2-1.1,0.3-1.5c0.1-0.3,0.1-0.6,0.2-0.9l25.1-217.5
					C612.1,1524.7,612.1,1524.6,612,1524.6z M572,1628.9c7-12.9,10.9,12,10.9,12C582,1645.1,569.2,1633.9,572,1628.9z M555.7,1653.2
					c1.2-3,5.8-2.2,7.4-1.2s6.7,5.9,5.4,9c-1.2,3-8.2,2-9.8,1S554.4,1656.2,555.7,1653.2z M553.4,1695.2c1.1-3.2,9.2-1.3,12.3,0.2
					c3.1,1.5,9.3,6.5,8.3,9.7c-1.1,3.2-9.1,2.4-12.2,0.9C558.7,1704.5,552.3,1698.4,553.4,1695.2z M560.1,1748.7
					c-3.6,1.1-9-1.6-9.7-6.7c-0.7-5.1,4.1-9.6,7.7-10.7c3.6-1.1,11.9-0.7,12.6,4.4C571.4,1740.8,563.7,1747.6,560.1,1748.7z
					 M585.4,1681.3c-1.5,1.4-5-1.8-6-3.7c-1-1.9-2-7.4-0.4-8.8c1.5-1.4,4.8,2.5,5.7,4.4C585.7,1675,587,1679.9,585.4,1681.3z
					 M594.8,1625.1c-0.4,1.7-2,5.2-3.4,4.8c-1.3-0.4-1.5-4.7-1.1-6.5c0.4-1.7,2.4-5.3,3.8-4.9
					C595.5,1618.9,595.2,1623.3,594.8,1625.1z M598.6,1599.3c-2.5,2.9-8.5-18.7-4-19.3C602.3,1578.9,598.6,1599.3,598.6,1599.3z"/>
				
					<linearGradient id="SVGID_17_" gradientUnits="userSpaceOnUse" x1="664.9021" y1="1785.1837" x2="873.988" y2="1899.7252" gradientTransform="matrix(0.7947 0.4419 -0.3915 1.0497 731.1381 -618.5605)">
					<stop  offset="0" style="stop-color:#3D7C3B"/>
					<stop  offset="0.2369" style="stop-color:#3C7839"/>
					<stop  offset="0.5743" style="stop-color:#3A6C34"/>
					<stop  offset="0.8858" style="stop-color:#355C2C"/>
				</linearGradient>
				<path class="st23" d="M647.2,1739.1c-1.6-0.1-2.8-1.6-3.1-3.6l0,0c-0.3-2.7,1.3-5.2,3.4-5.5c51.6-6.1,45.8-56.4,45.8-56.4
					c-12.9,18.4-49.1,27.4-58.2,29.4c-1.2,0.3-2.2-0.7-2.3-2.2c-0.1-1.5,0.7-2.9,1.9-3.1c28.3-5.4,57.8-36.6,57.8-36.6
					c2.8-24-10.7-57.6-10.7-57.6c-19.9,44.8-48.1,57.2-54.6,59.5c-0.8,0.3-1.7-0.1-2.1-1c-0.7-1.4,0-3.4,1.3-3.9
					c31.1-9.9,50.2-64.9,50.2-64.9c-1.3-12.3-22.5-32.2-22.5-32.2c-3.9,35.9-22.4,58.2-28.2,64.4c-0.9,1-2.2,0.8-2.8-0.5
					c-0.5-1.1-0.3-2.5,0.5-3.3c20.3-20.4,24.4-65.2,24.4-65.2c-2.1-7.1-8.3-7.4-16.1-13.3c-6.9-5.3-17.6-16.1-19.9-18.3
					c-0.1-0.1-0.1-0.1-0.2-0.2c-0.1,0.1-0.2,0.1-0.3,0.2L587,1743c0,0,0,0,0,0.1c0,2.6,1,55.3,52.4,43.1
					c40.9-9.7,49.1-69.6,49.1-69.6C672.3,1738.9,654,1739.7,647.2,1739.1z M628.1,1637.1c1.3-0.8,4.6-1.3,5.2,0.3
					c0.5,1.6-1.9,4.2-3.2,5c-1.3,0.8-4.7,1.8-5.2,0.2C624.3,1641,626.8,1637.8,628.1,1637.1z M618.6,1601.3
					c5,2.3-8.1,13.2-10.1,10.3C608.5,1611.7,610.1,1597.4,618.6,1601.3z M602.4,1655.8c2.6-5,6.6-10.3,9-1.8
					c0.7,2.7-2.3,5.7-5.5,7.4C603.2,1662.8,600.8,1659,602.4,1655.8z M600.5,1691.2c-0.4-2.3,3.3-4.9,5.1-5.5c1.8-0.6,4,0,4.3,2.3
					c0.4,2.3-1.1,4.7-2.9,5.3C605.3,1693.9,600.9,1693.5,600.5,1691.2z M617.7,1745.7c-1.6,4.2-6.9,5.2-9.9,3.5
					c-3-1.7-8.5-9.2-6.9-13.3c1.6-4.2,9-2.7,12-0.9C615.9,1736.7,619.3,1741.6,617.7,1745.7z M617.1,1717.5c-2.4,1.6-9.1,2.4-10.3-1
					s3.4-8.8,5.9-10.3c2.4-1.6,9-3.6,10.3-0.1C624.2,1709.5,619.5,1716,617.1,1717.5z M627.4,1679.5c-1,0.3-4.8,0-5.1-1.8
					c-0.3-1.8,3-3.8,4-4.1c1-0.3,3.5-0.2,3.8,1.6C630.4,1676.9,628.3,1679.1,627.4,1679.5z"/>
			</g>
		</g>
		<linearGradient id="SVGID_18_" gradientUnits="userSpaceOnUse" x1="-166.3134" y1="1440.0851" x2="1256.9969" y2="2382.3279">
			<stop  offset="0" style="stop-color:#EAE46D"/>
			<stop  offset="4.343308e-02" style="stop-color:#D6DB5F"/>
			<stop  offset="0.1185" style="stop-color:#BACF4D"/>
			<stop  offset="0.1915" style="stop-color:#A6C743"/>
			<stop  offset="0.2607" style="stop-color:#99C33E"/>
			<stop  offset="0.3222" style="stop-color:#95C13D"/>
		</linearGradient>
		<path class="st24" d="M-335.1,1725.7c0,0,748.7-167.6,1230,67s1042.8,124.9,1042.8,124.9v326H-335.1
			C-335.1,2243.6-691.6,1978.6-335.1,1725.7z"/>
		<linearGradient id="SVGID_19_" gradientUnits="userSpaceOnUse" x1="443.9647" y1="427.8516" x2="443.9647" y2="650.6629">
			<stop  offset="0" style="stop-color:#FFFFFF"/>
			<stop  offset="1" style="stop-color:#FFFFFF;stop-opacity:0.1"/>
		</linearGradient>
		<path class="st25" d="M813.2,650.7c-18.8-57.7-84.9-100.3-163.6-100.3c-19.9,0-39,2.7-56.7,7.7c-21-75.1-89.8-130.3-171.7-130.3
			c-72.2,0-134.3,43-162.4,104.7c-11.6-2.9-23.8-4.4-36.3-4.4c-73.5,0-134.7,52.8-147.8,122.5H813.2z"/>
		<linearGradient id="SVGID_20_" gradientUnits="userSpaceOnUse" x1="-352.6122" y1="149.5248" x2="-352.6122" y2="277.5866">
			<stop  offset="0" style="stop-color:#FFFFFF"/>
			<stop  offset="1" style="stop-color:#FFFFFF;stop-opacity:0.1"/>
		</linearGradient>
		<path class="st26" d="M-140.4,277.6c-10.8-33.1-48.8-57.6-94.1-57.6c-11.4,0-22.4,1.6-32.6,4.4c-12-43.2-51.6-74.9-98.7-74.9
			c-41.5,0-77.2,24.7-93.3,60.2c-6.7-1.7-13.7-2.6-20.9-2.6c-42.3,0-77.4,30.3-84.9,70.4H-140.4z"/>
		<linearGradient id="SVGID_21_" gradientUnits="userSpaceOnUse" x1="12.8355" y1="2252.7583" x2="3175.7117" y2="-910.118">
			<stop  offset="0" style="stop-color:#FFFFFF;stop-opacity:0"/>
			<stop  offset="0.8481" style="stop-color:#FFFFFF;stop-opacity:0.8125"/>
			<stop  offset="1" style="stop-color:#FFFFFF"/>
		</linearGradient>
		<polygon class="st27" points="1576.4,286.1 1617.9,603.3 279.6,2498.3 -733.1,2486.4 		"/>
		<linearGradient id="SVGID_22_" gradientUnits="userSpaceOnUse" x1="727.8283" y1="1604.2253" x2="1251.3308" y2="1104.3651">
			<stop  offset="0" style="stop-color:#275B52"/>
			<stop  offset="1" style="stop-color:#112B27"/>
		</linearGradient>
		<path class="st28" d="M867.2,1049.4c0,0-245,77.4-45.1,245c-96.7,225.7,148.3,290.2,251.5,148.3c6.4,180.5,277.3,154.7,322.4,12.9
			c45.1-141.9-12.9-174.1-12.9-174.1s154.7-135.4,45.1-199.9c32.2-116.1-212.8-309.5-335.3-103.2
			C1009,881.7,880.1,836.6,867.2,1049.4z"/>
		<linearGradient id="SVGID_23_" gradientUnits="userSpaceOnUse" x1="1459.9117" y1="1692.324" x2="1855.1395" y2="578.7721">
			<stop  offset="0" style="stop-color:#275B52"/>
			<stop  offset="1" style="stop-color:#112B27"/>
		</linearGradient>
		<path class="st29" d="M1425.4,1210.3c23.7,5.8,177.7,213.2,331.6,47.4c112.5,118.4,236.9,47.4,278.3-112.5
			c159.9,41.5,254.6-307.9,82.9-367.2c136.2-148-100.7-396.8-207.3-307.9c-254.6-171.7-521.1,53.3-485.6,159.9
			c-136.2-17.8-159.9,195.4-59.2,278.3C1212.2,926,1230,1162.9,1425.4,1210.3z"/>
		<path class="st30" d="M1238.9,1088.9l118.4,165.8l35.5-562.6h88.8V1006l167.1-177.9c6.3-6.7,17.5-4.4,20.4,4.3
			c1.8,5.3,4.3,11.8,7.9,19.6c-11.8,5.9-195.4,272.4-195.4,272.4l77,1219.9h-266.5l59.2-1018.6l-159.9-236.9H1238.9z"/>
		<path class="st30" d="M1238.9,1088.9l118.4,165.8l35.5-562.6h88.8V1006l167.1-177.9c6.3-6.7,17.5-4.4,20.4,4.3
			c1.8,5.3,4.3,11.8,7.9,19.6c-11.8,5.9-195.4,272.4-195.4,272.4l77,1219.9h-266.5l59.2-1018.6l-159.9-236.9H1238.9z"/>
		<path class="st31" d="M1648.8,828.1L1481.7,1006V692.1h-47.4v1652.2h124.4l-77-1219.9c0,0,183.6-266.5,195.4-272.4
			c-3.6-7.8-6.1-14.3-7.9-19.6C1666.3,823.7,1655.1,821.4,1648.8,828.1z"/>
		<path class="st32" d="M1481.7,1124.4c0,0,183.6-266.5,195.4-272.4c-3.6-7.8-6.1-14.3-7.9-19.6c-2.9-8.7-14.1-11-20.4-4.3
			L1481.7,1006V692.1h-88.8l-35.5,562.6l-118.4-165.8h-47.4l147,217.8l144.7-157L1481.7,1124.4z"/>
		
			<linearGradient id="SVGID_24_" gradientUnits="userSpaceOnUse" x1="-377.4422" y1="1799.7051" x2="1905.1105" y2="-482.8476" gradientTransform="matrix(0.9959 9.065767e-02 -9.065767e-02 0.9959 107.5829 -87.2689)">
			<stop  offset="0" style="stop-color:#FFFFFF;stop-opacity:0"/>
			<stop  offset="1" style="stop-color:#FFFFFF"/>
		</linearGradient>
		<polygon class="st33" points="996.1,425.6 1007.9,680.3 -933.4,2354.1 -1507.1,2301.9 996.1,425.6 		"/>
		<linearGradient id="SVGID_25_" gradientUnits="userSpaceOnUse" x1="1730.7871" y1="1015.1417" x2="2018.3341" y2="415.2563">
			<stop  offset="0" style="stop-color:#275B52"/>
			<stop  offset="1" style="stop-color:#112B27"/>
		</linearGradient>
		<path class="st34" d="M1656.4,547c0,0-225,71.1-41.5,225c-88.8,207.3,136.2,266.5,231,136.2c5.9,165.8,254.6,142.1,296.1,11.8
			s-11.8-159.9-11.8-159.9s142.1-124.4,41.5-183.6c29.6-106.6-195.4-284.2-307.9-94.7C1786.7,393.1,1668.2,351.6,1656.4,547z"/>
		<linearGradient id="SVGID_26_" gradientUnits="userSpaceOnUse" x1="1093.3951" y1="-87.2274" x2="1798.6544" y2="653.6392">
			<stop  offset="0" style="stop-color:#33A180"/>
			<stop  offset="0.2063" style="stop-color:#319E7E"/>
			<stop  offset="0.3777" style="stop-color:#2E9577"/>
			<stop  offset="0.5365" style="stop-color:#29886B"/>
			<stop  offset="0.6879" style="stop-color:#22765C"/>
			<stop  offset="0.8339" style="stop-color:#156049"/>
			<stop  offset="0.974" style="stop-color:#034734"/>
			<stop  offset="0.9997" style="stop-color:#004330"/>
		</linearGradient>
		<path class="st35" d="M933.9,67.4c-3.1,11.4-148,118.4,17.8,355.3c-136.2,165.8,41.5,313.9,165.8,260.6
			c17.8,148,248.7,207.3,337.5,65.1c59.2,88.8,236.9,65.1,337.5-112.5c201.3,17.8,254.6-154,272.4-278.3
			c17.8-124.4,41.5-467.8-242.8-426.4C1763-252.4,1028.7-276.1,933.9,67.4z"/>
		<linearGradient id="SVGID_27_" gradientUnits="userSpaceOnUse" x1="323.8969" y1="180.7379" x2="1345.71" y2="907.4302">
			<stop  offset="0" style="stop-color:#33A180"/>
			<stop  offset="0.1376" style="stop-color:#30997A"/>
			<stop  offset="0.3628" style="stop-color:#29866A"/>
			<stop  offset="0.6478" style="stop-color:#1B6951"/>
			<stop  offset="0.9785" style="stop-color:#014532"/>
			<stop  offset="0.9997" style="stop-color:#004330"/>
		</linearGradient>
		<path class="st36" d="M966.1,333.8c-18.5,24-410-5.9-290.2,361.2C512,855,644.4,973.4,764.3,979.3
			c50.5,159.9,330.3,272.4,442.7,109.6c149.1,41.5,270.1-103.6,213.3-364.2c189.2-100.7,25.2-390.8-145.1-313.9
			C1268.9,191.7,1048.1,227.3,966.1,333.8z"/>
		
			<linearGradient id="SVGID_28_" gradientUnits="userSpaceOnUse" x1="1223.0206" y1="2037.8834" x2="1417.7592" y2="2037.8834" gradientTransform="matrix(0.9997 -2.309386e-02 2.309386e-02 0.9997 -28.282 29.3099)">
			<stop  offset="0" style="stop-color:#42847F"/>
			<stop  offset="0.1815" style="stop-color:#346371"/>
			<stop  offset="0.3639" style="stop-color:#2A4A66"/>
			<stop  offset="0.5416" style="stop-color:#24375D"/>
			<stop  offset="0.7106" style="stop-color:#202957"/>
			<stop  offset="0.8674" style="stop-color:#1E1F53"/>
			<stop  offset="1" style="stop-color:#1D1C52"/>
		</linearGradient>
		<path class="st37" d="M1253.3,2214.8c0.1,0,0.2,0,0.3,0c0.5-0.1,0.9-0.6,0.9-1.2c-2.1-33.2,7-73.8,26.9-120.6l0.4-0.9l0.9-0.1
			c4.7-0.6,9.5-1.1,14.3-1.7c23.8-2.8,48.3-5.7,70.6-10.9c0.5-0.1,0.9-0.7,0.8-1.3c-0.1-0.4-0.3-0.7-0.7-0.8c-0.1,0-0.3,0-0.4,0
			c-22.2,5.1-46.7,8-70.4,10.8c-3.9,0.5-7.8,0.9-11.6,1.4l-2.5,0.3l1.1-2.5c13.8-31.3,32.3-65.3,55-101.2l0.3-0.5l0.5-0.2
			c10.7-3.1,23.2-6.2,36.5-9.4c5.4-1.3,11-2.7,16.4-4c0.3-0.1,0.5-0.2,0.6-0.5c0.2-0.2,0.2-0.5,0.2-0.8c-0.1-0.4-0.3-0.7-0.7-0.8
			c-0.1,0-0.3,0-0.4,0c-5.5,1.4-11,2.7-16.4,4c-10.7,2.6-21.8,5.3-31.4,7.9l-3.6,1l2.2-3.4c44.1-68.4,88.2-119.8,88.7-120.3
			c0.2-0.2,0.3-0.5,0.3-0.8c0-0.3-0.1-0.5-0.3-0.7c-0.1-0.1-0.2-0.2-0.4-0.2c-0.3-0.1-0.7,0-1,0.3c-0.5,0.5-47.1,54.8-92.2,125.4
			c-4.9,7.7-9.8,15.6-14.6,23.6l-1.9,3.2l-0.7-3.6c-3.4-17.9-12.9-62.5-13.9-66.6c-0.1-0.4-0.3-0.6-0.7-0.7c-0.2,0-0.4,0-0.5,0
			c-0.2,0.1-0.5,0.3-0.6,0.5c-0.1,0.3-0.2,0.5-0.1,0.8c1.6,6.7,13.4,62.2,14.8,71.5l0.1,0.6l-0.3,0.6
			c-17.9,30.4-32.4,59.2-43.2,85.6l-1.2,2.8l-1.4-2.5c-14.6-26.2-24-54.3-31.2-78.3c-0.1-0.3-0.3-0.6-0.6-0.6c-0.2-0.1-0.4,0-0.6,0
			c-0.5,0.2-0.8,0.8-0.6,1.4c7.6,25.2,17.5,54.6,32.8,81.4l0.6,0.7l-0.3,1.1c-16.3,41.6-23.6,78.3-21.7,109.1
			C1252.6,2214.3,1252.9,2214.7,1253.3,2214.8z"/>
		<g>
			<linearGradient id="SVGID_29_" gradientUnits="userSpaceOnUse" x1="1395.0261" y1="2138.7014" x2="2073.8738" y2="2138.7014">
				<stop  offset="0" style="stop-color:#275B52"/>
				<stop  offset="1" style="stop-color:#112B27"/>
			</linearGradient>
			<path class="st38" d="M1443.7,2274.8c-28-7.3-49.1-35.1-48.7-63.9c0.4-28.9,22.4-56.1,50.6-62.5c28.2-6.4,59.8,8.5,72.7,34.3
				c-15.2-34.3-5.7-79.1,24.7-101c30.4-21.9,79.2-14.5,98.6,17.6c24.3-68.8,103.4-113.3,174.9-98.4
				c71.5,14.9,126.1,87.4,120.9,160.2c-7.8-15.8,6.7-34.2,22.7-41.7c37.1-17.4,86.4-0.8,105.4,35.5c19,36.2,4.6,86.3-30.7,106.9
				c-24,14-53.2,14.6-80.9,14.9c-76.7,0.8-153.3,1.6-230,2.4c-95.6,1-191.6,2-286.6-8.5"/>
			<path class="st19" d="M1537.2,1982.2c98.3,87.9,127.4,197.3,134.6,233.3l0.9-9c2.6-30.2,6.6-60.2,11.4-89.9
				c-83.3-98.6-99.3-230-99.3-230c74.4,84.2,95.7,176.5,101.6,215.8c3.6-21,7.7-41.9,12-62.6c1-4.9,2.1-9.8,3.2-14.7
				c-64.4-97.2-68.7-212.9-68.7-212.9c57.9,83.9,69.2,166.9,71.3,201.2c1.1-4.6,2.2-9.3,3.3-13.9c-0.1,0-0.1,0-0.2,0
				c0,0,0.1-0.2,0.3-0.5c5-20.4,10.6-40.6,16.5-60.6c-60.4-90.2-64.4-198.3-64.4-198.3c57.2,83,65.3,165,66.3,192
				c5.2-17.3,10.8-34.4,16.6-51.3c3.1-8.9,6.3-17.7,9.6-26.5c-27.4-71.4-17.6-140.7-17.6-140.7c25,63,22.3,114.8,19.8,134.6
				c11.6-30.8,24.4-60.7,38.6-89.3c5.7-26.9,23-83.8,71.8-135c0,0-14.7,86.6-73.1,149.2c-8.7,18.4-16.8,37.4-24.4,56.8
				c9.1-12.4,41.1-49.4,99.1-53c0,0-39.1,52.3-100.7,56.9c-6.4,16.6-12.6,33.4-18.4,50.4c-3.5,10.3-6.8,20.7-10.1,31.2
				c11.9-16.1,53.6-64.4,129-69c0,0-50.7,67.9-130.6,74.1c-6.6,21.5-12.8,43.3-18.4,65.3c20.1-24.4,70.5-73.5,155-78.8
				c0,0-61.3,82-158.3,91.8c-3.5,14.4-6.7,28.8-9.7,43.4c-3.5,17.1-6.7,34.3-9.7,51.6c13.4-22.9,68.4-104.9,179.9-128.2
				c0,0-66.2,108.1-180.8,133.7c-6.1,35.7-10.9,71.9-13.9,108.3l-0.2,2.5c15.6-31.6,69-122.4,182.3-164.3
				c0,0-62.3,126.4-183.2,173.8l-0.8,9c-0.3,3.5-0.7,7-0.9,10.5l-0.5,10.5l-2,42.1c-1,14-0.5,28-0.6,42.1l0,42.1l-8.4,0.7l0.3-42.6
				c0.2-14.2-0.2-28.4,0.9-42.5l2.2-42.5l0.6-10.6c0.2-3.5,0.7-7,1-10.6l0.3-2.8C1566.8,2128.9,1537.2,1982.2,1537.2,1982.2z"/>
			<path class="st19" d="M1055.8,2028.1c-26,90.2-2.1,167.1,7.2,191.5l-3.9-5.1c-13-17.2-26.7-33.8-40.9-49.9
				c12.9-91-27.2-176.2-27.2-176.2c-13,78.9,9.1,142.6,20.4,168.5c-10.1-11.3-20.5-22.3-30.9-33.2c-2.5-2.6-5-5.1-7.5-7.6
				c2-83-39.2-154.3-39.2-154.3c-3.1,72.5,21.5,126.8,33.1,148.2c-2.4-2.4-4.8-4.8-7.2-7.1c0,0,0.1,0,0.1-0.1c0,0-0.1-0.1-0.4-0.2
				c-10.8-10.4-21.7-20.5-32.9-30.3c2.3-77.2-36.2-143.9-36.2-143.9c-3.1,71.7,23.1,124.1,32.7,140.8c-9.7-8.4-19.5-16.7-29.4-24.6
				c-5.2-4.2-10.5-8.3-15.8-12.4c-10.5-53.4-42.6-91.4-42.6-91.4c8.7,47.4,30,77.6,39,88.6c-18.7-14.2-37.7-27.4-57.1-39.2
				c-13.6-14-45.5-41.8-94.4-54.2c0,0,41.6,46.6,100.5,62.3c12.2,7.8,24.3,16.2,36.2,25c-10.2-4-43.5-14.3-79.8,5.6
				c0,0,43.3,16.7,82.2-3.8c10.2,7.5,20.2,15.4,30.1,23.4c6,4.9,12,9.9,17.9,15c-13.3-5.2-56.6-18.5-103.9,7.2
				c0,0,56.2,21.7,106.8-4.8c12.1,10.4,24.1,21.2,35.8,32.4c-21.3-7.1-70.3-17.6-123.2,11.2c0,0,68,26.2,130.1-4.5
				c7.5,7.3,15,14.8,22.3,22.5c8.6,9,17,18.1,25.4,27.4c-16.7-8.7-80.9-37.3-156.9-9.2c0,0,80.8,40.1,159.6,12.1
				c17.2,19.2,33.8,39.2,49.4,60l1.1,1.4c-21.4-13.1-87.9-47.7-172.1-30c0,0,85.4,52.6,176.2,35.4l3.9,5.1c1.5,2,3.1,3.9,4.5,6
				l4.3,6.2l17.1,24.6c5.9,8.1,10.9,16.7,16.3,25.1l15.9,25.4l5.3-2.8l-16.3-25.6c-5.5-8.5-10.6-17.2-16.6-25.3l-17.4-24.8l-4.4-6.2
				c-1.5-2-3.1-4-4.6-6l-1.2-1.6C1093.6,2127.7,1055.8,2028.1,1055.8,2028.1z"/>
			<g>
				<linearGradient id="SVGID_30_" gradientUnits="userSpaceOnUse" x1="1507.9008" y1="2090.9282" x2="1775.2578" y2="2090.9282">
					<stop  offset="2.621188e-04" style="stop-color:#125028"/>
					<stop  offset="4.219938e-02" style="stop-color:#16542B"/>
					<stop  offset="0.331" style="stop-color:#2C6C45"/>
					<stop  offset="0.5965" style="stop-color:#3A7F5D"/>
					<stop  offset="0.8281" style="stop-color:#418B6D"/>
					<stop  offset="1" style="stop-color:#449073"/>
				</linearGradient>
				<path class="st39" d="M1775,1887.1c-0.2,0.1-0.4,0.2-0.6,0.3c-2.5,1.2-5.3,2.4-8.7,3.7c-8,3-19,6.3-34.9,10.1
					c-35.5,8.4-28.8,100.1-27.1,119.7c0.2,2-0.9,4.1-2.5,5c-1.9,1-3.9,0.2-4.7-1.8c-16.3-42.5,12.2-123,12.2-123
					c-4.4-0.5-23.2,7.3-38.3,14.1c-15.2,6.8-26.1,24.1-26.7,42.6c-1.4,46.7,16.5,105.5,20.9,118.5c0.6,1.6,1.1,4.1,0.1,5.7
					c-1.1,1.8-2.3,2.4-3.4,2.1c-0.7-0.2-1.4-0.8-2.1-1.8c-35-50.3-21.6-153.4-21.6-153.4c-9.2,3.1-32.8,28.9-46.2,43.7
					c-6.7,7.4-9.8,18.1-8.3,27.9c5.9,37.7,36.2,97,45.8,113c1.5,2.5,3.4,4.1,1.4,6.6c-1.6,2-3.9,2.8-5.9,2.1
					c-0.6-0.2-1.1-0.4-1.6-0.9c-44.9-45.8-49.3-129.6-49.3-129.6c-8.6,7.3-27,47.5-36.1,68.7c-4.3,10.2-5.1,21.5-2.2,31.4
					c12.4,41.6,50.2,68.3,65,77.7c2.7,1.7,2.9,5.3,0.5,8.1c-1.7,2-4.2,2.9-6.3,2.3c-51.3-14.5-69.4-84.1-69.4-84.1
					s-45.5,111.5,12.3,172.5c57.8,61,118.3,0.8,125.9-19.9c0.3-0.9,0.6-1.7,1-2.5c0.2-0.5,0.4-0.9,0.6-1.4l110.5-357
					C1775.2,1887.3,1775.1,1887.2,1775,1887.1z M1672.4,2048.6c16.3-19.3,15.7,23.9,15.7,23.9
					C1685.3,2079.4,1666,2056.2,1672.4,2048.6z M1636,2084c3.1-4.6,10.9-1.7,13.4,0.5c2.5,2.2,10,12.3,6.9,16.9s-15.1,0.6-17.7-1.6
					C1636.2,2097.6,1632.9,2088.6,1636,2084z M1619.3,2153.7c2.8-5,16.7,1,21.8,4.6c5.1,3.6,14.5,14.1,11.7,19.2s-16.8,0.9-21.9-2.7
					C1625.8,2171.2,1616.4,2158.7,1619.3,2153.7z M1614.8,2246c-6.7,0.6-15.4-5.7-15.2-14.6c0.3-8.9,10.2-14.8,16.9-15.4
					c6.7-0.6,21.3,2.9,21,11.8C1637.3,2236.6,1621.5,2245.3,1614.8,2246z M1680.3,2141.3c-3.2,1.8-8.4-4.8-9.5-8.3
					c-1.2-3.5-1.2-13.1,1.9-14.9c3.2-1.8,7.7,5.8,8.8,9.3C1682.6,2130.9,1683.4,2139.5,1680.3,2141.3z M1714,2050.1
					c-1.2,2.7-5.2,8.1-7.4,6.9c-2.2-1.2-1.2-8.5,0.1-11.2c1.2-2.7,6-8.2,8.2-7C1717,2040,1715.2,2047.3,1714,2050.1z M1728.4,2008
					c-5.3,4.1-9.4-34.4-1.2-33.9C1741.2,1975.1,1728.4,2008,1728.4,2008z"/>
				<linearGradient id="SVGID_31_" gradientUnits="userSpaceOnUse" x1="1662.9327" y1="2111.6692" x2="1881.3232" y2="2111.6692">
					<stop  offset="2.621188e-04" style="stop-color:#125028"/>
					<stop  offset="4.219938e-02" style="stop-color:#16542B"/>
					<stop  offset="0.331" style="stop-color:#2C6C45"/>
					<stop  offset="0.5965" style="stop-color:#3A7F5D"/>
					<stop  offset="0.8281" style="stop-color:#418B6D"/>
					<stop  offset="1" style="stop-color:#449073"/>
				</linearGradient>
				<path class="st40" d="M1772.1,2259.7c-2.7-0.8-4.5-3.7-4.3-7.1l0,0c0.3-4.6,3.9-8.4,7.7-8c93.2,7.5,98.3-79,98.3-79
					c-28.5,26.5-95.2,29.2-111.9,29.4c-2.1,0-3.7-2-3.4-4.5c0.2-2.6,2.2-4.6,4.3-4.6c51.7,0.6,113.5-41.7,113.5-41.7
					c12.2-39.3-1.5-100.6-1.5-100.6c-48.9,68.4-102.6,79.6-114.8,81.2c-1.5,0.2-2.9-0.7-3.4-2.4c-0.8-2.7,1-5.8,3.5-6.1
					c58.2-5.9,108.7-91.8,108.7-91.8c1.4-21.1-30-61.9-30-61.9c-17.8,58.9-57.4,90.1-69.6,98.5c-1.9,1.3-4.2,0.5-4.9-1.8
					c-0.6-2,0.3-4.3,1.9-5.4c42.2-27.3,63.1-101.2,63.1-101.2c-1.6-12.7-12.5-15.3-24.5-27.9c-10.7-11.2-26.3-33.1-29.6-37.6
					c-0.1-0.1-0.2-0.3-0.3-0.4c-0.2,0.1-0.4,0.2-0.6,0.3l-110.3,358.3c0,0,0,0.1,0,0.2c-0.8,4.4-15.1,93.2,79.7,90.4
					c75.4-2.2,108.1-100.1,108.1-100.1C1816.5,2268.1,1783.9,2263.1,1772.1,2259.7z M1769.2,2081.7c2.5-0.9,8.6-0.6,9.1,2.3
					c0.5,2.9-4.7,6.4-7.2,7.3s-8.8,1.5-9.3-1.4C1761.4,2087,1766.8,2082.6,1769.2,2081.7z M1763.3,2018.4
					c8.2,5.6-18.4,19.4-21.1,13.9C1742.3,2032.3,1749.4,2008.8,1763.3,2018.4z M1718.1,2104.3c6.2-7.5,14.9-15.1,16.4,0.1
					c0.5,4.8-5.8,8.7-11.9,10.5C1717.3,2116.5,1714.2,2109.2,1718.1,2104.3z M1704,2163.2c0-4,7.3-7,10.6-7.4c3.3-0.4,7,1.4,7,5.3
					c0,4-3.4,7.5-6.7,7.9C1711.6,2169.4,1704,2167.2,1704,2163.2z M1717.8,2260.8c-4.2,6.4-13.8,6.4-18.5,2.5s-12.3-18.3-8.2-24.8
					c4.2-6.4,16.8-1.4,21.5,2.6C1717.4,2245,1721.9,2254.3,1717.8,2260.8z M1725.3,2213.2c-4.8,1.8-16.8,0.9-17.9-5.3
					c-1.1-6.2,8.7-13.6,13.5-15.4c4.8-1.8,17.1-2.9,18.2,3.3C1740.3,2202.1,1730.1,2211.4,1725.3,2213.2z M1755.1,2152.7
					c-1.8,0.2-8.5-1.7-8.5-4.7c0-3.1,6.5-5.3,8.4-5.5c1.8-0.2,6.3,0.9,6.2,3.9C1761.1,2149.4,1756.9,2152.5,1755.1,2152.7z"/>
			</g>
			<linearGradient id="SVGID_32_" gradientUnits="userSpaceOnUse" x1="859.9652" y1="1999.9456" x2="1174.0845" y2="2305.0779">
				<stop  offset="0" style="stop-color:#275B52"/>
				<stop  offset="1" style="stop-color:#112B27"/>
			</linearGradient>
			<path class="st41" d="M762.9,2309.3c-31.4-8.2-55.3-39.4-54.8-71.9c0.5-32.5,25.2-63.1,56.9-70.3c31.7-7.2,67.2,9.5,81.8,38.6
				c-17.1-38.6-6.4-89,27.8-113.7c34.2-24.7,89.1-16.3,110.9,19.8c27.4-77.4,116.3-127.5,196.7-110.7
				c80.4,16.8,141.9,98.3,136,180.2c-8.8-17.8,7.6-38.5,25.6-46.9c41.7-19.5,97.2-0.8,118.6,39.9c21.4,40.8,5.2,97-34.6,120.2
				c-27,15.7-59.8,16.5-91,16.8c-86.2,0.9-172.5,1.8-258.7,2.7c-107.6,1.1-215.5,2.2-322.4-9.5"/>
			<g>
				
					<linearGradient id="SVGID_33_" gradientUnits="userSpaceOnUse" x1="1170.9525" y1="2144.5535" x2="1478.2764" y2="1967.1199" gradientTransform="matrix(0.9997 -2.309386e-02 2.309386e-02 0.9997 -28.282 29.3099)">
					<stop  offset="0" style="stop-color:#275B52"/>
					<stop  offset="0.801" style="stop-color:#3D7C3B"/>
				</linearGradient>
				<path class="st42" d="M1249.6,2213.6c2.8,1.9,86.3,32.1,109,2.4l-56.7-14.2c0,0,67.4,10.9,80.7-5.9c13.3-16.8,56-73.7,56-73.7
					s-55.1-0.1-61.4-3.1c0,0,48.5-1.7,65.9-35.8c17.5-34.2,18-86.5,18-86.5l-41.3,15.3c0,0,32-17.3,28.5-38.6
					c-3.5-21.3-22.3-106.7-17.3-115.2c5-8.5-55.2,8.5-75,27.2c-19.8,18.7-0.2,53-0.2,53s-30.7-25.6-37.4-37.3
					c-6.7-11.7-45.6,35.2-47.9,37.6c-2.3,2.5,2.3,74.1,8.2,82.5c5.9,8.4-34.6-35.3-35.2-47.2c-0.6-11.9-32.6,39.6-29.5,63.5
					c3.1,23.8,20.6,70,20.6,70s-30.3-15-35.7-33.2C1193.5,2056.3,1159.1,2153.2,1249.6,2213.6z"/>
				
					<linearGradient id="SVGID_34_" gradientUnits="userSpaceOnUse" x1="1156.0509" y1="2121.0227" x2="1462.7474" y2="1943.9514" gradientTransform="matrix(0.9997 -2.309386e-02 2.309386e-02 0.9997 -28.282 29.3099)">
					<stop  offset="0" style="stop-color:#275B52"/>
					<stop  offset="0.801" style="stop-color:#3D7C3B"/>
				</linearGradient>
				<path class="st43" d="M1197.7,2074.6c5.4,18.1,35.7,33.2,35.7,33.2s-17.5-46.1-20.6-70c-3.1-23.8,28.9-75.3,29.5-63.5
					c0.6,11.9,41.1,55.6,35.2,47.2c-5.9-8.4-10.5-80-8.2-82.5c2.3-2.5,41.2-49.3,47.9-37.6c6.7,11.7,37.4,37.3,37.4,37.3
					s-19.6-34.3,0.2-53c17.3-16.3,65.2-31.3,73.9-29.2l1.1,2.1c0,0-192.7,237.1-174.5,357.8c-4-1.4-6.5-2.4-7-2.7
					C1157.8,2153.3,1192.3,2056.5,1197.7,2074.6z"/>
			</g>
			<path class="st19" d="M1180.8,1757.1c69.6,58.8,91.7,133.8,97.4,158.5l0.4-6.2c1.2-20.9,3.4-41.7,6.1-62.3
				c-59.4-66.5-73-156.9-73-156.9c53,56.7,69.5,120,74.3,147.1c2.1-14.6,4.5-29.1,7.1-43.4c0.6-3.4,1.3-6.8,1.9-10.2
				c-46.3-65.9-51.5-145.7-51.5-145.7c41.6,56.9,51,113.9,53.1,137.5c0.7-3.2,1.3-6.4,2-9.7c0,0-0.1,0-0.1,0c0,0,0.1-0.1,0.2-0.3
				c3.1-14.2,6.5-28.3,10.2-42.1c-43.4-61.1-48.3-135.7-48.3-135.7c41.1,56.2,48.2,112.7,49.5,131.3c3.3-12,6.8-24,10.5-35.7
				c2-6.2,4-12.4,6.1-18.5c-20.3-48.8-14.8-96.8-14.8-96.8c18.5,43,17.6,78.9,16.3,92.5c7.4-21.5,15.7-42.4,25-62.4
				c3.4-18.7,14.2-58.3,47-94.6c0,0-8.5,60.1-47.6,104.5c-5.6,12.9-10.9,26.2-15.8,39.7c6.1-8.7,27.4-34.9,67.4-38.5
				c0,0-26,36.8-68.4,41.3c-4.1,11.6-8,23.3-11.7,35.2c-2.2,7.2-4.3,14.5-6.4,21.7c7.9-11.4,35.8-45.5,87.8-50.1
				c0,0-33.7,47.8-88.8,53.7c-4.2,15-8,30.1-11.4,45.4c13.4-17.3,47.3-52.1,105.5-57.4c0,0-40.7,57.8-107.5,66.5
				c-2.1,10-4.1,20-5.9,30.2c-2.1,11.9-4,23.8-5.7,35.8c8.8-16,45.2-73.8,121.8-92c0,0-43.6,75.9-122.3,95.8
				c-3.5,24.8-6.2,49.8-7.5,75.1l-0.1,1.7c10.2-22.1,45.3-85.9,122.8-117c0,0-40.6,88.5-123.2,123.5l-0.4,6.2
				c-0.1,2.4-0.4,4.8-0.4,7.2l-0.1,7.3l-0.6,29.1c-0.4,9.7,0.2,19.4,0.4,29.1l0.8,29.1l-5.8,0.6l-0.6-29.4
				c-0.1-9.8-0.7-19.6-0.2-29.4l0.7-29.4l0.2-7.3c0.1-2.4,0.3-4.9,0.5-7.3l0.1-1.9C1204,1857.9,1180.8,1757.1,1180.8,1757.1z"/>
			<g>
				
					<linearGradient id="SVGID_35_" gradientUnits="userSpaceOnUse" x1="973.8833" y1="1967.4728" x2="1438.3058" y2="2254.4102" gradientTransform="matrix(0.9997 -2.309386e-02 2.309386e-02 0.9997 -28.282 29.3099)">
					<stop  offset="0" style="stop-color:#C7DC60"/>
					<stop  offset="9.260535e-02" style="stop-color:#B3C958"/>
					<stop  offset="0.3925" style="stop-color:#7FA349"/>
					<stop  offset="0.6545" style="stop-color:#5D8D40"/>
					<stop  offset="0.8658" style="stop-color:#46803C"/>
					<stop  offset="1" style="stop-color:#3D7C3B"/>
				</linearGradient>
				<path class="st44" d="M1044.7,2196.5c-18.4-22-39.2-42.6-52.5-68.1c-13.2-25.5-17.7-57.9-2.4-82.3
					c15.3-24.3,54.4-32.9,73.4-11.3c7.7,8.7,14.9,22.5,26.1,19.7c10.6-2.7,11.3-17.8,7.1-28c-6.9-16.5-20-29.5-31.7-43.1
					c-11.7-13.6-22.6-29.3-23.5-47.2c-0.9-17.9,12.4-37.4,30.3-37c6.7,0.1,13.3,2.9,19.9,1.5c11-2.3,16.4-15.5,15.4-26.6
					c-0.9-11.2-6.2-21.5-8.6-32.5c-8.3-38.6,28-79.9,67.4-76.6c39.4,3.4,68.2,50.3,53.4,86.9c-4.6,11.4-12.4,21.4-15.1,33.4
					c-2.6,12,2.9,27.3,15.1,28.9c12.3,1.6,21.3-11.1,32.6-16.1c18.8-8.4,41.7,7.7,46.7,27.7c5,20-3.1,41-14.2,58.5
					c-11,17.4-25.1,33-34,51.6c-3.1,6.5-5.3,15-0.4,20.4c7.8,8.6,21-0.8,31.5-5.8c24.9-12.1,56.5,6.9,65.8,33
					c9.4,26.1,1.8,55.3-10.1,80.3l0,0c-19.2,40.4-48.9,74.2-78.9,106.8c-29,31.6-54.2,69.5-84.2,99.5c-42.2,42.2-47.4-29.3-60-59.3
					C1096.9,2269.5,1073.5,2230.8,1044.7,2196.5z"/>
			</g>
		</g>
		<path class="st45" d="M1261.8,2113c0.9-1.6-1.6-2.8-2.6-1.2c-46.8,78.1-83.2,160.8-105.4,248.9c8.3-99.3,11-199,8.1-298.5
			c0-0.1,0.1-0.1,0.1-0.2c15.3-33.1,34.2-64.3,56.2-93.3c1.1-1.5-1.1-3.3-2.2-1.8c-21.1,27.8-39.3,57.6-54.4,89.1
			c-0.7-21.6-1.6-43.3-2.8-64.9c-2.3-40.1-5.5-80-9.5-120c-0.2-1.8-3-1.6-2.8,0.3c4.3,41.7,7.5,83.5,9.8,125.3
			c-12.9-16.5-25.7-32.9-38.6-49.4c-1.1-1.4-3.5,0.2-2.3,1.6c13.6,17.4,27.3,34.9,40.9,52.3c0.1,0.1,0.2,0.2,0.3,0.3
			c3.9,74,4.7,148.1,2.3,222.2c-26.4-48.1-57.3-93.6-92.3-135.8c-1.2-1.4-3.5,0.2-2.3,1.6c36,43.4,67.6,90.2,94.5,139.7
			c-0.7,22.2-1.7,44.4-3.1,66.6c-2.3,39.6-5.6,79.2-9.7,118.7c-0.2,1.8,2.6,2.3,2.8,0.5c1.3-12.3,2.4-24.6,3.6-36.9
			c0.2-0.2,0.3-0.4,0.4-0.7C1174.5,2283.4,1212.3,2195.6,1261.8,2113z"/>
		<g>
			<path class="st46" d="M1481.7,1802.4c0,13.7-11.1,24.8-24.8,24.8s-24.8-11.1-24.8-24.8c0-13.7,11.1-24.8,24.8-24.8
				S1481.7,1788.7,1481.7,1802.4z"/>
			<path class="st46" d="M664.5,2139.9c0,13.7-11.1,24.8-24.8,24.8c-13.7,0-24.8-11.1-24.8-24.8c0-13.7,11.1-24.8,24.8-24.8
				C653.4,2115.1,664.5,2126.2,664.5,2139.9z"/>
			<circle class="st9" cx="645.7" cy="1997.7" r="20.4"/>
			<circle class="st9" cx="-82.7" cy="1831.9" r="20.4"/>
			<circle class="st9" cx="1610.1" cy="1738" r="13.7"/>
			<path class="st2" d="M807.9,1854.3c0,11.1-9,20-20,20s-20-9-20-20c0-11.1,9-20,20-20S807.9,1843.3,807.9,1854.3z"/>
			<path class="st2" d="M423,2138.6c0,11.1-9,20-20,20s-20-9-20-20c0-11.1,9-20,20-20S423,2127.5,423,2138.6z"/>
			<path class="st2" d="M1506.7,2138.6c0,11.1-9,20-20,20s-20-9-20-20c0-11.1,9-20,20-20S1506.7,2127.5,1506.7,2138.6z"/>
			<path class="st2" d="M948.7,1917.2c0,5.8-4.7,10.5-10.5,10.5s-10.5-4.7-10.5-10.5c0-5.8,4.7-10.5,10.5-10.5
				S948.7,1911.4,948.7,1917.2z"/>
			<path class="st2" d="M1505.4,1911.2c0,5.8-4.7,10.5-10.5,10.5s-10.5-4.7-10.5-10.5c0-5.8,4.7-10.5,10.5-10.5
				S1505.4,1905.5,1505.4,1911.2z"/>
			<path class="st2" d="M546,2035.6c0,5.8-4.7,10.5-10.5,10.5c-5.8,0-10.5-4.7-10.5-10.5c0-5.8,4.7-10.5,10.5-10.5
				C541.4,2025.1,546,2029.8,546,2035.6z"/>
			<path class="st2" d="M113.7,2041.5c0,5.8-4.7,10.5-10.5,10.5c-5.8,0-10.5-4.7-10.5-10.5c0-5.8,4.7-10.5,10.5-10.5
				C109.1,2031.1,113.7,2035.7,113.7,2041.5z"/>
		</g>
	</g>
</g>
</svg>
