<?xml version="1.0" encoding="utf-8"?>
<!-- Generator: Adobe Illustrator 22.0.0, SVG Export Plug-In . SVG Version: 6.00 Build 0)  -->
<svg version="1.1" id="Layer_1" xmlns="http://www.w3.org/2000/svg" xmlns:xlink="http://www.w3.org/1999/xlink" x="0px" y="0px"
	 viewBox="0 0 707 1094.7" style="enable-background:new 0 0 707 1094.7;" xml:space="preserve">
<style type="text/css">
	.st0{clip-path:url(#SVGID_2_);}
	.st1{fill:#305528;}
	.st2{fill:#355C2C;}
	.st3{opacity:0.55;fill:url(#SVGID_3_);}
	.st4{fill:#038141;}
	.st5{fill:url(#SVGID_4_);}
	.st6{fill:url(#SVGID_5_);}
	.st7{fill:url(#SVGID_6_);}
	.st8{fill:url(#SVGID_7_);}
	.st9{fill:#FFFFFF;}
	.st10{fill:url(#SVGID_8_);}
	.st11{fill:url(#SVGID_9_);}
	.st12{fill:url(#SVGID_10_);}
	.st13{fill:url(#SVGID_11_);}
	.st14{fill:url(#SVGID_12_);}
	.st15{fill:url(#SVGID_13_);}
	.st16{display:none;fill:#25174F;}
	.st17{display:none;}
	.st18{display:inline;}
	.st19{fill:#25174F;}
	.st20{fill:url(#SVGID_14_);}
	.st21{fill:url(#SVGID_15_);}
	.st22{fill:url(#SVGID_16_);}
	.st23{fill:url(#SVGID_17_);}
	.st24{fill:url(#SVGID_18_);}
	.st25{opacity:0.82;fill:url(#SVGID_19_);}
	.st26{opacity:0.82;fill:url(#SVGID_20_);}
	.st27{fill:url(#SVGID_21_);}
	.st28{fill:url(#SVGID_22_);}
	.st29{fill:url(#SVGID_23_);}
	.st30{fill:#895738;}
	.st31{fill:#714D39;}
	.st32{opacity:0.22;fill:#603A17;}
	.st33{fill:url(#SVGID_24_);}
	.st34{fill:url(#SVGID_25_);}
	.st35{fill:url(#SVGID_26_);}
	.st36{fill:url(#SVGID_27_);}
	.st37{fill:url(#SVGID_28_);}
	.st38{fill:url(#SVGID_29_);}
	.st39{fill:url(#SVGID_30_);}
	.st40{fill:url(#SVGID_31_);}
	.st41{fill:url(#SVGID_32_);}
	.st42{fill:url(#SVGID_33_);}
	.st43{opacity:0.49;fill:url(#SVGID_34_);}
	.st44{fill:url(#SVGID_35_);}
	.st45{fill:#0F4B4F;}
	.st46{fill:#C7DC60;}
</style>
<g>
	<defs>
		<rect id="SVGID_1_" x="-182.9" y="0.2" width="889.9" height="1094.1"/>
	</defs>
	<clipPath id="SVGID_2_">
		<use xlink:href="#SVGID_1_"  style="overflow:visible;"/>
	</clipPath>
	<g class="st0">
		<circle class="st1" cx="-248.2" cy="831.8" r="5"/>
		<path class="st2" d="M-288,881.5c0.1,3.3-2.5,6-5.8,6.1c-3.3,0.1-6-2.5-6.1-5.8c-0.1-3.3,2.5-6,5.8-6.1
			C-290.8,875.6-288.1,878.2-288,881.5z"/>
		
			<linearGradient id="SVGID_3_" gradientUnits="userSpaceOnUse" x1="-286.1847" y1="1053.6309" x2="730.0051" y2="130.3849" gradientTransform="matrix(1 0 0 -1 0 1078.4619)">
			<stop  offset="0" style="stop-color:#EAE46D"/>
			<stop  offset="0.8415" style="stop-color:#95C13D"/>
		</linearGradient>
		<rect x="-182.9" y="0.2" class="st3" width="956.2" height="1105.7"/>
		<path class="st4" d="M-178.6,1072"/>
		<linearGradient id="SVGID_4_" gradientUnits="userSpaceOnUse" x1="540.9448" y1="457.8687" x2="772.9462" y2="457.8687">
			<stop  offset="0" style="stop-color:#FFFFFF;stop-opacity:0.1"/>
			<stop  offset="1" style="stop-color:#FFFFFF"/>
		</linearGradient>
		<path class="st5" d="M691.6,347.3c-44.9,0-81.3,36.4-81.3,81.3c0,4.2,0.3,8.2,0.9,12.2c-2.1-0.2-4.2-0.3-6.3-0.3
			c-35.3,0-64,28.6-64,64c0,35.3,28.6,64,64,64c34.6,0,62.8-27.5,63.9-61.8c7.2,2.1,14.9,3.3,22.8,3.3c44.9,0,81.3-36.4,81.3-81.3
			S736.5,347.3,691.6,347.3z"/>
		<linearGradient id="SVGID_5_" gradientUnits="userSpaceOnUse" x1="497.58" y1="609.6454" x2="627.6743" y2="609.6454">
			<stop  offset="0" style="stop-color:#FFFFFF"/>
			<stop  offset="1" style="stop-color:#FFFFFF;stop-opacity:0.1"/>
		</linearGradient>
		<circle class="st6" cx="562.6" cy="609.6" r="65"/>
		<linearGradient id="SVGID_6_" gradientUnits="userSpaceOnUse" x1="-101.8083" y1="679.2156" x2="52.7894" y2="487.9962">
			<stop  offset="0" style="stop-color:#FFFFFF"/>
			<stop  offset="1" style="stop-color:#FFFFFF;stop-opacity:0.1"/>
		</linearGradient>
		<path class="st7" d="M148.3,628.5c0.2-1.9,0.4-3.8,0.4-5.8c0-23.1-16.1-42.5-37.7-47.5c0.5-3.2,0.8-6.6,0.8-10
			c0-34.7-28.2-62.9-62.9-62.9c-3.7,0-7.4,0.3-11,1c-2.9-83.7-71.6-150.6-156-150.6c-86.2,0-156.1,69.9-156.1,156.1
			c0,86.2,69.9,156.1,156.1,156.1c48.6,0,92.1-22.3,120.7-57.1c11.5,12.5,27.9,20.3,46.2,20.3c0.8,0,1.6,0,2.5-0.1
			c0.9,8-9.3,15.5-5,21.9C31.9,665.1,36,685.7,36,708.4c0,46.7,37.9,84.6,84.6,84.6s84.6-37.9,84.6-84.6
			C205.1,671.4,181.4,640,148.3,628.5z"/>
		<linearGradient id="SVGID_7_" gradientUnits="userSpaceOnUse" x1="-302.6816" y1="538.3654" x2="-48.611" y2="538.3654">
			<stop  offset="0" style="stop-color:#FFFFFF"/>
			<stop  offset="1" style="stop-color:#FFFFFF;stop-opacity:0.1"/>
		</linearGradient>
		<circle class="st8" cx="-175.6" cy="538.4" r="127"/>
		<circle class="st9" cx="-75.3" cy="629.4" r="105.2"/>
		<linearGradient id="SVGID_8_" gradientUnits="userSpaceOnUse" x1="-61.2294" y1="660.8154" x2="81.7738" y2="660.8154">
			<stop  offset="0" style="stop-color:#FFFFFF;stop-opacity:0.1"/>
			<stop  offset="1" style="stop-color:#FFFFFF"/>
		</linearGradient>
		<circle class="st10" cx="10.3" cy="660.8" r="71.5"/>
		<linearGradient id="SVGID_9_" gradientUnits="userSpaceOnUse" x1="-99.0612" y1="639.5978" x2="448.3628" y2="896.7363">
			<stop  offset="0" style="stop-color:#275B52"/>
			<stop  offset="1" style="stop-color:#112B27"/>
		</linearGradient>
		<path class="st11" d="M-307,712.1c0,0,29.3-36.6,200.1-71.6c42.3-8.7,87.8-2.7,123.1,17c42.6,23.7,69.4,56.6,113.2,54.7
			c67.9-2.9,161-47.1,238.6-4.4s130,48.6,192-8.8S756,741.5,756,741.5l-18,91l-1068.2,6.1L-307,712.1z"/>
		<g>
			
				<image style="overflow:visible;opacity:0.2;" width="1864" height="770" xlink:href="C9DDF4DB.png"  transform="matrix(0.24 0 0 0.24 -336.36 671.751)">
			</image>
			<g>
				<linearGradient id="SVGID_10_" gradientUnits="userSpaceOnUse" x1="14.2391" y1="915.0728" x2="-305.0497" y2="706.7348">
					<stop  offset="0" style="stop-color:#355C2C"/>
					<stop  offset="2.534872e-02" style="stop-color:#355D2D"/>
					<stop  offset="1" style="stop-color:#3D7C3B"/>
				</linearGradient>
				<path class="st12" d="M-224.2,676.9c0,0,221.8,36.6,323.1,162.4c-236.3,9.1-429.2,0-429.2,0V676.9H-224.2z"/>
			</g>
		</g>
		<g>
			
				<image style="overflow:visible;opacity:0.2;" width="2149" height="1004" xlink:href="C9DDF4D9.png"  transform="matrix(0.24 0 0 0.24 216.84 714.231)">
			</image>
			<g>
				<linearGradient id="SVGID_11_" gradientUnits="userSpaceOnUse" x1="883.4133" y1="397.7592" x2="403.6778" y2="969.1268">
					<stop  offset="0" style="stop-color:#3D7C3B"/>
					<stop  offset="0.2369" style="stop-color:#3C7839"/>
					<stop  offset="0.5743" style="stop-color:#3A6C34"/>
					<stop  offset="0.8858" style="stop-color:#355C2C"/>
				</linearGradient>
				<path class="st13" d="M223.1,840.8c0,0,91.1-114.9,496.5-121.4c2.2,132.3,0,216.8,0,216.8S342.3,977.4,223.1,840.8z"/>
			</g>
		</g>
		<g>
			
				<image style="overflow:visible;opacity:0.2;" width="2678" height="871" xlink:href="C9DDF4DF.png"  transform="matrix(0.24 0 0 0.24 96.6 811.191)">
			</image>
			<g>
				
					<linearGradient id="SVGID_12_" gradientUnits="userSpaceOnUse" x1="472.8632" y1="725.9575" x2="325.1037" y2="1011.6653" gradientTransform="matrix(0.996 -8.915955e-02 8.915955e-02 0.996 -57.5786 47.6153)">
					<stop  offset="0.4667" style="stop-color:#3D7C3B"/>
					<stop  offset="0.617" style="stop-color:#3C7A3A"/>
					<stop  offset="0.7728" style="stop-color:#3B7136"/>
					<stop  offset="0.9306" style="stop-color:#376430"/>
					<stop  offset="1" style="stop-color:#355C2C"/>
				</linearGradient>
				<path class="st14" d="M102.6,824.1c0,0,352.2-53.3,624.5,118.3C599.7,976.1,248.9,1120.2,102.6,824.1z"/>
			</g>
		</g>
		<g>
			
				<linearGradient id="SVGID_13_" gradientUnits="userSpaceOnUse" x1="-34.3094" y1="806.1076" x2="199.6031" y2="806.1076" gradientTransform="matrix(0.9998 -2.178538e-02 2.178538e-02 0.9998 -13.2047 7.4433)">
				<stop  offset="0" style="stop-color:#275B52"/>
				<stop  offset="1" style="stop-color:#112B27"/>
			</linearGradient>
			<path class="st15" d="M188.1,852.7c9.6-2.5,16.7-11.5,16.3-20.7c-0.3-9.2-8.1-17.7-17.9-19.5c-9.7-1.8-20.5,3.1-24.8,11.5
				c5-11,1.4-25.3-9.2-32s-27.4-4-33.8,6.4c-8.9-21.8-36.4-35.3-60.9-30.1s-42.8,28.8-40.5,52c2.6-5.1-2.6-10.8-8.1-13.1
				c-12.9-5.3-29.8,0.4-36.1,12.1c-6.3,11.7-1,27.5,11.3,33.8c8.4,4.3,18.4,4.3,28,4.2c26.4-0.3,52.8-0.6,79.3-1
				c33-0.4,66-0.8,98.7-4.9"/>
			<path class="st16" d="M15.5,804.2c8.9,18.7,25.1,29.6,30.6,32.9l-1.5-0.5c-5.1-1.6-10.1-3-15.2-4.3c-11.5-17.4-32-28-32-28
				c9.6,15.3,23.5,24.1,29.6,27.4c-3.6-0.9-7.2-1.7-10.8-2.4c-0.9-0.2-1.7-0.3-2.6-0.5c-12.3-14.8-30.9-22.8-30.9-22.8
				C-6.9,819,6,825.9,11.4,828.3c-0.8-0.2-1.6-0.3-2.4-0.5c0,0,0,0,0,0c0,0,0,0-0.1,0c-3.6-0.7-7.2-1.2-10.8-1.7
				c-11.4-13.8-28.7-21.3-28.7-21.3C-20.2,817.8-7.3,824.1-3,826c-3.1-0.4-6.2-0.8-9.3-1.1c-1.6-0.2-3.2-0.3-4.8-0.4
				c-10.1-8.2-21.9-11.4-21.9-11.4c8.9,7.4,17.5,10.4,20.8,11.3c-5.6-0.4-11.2-0.7-16.6-0.6c-4.7-1-14.9-2.4-25.9,0.8
				c0,0,14.9,3.6,28.3-0.1c3.5,0,7,0.2,10.6,0.4c-2.5,0.4-10.3,2.3-14,9.7c0,0,10.6-1.8,14.8-9.7c3,0.2,6.1,0.5,9.2,0.8
				c1.9,0.2,3.7,0.4,5.6,0.7c-3.3,0.5-13.4,3-18.3,12.7c0,0,13.8-2.3,19.2-12.5c3.9,0.5,7.7,1.1,11.6,1.8
				c-5.1,1.1-15.8,4.6-21.3,15.5c0,0,16.7-2.8,23.6-15.1c2.5,0.5,5.1,1,7.6,1.5c3,0.6,5.9,1.3,8.9,2c-4.4,0.3-20.8,2.3-30.7,15.6
				c0,0,21.2-1.8,31.6-15.4c6.1,1.5,12.3,3.2,18.4,5.1l0.4,0.1c-6,0-23.7,1.3-36.7,13.6c0,0,24-0.1,38.3-13.1l1.5,0.5
				c0.6,0.2,1.2,0.4,1.8,0.6l1.7,0.6l6.9,2.5c2.3,0.8,4.6,1.7,6.9,2.6l6.8,2.7l0.6-1.1l-6.9-2.7c-2.3-0.9-4.6-1.9-7-2.6l-7-2.4
				l-1.8-0.6c-0.6-0.2-1.2-0.4-1.8-0.6l-0.5-0.1C37.8,817.6,15.5,804.2,15.5,804.2z"/>
			<g class="st17">
				<g class="st18">
					<path class="st19" d="M33.6,685.8c3.6-0.1,9.8,3.6,14,10.7c4.2,7.1,4.6,14.3,2.7,17.4c-3.6-0.4-9.1-4.6-13-11.3
						C33.3,696,32.4,689.2,33.6,685.8z"/>
				</g>
				<g class="st18">
					<path class="st19" d="M69.3,761.5c-4.3-16.7-10.5-33-18.3-48.4l-1.8,0.9c7.7,15.3,13.9,31.4,18.2,48L69.3,761.5z"/>
					<g>
						<path class="st19" d="M71,705.2c-3.6,0.8-8.1,5.9-10.6,13.5c-1.2,3.8-1.8,7.5-1.7,10.5c0,3.1,0.6,5.6,1.7,7.1
							c3.5-0.4,8.8-4.8,11.6-12.6C74.7,716.1,73.5,708.4,71,705.2z"/>
						<path class="st19" d="M30.8,725.2c2.8-2.2,9.5-3.3,16.8-0.6c3.7,1.3,6.6,3.4,8.8,5.5c2.1,2.2,3.4,4.5,3.7,6.3
							c-2.9,2.1-9.9,2.1-16.9-0.7C36,733,31.6,728.4,30.8,725.2z"/>
					</g>
					<g>
						<path class="st19" d="M39.9,746.3c3.1-1.9,9.8-2.3,16.8,1.1c7,3.5,11.1,9.3,11.1,13.1l0,0c-3.1,1.8-9.9,1.1-16.7-2.4
							C44.4,754.5,40.4,749.6,39.9,746.3z"/>
						<path class="st19" d="M82,730.5c-3.6,0.4-8.7,5-12,12.3c-3.3,7.3-3.7,14.2-1.9,17.5l0,0c3.5,0,9.3-3.9,12.8-11.3
							C84.6,741.7,84.1,734,82,730.5z"/>
					</g>
				</g>
				<g class="st18">
					<path class="st19" d="M76.9,811.5c-0.8-17.3-3.4-34.5-7.9-51.2l-1.9,0.5c4.4,16.6,7,33.6,7.8,50.7L76.9,811.5z"/>
					<g>
						<path class="st19" d="M90.3,756.8c-3.7,0.1-9.1,4.1-13.2,11c-4,6.9-5.1,13.8-3.7,17.3c3.5,0.3,9.7-2.9,13.9-9.9
							c2.2-3.5,3.3-7.2,3.7-10.4C91.5,761.5,91.1,758.6,90.3,756.8z"/>
						<path class="st19" d="M46.7,768c3.2-1.6,10-1.3,16.6,2.9c6.6,4.2,10.1,10.5,9.7,14.2c-3.3,1.4-10,0-16.4-4.2
							c-3.1-2.1-5.6-4.5-7.3-6.8C47.8,771.9,46.8,769.7,46.7,768z"/>
					</g>
					<g>
						<path class="st19" d="M51.3,790.5c3.4-1.2,10.1-0.2,16.2,4.6c3,2.4,5.3,5.3,6.6,8c1.3,2.7,1.9,5.3,1.5,7.1l0,0
							c-3.4,1.1-10-1-15.8-5.9C53.9,799.5,51.1,793.9,51.3,790.5z"/>
						<path class="st19" d="M95.8,783.9c-3.7-0.3-9.5,3.1-14.3,9.5c-2.4,3.2-3.9,6.5-4.9,9.4c-1,2.9-1.1,5.5-0.6,7.3l0,0
							c3.5,0.7,9.8-1.9,14.9-8.3C95.9,795.4,97.1,787.7,95.8,783.9z"/>
					</g>
				</g>
				<g class="st18">
					<path class="st19" d="M73.8,862.1c2.8-17.1,3.8-34.4,3-51.7l-2,0.1c0.7,17.1-0.3,34.3-3,51.3L73.8,862.1z"/>
					<g>
						<path class="st19" d="M98.4,811.4c-3.6-0.7-9.9,2.1-15.2,8c-5.5,5.9-7.9,12.4-7.3,16.1c3.4,1.1,10.1-0.8,15.7-6.7
							c2.8-3,4.8-6.3,5.9-9.4C98.5,816.2,98.8,813.4,98.4,811.4z"/>
						<path class="st19" d="M53.4,813.2c3.5-0.8,10,0.8,15.6,6.3c5.5,5.5,7.7,12.3,6.5,15.9c-3.5,0.7-9.8-2.1-15.1-7.5
							c-2.7-2.7-4.5-5.6-5.7-8.2C53.5,817.2,53.1,814.9,53.4,813.2z"/>
					</g>
					<g>
						<path class="st19" d="M53.1,836.2c3.5-0.5,10,1.9,14.8,7.9c5,6,6.3,13.1,4.9,16.5l0,0c-3.5,0.3-9.6-3.1-14.3-9
							c-2.3-3-4-6-4.8-8.7C52.9,840.1,52.7,837.8,53.1,836.2z"/>
						<path class="st19" d="M98,839.1c-3.5-1.1-9.9,1-16,6.3c-5.9,5.3-9.2,11.5-8.8,15.3l0,0c3.3,1.4,10,0.2,16.3-5.1
							c3.2-2.6,5.3-5.8,6.8-8.7C97.7,843.9,98.3,841.1,98,839.1z"/>
					</g>
				</g>
			</g>
			<path class="st16" d="M135.7,756.1c9.7,12.6,11.6,27.5,11.9,32.4l0.2-1.2c0.7-4,1.5-8,2.4-11.9c-8-13.9-8.1-31.7-8.1-31.7
				c7.2,11.9,8.4,24.5,8.5,29.8c0.7-2.8,1.4-5.5,2.1-8.3c0.2-0.6,0.4-1.3,0.5-1.9c-5.9-13.6-4.9-29.1-4.9-29.1
				c5.3,11.7,5.6,23,5.4,27.6c0.2-0.6,0.4-1.2,0.5-1.8c0,0,0,0,0,0c0,0,0,0,0-0.1c0.8-2.7,1.7-5.4,2.6-8
				c-5.5-12.6-4.7-27.1-4.7-27.1c5.3,11.6,5.2,22.7,4.9,26.3c0.8-2.3,1.6-4.5,2.5-6.7c0.5-1.2,0.9-2.3,1.4-3.5
				c-2.1-9.8-0.2-19-0.2-19c2,8.7,1,15.6,0.5,18.2c1.7-4,3.4-7.9,5.3-11.6c1-3.6,3.6-11,9.6-17.5c0,0-2.7,11.5-9.9,19.4
				c-1.2,2.4-2.3,4.9-3.4,7.4c1.2-1.6,5.1-6.3,11.6-6.3c0,0-4.9,6.7-11.8,6.8c-0.9,2.2-1.8,4.4-2.6,6.6c-0.5,1.4-1,2.7-1.5,4.1
				c1.5-2.1,6.7-8.2,15-8.1c0,0-6.4,8.7-15.3,8.8c-1,2.8-1.9,5.7-2.8,8.6c2.5-3.1,8.7-9.2,18-9.2c0,0-7.7,10.5-18.5,10.9
				c-0.6,1.9-1.1,3.8-1.6,5.7c-0.6,2.3-1.2,4.5-1.7,6.8c1.8-2.9,8.8-13.5,21.4-15.6c0,0-8.6,13.9-21.5,16.4
				c-1.1,4.7-2.1,9.5-2.9,14.4l-0.1,0.3c2.1-4.1,9.1-15.8,22.1-20.5c0,0-8.4,16.4-22.3,21.7l-0.2,1.2c-0.1,0.5-0.2,0.9-0.2,1.4
				l-0.2,1.4l-0.7,5.6c-0.3,1.9-0.4,3.8-0.6,5.6l-0.5,5.6l-0.9,0l0.5-5.7c0.2-1.9,0.3-3.8,0.6-5.7l0.8-5.7l0.2-1.4
				c0.1-0.5,0.2-0.9,0.2-1.4l0.1-0.4C137.1,776.1,135.7,756.1,135.7,756.1z"/>
			<g>
				
					<image style="overflow:visible;opacity:0.35;" width="410" height="465" xlink:href="C9DDF4D8.png"  transform="matrix(0.24 0 0 0.24 -6.36 756.7109)">
				</image>
				<g>
					<g>
						
							<linearGradient id="SVGID_14_" gradientUnits="userSpaceOnUse" x1="11.8654" y1="816.8099" x2="95.7442" y2="816.8099" gradientTransform="matrix(0.9893 0.1458 -0.1458 0.9893 105.9831 -15.8334)">
							<stop  offset="0" style="stop-color:#C7DC60"/>
							<stop  offset="1" style="stop-color:#3D7C3B"/>
						</linearGradient>
						<path class="st20" d="M3.1,763.7c0,0,8.2-1.2,14-1c2.6,0.1,4.6,2.6,4.3,5.4l-1,10.1c-0.1,0.6,0.3,1.2,0.9,1.4l0,0
							c0.7,0.2,1.3-0.3,1.4-1l1.9-14.5c0,0,7.3,3.5,12.3,6.2c2,1.1,3.3,3.5,3.1,6L38.9,796c0,0.6,0.3,1.1,0.8,1.2l0,0
							c0.6,0.2,1.2-0.3,1.3-1l1.9-21.8c0,0,6.1,4.6,9.9,7.4c1.7,1.3,2.5,3.6,1.9,5.8l-5.8,21c-0.1,0.5,0,1.1,0.4,1.4l0,0
							c0.6,0.5,1.5,0.2,1.7-0.6l7.4-23.1c0,0,3.7,0.7,12,10.7c2.4,2.9,2.5,7.2,0.3,10.1l-8.2,10.7c-0.4,0.6-0.4,1.4,0.1,1.9l0,0
							c0.5,0.6,1.5,0.6,2,0l11.7-15.1c0,0,5.4,8.2,3.3,15c-2.1,6.8-1.7,15.3-8.3,16.4c-6.6,1.1-13.5,0.7-13.5,0.7l-52-63.8
							L3.1,763.7z"/>
						
							<linearGradient id="SVGID_15_" gradientUnits="userSpaceOnUse" x1="11.1874" y1="829.5301" x2="77.1406" y2="829.5301" gradientTransform="matrix(0.9893 0.1458 -0.1458 0.9893 105.9831 -15.8334)">
							<stop  offset="0" style="stop-color:#C7DC60"/>
							<stop  offset="1" style="stop-color:#3D7C3B"/>
						</linearGradient>
						<path class="st21" d="M58.3,837L3.1,763.7c0,0-2.2,8.8-2.9,15.6c-0.3,3.3,1.5,6.5,4.3,7.7c3.8,1.6,9,3.8,11.5,4.6
							c0.6,0.2,1.1,0.8,1.1,1.5l0,0c0,1-0.8,1.8-1.7,1.5c-4.2-1-14.8-3.5-15.7-5c0,0,2.3,9.8,3.9,15.6c0.7,2.4,2.5,4.2,4.8,4.7
							c5,1,14.3,2.8,19.2,2.5c0.5,0,1,0.4,1.1,0.9l0,0c0.2,0.7-0.3,1.4-1,1.4c-4,0-16-0.2-20.6-1.7c0,0,2.9,7.7,5,12.7
							c0.8,2,2.5,3.3,4.4,3.5c4.3,0.5,12.1,0.5,19.8-3.7c0.7-0.4,1.5-0.1,2,0.6l0,0c0.6,0.9,0.3,2.1-0.6,2.6
							c-4.4,2.2-16.4,7.4-23.3,3.7c0,0,11.7,24.5,24,23.7C50.9,855.5,54.9,858.9,58.3,837z"/>
					</g>
				</g>
			</g>
			<g>
				
					<image style="overflow:visible;opacity:0.35;" width="481" height="610" xlink:href="C9DDF4D6.png"  transform="matrix(0.24 0 0 0.24 47.4 735.8309)">
				</image>
				<g>
					<g>
						
							<linearGradient id="SVGID_16_" gradientUnits="userSpaceOnUse" x1="60.2125" y1="762.9354" x2="112.2141" y2="814.3111" gradientTransform="matrix(1.0007 -2.956347e-02 1.526112e-02 1.0564 -9.111 -28.0984)">
							<stop  offset="0" style="stop-color:#3D7C3B"/>
							<stop  offset="0.2369" style="stop-color:#3C7839"/>
							<stop  offset="0.5743" style="stop-color:#3A6C34"/>
							<stop  offset="0.8858" style="stop-color:#355C2C"/>
						</linearGradient>
						<path class="st22" d="M111,742c0,0-0.1,0.1-0.1,0.1c-0.6,0.5-1.3,1-2.1,1.5c-2,1.3-4.7,2.8-8.8,4.7c-9,4.3-2.8,29.5-1.4,34.9
							c0.1,0.6,0,1.2-0.4,1.5c-0.4,0.4-1,0.3-1.3-0.2c-6.4-11-2.7-35.1-2.7-35.1c-1.2,0.1-5.8,3.3-9.5,6c-3.7,2.7-5.8,8.2-5,13.4
							c1.9,13.1,9.5,28.6,11.3,32c0.2,0.4,0.5,1.1,0.3,1.6c-0.2,0.6-0.5,0.8-0.8,0.8c-0.2,0-0.4-0.2-0.7-0.4
							C77.9,790.6,76.5,761,76.5,761c-2.3,1.4-7.3,9.9-10.2,14.7c-1.4,2.4-1.7,5.6-0.9,8.3c3.4,10.2,14.3,25.2,17.6,29.1
							c0.5,0.6,1.1,1,0.7,1.8c-0.3,0.6-0.9,1-1.5,0.9c-0.2,0-0.3-0.1-0.5-0.2c-14.1-10.4-19.3-33.6-19.3-33.6
							c-1.9,2.5-4.9,14.8-6.3,21.2c-0.7,3.1-0.3,6.3,0.9,8.9c5.3,11,16.6,16.4,21,18.2c0.8,0.3,1,1.3,0.5,2.2c-0.4,0.7-1,1-1.6,1
							c-14.3-1.3-22.5-19.7-22.5-19.7s-6.7,33.6,11.6,47.6c18.3,13.9,31.4-6.2,32.5-12.4c0-0.3,0.1-0.5,0.1-0.7
							c0-0.1,0.1-0.3,0.1-0.4L111,742C111,742,111,742,111,742z M91.5,792.7c3.4-6.3,5.3,5.8,5.3,5.8
							C96.4,800.6,90.2,795.2,91.5,792.7z M83.6,804.6c0.6-1.5,2.8-1.1,3.6-0.6c0.8,0.5,3.2,2.9,2.6,4.4c-0.6,1.5-4,1-4.8,0.5
							C84.3,808.4,83,806,83.6,804.6z M82.5,825c0.5-1.6,4.5-0.6,6,0.1c1.5,0.7,4.5,3.2,4,4.7c-0.5,1.6-4.4,1.2-5.9,0.4
							C85,829.5,82,826.5,82.5,825z M85.7,851c-1.8,0.5-4.4-0.8-4.7-3.3c-0.4-2.5,2-4.7,3.7-5.2c1.8-0.5,5.8-0.3,6.1,2.2
							C91.2,847.2,87.5,850.5,85.7,851z M98.1,818.2c-0.8,0.7-2.5-0.9-2.9-1.8c-0.5-0.9-0.9-3.6-0.2-4.3c0.8-0.7,2.3,1.2,2.8,2.1
							C98.2,815.2,98.8,817.5,98.1,818.2z M102.6,790.9c-0.2,0.8-1,2.5-1.6,2.3c-0.6-0.2-0.7-2.3-0.5-3.1c0.2-0.8,1.2-2.6,1.8-2.4
							S102.8,790,102.6,790.9z M104.4,778.3c-1.2,1.4-4.1-9.1-2-9.4C106.2,768.4,104.4,778.3,104.4,778.3z"/>
						
							<linearGradient id="SVGID_17_" gradientUnits="userSpaceOnUse" x1="117.5732" y1="911.989" x2="219.3022" y2="967.7183" gradientTransform="matrix(0.7947 0.4419 -0.3915 1.0497 349.6047 -255.3382)">
							<stop  offset="0" style="stop-color:#3D7C3B"/>
							<stop  offset="0.2369" style="stop-color:#3C7839"/>
							<stop  offset="0.5743" style="stop-color:#3A6C34"/>
							<stop  offset="0.8858" style="stop-color:#355C2C"/>
						</linearGradient>
						<path class="st23" d="M128.1,846.3c-0.8-0.1-1.4-0.8-1.5-1.8l0,0c-0.2-1.3,0.6-2.5,1.7-2.7c25.1-3,22.3-27.4,22.3-27.4
							c-6.3,9-23.9,13.3-28.3,14.3c-0.6,0.1-1.1-0.4-1.1-1.1c-0.1-0.7,0.4-1.4,0.9-1.5c13.7-2.6,28.1-17.8,28.1-17.8
							c1.3-11.7-5.2-28-5.2-28c-9.7,21.8-23.4,27.8-26.6,29c-0.4,0.1-0.8-0.1-1-0.5c-0.3-0.7,0-1.7,0.6-1.9
							c15.2-4.8,24.4-31.6,24.4-31.6c-0.7-6-10.9-15.7-10.9-15.7c-1.9,17.4-10.9,28.3-13.7,31.3c-0.4,0.5-1.1,0.4-1.4-0.2
							c-0.2-0.5-0.1-1.2,0.3-1.6c9.9-9.9,11.9-31.7,11.9-31.7c-1-3.5-4.1-3.6-7.8-6.5c-3.4-2.6-8.6-7.8-9.7-8.9c0,0-0.1-0.1-0.1-0.1
							c0,0-0.1,0.1-0.1,0.1L98.8,848.2c0,0,0,0,0,0c0,1.3,0.5,26.9,25.5,21c19.9-4.7,23.9-33.9,23.9-33.9
							C140.3,846.3,131.4,846.6,128.1,846.3z M118.8,796.7c0.6-0.4,2.3-0.6,2.5,0.2c0.3,0.8-0.9,2-1.6,2.4c-0.6,0.4-2.3,0.9-2.5,0.1
							C117,798.6,118.2,797.1,118.8,796.7z M114.2,779.3c2.4,1.1-4,6.4-4.9,5C109.3,784.3,110,777.4,114.2,779.3z M106.3,805.8
							c1.3-2.4,3.2-5,4.4-0.9c0.4,1.3-1.1,2.7-2.7,3.6C106.7,809.2,105.5,807.4,106.3,805.8z M105.4,823c-0.2-1.1,1.6-2.4,2.5-2.7
							c0.9-0.3,1.9,0,2.1,1.1c0.2,1.1-0.5,2.3-1.4,2.6C107.7,824.4,105.6,824.1,105.4,823z M113.8,849.6c-0.8,2-3.3,2.6-4.8,1.7
							c-1.4-0.8-4.2-4.5-3.4-6.5c0.8-2,4.4-1.3,5.8-0.5C112.9,845.2,114.5,847.5,113.8,849.6z M113.5,835.8c-1.2,0.8-4.4,1.2-5-0.5
							c-0.6-1.7,1.7-4.3,2.9-5c1.2-0.8,4.4-1.7,5-0.1C116.9,831.9,114.7,835.1,113.5,835.8z M118.5,817.3c-0.5,0.2-2.3,0-2.5-0.9
							c-0.1-0.9,1.5-1.8,2-2c0.5-0.2,1.7-0.1,1.8,0.8C119.9,816.1,118.9,817.2,118.5,817.3z"/>
					</g>
				</g>
			</g>
		</g>
		<g>
			
				<image style="overflow:visible;opacity:0.2;" width="5005" height="1244" xlink:href="C9DDF4D7.png"  transform="matrix(0.24 0 0 0.24 -433.08 806.3909)">
			</image>
			<g>
				<linearGradient id="SVGID_18_" gradientUnits="userSpaceOnUse" x1="-267.6959" y1="700.8593" x2="424.8042" y2="1159.2999">
					<stop  offset="0" style="stop-color:#EAE46D"/>
					<stop  offset="4.343308e-02" style="stop-color:#D6DB5F"/>
					<stop  offset="0.1185" style="stop-color:#BACF4D"/>
					<stop  offset="0.1915" style="stop-color:#A6C743"/>
					<stop  offset="0.2607" style="stop-color:#99C33E"/>
					<stop  offset="0.3222" style="stop-color:#95C13D"/>
				</linearGradient>
				<path class="st24" d="M-349.8,839.8c0,0,364.3-81.5,598.4,32.6S756,933.2,756,933.2v158.6H-349.8
					C-349.8,1091.8-523.3,962.9-349.8,839.8z"/>
			</g>
		</g>
		<linearGradient id="SVGID_19_" gradientUnits="userSpaceOnUse" x1="29.23" y1="208.3653" x2="29.23" y2="316.7723">
			<stop  offset="0" style="stop-color:#FFFFFF"/>
			<stop  offset="1" style="stop-color:#FFFFFF;stop-opacity:0.1"/>
		</linearGradient>
		<path class="st25" d="M208.9,316.8c-9.1-28.1-41.3-48.8-79.6-48.8c-9.7,0-19,1.3-27.6,3.8c-10.2-36.6-43.7-63.4-83.5-63.4
			c-35.1,0-65.4,20.9-79,50.9c-5.7-1.4-11.6-2.2-17.7-2.2c-35.8,0-65.5,25.7-71.9,59.6H208.9z"/>
		<linearGradient id="SVGID_20_" gradientUnits="userSpaceOnUse" x1="-358.338" y1="72.9476" x2="-358.338" y2="135.255">
			<stop  offset="0" style="stop-color:#FFFFFF"/>
			<stop  offset="1" style="stop-color:#FFFFFF;stop-opacity:0.1"/>
		</linearGradient>
		<path class="st26" d="M-255.1,135.3c-5.2-16.1-23.7-28-45.8-28c-5.6,0-10.9,0.8-15.9,2.2c-5.9-21-25.1-36.4-48-36.4
			c-20.2,0-37.6,12-45.4,29.3c-3.3-0.8-6.7-1.2-10.2-1.2c-20.6,0-37.7,14.8-41.3,34.3H-255.1z"/>
		<linearGradient id="SVGID_21_" gradientUnits="userSpaceOnUse" x1="-180.5324" y1="1096.2588" x2="1358.3394" y2="-442.613">
			<stop  offset="0" style="stop-color:#FFFFFF;stop-opacity:0"/>
			<stop  offset="0.8481" style="stop-color:#FFFFFF;stop-opacity:0.8125"/>
			<stop  offset="1" style="stop-color:#FFFFFF"/>
		</linearGradient>
		<polygon class="st27" points="580.2,139.4 600.4,293.7 -50.8,1215.7 -543.5,1210 		"/>
		<g>
			
				<image style="overflow:visible;opacity:0.35;" width="1544" height="1459" xlink:href="C9DDF4E7.png"  transform="matrix(0.24 0 0 0.24 168.84 425.991)">
			</image>
			<g>
				<linearGradient id="SVGID_22_" gradientUnits="userSpaceOnUse" x1="167.3415" y1="780.7204" x2="422.0474" y2="537.5174">
					<stop  offset="0" style="stop-color:#275B52"/>
					<stop  offset="1" style="stop-color:#112B27"/>
				</linearGradient>
				<path class="st28" d="M235.1,510.8c0,0-119.2,37.6-22,119.2c-47.1,109.8,72.2,141.2,122.3,72.2c3.1,87.8,134.9,75.3,156.9,6.3
					s-6.3-84.7-6.3-84.7s75.3-65.9,22-97.3c15.7-56.5-103.5-150.6-163.1-50.2C304.2,429.2,241.4,407.2,235.1,510.8z"/>
			</g>
		</g>
		<g>
			
				<image style="overflow:visible;opacity:0.35;" width="1994" height="1930" xlink:href="C9DDF4E9.png"  transform="matrix(0.24 0 0 0.24 421.8 192.231)">
			</image>
			<g>
				<linearGradient id="SVGID_23_" gradientUnits="userSpaceOnUse" x1="523.5308" y1="823.584" x2="715.8256" y2="281.7944">
					<stop  offset="0" style="stop-color:#275B52"/>
					<stop  offset="1" style="stop-color:#112B27"/>
				</linearGradient>
				<path class="st29" d="M506.8,589c11.5,2.8,86.4,103.7,161.3,23c54.7,57.6,115.2,23,135.4-54.7c77.8,20.2,123.9-149.8,40.3-178.6
					c66.3-72-49-193-100.8-149.8c-123.9-83.6-253.5,25.9-236.3,77.8c-66.3-8.6-77.8,95.1-28.8,135.4C403,450.7,411.7,566,506.8,589z
					"/>
			</g>
		</g>
		<path class="st30" d="M416,530l57.6,80.7l17.3-273.7h43.2v152.7l81.3-86.6c3.1-3.3,8.5-2.1,9.9,2.1c0.9,2.6,2.1,5.7,3.8,9.5
			c-5.8,2.9-95.1,132.5-95.1,132.5l37.5,593.5H441.9l28.8-495.6L392.9,530H416z"/>
		<g>
			
				<image style="overflow:visible;opacity:0.35;" width="1061" height="3426" xlink:href="C9DDF4EB.png"  transform="matrix(0.24 0 0 0.24 386.76 330.711)">
			</image>
			<g>
				<path class="st30" d="M416,530l57.6,80.7l17.3-273.7h43.2v152.7l81.3-86.6c3.1-3.3,8.5-2.1,9.9,2.1c0.9,2.6,2.1,5.7,3.8,9.5
					c-5.8,2.9-95.1,132.5-95.1,132.5l37.5,593.5H441.9l28.8-495.6L392.9,530H416z"/>
			</g>
		</g>
		<path class="st31" d="M615.4,403.1l-81.3,86.6V336.9h-23v803.9h60.5l-37.5-593.5c0,0,89.3-129.7,95.1-132.5c-1.7-3.8-3-7-3.8-9.5
			C623.9,401,618.5,399.8,615.4,403.1z"/>
		<path class="st32" d="M534.1,547.3c0,0,89.3-129.7,95.1-132.5c-1.7-3.8-3-7-3.8-9.5c-1.4-4.2-6.9-5.4-9.9-2.1l-81.3,86.6V336.9
			h-43.2l-17.3,273.7L416,530h-23l71.5,106l70.4-76.4L534.1,547.3z"/>
		
			<linearGradient id="SVGID_24_" gradientUnits="userSpaceOnUse" x1="-371.3397" y1="871.3876" x2="739.2178" y2="-239.1699" gradientTransform="matrix(0.9959 9.065767e-02 -9.065767e-02 0.9959 52.1067 -21.0193)">
			<stop  offset="0" style="stop-color:#FFFFFF;stop-opacity:0"/>
			<stop  offset="1" style="stop-color:#FFFFFF"/>
		</linearGradient>
		<polygon class="st33" points="297.9,207.3 303.6,331.2 -640.9,1145.6 -920.1,1120.1 297.9,207.3 		"/>
		<g>
			
				<image style="overflow:visible;opacity:0.35;" width="1423" height="1347" xlink:href="2D1463B8.png"  transform="matrix(0.24 0 0 0.24 557.88 187.911)">
			</image>
			<g>
				<linearGradient id="SVGID_25_" gradientUnits="userSpaceOnUse" x1="655.323" y1="494.1065" x2="795.2266" y2="202.2371">
					<stop  offset="0" style="stop-color:#275B52"/>
					<stop  offset="1" style="stop-color:#112B27"/>
				</linearGradient>
				<path class="st34" d="M619.1,266.4c0,0-109.5,34.6-20.2,109.5c-43.2,100.8,66.3,129.7,112.4,66.3c2.9,80.7,123.9,69.1,144.1,5.8
					s-5.8-77.8-5.8-77.8s69.1-60.5,20.2-89.3c14.4-51.9-95.1-138.3-149.8-46.1C682.5,191.4,624.9,171.3,619.1,266.4z"/>
			</g>
		</g>
		<g>
			
				<image style="overflow:visible;opacity:0.35;" width="2513" height="2164" xlink:href="2D1463BF.png"  transform="matrix(0.24 0 0 0.24 231.48 -103.449)">
			</image>
			<g>
				<linearGradient id="SVGID_26_" gradientUnits="userSpaceOnUse" x1="345.2051" y1="-42.2423" x2="688.3433" y2="318.2204">
					<stop  offset="0" style="stop-color:#33A180"/>
					<stop  offset="0.2063" style="stop-color:#319E7E"/>
					<stop  offset="0.3777" style="stop-color:#2E9577"/>
					<stop  offset="0.5365" style="stop-color:#29886B"/>
					<stop  offset="0.6879" style="stop-color:#22765C"/>
					<stop  offset="0.8339" style="stop-color:#156049"/>
					<stop  offset="0.974" style="stop-color:#034734"/>
					<stop  offset="0.9997" style="stop-color:#004330"/>
				</linearGradient>
				<path class="st35" d="M267.6,33c-1.5,5.6-72,57.6,8.6,172.9c-66.3,80.7,20.2,152.7,80.7,126.8c8.6,72,121,100.8,164.2,31.7
					c28.8,43.2,115.2,31.7,164.2-54.7c98,8.6,123.9-74.9,132.5-135.4S838.1-53.5,699.8-33.3C671-122.6,313.7-134.1,267.6,33z"/>
			</g>
		</g>
		<g>
			
				<image style="overflow:visible;opacity:0.35;" width="1911" height="1938" xlink:href="2D1463B9.png"  transform="matrix(0.24 0 0 0.24 98.76 115.671)">
			</image>
			<g>
				<linearGradient id="SVGID_27_" gradientUnits="userSpaceOnUse" x1="-29.188" y1="88.1341" x2="467.9668" y2="441.7003">
					<stop  offset="0" style="stop-color:#33A180"/>
					<stop  offset="0.1376" style="stop-color:#30997A"/>
					<stop  offset="0.3628" style="stop-color:#29866A"/>
					<stop  offset="0.6478" style="stop-color:#1B6951"/>
					<stop  offset="0.9785" style="stop-color:#014532"/>
					<stop  offset="0.9997" style="stop-color:#004330"/>
				</linearGradient>
				<path class="st36" d="M283.3,162.6c-9,11.7-199.5-2.9-141.2,175.8c-79.8,77.8-15.3,135.4,43,138.3
					c24.6,77.8,160.7,132.5,215.4,53.3c72.5,20.2,131.4-50.4,103.8-177.2c92.1-49,12.3-190.2-70.6-152.7
					C430.6,93.5,323.2,110.8,283.3,162.6z"/>
			</g>
		</g>
		
			<linearGradient id="SVGID_28_" gradientUnits="userSpaceOnUse" x1="409.6443" y1="990.0177" x2="504.3927" y2="990.0177" gradientTransform="matrix(0.9997 -2.309386e-02 2.309386e-02 0.9997 -15.1462 11.6738)">
			<stop  offset="0" style="stop-color:#42847F"/>
			<stop  offset="0.1815" style="stop-color:#346371"/>
			<stop  offset="0.3639" style="stop-color:#2A4A66"/>
			<stop  offset="0.5416" style="stop-color:#24375D"/>
			<stop  offset="0.7106" style="stop-color:#202957"/>
			<stop  offset="0.8674" style="stop-color:#1E1F53"/>
			<stop  offset="1" style="stop-color:#1D1C52"/>
		</linearGradient>
		<path class="st37" d="M423,1077.8c0.1,0,0.1,0,0.2,0c0.3,0,0.5-0.3,0.4-0.6c-1-16.2,3.4-35.9,13.1-58.7l0.2-0.4l0.4-0.1
			c2.3-0.3,4.6-0.6,7-0.8c11.6-1.4,23.5-2.8,34.3-5.3c0.3-0.1,0.4-0.3,0.4-0.6c0-0.2-0.2-0.4-0.3-0.4c-0.1,0-0.1,0-0.2,0
			c-10.8,2.5-22.7,3.9-34.3,5.3c-1.9,0.2-3.8,0.5-5.7,0.7l-1.2,0.1l0.5-1.2c6.7-15.2,15.7-31.8,26.8-49.2l0.2-0.3l0.3-0.1
			c5.2-1.5,11.3-3,17.7-4.6c2.6-0.6,5.3-1.3,8-2c0.1,0,0.2-0.1,0.3-0.2c0.1-0.1,0.1-0.3,0.1-0.4c0-0.2-0.2-0.3-0.3-0.4
			c-0.1,0-0.1,0-0.2,0c-2.7,0.7-5.4,1.3-8,2c-5.2,1.3-10.6,2.6-15.3,3.9l-1.8,0.5l1.1-1.7c21.5-33.3,42.9-58.3,43.1-58.5
			c0.1-0.1,0.1-0.2,0.1-0.4c0-0.1,0-0.3-0.1-0.4c-0.1-0.1-0.1-0.1-0.2-0.1c-0.2,0-0.3,0-0.5,0.2c-0.2,0.3-22.9,26.7-44.8,61
			c-2.4,3.7-4.8,7.6-7.1,11.5l-0.9,1.6l-0.3-1.8c-1.6-8.7-6.3-30.4-6.8-32.4c0-0.2-0.2-0.3-0.3-0.3c-0.1,0-0.2,0-0.3,0
			c-0.1,0-0.2,0.1-0.3,0.3c-0.1,0.1-0.1,0.3,0,0.4c0.8,3.3,6.5,30.2,7.2,34.8l0,0.3l-0.2,0.3c-8.7,14.8-15.8,28.8-21,41.6l-0.6,1.4
			l-0.7-1.2c-7.1-12.7-11.7-26.4-15.2-38.1c0-0.2-0.2-0.3-0.3-0.3c-0.1,0-0.2,0-0.3,0c-0.2,0.1-0.4,0.4-0.3,0.7
			c3.7,12.3,8.5,26.6,16,39.6l0.3,0.4l-0.1,0.5c-7.9,20.2-11.5,38.1-10.6,53.1C422.7,1077.5,422.8,1077.7,423,1077.8z"/>
		<g>
			<linearGradient id="SVGID_29_" gradientUnits="userSpaceOnUse" x1="491.9612" y1="1040.7653" x2="822.2491" y2="1040.7653">
				<stop  offset="0" style="stop-color:#275B52"/>
				<stop  offset="1" style="stop-color:#112B27"/>
			</linearGradient>
			<path class="st38" d="M515.7,1107c-13.6-3.5-23.9-17.1-23.7-31.1c0.2-14.1,10.9-27.3,24.6-30.4c13.7-3.1,29.1,4.1,35.4,16.7
				c-7.4-16.7-2.8-38.5,12-49.2s38.6-7.1,48,8.6c11.8-33.5,50.3-55.1,85.1-47.9c34.8,7.3,61.4,42.5,58.8,77.9
				c-3.8-7.7,3.3-16.6,11.1-20.3c18-8.4,42-0.4,51.3,17.3s2.3,42-15,52c-11.7,6.8-25.9,7.1-39.4,7.3c-37.3,0.4-74.6,0.8-111.9,1.2
				c-46.5,0.5-93.2,1-139.5-4.1"/>
			<path class="st19" d="M561.1,964.6c47.8,42.8,62,96,65.5,113.5l0.4-4.4c1.3-14.7,3.2-29.3,5.5-43.7
				c-40.5-48-48.3-111.9-48.3-111.9c36.2,41,46.6,85.9,49.5,105c1.8-10.2,3.7-20.4,5.9-30.4c0.5-2.4,1-4.8,1.6-7.1
				c-31.3-47.3-33.4-103.6-33.4-103.6c28.2,40.8,33.7,81.2,34.7,97.9c0.5-2.3,1.1-4.5,1.6-6.8c0,0-0.1,0-0.1,0c0,0,0.1-0.1,0.1-0.2
				c2.4-9.9,5.1-19.8,8-29.5c-29.4-43.9-31.3-96.5-31.3-96.5c27.8,40.4,31.8,80.3,32.3,93.4c2.6-8.4,5.2-16.7,8.1-25
				c1.5-4.3,3.1-8.6,4.7-12.9c-13.3-34.7-8.5-68.4-8.5-68.4c12.2,30.7,10.8,55.9,9.7,65.5c5.7-15,11.9-29.6,18.8-43.5
				c2.8-13.1,11.2-40.8,34.9-65.7c0,0-7.1,42.1-35.6,72.6c-4.2,9-8.2,18.2-11.9,27.6c4.4-6,20-24.1,48.2-25.8c0,0-19,25.4-49,27.7
				c-3.1,8.1-6.1,16.2-8.9,24.5c-1.7,5-3.3,10.1-4.9,15.2c5.8-7.9,26.1-31.3,62.8-33.6c0,0-24.7,33-63.6,36.1
				c-3.2,10.5-6.2,21-8.9,31.8c9.8-11.9,34.3-35.8,75.4-38.3c0,0-29.8,39.9-77,44.7c-1.7,7-3.3,14-4.7,21.1
				c-1.7,8.3-3.3,16.7-4.7,25.1c6.5-11.1,33.3-51,87.5-62.4c0,0-32.2,52.6-88,65c-3,17.4-5.3,35-6.8,52.7l-0.1,1.2
				c7.6-15.4,33.6-59.6,88.7-80c0,0-30.3,61.5-89.1,84.6l-0.4,4.4c-0.1,1.7-0.3,3.4-0.4,5.1l-0.2,5.1l-1,20.5
				c-0.5,6.8-0.3,13.6-0.3,20.5l0,20.5l-4.1,0.3l0.1-20.7c0.1-6.9-0.1-13.8,0.4-20.7l1.1-20.7l0.3-5.2c0.1-1.7,0.3-3.4,0.5-5.1
				l0.1-1.4C575.5,1036,561.1,964.6,561.1,964.6z"/>
			<path class="st19" d="M326.9,987c-12.6,43.9-1,81.3,3.5,93.2l-1.9-2.5c-6.3-8.4-13-16.4-19.9-24.3c6.3-44.3-13.2-85.7-13.2-85.7
				c-6.3,38.4,4.4,69.4,9.9,82c-4.9-5.5-10-10.9-15.1-16.1c-1.2-1.2-2.4-2.5-3.6-3.7c1-40.4-19.1-75.1-19.1-75.1
				c-1.5,35.3,10.4,61.7,16.1,72.1c-1.2-1.2-2.3-2.3-3.5-3.5c0,0,0,0,0.1,0c0,0-0.1,0-0.2-0.1c-5.2-5.1-10.6-10-16-14.7
				c1.1-37.6-17.6-70-17.6-70c-1.5,34.9,11.2,60.4,15.9,68.5c-4.7-4.1-9.5-8.1-14.3-12c-2.6-2-5.1-4-7.7-6
				c-5.1-26-20.7-44.5-20.7-44.5c4.3,23.1,14.6,37.8,19,43.1c-9.1-6.9-18.3-13.3-27.8-19.1c-6.6-6.8-22.2-20.3-45.9-26.4
				c0,0,20.3,22.7,48.9,30.3c5.9,3.8,11.8,7.9,17.6,12.2c-4.9-1.9-21.1-6.9-38.8,2.7c0,0,21.1,8.1,40-1.8c4.9,3.7,9.8,7.5,14.7,11.4
				c2.9,2.4,5.8,4.8,8.7,7.3c-6.5-2.5-27.6-9-50.5,3.5c0,0,27.4,10.6,52-2.3c5.9,5.1,11.7,10.3,17.4,15.8c-10.4-3.5-34.2-8.6-60,5.4
				c0,0,33.1,12.8,63.3-2.2c3.7,3.6,7.3,7.2,10.8,10.9c4.2,4.4,8.3,8.8,12.4,13.3c-8.1-4.2-39.4-18.2-76.4-4.5
				c0,0,39.3,19.5,77.6,5.9c8.4,9.4,16.4,19.1,24,29.2l0.5,0.7c-10.4-6.4-42.8-23.2-83.7-14.6c0,0,41.5,25.6,85.7,17.2l1.9,2.5
				c0.7,1,1.5,1.9,2.2,2.9l2.1,3l8.3,12c2.9,3.9,5.3,8.1,7.9,12.2l7.7,12.3l2.6-1.3l-7.9-12.4c-2.7-4.1-5.2-8.3-8.1-12.3l-8.5-12
				l-2.1-3c-0.7-1-1.5-1.9-2.2-2.9l-0.6-0.8C345.3,1035.4,326.9,987,326.9,987z"/>
			<g>
				<linearGradient id="SVGID_30_" gradientUnits="userSpaceOnUse" x1="546.8795" y1="1017.5218" x2="676.9598" y2="1017.5218">
					<stop  offset="2.621188e-04" style="stop-color:#125028"/>
					<stop  offset="4.219938e-02" style="stop-color:#16542B"/>
					<stop  offset="0.331" style="stop-color:#2C6C45"/>
					<stop  offset="0.5965" style="stop-color:#3A7F5D"/>
					<stop  offset="0.8281" style="stop-color:#418B6D"/>
					<stop  offset="1" style="stop-color:#449073"/>
				</linearGradient>
				<path class="st39" d="M676.8,918.3c-0.1,0-0.2,0.1-0.3,0.1c-1.2,0.6-2.6,1.2-4.2,1.8c-3.9,1.5-9.2,3.1-17,4.9
					c-17.3,4.1-14,48.7-13.2,58.2c0.1,1-0.4,2-1.2,2.4c-0.9,0.5-1.9,0.1-2.3-0.9c-7.9-20.7,5.9-59.9,5.9-59.9
					c-2.2-0.2-11.3,3.6-18.7,6.8c-7.4,3.3-12.7,11.7-13,20.7c-0.7,22.7,8,51.4,10.2,57.7c0.3,0.8,0.5,2,0.1,2.8
					c-0.5,0.9-1.1,1.2-1.7,1c-0.4-0.1-0.7-0.4-1-0.9c-17-24.5-10.5-74.6-10.5-74.6c-4.5,1.5-16,14-22.5,21.3
					c-3.2,3.6-4.8,8.8-4,13.6c2.9,18.3,17.6,47.2,22.3,55c0.7,1.2,1.7,2,0.7,3.2c-0.8,1-1.9,1.3-2.9,1c-0.3-0.1-0.6-0.2-0.8-0.4
					c-21.8-22.3-24-63.1-24-63.1c-4.2,3.6-13.2,23.1-17.6,33.4c-2.1,4.9-2.5,10.5-1.1,15.3c6,20.2,24.4,33.2,31.6,37.8
					c1.3,0.8,1.4,2.6,0.2,4c-0.8,1-2,1.4-3.1,1.1c-25-7-33.8-40.9-33.8-40.9s-22.1,54.2,6,83.9c28.1,29.7,57.5,0.4,61.3-9.7
					c0.2-0.4,0.3-0.8,0.5-1.2c0.1-0.2,0.2-0.5,0.3-0.7L677,918.5C676.9,918.4,676.9,918.4,676.8,918.3z M626.9,996.9
					c7.9-9.4,7.6,11.6,7.6,11.6C633.2,1011.9,623.8,1000.6,626.9,996.9z M609.2,1014.1c1.5-2.2,5.3-0.8,6.5,0.3
					c1.2,1.1,4.9,6,3.3,8.2c-1.5,2.2-7.4,0.3-8.6-0.8C609.3,1020.8,607.7,1016.4,609.2,1014.1z M601.1,1048.1
					c1.4-2.4,8.1,0.5,10.6,2.2c2.5,1.7,7.1,6.9,5.7,9.3c-1.4,2.4-8.2,0.4-10.6-1.3C604.2,1056.6,599.7,1050.5,601.1,1048.1z
					 M598.9,1093c-3.3,0.3-7.5-2.8-7.4-7.1c0.1-4.3,4.9-7.2,8.2-7.5c3.3-0.3,10.4,1.4,10.2,5.7
					C609.8,1088.4,602.2,1092.6,598.9,1093z M630.7,1042c-1.5,0.9-4.1-2.4-4.6-4.1c-0.6-1.7-0.6-6.4,0.9-7.2
					c1.5-0.9,3.7,2.8,4.3,4.5C631.9,1037,632.3,1041.2,630.7,1042z M647.1,997.6c-0.6,1.3-2.5,3.9-3.6,3.4c-1.1-0.6-0.6-4.1,0-5.5
					c0.6-1.3,2.9-4,4-3.4C648.6,992.7,647.7,996.3,647.1,997.6z M654.2,977.2c-2.6,2-4.6-16.8-0.6-16.5
					C660.4,961.2,654.2,977.2,654.2,977.2z"/>
				<linearGradient id="SVGID_31_" gradientUnits="userSpaceOnUse" x1="622.309" y1="1027.613" x2="728.5651" y2="1027.613">
					<stop  offset="2.621188e-04" style="stop-color:#125028"/>
					<stop  offset="4.219938e-02" style="stop-color:#16542B"/>
					<stop  offset="0.331" style="stop-color:#2C6C45"/>
					<stop  offset="0.5965" style="stop-color:#3A7F5D"/>
					<stop  offset="0.8281" style="stop-color:#418B6D"/>
					<stop  offset="1" style="stop-color:#449073"/>
				</linearGradient>
				<path class="st40" d="M675.4,1099.7c-1.3-0.4-2.2-1.8-2.1-3.5l0,0c0.1-2.2,1.9-4.1,3.7-3.9c45.3,3.6,47.8-38.4,47.8-38.4
					c-13.9,12.9-46.3,14.2-54.5,14.3c-1,0-1.8-1-1.7-2.2c0.1-1.2,1.1-2.3,2.1-2.2c25.1,0.3,55.2-20.3,55.2-20.3
					c5.9-19.1-0.7-48.9-0.7-48.9c-23.8,33.3-49.9,38.7-55.9,39.5c-0.7,0.1-1.4-0.4-1.7-1.2c-0.4-1.3,0.5-2.8,1.7-2.9
					c28.3-2.9,52.9-44.7,52.9-44.7c0.7-10.3-14.6-30.1-14.6-30.1c-8.7,28.7-27.9,43.8-33.8,47.9c-0.9,0.6-2,0.2-2.4-0.9
					c-0.3-1,0.1-2.1,0.9-2.6c20.5-13.3,30.7-49.2,30.7-49.2c-0.8-6.2-6.1-7.4-11.9-13.6c-5.2-5.5-12.8-16.1-14.4-18.3
					c-0.1-0.1-0.1-0.1-0.1-0.2c-0.1,0-0.2,0.1-0.3,0.1l-53.6,174.3c0,0,0,0,0,0.1c-0.4,2.1-7.3,45.3,38.8,44
					c36.7-1.1,52.6-48.7,52.6-48.7C697,1103.7,681.1,1101.3,675.4,1099.7z M674,1013c1.2-0.4,4.2-0.3,4.4,1.1
					c0.2,1.4-2.3,3.1-3.5,3.5c-1.2,0.4-4.3,0.7-4.5-0.7S672.8,1013.5,674,1013z M671.2,982.2c4,2.7-9,9.4-10.3,6.7
					C660.9,989,664.4,977.6,671.2,982.2z M649.2,1024c3-3.7,7.2-7.3,8,0c0.2,2.3-2.8,4.2-5.8,5.1
					C648.7,1029.9,647.2,1026.4,649.2,1024z M642.3,1052.7c0-1.9,3.6-3.4,5.2-3.6c1.6-0.2,3.4,0.7,3.4,2.6c0,1.9-1.6,3.7-3.2,3.9
					C646,1055.7,642.3,1054.6,642.3,1052.7z M649,1100.2c-2,3.1-6.7,3.1-9,1.2s-6-8.9-4-12.1c2-3.1,8.2-0.7,10.5,1.3
					C648.8,1092.5,651,1097,649,1100.2z M652.7,1077c-2.3,0.9-8.2,0.5-8.7-2.6c-0.5-3,4.2-6.6,6.6-7.5c2.3-0.9,8.3-1.4,8.9,1.6
					S655,1076.1,652.7,1077z M667.1,1047.6c-0.9,0.1-4.2-0.8-4.1-2.3c0-1.5,3.2-2.6,4.1-2.7c0.9-0.1,3,0.4,3,1.9
					C670.1,1046,668,1047.5,667.1,1047.6z"/>
			</g>
			<linearGradient id="SVGID_32_" gradientUnits="userSpaceOnUse" x1="231.6317" y1="973.2548" x2="384.4638" y2="1121.7145">
				<stop  offset="0" style="stop-color:#275B52"/>
				<stop  offset="1" style="stop-color:#112B27"/>
			</linearGradient>
			<path class="st41" d="M184.4,1123.8c-15.3-4-26.9-19.2-26.7-35c0.2-15.8,12.3-30.7,27.7-34.2s32.7,4.6,39.8,18.8
				c-8.3-18.8-3.1-43.3,13.5-55.3s43.4-7.9,54,9.6c13.3-37.7,56.6-62,95.7-53.9s69,47.8,66.1,87.7c-4.3-8.7,3.7-18.7,12.4-22.8
				c20.3-9.5,47.3-0.4,57.7,19.4c10.4,19.8,2.5,47.2-16.8,58.5c-13.1,7.7-29.1,8-44.3,8.2c-42,0.4-83.9,0.9-125.9,1.3
				c-52.3,0.5-104.8,1.1-156.9-4.6"/>
			<g>
				
					<image style="overflow:visible;opacity:0.35;" width="632" height="832" xlink:href="2D1463BB.png"  transform="matrix(0.24 0 0 0.24 384.6 897.111)">
				</image>
				<g>
					<g>
						
							<linearGradient id="SVGID_33_" gradientUnits="userSpaceOnUse" x1="384.3109" y1="1041.9171" x2="533.8369" y2="955.5883" gradientTransform="matrix(0.9997 -2.309386e-02 2.309386e-02 0.9997 -15.1462 11.6738)">
							<stop  offset="0" style="stop-color:#275B52"/>
							<stop  offset="0.801" style="stop-color:#3D7C3B"/>
						</linearGradient>
						<path class="st42" d="M421.2,1077.2c1.4,0.9,42,15.6,53,1.2l-27.6-6.9c0,0,32.8,5.3,39.3-2.9c6.5-8.2,27.3-35.9,27.3-35.9
							s-26.8-0.1-29.9-1.5c0,0,23.6-0.8,32.1-17.4c8.5-16.6,8.8-42.1,8.8-42.1l-20.1,7.5c0,0,15.6-8.4,13.9-18.8
							c-1.7-10.4-10.9-51.9-8.4-56.1c2.5-4.1-26.9,4.1-36.5,13.2c-9.6,9.1-0.1,25.8-0.1,25.8S458,931,454.7,925.3
							c-3.2-5.7-22.2,17.1-23.3,18.3c-1.1,1.2,1.1,36,4,40.1c2.9,4.1-16.8-17.2-17.1-23c-0.3-5.8-15.9,19.3-14.4,30.9
							c1.5,11.6,10,34,10,34s-14.7-7.3-17.4-16.1C393.9,1000.7,377.2,1047.8,421.2,1077.2z"/>
						
							<linearGradient id="SVGID_34_" gradientUnits="userSpaceOnUse" x1="377.0607" y1="1030.4685" x2="526.2814" y2="944.3159" gradientTransform="matrix(0.9997 -2.309386e-02 2.309386e-02 0.9997 -15.1462 11.6738)">
							<stop  offset="0" style="stop-color:#275B52"/>
							<stop  offset="0.801" style="stop-color:#3D7C3B"/>
						</linearGradient>
						<path class="st43" d="M396,1009.6c2.6,8.8,17.4,16.1,17.4,16.1s-8.5-22.4-10-34c-1.5-11.6,14.1-36.7,14.4-30.9
							c0.3,5.8,20,27.1,17.1,23c-2.9-4.1-5.1-38.9-4-40.1c1.1-1.2,20.1-24,23.3-18.3c3.2,5.7,18.2,18.1,18.2,18.1
							s-9.5-16.7,0.1-25.8c8.4-7.9,31.7-15.2,36-14.2l0.5,1c0,0-93.7,115.4-84.9,174.1c-1.9-0.7-3.2-1.2-3.4-1.3
							C376.5,1047.9,393.3,1000.8,396,1009.6z"/>
					</g>
				</g>
			</g>
			<path class="st19" d="M387.7,855.1c33.8,28.6,44.6,65.1,47.4,77.1l0.2-3c0.6-10.2,1.6-20.3,3-30.3
				c-28.9-32.4-35.5-76.4-35.5-76.4c25.8,27.6,33.8,58.4,36.2,71.6c1-7.1,2.2-14.1,3.5-21.1c0.3-1.7,0.6-3.3,0.9-5
				c-22.5-32.1-25.1-70.9-25.1-70.9c20.2,27.7,24.8,55.4,25.8,66.9c0.3-1.6,0.6-3.1,1-4.7c0,0,0,0-0.1,0c0,0,0-0.1,0.1-0.2
				c1.5-6.9,3.2-13.7,5-20.5c-21.1-29.7-23.5-66-23.5-66c20,27.3,23.5,54.8,24.1,63.9c1.6-5.9,3.3-11.7,5.1-17.4c1-3,2-6,3-9
				c-9.9-23.7-7.2-47.1-7.2-47.1c9,20.9,8.6,38.4,7.9,45c3.6-10.5,7.6-20.6,12.1-30.4c1.7-9.1,6.9-28.4,22.9-46
				c0,0-4.1,29.2-23.2,50.8c-2.7,6.3-5.3,12.7-7.7,19.3c2.9-4.2,13.3-17,32.8-18.7c0,0-12.6,17.9-33.3,20.1
				c-2,5.6-3.9,11.3-5.7,17.1c-1.1,3.5-2.1,7-3.1,10.6c3.9-5.5,17.4-22.1,42.7-24.4c0,0-16.4,23.3-43.2,26.1
				c-2,7.3-3.9,14.7-5.6,22.1c6.5-8.4,23-25.4,51.3-27.9c0,0-19.8,28.1-52.3,32.3c-1,4.9-2,9.7-2.9,14.7c-1,5.8-1.9,11.6-2.8,17.4
				c4.3-7.8,22-35.9,59.2-44.8c0,0-21.2,36.9-59.5,46.6c-1.7,12.1-3,24.2-3.7,36.5l-0.1,0.8c5-10.8,22-41.8,59.7-56.9
				c0,0-19.8,43-59.9,60.1l-0.2,3c-0.1,1.2-0.2,2.3-0.2,3.5l-0.1,3.5l-0.3,14.1c-0.2,4.7,0.1,9.4,0.2,14.1l0.4,14.1l-2.8,0.3
				l-0.3-14.3c-0.1-4.8-0.3-9.5-0.1-14.3l0.4-14.3l0.1-3.6c0-1.2,0.2-2.4,0.2-3.6l0.1-0.9C399,904.1,387.7,855.1,387.7,855.1z"/>
			<g>
				
					<image style="overflow:visible;opacity:0.64;" width="829" height="1330" xlink:href="2D1463A6.png"  transform="matrix(0.24 0 0 0.24 284.04 852.7109)">
				</image>
				<g>
					
						<linearGradient id="SVGID_35_" gradientUnits="userSpaceOnUse" x1="288.4285" y1="955.76" x2="514.3895" y2="1095.3671" gradientTransform="matrix(0.9997 -2.309386e-02 2.309386e-02 0.9997 -15.1462 11.6738)">
						<stop  offset="0" style="stop-color:#C7DC60"/>
						<stop  offset="9.260535e-02" style="stop-color:#B3C958"/>
						<stop  offset="0.3925" style="stop-color:#7FA349"/>
						<stop  offset="0.6545" style="stop-color:#5D8D40"/>
						<stop  offset="0.8658" style="stop-color:#46803C"/>
						<stop  offset="1" style="stop-color:#3D7C3B"/>
					</linearGradient>
					<path class="st44" d="M321.5,1068.9c-9-10.7-19.1-20.7-25.5-33.1c-6.4-12.4-8.6-28.2-1.2-40c7.4-11.8,26.5-16,35.7-5.5
						c3.7,4.2,7.3,10.9,12.7,9.6c5.2-1.3,5.5-8.7,3.5-13.6c-3.3-8-9.7-14.3-15.4-20.9c-5.7-6.6-11-14.2-11.4-22.9
						c-0.4-8.7,6-18.2,14.7-18c3.2,0.1,6.5,1.4,9.7,0.7c5.3-1.1,8-7.5,7.5-13c-0.5-5.4-3-10.5-4.2-15.8
						c-4.1-18.8,13.6-38.9,32.8-37.2c19.1,1.6,33.2,24.4,26,42.3c-2.2,5.5-6.1,10.4-7.3,16.2c-1.3,5.8,1.4,13.3,7.3,14.1
						c6,0.8,10.4-5.4,15.9-7.8c9.2-4.1,20.3,3.7,22.7,13.5c2.4,9.7-1.5,20-6.9,28.4c-5.4,8.5-12.2,16.1-16.5,25.1
						c-1.5,3.2-2.6,7.3-0.2,9.9c3.8,4.2,10.2-0.4,15.3-2.8c12.1-5.9,27.5,3.4,32,16.1c4.5,12.7,0.9,26.9-4.9,39.1l0,0
						c-9.3,19.6-23.8,36.1-38.4,52c-14.1,15.4-26.4,33.8-41,48.4c-20.5,20.5-23.1-14.2-29.2-28.9
						C346.9,1104.4,335.5,1085.6,321.5,1068.9z"/>
				</g>
			</g>
		</g>
		<path class="st45" d="M427.2,1028.3c0.5-0.8-0.8-1.3-1.2-0.6c-22.8,38-40.5,78.2-51.3,121.1c4-48.3,5.4-96.8,3.9-145.3
			c0,0,0,0,0-0.1c7.5-16.1,16.6-31.3,27.4-45.4c0.5-0.7-0.5-1.6-1.1-0.9c-10.3,13.5-19.1,28-26.4,43.4c-0.3-10.5-0.8-21.1-1.4-31.6
			c-1.1-19.5-2.7-38.9-4.6-58.4c-0.1-0.9-1.5-0.8-1.4,0.1c2.1,20.3,3.6,40.6,4.8,61c-6.3-8-12.5-16-18.8-24
			c-0.5-0.7-1.7,0.1-1.1,0.8c6.6,8.5,13.3,17,19.9,25.4c0,0.1,0.1,0.1,0.2,0.1c1.9,36,2.3,72.1,1.1,108.1
			c-12.9-23.4-27.9-45.5-44.9-66.1c-0.6-0.7-1.7,0.1-1.1,0.8c17.5,21.1,32.9,43.9,46,68c-0.4,10.8-0.9,21.6-1.5,32.4
			c-1.1,19.3-2.7,38.5-4.7,57.8c-0.1,0.9,1.3,1.1,1.4,0.2c0.6-6,1.2-12,1.7-18c0.1-0.1,0.2-0.2,0.2-0.3
			C384.6,1111.2,403,1068.5,427.2,1028.3z"/>
		<g>
			<path class="st46" d="M534.1,877.1c0,6.7-5.4,12.1-12.1,12.1s-12.1-5.4-12.1-12.1c0-6.7,5.4-12.1,12.1-12.1
				S534.1,870.5,534.1,877.1z"/>
			<path class="st46" d="M136.5,1041.4c0,6.7-5.4,12.1-12.1,12.1c-6.7,0-12.1-5.4-12.1-12.1c0-6.7,5.4-12.1,12.1-12.1
				C131.1,1029.3,136.5,1034.7,136.5,1041.4z"/>
			<circle class="st9" cx="127.4" cy="972.2" r="9.9"/>
			<circle class="st9" cx="-227" cy="891.5" r="9.9"/>
			<circle class="st9" cx="596.6" cy="845.8" r="6.7"/>
			<path class="st2" d="M206.3,902.4c0,5.4-4.4,9.7-9.7,9.7s-9.7-4.4-9.7-9.7c0-5.4,4.4-9.7,9.7-9.7S206.3,897,206.3,902.4z"/>
			<path class="st2" d="M19,1040.7c0,5.4-4.4,9.7-9.7,9.7s-9.7-4.4-9.7-9.7c0-5.4,4.4-9.7,9.7-9.7S19,1035.3,19,1040.7z"/>
			<path class="st2" d="M546.3,1040.7c0,5.4-4.4,9.7-9.7,9.7s-9.7-4.4-9.7-9.7c0-5.4,4.4-9.7,9.7-9.7S546.3,1035.3,546.3,1040.7z"/>
			<path class="st2" d="M274.8,933c0,2.8-2.3,5.1-5.1,5.1c-2.8,0-5.1-2.3-5.1-5.1c0-2.8,2.3-5.1,5.1-5.1
				C272.5,927.9,274.8,930.2,274.8,933z"/>
			<path class="st2" d="M545.7,930.1c0,2.8-2.3,5.1-5.1,5.1s-5.1-2.3-5.1-5.1c0-2.8,2.3-5.1,5.1-5.1S545.7,927.3,545.7,930.1z"/>
			<path class="st2" d="M78.9,990.6c0,2.8-2.3,5.1-5.1,5.1c-2.8,0-5.1-2.3-5.1-5.1c0-2.8,2.3-5.1,5.1-5.1
				C76.6,985.5,78.9,987.8,78.9,990.6z"/>
			<path class="st2" d="M-131.4,993.5c0,2.8-2.3,5.1-5.1,5.1c-2.8,0-5.1-2.3-5.1-5.1c0-2.8,2.3-5.1,5.1-5.1
				C-133.7,988.4-131.4,990.7-131.4,993.5z"/>
		</g>
	</g>
</g>
</svg>
