<?xml version="1.0" encoding="utf-8"?>
<!-- Generator: Adobe Illustrator 22.0.0, SVG Export Plug-In . SVG Version: 6.00 Build 0)  -->
<svg version="1.1" id="Layer_1" xmlns="http://www.w3.org/2000/svg" xmlns:xlink="http://www.w3.org/1999/xlink" x="0px" y="0px"
	 viewBox="0 0 890.6 1094.7" style="enable-background:new 0 0 890.6 1094.7;" xml:space="preserve">
<style type="text/css">
	.st0{clip-path:url(#SVGID_2_);}
	.st1{fill:#305528;}
	.st2{fill:#355C2C;}
	.st3{opacity:0.55;fill:url(#SVGID_3_);}
	.st4{fill:#038141;}
	.st5{fill:url(#SVGID_4_);}
	.st6{fill:url(#SVGID_5_);}
	.st7{fill:url(#SVGID_6_);}
	.st8{fill:#FFFFFF;}
	.st9{fill:url(#SVGID_7_);}
	.st10{fill:url(#SVGID_8_);}
	.st11{fill:url(#SVGID_9_);}
	.st12{fill:url(#SVGID_10_);}
	.st13{fill:url(#SVGID_11_);}
	.st14{fill:url(#SVGID_12_);}
	.st15{display:none;fill:#25174F;}
	.st16{display:none;}
	.st17{display:inline;}
	.st18{fill:#25174F;}
	.st19{fill:url(#SVGID_13_);}
	.st20{fill:url(#SVGID_14_);}
	.st21{fill:url(#SVGID_15_);}
	.st22{fill:url(#SVGID_16_);}
	.st23{fill:url(#SVGID_17_);}
	.st24{opacity:0.82;fill:url(#SVGID_18_);}
	.st25{opacity:0.82;fill:url(#SVGID_19_);}
	.st26{fill:url(#SVGID_20_);}
	.st27{fill:url(#SVGID_21_);}
	.st28{fill:url(#SVGID_22_);}
	.st29{fill:url(#SVGID_23_);}
	.st30{fill:url(#SVGID_24_);}
	.st31{fill:#895738;}
	.st32{fill:#714D39;}
	.st33{opacity:0.22;fill:#603A17;}
	.st34{fill:url(#SVGID_25_);}
	.st35{fill:url(#SVGID_26_);}
	.st36{fill:url(#SVGID_27_);}
	.st37{fill:url(#SVGID_28_);}
	.st38{fill:url(#SVGID_29_);}
	.st39{fill:url(#SVGID_30_);}
	.st40{fill:url(#SVGID_31_);}
	.st41{fill:url(#SVGID_32_);}
	.st42{fill:url(#SVGID_33_);}
	.st43{opacity:0.49;fill:url(#SVGID_34_);}
	.st44{fill:url(#SVGID_35_);}
	.st45{fill:#0F4B4F;}
	.st46{fill:#C7DC60;}
</style>
<g>
	<defs>
		<rect id="SVGID_1_" x="0.7" y="0.2" width="889.9" height="1094.1"/>
	</defs>
	<clipPath id="SVGID_2_">
		<use xlink:href="#SVGID_1_"  style="overflow:visible;"/>
	</clipPath>
	<g class="st0">
		<circle class="st1" cx="-64.6" cy="831.8" r="5"/>
		<path class="st2" d="M-104.4,881.5c0.1,3.3-2.5,6-5.8,6.1c-3.3,0.1-6-2.5-6.1-5.8c-0.1-3.3,2.5-6,5.8-6.1
			C-107.2,875.6-104.5,878.2-104.4,881.5z"/>
		
			<linearGradient id="SVGID_3_" gradientUnits="userSpaceOnUse" x1="-102.5941" y1="1053.6309" x2="913.5956" y2="130.3849" gradientTransform="matrix(1 0 0 -1 0 1078.4619)">
			<stop  offset="0" style="stop-color:#EAE46D"/>
			<stop  offset="0.8415" style="stop-color:#95C13D"/>
		</linearGradient>
		<rect x="0.7" y="0.2" class="st3" width="956.2" height="1105.7"/>
		<path class="st4" d="M5,1072"/>
		<linearGradient id="SVGID_4_" gradientUnits="userSpaceOnUse" x1="681.1705" y1="609.6454" x2="811.2648" y2="609.6454">
			<stop  offset="0" style="stop-color:#FFFFFF"/>
			<stop  offset="1" style="stop-color:#FFFFFF;stop-opacity:0.1"/>
		</linearGradient>
		<circle class="st5" cx="746.2" cy="609.6" r="65"/>
		<linearGradient id="SVGID_5_" gradientUnits="userSpaceOnUse" x1="81.7823" y1="679.2156" x2="236.3799" y2="487.9962">
			<stop  offset="0" style="stop-color:#FFFFFF"/>
			<stop  offset="1" style="stop-color:#FFFFFF;stop-opacity:0.1"/>
		</linearGradient>
		<path class="st6" d="M331.9,628.5c0.2-1.9,0.4-3.8,0.4-5.8c0-23.1-16.1-42.5-37.7-47.5c0.5-3.2,0.8-6.6,0.8-10
			c0-34.7-28.2-62.9-62.9-62.9c-3.7,0-7.4,0.3-11,1c-2.9-83.7-71.6-150.6-156-150.6c-86.2,0-156.1,69.9-156.1,156.1
			c0,86.2,69.9,156.1,156.1,156.1c48.6,0,92.1-22.3,120.7-57.1c11.5,12.5,27.9,20.3,46.2,20.3c0.8,0,1.6,0,2.5-0.1
			c0.9,8-9.3,15.5-5,21.9c-14.5,15.2-10.5,35.8-10.5,58.4c0,46.7,37.9,84.6,84.6,84.6s84.6-37.9,84.6-84.6
			C388.7,671.4,365,640,331.9,628.5z"/>
		<linearGradient id="SVGID_6_" gradientUnits="userSpaceOnUse" x1="-119.0911" y1="538.3654" x2="134.9796" y2="538.3654">
			<stop  offset="0" style="stop-color:#FFFFFF"/>
			<stop  offset="1" style="stop-color:#FFFFFF;stop-opacity:0.1"/>
		</linearGradient>
		<circle class="st7" cx="7.9" cy="538.4" r="127"/>
		<circle class="st8" cx="108.3" cy="629.4" r="105.2"/>
		<linearGradient id="SVGID_7_" gradientUnits="userSpaceOnUse" x1="122.3611" y1="660.8154" x2="265.3644" y2="660.8154">
			<stop  offset="0" style="stop-color:#FFFFFF;stop-opacity:0.1"/>
			<stop  offset="1" style="stop-color:#FFFFFF"/>
		</linearGradient>
		<circle class="st9" cx="193.9" cy="660.8" r="71.5"/>
		<linearGradient id="SVGID_8_" gradientUnits="userSpaceOnUse" x1="84.5294" y1="639.5978" x2="631.9533" y2="896.7363">
			<stop  offset="0" style="stop-color:#275B52"/>
			<stop  offset="1" style="stop-color:#112B27"/>
		</linearGradient>
		<path class="st10" d="M-123.4,712.1c0,0,29.3-36.6,200.1-71.6c42.3-8.7,87.8-2.7,123.1,17c42.6,23.7,69.4,56.6,113.2,54.7
			c67.9-2.9,161-47.1,238.6-4.4s130,48.6,192-8.8s195.9,42.7,195.9,42.7l-18,91l-1068.2,6.1L-123.4,712.1z"/>
		<linearGradient id="SVGID_9_" gradientUnits="userSpaceOnUse" x1="197.8297" y1="915.0728" x2="-121.4592" y2="706.7348">
			<stop  offset="0" style="stop-color:#355C2C"/>
			<stop  offset="2.534872e-02" style="stop-color:#355D2D"/>
			<stop  offset="1" style="stop-color:#3D7C3B"/>
		</linearGradient>
		<path class="st11" d="M-40.6,676.9c0,0,221.8,36.6,323.1,162.4c-236.3,9.1-429.2,0-429.2,0V676.9H-40.6z"/>
		<linearGradient id="SVGID_10_" gradientUnits="userSpaceOnUse" x1="1067.0039" y1="397.7592" x2="587.2683" y2="969.1268">
			<stop  offset="0" style="stop-color:#3D7C3B"/>
			<stop  offset="0.2369" style="stop-color:#3C7839"/>
			<stop  offset="0.5743" style="stop-color:#3A6C34"/>
			<stop  offset="0.8858" style="stop-color:#355C2C"/>
		</linearGradient>
		<path class="st12" d="M406.7,840.8c0,0,91.1-114.9,496.5-121.4c2.2,132.3,0,216.8,0,216.8S525.9,977.4,406.7,840.8z"/>
		
			<linearGradient id="SVGID_11_" gradientUnits="userSpaceOnUse" x1="656.4537" y1="725.9575" x2="508.6942" y2="1011.6653" gradientTransform="matrix(0.996 -8.915955e-02 8.915955e-02 0.996 -56.8475 63.9842)">
			<stop  offset="0.4667" style="stop-color:#3D7C3B"/>
			<stop  offset="0.617" style="stop-color:#3C7A3A"/>
			<stop  offset="0.7728" style="stop-color:#3B7136"/>
			<stop  offset="0.9306" style="stop-color:#376430"/>
			<stop  offset="1" style="stop-color:#355C2C"/>
		</linearGradient>
		<path class="st13" d="M286.2,824.1c0,0,352.2-53.3,624.5,118.3C783.3,976.1,432.5,1120.2,286.2,824.1z"/>
		<g>
			
				<linearGradient id="SVGID_12_" gradientUnits="userSpaceOnUse" x1="149.2811" y1="806.1076" x2="383.1936" y2="806.1076" gradientTransform="matrix(0.9998 -2.178538e-02 2.178538e-02 0.9998 -13.162 11.4429)">
				<stop  offset="0" style="stop-color:#275B52"/>
				<stop  offset="1" style="stop-color:#112B27"/>
			</linearGradient>
			<path class="st14" d="M371.7,852.7c9.6-2.5,16.7-11.5,16.3-20.7s-8.1-17.7-17.9-19.5c-9.7-1.8-20.5,3.1-24.8,11.5
				c5-11,1.4-25.3-9.2-32s-27.4-4-33.8,6.4c-8.9-21.8-36.4-35.3-60.9-30.1s-42.8,28.8-40.5,52c2.6-5.1-2.6-10.8-8.1-13.1
				c-12.9-5.3-29.8,0.4-36.1,12.1c-6.3,11.7-1,27.5,11.3,33.8c8.4,4.3,18.4,4.3,28,4.2c26.4-0.3,52.8-0.6,79.3-1
				c33-0.4,66-0.8,98.7-4.9"/>
			<path class="st15" d="M199.1,804.2c8.9,18.7,25.1,29.6,30.6,32.9l-1.5-0.5c-5.1-1.6-10.1-3-15.2-4.3c-11.5-17.4-32-28-32-28
				c9.6,15.3,23.5,24.1,29.6,27.4c-3.6-0.9-7.2-1.7-10.8-2.4c-0.9-0.2-1.7-0.3-2.6-0.5c-12.3-14.8-30.9-22.8-30.9-22.8
				c10.5,13.1,23.4,19.9,28.8,22.4c-0.8-0.2-1.6-0.3-2.4-0.5c0,0,0,0,0,0c0,0,0,0-0.1,0c-3.6-0.7-7.2-1.2-10.8-1.7
				c-11.4-13.8-28.7-21.3-28.7-21.3c10.4,12.9,23.3,19.3,27.6,21.2c-3.1-0.4-6.2-0.8-9.3-1.1c-1.6-0.2-3.2-0.3-4.8-0.4
				c-10.1-8.2-21.9-11.4-21.9-11.4c8.9,7.4,17.5,10.4,20.8,11.3c-5.6-0.4-11.2-0.7-16.6-0.6c-4.7-1-14.9-2.4-25.9,0.8
				c0,0,14.9,3.6,28.3-0.1c3.5,0,7,0.2,10.6,0.4c-2.5,0.4-10.3,2.3-14,9.7c0,0,10.6-1.8,14.8-9.7c3,0.2,6.1,0.5,9.2,0.8
				c1.9,0.2,3.7,0.4,5.6,0.7c-3.3,0.5-13.4,3-18.3,12.7c0,0,13.8-2.3,19.2-12.5c3.9,0.5,7.7,1.1,11.6,1.8
				c-5.1,1.1-15.8,4.6-21.3,15.5c0,0,16.7-2.8,23.6-15.1c2.5,0.5,5.1,1,7.6,1.5c3,0.6,5.9,1.3,8.9,2c-4.4,0.3-20.8,2.3-30.7,15.6
				c0,0,21.2-1.8,31.6-15.4c6.1,1.5,12.3,3.2,18.4,5.1l0.4,0.1c-6,0-23.7,1.3-36.7,13.6c0,0,24-0.1,38.3-13.1l1.5,0.5
				c0.6,0.2,1.2,0.4,1.8,0.6l1.7,0.6l6.9,2.5c2.3,0.8,4.6,1.7,6.9,2.6l6.8,2.7l0.6-1.1l-6.9-2.7c-2.3-0.9-4.6-1.9-7-2.6l-7-2.4
				l-1.8-0.6c-0.6-0.2-1.2-0.4-1.8-0.6l-0.5-0.1C221.3,817.6,199.1,804.2,199.1,804.2z"/>
			<g class="st16">
				<g class="st17">
					<path class="st18" d="M217.2,685.8c3.6-0.1,9.8,3.6,14,10.7c4.2,7.1,4.6,14.3,2.7,17.4c-3.6-0.4-9.1-4.6-13-11.3
						C216.9,696,215.9,689.2,217.2,685.8z"/>
				</g>
				<g class="st17">
					<path class="st18" d="M252.9,761.5c-4.3-16.7-10.5-33-18.3-48.4l-1.8,0.9c7.7,15.3,13.9,31.4,18.2,48L252.9,761.5z"/>
					<g>
						<path class="st18" d="M254.6,705.2c-3.6,0.8-8.1,5.9-10.6,13.5c-1.2,3.8-1.8,7.5-1.7,10.5c0,3.1,0.6,5.6,1.7,7.1
							c3.5-0.4,8.8-4.8,11.6-12.6C258.3,716.1,257.1,708.4,254.6,705.2z"/>
						<path class="st18" d="M214.4,725.2c2.8-2.2,9.5-3.3,16.8-0.6c3.7,1.3,6.6,3.4,8.8,5.5c2.1,2.2,3.4,4.5,3.7,6.3
							c-2.9,2.1-9.9,2.1-16.9-0.7C219.6,733,215.2,728.4,214.4,725.2z"/>
					</g>
					<g>
						<path class="st18" d="M223.5,746.3c3.1-1.9,9.8-2.3,16.8,1.1c7,3.5,11.1,9.3,11.1,13.1l0,0c-3.1,1.8-9.9,1.1-16.7-2.4
							C228,754.5,224,749.6,223.5,746.3z"/>
						<path class="st18" d="M265.6,730.5c-3.6,0.4-8.7,5-12,12.3c-3.3,7.3-3.7,14.2-1.9,17.5l0,0c3.5,0,9.3-3.9,12.8-11.3
							C268.1,741.7,267.7,734,265.6,730.5z"/>
					</g>
				</g>
				<g class="st17">
					<path class="st18" d="M260.4,811.5c-0.8-17.3-3.4-34.5-7.9-51.2l-1.9,0.5c4.4,16.6,7,33.6,7.8,50.7L260.4,811.5z"/>
					<g>
						<path class="st18" d="M273.9,756.8c-3.7,0.1-9.1,4.1-13.2,11c-4,6.9-5.1,13.8-3.7,17.3c3.5,0.3,9.7-2.9,13.9-9.9
							c2.2-3.5,3.3-7.2,3.7-10.4C275.1,761.5,274.7,758.6,273.9,756.8z"/>
						<path class="st18" d="M230.3,768c3.2-1.6,10-1.3,16.6,2.9c6.6,4.2,10.1,10.5,9.7,14.2c-3.3,1.4-10,0-16.4-4.2
							c-3.1-2.1-5.6-4.5-7.3-6.8C231.3,771.9,230.4,769.7,230.3,768z"/>
					</g>
					<g>
						<path class="st18" d="M234.9,790.5c3.4-1.2,10.1-0.2,16.2,4.6c3,2.4,5.3,5.3,6.6,8c1.3,2.7,1.9,5.3,1.5,7.1l0,0
							c-3.4,1.1-10-1-15.8-5.9C237.5,799.5,234.7,793.9,234.9,790.5z"/>
						<path class="st18" d="M279.4,783.9c-3.7-0.3-9.5,3.1-14.3,9.5c-2.4,3.2-3.9,6.5-4.9,9.4c-1,2.9-1.1,5.5-0.6,7.3l0,0
							c3.5,0.7,9.8-1.9,14.9-8.3C279.5,795.4,280.7,787.7,279.4,783.9z"/>
					</g>
				</g>
				<g class="st17">
					<path class="st18" d="M257.4,862.1c2.8-17.1,3.8-34.4,3-51.7l-2,0.1c0.7,17.1-0.3,34.3-3,51.3L257.4,862.1z"/>
					<g>
						<path class="st18" d="M281.9,811.4c-3.6-0.7-9.9,2.1-15.2,8c-5.5,5.9-7.9,12.4-7.3,16.1c3.4,1.1,10.1-0.8,15.7-6.7
							c2.8-3,4.8-6.3,5.9-9.4C282.1,816.2,282.4,813.4,281.9,811.4z"/>
						<path class="st18" d="M237,813.2c3.5-0.8,10,0.8,15.6,6.3c5.5,5.5,7.7,12.3,6.5,15.9c-3.5,0.7-9.8-2.1-15.1-7.5
							c-2.7-2.7-4.5-5.6-5.7-8.2C237.1,817.2,236.7,814.9,237,813.2z"/>
					</g>
					<g>
						<path class="st18" d="M236.7,836.2c3.5-0.5,10,1.9,14.8,7.9c5,6,6.3,13.1,4.9,16.5l0,0c-3.5,0.3-9.6-3.1-14.3-9
							c-2.3-3-4-6-4.8-8.7C236.5,840.1,236.3,837.8,236.7,836.2z"/>
						<path class="st18" d="M281.6,839.1c-3.5-1.1-9.9,1-16,6.3c-5.9,5.3-9.2,11.5-8.8,15.3l0,0c3.3,1.4,10,0.2,16.3-5.1
							c3.2-2.6,5.3-5.8,6.8-8.7C281.3,843.9,281.9,841.1,281.6,839.1z"/>
					</g>
				</g>
			</g>
			<path class="st15" d="M319.3,756.1c9.7,12.6,11.6,27.5,11.9,32.4l0.2-1.2c0.7-4,1.5-8,2.4-11.9c-8-13.9-8.1-31.7-8.1-31.7
				c7.2,11.9,8.4,24.5,8.5,29.8c0.7-2.8,1.4-5.5,2.1-8.3c0.2-0.6,0.4-1.3,0.5-1.9c-5.9-13.6-4.9-29.1-4.9-29.1
				c5.3,11.7,5.6,23,5.4,27.6c0.2-0.6,0.4-1.2,0.5-1.8c0,0,0,0,0,0c0,0,0,0,0-0.1c0.8-2.7,1.7-5.4,2.6-8
				c-5.5-12.6-4.7-27.1-4.7-27.1c5.3,11.6,5.2,22.7,4.9,26.3c0.8-2.3,1.6-4.5,2.5-6.7c0.5-1.2,0.9-2.3,1.4-3.5
				c-2.1-9.8-0.2-19-0.2-19c2,8.7,1,15.6,0.5,18.2c1.7-4,3.4-7.9,5.3-11.6c1-3.6,3.6-11,9.6-17.5c0,0-2.7,11.5-9.9,19.4
				c-1.2,2.4-2.3,4.9-3.4,7.4c1.2-1.6,5.1-6.3,11.6-6.3c0,0-4.9,6.7-11.8,6.8c-0.9,2.2-1.8,4.4-2.6,6.6c-0.5,1.4-1,2.7-1.5,4.1
				c1.5-2.1,6.7-8.2,15-8.1c0,0-6.4,8.7-15.3,8.8c-1,2.8-1.9,5.7-2.8,8.6c2.5-3.1,8.7-9.2,18-9.2c0,0-7.7,10.5-18.5,10.9
				c-0.6,1.9-1.1,3.8-1.6,5.7c-0.6,2.3-1.2,4.5-1.7,6.8c1.8-2.9,8.8-13.5,21.4-15.6c0,0-8.6,13.9-21.5,16.4
				c-1.1,4.7-2.1,9.5-2.9,14.4l-0.1,0.3c2.1-4.1,9.1-15.8,22.1-20.5c0,0-8.4,16.4-22.3,21.7l-0.2,1.2c-0.1,0.5-0.2,0.9-0.2,1.4
				l-0.2,1.4l-0.7,5.6c-0.3,1.9-0.4,3.8-0.6,5.6l-0.5,5.6l-0.9,0l0.5-5.7c0.2-1.9,0.3-3.8,0.6-5.7l0.8-5.7l0.2-1.4
				c0.1-0.5,0.2-0.9,0.2-1.4l0.1-0.4C320.7,776.1,319.3,756.1,319.3,756.1z"/>
			<g>
				
					<linearGradient id="SVGID_13_" gradientUnits="userSpaceOnUse" x1="195.4559" y1="816.8099" x2="279.3348" y2="816.8099" gradientTransform="matrix(0.9893 0.1458 -0.1458 0.9893 107.9428 -42.5927)">
					<stop  offset="0" style="stop-color:#C7DC60"/>
					<stop  offset="1" style="stop-color:#3D7C3B"/>
				</linearGradient>
				<path class="st19" d="M186.7,763.7c0,0,8.2-1.2,14-1c2.6,0.1,4.6,2.6,4.3,5.4l-1,10.1c-0.1,0.6,0.3,1.2,0.9,1.4l0,0
					c0.7,0.2,1.3-0.3,1.4-1l1.9-14.5c0,0,7.3,3.5,12.3,6.2c2,1.1,3.3,3.5,3.1,6l-1.2,19.6c0,0.6,0.3,1.1,0.8,1.2l0,0
					c0.6,0.2,1.2-0.3,1.3-1l1.9-21.8c0,0,6.1,4.6,9.9,7.4c1.7,1.3,2.5,3.6,1.9,5.8l-5.8,21c-0.1,0.5,0,1.1,0.4,1.4l0,0
					c0.6,0.5,1.5,0.2,1.7-0.6l7.4-23.1c0,0,3.7,0.7,12,10.7c2.4,2.9,2.5,7.2,0.3,10.1l-8.2,10.7c-0.4,0.6-0.4,1.4,0.1,1.9l0,0
					c0.5,0.6,1.5,0.6,2,0l11.7-15.1c0,0,5.4,8.2,3.3,15c-2.1,6.8-1.7,15.3-8.3,16.4c-6.6,1.1-13.5,0.7-13.5,0.7l-52-63.8
					L186.7,763.7z"/>
				
					<linearGradient id="SVGID_14_" gradientUnits="userSpaceOnUse" x1="194.778" y1="829.5301" x2="260.7311" y2="829.5301" gradientTransform="matrix(0.9893 0.1458 -0.1458 0.9893 107.9428 -42.5927)">
					<stop  offset="0" style="stop-color:#C7DC60"/>
					<stop  offset="1" style="stop-color:#3D7C3B"/>
				</linearGradient>
				<path class="st20" d="M241.9,837l-55.2-73.3c0,0-2.2,8.8-2.9,15.6c-0.3,3.3,1.5,6.5,4.3,7.7c3.8,1.6,9,3.8,11.5,4.6
					c0.6,0.2,1.1,0.8,1.1,1.5l0,0c0,1-0.8,1.8-1.7,1.5c-4.2-1-14.8-3.5-15.7-5c0,0,2.3,9.8,3.9,15.6c0.7,2.4,2.5,4.2,4.8,4.7
					c5,1,14.3,2.8,19.2,2.5c0.5,0,1,0.4,1.1,0.9l0,0c0.2,0.7-0.3,1.4-1,1.4c-4,0-16-0.2-20.6-1.7c0,0,2.9,7.7,5,12.7
					c0.8,2,2.5,3.3,4.4,3.5c4.3,0.5,12.1,0.5,19.8-3.7c0.7-0.4,1.5-0.1,2,0.6l0,0c0.6,0.9,0.3,2.1-0.6,2.6
					c-4.4,2.2-16.4,7.4-23.3,3.7c0,0,11.7,24.5,24,23.7C234.5,855.5,238.5,858.9,241.9,837z"/>
			</g>
			<g>
				
					<linearGradient id="SVGID_15_" gradientUnits="userSpaceOnUse" x1="243.803" y1="762.9354" x2="295.8046" y2="814.3111" gradientTransform="matrix(1.0007 -2.956347e-02 1.526112e-02 1.0564 -9.2328 -22.6709)">
					<stop  offset="0" style="stop-color:#3D7C3B"/>
					<stop  offset="0.2369" style="stop-color:#3C7839"/>
					<stop  offset="0.5743" style="stop-color:#3A6C34"/>
					<stop  offset="0.8858" style="stop-color:#355C2C"/>
				</linearGradient>
				<path class="st21" d="M294.6,742c0,0-0.1,0.1-0.1,0.1c-0.6,0.5-1.3,1-2.1,1.5c-2,1.3-4.7,2.8-8.8,4.7c-9,4.3-2.8,29.5-1.4,34.9
					c0.1,0.6,0,1.2-0.4,1.5c-0.4,0.4-1,0.3-1.3-0.2c-6.4-11-2.7-35.1-2.7-35.1c-1.2,0.1-5.8,3.3-9.5,6c-3.7,2.7-5.8,8.2-5,13.4
					c1.9,13.1,9.5,28.6,11.3,32c0.2,0.4,0.5,1.1,0.3,1.6c-0.2,0.6-0.5,0.8-0.8,0.8c-0.2,0-0.4-0.2-0.7-0.4
					c-11.7-12.2-13.1-41.7-13.1-41.7c-2.3,1.4-7.3,9.9-10.2,14.7c-1.4,2.4-1.7,5.6-0.9,8.3c3.4,10.2,14.3,25.2,17.6,29.1
					c0.5,0.6,1.1,1,0.7,1.8c-0.3,0.6-0.9,1-1.5,0.9c-0.2,0-0.3-0.1-0.5-0.2c-14.1-10.4-19.3-33.6-19.3-33.6
					c-1.9,2.5-4.9,14.8-6.3,21.2c-0.7,3.1-0.3,6.3,0.9,8.9c5.3,11,16.6,16.4,21,18.2c0.8,0.3,1,1.3,0.5,2.2c-0.4,0.7-1,1-1.6,1
					c-14.3-1.3-22.5-19.7-22.5-19.7s-6.7,33.6,11.6,47.6c18.3,13.9,31.4-6.2,32.5-12.4c0-0.3,0.1-0.5,0.1-0.7c0-0.1,0.1-0.3,0.1-0.4
					L294.6,742C294.6,742,294.6,742,294.6,742z M275.1,792.7c3.4-6.3,5.3,5.8,5.3,5.8C280,800.6,273.8,795.2,275.1,792.7z
					 M267.2,804.6c0.6-1.5,2.8-1.1,3.6-0.6c0.8,0.5,3.2,2.9,2.6,4.4c-0.6,1.5-4,1-4.8,0.5C267.9,808.4,266.6,806,267.2,804.6z
					 M266.1,825c0.5-1.6,4.5-0.6,6,0.1c1.5,0.7,4.5,3.2,4,4.7c-0.5,1.6-4.4,1.2-5.9,0.4C268.6,829.5,265.5,826.5,266.1,825z
					 M269.3,851c-1.8,0.5-4.4-0.8-4.7-3.3c-0.4-2.5,2-4.7,3.7-5.2c1.8-0.5,5.8-0.3,6.1,2.2C274.8,847.2,271.1,850.5,269.3,851z
					 M281.7,818.2c-0.8,0.7-2.5-0.9-2.9-1.8c-0.5-0.9-0.9-3.6-0.2-4.3c0.8-0.7,2.3,1.2,2.8,2.1C281.8,815.2,282.4,817.5,281.7,818.2
					z M286.2,790.9c-0.2,0.8-1,2.5-1.6,2.3c-0.6-0.2-0.7-2.3-0.5-3.1c0.2-0.8,1.2-2.6,1.8-2.4S286.4,790,286.2,790.9z M288,778.3
					c-1.2,1.4-4.1-9.1-2-9.4C289.8,768.4,288,778.3,288,778.3z"/>
				
					<linearGradient id="SVGID_16_" gradientUnits="userSpaceOnUse" x1="301.1637" y1="911.989" x2="402.8927" y2="967.7183" gradientTransform="matrix(0.7947 0.4419 -0.3915 1.0497 387.296 -336.4669)">
					<stop  offset="0" style="stop-color:#3D7C3B"/>
					<stop  offset="0.2369" style="stop-color:#3C7839"/>
					<stop  offset="0.5743" style="stop-color:#3A6C34"/>
					<stop  offset="0.8858" style="stop-color:#355C2C"/>
				</linearGradient>
				<path class="st22" d="M311.7,846.3c-0.8-0.1-1.4-0.8-1.5-1.8l0,0c-0.2-1.3,0.6-2.5,1.7-2.7c25.1-3,22.3-27.4,22.3-27.4
					c-6.3,9-23.9,13.3-28.3,14.3c-0.6,0.1-1.1-0.4-1.1-1.1c-0.1-0.7,0.4-1.4,0.9-1.5c13.7-2.6,28.1-17.8,28.1-17.8
					c1.3-11.7-5.2-28-5.2-28c-9.7,21.8-23.4,27.8-26.6,29c-0.4,0.1-0.8-0.1-1-0.5c-0.3-0.7,0-1.7,0.6-1.9
					c15.2-4.8,24.4-31.6,24.4-31.6c-0.7-6-10.9-15.7-10.9-15.7c-1.9,17.4-10.9,28.3-13.7,31.3c-0.4,0.5-1.1,0.4-1.4-0.2
					c-0.2-0.5-0.1-1.2,0.3-1.6c9.9-9.9,11.9-31.7,11.9-31.7c-1-3.5-4.1-3.6-7.8-6.5c-3.4-2.6-8.6-7.8-9.7-8.9c0,0-0.1-0.1-0.1-0.1
					c0,0-0.1,0.1-0.1,0.1l-12.1,106.2c0,0,0,0,0,0c0,1.3,0.5,26.9,25.5,21c19.9-4.7,23.9-33.9,23.9-33.9
					C323.9,846.3,315,846.6,311.7,846.3z M302.4,796.7c0.6-0.4,2.3-0.6,2.5,0.2c0.3,0.8-0.9,2-1.6,2.4c-0.6,0.4-2.3,0.9-2.5,0.1
					S301.8,797.1,302.4,796.7z M297.8,779.3c2.4,1.1-4,6.4-4.9,5C292.9,784.3,293.6,777.4,297.8,779.3z M289.9,805.8
					c1.3-2.4,3.2-5,4.4-0.9c0.4,1.3-1.1,2.7-2.7,3.6C290.3,809.2,289.1,807.4,289.9,805.8z M289,823c-0.2-1.1,1.6-2.4,2.5-2.7
					c0.9-0.3,1.9,0,2.1,1.1c0.2,1.1-0.5,2.3-1.4,2.6C291.3,824.4,289.2,824.1,289,823z M297.3,849.6c-0.8,2-3.3,2.6-4.8,1.7
					c-1.4-0.8-4.2-4.5-3.4-6.5c0.8-2,4.4-1.3,5.8-0.5C296.5,845.2,298.1,847.5,297.3,849.6z M297.1,835.8c-1.2,0.8-4.4,1.2-5-0.5
					c-0.6-1.7,1.7-4.3,2.9-5c1.2-0.8,4.4-1.7,5-0.1C300.5,831.9,298.2,835.1,297.1,835.8z M302.1,817.3c-0.5,0.2-2.3,0-2.5-0.9
					c-0.1-0.9,1.5-1.8,2-2c0.5-0.2,1.7-0.1,1.8,0.8C303.5,816.1,302.5,817.2,302.1,817.3z"/>
			</g>
		</g>
		<linearGradient id="SVGID_17_" gradientUnits="userSpaceOnUse" x1="-84.1053" y1="700.8593" x2="608.3948" y2="1159.2999">
			<stop  offset="0" style="stop-color:#EAE46D"/>
			<stop  offset="4.343308e-02" style="stop-color:#D6DB5F"/>
			<stop  offset="0.1185" style="stop-color:#BACF4D"/>
			<stop  offset="0.1915" style="stop-color:#A6C743"/>
			<stop  offset="0.2607" style="stop-color:#99C33E"/>
			<stop  offset="0.3222" style="stop-color:#95C13D"/>
		</linearGradient>
		<path class="st23" d="M-166.2,839.8c0,0,364.3-81.5,598.4,32.6s507.4,60.8,507.4,60.8v158.6H-166.2
			C-166.2,1091.8-339.7,962.9-166.2,839.8z"/>
		<linearGradient id="SVGID_18_" gradientUnits="userSpaceOnUse" x1="212.8205" y1="208.3653" x2="212.8205" y2="316.7723">
			<stop  offset="0" style="stop-color:#FFFFFF"/>
			<stop  offset="1" style="stop-color:#FFFFFF;stop-opacity:0.1"/>
		</linearGradient>
		<path class="st24" d="M392.5,316.8c-9.1-28.1-41.3-48.8-79.6-48.8c-9.7,0-19,1.3-27.6,3.8c-10.2-36.6-43.7-63.4-83.5-63.4
			c-35.1,0-65.4,20.9-79,50.9c-5.7-1.4-11.6-2.2-17.7-2.2c-35.8,0-65.5,25.7-71.9,59.6H392.5z"/>
		<linearGradient id="SVGID_19_" gradientUnits="userSpaceOnUse" x1="171.1862" y1="72.9476" x2="171.1862" y2="135.255">
			<stop  offset="0" style="stop-color:#FFFFFF"/>
			<stop  offset="1" style="stop-color:#FFFFFF;stop-opacity:0.1"/>
		</linearGradient>
		<path class="st25" d="M274.4,135.3c-5.2-16.1-23.7-28-45.8-28c-5.6,0-10.9,0.8-15.9,2.2c-5.9-21-25.1-36.4-48-36.4
			c-20.2,0-37.6,12-45.4,29.3c-3.3-0.8-6.7-1.2-10.2-1.2c-20.6,0-37.7,14.8-41.3,34.3H274.4z"/>
		<linearGradient id="SVGID_20_" gradientUnits="userSpaceOnUse" x1="155.7981" y1="1008.0275" x2="1694.6698" y2="-530.8443">
			<stop  offset="0" style="stop-color:#FFFFFF;stop-opacity:0"/>
			<stop  offset="0.8481" style="stop-color:#FFFFFF;stop-opacity:0.8125"/>
			<stop  offset="1" style="stop-color:#FFFFFF"/>
		</linearGradient>
		<polygon class="st26" points="916.6,51.1 936.7,205.5 285.6,1127.5 -207.1,1121.7 		"/>
		
			<linearGradient id="SVGID_21_" gradientUnits="userSpaceOnUse" x1="201.8848" y1="541.5901" x2="1312.4423" y2="-568.9674" gradientTransform="matrix(0.9959 9.065767e-02 -9.065767e-02 0.9959 52.8627 -37.6632)">
			<stop  offset="0" style="stop-color:#FFFFFF;stop-opacity:0"/>
			<stop  offset="1" style="stop-color:#FFFFFF"/>
		</linearGradient>
		<polygon class="st27" points="899.4,-85.8 905.1,38.1 -39.4,852.4 -318.5,827 899.4,-85.8 		"/>
		<g>
			<linearGradient id="SVGID_22_" gradientUnits="userSpaceOnUse" x1="553.4917" y1="694.2139" x2="692.0162" y2="694.2139">
				<stop  offset="0" style="stop-color:#FFFFFF;stop-opacity:0.1"/>
				<stop  offset="1" style="stop-color:#FFFFFF"/>
			</linearGradient>
			<path class="st28" d="M643.5,628.2c-26.8,0-48.5,21.7-48.5,48.5c0,2.5,0.2,4.9,0.5,7.3c-1.2-0.1-2.5-0.2-3.8-0.2
				c-21.1,0-38.2,17.1-38.2,38.2c0,21.1,17.1,38.2,38.2,38.2c20.7,0,37.5-16.4,38.2-36.9c4.3,1.3,8.9,2,13.6,2
				c26.8,0,48.5-21.7,48.5-48.5S670.3,628.2,643.5,628.2z"/>
			<linearGradient id="SVGID_23_" gradientUnits="userSpaceOnUse" x1="330.4188" y1="886.9838" x2="482.4998" y2="741.7709">
				<stop  offset="0" style="stop-color:#275B52"/>
				<stop  offset="1" style="stop-color:#112B27"/>
			</linearGradient>
			<path class="st29" d="M370.9,725.8c0,0-71.2,22.5-13.1,71.2c-28.1,65.6,43.1,84.3,73.1,43.1c1.9,52.4,80.5,45,93.7,3.7
				c13.1-41.2-3.7-50.6-3.7-50.6s45-39.3,13.1-58.1c9.4-33.7-61.8-89.9-97.4-30C412.1,677.1,374.7,664,370.9,725.8z"/>
			<linearGradient id="SVGID_24_" gradientUnits="userSpaceOnUse" x1="543.094" y1="912.577" x2="657.9104" y2="589.0826">
				<stop  offset="0" style="stop-color:#275B52"/>
				<stop  offset="1" style="stop-color:#112B27"/>
			</linearGradient>
			<path class="st30" d="M533.1,772.5c6.9,1.7,51.6,61.9,96.3,13.8c32.7,34.4,68.8,13.8,80.9-32.7c46.4,12,74-89.5,24.1-106.7
				c39.6-43-29.2-115.3-60.2-89.5c-74-49.9-151.4,15.5-141.1,46.4c-39.6-5.2-46.4,56.8-17.2,80.9C471.1,690,476.3,758.8,533.1,772.5
				z"/>
			<path class="st31" d="M478.9,737.3l34.4,48.2L523.6,622h25.8v91.2l48.6-51.7c1.8-1.9,5.1-1.3,5.9,1.3c0.5,1.5,1.3,3.4,2.3,5.7
				c-3.4,1.7-56.8,79.1-56.8,79.1l22.4,354.4h-77.4l17.2-295.9l-46.4-68.8H478.9z"/>
			<path class="st31" d="M478.9,737.3l34.4,48.2L523.6,622h25.8v91.2l48.6-51.7c1.8-1.9,5.1-1.3,5.9,1.3c0.5,1.5,1.3,3.4,2.3,5.7
				c-3.4,1.7-56.8,79.1-56.8,79.1l22.4,354.4h-77.4l17.2-295.9l-46.4-68.8H478.9z"/>
			<path class="st32" d="M598,661.5l-48.6,51.7V622h-13.8v480h36.1l-22.4-354.4c0,0,53.3-77.4,56.8-79.1c-1-2.3-1.8-4.2-2.3-5.7
				C603,660.2,599.8,659.6,598,661.5z"/>
			<path class="st33" d="M549.4,747.6c0,0,53.3-77.4,56.8-79.1c-1-2.3-1.8-4.2-2.3-5.7c-0.9-2.5-4.1-3.2-5.9-1.3l-48.6,51.7V622
				h-25.8l-10.3,163.4l-34.4-48.2h-13.8l42.7,63.3l42-45.6L549.4,747.6z"/>
			<linearGradient id="SVGID_25_" gradientUnits="userSpaceOnUse" x1="621.7852" y1="715.8509" x2="705.3196" y2="541.5801">
				<stop  offset="0" style="stop-color:#275B52"/>
				<stop  offset="1" style="stop-color:#112B27"/>
			</linearGradient>
			<path class="st34" d="M600.2,579.9c0,0-65.4,20.6-12,65.4c-25.8,60.2,39.6,77.4,67.1,39.6c1.7,48.2,74,41.3,86,3.4
				s-3.4-46.4-3.4-46.4s41.3-36.1,12-53.3c8.6-31-56.8-82.6-89.5-27.5C638,535.1,603.6,523.1,600.2,579.9z"/>
			<linearGradient id="SVGID_26_" gradientUnits="userSpaceOnUse" x1="436.6184" y1="395.6051" x2="641.5011" y2="610.832">
				<stop  offset="0" style="stop-color:#33A180"/>
				<stop  offset="0.2063" style="stop-color:#319E7E"/>
				<stop  offset="0.3777" style="stop-color:#2E9577"/>
				<stop  offset="0.5365" style="stop-color:#29886B"/>
				<stop  offset="0.6879" style="stop-color:#22765C"/>
				<stop  offset="0.8339" style="stop-color:#156049"/>
				<stop  offset="0.974" style="stop-color:#034734"/>
				<stop  offset="0.9997" style="stop-color:#004330"/>
			</linearGradient>
			<path class="st35" d="M390.3,440.5c-0.9,3.3-43,34.4,5.2,103.2c-39.6,48.2,12,91.2,48.2,75.7c5.2,43,72.3,60.2,98.1,18.9
				c17.2,25.8,68.8,18.9,98.1-32.7c58.5,5.2,74-44.7,79.1-80.9s12-135.9-70.5-123.9C631.1,347.6,417.8,340.7,390.3,440.5z"/>
			<linearGradient id="SVGID_27_" gradientUnits="userSpaceOnUse" x1="213.0739" y1="473.4509" x2="509.9176" y2="684.56">
				<stop  offset="0" style="stop-color:#33A180"/>
				<stop  offset="0.1376" style="stop-color:#30997A"/>
				<stop  offset="0.3628" style="stop-color:#29866A"/>
				<stop  offset="0.6478" style="stop-color:#1B6951"/>
				<stop  offset="0.9785" style="stop-color:#014532"/>
				<stop  offset="0.9997" style="stop-color:#004330"/>
			</linearGradient>
			<path class="st36" d="M399.6,517.9c-5.4,7-119.1-1.7-84.3,104.9c-47.6,46.4-9.2,80.9,25.7,82.6c14.7,46.4,96,79.1,128.6,31.8
				c43.3,12,78.5-30.1,62-105.8c55-29.2,7.3-113.5-42.1-91.2C487.6,476.6,423.5,487,399.6,517.9z"/>
		</g>
		
			<linearGradient id="SVGID_28_" gradientUnits="userSpaceOnUse" x1="593.2348" y1="990.0177" x2="687.9833" y2="990.0177" gradientTransform="matrix(0.9997 -2.309386e-02 2.309386e-02 0.9997 -15.0972 15.9136)">
			<stop  offset="0" style="stop-color:#42847F"/>
			<stop  offset="0.1815" style="stop-color:#346371"/>
			<stop  offset="0.3639" style="stop-color:#2A4A66"/>
			<stop  offset="0.5416" style="stop-color:#24375D"/>
			<stop  offset="0.7106" style="stop-color:#202957"/>
			<stop  offset="0.8674" style="stop-color:#1E1F53"/>
			<stop  offset="1" style="stop-color:#1D1C52"/>
		</linearGradient>
		<path class="st37" d="M606.6,1077.8c0.1,0,0.1,0,0.2,0c0.3,0,0.5-0.3,0.4-0.6c-1-16.2,3.4-35.9,13.1-58.7l0.2-0.4l0.4-0.1
			c2.3-0.3,4.6-0.6,7-0.8c11.6-1.4,23.5-2.8,34.3-5.3c0.3-0.1,0.4-0.3,0.4-0.6c0-0.2-0.2-0.4-0.3-0.4c-0.1,0-0.1,0-0.2,0
			c-10.8,2.5-22.7,3.9-34.3,5.3c-1.9,0.2-3.8,0.5-5.7,0.7l-1.2,0.1l0.5-1.2c6.7-15.2,15.7-31.8,26.8-49.2l0.2-0.3l0.3-0.1
			c5.2-1.5,11.3-3,17.7-4.6c2.6-0.6,5.3-1.3,8-2c0.1,0,0.2-0.1,0.3-0.2c0.1-0.1,0.1-0.3,0.1-0.4c0-0.2-0.2-0.3-0.3-0.4
			c-0.1,0-0.1,0-0.2,0c-2.7,0.7-5.4,1.3-8,2c-5.2,1.3-10.6,2.6-15.3,3.9l-1.8,0.5l1.1-1.7c21.5-33.3,42.9-58.3,43.1-58.5
			c0.1-0.1,0.1-0.2,0.1-0.4c0-0.1,0-0.3-0.1-0.4c-0.1-0.1-0.1-0.1-0.2-0.1c-0.2,0-0.3,0-0.5,0.2c-0.2,0.3-22.9,26.7-44.8,61
			c-2.4,3.7-4.8,7.6-7.1,11.5l-0.9,1.6l-0.3-1.8c-1.6-8.7-6.3-30.4-6.8-32.4c0-0.2-0.2-0.3-0.3-0.3c-0.1,0-0.2,0-0.3,0
			c-0.1,0-0.2,0.1-0.3,0.3c-0.1,0.1-0.1,0.3,0,0.4c0.8,3.3,6.5,30.2,7.2,34.8l0,0.3l-0.2,0.3c-8.7,14.8-15.8,28.8-21,41.6l-0.6,1.4
			l-0.7-1.2c-7.1-12.7-11.7-26.4-15.2-38.1c0-0.2-0.2-0.3-0.3-0.3c-0.1,0-0.2,0-0.3,0c-0.2,0.1-0.4,0.4-0.3,0.7
			c3.7,12.3,8.5,26.6,16,39.6l0.3,0.4l-0.1,0.5c-7.9,20.2-11.5,38.1-10.6,53.1C606.3,1077.5,606.4,1077.7,606.6,1077.8z"/>
		<g>
			<linearGradient id="SVGID_29_" gradientUnits="userSpaceOnUse" x1="515.7979" y1="1055.1455" x2="733.9382" y2="1055.1455">
				<stop  offset="0" style="stop-color:#275B52"/>
				<stop  offset="1" style="stop-color:#112B27"/>
			</linearGradient>
			<path class="st38" d="M531.5,1098.9c-9-2.3-15.8-11.3-15.7-20.5c0.1-9.3,7.2-18,16.2-20.1c9-2.1,19.2,2.7,23.4,11
				c-4.9-11-1.8-25.4,7.9-32.5c9.8-7,25.5-4.7,31.7,5.7c7.8-22.1,33.2-36.4,56.2-31.6c23,4.8,40.5,28.1,38.8,51.5
				c-2.5-5.1,2.2-11,7.3-13.4c11.9-5.6,27.8-0.2,33.9,11.4c6.1,11.6,1.5,27.7-9.9,34.3c-7.7,4.5-17.1,4.7-26,4.8
				c-24.6,0.3-49.3,0.5-73.9,0.8c-30.7,0.3-61.6,0.6-92.1-2.7"/>
			<path class="st18" d="M561.5,1004.8c31.6,28.3,40.9,63.4,43.2,75l0.3-2.9c0.8-9.7,2.1-19.3,3.7-28.9
				c-26.8-31.7-31.9-73.9-31.9-73.9c23.9,27.1,30.8,56.7,32.7,69.4c1.2-6.8,2.5-13.5,3.9-20.1c0.3-1.6,0.7-3.1,1-4.7
				c-20.7-31.2-22.1-68.4-22.1-68.4c18.6,27,22.2,53.6,22.9,64.6c0.3-1.5,0.7-3,1.1-4.5c0,0,0,0-0.1,0c0,0,0-0.1,0.1-0.1
				c1.6-6.6,3.4-13.1,5.3-19.5c-19.4-29-20.7-63.7-20.7-63.7c18.4,26.7,21,53,21.3,61.7c1.7-5.6,3.5-11.1,5.3-16.5
				c1-2.9,2-5.7,3.1-8.5c-8.8-22.9-5.6-45.2-5.6-45.2c8,20.2,7.2,36.9,6.4,43.2c3.7-9.9,7.8-19.5,12.4-28.7
				c1.8-8.6,7.4-26.9,23.1-43.4c0,0-4.7,27.8-23.5,48c-2.8,5.9-5.4,12-7.9,18.3c2.9-4,13.2-15.9,31.9-17c0,0-12.6,16.8-32.3,18.3
				c-2.1,5.3-4,10.7-5.9,16.2c-1.1,3.3-2.2,6.7-3.3,10c3.8-5.2,17.2-20.7,41.5-22.2c0,0-16.3,21.8-42,23.8c-2.1,6.9-4.1,13.9-5.9,21
				c6.5-7.9,22.7-23.6,49.8-25.3c0,0-19.7,26.4-50.9,29.5c-1.1,4.6-2.2,9.3-3.1,13.9c-1.1,5.5-2.2,11-3.1,16.6
				c4.3-7.3,22-33.7,57.8-41.2c0,0-21.3,34.7-58.1,42.9c-2,11.5-3.5,23.1-4.5,34.8l-0.1,0.8c5-10.2,22.2-39.3,58.6-52.8
				c0,0-20,40.6-58.9,55.8l-0.3,2.9c-0.1,1.1-0.2,2.2-0.3,3.4l-0.2,3.4l-0.6,13.5c-0.3,4.5-0.2,9-0.2,13.5l0,13.5l-2.7,0.2l0.1-13.7
				c0.1-4.6,0-9.1,0.3-13.7l0.7-13.7l0.2-3.4c0.1-1.1,0.2-2.3,0.3-3.4l0.1-0.9C571,1052,561.5,1004.8,561.5,1004.8z"/>
			<path class="st18" d="M406.8,1019.6c-8.3,29-0.7,53.7,2.3,61.5l-1.3-1.6c-4.2-5.5-8.6-10.9-13.1-16c4.1-29.2-8.7-56.6-8.7-56.6
				c-4.2,25.4,2.9,45.8,6.6,54.2c-3.3-3.6-6.6-7.2-9.9-10.7c-0.8-0.8-1.6-1.6-2.4-2.5c0.6-26.7-12.6-49.6-12.6-49.6
				c-1,23.3,6.9,40.7,10.6,47.6c-0.8-0.8-1.5-1.5-2.3-2.3c0,0,0,0,0,0c0,0,0,0-0.1-0.1c-3.5-3.3-7-6.6-10.6-9.7
				c0.7-24.8-11.6-46.2-11.6-46.2c-1,23,7.4,39.9,10.5,45.2c-3.1-2.7-6.3-5.4-9.5-7.9c-1.7-1.3-3.4-2.7-5.1-4
				c-3.4-17.2-13.7-29.4-13.7-29.4c2.8,15.2,9.6,24.9,12.5,28.5c-6-4.6-12.1-8.8-18.3-12.6c-4.4-4.5-14.6-13.4-30.3-17.4
				c0,0,13.4,15,32.3,20c3.9,2.5,7.8,5.2,11.6,8c-3.3-1.3-14-4.6-25.6,1.8c0,0,13.9,5.4,26.4-1.2c3.3,2.4,6.5,4.9,9.7,7.5
				c1.9,1.6,3.8,3.2,5.8,4.8c-4.3-1.7-18.2-5.9-33.4,2.3c0,0,18.1,7,34.3-1.5c3.9,3.4,7.7,6.8,11.5,10.4c-6.9-2.3-22.6-5.7-39.6,3.6
				c0,0,21.8,8.4,41.8-1.5c2.4,2.4,4.8,4.8,7.2,7.2c2.8,2.9,5.5,5.8,8.2,8.8c-5.4-2.8-26-12-50.4-3c0,0,26,12.9,51.3,3.9
				c5.5,6.2,10.9,12.6,15.9,19.3l0.3,0.4c-6.9-4.2-28.3-15.3-55.3-9.7c0,0,27.4,16.9,56.6,11.4l1.3,1.6c0.5,0.6,1,1.3,1.4,1.9l1.4,2
				l5.5,7.9c1.9,2.6,3.5,5.4,5.2,8.1l5.1,8.1l1.7-0.9l-5.2-8.2c-1.8-2.7-3.4-5.5-5.3-8.1l-5.6-8l-1.4-2c-0.5-0.7-1-1.3-1.5-1.9
				l-0.4-0.5C418.9,1051.6,406.8,1019.6,406.8,1019.6z"/>
			<g>
				<linearGradient id="SVGID_30_" gradientUnits="userSpaceOnUse" x1="552.069" y1="1039.7942" x2="637.9812" y2="1039.7942">
					<stop  offset="2.621188e-04" style="stop-color:#125028"/>
					<stop  offset="4.219938e-02" style="stop-color:#16542B"/>
					<stop  offset="0.331" style="stop-color:#2C6C45"/>
					<stop  offset="0.5965" style="stop-color:#3A7F5D"/>
					<stop  offset="0.8281" style="stop-color:#418B6D"/>
					<stop  offset="1" style="stop-color:#449073"/>
				</linearGradient>
				<path class="st39" d="M637.9,974.3c-0.1,0-0.1,0.1-0.2,0.1c-0.8,0.4-1.7,0.8-2.8,1.2c-2.6,1-6.1,2-11.2,3.2
					c-11.4,2.7-9.3,32.2-8.7,38.5c0.1,0.6-0.3,1.3-0.8,1.6c-0.6,0.3-1.3,0.1-1.5-0.6c-5.2-13.7,3.9-39.5,3.9-39.5
					c-1.4-0.2-7.5,2.4-12.3,4.5c-4.9,2.2-8.4,7.7-8.6,13.7c-0.5,15,5.3,33.9,6.7,38.1c0.2,0.5,0.4,1.3,0,1.8
					c-0.4,0.6-0.7,0.8-1.1,0.7c-0.2-0.1-0.5-0.3-0.7-0.6c-11.3-16.2-6.9-49.3-6.9-49.3c-3,1-10.5,9.3-14.8,14.1
					c-2.1,2.4-3.2,5.8-2.7,9c1.9,12.1,11.6,31.2,14.7,36.3c0.5,0.8,1.1,1.3,0.4,2.1c-0.5,0.6-1.3,0.9-1.9,0.7
					c-0.2-0.1-0.4-0.1-0.5-0.3c-14.4-14.7-15.8-41.6-15.8-41.6c-2.8,2.4-8.7,15.3-11.6,22.1c-1.4,3.3-1.6,6.9-0.7,10.1
					c4,13.4,16.1,21.9,20.9,25c0.9,0.5,0.9,1.7,0.2,2.6c-0.6,0.7-1.3,0.9-2,0.7c-16.5-4.6-22.3-27-22.3-27s-14.6,35.8,4,55.4
					c18.6,19.6,38,0.3,40.5-6.4c0.1-0.3,0.2-0.5,0.3-0.8c0.1-0.2,0.1-0.3,0.2-0.4L638,974.4C637.9,974.4,637.9,974.3,637.9,974.3z
					 M604.9,1026.2c5.2-6.2,5,7.7,5,7.7C609.1,1036.1,602.9,1028.6,604.9,1026.2z M593.2,1037.6c1-1.5,3.5-0.5,4.3,0.2
					s3.2,3.9,2.2,5.4c-1,1.5-4.9,0.2-5.7-0.5C593.3,1041.9,592.2,1039,593.2,1037.6z M587.9,1060c0.9-1.6,5.4,0.3,7,1.5
					c1.6,1.1,4.7,4.5,3.8,6.2s-5.4,0.3-7-0.9C590,1065.6,586.9,1061.6,587.9,1060z M586.4,1089.6c-2.2,0.2-5-1.8-4.9-4.7
					c0.1-2.9,3.3-4.7,5.4-4.9c2.2-0.2,6.8,0.9,6.8,3.8C593.7,1086.6,588.6,1089.4,586.4,1089.6z M607.5,1056c-1,0.6-2.7-1.6-3.1-2.7
					c-0.4-1.1-0.4-4.2,0.6-4.8c1-0.6,2.5,1.9,2.8,3C608.2,1052.6,608.5,1055.4,607.5,1056z M618.3,1026.7c-0.4,0.9-1.7,2.6-2.4,2.2
					c-0.7-0.4-0.4-2.7,0-3.6c0.4-0.9,1.9-2.6,2.6-2.2C619.3,1023.4,618.7,1025.8,618.3,1026.7z M622.9,1013.1
					c-1.7,1.3-3-11.1-0.4-10.9C627,1002.6,622.9,1013.1,622.9,1013.1z"/>
				<linearGradient id="SVGID_31_" gradientUnits="userSpaceOnUse" x1="601.8868" y1="1046.4591" x2="672.0641" y2="1046.4591">
					<stop  offset="2.621188e-04" style="stop-color:#125028"/>
					<stop  offset="4.219938e-02" style="stop-color:#16542B"/>
					<stop  offset="0.331" style="stop-color:#2C6C45"/>
					<stop  offset="0.5965" style="stop-color:#3A7F5D"/>
					<stop  offset="0.8281" style="stop-color:#418B6D"/>
					<stop  offset="1" style="stop-color:#449073"/>
				</linearGradient>
				<path class="st40" d="M637,1094c-0.9-0.3-1.5-1.2-1.4-2.3l0,0c0.1-1.5,1.2-2.7,2.5-2.6c29.9,2.4,31.6-25.4,31.6-25.4
					c-9.2,8.5-30.6,9.4-36,9.5c-0.7,0-1.2-0.6-1.1-1.4c0.1-0.8,0.7-1.5,1.4-1.5c16.6,0.2,36.5-13.4,36.5-13.4
					c3.9-12.6-0.5-32.3-0.5-32.3c-15.7,22-33,25.6-36.9,26.1c-0.5,0.1-0.9-0.2-1.1-0.8c-0.3-0.9,0.3-1.9,1.1-1.9
					c18.7-1.9,34.9-29.5,34.9-29.5c0.4-6.8-9.6-19.9-9.6-19.9c-5.7,18.9-18.4,29-22.3,31.7c-0.6,0.4-1.3,0.2-1.6-0.6
					c-0.2-0.6,0.1-1.4,0.6-1.7c13.5-8.8,20.3-32.5,20.3-32.5c-0.5-4.1-4-4.9-7.9-9c-3.4-3.6-8.5-10.6-9.5-12.1c0,0-0.1-0.1-0.1-0.1
					c-0.1,0-0.1,0.1-0.2,0.1l-35.4,115.1c0,0,0,0,0,0.1c-0.2,1.4-4.9,29.9,25.6,29.1c24.2-0.7,34.7-32.2,34.7-32.2
					C651.2,1096.7,640.7,1095.1,637,1094z M636,1036.8c0.8-0.3,2.8-0.2,2.9,0.7c0.2,0.9-1.5,2.1-2.3,2.3c-0.8,0.3-2.8,0.5-3-0.5
					C633.5,1038.5,635.2,1037.1,636,1036.8z M634.1,1016.5c2.6,1.8-5.9,6.2-6.8,4.5C627.4,1020.9,629.7,1013.4,634.1,1016.5z
					 M619.6,1044.1c2-2.4,4.8-4.8,5.3,0c0.2,1.5-1.9,2.8-3.8,3.4C619.3,1048,618.4,1045.7,619.6,1044.1z M615.1,1063
					c0-1.3,2.3-2.3,3.4-2.4s2.3,0.4,2.2,1.7c0,1.3-1.1,2.4-2.1,2.5C617.5,1065,615.1,1064.3,615.1,1063z M619.5,1094.4
					c-1.3,2.1-4.4,2.1-6,0.8s-4-5.9-2.6-8c1.3-2.1,5.4-0.4,6.9,0.8C619.4,1089.3,620.8,1092.3,619.5,1094.4z M621.9,1079.1
					c-1.5,0.6-5.4,0.3-5.7-1.7s2.8-4.4,4.3-4.9c1.5-0.6,5.5-0.9,5.9,1.1C626.7,1075.5,623.5,1078.5,621.9,1079.1z M631.5,1059.6
					c-0.6,0.1-2.7-0.5-2.7-1.5c0-1,2.1-1.7,2.7-1.8c0.6-0.1,2,0.3,2,1.3C633.4,1058.6,632.1,1059.6,631.5,1059.6z"/>
			</g>
			<linearGradient id="SVGID_32_" gradientUnits="userSpaceOnUse" x1="343.862" y1="1010.5579" x2="444.8008" y2="1108.6089">
				<stop  offset="0" style="stop-color:#275B52"/>
				<stop  offset="1" style="stop-color:#112B27"/>
			</linearGradient>
			<path class="st41" d="M312.7,1110c-10.1-2.6-17.8-12.7-17.6-23.1c0.2-10.4,8.1-20.3,18.3-22.6c10.2-2.3,21.6,3.1,26.3,12.4
				c-5.5-12.4-2.1-28.6,8.9-36.5c11-7.9,28.6-5.2,35.6,6.4c8.8-24.9,37.4-41,63.2-35.6c25.8,5.4,45.6,31.6,43.7,57.9
				c-2.8-5.7,2.4-12.4,8.2-15.1c13.4-6.3,31.2-0.3,38.1,12.8c6.9,13.1,1.7,31.2-11.1,38.6c-8.7,5.1-19.2,5.3-29.3,5.4
				c-27.7,0.3-55.4,0.6-83.1,0.9c-34.6,0.4-69.2,0.7-103.6-3.1"/>
			<g>
				
					<linearGradient id="SVGID_33_" gradientUnits="userSpaceOnUse" x1="441.4377" y1="1052.1326" x2="540.1928" y2="995.1163" gradientTransform="matrix(0.9997 -2.309386e-02 2.309386e-02 0.9997 -15.0972 15.9136)">
					<stop  offset="0" style="stop-color:#275B52"/>
					<stop  offset="0.801" style="stop-color:#3D7C3B"/>
				</linearGradient>
				<path class="st42" d="M469.1,1079.2c0.9,0.6,27.7,10.3,35,0.8l-18.2-4.6c0,0,21.7,3.5,25.9-1.9c4.3-5.4,18-23.7,18-23.7
					s-17.7,0-19.7-1c0,0,15.6-0.5,21.2-11.5c5.6-11,5.8-27.8,5.8-27.8l-13.3,4.9c0,0,10.3-5.5,9.2-12.4c-1.1-6.9-7.2-34.3-5.6-37
					c1.6-2.7-17.7,2.7-24.1,8.7c-6.4,6-0.1,17-0.1,17s-9.9-8.2-12-12c-2.1-3.8-14.6,11.3-15.4,12.1c-0.7,0.8,0.7,23.8,2.6,26.5
					c1.9,2.7-11.1-11.4-11.3-15.2c-0.2-3.8-10.5,12.7-9.5,20.4c1,7.7,6.6,22.5,6.6,22.5s-9.7-4.8-11.5-10.7
					C451,1028.7,440,1059.8,469.1,1079.2z"/>
				
					<linearGradient id="SVGID_34_" gradientUnits="userSpaceOnUse" x1="436.6492" y1="1044.5713" x2="535.2028" y2="987.6713" gradientTransform="matrix(0.9997 -2.309386e-02 2.309386e-02 0.9997 -15.0972 15.9136)">
					<stop  offset="0" style="stop-color:#275B52"/>
					<stop  offset="0.801" style="stop-color:#3D7C3B"/>
				</linearGradient>
				<path class="st43" d="M452.4,1034.6c1.7,5.8,11.5,10.7,11.5,10.7s-5.6-14.8-6.6-22.5c-1-7.7,9.3-24.2,9.5-20.4
					c0.2,3.8,13.2,17.9,11.3,15.2c-1.9-2.7-3.4-25.7-2.6-26.5c0.7-0.8,13.2-15.8,15.4-12.1c2.1,3.8,12,12,12,12s-6.3-11,0.1-17
					c5.5-5.2,20.9-10,23.8-9.4l0.4,0.7c0,0-61.9,76.2-56.1,115c-1.3-0.4-2.1-0.8-2.2-0.9C439.6,1059.8,450.6,1028.7,452.4,1034.6z"
					/>
			</g>
			<path class="st18" d="M446.9,932.5c22.4,18.9,29.5,43,31.3,50.9l0.1-2c0.4-6.7,1.1-13.4,2-20c-19.1-21.4-23.5-50.4-23.5-50.4
				c17,18.2,22.3,38.6,23.9,47.3c0.7-4.7,1.4-9.3,2.3-14c0.2-1.1,0.4-2.2,0.6-3.3c-14.9-21.2-16.6-46.8-16.6-46.8
				c13.4,18.3,16.4,36.6,17.1,44.2c0.2-1,0.4-2.1,0.6-3.1c0,0,0,0,0,0c0,0,0,0,0.1-0.1c1-4.6,2.1-9.1,3.3-13.5
				c-14-19.6-15.5-43.6-15.5-43.6c13.2,18.1,15.5,36.2,15.9,42.2c1.1-3.9,2.2-7.7,3.4-11.5c0.6-2,1.3-4,2-5.9
				c-6.5-15.7-4.8-31.1-4.8-31.1c5.9,13.8,5.7,25.3,5.2,29.7c2.4-6.9,5-13.6,8-20.1c1.1-6,4.6-18.7,15.1-30.4
				c0,0-2.7,19.3-15.3,33.6c-1.8,4.1-3.5,8.4-5.1,12.8c1.9-2.8,8.8-11.2,21.7-12.4c0,0-8.3,11.8-22,13.3c-1.3,3.7-2.6,7.5-3.8,11.3
				c-0.7,2.3-1.4,4.6-2.1,7c2.5-3.7,11.5-14.6,28.2-16.1c0,0-10.8,15.4-28.5,17.3c-1.3,4.8-2.6,9.7-3.7,14.6
				c4.3-5.5,15.2-16.8,33.9-18.4c0,0-13.1,18.6-34.6,21.4c-0.7,3.2-1.3,6.4-1.9,9.7c-0.7,3.8-1.3,7.7-1.8,11.5
				c2.8-5.2,14.5-23.7,39.1-29.6c0,0-14,24.4-39.3,30.8c-1.1,8-2,16-2.4,24.1l0,0.5c3.3-7.1,14.6-27.6,39.4-37.6
				c0,0-13,28.4-39.6,39.7l-0.1,2c0,0.8-0.1,1.6-0.1,2.3l0,2.3l-0.2,9.3c-0.1,3.1,0.1,6.2,0.1,9.3l0.3,9.3l-1.9,0.2l-0.2-9.4
				c0-3.1-0.2-6.3-0.1-9.4l0.2-9.4l0.1-2.4c0-0.8,0.1-1.6,0.2-2.4l0-0.6C454.4,964.9,446.9,932.5,446.9,932.5z"/>
			<g>
				
					<linearGradient id="SVGID_35_" gradientUnits="userSpaceOnUse" x1="378.1116" y1="995.2297" x2="527.3487" y2="1087.4338" gradientTransform="matrix(0.9997 -2.309386e-02 2.309386e-02 0.9997 -15.0972 15.9136)">
					<stop  offset="0" style="stop-color:#C7DC60"/>
					<stop  offset="9.260535e-02" style="stop-color:#B3C958"/>
					<stop  offset="0.3925" style="stop-color:#7FA349"/>
					<stop  offset="0.6545" style="stop-color:#5D8D40"/>
					<stop  offset="0.8658" style="stop-color:#46803C"/>
					<stop  offset="1" style="stop-color:#3D7C3B"/>
				</linearGradient>
				<path class="st44" d="M403.2,1073.7c-5.9-7.1-12.6-13.7-16.9-21.9c-4.3-8.2-5.7-18.6-0.8-26.4c4.9-7.8,17.5-10.6,23.6-3.6
					c2.5,2.8,4.8,7.2,8.4,6.3c3.4-0.9,3.6-5.7,2.3-9c-2.2-5.3-6.4-9.5-10.2-13.8c-3.8-4.4-7.3-9.4-7.6-15.2c-0.3-5.7,4-12,9.7-11.9
					c2.1,0,4.3,0.9,6.4,0.5c3.5-0.7,5.3-5,5-8.6c-0.3-3.6-2-6.9-2.8-10.4c-2.7-12.4,9-25.7,21.7-24.6c12.6,1.1,21.9,16.1,17.2,27.9
					c-1.5,3.6-4,6.9-4.8,10.7c-0.8,3.8,0.9,8.8,4.8,9.3c4,0.5,6.8-3.6,10.5-5.2c6.1-2.7,13.4,2.5,15,8.9c1.6,6.4-1,13.2-4.6,18.8
					c-3.5,5.6-8.1,10.6-10.9,16.6c-1,2.1-1.7,4.8-0.1,6.6c2.5,2.8,6.8-0.2,10.1-1.9c8-3.9,18.1,2.2,21.1,10.6
					c3,8.4,0.6,17.8-3.2,25.8l0,0c-6.2,13-15.7,23.8-25.3,34.3c-9.3,10.2-17.4,22.3-27.1,32c-13.6,13.6-15.2-9.4-19.3-19.1
					C420,1097.2,412.5,1084.7,403.2,1073.7z"/>
			</g>
		</g>
		<path class="st45" d="M610.8,1028.3c0.5-0.8-0.8-1.3-1.2-0.6c-22.8,38-40.5,78.2-51.3,121.1c4-48.3,5.4-96.8,3.9-145.3
			c0,0,0,0,0-0.1c7.5-16.1,16.6-31.3,27.4-45.4c0.5-0.7-0.5-1.6-1.1-0.9c-10.3,13.5-19.1,28-26.4,43.4c-0.3-10.5-0.8-21.1-1.4-31.6
			c-1.1-19.5-2.7-38.9-4.6-58.4c-0.1-0.9-1.5-0.8-1.4,0.1c2.1,20.3,3.6,40.6,4.8,61c-6.3-8-12.5-16-18.8-24
			c-0.5-0.7-1.7,0.1-1.1,0.8c6.6,8.5,13.3,17,19.9,25.4c0,0.1,0.1,0.1,0.2,0.1c1.9,36,2.3,72.1,1.1,108.1
			c-12.9-23.4-27.9-45.5-44.9-66.1c-0.6-0.7-1.7,0.1-1.1,0.8c17.5,21.1,32.9,43.9,46,68c-0.4,10.8-0.9,21.6-1.5,32.4
			c-1.1,19.3-2.7,38.5-4.7,57.8c-0.1,0.9,1.3,1.1,1.4,0.2c0.6-6,1.2-12,1.7-18c0.1-0.1,0.2-0.2,0.2-0.3
			C568.2,1111.2,586.6,1068.5,610.8,1028.3z"/>
		<g>
			<path class="st46" d="M717.7,877.1c0,6.7-5.4,12.1-12.1,12.1s-12.1-5.4-12.1-12.1c0-6.7,5.4-12.1,12.1-12.1
				S717.7,870.5,717.7,877.1z"/>
			<path class="st46" d="M320.1,1041.4c0,6.7-5.4,12.1-12.1,12.1s-12.1-5.4-12.1-12.1c0-6.7,5.4-12.1,12.1-12.1
				S320.1,1034.7,320.1,1041.4z"/>
			<circle class="st8" cx="311" cy="972.2" r="9.9"/>
			<circle class="st8" cx="-43.4" cy="891.5" r="9.9"/>
			<circle class="st8" cx="780.2" cy="845.8" r="6.7"/>
			<path class="st2" d="M389.9,902.4c0,5.4-4.4,9.7-9.7,9.7s-9.7-4.4-9.7-9.7c0-5.4,4.4-9.7,9.7-9.7S389.9,897,389.9,902.4z"/>
			<path class="st2" d="M202.6,1040.7c0,5.4-4.4,9.7-9.7,9.7s-9.7-4.4-9.7-9.7c0-5.4,4.4-9.7,9.7-9.7S202.6,1035.3,202.6,1040.7z"/>
			<path class="st2" d="M729.9,1040.7c0,5.4-4.4,9.7-9.7,9.7c-5.4,0-9.7-4.4-9.7-9.7c0-5.4,4.4-9.7,9.7-9.7
				C725.5,1031,729.9,1035.3,729.9,1040.7z"/>
			<path class="st2" d="M458.4,933c0,2.8-2.3,5.1-5.1,5.1s-5.1-2.3-5.1-5.1c0-2.8,2.3-5.1,5.1-5.1S458.4,930.2,458.4,933z"/>
			<path class="st2" d="M729.2,930.1c0,2.8-2.3,5.1-5.1,5.1s-5.1-2.3-5.1-5.1c0-2.8,2.3-5.1,5.1-5.1S729.2,927.3,729.2,930.1z"/>
			<path class="st2" d="M262.5,990.6c0,2.8-2.3,5.1-5.1,5.1s-5.1-2.3-5.1-5.1c0-2.8,2.3-5.1,5.1-5.1S262.5,987.8,262.5,990.6z"/>
			<path class="st2" d="M52.2,993.5c0,2.8-2.3,5.1-5.1,5.1s-5.1-2.3-5.1-5.1c0-2.8,2.3-5.1,5.1-5.1S52.2,990.7,52.2,993.5z"/>
		</g>
	</g>
</g>
</svg>
