<?xml version="1.0" encoding="utf-8"?>
<!-- Generator: Adobe Illustrator 25.1.0, SVG Export Plug-In . SVG Version: 6.00 Build 0)  -->
<svg version="1.1" id="Layer_1" xmlns="http://www.w3.org/2000/svg" xmlns:xlink="http://www.w3.org/1999/xlink" x="0px" y="0px"
	 viewBox="0 0 1055.5 683.8" style="enable-background:new 0 0 1055.5 683.8;" xml:space="preserve">
<style type="text/css">
	.st0{fill:url(#SVGID_1_);}
	.st1{fill:url(#SVGID_2_);}
	.st2{fill:url(#SVGID_3_);}
	.st3{fill:#FFFFFF;}
</style>
<g>
	<g>
		
			<linearGradient id="SVGID_1_" gradientUnits="userSpaceOnUse" x1="34.84" y1="181.1915" x2="1013.55" y2="181.1915" gradientTransform="matrix(1 0 0 -1 0 686)">
			<stop  offset="0.15" style="stop-color:#33A180"/>
			<stop  offset="0.2991" style="stop-color:#319E7E"/>
			<stop  offset="0.4189" style="stop-color:#2F9677"/>
			<stop  offset="0.5285" style="stop-color:#2A896C"/>
			<stop  offset="0.632" style="stop-color:#22775D"/>
			<stop  offset="0.7313" style="stop-color:#16614A"/>
			<stop  offset="0.8261" style="stop-color:#044936"/>
			<stop  offset="0.85" style="stop-color:#004330"/>
		</linearGradient>
		<path class="st0" d="M34.8,379.3c40.8,11.6,45.2,18.4,67.2,18c22.1-1,78.6,0,78.6,0s325,536.2,833-18H34.8z"/>
	</g>
	
		<linearGradient id="SVGID_2_" gradientUnits="userSpaceOnUse" x1="34.84" y1="432.2085" x2="1013.55" y2="432.2085" gradientTransform="matrix(1 0 0 -1 0 686)">
		<stop  offset="0.15" style="stop-color:#C7DC60"/>
		<stop  offset="0.2977" style="stop-color:#C3D75E"/>
		<stop  offset="0.4164" style="stop-color:#B7CC5A"/>
		<stop  offset="0.525" style="stop-color:#A4BE54"/>
		<stop  offset="0.6276" style="stop-color:#8DAD4D"/>
		<stop  offset="0.726" style="stop-color:#709945"/>
		<stop  offset="0.8199" style="stop-color:#4C833D"/>
		<stop  offset="0.85" style="stop-color:#3D7C3B"/>
	</linearGradient>
	<path class="st1" d="M34.8,379.3c28.5-6.1,33.6-16.4,67.2-18c22.1,1,78.6,0,78.6,0s325-536.2,833,18H34.8z"/>
</g>
<radialGradient id="SVGID_3_" cx="488.2064" cy="374.4381" r="257.9078" gradientTransform="matrix(1 0 0 -1 0 686)" gradientUnits="userSpaceOnUse">
	<stop  offset="0" style="stop-color:#FFFFFF;stop-opacity:0.5"/>
	<stop  offset="0.6468" style="stop-color:#FFFFFF;stop-opacity:0"/>
</radialGradient>
<path class="st2" d="M180.6,361.4c0,0-56.5,1-78.6,0c-33.6,1.5-38.7,11.8-67.2,18c40.8,11.6,45.2,18.4,67.2,18c22.1-1,78.6,0,78.6,0
	s325,536.2,833-18C505.5-174.8,180.6,361.4,180.6,361.4z"/>
<g>
	<path d="M347.7,303c0,3-0.4,6.4-1.2,10.1h-25v18.4H354c0.8,3.6,1.2,6.9,1.2,9.8c0,3.2-0.4,6.6-1.2,10.2h-55.3v-93h54.6
		c0.3,1.9,0.6,3.7,0.8,5.3c0.2,1.6,0.3,3.2,0.3,4.7c0,2.8-0.4,6.2-1,10.2h-31.7v14.2h25C347.3,296.7,347.7,300.1,347.7,303z"/>
	<path d="M360.5,318.4c0-5.3,0.7-10.1,2.1-14.4c1.4-4.4,3.5-8.1,6.3-11.2c2.8-3.1,6.3-5.5,10.4-7.2s8.9-2.5,14.4-2.5
		c5.5,0,10.3,0.8,14.5,2.5s7.6,4.1,10.4,7.2c2.8,3.1,4.9,6.8,6.3,11.2c1.4,4.4,2.1,9.2,2.1,14.4c0,5.2-0.7,9.9-2.1,14.2
		s-3.5,7.9-6.3,11s-6.3,5.4-10.4,7c-4.1,1.6-9,2.5-14.5,2.5c-5.4,0-10.2-0.8-14.4-2.5c-4.1-1.6-7.6-4-10.4-7
		c-2.8-3.1-4.9-6.7-6.3-11C361.2,328.3,360.5,323.6,360.5,318.4z M405,318.4c0-5.5-0.9-9.7-2.8-12.7c-1.9-2.9-4.7-4.4-8.5-4.4
		s-6.6,1.5-8.4,4.4s-2.7,7.2-2.7,12.7c0,5.4,0.9,9.6,2.7,12.5c1.8,2.9,4.6,4.4,8.4,4.4c3.8,0,6.6-1.5,8.5-4.4
		C404,328,405,323.8,405,318.4z M389.6,369.5c0.1-2.5,0.4-5.1,0.8-7.8c0.5-2.7,1.1-5.2,2-7.6l35.3,5c-0.1,2.5-0.4,5.1-0.8,7.8
		c-0.5,2.7-1.1,5.2-2,7.6L389.6,369.5z"/>
	<path d="M496.9,348.4c-1.5,0.5-3.2,1-5.2,1.5s-4.2,1-6.5,1.5c-2.3,0.5-4.6,0.8-7,1.1c-2.4,0.3-4.8,0.4-7.1,0.4
		c-4.4,0-8.6-0.4-12.7-1c-4-0.7-7.6-2.1-10.7-4.2c-3.1-2.1-5.5-5.2-7.3-9.2c-1.8-4-2.7-9.4-2.7-16.1v-37.8c1.9-0.4,3.8-0.7,5.6-0.9
		c1.9-0.2,3.6-0.3,5.4-0.3c1.6,0,3.4,0.1,5.3,0.3s3.8,0.5,5.6,0.9v36c0,5.2,0.9,8.7,2.6,10.6c1.7,1.9,4.4,2.8,7.9,2.8
		c1.5,0,2.6,0,3.4-0.1c0.8-0.1,1.3-0.2,1.7-0.3v-49c1.9-0.4,3.8-0.7,5.6-0.9c1.9-0.2,3.6-0.3,5.4-0.3c1.6,0,3.4,0.1,5.3,0.3
		s3.8,0.5,5.6,0.9L496.9,348.4L496.9,348.4z"/>
	<path d="M533.2,351.4c-2.2,0.3-4.3,0.6-6.1,0.8c-1.8,0.2-3.5,0.3-4.9,0.3c-1.5,0-3.1-0.1-4.9-0.3s-3.8-0.4-6-0.8v-66.7
		c1.9-0.4,3.8-0.7,5.6-0.9c1.8-0.2,3.6-0.3,5.4-0.3c1.6,0,3.4,0.1,5.3,0.3c1.9,0.2,3.8,0.5,5.6,0.9V351.4z"/>
	<path d="M569.6,333.3H594c0.4,1.7,0.7,3.3,0.8,4.8c0.1,1.5,0.2,2.9,0.2,4.3c0,1.4-0.1,2.8-0.2,4.3c-0.1,1.5-0.4,3.1-0.8,4.9h-46.3
		l0.1-66.9c1.9-0.4,3.8-0.7,5.6-0.9c1.8-0.2,3.6-0.3,5.4-0.3c1.6,0,3.4,0.1,5.3,0.3c1.9,0.2,3.8,0.5,5.6,0.9L569.6,333.3z"/>
	<path d="M626.1,351.4c-2.2,0.3-4.3,0.6-6.1,0.8c-1.8,0.2-3.5,0.3-4.9,0.3c-1.5,0-3.1-0.1-4.9-0.3s-3.8-0.4-6-0.8v-66.7
		c1.9-0.4,3.8-0.7,5.6-0.9c1.8-0.2,3.6-0.3,5.4-0.3c1.6,0,3.4,0.1,5.3,0.3c1.9,0.2,3.8,0.5,5.6,0.9V351.4z"/>
	<path d="M640.6,284.9c1.7-0.3,3.7-0.5,6-0.7s4.5-0.4,6.8-0.6c2.3-0.2,4.6-0.3,6.8-0.4c2.2-0.1,4.1-0.1,5.8-0.1
		c10.8,0,18.8,1.5,24.2,4.6c5.3,3.1,8,7.8,8,14.3c0,3.3-0.8,6.1-2.3,8.3c-1.5,2.3-3.6,4.2-6.1,5.9c3.6,1.3,6.6,3.1,8.9,5.6
		c2.3,2.4,3.5,5.8,3.5,10.2c0,7.9-2.9,13.4-8.8,16.5s-14.5,4.6-26,4.6c-3,0-7-0.1-11.8-0.3c-4.9-0.2-9.8-0.7-14.9-1.4L640.6,284.9
		L640.6,284.9z M662.2,310.3h6.3c3.3,0,5.5-0.7,6.6-2.1c1.1-1.4,1.7-2.9,1.7-4.5c0-1.5-0.6-2.8-1.8-4.1c-1.2-1.2-3.3-1.9-6.4-1.9
		c-1,0-2,0-3.3,0.1s-2.3,0.1-3.2,0.2L662.2,310.3L662.2,310.3z M662.2,323.8v13.3c0.3,0,1,0,2.1,0.1s2.6,0.1,4.5,0.1
		c3.6,0,6.2-0.6,7.8-1.8s2.3-2.9,2.3-5c0-0.9-0.2-1.7-0.5-2.5c-0.3-0.8-0.8-1.5-1.6-2.1c-0.8-0.6-1.8-1.1-3.2-1.5
		c-1.4-0.4-3.2-0.6-5.4-0.6L662.2,323.8L662.2,323.8z"/>
	<path d="M713.2,284.9c4-0.5,8.2-1,12.6-1.3c4.3-0.3,8.5-0.5,12.3-0.5c10.4,0,18.2,2,23.5,5.9c5.2,3.9,7.8,9.4,7.8,16.5
		c0,2.7-0.3,5-0.9,7c-0.6,2-1.3,3.7-2.2,5.1c-0.9,1.4-1.8,2.6-2.7,3.4c-1,0.9-1.7,1.5-2.3,2.1l14.7,28.2c-1.7,0.3-3.6,0.6-5.8,0.8
		c-2.1,0.2-4.2,0.3-6.1,0.3c-2.4,0-4.7-0.1-7-0.3s-4.1-0.4-5.6-0.8l-14.3-30.5l1.8-1c3-1.7,5.1-3.6,6.2-5.5s1.7-4,1.7-6.3
		s-0.7-4.1-2-5.5c-1.3-1.4-3.5-2.1-6.4-2.1c-1.6,0-2.9,0.1-3.8,0.3v50.8c-2.2,0.4-4.3,0.7-6.1,0.8s-3.4,0.2-4.8,0.2
		c-1.5,0-3.1-0.1-4.8-0.2s-3.7-0.4-6-0.8L713.2,284.9L713.2,284.9z"/>
	<path d="M806.1,351.4c-2.2,0.3-4.3,0.6-6.1,0.8c-1.8,0.2-3.5,0.3-4.9,0.3c-1.5,0-3.1-0.1-4.9-0.3s-3.8-0.4-6-0.8v-66.7
		c1.9-0.4,3.8-0.7,5.6-0.9c1.8-0.2,3.6-0.3,5.4-0.3c1.6,0,3.4,0.1,5.3,0.3c1.9,0.2,3.8,0.5,5.6,0.9V351.4z"/>
	<path d="M817.3,318.4c0-5.3,0.7-10.1,2.1-14.4c1.4-4.4,3.5-8.1,6.3-11.2c2.8-3.1,6.3-5.5,10.4-7.2c4.1-1.7,8.9-2.5,14.3-2.5
		c5.5,0,10.3,0.8,14.5,2.5c4.1,1.7,7.6,4.1,10.4,7.2c2.8,3.1,4.9,6.8,6.3,11.2c1.4,4.4,2.1,9.2,2.1,14.4c0,5.2-0.7,9.9-2.1,14.2
		s-3.5,7.9-6.3,11c-2.8,3.1-6.3,5.4-10.4,7c-4.1,1.6-9,2.5-14.5,2.5c-5.4,0-10.2-0.8-14.3-2.5c-4.1-1.6-7.6-4-10.4-7
		s-4.9-6.7-6.3-11C818,328.3,817.3,323.6,817.3,318.4z M861.8,318.4c0-5.5-0.9-9.7-2.8-12.7c-1.8-2.9-4.7-4.4-8.5-4.4
		s-6.6,1.5-8.4,4.4c-1.8,2.9-2.7,7.2-2.7,12.7c0,5.4,0.9,9.6,2.7,12.5c1.8,2.9,4.6,4.4,8.4,4.4c3.8,0,6.6-1.5,8.5-4.4
		C860.9,328,861.8,323.8,861.8,318.4z"/>
</g>
<g>
	<path class="st3" d="M298.5,109.6l38.1-23.3c1,1.2,2,2.3,2.8,3.4s1.5,2.1,2.2,3.1c1.2,2,2.4,4.5,3.6,7.6l-22.1,13.5l6.7,11
		l17.4-10.7c2.2,2.4,3.9,4.6,5.1,6.5c1.2,2.1,2.4,4.6,3.5,7.6l-17.4,10.7l15.5,25.4c-2.9,2.5-5.3,4.4-7.5,5.7
		c-2.2,1.4-5.1,2.7-8.5,4.1L298.5,109.6z"/>
	<path class="st3" d="M421.9,126.9c-0.9,0.9-2,1.9-3.4,3c-1.3,1.1-2.8,2.2-4.3,3.3s-3.1,2.2-4.9,3.2s-3.4,1.9-5.1,2.7
		c-3.3,1.5-6.5,2.7-9.8,3.6s-6.4,1.1-9.4,0.6c-3-0.5-5.9-1.9-8.6-4.3s-5.2-6-7.6-11l-13-28c1.3-1,2.5-1.8,3.9-2.6
		c1.3-0.8,2.6-1.4,3.9-2c1.2-0.6,2.6-1.1,4-1.6s3-0.9,4.4-1.2l12.4,26.7c1.8,3.8,3.6,6.2,5.6,7c1.9,0.8,4.2,0.6,6.8-0.6
		c1.1-0.5,1.9-0.9,2.5-1.2c0.5-0.3,0.9-0.6,1.2-0.8l-16.9-36.4c1.3-1,2.5-1.8,3.9-2.6c1.3-0.8,2.6-1.4,3.9-2c1.2-0.6,2.6-1.1,4-1.6
		c1.5-0.5,3-0.9,4.4-1.2L421.9,126.9z"/>
	<path class="st3" d="M437.8,65.4c2.8-0.7,5.6-1.2,8.5-1.5c2.9-0.3,5.6,0,8.3,0.7c1.5-1.3,3.4-2.7,5.6-4s4.8-2.4,7.8-3.2
		c2.7-0.7,5.5-1.2,8.4-1.4c3-0.2,5.8,0.2,8.5,1.2c2.7,1,5.2,2.9,7.5,5.6c2.3,2.7,4.1,6.6,5.4,11.6l8.1,30.6
		c-1.7,0.8-3.2,1.4-4.6,1.9c-1.4,0.5-2.7,0.9-3.8,1.2c-1.2,0.3-2.5,0.6-3.9,0.9c-1.5,0.3-3.1,0.5-5,0.6L481,80.8
		c-1-3.6-2.2-6.1-3.9-7.3s-3.9-1.5-6.7-0.8c-1,0.2-1.9,0.6-2.7,1.1s-1.5,0.8-1.8,1c1.2,2.2,2.3,4.9,3.1,7.9l7.9,29.9
		c-1.7,0.8-3.2,1.4-4.6,1.9c-1.4,0.5-2.7,0.9-3.8,1.2c-1.2,0.3-2.5,0.6-3.9,0.9c-1.5,0.3-3.1,0.5-5,0.6l-7.6-28.8
		c-1-3.6-2.2-6.1-3.8-7.3c-1.6-1.3-3.8-1.5-6.6-0.8c-0.8,0.2-1.5,0.5-2.4,0.8c-0.8,0.4-1.3,0.6-1.5,0.8l10.1,38.3
		c-1.7,0.8-3.2,1.4-4.6,1.9s-2.7,0.9-3.8,1.2c-1.2,0.3-2.5,0.6-3.9,0.9c-1.5,0.3-3.1,0.5-5,0.6l-13.2-50.2c2.2-1.4,4.8-3,8-4.7
		C428.5,68.2,432.7,66.7,437.8,65.4z"/>
	<path class="st3" d="M532.6,103.7c-1.8,0.5-3.4,0.9-4.9,1.2s-2.8,0.5-4,0.6c-1.2,0.1-2.5,0.2-4,0.2c-1.5,0-3.1,0-4.9-0.1L509,51.3
		c1.5-0.5,3-0.9,4.5-1.2c1.5-0.3,2.9-0.5,4.3-0.7c1.3-0.1,2.8-0.2,4.3-0.2s3.1,0.1,4.6,0.2L532.6,103.7z"/>
	<path class="st3" d="M567.9,103.9c-5.1,0-9.4-0.8-13-2.3s-6.5-3.6-8.7-6.2s-3.9-5.7-4.9-9.2s-1.5-7.3-1.5-11.3
		c0-3.9,0.6-7.6,1.9-11c1.2-3.5,3.1-6.5,5.5-9s5.5-4.5,9.1-6s7.8-2.2,12.5-2.2c2.5,0,5.2,0.3,8.2,0.9c3,0.6,6.2,1.6,9.7,3
		c-0.1,1.2-0.2,2.3-0.4,3.4s-0.5,2.1-0.8,3.2c-0.3,1.1-0.7,2.3-1.2,3.5c-0.5,1.2-1,2.6-1.7,4.2c-2.4-1-4.6-1.7-6.7-2.2
		c-2-0.5-3.8-0.7-5.3-0.7c-2.3,0-4.3,0.3-5.9,1c-1.6,0.7-2.9,1.7-3.9,2.8s-1.7,2.6-2.2,4.2c-0.5,1.6-0.7,3.2-0.7,4.9
		c0,4.7,1,8.2,3,10.4s5,3.3,9,3.4l1.9,0l0-15.6c1.8-0.3,3.3-0.6,4.7-0.7c1.4-0.1,2.7-0.2,4-0.2c2.5,0,5.4,0.3,8.8,1l-0.1,26.9
		c-2,0.8-4.9,1.6-8.6,2.5C577.1,103.5,572.8,103.9,567.9,103.9z"/>
	<path class="st3" d="M596.5,85.4c0.5-3.4,1.6-6.2,3.4-8.2c1.8-2,3.9-3.5,6.4-4.5c2.5-1,5.2-1.6,8-1.7c2.9-0.1,5.6,0,8.3,0.4
		l6.4,0.9c0.1-1.3-0.1-2.4-0.6-3.3c-0.5-0.9-1.2-1.7-2.1-2.3c-0.9-0.6-2-1.1-3.1-1.4c-1.2-0.3-2.4-0.6-3.6-0.8
		c-1.7-0.2-3.7-0.3-6-0.3c-2.3,0.1-4.7,0.3-7.2,0.8c-0.5-1.3-0.8-2.4-1.2-3.5c-0.3-1-0.5-2.1-0.6-3.1s-0.1-2.1-0.1-3.2
		c0-1.1,0.2-2.3,0.4-3.7c3.5-0.6,7-1,10.4-1.1s6.4,0.1,9.1,0.4c3.6,0.5,6.8,1.4,9.7,2.7s5.1,3,6.9,5.1c1.8,2.1,3.1,4.7,3.8,7.7
		c0.7,3,0.8,6.4,0.2,10.3l-4.4,30.7c-2.8,0.4-6.1,0.7-10,0.9c-3.9,0.2-7.9,0.1-12.1-0.6c-3.6-0.5-6.9-1.3-9.9-2.4
		c-2.9-1.1-5.4-2.5-7.3-4.3c-2-1.8-3.4-4-4.2-6.5C596.1,91.9,596,88.9,596.5,85.4z M620.3,94.8c0.6,0.1,1.5,0.2,2.8,0.2
		s2.1,0,2.7-0.1l1.6-11.5l-6-0.8c-2.5-0.3-4.6-0.1-6.4,0.7c-1.8,0.8-2.9,2.2-3.1,4c-0.2,1.4,0,2.5,0.5,3.4c0.5,0.9,1.2,1.6,2.1,2.2
		c0.9,0.6,1.9,1,2.9,1.3C618.5,94.4,619.4,94.6,620.3,94.8z"/>
	<path class="st3" d="M682.2,62.6c5.5,1.5,10,3.5,13.6,5.9s6.2,5.1,8.1,8.2s2.9,6.4,3.1,10.1c0.2,3.7-0.2,7.5-1.4,11.6
		c-1.2,4.3-2.9,8-5,11.1c-2.2,3.1-4.8,5.6-8.1,7.3s-7.1,2.7-11.5,2.9c-4.4,0.2-9.5-0.5-15.2-2.1c-3.3-0.9-6.3-1.9-8.8-2.8
		s-5.2-2.1-7.9-3.3L663.7,59c3,0.5,6.1,1,9.3,1.6C676.3,61.1,679.4,61.8,682.2,62.6z M670,102.9c0.3,0.1,0.6,0.2,1,0.4
		s1.1,0.4,2,0.7c3.8,1.1,6.9,0.8,9.4-0.8s4.4-4.9,5.8-9.8c1.2-4.3,1.2-7.8-0.1-10.3c-1.3-2.5-3.6-4.2-7-5.2
		c-0.8-0.2-1.6-0.4-2.3-0.5c-0.7-0.1-1.2-0.2-1.6-0.2L670,102.9z"/>
	<path class="st3" d="M712.6,101.6c1.7-4,3.7-7.4,6.1-10.2c2.4-2.8,5.2-5,8.3-6.5c3.1-1.5,6.5-2.2,10.1-2.2c3.7,0,7.5,0.9,11.6,2.6
		c4.2,1.7,7.5,3.9,10.2,6.5c2.6,2.6,4.5,5.5,5.6,8.7c1.1,3.2,1.6,6.7,1.3,10.4c-0.3,3.7-1.3,7.6-2.9,11.6c-1.6,3.9-3.7,7.3-6.1,10
		s-5.2,4.9-8.2,6.3c-3.1,1.4-6.4,2.1-10.1,2.1s-7.5-1-11.7-2.7c-4.1-1.7-7.5-3.8-10.1-6.4s-4.5-5.4-5.7-8.6
		c-1.2-3.2-1.6-6.6-1.3-10.3S711,105.6,712.6,101.6z M746.2,115.6c1.7-4.2,2.4-7.7,1.9-10.4c-0.5-2.8-2.2-4.8-5-6s-5.5-1-7.7,0.7
		c-2.3,1.7-4.3,4.6-6,8.7c-1.7,4.1-2.3,7.6-1.9,10.3s2.1,4.8,5,6s5.5,1,7.8-0.7C742.5,122.6,744.5,119.7,746.2,115.6z"/>
	<path class="st3" d="M785,103.1c3.1,1.2,6.3,2.5,9.6,4s6.3,2.9,9.1,4.4c7.5,4.1,12.4,8.5,14.6,13.4c2.2,4.9,2,9.8-0.8,14.9
		c-1,1.9-2.2,3.5-3.4,4.7c-1.2,1.2-2.4,2.1-3.6,2.8c-1.2,0.7-2.3,1.2-3.3,1.4c-1,0.2-1.8,0.4-2.5,0.6l-0.4,26
		c-1.4-0.4-2.9-1-4.4-1.7c-1.6-0.7-3.1-1.4-4.5-2.2c-1.7-0.9-3.4-1.9-4.9-2.9c-1.5-1-2.8-1.9-3.7-2.7l1.6-27.6l1.7,0
		c2.8-0.1,5-0.6,6.6-1.5s2.8-2.2,3.7-3.9c0.9-1.6,1.1-3.2,0.7-4.7c-0.4-1.5-1.7-2.9-3.8-4c-1.2-0.6-2.1-1.1-2.8-1.3l-19.8,36.6
		c-1.8-0.6-3.3-1.1-4.7-1.8s-2.5-1.2-3.5-1.7c-1.1-0.6-2.2-1.2-3.4-2c-1.2-0.8-2.5-1.7-4-2.9L785,103.1z"/>
	<path class="st3" d="M815.6,161.7c1.9-2.9,4.1-4.9,6.5-6c2.5-1.1,5-1.5,7.7-1.4c2.7,0.1,5.3,0.8,8,1.9s5.1,2.4,7.3,3.9l5.4,3.5
		c0.6-1.1,0.9-2.2,0.8-3.2c-0.1-1.1-0.4-2.1-1-3c-0.6-0.9-1.3-1.8-2.2-2.6c-0.9-0.8-1.9-1.6-3-2.2c-1.4-0.9-3.2-1.9-5.3-2.8
		c-2.1-0.9-4.4-1.7-6.9-2.3c0.1-1.4,0.3-2.6,0.4-3.6c0.2-1.1,0.4-2.1,0.8-3.1c0.3-1,0.8-2,1.3-2.9c0.5-1,1.2-2.1,1.9-3.2
		c3.5,0.9,6.7,2,9.8,3.4c3.1,1.4,5.8,2.8,8,4.2c3.1,2,5.6,4.2,7.6,6.6s3.4,4.9,4.1,7.6s0.8,5.5,0.2,8.5s-2,6.2-4.2,9.5l-17,25.9
		c-2.7-0.8-5.8-1.9-9.4-3.4s-7.2-3.3-10.7-5.6c-3.1-2-5.7-4.1-7.9-6.4s-3.8-4.6-4.8-7s-1.4-5-1.1-7.7
		C812.5,167.5,813.7,164.7,815.6,161.7z M833.3,180.3c0.5,0.4,1.3,0.8,2.4,1.3c1.1,0.5,1.9,0.9,2.5,1.1l6.4-9.7l-5-3.3
		c-2.1-1.4-4.1-2.1-6.1-2.1c-2,0-3.5,0.7-4.6,2.3c-0.8,1.2-1.1,2.3-1,3.3c0.1,1,0.4,2,1,2.9c0.6,0.9,1.3,1.7,2.1,2.4
		C831.7,179.2,832.5,179.8,833.3,180.3z"/>
</g>
<g>
	<g>
		<path class="st3" d="M312.4,496.7c-1.5-0.7-2.8-1.4-4-2c-1.2-0.6-2.3-1.3-3.4-2c-1-0.7-2.2-1.6-3.5-2.7c-1.3-1.1-2.6-2.4-4.1-3.8
			l62.2-49c1.6,0.9,3.1,1.7,4.5,2.5s2.8,1.6,4.1,2.5c1.1,0.8,2.3,1.6,3.5,2.6c1.2,1,2.6,2.2,4.2,3.5l-23.4,75.7
			c-3.7-1.8-6.8-3.5-9.3-5.2c-1.2-0.8-2.3-1.7-3.4-2.6c-1.1-0.9-2.2-2-3.4-3.1l5-14.4c-2-0.6-3.8-1.4-5.4-2.1
			c-1.6-0.8-3.2-1.7-4.6-2.7c-1.3-0.9-2.6-2-3.9-3.1c-1.3-1.2-2.5-2.5-3.7-3.9L312.4,496.7z M356.2,459L335,477.4
			c0.8,1,1.6,1.8,2.3,2.6c0.8,0.8,1.6,1.5,2.5,2.1c1,0.7,2,1.3,3.1,1.8s2.2,1,3.5,1.4L356.2,459z"/>
		<path class="st3" d="M411.4,492.2c2.6,1.2,5.2,2.6,7.5,4.1c2.4,1.6,4.4,3.5,6,5.8c2-0.1,4.3,0,6.9,0.4c2.5,0.4,5.2,1.2,8.1,2.5
			c2.5,1.1,5,2.5,7.5,4.2c2.5,1.7,4.4,3.8,5.9,6.3s2.2,5.5,2.3,9c0.1,3.5-0.9,7.7-3.1,12.4l-12.9,28.9c-1.8-0.4-3.4-0.9-4.8-1.4
			c-1.4-0.5-2.6-1-3.6-1.5c-1.1-0.5-2.3-1.1-3.6-1.8c-1.3-0.7-2.7-1.6-4.3-2.7l12.1-27.2c1.5-3.4,2-6.1,1.5-8.1s-2.1-3.6-4.7-4.8
			c-0.9-0.4-1.8-0.7-2.8-0.9s-1.6-0.3-2-0.3c-0.4,2.5-1.3,5.2-2.6,8.1l-12.6,28.2c-1.8-0.4-3.4-0.9-4.8-1.4s-2.6-1-3.6-1.5
			c-1.1-0.5-2.3-1.1-3.6-1.8s-2.7-1.6-4.3-2.7l12.1-27.2c1.5-3.4,2.1-6.1,1.6-8.1s-2-3.5-4.6-4.7c-0.7-0.3-1.5-0.6-2.4-0.8
			s-1.4-0.3-1.7-0.3l-16.1,36.1c-1.8-0.4-3.4-0.9-4.8-1.4s-2.6-1-3.6-1.5c-1.1-0.5-2.3-1.1-3.6-1.8s-2.7-1.6-4.3-2.7l21.2-47.5
			c2.6,0.2,5.6,0.7,9.1,1.4C402.4,488.6,406.5,490.1,411.4,492.2z"/>
		<path class="st3" d="M475.8,519.3c1.4,0.1,3,0.3,4.9,0.5c1.8,0.2,3.7,0.5,5.6,0.7c1.9,0.3,3.7,0.6,5.5,0.9
			c1.8,0.3,3.3,0.6,4.6,0.9c8.6,1.9,14.8,4.5,18.5,7.9c3.7,3.4,5,7.7,3.9,12.8c-0.6,2.6-1.7,4.7-3.3,6.3c-1.6,1.6-3.6,2.8-5.9,3.6
			c2.7,1.7,4.7,3.7,6.2,6c1.4,2.3,1.8,5.3,1,8.8c-1.4,6.3-4.7,10.2-9.9,11.6c-5.2,1.4-12.4,1.1-21.6-0.9c-2.4-0.5-5.5-1.3-9.4-2.3
			c-3.9-1-7.8-2.3-11.7-3.7L475.8,519.3z M486.2,554.2l-2.3,10.7c0.2,0,0.8,0.2,1.6,0.5c0.9,0.3,2.1,0.6,3.6,0.9
			c2.9,0.6,5.1,0.6,6.5-0.1c1.5-0.7,2.4-1.9,2.8-3.6c0.1-0.7,0.2-1.4,0.1-2.1c-0.1-0.7-0.4-1.4-0.9-2c-0.5-0.6-1.3-1.2-2.3-1.8
			c-1-0.5-2.5-1-4.2-1.4L486.2,554.2z M488.6,543.3l5.1,1.1c2.6,0.6,4.5,0.4,5.6-0.5c1.1-0.9,1.9-2,2.1-3.3c0.3-1.2,0-2.4-0.7-3.6
			s-2.3-2.1-4.8-2.6c-0.8-0.2-1.6-0.3-2.6-0.5c-1-0.2-1.9-0.3-2.6-0.4L488.6,543.3z"/>
		<path class="st3" d="M549.3,586.3c-1.8,0.1-3.5,0.2-5,0.2c-1.5,0-2.8,0-4-0.1s-2.5-0.3-4-0.5c-1.5-0.3-3.1-0.6-4.8-1l4.5-54.4
			c1.6-0.2,3.1-0.3,4.7-0.3c1.5,0,3,0,4.4,0.2c1.3,0.1,2.8,0.3,4.3,0.6c1.5,0.3,3,0.6,4.5,1.1L549.3,586.3z"/>
		<path class="st3" d="M584.3,565.3c0.9,2.8,2.4,4.8,4.4,5.9c2,1.1,4.6,1.6,7.8,1.4c2-0.1,4.3-0.5,6.8-1.1c2.5-0.6,5-1.5,7.4-2.6
			c1.1,1.8,2,3.9,2.9,6.4c0.9,2.5,1.4,5.1,1.6,7.9c-6.2,2.6-12.5,4.1-19.1,4.4c-5.1,0.2-9.5-0.2-13.2-1.5c-3.7-1.2-6.8-3-9.2-5.4
			s-4.2-5.3-5.5-8.7s-2-7.2-2.2-11.2c-0.2-4,0.2-7.8,1.2-11.4s2.5-6.7,4.6-9.4c2.1-2.7,4.8-4.9,8.2-6.6c3.3-1.7,7.2-2.6,11.7-2.8
			c3.7-0.2,7.1,0.3,10.1,1.4c3,1.1,5.5,2.8,7.7,4.9c2.2,2.1,3.8,4.7,5.1,7.8c1.2,3.1,2,6.5,2.1,10.1c0.1,1.9,0.1,3.6,0,5.1
			c-0.1,1.5-0.2,2.8-0.3,3.8L584.3,565.3z M591.8,544c-2.3,0.1-4.2,0.9-5.7,2.4c-1.5,1.5-2.4,3.7-2.5,6.7l16.9-0.8
			c-0.3-2.5-1.1-4.5-2.6-6.1C596.4,544.7,594.4,543.9,591.8,544z"/>
		<path class="st3" d="M648,523.2c3-0.7,6.1-1.1,9.3-1.2c3.2-0.2,6.1,0.3,8.9,1.4s5.3,3,7.6,5.8s3.9,6.7,5,11.8l6.8,30.9
			c-1.7,0.7-3.3,1.3-4.7,1.7c-1.4,0.4-2.7,0.8-3.8,1c-1.2,0.3-2.5,0.5-4,0.7s-3.1,0.3-5,0.4l-6.4-29c-0.8-3.7-2.1-6.1-3.8-7.4
			s-4-1.6-6.8-1c-0.8,0.2-1.5,0.4-2.4,0.7c-0.8,0.3-1.3,0.6-1.5,0.8l8.5,38.7c-1.7,0.7-3.3,1.3-4.7,1.7c-1.4,0.4-2.7,0.8-3.8,1
			c-1.2,0.3-2.5,0.5-4,0.7s-3.1,0.3-5,0.4l-11.2-50.8c2.2-1.4,5-2.8,8.2-4.4C638.6,525.7,642.8,524.4,648,523.2z"/>
		<path class="st3" d="M702.2,524.4l-14.7,5.6c-0.8-1.2-1.5-2.3-2-3.5s-1-2.2-1.4-3.3c-0.4-1-0.8-2.2-1.1-3.3
			c-0.3-1.2-0.6-2.5-0.8-3.9l46-17.5c0.8,1.2,1.5,2.3,2,3.4c0.5,1.1,1,2.2,1.4,3.2c0.4,1.1,0.8,2.2,1.1,3.4c0.3,1.2,0.6,2.5,0.8,4
			l-14.7,5.6l14.1,37.1c-1.6,0.9-3.1,1.7-4.4,2.4c-1.3,0.7-2.6,1.2-3.7,1.6c-1.1,0.4-2.4,0.8-3.8,1.2c-1.4,0.4-3,0.8-4.8,1.1
			L702.2,524.4z"/>
		<path class="st3" d="M751.6,528.3c-1.6-3.1-2.3-5.9-2-8.6c0.3-2.7,1.1-5.2,2.5-7.4c1.4-2.3,3.3-4.3,5.5-6.1s4.6-3.3,6.9-4.5l5.7-3
			c-0.7-1.1-1.5-1.9-2.4-2.3c-1-0.5-2-0.6-3.1-0.6s-2.2,0.3-3.3,0.7c-1.1,0.4-2.3,0.9-3.4,1.5c-1.5,0.8-3.2,1.9-5,3.3
			c-1.8,1.4-3.6,3-5.3,4.9c-1.1-0.8-2.1-1.5-3-2.1s-1.7-1.4-2.3-2.2c-0.7-0.8-1.3-1.6-2-2.6c-0.6-0.9-1.2-2-1.9-3.2
			c2.5-2.6,5.1-4.9,7.8-7c2.7-2.1,5.2-3.7,7.6-5c3.2-1.7,6.4-2.9,9.4-3.5c3-0.6,5.9-0.6,8.6,0.1c2.7,0.7,5.2,2,7.5,4
			c2.3,2,4.4,4.8,6.3,8.2l14.4,27.4c-2,1.9-4.5,4.1-7.5,6.6s-6.4,4.7-10.1,6.7c-3.2,1.7-6.4,3-9.4,3.8s-5.9,1.1-8.5,0.8
			c-2.6-0.3-5-1.2-7.3-2.8C755.1,533.8,753.2,531.4,751.6,528.3z M776.4,521.9c0.6-0.3,1.3-0.8,2.3-1.5c1-0.7,1.7-1.2,2.1-1.6
			l-5.4-10.3l-5.3,2.8c-2.2,1.2-3.8,2.6-4.8,4.3c-1,1.7-1.1,3.4-0.2,5.1c0.7,1.2,1.5,2.1,2.4,2.5s1.9,0.6,3,0.5s2.1-0.3,3.1-0.7
			C774.7,522.7,775.6,522.3,776.4,521.9z"/>
		<path class="st3" d="M823.3,490.7l16.7-11c1.1,1,2,2,2.7,2.9c0.8,1,1.4,1.9,2,2.8c0.6,0.9,1.2,2,1.8,3c0.6,1.1,1.1,2.3,1.6,3.7
			L816.6,513l-30-45.8c1.1-1.1,2.2-2.2,3.4-3.1c1.2-1,2.4-1.8,3.5-2.6c1.1-0.7,2.4-1.5,3.7-2.2c1.4-0.7,2.8-1.4,4.2-1.9L823.3,490.7
			z"/>
	</g>
</g>
</svg>
