<?xml version="1.0" encoding="utf-8"?>
<!-- Generator: Adobe Illustrator 25.1.0, SVG Export Plug-In . SVG Version: 6.00 Build 0)  -->
<svg version="1.1" id="Layer_1" xmlns="http://www.w3.org/2000/svg" xmlns:xlink="http://www.w3.org/1999/xlink" x="0px" y="0px"
	 viewBox="0 0 1055.5 683.75" style="enable-background:new 0 0 1055.5 683.75;" xml:space="preserve">
<style type="text/css">
	.st0{fill:url(#SVGID_1_);}
	.st1{fill:url(#SVGID_2_);}
	.st2{fill:url(#SVGID_3_);}
	.st3{fill:#FFFFFF;}
</style>
<g>
	<g>
		<linearGradient id="SVGID_1_" gradientUnits="userSpaceOnUse" x1="34.8358" y1="504.8112" x2="1013.5516" y2="504.8112">
			<stop  offset="0.15" style="stop-color:#33A180"/>
			<stop  offset="0.2991" style="stop-color:#319E7E"/>
			<stop  offset="0.4189" style="stop-color:#2F9677"/>
			<stop  offset="0.5285" style="stop-color:#2A896C"/>
			<stop  offset="0.632" style="stop-color:#22775D"/>
			<stop  offset="0.7313" style="stop-color:#16614A"/>
			<stop  offset="0.8261" style="stop-color:#044936"/>
			<stop  offset="0.85" style="stop-color:#004330"/>
		</linearGradient>
		<path class="st0" d="M34.84,379.3c40.81,11.57,45.19,18.43,67.17,17.95c22.1-0.97,78.56,0,78.56,0s324.98,536.17,832.98-17.95
			H34.84z"/>
	</g>
	<linearGradient id="SVGID_2_" gradientUnits="userSpaceOnUse" x1="34.8358" y1="253.7942" x2="1013.5516" y2="253.7942">
		<stop  offset="0.15" style="stop-color:#C7DC60"/>
		<stop  offset="0.2977" style="stop-color:#C3D75E"/>
		<stop  offset="0.4164" style="stop-color:#B7CC5A"/>
		<stop  offset="0.525" style="stop-color:#A4BE54"/>
		<stop  offset="0.6276" style="stop-color:#8DAD4D"/>
		<stop  offset="0.726" style="stop-color:#709945"/>
		<stop  offset="0.8199" style="stop-color:#4C833D"/>
		<stop  offset="0.85" style="stop-color:#3D7C3B"/>
	</linearGradient>
	<path class="st1" d="M34.84,379.3c28.47-6.12,33.58-16.4,67.17-17.95c22.1,0.97,78.56,0,78.56,0s324.98-536.17,832.98,17.95
		L34.84,379.3z"/>
</g>
<radialGradient id="SVGID_3_" cx="488.2064" cy="311.5619" r="257.9078" gradientUnits="userSpaceOnUse">
	<stop  offset="0" style="stop-color:#FFFFFF;stop-opacity:0.5"/>
	<stop  offset="0.6468" style="stop-color:#FFFFFF;stop-opacity:0"/>
</radialGradient>
<path class="st2" d="M180.57,361.35c0,0-56.47,0.97-78.56,0c-33.59,1.55-38.7,11.83-67.17,17.95
	c40.81,11.57,45.19,18.43,67.17,17.95c22.1-0.97,78.56,0,78.56,0s324.98,536.17,832.98-17.95
	C505.54-174.82,180.57,361.35,180.57,361.35z"/>
<g>
	<path d="M347.69,303.02c0,3.02-0.39,6.38-1.16,10.09h-24.96v18.36h32.46c0.78,3.62,1.16,6.9,1.16,9.83c0,3.19-0.39,6.59-1.16,10.22
		h-55.34v-92.97h54.57c0.34,1.9,0.6,3.67,0.78,5.3c0.17,1.64,0.26,3.19,0.26,4.66c0,2.84-0.35,6.25-1.03,10.22h-31.68v14.22h24.96
		C347.3,296.73,347.69,300.09,347.69,303.02z"/>
	<path d="M360.49,318.41c0-5.26,0.71-10.06,2.13-14.42c1.42-4.35,3.53-8.08,6.34-11.19c2.8-3.1,6.27-5.5,10.41-7.18
		c4.14-1.68,8.92-2.52,14.35-2.52c5.52,0,10.34,0.84,14.48,2.52c4.14,1.68,7.61,4.07,10.41,7.18c2.8,3.1,4.91,6.83,6.34,11.19
		c1.42,4.35,2.13,9.16,2.13,14.42c0,5.17-0.71,9.89-2.13,14.16c-1.42,4.27-3.54,7.93-6.34,10.99c-2.8,3.06-6.27,5.41-10.41,7.05
		c-4.14,1.64-8.97,2.46-14.48,2.46c-5.43,0-10.22-0.82-14.35-2.46c-4.14-1.64-7.61-3.99-10.41-7.05c-2.8-3.06-4.91-6.72-6.34-10.99
		C361.21,328.3,360.49,323.58,360.49,318.41z M404.98,318.41c0-5.52-0.93-9.74-2.78-12.67c-1.85-2.93-4.68-4.4-8.47-4.4
		c-3.79,0-6.6,1.47-8.41,4.4c-1.81,2.93-2.72,7.16-2.72,12.67c0,5.43,0.91,9.61,2.72,12.54c1.81,2.93,4.61,4.4,8.41,4.4
		c3.79,0,6.61-1.46,8.47-4.4C404.05,328.02,404.98,323.84,404.98,318.41z M389.59,369.49c0.08-2.5,0.37-5.11,0.84-7.82
		c0.47-2.72,1.14-5.24,2-7.57l35.3,5.04c-0.09,2.5-0.37,5.11-0.84,7.82c-0.47,2.71-1.14,5.24-2,7.56L389.59,369.49z"/>
	<path d="M496.92,348.41c-1.47,0.52-3.21,1.03-5.24,1.55c-2.03,0.52-4.18,1.01-6.47,1.49c-2.29,0.47-4.64,0.84-7.05,1.1
		c-2.41,0.26-4.78,0.39-7.11,0.39c-4.4,0-8.62-0.35-12.67-1.04c-4.05-0.69-7.61-2.09-10.67-4.2c-3.06-2.11-5.5-5.17-7.31-9.18
		c-1.81-4.01-2.72-9.38-2.72-16.1v-37.76c1.9-0.43,3.77-0.73,5.62-0.91c1.85-0.17,3.64-0.26,5.37-0.26c1.64,0,3.4,0.09,5.3,0.26
		c1.9,0.17,3.75,0.47,5.56,0.91v35.95c0,5.17,0.86,8.71,2.59,10.6c1.72,1.9,4.35,2.84,7.89,2.84c1.46,0,2.59-0.04,3.36-0.13
		c0.78-0.08,1.34-0.17,1.68-0.26v-49.01c1.9-0.43,3.77-0.73,5.62-0.91c1.85-0.17,3.64-0.26,5.37-0.26c1.64,0,3.4,0.09,5.3,0.26
		c1.9,0.17,3.75,0.47,5.56,0.91V348.41z"/>
	<path d="M533.25,351.38c-2.24,0.34-4.27,0.6-6.08,0.78c-1.81,0.17-3.45,0.26-4.91,0.26c-1.47,0-3.1-0.09-4.91-0.26
		c-1.81-0.17-3.79-0.43-5.95-0.78v-66.72c1.9-0.43,3.77-0.73,5.62-0.91c1.85-0.17,3.64-0.26,5.37-0.26c1.64,0,3.4,0.09,5.3,0.26
		c1.9,0.17,3.75,0.47,5.56,0.91V351.38z"/>
	<path d="M569.59,333.28h24.44c0.43,1.72,0.71,3.32,0.84,4.78c0.13,1.47,0.19,2.89,0.19,4.27c0,1.38-0.06,2.82-0.19,4.33
		c-0.13,1.51-0.41,3.13-0.84,4.85h-46.29l0.13-66.85c1.89-0.43,3.77-0.73,5.62-0.91c1.85-0.17,3.64-0.26,5.37-0.26
		c1.64,0,3.4,0.09,5.3,0.26c1.9,0.17,3.75,0.47,5.56,0.91L569.59,333.28z"/>
	<path d="M626.1,351.38c-2.24,0.34-4.27,0.6-6.08,0.78c-1.81,0.17-3.45,0.26-4.91,0.26c-1.47,0-3.1-0.09-4.91-0.26
		c-1.81-0.17-3.79-0.43-5.95-0.78v-66.72c1.9-0.43,3.77-0.73,5.62-0.91c1.85-0.17,3.64-0.26,5.37-0.26c1.64,0,3.41,0.09,5.3,0.26
		c1.9,0.17,3.75,0.47,5.56,0.91V351.38z"/>
	<path d="M640.58,284.92c1.72-0.26,3.71-0.5,5.95-0.71c2.24-0.21,4.53-0.41,6.85-0.58c2.33-0.17,4.59-0.3,6.79-0.39
		c2.2-0.08,4.12-0.13,5.75-0.13c10.78,0,18.83,1.53,24.18,4.59c5.34,3.06,8.02,7.82,8.02,14.29c0,3.28-0.76,6.06-2.26,8.34
		c-1.51,2.29-3.56,4.25-6.14,5.88c3.62,1.29,6.59,3.15,8.92,5.56c2.33,2.41,3.49,5.82,3.49,10.21c0,7.93-2.93,13.43-8.79,16.49
		c-5.86,3.06-14.53,4.59-25.99,4.59c-3.02,0-6.96-0.11-11.83-0.32c-4.87-0.22-9.85-0.67-14.94-1.36V284.92z M662.17,310.26h6.34
		c3.27,0,5.47-0.71,6.59-2.13c1.12-1.42,1.68-2.91,1.68-4.46c0-1.46-0.58-2.82-1.75-4.07c-1.16-1.25-3.3-1.88-6.4-1.88
		c-0.95,0-2.05,0.02-3.3,0.06c-1.25,0.04-2.31,0.11-3.17,0.19V310.26z M662.17,323.84v13.32c0.26,0,0.95,0.04,2.07,0.13
		c1.12,0.09,2.63,0.13,4.53,0.13c3.62,0,6.21-0.6,7.76-1.81c1.55-1.21,2.33-2.89,2.33-5.04c0-0.86-0.15-1.7-0.45-2.52
		c-0.3-0.82-0.84-1.53-1.62-2.13c-0.78-0.6-1.85-1.1-3.23-1.49c-1.38-0.39-3.19-0.58-5.43-0.58H662.17z"/>
	<path d="M713.25,284.92c4.05-0.52,8.25-0.95,12.61-1.29c4.35-0.34,8.47-0.52,12.35-0.52c10.43,0,18.25,1.96,23.47,5.88
		c5.21,3.92,7.82,9.42,7.82,16.49c0,2.67-0.3,5-0.9,6.98c-0.6,1.98-1.34,3.69-2.2,5.11c-0.86,1.42-1.77,2.57-2.71,3.43
		c-0.95,0.86-1.73,1.55-2.33,2.07l14.74,28.19c-1.73,0.34-3.64,0.6-5.75,0.78c-2.11,0.17-4.16,0.26-6.14,0.26
		c-2.41,0-4.74-0.09-6.98-0.26c-2.24-0.17-4.1-0.43-5.56-0.78l-14.35-30.52l1.81-1.03c3.02-1.72,5.09-3.56,6.21-5.5
		c1.12-1.94,1.68-4.03,1.68-6.27c0-2.24-0.67-4.07-2-5.5c-1.34-1.42-3.47-2.13-6.4-2.13c-1.64,0-2.89,0.09-3.75,0.26v50.82
		c-2.24,0.43-4.27,0.71-6.08,0.84c-1.81,0.13-3.41,0.19-4.78,0.19c-1.47,0-3.06-0.06-4.79-0.19c-1.73-0.13-3.71-0.41-5.95-0.84
		V284.92z"/>
	<path d="M806.09,351.38c-2.24,0.34-4.27,0.6-6.08,0.78c-1.81,0.17-3.45,0.26-4.91,0.26c-1.47,0-3.1-0.09-4.91-0.26
		c-1.81-0.17-3.79-0.43-5.95-0.78v-66.72c1.9-0.43,3.77-0.73,5.62-0.91c1.85-0.17,3.64-0.26,5.37-0.26c1.64,0,3.41,0.09,5.3,0.26
		c1.9,0.17,3.75,0.47,5.56,0.91V351.38z"/>
	<path d="M817.34,318.41c0-5.26,0.71-10.06,2.13-14.42c1.42-4.35,3.53-8.08,6.34-11.19c2.8-3.1,6.27-5.5,10.41-7.18
		c4.14-1.68,8.92-2.52,14.35-2.52c5.52,0,10.34,0.84,14.48,2.52c4.14,1.68,7.61,4.07,10.41,7.18c2.8,3.1,4.91,6.83,6.34,11.19
		c1.42,4.35,2.13,9.16,2.13,14.42c0,5.17-0.71,9.89-2.13,14.16c-1.42,4.27-3.54,7.93-6.34,10.99c-2.8,3.06-6.27,5.41-10.41,7.05
		c-4.14,1.64-8.97,2.46-14.48,2.46c-5.43,0-10.21-0.82-14.35-2.46c-4.14-1.64-7.61-3.99-10.41-7.05c-2.8-3.06-4.91-6.72-6.34-10.99
		C818.05,328.3,817.34,323.58,817.34,318.41z M861.82,318.41c0-5.52-0.93-9.74-2.78-12.67c-1.85-2.93-4.68-4.4-8.47-4.4
		c-3.79,0-6.59,1.47-8.41,4.4c-1.81,2.93-2.71,7.16-2.71,12.67c0,5.43,0.91,9.61,2.71,12.54c1.81,2.93,4.61,4.4,8.41,4.4
		c3.79,0,6.62-1.46,8.47-4.4C860.9,328.02,861.82,323.84,861.82,318.41z"/>
</g>
<g>
	<path d="M298.45,109.58l38.1-23.32c1.05,1.18,1.99,2.3,2.81,3.37c0.82,1.07,1.54,2.12,2.17,3.14c1.22,1.99,2.43,4.51,3.64,7.57
		l-22.12,13.54l6.74,11.01l17.42-10.66c2.2,2.38,3.91,4.56,5.12,6.54c1.25,2.05,2.44,4.59,3.55,7.63l-17.42,10.66l15.53,25.37
		c-2.86,2.49-5.34,4.39-7.45,5.67c-2.23,1.36-5.07,2.73-8.53,4.1L298.45,109.58z"/>
	<path d="M421.91,126.91c-0.91,0.89-2.03,1.88-3.35,2.96c-1.33,1.08-2.76,2.19-4.29,3.33c-1.53,1.14-3.15,2.22-4.85,3.24
		c-1.7,1.02-3.42,1.94-5.15,2.74c-3.26,1.52-6.52,2.71-9.77,3.6c-3.25,0.89-6.37,1.07-9.37,0.56c-3-0.51-5.86-1.95-8.59-4.3
		c-2.73-2.35-5.25-6.02-7.56-11.02l-13.01-28.03c1.26-0.97,2.55-1.84,3.86-2.61c1.32-0.77,2.61-1.45,3.9-2.04
		c1.22-0.56,2.56-1.11,4.03-1.63c1.47-0.52,2.95-0.94,4.44-1.24l12.39,26.69c1.78,3.84,3.64,6.17,5.57,6.98
		c1.93,0.81,4.21,0.61,6.84-0.61c1.09-0.5,1.91-0.92,2.45-1.25c0.55-0.33,0.93-0.59,1.16-0.77l-16.89-36.39
		c1.26-0.97,2.55-1.84,3.86-2.61c1.32-0.77,2.61-1.45,3.9-2.04c1.21-0.56,2.56-1.11,4.03-1.64c1.47-0.52,2.95-0.94,4.44-1.24
		L421.91,126.91z"/>
	<path d="M437.78,65.37c2.8-0.74,5.62-1.24,8.47-1.52c2.85-0.28,5.61-0.04,8.29,0.71c1.54-1.35,3.41-2.69,5.62-4
		c2.21-1.31,4.81-2.36,7.82-3.16c2.66-0.7,5.47-1.17,8.44-1.41c2.97-0.23,5.81,0.16,8.53,1.2c2.72,1.03,5.21,2.89,7.49,5.58
		c2.28,2.68,4.08,6.55,5.41,11.6l8.07,30.6c-1.69,0.81-3.23,1.45-4.63,1.93c-1.41,0.48-2.66,0.86-3.75,1.15
		c-1.16,0.31-2.47,0.6-3.93,0.87c-1.46,0.28-3.12,0.48-4.99,0.6l-7.59-28.76c-0.95-3.62-2.25-6.05-3.89-7.29
		c-1.64-1.24-3.86-1.5-6.66-0.76c-0.96,0.25-1.87,0.6-2.73,1.05s-1.45,0.79-1.76,1.01c1.24,2.23,2.27,4.87,3.08,7.94l7.88,29.88
		c-1.69,0.81-3.23,1.45-4.63,1.93c-1.41,0.48-2.66,0.86-3.75,1.15c-1.16,0.31-2.47,0.6-3.93,0.87c-1.46,0.28-3.12,0.48-4.99,0.6
		l-7.59-28.76c-0.95-3.62-2.22-6.05-3.79-7.32c-1.58-1.26-3.76-1.53-6.56-0.79c-0.75,0.2-1.53,0.48-2.35,0.84
		c-0.82,0.36-1.31,0.64-1.48,0.83l10.1,38.28c-1.69,0.81-3.23,1.45-4.63,1.93s-2.66,0.86-3.75,1.15c-1.16,0.31-2.47,0.6-3.93,0.87
		c-1.46,0.28-3.12,0.48-4.99,0.6l-13.25-50.25c2.17-1.45,4.83-3.01,7.96-4.67C428.54,68.23,432.67,66.72,437.78,65.37z"/>
	<path d="M532.63,103.71c-1.79,0.48-3.42,0.86-4.88,1.16c-1.46,0.3-2.78,0.51-3.98,0.64c-1.19,0.13-2.53,0.2-4.02,0.22
		c-1.49,0.02-3.13-0.02-4.91-0.11L509,51.32c1.5-0.52,3-0.93,4.5-1.23c1.49-0.3,2.94-0.53,4.34-0.68c1.33-0.14,2.78-0.23,4.34-0.25
		c1.56-0.02,3.09,0.06,4.6,0.25L532.63,103.71z"/>
	<path d="M567.94,103.92c-5.08-0.02-9.4-0.79-12.96-2.32c-3.56-1.53-6.46-3.6-8.71-6.22c-2.25-2.62-3.88-5.69-4.89-9.22
		c-1.01-3.53-1.51-7.31-1.5-11.33c0.01-3.88,0.64-7.55,1.89-11c1.25-3.45,3.09-6.45,5.53-8.98c2.44-2.53,5.46-4.53,9.07-6
		s7.77-2.2,12.5-2.18c2.47,0.01,5.19,0.3,8.15,0.87c2.96,0.58,6.2,1.57,9.73,2.99c-0.08,1.2-0.22,2.33-0.43,3.39
		s-0.48,2.13-0.8,3.23c-0.32,1.09-0.71,2.26-1.18,3.49c-0.46,1.23-1.01,2.63-1.65,4.18c-2.4-1-4.62-1.73-6.66-2.19
		c-2.05-0.46-3.81-0.7-5.29-0.7c-2.33-0.01-4.31,0.34-5.93,1.04c-1.63,0.7-2.93,1.65-3.92,2.85c-0.99,1.2-1.72,2.59-2.18,4.17
		c-0.46,1.59-0.7,3.23-0.7,4.92c-0.01,4.73,1,8.21,3.04,10.44c2.04,2.23,5.03,3.35,8.99,3.36l1.91,0.01l0.05-15.56
		c1.76-0.35,3.34-0.59,4.71-0.73c1.38-0.14,2.7-0.2,3.97-0.2c2.47,0.01,5.4,0.33,8.78,0.98l-0.09,26.88
		c-2.05,0.77-4.91,1.61-8.58,2.51C577.08,103.49,572.81,103.93,567.94,103.92z"/>
	<path d="M596.45,85.37c0.49-3.42,1.62-6.15,3.41-8.17c1.78-2.03,3.92-3.54,6.42-4.54c2.49-1,5.17-1.56,8.04-1.69
		c2.87-0.13,5.63,0,8.29,0.38l6.39,0.91c0.11-1.27-0.09-2.37-0.6-3.29c-0.51-0.93-1.22-1.69-2.13-2.28
		c-0.91-0.59-1.95-1.06-3.11-1.41c-1.16-0.34-2.37-0.6-3.63-0.78c-1.68-0.24-3.66-0.32-5.95-0.26c-2.29,0.07-4.68,0.35-7.18,0.85
		c-0.46-1.28-0.85-2.44-1.16-3.48c-0.32-1.04-0.52-2.09-0.62-3.14c-0.1-1.05-0.13-2.12-0.08-3.22c0.05-1.1,0.17-2.34,0.37-3.74
		c3.51-0.64,6.97-1,10.37-1.09c3.4-0.09,6.42,0.06,9.08,0.44c3.63,0.52,6.85,1.42,9.66,2.71c2.81,1.29,5.12,2.99,6.92,5.1
		c1.8,2.11,3.06,4.66,3.78,7.65c0.71,2.99,0.79,6.44,0.24,10.35l-4.37,30.7c-2.76,0.39-6.09,0.7-9.97,0.93
		c-3.88,0.23-7.92,0.05-12.11-0.55c-3.63-0.52-6.92-1.32-9.87-2.42c-2.94-1.1-5.4-2.53-7.35-4.31c-1.96-1.78-3.38-3.96-4.25-6.54
		C596.14,91.9,595.95,88.87,596.45,85.37z M620.34,94.76c0.63,0.09,1.54,0.15,2.75,0.18c1.21,0.03,2.1,0.01,2.68-0.05l1.64-11.53
		l-5.97-0.85c-2.45-0.35-4.58-0.12-6.41,0.69c-1.83,0.81-2.87,2.16-3.14,4.04c-0.2,1.4-0.04,2.54,0.47,3.44
		c0.51,0.89,1.21,1.62,2.1,2.17c0.88,0.55,1.86,0.98,2.92,1.27C618.45,94.42,619.43,94.63,620.34,94.76z"/>
	<path d="M682.17,62.58c5.5,1.54,10.03,3.5,13.58,5.88c3.55,2.38,6.25,5.1,8.11,8.15c1.86,3.05,2.9,6.4,3.13,10.05
		c0.22,3.65-0.23,7.52-1.37,11.6c-1.2,4.28-2.87,7.99-5.03,11.12c-2.16,3.13-4.85,5.57-8.08,7.3s-7.06,2.7-11.47,2.89
		c-4.42,0.2-9.48-0.5-15.18-2.1c-3.33-0.93-6.27-1.88-8.82-2.85c-2.55-0.97-5.2-2.06-7.94-3.26l14.64-52.4
		c2.95,0.46,6.06,0.98,9.34,1.57C676.35,61.12,679.38,61.81,682.17,62.58z M670.01,102.93c0.27,0.08,0.62,0.21,1.04,0.4
		c0.42,0.19,1.08,0.41,1.96,0.66c3.81,1.06,6.94,0.79,9.41-0.83c2.47-1.62,4.38-4.87,5.75-9.77c1.22-4.35,1.19-7.78-0.09-10.3
		c-1.27-2.52-3.61-4.25-7.01-5.2c-0.82-0.23-1.57-0.4-2.27-0.52c-0.7-0.12-1.23-0.2-1.59-0.22L670.01,102.93z"/>
	<path d="M712.61,101.64c1.65-3.97,3.7-7.38,6.14-10.23c2.44-2.84,5.21-5,8.3-6.46c3.09-1.47,6.47-2.18,10.12-2.15
		c3.66,0.03,7.54,0.9,11.64,2.6c4.17,1.73,7.55,3.89,10.15,6.46c2.6,2.57,4.47,5.47,5.61,8.7c1.14,3.23,1.57,6.71,1.28,10.44
		c-0.29,3.74-1.27,7.59-2.92,11.57c-1.63,3.91-3.65,7.25-6.06,10.03s-5.17,4.88-8.24,6.32c-3.08,1.43-6.44,2.12-10.08,2.06
		c-3.64-0.06-7.55-0.96-11.72-2.69c-4.11-1.71-7.46-3.83-10.08-6.37s-4.5-5.4-5.65-8.6c-1.16-3.19-1.6-6.63-1.34-10.3
		S710.99,105.55,712.61,101.64z M746.23,115.61c1.73-4.17,2.36-7.65,1.88-10.45c-0.48-2.8-2.15-4.79-5.02-5.98
		c-2.87-1.19-5.45-0.96-7.73,0.68c-2.29,1.65-4.3,4.56-6.03,8.73c-1.71,4.1-2.34,7.55-1.89,10.33c0.45,2.78,2.1,4.77,4.97,5.96
		c2.87,1.19,5.46,0.97,7.78-0.66C742.51,122.59,744.53,119.72,746.23,115.61z"/>
	<path d="M785.02,103.09c3.12,1.21,6.31,2.54,9.58,3.99c3.27,1.45,6.3,2.93,9.09,4.44c7.51,4.07,12.37,8.53,14.6,13.39
		c2.22,4.86,1.96,9.83-0.8,14.92c-1.04,1.92-2.17,3.48-3.37,4.67c-1.21,1.19-2.4,2.13-3.57,2.82c-1.18,0.69-2.27,1.16-3.29,1.41
		c-1.02,0.25-1.85,0.44-2.48,0.58l-0.38,26.04c-1.38-0.43-2.86-0.99-4.44-1.69c-1.59-0.7-3.09-1.44-4.52-2.21
		c-1.74-0.94-3.38-1.91-4.92-2.91c-1.55-1-2.78-1.91-3.7-2.73l1.57-27.56l1.71-0.04c2.84-0.06,5.05-0.58,6.61-1.54
		s2.78-2.24,3.66-3.86c0.87-1.61,1.11-3.19,0.7-4.74c-0.41-1.54-1.67-2.89-3.77-4.03c-1.18-0.64-2.11-1.06-2.8-1.28l-19.82,36.57
		c-1.78-0.56-3.35-1.15-4.7-1.77s-2.53-1.19-3.52-1.73c-1.06-0.57-2.18-1.24-3.37-2.01c-1.19-0.77-2.51-1.74-3.95-2.92
		L785.02,103.09z"/>
	<path d="M815.6,161.71c1.89-2.89,4.08-4.88,6.55-5.96c2.48-1.08,5.05-1.54,7.74-1.39c2.68,0.15,5.35,0.78,8,1.88
		c2.65,1.1,5.1,2.39,7.34,3.85l5.4,3.53c0.64-1.1,0.92-2.18,0.85-3.24c-0.07-1.06-0.39-2.05-0.97-2.97
		c-0.58-0.92-1.32-1.79-2.22-2.59c-0.91-0.8-1.89-1.55-2.96-2.25c-1.42-0.93-3.18-1.85-5.28-2.76c-2.1-0.91-4.39-1.67-6.86-2.27
		c0.12-1.35,0.26-2.57,0.42-3.64c0.16-1.08,0.41-2.11,0.77-3.1c0.35-0.99,0.78-1.97,1.29-2.95c0.51-0.97,1.15-2.05,1.92-3.23
		c3.45,0.91,6.73,2.04,9.85,3.41c3.11,1.36,5.79,2.78,8.04,4.24c3.07,2.01,5.6,4.19,7.6,6.55c2,2.36,3.36,4.88,4.1,7.55
		c0.74,2.67,0.8,5.52,0.18,8.53c-0.62,3.01-2.01,6.17-4.17,9.48l-16.97,25.95c-2.67-0.82-5.81-1.94-9.42-3.38
		c-3.61-1.44-7.19-3.31-10.74-5.63c-3.07-2.01-5.71-4.13-7.91-6.37s-3.81-4.58-4.83-7.02c-1.02-2.44-1.38-5.01-1.08-7.73
		C812.55,167.5,813.67,164.67,815.6,161.71z M833.26,180.34c0.53,0.35,1.34,0.79,2.42,1.33c1.08,0.54,1.9,0.9,2.45,1.09l6.37-9.74
		l-5.05-3.3c-2.07-1.35-4.1-2.05-6.09-2.09c-2-0.04-3.52,0.74-4.56,2.33c-0.77,1.18-1.12,2.29-1.03,3.31
		c0.09,1.03,0.41,1.98,0.98,2.85c0.57,0.88,1.27,1.67,2.11,2.39C831.69,179.23,832.49,179.84,833.26,180.34z"/>
</g>
<g>
	<g>
		<path class="st3" d="M312.44,496.74c-1.5-0.68-2.84-1.35-4.03-1.99c-1.19-0.64-2.3-1.32-3.35-2.04c-1.05-0.72-2.21-1.62-3.48-2.7
			c-1.27-1.08-2.65-2.35-4.14-3.79l62.24-48.99c1.63,0.86,3.15,1.68,4.54,2.46c1.39,0.78,2.75,1.63,4.09,2.54
			c1.11,0.76,2.28,1.64,3.51,2.65c1.23,1.01,2.63,2.18,4.2,3.51l-23.42,75.67c-3.68-1.75-6.77-3.48-9.27-5.19
			c-1.17-0.8-2.29-1.65-3.38-2.57c-1.09-0.91-2.22-1.95-3.4-3.09l4.99-14.42c-1.95-0.65-3.75-1.36-5.39-2.15
			c-1.65-0.78-3.2-1.67-4.65-2.67c-1.34-0.92-2.64-1.95-3.9-3.11c-1.26-1.16-2.51-2.46-3.74-3.91L312.44,496.74z M356.22,458.97
			l-21.21,18.45c0.79,0.97,1.56,1.84,2.32,2.61c0.75,0.77,1.6,1.48,2.53,2.11c0.99,0.68,2.02,1.27,3.08,1.78
			c1.06,0.51,2.21,0.98,3.46,1.41L356.22,458.97z"/>
		<path class="st3" d="M411.37,492.22c2.64,1.18,5.16,2.56,7.55,4.13c2.39,1.57,4.39,3.49,6.01,5.76c2.05-0.09,4.34,0.05,6.89,0.41
			c2.54,0.36,5.23,1.18,8.07,2.45c2.51,1.12,5,2.52,7.46,4.2c2.46,1.68,4.42,3.77,5.89,6.28c1.47,2.51,2.24,5.52,2.33,9.04
			c0.09,3.52-0.93,7.66-3.06,12.43l-12.91,28.89c-1.82-0.43-3.43-0.89-4.82-1.4c-1.4-0.51-2.61-0.99-3.64-1.45
			c-1.1-0.49-2.3-1.08-3.61-1.79c-1.31-0.7-2.73-1.59-4.26-2.66l12.14-27.15c1.53-3.41,2.04-6.12,1.54-8.12
			c-0.5-2-2.07-3.59-4.71-4.77c-0.9-0.4-1.83-0.7-2.79-0.9s-1.62-0.3-2-0.32c-0.43,2.51-1.29,5.22-2.59,8.12l-12.61,28.22
			c-1.82-0.43-3.43-0.89-4.82-1.4s-2.61-0.99-3.64-1.45c-1.1-0.49-2.3-1.08-3.61-1.79s-2.73-1.59-4.26-2.66l12.14-27.15
			c1.53-3.41,2.07-6.11,1.64-8.08c-0.43-1.97-1.97-3.55-4.61-4.73c-0.71-0.32-1.5-0.59-2.36-0.82c-0.86-0.23-1.42-0.32-1.67-0.28
			l-16.15,36.14c-1.82-0.43-3.43-0.89-4.82-1.4s-2.61-0.99-3.64-1.45c-1.1-0.49-2.3-1.08-3.61-1.79s-2.73-1.59-4.26-2.66l21.2-47.45
			c2.6,0.23,5.64,0.69,9.13,1.36C402.38,488.65,406.54,490.06,411.37,492.22z"/>
		<path class="st3" d="M475.75,519.29c1.42,0.1,3.05,0.26,4.88,0.48c1.83,0.22,3.69,0.47,5.58,0.74c1.89,0.27,3.72,0.57,5.5,0.88
			c1.77,0.32,3.31,0.62,4.62,0.91c8.61,1.89,14.79,4.54,18.52,7.92c3.73,3.39,5.03,7.66,3.9,12.83c-0.58,2.62-1.67,4.71-3.28,6.27
			c-1.61,1.56-3.59,2.77-5.94,3.62c2.67,1.67,4.72,3.68,6.15,6.01c1.44,2.34,1.77,5.27,0.99,8.78c-1.39,6.34-4.71,10.22-9.93,11.63
			c-5.23,1.41-12.42,1.12-21.58-0.9c-2.41-0.53-5.55-1.31-9.4-2.34c-3.86-1.03-7.76-2.27-11.7-3.71L475.75,519.29z M486.17,554.21
			l-2.34,10.65c0.21,0.04,0.75,0.2,1.63,0.47c0.88,0.27,2.08,0.57,3.6,0.9c2.89,0.64,5.07,0.61,6.52-0.08
			c1.45-0.69,2.37-1.9,2.75-3.62c0.15-0.69,0.18-1.39,0.08-2.1c-0.1-0.71-0.4-1.37-0.92-1.99c-0.51-0.62-1.29-1.21-2.32-1.76
			c-1.04-0.55-2.45-1.03-4.24-1.42L486.17,554.21z M488.56,543.35l5.07,1.11c2.62,0.58,4.5,0.39,5.65-0.55
			c1.14-0.94,1.86-2.03,2.13-3.27c0.26-1.17,0.03-2.36-0.68-3.56c-0.71-1.2-2.31-2.08-4.79-2.62c-0.76-0.17-1.64-0.34-2.65-0.53
			c-1.01-0.18-1.86-0.32-2.57-0.4L488.56,543.35z"/>
		<path class="st3" d="M549.27,586.32c-1.85,0.13-3.52,0.2-5.01,0.22c-1.49,0.02-2.83-0.02-4.03-0.12c-1.2-0.1-2.53-0.28-3.99-0.55
			c-1.46-0.26-3.07-0.61-4.8-1.04l4.54-54.43c1.58-0.22,3.12-0.34,4.65-0.35c1.52-0.01,2.99,0.04,4.39,0.15
			c1.33,0.11,2.77,0.3,4.31,0.57c1.53,0.27,3.03,0.64,4.47,1.12L549.27,586.32z"/>
		<path class="st3" d="M584.34,565.27c0.91,2.85,2.37,4.83,4.36,5.94c2,1.11,4.58,1.58,7.75,1.43c2.04-0.1,4.32-0.45,6.84-1.07
			c2.51-0.61,4.98-1.47,7.4-2.58c1.07,1.79,2.04,3.93,2.9,6.43c0.86,2.5,1.39,5.13,1.59,7.87c-6.16,2.62-12.52,4.09-19.08,4.41
			c-5.07,0.24-9.46-0.25-13.16-1.49c-3.7-1.24-6.75-3.05-9.16-5.44c-2.41-2.39-4.24-5.29-5.5-8.69c-1.26-3.4-1.98-7.15-2.18-11.23
			c-0.19-4.02,0.19-7.81,1.15-11.39c0.96-3.58,2.5-6.72,4.63-9.44c2.13-2.71,4.85-4.91,8.16-6.59c3.31-1.68,7.22-2.62,11.73-2.84
			c3.74-0.18,7.1,0.3,10.08,1.43c2.99,1.13,5.55,2.75,7.7,4.88c2.15,2.12,3.84,4.73,5.09,7.81c1.24,3.08,1.95,6.46,2.13,10.12
			c0.09,1.9,0.08,3.62-0.02,5.14c-0.1,1.53-0.2,2.78-0.3,3.78L584.34,565.27z M591.8,544.04c-2.26,0.11-4.16,0.91-5.71,2.39
			c-1.55,1.49-2.4,3.72-2.54,6.69l16.92-0.81c-0.26-2.46-1.12-4.49-2.57-6.08C596.44,544.65,594.41,543.91,591.8,544.04z"/>
		<path class="st3" d="M648.02,523.23c3.03-0.67,6.12-1.08,9.27-1.23c3.15-0.15,6.12,0.33,8.93,1.44c2.81,1.11,5.33,3.05,7.57,5.81
			s3.91,6.69,5.04,11.79l6.82,30.9c-1.72,0.74-3.29,1.32-4.71,1.74c-1.42,0.42-2.69,0.76-3.79,1c-1.17,0.26-2.49,0.5-3.96,0.71
			s-3.14,0.35-5.01,0.4l-6.41-29.04c-0.8-3.65-2.07-6.12-3.8-7.4c-1.73-1.28-4-1.61-6.83-0.99c-0.76,0.17-1.55,0.42-2.38,0.74
			c-0.83,0.33-1.33,0.58-1.51,0.77l8.53,38.66c-1.72,0.74-3.29,1.32-4.71,1.74c-1.42,0.42-2.69,0.76-3.79,1
			c-1.17,0.26-2.49,0.5-3.96,0.71s-3.14,0.35-5.01,0.4l-11.19-50.75c2.23-1.36,4.98-2.81,8.25-4.37
			C638.64,525.71,642.85,524.37,648.02,523.23z"/>
		<path class="st3" d="M702.21,524.41l-14.65,5.56c-0.83-1.19-1.51-2.35-2.05-3.47c-0.54-1.12-1.01-2.2-1.41-3.26
			c-0.4-1.05-0.76-2.16-1.09-3.32c-0.33-1.16-0.58-2.46-0.75-3.91l46.02-17.46c0.83,1.2,1.51,2.33,2.03,3.42
			c0.53,1.08,0.99,2.16,1.39,3.21c0.4,1.06,0.77,2.18,1.11,3.37c0.34,1.19,0.59,2.51,0.76,3.96l-14.65,5.56l14.08,37.11
			c-1.62,0.92-3.09,1.7-4.43,2.36c-1.34,0.66-2.56,1.2-3.69,1.62c-1.12,0.43-2.4,0.83-3.83,1.23c-1.44,0.39-3.03,0.77-4.78,1.13
			L702.21,524.41z"/>
		<path class="st3" d="M751.57,528.29c-1.61-3.06-2.29-5.93-2.03-8.62c0.26-2.69,1.11-5.17,2.54-7.44c1.44-2.27,3.28-4.3,5.53-6.08
			c2.25-1.78,4.56-3.3,6.94-4.55l5.71-3.01c-0.65-1.09-1.46-1.86-2.42-2.32c-0.96-0.45-1.98-0.65-3.07-0.6
			c-1.09,0.05-2.2,0.28-3.35,0.68c-1.14,0.4-2.28,0.9-3.4,1.49c-1.5,0.79-3.16,1.88-4.97,3.28c-1.82,1.4-3.59,3.03-5.32,4.89
			c-1.12-0.76-2.11-1.48-2.98-2.14c-0.87-0.66-1.65-1.38-2.34-2.18c-0.7-0.79-1.34-1.64-1.95-2.56c-0.6-0.92-1.23-2-1.89-3.25
			c2.47-2.58,5.06-4.89,7.76-6.96c2.7-2.06,5.24-3.71,7.61-4.96c3.25-1.71,6.39-2.86,9.42-3.46c3.03-0.6,5.9-0.57,8.59,0.08
			c2.7,0.66,5.21,1.98,7.54,3.99c2.33,2,4.42,4.75,6.26,8.25l14.44,27.44c-2.01,1.94-4.52,4.13-7.53,6.6s-6.39,4.68-10.14,6.65
			c-3.25,1.71-6.38,2.98-9.41,3.82s-5.86,1.11-8.48,0.82c-2.63-0.29-5.05-1.23-7.28-2.81C755.14,533.76,753.21,531.41,751.57,528.29
			z M776.43,521.9c0.56-0.3,1.34-0.78,2.34-1.47c1-0.68,1.71-1.22,2.14-1.61l-5.42-10.3l-5.34,2.81c-2.19,1.15-3.78,2.59-4.79,4.31
			c-1.01,1.72-1.06,3.43-0.18,5.12c0.66,1.25,1.46,2.09,2.4,2.51c0.94,0.42,1.93,0.6,2.97,0.53s2.08-0.29,3.11-0.68
			C774.7,522.73,775.62,522.32,776.43,521.9z"/>
		<path class="st3" d="M823.32,490.66l16.72-10.98c1.07,0.99,1.98,1.95,2.73,2.9c0.75,0.95,1.43,1.89,2.05,2.83
			c0.62,0.94,1.23,1.96,1.81,3.05c0.59,1.09,1.12,2.32,1.6,3.7l-31.67,20.8l-29.95-45.8c1.1-1.15,2.25-2.19,3.44-3.15
			c1.19-0.95,2.37-1.81,3.55-2.59c1.12-0.74,2.37-1.47,3.74-2.21c1.38-0.73,2.78-1.36,4.21-1.88L823.32,490.66z"/>
	</g>
</g>
</svg>
