<?xml version="1.0" encoding="utf-8"?>
<!-- Generator: Adobe Illustrator 26.5.0, SVG Export Plug-In . SVG Version: 6.00 Build 0)  -->
<svg version="1.1" id="Layer_1" xmlns="http://www.w3.org/2000/svg" xmlns:xlink="http://www.w3.org/1999/xlink" x="0px" y="0px"
	 viewBox="0 0 1364.1 1080" style="enable-background:new 0 0 1364.1 1080;" xml:space="preserve">
<style type="text/css">
	.st0{fill:#FFFFFF;}
	.st1{fill:#375A7A;}
	.st2{fill:#E5242B;}
	.st3{fill:#CACAC8;}
</style>
<g>
	<path class="st0" d="M303.5,353c-1.4-1.1-3.1-1.7-5-1.7c-2,0-3.8,0.6-5.4,1.9c-1.7,1.3-2.7,3-2.9,5.2c-2.5,19-6.4,38-11.5,57
		c-5.2,19-11.2,37.4-18.2,55.3c-4.2,10.3-9.8,21.8-17,34.3c-7.1,12.6-15.4,24.4-24.9,35.4c-9.5,11-20,20.2-31.4,27.4
		c-11.5,7.3-23.7,10.9-36.9,10.9c-8.4,0-16.5-1.8-24.5-5.4c-8-3.6-15.3-9.2-22-16.8c-6.4-7.3-11.5-15.6-15.3-24.9
		c-3.8-9.4-6.6-19.1-8.4-29.1c-1.8-10.1-3-20.2-3.6-30.4c-0.6-10.2-0.8-19.9-0.8-29.1c0.3-39.1,6.3-77.6,18-115.4
		c11.7-37.8,26.9-73.7,45.7-107.4c3.6-6.4,8.3-14.2,14-23.2c5.7-9.1,12.1-17.9,19.3-26.4c7.1-8.5,14.8-15.8,23-21.8
		c8.2-6,16.7-9,25.3-9c4.7,0,8.8,1,12.1,3.1c3.4,2.1,6.2,4.8,8.6,8.2c2.4,3.4,4.3,7.1,5.7,11.1c1.4,4.1,2.4,8,2.9,11.9
		c1.4,9.8,1.3,19.7-0.2,29.7c-1.5,10.1-3,20-4.4,29.7c-0.6,3.1,0.1,5.4,2.1,6.9c2,1.5,4,2.3,6.3,2.3c3.6,0,5.6-1.8,5.9-5.4
		c1.1-6.7,2.2-13.5,3.4-20.3c1.1-6.8,1.9-13.8,2.3-20.7c0.4-7,0.3-13.9-0.4-20.7c-0.7-6.8-2.2-13.6-4.4-20.3
		c-3.1-9.5-8.5-16.9-16.3-22.2c-7.8-5.3-16.3-8-25.6-8c-7.8,0-15.6,2-23.2,6.1c-7.7,4.1-15,9.4-22,16.1c-7,6.7-13.6,14.3-19.9,22.8
		c-6.3,8.5-12.1,17.2-17.6,26c-5.4,8.8-10.3,17.3-14.7,25.6c-4.3,8.2-8,15.6-11.1,22c-17.3,36-30.5,73.9-39.6,113.7
		C61.7,397.2,58.9,437,62.2,477c1.1,12.8,3.4,26.1,6.9,39.8c3.5,13.7,8.7,26.2,15.5,37.7c6.8,11.4,15.6,20.9,26.2,28.3
		c10.6,7.4,23.6,11.1,39,11.1c13.1,0,25.4-2.9,36.9-8.6c11.4-5.7,21.9-13.1,31.4-22.2c9.5-9.1,18.1-19.1,25.8-30.2
		c7.7-11,14.2-21.8,19.5-32.5c11.2-21.8,20.1-44.9,26.8-69.3c6.7-24.4,11.6-48.7,14.7-72.7C305.3,355.9,304.9,354.1,303.5,353z"/>
	<path class="st0" d="M664.6,376.4c-2,0-3.5,1-4.6,2.9c-5.3,7.5-10.7,15.1-16.1,22.6s-12.1,13.8-19.9,18.9c-2.2,1.4-4.5,2.6-6.7,3.6
		c-2.2,1-4.5,1.5-6.7,1.5c-4.8,0-7.7-2.7-8.8-8c-0.8-3.1-1.3-6.7-1.3-10.9c0-4.2-0.1-8.4-0.2-12.6c-0.1-4.2-0.7-8.1-1.7-11.7
		c-1-3.6-3-6.6-6.1-8.8c-2.2-2-4.9-2.9-8-2.9c-3.6,0-7.3,1.4-11.1,4.2c-3.8,2.8-7.3,6.1-10.7,10.1c-3.4,3.9-6.2,7.8-8.6,11.7
		c-2.4,3.9-4.3,7-5.7,9.2c0.8-8.7,1.7-17.3,2.5-26c0.8-8.7,2-17.3,3.4-26c2.2,0,4-0.8,5.4-2.5c8.1-13.1,15.1-27.2,20.9-42.3
		c5.9-15.1,11.6-29.9,17.2-44.4c0.6-1.1,1.6-3.6,3.1-7.5c1.5-3.9,3.1-8.3,4.6-13.2c1.5-4.9,3-10,4.4-15.3c1.4-5.3,2.2-10.2,2.3-14.7
		c0.1-4.5-0.5-8.2-1.9-11.1c-1.4-2.9-4.1-4.3-8-4c-3.6,0.3-6.8,1.6-9.6,4c-2.8,2.4-5.2,5.2-7.3,8.4c-2.1,3.2-3.9,6.6-5.4,10.3
		c-1.5,3.6-2.9,6.8-4,9.6c-3.9,9.2-7.7,19.6-11.5,31.2c-3.8,11.6-7.2,23.5-10.3,35.6c-3.1,12.1-5.8,24.1-8.2,35.8
		c-2.4,11.7-4.3,22.6-5.7,32.7c-0.5,4.5-1.1,9-1.6,13.4c-0.7,0.3-1.3,0.9-1.8,1.6c-3.1,4.2-6.9,8.9-11.5,14
		c-4.6,5.2-9.6,10.1-14.9,14.7c-5.3,4.6-10.9,8.5-16.8,11.7c-5.9,3.2-11.7,4.8-17.6,4.8c-4.5,0-8.2-1.4-11.3-4.2
		c-3.1-3.4-4.5-7.8-4.2-13.2c0-0.3,0-0.5,0-0.8c1-1.4,2-2.8,2.9-4.3c2.8-4.6,5.4-9.3,8-14c1.4-2.2,1.4-4.2,0-5.9
		c-0.7-0.8-1.4-1.4-2.3-1.9c0.1-0.1,0.1-0.2,0.2-0.2c1.7-2.5,3.4-4.7,5.2-6.5c1.8-1.8,3.6-2.7,5.2-2.7c2.8,0,3.9,3.4,3.4,10.1
		c0,2,0.6,3.4,1.7,4.4c1.1,1,2.4,1.5,3.8,1.5c1.4,0,2.8-0.5,4.2-1.5c1.4-1,2.1-2.4,2.1-4.4c0-3.1-0.4-6.9-1-11.5
		c-0.7-4.6-2.9-7.8-6.5-9.4c-2.5-0.8-4.6-1.3-6.3-1.3c-3.1,0-5.9,0.8-8.6,2.5c-2.7,1.7-5.1,3.6-7.3,5.9c-6.4,5.9-11,13.1-13.6,21.8
		c-1.5,4.9-2.3,9.8-2.5,14.6c-2.8,3.3-6,5.7-9.8,7.2c-0.3,0-0.6,0.1-0.8,0.2c-0.3,0.1-0.6,0.2-0.8,0.2c-1.4,0-2.4-0.7-3.1-2.1
		c-0.7-1.4-1.2-3.1-1.5-5c-0.3-2-0.4-4-0.4-6.1c0-2.1,0.1-3.8,0.4-5.2c2-2.2,2.3-4.5,1-6.7c-1.3-2.2-3-3.4-5.2-3.4
		c-1.1,0-2.1,0.4-2.9,1.3c-1.7,0.6-2.8,1.7-3.4,3.4c-3.4,3.9-6.4,7.9-9,11.9c-2.7,4.1-5.4,8-8.2,11.9c-1.4,1.7-2.9,3.3-4.4,5
		c-1.5,1.7-3.1,3.2-4.8,4.6c0.6-7,1.7-14,3.6-21.2c0.5-1.8,1-3.6,1.7-5.3c0.9-0.4,1.8-0.8,2.7-1.2c3.1-1.4,4-3.5,2.7-6.3
		c-0.2-0.5-0.5-1-0.8-1.4c1.1-1.6,2.2-3.1,3.5-4.5c1.4-1.7,3.8-3.9,7.3-6.7c3.5-2.8,6.8-4.2,9.8-4.2c2.5,0,4.3,1.4,5.4,4.2
		c0.8,2.5,2.7,3.8,5.4,3.8c2,0,3.6-0.6,4.8-1.9c1.3-1.3,1.5-3,0.6-5.2c-1.7-4.2-3.9-7.2-6.7-9c-2.8-1.8-5.7-2.7-8.8-2.7
		c-5.9,0-11,1.5-15.5,4.4c-4.5,2.9-8.4,6.7-11.7,11.3c-2.3,3.2-4.3,6.5-6.1,10c-4.3,2-8.8,4-13.4,6.2c-6,2.8-11.8,4.6-17.4,5.4v-8
		c-0.3-3.4-0.8-6.8-1.7-10.5c-0.8-3.6-2.2-6.8-4.2-9.6c-2-2.8-4.3-5.1-7.1-6.9c-2.8-1.8-6.1-2.7-10.1-2.7c-5.3,0-10.1,1.6-14.2,4.8
		c-4.2,3.2-6.3,7.6-6.3,13.2c0,0.6,0.1,1.1,0.2,1.7c0.1,0.6,0.2,1.1,0.2,1.7c-4.2,1.7-7.4,4.9-9.6,9.6c-2.2,4.8-3.6,9.8-4,15.3
		s0.2,10.8,1.9,15.9c1.7,5.2,4.3,9,8,11.5c3.1,2.2,6.7,3.4,10.9,3.4c3.6,0,7.2-0.8,10.7-2.3c3.5-1.5,6.7-3.6,9.6-6.1
		c2.9-2.5,5.6-5.4,8-8.6c2.4-3.2,4.1-6.5,5.2-9.8c7.5-0.6,15-2.7,22.4-6.3c1.6-0.8,3.2-1.5,4.7-2.3c-0.4,1.5-0.8,3-1.2,4.4
		c-0.6,2-1.1,4.7-1.7,8.2c-0.6,3.5-0.8,6.9-0.8,10.3s0.6,6.3,1.9,8.8c1.3,2.5,3.6,3.8,6.9,3.8h1.7c1.7-0.3,3.4-1,5-2.1
		c1.7-1.1,3.3-2.5,4.8-4.2c1.5-1.7,2.9-3.4,4.2-5c1.3-1.7,2.3-3.1,3.1-4.2c2-2.2,3.7-4.5,5.2-6.7c1.5-2.2,3.1-4.5,4.8-6.7
		c0.8,3.9,2.7,7.5,5.4,10.7c2.8,3.2,6.3,4.8,10.5,4.8c3.1,0,5.9-0.8,8.6-2.5c1.4-0.9,2.6-1.7,3.8-2.7c1.6,5.9,4.7,10.3,9.2,13.4
		c5.2,3.5,11,5.2,17.4,5.2c7.3,0,14.1-1.5,20.5-4.6c6.4-3.1,12.5-7,18.2-11.7c5.7-4.7,11.1-10,16.1-15.7c1.6-1.8,3.1-3.6,4.6-5.4
		c-0.2,2.2-0.4,4.4-0.6,6.6c-1.3,13.5-3,27.2-5.2,40.8c-4.2,14.5-7.5,29.2-10.1,44c0,1.4,0.4,2.8,1.3,4.2c-0.3,1.1-0.7,2.5-1.3,4.2
		c-0.6,2.2-0.1,4,1.5,5.2c1.5,1.3,3.1,1.9,4.8,1.9c1.1,0,2.2-0.3,3.1-1c1-0.7,1.6-1.7,1.9-3.1c2.2-8.9,4.3-17.9,6.1-27
		c1.8-9.1,3.4-18.1,4.8-27c1.4-3.9,3.4-9.5,6.1-16.8c2.7-7.3,5.9-14.5,9.6-21.6c3.8-7.1,8-13.4,12.6-18.8s9.3-8.4,14-9
		c0.6,0,1,0.7,1.5,2.1c0.4,1.4,0.7,3.1,0.8,5c0.1,2,0.3,3.8,0.4,5.7c0.1,1.8,0.2,3,0.2,3.6c0,3.4,0.1,7.1,0.4,11.1
		c0.3,4.1,1,7.9,2.1,11.5c1.1,3.6,2.8,6.8,5,9.6c2.2,2.8,5.4,4.6,9.6,5.4c0.8,0.3,1.7,0.4,2.7,0.4c1,0,1.9,0,2.7,0
		c6.4,0,12.6-1.9,18.4-5.7c5.9-3.8,11.2-8.4,16.1-13.8c4.9-5.4,9.4-11.2,13.6-17.4c4.2-6.1,7.8-11.4,10.9-15.9
		c1.4-2.2,1.4-4.3,0-6.1C668.6,377.4,666.8,376.4,664.6,376.4z M562.6,313.6c1.5-6.7,3.4-14,5.7-22c2.2-8,4.7-16.2,7.3-24.7
		c2.7-8.5,5.4-16.5,8.2-23.9c2.8-7.4,5.7-13.9,8.6-19.5c2.9-5.6,5.8-9.4,8.6-11.3c0.3,1.7,0.2,3.5-0.2,5.4c-0.4,2-0.9,3.6-1.5,5
		c-1.7,8.1-3.8,15.9-6.5,23.5c-2.7,7.5-5.5,15.1-8.6,22.6c-3.9,9.8-7.8,19.8-11.7,30.2c-3.9,10.3-8.4,20.4-13.4,30.2
		C559.9,325.5,561.1,320.3,562.6,313.6z M340.4,421.9c-4.2,3.8-8.4,5.7-12.6,5.7c-3.4,0-5.8-1.6-7.3-4.8c-1.5-3.2-2.3-6.9-2.3-11.1
		c0-4.2,0.6-8.2,1.9-11.9c1.3-3.8,3-6.1,5.2-6.9c2.8,3.9,6.3,7.5,10.5,10.9c4.2,3.4,8.7,5.6,13.4,6.7
		C347.5,414.3,344.6,418.1,340.4,421.9z M352.5,398.6c-3.4-0.6-6.7-2-10.1-4.2c-3.4-2.2-5.9-4.9-7.5-8c-0.6-1.7-1.1-2.8-1.7-3.4
		c-1.1-2.8-1.2-5.2-0.2-7.3c1-2.1,3.3-3.1,6.9-3.1c5,0,8.3,2.1,9.8,6.3c1.5,4.2,2.4,8.2,2.7,12.1
		C353.1,393.6,353.1,396.1,352.5,398.6z"/>
	<path class="st0" d="M1146.9,576.9c-1.3-1.3-2.7-1.9-4.4-1.9c-1.1,0-2,0.1-2.5,0.4c-2.8,0.8-5.3,1.3-7.5,1.3c-5,0-8.9-1.9-11.7-5.7
		c-2.8-3.8-4.8-8.3-6.1-13.6c-1.3-5.3-2-10.9-2.3-16.8c-0.3-5.9-0.4-10.7-0.4-14.7c-0.6-15.9-0.2-31.8,1-47.5
		c1.3-15.8,2.7-31.5,4.4-47.1c2-19,4.3-38,7.1-57c2.8-19,5.4-38,8-57.2c2.5-19.1,4.5-38.3,6.1-57.4c1.5-19.1,1.9-38.3,1-57.6
		c-0.3-6.1-1-13.6-2.1-22.4c-1.1-8.8-2.9-17.2-5.4-25.1c-2.5-8-6.1-14.8-10.7-20.5c-4.6-5.7-10.7-8.6-18.2-8.6
		c-7.8,0-15.3,2.5-22.4,7.5c-7.1,5-13.6,11.1-19.5,18.2c-5.9,7.1-11.1,14.7-15.7,22.6c-4.6,8-8.4,14.9-11.5,20.7
		c-10.9,22.9-19.2,46.9-24.9,71.8c-5.7,25-10.7,50.1-14.9,75.2c-1.1-12.3-2.3-24.4-3.6-36.4c-1.3-12-2.9-24.2-4.8-36.4
		c-0.8-5-2-11.2-3.6-18.4c-1.5-7.3-3.8-14.2-6.9-20.9c-3.1-6.7-7-12.4-11.7-17.2c-4.8-4.7-10.5-7.1-17.2-7.1
		c-6.4,0-12.5,2.2-18.2,6.5c-5.7,4.3-10.4,8.9-14,13.6c-7.8,10.1-14.5,21.1-20.1,33.1c-5.6,12-10.5,24.3-14.7,36.9
		c-4.2,12.6-8.1,25.2-11.7,37.9c-3.6,12.7-7.4,25.1-11.3,37.1c-1.4,4.5-2.8,8.8-4.2,13c-1.4,4.2-2.8,8.5-4.2,13
		c2-9.5,3.8-18.8,5.7-28.1c1.8-9.2,3.8-18.6,6.1-28.1c3.1-13.4,6.2-26.8,9.4-40.2c3.2-13.4,5.9-26.9,8.2-40.6
		c2.5-15.6,4.3-31.6,5.4-47.8c1.1-16.2,0.1-32.1-2.9-47.8c-0.6-3.4-1.5-6.7-2.9-10.1c-1.4-3.4-3.1-6.3-5.2-9
		c-2.1-2.7-4.5-4.9-7.3-6.7c-2.8-1.8-6.1-2.7-10.1-2.7c-5.9,0-11.5,2-17,6.1c-5.4,4.1-10.1,7.7-14,11.1c-2.8,2.5-3.4,5.2-1.7,8.2
		c1.7,2.9,4,4.4,7.1,4.4c1.4,0,3.1-0.7,5-2.1c2.2-2,5.2-4.5,9-7.7c3.8-3.2,7.5-4.8,11.1-4.8c2.8,0,5,1.3,6.7,3.8
		c3.4,5,5.3,11,5.9,17.8c0.6,6.8,1,13.1,1.3,18.6c0.8,26-1.5,51.8-7.1,77.5c-7.3,34.3-14.5,68.5-21.8,102.4
		c-7.3,33.9-14.4,68.1-21.4,102.4c-7.3,35.7-14.7,71.2-22.4,106.4c-7.7,35.2-16,70.5-24.9,106c-0.8,2.8-0.4,5,1.3,6.7
		c1.7,1.7,3.6,2.5,5.9,2.5c3.6,0,6-2,7.1-5.9c1.1-1.1,1.7-2.2,1.7-3.4c0.8-3.4,1.6-6.6,2.3-9.8c0.7-3.2,1.3-6.4,1.9-9.4
		c10.3-39.1,20.3-77.8,30-116.2c9.6-38.4,20.2-76.9,31.6-115.4c5-16.8,10.3-33.4,15.9-49.8c5.6-16.5,10.9-33.1,15.9-49.8
		c3.4-11.4,6.9-22.8,10.7-34.1c3.8-11.3,8-22.4,12.8-33.3c1.7-3.6,3.7-8.1,6.1-13.4c2.4-5.3,5.2-10.4,8.4-15.3
		c3.2-4.9,6.8-9.1,10.9-12.6c4-3.5,8.4-5.4,13.2-5.7c5-0.3,9.1,1.9,12.4,6.5c3.2,4.6,5.8,10,7.8,16.1c2,6.1,3.4,12.4,4.4,18.6
		c1,6.3,1.6,11.1,1.9,14.5c3.6,22.6,6.2,45.3,7.7,68.1c1.5,22.8,2.6,45.7,3.1,68.9c-1.7,14-2.7,27.8-2.9,41.5
		c-0.3,13.7,1,27.4,3.8,41.1v1.3c0.3,2.2,1.1,3.8,2.5,4.8c1.4,1,2.9,1.5,4.6,1.5c3.4,0,5.4-1,6.3-2.9c0.8-2,1.3-4.3,1.3-7.1
		c0-13.4,0-26.6,0-39.6c0-13-0.3-26.2-0.8-39.6c2.5-17.9,5.4-36,8.8-54.5c2.5-15.1,5.2-30.9,8.2-47.5c2.9-16.6,6.6-33.1,10.9-49.4
		c4.3-16.3,9.6-32.2,15.9-47.5c6.3-15.4,13.8-29.5,22.4-42.3c1.7-2.5,3.9-5.6,6.7-9.2c2.8-3.6,5.9-7.1,9.4-10.5
		c3.5-3.4,7.1-6.2,10.9-8.6c3.8-2.4,7.5-3.6,11.1-3.6c5.3,0,9.5,2.8,12.6,8.4c5,8.9,8,19.2,8.8,30.8c0.8,11.6,1.4,22.4,1.7,32.5
		c0.3,16.8-0.4,33.4-2.1,50.1c-1.7,16.6-3.6,33.3-5.9,50.1c-2.2,18.4-4.7,37.1-7.3,55.9c-2.7,18.9-5.1,37.7-7.3,56.6
		c-2.2,18.9-3.9,37.7-5,56.6c-1.1,18.9-1.1,37.6,0,56.3c0.3,5.9,1,12,2.3,18.4c1.3,6.4,3.3,12.2,6.1,17.4c2.8,5.2,6.3,9.5,10.5,13
		c4.2,3.5,9.4,5.2,15.5,5.2c2,0,3.9-0.1,5.9-0.4c2-0.3,4-0.8,6.3-1.7c2.2-0.6,3.7-1.7,4.4-3.4c0.7-1.7,1-3.4,0.8-5
		C1148.9,579.6,1148.2,578.1,1146.9,576.9z"/>
	<path class="st0" d="M1314.5,389.4c-1.3-2.8-3.3-4.2-6.1-4.2c-0.6,0-1,0.1-1.3,0.2c-0.3,0.1-0.7,0.2-1.3,0.2
		c-5.6,2.5-11.4,5.2-17.4,8c-6,2.8-11.8,4.6-17.4,5.4v-8c-0.3-3.4-0.8-6.8-1.7-10.5c-0.8-3.6-2.2-6.8-4.2-9.6
		c-2-2.8-4.3-5.1-7.1-6.9c-2.8-1.8-6.1-2.7-10.1-2.7c-5.3,0-10.1,1.6-14.2,4.8c-4.2,3.2-6.3,7.6-6.3,13.2c0,0.6,0.1,1.1,0.2,1.7
		c0.1,0.6,0.2,1.1,0.2,1.7c-4.2,1.7-7.4,4.9-9.6,9.6c-2.2,4.8-3.6,9.8-4,15.3c-0.1,0.7-0.1,1.5-0.1,2.2c-1.8,1.4-3.8,2.6-6,3.4
		c-0.3,0-0.6,0.1-0.8,0.2c-0.3,0.1-0.6,0.2-0.8,0.2c-1.4,0-2.4-0.7-3.1-2.1c-0.7-1.4-1.2-3.1-1.5-5c-0.3-2-0.4-4-0.4-6.1
		c0-2.1,0.1-3.8,0.4-5.2c2-2.2,2.3-4.5,1-6.7c-1.3-2.2-3-3.4-5.2-3.4c-1.1,0-2.1,0.4-2.9,1.3c-1.7,0.6-2.8,1.7-3.4,3.4
		c-3.4,3.9-6.4,7.9-9,11.9c-2.7,4.1-5.4,8-8.2,11.9c-1.4,1.7-2.9,3.3-4.4,5c-1.5,1.7-3.1,3.2-4.8,4.6c0.6-7,1.7-14,3.6-21.2
		c1.8-7.1,5.1-13.3,9.8-18.6c1.4-1.7,3.8-3.9,7.3-6.7c3.5-2.8,6.8-4.2,9.8-4.2c2.5,0,4.3,1.4,5.4,4.2c0.8,2.5,2.6,3.8,5.4,3.8
		c1.9,0,3.6-0.6,4.8-1.9c1.3-1.3,1.5-3,0.6-5.2c-1.7-4.2-3.9-7.2-6.7-9c-2.8-1.8-5.7-2.7-8.8-2.7c-5.9,0-11,1.5-15.5,4.4
		c-4.5,2.9-8.4,6.7-11.7,11.3c-3.4,4.6-6.1,9.6-8.4,14.9c-2.2,5.3-3.9,10.3-5,15.1c-0.6,2-1.1,4.7-1.7,8.2
		c-0.6,3.5-0.8,6.9-0.8,10.3s0.6,6.3,1.9,8.8c1.3,2.5,3.6,3.8,6.9,3.8h1.7c1.7-0.3,3.4-1,5-2.1c1.7-1.1,3.3-2.5,4.8-4.2
		c1.5-1.7,2.9-3.4,4.2-5c1.3-1.7,2.3-3.1,3.1-4.2c2-2.2,3.7-4.5,5.2-6.7c1.5-2.2,3.1-4.5,4.8-6.7c0.8,3.9,2.7,7.5,5.4,10.7
		c2.8,3.2,6.3,4.8,10.5,4.8c3.1,0,5.9-0.8,8.6-2.5c0.1-0.1,0.2-0.1,0.3-0.2c0.1,0.4,0.2,0.8,0.4,1.2c1.7,5.2,4.3,9,8,11.5
		c3.1,2.2,6.7,3.4,10.9,3.4c3.6,0,7.2-0.8,10.7-2.3c3.5-1.5,6.7-3.6,9.6-6.1c2.9-2.5,5.6-5.4,8-8.6c2.4-3.2,4.1-6.5,5.2-9.8
		c7.5-0.6,15-2.7,22.4-6.3c7.4-3.6,14.3-6.8,20.7-9.6C1314.8,394.3,1315.8,392.2,1314.5,389.4z M1247.7,421.9
		c-4.2,3.8-8.4,5.7-12.6,5.7c-3.4,0-5.8-1.6-7.3-4.8c-1.2-2.6-2-5.5-2.2-8.7c2.6-2.8,5-5.9,7-9.3c1.4-2.3,2.8-4.6,4.1-7
		c1.9,2.1,4,4,6.4,5.9c4.2,3.4,8.7,5.6,13.4,6.7C1254.8,414.3,1251.9,418.1,1247.7,421.9z M1259.8,398.6c-3.4-0.6-6.7-2-10.1-4.2
		c-3.4-2.2-5.9-4.9-7.5-8c-0.6-1.7-1.1-2.8-1.7-3.4c-1.1-2.8-1.2-5.2-0.2-7.3c1-2.1,3.3-3.1,6.9-3.1c5,0,8.3,2.1,9.8,6.3
		c1.5,4.2,2.4,8.2,2.7,12.1C1260.4,393.6,1260.4,396.1,1259.8,398.6z"/>
</g>
<path class="st0" d="M667.6,962.9c-1-2.8-2.3-5.3-3.8-7.6c3.6-3.7,5.7-8.7,5.7-14.3V813.2c0-11.4-9.2-20.6-20.6-20.6h-19.5
	c-11.4,0-20.6,9.2-20.6,20.6l0,14.2c0,5,0,10,0,15c-9.9,0-20,0-30.1,0c0-2.5,0-20.6,0-27.1c0-8.3-3.6-13.6-6.7-16.6
	c-2.5-2.4-8-6.5-16.6-6.3c-2.7,0.1-11.1,0-12.4,0h-5.8c-6.8,0-12.8,3.3-16.6,8.4c-7.8-5.5-17.1-8.4-27.1-8.4
	c-22.1,0-84.3,0.2-84.4,0.2c-11,0.5-19.6,9.6-19.6,20.6v32.1c-0.2,0-0.4,0-0.6,0c-2,0-3.9,0.1-5.9,0.1c-3.4,0.1-6.6,0.1-9.8,0.1
	c-7.8,0-15.2,0-22.3,0c1.6-2.7,2.8-25.9,2.9-29.6c0.2-8.4-3.4-13.9-6.5-16.9c-3.1-3.1-8.5-6.7-16.9-6.6c-5,0.1-27.9,0.3-34.2,0.4
	c-9.2,0.2-19,0.7-29.1,4.1c-12.7,4.3-22.5,12.6-28.2,24c-4,8-5.9,16.7-6.1,27.4c-0.2,15.6-0.3,30-0.3,44c0,8.6,0.4,15.8,1.1,22.5
	c1.3,12.6,6.4,23.3,14.8,31.3c-3.6,1.9-6.9,4.5-9.6,7.9c-3.4,4.2-7.4,11.4-7.4,22.2c0,8,2.2,15.2,6.5,21.3
	c5.6,8,14.5,12.6,24.3,12.6c7.4,0,371.8,0,377.8,0c10.1,0,16.7-4,20.5-7.4c6-5.3,9.3-12.7,9.3-20.8
	C669.6,979.1,668.9,966.4,667.6,962.9z"/>
<g>
	<path class="st1" d="M332.9,835.4c-4.4,0-8.6-0.1-12.8,0c-8.7,0.1-17.5,0-26.2,0.6c-7.8,0.5-12.5,5.3-14.1,13c-0.5,2.7-1,5.4-1,8.1
		c-0.1,4.7,2,7.3,6.6,8.4c2,0.5,4,0.7,6,0.7c27.3,0,54.5,0,81.8,0c5.3,0,10.6-0.2,15.9-0.2c0.8,0,1.5,0.1,2.4,0.1c0,7,0,13.8,0,20.9
		c-0.9,0-1.8,0.1-2.8,0.1c-32.8,0-65.5,0-98.3,0c-1.9,0-3.8,0.2-5.6,0.4c-2.7,0.4-4.8,2.2-4.9,5.2c-0.2,4.7-0.3,9.5,0.3,14.2
		c0.5,5,3.8,8.3,8.4,9.7c4.1,1.2,8.4,2.2,12.7,2.3c17.5,0.4,34.9,0.5,52.4,0.5c11.9,0,23.9-0.2,35.8-0.3c1.6,0,2.2,0.4,2.2,2.1
		c-0.1,5.4,0,10.9,0,16.4c0,2.9,0,2.9-2.8,2.9c-16.2,0-32.4,0.1-48.6,0c-18.4-0.2-36.9-0.6-55.3-1c-6.9-0.2-13.6-1.6-19.4-5.7
		c-7.2-5.1-10.7-12.4-11.6-21c-0.7-6.8-0.9-13.7-1-20.5c-0.1-14.5,0-29.1,0.3-43.6c0.1-6.4,1-12.7,3.9-18.5
		c3.5-7,9.1-11.3,16.4-13.7c7.5-2.5,15.2-2.8,23-3c11.4-0.2,22.8-0.2,34.1-0.4c1.9,0,2.5,0.5,2.5,2.5c-0.1,5.7,0,11.5,0,17.2
		C333.1,833.4,333,834.1,332.9,835.4z"/>
	<path class="st2" d="M466.9,898.8c16.9,14.6,34.7,28.1,52.7,42.3c-1.5,0-2.5,0-3.5,0c-9.7,0-19.4,0-29.1-0.1
		c-1.1,0-2.5-0.5-3.3-1.2c-14.4-11.9-28.7-24-43.2-35.9c-2.9-2.4-6.1-4.4-9.6-7c0,15,0,29.4,0,44c-7.1,0-13.8,0-20.8,0
		c0-42.5,0-85.1,0-127.8c0.7,0,1.4-0.1,2.1-0.1c27.1,0,54.2,0,81.3,0c12.7,0,22.9,7.9,26.2,21.3c3.5,13.9,4,28.1,0.9,42.2
		c-2.9,13.4-11.1,20.6-24.8,21.4c-9,0.6-18,0.2-27,0.3c-0.5,0-1.1,0-1.6,0C467.1,898.5,467,898.6,466.9,898.8z M462,877.8
		c9.2,0,18.4,0,27.7,0c6.1,0,9.7-2.6,11.3-8.5c1.9-6.7,1.7-13.6,0.5-20.4c-1.4-7.7-4.7-10.5-12.4-10.6c-18.8-0.2-37.6-0.2-56.4-0.3
		c-1.7,0-1.9,0.8-1.9,2.2c0,11.7,0.1,23.5,0,35.2c0,2,0.7,2.4,2.5,2.4C442.8,877.7,452.4,877.8,462,877.8z"/>
	<path class="st2" d="M558.1,941.1c-7.1,0-13.9,0-20.9,0c0-42.6,0-85.2,0-128c2,0,3.9,0,5.8,0c4.3,0,8.7,0.1,13,0
		c1.7,0,2.1,0.6,2.1,2.2c-0.1,15.1,0,30.2-0.1,45.3c0,2.1,0.6,2.6,2.6,2.6c21.9-0.1,43.7,0,65.6,0c3,0,3.2-0.1,3.2-3.2
		c0-14.6,0-29.2,0-43.8c0-0.9,0-1.8,0-2.8c6.6,0,12.9,0,19.5,0c0,42.6,0,85.1,0,127.8c-6.4,0-12.7,0-19.3,0c0-0.8-0.1-1.7-0.1-2.6
		c0-12.6,0-25.3,0-37.9c0-0.6,0-1.1,0-1.7c-0.1-2.9-0.4-3.2-3.3-3.2c-21.7,0-43.3,0-65,0c-3.1,0-3.1,0-3.1,3.2c0,13.2,0,26.4,0,39.6
		C558.1,939.2,558.1,940,558.1,941.1z"/>
	<g>
		<path d="M268.4,980.6l2.9,0.6c-1.4,5.5-4.5,8.3-9.3,8.3c-3.2,0-5.6-1.3-7.4-3.8c-1.8-2.6-2.7-5.7-2.7-9.4c0-3.8,0.9-6.9,2.8-9.3
			c1.9-2.3,4.4-3.5,7.6-3.5c4.7,0,7.7,2.7,9,8l-2.9,0.6c-1.1-4-3.1-6-6.1-6c-2.2,0-3.9,0.9-5.1,2.8c-1.2,1.8-1.8,4.4-1.8,7.8
			c0,3.1,0.6,5.5,1.9,7.4c1.2,1.8,2.9,2.8,4.9,2.8C265.3,986.8,267.4,984.7,268.4,980.6z"/>
		<path d="M300.3,989.5c-3.2,0-5.7-1.2-7.5-3.7c-1.8-2.5-2.7-5.6-2.7-9.2c0-3.8,0.9-6.9,2.8-9.4c1.9-2.5,4.4-3.7,7.5-3.7
			c3.1,0,5.6,1.2,7.4,3.6c1.9,2.4,2.8,5.5,2.8,9.2c0,3.5-0.9,6.6-2.7,9.3C306,988.2,303.5,989.5,300.3,989.5z M300.3,986.9
			c2.2,0,3.9-1,5.1-3c1.2-2,1.8-4.6,1.8-7.7c0-3.2-0.6-5.7-1.9-7.5c-1.3-1.8-3-2.7-5.1-2.7c-2.1,0-3.8,1-5.1,2.9
			c-1.3,1.9-1.9,4.5-1.9,7.6c0,3.1,0.6,5.6,1.9,7.5C296.5,986,298.2,986.9,300.3,986.9z"/>
		<path d="M350.1,989h-3l-12.9-21.8l0,1.6c0,0.6,0.1,1.1,0.1,1.6V989h-2.5v-25h3.9l12.1,20.3l0-1.7c0-0.7,0-1.3,0-1.8V964h2.5V989z"
			/>
		<path d="M370.1,982.4l2.8-0.6c1.1,3.4,3.6,5.1,7.4,5.1c2,0,3.5-0.4,4.5-1.3c1-0.8,1.5-2,1.5-3.4c0-1.1-0.4-1.9-1.1-2.6
			c-0.8-0.6-1.6-1.1-2.6-1.3l-5-1.2c-1.3-0.3-2.4-0.7-3.2-1.2c-0.8-0.5-1.5-1.2-2.1-2.2c-0.6-1-0.9-2.1-0.9-3.4c0-2.1,0.8-3.8,2.4-5
			c1.6-1.2,3.6-1.9,6.1-1.9c4.5,0,7.5,2.1,8.9,6.2l-2.8,0.8c-0.3-1.5-1.1-2.6-2.3-3.3c-1.2-0.8-2.5-1.1-3.9-1.1
			c-1.4,0-2.6,0.4-3.6,1.1c-1.1,0.7-1.6,1.7-1.6,3.1c0,1.8,1.4,3.1,4.1,3.7l4.7,1.1c4.3,1,6.4,3.3,6.4,6.9c0,2.2-0.8,4-2.4,5.4
			c-1.6,1.4-3.9,2.1-6.8,2.1C375.2,989.5,371.8,987.1,370.1,982.4z"/>
		<path d="M424.9,964h2.6v16.3c0,3.3-0.8,5.6-2.4,7c-1.6,1.4-3.7,2.1-6.3,2.1c-2.9,0-5-0.7-6.4-2.2c-1.4-1.5-2.1-3.8-2.1-7V964h3.1
			v16.3c0,1.9,0.2,3.3,0.7,4.1c0.5,0.8,1.1,1.4,2,1.8c0.9,0.4,1.9,0.6,2.9,0.6c1.9,0,3.4-0.5,4.4-1.5c1-1,1.5-2.6,1.5-4.9V964z"/>
		<path d="M464.6,986.2v2.7h-14.7v-25h3.2v22.2H464.6z"/>
		<path d="M489.8,989h-3.1v-22.2h-7.2V964h17.4v2.7h-7.2V989z"/>
		<path d="M524.4,989.5c-3.2,0-5.7-1.2-7.5-3.7s-2.7-5.6-2.7-9.2c0-3.8,0.9-6.9,2.8-9.4c1.9-2.5,4.4-3.7,7.5-3.7
			c3.1,0,5.6,1.2,7.4,3.6c1.9,2.4,2.8,5.5,2.8,9.2c0,3.5-0.9,6.6-2.7,9.3S527.6,989.5,524.4,989.5z M524.4,986.9c2.2,0,3.9-1,5.1-3
			c1.2-2,1.8-4.6,1.8-7.7c0-3.2-0.6-5.7-1.9-7.5c-1.3-1.8-3-2.7-5.1-2.7c-2.1,0-3.8,1-5.1,2.9c-1.3,1.9-1.9,4.5-1.9,7.6
			c0,3.1,0.6,5.6,1.9,7.5C520.6,986,522.3,986.9,524.4,986.9z"/>
		<path d="M573.8,989h-3.3l-4.6-10.8h-7.2V989h-2.9v-25h9.8c2.7,0,4.6,0.7,5.9,2.2c1.3,1.5,1.9,3.1,1.9,4.8c0,1.3-0.4,2.6-1.1,3.8
			c-0.7,1.2-1.9,2.1-3.6,2.6L573.8,989z M558.8,975.6h6.5c1.7,0,3-0.5,3.8-1.4c0.8-0.9,1.3-2,1.3-3.3c0-1.3-0.4-2.3-1.3-3.1
			s-2-1.1-3.4-1.1h-6.9V975.6z"/>
		<path d="M611.5,986.2v2.7h-16.1v-25h15.8v2.7h-12.7v7.9h10.1v2.5h-10.1v9H611.5z"/>
		<path d="M629.6,982.4l2.8-0.6c1.1,3.4,3.6,5.1,7.4,5.1c2,0,3.5-0.4,4.5-1.3c1-0.8,1.5-2,1.5-3.4c0-1.1-0.4-1.9-1.1-2.6
			c-0.8-0.6-1.6-1.1-2.6-1.3l-5-1.2c-1.3-0.3-2.4-0.7-3.2-1.2c-0.8-0.5-1.5-1.2-2.1-2.2c-0.6-1-0.9-2.1-0.9-3.4c0-2.1,0.8-3.8,2.4-5
			c1.6-1.2,3.6-1.9,6.1-1.9c4.5,0,7.5,2.1,8.9,6.2l-2.8,0.8c-0.3-1.5-1.1-2.6-2.3-3.3c-1.2-0.8-2.5-1.1-3.9-1.1
			c-1.4,0-2.6,0.4-3.6,1.1c-1.1,0.7-1.6,1.7-1.6,3.1c0,1.8,1.4,3.1,4.1,3.7l4.7,1.1c4.3,1,6.4,3.3,6.4,6.9c0,2.2-0.8,4-2.4,5.4
			c-1.6,1.4-3.9,2.1-6.8,2.1C634.6,989.5,631.2,987.1,629.6,982.4z"/>
	</g>
</g>
<g>
	<path class="st3" d="M235.6,757.4v-63.5h7.3v63.5H235.6z M240.2,732.8V726H253c1.8,0,3.3-0.6,4.3-1.8c1-1.2,1.5-2.9,1.5-5.1v-11
		c0-2.3-0.5-4.1-1.5-5.3s-2.4-1.9-4.3-1.9h-12.8v-6.9h12.5c2.9,0,5.3,0.5,7.3,1.6c2,1.1,3.5,2.7,4.6,4.7s1.6,4.6,1.6,7.6v11.3
		c0,2.9-0.5,5.3-1.6,7.3s-2.6,3.6-4.6,4.7c-2,1.1-4.4,1.6-7.2,1.6H240.2z"/>
	<path class="st3" d="M283.4,758.1c-4.1,0-7.3-1.1-9.6-3.4c-2.3-2.3-3.4-5.5-3.4-9.7v-20.6c0-4.1,1.1-7.3,3.4-9.6
		c2.3-2.3,5.5-3.4,9.6-3.4s7.3,1.1,9.6,3.4c2.3,2.3,3.4,5.5,3.4,9.6V745c0,4.1-1.1,7.3-3.4,9.6C290.7,756.9,287.5,758.1,283.4,758.1
		z M283.3,751.1c1.8,0,3.3-0.5,4.3-1.6s1.5-2.6,1.5-4.6v-20.5c0-1.9-0.5-3.4-1.5-4.5c-1-1.1-2.4-1.6-4.3-1.6c-1.8,0-3.2,0.5-4.2,1.6
		c-1,1.1-1.5,2.6-1.5,4.5v20.5c0,2,0.5,3.5,1.5,4.6S281.5,751.1,283.3,751.1z"/>
	<path class="st3" d="M301.6,719v-6.9h19.6v6.9H301.6z M316.9,757.6c-3.7,0-6.4-1-8.1-3.1c-1.7-2.1-2.5-5-2.5-8.9v-46.7h7.3v46.8
		c0,1.6,0.4,2.9,1.1,3.8c0.7,0.9,1.8,1.3,3.2,1.3h3.4v6.9H316.9z"/>
	<path class="st3" d="M341.5,758.1c-4.4,0-7.8-1.3-10.2-4c-2.4-2.6-3.6-6.3-3.6-11.1v-15.8c0-5.1,1.2-9,3.5-11.8s5.7-4.2,9.9-4.2
		c4.3,0,7.7,1.3,10,3.9s3.5,6.2,3.5,10.9v11.6h-22.2v-6.3h15.1v-5.1c0-2.6-0.6-4.7-1.7-6.1c-1.1-1.4-2.7-2.1-4.8-2.1
		c-2,0-3.6,0.8-4.7,2.3c-1.1,1.5-1.7,3.7-1.7,6.5v16.5c0,2.5,0.6,4.5,1.7,5.9c1.2,1.4,2.8,2.1,4.9,2.1c2,0,3.5-0.5,4.6-1.6
		c1.1-1.1,1.6-2.6,1.6-4.6v-0.3l7.1,0v0.3c0,4.1-1.2,7.3-3.5,9.6C349.1,756.9,345.8,758.1,341.5,758.1z"/>
	<path class="st3" d="M363.6,757.4v-45.3h7.3v45.3H363.6z M384,757.4v-31.7c0-2.5-0.5-4.4-1.6-5.7c-1.1-1.3-2.7-1.9-4.9-1.9
		c-2.2,0-3.8,0.7-4.9,2c-1.1,1.3-1.6,3.4-1.6,6.1l-0.9-6.5c1-2.9,2.5-5,4.3-6.4c1.8-1.4,3.9-2.1,6.3-2.1c3.6,0,6.2,1.1,8,3.3
		s2.7,5.5,2.7,9.8v32.9H384z"/>
	<path class="st3" d="M413.7,758.1c-4.4,0-7.7-1.2-10.1-3.5c-2.4-2.4-3.6-5.7-3.6-10v-19c0-4.5,1.2-8,3.6-10.5
		c2.4-2.5,5.8-3.7,10.1-3.7c4.4,0,7.8,1.2,10.2,3.7c2.4,2.5,3.6,6,3.6,10.6v0.9h-7.1v-0.9c0-2.4-0.6-4.2-1.7-5.5
		c-1.1-1.3-2.8-1.9-4.9-1.9c-2.1,0-3.7,0.6-4.8,1.9c-1.1,1.3-1.7,3.1-1.7,5.5v19c0,2.2,0.6,3.8,1.7,5c1.1,1.2,2.8,1.7,4.8,1.7
		c2.1,0,3.7-0.6,4.9-1.8c1.2-1.2,1.7-2.9,1.7-5.1v-0.9l7.2,0v0.9c0,4.3-1.2,7.7-3.6,10.1C421.6,756.9,418.1,758.1,413.7,758.1z"/>
	<path class="st3" d="M435,702.8v-7.3h7.3v7.3H435z M435,757.4v-45.3h7.3v45.3H435z"/>
	<path class="st3" d="M463.2,758.1c-3.8,0-6.7-1.1-8.6-3.2c-1.9-2.1-2.9-5.3-2.9-9.5c0-5.1,1.2-8.9,3.5-11.4
		c2.3-2.5,5.8-3.8,10.5-3.8h7l0.6,6h-7.6c-2.4,0-4.2,0.8-5.4,2.3c-1.2,1.5-1.8,3.8-1.8,6.9c0,2.3,0.5,4,1.6,5
		c1.1,1.1,2.7,1.6,4.8,1.6c2.4,0,4.3-0.7,5.5-2c1.2-1.3,1.8-3.3,1.8-5.9l0.9,4c0,2.2-0.4,4.1-1.2,5.5s-1.8,2.6-3.3,3.3
		C467.2,757.7,465.4,758.1,463.2,758.1z M472.2,757.4v-33.2c0-2.1-0.6-3.8-1.7-4.9c-1.2-1.2-2.8-1.7-4.9-1.7c-1.9,0-3.3,0.6-4.4,1.7
		s-1.6,2.8-1.5,5l-7.1,0c0-4.1,1.1-7.3,3.4-9.5c2.3-2.3,5.5-3.4,9.7-3.4c4.2,0,7.5,1.1,9.9,3.4c2.3,2.3,3.5,5.4,3.5,9.5v33.2H472.2z
		"/>
	<path class="st3" d="M498.6,758.2c-3.3,0-6-1.2-7.8-3.6c-1.9-2.4-2.8-5.7-2.8-10v-19.3c0-4.5,0.9-7.9,2.8-10.4
		c1.9-2.5,4.5-3.7,7.9-3.7c2.2,0,4.1,0.7,5.9,2.1c1.8,1.4,3.2,3.4,4.3,5.9l-0.9,6.3c0-1.7-0.2-3.1-0.7-4.2c-0.5-1.1-1.2-2-2.1-2.6
		c-0.9-0.6-2.1-0.9-3.4-0.9c-2,0-3.5,0.7-4.6,2.1c-1.1,1.4-1.7,3.3-1.7,5.7v18.8c0,2.3,0.6,4,1.7,5.3c1.1,1.3,2.7,1.9,4.6,1.9
		c1.4,0,2.5-0.3,3.4-0.9c0.9-0.6,1.6-1.4,2.1-2.6c0.5-1.1,0.7-2.5,0.7-4.1l0.6,6.2c-0.8,2.5-2.1,4.4-3.8,5.8
		C502.9,757.5,500.9,758.2,498.6,758.2z M507.9,757.4v-63.5h7.3v63.5H507.9z"/>
	<path class="st3" d="M536.9,758.1c-4.1,0-7.3-1.1-9.6-3.4c-2.3-2.3-3.4-5.5-3.4-9.7v-20.6c0-4.1,1.1-7.3,3.4-9.6
		c2.3-2.3,5.5-3.4,9.6-3.4s7.3,1.1,9.6,3.4c2.3,2.3,3.4,5.5,3.4,9.6V745c0,4.1-1.1,7.3-3.4,9.6C544.3,756.9,541.1,758.1,536.9,758.1
		z M536.8,751.1c1.8,0,3.3-0.5,4.3-1.6s1.5-2.6,1.5-4.6v-20.5c0-1.9-0.5-3.4-1.5-4.5c-1-1.1-2.4-1.6-4.3-1.6c-1.8,0-3.2,0.5-4.2,1.6
		c-1,1.1-1.5,2.6-1.5,4.5v20.5c0,2,0.5,3.5,1.5,4.6S535.1,751.1,536.8,751.1z"/>
	<path class="st3" d="M576.6,775.8v-63.7h7.3v63.7H576.6z M592.9,758.1c-2.3,0-4.3-0.7-6-2c-1.7-1.4-2.9-3.3-3.6-5.7l0.6-6.9
		c0,1.7,0.2,3.2,0.7,4.4c0.5,1.2,1.2,2.2,2.2,2.8c0.9,0.6,2.1,1,3.4,1c2,0,3.6-0.7,4.7-2.2c1.1-1.5,1.7-3.5,1.7-6.2V726
		c0-2.6-0.6-4.6-1.7-6c-1.1-1.4-2.7-2.1-4.7-2.1c-1.3,0-2.5,0.3-3.4,0.9c-0.9,0.6-1.7,1.5-2.2,2.7c-0.5,1.2-0.7,2.7-0.7,4.3
		l-0.9-6.2c0.9-2.7,2.3-4.7,4.2-6.2c1.9-1.4,3.9-2.1,6.1-2.1c3.3,0,5.9,1.3,7.8,3.8s2.8,6.1,2.8,10.7v17.5c0,4.7-1,8.3-2.9,10.9
		C599.1,756.8,596.4,758.1,592.9,758.1z"/>
	<path class="st3" d="M624.8,758.1c-4.1,0-7.3-1.1-9.6-3.4c-2.3-2.3-3.4-5.5-3.4-9.7v-20.6c0-4.1,1.1-7.3,3.4-9.6
		c2.3-2.3,5.5-3.4,9.6-3.4s7.3,1.1,9.6,3.4c2.3,2.3,3.4,5.5,3.4,9.6V745c0,4.1-1.1,7.3-3.4,9.6C632.1,756.9,628.9,758.1,624.8,758.1
		z M624.7,751.1c1.8,0,3.3-0.5,4.3-1.6s1.5-2.6,1.5-4.6v-20.5c0-1.9-0.5-3.4-1.5-4.5c-1-1.1-2.4-1.6-4.3-1.6c-1.8,0-3.2,0.5-4.2,1.6
		c-1,1.1-1.5,2.6-1.5,4.5v20.5c0,2,0.5,3.5,1.5,4.6S622.9,751.1,624.7,751.1z"/>
	<path class="st3" d="M646.5,757.4v-45.3h7.3v45.3H646.5z M667.2,718.4c-0.1,0-0.2,0-0.4,0c-0.1,0-0.3,0-0.5,0c-3.8,0-6.8,0.9-9,2.8
		c-2.2,1.8-3.4,4.4-3.5,7.6l-0.9-8.8c1.6-2.7,3.6-4.9,6.1-6.4c2.5-1.5,5.2-2.3,8.3-2.3V718.4z"/>
</g>
</svg>
