<?xml version="1.0" encoding="utf-8"?>
<!-- Generator: Adobe Illustrator 28.4.1, SVG Export Plug-In . SVG Version: 6.00 Build 0)  -->
<svg version="1.1" id="Layer_1" xmlns="http://www.w3.org/2000/svg" xmlns:xlink="http://www.w3.org/1999/xlink" x="0px" y="0px"
	 viewBox="0 0 500 500" style="enable-background:new 0 0 500 500;" xml:space="preserve">
<style type="text/css">
	.st0{fill:#9E6178;}
	.st1{fill:url(#SVGID_1_);}
</style>
<path class="st0" d="M23.5,213.2c-3.5,0-6,2.5-6,6c0,3.4,2.7,6.1,6,6.1c3.2,0,6-2.8,6-6.1C29.4,215.9,26.8,213.2,23.5,213.2z"/>
<path class="st0" d="M23.5,232.7c-2.3,0-4.3,1.9-4.3,4.2v69.7c0,2.4,2,4.3,4.3,4.3c2.2,0,4.2-2,4.2-4.3v-69.7
	C27.6,234.7,25.7,232.7,23.5,232.7z"/>
<path class="st0" d="M74.6,232.7c-5,0-9.7,1.3-14.3,3.8c-4.1,2.3-6.4,2.5-7,2.5c-0.2,0-0.3,0-0.4,0c-0.3-2.1-2.1-3.7-4.1-3.7
	c-2.4,0-4.3,2-4.3,4.3v67.1c0,2.3,1.9,4.2,4.3,4.2c2.3,0,4.2-1.9,4.2-4.2v-40.3c0-14.4,9.3-25.2,21.6-25.2c12.4,0,21,10.4,21,25.4
	v40.1c0,2.4,1.8,4.2,4.2,4.2c2.4,0,4.2-1.7,4.2-4.2v-40.1C104,249.7,93.9,232.7,74.6,232.7z"/>
<path class="st0" d="M175.5,233c-0.8-0.4-1.3-0.4-1.7-0.4c-1.4,0-2.8,0.7-3.8,2.1l-0.1,0.2L148,287.4c-1.3,3-2.5,4-3.2,4
	c-1.1,0-2.8-1.7-3.9-4.1l-21.9-52.1l-0.1-0.1c-0.7-1.4-2.3-2.4-3.8-2.4c-0.5,0-1.2,0-2,0.4c-1.9,1-2.8,3.1-2.1,5.4l0,0.1l29.5,69.5
	c0.7,1.9,2.3,2.7,3.7,2.7c2,0,3.5-1,4-2.8l29.5-69.4l0.1-0.2C178.5,236.1,177.6,234,175.5,233z"/>
<path class="st0" d="M191.6,232.7c-2.3,0-4.3,1.9-4.3,4.2v69.7c0,2.4,2,4.3,4.3,4.3c2.2,0,4.2-2,4.2-4.3v-69.7
	C195.8,234.7,193.8,232.7,191.6,232.7z"/>
<path class="st0" d="M191.6,213.2c-3.5,0-6,2.5-6,6c0,3.4,2.7,6.1,6,6.1c3.2,0,6-2.8,6-6.1C197.6,215.9,194.9,213.2,191.6,213.2z"/>
<path class="st0" d="M240.9,300.9h-2.3c-5.6,0-11.3-4.3-11.3-13.8v-40.5c0-3,2.4-5.4,5.4-5.4h9c1.3,0,2.4-0.5,3.2-1.4
	c0.7-0.8,1.1-1.9,0.9-3.1c-0.1-2.3-2-4-4.3-4h-8.8c-2.9,0-5.4-2.5-5.4-5.4v-50.4c0-2.3-1.9-4.2-4.2-4.2c-3.7,0-4.3,4.3-4.3,14.1
	v109.1h0.7c0.4,1,0.9,2.5,1.7,4.2c4,7.5,11.7,12.4,19.6,12.4c3.3,0,6-2.7,6-6C246.7,303.3,244.2,300.9,240.9,300.9z"/>
<path class="st0" d="M330.5,280.1c-1-2.6-3.5-4.4-6.3-4.4c-1.1,0-2.5,0.1-4,1.2c-1.7,1-3.1,3.4-3.1,5.5c0,1,0,2-0.1,2.2l-0.1,0.2
	c-0.2,0.8-0.3,1.5-0.5,1.9l0,0.1c-0.7,2.6-2.6,5.7-5,8.1c-0.1,0.1-0.2,0.1-0.3,0.2c-6.7,5.9-14,7.2-18.9,7.2
	c-11.8,0-18.8-7.7-18.8-7.8c-1.6-1.8-2.2-4.1-1.7-6.3c0.5-2.3,2-4.1,4.1-5.1l45.9-22c3.4-1.7,4.8-6,3.1-9.5l-0.1-0.2
	c-7.9-12.4-18.7-18.7-32.1-18.7c-19.9,0-36,17.4-36,38.9c0,22.3,15.4,39.1,35.8,39.1c14.9,0,26.8-7.5,36.3-22.9
	c0.2-0.2,0.4-0.5,0.7-0.9l0.1-0.2c0.6-1,1.4-2.3,1.4-3.9C331.1,282.1,331.1,281,330.5,280.1z M270.6,274.6c-1.9,0-5-0.6-5-4.7
	c0-1.8,0.3-4.3,0.8-6.1l0-0.1c3-13.9,13.3-22.5,26.8-22.5c6.7,0,13.6,2.5,17.7,6.4c1.7,1.7,2.5,3.7,2.2,5.6
	c-0.3,1.8-1.6,3.4-3.4,4.3l-31.4,15C278.3,272.5,274.2,274.6,270.6,274.6z"/>
<path class="st0" d="M391.7,232.7c-2.3,0-4,1.9-4,4.3v40.3c0,14.1-9.4,24.8-21.8,24.8c-12.1,0-20.9-10.4-20.9-24.8V237
	c0-2.3-1.9-4.3-4.2-4.3c-2.4,0-4.3,2-4.3,4.3v40.3c0,16.2,10.3,33.5,29.4,33.5c5.1,0,9.9-1.3,14.3-3.9c1.6-0.8,5.7-3,7.5-3v2.5
	c0,2.5,1.7,4.3,4,4.3c2.4,0,4.3-2,4.3-4.3V237C396.1,234.7,394.1,232.7,391.7,232.7z"/>
<path class="st0" d="M467.7,302.5h-46.3c-2.1,0-4-1-5.3-2.7c-1.2-1.7-1.6-3.8-0.9-5.9c4.1-12.4,15.5-18.8,26.6-25.1
	c13.6-7.6,27.6-15.5,27.6-34.2c0-19.8-16.6-32.1-32.1-32.1c-19.4,0-30.1,15.8-31.5,27.1c-0.3,1.4-0.8,2.3-1.2,3.2
	c-0.5,1-1.2,2.1-1.2,3.8c0,3.3,2.5,5.8,5.8,5.8c2.8,0,5.8-2.1,5.8-5.6c0-1.4-0.5-2.5-0.9-3.5c-0.4-1-0.7-1.6-0.6-2.1l0-0.1
	c2.4-12.1,11.9-20.2,23.8-20.2c13.2,0,23.9,10.6,23.9,23.7c0,13.9-10.7,19.8-23.1,26.6c-15.4,8.5-32.9,18.1-32.9,45.4
	c0,2.2,1.9,4,4.2,4h58.1c2,0,3.8-1.6,4.1-3.7l0-0.3C471.9,304.3,470.1,302.5,467.7,302.5z"/>
<path class="st0" d="M218.4,109.6c-21.8,0-43.7,0-65.5,0c-7.6,0-12-5.9-8.2-11.5c1.4-2,4.6-3.5,7.2-3.8c5.7-0.6,11.6-0.2,17.4-0.2
	c37.6,0,75.1,0,112.7,0c7.6,0,11.3,2.6,11.4,7.7c0,5.1-3.8,7.8-11.3,7.8C260.9,109.6,239.6,109.6,218.4,109.6z"/>
<path class="st0" d="M335.6,101.9c0,4.3-3.6,7.8-8,7.7c-4.4-0.1-7.6-3.5-7.5-8c0.1-4.3,3.2-7.4,7.6-7.4
	C332,94.1,335.6,97.6,335.6,101.9z"/>
<linearGradient id="SVGID_1_" gradientUnits="userSpaceOnUse" x1="37.8627" y1="455.6147" x2="458.2759" y2="35.2015">
	<stop  offset="0.1654" style="stop-color:#9E6178"/>
	<stop  offset="0.3212" style="stop-color:#FDEFF2"/>
	<stop  offset="0.6559" style="stop-color:#9E6178"/>
</linearGradient>
<path class="st1" d="M404.1,331.4c4.3,0,7.7,3.5,7.7,7.7c0,41.6,0,40.1,0,75.6c0,18.4-7.4,32.8-22.9,42.8c-8.2,5.3-17.3,7.3-27,7.3
	c-38.5-0.1-77,0-115.5,0c-59.3,0-118.6,0-177.8,0c-24.6,0-44.4-15.5-48.2-39.2c-1.9-11.5-1.2-23.4-1.1-35.2c0-5.4,3.6-7.8,9.8-7.8
	c13.4-0.1,43.7,0,45.9,0c0.1-2,0.3-15.7,0.4-37.2c0-5.6,2.1-8.8,5.9-9.6c5.5-1.2,9.6,2.6,9.6,9.2c0.1,12.4,0,26.2,0,37.7
	c2.4,0,169.1,0,250.6,0c8.9,0,12.1,5.1,8.2,13.2c-0.5,1.1-1,2.2-1.5,3.3c-5,10.4-5.2,22.5-0.2,32.9c3.5,7.3,8.9,13.7,16.5,16
	c4.1,1.3,10-0.5,14.2-2.6c11.9-5.9,17.8-16.4,17.8-29.4c0-25.9,0-40.4,0-76.8C396.3,334.8,399.8,331.4,404.1,331.4L404.1,331.4z
	 M479.7,80.6c0-18.6-5.7-45.3-38.5-45.3c-107.9,0-324.4,0-324.8,0C94.1,37.9,74.6,59.6,75,87.2c0.6,49.9,0.5,90.7,0.4,105.2
	c0,4.3,3.4,7.8,7.7,7.8h0c4.3,0,7.7-3.4,7.7-7.7c0-14.6,0-55.8,0-106.1c0-21.7,13.4-35,35.1-35c92.9-0.1,281.5-0.2,284.1,0
	c-13,14.2-13.7,30.4-13.7,47.3c0.1,61.3,0.1,40.7,0.1,91.3c0,3.9,2.8,7.4,6.7,7.9c4.7,0.6,8.7-3.1,8.7-7.7c0-9.9,0-38.8,0-40.5
	c2.1,0,40.5,0,58.1,0c7.2,0,9.9-2.6,9.9-9.5C479.8,120.3,480.1,100.4,479.7,80.6z"/>
</svg>
