<?xml version="1.0" encoding="utf-8"?>
<!-- Generator: Adobe Illustrator 28.4.1, SVG Export Plug-In . SVG Version: 6.00 Build 0)  -->
<svg version="1.1" id="Layer_1" xmlns="http://www.w3.org/2000/svg" xmlns:xlink="http://www.w3.org/1999/xlink" x="0px" y="0px"
	 viewBox="0 0 500 500" style="enable-background:new 0 0 500 500;" xml:space="preserve">
<style type="text/css">
	.st0{fill:#0302F9;}
	.st1{fill:#EF0909;}
</style>
<g>
	<g>
		<path class="st0" d="M47.3,319.3c6.3-7.4,12.3-14.6,18.4-21.7c13.7-16.2,27.4-32.4,41.1-48.7c4.2-5,8-10.3,9.2-17
			c1.9-11.7-7-20.2-19-18c-7,1.3-11,5.6-12.8,12.2c-0.7,2.7-1.1,5.5-1,8.3c0.1,1.3-0.3,1.7-1.7,1.7c-9.4-0.1-18.8,0-28.3,0
			c-1,0-1.5-0.1-1.5-1.3c0.2-16.5,5.3-30.6,19.8-39.8c6.2-3.9,13-6.3,20.5-6.7c3.1-0.2,6.3-1.1,9.5-0.7c4.9,0.6,9.8,0.5,14.6,1.7
			c12.2,3.1,22.2,9.4,28,21c4.3,8.5,5.2,17.6,3.3,26.8c-2.2,10.7-8.3,19.4-15.5,27.3c-7.6,8.4-15.3,16.9-22.9,25.3
			c-0.5,0.5-1.4,0.9-1,1.8c0.3,0.6,1.2,0.3,1.8,0.3c11.5,0,23,0.1,34.5,0c2.1,0,2.9,0.3,2.8,2.7c-0.2,7.7-0.1,15.4,0,23
			c0,1.5-0.3,2.2-2,2.1c-32.2-0.1-64.3,0-96.5-0.1C48.3,319.4,48.1,319.4,47.3,319.3z"/>
		<path class="st0" d="M270.5,290.2c-5.3,0-10.6,0.1-15.9,0c-2.1-0.1-2.8,0.5-2.8,2.7c0.1,8,0,16,0.1,24c0,2.1-0.7,2.6-2.6,2.5
			c-8.3-0.1-16.5-0.1-24.8,0c-2,0-2.5-0.5-2.5-2.5c0.1-8,0-16,0.1-24c0-2.1-0.4-2.8-2.7-2.8c-17.9,0.1-35.9,0-53.8,0.1
			c-2.5,0-3-0.7-2.9-3c0.2-6.9,0.1-13.7,0-20.6c0-1.5,0.4-2.8,1.2-4.2c15.3-23.6,30.7-47.2,45.9-70.8c1.1-1.7,2.2-2.2,4.2-2.2
			c10.9,0.1,21.8,0,32.7,0.1c1.3,0,2.6-0.2,3.9,0.3c-1.1,0.6-1.6,1.8-2.3,2.7c-7,8.4-10.7,18.2-11.4,29c-1,13.3,1.8,25.8,7.9,37.6
			c3,5.7,6.4,11.1,10.6,16C260.2,280.6,265.5,285.3,270.5,290.2z M222.1,214.3c-2.4,3.1-3.6,6.7-5.6,9.8
			c-8.3,12.7-16.6,25.4-24.9,38.2c-0.4,0.6-1.2,1.2-0.9,1.9c0.4,0.8,1.3,0.4,2,0.4c9,0,18,0,27,0.1c1.9,0,2.3-0.6,2.3-2.4
			c-0.1-11.7,0-23.4,0-35.2C222.1,222.9,222.1,218.7,222.1,214.3z"/>
		<path class="st1" d="M373.4,319.4c0.8-3,2.3-5.4,3.5-7.9c12.2-24.9,24.4-49.9,36.7-74.8c2.4-4.8,4.7-9.6,7-14.4
			c1.4-2.9,1.4-3-1.8-3c-15.9,0-31.7,0-47.6,0c-0.9,0-1.8,0-2.7,0c-1.2,0-1.6-0.5-1.6-1.6c0-8.7,0-17.3,0-26c0-1.2,0.5-1.6,1.7-1.5
			c0.3,0,0.7,0,1,0c31.6,0,63.1,0,94.7-0.1c2.1,0,2.5,0.6,2.6,2.6c0.3,3.8-1.6,6.8-3.1,10c-10.5,22.8-21,45.5-31.5,68.2
			c-7,15.2-14,30.4-21,45.6c-0.9,2-2,2.9-4.4,2.9c-10.2-0.2-20.5-0.1-30.7-0.1C375.4,319.4,374.5,319.4,373.4,319.4z"/>
		<path class="st1" d="M270.5,290.2c-5.1-4.9-10.3-9.7-15-15c-4.3-4.9-7.7-10.3-10.6-16c-6.1-11.8-8.9-24.4-7.9-37.6
			c0.8-10.8,4.5-20.6,11.4-29c0.8-0.9,1.2-2.1,2.3-2.7c0.9,0.8,0,1.6-0.3,2.2c-8,16.9-7.1,34.1-0.4,51c11.2,28.2,32,46.3,61.3,54.2
			c16.6,4.5,32.9,3.1,47.9-6.3c8.9-5.6,15.4-13.3,19.4-23c0.2-0.4,0.4-0.7,0.7-1.3c0.8,2.7-0.3,4.9-1.1,6.9
			c-7.7,20-22.4,31.6-43.4,34.9c-22.7,3.6-42.8-3.3-61.3-16.1C272.6,291.5,271.6,290.9,270.5,290.2z"/>
		<path class="st1" d="M361.2,224.9c-0.7,0.9-1.9,1.3-2.8,1.7c-14.6,6.4-28.6,14-43.1,20.6c-3.2,1.4-3.2,1.5-3.8-1.9
			c-1.3-6.8-2.5-13.6-3.7-20.4c-0.1-0.9-0.7-2.3,0.3-2.7c0.8-0.3,1.5,0.9,2,1.7c2.4,3.5,4.8,6.9,7,10.5c1.1,1.8,2.3,2,4.1,1.4
			c9.3-2.7,18.7-5.3,28-8c3.5-1,7-2,10.6-3.1C360.2,224.6,360.7,224.4,361.2,224.9z"/>
		<path class="st0" d="M272.1,218.6c-0.2,0.8-0.4,1.7-1.6,1.2c-3.9-1.6-7.7-3.2-11.6-4.9c-0.5-0.2-1.1-0.8-0.6-1.6
			c0.3-0.6,0.9-0.6,1.5-0.4c4,1.4,7.8,3.2,11.6,4.8C271.7,217.9,272.1,218.1,272.1,218.6z"/>
		<path class="st0" d="M339.2,208.6c-0.3-0.2-0.7-0.4-1-0.7c-0.4-0.4-0.2-0.8,0.1-1.1c2.7-2.8,5.6-5.3,8.6-7.8c0.3-0.3,0.8-0.5,1,0
			c0.2,0.4,0.7,0.7,0.4,1.3c-0.3,0.7-0.8,1.2-1.4,1.7c-2.1,1.9-4.1,3.7-6.2,5.6C340.3,208,339.8,208.2,339.2,208.6z"/>
		<path class="st0" d="M301.8,276.7c-0.4,1.1-1.1,2.7-1.8,4.2c-0.7,1.7-1.4,3.3-2.1,5c-0.3,0.9-0.8,0.9-1.5,0.7
			c-0.7-0.2-1-0.6-0.7-1.2c1.4-3.3,2.7-6.5,4.1-9.8c0.3-0.7,0.8-0.7,1.4-0.5C301.9,275.2,302.1,275.6,301.8,276.7z"/>
		<path class="st0" d="M276.9,253.3c0.1,0.6-0.5,0.8-1,1c-3.2,1.4-6.3,2.9-9.5,4.3c-0.7,0.3-1.4,0.7-1.8-0.4
			c-0.5-1.1,0.2-1.2,0.9-1.6c3.2-1.4,6.5-2.9,9.7-4.4C276.4,251.6,276.6,252.3,276.9,253.3z"/>
		<path class="st0" d="M296.6,191.8c0.2,1.1-0.4,1.2-0.8,1.4c-0.5,0.3-0.9,0-1.2-0.5c-1.6-3.3-3.4-6.6-4.5-10.2
			c-0.2-0.6-0.3-1.1,0.5-1.4c0.5-0.2,1-0.3,1.3,0.3C293.6,184.9,295.2,188.5,296.6,191.8z"/>
		<path class="st0" d="M340.4,287.8c0.1,0.9-0.5,0.7-0.8,0.8c-0.6,0.3-1.2,0.2-1.4-0.4c-1.5-3.3-2.9-6.6-4.3-9.9
			c-0.2-0.5-0.3-1,0.4-1.2c0.4-0.1,1.1-0.6,1.3-0.1C337.2,280.7,338.8,284.3,340.4,287.8z"/>
	</g>
	<g>
		<path class="st1" d="M123.4,174.3H106l7.2-33.9l-18.6,33.9H83.9l-3.5-35l-7.5,35h-7.1l10.6-49.8h20l2.4,28.1l15.1-28.1H134
			L123.4,174.3z"/>
		<path class="st1" d="M152.9,156.5c-0.3,1.2-0.5,2.1-0.6,3c-0.2,0.8-0.2,1.6-0.2,2.4c0,1.8,0.6,3.3,1.9,4.4
			c1.3,1.1,3.2,1.6,5.7,1.6c1.8,0,3.3-0.3,4.5-0.9c1.2-0.6,2.1-1.5,2.9-2.5c0.8-1,1.4-2.2,1.8-3.6c0.4-1.4,0.8-2.8,1.1-4.3l6.7-32
			h7.1l-6.8,32.1c-0.5,2.5-1.3,4.9-2.3,7.1c-1,2.2-2.4,4.1-4.3,5.8c-1.9,1.7-4.2,3-7.2,4c-2.9,1-6.6,1.4-10.9,1.4
			c-6,0-10.5-1-13.3-2.9c-2.9-2-4.3-5-4.3-9.1c0-1.8,0.2-4.2,0.7-7c0.5-2.8,1.1-5.9,1.8-9.2l4.8-22.3h17.8L152.9,156.5z"/>
		<path class="st1" d="M181.4,174.3l10.6-49.8h21.1c3.2,0,6.1,0.3,8.5,1c2.4,0.7,4.4,1.7,6,3.3c1.6,1.5,2.8,3.5,3.6,6
			c0.8,2.5,1.2,5.5,1.2,9c0,3.8-0.5,7.6-1.4,11.2c-1,3.7-2.6,6.9-4.8,9.8c-2.2,2.9-5.2,5.2-8.8,6.9c-3.6,1.8-8.1,2.6-13.4,2.6H181.4
			z M202.9,168.8c1.7,0,3.3-0.7,4.6-2.2c1.3-1.4,2.5-3.3,3.4-5.5c1-2.2,1.8-4.7,2.4-7.4c0.7-2.7,1.2-5.3,1.6-7.8
			c0.4-2.5,0.7-4.8,0.9-6.7c0.2-2,0.3-3.4,0.3-4.2c0-1.6-0.3-2.9-1-3.8c-0.7-0.9-1.8-1.4-3.4-1.4h-3.8l-8.4,39H202.9z"/>
		<path class="st1" d="M276,174.3h-18.3l-1.1-12.5h-14.5l-5.6,12.5h-7.6l23.1-49.8h18.6L276,174.3z M244.7,156.1H256l-1.8-21.3
			L244.7,156.1z"/>
		<path class="st1" d="M321.6,174.3h-18.3l-8.7-36l-7.7,36h-7.1l10.6-49.8h18.7l8.2,36.5l7.8-36.5h7.2L321.6,174.3z"/>
		<path class="st1" d="M330,167.2l25.8-36.7h-19.8l1.2-6H376l-0.7,6.7l-25.6,37.2h20.6l-1.1,6h-40.6L330,167.2z"/>
		<path class="st1" d="M417.1,174.3h-18.3l-1.1-12.5h-14.5l-5.6,12.5h-7.6l23.1-49.8h18.6L417.1,174.3z M385.7,156.1h11.4l-1.8-21.3
			L385.7,156.1z"/>
		<path class="st1" d="M451.1,139c0.2-0.8,0.2-1.9,0.2-3.2c0-0.8-0.1-1.6-0.2-2.3c-0.1-0.8-0.3-1.4-0.5-2c-0.3-0.6-0.7-1.1-1.2-1.4
			c-0.5-0.3-1.2-0.5-2-0.5c-0.9,0-1.8,0.2-2.6,0.6c-0.8,0.4-1.5,1-2.1,1.6c-0.6,0.7-1.1,1.4-1.4,2.3c-0.3,0.9-0.5,1.8-0.5,2.7
			c0,1.4,0.4,2.4,1.1,3.1c0.7,0.7,1.6,1.3,2.8,1.8c1.1,0.5,2.5,0.9,3.9,1.2c1.5,0.3,3,0.7,4.5,1.1c1.3,0.4,2.6,0.8,3.9,1.4
			c1.3,0.6,2.5,1.3,3.5,2.3c1,1,1.8,2.2,2.5,3.8c0.6,1.5,0.9,3.5,0.9,5.8c0,3.3-0.7,6.1-2,8.3c-1.3,2.2-3.1,4.1-5.4,5.5
			s-5,2.4-8.2,3.1c-3.2,0.6-6.6,0.9-10.3,0.9c-3.8,0-6.8-0.2-9.2-0.7c-2.4-0.5-4.2-1-5.6-1.6c-1.6-0.7-2.8-1.5-3.6-2.4l2.7-10.7
			h13.8c-0.1,0.5-0.1,1.1-0.2,1.9c-0.1,0.8-0.1,1.4-0.1,1.9c0,0.6,0.1,1.3,0.2,2c0.2,0.7,0.4,1.3,0.7,1.9c0.3,0.6,0.8,1,1.5,1.4
			c0.6,0.4,1.4,0.5,2.4,0.5c1,0,2-0.2,2.8-0.7c0.8-0.5,1.5-1.1,2-1.8s1-1.5,1.3-2.4c0.3-0.9,0.4-1.7,0.4-2.5c0-1.1-0.3-2.1-0.8-2.9
			c-0.5-0.8-1.3-1.5-2.2-2c-0.9-0.5-2-1-3.3-1.4c-1.2-0.4-2.5-0.8-3.8-1.2c-1.3-0.4-2.6-0.8-4-1.3c-1.4-0.5-2.7-1.3-3.8-2.2
			c-1.1-0.9-2.1-2.1-2.9-3.6c-0.8-1.4-1.1-3.3-1.1-5.5c0-3.3,0.8-6.2,2.5-8.4c1.7-2.3,3.8-4.1,6.4-5.5c2.6-1.4,5.4-2.4,8.5-3
			c3.1-0.6,6-0.9,8.8-0.9c3.7,0,6.8,0.4,9.4,1.3c2.6,0.9,4.6,1.9,6,3l-2.9,10.9H451.1z"/>
	</g>
	<g>
		<path class="st0" d="M70.3,372c-1.2,0.6-2.3,1.1-3.6,1.6c-1.2,0.5-2.5,1-3.9,1.4c-1.4,0.4-2.9,0.7-4.5,0.9
			c-1.6,0.2-3.4,0.3-5.4,0.3c-6.2,0-10.9-1.4-14.3-4.1c-3.3-2.8-5-7.4-5-13.8c0-3.7,0.6-7.2,1.7-10.5c1.2-3.3,2.9-6.2,5.1-8.6
			c2.3-2.5,5-4.4,8.4-5.8c3.3-1.4,7.1-2.1,11.4-2.1c2,0,3.9,0.1,5.6,0.4c1.7,0.3,3.2,0.6,4.6,1.1c1.4,0.4,2.6,0.9,3.7,1.4
			c1.1,0.5,2.1,1,2.9,1.5l-2.5,12.9H62.1c0-0.5,0.1-1.1,0.2-1.8c0.1-0.7,0.1-1.5,0.2-2.2c0-0.8,0.1-1.5,0.1-2.2
			c0-0.7,0.1-1.4,0.1-1.9c0-0.4,0-0.8-0.1-1.3c0-0.5-0.2-1-0.3-1.4c-0.2-0.5-0.5-0.8-0.9-1.1c-0.4-0.3-0.9-0.4-1.6-0.4
			c-1.2,0-2.3,0.5-3.3,1.5c-1,1-1.9,2.3-2.7,3.9c-0.8,1.6-1.5,3.5-2.1,5.6c-0.6,2.1-1.1,4.2-1.5,6.3c-0.4,2.1-0.7,4.3-0.9,6.3
			c-0.2,2.1-0.3,3.9-0.3,5.5c0,0.5,0,1,0.1,1.7c0,0.7,0.2,1.4,0.4,2c0.2,0.6,0.6,1.2,1.1,1.7c0.5,0.5,1.1,0.7,2,0.7
			c1.4,0,2.8-0.9,4.1-2.7c1.3-1.8,2.5-4.9,3.5-9.5h12.8L70.3,372z"/>
		<path class="st0" d="M103.9,331.1c4,0,7.2,0.5,9.6,1.5c2.5,1,4.4,2.6,5.8,4.7c0.9,1.4,1.6,3,2.1,4.8c0.5,1.8,0.8,3.9,0.8,6.2
			c0,2-0.2,4.1-0.6,6.1c-0.4,2-0.9,4-1.6,5.8c-0.7,1.9-1.5,3.6-2.4,5.3c-0.9,1.6-2,3.1-3.1,4.3c-2.2,2.4-4.7,4-7.5,4.9
			c-2.8,0.9-6.3,1.4-10.5,1.4c-4,0-7.2-0.4-9.7-1.2c-2.4-0.8-4.4-2.2-5.8-4c-1-1.3-1.8-2.9-2.4-4.9c-0.6-2-0.9-4.5-0.9-7.5
			c0-5.1,0.9-9.7,2.7-13.7c1.8-4,4.4-7.2,7.8-9.6c2-1.4,4.3-2.5,6.8-3.2C97.7,331.5,100.6,331.1,103.9,331.1z M96.1,371.4
			c1.1,0,2.1-0.5,3-1.4c0.9-0.9,1.8-2.2,2.6-3.8c0.8-1.6,1.5-3.4,2.2-5.4c0.7-2,1.2-4.1,1.7-6.3c0.5-2.2,0.8-4.3,1.1-6.5
			c0.3-2.1,0.4-4.1,0.4-5.8c0-2.4-0.2-4-0.7-4.9c-0.5-0.9-1.2-1.3-2.1-1.3c-1.1,0-2.1,0.5-3,1.4c-1,0.9-1.9,2.2-2.7,3.7
			c-0.9,1.5-1.6,3.3-2.3,5.3c-0.7,2-1.2,4.1-1.7,6.2c-0.5,2.1-0.9,4.2-1.1,6.3c-0.3,2.1-0.4,4-0.4,5.7c0,2.6,0.3,4.4,0.9,5.4
			C94.4,370.9,95.2,371.4,96.1,371.4z"/>
		<path class="st0" d="M150.1,344.5c0.1-0.7,0.2-1.6,0.2-2.8c0-0.7,0-1.4-0.1-2c-0.1-0.7-0.3-1.3-0.5-1.8c-0.2-0.5-0.6-0.9-1-1.2
			c-0.5-0.3-1.1-0.4-1.8-0.4c-0.8,0-1.6,0.2-2.3,0.6c-0.7,0.4-1.3,0.8-1.8,1.4c-0.5,0.6-0.9,1.2-1.2,2c-0.3,0.8-0.4,1.6-0.4,2.4
			c0,1.2,0.3,2.1,0.9,2.8c0.6,0.6,1.4,1.2,2.5,1.6c1,0.4,2.2,0.8,3.5,1c1.3,0.3,2.6,0.6,4,1c1.2,0.3,2.3,0.7,3.5,1.2
			c1.2,0.5,2.2,1.2,3.1,2c0.9,0.9,1.6,2,2.2,3.3c0.6,1.4,0.8,3.1,0.8,5.1c0,2.9-0.6,5.3-1.7,7.3c-1.2,2-2.7,3.6-4.8,4.8
			s-4.4,2.1-7.2,2.7c-2.8,0.6-5.8,0.8-9.1,0.8c-3.3,0-6-0.2-8.1-0.7c-2.1-0.4-3.7-0.9-4.9-1.4c-1.4-0.6-2.5-1.3-3.2-2.1l2.3-9.5
			h12.2c0,0.4-0.1,1-0.1,1.7c0,0.7-0.1,1.3-0.1,1.7c0,0.6,0.1,1.1,0.2,1.7c0.1,0.6,0.4,1.2,0.7,1.7c0.3,0.5,0.7,0.9,1.3,1.2
			c0.6,0.3,1.2,0.5,2.1,0.5c0.9,0,1.7-0.2,2.5-0.6c0.7-0.4,1.3-0.9,1.8-1.6c0.5-0.6,0.9-1.3,1.1-2.1c0.3-0.8,0.4-1.5,0.4-2.2
			c0-1-0.2-1.9-0.7-2.6c-0.5-0.7-1.1-1.3-2-1.8c-0.8-0.5-1.8-0.9-2.9-1.2c-1.1-0.3-2.2-0.7-3.4-1.1c-1.1-0.3-2.3-0.7-3.5-1.2
			c-1.2-0.5-2.3-1.1-3.4-1.9c-1-0.8-1.9-1.9-2.5-3.1c-0.7-1.3-1-2.9-1-4.9c0-2.9,0.7-5.4,2.2-7.4c1.5-2,3.4-3.6,5.7-4.9
			c2.3-1.2,4.8-2.1,7.5-2.7c2.7-0.5,5.3-0.8,7.7-0.8c3.2,0,6,0.4,8.3,1.1c2.3,0.8,4.1,1.6,5.3,2.7l-2.6,9.6H150.1z"/>
		<path class="st0" d="M204.8,337.1h-11.1l-8.2,38.6h-14.9l8.2-38.6h-11l1.2-5.3h37L204.8,337.1z"/>
		<path class="st0" d="M236.1,375.7H220l-1-11h-12.8l-4.9,11h-6.7l20.4-43.9h16.4L236.1,375.7z M208.5,359.7h10l-1.6-18.8
			L208.5,359.7z"/>
		<path class="st0" d="M293.9,342.2c0,2.7-0.8,5.2-2.3,7.5c-1.5,2.3-4,4.1-7.5,5.3l8,20.7h-15.4l-6.1-19.1h-0.8l-4.1,19.1h-14.9
			l9.3-43.9h18.2c2.1,0,4.1,0.1,6,0.4c1.9,0.3,3.5,0.8,4.9,1.5c1.4,0.8,2.5,1.8,3.4,3.2C293.5,338.2,293.9,340,293.9,342.2z
			 M274,352.1c1.2,0,2.2-0.4,3.1-1.2c0.9-0.8,1.5-1.8,2.1-2.9c0.5-1.2,0.9-2.4,1.1-3.7c0.2-1.3,0.3-2.5,0.3-3.4
			c0-1.2-0.2-2.2-0.6-3.1c-0.4-0.9-1.3-1.3-2.7-1.3h-3.1l-3.5,15.6H274z"/>
		<path class="st0" d="M309.5,375.7h-14.9l9.3-43.9h15L309.5,375.7z"/>
		<path class="st0" d="M356.1,372c-1.2,0.6-2.3,1.1-3.6,1.6c-1.2,0.5-2.5,1-3.9,1.4c-1.4,0.4-2.9,0.7-4.5,0.9
			c-1.6,0.2-3.4,0.3-5.4,0.3c-6.2,0-10.9-1.4-14.3-4.1c-3.3-2.8-5-7.4-5-13.8c0-3.7,0.6-7.2,1.7-10.5s2.9-6.2,5.1-8.6
			c2.3-2.5,5-4.4,8.4-5.8c3.3-1.4,7.1-2.1,11.4-2.1c2,0,3.9,0.1,5.6,0.4c1.7,0.3,3.2,0.6,4.6,1.1c1.4,0.4,2.6,0.9,3.7,1.4
			c1.1,0.5,2.1,1,2.9,1.5l-2.5,12.9h-12.4c0-0.5,0.1-1.1,0.2-1.8c0.1-0.7,0.1-1.5,0.2-2.2c0-0.8,0.1-1.5,0.1-2.2
			c0-0.7,0.1-1.4,0.1-1.9c0-0.4,0-0.8-0.1-1.3c0-0.5-0.2-1-0.3-1.4c-0.2-0.5-0.5-0.8-0.9-1.1c-0.4-0.3-0.9-0.4-1.6-0.4
			c-1.2,0-2.3,0.5-3.3,1.5c-1,1-1.9,2.3-2.7,3.9c-0.8,1.6-1.5,3.5-2.1,5.6c-0.6,2.1-1.1,4.2-1.5,6.3c-0.4,2.1-0.7,4.3-0.9,6.3
			c-0.2,2.1-0.3,3.9-0.3,5.5c0,0.5,0,1,0.1,1.7c0,0.7,0.2,1.4,0.4,2c0.2,0.6,0.6,1.2,1.1,1.7c0.5,0.5,1.1,0.7,2,0.7
			c1.4,0,2.8-0.9,4.1-2.7c1.3-1.8,2.5-4.9,3.5-9.5h12.8L356.1,372z"/>
		<path class="st0" d="M399.6,375.7h-16.2l-1-11h-12.8l-4.9,11H358l20.4-43.9h16.4L399.6,375.7z M371.9,359.7h10l-1.6-18.8
			L371.9,359.7z"/>
	</g>
</g>
</svg>
