<?xml version="1.0" encoding="utf-8"?>
<!-- Generator: Adobe Illustrator 28.0.0, SVG Export Plug-In . SVG Version: 6.00 Build 0)  -->
<svg version="1.1" id="Layer_1" xmlns="http://www.w3.org/2000/svg" xmlns:xlink="http://www.w3.org/1999/xlink" x="0px" y="0px"
	 viewBox="0 0 1364.1 1080" style="enable-background:new 0 0 1364.1 1080;" xml:space="preserve">
<g>
	<path d="M586.1,441.3c-2.4-1.9-5.4-3-8.7-3c-3.5,0-6.6,1-9.4,3.3c-3,2.3-4.7,5.2-5,9c-4.3,33.1-11.1,66.1-20,99.2
		c-9,33.1-19.5,65.1-31.7,96.2c-7.3,17.9-17,37.9-29.6,59.7c-12.4,21.9-26.8,42.4-43.3,61.6c-16.5,19.1-34.8,35.1-54.6,47.7
		c-20,12.7-41.2,19-64.2,19c-14.6,0-28.7-3.1-42.6-9.4s-26.6-16-38.3-29.2c-11.1-12.7-20-27.1-26.6-43.3
		c-6.6-16.4-11.5-33.2-14.6-50.6c-3.1-17.6-5.2-35.1-6.3-52.9c-1-17.7-1.4-34.6-1.4-50.6c0.5-68,11-135,31.3-200.8
		s46.8-128.2,79.5-186.8c6.3-11.1,14.4-24.7,24.4-40.4c9.9-15.8,21.1-31.1,33.6-45.9c12.4-14.8,25.7-27.5,40-37.9
		c14.3-10.4,29.1-15.7,44-15.7c8.2,0,15.3,1.7,21.1,5.4c5.9,3.7,10.8,8.4,15,14.3c4.2,5.9,7.5,12.4,9.9,19.3
		c2.4,7.1,4.2,13.9,5,20.7c2.4,17,2.3,34.3-0.3,51.7c-2.6,17.6-5.2,34.8-7.7,51.7c-1,5.4,0.2,9.4,3.7,12s7,4,11,4
		c6.3,0,9.7-3.1,10.3-9.4c1.9-11.7,3.8-23.5,5.9-35.3c1.9-11.8,3.3-24,4-36c0.7-12.2,0.5-24.2-0.7-36c-1.2-11.8-3.8-23.7-7.7-35.3
		c-5.4-16.5-14.8-29.4-28.4-38.6C470,49.5,455.2,44.8,439,44.8c-13.6,0-27.1,3.5-40.4,10.6c-13.4,7.1-26.1,16.4-38.3,28
		c-12.2,11.7-23.7,24.9-34.6,39.7c-11,14.8-21.1,29.9-30.6,45.2c-9.4,15.3-17.9,30.1-25.6,44.5c-7.5,14.3-13.9,27.1-19.3,38.3
		c-30.1,62.6-53.1,128.6-68.9,197.8c-16,69.2-20.9,138.5-15.1,208.1c1.9,22.3,5.9,45.4,12,69.2c6.1,23.8,15.1,45.6,27,65.6
		c11.8,19.8,27.1,36.4,45.6,49.2c18.4,12.9,41.1,19.3,67.8,19.3c22.8,0,44.2-5,64.2-15c19.8-9.9,38.1-22.8,54.6-38.6
		c16.5-15.8,31.5-33.2,44.9-52.5c13.4-19.1,24.7-37.9,33.9-56.5c19.5-37.9,35-78.1,46.6-120.6c11.7-42.4,20.2-84.7,25.6-126.5
		C589.2,446.3,588.5,443.2,586.1,441.3z"/>
	<path d="M1195.2,830.8c-2.3-2.3-4.7-3.3-7.7-3.3c-1.9,0-3.5,0.2-4.3,0.7c-4.9,1.4-9.2,2.3-13,2.3c-8.7,0-15.5-3.3-20.4-9.9
		c-4.9-6.6-8.4-14.4-10.6-23.7c-2.3-9.2-3.5-19-4-29.2c-0.5-10.3-0.7-18.6-0.7-25.6c-1-27.7-0.3-55.3,1.7-82.6
		c2.3-27.5,4.7-54.8,7.7-81.9c3.5-33.1,7.5-66.1,12.4-99.2c4.9-33.1,9.4-66.1,13.9-99.5c4.3-33.2,7.8-66.6,10.6-99.9
		c2.6-33.2,3.3-66.6,1.7-100.2c-0.5-10.6-1.7-23.7-3.7-39c-1.9-15.3-5-29.9-9.4-43.7c-4.3-13.9-10.6-25.7-18.6-35.7
		s-18.6-15-31.7-15c-13.6,0-26.6,4.3-39,13s-23.7,19.3-33.9,31.7c-10.3,12.4-19.3,25.6-27.3,39.3c-8,13.9-14.6,25.9-20,36
		c-19,39.8-33.4,81.6-43.3,124.9c-9.9,43.5-18.6,87.2-25.9,130.8c-1.9-21.4-4-42.4-6.3-63.3c-2.3-20.9-5-42.1-8.4-63.3
		c-1.4-8.7-3.5-19.5-6.3-32c-2.6-12.7-6.6-24.7-12-36.4c-5.4-11.7-12.2-21.6-20.4-29.9c-8.4-8.2-18.3-12.4-29.9-12.4
		c-11.1,0-21.7,3.8-31.7,11.3s-18.1,15.5-24.4,23.7c-13.6,17.6-25.2,36.7-35,57.6s-18.3,42.3-25.6,64.2
		c-7.3,21.9-14.1,43.8-20.4,65.9c-6.3,22.1-12.9,43.7-19.7,64.5c-2.4,7.8-4.9,15.3-7.3,22.6s-4.9,14.8-7.3,22.6
		c3.5-16.5,6.6-32.7,9.9-48.9c3.1-16,6.6-32.4,10.6-48.9c5.4-23.3,10.8-46.6,16.4-69.9c5.6-23.3,10.3-46.8,14.3-70.6
		c4.3-27.1,7.5-55,9.4-83.2c1.9-28.2,0.2-55.8-5-83.2c-1-5.9-2.6-11.7-5-17.6c-2.4-5.9-5.4-11-9-15.7c-3.7-4.7-7.8-8.5-12.7-11.7
		c-4.9-3.1-10.6-4.7-17.6-4.7c-10.3,0-20,3.5-29.6,10.6c-9.4,7.1-17.6,13.4-24.4,19.3c-4.9,4.3-5.9,9-3,14.3c3,5,7,7.7,12.4,7.7
		c2.4,0,5.4-1.2,8.7-3.7c3.8-3.5,9-7.8,15.7-13.4s13-8.4,19.3-8.4c4.9,0,8.7,2.3,11.7,6.6c5.9,8.7,9.2,19.1,10.3,31
		c1,11.8,1.7,22.8,2.3,32.4c1.4,45.2-2.6,90.1-12.4,134.8c-12.7,59.7-25.2,119.2-37.9,178.1c-12.7,59-25.1,118.5-37.2,178.1
		c-12.7,62.1-25.6,123.9-39,185.1s-27.8,122.7-43.3,184.4c-1.4,4.9-0.7,8.7,2.3,11.7c3,3,6.3,4.3,10.3,4.3c6.3,0,10.4-3.5,12.4-10.3
		c1.9-1.9,3-3.8,3-5.9c1.4-5.9,2.8-11.5,4-17c1.2-5.6,2.3-11.1,3.3-16.4c17.9-68,35.3-135.4,52.2-202.2
		c16.7-66.8,35.1-133.8,55-200.8c8.7-29.2,17.9-58.1,27.7-86.6c9.7-28.7,19-57.6,27.7-86.6c5.9-19.8,12-39.7,18.6-59.3
		c6.6-19.7,13.9-39,22.3-57.9c3-6.3,6.4-14.1,10.6-23.3c4.2-9.2,9-18.1,14.6-26.6c5.6-8.5,11.8-15.8,19-21.9c7-6.1,14.6-9.4,23-9.9
		c8.7-0.5,15.8,3.3,21.6,11.3c5.6,8,10.1,17.4,13.6,28c3.5,10.6,5.9,21.6,7.7,32.4c1.7,11,2.8,19.3,3.3,25.2
		c6.3,39.3,10.8,78.8,13.4,118.5c2.6,39.7,4.5,79.5,5.4,119.9c-3,24.4-4.7,48.4-5,72.2c-0.5,23.8,1.7,47.7,6.6,71.5v2.3
		c0.5,3.8,1.9,6.6,4.3,8.4c2.4,1.7,5,2.6,8,2.6c5.9,0,9.4-1.7,11-5c1.4-3.5,2.3-7.5,2.3-12.4c0-23.3,0-46.3,0-68.9
		c0-22.6-0.5-45.6-1.4-68.9c4.3-31.1,9.4-62.6,15.3-94.8c4.3-26.3,9-53.8,14.3-82.6c5-28.9,11.5-57.6,19-85.9
		c7.5-28.4,16.7-56,27.7-82.6c11-26.8,24-51.3,39-73.6c3-4.3,6.8-9.7,11.7-16c4.9-6.3,10.3-12.4,16.4-18.3c6.1-5.9,12.4-10.8,19-15
		c6.6-4.2,13-6.3,19.3-6.3c9.2,0,16.5,4.9,21.9,14.6c8.7,15.5,13.9,33.4,15.3,53.6s2.4,39,3,56.5c0.5,29.2-0.7,58.1-3.7,87.2
		c-3,28.9-6.3,57.9-10.3,87.2c-3.8,32-8.2,64.5-12.7,97.3c-4.7,32.9-8.9,65.6-12.7,98.5c-3.8,32.9-6.8,65.6-8.7,98.5
		c-1.9,32.9-1.9,65.4,0,97.9c0.5,10.3,1.7,20.9,4,32c2.3,11.1,5.7,21.2,10.6,30.3c4.9,9,11,16.5,18.3,22.6s16.4,9,27,9
		c3.5,0,6.8-0.2,10.3-0.7c3.5-0.5,7-1.4,11-3c3.8-1,6.4-3,7.7-5.9c1.2-3,1.7-5.9,1.4-8.7C1198.7,835.5,1197.4,832.9,1195.2,830.8z"
		/>
</g>
</svg>
