<?xml version="1.0" encoding="utf-8"?>
<svg version="1.1" id="epXhz9nZifV1" text-rendering="geometricPrecision" shape-rendering="geometricPrecision"
	 xmlns="http://www.w3.org/2000/svg" xmlns:xlink="http://www.w3.org/1999/xlink" x="0px" y="0px" viewBox="0 0 1080 1920"
	 style="enable-background:new 0 0 1080 1920;" xml:space="preserve">
<style type="text/css">
	.st0{fill:#EEEEEE;}
	.st1{fill:#d1c5c4;}
	.st2{fill:#d1c5c4;}
	.st3{fill:#d1c5c4;}
	.st4{fill:#d1c5c4;}
	.st5{fill:#d1c5c4;}
	.st6{fill:#d1c5c4;}
	.st7{fill:#d1c5c4;}
	.st8{fill:#d1c5c4;}
	.st9{fill:#d1c5c4;}
	.st10{fill:#d1c5c4;}

	/* Twinkle animation */
	@keyframes twinkle {
	  0%, 100% { opacity: 1; }
	  50% { opacity: 0; }
	}
	.st1, .st2, .st3, .st4, .st5, .st6, .st7, .st8, .st9, .st10 {
	  animation: twinkle 3s infinite;
	}
	.st1 { animation-delay: 0.3s; }
	.st2 { animation-delay: 0.7s; }
	.st3 { animation-delay: 1.1s; }
	.st4 { animation-delay: 1.5s; }
	.st5 { animation-delay: 1.9s; }
	.st6 { animation-delay: 2.3s; }
	.st7 { animation-delay: 2.7s; }
	.st8 { animation-delay: 3.1s; }
	.st9 { animation-delay: 3.5s; }
	.st10 { animation-delay: 3.9s; }
</style>

<rect class="st0" width="1080" height="1920"/>

<g>
	<path class="st1" d="M219.6,673.7c-1.5-1-2.9-2-4.3-2.9c-6.7-4.3-14-7.4-21.2-10.8c-5.7-2.7-11.4-5.2-16.8-8.4
		c-6.6-3.9-11.2-9.6-13.2-17.1c-2.7-10.2,1.8-19.3,10.7-23.9c9.1-4.7,18.9-2.9,25.8,4.7c0.6,0.7,1.3,1.3,2.3,2.3
		c0.2-1.2,0.4-2.1,0.5-2.9c0.6-4.8,2.7-9,6.2-12.4c9.8-9.4,25.9-8.2,33.2,3.8c3.9,6.5,4,13.6,1.9,20.7c-1.7,5.5-4.6,10.3-7.5,15.2
		c-4.5,7.4-9,14.8-13.4,22.4c-1.3,2.3-2.2,4.9-3.3,7.4C220.2,672.4,219.9,673,219.6,673.7z"/>
</g>

<path class="st2" d="M907.4,455.3c10.9-2.1,21.8-3.5,32.3-6.2c16.7-4.3,30.2-21,32.3-38.2c1-8.3,2.6-16.5,4.1-25.4
	c0.8,5,1.5,9.4,2.3,13.7c1.4,7.9,1.8,16.1,5.2,23.5c7.2,16,19.5,25.5,36.9,28.3c8,1.3,16,2.7,24,4.4c-5.1,0.8-10.1,1.7-15.2,2.5
	c-8.2,1.4-16.5,2.2-24.1,6.3c-13.7,7.4-22,18.8-24.8,34.1c-1.6,8.6-2.8,17.3-4.5,26c-1.4-8.6-2.8-17.2-4.1-25.8
	c-2.8-18.4-17.7-34.5-35.9-38.2c-8.9-1.8-17.9-3.1-26.8-4.6C908.6,455.6,908.1,455.4,907.4,455.3z"/>

<path class="st3" d="M1002.2,281.9c5.9-1.1,11.7-1.9,17.4-3.4c9-2.3,16.2-11.3,17.4-20.5c0.5-4.4,1.4-8.8,2.2-13.6
	c0.4,2.7,0.8,5,1.2,7.4c0.8,4.2,1,8.6,2.8,12.6c3.9,8.6,10.4,13.7,19.8,15.2c4.3,0.7,8.6,1.4,12.9,2.4c-2.7,0.4-5.4,0.9-8.2,1.3
	c-4.4,0.7-8.9,1.2-12.9,3.4c-7.4,4-11.8,10.1-13.3,18.3c-0.9,4.6-1.5,9.3-2.4,14c-0.7-4.6-1.5-9.2-2.2-13.9
	c-1.5-9.9-9.5-18.5-19.3-20.5c-4.8-1-9.6-1.6-14.4-2.4C1002.8,282.1,1002.5,282,1002.2,281.9z"/>

<path class="st4" d="M720.7,189.2c-0.9-2.7-1.7-5.1-2.5-7.5c-4-11.4-9.9-21.9-15.4-32.6c-4.3-8.5-8.9-16.9-12.4-25.7
	c-4.3-10.8-4.5-21.9,0.1-32.8c6.2-14.7,20.1-21.4,35.1-18.7c15.3,2.8,25.3,14.2,26.6,29.6c0.1,1.4,0.4,2.8,0.6,4.9
	c1.4-1.2,2.4-2.1,3.3-3c5.3-5.2,11.6-8.3,19-9.1c20.4-2.1,38.6,14.3,36.2,35.5c-1.3,11.4-7.8,20-17.1,26.6
	c-7.1,5-15.1,8.1-23.2,11.2c-12.3,4.7-24.6,9.4-36.9,14.3c-3.8,1.5-7.2,3.8-10.8,5.8C722.5,188.2,721.7,188.6,720.7,189.2z"/>

<g>
	<path class="st5" d="M256.4,1744.9c-2.1-1.4-4-2.7-6-3.9c-9.2-5.9-19.3-10.2-29.2-14.8c-7.8-3.7-15.8-7.2-23.2-11.6
		c-9-5.3-15.4-13.2-18.2-23.6c-3.7-14,2.5-26.6,14.7-32.9c12.5-6.5,26-3.9,35.5,6.4c0.9,1,1.8,1.8,3.2,3.1c0.3-1.7,0.6-2.8,0.7-4
		c0.9-6.7,3.7-12.4,8.5-17c13.4-12.9,35.6-11.3,45.7,5.3c5.4,8.9,5.5,18.7,2.6,28.6c-2.3,7.6-6.3,14.2-10.4,20.9
		c-6.2,10.2-12.4,20.4-18.5,30.8c-1.9,3.2-3,6.8-4.5,10.2C257.1,1743.1,256.8,1743.9,256.4,1744.9z"/>
</g>

<path class="st6" d="M800.6,1289.6c-2.2-3.5-4.2-6.7-6.2-9.8c-9.7-14.9-21.8-28-33.4-41.5c-9.2-10.7-18.6-21.2-26.7-32.7
	c-9.9-14-14-29.9-11.2-47.2c3.8-23.3,21.5-37.8,43.9-39.1c22.9-1.3,41.3,11.6,48.5,33.3c0.7,2,1.5,3.9,2.6,6.8
	c1.6-2.3,2.8-3.8,3.8-5.4c5.8-9.3,13.8-15.9,24.1-19.6c28.6-10.1,60.4,7.1,64.3,38.4c2.1,16.9-4.3,31.5-15.3,44.1
	c-8.4,9.7-18.9,16.9-29.4,24.1c-16.1,11-32.2,22-48,33.3c-4.9,3.5-9,8-13.5,12.1C802.9,1287.4,801.9,1288.4,800.6,1289.6z"/>

<path class="st7" d="M103.1,385.7c8.2-1.6,16.4-2.6,24.4-4.7c12.6-3.3,22.8-15.9,24.4-28.8c0.8-6.2,2-12.4,3.1-19.2
	c0.6,3.8,1.1,7.1,1.7,10.4c1.1,6,1.4,12.1,3.9,17.8c5.5,12.1,14.7,19.3,27.8,21.3c6,1,12.1,2,18.1,3.3c-3.8,0.6-7.6,1.3-11.5,1.9
	c-6.2,1-12.5,1.7-18.2,4.7c-10.3,5.6-16.6,14.2-18.7,25.7c-1.2,6.5-2.1,13.1-3.4,19.6c-1-6.5-2.1-13-3.1-19.5
	c-2.1-13.9-13.4-26-27.1-28.8c-6.7-1.4-13.5-2.3-20.2-3.4C104,386,103.6,385.9,103.1,385.7z"/>

<path class="st8" d="M75.3,71.5c4.4-0.8,8.8-1.4,13.1-2.5c6.8-1.8,12.2-8.5,13.1-15.5c0.4-3.4,1.1-6.7,1.7-10.3
	c0.3,2,0.6,3.8,0.9,5.6c0.6,3.2,0.7,6.5,2.1,9.5c2.9,6.5,7.9,10.3,15,11.5c3.2,0.5,6.5,1.1,9.7,1.8c-2.1,0.3-4.1,0.7-6.2,1
	c-3.3,0.6-6.7,0.9-9.8,2.5c-5.6,3-8.9,7.6-10,13.8c-0.6,3.5-1.2,7-1.8,10.5c-0.6-3.5-1.1-7-1.7-10.5c-1.1-7.4-7.2-14-14.6-15.5
	c-3.6-0.7-7.2-1.2-10.9-1.8C75.8,71.6,75.6,71.5,75.3,71.5z"/>

<path class="st9" d="M262.9,1140.3c8.2-1.6,16.4-2.6,24.4-4.7c12.6-3.3,22.8-15.9,24.4-28.8c0.8-6.2,2-12.4,3.1-19.2
	c0.6,3.8,1.1,7.1,1.7,10.4c1.1,6,1.4,12.1,3.9,17.8c5.5,12.1,14.7,19.3,27.8,21.3c6,1,12.1,2,18.1,3.3c-3.8,0.6-7.6,1.3-11.5,1.9
	c-6.2,1-12.5,1.7-18.2,4.7c-10.3,5.6-16.6,14.2-18.7,25.7c-1.2,6.5-2.1,13.1-3.4,19.6c-1-6.5-2.1-13-3.1-19.5
	c-2.1-13.9-13.4-26-27.1-28.8c-6.7-1.4-13.5-2.3-20.2-3.4C263.8,1140.5,263.4,1140.4,262.9,1140.3z"/>

<path class="st10" d="M358.3,1040.8c4.4-0.8,8.8-1.4,13.1-2.5c6.8-1.8,12.2-8.5,13.1-15.5c0.4-3.4,1.1-6.7,1.7-10.3
	c0.3,2,0.6,3.8,0.9,5.6c0.6,3.2,0.7,6.5,2.1,9.5c2.9,6.5,7.9,10.3,15,11.5c3.2,0.5,6.5,1.1,9.7,1.8c-2.1,0.3-4.1,0.7-6.2,1
	c-3.3,0.6-6.7,0.9-9.8,2.5c-5.6,3-8.9,7.6-10,13.8c-0.6,3.5-1.2,7-1.8,10.5c-0.6-3.5-1.1-7-1.7-10.5c-1.1-7.4-7.2-14-14.6-15.5
	c-3.6-0.7-7.2-1.2-10.9-1.8C358.8,1041,358.6,1040.9,358.3,1040.8z"/>

</svg>
