<?xml version="1.0" encoding="utf-8"?>
<!-- Generator: Adobe Illustrator 28.4.1, SVG Export Plug-In . SVG Version: 6.00 Build 0)  -->
<svg version="1.1" id="Layer_1" xmlns="http://www.w3.org/2000/svg" xmlns:xlink="http://www.w3.org/1999/xlink" x="0px" y="0px"
	 viewBox="0 0 512 512" style="enable-background:new 0 0 512 512;" xml:space="preserve">
<style type="text/css">
	.st0{fill:#FD4A75;}
	.st1{fill:#93278F;}
	.st2{fill:#FD4A75; animation: twinkle 2s infinite ease-in-out;}
	.st3{fill:#FD4A75; animation: twinkle 3s infinite ease-in-out;}
	.st4{fill:#D1C5C4;}
	.st5{fill:#A08C8C;}
	.st6{fill:#FD4A75; animation: twinkle 2.5s infinite ease-in-out;}
	.st7{fill:#FD4A75; animation: twinkle 3.5s infinite ease-in-out;}

	@keyframes twinkle {
		0%, 100% { opacity: 1; }
		50% { opacity: 0.2; }
	}
</style>
<g>
	<path class="st0" d="M121.3,370.8c-0.4-0.5-0.8-0.9-1.2-1.4c-1.8-2.1-3.9-3.9-6-5.7c-1.6-1.4-3.3-2.9-4.8-4.5
		c-1.8-1.9-2.8-4.3-2.7-7c0.1-3.7,2.5-6.2,5.9-6.9c3.5-0.7,6.6,0.9,8.1,4.1c0.1,0.3,0.3,0.6,0.5,1c0.2-0.4,0.3-0.6,0.5-0.9
		c0.7-1.5,1.8-2.7,3.3-3.5c4.2-2.1,9.4-0.1,10.6,4.6c0.7,2.5,0,4.9-1.5,7.1c-1.1,1.7-2.6,3-4,4.3c-2.2,2-4.5,4-6.7,6.1
		c-0.7,0.6-1.2,1.4-1.8,2.1C121.6,370.4,121.5,370.6,121.3,370.8z"/>
</g>
<path class="st1" d="M-700.7,307.5c0.2-3.6,0.3-7.3,0.3-11c0,3.7,0.1,7.4,0.3,11H-700.7z"/>
<path class="st2" d="M404.7,226.8c3.8-0.7,7.5-1.2,11.1-2.2c5.8-1.5,10.4-7.3,11.1-13.2c0.4-2.9,0.9-5.7,1.4-8.8
	c0.3,1.7,0.5,3.2,0.8,4.7c0.5,2.7,0.6,5.5,1.8,8.1c2.5,5.5,6.7,8.8,12.7,9.8c2.8,0.4,5.5,0.9,8.3,1.5c-1.7,0.3-3.5,0.6-5.2,0.9
	c-2.8,0.5-5.7,0.8-8.3,2.2c-4.7,2.6-7.6,6.5-8.5,11.7c-0.5,3-1,6-1.6,9c-0.5-3-1-5.9-1.4-8.9c-1-6.3-6.1-11.9-12.4-13.2
	c-3.1-0.6-6.2-1.1-9.2-1.6C405.2,226.9,405,226.9,404.7,226.8z"/>
<path class="st3" d="M448.4,181.4c2-0.4,4-0.6,6-1.2c3.1-0.8,5.6-3.9,6-7.1c0.2-1.5,0.5-3,0.8-4.7c0.2,0.9,0.3,1.7,0.4,2.5
	c0.3,1.5,0.3,3,1,4.4c1.3,3,3.6,4.7,6.8,5.2c1.5,0.2,3,0.5,4.5,0.8c-0.9,0.2-1.9,0.3-2.8,0.5c-1.5,0.3-3.1,0.4-4.5,1.2
	c-2.5,1.4-4.1,3.5-4.6,6.3c-0.3,1.6-0.5,3.2-0.8,4.8c-0.3-1.6-0.5-3.2-0.8-4.8c-0.5-3.4-3.3-6.4-6.7-7.1c-1.6-0.3-3.3-0.6-5-0.8
	C448.6,181.4,448.5,181.4,448.4,181.4z"/>
<rect x="133.4" y="105.6" class="st4" width="249.2" height="83.4"/>
<rect x="145.8" y="189" class="st4" width="220.3" height="136.7"/>
<path class="st5" d="M225.7,113.8c-11.1-3.4-22.3-6.2-33.1-10.6c-7.3-3-13.9-6.8-19.7-12.2c-2.9-2.7-7.2-9.4-7.2-9.4
	c-5-9.4-8.8-22.5-3.5-35c3.2-7.6,9.1-12,17.5-13c12-1.3,22.2,2.9,31.9,9.4c7.9,5.3,14.1,12.4,19.6,20.1c5.2,7.3,9.6,15.1,13.7,23
	c2.2,4.3,4.6,8.6,7,12.9c0.6,1,1.3,1.6,1.9-0.2c4.6-12.6,10.4-24.6,18.7-35.2c6.4-8.3,13.6-15.8,22.5-21.5c9.4-6,19.7-9.3,30.9-7.9
	c13.5,1.7,22.4,9,24.8,22.7c1.2,7-0.6,13.7-3.4,20.2c-1.6,3.7-3.6,7.1-6.4,10c-2.8,3.1-5.8,5.7-11.8,9.5c-6.6,3.3-13.7,5.4-20.7,7.4
	c-22.1,6-32.6,8.9-32.7,12.6c-0.1,1.2,0,52.1,0,72.4c15.1,0,44.8,0,90.5,0c0,8,0,20.2,0,32.6c-22.5,0-76.1,0-90.5,0
	c0,26.9,0,63,0,104.2c-13,0-29.3,0-42.2,0c0-35.8,0-77.2,0-104.2c-32.4,0-56.8,0-87.6,0c0-10.6,0-17.4,0-32.6c30.6,0,87.6,0,87.6,0
	s0.1-65.2,0-70.9C233.4,116.9,232.5,115.7,225.7,113.8z M189.4,54.9c-9.1,0.1-15.8,7.9-10.2,17.6c2.1,3.7,5.1,6.6,8.5,9.1
	c8.8,6.7,18.9,10.8,29,15c7.8,3.2,15.8,6,23.2,10.1c0.3,0.2,0.7,0.6,1,0.2c0.4-0.4,0.1-0.9-0.1-1.3c-1.3-3.4-2.8-6.8-4.5-10
	c-7.3-13.7-16.9-25.3-29.6-34.4C201.7,57.6,196.2,55.1,189.4,54.9z M268.5,104.1c8.3-4.3,17.3-7.2,26.1-10.4
	c7.6-2.7,15.1-5.7,21.7-10.4c6.3-4.5,11.1-9.9,12.4-17.9c1.1-6.7-3.8-12.9-10.6-13c-5.6,0-10.7,2.1-15.2,5.3
	c-13,9.2-22.9,21.2-30.2,35.3c-1.6,3.1-3.2,6.2-4.8,9.7C267.2,104.3,267.8,104.4,268.5,104.1z"/>

<path d="M39.7,353.4c0.5,0,1,0.1,1.5,0.4c0.5,0.2,1,0.6,1.3,1l29,43.6l-2.8-0.1l29.2-43.5c0.8-1.1,1.7-1.5,2.8-1.4
	c0.8,0,1.6,0.3,2.2,0.9c0.6,0.6,0.9,1.4,0.9,2.3v67.4c0,0.8-0.3,1.6-1,2.2c-0.7,0.6-1.5,0.9-2.4,0.9c-0.9,0-1.7-0.3-2.3-0.9
	s-0.9-1.4-0.9-2.2V363l1.9,0.2l-26.6,40.3c-0.2,0.4-0.5,0.8-1,1c-0.5,0.2-0.9,0.4-1.4,0.4c-0.5,0-1-0.1-1.4-0.4
	c-0.5-0.2-0.8-0.6-1.1-1l-26.7-40.7l2-1.4v62.5c0,0.8-0.3,1.6-0.9,2.2c-0.6,0.6-1.4,0.9-2.3,0.9c-0.9,0-1.6-0.3-2.2-0.9
	c-0.6-0.6-0.8-1.4-0.8-2.2v-67.4c0-0.8,0.3-1.5,0.9-2.2C38.1,353.8,38.8,353.4,39.7,353.4z"/>
<path d="M124.9,423.9c0,0.8-0.3,1.6-0.9,2.2s-1.4,0.9-2.2,0.9c-1,0-1.8-0.3-2.3-0.9c-0.6-0.6-0.8-1.4-0.8-2.2v-48.4
	c0-0.8,0.3-1.6,0.9-2.2c0.6-0.6,1.4-0.9,2.3-0.9c0.9,0,1.7,0.3,2.3,0.9c0.6,0.6,0.9,1.4,0.9,2.2V423.9z"/>
<path d="M162.3,372.9c4.3,0,8.1,1.1,11.2,3.4c3.1,2.3,5.2,5.7,6.3,10.2l-1.5,0.4l0.6-1.9c0.9-2.1,2.4-4.1,4.6-5.9
	c2.1-1.9,4.6-3.3,7.3-4.5c2.7-1.1,5.5-1.7,8.3-1.7c4.4,0,8,0.9,10.7,2.8c2.7,1.9,4.7,4.4,5.9,7.6c1.2,3.2,1.8,6.8,1.8,10.8v29.8
	c0,0.8-0.3,1.6-0.9,2.2c-0.6,0.6-1.4,0.9-2.3,0.9c-1,0-1.8-0.3-2.3-0.9c-0.6-0.6-0.8-1.4-0.8-2.2v-29.5c0-2.9-0.5-5.5-1.4-7.9
	c-0.9-2.4-2.4-4.3-4.3-5.7c-2-1.4-4.6-2.1-7.9-2.1c-2.9,0-5.7,0.7-8.3,2.1c-2.6,1.4-4.7,3.3-6.4,5.7c-1.6,2.4-2.5,5-2.5,7.9v29.5
	c0,0.8-0.3,1.6-0.9,2.2c-0.6,0.6-1.4,0.9-2.3,0.9c-0.9,0-1.7-0.3-2.3-0.9c-0.6-0.6-0.9-1.4-0.9-2.2v-29.8c0-2.9-0.4-5.5-1.3-7.7
	c-0.8-2.3-2.2-4.1-4.1-5.5c-1.9-1.4-4.5-2.1-7.7-2.1c-2.9,0-5.6,0.7-8.2,2.1c-2.6,1.4-4.6,3.2-6.2,5.5c-1.6,2.3-2.4,4.9-2.4,7.7
	v29.8c0,0.8-0.3,1.6-0.9,2.2s-1.4,0.9-2.2,0.9c-1,0-1.8-0.3-2.4-0.9c-0.6-0.6-0.9-1.4-0.9-2.2v-47.1c0-0.8,0.3-1.6,0.9-2.2
	s1.4-0.9,2.3-0.9c0.9,0,1.7,0.3,2.3,0.9c0.6,0.6,0.9,1.4,0.9,2.2v9.8l-2.8,3.9c0.2-2.1,0.9-4.2,2.1-6.3c1.2-2.1,2.7-4,4.6-5.7
	c1.9-1.7,4.1-3,6.5-4.1C157.1,373.4,159.7,372.9,162.3,372.9z"/>
<path d="M281,400.2c0,5.3-1.2,10.1-3.5,14.4c-2.3,4.2-5.5,7.6-9.5,10c-4,2.4-8.6,3.6-13.7,3.6c-5,0-9.5-1.2-13.5-3.6
	c-4-2.4-7.2-5.8-9.6-10c-2.4-4.2-3.5-9-3.5-14.4c0-5.4,1.2-10.2,3.5-14.4c2.4-4.2,5.5-7.5,9.6-10c4-2.5,8.5-3.7,13.5-3.7
	c5.1,0,9.7,1.2,13.7,3.7c4,2.5,7.2,5.8,9.5,10C279.9,390,281,394.8,281,400.2z M274.7,400.2c0-4.3-0.9-8.1-2.6-11.4
	c-1.8-3.3-4.2-5.9-7.2-7.8c-3.1-1.9-6.5-2.8-10.5-2.8c-3.8,0-7.2,0.9-10.3,2.8c-3.1,1.9-5.5,4.5-7.3,7.8c-1.8,3.3-2.7,7.1-2.7,11.4
	c0,4.3,0.9,8.1,2.7,11.4c1.8,3.3,4.2,5.9,7.3,7.8c3.1,1.9,6.5,2.9,10.3,2.9c3.9,0,7.4-1,10.5-2.9c3.1-1.9,5.5-4.5,7.2-7.8
	C273.9,408.2,274.7,404.4,274.7,400.2z"/>
<path d="M349.6,353.4c5.9,0,10.5,1.6,13.8,4.8c3.3,3.2,5,7.6,5,13.3c0,3-0.6,5.8-1.9,8.5c-1.3,2.6-3.1,4.8-5.6,6.4
	c-2.5,1.6-5.5,2.6-9.1,2.8l-0.5-2.1c2.6,0,5.1,0.4,7.6,1.1c2.5,0.7,4.7,1.9,6.7,3.5c2,1.6,3.6,3.6,4.8,6.1c1.2,2.4,1.8,5.4,1.8,8.8
	c0,3.6-0.6,6.8-1.8,9.4c-1.2,2.6-2.9,4.8-5,6.4c-2.1,1.6-4.5,2.8-7.1,3.6s-5.4,1.1-8.3,1.1h-28.3c-0.9,0-1.7-0.3-2.3-0.9
	c-0.6-0.6-0.9-1.4-0.9-2.2v-67.4c0-0.8,0.3-1.6,0.9-2.2c0.6-0.6,1.3-0.9,2.3-0.9H349.6z M348.6,359.8H324l1.3-2v29.8l-1.2-1.6h24.6
	c3.6-0.1,6.7-1.3,9.2-3.6c2.5-2.3,3.7-5.8,3.7-10.3c0-3.8-1.1-6.8-3.4-9C356,360.9,352.7,359.8,348.6,359.8z M349.5,392.4h-24.7
	l0.5-0.7v30.2l-0.6-0.9h24.9c4.6,0,8.3-1.1,11.4-3.4c3-2.3,4.5-5.9,4.5-10.9c0-3.5-0.7-6.3-2.2-8.4c-1.5-2.1-3.4-3.6-5.9-4.5
	C354.9,392.8,352.3,392.4,349.5,392.4z"/>
<path d="M432.4,400.2c0,5.3-1.2,10.1-3.5,14.4c-2.3,4.2-5.5,7.6-9.5,10c-4,2.4-8.6,3.6-13.7,3.6c-5,0-9.5-1.2-13.5-3.6
	c-4-2.4-7.2-5.8-9.6-10c-2.4-4.2-3.5-9-3.5-14.4c0-5.4,1.2-10.2,3.5-14.4c2.3-4.2,5.5-7.5,9.6-10c4-2.5,8.5-3.7,13.5-3.7
	c5.1,0,9.7,1.2,13.7,3.7c4,2.5,7.2,5.8,9.5,10S432.4,394.8,432.4,400.2z M426.1,400.2c0-4.3-0.9-8.1-2.6-11.4
	c-1.8-3.3-4.2-5.9-7.2-7.8c-3.1-1.9-6.5-2.8-10.5-2.8c-3.8,0-7.2,0.9-10.3,2.8c-3.1,1.9-5.5,4.5-7.3,7.8c-1.8,3.3-2.7,7.1-2.7,11.4
	c0,4.3,0.9,8.1,2.7,11.4c1.8,3.3,4.2,5.9,7.3,7.8c3.1,1.9,6.5,2.9,10.3,2.9c3.9,0,7.4-1,10.5-2.9c3.1-1.9,5.5-4.5,7.2-7.8
	C425.2,408.2,426.1,404.4,426.1,400.2z"/>
<path d="M441.2,372.8c1.1,0,1.9,0.5,2.5,1.4l37.3,48.2c0.5,0.6,0.7,1.2,0.7,1.9c0,0.8-0.3,1.6-0.9,2.2c-0.6,0.6-1.4,0.9-2.2,0.9
	c-1,0-1.9-0.5-2.6-1.4L438.6,378c-0.4-0.6-0.6-1.2-0.6-1.9c0-1,0.3-1.8,1-2.4C439.6,373.1,440.4,372.8,441.2,372.8z M441.2,427.4
	c-0.7,0-1.4-0.2-2.1-0.7c-0.7-0.5-1-1.2-1-2.1c0-0.8,0.2-1.4,0.7-2l17.8-22.8l3.5,5.2l-16.4,21.3C443.1,427,442.3,427.4,441.2,427.4
	z M478.6,372.8c0.9,0,1.6,0.3,2.2,0.8c0.5,0.5,0.8,1.2,0.8,1.9c0,0.4-0.1,0.7-0.2,1.1c-0.1,0.4-0.3,0.7-0.6,1.1L463,400.9l-3.4-5.1
	l16.3-21.7C476.7,373.3,477.6,372.8,478.6,372.8z"/>
<path class="st0" d="M331.9,317.1c-0.3-0.9-0.6-1.7-0.8-2.5c-1.3-3.7-3.2-7.2-5.1-10.7c-1.4-2.8-2.9-5.5-4.1-8.4
	c-1.4-3.5-1.5-7.2,0-10.8c2-4.8,6.6-7,11.5-6.2c5,0.9,8.3,4.7,8.7,9.7c0,0.5,0.1,0.9,0.2,1.6c0.5-0.4,0.8-0.7,1.1-1
	c1.7-1.7,3.8-2.7,6.2-3c6.7-0.7,12.7,4.7,11.9,11.6c-0.4,3.8-2.6,6.6-5.6,8.7c-2.3,1.7-5,2.7-7.6,3.7c-4,1.5-8.1,3.1-12.1,4.7
	c-1.2,0.5-2.4,1.3-3.5,1.9C332.5,316.7,332.2,316.9,331.9,317.1z"/>
<path class="st6" d="M50.7,141.8c3.8-0.7,7.5-1.2,11.1-2.2c5.8-1.5,10.4-7.3,11.1-13.2c0.4-2.9,0.9-5.7,1.4-8.8
	c0.3,1.7,0.5,3.2,0.8,4.7c0.5,2.7,0.6,5.5,1.8,8.1c2.5,5.5,6.7,8.8,12.7,9.8c2.8,0.4,5.5,0.9,8.3,1.5c-1.7,0.3-3.5,0.6-5.2,0.9
	c-2.8,0.5-5.7,0.8-8.3,2.2c-4.7,2.6-7.6,6.5-8.5,11.7c-0.5,3-1,6-1.6,9c-0.5-3-1-5.9-1.4-8.9c-1-6.3-6.1-11.9-12.4-13.2
	c-3.1-0.6-6.2-1.1-9.2-1.6C51.1,141.9,50.9,141.9,50.7,141.8z"/>
<path class="st7" d="M94.3,96.4c2-0.4,4-0.6,6-1.2c3.1-0.8,5.6-3.9,6-7.1c0.2-1.5,0.5-3,0.8-4.7c0.2,0.9,0.3,1.7,0.4,2.5
	c0.3,1.5,0.3,3,1,4.4c1.3,3,3.6,4.7,6.8,5.2c1.5,0.2,3,0.5,4.5,0.8c-0.9,0.2-1.9,0.3-2.8,0.5c-1.5,0.3-3.1,0.4-4.5,1.2
	c-2.5,1.4-4.1,3.5-4.6,6.3c-0.3,1.6-0.5,3.2-0.8,4.8c-0.3-1.6-0.5-3.2-0.8-4.8c-0.5-3.4-3.3-6.4-6.7-7.1c-1.6-0.3-3.3-0.6-5-0.8
	C94.5,96.5,94.4,96.4,94.3,96.4z"/>
<path class="st4" d="M238.8,355.6c0,0.3,0,0.6,0,0.8c-0.3,0-0.5-0.1-0.5-0.4C238.3,355.7,238.6,355.6,238.8,355.6z"/>
</svg>
