<?xml version="1.0" encoding="utf-8"?>
<!-- Generator: Adobe Illustrator 28.4.1, SVG Export Plug-In . SVG Version: 6.00 Build 0)  -->
<svg version="1.1" id="Layer_1" xmlns="http://www.w3.org/2000/svg" xmlns:xlink="http://www.w3.org/1999/xlink" x="0px" y="0px"
	 viewBox="0 0 512 512" style="enable-background:new 0 0 512 512;" xml:space="preserve">
<style type="text/css">
	.st0{fill:#0000FF;}
	.st1{fill:#29ABE2;}
	.st2{fill:#A08C8C;}
	.st3{fill:#D1C5C4;}
	.st4{fill:#FD4A75;}
</style>
<g>
	<polygon class="st0" points="293,401.8 153.2,333.4 170.7,167.5 315,218.9 	"/>
	<polygon class="st1" points="293,401.8 153.2,333.4 170.7,167.5 315,218.9 	"/>
	<path class="st2" d="M355.8,191.4l-33.3-12.1c-2.1-0.8-3.5-2.8-3.5-5.1v-11.1c0-22.1-11.2-42.7-29.7-54.7
		c-8.2-5.9-32.9-15.5-47.4-4.5c9.1,1.4,17.8,4.8,23.8,8c7.9,0.5,15.7,4,19.2,6.6c12.9,8.4,20.6,22.7,20.6,38v21.8
		c0,2.3,1.5,4.4,3.7,5.2l9.7,3.5l29.3,10.4l-26.6,14.7l-24.6-8.6v-25.3c0-2.8-0.2-5.7-0.6-8.4c-2.4-18.8-13-35.8-29.1-46.3
		c-3.3-2.4-9.3-5.4-16.1-7.3c-5.3-1.5-11.2-2.5-16.9-2.1v0c-13,0.9-24.8,8.8-25.3,32.8v26l-30.4-10.6l15.9-6.6
		c3.3-1.4,5.3-4.6,5.2-8.2l-0.3-7.2l-37.5,17.5l-19.8,179.4l160.3,80.2l71-52L355.8,191.4z M283.6,199l-61.1-21.3v-27.7
		c0.2-10.7,3.7-16.8,8.5-20v0c4.1-2.7,9.2-3.2,14.2-2.6c7.3,0.8,14.4,4,17.7,6.4c11,7.1,18.2,18.6,20.1,31.3
		c0.3,2.2,0.5,4.4,0.5,6.7V199z M271.1,162.1v5.1c0,1.4-1.4,2.4-2.7,1.9l-23.9-8.5l-13.5-4.8c0,0,0.1-9.4,0.2-9.6
		c2.6-6.6,7.7-9.2,13.3-9.7V151l25.3,9.2C270.6,160.5,271.1,161.2,271.1,162.1z M322.4,224.3l26.2-15.9l14.5,153.4l-57.8,40
		L322.4,224.3z"/>
	<polygon class="st2" points="295.7,379 155.4,312.6 153.2,333.4 293,401.8 	"/>
	<polygon class="st2" points="315,218.9 170.7,167.5 168.5,188.2 312.2,241.8 	"/>
	<polygon class="st3" points="298.5,356.1 157.6,291.9 155.4,312.6 295.7,379 	"/>
	<polygon class="st4" points="164.1,229.7 306.7,287.5 301.2,333.2 159.7,271.2 	"/>
	<polygon class="st3" points="312.2,241.8 168.5,188.2 166.3,209 309.5,264.6 	"/>
</g>
<g>
	<g>
		<path class="st4" d="M181.7,89.2c-4.1,0.1-7.7-0.6-10.7-1.9c-3-1.3-5.9-3.3-8.7-6c-0.3-0.3-0.5-0.6-0.7-0.9
			c-0.2-0.3-0.3-0.7-0.3-1.1c0-0.6,0.3-1.2,0.8-1.8c0.5-0.5,1.1-0.8,1.7-0.8c0.6,0,1.2,0.3,1.8,0.8c2.1,2.3,4.5,4,7.2,5.2
			c2.7,1.2,5.5,1.8,8.6,1.8c2.6,0,4.9-0.4,6.9-1.2c2-0.8,3.6-2,4.8-3.5c1.2-1.5,1.8-3.3,1.8-5.3c-0.1-2.5-0.7-4.5-2.1-6
			c-1.3-1.5-3.1-2.8-5.3-3.8c-2.2-1-4.7-1.9-7.4-2.7c-2.2-0.7-4.3-1.5-6.4-2.3c-2-0.8-3.8-1.9-5.3-3.1c-1.5-1.2-2.7-2.7-3.6-4.5
			c-0.9-1.8-1.3-3.9-1.3-6.4c0-2.9,0.8-5.4,2.3-7.7c1.5-2.2,3.7-4,6.4-5.3c2.8-1.3,6-1.9,9.7-1.9c3.2,0,6.2,0.5,9.2,1.6
			c2.9,1.1,5.3,2.7,7,4.8c0.8,0.9,1.2,1.6,1.2,2.3c0,0.6-0.3,1.1-0.8,1.7c-0.5,0.5-1.1,0.8-1.8,0.8c-0.5,0-1-0.2-1.4-0.6
			c-0.9-1.1-2.1-2.1-3.5-3c-1.4-0.9-3-1.6-4.7-2.1s-3.5-0.7-5.3-0.7c-2.5,0-4.8,0.4-6.8,1.2c-2,0.8-3.6,1.9-4.8,3.4
			c-1.2,1.5-1.7,3.2-1.7,5.3c0,2.3,0.6,4.1,1.9,5.5c1.3,1.4,3,2.6,5.1,3.6c2.1,0.9,4.3,1.8,6.7,2.6c2.3,0.6,4.5,1.4,6.7,2.2
			c2.1,0.8,4,1.9,5.7,3.1c1.6,1.2,2.9,2.8,3.9,4.7c0.9,1.9,1.4,4.3,1.4,7.1c0,2.8-0.8,5.2-2.3,7.4c-1.6,2.2-3.7,4-6.4,5.3
			C188.5,88.5,185.3,89.2,181.7,89.2z"/>
		<path class="st4" d="M207.7,47.2h18.9c0.6,0,1.2,0.2,1.6,0.7c0.4,0.5,0.6,1,0.6,1.7c0,0.6-0.2,1.2-0.6,1.6c-0.4,0.4-1,0.6-1.6,0.6
			h-18.9c-0.6,0-1.2-0.2-1.7-0.7c-0.5-0.5-0.7-1-0.7-1.7c0-0.6,0.2-1.2,0.7-1.6C206.5,47.4,207,47.2,207.7,47.2z M216,35.8
			c0.7,0,1.3,0.2,1.7,0.7c0.5,0.5,0.7,1.1,0.7,1.7v40.6c0,1.5,0.2,2.6,0.6,3.4c0.4,0.8,0.9,1.3,1.6,1.5c0.6,0.2,1.3,0.4,1.9,0.4
			c0.4,0,0.8-0.1,1.2-0.2c0.4-0.1,0.7-0.2,1.2-0.2c0.5,0,0.9,0.2,1.3,0.6c0.4,0.4,0.5,0.9,0.5,1.5c0,0.8-0.4,1.4-1.3,1.9
			c-0.9,0.5-1.9,0.8-3.1,0.8c-0.5,0-1.2,0-2.2-0.1c-1-0.1-2-0.4-3-0.9c-1-0.5-1.9-1.4-2.6-2.7c-0.7-1.3-1.1-3.2-1.1-5.6V38.2
			c0-0.6,0.2-1.2,0.7-1.7C214.7,36,215.3,35.8,216,35.8z"/>
		<path class="st4" d="M276.3,67.7c0,4.1-0.9,7.8-2.7,11.1c-1.8,3.3-4.2,5.8-7.3,7.7c-3.1,1.9-6.6,2.8-10.5,2.8
			c-3.8,0-7.3-0.9-10.4-2.8c-3.1-1.9-5.6-4.4-7.4-7.7c-1.8-3.3-2.7-6.9-2.7-11.1c0-4.2,0.9-7.9,2.7-11.1c1.8-3.2,4.3-5.8,7.4-7.7
			c3.1-1.9,6.6-2.8,10.4-2.8c3.9,0,7.4,0.9,10.5,2.8c3.1,1.9,5.5,4.5,7.3,7.7C275.4,59.8,276.3,63.5,276.3,67.7z M271.5,67.7
			c0-3.3-0.7-6.2-2-8.8c-1.4-2.6-3.2-4.6-5.5-6c-2.3-1.5-5-2.2-8.1-2.2c-2.9,0-5.6,0.7-7.9,2.2c-2.4,1.5-4.3,3.5-5.6,6
			c-1.4,2.6-2.1,5.5-2.1,8.8c0,3.3,0.7,6.2,2.1,8.7c1.4,2.5,3.3,4.5,5.6,6c2.4,1.5,5,2.2,7.9,2.2c3,0,5.7-0.7,8.1-2.2
			c2.3-1.5,4.2-3.5,5.5-6C270.8,73.9,271.5,71,271.5,67.7z"/>
		<path class="st4" d="M289.1,88.4c-0.8,0-1.4-0.2-1.8-0.7c-0.5-0.5-0.7-1.1-0.7-1.7V49.7c0-0.6,0.2-1.2,0.7-1.7s1.1-0.7,1.8-0.7
			c0.7,0,1.3,0.2,1.7,0.7c0.5,0.5,0.7,1.1,0.7,1.7v12.1l-1.2,0.2c0.2-1.9,0.6-3.8,1.4-5.6s1.8-3.6,3.2-5.1c1.3-1.6,3-2.8,4.8-3.8
			c1.9-1,4-1.5,6.3-1.5c1,0,1.9,0.2,2.8,0.6s1.4,1.1,1.4,2c0,0.8-0.2,1.4-0.6,1.9c-0.4,0.4-0.9,0.6-1.5,0.6c-0.5,0-1-0.1-1.6-0.4
			c-0.6-0.3-1.3-0.4-2.2-0.4c-1.5,0-3,0.4-4.5,1.3c-1.5,0.9-2.9,2.1-4.1,3.6c-1.2,1.5-2.2,3.2-3,5.1c-0.7,1.9-1.1,3.7-1.1,5.6v20
			c0,0.6-0.2,1.2-0.7,1.7S289.8,88.4,289.1,88.4z"/>
		<path class="st4" d="M336.5,89.2c-4.2,0-7.8-0.9-11-2.7c-3.2-1.8-5.7-4.3-7.4-7.4c-1.8-3.2-2.7-6.9-2.7-11.2
			c0-4.6,0.9-8.5,2.7-11.7c1.8-3.2,4.2-5.7,7-7.5c2.9-1.8,6-2.6,9.2-2.6c2.4,0,4.7,0.4,6.9,1.3c2.2,0.8,4.2,2.1,6,3.7
			c1.8,1.6,3.2,3.7,4.2,6c1.1,2.4,1.6,5.1,1.7,8.3c-0.1,0.6-0.3,1.2-0.8,1.7c-0.5,0.5-1.1,0.7-1.7,0.7h-32.5l-1-4.4h31.9l-1.1,1
			v-1.6c-0.3-2.5-1.1-4.7-2.5-6.4c-1.4-1.8-3.1-3.1-5.1-4c-2-0.9-4-1.4-6.2-1.4c-1.6,0-3.3,0.3-5,1c-1.7,0.6-3.2,1.7-4.6,3
			c-1.4,1.4-2.5,3.1-3.4,5.3c-0.9,2.1-1.3,4.7-1.3,7.6c0,3.2,0.6,6.1,1.9,8.7c1.3,2.6,3.2,4.6,5.6,6.2c2.5,1.5,5.4,2.3,8.8,2.3
			c1.9,0,3.6-0.3,5.1-0.8c1.5-0.5,2.8-1.3,4-2.1c1.2-0.9,2.1-1.8,2.9-2.8c0.6-0.5,1.2-0.7,1.7-0.7c0.6,0,1.1,0.2,1.5,0.6
			c0.4,0.4,0.6,0.9,0.6,1.5c0,0.6-0.3,1.2-0.8,1.7c-1.6,1.9-3.7,3.6-6.3,5.1S339.6,89.2,336.5,89.2z"/>
	</g>
</g>
<g>
	<g>
		<path class="st4" d="M134.5,423.6c-0.6,0-1.2-0.2-1.7-0.6s-0.7-1-0.7-1.6c0-0.7,0.2-1.3,0.7-1.7c0.5-0.4,1.1-0.6,1.7-0.6H173
			c0.7,0,1.3,0.2,1.8,0.6c0.5,0.4,0.7,1,0.7,1.7s-0.2,1.3-0.7,1.7s-1.1,0.6-1.8,0.6H134.5z M153.8,475.7c-0.8,0-1.4-0.2-1.9-0.7
			c-0.5-0.5-0.7-1.1-0.7-1.7v-51.6h5.1v51.6c0,0.6-0.2,1.2-0.7,1.7C155.1,475.4,154.5,475.7,153.8,475.7z"/>
		<path class="st4" d="M186.9,428.2c-1.1,0-2-0.3-2.5-0.8c-0.6-0.5-0.9-1.3-0.9-2.2v-0.8c0-1,0.3-1.7,0.9-2.2
			c0.6-0.5,1.5-0.8,2.6-0.8c1,0,1.8,0.3,2.4,0.8c0.6,0.5,0.8,1.3,0.8,2.2v0.8c0,1-0.3,1.7-0.8,2.2
			C188.8,427.9,188,428.2,186.9,428.2z M189.4,473.3c0,0.6-0.2,1.2-0.7,1.7c-0.5,0.5-1.1,0.7-1.7,0.7c-0.8,0-1.3-0.2-1.8-0.7
			c-0.4-0.5-0.6-1.1-0.6-1.7V436c0-0.6,0.2-1.2,0.7-1.7c0.5-0.5,1-0.7,1.7-0.7c0.7,0,1.3,0.2,1.7,0.7c0.5,0.5,0.7,1.1,0.7,1.7V473.3
			z"/>
		<path class="st4" d="M220.7,476.5c-4.2,0-7.8-0.9-11-2.7c-3.2-1.8-5.7-4.3-7.4-7.4c-1.8-3.2-2.7-6.9-2.7-11.2
			c0-4.6,0.9-8.5,2.7-11.7c1.8-3.2,4.2-5.7,7-7.5c2.9-1.8,6-2.6,9.2-2.6c2.4,0,4.7,0.4,6.9,1.3c2.2,0.8,4.2,2.1,6,3.7
			c1.8,1.6,3.2,3.7,4.2,6s1.6,5.1,1.7,8.3c-0.1,0.6-0.3,1.2-0.8,1.7c-0.5,0.5-1.1,0.7-1.7,0.7h-32.5l-1-4.4h31.9l-1.1,1v-1.6
			c-0.3-2.5-1.1-4.7-2.5-6.4c-1.4-1.8-3.1-3.1-5.1-4c-2-0.9-4-1.4-6.2-1.4c-1.6,0-3.3,0.3-5,1c-1.7,0.6-3.2,1.7-4.6,3
			c-1.4,1.4-2.5,3.1-3.4,5.3c-0.9,2.1-1.3,4.7-1.3,7.6c0,3.2,0.6,6.1,1.9,8.7c1.3,2.6,3.2,4.6,5.6,6.2c2.5,1.5,5.4,2.3,8.8,2.3
			c1.9,0,3.6-0.3,5.1-0.8c1.5-0.5,2.8-1.3,4-2.1c1.2-0.9,2.1-1.8,2.9-2.8c0.6-0.5,1.2-0.7,1.7-0.7c0.6,0,1.1,0.2,1.5,0.6
			c0.4,0.4,0.6,0.9,0.6,1.5c0,0.6-0.3,1.2-0.8,1.7c-1.6,1.9-3.7,3.6-6.3,5.1S223.8,476.5,220.7,476.5z"/>
		<path class="st4" d="M267.2,433.3c3.6,0,6.4,0.7,8.5,2.1c2.1,1.4,3.7,3.4,4.6,5.8c0.9,2.5,1.4,5.2,1.4,8.1v23.8
			c0,0.6-0.2,1.2-0.7,1.7c-0.5,0.5-1.1,0.7-1.7,0.7c-0.8,0-1.4-0.2-1.8-0.7c-0.5-0.5-0.7-1.1-0.7-1.7v-23.6c0-2.2-0.4-4.1-1.1-5.9
			c-0.7-1.8-1.8-3.2-3.4-4.3c-1.6-1.1-3.6-1.6-6.2-1.6c-2.3,0-4.5,0.5-6.6,1.6c-2.1,1.1-3.8,2.5-5.1,4.3c-1.3,1.8-1.9,3.8-1.9,5.9
			v23.6c0,0.6-0.2,1.2-0.7,1.7c-0.5,0.5-1.1,0.7-1.7,0.7c-0.8,0-1.4-0.2-1.8-0.7c-0.5-0.5-0.7-1.1-0.7-1.7V437
			c0-0.6,0.2-1.2,0.7-1.7c0.5-0.5,1.1-0.7,1.8-0.7c0.7,0,1.3,0.2,1.7,0.7c0.5,0.5,0.7,1.1,0.7,1.7v6.8l-1.9,2.9
			c0.1-1.7,0.7-3.4,1.7-5c1-1.6,2.3-3,3.8-4.3c1.6-1.3,3.3-2.3,5.2-3C263.4,433.7,265.3,433.3,267.2,433.3z"/>
		<path class="st4" d="M328.5,415.8c0.7,0,1.3,0.2,1.7,0.7c0.5,0.5,0.7,1.1,0.7,1.7v55.1c0,0.6-0.2,1.2-0.7,1.7
			c-0.5,0.5-1.1,0.7-1.7,0.7c-0.8,0-1.3-0.2-1.8-0.7c-0.4-0.5-0.6-1.1-0.6-1.7v-9.6l1.4-1.1c0,1.6-0.4,3.2-1.2,4.8
			c-0.8,1.6-2,3.2-3.4,4.5c-1.5,1.4-3.2,2.5-5.2,3.4c-2,0.9-4.1,1.3-6.4,1.3c-3.6,0-6.9-0.9-9.8-2.8c-2.9-1.9-5.2-4.5-6.8-7.7
			c-1.7-3.2-2.5-6.9-2.5-11.1c0-4.1,0.8-7.8,2.5-11.1c1.7-3.3,3.9-5.8,6.8-7.7c2.9-1.9,6.1-2.8,9.6-2.8c2.3,0,4.4,0.4,6.4,1.2
			c2,0.8,3.8,1.9,5.3,3.3c1.5,1.4,2.8,3,3.6,4.8s1.3,3.7,1.3,5.6l-1.7-1.2v-28.9c0-0.6,0.2-1.2,0.6-1.7
			C327.1,416,327.7,415.8,328.5,415.8z M311.6,472c2.9,0,5.5-0.7,7.7-2.2c2.2-1.5,3.9-3.5,5.2-6.1c1.3-2.6,1.9-5.5,1.9-8.8
			c0-3.2-0.6-6.1-1.9-8.7c-1.3-2.6-3-4.6-5.2-6c-2.2-1.5-4.8-2.2-7.6-2.2c-2.8,0-5.3,0.7-7.6,2.2c-2.2,1.5-4,3.5-5.3,6
			c-1.3,2.6-1.9,5.5-1.9,8.7c0,3.2,0.6,6.2,1.9,8.7c1.3,2.6,3,4.6,5.3,6.1C306.3,471.2,308.8,472,311.6,472z"/>
		<path class="st4" d="M377.5,434.3c0.7,0,1.3,0.2,1.7,0.7c0.5,0.5,0.7,1.1,0.7,1.8v36.4c0,0.6-0.2,1.2-0.7,1.7
			c-0.5,0.5-1.1,0.7-1.7,0.7c-0.8,0-1.3-0.2-1.8-0.7c-0.4-0.5-0.6-1.1-0.6-1.7v-9.6l1.4-0.6c0,1.5-0.4,3-1.3,4.6
			c-0.8,1.6-2,3-3.4,4.4c-1.5,1.3-3.2,2.4-5.1,3.2c-2,0.8-4.1,1.3-6.4,1.3c-3.7,0-7-0.9-9.8-2.8c-2.9-1.9-5.2-4.5-6.8-7.8
			c-1.6-3.3-2.5-7-2.5-11.1c0-4.2,0.8-7.9,2.5-11.1c1.7-3.2,3.9-5.7,6.8-7.6c2.9-1.8,6.1-2.8,9.6-2.8c2.3,0,4.5,0.4,6.5,1.2
			c2,0.8,3.8,1.9,5.3,3.3c1.5,1.4,2.7,3,3.6,4.8c0.9,1.8,1.3,3.7,1.3,5.6l-1.7-1.2v-10.3c0-0.7,0.2-1.3,0.6-1.8
			C376.2,434.6,376.8,434.3,377.5,434.3z M360.7,472c2.9,0,5.4-0.7,7.6-2.2c2.2-1.5,4-3.5,5.2-6.2c1.3-2.6,1.9-5.5,1.9-8.8
			c0-3.1-0.6-6-1.9-8.5c-1.3-2.6-3-4.6-5.2-6.1c-2.2-1.5-4.8-2.2-7.6-2.2c-2.8,0-5.3,0.7-7.6,2.1c-2.2,1.4-4,3.4-5.3,6
			c-1.3,2.5-1.9,5.5-1.9,8.7c0,3.2,0.6,6.2,1.9,8.8c1.3,2.6,3,4.7,5.2,6.2C355.3,471.2,357.8,472,360.7,472z"/>
	</g>
</g>
</svg>
