<?xml version="1.0" encoding="utf-8"?>
<!-- Generator: Adobe Illustrator 26.5.0, SVG Export Plug-In . SVG Version: 6.00 Build 0)  -->
<svg version="1.1" id="Layer_1" xmlns="http://www.w3.org/2000/svg" xmlns:xlink="http://www.w3.org/1999/xlink" x="0px" y="0px"
	 viewBox="0 0 1920 1080" style="enable-background:new 0 0 1920 1080;" xml:space="preserve">
<style type="text/css">
	.st0{clip-path:url(#SVGID_00000072267482334641537700000007834879092976446381_);}
	.st1{fill:url(#SVGID_00000161595674102912503330000012064500060218706598_);}
	.st2{fill:url(#SVGID_00000129924271365481885340000001377224856875238589_);}
	.st3{fill:#00447E;}
	.st4{fill:#00437E;}
	.st5{fill:#00427D;}
	.st6{fill:#00417D;}
	.st7{fill:#00407D;}
	.st8{fill:#003F7C;}
	.st9{fill:#003E7C;}
	.st10{fill:#003D7C;}
	.st11{fill:#003C7B;}
	.st12{fill:#003B7B;}
	.st13{fill:#003A7B;}
	.st14{fill:#00397B;}
	.st15{fill:#00387A;}
	.st16{fill:#00377A;}
	.st17{fill:#00367A;}
	.st18{fill:#003579;}
	.st19{fill:#003479;}
	.st20{fill:#003379;}
	.st21{fill:#003278;}
	.st22{fill:#003178;}
	.st23{fill:#003078;}
	.st24{fill:#002F77;}
	.st25{fill:#002E77;}
	.st26{fill:#002D77;}
	.st27{fill:#002C76;}
	.st28{fill:#002B76;}
	.st29{fill:#002A76;}
	.st30{fill:#002975;}
	.st31{fill:#002875;}
	.st32{fill:#002775;}
	.st33{fill:#002674;}
	.st34{fill:#002574;}
	.st35{fill:#002474;}
	.st36{fill:#002373;}
	.st37{fill:#002273;}
	.st38{fill:#002173;}
	.st39{fill:#002072;}
	.st40{fill:#001F72;}
	.st41{fill:#001E72;}
	.st42{fill:#001D71;}
	.st43{fill:#001C71;}
	.st44{fill:#001B71;}
	.st45{fill:#001A70;}
	.st46{fill:#001970;}
	.st47{fill:#001870;}
	.st48{fill:#00176F;}
	.st49{fill:#00166F;}
	.st50{fill:#00156F;}
	.st51{fill:#00146E;}
	.st52{fill:#00136E;}
	.st53{fill:#00126E;}
	.st54{fill:#00116D;}
	.st55{fill:#00106D;}
	.st56{fill:#000F6D;}
	.st57{fill:#000E6D;}
	.st58{fill:#000D6C;}
	.st59{fill:#000C6C;}
	.st60{fill:#000B6C;}
	.st61{fill:#000A6B;}
	.st62{fill:#00096B;}
	.st63{fill:#00086B;}
	.st64{fill:#00076A;}
	.st65{fill:#00066A;}
	.st66{fill:#00043C;}
	.st67{fill:#00043D;}
	.st68{fill:#00043E;}
	.st69{fill:#00043F;}
	.st70{fill:#000440;}
	.st71{fill:#000441;}
	.st72{fill:#000442;}
	.st73{fill:#000443;}
	.st74{fill:#000444;}
	.st75{fill:#000445;}
	.st76{fill:#000446;}
	.st77{fill:#000447;}
	.st78{fill:#000548;}
	.st79{fill:#000549;}
	.st80{fill:#00054A;}
	.st81{fill:#00054B;}
	.st82{fill:#00054C;}
	.st83{fill:#00054D;}
	.st84{fill:#00054E;}
	.st85{fill:#00054F;}
	.st86{fill:#000550;}
	.st87{fill:#000551;}
	.st88{fill:#000552;}
	.st89{fill:#000553;}
	.st90{fill:#000554;}
	.st91{fill:#000555;}
	.st92{fill:#000556;}
	.st93{fill:#000557;}
	.st94{fill:#000558;}
	.st95{fill:#000559;}
	.st96{fill:#00055A;}
	.st97{fill:#00055B;}
	.st98{fill:#00055C;}
	.st99{fill:#00055D;}
	.st100{fill:#00055E;}
	.st101{fill:#00065F;}
	.st102{fill:#000660;}
	.st103{fill:#000661;}
	.st104{fill:#000662;}
	.st105{fill:#000663;}
	.st106{fill:#000664;}
	.st107{fill:#000665;}
	.st108{fill:#000666;}
	.st109{fill:#000667;}
	.st110{fill:#000668;}
	.st111{fill:#000669;}
	.st112{fill:#00437D;}
	.st113{fill:#00427C;}
	.st114{fill:#00417B;}
	.st115{fill:#00407A;}
	.st116{fill:#003F79;}
	.st117{fill:#003E78;}
	.st118{fill:#003D77;}
	.st119{fill:#003C76;}
	.st120{fill:#003B75;}
	.st121{fill:#003A74;}
	.st122{fill:#003973;}
	.st123{fill:#003972;}
	.st124{fill:#003871;}
	.st125{fill:#003770;}
	.st126{fill:#00366F;}
	.st127{fill:#00356E;}
	.st128{fill:#00346D;}
	.st129{fill:#00336C;}
	.st130{fill:#00326B;}
	.st131{fill:#00316A;}
	.st132{fill:#003069;}
	.st133{fill:#002F68;}
	.st134{fill:#002E67;}
	.st135{fill:#002D66;}
	.st136{fill:#002C65;}
	.st137{fill:#002B64;}
	.st138{fill:#002A63;}
	.st139{fill:#002962;}
	.st140{fill:#002861;}
	.st141{fill:#002760;}
	.st142{fill:#00265F;}
	.st143{fill:#00255E;}
	.st144{fill:#00245D;}
	.st145{fill:#00235C;}
	.st146{fill:#00225B;}
	.st147{fill:#00215A;}
	.st148{fill:#002059;}
	.st149{fill:#001F58;}
	.st150{fill:#001E57;}
	.st151{fill:#001D56;}
	.st152{fill:#001C55;}
	.st153{fill:#001B54;}
	.st154{fill:#001A53;}
	.st155{fill:#001952;}
	.st156{fill:#001851;}
	.st157{fill:#001750;}
	.st158{fill:#00164F;}
	.st159{fill:#00154E;}
	.st160{fill:#00144D;}
	.st161{fill:#00134C;}
	.st162{fill:#00124B;}
	.st163{fill:#00114A;}
	.st164{fill:#001049;}
	.st165{fill:#000F48;}
	.st166{fill:#000F47;}
	.st167{fill:#000E46;}
	.st168{fill:#000D45;}
	.st169{fill:#000C44;}
	.st170{fill:#000B43;}
	.st171{fill:#000A42;}
	.st172{fill:#000941;}
	.st173{fill:#000840;}
	.st174{fill:#00073F;}
	.st175{fill:#00063E;}
	.st176{fill:#00053D;}
</style>
<g>
	<defs>
		<polygon id="SVGID_1_" points="0,1080 1920,1080 1920,0 0,0 		"/>
	</defs>
	
		<linearGradient id="SVGID_00000026126140603894779780000001280075930017657752_" gradientUnits="userSpaceOnUse" x1="-1462.9949" y1="1980.0037" x2="-1544.7518" y2="1211.4948" gradientTransform="matrix(-1 0 0 -1 -535.407 2215.3315)">
		<stop  offset="0.2447" style="stop-color:#00066A"/>
		<stop  offset="0.4654" style="stop-color:#31357E"/>
		<stop  offset="0.967" style="stop-color:#ACACB1"/>
		<stop  offset="1" style="stop-color:#B4B4B4"/>
	</linearGradient>
	<use xlink:href="#SVGID_1_"  style="overflow:visible;fill:url(#SVGID_00000026126140603894779780000001280075930017657752_);"/>
	<clipPath id="SVGID_00000023245023273643175320000017372316735058216351_">
		<use xlink:href="#SVGID_1_"  style="overflow:visible;"/>
	</clipPath>
	<g style="clip-path:url(#SVGID_00000023245023273643175320000017372316735058216351_);">
		
			<linearGradient id="SVGID_00000013903408900124912250000009441230336553095348_" gradientUnits="userSpaceOnUse" x1="-2558.0076" y1="1663.1187" x2="-847.117" y2="1916.2089" gradientTransform="matrix(-1 0 0 -1 -535.407 2215.3315)">
			<stop  offset="0" style="stop-color:#FDFDFD"/>
			<stop  offset="7.063007e-02" style="stop-color:#F9F9F9"/>
			<stop  offset="0.1473" style="stop-color:#ECECEC"/>
			<stop  offset="0.2268" style="stop-color:#D6D6D6"/>
			<stop  offset="0.3078" style="stop-color:#B8B8B8"/>
			<stop  offset="0.3497" style="stop-color:#A5A5A5"/>
			<stop  offset="0.4025" style="stop-color:#969696"/>
			<stop  offset="0.4965" style="stop-color:#727272"/>
			<stop  offset="0.5403" style="stop-color:#7C7C7C"/>
			<stop  offset="0.6134" style="stop-color:#959595"/>
			<stop  offset="0.6503" style="stop-color:#A5A5A5"/>
			<stop  offset="0.6683" style="stop-color:#BBBBBB"/>
			<stop  offset="0.7023" style="stop-color:#DFDFDF"/>
			<stop  offset="0.7301" style="stop-color:#F5F5F5"/>
			<stop  offset="0.7478" style="stop-color:#FDFDFD"/>
			<stop  offset="0.8083" style="stop-color:#FDFDFD"/>
			<stop  offset="0.8276" style="stop-color:#F5F5F5"/>
			<stop  offset="0.8578" style="stop-color:#DFDFDF"/>
			<stop  offset="0.8948" style="stop-color:#BBBBBB"/>
			<stop  offset="0.9145" style="stop-color:#A5A5A5"/>
			<stop  offset="0.9575" style="stop-color:#A9A9A9"/>
			<stop  offset="0.9965" style="stop-color:#B4B4B4"/>
			<stop  offset="1" style="stop-color:#B5B5B5"/>
		</linearGradient>
		<path style="fill:url(#SVGID_00000013903408900124912250000009441230336553095348_);" d="M2060.3,151.4l-12.5,177.4
			c0,0-414.4-139.7-1002.8,52.1C897.1,429.1,760.4,480,634.1,525.1C375.9,617.3,159.9,685.3-24.7,656.2
			C432,618.8,632.6,193.3,1140.9,129.8C1551.7,78.4,1923.9,128.5,2060.3,151.4z"/>
		
			<linearGradient id="SVGID_00000160908021092965090820000017347691803761673370_" gradientUnits="userSpaceOnUse" x1="-628.6732" y1="1232.9543" x2="-2373.1804" y2="2212.2424" gradientTransform="matrix(-1 0 0 -1 -535.407 2215.3315)">
			<stop  offset="0" style="stop-color:#FDFDFD"/>
			<stop  offset="7.063007e-02" style="stop-color:#F9F9F9"/>
			<stop  offset="0.1473" style="stop-color:#ECECEC"/>
			<stop  offset="0.2268" style="stop-color:#D6D6D6"/>
			<stop  offset="0.3078" style="stop-color:#B8B8B8"/>
			<stop  offset="0.3497" style="stop-color:#A5A5A5"/>
			<stop  offset="0.4025" style="stop-color:#969696"/>
			<stop  offset="0.4965" style="stop-color:#727272"/>
			<stop  offset="0.5403" style="stop-color:#7C7C7C"/>
			<stop  offset="0.6134" style="stop-color:#959595"/>
			<stop  offset="0.6503" style="stop-color:#A5A5A5"/>
			<stop  offset="0.6683" style="stop-color:#BBBBBB"/>
			<stop  offset="0.7023" style="stop-color:#DFDFDF"/>
			<stop  offset="0.7301" style="stop-color:#F5F5F5"/>
			<stop  offset="0.7478" style="stop-color:#FDFDFD"/>
			<stop  offset="0.8083" style="stop-color:#FDFDFD"/>
			<stop  offset="0.8276" style="stop-color:#F5F5F5"/>
			<stop  offset="0.8578" style="stop-color:#DFDFDF"/>
			<stop  offset="0.8948" style="stop-color:#BBBBBB"/>
			<stop  offset="0.9145" style="stop-color:#A5A5A5"/>
			<stop  offset="0.9575" style="stop-color:#A9A9A9"/>
			<stop  offset="0.9965" style="stop-color:#B4B4B4"/>
			<stop  offset="1" style="stop-color:#B5B5B5"/>
		</linearGradient>
		<path style="fill:url(#SVGID_00000160908021092965090820000017347691803761673370_);" d="M2044.3,106l-7.1,177.6
			c0,0-418.6-130.6-1000.9,73.9C890,408.9,754.9,462.8,630,510.7C374.7,608.4,160.8,681.1-24.6,656c455.5-47.4,643-477,1149.2-551.6
			C1533.6,44.1,1907.3,86.1,2044.3,106z"/>
		<g>
			<path class="st3" d="M808.9-23.7c0,0,0.1,0,0.1,0H690.9H384.4H300H-29.1v0V220v243.7v0.7v132.3v58.4c1.5,0.2,3,0.3,4.5,0.4
				c1.7-0.3,3.4-0.5,5.1-0.8c-1.7,0.3-3.4,0.6-5.1,0.9c186.4,19.8,397.2-58.9,648.4-163.8c123-51.4,255.9-109,400.1-164.6
				c269.8-103.8,506.3-132.6,681.3-134c197.2-1.5,316.1,31.9,316.1,31.9v0v-68.4v-21.5V17.8v-3.3v-38.2h-606.2H808.9z"/>
			<path class="st4" d="M696.8-23c0.4-0.1,117.1-0.2,117.6-0.2c0,0-0.1,0-0.1,0c2.4-0.3,601.4-0.5,603.5-0.5
				c3.2,0,602.3,0.2,603.5,0.3v38.2v3.3v117.4v21.4v35c0,0-0.2,32.8-0.5,32.8c0,0,0,0,0,0c-0.8-0.2-119.6-33.3-316-31.7
				c-174.9,1.4-411.3,30.2-680.9,133.9c-144.2,55.5-277.1,113.2-400.1,164.6C372.7,596.4,162,675.1-24.3,655.3
				c1.6-0.3,3.3-0.6,4.9-0.9c-1.7,0.3-3.4,0.5-5.1,0.8c-1.5-0.1-3-0.3-4.5-0.4c0.4-0.1,0.8-57.7,1.2-57.8
				c0.9-0.3,1.8-130.8,2.6-131.3c0,0,0-0.7,0-0.7c1.5-0.9,2.8-241.9,4.2-243.1c0.7-0.6,1.4-241,2.1-241.6c0,0,0,0,0,0
				c0.9-0.7,325.8-1.4,326.9-1.9c0.3-0.1,83.6-0.3,83.9-0.4C393-22.5,695.6-22.8,696.8-23z"/>
			<path class="st5" d="M702.7-22.3c0.9-0.2,116.1-0.3,117-0.4c0,0-0.1,0-0.1,0c4.8-0.7,596.6-1,600.8-1
				c6.3-0.1,598.4,0.3,600.9,0.6v38.2v3.3v117.3v21.4v35c0,0-0.3,32.3-1,32.1c0,0,0,0,0,0c-1.6-0.3-120.2-33.2-315.9-31.6
				c-174.9,1.4-411.1,30.3-680.5,133.9c-144.2,55.5-277.1,113.2-400.1,164.6C372.8,596,162.1,674.7-24.1,655.1
				c1.6-0.3,3.2-0.6,4.8-0.9c-1.7,0.2-3.4,0.5-5.1,0.7c-1.5-0.1-3-0.3-4.5-0.4c0.9-0.1,1.7-56.9,2.5-57.1
				c1.9-0.6,3.6-129.4,5.3-130.4c0,0,0-0.7,0-0.7c3-1.8,5.6-240.1,8.4-242.5c1.3-1.1,2.7-238.3,4.1-239.4c0,0,0,0,0,0
				c1.9-1.4,322.5-2.8,324.7-3.9c0.5-0.3,82.9-0.5,83.4-0.8C401.5-21.2,700.4-21.9,702.7-22.3z"/>
			<path class="st6" d="M708.6-21.5c1.3-0.2,115.2-0.5,116.5-0.6c0,0-0.1,0-0.1,0c7.2-1,591.8-1.5,598.1-1.6
				c9.5-0.1,594.5,0.5,598.2,0.9v38.2v3.3v117.3v21.4v35c0,0-0.5,31.7-1.5,31.5c0,0,0,0,0,0c-2.4-0.5-120.9-33.1-315.8-31.5
				c-174.8,1.5-410.9,30.3-680,133.9c-144.2,55.5-277.1,113.2-400.1,164.6c-251,104.8-461.6,183.4-647.7,163.9
				c1.5-0.3,3.1-0.6,4.6-0.8c-1.7,0.2-3.4,0.5-5.1,0.7c-1.5-0.1-3-0.3-4.5-0.4c1.3-0.2,2.5-56.1,3.7-56.5c2.8-0.8,5.4-128,7.9-129.5
				c0,0,0-0.7,0-0.7c4.4-2.7,8.5-238.3,12.7-241.9c2-1.7,4.1-235.6,6.2-237.2c0,0,0,0,0,0c2.8-2.1,319.2-4.2,322.5-5.8
				c0.8-0.4,82.1-0.8,82.9-1.2C410.1-19.9,705.1-20.9,708.6-21.5z"/>
			<path class="st7" d="M714.6-20.8c1.8-0.3,114.2-0.6,116-0.9c0,0-0.1,0-0.1,0c9.7-1.4,586.9-2,595.4-2.1
				c12.6-0.2,590.6,0.6,595.5,1.2v38.2V19v117.2v21.4v35c0,0-0.7,31.1-2,30.8c0,0,0,0,0,0c-3.2-0.7-121.5-33-315.7-31.4
				c-174.8,1.5-410.7,30.4-679.6,133.9c-144.2,55.5-277.1,113.2-400.1,164.6C373,595.3,162.5,673.9-23.7,654.5
				c1.5-0.3,3-0.6,4.4-0.8c-1.7,0.2-3.4,0.5-5.1,0.7c-1.5-0.1-3-0.3-4.5-0.4c1.7-0.3,3.4-55.4,5-55.9c3.8-1.1,7.2-126.6,10.5-128.6
				c0,0,0-0.7,0.1-0.7c5.9-3.6,11.3-236.5,16.9-241.3c2.7-2.3,5.4-232.8,8.3-235c0,0,0,0,0,0c3.7-2.9,315.9-5.5,320.3-7.8
				c1.1-0.6,81.3-1.1,82.4-1.6C418.6-18.6,709.8-20,714.6-20.8z"/>
			<path class="st8" d="M720.5-20c2.2-0.4,113.2-0.8,115.4-1.1c0,0-0.1,0-0.1,0c12.1-1.7,582.1-2.5,592.7-2.6
				c15.8-0.2,586.7,0.8,592.8,1.5V16v3.3v117.2v21.4v35c0,0-0.9,30.5-2.5,30.2c0,0,0,0,0,0c-4-0.8-122.1-32.9-315.6-31.2
				c-174.7,1.6-410.5,30.5-679.2,133.9c-144.2,55.5-277.1,113.2-400.1,164.6C373.1,595,162.7,673.6-23.4,654.2
				c1.4-0.3,2.9-0.6,4.3-0.8c-1.7,0.2-3.4,0.5-5.1,0.7c-1.5-0.1-3-0.3-4.5-0.4c2.2-0.3,4.2-54.6,6.2-55.2
				c4.7-1.4,9-125.2,13.1-127.7c0,0,0-0.7,0.1-0.7c7.4-4.5,14.1-234.7,21.1-240.7c3.4-2.9,6.8-230.1,10.4-232.8c0,0,0,0,0,0
				c4.7-3.6,312.6-6.9,318.1-9.7c1.4-0.7,80.5-1.4,81.9-2C427.2-17.3,714.6-19,720.5-20z"/>
			<path class="st9" d="M726.4-19.3c2.7-0.5,112.2-0.9,114.9-1.3c0,0-0.1,0-0.1,0c14.5-2.1,577.3-2.9,590-3.1
				c18.9-0.3,582.8,0.9,590.1,1.8v38.2v3.3v117.1v21.4v35c0,0-1,29.9-3,29.5c0,0,0,0,0,0c-4.8-1-122.8-32.8-315.5-31.1
				c-174.7,1.6-410.3,30.6-678.8,133.9C879.7,380.9,746.8,438.6,623.9,490c-250.7,104.7-461,183.2-647.1,163.9
				c1.4-0.3,2.7-0.5,4.1-0.8c-1.7,0.2-3.4,0.5-5.1,0.7c-1.5-0.1-3-0.3-4.5-0.4c2.6-0.4,5.1-53.9,7.5-54.6
				c5.7-1.7,10.9-123.8,15.8-126.8c0,0,0.1-0.7,0.1-0.7c8.9-5.4,16.9-232.9,25.3-240.1c4-3.4,8.1-227.4,12.4-230.7c0,0,0,0,0,0
				c5.6-4.3,309.3-8.3,316-11.7c1.6-0.8,79.7-1.6,81.4-2.4C435.7-16,719.3-18.1,726.4-19.3z"/>
			<path class="st10" d="M732.3-18.6c3.1-0.6,111.2-1.1,114.3-1.5c0,0-0.1,0-0.1,0c16.9-2.4,572.5-3.4,587.3-3.7
				c22.1-0.3,578.9,1.1,587.4,2.1v38.1v3.3v117.1v21.4v35c0,0-1.2,29.4-3.5,28.9c0,0,0,0,0,0c-5.6-1.1-123.4-32.7-315.4-31
				c-174.6,1.6-410.1,30.6-678.4,133.9c-144.2,55.5-277.1,113.2-400.1,164.6C373.3,594.3,163,672.8-23,653.6c1.3-0.3,2.6-0.5,4-0.8
				c-1.7,0.2-3.4,0.4-5.1,0.6c-1.5-0.1-3-0.3-4.5-0.4c3-0.5,5.9-53.1,8.7-53.9c6.6-2,12.7-122.4,18.4-125.9c0,0,0.1-0.7,0.1-0.7
				C9,466.3,18.4,241.4,28.2,233.1c4.7-4,9.5-224.7,14.5-228.5c0,0,0,0,0,0c6.6-5,306-9.7,313.8-13.6c1.9-1,78.9-1.9,80.9-2.8
				C444.2-14.8,724.1-17.1,732.3-18.6z"/>
			<path class="st11" d="M738.2-17.8c3.6-0.6,110.2-1.2,113.8-1.7c0,0-0.1,0-0.1,0c19.3-2.8,567.7-3.9,584.6-4.2
				c25.2-0.4,575,1.2,584.8,2.4v38.1v3.3v117.1v21.4v34.9c0,0-1.4,28.8-4,28.2c0,0,0,0,0,0c-6.4-1.3-124.1-32.6-315.3-30.9
				c-174.6,1.7-409.9,30.7-678,133.9C879.7,380.3,746.8,438,623.9,489.4c-250.4,104.6-460.7,183.1-646.6,164
				c1.3-0.3,2.5-0.5,3.8-0.8c-1.7,0.2-3.4,0.4-5.1,0.6c-1.5-0.1-3-0.3-4.5-0.4c3.4-0.6,6.8-52.3,10-53.3c7.5-2.3,14.5-121,21-125
				c0,0,0.1-0.7,0.1-0.7c11.9-7.2,22.6-229.3,33.7-238.8C41.7,230.4,47.2,13,52.9,8.7c0,0,0,0,0,0C60.4,2.9,355.7-2.4,364.5-6.9
				c2.2-1.1,78.1-2.2,80.4-3.2C452.8-13.5,728.8-16.2,738.2-17.8z"/>
			<path class="st12" d="M744.1-17.1c4-0.7,109.3-1.4,113.3-1.9c0,0-0.1,0-0.1,0c21.7-3.1,562.8-4.4,581.9-4.7
				c28.4-0.4,571.1,1.4,582.1,2.7v38.1v3.3v117v21.4v34.9c0,0-1.6,28.2-4.5,27.6c0,0,0,0,0,0c-7.2-1.5-124.7-32.5-315.3-30.8
				c-174.5,1.7-409.7,30.8-677.6,133.9C879.7,380,746.8,437.7,623.9,489.1c-250.3,104.5-460.5,183-646.4,164
				c1.2-0.3,2.4-0.5,3.6-0.8c-1.7,0.2-3.4,0.4-5.1,0.6c-1.5-0.1-3-0.3-4.5-0.4c3.9-0.6,7.6-51.6,11.2-52.7
				c8.5-2.5,16.3-119.6,23.7-124.1c0,0,0.1-0.6,0.1-0.7c13.3-8.1,25.4-227.5,38-238.2c6-5.1,12.2-219.2,18.7-224.1c0,0,0,0,0,0
				C71.6,6.3,362.7,0.2,372.6-4.8c2.5-1.2,77.3-2.4,79.9-3.6C461.3-12.2,733.5-15.2,744.1-17.1z"/>
			<path class="st13" d="M750.1-16.3c4.5-0.8,108.3-1.5,112.7-2.1c0,0-0.1,0-0.1,0c24.1-3.5,558-4.9,579.2-5.2
				c31.5-0.5,567.2,1.6,579.4,3v38.1v3.3v117V159V194c0,0-1.7,27.6-5,26.9c0,0,0,0,0,0c-8-1.6-125.4-32.4-315.2-30.6
				c-174.5,1.8-409.5,30.9-677.2,133.9c-144.2,55.5-277.1,113.2-400.1,164.6c-250.2,104.5-460.3,183-646.1,164
				c1.2-0.3,2.3-0.5,3.5-0.8c-1.7,0.2-3.4,0.4-5.1,0.6c-1.5-0.1-3-0.3-4.5-0.4c4.3-0.7,8.5-50.8,12.5-52
				c9.4-2.8,18.1-118.2,26.3-123.2c0,0,0.1-0.6,0.1-0.7c14.8-9,28.2-225.7,42.2-237.6c6.7-5.7,13.5-216.5,20.7-222c0,0,0,0,0,0
				C82.8,9.6,369.6,2.9,380.7-2.7c2.7-1.4,76.6-2.7,79.4-3.9C469.9-10.9,738.3-14.3,750.1-16.3z"/>
			<path class="st14" d="M756-15.6c4.9-0.9,107.3-1.7,112.2-2.4c0,0-0.1,0-0.1,0c26.6-3.8,553.2-5.4,576.6-5.7
				c34.7-0.5,563.3,1.7,576.7,3.3v38.1V21v116.9v21.4v34.9c0,0-1.9,27-5.6,26.3c0,0,0,0,0,0c-8.8-1.8-126-32.3-315.1-30.5
				c-174.5,1.8-409.3,30.9-676.8,133.9c-144.2,55.5-277.1,113.2-400.1,164.6c-250.1,104.4-460.2,182.9-645.9,164
				c1.1-0.3,2.2-0.5,3.3-0.8c-1.7,0.2-3.4,0.4-5.1,0.6c-1.5-0.1-3-0.3-4.5-0.4c4.7-0.8,9.3-50.1,13.7-51.4
				c10.4-3.1,19.9-116.8,28.9-122.2c0,0,0.1-0.6,0.1-0.7c16.3-9.9,31-223.9,46.4-237c7.4-6.3,14.9-213.8,22.8-219.8c0,0,0,0,0,0
				C94,12.9,376.6,5.6,388.7-0.6c3-1.5,75.8-3,78.9-4.3C478.4-9.6,743-13.3,756-15.6z"/>
			<path class="st15" d="M761.9-14.9c5.3-0.9,106.3-1.8,111.7-2.6c0,0-0.1,0-0.1,0c29-4.2,548.4-5.9,573.9-6.3
				c37.8-0.5,559.4,1.9,574,3.6V18v3.3v116.9v21.4v34.9c0,0-2.1,26.5-6.1,25.7c0,0,0,0,0,0c-9.6-2-126.6-32.2-315-30.4
				c-174.4,1.8-409.1,31-676.4,133.9c-144.2,55.5-277.1,113.2-400.1,164.6c-250,104.4-460,182.8-645.7,164.1
				c1.1-0.2,2.1-0.5,3.2-0.8c-1.7,0.2-3.4,0.4-5.1,0.5c-1.5-0.1-3-0.3-4.5-0.4c5.2-0.8,10.1-49.3,15-50.7
				c11.3-3.4,21.7-115.4,31.6-121.3c0.1,0,0.1-0.6,0.2-0.7c17.8-10.8,33.9-222.1,50.6-236.4c8.1-6.8,16.3-211,24.9-217.6
				c0,0,0,0,0,0c11.2-8.6,289.6-16.6,302.9-23.3c3.3-1.7,75-3.2,78.4-4.7C486.9-8.3,747.8-12.4,761.9-14.9z"/>
			<path class="st16" d="M767.8-14.1c5.8-1,105.3-2,111.1-2.8c0,0-0.1,0-0.1,0c31.4-4.5,543.6-6.4,571.2-6.8
				c41-0.6,555.5,2,571.3,3.9v38.1v3.3v116.9v21.4v34.9c0,0-2.3,25.9-6.6,25c0,0,0,0,0,0c-10.4-2.1-127.3-32.2-314.9-30.3
				c-174.4,1.9-408.9,31.1-676,133.9c-144.2,55.5-277.1,113.2-400.1,164.6C373.9,592.2,164,670.6-21.6,651.9c1-0.2,2-0.5,3-0.8
				c-1.7,0.2-3.4,0.4-5.1,0.5c-1.5-0.1-3-0.3-4.5-0.4c5.6-0.9,11-48.5,16.2-50.1c12.3-3.7,23.5-114,34.2-120.4
				c0.1,0,0.1-0.6,0.2-0.7c19.3-11.7,36.7-220.3,54.8-235.8C86,236.9,94.9,36,104.2,28.9c0,0,0,0,0,0c12.2-9.3,286.3-18,300.7-25.3
				c3.5-1.8,74.2-3.5,77.9-5.1C495.5-7.1,752.5-11.4,767.8-14.1z"/>
			<path class="st17" d="M773.7-13.4c6.2-1.1,104.3-2.1,110.6-3c0,0-0.1,0-0.1,0c33.8-4.9,538.7-6.9,568.5-7.3
				c44.1-0.6,551.6,2.2,568.6,4.2v38v3.3v116.8V160v34.9c0,0-2.4,25.3-7.1,24.4c0,0,0,0,0,0c-11.2-2.3-127.9-32.1-314.8-30.1
				c-174.3,1.9-408.7,31.1-675.6,133.9c-144.2,55.5-277.1,113.2-400.1,164.6C374,591.9,164.2,670.3-21.4,651.7
				c0.9-0.2,1.9-0.5,2.8-0.8c-1.7,0.2-3.4,0.3-5.1,0.5c-1.5-0.1-3-0.3-4.5-0.4c6-1,11.8-47.8,17.4-49.5
				c13.2-4,25.3-112.6,36.8-119.5c0.1,0,0.1-0.6,0.2-0.7c20.8-12.6,39.5-218.5,59-235.1c9.4-8,19-205.6,29-213.2c0,0,0,0,0,0
				c13.1-10,283-19.4,298.5-27.2c3.8-1.9,73.4-3.8,77.4-5.5C504-5.8,757.2-10.5,773.7-13.4z"/>
			<path class="st18" d="M779.6-12.6c6.7-1.2,103.4-2.3,110-3.2c0,0,0,0-0.1,0c36.2-5.2,533.9-7.4,565.8-7.8
				c47.3-0.7,547.7,2.3,566,4.5v38v3.3v116.8v21.3v34.9c0,0-2.6,24.7-7.6,23.7c0,0,0,0,0,0c-12.1-2.5-128.6-32-314.7-30
				c-174.3,2-408.5,31.2-675.2,133.9c-144.2,55.5-277.1,113.2-400.1,164.6c-249.7,104.3-459.5,182.6-645,164.1
				c0.9-0.2,1.8-0.5,2.7-0.8c-1.7,0.2-3.4,0.3-5.1,0.5c-1.5-0.1-3-0.3-4.5-0.4c6.5-1,12.7-47,18.7-48.8
				c14.1-4.2,27.1-111.2,39.4-118.6c0.1,0,0.1-0.6,0.2-0.7c22.2-13.5,42.3-216.7,63.3-234.5c10.1-8.6,20.3-202.9,31.1-211.1
				c0,0,0,0,0,0C138.8,26.3,404.4,16.2,421,7.8c4.1-2.1,72.6-4.1,76.9-5.9C512.6-4.5,762-9.5,779.6-12.6z"/>
			<path class="st19" d="M785.6-11.9c7.1-1.3,102.4-2.4,109.5-3.4c0,0,0,0-0.1,0c38.6-5.6,529.1-7.9,563.1-8.3
				c50.4-0.7,543.8,2.5,563.3,4.8v38v3.3v116.7v21.3v34.8c0,0-2.8,24.1-8.1,23.1c0,0,0,0,0,0c-12.9-2.6-129.2-31.9-314.6-29.9
				c-174.2,2-408.3,31.3-674.8,133.9C879.7,377.9,746.8,435.5,623.9,487C374.2,591.2,164.5,669.5-20.9,651.1
				c0.8-0.2,1.7-0.5,2.5-0.8c-1.7,0.2-3.4,0.3-5.1,0.5c-1.5-0.1-3-0.3-4.5-0.4c6.9-1.1,13.5-46.3,19.9-48.2
				c15.1-4.5,28.9-109.8,42.1-117.7c0.1,0,0.1-0.6,0.2-0.6c23.7-14.4,45.2-214.9,67.5-233.9c10.7-9.1,21.7-200.1,33.2-208.9
				c0,0,0,0,0,0c15-11.4,276.4-22.2,294.1-31.1c4.4-2.2,71.8-4.3,76.4-6.3C521.1-3.2,766.7-8.6,785.6-11.9z"/>
			<path class="st20" d="M791.5-11.1c7.6-1.3,101.4-2.6,109-3.6c0,0,0,0-0.1,0c41.1-5.9,524.3-8.3,560.4-8.9
				c53.6-0.8,539.9,2.7,560.6,5.1v38v3.3v116.7v21.3v34.8c0,0-3,23.6-8.6,22.4c0,0,0,0,0,0c-13.7-2.8-129.9-31.8-314.5-29.8
				c-174.2,2-408.1,31.4-674.4,133.8c-144.2,55.5-277.1,113.2-400.1,164.6C374.3,590.8,164.7,669.2-20.7,650.8
				c0.8-0.2,1.6-0.5,2.4-0.7c-1.7,0.2-3.4,0.3-5.1,0.4c-1.5-0.1-3-0.3-4.5-0.4c7.3-1.2,14.4-45.5,21.2-47.5
				c16-4.8,30.7-108.4,44.7-116.8c0.1,0,0.1-0.6,0.2-0.6c25.2-15.3,48-213.1,71.7-233.3c11.4-9.7,23-197.4,35.2-206.7c0,0,0,0,0,0
				C161.1,32.9,418.3,21.5,437.1,12c4.6-2.4,71-4.6,75.9-6.7C529.7-1.9,771.5-7.6,791.5-11.1z"/>
			<path class="st21" d="M797.4-10.4c8-1.4,100.4-2.7,108.4-3.9c0,0,0,0-0.1,0c43.5-6.3,519.5-8.8,557.7-9.4
				c56.7-0.8,536,2.8,557.9,5.4v38V23v116.6V161v34.8c0,0-3.1,23-9.1,21.8c0,0,0,0,0,0c-14.5-2.9-130.5-31.7-314.4-29.6
				c-174.1,2.1-407.9,31.4-674,133.8c-144.2,55.5-277.1,113.2-400.1,164.6c-249.4,104.1-459,182.5-644.3,164.2
				c0.7-0.2,1.5-0.5,2.2-0.7c-1.7,0.1-3.4,0.3-5.1,0.4c-1.5-0.1-3-0.3-4.5-0.4c7.8-1.3,15.2-44.7,22.4-46.9
				c17-5.1,32.6-107,47.3-115.9c0.1,0,0.2-0.6,0.2-0.6C68.9,470.2,93,275,118.1,253.7c12.1-10.3,24.4-194.7,37.3-204.5c0,0,0,0,0,0
				c16.9-12.9,269.9-24.9,289.7-35c4.9-2.5,70.3-4.9,75.4-7.1C538.2-0.6,776.2-6.7,797.4-10.4z"/>
			<path class="st22" d="M803.3-9.7c8.5-1.5,99.4-2.9,107.9-4.1c0,0,0,0-0.1,0c45.9-6.6,514.6-9.3,555-9.9
				c59.9-0.9,532.1,3,555.2,5.6v38v3.3v116.6v21.3V196c0,0-3.3,22.4-9.6,21.1c0,0,0,0,0,0c-15.3-3.1-131.1-31.6-314.3-29.5
				c-174.1,2.1-407.7,31.5-673.6,133.8C879.7,377,746.8,434.6,623.9,486C374.5,590.1,165.1,668.4-20.2,650.2c0.7-0.2,1.4-0.5,2-0.7
				c-1.7,0.1-3.4,0.3-5.1,0.4c-1.5-0.1-3-0.3-4.5-0.4c8.2-1.3,16.1-44,23.7-46.2c17.9-5.4,34.4-105.5,50-115c0.1,0,0.2-0.6,0.2-0.6
				c28.2-17,53.6-209.6,80.1-232.1c12.7-10.8,25.7-192,39.4-202.4c0,0,0,0,0,0c17.8-13.6,266.6-26.3,287.6-37
				c5.2-2.6,69.5-5.1,74.9-7.5C546.7,0.7,780.9-5.7,803.3-9.7z"/>
			<path class="st23" d="M809.2-8.9c8.9-1.6,98.4-3,107.4-4.3c0,0,0,0-0.1,0c48.3-7,509.8-9.8,552.3-10.4
				c63-0.9,528.2,3.1,552.5,5.9v38v3.3v116.6v21.3v34.8c0,0-3.5,21.8-10.1,20.5c0,0,0,0,0,0c-16.1-3.3-131.8-31.5-314.2-29.4
				c-174,2.2-407.5,31.6-673.1,133.8c-144.2,55.5-277.1,113.2-400.1,164.6C374.6,589.8,165.2,668.1-20,650c0.6-0.2,1.2-0.5,1.9-0.7
				c-1.7,0.1-3.4,0.3-5.1,0.4c-1.5-0.1-3-0.3-4.5-0.4c8.6-1.4,16.9-43.2,24.9-45.6c18.9-5.6,36.2-104.1,52.6-114.1
				c0.1-0.1,0.2-0.6,0.3-0.6c29.7-17.9,56.4-207.8,84.3-231.5c13.4-11.4,27.1-189.2,41.5-200.2c0,0,0,0,0,0
				c18.7-14.3,263.3-27.7,285.4-38.9c5.5-2.8,68.7-5.4,74.4-7.9C555.3,1.9,785.7-4.8,809.2-8.9z"/>
			<path class="st24" d="M815.1-8.2c9.4-1.7,97.5-3.2,106.8-4.5c0,0,0,0,0,0c50.7-7.3,505-10.3,549.6-11c66.2-1,524.3,3.3,549.9,6.2
				v37.9v3.3v116.5v21.3v34.8c0,0-3.7,21.2-10.6,19.8c0,0,0,0,0,0c-16.9-3.4-132.4-31.4-314.1-29.3c-174,2.2-407.3,31.7-672.7,133.8
				C879.7,376.4,746.8,434,623.9,485.4c-249.1,104-458.5,182.3-643.6,164.3c0.6-0.2,1.1-0.5,1.7-0.7c-1.7,0.1-3.4,0.3-5.1,0.4
				c-1.5-0.1-3-0.3-4.5-0.4c9.1-1.5,17.8-42.5,26.2-45c19.8-5.9,38-102.7,55.2-113.2c0.1-0.1,0.2-0.6,0.3-0.6
				c31.1-18.8,59.3-206,88.6-230.9c14.1-12,28.4-186.5,43.5-198c0,0,0,0,0,0c19.7-15,260-29.1,283.2-40.9c5.7-2.9,67.9-5.7,73.9-8.3
				C563.8,3.2,790.4-3.8,815.1-8.2z"/>
			<path class="st25" d="M821.1-7.4c9.8-1.7,96.5-3.3,106.3-4.7c0,0,0,0,0,0c53.1-7.7,500.2-10.8,546.9-11.5
				c69.3-1,520.4,3.4,547.2,6.5v37.9v3.3v116.5v21.3v34.8c0,0-3.8,20.7-11.1,19.2c0,0,0,0,0,0c-17.7-3.6-133.1-31.3-314-29.2
				c-174,2.2-407.1,31.7-672.3,133.8c-144.2,55.5-277.1,113.2-400.1,164.6c-249,104-458.3,182.2-643.4,164.3c0.5-0.2,1-0.5,1.5-0.7
				c-1.7,0.1-3.4,0.2-5,0.3c-1.5-0.1-3-0.3-4.5-0.4c9.5-1.5,18.6-41.7,27.4-44.3C20.7,598.1,39.7,503,57.8,492
				c0.1-0.1,0.2-0.6,0.3-0.6c32.6-19.7,62.1-204.2,92.8-230.2c14.8-12.5,29.8-183.8,45.6-195.8c0,0,0,0,0,0
				c20.6-15.7,256.7-30.5,281-42.8c6-3,67.1-5.9,73.4-8.7C572.4,4.5,795.2-2.9,821.1-7.4z"/>
			<path class="st26" d="M827-6.7c10.2-1.8,95.5-3.5,105.7-4.9c0,0,0,0,0,0c55.5-8,495.3-11.3,544.2-12c72.5-1,516.5,3.6,544.5,6.8
				v37.9v3.3v116.4v21.3v34.8c0,0-4,20.1-11.6,18.5c0,0,0,0,0,0c-18.5-3.8-133.7-31.2-313.9-29c-173.9,2.3-406.9,31.8-671.9,133.8
				c-144.2,55.5-277.1,113.2-400.1,164.6C375,588.8,165.8,667-19.3,649.1c0.5-0.2,0.9-0.5,1.4-0.7c-1.7,0.1-3.4,0.2-5,0.3
				c-1.5-0.1-3-0.3-4.5-0.4c9.9-1.6,19.4-40.9,28.7-43.7c21.7-6.5,41.6-99.9,60.5-111.3c0.1-0.1,0.2-0.6,0.3-0.6
				C96.1,472,126.9,290.3,159,263c15.4-13.1,31.2-181.1,47.7-193.7c0,0,0,0,0,0c21.6-16.4,253.4-31.8,278.8-44.7
				c6.3-3.2,66.3-6.2,72.9-9.1C580.9,5.8,799.9-1.9,827-6.7z"/>
			<path class="st27" d="M832.9-5.9c10.7-1.9,94.5-3.6,105.2-5.1c0,0,0,0,0,0c58-8.4,490.5-11.8,541.5-12.5
				c75.7-1.1,512.6,3.7,541.8,7.1v37.9v3.3v116.4v21.3v34.8c0,0-4.2,19.5-12.1,17.9c0,0,0,0,0,0c-19.3-3.9-134.3-31.1-313.8-28.9
				c-173.9,2.3-406.7,31.9-671.5,133.8c-144.2,55.5-277.1,113.2-400.1,164.6C375.1,588.4,165.9,666.6-19.1,648.8
				c0.4-0.2,0.8-0.5,1.2-0.7c-1.7,0.1-3.4,0.2-5,0.3c-1.5-0.1-3-0.3-4.4-0.4c10.3-1.7,20.3-40.2,29.9-43
				c22.6-6.8,43.4-98.5,63.1-110.4c0.1-0.1,0.2-0.6,0.3-0.6c35.6-21.5,67.7-200.6,101.2-229c16.1-13.7,32.5-178.3,49.8-191.5
				c0,0,0,0,0,0c22.5-17.1,250.1-33.2,276.6-46.7c6.5-3.3,65.5-6.5,72.4-9.5C589.5,7.1,804.6-1,832.9-5.9z"/>
			<path class="st28" d="M838.8-5.2c11.1-2,93.5-3.8,104.7-5.4c0,0,0,0,0,0c60.4-8.7,485.7-12.3,538.8-13
				c78.8-1.1,508.7,3.9,539.1,7.4v37.9V25v116.4v21.3v34.7c0,0-4.4,18.9-12.6,17.2c0,0,0,0,0,0c-20.1-4.1-135-31-313.7-28.8
				c-173.8,2.4-406.5,31.9-671.1,133.8c-144.2,55.5-277.1,113.2-400.1,164.6c-248.7,103.8-457.8,182-642.7,164.3
				c0.4-0.2,0.7-0.5,1.1-0.7c-1.7,0.1-3.4,0.2-5,0.3c-1.5-0.1-3-0.3-4.4-0.4c10.8-1.7,21.1-39.4,31.1-42.4
				c23.6-7.1,45.2-97.1,65.7-109.5c0.1-0.1,0.2-0.6,0.3-0.6c37.1-22.4,70.6-198.8,105.4-228.4c16.8-14.3,33.9-175.6,51.8-189.3
				c0,0,0,0,0,0C250.6,59.6,474,42.9,501.7,28.8c6.8-3.5,64.7-6.8,71.9-9.9C598,8.4,809.4,0,838.8-5.2z"/>
			<path class="st29" d="M844.7-4.5c11.6-2,92.6-3.9,104.1-5.6c0,0,0,0,0,0c62.8-9.1,480.9-12.8,536.1-13.6
				c82-1.2,504.8,4.1,536.4,7.7V22v3.3v116.3v21.3v34.7c0,0-4.5,18.4-13.1,16.6c0,0,0,0,0,0c-20.9-4.3-135.6-30.9-313.6-28.7
				c-173.8,2.4-406.3,32-670.7,133.8c-144.2,55.5-277.1,113.2-400.1,164.6C375.3,587.7,166.3,665.9-18.6,648.3
				c0.3-0.2,0.6-0.5,0.9-0.7c-1.7,0.1-3.4,0.2-5,0.3c-1.5-0.1-3-0.3-4.4-0.4c11.2-1.8,22-38.6,32.4-41.8
				c24.5-7.3,47-95.7,68.4-108.6c0.1-0.1,0.2-0.5,0.3-0.6c38.5-23.3,73.4-197,109.7-227.8c17.4-14.8,35.2-172.9,53.9-187.1
				c0,0,0,0,0,0c24.4-18.6,243.5-36,272.3-50.6c7.1-3.6,63.9-7,71.4-10.3C606.5,9.7,814.1,0.9,844.7-4.5z"/>
			<path class="st30" d="M850.6-3.7c12-2.1,91.6-4.1,103.6-5.8c0,0,0,0,0,0c65.2-9.4,476.1-13.3,533.4-14.1
				c85.1-1.2,500.9,4.2,533.7,8v37.9v3.3v116.3v21.2v34.7c0,0-4.7,17.8-13.6,16c0,0,0,0,0,0c-21.7-4.4-136.3-30.9-313.5-28.5
				c-173.7,2.4-406.1,32.1-670.3,133.8c-144.2,55.5-277.1,113.2-400.1,164.6C375.4,587.4,166.4,665.5-18.4,648
				c0.3-0.2,0.5-0.4,0.7-0.7c-1.7,0.1-3.4,0.2-5,0.2c-1.5-0.1-3-0.3-4.4-0.4c11.6-1.9,22.8-37.9,33.6-41.1
				c25.5-7.6,48.8-94.3,71-107.7c0.1-0.1,0.2-0.5,0.3-0.6c40-24.2,76.2-195.2,113.9-227.2c18.1-15.4,36.6-170.2,56-184.9
				c0,0,0,0,0,0C273,66.3,488,48.2,517.8,33c7.4-3.7,63.2-7.3,70.9-10.7C615.1,10.9,818.9,1.9,850.6-3.7z"/>
			<path class="st31" d="M856.6-3c12.5-2.2,90.6-4.2,103-6c0,0,0,0,0,0c67.6-9.8,471.2-13.7,530.7-14.6c88.3-1.3,497,4.4,531.1,8.3
				v37.8v3.3v116.2v21.2V198c0,0-4.9,17.2-14.1,15.3c0,0,0,0,0,0c-22.5-4.6-136.9-30.8-313.4-28.4
				c-173.7,2.5-405.9,32.2-669.9,133.8c-144.2,55.5-277.1,113.2-400.1,164.6C375.5,587,166.6,665.1-18.2,647.7
				c0.2-0.2,0.4-0.4,0.6-0.7c-1.7,0.1-3.4,0.2-5,0.2c-1.5-0.1-3-0.3-4.4-0.4c12.1-2,23.7-37.1,34.9-40.5
				c26.4-7.9,50.6-92.9,73.6-106.8c0.1-0.1,0.2-0.5,0.4-0.6c41.5-25.1,79-193.4,118.1-226.6c18.8-16,37.9-167.4,58-182.8
				c0,0,0,0,0,0c26.2-20,237-38.8,267.9-54.5c7.6-3.9,62.4-7.6,70.4-11.1C623.6,12.2,823.6,2.8,856.6-3z"/>
			<path class="st32" d="M862.5-2.2c12.9-2.3,89.6-4.4,102.5-6.2c0,0,0,0,0,0c70-10.1,466.4-14.2,528-15.1
				c91.4-1.3,493.1,4.5,528.4,8.6v37.8v3.2v116.2v21.2v34.7c0,0-5.1,16.6-14.6,14.7c0,0,0,0,0,0c-23.3-4.7-137.6-30.7-313.3-28.3
				c-173.6,2.5-405.7,32.2-669.5,133.8C879.7,374,746.8,431.6,623.9,483C375.6,586.7,166.8,664.7-17.9,647.4
				c0.1-0.2,0.3-0.4,0.4-0.7c-1.7,0.1-3.4,0.1-5,0.2c-1.5-0.1-3-0.3-4.4-0.4c12.5-2,24.5-36.4,36.1-39.8
				c27.3-8.2,52.4-91.5,76.3-105.9c0.1-0.1,0.2-0.5,0.4-0.6c43-26,81.9-191.6,122.3-226c19.5-16.5,39.3-164.7,60.1-180.6
				c0,0,0,0,0,0c27.2-20.7,233.7-40.2,265.7-56.4c7.9-4,61.6-7.8,69.9-11.4C632.2,13.5,828.4,3.8,862.5-2.2z"/>
			<path class="st33" d="M868.4-1.5c13.4-2.4,88.6-4.5,102-6.4c0,0,0,0,0,0c72.4-10.4,461.6-14.7,525.3-15.6
				c94.6-1.4,489.2,4.7,525.7,8.9v37.8v3.2v116.2v21.2v34.7c0,0-5.2,16-15.1,14c0,0,0,0,0,0c-24.1-4.9-138.2-30.6-313.2-28.2
				c-173.6,2.6-405.5,32.3-669.1,133.8c-144.2,55.5-277.1,113.2-400.1,164.6C375.7,586.3,167,664.4-17.7,647.1
				c0.1-0.2,0.2-0.4,0.3-0.7c-1.7,0.1-3.4,0.1-5,0.2c-1.5-0.1-3-0.3-4.4-0.4c12.9-2.1,25.4-35.6,37.4-39.2
				c28.3-8.5,54.3-90.1,78.9-105c0.1-0.1,0.3-0.5,0.4-0.6c44.5-26.9,84.7-189.8,126.5-225.3c20.1-17.1,40.6-162,62.2-178.4
				c0,0,0,0,0,0C306.6,76.3,508.8,56.2,542,39.3c8.2-4.2,60.8-8.1,69.4-11.8C640.7,14.8,833.1,4.7,868.4-1.5z"/>
			<path class="st34" d="M874.3-0.7c13.8-2.4,87.6-4.7,101.4-6.6c0,0,0,0,0,0c74.9-10.8,456.8-15.2,522.6-16.2
				c97.7-1.4,485.3,4.8,523,9.2v37.8v3.2v116.1V164v34.7c0,0-5.4,15.5-15.6,13.4c0,0,0,0,0,0c-24.9-5.1-138.8-30.5-313.1-28
				c-173.6,2.6-405.3,32.4-668.7,133.8C879.7,373.4,746.8,431,623.9,482.4C375.8,586,167.1,664-17.5,646.9c0-0.2,0.1-0.4,0.1-0.6
				c-1.7,0.1-3.4,0.1-5,0.2c-1.5-0.1-3-0.3-4.4-0.4c13.4-2.2,26.2-34.8,38.6-38.6c29.2-8.7,56.1-88.7,81.5-104.1
				c0.1-0.1,0.3-0.5,0.4-0.6c46-27.8,87.5-188,130.7-224.7c20.8-17.7,42-159.3,64.3-176.2c0,0,0,0,0,0
				c29.1-22.1,227.1-42.9,261.4-60.3c8.5-4.3,60-8.4,68.9-12.2C649.2,16.1,837.8,5.7,874.3-0.7z"/>
			<path class="st34" d="M880.2,0c14.3-2.5,86.7-4.8,100.9-6.9c0,0,0,0,0,0c77.3-11.1,452-15.7,519.9-16.7
				c100.9-1.5,481.4,5,520.3,9.5v37.8V27v116.1v21.2v34.7c0,0-5.6,14.9-16.1,12.7c0,0,0,0,0,0c-25.7-5.2-139.5-30.4-313-27.9
				c-173.5,2.6-405.1,32.5-668.3,133.8c-144.2,55.5-277.1,113.2-400.1,164.6c-248,103.5-456.6,181.5-641.1,164.5
				c0-0.2,0-0.4-0.1-0.6c-1.7,0.1-3.4,0.1-5,0.2c-1.5-0.1-3-0.3-4.4-0.4c13.8-2.2,27.1-34.1,39.9-37.9c30.2-9,57.9-87.3,84.2-103.1
				c0.1-0.1,0.3-0.5,0.4-0.6c47.4-28.7,90.3-186.2,135-224.1c21.5-18.3,43.3-156.5,66.3-174.1c0,0,0,0,0,0
				C329,83,522.8,61.5,558.1,43.6c8.7-4.4,59.2-8.7,68.4-12.6C657.8,17.4,842.6,6.7,880.2,0z"/>
			<path class="st35" d="M886.1,0.7c14.7-2.6,85.7-5,100.4-7.1c0,0,0,0,0,0c79.7-11.5,447.1-16.2,517.2-17.2
				c104-1.5,477.5,5.1,517.6,9.8v37.8v3.2v116v21.2v34.6c0,0-5.8,14.3-16.7,12.1c0,0,0,0,0,0c-26.5-5.4-140.1-30.3-312.9-27.8
				c-173.5,2.7-404.9,32.5-667.9,133.7c-144.2,55.5-277.1,113.2-400.1,164.6C376,585.3,167.5,663.3-17,646.3
				c-0.1-0.2-0.1-0.4-0.2-0.6c-1.7,0-3.4,0.1-5,0.1c-1.5-0.1-3-0.3-4.4-0.4c14.2-2.3,27.9-33.3,41.1-37.3
				c31.1-9.3,59.7-85.9,86.8-102.2c0.1-0.1,0.3-0.5,0.4-0.6c48.9-29.6,93.1-184.4,139.2-223.5c22.1-18.8,44.7-153.8,68.4-171.9
				c0,0,0,0,0,0c30.9-23.6,220.5-45.7,257-64.2c9-4.6,58.4-8.9,67.9-13C666.3,18.7,847.3,7.6,886.1,0.7z"/>
			<path class="st36" d="M892.1,1.5c15.1-2.7,84.7-5.1,99.8-7.3c0,0,0,0,0,0c82.1-11.8,442.3-16.7,514.5-17.7
				c107.2-1.5,473.6,5.3,515,10.1v37.8v3.2v116v21.2v34.6c0,0-5.9,13.7-17.2,11.4c0,0,0,0,0,0c-27.3-5.6-140.8-30.2-312.8-27.7
				c-173.4,2.7-404.7,32.6-667.5,133.7c-144.2,55.5-277.1,113.2-400.1,164.6C376.1,584.9,167.6,662.9-16.8,646
				c-0.1-0.2-0.3-0.4-0.4-0.6c-1.7,0-3.4,0.1-5,0.1c-1.5-0.1-3-0.3-4.4-0.4c14.7-2.4,28.7-32.6,42.4-36.6
				c32.1-9.6,61.5-84.5,89.4-101.3c0.1-0.1,0.3-0.5,0.4-0.6C156,476,201.5,324,249,283.6c22.8-19.4,46.1-151.1,70.5-169.7
				c0,0,0,0,0,0c31.9-24.3,217.2-47.1,254.8-66.1c9.3-4.7,57.6-9.2,67.4-13.4C674.9,19.9,852.1,8.6,892.1,1.5z"/>
			<path class="st37" d="M898,2.2c15.6-2.8,83.7-5.3,99.3-7.5c0,0,0,0,0,0c84.5-12.2,437.5-17.2,511.8-18.3
				c110.3-1.6,469.7,5.5,512.3,10.4v37.7v3.2v115.9V165v34.6c0,0-6.1,13.1-17.7,10.8c0,0,0,0,0,0c-28.1-5.7-141.4-30.1-312.7-27.6
				c-173.4,2.8-404.5,32.7-667.1,133.7c-144.2,55.5-277.1,113.2-400.1,164.6c-247.7,103.4-456,181.4-640.4,164.5
				c-0.2-0.2-0.4-0.4-0.5-0.6c-1.7,0-3.4,0.1-5,0.1c-1.5-0.1-3-0.3-4.4-0.4c15.1-2.4,29.6-31.8,43.6-36c33-9.9,63.3-83.1,92-100.4
				c0.1-0.1,0.3-0.5,0.4-0.6c51.9-31.4,98.8-180.8,147.6-222.3c23.5-20,47.4-148.4,72.6-167.5c0,0,0,0,0,0
				c32.8-25,213.9-48.5,252.6-68.1c9.5-4.8,56.9-9.5,66.9-13.8C683.4,21.2,856.8,9.5,898,2.2z"/>
			<path class="st38" d="M903.9,3c16-2.8,82.7-5.4,98.7-7.7c0,0,0,0,0,0c86.9-12.5,432.7-17.7,509.1-18.8
				c113.5-1.6,465.8,5.6,509.6,10.7v37.7v3.2v115.9v21.2v34.6c0,0-6.3,12.6-18.2,10.1c0,0,0,0,0,0c-28.9-5.9-142-30-312.6-27.4
				c-173.3,2.8-404.3,32.7-666.7,133.7c-144.2,55.5-277.1,113.2-400.1,164.6C376.3,584.2,168,662.2-16.3,645.4
				c-0.2-0.2-0.5-0.4-0.7-0.6c-1.7,0-3.4,0.1-5,0.1c-1.5-0.1-3-0.3-4.4-0.4c15.5-2.5,30.4-31,44.9-35.4
				c33.9-10.2,65.1-81.6,94.7-99.5c0.2-0.1,0.3-0.5,0.5-0.6c53.4-32.3,101.6-179,151.8-221.7c24.2-20.5,48.8-145.6,74.6-165.3
				c0,0,0,0,0,0c33.7-25.7,210.7-49.8,250.4-70c9.8-5,56.1-9.7,66.4-14.2C692,22.5,861.5,10.5,903.9,3z"/>
			<path class="st39" d="M909.8,3.7c16.5-2.9,81.7-5.6,98.2-7.9c0,0,0,0,0,0c89.3-12.9,427.8-18.2,506.4-19.3
				c116.6-1.7,461.9,5.8,506.9,11v37.7v3.2v115.9v21.2v34.6c0,0-6.4,12-18.7,9.5c0,0,0,0,0,0c-29.7-6.1-142.7-29.9-312.5-27.3
				c-173.3,2.8-404.1,32.8-666.3,133.7c-144.2,55.5-277.1,113.2-400.1,164.6c-247.5,103.3-455.7,181.2-640,164.6
				c-0.3-0.2-0.6-0.4-0.9-0.6c-1.7,0-3.4,0-5,0.1c-1.5-0.1-3-0.3-4.4-0.4c15.9-2.6,31.3-30.3,46.1-34.7
				c34.9-10.4,66.9-80.2,97.3-98.6c0.2-0.1,0.3-0.5,0.5-0.6c54.9-33.2,104.4-177.2,156-221.1c24.8-21.1,50.1-142.9,76.7-163.2
				c0,0,0,0,0,0c34.7-26.4,207.4-51.2,248.2-72c10.1-5.1,55.3-10,65.9-14.6C700.5,23.8,866.3,11.4,909.8,3.7z"/>
			<path class="st40" d="M915.7,4.5c16.9-3,80.8-5.7,97.7-8.1c0,0,0,0,0,0c91.8-13.2,423-18.7,503.7-19.8
				c119.8-1.7,458,5.9,504.2,11.3v37.7v3.2v115.8v21.2v34.6c0,0-6.6,11.4-19.2,8.8c0,0,0,0,0,0c-30.5-6.2-143.3-29.8-312.4-27.2
				c-173.2,2.9-403.9,32.9-665.8,133.7c-144.2,55.5-277.1,113.2-400.1,164.6C376.5,583.6,168.3,661.4-15.9,644.9
				c-0.3-0.2-0.7-0.4-1-0.6c-1.7,0-3.4,0-5,0c-1.5-0.1-3-0.3-4.4-0.4c16.4-2.7,32.1-29.5,47.3-34.1c35.8-10.7,68.7-78.8,99.9-97.7
				c0.2-0.1,0.3-0.5,0.5-0.6c56.3-34.1,107.3-175.4,160.3-220.4c25.5-21.7,51.5-140.2,78.8-161c0,0,0,0,0,0
				c35.6-27.1,204.1-52.6,246.1-73.9c10.4-5.3,54.5-10.3,65.4-15C709,25.1,871,12.4,915.7,4.5z"/>
			<path class="st41" d="M921.6,5.2c17.4-3.1,79.8-5.9,97.1-8.4c0,0,0,0,0,0c94.2-13.6,418.2-19.1,501-20.3
				c122.9-1.8,454.1,6.1,501.5,11.6v37.7V29v115.8V166v34.6c0,0-6.8,10.8-19.7,8.2c0,0,0,0,0,0c-31.3-6.4-144-29.7-312.3-27.1
				c-173.2,2.9-403.7,33-665.4,133.7C879.7,370.9,746.8,428.6,623.9,480C376.6,583.2,168.5,661.1-15.7,644.6
				c-0.4-0.2-0.8-0.4-1.2-0.6c-1.7,0-3.4,0-5,0c-1.5-0.1-2.9-0.3-4.4-0.4c16.8-2.7,33-28.8,48.6-33.4c36.8-11,70.5-77.4,102.6-96.8
				c0.2-0.1,0.3-0.5,0.5-0.6c57.8-35,110.1-173.6,164.5-219.8c26.2-22.2,52.8-137.5,80.8-158.8c0,0,0,0,0,0
				c36.6-27.9,200.8-54,243.9-75.9c10.6-5.4,53.7-10.5,64.9-15.4C717.6,26.4,875.8,13.3,921.6,5.2z"/>
			<path class="st42" d="M927.6,5.9c17.8-3.2,78.8-6,96.6-8.6c0,0,0,0,0,0c96.6-13.9,413.4-19.6,498.3-20.9
				c126.1-1.8,450.2,6.2,498.8,11.9v37.7v3.2V145v21.1v34.6c0,0-7,10.2-20.2,7.5c0,0,0,0,0,0c-32.1-6.5-144.6-29.6-312.2-26.9
				c-173.2,3-403.5,33-665,133.7c-144.2,55.5-277.1,113.2-400.1,164.6c-247.2,103.2-455.2,181-639.3,164.7c-0.4-0.2-0.9-0.4-1.3-0.6
				c-1.7,0-3.4,0-5,0c-1.5-0.1-2.9-0.3-4.4-0.4c17.2-2.8,33.8-28,49.8-32.8c37.7-11.3,72.3-76,105.2-95.9c0.2-0.1,0.3-0.5,0.5-0.6
				c59.3-35.9,112.9-171.8,168.7-219.2c26.8-22.8,54.2-134.7,82.9-156.6c0,0,0,0,0,0c37.5-28.6,197.5-55.4,241.7-77.8
				c10.9-5.5,52.9-10.8,64.4-15.8C726.1,27.7,880.5,14.3,927.6,5.9z"/>
			<path class="st43" d="M933.5,6.7c18.3-3.2,77.8-6.2,96.1-8.8c0,0,0,0,0,0c99-14.3,408.6-20.1,495.6-21.4
				c129.2-1.9,446.3,6.4,496.2,12.2v37.7v3.2v115.7v21.1V201c0,0-7.1,9.7-20.7,6.9c0,0,0,0,0,0c-32.9-6.7-145.3-29.6-312.1-26.8
				c-173.1,3-403.3,33.1-664.6,133.7C879.7,370.3,746.8,428,623.9,479.4c-247.1,103.2-455,181-639.1,164.7c-0.5-0.2-1-0.4-1.5-0.6
				c-1.7,0-3.3,0-5,0c-1.5-0.1-2.9-0.3-4.4-0.4c17.7-2.9,34.7-27.2,51.1-32.1c38.7-11.6,74.1-74.6,107.8-95c0.2-0.1,0.4-0.5,0.5-0.6
				c60.8-36.8,115.7-170,172.9-218.6c27.5-23.4,55.5-132,85-154.5c0,0,0,0,0,0c38.4-29.3,194.2-56.8,239.5-79.8
				c11.2-5.7,52.1-11.1,63.9-16.2C734.7,28.9,885.2,15.2,933.5,6.7z"/>
			<path class="st44" d="M939.4,7.4c18.7-3.3,76.8-6.3,95.5-9c0,0,0,0,0,0c101.4-14.6,403.7-20.6,492.9-21.9
				c132.4-1.9,442.4,6.5,493.5,12.5v37.6v3.2v115.7v21.1v34.5c0,0-7.3,9.1-21.2,6.3c0,0,0,0,0,0c-33.7-6.9-145.9-29.5-312-26.7
				c-173.1,3-403.1,33.2-664.2,133.7C879.7,370,746.8,427.7,623.9,479.1C376.9,582.2,169,660-15,643.8c-0.6-0.2-1.1-0.5-1.7-0.6
				c-1.7-0.3-3.3,0-5,0c-1.5-0.1-2.9-0.3-4.4-0.4c18.1-2.9,35.5-26.5,52.3-31.5c39.6-11.9,76-73.2,110.5-94c0.2-0.1,0.4-0.5,0.5-0.6
				c62.3-37.7,118.5-168.2,177.1-218c28.2-24,56.9-129.3,87.1-152.3c0,0,0,0,0,0c39.4-30,190.9-58.2,237.3-81.7
				c11.5-5.8,51.3-11.4,63.4-16.6C743.2,30.2,890,16.2,939.4,7.4z"/>
			<path class="st45" d="M945.3,8.2c19.2-3.4,75.8-6.5,95-9.2c0,0,0,0,0,0c103.8-15,398.9-21.1,490.2-22.4
				c135.5-2,438.5,6.7,490.8,12.8v37.6v3.2v115.6v21.1v34.5c0,0-7.5,8.5-21.7,5.6c0,0,0,0,0,0c-34.5-7-146.5-29.4-311.9-26.6
				c-173,3.1-402.9,33.3-663.8,133.7c-144.2,55.5-277.1,113.2-400.1,164.6C377,581.8,169.2,659.6-14.7,643.5
				c-0.6-0.2-1.2-0.5-1.8-0.6c-1.7-0.3-3.3,0-5-0.1c-1.5-0.1-2.9-0.3-4.4-0.4c18.5-3,36.4-25.7,53.6-30.9
				c40.5-12.1,77.8-71.8,113.1-93.1c0.2-0.1,0.4-0.4,0.6-0.6c63.8-38.6,121.4-166.4,181.3-217.4c28.8-24.5,58.2-126.6,89.1-150.1
				c0,0,0,0,0,0c40.3-30.7,187.6-59.5,235.1-83.7c11.7-6,50.6-11.6,62.9-17C751.7,31.5,894.7,17.1,945.3,8.2z"/>
			<path class="st46" d="M951.2,8.9c19.6-3.5,74.9-6.6,94.4-9.4c0,0,0,0,0,0c106.2-15.3,394.1-21.6,487.5-22.9
				c138.7-2,434.6,6.9,488.1,13.1v37.6v3.2V146v21.1v34.5c0,0-7.7,7.9-22.2,5c0,0,0,0,0,0c-35.3-7.2-147.2-29.3-311.8-26.4
				c-173,3.1-402.7,33.3-663.4,133.7C879.7,369.4,746.8,427,623.9,478.5c-246.8,103-454.5,180.8-638.4,164.7c-0.7-0.2-1.3-0.5-2-0.6
				c-1.7-0.2-3.3,0-5-0.1c-1.5-0.1-2.9-0.3-4.4-0.4c19-3.1,37.2-24.9,54.8-30.2c41.5-12.4,79.6-70.4,115.7-92.2
				c0.2-0.1,0.4-0.4,0.6-0.6c65.2-39.5,124.2-164.6,185.6-216.8c29.5-25.1,59.6-123.8,91.2-147.9c0,0,0,0,0,0
				c41.2-31.4,184.3-60.9,233-85.6c12-6.1,49.8-11.9,62.4-17.4C760.3,32.8,899.5,18.1,951.2,8.9z"/>
			<path class="st47" d="M957.1,9.7c20-3.5,73.9-6.8,93.9-9.6c0,0,0,0,0.1,0c108.7-15.7,389.3-22.1,484.8-23.5
				c141.8-2,430.7,7,485.4,13.4v37.6v3.2v115.5v21.1v34.5c0,0-7.8,7.3-22.7,4.3c0,0,0,0,0,0c-36.2-7.4-147.8-29.2-311.7-26.3
				c-172.9,3.2-402.5,33.4-663,133.7c-144.2,55.5-277.1,113.2-400.1,164.6c-246.7,103-454.3,180.7-638.1,164.8
				c-0.7-0.2-1.4-0.4-2.1-0.5c-1.7-0.2-3.3-0.1-5-0.1c-1.5-0.1-2.9-0.3-4.4-0.4c19.4-3.1,38-24.2,56.1-29.6
				c42.4-12.7,81.4-69,118.3-91.3c0.2-0.1,0.4-0.4,0.6-0.5c66.7-40.4,127-162.8,189.8-216.1c30.2-25.7,61-121.1,93.3-145.7
				c0,0,0,0,0,0c42.2-32.1,181.1-62.3,230.8-87.6c12.3-6.2,49-12.2,61.9-17.8C768.8,34.1,904.2,19,957.1,9.7z"/>
			<path class="st48" d="M963.1,10.4c20.5-3.6,72.9-6.9,93.4-9.9c0,0,0,0,0.1,0c111.1-16,384.5-22.6,482.1-24
				c145-2.1,426.8,7.2,482.7,13.7v37.6V31v115.5v21.1v34.5c0,0-8,6.8-23.2,3.7c0,0,0,0,0,0c-37-7.5-148.5-29.1-311.6-26.2
				c-172.9,3.2-402.3,33.5-662.6,133.7c-144.2,55.5-277.1,113.2-400.1,164.6C377.3,580.8,169.7,658.5-14.1,642.6
				c-0.8-0.2-1.5-0.4-2.3-0.5c-1.7-0.2-3.3-0.1-5-0.1c-1.5-0.1-2.9-0.3-4.4-0.4c19.8-3.2,38.9-23.4,57.3-28.9
				c43.4-13,83.2-67.6,121-90.4c0.2-0.1,0.4-0.4,0.6-0.5c68.2-41.3,129.8-161,194-215.5c30.9-26.2,62.3-118.4,95.4-143.6
				c0,0,0,0,0,0C485.6,129.6,620.2,98.8,671,73c12.5-6.4,48.2-12.4,61.4-18.2C777.4,35.4,908.9,20,963.1,10.4z"/>
			<path class="st49" d="M969,11.1c20.9-3.7,71.9-7.1,92.8-10.1c0,0,0,0,0.1,0c113.5-16.4,379.6-23.1,479.4-24.5
				c148.1-2.1,422.9,7.3,480.1,14v37.6v3.2v115.5v21.1v34.5c0,0-8.2,6.2-23.7,3c0,0,0,0,0,0c-37.8-7.7-149.1-29-311.5-26.1
				c-172.8,3.2-402.1,33.6-662.2,133.7c-144.2,55.5-277.1,113.2-400.1,164.6c-246.5,102.9-454,180.6-637.7,164.8
				c-0.8-0.2-1.6-0.4-2.5-0.5c-1.7-0.2-3.3-0.1-5-0.1c-1.5-0.1-2.9-0.3-4.4-0.4c20.3-3.3,39.7-22.7,58.6-28.3
				c44.3-13.3,85-66.2,123.6-89.5c0.2-0.1,0.4-0.4,0.6-0.5c69.7-42.2,132.7-159.2,198.2-214.9c31.5-26.8,63.7-115.7,97.4-141.4
				c0,0,0,0,0,0c44.1-33.6,174.5-65.1,226.4-91.4c12.8-6.5,47.4-12.7,60.9-18.6C785.9,36.6,913.7,20.9,969,11.1z"/>
			<path class="st50" d="M974.9,11.9c21.4-3.8,70.9-7.2,92.3-10.3c0,0,0,0,0.1,0c115.9-16.7,374.8-23.6,476.7-25
				c151.3-2.2,419,7.5,477.4,14.3v37.6v3.2V147v21.1v34.5c0,0-8.4,5.6-24.2,2.4c0,0,0,0,0,0c-38.6-7.9-149.7-28.9-311.4-26
				c-172.8,3.3-401.9,33.6-661.8,133.7c-144.2,55.5-277.1,113.2-400.1,164.6C377.5,580.1,170.1,657.8-13.6,642.1
				c-0.9-0.2-1.7-0.4-2.6-0.5c-1.7-0.2-3.3-0.1-5-0.2c-1.5-0.1-2.9-0.3-4.4-0.4c20.7-3.4,40.6-21.9,59.8-27.7
				c45.3-13.5,86.8-64.8,126.2-88.6c0.2-0.1,0.4-0.4,0.6-0.5c71.2-43.1,135.5-157.4,202.4-214.3c32.2-27.4,65-112.9,99.5-139.2
				c0,0,0,0,0,0c45-34.3,171.2-66.5,224.2-93.4c13.1-6.7,46.6-13,60.4-18.9C794.5,37.9,918.4,21.9,974.9,11.9z"/>
			<path class="st51" d="M980.8,12.6c21.8-3.9,69.9-7.4,91.7-10.5c0,0,0,0,0.1,0c118.3-17.1,370-24.1,474-25.6
				c154.5-2.2,415.1,7.6,474.7,14.6v37.5v3.2v115.4v21.1v34.5c0,0-8.5,5-24.7,1.7c0,0,0,0,0,0c-39.4-8-150.4-28.8-311.3-25.8
				c-172.7,3.3-401.7,33.7-661.4,133.7c-144.2,55.5-277.1,113.2-400.1,164.6C377.6,579.7,170.2,657.4-13.4,641.8
				c-0.9-0.2-1.8-0.4-2.8-0.5c-1.7-0.2-3.3-0.1-5-0.2c-1.5-0.1-2.9-0.3-4.4-0.4c21.1-3.4,41.4-21.1,61.1-27
				c46.2-13.8,88.6-63.4,128.9-87.7c0.2-0.1,0.4-0.4,0.6-0.5c72.6-44,138.3-155.6,206.7-213.7c32.9-27.9,66.4-110.2,101.6-137
				c0,0,0,0,0,0c45.9-35,167.9-67.8,222-95.3c13.4-6.8,45.8-13.3,59.9-19.3C803,39.2,923.2,22.8,980.8,12.6z"/>
			<path class="st52" d="M986.7,13.4c22.3-3.9,69-7.5,91.2-10.7c0,0,0,0,0.1,0c120.7-17.4,365.2-24.5,471.3-26.1
				c157.6-2.3,411.2,7.8,472,14.9V29v3.2v115.3v21.1V203c0,0-8.7,4.5-25.2,1.1c0,0,0,0,0,0c-40.2-8.2-151-28.7-311.2-25.7
				c-172.7,3.4-401.5,33.8-661,133.6c-144.2,55.5-277.1,113.2-400.1,164.6C377.7,579.4,170.4,657-13.1,641.5c-1-0.2-2-0.4-2.9-0.5
				c-1.7-0.2-3.3-0.1-5-0.2c-1.5-0.1-2.9-0.3-4.4-0.4c21.6-3.5,42.3-20.4,62.3-26.4c47.1-14.1,90.4-62,131.5-86.8
				c0.2-0.1,0.4-0.4,0.6-0.5c74.1-44.9,141.1-153.8,210.9-213.1c33.5-28.5,67.7-107.5,103.6-134.9c0,0,0,0,0,0
				c46.9-35.7,164.6-69.2,219.8-97.3c13.6-6.9,45-13.5,59.4-19.7C811.5,40.5,927.9,23.8,986.7,13.4z"/>
			<path class="st53" d="M992.6,14.1c22.7-4,68-7.7,90.7-10.9c0,0,0.1,0,0.1,0c123.2-17.8,360.4-25,468.6-26.6
				c160.8-2.3,407.3,8,469.3,15.2v37.5v3.2v115.3v21.1v34.4c0,0-8.9,3.9-25.7,0.4c0,0,0,0,0,0c-41-8.4-151.7-28.6-311.1-25.6
				c-172.7,3.4-401.3,33.8-660.6,133.6c-144.2,55.5-277.1,113.2-400.1,164.6c-246,102.7-453.3,180.3-636.8,164.9
				c-1-0.2-2.1-0.4-3.1-0.5c-1.7-0.2-3.3-0.1-5-0.2c-1.5-0.1-2.9-0.3-4.4-0.4c22-3.6,43.1-19.6,63.5-25.7
				c48.1-14.4,92.2-60.6,134.1-85.9c0.2-0.1,0.4-0.4,0.7-0.5c75.6-45.8,143.9-152,215.1-212.5c34.2-29.1,69.1-104.8,105.7-132.7
				c0,0,0,0,0,0c47.8-36.4,161.3-70.6,217.7-99.2c13.9-7.1,44.2-13.8,58.9-20.1C820.1,41.8,932.6,24.7,992.6,14.1z"/>
			<path class="st54" d="M998.6,14.9c23.2-4.1,67-7.8,90.1-11.1c0,0,0.1,0,0.1,0c125.6-18.1,355.5-25.5,465.9-27.1
				c163.9-2.4,403.4,8.1,466.6,15.5v37.5v3.2V148v21.1v34.4c0,0-9.1,3.3-26.2-0.2c0,0,0,0,0,0c-41.8-8.5-152.3-28.5-311-25.5
				c-172.6,3.4-401.1,33.9-660.2,133.6C879.7,367,746.8,424.6,623.9,476C377.9,578.7,170.7,656.3-12.7,640.9
				c-1.1-0.2-2.2-0.4-3.3-0.5c-1.7-0.2-3.3-0.2-5-0.2c-1.5-0.1-2.9-0.3-4.4-0.4c22.4-3.6,44-18.9,64.8-25.1
				c49-14.7,94-59.2,136.8-85c0.2-0.1,0.4-0.4,0.7-0.5C254,482.5,323.6,379,396.2,317.3c34.9-29.7,70.4-102,107.8-130.5c0,0,0,0,0,0
				c48.7-37.2,158-72,215.5-101.2c14.2-7.2,43.5-14.1,58.4-20.5C828.6,43.1,937.4,25.7,998.6,14.9z"/>
			<path class="st55" d="M1004.5,15.6c23.6-4.2,66-8,89.6-11.4c0,0,0.1,0,0.1,0c128-18.5,350.7-26,463.2-27.6
				c167.1-2.4,399.5,8.3,463.9,15.8v37.5V33v115.2v21v34.4c0,0-9.2,2.7-26.7-0.9c0,0,0,0,0,0c-42.6-8.7-153-28.4-310.9-25.3
				c-172.6,3.5-400.9,34-659.8,133.6c-144.2,55.5-277.1,113.2-400.1,164.6C378,578.4,170.9,655.9-12.5,640.6
				c-1.1-0.2-2.3-0.4-3.4-0.5c-1.7-0.2-3.3-0.2-5-0.3c-1.5-0.1-2.9-0.3-4.4-0.4c22.8-3.7,44.8-18.1,66-24.5
				c50-15,95.8-57.8,139.4-84c0.2-0.1,0.5-0.4,0.7-0.5c78.6-47.6,149.6-148.4,223.5-211.2c35.6-30.2,71.8-99.3,109.9-128.3
				c0,0,0,0,0,0C563.9,153,669,117.5,727.5,87.7c14.5-7.3,42.7-14.3,57.9-20.9C837.2,44.4,942.1,26.6,1004.5,15.6z"/>
			<path class="st56" d="M1010.4,16.3c24.1-4.3,65-8.1,89.1-11.6c0,0,0.1,0,0.1,0c130.4-18.8,345.9-26.5,460.5-28.2
				c170.2-2.5,395.6,8.4,461.3,16.1v37.5v3.2v115.2v21v34.4c0,0-9.4,2.1-27.3-1.5c0,0,0,0,0,0c-43.4-8.8-153.6-28.3-310.8-25.2
				c-172.5,3.5-400.7,34.1-659.4,133.6C879.7,366.4,746.8,424,623.9,475.4C378.1,578,171.1,655.5-12.2,640.4
				c-1.2-0.2-2.4-0.4-3.6-0.5c-1.7-0.2-3.3-0.2-5-0.3c-1.5-0.1-2.9-0.3-4.4-0.4c23.3-3.8,45.7-17.3,67.3-23.8
				c50.9-15.2,97.7-56.3,142-83.1c0.2-0.1,0.5-0.4,0.7-0.5c80.1-48.5,152.4-146.6,227.7-210.6c36.2-30.8,73.1-96.6,111.9-126.2
				c0,0,0,0,0,0c50.6-38.6,151.5-74.8,211.1-105.1c14.7-7.5,41.9-14.6,57.4-21.3C845.7,45.6,946.9,27.6,1010.4,16.3z"/>
			<path class="st57" d="M1016.3,17.1c24.5-4.3,64-8.3,88.5-11.8c0,0,0.1,0,0.1,0c132.8-19.2,341.1-27,457.8-28.7
				c173.4-2.5,391.7,8.6,458.6,16.4v37.5v3.2v115.1v21v34.4c0,0-9.6,1.6-27.8-2.1c0,0,0,0,0,0c-44.2-9-154.2-28.3-310.7-25.1
				c-172.5,3.6-400.5,34.1-659,133.6c-144.2,55.5-277.1,113.2-400.1,164.6C378.2,577.7,171.3,655.2-12,640.1
				c-1.2-0.2-2.5-0.4-3.7-0.5c-1.7-0.2-3.3-0.2-5-0.3c-1.5-0.1-2.9-0.3-4.4-0.4c23.7-3.8,46.5-16.6,68.5-23.2
				c51.9-15.5,99.5-54.9,144.6-82.2c0.2-0.1,0.5-0.4,0.7-0.5c81.5-49.4,155.2-144.8,232-210c36.9-31.4,74.5-93.9,114-124
				c0,0,0,0,0,0c51.6-39.3,148.2-76.1,208.9-107c15-7.6,41.1-14.9,56.9-21.7C854.3,46.9,951.6,28.5,1016.3,17.1z"/>
			<path class="st58" d="M1022.2,17.8c25-4.4,63.1-8.4,88-12c0,0,0.1,0,0.1,0c135.2-19.5,336.2-27.5,455.1-29.2
				c176.5-2.5,387.8,8.7,455.9,16.6v37.5v3.2V149v21v34.4c0,0-9.8,1-28.3-2.8c0,0,0,0,0,0c-45-9.2-154.9-28.2-310.6-25
				c-172.4,3.6-400.3,34.2-658.5,133.6c-144.2,55.5-277.1,113.2-400.1,164.6c-245.5,102.5-452.4,180-635.6,165
				c-1.3-0.1-2.6-0.3-3.9-0.5c-1.7-0.2-3.3-0.2-5-0.3c-1.5-0.1-2.9-0.3-4.4-0.4c24.1-3.9,47.3-15.8,69.8-22.5
				C97.5,600.2,146,562.5,192,534.7c0.2-0.1,0.5-0.4,0.7-0.5c83-50.2,158.1-143,236.2-209.4c37.6-31.9,75.9-91.1,116.1-121.8
				c0,0,0,0,0,0c52.5-40,144.9-77.5,206.7-109c15.3-7.8,40.3-15.1,56.4-22.1C862.8,48.2,956.3,29.5,1022.2,17.8z"/>
			<path class="st59" d="M1028.1,18.6c25.4-4.5,62.1-8.6,87.4-12.2c0,0,0.1,0,0.1,0c137.6-19.9,331.4-28,452.4-29.7
				c179.7-2.6,383.9,8.9,453.2,16.9V31v3.2v115v21v34.4c0,0-9.9,0.4-28.8-3.4c0,0,0,0,0,0c-45.8-9.3-155.5-28.1-310.5-24.8
				c-172.4,3.6-400.1,34.3-658.1,133.6c-144.2,55.5-277.1,113.2-400.1,164.6C378.4,577,171.6,654.4-11.5,639.5
				c-1.4-0.1-2.7-0.3-4.1-0.5c-1.7-0.2-3.3-0.2-5-0.3c-1.5-0.1-2.9-0.3-4.4-0.4c24.6-4,48.2-15.1,71-21.9
				c53.7-16.1,103.1-52.1,149.9-80.4c0.2-0.1,0.5-0.4,0.7-0.5c84.5-51.1,160.9-141.2,240.4-208.8c38.2-32.5,77.2-88.4,118.2-119.6
				c0,0,0,0,0,0c53.4-40.7,141.6-78.9,204.6-110.9c15.6-7.9,39.5-15.4,55.9-22.5C871.3,49.5,961.1,30.4,1028.1,18.6z"/>
			<path class="st60" d="M1034.1,19.3c25.8-4.6,61.1-8.7,86.9-12.4c0,0,0.1,0,0.1,0c140.1-20.2,326.6-28.5,449.7-30.2
				c182.8-2.6,380,9,450.5,17.2v37.4v3.2v115v21v34.4c0,0-10.1-0.2-29.3-4.1c0,0,0,0,0,0c-46.6-9.5-156.2-28-310.4-24.7
				c-172.3,3.7-399.9,34.4-657.7,133.6c-144.2,55.5-277.1,113.2-400.1,164.6c-245.3,102.4-452.1,179.9-635.2,165
				c-1.4-0.1-2.8-0.3-4.2-0.5c-1.7-0.2-3.3-0.2-5-0.4c-1.5-0.1-2.9-0.3-4.4-0.4c25-4.1,49-14.3,72.3-21.2
				c54.7-16.4,104.9-50.7,152.5-79.5c0.2-0.1,0.5-0.4,0.7-0.5c86-52,163.7-139.4,244.6-208.2c38.9-33.1,78.6-85.7,120.2-117.4
				c0,0,0,0,0,0c54.4-41.4,138.3-80.3,202.4-112.8c15.8-8,38.7-15.7,55.4-22.9C879.9,50.8,965.8,31.4,1034.1,19.3z"/>
			<path class="st61" d="M1040,20c26.3-4.6,60.1-8.9,86.4-12.6c0,0,0.1,0,0.1,0c142.5-20.5,321.8-29,447-30.8
				c186-2.7,376.1,9.2,447.8,17.5v37.4v3.2v115v21v34.3c0,0-10.3-0.8-29.8-4.7c0,0,0,0,0,0c-47.4-9.7-156.8-27.9-310.3-24.6
				c-172.3,3.7-399.7,34.4-657.3,133.6c-144.2,55.5-277.1,113.2-400.1,164.6C378.6,576.3,172,653.7-11.1,639
				c-1.5-0.1-2.9-0.3-4.4-0.4c-1.7-0.2-3.3-0.2-5-0.4c-1.5-0.1-2.9-0.3-4.4-0.4c25.4-4.1,49.9-13.5,73.5-20.6
				c55.6-16.7,106.7-49.3,155.2-78.6c0.3-0.2,0.5-0.3,0.8-0.5C292,485,371.1,400.4,453.4,330.4c39.6-33.7,79.9-83,122.3-115.3
				c0,0,0,0,0,0c55.3-42.2,135-81.7,200.2-114.8c16.1-8.2,37.9-16,54.9-23.3C888.4,52.1,970.6,32.3,1040,20z"/>
			<path class="st62" d="M1045.9,20.8c26.7-4.7,59.1-9,85.8-12.9c0,0,0.1,0,0.1,0c144.9-20.9,317-29.5,444.3-31.3
				c189.1-2.7,372.2,9.4,445.1,17.8v37.4v3.2V150v21v34.3c0,0-10.5-1.3-30.3-5.4c0,0,0,0,0,0c-48.2-9.8-157.4-27.8-310.2-24.5
				c-172.3,3.8-399.5,34.5-656.9,133.6c-144.2,55.5-277.1,113.2-400.1,164.6C378.7,575.9,172.1,653.3-10.8,638.7
				c-1.5-0.1-3-0.3-4.5-0.4c-1.7-0.1-3.3-0.3-5-0.4c-1.5-0.1-2.9-0.3-4.4-0.4c25.9-4.2,50.7-12.8,74.8-20
				c56.6-16.9,108.5-47.9,157.8-77.7c0.3-0.2,0.5-0.3,0.8-0.5c89-53.8,169.3-135.8,253-207c40.3-34.2,81.3-80.2,124.4-113.1
				c0,0,0,0,0,0c56.2-42.9,131.7-83.1,198-116.7c16.4-8.3,37.2-16.2,54.4-23.7C897,53.4,975.3,33.3,1045.9,20.8z"/>
			<path class="st63" d="M1051.8,21.5c27.2-4.8,58.1-9.2,85.3-13.1c0,0,0.1,0,0.1,0c147.3-21.2,312.1-29.9,441.6-31.8
				c192.3-2.8,368.3,9.5,442.5,18.1v37.4v3.2v114.9v21v34.3c0,0-10.6-1.9-30.8-6c0,0,0,0,0,0c-49-10-158.1-27.7-310.1-24.4
				c-172.2,3.8-399.3,34.6-656.5,133.6c-144.2,55.5-277.1,113.2-400.1,164.6C378.8,575.6,172.3,653-10.6,638.4
				c-1.6-0.1-3.1-0.3-4.7-0.4c-1.7-0.1-3.3-0.3-5-0.4c-1.5-0.1-2.9-0.3-4.4-0.4c26.3-4.3,51.6-12,76-19.3
				c57.5-17.2,110.3-46.5,160.4-76.8c0.3-0.2,0.5-0.3,0.8-0.5c90.4-54.7,172.2-134,257.3-206.3c40.9-34.8,82.6-77.5,126.4-110.9
				c0,0,0,0,0,0c57.2-43.6,128.4-84.5,195.8-118.7c16.6-8.5,36.4-16.5,53.9-24.1C905.5,54.6,980,34.2,1051.8,21.5z"/>
			<path class="st64" d="M1057.7,22.3c27.6-4.9,57.2-9.3,84.8-13.3c0,0,0.1,0,0.1,0c149.7-21.6,307.3-30.4,438.9-32.3
				c195.4-2.8,364.4,9.7,439.8,18.4v37.4v3.2v114.8v21v34.3c0,0-10.8-2.5-31.3-6.7c0,0,0,0,0,0c-49.8-10.2-158.7-27.6-310-24.2
				c-172.2,3.9-399.1,34.6-656.1,133.6C879.7,363.9,746.8,421.6,623.9,473C378.9,575.2,172.5,652.6-10.4,638.1
				c-1.6-0.1-3.2-0.3-4.9-0.4c-1.7-0.1-3.3-0.3-5-0.4c-1.5-0.1-2.9-0.3-4.4-0.4c26.7-4.3,52.4-11.2,77.3-18.7
				c58.5-17.5,112.1-45.1,163.1-75.9c0.3-0.2,0.5-0.3,0.8-0.5c91.9-55.6,175-132.2,261.5-205.7c41.6-35.4,84-74.8,128.5-108.7
				c0,0,0,0,0,0c58.1-44.3,125.1-85.8,193.6-120.6c16.9-8.6,35.6-16.8,53.4-24.5C914,55.9,984.8,35.2,1057.7,22.3z"/>
			<path class="st65" d="M2021.3-4.6V206c0,0-423.5-118.7-997.4,102.1c-144.2,55.5-277.1,113.2-400.1,164.6
				C372.6,577.6,161.8,656.3-24.6,636.5c206.9-33.5,353.2-164.7,510.7-298.6S812.2,67.4,1063.6,23
				C1470.1-48.9,1883.6-20.6,2021.3-4.6z"/>
		</g>
		<g>
			<path class="st66" d="M-29.1,596.7V-23.8H809C700.9-3.2,586,37.7,511.3,117.5C364.2,274.9,201.8,513.3-29.1,596.7z"/>
		</g>
		<g>
			<g>
				<path class="st66" d="M-29.1,464.4V220.3V-23.8h206.8h206.8C296.7,2.1,208.1,51.2,188.2,143.9C170.4,227.2,157.9,296,129,349.7
					S54.6,441.9-29.1,464.4z"/>
			</g>
			<path class="st67" d="M384.4-23.8C296.7,2.1,208.1,51.2,188.2,143.9C170.4,227.2,157.9,296,129,349.7s-74.4,92.2-158,114.7v-0.8
				c1.7-0.5,2.6-239.4,3-240.6c0.4-1.1,0.5-241.4,0.7-243c0-0.1,16.1-0.2,16.1-0.3c0.1-1.2,187.1-2,188-2.7
				c0.5-0.3,100.9-0.6,101.4-0.8H384.4z"/>
			<path class="st68" d="M384.4-23.8C296.7,2.1,208.1,51.2,188.2,143.9C170.4,227.2,157.9,296,129,349.7s-74.4,92.2-158,114.7v-0.8
				c3.4-1,5.2-235.6,6.1-237.9c0.9-2.2,1.1-238.6,1.4-241.9c0-0.2,15.7-0.4,15.8-0.6c0.2-2.4,183.8-4.1,185.6-5.3
				c0.9-0.7,99.7-1.2,100.8-1.6H384.4z"/>
			<path class="st69" d="M384.4-23.8C296.7,2.1,208.1,51.2,188.2,143.9C170.4,227.2,157.9,296,129,349.7s-74.4,92.2-158,114.7v-0.8
				c5.1-1.5,7.7-231.8,9.1-235.3c1.3-3.3,1.6-235.9,2.1-240.9c0-0.3,15.4-0.6,15.4-0.8c0.3-3.5,180.5-6.1,183.2-8
				c1.4-1,98.6-1.8,100.2-2.4H384.4z"/>
			<path class="st70" d="M384.4-23.8C296.7,2.1,208.1,51.2,188.2,143.9C170.4,227.2,157.9,296,129,349.7s-74.4,92.2-158,114.7v-0.8
				c6.9-2.1,10.3-228,12.2-232.6c1.8-4.4,2.2-233.2,2.8-239.8C-14.1-9.1,1-9.5,1-9.9c0.4-4.7,177.2-8.2,180.9-10.7
				c1.9-1.3,97.4-2.4,99.6-3.2H384.4z"/>
			<path class="st71" d="M384.4-23.8C296.7,2.1,208.1,51.2,188.2,143.9C170.4,227.2,157.9,296,129,349.7s-74.4,92.2-158,114.7v-0.8
				c8.6-2.6,12.9-224.1,15.2-229.9c2.2-5.5,2.7-230.5,3.5-238.7c0-0.5,14.7-0.9,14.8-1.4c0.5-5.9,174-10.2,178.5-13.4
				c2.4-1.6,96.2-2.9,99-4H384.4z"/>
			<path class="st72" d="M384.4-23.8C296.7,2.1,208.1,51.2,188.2,143.9C170.4,227.2,157.9,296,129,349.7s-74.4,92.2-158,114.7v-0.8
				c10.3-3.1,15.5-220.3,18.3-227.2C-8.1,229.8-7.5,8.6-6.6-1.3c0-0.6,14.4-1.1,14.5-1.7C8.5-10,178.5-15.2,184-19
				c2.8-2,95-3.5,98.4-4.8H384.4z"/>
			<path class="st73" d="M384.4-23.8C296.7,2.1,208.1,51.2,188.2,143.9C170.4,227.2,157.9,296,129,349.7s-74.4,92.2-158,114.7v-0.8
				c12-3.6,18-216.5,21.3-224.6c3.1-7.6,3.8-225,4.8-236.5c0.1-0.6,14.1-1.3,14.1-2C12-7.7,178.7-13.8,185-18.2
				c3.3-2.3,93.9-4.1,97.7-5.6H384.4z"/>
			<path class="st74" d="M384.4-23.8C296.7,2.1,208.1,51.2,188.2,143.9C170.4,227.2,157.9,296,129,349.7s-74.4,92.2-158,114.7v-0.8
				c13.7-4.1,20.6-212.7,24.4-221.9C-1.1,233-0.3,19.5,0.9,6.2C0.9,5.5,14.6,4.8,14.7,4c0.9-9.5,164.2-16.3,171.4-21.4
				c3.8-2.6,92.7-4.7,97.1-6.4H384.4z"/>
			<path class="st75" d="M384.4-23.8C296.7,2.1,208.1,51.2,188.2,143.9C170.4,227.2,157.9,296,129,349.7s-74.4,92.2-158,114.7v-0.8
				C-13.6,459-5.9,254.8-1.6,244.4c4-9.8,4.9-219.5,6.2-234.4C4.7,9.2,18,8.3,18.1,7.5c1-10.6,160.9-18.4,169-24
				c4.2-2.9,91.5-5.3,96.5-7.2H384.4z"/>
			<path class="st76" d="M384.4-23.8C296.7,2.1,208.1,51.2,188.2,143.9C170.4,227.2,157.9,296,129,349.7s-74.4,92.2-158,114.7v-0.8
				c17.1-5.2,25.8-205,30.5-216.6C5.9,236.2,6.9,30.3,8.3,13.8c0.1-0.9,13.1-1.9,13.2-2.8C22.6-0.9,179.1-9.5,188.2-15.8
				c4.7-3.3,90.4-5.9,95.9-8H384.4z"/>
			<path class="st77" d="M384.4-23.8C296.7,2.1,208.1,51.2,188.2,143.9C170.4,227.2,157.9,296,129,349.7s-74.4,92.2-158,114.7v-0.8
				C-10.2,458-0.7,262.4,4.5,249.7c4.9-12,6-214.1,7.6-232.2c0.1-1,12.8-2.1,12.8-3.1C26.1,1.4,179.3-8.1,189.2-15
				c5.2-3.6,89.2-6.5,95.3-8.8H384.4z"/>
			<path class="st78" d="M384.4-23.8C296.7,2.1,208.1,51.2,188.2,143.9C170.4,227.2,157.9,296,129,349.7s-74.4,92.2-158,114.7v-0.8
				c20.6-6.2,30.9-197.4,36.6-211.2c5.4-13.1,6.6-211.4,8.3-231.2c0.1-1.1,12.4-2.2,12.5-3.4c1.3-14.2,151.1-24.5,161.9-32
				c5.6-3.9,88-7.1,94.7-9.6H384.4z"/>
			<path class="st79" d="M384.4-23.8C296.7,2.1,208.1,51.2,188.2,143.9C170.4,227.2,157.9,296,129,349.7s-74.4,92.2-158,114.7v-0.8
				c22.3-6.7,33.5-193.6,39.6-208.5c5.8-14.2,7.1-208.6,9-230.1c0.1-1.2,12.1-2.4,12.2-3.7C33.1,6,179.5-5.2,191.3-13.4
				c6.1-4.2,86.9-7.6,94-10.4H384.4z"/>
			<path class="st80" d="M384.4-23.8C296.7,2.1,208.1,51.2,188.2,143.9C170.4,227.2,157.9,296,129,349.7s-74.4,92.2-158,114.7v-0.8
				c24-7.2,36.1-189.7,42.7-205.9c6.3-15.3,7.7-205.9,9.7-229c0.1-1.3,11.8-2.6,11.9-3.9C36.7,8.3,179.7-3.8,192.4-12.6
				c6.6-4.6,85.7-8.2,93.4-11.2H384.4z"/>
			<path class="st81" d="M384.4-23.8C296.7,2.1,208.1,51.2,188.2,143.9C170.4,227.2,157.9,296,129,349.7s-74.4,92.2-158,114.7v-0.8
				c25.7-7.7,38.6-185.9,45.7-203.2C23.4,244.1,24.9,57.3,27,32.5c0.1-1.4,11.4-2.8,11.5-4.2c1.6-17.7,141.2-30.7,154.8-40.1
				c7.1-4.9,84.5-8.8,92.8-12H384.4z"/>
			<path class="st82" d="M384.4-23.8C296.7,2.1,208.1,51.2,188.2,143.9C170.4,227.2,157.9,296,129,349.7s-74.4,92.2-158,114.7v-0.8
				c27.4-8.2,41.2-182.1,48.8-200.5c7.2-17.5,8.8-200.4,11.1-226.8c0.1-1.5,11.1-3,11.2-4.5C43.7,12.8,180-0.9,194.4-11
				c7.5-5.2,83.4-9.4,92.2-12.8H384.4z"/>
			<path class="st83" d="M384.4-23.8C296.7,2.1,208.1,51.2,188.2,143.9C170.4,227.2,157.9,296,129,349.7s-74.4,92.2-158,114.7v-0.8
				c29.1-8.8,43.8-178.3,51.8-197.9C30.4,247.2,32.1,68.1,34.5,40c0.1-1.6,10.8-3.2,10.9-4.8c1.8-20.1,134.7-34.7,150.1-45.4
				c8-5.5,82.2-10,91.6-13.6H384.4z"/>
			<path class="st84" d="M384.4-23.8C296.7,2.1,208.1,51.2,188.2,143.9C170.4,227.2,157.9,296,129,349.7s-74.4,92.2-158,114.7v-0.8
				c30.9-9.3,46.4-174.4,54.9-195.2c8.1-19.6,9.8-195,12.4-224.7c0.1-1.7,10.4-3.4,10.6-5.1C50.8,17.4,180.3,1.9,196.5-9.4
				c8.5-5.9,81-10.6,91-14.4H384.4z"/>
			<path class="st85" d="M384.4-23.8C296.7,2.1,208.1,51.2,188.2,143.9C170.4,227.2,157.9,296,129,349.7s-74.4,92.2-158,114.7v-0.8
				c32.6-9.8,49-170.6,57.9-192.5C37.4,250.4,39.3,78.9,42,47.5c0.2-1.8,10.1-3.5,10.2-5.3c2-22.5,128.1-38.8,145.3-50.7
				c8.9-6.2,79.9-11.2,90.3-15.2H384.4z"/>
			<path class="st86" d="M384.4-23.8C296.7,2.1,208.1,51.2,188.2,143.9C170.4,227.2,157.9,296,129,349.7s-74.4,92.2-158,114.7v-0.8
				c34.3-10.3,51.5-166.8,61-189.9c9-21.8,10.9-189.5,13.8-222.5c0.2-1.9,9.8-3.7,9.9-5.6C57.8,22,180.5,4.8,198.6-7.8
				c9.4-6.5,78.7-11.8,89.7-16H384.4z"/>
			<path class="st87" d="M384.4-23.8C296.7,2.1,208.1,51.2,188.2,143.9C170.4,227.2,157.9,296,129,349.7s-74.4,92.2-158,114.7v-0.8
				c36-10.8,54.1-163,64-187.2C44.4,253.6,46.5,89.7,49.5,55c0.2-1.9,9.4-3.9,9.6-5.9C61.3,24.3,180.7,6.2,199.7-7
				c9.9-6.8,77.5-12.3,89.1-16.8H384.4z"/>
			<path class="st88" d="M384.4-23.8C296.7,2.1,208.1,51.2,188.2,143.9C170.4,227.2,157.9,296,129,349.7s-74.4,92.2-158,114.7v-0.8
				C8.7,452.3,27.6,304.5,38,279.1c9.9-24,12-184.1,15.2-220.4c0.2-2,9.1-4.1,9.3-6.2c2.3-26,118.3-45,138.2-58.8
				c10.3-7.2,76.4-12.9,88.5-17.6H384.4z"/>
			<path class="st89" d="M384.4-23.8C296.7,2.1,208.1,51.2,188.2,143.9C170.4,227.2,157.9,296,129,349.7s-74.4,92.2-158,114.7v-0.8
				c39.4-11.8,59.3-155.3,70.1-181.8C51.4,256.7,53.7,100.5,57,62.5c0.2-2.1,8.8-4.3,9-6.5C68.4,28.9,181,9,201.8-5.4
				c10.8-7.5,75.2-13.5,87.9-18.4H384.4z"/>
			<path class="st89" d="M384.4-23.8C296.7,2.1,208.1,51.2,188.2,143.9C170.4,227.2,157.9,296,129,349.7s-74.4,92.2-158,114.7v-0.8
				c41.1-12.4,61.8-151.5,73.2-179.2c10.7-26.2,13.1-178.6,16.6-218.2c0.2-2.2,8.4-4.5,8.6-6.7c2.6-28.4,111.8-49,133.5-64.1
				c11.3-7.8,74-14.1,87.3-19.2H384.4z"/>
			<path class="st90" d="M384.4-23.8C296.7,2.1,208.1,51.2,188.2,143.9C170.4,227.2,157.9,296,129,349.7s-74.4,92.2-158,114.7v-0.8
				C13.8,450.8,35.3,316,47.2,287.2C58.4,259.9,60.8,111.3,64.4,70c0.2-2.3,8.1-4.7,8.3-7c2.7-29.6,108.5-51.1,131.1-66.8
				c11.8-8.1,72.9-14.7,86.6-20H384.4z"/>
			<path class="st91" d="M384.4-23.8C296.7,2.1,208.1,51.2,188.2,143.9C170.4,227.2,157.9,296,129,349.7s-74.4,92.2-158,114.7v-0.8
				c44.6-13.4,67-143.9,79.3-173.8c11.6-28.4,14.2-173.2,18-216.1c0.2-2.4,7.8-4.8,8-7.3C78.9,35.7,181.4,13.3,204.9-3
				c12.2-8.5,71.7-15.3,86-20.8H384.4z"/>
			<path class="st92" d="M384.4-23.8C296.7,2.1,208.1,51.2,188.2,143.9C170.4,227.2,157.9,296,129,349.7s-74.4,92.2-158,114.7v-0.8
				c46.3-13.9,69.6-140,82.3-171.2C65.4,263,68,122.1,71.9,77.5c0.2-2.5,7.4-5,7.7-7.6C82.5,38,181.5,14.8,206-2.2
				c12.7-8.8,70.5-15.9,85.4-21.6H384.4z"/>
			<path class="st93" d="M384.4-23.8C296.7,2.1,208.1,51.2,188.2,143.9C170.4,227.2,157.9,296,129,349.7s-74.4,92.2-158,114.7v-0.8
				c48-14.4,72.1-136.2,85.4-168.5c12.5-30.6,15.3-167.7,19.3-213.9c0.2-2.6,7.1-5.2,7.3-7.9c3-33.1,98.7-57.2,124-74.8
				c13.2-9.1,69.4-16.5,84.8-22.4H384.4z"/>
			<path class="st94" d="M384.4-23.8C296.7,2.1,208.1,51.2,188.2,143.9C170.4,227.2,157.9,296,129,349.7s-74.4,92.2-158,114.7v-0.8
				c49.7-14.9,74.7-132.4,88.4-165.8c13-31.6,15.9-165,20-212.8c0.2-2.7,6.8-5.4,7-8.1c3.1-34.3,95.4-59.3,121.7-77.4
				c13.6-9.4,68.2-17.1,84.2-23.2H384.4z"/>
			<path class="st95" d="M384.4-23.8C296.7,2.1,208.1,51.2,188.2,143.9C170.4,227.2,157.9,296,129,349.7s-74.4,92.2-158,114.7v-0.7
				c51.4-15.5,77.3-128.6,91.5-163.1c13.4-32.7,16.4-162.2,20.7-211.8c0.2-2.8,6.4-5.6,6.7-8.4C93,44.9,182,19,209.1,0.2
				c14.1-9.8,67-17.6,83.6-24H384.4z"/>
			<path class="st96" d="M384.4-23.8C296.7,2.1,208.1,51.2,188.2,143.9C170.4,227.2,157.9,296,129,349.7s-74.4,92.2-158,114.7v-0.7
				c53.2-16,79.9-124.7,94.5-160.5c13.9-33.8,17-159.5,21.4-210.7c0.3-2.9,6.1-5.8,6.4-8.7C96.5,47.2,182.1,20.5,210.2,1
				c14.6-10.1,65.9-18.2,82.9-24.8H384.4z"/>
			<path class="st97" d="M384.4-23.8C296.7,2.1,208.1,51.2,188.2,143.9C170.4,227.2,157.9,296,129,349.7s-74.4,92.2-158,114.7v-0.7
				c54.9-16.5,82.4-120.9,97.6-157.8C82.8,271,86,149.1,90.6,96.3c0.3-3,5.8-6,6-9c3.4-37.8,85.6-65.4,114.6-85.5
				c15-10.4,64.7-18.8,82.3-25.6H384.4z"/>
			<path class="st98" d="M384.4-23.8C296.7,2.1,208.1,51.2,188.2,143.9C170.4,227.2,157.9,296,129,349.7s-74.4,92.2-158,114.7v-0.7
				c56.6-17,85-117.1,100.6-155.1c14.8-36,18-154.1,22.8-208.5c0.3-3.1,5.4-6.2,5.7-9.3c3.5-39,82.3-67.4,112.2-88.1
				c15.5-10.7,63.5-19.4,81.7-26.4H384.4z"/>
			<path class="st99" d="M384.4-23.8C296.7,2.1,208.1,51.2,188.2,143.9C170.4,227.2,157.9,296,129,349.7s-74.4,92.2-158,114.7v-0.7
				c58.3-17.5,87.6-113.3,103.7-152.5c15.2-37.1,18.6-151.3,23.5-207.4c0.3-3.2,5.1-6.3,5.4-9.6c3.6-40.2,79-69.5,109.8-90.8
				c16-11.1,62.4-20,81.1-27.2H384.4z"/>
			<path class="st100" d="M384.4-23.8C296.7,2.1,208.1,51.2,188.2,143.9C170.4,227.2,157.9,296,129,349.7s-74.4,92.2-158,114.7v-0.7
				c60-18,90.2-109.5,106.7-149.8c15.7-38.2,19.1-148.6,24.2-206.4c0.3-3.2,4.8-6.5,5.1-9.8c3.7-41.4,75.8-71.5,107.4-93.5
				c16.5-11.4,61.2-20.6,80.5-28H384.4z"/>
			<path class="st101" d="M384.4-23.8C296.7,2.1,208.1,51.2,188.2,143.9C170.4,227.2,157.9,296,129,349.7s-74.4,92.2-158,114.7v-0.7
				c61.7-18.5,92.8-105.6,109.8-147.1c16.1-39.3,19.7-145.9,24.9-205.3c0.3-3.3,4.4-6.7,4.7-10.1c3.8-42.6,72.5-73.6,105.1-96.1
				c16.9-11.7,60-21.2,79.9-28.8H384.4z"/>
			<path class="st102" d="M384.4-23.8C296.7,2.1,208.1,51.2,188.2,143.9C170.4,227.2,157.9,296,129,349.7s-74.4,92.2-158,114.7v-0.7
				c63.4-19.1,95.3-101.8,112.8-144.5c16.6-40.4,20.2-143.1,25.6-204.2c0.3-3.4,4.1-6.9,4.4-10.4C117.7,60.9,183,29,216.4,5.8
				c17.4-12,58.9-21.8,79.2-29.6H384.4z"/>
			<path class="st103" d="M384.4-23.8C296.7,2.1,208.1,51.2,188.2,143.9C170.4,227.2,157.9,296,129,349.7s-74.4,92.2-158,114.7v-0.7
				c65.2-19.6,97.9-98,115.9-141.8c17-41.5,20.8-140.4,26.3-203.1c0.3-3.5,3.8-7.1,4.1-10.7c4-44.9,65.9-77.7,100.3-101.5
				c17.9-12.4,57.7-22.3,78.6-30.4H384.4z"/>
			<path class="st104" d="M384.4-23.8C296.7,2.1,208.1,51.2,188.2,143.9C170.4,227.2,157.9,296,129,349.7s-74.4,92.2-158,114.7v-0.7
				c66.9-20.1,100.5-94.2,118.9-139.1c17.5-42.6,21.3-137.7,26.9-202.1c0.3-3.6,3.4-7.3,3.8-11c4.2-46.1,62.7-79.7,98-104.2
				c18.3-12.7,56.5-22.9,78-31.2H384.4z"/>
			<path class="st105" d="M384.4-23.8C296.7,2.1,208.1,51.2,188.2,143.9C170.4,227.2,157.9,296,129,349.7s-74.4,92.2-158,114.7v-0.7
				c68.6-20.6,103.1-90.3,122-136.4c17.9-43.7,21.9-135,27.6-201c0.3-3.7,3.1-7.5,3.4-11.2c4.3-47.3,59.4-81.7,95.6-106.8
				c18.8-13,55.3-23.5,77.4-32H384.4z"/>
			<path class="st106" d="M384.4-23.8C296.7,2.1,208.1,51.2,188.2,143.9C170.4,227.2,157.9,296,129,349.7s-74.4,92.2-158,114.7v-0.7
				c70.3-21.1,105.6-86.5,125-133.8c18.4-44.7,22.4-132.2,28.3-199.9c0.3-3.8,2.8-7.6,3.1-11.5C131.8,70,183.5,34.7,220.6,9
				c19.3-13.3,54.2-24.1,76.8-32.8H384.4z"/>
			<path class="st107" d="M384.4-23.8C296.7,2.1,208.1,51.2,188.2,143.9C170.4,227.2,157.9,296,129,349.7s-74.4,92.2-158,114.7v-0.7
				C42.9,442.1,79.1,381,99,332.6c18.8-45.8,23-129.5,29-198.8c0.3-3.9,2.4-7.8,2.8-11.8c4.5-49.7,52.8-85.8,90.9-112.2
				c19.7-13.7,53-24.7,76.2-33.6H384.4z"/>
			<path class="st108" d="M384.4-23.8C296.7,2.1,208.1,51.2,188.2,143.9C170.4,227.2,157.9,296,129,349.7s-74.4,92.2-158,114.7v-0.7
				c73.7-22.2,110.8-78.9,131.1-128.4c19.3-46.9,23.5-126.8,29.7-197.7c0.3-4,2.1-8,2.5-12.1c4.6-50.9,49.6-87.9,88.5-114.8
				c20.2-14,51.8-25.3,75.6-34.4H384.4z"/>
			<path class="st109" d="M384.4-23.8C296.7,2.1,208.1,51.2,188.2,143.9C170.4,227.2,157.9,296,129,349.7s-74.4,92.2-158,114.7v-0.7
				C46.4,441,84.3,388.7,105.1,338c19.7-48,24.1-124,30.4-196.7c0.4-4.1,1.8-8.2,2.1-12.4c4.7-52,46.3-89.9,86.1-117.5
				c20.7-14.3,50.7-25.9,74.9-35.2H384.4z"/>
			<path class="st110" d="M384.4-23.8C296.7,2.1,208.1,51.2,188.2,143.9C170.4,227.2,157.9,296,129,349.7s-74.4,92.2-158,114.7v-0.7
				c77.2-23.2,115.9-71.2,137.2-123.1c20.1-49.1,24.6-121.3,31.1-195.6c0.4-4.2,1.4-8.4,1.8-12.6c4.8-53.2,43-92,83.8-120.2
				c21.2-14.7,49.5-26.5,74.3-36H384.4z"/>
			<path class="st111" d="M384.4-23.8C296.7,2.1,208.1,51.2,188.2,143.9C170.4,227.2,157.9,296,129,349.7s-74.4,92.2-158,114.7v-0.7
				C49.8,440,89.5,396.3,111.2,343.3c20.6-50.2,25.2-118.6,31.8-194.5c0.4-4.3,1.1-8.6,1.5-12.9c4.9-54.4,39.8-94,81.4-122.8
				c21.6-15,48.3-27,73.7-36.8H384.4z"/>
			<g>
				<path class="st65" d="M147.9,139.3c-7.5,83.5-11.4,152.5-33.6,206.6S51.5,439.5-29.1,463.7v0.7c83.7-22.5,129.1-61,158-114.7
					s41.4-122.5,59.2-205.8C208.1,51.2,296.7,2.1,384.4-23.8H300C224.2,5.3,155.5,54.9,147.9,139.3z"/>
			</g>
		</g>
		<g>
			<g>
				<path class="st3" d="M623.8,492.9c182.7-115.6,344.7-256,567.3-334.5c342.8-121,721.6-31.3,830.2-0.7v68.5
					c0,0-423.6-118.8-997.4,102C879.7,383.9,746.8,441.5,623.8,492.9z"/>
			</g>
			<path class="st112" d="M623.8,492.9c182.5-115.7,344.3-256.1,566.8-334.6c342.2-120.9,721.6-31.8,830.7-0.9v67.8
				c-1.6-0.5-424.5-118.8-994.9,100.5C881,381.7,747.7,440.6,623.8,492.9z"/>
			<path class="st113" d="M623.8,492.9c182.3-115.7,343.9-256.1,566.3-334.7c341.5-120.8,721.5-32.3,831.2-1v67.1
				c-3.2-0.9-425.5-118.8-992.4,99C882.4,379.5,748.6,439.6,623.8,492.9z"/>
			<path class="st114" d="M623.8,492.9C806,377.2,967.3,236.7,1189.6,158.1c340.9-120.7,721.5-32.8,831.7-1.2v66.4
				c-4.9-1.4-426.4-118.9-989.9,97.5C883.7,377.3,749.5,438.6,623.8,492.9z"/>
			<path class="st115" d="M623.8,492.9c182-115.8,343.1-256.3,565.3-335c340.3-120.6,721.5-33.3,832.2-1.4v65.7
				c-6.5-1.8-427.4-118.9-987.4,96C885,375.1,750.4,437.7,623.8,492.9z"/>
			<path class="st116" d="M623.8,492.9c181.8-115.9,342.7-256.4,564.8-335.1c339.6-120.5,721.5-33.8,832.7-1.6v65
				c-8.1-2.3-428.3-118.9-984.9,94.5C886.3,372.9,751.3,436.7,623.8,492.9z"/>
			<path class="st117" d="M623.8,492.9C805.5,377,966.2,236.5,1188.1,157.7c339-120.4,721.4-34.3,833.2-1.8v64.3
				c-9.7-2.7-429.3-118.9-982.4,93C887.7,370.7,752.2,435.8,623.8,492.9z"/>
			<path class="st118" d="M623.8,492.9c181.5-115.9,342-256.5,563.8-335.4c338.4-120.3,721.4-34.7,833.7-2v63.6
				c-11.4-3.2-430.2-119-979.9,91.5C889,368.5,753.1,434.8,623.8,492.9z"/>
			<path class="st119" d="M623.8,492.9c181.3-116,341.6-256.6,563.3-335.5c337.7-120.2,721.4-35.2,834.2-2.2v62.9
				c-13-3.7-431.2-119-977.4,89.9C890.3,366.3,754,433.9,623.8,492.9z"/>
			<path class="st120" d="M623.8,492.9C805,376.9,965,236.2,1186.6,157.3c337.1-120.1,721.4-35.7,834.7-2.4v62.2
				c-14.6-4.1-432.1-119-974.9,88.4C891.6,364.1,754.9,432.9,623.8,492.9z"/>
			<path class="st121" d="M623.8,492.9c181-116.1,340.8-256.8,562.3-335.8c336.4-120,721.4-36.2,835.2-2.6V216
				c-16.2-4.6-433.1-119-972.4,86.9C893,361.9,755.7,431.9,623.8,492.9z"/>
			<path class="st122" d="M623.8,492.9C804.6,376.8,964.3,236.1,1185.6,157c335.8-119.9,721.3-36.7,835.7-2.7V215
				c-17.8-5-434-119-969.9,85.4C894.3,359.7,756.6,431,623.8,492.9z"/>
			<path class="st123" d="M623.8,492.9C804.4,376.8,963.9,236,1185.1,156.9c335.2-119.8,721.3-37.2,836.2-2.9V214
				c-19.5-5.5-435-119.1-967.4,83.9C895.6,357.6,757.5,430,623.8,492.9z"/>
			<path class="st124" d="M623.8,492.9c180.5-116.2,339.7-257,560.8-336.2c334.5-119.8,721.3-37.7,836.7-3.1V213
				c-21.1-5.9-435.9-119.1-964.9,82.4C896.9,355.4,758.4,429.1,623.8,492.9z"/>
			<path class="st125" d="M623.8,492.9c180.3-116.2,339.3-257.1,560.3-336.3c333.9-119.7,721.3-38.2,837.2-3.3v58.7
				c-22.7-6.4-436.5-118-962.5,80.9C898.4,353.5,759.3,428.1,623.8,492.9z"/>
			<path class="st126" d="M623.8,492.9c180.1-116.3,338.9-257.2,559.8-336.4c333.3-119.6,721.3-38.7,837.7-3.5v58
				c-24.3-6.9-437.4-118-960,79.4C899.7,351.3,760.2,427.1,623.8,492.9z"/>
			<path class="st127" d="M623.8,492.9c179.9-116.3,338.5-257.2,559.3-336.6c332.6-119.5,721.2-39.2,838.2-3.7v57.3
				c-25.9-7.3-438.4-118-957.5,77.8C901.1,349.2,761.1,426.2,623.8,492.9z"/>
			<path class="st128" d="M623.8,492.9C803.6,376.6,962,235.6,1182.6,156.2c332-119.4,721.2-39.7,838.7-3.9v56.6
				c-27.6-7.8-439.3-117.9-955,76.3C902.4,347,762,425.2,623.8,492.9z"/>
			<path class="st129" d="M623.8,492.9c179.6-116.4,337.8-257.4,558.3-336.8c331.4-119.3,721.2-40.2,839.2-4.1v55.9
				c-29.2-8.2-440.2-117.9-952.5,74.8C903.7,344.8,762.9,424.3,623.8,492.9z"/>
			<path class="st130" d="M623.8,492.9c179.4-116.4,337.4-257.5,557.8-337c330.7-119.2,721.2-40.7,839.7-4.3v55.1
				c-30.8-8.7-441.2-117.9-950,73.3C905,342.6,763.8,423.3,623.8,492.9z"/>
			<path class="st131" d="M623.8,492.9c179.2-116.5,337-257.6,557.3-337.1c330.1-119.1,721.2-41.2,840.3-4.4v54.4
				c-32.4-9.1-442.1-117.9-947.5,71.8C906.4,340.5,764.6,422.3,623.8,492.9z"/>
			<path class="st132" d="M623.8,492.9c179.1-116.5,336.6-257.6,556.8-337.2c329.5-119,721.1-41.7,840.8-4.6v53.7
				c-34.1-9.6-443.1-117.9-945,70.3C907.7,338.3,765.5,421.4,623.8,492.9z"/>
			<path class="st133" d="M623.8,492.9c178.9-116.6,336.3-257.7,556.3-337.4c328.8-118.9,721.1-42.2,841.3-4.8v53
				c-35.7-10-444-117.9-942.5,68.8C909,336.1,766.4,420.4,623.8,492.9z"/>
			<path class="st134" d="M623.8,492.9c178.7-116.6,335.9-257.8,555.8-337.5c328.2-118.8,721.1-42.7,841.8-5v52.3
				c-37.3-10.5-444.9-117.9-940,67.2C910.4,333.9,767.3,419.5,623.8,492.9z"/>
			<path class="st135" d="M623.8,492.9C802.4,376.3,959.3,235,1179.1,155.3c327.5-118.7,721.1-43.2,842.3-5.2v51.6
				c-38.9-11-445.9-117.9-937.5,65.7C911.7,331.7,768.2,418.5,623.8,492.9z"/>
			<path class="st136" d="M623.8,492.9c178.4-116.7,335.1-258,554.8-337.8c326.9-118.6,721.1-43.7,842.8-5.4v50.9
				c-40.5-11.4-446.8-117.9-935,64.2C913,329.6,769.1,417.6,623.8,492.9z"/>
			<path class="st137" d="M623.8,492.9C802,376.2,958.5,234.9,1178.1,155c326.3-118.5,721-44.2,843.3-5.6v50.2
				c-42.2-11.9-447.8-117.9-932.5,62.7C914.4,327.4,770,416.6,623.8,492.9z"/>
			<path class="st138" d="M623.8,492.9c178-116.8,334.3-258.1,553.8-338c325.6-118.5,721-44.7,843.8-5.8v49.5
				c-43.8-12.3-448.7-117.9-930,61.2C915.7,325.2,770.9,415.6,623.8,492.9z"/>
			<path class="st139" d="M623.8,492.9c177.9-116.8,334-258.2,553.3-338.2c325-118.4,721-45.2,844.3-6v48.8
				c-45.4-12.8-449.7-117.9-927.5,59.7C917,323,771.8,414.7,623.8,492.9z"/>
			<path class="st140" d="M623.8,492.9c177.7-116.9,333.6-258.3,552.8-338.3c324.4-118.3,721-45.7,844.8-6.1v48.1
				c-47-13.2-450.6-117.9-925,58.2C918.3,320.8,772.7,413.7,623.8,492.9z"/>
			<path class="st141" d="M623.8,492.9C801.3,376,957,234.6,1176.1,154.5c323.7-118.2,721-46.2,845.3-6.3v47.4
				c-48.7-13.7-451.6-118-922.5,56.7C919.7,318.7,773.6,412.8,623.8,492.9z"/>
			<path class="st142" d="M623.8,492.9c177.3-117,332.8-258.4,551.8-338.6c323.1-118.1,720.9-46.7,845.8-6.5v46.7
				c-50.3-14.2-452.5-118-920,55.1C921,316.5,774.4,411.8,623.8,492.9z"/>
			<path class="st143" d="M623.8,492.9c177.2-117,332.4-258.5,551.3-338.7c322.5-118,720.9-47.2,846.3-6.7v46
				c-51.9-14.6-453.5-118-917.5,53.6C922.3,314.3,775.3,410.8,623.8,492.9z"/>
			<path class="st144" d="M623.8,492.9c177-117,332.1-258.6,550.7-338.8c321.8-117.9,720.9-47.6,846.8-6.9v45.3
				c-53.5-15.1-454.5-118-915.1,52.1C923.7,312.1,776.2,409.9,623.8,492.9z"/>
			<path class="st144" d="M623.8,492.9C800.6,375.8,955.5,234.3,1174.1,154c321.2-117.8,720.9-48.1,847.3-7.1v44.6
				c-55.1-15.5-455.4-118.1-912.6,50.6C925,309.9,777.1,408.9,623.8,492.9z"/>
			<path class="st145" d="M623.8,492.9c176.7-117.1,331.3-258.7,549.7-339.1c320.5-117.7,720.9-48.6,847.8-7.3v43.9
				c-56.8-16-456.4-118.1-910.1,49.1C926.3,307.7,778,408,623.8,492.9z"/>
			<path class="st146" d="M623.8,492.9c176.5-117.2,330.9-258.8,549.2-339.2c319.9-117.6,720.8-49.1,848.3-7.5v43.2
				C1962.9,173,1564,71.3,1113.8,237C927.6,305.5,778.9,407,623.8,492.9z"/>
			<path class="st147" d="M623.8,492.9C800.1,375.7,954.3,234,1172.6,153.6c319.3-117.5,720.8-49.6,848.8-7.7v42.5
				c-60-16.9-458.3-118.2-905.1,46.1C929,303.3,779.8,406,623.8,492.9z"/>
			<path class="st148" d="M623.8,492.9C800,375.7,954,233.9,1172.1,153.4c318.6-117.4,720.8-50.1,849.3-7.8v41.8
				c-61.6-17.4-459.2-118.2-902.6,44.6C930.3,301.2,780.7,405.1,623.8,492.9z"/>
			<path class="st149" d="M623.8,492.9c176-117.3,329.8-259.1,547.7-339.6c318-117.3,720.8-50.6,849.8-8v41.1
				c-63.2-17.8-460.2-118.2-900.1,43C931.6,299,781.6,404.1,623.8,492.9z"/>
			<path class="st150" d="M623.8,492.9c175.8-117.3,329.4-259.1,547.2-339.7c317.4-117.3,720.8-51.1,850.3-8.2v40.4
				c-64.9-18.3-461.2-118.3-897.6,41.5C932.9,296.8,782.5,403.2,623.8,492.9z"/>
			<path class="st151" d="M623.8,492.9c175.6-117.4,329-259.2,546.7-339.9c316.7-117.2,720.7-51.6,850.8-8.4v39.7
				c-66.5-18.7-462.1-118.3-895.1,40C934.3,294.6,783.3,402.2,623.8,492.9z"/>
			<path class="st152" d="M623.8,492.9c175.5-117.4,328.6-259.3,546.2-340c316.1-117.1,720.7-52.1,851.3-8.6v39
				c-68.1-19.2-463.1-118.4-892.6,38.5C935.6,292.4,784.2,401.3,623.8,492.9z"/>
			<path class="st153" d="M623.8,492.9C799.1,375.5,952,233.5,1169.5,152.8c315.5-117,720.7-52.6,851.8-8.8v38.3
				c-69.7-19.6-464.1-118.4-890.1,37C936.9,290.2,785.1,400.3,623.8,492.9z"/>
			<path class="st154" d="M623.8,492.9C798.9,375.4,951.7,233.5,1169,152.7c314.8-116.9,720.7-53.1,852.3-9v37.6
				c-71.4-20.1-465-118.5-887.6,35.5C938.2,288,786,399.3,623.8,492.9z"/>
			<path class="st155" d="M623.8,492.9c174.9-117.5,327.5-259.5,544.7-340.4c314.2-116.8,720.7-53.6,852.8-9.2v36.9
				c-73-20.6-466-118.5-885.1,34C939.5,285.8,786.9,398.4,623.8,492.9z"/>
			<path class="st156" d="M623.8,492.9C798.6,375.3,950.9,233.3,1168,152.4c313.5-116.7,720.6-54.1,853.3-9.4v36.2
				c-74.6-21-467-118.6-882.6,32.4C940.9,283.6,787.8,397.4,623.8,492.9z"/>
			<path class="st157" d="M623.8,492.9c174.6-117.6,326.7-259.7,543.7-340.7c312.9-116.6,720.6-54.6,853.8-9.5v35.5
				c-76.2-21.5-467.9-118.7-880.1,30.9C942.2,281.4,788.7,396.5,623.8,492.9z"/>
			<path class="st158" d="M623.8,492.9C798.2,375.3,950.1,233.1,1167,152.1c312.3-116.5,720.6-55.1,854.3-9.7v34.8
				c-77.8-21.9-468.9-118.7-877.6,29.4C943.5,279.2,789.6,395.5,623.8,492.9z"/>
			<path class="st159" d="M623.8,492.9C798.1,375.2,949.8,233.1,1166.5,152c311.6-116.4,720.6-55.6,854.8-9.9v34.1
				c-79.5-22.4-469.9-118.8-875.1,27.9C944.8,277,790.5,394.5,623.8,492.9z"/>
			<path class="st160" d="M623.8,492.9C797.9,375.2,949.4,233,1166,151.9c311-116.3,720.6-56.1,855.3-10.1v33.4
				c-81.1-22.8-470.8-118.8-872.6,26.4C946.1,274.8,791.4,393.6,623.8,492.9z"/>
			<path class="st161" d="M623.8,492.9c173.9-117.8,325.2-260,541.7-341.2c310.4-116.2,720.5-56.6,855.8-10.3v32.7
				c-82.7-23.3-471.8-118.9-870.1,24.9C947.5,272.6,792.3,392.6,623.8,492.9z"/>
			<path class="st162" d="M623.8,492.9C797.5,375.1,948.6,232.8,1165,151.6c309.7-116.1,720.5-57.1,856.3-10.5v32
				c-84.3-23.8-472.8-119-867.7,23.4C948.8,270.3,793.1,391.7,623.8,492.9z"/>
			<path class="st163" d="M623.8,492.9C797.4,375,948.2,232.8,1164.5,151.5c309.1-116.1,720.5-57.6,856.8-10.7v31.3
				c-86-24.2-473.7-119.1-865.2,21.9C950.1,268.1,794,390.7,623.8,492.9z"/>
			<path class="st164" d="M623.8,492.9C797.2,375,947.8,232.7,1164,151.3c308.5-116,720.5-58.1,857.3-10.9v30.6
				c-87.6-24.7-474.7-119.1-862.7,20.3C951.4,265.9,794.9,389.7,623.8,492.9z"/>
			<path class="st165" d="M623.8,492.9C797,375,947.5,232.6,1163.5,151.2c307.8-115.9,720.5-58.6,857.8-11.1V170
				c-89.2-25.1-475.7-119.2-860.2,18.8C952.7,263.7,795.8,388.8,623.8,492.9z"/>
			<path class="st166" d="M623.8,492.9c173-118,323.3-260.4,539.2-341.8c307.2-115.8,720.4-59.1,858.3-11.2V169
				c-90.8-25.6-476.9-120-857.7,17.3C953.9,261.1,796.7,387.8,623.8,492.9z"/>
			<path class="st167" d="M623.8,492.9c172.9-118,322.9-260.5,538.7-342c306.5-115.7,720.4-59.6,858.8-11.4V168
				c-92.4-26-477.9-120.1-855.2,15.8C955.2,258.9,797.6,386.9,623.8,492.9z"/>
			<path class="st168" d="M623.8,492.9C796.5,374.8,946.3,232.4,1162,150.8c305.9-115.6,720.4-60,859.3-11.6V167
				c-94.1-26.5-478.8-120.1-852.7,14.3C956.5,256.7,798.5,385.9,623.8,492.9z"/>
			<path class="st169" d="M623.8,492.9c172.5-118.1,322.1-260.6,537.7-342.2c305.3-115.5,720.4-60.5,859.8-11.8V166
				c-95.7-26.9-479.8-120.1-850.2,12.8C957.9,254.5,799.4,385,623.8,492.9z"/>
			<path class="st170" d="M623.8,492.9C796.2,374.8,945.5,232.2,1161,150.6c304.6-115.4,720.4-61,860.3-12v26.4
				c-97.3-27.4-480.7-120.1-847.7,11.3C959.2,252.3,800.3,384,623.8,492.9z"/>
			<path class="st171" d="M623.8,492.9C796,374.7,945.2,232.1,1160.5,150.4c304-115.3,720.3-61.5,860.8-12.2v25.7
				c-98.9-27.9-481.7-120.1-845.2,9.8C960.5,250.1,801.2,383,623.8,492.9z"/>
			<path class="st172" d="M623.8,492.9c172-118.3,321-260.9,536.2-342.6c303.4-115.2,720.3-62,861.3-12.4v25
				c-100.5-28.3-482.7-120.2-842.7,8.2C961.8,247.9,802.1,382.1,623.8,492.9z"/>
			<path class="st173" d="M623.8,492.9c171.8-118.3,320.6-261,535.7-342.8c302.7-115.1,720.3-62.5,861.8-12.6v24.3
				c-102.2-28.8-483.6-120.2-840.2,6.7C963.2,245.7,802.9,381.1,623.8,492.9z"/>
			<path class="st174" d="M623.8,492.9C795.5,374.6,944,231.9,1159,150c302.1-115,720.3-63,862.3-12.8v23.6
				c-103.8-29.2-484.6-120.2-837.7,5.2C964.5,243.5,803.8,380.2,623.8,492.9z"/>
			<path class="st175" d="M623.8,492.9c171.5-118.4,319.8-261.1,534.7-343C1460,35,1878.8,86.4,2021.3,137v22.9
				c-105.4-29.7-485.5-120.2-835.2,3.7C965.8,241.3,804.7,379.2,623.8,492.9z"/>
			<path class="st176" d="M623.8,492.9C795.1,374.5,943.3,231.7,1158,149.8c300.8-114.9,720.2-64,863.3-13.1v22.2
				c-107-30.1-486.5-120.3-832.7,2.2C967.1,239.1,805.6,378.2,623.8,492.9z"/>
			<g>
				<path class="st66" d="M623.8,492.9C795,374.5,942.9,231.6,1157.5,149.6c300.2-114.8,720.2-64.5,863.8-13.3v21.5
					c-108.7-30.6-487.4-120.3-830.2,0.7C968.5,236.9,806.5,377.3,623.8,492.9z"/>
			</g>
		</g>
	</g>
</g>
</svg>
