<?xml version="1.0" encoding="utf-8"?>
<!-- Generator: Adobe Illustrator 26.5.0, SVG Export Plug-In . SVG Version: 6.00 Build 0)  -->
<svg version="1.1" id="Layer_1" xmlns="http://www.w3.org/2000/svg" xmlns:xlink="http://www.w3.org/1999/xlink" x="0px" y="0px"
	 viewBox="0 0 500 500" style="enable-background:new 0 0 500 500;" xml:space="preserve">
<style type="text/css">
	.st0{fill:#FFFFFF;}
	.st1{fill:url(#SVGID_1_);}
	.st2{fill:url(#SVGID_00000025428031388806588600000000624092821539849107_);}
	.st3{fill:url(#SVGID_00000021805139397829743280000016899470159200131746_);}
</style>
<g>
	<path class="st0" d="M191,73.6l167,357.9H319l-56-117.8H108.6L53,431.5H13L181.8,73.6C181.8,73.6,191,73.6,191,73.6z M186.4,149.9
		L125,279.4h122.4L186.4,149.9z"/>
	<polygon class="st0" points="214.2,74 245.5,74 352.2,294.7 448.2,74 479.1,74 354.9,359.9 348.8,359.9 	"/>
	<polygon class="st0" points="422.3,74.4 354.1,231 350.7,231 271.4,74.4 	"/>
</g>
<g>
	<path d="M196.3,75.9l167,357.9h-38.9l-56-117.8H113.9L58.3,433.8h-40L187.1,75.9C187.1,75.9,196.3,75.9,196.3,75.9z M191.7,152.1
		l-61.4,129.6h122.4L191.7,152.1z"/>
	<polygon points="219.5,76.3 250.8,76.3 357.5,297 453.6,76.3 484.4,76.3 360.2,362.1 354.1,362.1 	"/>
	<polygon points="427.6,76.7 359.4,233.3 356,233.3 276.7,76.7 	"/>
</g>
<g>
	
		<linearGradient id="SVGID_1_" gradientUnits="userSpaceOnUse" x1="452.7151" y1="1069.4518" x2="12.6321" y2="1437.4185" gradientTransform="matrix(1 0 0 1 0 -966)">
		<stop  offset="0" style="stop-color:#CCDDE7"/>
		<stop  offset="0.1015" style="stop-color:#C8DAE4"/>
		<stop  offset="0.1961" style="stop-color:#BCD0DB"/>
		<stop  offset="0.288" style="stop-color:#A8BFCC"/>
		<stop  offset="0.3783" style="stop-color:#8DA8B6"/>
		<stop  offset="0.4674" style="stop-color:#6D8C9B"/>
		<stop  offset="0.5544" style="stop-color:#4B6C7C"/>
		<stop  offset="0.5815" style="stop-color:#3F6171"/>
		<stop  offset="0.6732" style="stop-color:#416373"/>
		<stop  offset="0.7157" style="stop-color:#476978"/>
		<stop  offset="0.748" style="stop-color:#517282"/>
		<stop  offset="0.7753" style="stop-color:#5F8090"/>
		<stop  offset="0.7992" style="stop-color:#7492A2"/>
		<stop  offset="0.821" style="stop-color:#8FABB9"/>
		<stop  offset="0.8405" style="stop-color:#B1C8D4"/>
		<stop  offset="0.8469" style="stop-color:#BED3DE"/>
		<stop  offset="0.8624" style="stop-color:#B6CCD8"/>
		<stop  offset="0.8865" style="stop-color:#A0B9C7"/>
		<stop  offset="0.9161" style="stop-color:#7E9BAA"/>
		<stop  offset="0.9502" style="stop-color:#547484"/>
		<stop  offset="0.9875" style="stop-color:#214250"/>
		<stop  offset="1" style="stop-color:#0C2934"/>
	</linearGradient>
	<path class="st1" d="M193.7,75.1l167,357.9h-38.9l-56-117.8H111.4L55.8,433h-40L184.6,75.1C184.6,75.1,193.7,75.1,193.7,75.1z
		 M189.2,151.3l-61.4,129.6h122.4L189.2,151.3z"/>
	
		<linearGradient id="SVGID_00000018955656792726382460000006149633849793246123_" gradientUnits="userSpaceOnUse" x1="216.988" y1="1184.3807" x2="481.8978" y2="1184.3807" gradientTransform="matrix(1 0 0 1 0 -966)">
		<stop  offset="0" style="stop-color:#E6E7E8"/>
		<stop  offset="1" style="stop-color:#5A5B5D"/>
	</linearGradient>
	<polygon style="fill:url(#SVGID_00000018955656792726382460000006149633849793246123_);" points="217,75.4 248.2,75.4 355,296.1 
		451,75.4 481.9,75.4 357.6,361.3 351.5,361.3 	"/>
	
		<linearGradient id="SVGID_00000055700808208136063510000009318889821183675793_" gradientUnits="userSpaceOnUse" x1="268.8139" y1="1156.776" x2="700.3708" y2="818.3923" gradientTransform="matrix(1 0 0 1 0 -966)">
		<stop  offset="0" style="stop-color:#CCDDE7"/>
		<stop  offset="1.296551e-02" style="stop-color:#C3D6E0"/>
		<stop  offset="0.1739" style="stop-color:#637D8B"/>
		<stop  offset="0.2852" style="stop-color:#2F4854"/>
		<stop  offset="0.337" style="stop-color:#172B34"/>
		<stop  offset="0.3527" style="stop-color:#213A46"/>
		<stop  offset="0.4934" style="stop-color:#708B99"/>
		<stop  offset="0.5912" style="stop-color:#A7BFCB"/>
		<stop  offset="0.6372" style="stop-color:#BED3DE"/>
		<stop  offset="0.6739" style="stop-color:#B6CCD8"/>
		<stop  offset="0.7309" style="stop-color:#A0B9C7"/>
		<stop  offset="0.8012" style="stop-color:#7E9BAA"/>
		<stop  offset="0.8819" style="stop-color:#547484"/>
		<stop  offset="0.9704" style="stop-color:#214250"/>
		<stop  offset="1" style="stop-color:#0C2934"/>
	</linearGradient>
	<polygon style="fill:url(#SVGID_00000055700808208136063510000009318889821183675793_);" points="425.1,75.8 356.9,232.5 
		353.4,232.5 274.2,75.8 	"/>
</g>
</svg>
