<?xml version="1.0" encoding="utf-8"?>
<!-- Generator: Adobe Illustrator 26.5.0, SVG Export Plug-In . SVG Version: 6.00 Build 0)  -->
<svg version="1.1" id="Layer_1" xmlns="http://www.w3.org/2000/svg" xmlns:xlink="http://www.w3.org/1999/xlink" x="0px" y="0px"
	 viewBox="0 0 311.8 112" style="enable-background:new 0 0 311.8 112;" xml:space="preserve">
<style type="text/css">
	.st0{fill:#FFFFFF;}
	.st1{fill:#D2D2D2;}
	.st2{fill:url(#SVGID_1_);}
	.st3{fill:url(#SVGID_00000013193677406539072100000016634037359064252854_);}
	.st4{fill:url(#SVGID_00000042736080693647621380000002789194369488910997_);}
</style>
<g>
	<g>
		<path class="st0" d="M114.6,72.5l5.7,12.3H119l-1.9-4.1h-5.3l-1.9,4.1h-1.4l5.8-12.3H114.6z M114.4,75.1l-2.1,4.5h4.2L114.4,75.1z
			"/>
		<path class="st0" d="M126.6,76.7l-0.8,0.8c-0.6-0.6-1.2-0.9-1.8-0.9c-0.4,0-0.7,0.1-1,0.4s-0.4,0.5-0.4,0.9c0,0.3,0.1,0.6,0.3,0.8
			c0.2,0.3,0.7,0.6,1.4,1c0.9,0.5,1.5,0.9,1.8,1.3s0.5,0.9,0.5,1.4c0,0.7-0.3,1.4-0.8,1.9s-1.2,0.8-2,0.8c-0.5,0-1-0.1-1.5-0.3
			c-0.5-0.2-0.9-0.5-1.2-0.9l0.7-0.8c0.6,0.7,1.2,1,1.9,1c0.5,0,0.9-0.2,1.2-0.5c0.3-0.3,0.5-0.7,0.5-1.1c0-0.3-0.1-0.6-0.3-0.9
			c-0.2-0.3-0.7-0.6-1.5-1s-1.4-0.8-1.7-1.3c-0.3-0.4-0.4-0.9-0.4-1.4c0-0.7,0.2-1.3,0.7-1.7c0.5-0.5,1.1-0.7,1.8-0.7
			C124.9,75.4,125.8,75.8,126.6,76.7z"/>
		<path class="st0" d="M136.4,81.8l1,0.5c-0.3,0.6-0.7,1.2-1.1,1.5c-0.4,0.4-0.9,0.7-1.4,0.9c-0.5,0.2-1.1,0.3-1.8,0.3
			c-1.5,0-2.7-0.5-3.5-1.5s-1.3-2.1-1.3-3.3c0-1.2,0.4-2.2,1.1-3.1c0.9-1.2,2.1-1.7,3.6-1.7c1.6,0,2.8,0.6,3.7,1.8
			c0.7,0.8,1,1.9,1,3.1h-8.2c0,1.1,0.4,1.9,1,2.6c0.7,0.7,1.5,1,2.4,1c0.5,0,0.9-0.1,1.4-0.2c0.4-0.2,0.8-0.4,1.1-0.6
			C135.7,82.8,136,82.4,136.4,81.8z M136.4,79.3c-0.2-0.6-0.4-1.1-0.7-1.5s-0.7-0.7-1.2-0.9c-0.5-0.2-1-0.3-1.6-0.3
			c-0.9,0-1.7,0.3-2.3,0.9c-0.5,0.4-0.8,1-1.1,1.9L136.4,79.3L136.4,79.3z"/>
		<path class="st0" d="M144.5,76.7l-0.8,0.8c-0.6-0.6-1.2-0.9-1.8-0.9c-0.4,0-0.7,0.1-1,0.4s-0.4,0.5-0.4,0.9c0,0.3,0.1,0.6,0.3,0.8
			c0.2,0.3,0.7,0.6,1.4,1c0.9,0.5,1.5,0.9,1.8,1.3s0.5,0.9,0.5,1.4c0,0.7-0.3,1.4-0.8,1.9s-1.2,0.8-2,0.8c-0.5,0-1-0.1-1.5-0.3
			c-0.5-0.2-0.9-0.5-1.2-0.9l0.7-1c0.6,0.7,1.2,1,1.9,1c0.5,0,0.9-0.2,1.2-0.5s0.5-0.7,0.5-1.1c0-0.3-0.1-0.6-0.3-0.9
			s-0.7-0.6-1.5-1s-1.4-0.8-1.7-1.3c-0.3-0.4-0.4-0.9-0.4-1.4c0-0.7,0.2-1.3,0.7-1.7c0.5-0.5,1.1-0.7,1.8-0.7
			C142.8,75.4,143.6,75.8,144.5,76.7z"/>
		<path class="st0" d="M150.9,75.4c1.4,0,2.6,0.5,3.5,1.5c0.8,0.9,1.3,2,1.3,3.3s-0.4,2.4-1.3,3.3c-0.9,1-2,1.4-3.4,1.4
			s-2.5-0.5-3.4-1.4c-0.9-1-1.3-2.1-1.3-3.3c0-1.3,0.4-2.4,1.3-3.3C148.3,75.9,149.4,75.4,150.9,75.4z M150.8,76.6
			c-1,0-1.8,0.4-2.5,1.1s-1.1,1.6-1.1,2.6c0,0.7,0.2,1.3,0.5,1.8c0.3,0.6,0.8,1,1.3,1.3s1.1,0.5,1.8,0.5s1.2-0.2,1.8-0.5
			c0.5-0.3,1-0.8,1.3-1.3c0.3-0.6,0.5-1.2,0.5-1.8c0-1-0.4-1.9-1.1-2.6C152.7,76.9,151.8,76.6,150.8,76.6z"/>
		<path class="st0" d="M157.3,75.7h1.2V77c0.4-0.5,0.7-0.9,1.1-1.2c0.4-0.3,0.8-0.4,1.2-0.4c0.3,0,0.7,0.1,1,0.3l-0.6,1
			c-0.2-0.1-0.5-0.2-0.6-0.2c-0.4,0-0.8,0.2-1.1,0.5c-0.4,0.3-0.6,0.8-0.8,1.5c-0.1,0.5-0.2,1.6-0.2,3.2v3.1h-1.2L157.3,75.7
			L157.3,75.7z"/>
		<path class="st0" d="M170.6,81.8l1,0.5c-0.3,0.6-0.7,1.2-1.1,1.5c-0.4,0.4-0.9,0.7-1.4,0.9c-0.5,0.2-1.1,0.3-1.8,0.3
			c-1.5,0-2.7-0.5-3.5-1.5s-1.3-2.1-1.3-3.3c0-1.2,0.4-2.2,1.1-3.1c0.9-1.2,2.1-1.7,3.6-1.7c1.6,0,2.8,0.6,3.7,1.8
			c0.7,0.8,1,1.9,1,3.1h-8.2c0,1.1,0.4,1.9,1,2.6c0.7,0.7,1.5,1,2.4,1c0.5,0,0.9-0.1,1.4-0.2c0.4-0.2,0.8-0.4,1.1-0.6
			C169.9,82.8,170.2,82.4,170.6,81.8z M170.6,79.3c-0.2-0.6-0.4-1.1-0.7-1.5s-0.7-0.7-1.2-0.9c-0.5-0.2-1-0.3-1.6-0.3
			c-0.9,0-1.7,0.3-2.3,0.9c-0.5,0.4-0.8,1-1.1,1.9L170.6,79.3L170.6,79.3z"/>
		<path class="st0" d="M178.6,76.7l-0.8,0.8c-0.6-0.6-1.2-0.9-1.8-0.9c-0.4,0-0.7,0.1-1,0.4s-0.4,0.5-0.4,0.9c0,0.3,0.1,0.6,0.3,0.8
			c0.2,0.3,0.7,0.6,1.4,1c0.9,0.5,1.5,0.9,1.8,1.3s0.5,0.9,0.5,1.4c0,0.7-0.3,1.4-0.8,1.9s-1.2,0.8-2,0.8c-0.5,0-1-0.1-1.5-0.3
			c-0.5-0.2-0.9-0.5-1.2-0.9l0.7-0.8c0.6,0.7,1.2,1,1.9,1c0.5,0,0.9-0.2,1.2-0.5s0.5-0.7,0.5-1.1c0-0.3-0.1-0.6-0.3-0.9
			s-0.7-0.6-1.5-1s-1.4-0.8-1.7-1.3c-0.3-0.4-0.4-0.9-0.4-1.4c0-0.7,0.2-1.3,0.7-1.7c0.5-0.5,1.1-0.7,1.8-0.7
			C176.9,75.4,177.8,75.8,178.6,76.7z"/>
		<path class="st0" d="M189.7,72.5h1.2v8.3c0,1.3-0.1,2.2-0.3,2.7s-0.5,0.9-1,1.2c-0.5,0.3-1,0.4-1.7,0.4c-0.5,0-1-0.1-1.5-0.3
			c-0.5-0.2-1-0.5-1.6-1l0.7-1c0.6,0.5,1.2,0.8,1.6,1c0.3,0.1,0.6,0.2,0.8,0.2c0.4,0,0.7-0.1,1-0.3c0.3-0.2,0.5-0.5,0.6-0.8
			c0.1-0.4,0.2-1,0.2-2V72.5z"/>
		<path class="st0" d="M193.6,75.7h1.2v4.2c0,1,0.1,1.8,0.2,2.1c0.2,0.6,0.5,1,1,1.3s1,0.5,1.7,0.5s1.2-0.2,1.7-0.5s0.8-0.7,0.9-1.2
			c0.1-0.4,0.2-1.1,0.2-2.2v-4.3h1.2v4.5c0,1.3-0.1,2.2-0.4,2.8c-0.3,0.6-0.7,1.1-1.3,1.5s-1.3,0.5-2.2,0.5s-1.6-0.2-2.2-0.5
			c-0.6-0.4-1-0.9-1.3-1.5s-0.4-1.6-0.4-2.9v-4.3C193.9,75.7,193.6,75.7,193.6,75.7z"/>
		<path class="st0" d="M203.7,75.7h1.2V77c0.4-0.5,0.7-0.9,1.1-1.2c0.4-0.3,0.8-0.4,1.2-0.4c0.3,0,0.7,0.1,1,0.3l-0.6,1
			c-0.2-0.1-0.5-0.2-0.6-0.2c-0.4,0-0.8,0.2-1.1,0.5c-0.4,0.3-0.6,0.8-0.8,1.5c-0.1,0.5-0.2,1.6-0.2,3.2v3.1h-1.2V75.7z"/>
		<path class="st0" d="M210.3,71.4h1.8l-2.5,2.6h-1.2L210.3,71.4z M209.1,75.7h1.2v9.1h-1.2V75.7z"/>
		<path class="st0" d="M221.9,72.2v12.6h-1.2v-1.6c-0.5,0.6-1,1-1.7,1.3c-0.6,0.3-1.3,0.5-2,0.5c-1.3,0-2.4-0.5-3.3-1.4
			c-0.9-0.9-1.4-2.1-1.4-3.4s0.5-2.4,1.4-3.4c0.9-0.9,2-1.4,3.3-1.4c0.8,0,1.4,0.2,2,0.5s1.1,0.8,1.6,1.4v-5.2L221.9,72.2
			L221.9,72.2z M217.2,76.6c-0.7,0-1.3,0.2-1.8,0.5c-0.6,0.3-1,0.8-1.3,1.4s-0.5,1.2-0.5,1.8c0,0.6,0.2,1.3,0.5,1.8
			c0.3,0.6,0.8,1,1.3,1.4c0.6,0.3,1.2,0.5,1.8,0.5s1.2-0.2,1.8-0.5s1-0.8,1.3-1.3c0.3-0.6,0.5-1.2,0.5-1.9c0-1.1-0.3-1.9-1-2.6
			C219,76.9,218.2,76.6,217.2,76.6z"/>
		<path class="st0" d="M224.9,71.9c0.3,0,0.5,0.1,0.7,0.3c0.2,0.2,0.3,0.4,0.3,0.7c0,0.3-0.1,0.5-0.3,0.7s-0.4,0.3-0.7,0.3
			s-0.5-0.1-0.7-0.3c-0.2-0.2-0.3-0.4-0.3-0.7c0-0.3,0.1-0.5,0.3-0.7C224.4,72,224.7,71.9,224.9,71.9z M224.3,75.7h1.2v9.1h-1.2
			V75.7z"/>
		<path class="st0" d="M236.8,77.6l-0.9,0.6c-0.8-1.1-1.9-1.6-3.3-1.6c-1.1,0-2,0.4-2.8,1.1c-0.7,0.7-1.1,1.6-1.1,2.6
			c0,0.7,0.2,1.3,0.5,1.9s0.8,1,1.4,1.4c0.6,0.3,1.3,0.5,2,0.5c1.3,0,2.4-0.5,3.3-1.6l0.9,0.6c-0.4,0.7-1,1.2-1.8,1.5
			c-0.7,0.4-1.6,0.5-2.5,0.5c-1.4,0-2.6-0.5-3.6-1.4c-0.9-0.9-1.4-2-1.4-3.3c0-0.9,0.2-1.7,0.7-2.5c0.4-0.8,1.1-1.3,1.8-1.8
			c0.8-0.4,1.6-0.6,2.6-0.6c0.6,0,1.2,0.1,1.7,0.3c0.6,0.2,1,0.4,1.4,0.7C236.2,76.7,236.5,77.1,236.8,77.6z"/>
		<path class="st0" d="M243.4,75.4c1.4,0,2.6,0.5,3.5,1.5c0.8,0.9,1.3,2,1.3,3.3s-0.4,2.4-1.3,3.3c-0.9,1-2,1.4-3.4,1.4
			s-2.5-0.5-3.4-1.4c-0.9-1-1.3-2.1-1.3-3.3c0-1.3,0.4-2.4,1.3-3.3C240.8,75.9,242,75.4,243.4,75.4z M243.4,76.6
			c-1,0-1.8,0.4-2.5,1.1s-1.1,1.6-1.1,2.6c0,0.7,0.2,1.3,0.5,1.8c0.3,0.6,0.8,1,1.3,1.3s1.1,0.5,1.8,0.5s1.2-0.2,1.8-0.5
			c0.5-0.3,1-0.8,1.3-1.3c0.3-0.6,0.5-1.2,0.5-1.8c0-1-0.4-1.9-1.1-2.6C245.2,76.9,244.3,76.6,243.4,76.6z"/>
		<path class="st0" d="M254.9,76.7l-0.8,0.8c-0.6-0.6-1.2-0.9-1.8-0.9c-0.4,0-0.7,0.1-1,0.4s-0.4,0.5-0.4,0.9c0,0.3,0.1,0.6,0.3,0.8
			c0.2,0.3,0.7,0.6,1.4,1c0.9,0.5,1.5,0.9,1.8,1.3s0.5,0.9,0.5,1.4c0,0.7-0.3,1.4-0.8,1.9s-1.2,0.8-2,0.8c-0.5,0-1-0.1-1.5-0.3
			c-0.5-0.2-0.9-0.5-1.2-0.9l0.7-0.8c0.6,0.7,1.2,1,1.9,1c0.5,0,0.9-0.2,1.2-0.5s0.5-0.7,0.5-1.1c0-0.3-0.1-0.6-0.3-0.9
			s-0.7-0.6-1.5-1s-1.4-0.8-1.7-1.3c-0.3-0.4-0.4-0.9-0.4-1.4c0-0.7,0.2-1.3,0.7-1.7c0.5-0.5,1.1-0.7,1.8-0.7
			C253.2,75.4,254,75.8,254.9,76.7z"/>
	</g>
	<g>
		<path class="st0" d="M112.3,91.4l6.4,13.8h-1.5l-2.2-4.5h-5.9l-2.1,4.5h-1.5l6.5-13.8H112.3z M112.1,94.3l-2.4,5h4.7L112.1,94.3z"
			/>
		<path class="st0" d="M119.7,95h1.3v1.5c0.4-0.6,0.8-1,1.3-1.3c0.4-0.3,0.9-0.4,1.4-0.4c0.4,0,0.7,0.1,1.2,0.3l-0.7,1.1
			c-0.3-0.1-0.5-0.2-0.7-0.2c-0.4,0-0.9,0.2-1.3,0.5c-0.4,0.4-0.7,0.9-0.9,1.7c-0.2,0.6-0.2,1.8-0.2,3.5v3.4h-1.4V95z"/>
		<path class="st0" d="M125.9,90.8c0.3,0,0.6,0.1,0.8,0.3c0.2,0.2,0.3,0.5,0.3,0.8s-0.1,0.5-0.3,0.8c-0.2,0.2-0.5,0.3-0.8,0.3
			s-0.5-0.1-0.8-0.3c-0.2-0.2-0.3-0.5-0.3-0.8s0.1-0.6,0.3-0.8C125.4,90.9,125.6,90.8,125.9,90.8z M125.3,95h1.3v10.2h-1.3V95z"/>
		<path class="st0" d="M139,95v10.2h-1.3v-1.7c-0.5,0.7-1.2,1.2-1.8,1.5c-0.7,0.3-1.4,0.5-2.2,0.5c-1.4,0-2.7-0.5-3.7-1.6
			c-1-1-1.5-2.3-1.5-3.8s0.5-2.7,1.5-3.8c1-1,2.3-1.6,3.7-1.6c0.8,0,1.6,0.2,2.3,0.5c0.7,0.4,1.3,0.9,1.8,1.6v-1.9L139,95L139,95z
			 M133.7,96c-0.7,0-1.4,0.2-2,0.5s-1.1,0.9-1.5,1.5s-0.5,1.3-0.5,2.1c0,0.7,0.2,1.4,0.5,2.1c0.4,0.7,0.9,1.2,1.5,1.5
			c0.6,0.4,1.3,0.5,2,0.5s1.4-0.2,2-0.5c0.6-0.4,1.1-0.8,1.5-1.5c0.3-0.6,0.5-1.3,0.5-2.1c0-1.2-0.4-2.2-1.2-3
			C135.8,96.4,134.9,96,133.7,96z"/>
		<path class="st0" d="M146.5,96.1l-0.8,0.9c-0.7-0.7-1.4-1-2.1-1c-0.4,0-0.8,0.1-1.1,0.4s-0.5,0.6-0.5,1c0,0.3,0.1,0.6,0.4,0.9
			c0.3,0.3,0.8,0.7,1.6,1.1c1,0.5,1.6,1,2,1.5c0.3,0.5,0.5,1,0.5,1.6c0,0.8-0.3,1.5-0.9,2.1c-0.6,0.6-1.3,0.9-2.2,0.9
			c-0.6,0-1.1-0.1-1.7-0.4c-0.5-0.3-1-0.6-1.3-1.1l0.8-0.9c0.7,0.8,1.4,1.1,2.1,1.1c0.5,0,1-0.2,1.3-0.5c0.4-0.3,0.6-0.7,0.6-1.2
			c0-0.4-0.1-0.7-0.4-1c-0.2-0.3-0.8-0.6-1.7-1.1s-1.5-0.9-1.9-1.4c-0.3-0.5-0.5-1-0.5-1.6c0-0.8,0.3-1.4,0.8-1.9s1.2-0.8,2-0.8
			C144.6,94.7,145.6,95.2,146.5,96.1z"/>
		<path class="st0" d="M152.4,91.4h1.5l4.6,10.6l4.6-10.6h1.5l-6,13.8h-0.3L152.4,91.4z"/>
		<path class="st0" d="M174.4,95v10.2h-1.3v-1.7c-0.5,0.7-1.2,1.2-1.8,1.5c-0.7,0.3-1.4,0.5-2.2,0.5c-1.4,0-2.7-0.5-3.7-1.6
			c-1-1-1.5-2.3-1.5-3.8s0.5-2.7,1.5-3.8c1-1,2.3-1.6,3.7-1.6c0.8,0,1.6,0.2,2.3,0.5c0.7,0.4,1.3,0.9,1.8,1.6v-1.9L174.4,95
			L174.4,95z M169.1,96c-0.7,0-1.4,0.2-2,0.5c-0.6,0.4-1.1,0.9-1.5,1.5s-0.5,1.3-0.5,2.1c0,0.7,0.2,1.4,0.6,2.1
			c0.4,0.7,0.9,1.2,1.5,1.5c0.6,0.4,1.3,0.5,2,0.5s1.4-0.2,2-0.5c0.6-0.4,1.1-0.8,1.5-1.5c0.3-0.6,0.5-1.3,0.5-2.1
			c0-1.2-0.4-2.2-1.2-3C171.2,96.4,170.3,96,169.1,96z"/>
		<path class="st0" d="M176.6,91.1h1.3v14.1h-1.3V91.1z"/>
		<path class="st0" d="M179.2,95h1.4l3.4,7.4l3.4-7.4h1.4l-4.7,10.2h-0.2L179.2,95z"/>
		<path class="st0" d="M198.9,101.8l1.1,0.6c-0.4,0.7-0.8,1.3-1.3,1.7c-0.5,0.4-1,0.8-1.6,1s-1.3,0.3-2,0.3c-1.7,0-3-0.5-3.9-1.6
			s-1.4-2.3-1.4-3.7c0-1.3,0.4-2.4,1.2-3.5c1-1.3,2.3-1.9,4-1.9s3.1,0.7,4.2,2c0.7,0.9,1.1,2.1,1.1,3.5h-9.2c0,1.2,0.4,2.2,1.1,2.9
			c0.7,0.8,1.6,1.1,2.7,1.1c0.5,0,1-0.1,1.5-0.3c0.5-0.2,0.9-0.4,1.2-0.7C198.1,102.9,198.5,102.5,198.9,101.8z M198.9,99
			c-0.2-0.7-0.4-1.3-0.8-1.7c-0.3-0.4-0.8-0.8-1.3-1c-0.5-0.3-1.1-0.4-1.7-0.4c-1,0-1.9,0.3-2.6,1c-0.5,0.5-0.9,1.2-1.2,2.1H198.9z"
			/>
		<path class="st0" d="M201.8,95h1.3v1.5c0.4-0.6,0.8-1,1.3-1.3c0.4-0.3,0.9-0.4,1.4-0.4c0.4,0,0.7,0.1,1.2,0.3l-0.7,1.1
			c-0.3-0.1-0.5-0.2-0.7-0.2c-0.4,0-0.9,0.2-1.3,0.5c-0.4,0.4-0.7,0.9-0.9,1.7c-0.2,0.6-0.2,1.8-0.2,3.5v3.4h-1.3V95H201.8z"/>
		<path class="st0" d="M217.7,91.1v14.1h-1.3v-1.7c-0.5,0.7-1.2,1.2-1.8,1.5c-0.7,0.3-1.4,0.5-2.2,0.5c-1.4,0-2.7-0.5-3.7-1.6
			c-1-1-1.5-2.3-1.5-3.8s0.5-2.7,1.5-3.8c1-1,2.3-1.6,3.7-1.6c0.8,0,1.6,0.2,2.3,0.5c0.7,0.4,1.3,0.9,1.8,1.6V91h1.2V91.1z
			 M212.4,96c-0.7,0-1.4,0.2-2,0.5c-0.6,0.4-1.1,0.9-1.5,1.5s-0.5,1.3-0.5,2.1c0,0.7,0.2,1.4,0.6,2.1c0.4,0.7,0.9,1.2,1.5,1.5
			c0.6,0.4,1.3,0.5,2,0.5s1.4-0.2,2-0.5c0.6-0.4,1.1-0.8,1.5-1.5c0.3-0.6,0.5-1.3,0.5-2.1c0-1.2-0.4-2.2-1.2-3
			C214.5,96.4,213.6,96,212.4,96z"/>
		<path class="st0" d="M228.7,101.8l1.1,0.6c-0.4,0.7-0.8,1.3-1.3,1.7c-0.5,0.4-1,0.8-1.6,1s-1.3,0.3-2,0.3c-1.7,0-3-0.5-3.9-1.6
			s-1.4-2.3-1.4-3.7c0-1.3,0.4-2.4,1.2-3.5c1-1.3,2.3-1.9,4-1.9s3.1,0.7,4.2,2c0.7,0.9,1.1,2.1,1.1,3.5h-9.2c0,1.2,0.4,2.2,1.1,2.9
			c0.7,0.8,1.6,1.1,2.7,1.1c0.5,0,1-0.1,1.5-0.3c0.5-0.2,0.9-0.4,1.3-0.7C227.9,102.9,228.3,102.5,228.7,101.8z M228.7,99
			c-0.2-0.7-0.4-1.3-0.8-1.7c-0.3-0.4-0.8-0.8-1.3-1c-0.5-0.3-1.1-0.4-1.7-0.4c-1,0-1.9,0.3-2.6,1c-0.5,0.5-0.9,1.2-1.2,2.1H228.7z"
			/>
		<path class="st0" d="M247.6,100.1l0.9,1c-0.6,0.5-1.2,1-1.7,1.4c0.4,0.3,0.9,0.8,1.5,1.4c0.5,0.5,0.9,0.9,1.2,1.3h-1.9l-1.8-1.9
			c-1.1,0.9-2.1,1.5-2.8,1.8s-1.5,0.4-2.3,0.4c-1.1,0-1.9-0.3-2.6-0.9c-0.6-0.6-1-1.4-1-2.3c0-0.7,0.2-1.4,0.6-2.1
			c0.4-0.7,1.3-1.6,2.7-2.6c-0.8-0.9-1.2-1.6-1.5-2c-0.2-0.4-0.3-0.8-0.3-1.2c0-0.7,0.3-1.3,0.8-1.7c0.6-0.5,1.4-0.8,2.3-0.8
			c0.6,0,1.1,0.1,1.6,0.3c0.5,0.2,0.8,0.5,1.1,0.9s0.4,0.8,0.4,1.2c0,0.5-0.2,1-0.5,1.5s-1,1.2-1.9,2l2.1,2.2l1.4,1.4
			C246.6,100.9,247.2,100.5,247.6,100.1z M241.4,98.7c-1.2,0.9-1.9,1.6-2.3,2.1c-0.4,0.5-0.5,1-0.5,1.4c0,0.5,0.2,1,0.7,1.4
			c0.4,0.4,1,0.6,1.6,0.6c0.5,0,1-0.1,1.4-0.3c0.7-0.3,1.6-0.9,2.5-1.6l-2.2-2.2C242.3,99.7,241.9,99.2,241.4,98.7z M241.6,96.9
			c0.7-0.5,1.2-1,1.5-1.5c0.2-0.4,0.4-0.7,0.4-0.9c0-0.3-0.2-0.6-0.5-0.8c-0.3-0.2-0.7-0.3-1.2-0.3s-0.9,0.1-1.2,0.4
			c-0.3,0.2-0.5,0.5-0.5,0.8s0.1,0.5,0.2,0.7C240.6,95.7,241,96.2,241.6,96.9z"/>
		<path class="st0" d="M261.7,91.4l6.4,13.8h-1.5l-2.2-4.5h-5.9l-2.1,4.5h-1.5l6.5-13.8H261.7z M261.5,94.3l-2.4,5h4.7L261.5,94.3z"
			/>
		<path class="st0" d="M274.7,96.1l-0.8,0.9c-0.7-0.7-1.4-1-2.1-1c-0.4,0-0.8,0.1-1.1,0.4c-0.3,0.3-0.5,0.6-0.5,1
			c0,0.3,0.1,0.6,0.4,0.9s0.8,0.7,1.6,1.1c1,0.5,1.6,1,2,1.5c0.3,0.5,0.5,1,0.5,1.6c0,0.8-0.3,1.5-0.9,2.1s-1.3,0.9-2.2,0.9
			c-0.6,0-1.1-0.1-1.7-0.4c-0.5-0.3-1-0.6-1.3-1.1l0.8-0.9c0.7,0.8,1.4,1.1,2.1,1.1c0.5,0,1-0.2,1.3-0.5c0.4-0.3,0.6-0.7,0.6-1.2
			c0-0.4-0.1-0.7-0.4-1c-0.2-0.3-0.8-0.6-1.7-1.1c-0.9-0.5-1.5-0.9-1.9-1.4c-0.3-0.5-0.5-1-0.5-1.6c0-0.8,0.3-1.4,0.8-1.9
			s1.2-0.8,2-0.8C272.8,94.7,273.7,95.2,274.7,96.1z"/>
		<path class="st0" d="M281.3,94.7c1.6,0,2.9,0.6,3.9,1.7c0.9,1,1.4,2.3,1.4,3.7c0,1.4-0.5,2.7-1.5,3.7c-1,1.1-2.3,1.6-3.8,1.6
			c-1.6,0-2.8-0.5-3.8-1.6s-1.5-2.3-1.5-3.7c0-1.4,0.5-2.6,1.4-3.7C278.5,95.3,279.8,94.7,281.3,94.7z M281.3,96
			c-1.1,0-2,0.4-2.8,1.2c-0.8,0.8-1.2,1.8-1.2,2.9c0,0.7,0.2,1.4,0.5,2.1c0.4,0.6,0.8,1.1,1.4,1.5c0.6,0.3,1.3,0.5,2,0.5
			s1.4-0.2,2-0.5s1.1-0.8,1.4-1.5c0.4-0.6,0.5-1.3,0.5-2.1c0-1.1-0.4-2.1-1.2-2.9C283.3,96.4,282.4,96,281.3,96z"/>
		<path class="st0" d="M298.5,97.1l-1,0.6c-0.9-1.2-2.1-1.8-3.7-1.8c-1.2,0-2.3,0.4-3.1,1.2c-0.8,0.8-1.2,1.8-1.2,2.9
			c0,0.7,0.2,1.4,0.6,2.1s0.9,1.2,1.6,1.5c0.7,0.4,1.4,0.5,2.2,0.5c1.5,0,2.7-0.6,3.7-1.8l1,0.7c-0.5,0.7-1.1,1.3-2,1.7
			c-0.8,0.4-1.8,0.6-2.8,0.6c-1.6,0-2.9-0.5-4-1.5s-1.6-2.3-1.6-3.7c0-1,0.3-1.9,0.7-2.7c0.5-0.8,1.2-1.5,2-2
			c0.9-0.5,1.8-0.7,2.9-0.7c0.7,0,1.3,0.1,1.9,0.3c0.6,0.2,1.2,0.5,1.6,0.8C297.8,96.2,298.2,96.6,298.5,97.1z"/>
		<path class="st0" d="M302,103.1c0.3,0,0.6,0.1,0.8,0.3c0.2,0.2,0.3,0.5,0.3,0.8s-0.1,0.6-0.3,0.8c-0.2,0.2-0.5,0.3-0.8,0.3
			s-0.6-0.1-0.8-0.3c-0.2-0.2-0.3-0.5-0.3-0.8s0.1-0.6,0.3-0.8C301.4,103.2,301.7,103.1,302,103.1z"/>
	</g>
	<path class="st0" d="M58.4,10.9l43.8,93.9H92L77.3,73.9H36.8l-14.6,30.9H11.7L56,10.9C56,10.9,58.4,10.9,58.4,10.9z M57.2,30.9
		l-16.1,34h32.1L57.2,30.9z"/>
	<polygon class="st0" points="64.5,11 72.7,11 100.7,68.9 125.9,11 134,11 101.4,86 99.8,86 	"/>
	<polygon class="st0" points="119.1,11.1 101.2,52.2 100.3,52.2 79.5,11.1 	"/>
</g>
<g>
	<g>
		<path d="M115.6,72.9l5.7,12.3H120l-1.9-4.1h-5.3l-1.9,4.1h-1.4l5.8-12.3H115.6z M115.4,75.5l-2.1,4.5h4.2L115.4,75.5z"/>
		<path d="M127.6,77.1l-0.8,0.8c-0.6-0.6-1.2-0.9-1.8-0.9c-0.4,0-0.7,0.1-1,0.4s-0.4,0.5-0.4,0.9c0,0.3,0.1,0.6,0.3,0.8
			c0.2,0.3,0.7,0.6,1.4,1c0.9,0.5,1.5,0.9,1.8,1.3s0.5,0.9,0.5,1.4c0,0.7-0.3,1.4-0.8,1.9s-1.2,0.8-2,0.8c-0.5,0-1-0.1-1.5-0.3
			c-0.5-0.2-0.9-0.5-1.2-0.9l0.7-0.8c0.6,0.7,1.2,1,1.9,1c0.5,0,0.9-0.2,1.2-0.5c0.3-0.3,0.5-0.7,0.5-1.1c0-0.3-0.1-0.6-0.3-0.9
			c-0.2-0.3-0.7-0.6-1.5-1s-1.4-0.8-1.7-1.3c-0.3-0.4-0.4-0.9-0.4-1.4c0-0.7,0.2-1.3,0.7-1.7c0.5-0.5,1.1-0.7,1.8-0.7
			C125.9,75.8,126.8,76.2,127.6,77.1z"/>
		<path d="M137.4,82.2l1,0.5c-0.3,0.6-0.7,1.2-1.1,1.5c-0.4,0.4-0.9,0.7-1.4,0.9c-0.5,0.2-1.1,0.3-1.8,0.3c-1.5,0-2.7-0.5-3.5-1.5
			s-1.3-2.1-1.3-3.3c0-1.2,0.4-2.2,1.1-3.1c0.9-1.2,2.1-1.7,3.6-1.7c1.6,0,2.8,0.6,3.7,1.8c0.7,0.8,1,1.9,1,3.1h-8.2
			c0,1.1,0.4,1.9,1,2.6c0.7,0.7,1.5,1,2.4,1c0.5,0,0.9-0.1,1.4-0.2c0.4-0.2,0.8-0.4,1.1-0.6C136.7,83.2,137,82.8,137.4,82.2z
			 M137.4,79.7c-0.2-0.6-0.4-1.1-0.7-1.5s-0.7-0.7-1.2-0.9c-0.5-0.2-1-0.3-1.6-0.3c-0.9,0-1.7,0.3-2.3,0.9c-0.5,0.4-0.8,1-1.1,1.9
			L137.4,79.7L137.4,79.7z"/>
		<path d="M145.5,77.1l-0.8,0.8c-0.6-0.6-1.2-0.9-1.8-0.9c-0.4,0-0.7,0.1-1,0.4s-0.4,0.5-0.4,0.9c0,0.3,0.1,0.6,0.3,0.8
			c0.2,0.3,0.7,0.6,1.4,1c0.9,0.5,1.5,0.9,1.8,1.3s0.5,0.9,0.5,1.4c0,0.7-0.3,1.4-0.8,1.9s-1.2,0.8-2,0.8c-0.5,0-1-0.1-1.5-0.3
			c-0.5-0.2-0.9-0.5-1.2-0.9l0.7-1c0.6,0.7,1.2,1,1.9,1c0.5,0,0.9-0.2,1.2-0.5s0.5-0.7,0.5-1.1c0-0.3-0.1-0.6-0.3-0.9
			s-0.7-0.6-1.5-1s-1.4-0.8-1.7-1.3c-0.3-0.4-0.4-0.9-0.4-1.4c0-0.7,0.2-1.3,0.7-1.7c0.5-0.5,1.1-0.7,1.8-0.7
			C143.8,75.8,144.6,76.2,145.5,77.1z"/>
		<path d="M151.9,75.8c1.4,0,2.6,0.5,3.5,1.5c0.8,0.9,1.3,2,1.3,3.3s-0.4,2.4-1.3,3.3c-0.9,1-2,1.4-3.4,1.4s-2.5-0.5-3.4-1.4
			c-0.9-1-1.3-2.1-1.3-3.3c0-1.3,0.4-2.4,1.3-3.3C149.3,76.3,150.4,75.8,151.9,75.8z M151.8,77c-1,0-1.8,0.4-2.5,1.1
			s-1.1,1.6-1.1,2.6c0,0.7,0.2,1.3,0.5,1.8c0.3,0.6,0.8,1,1.3,1.3s1.1,0.5,1.8,0.5s1.2-0.2,1.8-0.5c0.5-0.3,1-0.8,1.3-1.3
			c0.3-0.6,0.5-1.2,0.5-1.8c0-1-0.4-1.9-1.1-2.6C153.7,77.3,152.8,77,151.8,77z"/>
		<path d="M158.3,76.1h1.2v1.3c0.4-0.5,0.7-0.9,1.1-1.2c0.4-0.3,0.8-0.4,1.2-0.4c0.3,0,0.7,0.1,1,0.3l-0.6,1
			c-0.2-0.1-0.5-0.2-0.6-0.2c-0.4,0-0.8,0.2-1.1,0.5c-0.4,0.3-0.6,0.8-0.8,1.5c-0.1,0.5-0.2,1.6-0.2,3.2v3.1h-1.2L158.3,76.1
			L158.3,76.1z"/>
		<path d="M171.6,82.2l1,0.5c-0.3,0.6-0.7,1.2-1.1,1.5c-0.4,0.4-0.9,0.7-1.4,0.9c-0.5,0.2-1.1,0.3-1.8,0.3c-1.5,0-2.7-0.5-3.5-1.5
			s-1.3-2.1-1.3-3.3c0-1.2,0.4-2.2,1.1-3.1c0.9-1.2,2.1-1.7,3.6-1.7c1.6,0,2.8,0.6,3.7,1.8c0.7,0.8,1,1.9,1,3.1h-8.2
			c0,1.1,0.4,1.9,1,2.6c0.7,0.7,1.5,1,2.4,1c0.5,0,0.9-0.1,1.4-0.2c0.4-0.2,0.8-0.4,1.1-0.6C170.9,83.2,171.2,82.8,171.6,82.2z
			 M171.6,79.7c-0.2-0.6-0.4-1.1-0.7-1.5s-0.7-0.7-1.2-0.9c-0.5-0.2-1-0.3-1.6-0.3c-0.9,0-1.7,0.3-2.3,0.9c-0.5,0.4-0.8,1-1.1,1.9
			L171.6,79.7L171.6,79.7z"/>
		<path d="M179.6,77.1l-0.8,0.8c-0.6-0.6-1.2-0.9-1.8-0.9c-0.4,0-0.7,0.1-1,0.4s-0.4,0.5-0.4,0.9c0,0.3,0.1,0.6,0.3,0.8
			c0.2,0.3,0.7,0.6,1.4,1c0.9,0.5,1.5,0.9,1.8,1.3s0.5,0.9,0.5,1.4c0,0.7-0.3,1.4-0.8,1.9s-1.2,0.8-2,0.8c-0.5,0-1-0.1-1.5-0.3
			c-0.5-0.2-0.9-0.5-1.2-0.9l0.7-0.8c0.6,0.7,1.2,1,1.9,1c0.5,0,0.9-0.2,1.2-0.5s0.5-0.7,0.5-1.1c0-0.3-0.1-0.6-0.3-0.9
			s-0.7-0.6-1.5-1s-1.4-0.8-1.7-1.3c-0.3-0.4-0.4-0.9-0.4-1.4c0-0.7,0.2-1.3,0.7-1.7c0.5-0.5,1.1-0.7,1.8-0.7
			C177.9,75.8,178.8,76.2,179.6,77.1z"/>
		<path d="M190.7,72.9h1.2v8.3c0,1.3-0.1,2.2-0.3,2.7s-0.5,0.9-1,1.2c-0.5,0.3-1,0.4-1.7,0.4c-0.5,0-1-0.1-1.5-0.3
			c-0.5-0.2-1-0.5-1.6-1l0.7-1c0.6,0.5,1.2,0.8,1.6,1c0.3,0.1,0.6,0.2,0.8,0.2c0.4,0,0.7-0.1,1-0.3c0.3-0.2,0.5-0.5,0.6-0.8
			c0.1-0.4,0.2-1,0.2-2V72.9z"/>
		<path d="M194.6,76.1h1.2v4.2c0,1,0.1,1.8,0.2,2.1c0.2,0.6,0.5,1,1,1.3s1,0.5,1.7,0.5s1.2-0.2,1.7-0.5s0.8-0.7,0.9-1.2
			c0.1-0.4,0.2-1.1,0.2-2.2V76h1.2v4.5c0,1.3-0.1,2.2-0.4,2.8c-0.3,0.6-0.7,1.1-1.3,1.5s-1.3,0.5-2.2,0.5s-1.6-0.2-2.2-0.5
			c-0.6-0.4-1-0.9-1.3-1.5s-0.4-1.6-0.4-2.9v-4.3C194.9,76.1,194.6,76.1,194.6,76.1z"/>
		<path d="M204.7,76.1h1.2v1.3c0.4-0.5,0.7-0.9,1.1-1.2c0.4-0.3,0.8-0.4,1.2-0.4c0.3,0,0.7,0.1,1,0.3l-0.6,1
			c-0.2-0.1-0.5-0.2-0.6-0.2c-0.4,0-0.8,0.2-1.1,0.5c-0.4,0.3-0.6,0.8-0.8,1.5c-0.1,0.5-0.2,1.6-0.2,3.2v3.1h-1.2V76.1z"/>
		<path d="M211.3,71.8h1.8l-2.5,2.6h-1.2L211.3,71.8z M210.1,76.1h1.2v9.1h-1.2V76.1z"/>
		<path d="M222.9,72.6v12.6h-1.2v-1.6c-0.5,0.6-1,1-1.7,1.3c-0.6,0.3-1.3,0.5-2,0.5c-1.3,0-2.4-0.5-3.3-1.4
			c-0.9-0.9-1.4-2.1-1.4-3.4s0.5-2.4,1.4-3.4c0.9-0.9,2-1.4,3.3-1.4c0.8,0,1.4,0.2,2,0.5s1.1,0.8,1.6,1.4v-5.2L222.9,72.6
			L222.9,72.6z M218.2,77c-0.7,0-1.3,0.2-1.8,0.5c-0.6,0.3-1,0.8-1.3,1.4s-0.5,1.2-0.5,1.8c0,0.6,0.2,1.3,0.5,1.8
			c0.3,0.6,0.8,1,1.3,1.4c0.6,0.3,1.2,0.5,1.8,0.5s1.2-0.2,1.8-0.5s1-0.8,1.3-1.3c0.3-0.6,0.5-1.2,0.5-1.9c0-1.1-0.3-1.9-1-2.6
			C220,77.3,219.2,77,218.2,77z"/>
		<path d="M225.9,72.3c0.3,0,0.5,0.1,0.7,0.3c0.2,0.2,0.3,0.4,0.3,0.7c0,0.3-0.1,0.5-0.3,0.7s-0.4,0.3-0.7,0.3s-0.5-0.1-0.7-0.3
			c-0.2-0.2-0.3-0.4-0.3-0.7c0-0.3,0.1-0.5,0.3-0.7C225.4,72.4,225.7,72.3,225.9,72.3z M225.3,76.1h1.2v9.1h-1.2V76.1z"/>
		<path d="M237.8,78l-0.9,0.6c-0.8-1.1-1.9-1.6-3.3-1.6c-1.1,0-2,0.4-2.8,1.1c-0.7,0.7-1.1,1.6-1.1,2.6c0,0.7,0.2,1.3,0.5,1.9
			s0.8,1,1.4,1.4c0.6,0.3,1.3,0.5,2,0.5c1.3,0,2.4-0.5,3.3-1.6l0.9,0.6c-0.4,0.7-1,1.2-1.8,1.5c-0.7,0.4-1.6,0.5-2.5,0.5
			c-1.4,0-2.6-0.5-3.6-1.4c-0.9-0.9-1.4-2-1.4-3.3c0-0.9,0.2-1.7,0.7-2.5c0.4-0.8,1.1-1.3,1.8-1.8c0.8-0.4,1.6-0.6,2.6-0.6
			c0.6,0,1.2,0.1,1.7,0.3c0.6,0.2,1,0.4,1.4,0.7C237.2,77.1,237.5,77.5,237.8,78z"/>
		<path d="M244.4,75.8c1.4,0,2.6,0.5,3.5,1.5c0.8,0.9,1.3,2,1.3,3.3s-0.4,2.4-1.3,3.3c-0.9,1-2,1.4-3.4,1.4s-2.5-0.5-3.4-1.4
			c-0.9-1-1.3-2.1-1.3-3.3c0-1.3,0.4-2.4,1.3-3.3C241.8,76.3,243,75.8,244.4,75.8z M244.4,77c-1,0-1.8,0.4-2.5,1.1s-1.1,1.6-1.1,2.6
			c0,0.7,0.2,1.3,0.5,1.8c0.3,0.6,0.8,1,1.3,1.3s1.1,0.5,1.8,0.5s1.2-0.2,1.8-0.5c0.5-0.3,1-0.8,1.3-1.3c0.3-0.6,0.5-1.2,0.5-1.8
			c0-1-0.4-1.9-1.1-2.6C246.2,77.3,245.3,77,244.4,77z"/>
		<path d="M255.9,77.1l-0.8,0.8c-0.6-0.6-1.2-0.9-1.8-0.9c-0.4,0-0.7,0.1-1,0.4s-0.4,0.5-0.4,0.9c0,0.3,0.1,0.6,0.3,0.8
			c0.2,0.3,0.7,0.6,1.4,1c0.9,0.5,1.5,0.9,1.8,1.3s0.5,0.9,0.5,1.4c0,0.7-0.3,1.4-0.8,1.9s-1.2,0.8-2,0.8c-0.5,0-1-0.1-1.5-0.3
			c-0.5-0.2-0.9-0.5-1.2-0.9l0.7-0.8c0.6,0.7,1.2,1,1.9,1c0.5,0,0.9-0.2,1.2-0.5s0.5-0.7,0.5-1.1c0-0.3-0.1-0.6-0.3-0.9
			s-0.7-0.6-1.5-1s-1.4-0.8-1.7-1.3c-0.3-0.4-0.4-0.9-0.4-1.4c0-0.7,0.2-1.3,0.7-1.7c0.5-0.5,1.1-0.7,1.8-0.7
			C254.2,75.8,255,76.2,255.9,77.1z"/>
	</g>
	<g>
		<path d="M113.3,91.8l6.4,13.8h-1.5l-2.2-4.5h-5.9l-2.1,4.5h-1.5l6.5-13.8H113.3z M113.1,94.7l-2.4,5h4.7L113.1,94.7z"/>
		<path d="M120.7,95.4h1.3v1.5c0.4-0.6,0.8-1,1.3-1.3c0.4-0.3,0.9-0.4,1.4-0.4c0.4,0,0.7,0.1,1.2,0.3l-0.7,1.1
			c-0.3-0.1-0.5-0.2-0.7-0.2c-0.4,0-0.9,0.2-1.3,0.5c-0.4,0.4-0.7,0.9-0.9,1.7c-0.2,0.6-0.2,1.8-0.2,3.5v3.4h-1.4V95.4z"/>
		<path d="M126.9,91.2c0.3,0,0.6,0.1,0.8,0.3c0.2,0.2,0.3,0.5,0.3,0.8s-0.1,0.5-0.3,0.8c-0.2,0.2-0.5,0.3-0.8,0.3s-0.5-0.1-0.8-0.3
			c-0.2-0.2-0.3-0.5-0.3-0.8s0.1-0.6,0.3-0.8C126.4,91.3,126.6,91.2,126.9,91.2z M126.3,95.4h1.3v10.2h-1.3V95.4z"/>
		<path d="M140,95.4v10.2h-1.3v-1.7c-0.5,0.7-1.2,1.2-1.8,1.5c-0.7,0.3-1.4,0.5-2.2,0.5c-1.4,0-2.7-0.5-3.7-1.6
			c-1-1-1.5-2.3-1.5-3.8s0.5-2.7,1.5-3.8c1-1,2.3-1.6,3.7-1.6c0.8,0,1.6,0.2,2.3,0.5c0.7,0.4,1.3,0.9,1.8,1.6v-1.9L140,95.4
			L140,95.4z M134.7,96.4c-0.7,0-1.4,0.2-2,0.5s-1.1,0.9-1.5,1.5s-0.5,1.3-0.5,2.1c0,0.7,0.2,1.4,0.5,2.1c0.4,0.7,0.9,1.2,1.5,1.5
			c0.6,0.4,1.3,0.5,2,0.5s1.4-0.2,2-0.5c0.6-0.4,1.1-0.8,1.5-1.5c0.3-0.6,0.5-1.3,0.5-2.1c0-1.2-0.4-2.2-1.2-3
			C136.8,96.8,135.9,96.4,134.7,96.4z"/>
		<path d="M147.5,96.5l-0.8,0.9c-0.7-0.7-1.4-1-2.1-1c-0.4,0-0.8,0.1-1.1,0.4s-0.5,0.6-0.5,1c0,0.3,0.1,0.6,0.4,0.9
			c0.3,0.3,0.8,0.7,1.6,1.1c1,0.5,1.6,1,2,1.5c0.3,0.5,0.5,1,0.5,1.6c0,0.8-0.3,1.5-0.9,2.1c-0.6,0.6-1.3,0.9-2.2,0.9
			c-0.6,0-1.1-0.1-1.7-0.4c-0.5-0.3-1-0.6-1.3-1.1l0.8-0.9c0.7,0.8,1.4,1.1,2.1,1.1c0.5,0,1-0.2,1.3-0.5c0.4-0.3,0.6-0.7,0.6-1.2
			c0-0.4-0.1-0.7-0.4-1c-0.2-0.3-0.8-0.6-1.7-1.1s-1.5-0.9-1.9-1.4c-0.3-0.5-0.5-1-0.5-1.6c0-0.8,0.3-1.4,0.8-1.9s1.2-0.8,2-0.8
			C145.6,95.1,146.6,95.6,147.5,96.5z"/>
		<path d="M153.4,91.8h1.5l4.6,10.6l4.6-10.6h1.5l-6,13.8h-0.3L153.4,91.8z"/>
		<path d="M175.4,95.4v10.2h-1.3v-1.7c-0.5,0.7-1.2,1.2-1.8,1.5c-0.7,0.3-1.4,0.5-2.2,0.5c-1.4,0-2.7-0.5-3.7-1.6
			c-1-1-1.5-2.3-1.5-3.8s0.5-2.7,1.5-3.8c1-1,2.3-1.6,3.7-1.6c0.8,0,1.6,0.2,2.3,0.5c0.7,0.4,1.3,0.9,1.8,1.6v-1.9L175.4,95.4
			L175.4,95.4z M170.1,96.4c-0.7,0-1.4,0.2-2,0.5c-0.6,0.4-1.1,0.9-1.5,1.5s-0.5,1.3-0.5,2.1c0,0.7,0.2,1.4,0.6,2.1
			c0.4,0.7,0.9,1.2,1.5,1.5c0.6,0.4,1.3,0.5,2,0.5s1.4-0.2,2-0.5c0.6-0.4,1.1-0.8,1.5-1.5c0.3-0.6,0.5-1.3,0.5-2.1
			c0-1.2-0.4-2.2-1.2-3C172.2,96.8,171.3,96.4,170.1,96.4z"/>
		<path d="M177.6,91.5h1.3v14.1h-1.3V91.5z"/>
		<path d="M180.2,95.4h1.4l3.4,7.4l3.4-7.4h1.4l-4.7,10.2h-0.2L180.2,95.4z"/>
		<path d="M199.9,102.2l1.1,0.6c-0.4,0.7-0.8,1.3-1.3,1.7c-0.5,0.4-1,0.8-1.6,1s-1.3,0.3-2,0.3c-1.7,0-3-0.5-3.9-1.6
			s-1.4-2.3-1.4-3.7c0-1.3,0.4-2.4,1.2-3.5c1-1.3,2.3-1.9,4-1.9s3.1,0.7,4.2,2c0.7,0.9,1.1,2.1,1.1,3.5h-9.2c0,1.2,0.4,2.2,1.1,2.9
			c0.7,0.8,1.6,1.1,2.7,1.1c0.5,0,1-0.1,1.5-0.3c0.5-0.2,0.9-0.4,1.2-0.7C199.1,103.3,199.5,102.9,199.9,102.2z M199.9,99.4
			c-0.2-0.7-0.4-1.3-0.8-1.7c-0.3-0.4-0.8-0.8-1.3-1c-0.5-0.3-1.1-0.4-1.7-0.4c-1,0-1.9,0.3-2.6,1c-0.5,0.5-0.9,1.2-1.2,2.1H199.9z"
			/>
		<path d="M202.8,95.4h1.3v1.5c0.4-0.6,0.8-1,1.3-1.3c0.4-0.3,0.9-0.4,1.4-0.4c0.4,0,0.7,0.1,1.2,0.3l-0.7,1.1
			c-0.3-0.1-0.5-0.2-0.7-0.2c-0.4,0-0.9,0.2-1.3,0.5c-0.4,0.4-0.7,0.9-0.9,1.7c-0.2,0.6-0.2,1.8-0.2,3.5v3.4h-1.3V95.4H202.8z"/>
		<path d="M218.7,91.5v14.1h-1.3v-1.7c-0.5,0.7-1.2,1.2-1.8,1.5c-0.7,0.3-1.4,0.5-2.2,0.5c-1.4,0-2.7-0.5-3.7-1.6
			c-1-1-1.5-2.3-1.5-3.8s0.5-2.7,1.5-3.8c1-1,2.3-1.6,3.7-1.6c0.8,0,1.6,0.2,2.3,0.5c0.7,0.4,1.3,0.9,1.8,1.6v-5.8h1.2V91.5z
			 M213.4,96.4c-0.7,0-1.4,0.2-2,0.5c-0.6,0.4-1.1,0.9-1.5,1.5s-0.5,1.3-0.5,2.1c0,0.7,0.2,1.4,0.6,2.1c0.4,0.7,0.9,1.2,1.5,1.5
			c0.6,0.4,1.3,0.5,2,0.5s1.4-0.2,2-0.5c0.6-0.4,1.1-0.8,1.5-1.5c0.3-0.6,0.5-1.3,0.5-2.1c0-1.2-0.4-2.2-1.2-3
			C215.5,96.8,214.6,96.4,213.4,96.4z"/>
		<path d="M229.7,102.2l1.1,0.6c-0.4,0.7-0.8,1.3-1.3,1.7c-0.5,0.4-1,0.8-1.6,1s-1.3,0.3-2,0.3c-1.7,0-3-0.5-3.9-1.6
			s-1.4-2.3-1.4-3.7c0-1.3,0.4-2.4,1.2-3.5c1-1.3,2.3-1.9,4-1.9s3.1,0.7,4.2,2c0.7,0.9,1.1,2.1,1.1,3.5h-9.2c0,1.2,0.4,2.2,1.1,2.9
			c0.7,0.8,1.6,1.1,2.7,1.1c0.5,0,1-0.1,1.5-0.3c0.5-0.2,0.9-0.4,1.3-0.7C228.9,103.3,229.3,102.9,229.7,102.2z M229.7,99.4
			c-0.2-0.7-0.4-1.3-0.8-1.7c-0.3-0.4-0.8-0.8-1.3-1c-0.5-0.3-1.1-0.4-1.7-0.4c-1,0-1.9,0.3-2.6,1c-0.5,0.5-0.9,1.2-1.2,2.1H229.7z"
			/>
		<path d="M248.6,100.5l0.9,1c-0.6,0.5-1.2,1-1.7,1.4c0.4,0.3,0.9,0.8,1.5,1.4c0.5,0.5,0.9,0.9,1.2,1.3h-1.9l-1.8-1.9
			c-1.1,0.9-2.1,1.5-2.8,1.8s-1.5,0.4-2.3,0.4c-1.1,0-1.9-0.3-2.6-0.9c-0.6-0.6-1-1.4-1-2.3c0-0.7,0.2-1.4,0.6-2.1
			c0.4-0.7,1.3-1.6,2.7-2.6c-0.8-0.9-1.2-1.6-1.5-2c-0.2-0.4-0.3-0.8-0.3-1.2c0-0.7,0.3-1.3,0.8-1.7c0.6-0.5,1.4-0.8,2.3-0.8
			c0.6,0,1.1,0.1,1.6,0.3c0.5,0.2,0.8,0.5,1.1,0.9s0.4,0.8,0.4,1.2c0,0.5-0.2,1-0.5,1.5s-1,1.2-1.9,2l2.1,2.2l1.4,1.4
			C247.6,101.3,248.2,100.9,248.6,100.5z M242.4,99.1c-1.2,0.9-1.9,1.6-2.3,2.1c-0.4,0.5-0.5,1-0.5,1.4c0,0.5,0.2,1,0.7,1.4
			c0.4,0.4,1,0.6,1.6,0.6c0.5,0,1-0.1,1.4-0.3c0.7-0.3,1.6-0.9,2.5-1.6l-2.2-2.2C243.3,100.1,242.9,99.6,242.4,99.1z M242.6,97.3
			c0.7-0.5,1.2-1,1.5-1.5c0.2-0.4,0.4-0.7,0.4-0.9c0-0.3-0.2-0.6-0.5-0.8c-0.3-0.2-0.7-0.3-1.2-0.3s-0.9,0.1-1.2,0.4
			c-0.3,0.2-0.5,0.5-0.5,0.8s0.1,0.5,0.2,0.7C241.6,96.1,242,96.6,242.6,97.3z"/>
		<path d="M262.7,91.8l6.4,13.8h-1.5l-2.2-4.5h-5.9l-2.1,4.5h-1.5l6.5-13.8H262.7z M262.5,94.7l-2.4,5h4.7L262.5,94.7z"/>
		<path d="M275.7,96.5l-0.8,0.9c-0.7-0.7-1.4-1-2.1-1c-0.4,0-0.8,0.1-1.1,0.4c-0.3,0.3-0.5,0.6-0.5,1c0,0.3,0.1,0.6,0.4,0.9
			s0.8,0.7,1.6,1.1c1,0.5,1.6,1,2,1.5c0.3,0.5,0.5,1,0.5,1.6c0,0.8-0.3,1.5-0.9,2.1s-1.3,0.9-2.2,0.9c-0.6,0-1.1-0.1-1.7-0.4
			c-0.5-0.3-1-0.6-1.3-1.1l0.8-0.9c0.7,0.8,1.4,1.1,2.1,1.1c0.5,0,1-0.2,1.3-0.5c0.4-0.3,0.6-0.7,0.6-1.2c0-0.4-0.1-0.7-0.4-1
			c-0.2-0.3-0.8-0.6-1.7-1.1c-0.9-0.5-1.5-0.9-1.9-1.4c-0.3-0.5-0.5-1-0.5-1.6c0-0.8,0.3-1.4,0.8-1.9s1.2-0.8,2-0.8
			C273.8,95.1,274.7,95.6,275.7,96.5z"/>
		<path d="M282.3,95.1c1.6,0,2.9,0.6,3.9,1.7c0.9,1,1.4,2.3,1.4,3.7c0,1.4-0.5,2.7-1.5,3.7c-1,1.1-2.3,1.6-3.8,1.6
			c-1.6,0-2.8-0.5-3.8-1.6s-1.5-2.3-1.5-3.7c0-1.4,0.5-2.6,1.4-3.7C279.5,95.7,280.8,95.1,282.3,95.1z M282.3,96.4
			c-1.1,0-2,0.4-2.8,1.2c-0.8,0.8-1.2,1.8-1.2,2.9c0,0.7,0.2,1.4,0.5,2.1c0.4,0.6,0.8,1.1,1.4,1.5c0.6,0.3,1.3,0.5,2,0.5
			s1.4-0.2,2-0.5s1.1-0.8,1.4-1.5c0.4-0.6,0.5-1.3,0.5-2.1c0-1.1-0.4-2.1-1.2-2.9C284.3,96.8,283.4,96.4,282.3,96.4z"/>
		<path d="M299.5,97.5l-1,0.6c-0.9-1.2-2.1-1.8-3.7-1.8c-1.2,0-2.3,0.4-3.1,1.2c-0.8,0.8-1.2,1.8-1.2,2.9c0,0.7,0.2,1.4,0.6,2.1
			s0.9,1.2,1.6,1.5c0.7,0.4,1.4,0.5,2.2,0.5c1.5,0,2.7-0.6,3.7-1.8l1,0.7c-0.5,0.7-1.1,1.3-2,1.7c-0.8,0.4-1.8,0.6-2.8,0.6
			c-1.6,0-2.9-0.5-4-1.5s-1.6-2.3-1.6-3.7c0-1,0.3-1.9,0.7-2.7c0.5-0.8,1.2-1.5,2-2c0.9-0.5,1.8-0.7,2.9-0.7c0.7,0,1.3,0.1,1.9,0.3
			c0.6,0.2,1.2,0.5,1.6,0.8C298.8,96.6,299.2,97,299.5,97.5z"/>
		<path d="M303,103.5c0.3,0,0.6,0.1,0.8,0.3c0.2,0.2,0.3,0.5,0.3,0.8s-0.1,0.6-0.3,0.8c-0.2,0.2-0.5,0.3-0.8,0.3s-0.6-0.1-0.8-0.3
			c-0.2-0.2-0.3-0.5-0.3-0.8s0.1-0.6,0.3-0.8C302.4,103.6,302.7,103.5,303,103.5z"/>
	</g>
	<path d="M59.8,11.5l43.8,93.9H93.4L78.7,74.5H38.2l-14.6,30.9H13.1l44.3-93.9C57.4,11.5,59.8,11.5,59.8,11.5z M58.6,31.5l-16.1,34
		h32.1L58.6,31.5z"/>
	<polygon points="65.9,11.6 74.1,11.6 102.1,69.5 127.3,11.6 135.4,11.6 102.8,86.6 101.2,86.6 	"/>
	<polygon points="120.5,11.7 102.6,52.8 101.7,52.8 80.9,11.7 	"/>
</g>
<g>
	<g>
		<path class="st1" d="M114.9,72.7l5.7,12.3h-1.3l-1.9-4.1h-5.3l-1.9,4.1h-1.4l5.8-12.3H114.9z M114.7,75.3l-2.1,4.5h4.2L114.7,75.3
			z"/>
		<path class="st1" d="M126.9,76.9l-0.8,0.8c-0.6-0.6-1.2-0.9-1.8-0.9c-0.4,0-0.7,0.1-1,0.4s-0.4,0.5-0.4,0.9c0,0.3,0.1,0.6,0.3,0.8
			c0.2,0.3,0.7,0.6,1.4,1c0.9,0.5,1.5,0.9,1.8,1.3s0.5,0.9,0.5,1.4c0,0.7-0.3,1.4-0.8,1.9s-1.2,0.8-2,0.8c-0.5,0-1-0.1-1.5-0.3
			c-0.5-0.2-0.9-0.5-1.2-0.9l0.7-0.8c0.6,0.7,1.2,1,1.9,1c0.5,0,0.9-0.2,1.2-0.5c0.3-0.3,0.5-0.7,0.5-1.1c0-0.3-0.1-0.6-0.3-0.9
			c-0.2-0.3-0.7-0.6-1.5-1s-1.4-0.8-1.7-1.3c-0.3-0.4-0.4-0.9-0.4-1.4c0-0.7,0.2-1.3,0.7-1.7c0.5-0.5,1.1-0.7,1.8-0.7
			C125.2,75.6,126.1,76,126.9,76.9z"/>
		<path class="st1" d="M136.7,82l1,0.5c-0.3,0.6-0.7,1.2-1.1,1.5c-0.4,0.4-0.9,0.7-1.4,0.9c-0.5,0.2-1.1,0.3-1.8,0.3
			c-1.5,0-2.7-0.5-3.5-1.5s-1.3-2.1-1.3-3.3c0-1.2,0.4-2.2,1.1-3.1c0.9-1.2,2.1-1.7,3.6-1.7c1.6,0,2.8,0.6,3.7,1.8
			c0.7,0.8,1,1.9,1,3.1h-8.2c0,1.1,0.4,1.9,1,2.6c0.7,0.7,1.5,1,2.4,1c0.5,0,0.9-0.1,1.4-0.2c0.4-0.2,0.8-0.4,1.1-0.6
			C136,83,136.3,82.6,136.7,82z M136.7,79.5c-0.2-0.6-0.4-1.1-0.7-1.5s-0.7-0.7-1.2-0.9c-0.5-0.2-1-0.3-1.6-0.3
			c-0.9,0-1.7,0.3-2.3,0.9c-0.5,0.4-0.8,1-1.1,1.9L136.7,79.5L136.7,79.5z"/>
		<path class="st1" d="M144.8,76.9l-0.8,0.8c-0.6-0.6-1.2-0.9-1.8-0.9c-0.4,0-0.7,0.1-1,0.4s-0.4,0.5-0.4,0.9c0,0.3,0.1,0.6,0.3,0.8
			c0.2,0.3,0.7,0.6,1.4,1c0.9,0.5,1.5,0.9,1.8,1.3s0.5,0.9,0.5,1.4c0,0.7-0.3,1.4-0.8,1.9s-1.2,0.8-2,0.8c-0.5,0-1-0.1-1.5-0.3
			c-0.5-0.2-0.9-0.5-1.2-0.9l0.7-1c0.6,0.7,1.2,1,1.9,1c0.5,0,0.9-0.2,1.2-0.5s0.5-0.7,0.5-1.1c0-0.3-0.1-0.6-0.3-0.9
			s-0.7-0.6-1.5-1s-1.4-0.8-1.7-1.3c-0.3-0.4-0.4-0.9-0.4-1.4c0-0.7,0.2-1.3,0.7-1.7c0.5-0.5,1.1-0.7,1.8-0.7
			C143.1,75.6,143.9,76,144.8,76.9z"/>
		<path class="st1" d="M151.2,75.6c1.4,0,2.6,0.5,3.5,1.5c0.8,0.9,1.3,2,1.3,3.3s-0.4,2.4-1.3,3.3c-0.9,1-2,1.4-3.4,1.4
			s-2.5-0.5-3.4-1.4c-0.9-1-1.3-2.1-1.3-3.3c0-1.3,0.4-2.4,1.3-3.3C148.6,76.1,149.7,75.6,151.2,75.6z M151.1,76.8
			c-1,0-1.8,0.4-2.5,1.1s-1.1,1.6-1.1,2.6c0,0.7,0.2,1.3,0.5,1.8c0.3,0.6,0.8,1,1.3,1.3s1.1,0.5,1.8,0.5s1.2-0.2,1.8-0.5
			c0.5-0.3,1-0.8,1.3-1.3c0.3-0.6,0.5-1.2,0.5-1.8c0-1-0.4-1.9-1.1-2.6C153,77.1,152.1,76.8,151.1,76.8z"/>
		<path class="st1" d="M157.6,75.9h1.2v1.3c0.4-0.5,0.7-0.9,1.1-1.2c0.4-0.3,0.8-0.4,1.2-0.4c0.3,0,0.7,0.1,1,0.3l-0.6,1
			c-0.2-0.1-0.5-0.2-0.6-0.2c-0.4,0-0.8,0.2-1.1,0.5c-0.4,0.3-0.6,0.8-0.8,1.5c-0.1,0.5-0.2,1.6-0.2,3.2V85h-1.2L157.6,75.9
			L157.6,75.9z"/>
		<path class="st1" d="M170.9,82l1,0.5c-0.3,0.6-0.7,1.2-1.1,1.5c-0.4,0.4-0.9,0.7-1.4,0.9c-0.5,0.2-1.1,0.3-1.8,0.3
			c-1.5,0-2.7-0.5-3.5-1.5s-1.3-2.1-1.3-3.3c0-1.2,0.4-2.2,1.1-3.1c0.9-1.2,2.1-1.7,3.6-1.7c1.6,0,2.8,0.6,3.7,1.8
			c0.7,0.8,1,1.9,1,3.1H164c0,1.1,0.4,1.9,1,2.6c0.7,0.7,1.5,1,2.4,1c0.5,0,0.9-0.1,1.4-0.2c0.4-0.2,0.8-0.4,1.1-0.6
			C170.2,83,170.5,82.6,170.9,82z M170.9,79.5c-0.2-0.6-0.4-1.1-0.7-1.5s-0.7-0.7-1.2-0.9c-0.5-0.2-1-0.3-1.6-0.3
			c-0.9,0-1.7,0.3-2.3,0.9c-0.5,0.4-0.8,1-1.1,1.9L170.9,79.5L170.9,79.5z"/>
		<path class="st1" d="M178.9,76.9l-0.8,0.8c-0.6-0.6-1.2-0.9-1.8-0.9c-0.4,0-0.7,0.1-1,0.4s-0.4,0.5-0.4,0.9c0,0.3,0.1,0.6,0.3,0.8
			c0.2,0.3,0.7,0.6,1.4,1c0.9,0.5,1.5,0.9,1.8,1.3s0.5,0.9,0.5,1.4c0,0.7-0.3,1.4-0.8,1.9s-1.2,0.8-2,0.8c-0.5,0-1-0.1-1.5-0.3
			c-0.5-0.2-0.9-0.5-1.2-0.9l0.7-0.8c0.6,0.7,1.2,1,1.9,1c0.5,0,0.9-0.2,1.2-0.5s0.5-0.7,0.5-1.1c0-0.3-0.1-0.6-0.3-0.9
			s-0.7-0.6-1.5-1s-1.4-0.8-1.7-1.3c-0.3-0.4-0.4-0.9-0.4-1.4c0-0.7,0.2-1.3,0.7-1.7c0.5-0.5,1.1-0.7,1.8-0.7
			C177.2,75.6,178.1,76,178.9,76.9z"/>
		<path class="st1" d="M190,72.7h1.2V81c0,1.3-0.1,2.2-0.3,2.7s-0.5,0.9-1,1.2c-0.5,0.3-1,0.4-1.7,0.4c-0.5,0-1-0.1-1.5-0.3
			c-0.5-0.2-1-0.5-1.6-1l0.7-1c0.6,0.5,1.2,0.8,1.6,1c0.3,0.1,0.6,0.2,0.8,0.2c0.4,0,0.7-0.1,1-0.3c0.3-0.2,0.5-0.5,0.6-0.8
			c0.1-0.4,0.2-1,0.2-2V72.7z"/>
		<path class="st1" d="M193.9,75.9h1.2v4.2c0,1,0.1,1.8,0.2,2.1c0.2,0.6,0.5,1,1,1.3s1,0.5,1.7,0.5s1.2-0.2,1.7-0.5s0.8-0.7,0.9-1.2
			c0.1-0.4,0.2-1.1,0.2-2.2v-4.3h1.2v4.5c0,1.3-0.1,2.2-0.4,2.8c-0.3,0.6-0.7,1.1-1.3,1.5s-1.3,0.5-2.2,0.5s-1.6-0.2-2.2-0.5
			c-0.6-0.4-1-0.9-1.3-1.5s-0.4-1.6-0.4-2.9v-4.3C194.2,75.9,193.9,75.9,193.9,75.9z"/>
		<path class="st1" d="M204,75.9h1.2v1.3c0.4-0.5,0.7-0.9,1.1-1.2c0.4-0.3,0.8-0.4,1.2-0.4c0.3,0,0.7,0.1,1,0.3l-0.6,1
			c-0.2-0.1-0.5-0.2-0.6-0.2c-0.4,0-0.8,0.2-1.1,0.5c-0.4,0.3-0.6,0.8-0.8,1.5c-0.1,0.5-0.2,1.6-0.2,3.2V85H204V75.9z"/>
		<path class="st1" d="M210.6,71.6h1.8l-2.5,2.6h-1.2L210.6,71.6z M209.4,75.9h1.2V85h-1.2V75.9z"/>
		<path class="st1" d="M222.2,72.4V85H221v-1.6c-0.5,0.6-1,1-1.7,1.3c-0.6,0.3-1.3,0.5-2,0.5c-1.3,0-2.4-0.5-3.3-1.4
			c-0.9-0.9-1.4-2.1-1.4-3.4s0.5-2.4,1.4-3.4c0.9-0.9,2-1.4,3.3-1.4c0.8,0,1.4,0.2,2,0.5s1.1,0.8,1.6,1.4v-5.2L222.2,72.4
			L222.2,72.4z M217.5,76.8c-0.7,0-1.3,0.2-1.8,0.5c-0.6,0.3-1,0.8-1.3,1.4s-0.5,1.2-0.5,1.8c0,0.6,0.2,1.3,0.5,1.8
			c0.3,0.6,0.8,1,1.3,1.4c0.6,0.3,1.2,0.5,1.8,0.5s1.2-0.2,1.8-0.5s1-0.8,1.3-1.3c0.3-0.6,0.5-1.2,0.5-1.9c0-1.1-0.3-1.9-1-2.6
			C219.3,77.1,218.5,76.8,217.5,76.8z"/>
		<path class="st1" d="M225.2,72.1c0.3,0,0.5,0.1,0.7,0.3c0.2,0.2,0.3,0.4,0.3,0.7c0,0.3-0.1,0.5-0.3,0.7s-0.4,0.3-0.7,0.3
			s-0.5-0.1-0.7-0.3c-0.2-0.2-0.3-0.4-0.3-0.7c0-0.3,0.1-0.5,0.3-0.7C224.7,72.2,225,72.1,225.2,72.1z M224.6,75.9h1.2V85h-1.2V75.9
			z"/>
		<path class="st1" d="M237.1,77.8l-0.9,0.6c-0.8-1.1-1.9-1.6-3.3-1.6c-1.1,0-2,0.4-2.8,1.1c-0.7,0.7-1.1,1.6-1.1,2.6
			c0,0.7,0.2,1.3,0.5,1.9s0.8,1,1.4,1.4c0.6,0.3,1.3,0.5,2,0.5c1.3,0,2.4-0.5,3.3-1.6l0.9,0.6c-0.4,0.7-1,1.2-1.8,1.5
			c-0.7,0.4-1.6,0.5-2.5,0.5c-1.4,0-2.6-0.5-3.6-1.4c-0.9-0.9-1.4-2-1.4-3.3c0-0.9,0.2-1.7,0.7-2.5c0.4-0.8,1.1-1.3,1.8-1.8
			c0.8-0.4,1.6-0.6,2.6-0.6c0.6,0,1.2,0.1,1.7,0.3c0.6,0.2,1,0.4,1.4,0.7C236.5,76.9,236.8,77.3,237.1,77.8z"/>
		<path class="st1" d="M243.7,75.6c1.4,0,2.6,0.5,3.5,1.5c0.8,0.9,1.3,2,1.3,3.3s-0.4,2.4-1.3,3.3c-0.9,1-2,1.4-3.4,1.4
			s-2.5-0.5-3.4-1.4c-0.9-1-1.3-2.1-1.3-3.3c0-1.3,0.4-2.4,1.3-3.3C241.1,76.1,242.3,75.6,243.7,75.6z M243.7,76.8
			c-1,0-1.8,0.4-2.5,1.1s-1.1,1.6-1.1,2.6c0,0.7,0.2,1.3,0.5,1.8c0.3,0.6,0.8,1,1.3,1.3s1.1,0.5,1.8,0.5s1.2-0.2,1.8-0.5
			c0.5-0.3,1-0.8,1.3-1.3c0.3-0.6,0.5-1.2,0.5-1.8c0-1-0.4-1.9-1.1-2.6C245.5,77.1,244.6,76.8,243.7,76.8z"/>
		<path class="st1" d="M255.2,76.9l-0.8,0.8c-0.6-0.6-1.2-0.9-1.8-0.9c-0.4,0-0.7,0.1-1,0.4s-0.4,0.5-0.4,0.9c0,0.3,0.1,0.6,0.3,0.8
			c0.2,0.3,0.7,0.6,1.4,1c0.9,0.5,1.5,0.9,1.8,1.3s0.5,0.9,0.5,1.4c0,0.7-0.3,1.4-0.8,1.9s-1.2,0.8-2,0.8c-0.5,0-1-0.1-1.5-0.3
			c-0.5-0.2-0.9-0.5-1.2-0.9l0.7-0.8c0.6,0.7,1.2,1,1.9,1c0.5,0,0.9-0.2,1.2-0.5s0.5-0.7,0.5-1.1c0-0.3-0.1-0.6-0.3-0.9
			s-0.7-0.6-1.5-1s-1.4-0.8-1.7-1.3c-0.3-0.4-0.4-0.9-0.4-1.4c0-0.7,0.2-1.3,0.7-1.7c0.5-0.5,1.1-0.7,1.8-0.7
			C253.5,75.6,254.3,76,255.2,76.9z"/>
	</g>
	<g>
		<path class="st1" d="M112.6,91.6l6.4,13.8h-1.5l-2.2-4.5h-5.9l-2.1,4.5h-1.5l6.5-13.8H112.6z M112.4,94.5l-2.4,5h4.7L112.4,94.5z"
			/>
		<path class="st1" d="M120,95.2h1.3v1.5c0.4-0.6,0.8-1,1.3-1.3c0.4-0.3,0.9-0.4,1.4-0.4c0.4,0,0.7,0.1,1.2,0.3l-0.7,1.1
			c-0.3-0.1-0.5-0.2-0.7-0.2c-0.4,0-0.9,0.2-1.3,0.5c-0.4,0.4-0.7,0.9-0.9,1.7c-0.2,0.6-0.2,1.8-0.2,3.5v3.4H120V95.2z"/>
		<path class="st1" d="M126.2,91c0.3,0,0.6,0.1,0.8,0.3c0.2,0.2,0.3,0.5,0.3,0.8s-0.1,0.5-0.3,0.8c-0.2,0.2-0.5,0.3-0.8,0.3
			s-0.5-0.1-0.8-0.3c-0.2-0.2-0.3-0.5-0.3-0.8s0.1-0.6,0.3-0.8C125.7,91.1,125.9,91,126.2,91z M125.6,95.2h1.3v10.2h-1.3V95.2z"/>
		<path class="st1" d="M139.3,95.2v10.2H138v-1.7c-0.5,0.7-1.2,1.2-1.8,1.5c-0.7,0.3-1.4,0.5-2.2,0.5c-1.4,0-2.7-0.5-3.7-1.6
			c-1-1-1.5-2.3-1.5-3.8s0.5-2.7,1.5-3.8c1-1,2.3-1.6,3.7-1.6c0.8,0,1.6,0.2,2.3,0.5c0.7,0.4,1.3,0.9,1.8,1.6v-1.9L139.3,95.2
			L139.3,95.2z M134,96.2c-0.7,0-1.4,0.2-2,0.5s-1.1,0.9-1.5,1.5s-0.5,1.3-0.5,2.1c0,0.7,0.2,1.4,0.5,2.1c0.4,0.7,0.9,1.2,1.5,1.5
			c0.6,0.4,1.3,0.5,2,0.5s1.4-0.2,2-0.5c0.6-0.4,1.1-0.8,1.5-1.5c0.3-0.6,0.5-1.3,0.5-2.1c0-1.2-0.4-2.2-1.2-3
			C136.1,96.6,135.2,96.2,134,96.2z"/>
		<path class="st1" d="M146.8,96.3l-0.8,0.9c-0.7-0.7-1.4-1-2.1-1c-0.4,0-0.8,0.1-1.1,0.4s-0.5,0.6-0.5,1c0,0.3,0.1,0.6,0.4,0.9
			c0.3,0.3,0.8,0.7,1.6,1.1c1,0.5,1.6,1,2,1.5c0.3,0.5,0.5,1,0.5,1.6c0,0.8-0.3,1.5-0.9,2.1c-0.6,0.6-1.3,0.9-2.2,0.9
			c-0.6,0-1.1-0.1-1.7-0.4c-0.5-0.3-1-0.6-1.3-1.1l0.8-0.9c0.7,0.8,1.4,1.1,2.1,1.1c0.5,0,1-0.2,1.3-0.5c0.4-0.3,0.6-0.7,0.6-1.2
			c0-0.4-0.1-0.7-0.4-1c-0.2-0.3-0.8-0.6-1.7-1.1s-1.5-0.9-1.9-1.4c-0.3-0.5-0.5-1-0.5-1.6c0-0.8,0.3-1.4,0.8-1.9s1.2-0.8,2-0.8
			C144.9,94.9,145.9,95.4,146.8,96.3z"/>
		<path class="st1" d="M152.7,91.6h1.5l4.6,10.6l4.6-10.6h1.5l-6,13.8h-0.3L152.7,91.6z"/>
		<path class="st1" d="M174.7,95.2v10.2h-1.3v-1.7c-0.5,0.7-1.2,1.2-1.8,1.5c-0.7,0.3-1.4,0.5-2.2,0.5c-1.4,0-2.7-0.5-3.7-1.6
			c-1-1-1.5-2.3-1.5-3.8s0.5-2.7,1.5-3.8c1-1,2.3-1.6,3.7-1.6c0.8,0,1.6,0.2,2.3,0.5c0.7,0.4,1.3,0.9,1.8,1.6v-1.9L174.7,95.2
			L174.7,95.2z M169.4,96.2c-0.7,0-1.4,0.2-2,0.5c-0.6,0.4-1.1,0.9-1.5,1.5s-0.5,1.3-0.5,2.1c0,0.7,0.2,1.4,0.6,2.1
			c0.4,0.7,0.9,1.2,1.5,1.5c0.6,0.4,1.3,0.5,2,0.5s1.4-0.2,2-0.5c0.6-0.4,1.1-0.8,1.5-1.5c0.3-0.6,0.5-1.3,0.5-2.1
			c0-1.2-0.4-2.2-1.2-3C171.5,96.6,170.6,96.2,169.4,96.2z"/>
		<path class="st1" d="M176.9,91.3h1.3v14.1h-1.3V91.3z"/>
		<path class="st1" d="M179.5,95.2h1.4l3.4,7.4l3.4-7.4h1.4l-4.7,10.2h-0.2L179.5,95.2z"/>
		<path class="st1" d="M199.2,102l1.1,0.6c-0.4,0.7-0.8,1.3-1.3,1.7c-0.5,0.4-1,0.8-1.6,1s-1.3,0.3-2,0.3c-1.7,0-3-0.5-3.9-1.6
			s-1.4-2.3-1.4-3.7c0-1.3,0.4-2.4,1.2-3.5c1-1.3,2.3-1.9,4-1.9s3.1,0.7,4.2,2c0.7,0.9,1.1,2.1,1.1,3.5h-9.2c0,1.2,0.4,2.2,1.1,2.9
			c0.7,0.8,1.6,1.1,2.7,1.1c0.5,0,1-0.1,1.5-0.3c0.5-0.2,0.9-0.4,1.2-0.7C198.4,103.1,198.8,102.7,199.2,102z M199.2,99.2
			c-0.2-0.7-0.4-1.3-0.8-1.7c-0.3-0.4-0.8-0.8-1.3-1c-0.5-0.3-1.1-0.4-1.7-0.4c-1,0-1.9,0.3-2.6,1c-0.5,0.5-0.9,1.2-1.2,2.1H199.2z"
			/>
		<path class="st1" d="M202.1,95.2h1.3v1.5c0.4-0.6,0.8-1,1.3-1.3c0.4-0.3,0.9-0.4,1.4-0.4c0.4,0,0.7,0.1,1.2,0.3l-0.7,1.1
			c-0.3-0.1-0.5-0.2-0.7-0.2c-0.4,0-0.9,0.2-1.3,0.5c-0.4,0.4-0.7,0.9-0.9,1.7c-0.2,0.6-0.2,1.8-0.2,3.5v3.4h-1.3V95.2H202.1z"/>
		<path class="st1" d="M218,91.3v14.1h-1.3v-1.7c-0.5,0.7-1.2,1.2-1.8,1.5c-0.7,0.3-1.4,0.5-2.2,0.5c-1.4,0-2.7-0.5-3.7-1.6
			c-1-1-1.5-2.3-1.5-3.8s0.5-2.7,1.5-3.8c1-1,2.3-1.6,3.7-1.6c0.8,0,1.6,0.2,2.3,0.5c0.7,0.4,1.3,0.9,1.8,1.6v-5.8h1.2V91.3z
			 M212.7,96.2c-0.7,0-1.4,0.2-2,0.5c-0.6,0.4-1.1,0.9-1.5,1.5s-0.5,1.3-0.5,2.1c0,0.7,0.2,1.4,0.6,2.1c0.4,0.7,0.9,1.2,1.5,1.5
			c0.6,0.4,1.3,0.5,2,0.5s1.4-0.2,2-0.5c0.6-0.4,1.1-0.8,1.5-1.5c0.3-0.6,0.5-1.3,0.5-2.1c0-1.2-0.4-2.2-1.2-3
			C214.8,96.6,213.9,96.2,212.7,96.2z"/>
		<path class="st1" d="M229,102l1.1,0.6c-0.4,0.7-0.8,1.3-1.3,1.7c-0.5,0.4-1,0.8-1.6,1s-1.3,0.3-2,0.3c-1.7,0-3-0.5-3.9-1.6
			s-1.4-2.3-1.4-3.7c0-1.3,0.4-2.4,1.2-3.5c1-1.3,2.3-1.9,4-1.9s3.1,0.7,4.2,2c0.7,0.9,1.1,2.1,1.1,3.5h-9.2c0,1.2,0.4,2.2,1.1,2.9
			c0.7,0.8,1.6,1.1,2.7,1.1c0.5,0,1-0.1,1.5-0.3c0.5-0.2,0.9-0.4,1.3-0.7C228.2,103.1,228.6,102.7,229,102z M229,99.2
			c-0.2-0.7-0.4-1.3-0.8-1.7c-0.3-0.4-0.8-0.8-1.3-1c-0.5-0.3-1.1-0.4-1.7-0.4c-1,0-1.9,0.3-2.6,1c-0.5,0.5-0.9,1.2-1.2,2.1H229z"/>
		<path class="st1" d="M247.9,100.3l0.9,1c-0.6,0.5-1.2,1-1.7,1.4c0.4,0.3,0.9,0.8,1.5,1.4c0.5,0.5,0.9,0.9,1.2,1.3h-1.9l-1.8-1.9
			c-1.1,0.9-2.1,1.5-2.8,1.8s-1.5,0.4-2.3,0.4c-1.1,0-1.9-0.3-2.6-0.9c-0.6-0.6-1-1.4-1-2.3c0-0.7,0.2-1.4,0.6-2.1
			c0.4-0.7,1.3-1.6,2.7-2.6c-0.8-0.9-1.2-1.6-1.5-2c-0.2-0.4-0.3-0.8-0.3-1.2c0-0.7,0.3-1.3,0.8-1.7c0.6-0.5,1.4-0.8,2.3-0.8
			c0.6,0,1.1,0.1,1.6,0.3c0.5,0.2,0.8,0.5,1.1,0.9s0.4,0.8,0.4,1.2c0,0.5-0.2,1-0.5,1.5s-1,1.2-1.9,2l2.1,2.2l1.4,1.4
			C246.9,101.1,247.5,100.7,247.9,100.3z M241.7,98.9c-1.2,0.9-1.9,1.6-2.3,2.1c-0.4,0.5-0.5,1-0.5,1.4c0,0.5,0.2,1,0.7,1.4
			c0.4,0.4,1,0.6,1.6,0.6c0.5,0,1-0.1,1.4-0.3c0.7-0.3,1.6-0.9,2.5-1.6l-2.2-2.2C242.6,99.9,242.2,99.4,241.7,98.9z M241.9,97.1
			c0.7-0.5,1.2-1,1.5-1.5c0.2-0.4,0.4-0.7,0.4-0.9c0-0.3-0.2-0.6-0.5-0.8c-0.3-0.2-0.7-0.3-1.2-0.3s-0.9,0.1-1.2,0.4
			c-0.3,0.2-0.5,0.5-0.5,0.8s0.1,0.5,0.2,0.7C240.9,95.9,241.3,96.4,241.9,97.1z"/>
		<path class="st1" d="M262,91.6l6.4,13.8h-1.5l-2.2-4.5h-5.9l-2.1,4.5h-1.5l6.5-13.8H262z M261.8,94.5l-2.4,5h4.7L261.8,94.5z"/>
		<path class="st1" d="M275,96.3l-0.8,0.9c-0.7-0.7-1.4-1-2.1-1c-0.4,0-0.8,0.1-1.1,0.4c-0.3,0.3-0.5,0.6-0.5,1
			c0,0.3,0.1,0.6,0.4,0.9s0.8,0.7,1.6,1.1c1,0.5,1.6,1,2,1.5c0.3,0.5,0.5,1,0.5,1.6c0,0.8-0.3,1.5-0.9,2.1s-1.3,0.9-2.2,0.9
			c-0.6,0-1.1-0.1-1.7-0.4c-0.5-0.3-1-0.6-1.3-1.1l0.8-0.9c0.7,0.8,1.4,1.1,2.1,1.1c0.5,0,1-0.2,1.3-0.5c0.4-0.3,0.6-0.7,0.6-1.2
			c0-0.4-0.1-0.7-0.4-1c-0.2-0.3-0.8-0.6-1.7-1.1c-0.9-0.5-1.5-0.9-1.9-1.4c-0.3-0.5-0.5-1-0.5-1.6c0-0.8,0.3-1.4,0.8-1.9
			s1.2-0.8,2-0.8C273.1,94.9,274,95.4,275,96.3z"/>
		<path class="st1" d="M281.6,94.9c1.6,0,2.9,0.6,3.9,1.7c0.9,1,1.4,2.3,1.4,3.7c0,1.4-0.5,2.7-1.5,3.7c-1,1.1-2.3,1.6-3.8,1.6
			c-1.6,0-2.8-0.5-3.8-1.6s-1.5-2.3-1.5-3.7c0-1.4,0.5-2.6,1.4-3.7C278.8,95.5,280.1,94.9,281.6,94.9z M281.6,96.2
			c-1.1,0-2,0.4-2.8,1.2c-0.8,0.8-1.2,1.8-1.2,2.9c0,0.7,0.2,1.4,0.5,2.1c0.4,0.6,0.8,1.1,1.4,1.5c0.6,0.3,1.3,0.5,2,0.5
			s1.4-0.2,2-0.5s1.1-0.8,1.4-1.5c0.4-0.6,0.5-1.3,0.5-2.1c0-1.1-0.4-2.1-1.2-2.9C283.6,96.6,282.7,96.2,281.6,96.2z"/>
		<path class="st1" d="M298.8,97.3l-1,0.6c-0.9-1.2-2.1-1.8-3.7-1.8c-1.2,0-2.3,0.4-3.1,1.2c-0.8,0.8-1.2,1.8-1.2,2.9
			c0,0.7,0.2,1.4,0.6,2.1s0.9,1.2,1.6,1.5c0.7,0.4,1.4,0.5,2.2,0.5c1.5,0,2.7-0.6,3.7-1.8l1,0.7c-0.5,0.7-1.1,1.3-2,1.7
			c-0.8,0.4-1.8,0.6-2.8,0.6c-1.6,0-2.9-0.5-4-1.5s-1.6-2.3-1.6-3.7c0-1,0.3-1.9,0.7-2.7c0.5-0.8,1.2-1.5,2-2
			c0.9-0.5,1.8-0.7,2.9-0.7c0.7,0,1.3,0.1,1.9,0.3c0.6,0.2,1.2,0.5,1.6,0.8C298.1,96.4,298.5,96.8,298.8,97.3z"/>
		<path class="st1" d="M302.3,103.3c0.3,0,0.6,0.1,0.8,0.3c0.2,0.2,0.3,0.5,0.3,0.8s-0.1,0.6-0.3,0.8c-0.2,0.2-0.5,0.3-0.8,0.3
			s-0.6-0.1-0.8-0.3c-0.2-0.2-0.3-0.5-0.3-0.8s0.1-0.6,0.3-0.8C301.7,103.4,302,103.3,302.3,103.3z"/>
	</g>
	
		<linearGradient id="SVGID_1_" gradientUnits="userSpaceOnUse" x1="127.0931" y1="984.7067" x2="11.6358" y2="1081.244" gradientTransform="matrix(1 0 0 1 0 -966)">
		<stop  offset="0" style="stop-color:#CCDDE7"/>
		<stop  offset="0.1015" style="stop-color:#C8DAE4"/>
		<stop  offset="0.1961" style="stop-color:#BCD0DB"/>
		<stop  offset="0.288" style="stop-color:#A8BFCC"/>
		<stop  offset="0.3783" style="stop-color:#8DA8B6"/>
		<stop  offset="0.4674" style="stop-color:#6D8C9B"/>
		<stop  offset="0.5544" style="stop-color:#4B6C7C"/>
		<stop  offset="0.5815" style="stop-color:#3F6171"/>
		<stop  offset="0.6732" style="stop-color:#416373"/>
		<stop  offset="0.7157" style="stop-color:#476978"/>
		<stop  offset="0.748" style="stop-color:#517282"/>
		<stop  offset="0.7753" style="stop-color:#5F8090"/>
		<stop  offset="0.7992" style="stop-color:#7492A2"/>
		<stop  offset="0.821" style="stop-color:#8FABB9"/>
		<stop  offset="0.8405" style="stop-color:#B1C8D4"/>
		<stop  offset="0.8469" style="stop-color:#BED3DE"/>
		<stop  offset="0.8624" style="stop-color:#B6CCD8"/>
		<stop  offset="0.8865" style="stop-color:#A0B9C7"/>
		<stop  offset="0.9161" style="stop-color:#7E9BAA"/>
		<stop  offset="0.9502" style="stop-color:#547484"/>
		<stop  offset="0.9875" style="stop-color:#214250"/>
		<stop  offset="1" style="stop-color:#0C2934"/>
	</linearGradient>
	<path class="st2" d="M59.1,11.3l43.8,93.9H92.7L78,74.3H37.5l-14.6,30.9H12.4l44.3-93.9C56.7,11.3,59.1,11.3,59.1,11.3z M57.9,31.3
		l-16.1,34h32.1L57.9,31.3z"/>
	
		<linearGradient id="SVGID_00000157989021689423622660000002135694255137818522_" gradientUnits="userSpaceOnUse" x1="65.2492" y1="1014.8586" x2="134.7492" y2="1014.8586" gradientTransform="matrix(1 0 0 1 0 -966)">
		<stop  offset="0" style="stop-color:#E6E7E8"/>
		<stop  offset="1" style="stop-color:#5A5B5D"/>
	</linearGradient>
	<polygon style="fill:url(#SVGID_00000157989021689423622660000002135694255137818522_);" points="65.2,11.4 73.4,11.4 101.4,69.3 
		126.6,11.4 134.7,11.4 102.1,86.4 100.5,86.4 	"/>
	
		<linearGradient id="SVGID_00000176729736880570442450000009411310930347545260_" gradientUnits="userSpaceOnUse" x1="78.8459" y1="1007.6165" x2="192.0664" y2="918.8403" gradientTransform="matrix(1 0 0 1 0 -966)">
		<stop  offset="0" style="stop-color:#CCDDE7"/>
		<stop  offset="1.296551e-02" style="stop-color:#C3D6E0"/>
		<stop  offset="0.1739" style="stop-color:#637D8B"/>
		<stop  offset="0.2852" style="stop-color:#2F4854"/>
		<stop  offset="0.337" style="stop-color:#172B34"/>
		<stop  offset="0.3527" style="stop-color:#213A46"/>
		<stop  offset="0.4934" style="stop-color:#708B99"/>
		<stop  offset="0.5912" style="stop-color:#A7BFCB"/>
		<stop  offset="0.6372" style="stop-color:#BED3DE"/>
		<stop  offset="0.6739" style="stop-color:#B6CCD8"/>
		<stop  offset="0.7309" style="stop-color:#A0B9C7"/>
		<stop  offset="0.8012" style="stop-color:#7E9BAA"/>
		<stop  offset="0.8819" style="stop-color:#547484"/>
		<stop  offset="0.9704" style="stop-color:#214250"/>
		<stop  offset="1" style="stop-color:#0C2934"/>
	</linearGradient>
	<polygon style="fill:url(#SVGID_00000176729736880570442450000009411310930347545260_);" points="119.8,11.5 101.9,52.6 101,52.6 
		80.2,11.5 	"/>
</g>
</svg>
