<?xml version="1.0" encoding="utf-8"?>
<!-- Generator: Adobe Illustrator 22.0.0, SVG Export Plug-In . SVG Version: 6.00 Build 0)  -->
<svg version="1.1" id="Layer_1" xmlns="http://www.w3.org/2000/svg" xmlns:xlink="http://www.w3.org/1999/xlink" x="0px" y="0px"
	 viewBox="0 0 311.8 112" style="enable-background:new 0 0 311.8 112;" xml:space="preserve">
<style type="text/css">
	.st0{fill:#6D6E71;}
	.st1{fill:url(#SVGID_1_);}
	.st2{fill:url(#SVGID_2_);}
	.st3{fill:url(#SVGID_3_);}
</style>
<g>
	<path class="st0" d="M114.9,72.6l5.7,12.3h-1.3l-1.9-4.1h-5.3l-1.9,4.1h-1.4l5.8-12.3H114.9z M114.7,75.2l-2.1,4.5h4.2L114.7,75.2z
		"/>
	<path class="st0" d="M126.9,76.8l-0.8,0.8c-0.6-0.6-1.2-0.9-1.8-0.9c-0.4,0-0.7,0.1-1,0.4s-0.4,0.5-0.4,0.9c0,0.3,0.1,0.6,0.3,0.8
		c0.2,0.3,0.7,0.6,1.4,1c0.9,0.5,1.5,0.9,1.8,1.3s0.5,0.9,0.5,1.4c0,0.7-0.3,1.4-0.8,1.9s-1.2,0.8-2,0.8c-0.5,0-1-0.1-1.5-0.3
		c-0.5-0.2-0.9-0.5-1.2-0.9l0.7-0.8c0.6,0.7,1.2,1,1.9,1c0.5,0,0.9-0.2,1.2-0.5c0.3-0.3,0.5-0.7,0.5-1.1c0-0.3-0.1-0.6-0.3-0.9
		c-0.2-0.3-0.7-0.6-1.5-1s-1.4-0.8-1.7-1.3c-0.3-0.4-0.4-0.9-0.4-1.4c0-0.7,0.2-1.3,0.7-1.7c0.5-0.5,1.1-0.7,1.8-0.7
		C125.2,75.5,126.1,75.9,126.9,76.8z"/>
	<path class="st0" d="M136.7,81.9l1,0.5c-0.3,0.6-0.7,1.2-1.1,1.5c-0.4,0.4-0.9,0.7-1.4,0.9c-0.5,0.2-1.1,0.3-1.8,0.3
		c-1.5,0-2.7-0.5-3.5-1.5s-1.3-2.1-1.3-3.3c0-1.2,0.4-2.2,1.1-3.1c0.9-1.2,2.1-1.7,3.6-1.7c1.6,0,2.8,0.6,3.7,1.8
		c0.7,0.8,1,1.9,1,3.1h-8.2c0,1.1,0.4,1.9,1,2.6c0.7,0.7,1.5,1,2.4,1c0.5,0,0.9-0.1,1.4-0.2c0.4-0.2,0.8-0.4,1.1-0.6
		C136,82.9,136.3,82.5,136.7,81.9z M136.7,79.4c-0.2-0.6-0.4-1.1-0.7-1.5s-0.7-0.7-1.2-0.9c-0.5-0.2-1-0.3-1.6-0.3
		c-0.9,0-1.7,0.3-2.3,0.9c-0.5,0.4-0.8,1-1.1,1.9L136.7,79.4L136.7,79.4z"/>
	<path class="st0" d="M144.8,76.8l-0.8,0.8c-0.6-0.6-1.2-0.9-1.8-0.9c-0.4,0-0.7,0.1-1,0.4s-0.4,0.5-0.4,0.9c0,0.3,0.1,0.6,0.3,0.8
		c0.2,0.3,0.7,0.6,1.4,1c0.9,0.5,1.5,0.9,1.8,1.3s0.5,0.9,0.5,1.4c0,0.7-0.3,1.4-0.8,1.9s-1.2,0.8-2,0.8c-0.5,0-1-0.1-1.5-0.3
		c-0.5-0.2-0.9-0.5-1.2-0.9l0.7-1c0.6,0.7,1.2,1,1.9,1c0.5,0,0.9-0.2,1.2-0.5s0.5-0.7,0.5-1.1c0-0.3-0.1-0.6-0.3-0.9s-0.7-0.6-1.5-1
		s-1.4-0.8-1.7-1.3c-0.3-0.4-0.4-0.9-0.4-1.4c0-0.7,0.2-1.3,0.7-1.7c0.5-0.5,1.1-0.7,1.8-0.7C143.1,75.5,143.9,75.9,144.8,76.8z"/>
	<path class="st0" d="M151.2,75.5c1.4,0,2.6,0.5,3.5,1.5c0.8,0.9,1.3,2,1.3,3.3s-0.4,2.4-1.3,3.3c-0.9,1-2,1.4-3.4,1.4
		s-2.5-0.5-3.4-1.4c-0.9-1-1.3-2.1-1.3-3.3c0-1.3,0.4-2.4,1.3-3.3C148.6,76,149.7,75.5,151.2,75.5z M151.1,76.7
		c-1,0-1.8,0.4-2.5,1.1s-1.1,1.6-1.1,2.6c0,0.7,0.2,1.3,0.5,1.8c0.3,0.6,0.8,1,1.3,1.3s1.1,0.5,1.8,0.5s1.2-0.2,1.8-0.5
		c0.5-0.3,1-0.8,1.3-1.3c0.3-0.6,0.5-1.2,0.5-1.8c0-1-0.4-1.9-1.1-2.6C153,77,152.1,76.7,151.1,76.7z"/>
	<path class="st0" d="M157.6,75.8h1.2v1.3c0.4-0.5,0.7-0.9,1.1-1.2c0.4-0.3,0.8-0.4,1.2-0.4c0.3,0,0.7,0.1,1,0.3l-0.6,1
		c-0.2-0.1-0.5-0.2-0.6-0.2c-0.4,0-0.8,0.2-1.1,0.5c-0.4,0.3-0.6,0.8-0.8,1.5c-0.1,0.5-0.2,1.6-0.2,3.2v3.1h-1.2L157.6,75.8
		L157.6,75.8z"/>
	<path class="st0" d="M170.9,81.9l1,0.5c-0.3,0.6-0.7,1.2-1.1,1.5c-0.4,0.4-0.9,0.7-1.4,0.9c-0.5,0.2-1.1,0.3-1.8,0.3
		c-1.5,0-2.7-0.5-3.5-1.5s-1.3-2.1-1.3-3.3c0-1.2,0.4-2.2,1.1-3.1c0.9-1.2,2.1-1.7,3.6-1.7c1.6,0,2.8,0.6,3.7,1.8
		c0.7,0.8,1,1.9,1,3.1H164c0,1.1,0.4,1.9,1,2.6c0.7,0.7,1.5,1,2.4,1c0.5,0,0.9-0.1,1.4-0.2c0.4-0.2,0.8-0.4,1.1-0.6
		C170.2,82.9,170.5,82.5,170.9,81.9z M170.9,79.4c-0.2-0.6-0.4-1.1-0.7-1.5s-0.7-0.7-1.2-0.9c-0.5-0.2-1-0.3-1.6-0.3
		c-0.9,0-1.7,0.3-2.3,0.9c-0.5,0.4-0.8,1-1.1,1.9L170.9,79.4L170.9,79.4z"/>
	<path class="st0" d="M178.9,76.8l-0.8,0.8c-0.6-0.6-1.2-0.9-1.8-0.9c-0.4,0-0.7,0.1-1,0.4s-0.4,0.5-0.4,0.9c0,0.3,0.1,0.6,0.3,0.8
		c0.2,0.3,0.7,0.6,1.4,1c0.9,0.5,1.5,0.9,1.8,1.3s0.5,0.9,0.5,1.4c0,0.7-0.3,1.4-0.8,1.9s-1.2,0.8-2,0.8c-0.5,0-1-0.1-1.5-0.3
		c-0.5-0.2-0.9-0.5-1.2-0.9l0.7-0.8c0.6,0.7,1.2,1,1.9,1c0.5,0,0.9-0.2,1.2-0.5s0.5-0.7,0.5-1.1c0-0.3-0.1-0.6-0.3-0.9
		s-0.7-0.6-1.5-1s-1.4-0.8-1.7-1.3c-0.3-0.4-0.4-0.9-0.4-1.4c0-0.7,0.2-1.3,0.7-1.7c0.5-0.5,1.1-0.7,1.8-0.7
		C177.2,75.5,178.1,75.9,178.9,76.8z"/>
	<path class="st0" d="M190,72.6h1.2v8.3c0,1.3-0.1,2.2-0.3,2.7s-0.5,0.9-1,1.2c-0.5,0.3-1,0.4-1.7,0.4c-0.5,0-1-0.1-1.5-0.3
		c-0.5-0.2-1-0.5-1.6-1l0.7-1c0.6,0.5,1.2,0.8,1.6,1c0.3,0.1,0.6,0.2,0.8,0.2c0.4,0,0.7-0.1,1-0.3c0.3-0.2,0.5-0.5,0.6-0.8
		c0.1-0.4,0.2-1,0.2-2V72.6z"/>
	<path class="st0" d="M193.9,75.8h1.2V80c0,1,0.1,1.8,0.2,2.1c0.2,0.6,0.5,1,1,1.3s1,0.5,1.7,0.5s1.2-0.2,1.7-0.5s0.8-0.7,0.9-1.2
		c0.1-0.4,0.2-1.1,0.2-2.2v-4.3h1.2v4.5c0,1.3-0.1,2.2-0.4,2.8c-0.3,0.6-0.7,1.1-1.3,1.5S199,85,198.1,85s-1.6-0.2-2.2-0.5
		c-0.6-0.4-1-0.9-1.3-1.5s-0.4-1.6-0.4-2.9v-4.3H193.9z"/>
	<path class="st0" d="M204,75.8h1.2v1.3c0.4-0.5,0.7-0.9,1.1-1.2c0.4-0.3,0.8-0.4,1.2-0.4c0.3,0,0.7,0.1,1,0.3l-0.6,1
		c-0.2-0.1-0.5-0.2-0.6-0.2c-0.4,0-0.8,0.2-1.1,0.5c-0.4,0.3-0.6,0.8-0.8,1.5c-0.1,0.5-0.2,1.6-0.2,3.2v3.1H204V75.8z"/>
	<path class="st0" d="M210.6,71.5h1.8l-2.5,2.6h-1.2L210.6,71.5z M209.4,75.8h1.2v9.1h-1.2V75.8z"/>
	<path class="st0" d="M222.2,72.3v12.6H221v-1.6c-0.5,0.6-1,1-1.7,1.3c-0.6,0.3-1.3,0.5-2,0.5c-1.3,0-2.4-0.5-3.3-1.4
		c-0.9-0.9-1.4-2.1-1.4-3.4s0.5-2.4,1.4-3.4c0.9-0.9,2-1.4,3.3-1.4c0.8,0,1.4,0.2,2,0.5s1.1,0.8,1.6,1.4v-5.2L222.2,72.3L222.2,72.3
		z M217.5,76.7c-0.7,0-1.3,0.2-1.8,0.5c-0.6,0.3-1,0.8-1.3,1.4s-0.5,1.2-0.5,1.8c0,0.6,0.2,1.3,0.5,1.8c0.3,0.6,0.8,1,1.3,1.4
		c0.6,0.3,1.2,0.5,1.8,0.5s1.2-0.2,1.8-0.5s1-0.8,1.3-1.3c0.3-0.6,0.5-1.2,0.5-1.9c0-1.1-0.3-1.9-1-2.6
		C219.3,77,218.5,76.7,217.5,76.7z"/>
	<path class="st0" d="M225.2,72c0.3,0,0.5,0.1,0.7,0.3c0.2,0.2,0.3,0.4,0.3,0.7c0,0.3-0.1,0.5-0.3,0.7s-0.4,0.3-0.7,0.3
		s-0.5-0.1-0.7-0.3c-0.2-0.2-0.3-0.4-0.3-0.7c0-0.3,0.1-0.5,0.3-0.7C224.7,72.1,225,72,225.2,72z M224.6,75.8h1.2v9.1h-1.2V75.8z"/>
	<path class="st0" d="M237.1,77.7l-0.9,0.6c-0.8-1.1-1.9-1.6-3.3-1.6c-1.1,0-2,0.4-2.8,1.1c-0.7,0.7-1.1,1.6-1.1,2.6
		c0,0.7,0.2,1.3,0.5,1.9s0.8,1,1.4,1.4c0.6,0.3,1.3,0.5,2,0.5c1.3,0,2.4-0.5,3.3-1.6l0.9,0.6c-0.4,0.7-1,1.2-1.8,1.5
		c-0.7,0.4-1.6,0.5-2.5,0.5c-1.4,0-2.6-0.5-3.6-1.4c-0.9-0.9-1.4-2-1.4-3.3c0-0.9,0.2-1.7,0.7-2.5c0.4-0.8,1.1-1.3,1.8-1.8
		c0.8-0.4,1.6-0.6,2.6-0.6c0.6,0,1.2,0.1,1.7,0.3c0.6,0.2,1,0.4,1.4,0.7C236.5,76.8,236.8,77.2,237.1,77.7z"/>
	<path class="st0" d="M243.7,75.5c1.4,0,2.6,0.5,3.5,1.5c0.8,0.9,1.3,2,1.3,3.3s-0.4,2.4-1.3,3.3c-0.9,1-2,1.4-3.4,1.4
		s-2.5-0.5-3.4-1.4c-0.9-1-1.3-2.1-1.3-3.3c0-1.3,0.4-2.4,1.3-3.3C241.1,76,242.3,75.5,243.7,75.5z M243.7,76.7
		c-1,0-1.8,0.4-2.5,1.1s-1.1,1.6-1.1,2.6c0,0.7,0.2,1.3,0.5,1.8c0.3,0.6,0.8,1,1.3,1.3s1.1,0.5,1.8,0.5s1.2-0.2,1.8-0.5
		c0.5-0.3,1-0.8,1.3-1.3c0.3-0.6,0.5-1.2,0.5-1.8c0-1-0.4-1.9-1.1-2.6C245.5,77,244.6,76.7,243.7,76.7z"/>
	<path class="st0" d="M255.2,76.8l-0.8,0.8c-0.6-0.6-1.2-0.9-1.8-0.9c-0.4,0-0.7,0.1-1,0.4s-0.4,0.5-0.4,0.9c0,0.3,0.1,0.6,0.3,0.8
		c0.2,0.3,0.7,0.6,1.4,1c0.9,0.5,1.5,0.9,1.8,1.3s0.5,0.9,0.5,1.4c0,0.7-0.3,1.4-0.8,1.9s-1.2,0.8-2,0.8c-0.5,0-1-0.1-1.5-0.3
		c-0.5-0.2-0.9-0.5-1.2-0.9l0.7-0.8c0.6,0.7,1.2,1,1.9,1c0.5,0,0.9-0.2,1.2-0.5s0.5-0.7,0.5-1.1c0-0.3-0.1-0.6-0.3-0.9
		s-0.7-0.6-1.5-1s-1.4-0.8-1.7-1.3c-0.3-0.4-0.4-0.9-0.4-1.4c0-0.7,0.2-1.3,0.7-1.7c0.5-0.5,1.1-0.7,1.8-0.7
		C253.5,75.5,254.3,75.9,255.2,76.8z"/>
</g>
<g>
	<path class="st0" d="M112.6,91.5l6.4,13.8h-1.5l-2.2-4.5h-5.9l-2.1,4.5h-1.5l6.5-13.8H112.6z M112.4,94.4l-2.4,5h4.7L112.4,94.4z"
		/>
	<path class="st0" d="M120,95.1h1.3v1.5c0.4-0.6,0.8-1,1.3-1.3c0.4-0.3,0.9-0.4,1.4-0.4c0.4,0,0.7,0.1,1.2,0.3l-0.7,1.1
		c-0.3-0.1-0.5-0.2-0.7-0.2c-0.4,0-0.9,0.2-1.3,0.5c-0.4,0.4-0.7,0.9-0.9,1.7c-0.2,0.6-0.2,1.8-0.2,3.5v3.4H120V95.1z"/>
	<path class="st0" d="M126.2,90.9c0.3,0,0.6,0.1,0.8,0.3c0.2,0.2,0.3,0.5,0.3,0.8s-0.1,0.5-0.3,0.8c-0.2,0.2-0.5,0.3-0.8,0.3
		s-0.5-0.1-0.8-0.3c-0.2-0.2-0.3-0.5-0.3-0.8s0.1-0.6,0.3-0.8C125.7,91,125.9,90.9,126.2,90.9z M125.6,95.1h1.3v10.2h-1.3V95.1z"/>
	<path class="st0" d="M139.3,95.1v10.2H138v-1.7c-0.5,0.7-1.2,1.2-1.8,1.5c-0.7,0.3-1.4,0.5-2.2,0.5c-1.4,0-2.7-0.5-3.7-1.6
		c-1-1-1.5-2.3-1.5-3.8s0.5-2.7,1.5-3.8c1-1,2.3-1.6,3.7-1.6c0.8,0,1.6,0.2,2.3,0.5c0.7,0.4,1.3,0.9,1.8,1.6V95h1.2V95.1z M134,96.1
		c-0.7,0-1.4,0.2-2,0.5s-1.1,0.9-1.5,1.5s-0.5,1.3-0.5,2.1c0,0.7,0.2,1.4,0.5,2.1c0.4,0.7,0.9,1.2,1.5,1.5c0.6,0.4,1.3,0.5,2,0.5
		s1.4-0.2,2-0.5c0.6-0.4,1.1-0.8,1.5-1.5c0.3-0.6,0.5-1.3,0.5-2.1c0-1.2-0.4-2.2-1.2-3C136.1,96.5,135.2,96.1,134,96.1z"/>
	<path class="st0" d="M146.8,96.2l-0.8,0.9c-0.7-0.7-1.4-1-2.1-1c-0.4,0-0.8,0.1-1.1,0.4s-0.5,0.6-0.5,1c0,0.3,0.1,0.6,0.4,0.9
		c0.3,0.3,0.8,0.7,1.6,1.1c1,0.5,1.6,1,2,1.5c0.3,0.5,0.5,1,0.5,1.6c0,0.8-0.3,1.5-0.9,2.1c-0.6,0.6-1.3,0.9-2.2,0.9
		c-0.6,0-1.1-0.1-1.7-0.4c-0.5-0.3-1-0.6-1.3-1.1l0.8-0.9c0.7,0.8,1.4,1.1,2.1,1.1c0.5,0,1-0.2,1.3-0.5c0.4-0.3,0.6-0.7,0.6-1.2
		c0-0.4-0.1-0.7-0.4-1c-0.2-0.3-0.8-0.6-1.7-1.1s-1.5-0.9-1.9-1.4c-0.3-0.5-0.5-1-0.5-1.6c0-0.8,0.3-1.4,0.8-1.9s1.2-0.8,2-0.8
		C144.9,94.8,145.9,95.3,146.8,96.2z"/>
	<path class="st0" d="M152.7,91.5h1.5l4.6,10.6l4.6-10.6h1.5l-6,13.8h-0.3L152.7,91.5z"/>
	<path class="st0" d="M174.7,95.1v10.2h-1.3v-1.7c-0.5,0.7-1.2,1.2-1.8,1.5c-0.7,0.3-1.4,0.5-2.2,0.5c-1.4,0-2.7-0.5-3.7-1.6
		c-1-1-1.5-2.3-1.5-3.8s0.5-2.7,1.5-3.8c1-1,2.3-1.6,3.7-1.6c0.8,0,1.6,0.2,2.3,0.5c0.7,0.4,1.3,0.9,1.8,1.6V95h1.2V95.1z
		 M169.4,96.1c-0.7,0-1.4,0.2-2,0.5c-0.6,0.4-1.1,0.9-1.5,1.5s-0.5,1.3-0.5,2.1c0,0.7,0.2,1.4,0.6,2.1c0.4,0.7,0.9,1.2,1.5,1.5
		c0.6,0.4,1.3,0.5,2,0.5s1.4-0.2,2-0.5c0.6-0.4,1.1-0.8,1.5-1.5c0.3-0.6,0.5-1.3,0.5-2.1c0-1.2-0.4-2.2-1.2-3
		C171.5,96.5,170.6,96.1,169.4,96.1z"/>
	<path class="st0" d="M176.9,91.2h1.3v14.1h-1.3V91.2z"/>
	<path class="st0" d="M179.5,95.1h1.4l3.4,7.4l3.4-7.4h1.4l-4.7,10.2h-0.2L179.5,95.1z"/>
	<path class="st0" d="M199.2,101.9l1.1,0.6c-0.4,0.7-0.8,1.3-1.3,1.7c-0.5,0.4-1,0.8-1.6,1s-1.3,0.3-2,0.3c-1.7,0-3-0.5-3.9-1.6
		s-1.4-2.3-1.4-3.7c0-1.3,0.4-2.4,1.2-3.5c1-1.3,2.3-1.9,4-1.9s3.1,0.7,4.2,2c0.7,0.9,1.1,2.1,1.1,3.5h-9.2c0,1.2,0.4,2.2,1.1,2.9
		c0.7,0.8,1.6,1.1,2.7,1.1c0.5,0,1-0.1,1.5-0.3c0.5-0.2,0.9-0.4,1.2-0.7C198.4,103,198.8,102.6,199.2,101.9z M199.2,99.1
		c-0.2-0.7-0.4-1.3-0.8-1.7c-0.3-0.4-0.8-0.8-1.3-1c-0.5-0.3-1.1-0.4-1.7-0.4c-1,0-1.9,0.3-2.6,1c-0.5,0.5-0.9,1.2-1.2,2.1H199.2z"
		/>
	<path class="st0" d="M202.1,95.1h1.3v1.5c0.4-0.6,0.8-1,1.3-1.3c0.4-0.3,0.9-0.4,1.4-0.4c0.4,0,0.7,0.1,1.2,0.3l-0.7,1.1
		c-0.3-0.1-0.5-0.2-0.7-0.2c-0.4,0-0.9,0.2-1.3,0.5c-0.4,0.4-0.7,0.9-0.9,1.7c-0.2,0.6-0.2,1.8-0.2,3.5v3.4h-1.3V95.1H202.1z"/>
	<path class="st0" d="M218,91.2v14.1h-1.3v-1.7c-0.5,0.7-1.2,1.2-1.8,1.5c-0.7,0.3-1.4,0.5-2.2,0.5c-1.4,0-2.7-0.5-3.7-1.6
		c-1-1-1.5-2.3-1.5-3.8s0.5-2.7,1.5-3.8c1-1,2.3-1.6,3.7-1.6c0.8,0,1.6,0.2,2.3,0.5c0.7,0.4,1.3,0.9,1.8,1.6v-5.8h1.2V91.2z
		 M212.7,96.1c-0.7,0-1.4,0.2-2,0.5c-0.6,0.4-1.1,0.9-1.5,1.5s-0.5,1.3-0.5,2.1c0,0.7,0.2,1.4,0.6,2.1c0.4,0.7,0.9,1.2,1.5,1.5
		c0.6,0.4,1.3,0.5,2,0.5s1.4-0.2,2-0.5c0.6-0.4,1.1-0.8,1.5-1.5c0.3-0.6,0.5-1.3,0.5-2.1c0-1.2-0.4-2.2-1.2-3
		C214.8,96.5,213.9,96.1,212.7,96.1z"/>
	<path class="st0" d="M229,101.9l1.1,0.6c-0.4,0.7-0.8,1.3-1.3,1.7c-0.5,0.4-1,0.8-1.6,1s-1.3,0.3-2,0.3c-1.7,0-3-0.5-3.9-1.6
		s-1.4-2.3-1.4-3.7c0-1.3,0.4-2.4,1.2-3.5c1-1.3,2.3-1.9,4-1.9s3.1,0.7,4.2,2c0.7,0.9,1.1,2.1,1.1,3.5h-9.2c0,1.2,0.4,2.2,1.1,2.9
		c0.7,0.8,1.6,1.1,2.7,1.1c0.5,0,1-0.1,1.5-0.3c0.5-0.2,0.9-0.4,1.3-0.7C228.2,103,228.6,102.6,229,101.9z M229,99.1
		c-0.2-0.7-0.4-1.3-0.8-1.7c-0.3-0.4-0.8-0.8-1.3-1c-0.5-0.3-1.1-0.4-1.7-0.4c-1,0-1.9,0.3-2.6,1c-0.5,0.5-0.9,1.2-1.2,2.1H229z"/>
	<path class="st0" d="M247.9,100.2l0.9,1c-0.6,0.5-1.2,1-1.7,1.4c0.4,0.3,0.9,0.8,1.5,1.4c0.5,0.5,0.9,0.9,1.2,1.3h-1.9l-1.8-1.9
		c-1.1,0.9-2.1,1.5-2.8,1.8s-1.5,0.4-2.3,0.4c-1.1,0-1.9-0.3-2.6-0.9c-0.6-0.6-1-1.4-1-2.3c0-0.7,0.2-1.4,0.6-2.1
		c0.4-0.7,1.3-1.6,2.7-2.6c-0.8-0.9-1.2-1.6-1.5-2c-0.2-0.4-0.3-0.8-0.3-1.2c0-0.7,0.3-1.3,0.8-1.7c0.6-0.5,1.4-0.8,2.3-0.8
		c0.6,0,1.1,0.1,1.6,0.3c0.5,0.2,0.8,0.5,1.1,0.9s0.4,0.8,0.4,1.2c0,0.5-0.2,1-0.5,1.5s-1,1.2-1.9,2l2.1,2.2l1.4,1.4
		C246.9,101,247.5,100.6,247.9,100.2z M241.7,98.8c-1.2,0.9-1.9,1.6-2.3,2.1c-0.4,0.5-0.5,1-0.5,1.4c0,0.5,0.2,1,0.7,1.4
		c0.4,0.4,1,0.6,1.6,0.6c0.5,0,1-0.1,1.4-0.3c0.7-0.3,1.6-0.9,2.5-1.6l-2.2-2.2C242.6,99.8,242.2,99.3,241.7,98.8z M241.9,97
		c0.7-0.5,1.2-1,1.5-1.5c0.2-0.4,0.4-0.7,0.4-0.9c0-0.3-0.2-0.6-0.5-0.8c-0.3-0.2-0.7-0.3-1.2-0.3s-0.9,0.1-1.2,0.4
		c-0.3,0.2-0.5,0.5-0.5,0.8s0.1,0.5,0.2,0.7C240.9,95.8,241.3,96.3,241.9,97z"/>
	<path class="st0" d="M262,91.5l6.4,13.8h-1.5l-2.2-4.5h-5.9l-2.1,4.5h-1.5l6.5-13.8H262z M261.8,94.4l-2.4,5h4.7L261.8,94.4z"/>
	<path class="st0" d="M275,96.2l-0.8,0.9c-0.7-0.7-1.4-1-2.1-1c-0.4,0-0.8,0.1-1.1,0.4c-0.3,0.3-0.5,0.6-0.5,1
		c0,0.3,0.1,0.6,0.4,0.9s0.8,0.7,1.6,1.1c1,0.5,1.6,1,2,1.5c0.3,0.5,0.5,1,0.5,1.6c0,0.8-0.3,1.5-0.9,2.1s-1.3,0.9-2.2,0.9
		c-0.6,0-1.1-0.1-1.7-0.4c-0.5-0.3-1-0.6-1.3-1.1l0.8-0.9c0.7,0.8,1.4,1.1,2.1,1.1c0.5,0,1-0.2,1.3-0.5c0.4-0.3,0.6-0.7,0.6-1.2
		c0-0.4-0.1-0.7-0.4-1c-0.2-0.3-0.8-0.6-1.7-1.1c-0.9-0.5-1.5-0.9-1.9-1.4c-0.3-0.5-0.5-1-0.5-1.6c0-0.8,0.3-1.4,0.8-1.9
		s1.2-0.8,2-0.8C273.1,94.8,274,95.3,275,96.2z"/>
	<path class="st0" d="M281.6,94.8c1.6,0,2.9,0.6,3.9,1.7c0.9,1,1.4,2.3,1.4,3.7c0,1.4-0.5,2.7-1.5,3.7c-1,1.1-2.3,1.6-3.8,1.6
		c-1.6,0-2.8-0.5-3.8-1.6s-1.5-2.3-1.5-3.7c0-1.4,0.5-2.6,1.4-3.7C278.8,95.4,280.1,94.8,281.6,94.8z M281.6,96.1
		c-1.1,0-2,0.4-2.8,1.2c-0.8,0.8-1.2,1.8-1.2,2.9c0,0.7,0.2,1.4,0.5,2.1c0.4,0.6,0.8,1.1,1.4,1.5c0.6,0.3,1.3,0.5,2,0.5
		s1.4-0.2,2-0.5s1.1-0.8,1.4-1.5c0.4-0.6,0.5-1.3,0.5-2.1c0-1.1-0.4-2.1-1.2-2.9C283.6,96.5,282.7,96.1,281.6,96.1z"/>
	<path class="st0" d="M298.8,97.2l-1,0.6c-0.9-1.2-2.1-1.8-3.7-1.8c-1.2,0-2.3,0.4-3.1,1.2c-0.8,0.8-1.2,1.8-1.2,2.9
		c0,0.7,0.2,1.4,0.6,2.1s0.9,1.2,1.6,1.5c0.7,0.4,1.4,0.5,2.2,0.5c1.5,0,2.7-0.6,3.7-1.8l1,0.7c-0.5,0.7-1.1,1.3-2,1.7
		c-0.8,0.4-1.8,0.6-2.8,0.6c-1.6,0-2.9-0.5-4-1.5s-1.6-2.3-1.6-3.7c0-1,0.3-1.9,0.7-2.7c0.5-0.8,1.2-1.5,2-2
		c0.9-0.5,1.8-0.7,2.9-0.7c0.7,0,1.3,0.1,1.9,0.3c0.6,0.2,1.2,0.5,1.6,0.8C298.1,96.3,298.5,96.7,298.8,97.2z"/>
	<path class="st0" d="M302.3,103.2c0.3,0,0.6,0.1,0.8,0.3c0.2,0.2,0.3,0.5,0.3,0.8s-0.1,0.6-0.3,0.8c-0.2,0.2-0.5,0.3-0.8,0.3
		s-0.6-0.1-0.8-0.3c-0.2-0.2-0.3-0.5-0.3-0.8s0.1-0.6,0.3-0.8C301.7,103.3,302,103.2,302.3,103.2z"/>
</g>
<linearGradient id="SVGID_1_" gradientUnits="userSpaceOnUse" x1="127.0438" y1="95.352" x2="11.5865" y2="-1.1853" gradientTransform="matrix(1 0 0 -1 0 114)">
	<stop  offset="0" style="stop-color:#CCDDE7"/>
	<stop  offset="0.1015" style="stop-color:#C8DAE4"/>
	<stop  offset="0.1961" style="stop-color:#BCD0DB"/>
	<stop  offset="0.288" style="stop-color:#A8BFCC"/>
	<stop  offset="0.3783" style="stop-color:#8DA8B6"/>
	<stop  offset="0.4674" style="stop-color:#6D8C9B"/>
	<stop  offset="0.5544" style="stop-color:#4B6C7C"/>
	<stop  offset="0.5815" style="stop-color:#3F6171"/>
	<stop  offset="0.6732" style="stop-color:#416373"/>
	<stop  offset="0.7157" style="stop-color:#476978"/>
	<stop  offset="0.748" style="stop-color:#517282"/>
	<stop  offset="0.7753" style="stop-color:#5F8090"/>
	<stop  offset="0.7992" style="stop-color:#7492A2"/>
	<stop  offset="0.821" style="stop-color:#8FABB9"/>
	<stop  offset="0.8405" style="stop-color:#B1C8D4"/>
	<stop  offset="0.8469" style="stop-color:#BED3DE"/>
	<stop  offset="0.8624" style="stop-color:#B6CCD8"/>
	<stop  offset="0.8865" style="stop-color:#A0B9C7"/>
	<stop  offset="0.9161" style="stop-color:#7E9BAA"/>
	<stop  offset="0.9502" style="stop-color:#547484"/>
	<stop  offset="0.9875" style="stop-color:#214250"/>
	<stop  offset="1" style="stop-color:#0C2934"/>
</linearGradient>
<path class="st1" d="M59.1,11.2l43.8,93.9H92.7L78,74.2H37.5l-14.6,30.9H12.4l44.3-93.9C56.7,11.2,59.1,11.2,59.1,11.2z M57.9,31.2
	l-16.1,34h32.1L57.9,31.2z"/>
<linearGradient id="SVGID_2_" gradientUnits="userSpaceOnUse" x1="65.2" y1="65.2" x2="134.7" y2="65.2" gradientTransform="matrix(1 0 0 -1 0 114)">
	<stop  offset="0" style="stop-color:#E6E7E8"/>
	<stop  offset="1" style="stop-color:#5A5B5D"/>
</linearGradient>
<polygon class="st2" points="65.2,11.3 73.4,11.3 101.4,69.2 126.6,11.3 134.7,11.3 102.1,86.3 100.5,86.3 "/>
<linearGradient id="SVGID_3_" gradientUnits="userSpaceOnUse" x1="78.7967" y1="72.4422" x2="192.0171" y2="161.2183" gradientTransform="matrix(1 0 0 -1 0 114)">
	<stop  offset="0" style="stop-color:#CCDDE7"/>
	<stop  offset="1.296551e-02" style="stop-color:#C3D6E0"/>
	<stop  offset="0.1739" style="stop-color:#637D8B"/>
	<stop  offset="0.2852" style="stop-color:#2F4854"/>
	<stop  offset="0.337" style="stop-color:#172B34"/>
	<stop  offset="0.3527" style="stop-color:#213A46"/>
	<stop  offset="0.4934" style="stop-color:#708B99"/>
	<stop  offset="0.5912" style="stop-color:#A7BFCB"/>
	<stop  offset="0.6372" style="stop-color:#BED3DE"/>
	<stop  offset="0.6739" style="stop-color:#B6CCD8"/>
	<stop  offset="0.7309" style="stop-color:#A0B9C7"/>
	<stop  offset="0.8012" style="stop-color:#7E9BAA"/>
	<stop  offset="0.8819" style="stop-color:#547484"/>
	<stop  offset="0.9704" style="stop-color:#214250"/>
	<stop  offset="1" style="stop-color:#0C2934"/>
</linearGradient>
<polygon class="st3" points="119.8,11.4 101.9,52.5 101,52.5 80.2,11.4 "/>
</svg>
