<?xml version="1.0" encoding="utf-8"?>
<!-- Generator: Adobe Illustrator 22.0.0, SVG Export Plug-In . SVG Version: 6.00 Build 0)  -->
<svg version="1.1" id="Layer_1" xmlns="http://www.w3.org/2000/svg" xmlns:xlink="http://www.w3.org/1999/xlink" x="0px" y="0px"
	 viewBox="0 0 750.9 107.5" style="enable-background:new 0 0 750.9 107.5;" xml:space="preserve">
<style type="text/css">
	.st0{opacity:0.3;}
	.st1{stroke:#000000;stroke-miterlimit:10;}
	.st2{fill:url(#SVGID_1_);}
</style>
<path class="st0" d="M734.4,107.5H16.5C7.4,107.5,0,100.1,0,91V16.5C0,7.4,7.4,0,16.5,0h717.8c9.1,0,16.5,7.4,16.5,16.5V91
	C750.9,100.1,743.5,107.5,734.4,107.5z"/>
<path class="st1" d="M75.1,84.3c0,0.4-0.1,0.5-0.3,0.5H50.2c-0.4,0-0.5-0.2-0.5-0.6v-1.4c0-0.5,0.2-0.7,0.5-0.7h7.3
	c0.6,0,0.8-0.3,0.7-1c-0.3-1.1-1.5-4.8-3.7-11.1c-2.1-6.3-3.3-9.6-3.5-10.1c-0.3-0.7-0.7-1.1-1.1-1.1H24.2c-0.3,0.1-0.6,0.3-0.8,0.6
	c-0.5,1-1.3,3.2-2.6,6.7c-1.2,3.5-2,5.9-2.2,7.2c-0.6,2.8-0.9,4.5-0.9,5.1c0,2.3,0.3,3.5,0.9,3.5h8.1c0.4,0,0.6,0.2,0.6,0.7v1.5
	c0,0.4-0.2,0.5-0.5,0.5H5.3c-0.4,0-0.5-0.2-0.5-0.5v-1.8c0-0.4,0.1-0.5,0.4-0.5h4.6c0.8,0,1.8-1.7,3.2-5c1.3-3.3,5.3-13,11.9-28.9
	c4.2-10,9.3-22.2,15.4-36.5c0.4-1.1,0.8-1.7,1.2-1.9c1-0.3,2.3-0.7,3.8-1.3c0.2-0.1,0.5,0.1,0.9,0.6c0.3,0.5,0.2,1-0.4,1.6
	c-1.1,1.1-1.6,2.2-1.6,3.2c0,1.1,0.2,2.4,0.7,4c1.8,5.5,5.3,15.5,10.3,30.1s8.5,24,10.4,28.3c1.9,4,3.2,6,4,6h5
	c0.3,0,0.4,0.2,0.4,0.7L75.1,84.3L75.1,84.3z M48.7,54c-1.5-4.2-3-8.8-4.7-13.9c-1.7-5-3.4-10.3-5.2-15.7c-0.1-0.5-0.2-0.7-0.4-0.9
	c-0.1,0.1-0.3,0.4-0.5,0.9c-4.4,10.9-7.6,18.6-9.6,23.1c-1.9,4.5-2.9,6.9-2.9,7c0,0.2,0.2,0.3,0.5,0.3h22.5
	C48.8,54.8,48.9,54.5,48.7,54z M124,78.8c0,0.3-0.5,1.2-1.4,2.7c-0.2,0.6-0.7,1.5-1.5,2.8c-0.2,0.3-0.5,0.5-0.7,0.5H79.5
	c-0.3,0-0.5-0.1-0.5-0.4V83c0-0.3,0.1-0.4,0.4-0.4h6.4c0.5,0,0.8-0.3,0.8-0.9c0-0.3,0-2-0.1-5.2s-0.1-10.3,0-21.3s0.2-16.8,0.2-17.3
	c0-6.1-0.6-9.2-1.7-9.2h-4.8c-0.4,0-0.6-0.2-0.6-0.5V27c0-0.3,0.2-0.5,0.5-0.5h23.2c0.3,0,0.4,0.1,0.4,0.3v1.5
	c0,0.3-0.1,0.4-0.3,0.4h-8.6c-0.4,0-0.7,0.2-0.8,0.6c-0.1,0.4-0.2,7.4-0.4,21c-0.2,12.8-0.3,20.1-0.3,21.8c0,6.6,0.8,9.9,2.3,9.9
	c9.3,0,14.6-0.1,15.9-0.2c4.5-0.4,8.1-1.4,10.8-3.1c0.7-0.4,1.1-0.6,1.2-0.6C123.8,78.3,124,78.6,124,78.8z M172.3,78.8
	c0,0.3-0.5,1.2-1.4,2.7c-0.2,0.6-0.7,1.5-1.5,2.8c-0.2,0.3-0.5,0.5-0.7,0.5h-40.9c-0.3,0-0.5-0.1-0.5-0.4V83c0-0.3,0.1-0.4,0.4-0.4
	h6.4c0.5,0,0.8-0.3,0.8-0.9c0-0.3,0-2-0.1-5.2s-0.1-10.3,0-21.3s0.2-16.8,0.2-17.3c0-6.1-0.6-9.2-1.7-9.2h-4.9
	c-0.4,0-0.6-0.2-0.6-0.5V27c0-0.3,0.2-0.5,0.5-0.5h23.2c0.3,0,0.4,0.1,0.4,0.3v1.5c0,0.3-0.1,0.4-0.3,0.4H143
	c-0.4,0-0.7,0.2-0.8,0.6s-0.2,7.4-0.4,21c-0.2,12.8-0.3,20.1-0.3,21.8c0,6.6,0.8,9.9,2.3,9.9c9.3,0,14.6-0.1,15.9-0.2
	c4.5-0.4,8.1-1.4,10.8-3.1c0.7-0.4,1.1-0.6,1.2-0.6C172.1,78.3,172.3,78.6,172.3,78.8z M234.8,28.2c0,0.3-0.1,0.5-0.3,0.5h-2.4
	c-2.2,0-3.4,0-3.7,0.1c-0.1,0.5-0.2,1.2-0.2,1.9c-0.1,1.8-0.2,4.7-0.3,8.6c0,5.5,0,12.9,0.2,22.1c0.3,16.5-6.5,24.7-20.4,24.7
	c-6,0-10.8-0.6-14.6-1.9c-3.7-1.3-6.4-3.6-8-6.8c-1.3-2.7-2.1-6.7-2.3-12.2c-0.1-3.5-0.2-12.3-0.2-26.5c0-6.7-0.6-10.1-1.7-10.1
	h-5.8c-0.3,0-0.5-0.1-0.5-0.4v-1.3c0-0.3,0.2-0.5,0.5-0.5h21.1c0.3,0,0.5,0.1,0.5,0.3V28c0,0.4-0.1,0.6-0.3,0.6h-6
	c-0.3,0-0.5,0.2-0.6,0.7c-0.2,1.2-0.3,10.6-0.3,28.3c0,6.2,0.2,10.3,0.5,12.5c0.7,4.1,2.6,7.2,5.7,9.3c3.2,2.1,7.4,3.2,12.8,3.2
	c5.4,0,9.7-1.6,12.9-4.9c2.5-2.5,3.7-7.3,3.7-14.6c0-9.6-0.1-16.7-0.3-21.4c-0.3-8.8-1.3-13.2-2.8-13.2h-5.5c-0.2,0-0.4,0-0.4-0.1
	c-0.1-0.1-0.1-0.2-0.1-0.3v-1.4c0-0.3,0.2-0.4,0.5-0.4H234c0.3,0,0.4,0.1,0.4,0.4v1.5H234.8z M298,84.3c0,0.3-0.1,0.5-0.3,0.5h-14
	c-0.3,0-0.7-0.2-1.1-0.5c-1.1-0.9-3.1-3.4-6-7.2c-1.5-2.1-3.1-4.2-4.6-6.3c-1.7-2.6-4.1-6.6-7.1-12c-0.2-0.5-0.4-0.7-0.7-0.7
	c-1.3,0-3.7-0.2-7.1-0.5c-0.5-0.1-0.7,0-0.7,0.4c0,0.5,0,2.4,0,5.4c0,3.1,0,6.3,0,9.7c0,6.3,0.6,9.4,1.9,9.4h7.6
	c0.3,0,0.4,0.1,0.4,0.4v1.4c0,0.3-0.1,0.4-0.3,0.4h-22.8c-0.3,0-0.4,0-0.5-0.1s-0.1-0.2-0.1-0.3V83c0-0.3,0-0.4,0.1-0.5
	s0.2-0.1,0.3-0.1h5.6c0.5,0,0.7-0.4,0.7-1.3V58.3V40.5c-0.1-7.9-0.6-11.8-1.5-11.8h-5.5c-0.3,0-0.4-0.1-0.4-0.3v-1.6
	c0-0.2,0.1-0.3,0.3-0.3H255c0.4,0,2-0.1,4.9-0.2s4.5-0.2,4.8-0.2c1.9,0,3.7,0.1,5.5,0.4c4,0.6,7.1,2.1,9.5,4.4
	c2.8,2.7,4.2,6,4.2,10.1c0,4.6-1.4,8.5-4.1,11.4c-1.7,1.8-4.5,3.4-8.3,4.7c-0.2,0.1-0.3,0.3-0.3,0.5c1.3,3.3,4.2,7.5,8.7,12.7
	c2.4,2.7,4.1,4.6,5.2,5.8c1.9,2,3.6,3.5,4.9,4.5c1.8,1.3,4.1,2,6.9,2c0.5,0,0.7,0.1,0.7,0.3v1.4H298z M277.2,43.3
	c0-3.8-1.3-6.9-3.8-9.3c-3.5-3.3-8.6-5-15.3-5c-1,0-1.5,0.2-1.6,0.6c0,8.2-0.1,13.3-0.2,15.4v9.8c0,0.3,0.2,0.5,0.6,0.6
	c0.7,0.1,2.5,0.2,5.5,0.2c1.2,0,2.6-0.1,4.1-0.3s2.2-0.3,2.1-0.3C274.3,53.4,277.2,49.5,277.2,43.3z M346.7,78.7
	c-0.8,1.6-1.8,3.5-2.9,5.6c-0.2,0.3-0.5,0.5-0.9,0.5h-40.6c-0.3,0-0.4-0.2-0.4-0.5V83c0-0.3,0.1-0.4,0.3-0.4h6.4
	c0.6,0,0.9-0.3,0.9-0.9c0-0.3,0-4.7-0.1-13.2c-0.1-8.6-0.1-13-0.1-13.2c0-0.3,0-3.2,0-8.9c0-5.6,0-8.6,0-9c0-5.8-0.6-8.7-1.7-8.7
	h-5.2c-0.3,0-0.4-0.1-0.4-0.4v-1.4c0-0.3,0.2-0.4,0.5-0.4H341c0.5,0,1.2,0,2.1-0.1s1.3-0.1,1.3-0.1c0.4,0,0.5,0.1,0.4,0.4
	c-0.4,1.6-0.9,3.4-1.5,5.5c-0.2,0.7-0.5,1-0.7,1l-0.6-0.6c-1.1-1-2.7-1.8-5-2.2c-3.2-0.6-10-0.9-20.4-1c-0.3,0-0.6,0.2-0.7,0.5
	s-0.2,7.4-0.2,21.3c0,0.6,0.2,0.9,0.7,0.9h21c0.4,0,0.6-0.2,0.7-0.6c0.1-0.4,0.2-1.3,0.3-2.8c0.2-1.4,0.3-2.2,0.3-2.3
	c0-0.5,0.2-0.8,0.5-0.8h0.6c0.3,0,0.5,0.2,0.5,0.7c0,0.1-0.1,1.3-0.2,3.6s-0.2,3.6-0.2,4.1c0,0.4,0,1.9,0.1,4.5s0.1,4,0.1,4.1
	c0,0.6-0.2,0.9-0.5,0.9h-0.7c-0.3,0-0.5-0.2-0.5-0.6c-0.1-1.8-0.3-4-0.4-6.5c-0.1-0.6-0.4-0.9-0.8-0.9c-0.3,0-3.8-0.1-10.6-0.2
	c-6.8-0.1-10.3-0.2-10.4-0.2c-0.4,0-0.6,0.3-0.6,0.8V72c0,6.9,0.7,10.3,2.2,10.3c13.4,0,22.3-1,26.7-3.1c1.1-0.6,1.7-1,1.9-1.1
	C346.7,78.1,346.8,78.3,346.7,78.7z M447,66c0,5.6-2,10.1-6,13.6c-4.5,3.9-10.6,5.9-18.4,5.9c-0.9,0-3.6-0.1-8.2-0.3
	s-8.1-0.3-10.3-0.3h-8.2c-0.3,0-0.4-0.1-0.4-0.4v-1.9c0-0.4,0.1-0.5,0.4-0.5h7.4c0.9,0,1.3-0.6,1.3-1.9c0-0.4-0.1-5.8-0.2-16
	c-0.2-10.3-0.2-15.9-0.2-17V25.8c-0.3-6.6-1-9.9-2.1-9.9H394c-0.3,0-0.4-0.2-0.4-0.6v-1.7c0-0.3,0.2-0.5,0.5-0.5H410
	c0.5,0,2.4-0.1,5.7-0.2s5.3-0.2,5.8-0.2h5.2c1.7,0.1,4,0.5,6.9,1.2c2.7,1.1,5,2.7,6.9,4.9c2.2,2.6,3.3,5.8,3.3,9.6
	c0,2.8-0.5,5.3-1.5,7.3c-0.4,0.9-1.4,2.2-2.9,4.1c-2,2.6-4.7,4.8-8.1,6.7c-0.7,0.4-0.7,0.7-0.1,0.9c3.9,1.2,7.5,3.2,10.6,6.1
	C445.3,56.7,447,60.8,447,66z M435.7,32.9c0-4.6-1.6-8.6-4.8-11.9c-3.2-3.3-7.5-5-12.9-5c-2.4,0-4,0.1-4.7,0.3
	c-0.5,0.1-0.8,0.5-0.9,1.1c-0.1,0.7-0.1,9.9-0.1,27.6c0,0.7,0.2,1,0.6,1c-0.1,0,0.6,0,2.2-0.1c1.5,0,3.1-0.1,4.6-0.1
	c0.7,0,2,0.1,4.1,0.3c2.4,0.2,3.7,0.4,3.8,0.4c0.3,0,0.7-0.1,1.3-0.4c2.1-1.1,3.7-2.8,4.9-5.1C435,38.4,435.7,35.7,435.7,32.9z
	 M437.9,67.4c0-4.9-1.6-9-4.9-12.3c-4.6-4.6-10.7-6.9-18.4-6.9c-0.9,0-1.6,0.1-2,0.3c-0.2,0.1-0.4,0.4-0.4,1.1V73
	c0.2,5.5,0.8,8.4,1.8,8.8c1.9,0.8,4.8,1.2,8.5,1.2c4.6,0,8.2-1.2,10.8-3.5C436.4,76.7,437.9,72.7,437.9,67.4z M511.2,84.3
	c0,0.3-0.1,0.5-0.3,0.5h-14c-0.3,0-0.7-0.2-1.1-0.5c-1.1-0.9-3.1-3.4-6-7.2c-1.5-2.1-3.1-4.2-4.6-6.3c-1.7-2.6-4.1-6.6-7.1-12
	c-0.2-0.5-0.4-0.7-0.7-0.7c-1.3,0-3.7-0.2-7.1-0.5c-0.5-0.1-0.7,0-0.7,0.4c0,0.5,0,2.4,0,5.4c0,3,0,6.3,0,9.7c0,6.3,0.6,9.4,1.9,9.4
	h7.6c0.3,0,0.4,0.1,0.4,0.4v1.4c0,0.3-0.1,0.4-0.3,0.4h-22.8c-0.3,0-0.4,0-0.5-0.1s-0.1-0.2-0.1-0.3V83c0-0.3,0-0.4,0.1-0.5
	s0.2-0.1,0.3-0.1h5.6c0.5,0,0.7-0.4,0.7-1.3V58.3V40.5c-0.1-7.9-0.6-11.8-1.5-11.8h-5.5c-0.3,0-0.4-0.1-0.4-0.3v-1.6
	c0-0.2,0.1-0.3,0.3-0.3h12.8c0.4,0,2-0.1,4.9-0.2s4.5-0.2,4.8-0.2c1.9,0,3.7,0.1,5.5,0.4c4,0.6,7.1,2.1,9.5,4.4
	c2.8,2.7,4.2,6,4.2,10.1c0,4.6-1.4,8.5-4.1,11.4c-1.7,1.8-4.5,3.4-8.3,4.7c-0.2,0.1-0.3,0.3-0.3,0.5c1.3,3.3,4.2,7.5,8.7,12.7
	c2.4,2.7,4.1,4.6,5.2,5.8c1.9,2,3.6,3.5,4.9,4.5c1.8,1.3,4.1,2,6.9,2c0.5,0,0.7,0.1,0.7,0.3v1.4H511.2z M490.4,43.3
	c0-3.8-1.3-6.9-3.8-9.3c-3.5-3.3-8.6-5-15.3-5c-1,0-1.5,0.2-1.6,0.6c0,8.2-0.1,13.3-0.2,15.4v9.8c0,0.3,0.2,0.5,0.6,0.6
	c0.7,0.1,2.5,0.2,5.5,0.2c1.2,0,2.6-0.1,4.1-0.3s2.2-0.3,2.1-0.3C487.6,53.4,490.4,49.5,490.4,43.3z M537.4,84.5
	c0,0.2-0.1,0.3-0.3,0.3h-20.8c-0.3,0-0.4,0-0.5-0.1s-0.1-0.2-0.1-0.3v-1.3c0-0.3,0-0.4,0.1-0.5s0.2-0.1,0.3-0.1h5.8
	c0.4,0,0.6-0.4,0.6-1.2l-0.1-44.4c0-5.4-0.5-8.1-1.5-8.1h-5.5c-0.4,0-0.6-0.1-0.6-0.4v-1.5c0-0.2,0.1-0.3,0.4-0.3h21
	c0.3,0,0.4,0.1,0.4,0.3v1.6c0,0.2-0.2,0.3-0.5,0.3H530c-0.5,0-0.8,0.3-0.8,0.9c-0.1,26-0.1,39.4-0.1,40.3c0,4.2,0,6.7,0,7.3
	c0.2,3.6,0.8,5.3,1.7,5.3h6.1c0.2,0,0.3,0.1,0.3,0.3v1.6H537.4z M597.1,55.2c0,11.9-4,20.5-11.9,25.8c-2.9,1.9-6.1,3.2-9.8,3.8
	c-2.2,0.3-5.5,0.5-9.8,0.5c-2,0-4.7-0.1-7.9-0.2c-3.3-0.1-6-0.2-8.1-0.2h-4.8c-0.3,0-0.4-0.1-0.4-0.4c0-0.1,0-0.3,0-0.6
	c0-0.3,0-0.6,0-0.8c0-0.3,0.2-0.4,0.5-0.4h6c0.5,0,0.7-0.4,0.7-1.3c0-0.4,0-4.2-0.1-11.3s-0.1-11-0.1-11.6V47.9
	c0.1-6.2,0.1-9.7,0-10.3c-0.2-5.8-0.7-8.7-1.6-8.7h-6.1c-0.3,0-0.5-0.1-0.5-0.4v-1.4c0-0.3,0.2-0.4,0.6-0.4h26.4
	c4.4,0,7.9,0.6,10.5,1.7c1.7,0.7,3,1.4,3.8,1.8c1.8,1.1,3.6,2.4,5.3,4.1C594.7,38.9,597.1,46,597.1,55.2z M591.1,61
	c0-8.6-2.2-15.7-6.7-21.3c-3.2-3.9-6.6-6.6-10.4-8.2c-3.9-1.6-7.8-2.4-11.6-2.4c-1.6,0-2.7,0.1-3.4,0.2c-0.6,0.1-0.9,0.7-0.9,1.7
	c0,0.4,0,4,0,10.6s0,10.4,0,11.3v17.4c0,7.4,0.5,11.3,1.4,11.4c2.3,0.4,6.1,0.6,11.6,0.6c6,0,10.6-1.6,13.9-4.7
	C589,73.8,591.1,68.2,591.1,61z M657.6,84.4c0,0.3-0.1,0.4-0.3,0.4h-19.8c-0.3,0-0.4-0.2-0.4-0.5v-1.2c0-0.4,0.1-0.6,0.4-0.6h5.9
	c0.5,0,0.6-0.3,0.6-0.8c-0.3-0.9-1.2-3.9-3-9c-1.7-5.1-2.7-7.8-2.8-8.1c-0.2-0.6-0.5-0.9-0.9-0.9h-20.8c-0.3,0.1-0.5,0.2-0.6,0.5
	c-0.4,0.8-1.1,2.6-2.1,5.4s-1.6,4.8-1.8,5.8c-0.5,2.3-0.7,3.7-0.7,4.1c0,1.9,0.2,2.8,0.7,2.8h6.5c0.3,0,0.5,0.2,0.5,0.6v1.2
	c0,0.3-0.1,0.4-0.4,0.4h-17.4c-0.3,0-0.4-0.1-0.4-0.4V83c0-0.3,0.1-0.4,0.3-0.4h3.7c0.6,0,1.5-1.3,2.6-4s4.3-10.5,9.6-23.3
	c3.4-8.1,7.5-17.9,12.4-29.5c0.3-0.9,0.6-1.4,0.9-1.5c0.8-0.2,1.8-0.6,3.1-1.1c0.2-0.1,0.4,0.1,0.7,0.5s0.1,0.8-0.3,1.3
	c-0.9,0.9-1.3,1.7-1.3,2.6s0.2,1.9,0.6,3.2c1.5,4.3,4.3,12.3,8.4,24.1c4,11.8,6.8,19.4,8.4,22.9c1.5,3.2,2.6,4.9,3.3,4.9h4
	c0.2,0,0.3,0.2,0.3,0.6L657.6,84.4L657.6,84.4z M636.4,59.9c-1.2-3.4-2.4-7.1-3.8-11.2c-1.3-4.1-2.7-8.3-4.2-12.7
	c-0.1-0.4-0.2-0.6-0.3-0.7c-0.1,0.1-0.3,0.3-0.4,0.7c-3.6,8.8-6.2,15-7.7,18.6c-1.6,3.7-2.3,5.6-2.3,5.7c0,0.2,0.1,0.3,0.4,0.3h18.2
	C636.4,60.6,636.5,60.4,636.4,59.9z M706.4,78.8c0,0.3-0.5,1.2-1.4,2.7c-0.2,0.6-0.7,1.5-1.5,2.8c-0.2,0.3-0.5,0.5-0.7,0.5h-40.9
	c-0.3,0-0.5-0.1-0.5-0.4V83c0-0.3,0.1-0.4,0.4-0.4h6.4c0.5,0,0.8-0.3,0.8-0.9c0-0.3,0-2-0.1-5.2s-0.1-10.3,0-21.3s0.2-16.8,0.2-17.3
	c0-6.1-0.6-9.2-1.7-9.2h-4.9c-0.4,0-0.6-0.2-0.6-0.5V27c0-0.3,0.2-0.5,0.5-0.5h23.2c0.3,0,0.4,0.1,0.4,0.3v1.5
	c0,0.3-0.1,0.4-0.3,0.4h-8.5c-0.4,0-0.7,0.2-0.8,0.6s-0.2,7.4-0.4,21c-0.2,12.8-0.3,20.1-0.3,21.8c0,6.6,0.8,9.9,2.3,9.9
	c9.3,0,14.6-0.1,15.9-0.2c4.5-0.4,8.1-1.4,10.8-3.1c0.7-0.4,1.1-0.6,1.2-0.6C706.3,78.3,706.4,78.6,706.4,78.8z M745.7,68.7
	c0,4.8-1.5,8.7-4.6,11.7c-3.2,3.2-7.9,4.8-14.1,4.8c-7.2,0-12.3-1.3-15.3-4c-0.3-0.3-0.5-0.9-0.5-1.8c0-0.2,0-1.9,0-5
	c0-3.2,0-4.8,0-5.1c0-0.4,0.2-0.6,0.6-0.6h1.8c0.3,0,0.5,0.2,0.6,0.6s0.1,1.3,0.3,2.7c0.2,3.1,1.3,5.6,3.4,7.6
	c1,0.9,2.4,1.7,4.3,2.3c1.9,0.6,3.5,0.9,5,0.9c5.7,0,9.6-1.9,11.5-5.7c0.9-1.8,1.3-4,1.3-6.6c0-2.3-0.8-4.4-2.4-6.1
	c-1.8-1.9-5-3.7-9.6-5.3c-5.2-1.8-8.8-3.7-11-5.5c-2.9-2.4-4.3-6.2-4.3-11.4c0-4.9,2-9,5.9-12.3c3-2.6,7-3.9,11.9-3.9
	c3.2,0,6.2,0.5,9,1.6c1.8,0.7,3.1,1.4,3.9,2.1c0.4,0.3,0.6,0.7,0.7,1.2c0.3,2.2,0.5,5.1,0.5,8.8c0,0.6-0.1,0.9-0.3,0.9h-2.1
	c-0.2,0-0.3-0.2-0.4-0.5c-0.2-0.8-0.4-1.9-0.6-3.3c-0.4-2-1.4-3.4-3-4.3c-2.9-1.7-6.2-2.5-10-2.5c-3.4,0-5.9,0.7-7.6,2.2
	c-1.7,1.5-2.6,4.2-2.6,8c0,2.3,0.8,4.4,2.4,6.1c0.8,0.9,2.3,1.8,4.5,2.8c1.9,0.7,3.7,1.5,5.6,2.3c3.7,1.6,5.9,2.6,6.5,3
	c2.1,1.2,4,2.6,5.5,4.3C744.6,61.3,745.7,64.6,745.7,68.7z"/>
<g>
	
		<image style="overflow:visible;opacity:0.75;" width="772" height="108" xlink:href="D90DF57A.png"  transform="matrix(1 0 0 1 -4.8208 -0.5)">
	</image>
	<g>
		
			<linearGradient id="SVGID_1_" gradientUnits="userSpaceOnUse" x1="4.0792" y1="63.3125" x2="744.9792" y2="63.3125" gradientTransform="matrix(1 0 0 -1 0 110)">
			<stop  offset="0" style="stop-color:#2484C6"/>
			<stop  offset="1" style="stop-color:#FFFFC6"/>
		</linearGradient>
		<path class="st2" d="M74.4,83.7c0,0.4-0.1,0.5-0.3,0.5H49.6c-0.4,0-0.5-0.2-0.5-0.6v-1.4c0-0.5,0.2-0.7,0.5-0.7h7.3
			c0.6,0,0.8-0.3,0.7-1c-0.3-1.1-1.5-4.8-3.7-11.1c-2.1-6.3-3.3-9.6-3.5-10.1c-0.3-0.7-0.7-1.1-1.1-1.1H23.5
			c-0.3,0.1-0.6,0.3-0.8,0.6c-0.5,1-1.3,3.2-2.6,6.7c-1.2,3.5-2,5.9-2.2,7.2c-0.6,2.8-0.9,4.5-0.9,5.1c0,2.3,0.3,3.5,0.9,3.5H26
			c0.4,0,0.6,0.2,0.6,0.7v1.5c0,0.4-0.2,0.5-0.5,0.5H4.6c-0.4,0-0.5-0.2-0.5-0.5V82c0-0.4,0.1-0.5,0.4-0.5h4.6c0.8,0,1.8-1.7,3.2-5
			c1.3-3.3,5.3-13,11.9-28.9c4.2-10,9.3-22.2,15.4-36.5c0.4-1.1,0.8-1.7,1.2-1.9c1-0.3,2.3-0.7,3.8-1.3c0.2-0.1,0.5,0.1,0.9,0.6
			c0.3,0.5,0.2,1-0.4,1.6c-1.1,1.1-1.6,2.2-1.6,3.2c0,1.1,0.2,2.4,0.7,4c1.9,5.3,5.4,15.3,10.4,29.9s8.5,24,10.4,28.3
			c1.9,4,3.2,6,4,6h5c0.3,0,0.4,0.2,0.4,0.7C74.4,82.2,74.4,83.7,74.4,83.7z M48.1,53.4c-1.5-4.2-3-8.8-4.7-13.9
			c-1.7-5-3.4-10.3-5.2-15.7c-0.1-0.5-0.2-0.7-0.4-0.9c-0.1,0.1-0.3,0.4-0.5,0.9c-4.4,10.9-7.6,18.6-9.6,23.1
			c-1.9,4.5-2.9,6.9-2.9,7c0,0.2,0.2,0.3,0.5,0.3h22.5C48.1,54.2,48.2,54,48.1,53.4z M123.3,78.2c0,0.3-0.5,1.2-1.4,2.7
			c-0.2,0.6-0.7,1.5-1.5,2.8c-0.2,0.3-0.5,0.5-0.7,0.5H78.8c-0.3,0-0.5-0.1-0.5-0.4v-1.4c0-0.3,0.1-0.4,0.4-0.4h6.4
			c0.5,0,0.8-0.3,0.8-0.9c0-0.3,0-2-0.1-5.2s-0.1-10.3,0-21.3S86,37.8,86,37.3c0-6.1-0.6-9.2-1.7-9.2h-4.9c-0.4,0-0.6-0.2-0.6-0.5
			v-1.2c0-0.3,0.2-0.5,0.5-0.5h23.2c0.3,0,0.4,0.1,0.4,0.3v1.5c0,0.3-0.1,0.4-0.3,0.4H94c-0.4,0-0.7,0.2-0.8,0.6
			c-0.1,0.4-0.2,7.4-0.4,21c-0.2,12.8-0.3,20.1-0.3,21.8c0,6.6,0.8,9.9,2.3,9.9c9.3,0,14.6-0.1,15.9-0.2c4.5-0.4,8.1-1.4,10.8-3.1
			c0.7-0.4,1.1-0.6,1.2-0.6C123.2,77.8,123.3,78,123.3,78.2z M171.6,78.2c0,0.3-0.5,1.2-1.4,2.7c-0.2,0.6-0.7,1.5-1.5,2.8
			c-0.2,0.3-0.5,0.5-0.7,0.5h-40.9c-0.3,0-0.5-0.1-0.5-0.4v-1.4c0-0.3,0.1-0.4,0.4-0.4h6.4c0.5,0,0.8-0.3,0.8-0.9c0-0.3,0-2-0.1-5.2
			s-0.1-10.3,0-21.3s0.2-16.8,0.2-17.3c0-6.1-0.6-9.2-1.7-9.2h-4.9c-0.4,0-0.6-0.2-0.6-0.5v-1.2c0-0.3,0.2-0.5,0.5-0.5h23.2
			c0.3,0,0.4,0.1,0.4,0.3v1.5c0,0.3-0.1,0.4-0.3,0.4h-8.6c-0.4,0-0.7,0.2-0.8,0.6s-0.2,7.4-0.4,21c-0.2,12.8-0.3,20.1-0.3,21.8
			c0,6.6,0.8,9.9,2.3,9.9c9.3,0,14.6-0.1,15.9-0.2c4.5-0.4,8.1-1.4,10.8-3.1c0.7-0.4,1.1-0.6,1.2-0.6
			C171.5,77.8,171.6,78,171.6,78.2z M234.2,27.6c0,0.3-0.1,0.5-0.3,0.5h-2.4c-2.2,0-3.4,0-3.7,0.1c-0.1,0.5-0.2,1.2-0.2,1.9
			c-0.1,1.8-0.2,4.7-0.3,8.6c0,5.5,0,12.9,0.2,22.1c0.3,16.5-6.5,24.7-20.4,24.7c-6,0-10.8-0.6-14.6-1.9c-3.7-1.3-6.4-3.6-8-6.8
			c-1.3-2.7-2.1-6.7-2.3-12.2c-0.1-3.5-0.2-12.3-0.2-26.5c0-6.7-0.6-10.1-1.7-10.1h-5.8c-0.3,0-0.5-0.1-0.5-0.4v-1.3
			c0-0.3,0.2-0.5,0.5-0.5h21.1c0.3,0,0.5,0.1,0.5,0.3v1.3c0,0.4-0.1,0.6-0.3,0.6h-6c-0.3,0-0.5,0.2-0.6,0.7
			c-0.2,1.2-0.3,10.6-0.3,28.3c0,6.2,0.2,10.3,0.5,12.5c0.7,4.1,2.6,7.2,5.7,9.3c3.2,2.1,7.4,3.2,12.8,3.2c5.4,0,9.7-1.6,12.9-4.9
			c2.5-2.5,3.7-7.3,3.7-14.6c0-9.6-0.1-16.7-0.3-21.4c-0.3-8.8-1.3-13.2-2.8-13.2h-5.2c-0.2,0-0.4,0-0.4-0.1
			c-0.1-0.1-0.1-0.2-0.1-0.3v-1.4c0-0.3,0.2-0.4,0.5-0.4h17.5c0.3,0,0.4,0.1,0.4,0.4v1.5H234.2z M297.3,83.8c0,0.3-0.1,0.5-0.3,0.5
			h-14c-0.3,0-0.7-0.2-1.1-0.5c-1.1-0.9-3.1-3.4-6-7.2c-1.5-2.1-3.1-4.2-4.6-6.3c-1.7-2.6-4.1-6.6-7.1-12c-0.2-0.5-0.4-0.7-0.7-0.7
			c-1.3,0-3.7-0.2-7.1-0.5c-0.5-0.1-0.7,0-0.7,0.4c0,0.5,0,2.4,0,5.4c0,3.1,0,6.3,0,9.7c0,6.3,0.6,9.4,1.9,9.4h7.6
			c0.3,0,0.4,0.1,0.4,0.4v1.4c0,0.3-0.1,0.4-0.3,0.4h-22.8c-0.3,0-0.4,0-0.5-0.1s-0.1-0.2-0.1-0.3v-1.3c0-0.3,0-0.4,0.1-0.5
			s0.2-0.1,0.3-0.1h5.6c0.5,0,0.7-0.4,0.7-1.3V57.7V39.9c-0.1-7.9-0.6-11.8-1.5-11.8h-5.5c-0.3,0-0.4-0.1-0.4-0.3v-1.6
			c0-0.2,0.1-0.3,0.3-0.3h12.8c0.4,0,2-0.1,4.9-0.2s4.5-0.2,4.8-0.2c1.9,0,3.7,0.1,5.5,0.4c4,0.6,7.1,2.1,9.5,4.4
			c2.8,2.7,4.2,6,4.2,10.1c0,4.6-1.4,8.5-4.1,11.4c-1.7,1.8-4.5,3.4-8.3,4.7c-0.2,0.1-0.3,0.3-0.3,0.5c1.3,3.3,4.2,7.5,8.7,12.7
			c2.4,2.7,4.1,4.6,5.2,5.8c1.9,2,3.6,3.5,4.9,4.5c1.8,1.3,4.1,2,6.9,2c0.5,0,0.7,0.1,0.7,0.3v1.5H297.3z M276.5,42.7
			c0-3.8-1.3-6.9-3.8-9.3c-3.5-3.3-8.6-5-15.3-5c-1,0-1.5,0.2-1.6,0.6c0,8.2-0.1,13.3-0.2,15.4v9.8c0,0.3,0.2,0.5,0.6,0.6
			c0.7,0.1,2.5,0.2,5.5,0.2c1.2,0,2.6-0.1,4.1-0.3s2.2-0.3,2.1-0.3C273.6,52.8,276.5,48.9,276.5,42.7z M346,78.1
			c-0.8,1.6-1.8,3.5-2.9,5.6c-0.2,0.3-0.5,0.5-0.9,0.5h-40.6c-0.3,0-0.4-0.2-0.4-0.5v-1.3c0-0.3,0.1-0.4,0.3-0.4h6.4
			c0.6,0,0.9-0.3,0.9-0.9c0-0.3,0-4.7-0.1-13.2c-0.1-8.6-0.1-13-0.1-13.2c0-0.3,0-3.2,0-8.9c0-5.6,0-8.6,0-9c0-5.8-0.6-8.7-1.7-8.7
			h-5.2c-0.3,0-0.4-0.1-0.4-0.4v-1.4c0-0.3,0.2-0.4,0.5-0.4h38.5c0.5,0,1.2,0,2.1-0.1s1.3-0.1,1.3-0.1c0.4,0,0.5,0.1,0.4,0.4
			c-0.4,1.6-0.9,3.4-1.5,5.5c-0.2,0.7-0.5,1-0.7,1l-0.6-0.6c-1.1-1-2.7-1.8-5-2.2c-3.2-0.6-10-0.9-20.4-1c-0.3,0-0.6,0.2-0.7,0.5
			s-0.2,7.4-0.2,21.3c0,0.6,0.2,0.9,0.7,0.9h21c0.4,0,0.6-0.2,0.7-0.6c0.1-0.4,0.2-1.3,0.3-2.8c0.2-1.4,0.3-2.2,0.3-2.3
			c0-0.5,0.2-0.8,0.5-0.8h0.6c0.3,0,0.5,0.2,0.5,0.7c0,0.1-0.1,1.3-0.2,3.6s-0.2,3.6-0.2,4.1c0,0.4,0,1.9,0.1,4.5s0.1,4,0.1,4.1
			c0,0.6-0.2,0.9-0.5,0.9h-0.7c-0.3,0-0.5-0.2-0.5-0.6c-0.1-1.8-0.3-4-0.4-6.5c-0.1-0.6-0.4-0.9-0.8-0.9c-0.3,0-3.8-0.1-10.6-0.2
			c-6.8-0.1-10.3-0.2-10.4-0.2c-0.4,0-0.6,0.3-0.6,0.8v16.2c0,6.9,0.7,10.3,2.2,10.3c13.4,0,22.3-1,26.7-3.1c1.1-0.6,1.7-1,1.9-1.1
			C346,77.6,346.1,77.8,346,78.1z M446.3,65.4c0,5.6-2,10.1-6,13.6c-4.5,3.9-10.6,5.9-18.4,5.9c-0.9,0-3.6-0.1-8.2-0.3
			s-8.1-0.3-10.3-0.3h-8.2c-0.3,0-0.4-0.1-0.4-0.4V82c0-0.4,0.1-0.5,0.4-0.5h7.4c0.9,0,1.3-0.6,1.3-1.9c0-0.4-0.1-5.8-0.2-16
			c-0.1-10.3-0.2-15.9-0.2-16.9V25.2c-0.3-6.6-1-9.9-2.1-9.9h-8.1c-0.3,0-0.4-0.2-0.4-0.6V13c0-0.3,0.2-0.5,0.5-0.5h15.9
			c0.5,0,2.4-0.1,5.7-0.2s5.3-0.2,5.8-0.2h5.2c1.7,0.1,4,0.5,6.9,1.2c2.7,1.1,5,2.7,6.9,4.9c2.2,2.6,3.3,5.8,3.3,9.6
			c0,2.8-0.5,5.3-1.5,7.3c-0.4,0.9-1.4,2.2-2.9,4.1c-2,2.6-4.7,4.8-8.1,6.7c-0.7,0.4-0.7,0.7-0.1,0.9c3.9,1.2,7.5,3.2,10.6,6.1
			C444.6,56.2,446.3,60.3,446.3,65.4z M435,32.3c0-4.6-1.6-8.6-4.8-11.9c-3.2-3.3-7.5-5-12.9-5c-2.4,0-4,0.1-4.7,0.3
			c-0.5,0.1-0.8,0.5-0.9,1.1c-0.1,0.7-0.1,9.9-0.1,27.6c0,0.7,0.2,1,0.6,1c-0.1,0,0.6,0,2.2-0.1c1.5,0,3.1-0.1,4.6-0.1
			c0.7,0,2,0.1,4.1,0.3c2.4,0.2,3.7,0.4,3.8,0.4c0.3,0,0.7-0.1,1.3-0.4c2.1-1.1,3.7-2.8,4.9-5.1C434.3,37.8,435,35.1,435,32.3z
			 M437.3,66.8c0-4.9-1.6-9-4.9-12.3c-4.6-4.6-10.7-6.9-18.4-6.9c-0.9,0-1.6,0.1-2,0.3c-0.2,0.1-0.4,0.4-0.4,1.1v23.4
			c0.2,5.5,0.8,8.4,1.8,8.8c1.9,0.8,4.8,1.2,8.5,1.2c4.6,0,8.2-1.2,10.8-3.5C435.7,76.2,437.3,72.1,437.3,66.8z M510.6,83.8
			c0,0.3-0.1,0.5-0.3,0.5h-14c-0.3,0-0.7-0.2-1.1-0.5c-1.1-0.9-3.1-3.4-6-7.2c-1.5-2.1-3.1-4.2-4.6-6.3c-1.7-2.6-4.1-6.6-7.1-12
			c-0.2-0.5-0.4-0.7-0.7-0.7c-1.3,0-3.7-0.2-7.1-0.5c-0.5-0.1-0.7,0-0.7,0.4c0,0.5,0,2.4,0,5.4c0,3.1,0,6.3,0,9.7
			c0,6.3,0.6,9.4,1.9,9.4h7.6c0.3,0,0.4,0.1,0.4,0.4v1.4c0,0.3-0.1,0.4-0.3,0.4h-22.8c-0.3,0-0.4,0-0.5-0.1s-0.1-0.2-0.1-0.3v-1.3
			c0-0.3,0-0.4,0.1-0.5s0.2-0.1,0.3-0.1h5.6c0.5,0,0.7-0.4,0.7-1.3V57.7V39.9c-0.1-7.9-0.6-11.8-1.5-11.8h-5.5
			c-0.3,0-0.4-0.1-0.4-0.3v-1.6c0-0.2,0.1-0.3,0.3-0.3h12.8c0.4,0,2-0.1,4.9-0.2s4.5-0.2,4.8-0.2c1.9,0,3.7,0.1,5.5,0.4
			c4,0.6,7.1,2.1,9.5,4.4c2.8,2.7,4.2,6,4.2,10.1c0,4.6-1.4,8.5-4.1,11.4c-1.7,1.8-4.5,3.4-8.3,4.7c-0.2,0.1-0.3,0.3-0.3,0.5
			c1.3,3.3,4.2,7.5,8.7,12.7c2.4,2.7,4.1,4.6,5.2,5.8c1.9,2,3.6,3.5,4.9,4.5c1.8,1.3,4.1,2,6.9,2c0.5,0,0.7,0.1,0.7,0.3v1.5H510.6z
			 M489.7,42.7c0-3.8-1.3-6.9-3.8-9.3c-3.5-3.3-8.6-5-15.3-5c-1,0-1.5,0.2-1.6,0.6c0,8.2-0.1,13.3-0.2,15.4v9.8
			c0,0.3,0.2,0.5,0.6,0.6c0.7,0.1,2.5,0.2,5.5,0.2c1.2,0,2.6-0.1,4.1-0.3s2.2-0.3,2.1-0.3C486.9,52.8,489.7,48.9,489.7,42.7z
			 M536.7,83.9c0,0.2-0.1,0.3-0.3,0.3h-20.8c-0.3,0-0.4,0-0.5-0.1s-0.1-0.2-0.1-0.3v-1.3c0-0.3,0-0.4,0.1-0.5s0.2-0.1,0.3-0.1h5.8
			c0.4,0,0.6-0.4,0.6-1.2l-0.1-44.4c0-5.4-0.5-8.1-1.5-8.1h-5.5c-0.4,0-0.6-0.1-0.6-0.4v-1.5c0-0.2,0.1-0.3,0.4-0.3h20.8
			c0.3,0,0.4,0.1,0.4,0.3v1.6c0,0.2-0.2,0.3-0.5,0.3h-6.1c-0.5,0-0.8,0.3-0.8,0.9c-0.1,26-0.1,39.4-0.1,40.3c0,4.2,0,6.7,0,7.3
			c0.2,3.6,0.8,5.3,1.7,5.3h6.1c0.2,0,0.3,0.1,0.3,0.3v1.6H536.7z M596.4,54.6c0,11.9-4,20.5-11.9,25.8c-2.9,1.9-6.1,3.2-9.8,3.8
			c-2.2,0.3-5.5,0.5-9.8,0.5c-2,0-4.7-0.1-7.9-0.2c-3.3-0.1-6-0.2-8.1-0.2h-4.8c-0.3,0-0.4-0.1-0.4-0.4c0-0.1,0-0.3,0-0.6
			c0-0.3,0-0.6,0-0.8c0-0.3,0.2-0.4,0.5-0.4h6c0.5,0,0.7-0.4,0.7-1.3c0-0.4,0-4.2-0.1-11.3s-0.1-11-0.1-11.6V47.3
			c0.1-6.2,0.1-9.7,0-10.3c-0.2-5.8-0.7-8.7-1.6-8.7H543c-0.3,0-0.5-0.1-0.5-0.4v-1.4c0-0.3,0.2-0.4,0.6-0.4h26.6
			c4.4,0,7.9,0.6,10.5,1.7c1.7,0.7,3,1.4,3.8,1.8c1.8,1.1,3.6,2.4,5.3,4.1C594,38.4,596.4,45.4,596.4,54.6z M590.4,60.4
			c0-8.6-2.2-15.7-6.7-21.3c-3.2-3.9-6.6-6.6-10.4-8.2c-3.9-1.6-7.8-2.4-11.6-2.4c-1.6,0-2.7,0.1-3.4,0.2c-0.6,0.1-0.9,0.7-0.9,1.7
			c0,0.4,0,4,0,10.6s0,10.4,0,11.3v17.4c0,7.4,0.5,11.3,1.4,11.4c2.3,0.4,6.1,0.6,11.6,0.6c6,0,10.6-1.6,13.9-4.7
			C588.3,73.3,590.4,67.7,590.4,60.4z M657,83.9c0,0.3-0.1,0.4-0.3,0.4h-19.8c-0.3,0-0.4-0.2-0.4-0.5v-1.2c0-0.4,0.1-0.6,0.4-0.6
			h5.9c0.5,0,0.6-0.3,0.6-0.8c-0.3-0.9-1.2-3.9-3-9c-1.7-5.1-2.7-7.8-2.8-8.1c-0.2-0.6-0.5-0.9-0.9-0.9h-20.8
			c-0.3,0.1-0.5,0.2-0.6,0.5c-0.4,0.8-1.1,2.6-2.1,5.4s-1.6,4.8-1.8,5.8c-0.5,2.3-0.7,3.7-0.7,4.1c0,1.9,0.2,2.8,0.7,2.8h6.5
			c0.3,0,0.5,0.2,0.5,0.6v1.2c0,0.3-0.1,0.4-0.4,0.4h-17.4c-0.3,0-0.4-0.1-0.4-0.4v-1.4c0-0.3,0.1-0.4,0.3-0.4h3.7
			c0.6,0,1.5-1.3,2.6-4s4.3-10.5,9.6-23.3c3.4-8.1,7.5-17.9,12.4-29.5c0.3-0.9,0.6-1.4,0.9-1.5c0.8-0.2,1.8-0.6,3.1-1.1
			c0.2-0.1,0.4,0.1,0.7,0.5s0.1,0.8-0.3,1.3c-0.9,0.9-1.3,1.7-1.3,2.6s0.2,1.9,0.6,3.2c1.5,4.3,4.3,12.3,8.4,24.1
			c4,11.8,6.8,19.4,8.4,22.9c1.5,3.2,2.6,4.9,3.3,4.9h4c0.2,0,0.3,0.2,0.3,0.6L657,83.9L657,83.9z M635.7,59.4
			c-1.2-3.4-2.4-7.1-3.8-11.2c-1.3-4.1-2.7-8.3-4.2-12.7c-0.1-0.4-0.2-0.6-0.3-0.7c-0.1,0.1-0.3,0.3-0.4,0.7
			c-3.6,8.8-6.2,15-7.7,18.6c-1.6,3.7-2.3,5.6-2.3,5.7c0,0.2,0.1,0.3,0.4,0.3h18.2C635.8,60,635.8,59.8,635.7,59.4z M705.8,78.2
			c0,0.3-0.5,1.2-1.4,2.7c-0.2,0.6-0.7,1.5-1.5,2.8c-0.2,0.3-0.5,0.5-0.7,0.5h-41c-0.3,0-0.5-0.1-0.5-0.4v-1.4
			c0-0.3,0.1-0.4,0.4-0.4h6.4c0.5,0,0.8-0.3,0.8-0.9c0-0.3,0-2-0.1-5.2s-0.1-10.3,0-21.3s0.2-16.8,0.2-17.3c0-6.1-0.6-9.2-1.7-9.2
			h-4.9c-0.4,0-0.6-0.2-0.6-0.5v-1.2c0-0.3,0.2-0.5,0.5-0.5h23.2c0.3,0,0.4,0.1,0.4,0.3v1.5c0,0.3-0.1,0.4-0.3,0.4h-8.6
			c-0.4,0-0.7,0.2-0.8,0.6s-0.2,7.4-0.4,21c-0.2,12.8-0.3,20.1-0.3,21.8c0,6.6,0.8,9.9,2.3,9.9c9.3,0,14.6-0.1,15.9-0.2
			c4.5-0.4,8.1-1.4,10.8-3.1c0.7-0.4,1.1-0.6,1.2-0.6C705.6,77.8,705.8,78,705.8,78.2z M745,68.2c0,4.8-1.5,8.7-4.6,11.7
			c-3.2,3.2-7.9,4.8-14.1,4.8c-7.2,0-12.3-1.3-15.3-4c-0.3-0.3-0.5-0.9-0.5-1.8c0-0.2,0-1.9,0-5c0-3.2,0-4.8,0-5.1
			c0-0.4,0.2-0.6,0.6-0.6h1.8c0.3,0,0.5,0.2,0.6,0.6s0.1,1.3,0.3,2.7c0.2,3.1,1.3,5.6,3.4,7.6c1,0.9,2.4,1.7,4.3,2.3
			c1.9,0.6,3.5,0.9,5,0.9c5.7,0,9.6-1.9,11.5-5.7c0.9-1.8,1.3-4,1.3-6.6c0-2.3-0.8-4.4-2.4-6.1c-1.8-1.9-5-3.7-9.6-5.3
			c-5.2-1.8-8.8-3.7-11-5.5c-2.9-2.4-4.3-6.2-4.3-11.4c0-4.9,2-9,5.9-12.3c3-2.6,7-3.9,11.9-3.9c3.2,0,6.2,0.5,9,1.6
			c1.8,0.7,3.1,1.4,3.9,2.1c0.4,0.3,0.6,0.7,0.7,1.2c0.3,2.2,0.5,5.1,0.5,8.8c0,0.6-0.1,0.9-0.3,0.9h-2.1c-0.2,0-0.3-0.2-0.4-0.5
			c-0.2-0.8-0.4-1.9-0.6-3.3c-0.4-2-1.4-3.4-3-4.3c-2.9-1.7-6.2-2.5-10-2.5c-3.4,0-5.9,0.7-7.6,2.2c-1.7,1.5-2.6,4.2-2.6,8
			c0,2.3,0.8,4.4,2.4,6.1c0.8,0.9,2.3,1.8,4.5,2.8c1.9,0.7,3.7,1.5,5.6,2.3c3.7,1.6,5.9,2.6,6.5,3c2.1,1.2,4,2.6,5.5,4.3
			C743.9,60.7,745,64,745,68.2z"/>
	</g>
</g>
</svg>
