<?xml version="1.0" encoding="utf-8"?>
<!-- Generator: Adobe Illustrator 22.0.0, SVG Export Plug-In . SVG Version: 6.00 Build 0)  -->
<svg version="1.1" id="Layer_1" xmlns="http://www.w3.org/2000/svg" xmlns:xlink="http://www.w3.org/1999/xlink" x="0px" y="0px"
	 viewBox="0 0 792 107.5" style="enable-background:new 0 0 792 107.5;" xml:space="preserve">
<style type="text/css">
	.st0{fill:url(#SVGID_1_);}
</style>
<path d="M90.9,84.3c0,0.4-0.1,0.5-0.3,0.5H66c-0.4,0-0.5-0.2-0.5-0.6v-1.4c0-0.5,0.2-0.7,0.5-0.7h7.3c0.6,0,0.8-0.3,0.7-1
	c-0.3-1.1-1.5-4.8-3.7-11.1c-2.1-6.3-3.3-9.6-3.5-10.1c-0.3-0.7-0.7-1.1-1.1-1.1H40c-0.3,0.1-0.6,0.3-0.8,0.6
	c-0.5,1-1.3,3.2-2.6,6.7c-1.2,3.5-2,5.9-2.2,7.2c-0.6,2.8-0.9,4.5-0.9,5.1c0,2.3,0.3,3.5,0.9,3.5h8.1c0.4,0,0.6,0.2,0.6,0.7v1.5
	c0,0.4-0.2,0.5-0.5,0.5H21.1c-0.4,0-0.5-0.2-0.5-0.5v-1.8c0-0.4,0.1-0.5,0.4-0.5h4.6c0.8,0,1.8-1.7,3.2-5c1.3-3.3,5.3-13,11.9-28.9
	c4.2-10,9.3-22.2,15.4-36.5c0.4-1.1,0.8-1.7,1.2-1.9c1-0.3,2.3-0.7,3.8-1.3c0.2-0.1,0.5,0.1,0.9,0.6c0.3,0.5,0.2,1-0.4,1.6
	c-1.1,1.1-1.6,2.2-1.6,3.2c0,1.1,0.2,2.4,0.7,4C62.5,23.1,66,33.1,71,47.7c5,14.6,8.5,24,10.4,28.3c1.9,4,3.2,6,4,6h5
	c0.3,0,0.4,0.2,0.4,0.7V84.3z M64.5,54c-1.5-4.2-3-8.8-4.7-13.9c-1.7-5-3.4-10.3-5.2-15.7c-0.1-0.5-0.2-0.7-0.4-0.9
	c-0.1,0.1-0.3,0.4-0.5,0.9c-4.4,10.9-7.6,18.6-9.6,23.1c-1.9,4.5-2.9,6.9-2.9,7c0,0.2,0.2,0.3,0.5,0.3h22.5
	C64.6,54.8,64.7,54.5,64.5,54z M139.8,78.8c0,0.3-0.5,1.2-1.4,2.7c-0.2,0.6-0.7,1.5-1.5,2.8c-0.2,0.3-0.5,0.5-0.7,0.5H95.3
	c-0.3,0-0.5-0.1-0.5-0.4V83c0-0.3,0.1-0.4,0.4-0.4h6.4c0.5,0,0.8-0.3,0.8-0.9c0-0.3,0-2-0.1-5.2c-0.1-3.2-0.1-10.3,0-21.3
	c0.1-11,0.2-16.8,0.2-17.3c0-6.1-0.6-9.2-1.7-9.2H96c-0.4,0-0.6-0.2-0.6-0.5v-1.2c0-0.3,0.2-0.5,0.5-0.5h23.2c0.3,0,0.4,0.1,0.4,0.3
	v1.5c0,0.3-0.1,0.4-0.3,0.4h-8.6c-0.4,0-0.7,0.2-0.8,0.6c-0.1,0.4-0.2,7.4-0.4,21c-0.2,12.8-0.3,20.1-0.3,21.8
	c0,6.6,0.8,9.9,2.3,9.9c9.3,0,14.6-0.1,15.9-0.2c4.5-0.4,8.1-1.4,10.8-3.1c0.7-0.4,1.1-0.6,1.2-0.6
	C139.6,78.3,139.8,78.6,139.8,78.8z M188.1,78.8c0,0.3-0.5,1.2-1.4,2.7c-0.2,0.6-0.7,1.5-1.5,2.8c-0.2,0.3-0.5,0.5-0.7,0.5h-40.9
	c-0.3,0-0.5-0.1-0.5-0.4V83c0-0.3,0.1-0.4,0.4-0.4h6.4c0.5,0,0.8-0.3,0.8-0.9c0-0.3,0-2-0.1-5.2c-0.1-3.2-0.1-10.3,0-21.3
	c0.1-11,0.2-16.8,0.2-17.3c0-6.1-0.6-9.2-1.7-9.2h-4.9c-0.4,0-0.6-0.2-0.6-0.5v-1.2c0-0.3,0.2-0.5,0.5-0.5h23.2
	c0.3,0,0.4,0.1,0.4,0.3v1.5c0,0.3-0.1,0.4-0.3,0.4h-8.6c-0.4,0-0.7,0.2-0.8,0.6c-0.1,0.4-0.2,7.4-0.4,21
	c-0.2,12.8-0.3,20.1-0.3,21.8c0,6.6,0.8,9.9,2.3,9.9c9.3,0,14.6-0.1,15.9-0.2c4.5-0.4,8.1-1.4,10.8-3.1c0.7-0.4,1.1-0.6,1.2-0.6
	C187.9,78.3,188.1,78.6,188.1,78.8z M250.6,28.2c0,0.3-0.1,0.5-0.3,0.5h-2.4c-2.2,0-3.4,0-3.7,0.1c-0.1,0.5-0.2,1.2-0.2,1.9
	c-0.1,1.8-0.2,4.7-0.3,8.6c0,5.5,0,12.9,0.2,22.1c0.3,16.5-6.5,24.7-20.4,24.7c-6,0-10.8-0.6-14.6-1.9c-3.7-1.3-6.4-3.6-8-6.8
	c-1.3-2.7-2.1-6.7-2.3-12.2c-0.1-3.5-0.2-12.3-0.2-26.5c0-6.7-0.6-10.1-1.7-10.1h-5.8c-0.3,0-0.5-0.1-0.5-0.4v-1.3
	c0-0.3,0.2-0.5,0.5-0.5h21.1c0.3,0,0.5,0.1,0.5,0.3v1.3c0,0.4-0.1,0.6-0.3,0.6h-6c-0.3,0-0.5,0.2-0.6,0.7
	c-0.2,1.2-0.3,10.6-0.3,28.3c0,6.2,0.2,10.3,0.5,12.5c0.7,4.1,2.6,7.2,5.7,9.3c3.2,2.1,7.4,3.2,12.8,3.2c5.4,0,9.7-1.6,12.9-4.9
	c2.5-2.5,3.7-7.3,3.7-14.6c0-9.6-0.1-16.7-0.3-21.4c-0.3-8.8-1.3-13.2-2.8-13.2h-5.5c-0.2,0-0.4,0-0.4-0.1c-0.1-0.1-0.1-0.2-0.1-0.3
	v-1.4c0-0.3,0.2-0.4,0.5-0.4h17.5c0.3,0,0.4,0.1,0.4,0.4V28.2z M313.8,84.3c0,0.3-0.1,0.5-0.3,0.5h-14c-0.3,0-0.7-0.2-1.1-0.5
	c-1.1-0.9-3.1-3.4-6-7.2c-1.5-2.1-3.1-4.2-4.6-6.3c-1.7-2.6-4.1-6.6-7.1-12c-0.2-0.5-0.4-0.7-0.7-0.7c-1.3,0-3.7-0.2-7.1-0.5
	c-0.5-0.1-0.7,0-0.7,0.4c0,0.5,0,2.4,0,5.4c0,3.1,0,6.3,0,9.7c0,6.3,0.6,9.4,1.9,9.4h7.6c0.3,0,0.4,0.1,0.4,0.4v1.4
	c0,0.3-0.1,0.4-0.3,0.4h-22.8c-0.3,0-0.4,0-0.5-0.1c-0.1-0.1-0.1-0.2-0.1-0.3v-1.3c0-0.3,0-0.4,0.1-0.5s0.2-0.1,0.3-0.1h5.6
	c0.5,0,0.7-0.4,0.7-1.3V58.3V40.5c-0.1-7.9-0.6-11.8-1.5-11.8h-5.5c-0.3,0-0.4-0.1-0.4-0.3v-1.6c0-0.2,0.1-0.3,0.3-0.3h12.8
	c0.4,0,2-0.1,4.9-0.2c2.9-0.1,4.5-0.2,4.8-0.2c1.9,0,3.7,0.1,5.5,0.4c4,0.6,7.1,2.1,9.5,4.4c2.8,2.7,4.2,6,4.2,10.1
	c0,4.6-1.4,8.5-4.1,11.4c-1.7,1.8-4.5,3.4-8.3,4.7c-0.2,0.1-0.3,0.3-0.3,0.5c1.3,3.3,4.2,7.5,8.7,12.7c2.4,2.7,4.1,4.6,5.2,5.8
	c1.9,2,3.6,3.5,4.9,4.5c1.8,1.3,4.1,2,6.9,2c0.5,0,0.7,0.1,0.7,0.3V84.3z M293,43.3c0-3.8-1.3-6.9-3.8-9.3c-3.5-3.3-8.6-5-15.3-5
	c-1,0-1.5,0.2-1.6,0.6c0,8.2-0.1,13.3-0.2,15.4v9.8c0,0.3,0.2,0.5,0.6,0.6c0.7,0.1,2.5,0.2,5.5,0.2c1.2,0,2.6-0.1,4.1-0.3
	c1.5-0.2,2.2-0.3,2.1-0.3C290.1,53.4,293,49.5,293,43.3z M362.5,78.7c-0.8,1.6-1.8,3.5-2.9,5.6c-0.2,0.3-0.5,0.5-0.9,0.5h-40.6
	c-0.3,0-0.4-0.2-0.4-0.5V83c0-0.3,0.1-0.4,0.3-0.4h6.4c0.6,0,0.9-0.3,0.9-0.9c0-0.3,0-4.7-0.1-13.2c-0.1-8.6-0.1-13-0.1-13.2
	c0-0.3,0-3.2,0-8.9c0-5.6,0-8.6,0-9c0-5.8-0.6-8.7-1.7-8.7h-5.2c-0.3,0-0.4-0.1-0.4-0.4v-1.4c0-0.3,0.2-0.4,0.5-0.4h38.5
	c0.5,0,1.2,0,2.1-0.1c0.9-0.1,1.3-0.1,1.3-0.1c0.4,0,0.5,0.1,0.4,0.4c-0.4,1.6-0.9,3.4-1.5,5.5c-0.2,0.7-0.5,1-0.7,1l-0.6-0.6
	c-1.1-1-2.7-1.8-5-2.2c-3.2-0.6-10-0.9-20.4-1c-0.3,0-0.6,0.2-0.7,0.5s-0.2,7.4-0.2,21.3c0,0.6,0.2,0.9,0.7,0.9h21
	c0.4,0,0.6-0.2,0.7-0.6c0.1-0.4,0.2-1.3,0.3-2.8c0.2-1.4,0.3-2.2,0.3-2.3c0-0.5,0.2-0.8,0.5-0.8h0.6c0.3,0,0.5,0.2,0.5,0.7
	c0,0.1-0.1,1.3-0.2,3.6c-0.1,2.3-0.2,3.6-0.2,4.1c0,0.4,0,1.9,0.1,4.5c0.1,2.6,0.1,4,0.1,4.1c0,0.6-0.2,0.9-0.5,0.9h-0.7
	c-0.3,0-0.5-0.2-0.5-0.6c-0.1-1.8-0.3-4-0.4-6.5c-0.1-0.6-0.4-0.9-0.8-0.9c-0.3,0-3.8-0.1-10.6-0.2c-6.8-0.1-10.3-0.2-10.4-0.2
	c-0.4,0-0.6,0.3-0.6,0.8V72c0,6.9,0.7,10.3,2.2,10.3c13.4,0,22.3-1,26.7-3.1c1.1-0.6,1.7-1,1.9-1.1
	C362.5,78.1,362.6,78.3,362.5,78.7z M462.8,66c0,5.6-2,10.1-6,13.6c-4.5,3.9-10.6,5.9-18.4,5.9c-0.9,0-3.6-0.1-8.2-0.3
	s-8.1-0.3-10.3-0.3h-8.2c-0.3,0-0.4-0.1-0.4-0.4v-1.9c0-0.4,0.1-0.5,0.4-0.5h7.4c0.9,0,1.3-0.6,1.3-1.9c0-0.4-0.1-5.8-0.2-16
	C420,53.9,420,48.3,420,47.2V25.8c-0.3-6.6-1-9.9-2.1-9.9h-8.1c-0.3,0-0.4-0.2-0.4-0.6v-1.7c0-0.3,0.2-0.5,0.5-0.5h15.9
	c0.5,0,2.4-0.1,5.7-0.2s5.3-0.2,5.8-0.2h5.2c1.7,0.1,4,0.5,6.9,1.2c2.7,1.1,5,2.7,6.9,4.9c2.2,2.6,3.3,5.8,3.3,9.6
	c0,2.8-0.5,5.3-1.5,7.3c-0.4,0.9-1.4,2.2-2.9,4.1c-2,2.6-4.7,4.8-8.1,6.7c-0.7,0.4-0.7,0.7-0.1,0.9c3.9,1.2,7.5,3.2,10.6,6.1
	C461.1,56.7,462.8,60.8,462.8,66z M451.5,32.9c0-4.6-1.6-8.6-4.8-11.9c-3.2-3.3-7.5-5-12.9-5c-2.4,0-4,0.1-4.7,0.3
	c-0.5,0.1-0.8,0.5-0.9,1.1c-0.1,0.7-0.1,9.9-0.1,27.6c0,0.7,0.2,1,0.6,1c-0.1,0,0.6,0,2.2-0.1c1.5,0,3.1-0.1,4.6-0.1
	c0.7,0,2,0.1,4.1,0.3c2.4,0.2,3.7,0.4,3.8,0.4c0.3,0,0.7-0.1,1.3-0.4c2.1-1.1,3.7-2.8,4.9-5.1C450.8,38.4,451.5,35.7,451.5,32.9z
	 M453.7,67.4c0-4.9-1.6-9-4.9-12.3c-4.6-4.6-10.7-6.9-18.4-6.9c-0.9,0-1.6,0.1-2,0.3c-0.2,0.1-0.4,0.4-0.4,1.1V73
	c0.2,5.5,0.8,8.4,1.8,8.8c1.9,0.8,4.8,1.2,8.5,1.2c4.6,0,8.2-1.2,10.8-3.5C452.2,76.7,453.7,72.7,453.7,67.4z M527,84.3
	c0,0.3-0.1,0.5-0.3,0.5h-14c-0.3,0-0.7-0.2-1.1-0.5c-1.1-0.9-3.1-3.4-6-7.2c-1.5-2.1-3.1-4.2-4.6-6.3c-1.7-2.6-4.1-6.6-7.1-12
	c-0.2-0.5-0.4-0.7-0.7-0.7c-1.3,0-3.7-0.2-7.1-0.5c-0.5-0.1-0.7,0-0.7,0.4c0,0.5,0,2.4,0,5.4s0,6.3,0,9.7c0,6.3,0.6,9.4,1.9,9.4h7.6
	c0.3,0,0.4,0.1,0.4,0.4v1.4c0,0.3-0.1,0.4-0.3,0.4h-22.8c-0.3,0-0.4,0-0.5-0.1c-0.1-0.1-0.1-0.2-0.1-0.3v-1.3c0-0.3,0-0.4,0.1-0.5
	s0.2-0.1,0.3-0.1h5.6c0.5,0,0.7-0.4,0.7-1.3V58.3V40.5c-0.1-7.9-0.6-11.8-1.5-11.8h-5.5c-0.3,0-0.4-0.1-0.4-0.3v-1.6
	c0-0.2,0.1-0.3,0.3-0.3h12.8c0.4,0,2-0.1,4.9-0.2c2.9-0.1,4.5-0.2,4.8-0.2c1.9,0,3.7,0.1,5.5,0.4c4,0.6,7.1,2.1,9.5,4.4
	c2.8,2.7,4.2,6,4.2,10.1c0,4.6-1.4,8.5-4.1,11.4c-1.7,1.8-4.5,3.4-8.3,4.7c-0.2,0.1-0.3,0.3-0.3,0.5c1.3,3.3,4.2,7.5,8.7,12.7
	c2.4,2.7,4.1,4.6,5.2,5.8c1.9,2,3.6,3.5,4.9,4.5c1.8,1.3,4.1,2,6.9,2c0.5,0,0.7,0.1,0.7,0.3V84.3z M506.2,43.3
	c0-3.8-1.3-6.9-3.8-9.3c-3.5-3.3-8.6-5-15.3-5c-1,0-1.5,0.2-1.6,0.6c0,8.2-0.1,13.3-0.2,15.4v9.8c0,0.3,0.2,0.5,0.6,0.6
	c0.7,0.1,2.5,0.2,5.5,0.2c1.2,0,2.6-0.1,4.1-0.3c1.5-0.2,2.2-0.3,2.1-0.3C503.4,53.4,506.2,49.5,506.2,43.3z M553.2,84.5
	c0,0.2-0.1,0.3-0.3,0.3h-20.8c-0.3,0-0.4,0-0.5-0.1c-0.1-0.1-0.1-0.2-0.1-0.3v-1.3c0-0.3,0-0.4,0.1-0.5s0.2-0.1,0.3-0.1h5.8
	c0.4,0,0.6-0.4,0.6-1.2l-0.1-44.4c0-5.4-0.5-8.1-1.5-8.1h-5.5c-0.4,0-0.6-0.1-0.6-0.4v-1.5c0-0.2,0.1-0.3,0.4-0.3H552
	c0.3,0,0.4,0.1,0.4,0.3v1.6c0,0.2-0.2,0.3-0.5,0.3h-6.1c-0.5,0-0.8,0.3-0.8,0.9c-0.1,26-0.1,39.4-0.1,40.3c0,4.2,0,6.7,0,7.3
	c0.2,3.6,0.8,5.3,1.7,5.3h6.1c0.2,0,0.3,0.1,0.3,0.3V84.5z M612.9,55.2c0,11.9-4,20.5-11.9,25.8c-2.9,1.9-6.1,3.2-9.8,3.8
	c-2.2,0.3-5.5,0.5-9.8,0.5c-2,0-4.7-0.1-7.9-0.2c-3.3-0.1-6-0.2-8.1-0.2h-4.8c-0.3,0-0.4-0.1-0.4-0.4c0-0.1,0-0.3,0-0.6
	c0-0.3,0-0.6,0-0.8c0-0.3,0.2-0.4,0.5-0.4h6c0.5,0,0.7-0.4,0.7-1.3c0-0.4,0-4.2-0.1-11.3s-0.1-11-0.1-11.6l0-10.6
	c0.1-6.2,0.1-9.7,0-10.3c-0.2-5.8-0.7-8.7-1.6-8.7h-6.1c-0.3,0-0.5-0.1-0.5-0.4v-1.4c0-0.3,0.2-0.4,0.6-0.4H586
	c4.4,0,7.9,0.6,10.5,1.7c1.7,0.7,3,1.4,3.8,1.8c1.8,1.1,3.6,2.4,5.3,4.1C610.5,38.9,612.9,46,612.9,55.2z M606.9,61
	c0-8.6-2.2-15.7-6.7-21.3c-3.2-3.9-6.6-6.6-10.4-8.2c-3.9-1.6-7.8-2.4-11.6-2.4c-1.6,0-2.7,0.1-3.4,0.2c-0.6,0.1-0.9,0.7-0.9,1.7
	c0,0.4,0,4,0,10.6c0,6.6,0,10.4,0,11.3v17.4c0,7.4,0.5,11.3,1.4,11.4c2.3,0.4,6.1,0.6,11.6,0.6c6,0,10.6-1.6,13.9-4.7
	C604.8,73.8,606.9,68.2,606.9,61z M673.4,84.4c0,0.3-0.1,0.4-0.3,0.4h-19.8c-0.3,0-0.4-0.2-0.4-0.5v-1.2c0-0.4,0.1-0.6,0.4-0.6h5.9
	c0.5,0,0.6-0.3,0.6-0.8c-0.3-0.9-1.2-3.9-3-9c-1.7-5.1-2.7-7.8-2.8-8.1c-0.2-0.6-0.5-0.9-0.9-0.9h-20.8c-0.3,0.1-0.5,0.2-0.6,0.5
	c-0.4,0.8-1.1,2.6-2.1,5.4s-1.6,4.8-1.8,5.8c-0.5,2.3-0.7,3.7-0.7,4.1c0,1.9,0.2,2.8,0.7,2.8h6.5c0.3,0,0.5,0.2,0.5,0.6v1.2
	c0,0.3-0.1,0.4-0.4,0.4h-17.4c-0.3,0-0.4-0.1-0.4-0.4V83c0-0.3,0.1-0.4,0.3-0.4h3.7c0.6,0,1.5-1.3,2.6-4c1.1-2.7,4.3-10.5,9.6-23.3
	c3.4-8.1,7.5-17.9,12.4-29.5c0.3-0.9,0.6-1.4,0.9-1.5c0.8-0.2,1.8-0.6,3.1-1.1c0.2-0.1,0.4,0.1,0.7,0.5s0.1,0.8-0.3,1.3
	c-0.9,0.9-1.3,1.7-1.3,2.6c0,0.9,0.2,1.9,0.6,3.2c1.5,4.3,4.3,12.3,8.4,24.1c4,11.8,6.8,19.4,8.4,22.9c1.5,3.2,2.6,4.9,3.3,4.9h4
	c0.2,0,0.3,0.2,0.3,0.6V84.4z M652.2,59.9c-1.2-3.4-2.4-7.1-3.8-11.2c-1.3-4.1-2.7-8.3-4.2-12.7c-0.1-0.4-0.2-0.6-0.3-0.7
	c-0.1,0.1-0.3,0.3-0.4,0.7c-3.6,8.8-6.2,15-7.7,18.6c-1.6,3.7-2.3,5.6-2.3,5.7c0,0.2,0.1,0.3,0.4,0.3h18.2
	C652.2,60.6,652.3,60.4,652.2,59.9z M722.2,78.8c0,0.3-0.5,1.2-1.4,2.7c-0.2,0.6-0.7,1.5-1.5,2.8c-0.2,0.3-0.5,0.5-0.7,0.5h-40.9
	c-0.3,0-0.5-0.1-0.5-0.4V83c0-0.3,0.1-0.4,0.4-0.4h6.4c0.5,0,0.8-0.3,0.8-0.9c0-0.3,0-2-0.1-5.2c-0.1-3.2-0.1-10.3,0-21.3
	c0.1-11,0.2-16.8,0.2-17.3c0-6.1-0.6-9.2-1.7-9.2h-4.9c-0.4,0-0.6-0.2-0.6-0.5v-1.2c0-0.3,0.2-0.5,0.5-0.5h23.2
	c0.3,0,0.4,0.1,0.4,0.3v1.5c0,0.3-0.1,0.4-0.3,0.4H693c-0.4,0-0.7,0.2-0.8,0.6c-0.1,0.4-0.2,7.4-0.4,21c-0.2,12.8-0.3,20.1-0.3,21.8
	c0,6.6,0.8,9.9,2.3,9.9c9.3,0,14.6-0.1,15.9-0.2c4.5-0.4,8.1-1.4,10.8-3.1c0.7-0.4,1.1-0.6,1.2-0.6
	C722.1,78.3,722.2,78.6,722.2,78.8z M761.5,68.7c0,4.8-1.5,8.7-4.6,11.7c-3.2,3.2-7.9,4.8-14.1,4.8c-7.2,0-12.3-1.3-15.3-4
	c-0.3-0.3-0.5-0.9-0.5-1.8c0-0.2,0-1.9,0-5c0-3.2,0-4.8,0-5.1c0-0.4,0.2-0.6,0.6-0.6h1.8c0.3,0,0.5,0.2,0.6,0.6
	c0.1,0.4,0.1,1.3,0.3,2.7c0.2,3.1,1.3,5.6,3.4,7.6c1,0.9,2.4,1.7,4.3,2.3c1.9,0.6,3.5,0.9,5,0.9c5.7,0,9.6-1.9,11.5-5.7
	c0.9-1.8,1.3-4,1.3-6.6c0-2.3-0.8-4.4-2.4-6.1c-1.8-1.9-5-3.7-9.6-5.3c-5.2-1.8-8.8-3.7-11-5.5c-2.9-2.4-4.3-6.2-4.3-11.4
	c0-4.9,2-9,5.9-12.3c3-2.6,7-3.9,11.9-3.9c3.2,0,6.2,0.5,9,1.6c1.8,0.7,3.1,1.4,3.9,2.1c0.4,0.3,0.6,0.7,0.7,1.2
	c0.3,2.2,0.5,5.1,0.5,8.8c0,0.6-0.1,0.9-0.3,0.9h-2.1c-0.2,0-0.3-0.2-0.4-0.5c-0.2-0.8-0.4-1.9-0.6-3.3c-0.4-2-1.4-3.4-3-4.3
	c-2.9-1.7-6.2-2.5-10-2.5c-3.4,0-5.9,0.7-7.6,2.2c-1.7,1.5-2.6,4.2-2.6,8c0,2.3,0.8,4.4,2.4,6.1c0.8,0.9,2.3,1.8,4.5,2.8
	c1.9,0.7,3.7,1.5,5.6,2.3c3.7,1.6,5.9,2.6,6.5,3c2.1,1.2,4,2.6,5.5,4.3C760.4,61.3,761.5,64.6,761.5,68.7z"/>
<linearGradient id="SVGID_1_" gradientUnits="userSpaceOnUse" x1="19.9136" y1="46.6881" x2="760.7891" y2="46.6881">
	<stop  offset="0" style="stop-color:#2484C6"/>
	<stop  offset="1" style="stop-color:#FFFFC6"/>
</linearGradient>
<path class="st0" d="M90.2,83.7c0,0.4-0.1,0.5-0.3,0.5H65.4c-0.4,0-0.5-0.2-0.5-0.6v-1.4c0-0.5,0.2-0.7,0.5-0.7h7.3
	c0.6,0,0.8-0.3,0.7-1c-0.3-1.1-1.5-4.8-3.7-11.1c-2.1-6.3-3.3-9.6-3.5-10.1c-0.3-0.7-0.7-1.1-1.1-1.1H39.3c-0.3,0.1-0.6,0.3-0.8,0.6
	c-0.5,1-1.3,3.2-2.6,6.7c-1.2,3.5-2,5.9-2.2,7.2c-0.6,2.8-0.9,4.5-0.9,5.1c0,2.3,0.3,3.5,0.9,3.5h8.1c0.4,0,0.6,0.2,0.6,0.7v1.5
	c0,0.4-0.2,0.5-0.5,0.5H20.4c-0.4,0-0.5-0.2-0.5-0.5V82c0-0.4,0.1-0.5,0.4-0.5h4.6c0.8,0,1.8-1.7,3.2-5c1.3-3.3,5.3-13,11.9-28.9
	c4.2-10,9.3-22.2,15.4-36.5c0.4-1.1,0.8-1.7,1.2-1.9c1-0.3,2.3-0.7,3.8-1.3c0.2-0.1,0.5,0.1,0.9,0.6c0.3,0.5,0.2,1-0.4,1.6
	c-1.1,1.1-1.6,2.2-1.6,3.2c0,1.1,0.2,2.4,0.7,4c1.9,5.3,5.4,15.3,10.4,29.9c5,14.6,8.5,24,10.4,28.3c1.9,4,3.2,6,4,6h5
	c0.3,0,0.4,0.2,0.4,0.7V83.7z M63.9,53.4c-1.5-4.2-3-8.8-4.7-13.9c-1.7-5-3.4-10.3-5.2-15.7c-0.1-0.5-0.2-0.7-0.4-0.9
	c-0.1,0.1-0.3,0.4-0.5,0.9c-4.4,10.9-7.6,18.6-9.6,23.1c-1.9,4.5-2.9,6.9-2.9,7c0,0.2,0.2,0.3,0.5,0.3h22.5
	C63.9,54.2,64,54,63.9,53.4z M139.1,78.2c0,0.3-0.5,1.2-1.4,2.7c-0.2,0.6-0.7,1.5-1.5,2.8c-0.2,0.3-0.5,0.5-0.7,0.5H94.6
	c-0.3,0-0.5-0.1-0.5-0.4v-1.4c0-0.3,0.1-0.4,0.4-0.4h6.4c0.5,0,0.8-0.3,0.8-0.9c0-0.3,0-2-0.1-5.2c-0.1-3.2-0.1-10.3,0-21.3
	c0.1-11,0.2-16.8,0.2-17.3c0-6.1-0.6-9.2-1.7-9.2h-4.9c-0.4,0-0.6-0.2-0.6-0.5v-1.2c0-0.3,0.2-0.5,0.5-0.5h23.2
	c0.3,0,0.4,0.1,0.4,0.3v1.5c0,0.3-0.1,0.4-0.3,0.4h-8.6c-0.4,0-0.7,0.2-0.8,0.6c-0.1,0.4-0.2,7.4-0.4,21
	c-0.2,12.8-0.3,20.1-0.3,21.8c0,6.6,0.8,9.9,2.3,9.9c9.3,0,14.6-0.1,15.9-0.2c4.5-0.4,8.1-1.4,10.8-3.1c0.7-0.4,1.1-0.6,1.2-0.6
	C139,77.8,139.1,78,139.1,78.2z M187.4,78.2c0,0.3-0.5,1.2-1.4,2.7c-0.2,0.6-0.7,1.5-1.5,2.8c-0.2,0.3-0.5,0.5-0.7,0.5h-40.9
	c-0.3,0-0.5-0.1-0.5-0.4v-1.4c0-0.3,0.1-0.4,0.4-0.4h6.4c0.5,0,0.8-0.3,0.8-0.9c0-0.3,0-2-0.1-5.2c-0.1-3.2-0.1-10.3,0-21.3
	c0.1-11,0.2-16.8,0.2-17.3c0-6.1-0.6-9.2-1.7-9.2h-4.9c-0.4,0-0.6-0.2-0.6-0.5v-1.2c0-0.3,0.2-0.5,0.5-0.5h23.2
	c0.3,0,0.4,0.1,0.4,0.3v1.5c0,0.3-0.1,0.4-0.3,0.4h-8.6c-0.4,0-0.7,0.2-0.8,0.6c-0.1,0.4-0.2,7.4-0.4,21
	c-0.2,12.8-0.3,20.1-0.3,21.8c0,6.6,0.8,9.9,2.3,9.9c9.3,0,14.6-0.1,15.9-0.2c4.5-0.4,8.1-1.4,10.8-3.1c0.7-0.4,1.1-0.6,1.2-0.6
	C187.3,77.8,187.4,78,187.4,78.2z M250,27.6c0,0.3-0.1,0.5-0.3,0.5h-2.4c-2.2,0-3.4,0-3.7,0.1c-0.1,0.5-0.2,1.2-0.2,1.9
	c-0.1,1.8-0.2,4.7-0.3,8.6c0,5.5,0,12.9,0.2,22.1c0.3,16.5-6.5,24.7-20.4,24.7c-6,0-10.8-0.6-14.6-1.9c-3.7-1.3-6.4-3.6-8-6.8
	c-1.3-2.7-2.1-6.7-2.3-12.2c-0.1-3.5-0.2-12.3-0.2-26.5c0-6.7-0.6-10.1-1.7-10.1h-5.8c-0.3,0-0.5-0.1-0.5-0.4v-1.3
	c0-0.3,0.2-0.5,0.5-0.5h21.1c0.3,0,0.5,0.1,0.5,0.3v1.3c0,0.4-0.1,0.6-0.3,0.6h-6c-0.3,0-0.5,0.2-0.6,0.7
	c-0.2,1.2-0.3,10.6-0.3,28.3c0,6.2,0.2,10.3,0.5,12.5c0.7,4.1,2.6,7.2,5.7,9.3c3.2,2.1,7.4,3.2,12.8,3.2c5.4,0,9.7-1.6,12.9-4.9
	c2.5-2.5,3.7-7.3,3.7-14.6c0-9.6-0.1-16.7-0.3-21.4c-0.3-8.8-1.3-13.2-2.8-13.2H232c-0.2,0-0.4,0-0.4-0.1c-0.1-0.1-0.1-0.2-0.1-0.3
	v-1.4c0-0.3,0.2-0.4,0.5-0.4h17.5c0.3,0,0.4,0.1,0.4,0.4V27.6z M313.1,83.8c0,0.3-0.1,0.5-0.3,0.5h-14c-0.3,0-0.7-0.2-1.1-0.5
	c-1.1-0.9-3.1-3.4-6-7.2c-1.5-2.1-3.1-4.2-4.6-6.3c-1.7-2.6-4.1-6.6-7.1-12c-0.2-0.5-0.4-0.7-0.7-0.7c-1.3,0-3.7-0.2-7.1-0.5
	c-0.5-0.1-0.7,0-0.7,0.4c0,0.5,0,2.4,0,5.4c0,3.1,0,6.3,0,9.7c0,6.3,0.6,9.4,1.9,9.4h7.6c0.3,0,0.4,0.1,0.4,0.4v1.4
	c0,0.3-0.1,0.4-0.3,0.4h-22.8c-0.3,0-0.4,0-0.5-0.1c-0.1-0.1-0.1-0.2-0.1-0.3v-1.3c0-0.3,0-0.4,0.1-0.5s0.2-0.1,0.3-0.1h5.6
	c0.5,0,0.7-0.4,0.7-1.3V57.7V39.9c-0.1-7.9-0.6-11.8-1.5-11.8h-5.5c-0.3,0-0.4-0.1-0.4-0.3v-1.6c0-0.2,0.1-0.3,0.3-0.3h12.8
	c0.4,0,2-0.1,4.9-0.2c2.9-0.1,4.5-0.2,4.8-0.2c1.9,0,3.7,0.1,5.5,0.4c4,0.6,7.1,2.1,9.5,4.4c2.8,2.7,4.2,6,4.2,10.1
	c0,4.6-1.4,8.5-4.1,11.4c-1.7,1.8-4.5,3.4-8.3,4.7c-0.2,0.1-0.3,0.3-0.3,0.5c1.3,3.3,4.2,7.5,8.7,12.7c2.4,2.7,4.1,4.6,5.2,5.8
	c1.9,2,3.6,3.5,4.9,4.5c1.8,1.3,4.1,2,6.9,2c0.5,0,0.7,0.1,0.7,0.3V83.8z M292.3,42.7c0-3.8-1.3-6.9-3.8-9.3c-3.5-3.3-8.6-5-15.3-5
	c-1,0-1.5,0.2-1.6,0.6c0,8.2-0.1,13.3-0.2,15.4v9.8c0,0.3,0.2,0.5,0.6,0.6c0.7,0.1,2.5,0.2,5.5,0.2c1.2,0,2.6-0.1,4.1-0.3
	c1.5-0.2,2.2-0.3,2.1-0.3C289.4,52.8,292.3,48.9,292.3,42.7z M361.8,78.1c-0.8,1.6-1.8,3.5-2.9,5.6c-0.2,0.3-0.5,0.5-0.9,0.5h-40.6
	c-0.3,0-0.4-0.2-0.4-0.5v-1.3c0-0.3,0.1-0.4,0.3-0.4h6.4c0.6,0,0.9-0.3,0.9-0.9c0-0.3,0-4.7-0.1-13.2c-0.1-8.6-0.1-13-0.1-13.2
	c0-0.3,0-3.2,0-8.9c0-5.6,0-8.6,0-9c0-5.8-0.6-8.7-1.7-8.7h-5.2c-0.3,0-0.4-0.1-0.4-0.4v-1.4c0-0.3,0.2-0.4,0.5-0.4h38.5
	c0.5,0,1.2,0,2.1-0.1c0.9-0.1,1.3-0.1,1.3-0.1c0.4,0,0.5,0.1,0.4,0.4c-0.4,1.6-0.9,3.4-1.5,5.5c-0.2,0.7-0.5,1-0.7,1l-0.6-0.6
	c-1.1-1-2.7-1.8-5-2.2c-3.2-0.6-10-0.9-20.4-1c-0.3,0-0.6,0.2-0.7,0.5s-0.2,7.4-0.2,21.3c0,0.6,0.2,0.9,0.7,0.9h21
	c0.4,0,0.6-0.2,0.7-0.6c0.1-0.4,0.2-1.3,0.3-2.8c0.2-1.4,0.3-2.2,0.3-2.3c0-0.5,0.2-0.8,0.5-0.8h0.6c0.3,0,0.5,0.2,0.5,0.7
	c0,0.1-0.1,1.3-0.2,3.6c-0.1,2.3-0.2,3.6-0.2,4.1c0,0.4,0,1.9,0.1,4.5c0.1,2.6,0.1,4,0.1,4.1c0,0.6-0.2,0.9-0.5,0.9H354
	c-0.3,0-0.5-0.2-0.5-0.6c-0.1-1.8-0.3-4-0.4-6.5c-0.1-0.6-0.4-0.9-0.8-0.9c-0.3,0-3.8-0.1-10.6-0.2c-6.8-0.1-10.3-0.2-10.4-0.2
	c-0.4,0-0.6,0.3-0.6,0.8v16.2c0,6.9,0.7,10.3,2.2,10.3c13.4,0,22.3-1,26.7-3.1c1.1-0.6,1.7-1,1.9-1.1
	C361.8,77.6,361.9,77.8,361.8,78.1z M462.1,65.4c0,5.6-2,10.1-6,13.6c-4.5,3.9-10.6,5.9-18.4,5.9c-0.9,0-3.6-0.1-8.2-0.3
	s-8.1-0.3-10.3-0.3H411c-0.3,0-0.4-0.1-0.4-0.4V82c0-0.4,0.1-0.5,0.4-0.5h7.4c0.9,0,1.3-0.6,1.3-1.9c0-0.4-0.1-5.8-0.2-16
	c-0.1-10.3-0.2-15.9-0.2-16.9V25.2c-0.3-6.6-1-9.9-2.1-9.9h-8.1c-0.3,0-0.4-0.2-0.4-0.6V13c0-0.3,0.2-0.5,0.5-0.5h15.9
	c0.5,0,2.4-0.1,5.7-0.2s5.3-0.2,5.8-0.2h5.2c1.7,0.1,4,0.5,6.9,1.2c2.7,1.1,5,2.7,6.9,4.9c2.2,2.6,3.3,5.8,3.3,9.6
	c0,2.8-0.5,5.3-1.5,7.3c-0.4,0.9-1.4,2.2-2.9,4.1c-2,2.6-4.7,4.8-8.1,6.7c-0.7,0.4-0.7,0.7-0.1,0.9c3.9,1.2,7.5,3.2,10.6,6.1
	C460.4,56.2,462.1,60.3,462.1,65.4z M450.8,32.3c0-4.6-1.6-8.6-4.8-11.9c-3.2-3.3-7.5-5-12.9-5c-2.4,0-4,0.1-4.7,0.3
	c-0.5,0.1-0.8,0.5-0.9,1.1c-0.1,0.7-0.1,9.9-0.1,27.6c0,0.7,0.2,1,0.6,1c-0.1,0,0.6,0,2.2-0.1c1.5,0,3.1-0.1,4.6-0.1
	c0.7,0,2,0.1,4.1,0.3c2.4,0.2,3.7,0.4,3.8,0.4c0.3,0,0.7-0.1,1.3-0.4c2.1-1.1,3.7-2.8,4.9-5.1C450.1,37.8,450.8,35.1,450.8,32.3z
	 M453.1,66.8c0-4.9-1.6-9-4.9-12.3c-4.6-4.6-10.7-6.9-18.4-6.9c-0.9,0-1.6,0.1-2,0.3c-0.2,0.1-0.4,0.4-0.4,1.1v23.4
	c0.2,5.5,0.8,8.4,1.8,8.8c1.9,0.8,4.8,1.2,8.5,1.2c4.6,0,8.2-1.2,10.8-3.5C451.5,76.2,453.1,72.1,453.1,66.8z M526.4,83.8
	c0,0.3-0.1,0.5-0.3,0.5h-14c-0.3,0-0.7-0.2-1.1-0.5c-1.1-0.9-3.1-3.4-6-7.2c-1.5-2.1-3.1-4.2-4.6-6.3c-1.7-2.6-4.1-6.6-7.1-12
	c-0.2-0.5-0.4-0.7-0.7-0.7c-1.3,0-3.7-0.2-7.1-0.5c-0.5-0.1-0.7,0-0.7,0.4c0,0.5,0,2.4,0,5.4c0,3.1,0,6.3,0,9.7
	c0,6.3,0.6,9.4,1.9,9.4h7.6c0.3,0,0.4,0.1,0.4,0.4v1.4c0,0.3-0.1,0.4-0.3,0.4h-22.8c-0.3,0-0.4,0-0.5-0.1c-0.1-0.1-0.1-0.2-0.1-0.3
	v-1.3c0-0.3,0-0.4,0.1-0.5s0.2-0.1,0.3-0.1h5.6c0.5,0,0.7-0.4,0.7-1.3V57.7V39.9c-0.1-7.9-0.6-11.8-1.5-11.8h-5.5
	c-0.3,0-0.4-0.1-0.4-0.3v-1.6c0-0.2,0.1-0.3,0.3-0.3h12.8c0.4,0,2-0.1,4.9-0.2c2.9-0.1,4.5-0.2,4.8-0.2c1.9,0,3.7,0.1,5.5,0.4
	c4,0.6,7.1,2.1,9.5,4.4c2.8,2.7,4.2,6,4.2,10.1c0,4.6-1.4,8.5-4.1,11.4c-1.7,1.8-4.5,3.4-8.3,4.7c-0.2,0.1-0.3,0.3-0.3,0.5
	c1.3,3.3,4.2,7.5,8.7,12.7c2.4,2.7,4.1,4.6,5.2,5.8c1.9,2,3.6,3.5,4.9,4.5c1.8,1.3,4.1,2,6.9,2c0.5,0,0.7,0.1,0.7,0.3V83.8z
	 M505.5,42.7c0-3.8-1.3-6.9-3.8-9.3c-3.5-3.3-8.6-5-15.3-5c-1,0-1.5,0.2-1.6,0.6c0,8.2-0.1,13.3-0.2,15.4v9.8c0,0.3,0.2,0.5,0.6,0.6
	c0.7,0.1,2.5,0.2,5.5,0.2c1.2,0,2.6-0.1,4.1-0.3c1.5-0.2,2.2-0.3,2.1-0.3C502.7,52.8,505.5,48.9,505.5,42.7z M552.5,83.9
	c0,0.2-0.1,0.3-0.3,0.3h-20.8c-0.3,0-0.4,0-0.5-0.1c-0.1-0.1-0.1-0.2-0.1-0.3v-1.3c0-0.3,0-0.4,0.1-0.5s0.2-0.1,0.3-0.1h5.8
	c0.4,0,0.6-0.4,0.6-1.2l-0.1-44.4c0-5.4-0.5-8.1-1.5-8.1h-5.5c-0.4,0-0.6-0.1-0.6-0.4v-1.5c0-0.2,0.1-0.3,0.4-0.3h20.8
	c0.3,0,0.4,0.1,0.4,0.3v1.6c0,0.2-0.2,0.3-0.5,0.3h-6.1c-0.5,0-0.8,0.3-0.8,0.9c-0.1,26-0.1,39.4-0.1,40.3c0,4.2,0,6.7,0,7.3
	c0.2,3.6,0.8,5.3,1.7,5.3h6.1c0.2,0,0.3,0.1,0.3,0.3V83.9z M612.2,54.6c0,11.9-4,20.5-11.9,25.8c-2.9,1.9-6.1,3.2-9.8,3.8
	c-2.2,0.3-5.5,0.5-9.8,0.5c-2,0-4.7-0.1-7.9-0.2c-3.3-0.1-6-0.2-8.1-0.2h-4.8c-0.3,0-0.4-0.1-0.4-0.4c0-0.1,0-0.3,0-0.6
	c0-0.3,0-0.6,0-0.8c0-0.3,0.2-0.4,0.5-0.4h6c0.5,0,0.7-0.4,0.7-1.3c0-0.4,0-4.2-0.1-11.3s-0.1-11-0.1-11.6l0-10.6
	c0.1-6.2,0.1-9.7,0-10.3c-0.2-5.8-0.7-8.7-1.6-8.7h-6.1c-0.3,0-0.5-0.1-0.5-0.4v-1.4c0-0.3,0.2-0.4,0.6-0.4h26.6
	c4.4,0,7.9,0.6,10.5,1.7c1.7,0.7,3,1.4,3.8,1.8c1.8,1.1,3.6,2.4,5.3,4.1C609.8,38.4,612.2,45.4,612.2,54.6z M606.2,60.4
	c0-8.6-2.2-15.7-6.7-21.3c-3.2-3.9-6.6-6.6-10.4-8.2c-3.9-1.6-7.8-2.4-11.6-2.4c-1.6,0-2.7,0.1-3.4,0.2c-0.6,0.1-0.9,0.7-0.9,1.7
	c0,0.4,0,4,0,10.6c0,6.6,0,10.4,0,11.3v17.4c0,7.4,0.5,11.3,1.4,11.4c2.3,0.4,6.1,0.6,11.6,0.6c6,0,10.6-1.6,13.9-4.7
	C604.1,73.3,606.2,67.7,606.2,60.4z M672.8,83.9c0,0.3-0.1,0.4-0.3,0.4h-19.8c-0.3,0-0.4-0.2-0.4-0.5v-1.2c0-0.4,0.1-0.6,0.4-0.6
	h5.9c0.5,0,0.6-0.3,0.6-0.8c-0.3-0.9-1.2-3.9-3-9c-1.7-5.1-2.7-7.8-2.8-8.1c-0.2-0.6-0.5-0.9-0.9-0.9h-20.8
	c-0.3,0.1-0.5,0.2-0.6,0.5c-0.4,0.8-1.1,2.6-2.1,5.4s-1.6,4.8-1.8,5.8c-0.5,2.3-0.7,3.7-0.7,4.1c0,1.9,0.2,2.8,0.7,2.8h6.5
	c0.3,0,0.5,0.2,0.5,0.6v1.2c0,0.3-0.1,0.4-0.4,0.4h-17.4c-0.3,0-0.4-0.1-0.4-0.4v-1.4c0-0.3,0.1-0.4,0.3-0.4h3.7
	c0.6,0,1.5-1.3,2.6-4c1.1-2.7,4.3-10.5,9.6-23.3c3.4-8.1,7.5-17.9,12.4-29.5c0.3-0.9,0.6-1.4,0.9-1.5c0.8-0.2,1.8-0.6,3.1-1.1
	c0.2-0.1,0.4,0.1,0.7,0.5s0.1,0.8-0.3,1.3c-0.9,0.9-1.3,1.7-1.3,2.6c0,0.9,0.2,1.9,0.6,3.2c1.5,4.3,4.3,12.3,8.4,24.1
	c4,11.8,6.8,19.4,8.4,22.9c1.5,3.2,2.6,4.9,3.3,4.9h4c0.2,0,0.3,0.2,0.3,0.6V83.9z M651.5,59.4c-1.2-3.4-2.4-7.1-3.8-11.2
	c-1.3-4.1-2.7-8.3-4.2-12.7c-0.1-0.4-0.2-0.6-0.3-0.7c-0.1,0.1-0.3,0.3-0.4,0.7c-3.6,8.8-6.2,15-7.7,18.6c-1.6,3.7-2.3,5.6-2.3,5.7
	c0,0.2,0.1,0.3,0.4,0.3h18.2C651.6,60,651.6,59.8,651.5,59.4z M721.6,78.2c0,0.3-0.5,1.2-1.4,2.7c-0.2,0.6-0.7,1.5-1.5,2.8
	c-0.2,0.3-0.5,0.5-0.7,0.5H677c-0.3,0-0.5-0.1-0.5-0.4v-1.4c0-0.3,0.1-0.4,0.4-0.4h6.4c0.5,0,0.8-0.3,0.8-0.9c0-0.3,0-2-0.1-5.2
	c-0.1-3.2-0.1-10.3,0-21.3c0.1-11,0.2-16.8,0.2-17.3c0-6.1-0.6-9.2-1.7-9.2h-4.9c-0.4,0-0.6-0.2-0.6-0.5v-1.2c0-0.3,0.2-0.5,0.5-0.5
	h23.2c0.3,0,0.4,0.1,0.4,0.3v1.5c0,0.3-0.1,0.4-0.3,0.4h-8.6c-0.4,0-0.7,0.2-0.8,0.6c-0.1,0.4-0.2,7.4-0.4,21
	c-0.2,12.8-0.3,20.1-0.3,21.8c0,6.6,0.8,9.9,2.3,9.9c9.3,0,14.6-0.1,15.9-0.2c4.5-0.4,8.1-1.4,10.8-3.1c0.7-0.4,1.1-0.6,1.2-0.6
	C721.4,77.8,721.6,78,721.6,78.2z M760.8,68.2c0,4.8-1.5,8.7-4.6,11.7c-3.2,3.2-7.9,4.8-14.1,4.8c-7.2,0-12.3-1.3-15.3-4
	c-0.3-0.3-0.5-0.9-0.5-1.8c0-0.2,0-1.9,0-5c0-3.2,0-4.8,0-5.1c0-0.4,0.2-0.6,0.6-0.6h1.8c0.3,0,0.5,0.2,0.6,0.6
	c0.1,0.4,0.1,1.3,0.3,2.7c0.2,3.1,1.3,5.6,3.4,7.6c1,0.9,2.4,1.7,4.3,2.3c1.9,0.6,3.5,0.9,5,0.9c5.7,0,9.6-1.9,11.5-5.7
	c0.9-1.8,1.3-4,1.3-6.6c0-2.3-0.8-4.4-2.4-6.1c-1.8-1.9-5-3.7-9.6-5.3c-5.2-1.8-8.8-3.7-11-5.5c-2.9-2.4-4.3-6.2-4.3-11.4
	c0-4.9,2-9,5.9-12.3c3-2.6,7-3.9,11.9-3.9c3.2,0,6.2,0.5,9,1.6c1.8,0.7,3.1,1.4,3.9,2.1c0.4,0.3,0.6,0.7,0.7,1.2
	c0.3,2.2,0.5,5.1,0.5,8.8c0,0.6-0.1,0.9-0.3,0.9h-2.1c-0.2,0-0.3-0.2-0.4-0.5c-0.2-0.8-0.4-1.9-0.6-3.3c-0.4-2-1.4-3.4-3-4.3
	c-2.9-1.7-6.2-2.5-10-2.5c-3.4,0-5.9,0.7-7.6,2.2c-1.7,1.5-2.6,4.2-2.6,8c0,2.3,0.8,4.4,2.4,6.1c0.8,0.9,2.3,1.8,4.5,2.8
	c1.9,0.7,3.7,1.5,5.6,2.3c3.7,1.6,5.9,2.6,6.5,3c2.1,1.2,4,2.6,5.5,4.3C759.7,60.7,760.8,64,760.8,68.2z"/>
</svg>
