<svg id="erW3G04mHE61" xmlns="http://www.w3.org/2000/svg" xmlns:xlink="http://www.w3.org/1999/xlink" viewBox="0 0 1080 1920" shape-rendering="geometricPrecision" text-rendering="geometricPrecision" project-id="b281dbe43db84e88bd637cb00076db21" export-id="a38d614ddeba4478b189e4816adec93a" cached="false">
<defs>
<radialGradient id="erW3G04mHE63-fill" cx="0" cy="0" r="394" spreadMethod="pad" gradientUnits="userSpaceOnUse" gradientTransform="matrix(1 0 0 -1 394 394)">
	<stop id="erW3G04mHE63-fill-0" offset="0%" stop-color="#e10920"/>
	<stop id="erW3G04mHE63-fill-1" offset="97.32%" stop-color="#19232c"/>
</radialGradient>
<linearGradient id="erW3G04mHE612-fill" x1="-53.001" y1="469.7873" x2="238.3885" y2="469.7873" spreadMethod="pad" gradientUnits="userSpaceOnUse" gradientTransform="translate(0 0)">
	<stop id="erW3G04mHE612-fill-0" offset="0%" stop-color="#19232c"/>
	<stop id="erW3G04mHE612-fill-1" offset="100%" stop-color="#e10920"/>
</linearGradient>
<linearGradient id="erW3G04mHE613-fill" x1="-53.001" y1="469.7873" x2="120.9446" y2="469.7873" spreadMethod="pad" gradientUnits="userSpaceOnUse" gradientTransform="translate(0 0)">
	<stop id="erW3G04mHE613-fill-0" offset="0%" stop-color="#19232c"/>
	<stop id="erW3G04mHE613-fill-1" offset="100%" stop-color="#e10920"/>
</linearGradient>
<linearGradient id="erW3G04mHE614-fill" x1="-25.3058" y1="469.7873" x2="40.9222" y2="469.7873" spreadMethod="pad" gradientUnits="userSpaceOnUse" gradientTransform="translate(0 0)">
	<stop id="erW3G04mHE614-fill-0" offset="0%" stop-color="#19232c"/>
	<stop id="erW3G04mHE614-fill-1" offset="100%" stop-color="#e10920"/>
</linearGradient>
<linearGradient id="erW3G04mHE615-fill" x1="841.6115" y1="469.7873" x2="1133.001" y2="469.7873" spreadMethod="pad" gradientUnits="userSpaceOnUse" gradientTransform="translate(0 0)">
	<stop id="erW3G04mHE615-fill-0" offset="0%" stop-color="#e10920"/>
	<stop id="erW3G04mHE615-fill-1" offset="100%" stop-color="#19232c"/>
</linearGradient>
<linearGradient id="erW3G04mHE616-fill" x1="959.0554" y1="469.7873" x2="1133.001" y2="469.7873" spreadMethod="pad" gradientUnits="userSpaceOnUse" gradientTransform="translate(0 0)">
	<stop id="erW3G04mHE616-fill-0" offset="0%" stop-color="#e10920"/>
	<stop id="erW3G04mHE616-fill-1" offset="100%" stop-color="#19232c"/>
</linearGradient>
<linearGradient id="erW3G04mHE617-fill" x1="1039.0778" y1="469.7873" x2="1105.3058" y2="469.7873" spreadMethod="pad" gradientUnits="userSpaceOnUse" gradientTransform="translate(0 0)"><stop id="erW3G04mHE617-fill-0" offset="0%" stop-color="#e10920"/>
	<stop id="erW3G04mHE617-fill-1" offset="100%" stop-color="#19232c"/>
</linearGradient>
</defs>
<rect width="1080" height="1920" rx="0" ry="0" fill="#16232b"/>

  <rect width="788" height="788" fill="url(#erW3G04mHE63-fill)">
    <animateTransform attributeName="transform"
                      type="translate"
                      values="0,-600; 200,700; -300,0; 0,820; 800,0; 0,-600"
                      dur="10s"
                      repeatCount="indefinite"/>

  </rect>

<g>
<g>
<g>
<polygon points="1080,0 1080,35.8 646.1,469.8 1080,903.7 1080,1920 0,1920 0,903.7 433.9,469.8 0,35.8 0,0" fill="#16232b"/>
<polygon points="390.7,469.8 0,79.1 0,128.8 341,469.8 0,810.8 0,860.5" fill="#16232b"/><polygon points="782.2,469.8 1080,172 1080,767.6" fill="#16232b"/>
<polygon points="1080,79.1 1080,128.8 739,469.8 1080,810.8 1080,860.5 689.3,469.8" fill="#16232b"/><polygon points="0,767.6 297.8,469.8 0,172" fill="#16232b"/>
</g>
</g>
<polygon points="238.4,469.8 -16.1,724.3 -53,687.3 164.5,469.8 -53,252.2 -16.1,215.3" fill="url(#erW3G04mHE612-fill)"/>
<polygon points="120.9,469.8 -31,621.7 -53,599.7 76.9,469.8 -53,339.9 -31,317.9" fill="url(#erW3G04mHE613-fill)"/>
<polygon points="40.9,469.8 -16.9,527.6 -25.3,519.2 24.1,469.8 -25.3,420.3 -16.9,412" fill="url(#erW3G04mHE614-fill)"/>
<polygon points="841.6,469.8 1096.1,215.3 1133,252.2 915.5,469.8 1133,687.3 1096.1,724.3" fill="url(#erW3G04mHE615-fill)"/>
<polygon points="959.1,469.8 1111,317.9 1133,339.9 1003.1,469.8 1133,599.7 1111,621.7" fill="url(#erW3G04mHE616-fill)"/>
<polygon points="1039.1,469.8 1096.9,412 1105.3,420.3 1055.9,469.8 1105.3,519.2 1096.9,527.6" fill="url(#erW3G04mHE617-fill)"/>
</g>
</svg>
