<?xml version="1.0" encoding="utf-8"?>
<!-- Generator: Adobe Illustrator 28.4.1, SVG Export Plug-In . SVG Version: 6.00 Build 0)  -->
<svg version="1.1" id="Layer_1" xmlns="http://www.w3.org/2000/svg" xmlns:xlink="http://www.w3.org/1999/xlink" x="0px" y="0px"
	 viewBox="0 0 512 512" style="enable-background:new 0 0 512 512;" xml:space="preserve">
<style type="text/css">
	.st0{fill:#FFFFFF;}
</style>
<path class="st0" d="M349.5,139.1v63.8c-2,0-1.3,0-3.7,0c-19.2-76.4-121.9-87.7-164.7-35.6c-47,57.3-20.5,137.6-19.4,140.3
	c6.8,17,15.6,30.1,25.6,40l-4.7,10.8c-3.6,7.6-8,12.3-14.5,14.7c-43.7-21.1-74.8-63.5-74.8-119c0-80.7,63.8-133.8,143.7-133.8
	C279.1,120.2,313.3,124.8,349.5,139.1z M367.6,337.4C367.6,337.4,367.6,337.4,367.6,337.4L367.6,337.4L367.6,337.4z M350,139.1
	 M367.5,332.6v4.6l0.1,0.1C367.6,335.8,367.5,334.2,367.5,332.6z M250.1,35.3C128.2,35.3,29.4,134.1,29.4,256
	c0,121.9,98.8,220.7,220.7,220.7c45.8,0,88.3-13.9,123.5-37.8C350,425,331,402.7,319.3,373.6c-22.8,9.4-51,14.3-85.4,14.3
	c-6,0-12-0.3-17.9-1v0h-55.1v-4.2c8.4,0,14.5-1.3,19.2-4.4c4.1-2.7,7.2-6.7,9.9-12.4l5-11.4l62.1-141.5c-4-14-22.8-58.1-66.3-43.3
	v-3.1c42.3-21.4,91.4-23.2,129.1,81.6h-43.3l0.8,15.1l-10.6-28.4l-32.4,77.4H296l-14.1-37.5h10.8c7.2,0,9.2,0.7,9.2,9.2l-0.8,42.1
	h-72.5l-16.3,38.9c41.5,19,89.5,0.1,99.8-27.6v-57.6c0-10.1-6.3-16.8-15.6-16.9h-8.9v-3.2H392v3.2h-8.9c-9.3,0.1-15.6,6.7-15.6,16.9
	v57.6l0.1,0.1c0,0,0,0,0,0c1.2,34.5,12,62.4,32.3,80.7h0c43.6-40.3,70.9-98,70.9-162C470.8,134.1,371.9,35.3,250.1,35.3z
	 M493.6,439.9v4.1c-40.1,15.8-78.5,14.8-110,0.2c-38.8,27.6-85,42.5-133.6,42.5c-61.6,0-119.6-24-163.1-67.6
	C43.4,375.5,19.4,317.6,19.4,256s24-119.5,67.6-163.1c43.6-43.6,101.5-67.6,163.1-67.6s119.5,24,163.1,67.6
	c43.6,43.6,67.6,101.5,67.6,163.1s-24,119.5-67.6,163.1c-1.8,1.8-3.6,3.5-5.4,5.2C428.6,438.9,457.2,444.9,493.6,439.9z"/>
</svg>
