<svg xmlns="http://www.w3.org/2000/svg" viewBox="0 0 24 24"><path fill="currentColor" d="M20.5 3.5A11.8 11.8 0 0 0 12.1 0C5.6 0 .3 5.3.3 11.8c0 2.1.5 4.1 1.6 5.9L.2 24l6.5-1.7a11.8 11.8 0 0 0 5.4 1.4h.1c6.5 0 11.8-5.3 11.8-11.8 0-3.2-1.2-6.1-3.5-8.4ZM12.2 21.7h-.1a9.8 9.8 0 0 1-5-1.4l-.4-.2-3.9 1 1-3.8-.2-.4a9.8 9.8 0 1 1 8.6 4.8Zm5.4-7.3c-.3-.2-1.8-.9-2.1-1-.3-.1-.5-.2-.7.2-.2.3-.8 1-.9 1.2-.2.2-.3.2-.6.1-1.7-.8-2.8-1.5-3.9-3.4-.3-.5.3-.5.8-1.6.1-.2.1-.4 0-.6l-1-2.4c-.3-.6-.5-.5-.7-.5H7.9c-.2 0-.6.1-.9.4-.3.3-1.2 1.2-1.2 2.9s1.2 3.4 1.4 3.6c.2.2 2.4 3.7 5.9 5.1 2.2.9 3 .9 4.1.8 1.3-.2 1.8-.9 2.1-1.7.3-.8.3-1.5.2-1.7-.1-.2-.3-.3-.6-.4Z"/></svg>