<?xml version="1.0" encoding="utf-8"?>
<!-- Generator: Adobe Illustrator 28.4.1, SVG Export Plug-In . SVG Version: 6.00 Build 0)  -->
<svg version="1.1" id="Layer_1" xmlns="http://www.w3.org/2000/svg" xmlns:xlink="http://www.w3.org/1999/xlink" x="0px" y="0px"
	 viewBox="0 0 1080 1080" style="enable-background:new 0 0 1080 1080;" xml:space="preserve">
<style type="text/css">
	.st0{fill:#72BCFD;}
	.st1{fill:#FFFFFF;}
	.st2{fill:#EAB671;}
	.st3{fill:#358040;}
</style>
<g>
	<path class="st0" d="M1036.5,540c0,274.2-222.3,496.5-496.5,496.5S43.5,814.2,43.5,540c0-264.4,206.7-480.6,467.3-495.7
		c9.7-0.6,19.4-0.9,29.3-0.9c4.4,0,8.9,0.1,13.3,0.2c10.2,0.3,20.2,0.8,30.2,1.7c9.8,0.8,19.5,2,29.1,3.4
		C737.5,67,847.4,131.9,923.9,225.1c9.7,11.8,18.8,24,27.4,36.6c9.9,14.6,19,29.8,27.4,45.4c14.3,26.8,26.2,55.1,35.4,84.6
		C1028.7,438.6,1036.5,488.4,1036.5,540z"/>
	<path class="st1" d="M761.9,395.5 M447.9,640.4 M451.2,624.3 M451.1,622.4c-0.8,0.2-1.8,0.2-2.6,0.4 M531.2,507.7 M587.4,184.2
		C587.4,184.2,587.4,184.2,587.4,184.2C587.4,184.2,587.4,184.2,587.4,184.2L587.4,184.2z M679.7,392.3c0.1,0.7-11.4-21-11.3-21.1
		c0-0.3,0.1-0.6,0-0.9c-0.8-3.6-2.1-7.1-3.8-10.4c-1.8-3.6-3.9-7.1-5.1-10.9c-0.2-0.7-0.5-1.3-0.8-1.9c-1.4-3.2-2.9-6.4-4.2-9.6
		c-0.9-2.2-1.5-4.5-2.5-6.6c-1.5-3.5-2.9-7-4.2-10.5c-1-2.9-2-5.8-2.9-8.7c-0.6-2-1.3-3.9-1.9-5.9c-0.9-2.9-1.8-5.7-2.6-8.6
		c-1-3.3-2.1-6.5-3-9.9c-0.9-3.5-1.6-7-2.4-10.5c-0.2-0.8-0.4-1.5-0.6-2.3c-0.5-2.7-0.9-5.4-1.3-8.1c0-0.1-0.1-0.3-0.1-0.4
		c-0.4-1.6-0.7-3.2-1-4.7c-0.6-3-1.1-6-1.7-9c-0.2-1.4-0.4-2.7-0.6-4.1c-0.3-2.8-0.5-5.6-0.7-8.4c-0.3-4.1-0.6-8.1-0.8-12.2
		c-0.3-9.1-0.1-18.2,0.5-27.3c0-0.6,0.1-1.3,0.2-1.9c0.3-2.7,0.5-5.5,0.8-8.2c0.1-0.8,0.1-1.7,0.4-2.5c0.6-1.5,0.7-3.1,0.8-4.6
		c0-0.4,0-0.9,0.1-1.3c0.9-3.1,1-6.4,2-9.5c1.2-3.4,1.9-7,2.9-10.5c0.5-1.7,1.1-3.5,1.7-5.2c1.3-3.3,2.6-6.6,4-9.8
		c1.1-2.5,2.3-4.9,3.5-7.3c1.2-2.3,2.7-4.5,3.8-6.8c1.7-3.4,3.9-6.5,6.1-9.6c1.3-1.9,2.7-3.9,4.1-5.8c0.2-0.2,0.2-0.5,0.3-0.8
		c14-31.4-1.4-21.8-13.8-10.2c-0.2,0.2-0.8,0.8-1.2,1.3c-2.1,2.8-4.4,5.5-6.3,8.3c-3.5,5-6.9,10-9.6,15.4
		c-2.8,5.6-5.8,11.1-8.2,16.8c-2.7,6.3-4.9,12.8-7.2,19.2c-1.1,3.1-2.3,6.2-2.7,9.5c-0.1,1-1.2,3.9-0.7,3
		c-3.7-21.3-18.4-10.2-22.6,4.3c-0.3,0.2-0.8,0.4-1,0.7c-0.9,1.5-1.8,3-2.7,4.6c-0.3,0.6-0.6,1.2-0.9,1.8c-1.9,3.5-3.9,7-5.5,10.6
		c-1.5,3.3-2.7,6.8-3.9,10.2c-0.6,1.7-1.1,3.4-1.5,5.1c-0.6,2.6-1.2,5.2-1.8,7.7c-0.4,2.1-0.8,4.1-1.2,6.2c-0.5,2.5-0.8,5-1.4,7.5
		c-0.5,2.2-2.1,10.1-2.1,10.1c-0.8,1.2-0.8,2.4-1,3.5c-0.8,3.9-1.6,7.8-2.3,11.7c-0.2,1-0.2,1.9-0.4,2.9c-0.2,1.6-0.6,3.2-0.7,4.8
		c-0.3,3.6-0.5,7.3-0.9,10.9c-0.6,4.7-0.8,9.5-0.8,14.3c-0.1,4.9,0.3,9.8,0.5,14.7c0.2,5,1,9.9,1.5,14.8c0.1,1.3,0.3,2.7,0.6,4
		c0.6,2.9,0.4,5.9,1.3,8.7c0.6,1.8,0.9,3.7,1.2,5.7c0.5,3.5,1.5,6.8,2.6,10.1c0.4,1.3,1.3,2.4,1.3,3.8c0.1,1.7,1,3.2,2.2,4.4
		c0.4,0.4,0.5,1.1,0.7,1.6c-0.1,0.1-0.2,0.1-0.3,0.2c-0.5-0.4-1.1-0.8-1.6-1.2c-1-0.8-2-1.6-3-2.4c-1.8-1.3-3.7-2.6-5.6-3.9
		c-3.6-2.6-7.1-5.2-10.8-7.8c-1.8-1.3-3.8-2.5-5.6-3.8c-3.1-2.1-6.2-4.3-9.3-6.5c-3-2.1-6.2-4.1-8.9-6.6c-1.5-1.4-3.2-2.5-4.7-3.8
		c-2.5-2.1-4.9-4.1-7.3-6.3c-3.6-3.2-7.2-6.4-10.7-9.7c-2.9-2.8-5.8-5.6-8.5-8.6c-3.4-3.6-6.8-7.2-10-11c-4.3-5-8.3-10.2-12.4-15.4
		c-2.3-2.9-4.6-5.9-6.7-9c-3.3-4.6-6.5-9.4-9.8-14c-0.1-0.2-0.2-0.3-0.4-0.5c-2.2-2.8-4-5.7-5.7-8.8c-2.2-4.3-4.5-8.5-6.7-12.8
		c-1.1-2.1-2-4.4-3.2-6.5c-3.8-6.8-6.2-14.1-8.6-21.4c-0.9-2.7-1.8-5.5-2.7-8.3c-0.8-2.4-1.5-4.9-2.2-7.3c-1.2-4.1-2.3-8.1-3.4-12.2
		c-0.8-2.8-1.6-5.6-2.1-8.4c-0.8-3.8-1.4-7.6-2.1-11.4c-0.6-3.6-1.2-7.2-1.7-10.8c-0.5-4.3-0.8-8.7-1.1-13.1c-0.3-4-1-16.7-1.1-19
		c-0.1-1.5-0.2-2.9-0.3-4.4c14.7-44.4-10.5-55.8-13.8-37.5c-0.1,0-0.2-0.1-0.3-0.1c-0.2,0.4-0.5,0.9-0.6,1.3c-0.5,1.5-1,3-1.4,4.5
		c-0.9,3.3-1.8,6.5-2.6,9.8c-1.3,5.9-2.5,11.8-3.8,17.7c-23.9,12-31.9,40.6-24.1,70.4c-0.1,0.4-0.2,0.7-0.3,1.1
		c-0.4,1.7-0.7,3.4-1.1,5c-0.2,0.9-0.3,1.7-0.4,2.6c-0.3,2.1-0.5,4.3-0.8,6.4c-0.2,1.8-0.5,3.5-0.7,5.3c-0.3,3.8-0.5,7.7-0.7,11.5
		c-14.8-11.6-27.6,19.8-14.8,54.9c-21.3-1.1-59.9,30.6-4.2,103.4c0.2,0.3,0,0.7,0.1,1c0.5,3.8,1.7,7.4,2.9,10.9
		c1.2,3.5,2.7,6.9,4.1,10.3c0.4,1,0.9,2,1.4,2.9c1.4,2.5,2.7,5.1,4.3,7.6c-2.4,12.6-26.7,24.5,35.4,61.3c-7.8,6.2-7,24.8,40.7,31
		c0.5,0.6,0.7,0.9,1,1.2l-0.6-0.7c-4.9,10.1-5.8,23.9,22,29.6c1.1,1.2,2.2,2.2,3.6,2.7c1.1,0.3,2.2,0.7,3.3,0.9c3,0.7,6,1.5,9,2
		c-2.3,4.2-0.6,12,16.3,13c2,0,3.6,1.6,5.4,2.4c3.1,1.4,6.4,2.3,9.6,3.4c2.4,0.8,4.8,1.3,7.3,1.8c1.2,0.2,2.4,0.4,3.6,0.5
		c0.8,0.1,1.6,0,2.4,0c0.7,3.2-1.1,7.7,12.4,8.9c1.1,0.5,2.2,0.9,3.5,0.6c0.3-0.1,1.5,0.8,1.8,0.9c-1.2,0.6-2.2,1.3-2.9,2.5
		c-0.4,0.8-1,1.5-1.5,2.2c-1.7,2.1-3.3,4.3-5,6.4c-0.5,0.6-1.1,1.2-1.7,1.8c-1.5,1.5-3,3-4.6,4.4c-2,1.8-3.9,3.6-6,5.2
		c-4.7,3.5-10,5.7-15.4,7.8c-1.6,0.6-3.3,1-4.9,1.4c-1.9,0.5-3.8,1-5.7,1.3c-3.6,0.5-7.2,0.8-10.8,1.2c-0.6,0.1-1.2,0.3-1.9,0.4
		c-1.3,0.2-2.6,0.4-3.9,0.5c-1.5,0.2-3.1,0.2-4.5,0.6c-2.5,0.6-4.9,0.8-7.5,0.8c-1.1,0-2.3,0.1-3.4,0.2c-2.6,0.3-5.2,0.8-7.8,0.9
		c-4.1,0.2-8.2,0.1-12.3,0.1c-6.7-0.1-13.4-0.1-20.1-0.3c-3.3-0.1-6.6-0.3-9.9-0.6c-1.4-0.1-2.8-0.3-4.3-0.4
		c-2.1-0.2-4.1-0.2-6.1-0.8c-0.6-0.2-1.2-0.3-1.7-0.3c-2.5-0.2-5.1-0.2-7.6-1.1c-0.3-0.1-0.6,0-0.9-0.1c-1.3-0.2-2.6-0.3-3.9-0.5
		c-1.8-0.2-3.6-0.5-5.4-0.8c-2-0.3-4-0.5-6-0.9c-2.5-0.4-4.9-1-7.4-1.5c-2.8-0.5-5.6-1.2-8.2-2.3c-1.4-0.6-2.8-1.3-4.2-1.8
		c-3.9-1.4-7.9-2.7-11.9-4c-0.6-0.2-1.2-0.3-1.8-0.4c-16.1-2.8-22.2,5.4-16.8,16c0.1,0.3,0,0.7,0.2,0.9c0.4,0.8,0.8,1.7,1.3,2.5
		c1.6,2.2,3.1,4.4,4.8,6.5c2.2,2.8,4.5,5.6,6.9,8.3c1.2,1.5,2.6,2.8,3.9,4.2c0.7,0.7,1.4,1.3,2.1,2.1c3.3,3.4,6.8,6.7,10.8,9.4
		c-2,12.5-0.4,23.8,19.5,29.7c0.8,0.6,1.5,1.2,2.3,1.7c-5.4,10.6,2.1,17.1,18.7,20.9c1.5,1.5,3,2.8,4.9,3.8c2.1,1.1,4.2,2.2,6.2,3.4
		c3.8,20.7,35.1,26.6,52,22c0.6-0.4,1.1-0.3,1.5-0.7c0.9-0.9,1.1-2,1.2-3.2c0.1-1.3,0.1-2.6,0.3-3.8c0.8-4.3,2.2-8.5,4-12.5
		c1.4-3.2,3-6.3,4.6-9.4c1-2,2.3-3.8,3.4-5.7c2-3.8,5-6.8,7.6-10.1c0.1-0.1,0.2-0.2,0.3-0.3c1.3-1.2,2.5-2.3,3.8-3.5
		c0.8-0.8,1.6-1.7,2.5-2.5c3.7-3.6,7.5-7,11-10.7c1.8-1.9,3.8-3.5,5.8-5c1.1-0.8,2.2-1.7,3.4-2.4c2.2-1.2,4.6-2.3,6.8-3.4
		c2.9-1.4,5.8-2.9,8.9-3.7c0.8-0.2,1.8-0.6,2.4-1.6c-0.4,0,14.5-7.4,17.2-7.3c5.7,0,11.3-0.1,17-0.2c4.4,0,8.8-0.6,13.2-1.3
		c1.3-0.2,2.5-0.2,3.8-0.4c1.5-0.2,3.1-0.6,4.6-0.9c1.3-0.3,2.7-0.7,4-1c3.2-0.6,6.3-1.3,9.4-2.2c2.9-0.9,6-1.6,8.9-2.4
		c5.2-1.4,10.2-3.2,15.1-5.3c2.2-0.9,4.5-1.7,6.8-2.5c0.5-0.2,1.1-0.5,1.6-0.8c0.6-0.3,1.1-0.6,1.7-0.9c1.5-0.8,3.1-1.5,4.6-2.3
		c3.2-1.7,6.3-3.4,9.5-5.1c1.9-1,3.8-1.9,5.6-3c5.2-3.5,10.3-7,15.5-10.6c0.9-0.6,1.8-1.3,2.6-2c3.8-3.3,7.6-6.7,11.4-10
		c1.6-1.4,3.1-3,4.6-4.5c1.9-1.9,3.7-3.9,5.5-6c1.3-1.4,2.6-2.8,3.7-4.4c2.2-3,4.4-6.2,6.6-9.3c1.4-2.1,2.8-4.2,4.1-6.3
		c0.7-1.2,1.2-2.6,1.8-3.9c1-2.1,2.2-4.2,3.1-6.4c1.5-3.8,3.2-7.5,4.1-11.5c0.5-2.3,1.2-4.6,1.8-6.8c0.4-1.6,0.8-3.2,1.2-4.8
		c0.2-0.6,0.3-1.2,0.4-1.9c0.3-1.1,0.5-2.3,0.7-3.4c0.3-1.4,0.5-2.7,0.7-4.1c0.2-1.2,0.4-2.4,0.5-3.6c0.4-3.5,0.7-7,1.1-10.6
		c0.2-2.3,0.4-4.7,0.7-7c0.3-3.5,0.5-7,1.1-10.4c0.7-4.1,0.8-8.3,1.9-12.4c0.7-2.5,1-5,1.5-7.5c0.1-0.3,0.2-0.6,0.3-0.8
		c0.6-2,1.3-3.9,1.9-5.9c1-3.2,1.8-6.5,3-9.7c1.2-3.1,2.7-6,4.1-9c0.1-0.2,3.2-5.4,3.5-4.9c1.6-1.1,3.2-2.2,4.8-3.3
		c1.7-1.2,3.6-1.9,5.5-2.4c3.6-0.9,7.3-1.8,10.9-2.7c2.5-0.3,5.1-0.5,7.2-0.3c0.5,0,1.1,0,1.6,0c0-1.9,0-3.7,0-5.6
		c-0.1,0-7.5-5.1-7.7-5.2c-2.5-1.3-5.2-2.2-7.9-3.3c-1.2-0.5-1.6-0.8-1.5-2c0.2-2.7-0.4-2.8-3-2.7c0,0-0.1,0-0.1,0
		c-1.4,0.4-2.3-0.2-3.2-1.3c-1.8-2.3-3.9-4.4-6.4-6c-2.8-1.8-5.8-3.2-8.8-4.4c-3.5-1.4-7.1-2.5-10.9-2.3c-2.4,0.1-4.7,0.2-7.1,0.4
		c-4.2,0.3-8.3,1.6-11.9,3.5C686.6,385.4,682.8,388.6,679.7,392.3z M623.7,617.2c-1.8,1.1-2.4,2.8-3.1,4.5c-0.4,1.1,0.1,2,1.2,2.2
		c0.5,0.1,1,0,1.4-0.1c2.8-0.7,4.7-2.5,6-5.1c1.8-3.8-0.2-7.9-4.3-8.6c-0.9-0.2-1.8-0.3-2.8,0.5c0.7,0.5,1.2,1,1.8,1.5
		C625.6,613.5,625.6,615.9,623.7,617.2z M471.1,727.2c4.3-5.4,12-7.4,18.1-10.3 M478,728.4c0.9-0.7,2.1-0.4,3.2-0.6 M707.6,723.8
		 M700.1,729.9"/>
	<polygon class="st2" points="337.4,812.4 466.9,830.6 467.6,864.9 605,795.4 605,775.8 736.6,709.8 742.8,712.3 853.1,658 
		853.1,632.1 748.6,627.7 647.2,669.5 611.5,669.5 471.1,727.2 469.1,729.9 469.8,757.8 	"/>
	<polygon class="st2" points="472,982.8 602.8,899.3 742.7,812.4 850.4,743.9 848.5,660.3 744.7,712.1 736.6,709.8 605,775.8 
		605,795.4 467.6,864.9 	"/>
	<path class="st2" d="M472,979.8c-0.4-6.4-4.8-135.1-5.1-149.1c-20-3-98.5-14.9-129.5-18.2c-7.1-0.8-0.5,41.5-1.5,35.6
		c-0.1,0,6.2,2.5,6.1,2.5c0.4,34.5,1.7,72.2,2.3,106.7c0.5,3.1,4.8,2,7,3.1c6.2,1.5,12.4,2.7,18.6,4c18.3,4.4,36.7,8.1,55,12.4
		c15.8,3.5,31.6,6.3,47.4,9.6C472,984,472,981.9,472,979.8z"/>
	<path class="st2" d="M659.2,649.5c0,0.1,0,0.2,0,0.2c1.2,5,2.4,10.1,3.6,15.1c0.9,3.8,3.7,5.9,6.5,5.2c0.1,0,0.2-0.1,0.3-0.1
		c0-0.2-0.1-0.3-0.1-0.4c-1.2-4.9-2.3-9.7-3.5-14.6c-0.5-2.1-1.4-3.7-2.8-4.7C662,649.3,660.7,649.1,659.2,649.5z M650.3,644
		c0,0.1,0,0.2,0,0.2c1.2,5,2.4,10.1,3.6,15.1c0.9,3.8,3.7,5.9,6.5,5.2c0.1,0,0.2-0.1,0.3-0.1c0-0.2-0.1-0.3-0.1-0.4
		c-1.2-4.9-2.3-9.7-3.5-14.6c-0.5-2.1-1.4-3.7-2.8-4.7C653.1,643.8,651.8,643.5,650.3,644z M640.9,638.4c0,0.1,0,0.2,0,0.2
		c1.2,5,2.4,10.1,3.6,15.1c0.9,3.8,3.7,5.9,6.5,5.2c0.1,0,0.2-0.1,0.3-0.1c0-0.2-0.1-0.3-0.1-0.4c-1.2-4.9-2.3-9.7-3.5-14.6
		c-0.5-2.1-1.4-3.7-2.8-4.7C643.7,638.2,642.4,638,640.9,638.4z M631.7,632.8c0,0.1,0,0.2,0.1,0.3c1.2,4.9,2.3,9.8,3.5,14.7
		c0.6,2.7,1.9,4.4,3.9,5.2c1,0.4,2,0.4,3,0.1c0-0.1-0.1-0.3-0.1-0.4c-1.2-4.9-2.3-9.7-3.5-14.6c-0.6-2.7-1.9-4.4-3.8-5.3
		C633.8,632.5,632.8,632.5,631.7,632.8z M622,627.3c0.1,0.2,0.1,0.3,0.2,0.5c0.6,1.8,1.3,3.6,1.8,5.6c0.8,3,1.5,6,2.2,9
		c1,3.9,3.7,6.1,6.6,5.4c0.1,0,0.2-0.1,0.3-0.1c0-0.1-0.1-0.2-0.1-0.3c-1.2-4.8-2.4-9.6-3.5-14.5c-0.9-4-3.5-6-6.2-5.7
		C622.9,627,622.5,627.2,622,627.3z M611.1,624.6c0.1,0.2,0.2,0.3,0.2,0.4c1.4,2.1,2.6,4.4,3.7,6.8c0.9,1.9,1.7,3.9,2.4,6
		c0.7,2.1,1.9,3.6,3.6,4.3c1,0.4,2,0.2,3,0c-0.2-0.7-0.4-1.2-0.5-1.9c-0.9-4.4-2.3-8.5-3.8-12.4c-1.6-3.9-5-5.1-7.8-3.6
		C611.7,624.2,611.4,624.4,611.1,624.6z M599.9,625.5c0,0.1,0.1,0.1,0.1,0.1c3.2,3,6,6.5,8.4,10.6c0.9,1.5,2,2.4,3.4,2.7
		c1.2,0.3,2.4-0.1,3.5-0.9c0-0.1,0-0.1,0-0.1c0-0.1-0.1-0.2-0.1-0.3c-1.8-4.6-4-8.6-6.6-12.3c-2.2-3-6.1-3-8.6-0.1
		C600,625.3,600,625.4,599.9,625.5z M589,629.8c0.2,0.1,0.4,0.3,0.6,0.3c3.1,1.7,6,3.8,8.7,6.4c0.7,0.7,1.4,1.4,2.2,1.9
		c2.1,1,4,0.5,5.8-1.5c-0.1-0.2-0.2-0.3-0.3-0.4c-2.1-3.2-4.5-6-7.1-8.4c-0.7-0.6-1.4-1.3-2.2-1.7c-2.5-1.2-4.9-0.4-7,2.2
		C589.5,629,589.2,629.4,589,629.8z M578.9,637.5c0.1,0,0.1,0,0.1,0.1c3.9,0.6,7.7,2,11.3,4.1c1.7,1,3.4,0.8,5.1-0.6
		c0.7-0.6,1.3-1.3,1.8-2.2c0-0.1-0.1-0.1-0.1-0.1c-0.1-0.1-0.1-0.1-0.2-0.2c-3-2.7-6.2-4.8-9.6-6.4c-2.4-1.1-4.5-0.4-6.5,1.8
		C580,634.9,579.3,636.1,578.9,637.5z M570.2,648.1c0.2,0,0.3,0,0.4-0.1c2.3-0.4,4.6-0.5,6.8-0.3c1.6,0.2,3.3,0.5,4.9,0.7
		c2,0.3,3.7-0.6,5.1-2.7c0.4-0.6,0.8-1.4,1.1-2.2c-0.1-0.1-0.2-0.1-0.3-0.2c-3.5-1.7-7.1-2.7-10.8-3.1c-3-0.3-5.9,2.6-6.9,6.5
		C570.3,647.2,570.3,647.6,570.2,648.1z M563.3,661.1c0.1,0,0.1,0,0.1,0c3.8-1.9,7.7-3,11.7-3.5c2.2-0.3,3.9-1.8,5-4.7
		c0.2-0.6,0.4-1.3,0.5-2c-0.1,0-0.2,0-0.3-0.1c-2.8-0.4-5.6-0.4-8.4,0c-0.9,0.1-1.7,0.3-2.6,0.5c-2.6,0.5-4.8,3.2-5.7,6.8
		C563.4,659,563.3,660,563.3,661.1z M558.4,674.6c0.1-0.1,0.2-0.1,0.2-0.1c3.7-2,7.4-4.1,11.2-5.9c2-0.9,3.4-2.9,4-5.8
		c0.2-0.8,0.2-1.5,0.2-2.3c-0.1,0-0.2,0-0.3,0.1c-3.7,0.6-7.3,2-10.9,4c-1.6,0.9-2.8,2.3-3.6,4.3
		C558.5,670.6,558.2,672.5,558.4,674.6z M553.8,687.7c0.1,0,0.2-0.1,0.2-0.1c3.6-2,7.3-3.9,10.9-5.9c2-1.1,3.4-3.2,4-6.2
		c0.3-1.2,0.3-2.5,0.2-3.8c-0.1,0-0.1,0-0.2,0.1c-3.6,2-7.3,3.9-10.9,6c-2.2,1.2-3.6,3.6-4.1,6.8
		C553.7,685.6,553.7,686.6,553.8,687.7z M548.9,700.9c0.1,0,0.2-0.1,0.2-0.1c3.6-2,7.3-3.9,10.9-5.9c2-1.1,3.4-3.2,4-6.2
		c0.3-1.2,0.3-2.5,0.2-3.8c-0.1,0-0.1,0-0.2,0.1c-3.6,2-7.3,3.9-10.9,6c-2.2,1.2-3.6,3.6-4.1,6.8
		C548.8,698.8,548.8,699.8,548.9,700.9z M544.7,713.9c0.1,0,0.2-0.1,0.3-0.1c3.6-1.9,7.2-3.9,10.7-5.8c2-1.1,3.3-3,4-5.7
		c0.4-1.4,0.4-2.8,0.3-4.3c-0.1,0-0.2,0.1-0.3,0.1c-3.6,1.9-7.2,3.9-10.7,5.8c-1.9,1.1-3.3,2.9-4,5.7
		C544.6,711,544.5,712.4,544.7,713.9z M540.1,727c0.1,0,0.1-0.1,0.2-0.1c3.7-2,7.3-3.9,10.9-6c2.2-1.2,3.6-3.6,4.1-6.8
		c0.2-1,0.2-2,0-3.1c-0.1,0.1-0.2,0.1-0.3,0.1c-3.6,1.9-7.1,3.9-10.7,5.8c-1.5,0.8-2.7,2.2-3.5,4.2C540.1,723,539.8,725,540.1,727z
		 M546.7,734c2.1-1.4,3.5-3.6,4-6.8c0.2-1,0.2-2,0-3c-0.1,0.1-0.2,0.1-0.3,0.1c-3.2,1.8-6.1,4.7-9.7,5.3c-0.9,0.2-3.7,3.8-4.1,4.9
		c2.7,0.4,5.3,0.7,8,1.1C545.5,734.9,546.7,734.1,546.7,734z"/>
	<path class="st3" d="M750.8,416.1c-0.8,6-0.2,12,0,18c0.1,3.2,2.4,5.4,4.9,4.9c3.1-0.5,2.3-3,2.4-5.1c0.1-7.1,0.4-14.2,0.5-21.2
		c0-0.3,0-0.7,0.1-1.1c0.7-2.5,0.6-3.6,1.6-5.6c-0.1,0-0.1-0.1-0.2-0.1c0.4-1,1-1.9,1.6-2.6c3.5-3.8,6.9-7.5,10.3-11.3
		c4.4,3.9,9.2,4.1,13.9,1.5c9.7-5.2,15.6-13.2,17-24.2c0.2-1.6,0-3.2,0-4.8c-11.7-2.9-27.8,5-32.1,15.8c-0.8,2.1-0.7,4.5-1.1,6.8
		c-0.1,0.8-0.1,1.9-0.5,2.3c-2.3,2-4.7,3.9-7.3,6c0-0.8-0.1-1.1,0-1.3c3-9.9,6.1-19.8,9.2-29.7c0.2-0.5,0.5-1.1,0.9-1.5
		c5.3-4.9,10.6-9.7,15.9-14.6c4.5,4.3,9.5,4.4,14.4,1.8c10.3-5.5,15.8-14.3,16.6-26c0.2-2.1-0.7-2.9-2.8-3
		c-11.5-0.6-20.5,4-27.3,13.2c-2.2,3-3.3,6.6-2.4,10.5c0.1,0.6-0.1,1.7-0.5,2c-3.6,3-7.3,6-11.6,9.4c0.6-1.5,0.8-2.2,1.1-2.9
		c4.6-10.9,9.8-21.6,13.8-32.7c2.6-7.3,8.8-10.3,14-14.8c2.6,3.3,5.6,4.1,9.3,3.2c8.2-2.2,15.4-13.3,14-22
		c-7.4-1.2-13.7,1.2-19.1,6.2c-3,2.7-5,5.9-4.8,10.2c0,0.6-0.3,1.4-0.7,1.7c-2.5,2-5.2,3.9-8.3,6.2c3.4-8.6,6.5-16.5,9.6-24.4
		c6.7,1.3,10.9-2,13.4-7.5c1.8-4,2.8-8.4,3.4-12.8c0.6-4.5-0.5-9-3.2-12.9c-9.1,2.5-14.6,8.6-17.7,16.9c-2.2,5.9-2.4,11.6,3.3,16
		c-1,2.3-2,4.5-3,6.7c-1,2.2-2.1,4.5-3.4,7.2c-0.9-2.5-1.6-4.3-2.1-6.1c-0.2-0.6-0.2-1.6,0.2-2.1c5.9-6.7-1-24.1-10.6-26.6
		c-4.9,5.2-6.2,14-3.2,21.9c2.2,5.9,5.5,7.9,11.8,7c0.4,1.6,0.7,3.4,1.4,4.9c1.1,2.8,0.6,5.1-0.8,7.7c-3.9,7.2-7.5,14.5-11.2,21.7
		c-1,1.8-2,3.7-3.2,5.9c-0.7-2.4-1.4-4.2-1.8-6.1c-0.2-0.8,0.3-1.7,0.6-2.6c0.9-2.8,2.6-5.6,2.6-8.4c0-8.8-3.7-16.1-10.7-21.6
		c-1.3-1-2.7-1.7-4.2-2.5c-5.1,6.2-6.2,13-5.4,20.2c1,9.8,4.9,13.9,14.5,15.2c0.5,1.7,0.8,3.6,1.4,5.3c1,2.8,0.5,5.2-0.8,8
		c-5,10.6-9.6,21.4-14.4,32.1c-0.2,0.5-0.5,0.9-0.9,2c-0.8-2.9-1.6-5.2-1.9-7.5c-0.2-1,0.4-2.2,0.9-3.2c1.3-2.6,3.5-5.1,4.1-7.8
		c2.3-10.8-1.5-20.3-7.7-28.9c-3.4-4.7-7.8-8.3-13.3-10.6c-0.5,0.6-1,1-1.4,1.6c-0.8,1.2-1.7,2.4-2.4,3.7c-5.6,10.9-6,22.2-1.6,33.5
		c3.5,9.1,8.8,12.2,18.6,11.4c0.7,2.9,1.5,5.8,2.1,8.7c0.4,1.7,1.2,3.5,0.9,5.1c-0.8,3.5-2.1,6.5-4.2,18.9
		C752.8,401.1,751,414.7,750.8,416.1z"/>
	<path d="M761.9,395.5 M758.5,411.7c0.5,0,1.1,0,1.6,0c0-1.9,0-3.7,0-5.6c-0.1,0-7.5-5.1-7.7-5.2c-2.5-1.3-5.2-2.2-7.9-3.3
		c-1.2-0.5-1.6-0.8-1.5-2c0.2-2.7-0.4-2.8-3-2.7c0,0-0.1,0-0.1,0c-1.4,0.4-2.3-0.2-3.2-1.3c-1.8-2.3-3.9-4.4-6.4-6
		c-2.8-1.8-5.8-3.2-8.8-4.4c-3.5-1.4-7.1-2.5-10.9-2.3c-2.4,0.1-4.7,0.2-7.1,0.4c-4.2,0.3-8.3,1.6-11.9,3.5
		c-4.5,2.4-8.6,5.4-11.9,9.5c-2.7,3.4-5,6.9-6.9,10.8c-2.2,4.5-4.2,9-6.4,13.4c-1.5,3-3.3,5.9-5.5,8.5c-1.5,1.8-2.8,3.7-4.2,5.5
		c-2.1,2.7-4.1,5.5-6.3,8.1c-1.4,1.7-2.8,3.3-4.4,4.8c-1,1-1.9,2-2.9,3c-0.7,0.7-1.4,0.6-1.9-0.3c-0.1-0.2-0.2-0.4-0.3-0.7
		c-1.8-3.9-3.7-7.8-6.1-11.5c-1.8-2.8-3.8-5.6-5.8-8.4c-1.3-1.9-2.7-3.7-4.1-5.6c-2.3-3.2-4.6-6.5-7-9.7
		c-4.1-5.5-8.6-10.7-13.4-15.5c-3.7-3.7-7.4-7.4-11.1-11c-1.8-1.8-3.6-3.5-5.5-5.1c-2.2-2-4.6-3.9-6.8-5.9c-0.6-0.5-1.3-1.2-1.6-1.9
		c-0.6-1.2-1-2.6-1.3-3.9c-1.2-4.6-2.4-9.3-4.3-13.7c-0.2-0.6-0.4-1.1-0.6-1.7c-1-3.2-2-6.5-2.8-9.8c-0.9-3.3-1.6-6.7-2.3-10.1
		c-0.5-2.7-0.7-5.6-1.4-8.3c-0.8-3.2-1.1-6.5-1.5-9.8c-0.3-2.3-0.5-4.5-0.7-6.8c-0.3-4-1.3-8-1.2-12.1c0.1-3.2-0.6-6.4-0.4-9.7
		c0.4-4.5,0.2-9.1,0.4-13.6c0.1-1.9,0.3-3.8,0.6-5.7c0.2-1.4,0.5-2.8,0.7-4.2c0.4-3.2,0.6-6.4,1-9.5c0.1-1.1,0-2.2-0.2-3.6
		c-0.8,1.2-0.8,2.4-1,3.5c-0.8,3.9-1.6,7.8-2.3,11.7c-0.2,1-0.2,1.9-0.4,2.9c-0.2,1.6-0.6,3.2-0.7,4.8c-0.3,3.6-0.5,7.3-0.9,10.9
		c-0.6,4.7-0.8,9.5-0.8,14.3c-0.1,4.9,0.3,9.8,0.5,14.7c0.2,5,1,9.9,1.5,14.8c0.1,1.3,0.3,2.7,0.6,4c0.6,2.9,0.4,5.9,1.3,8.7
		c0.6,1.8,0.9,3.7,1.2,5.7c0.5,3.5,1.5,6.8,2.6,10.1c0.4,1.3,1.3,2.4,1.3,3.8c0.1,1.7,1,3.2,2.2,4.4c0.4,0.4,0.5,1.1,0.7,1.6
		c-0.1,0.1-0.2,0.1-0.3,0.2c-0.5-0.4-1.1-0.8-1.6-1.2c-1-0.8-2-1.6-3-2.4c-1.8-1.3-3.7-2.6-5.6-3.9c-3.6-2.6-7.1-5.2-10.8-7.8
		c-1.8-1.3-3.8-2.5-5.6-3.8c-3.1-2.1-6.2-4.3-9.3-6.5c-3-2.1-6.2-4.1-8.9-6.6c-1.5-1.4-3.2-2.5-4.7-3.8c-2.5-2.1-4.9-4.1-7.3-6.3
		c-3.6-3.2-7.2-6.4-10.7-9.7c-2.9-2.8-5.8-5.6-8.5-8.6c-3.4-3.6-6.8-7.2-10-11c-4.3-5-8.3-10.2-12.4-15.4c-2.3-2.9-4.6-5.9-6.7-9
		c-3.3-4.6-6.5-9.4-9.8-14c-0.1-0.2-0.2-0.3-0.4-0.5c-2.2-2.8-4-5.7-5.7-8.8c-2.2-4.3-4.5-8.5-6.7-12.8c-1.1-2.1-2-4.4-3.2-6.5
		c-3.8-6.8-6.2-14.1-8.6-21.4c-0.9-2.7-1.8-5.5-2.7-8.3c-0.8-2.4-1.5-4.9-2.2-7.3c-1.2-4.1-2.3-8.1-3.4-12.2
		c-0.8-2.8-1.6-5.6-2.1-8.4c-0.8-3.8-1.4-7.6-2.1-11.4c-0.6-3.6-1.2-7.2-1.7-10.8c-0.5-4.3-0.8-8.7-1.1-13.1c-0.3-4-0.4-8-0.7-11.9
		c-0.1-2.4-0.3-4.7-0.4-7.1c-0.1-1.5-0.2-2.9-0.3-4.4c-0.2,1.2-0.2,2.3-0.3,3.5c-0.1,2.9-0.2,5.8-0.1,8.7c0.1,3.7,0.6,7.3,0.3,11
		c0,0.5,0,1.2,0.1,1.7c0.6,3.9,1.1,7.9,1,11.9c0,1,0.3,1.9,0.4,2.9c0.2,1.2,0.5,2.3,0.7,3.5c0.5,3.5,0.9,7.1,1.5,10.6
		c0.5,2.9,1.2,5.7,1.8,8.5c0.9,4,1.8,7.9,2.8,11.9c0.7,2.8,1.5,5.5,2.3,8.2c1.1,3.7,2.2,7.3,3.5,11c1.4,4.2,3,8.4,4.5,12.5
		c0.8,2.1,1.5,4.2,2.4,6.2c2,4.6,4.2,9.2,6.4,13.7c1.5,3.1,3.1,6.1,4.7,9.1c1.4,2.5,3.8,6.4,5.3,8.8c3.7,5.7,7.3,11.4,11.1,17
		c2.5,3.6,5.1,7.1,7.7,10.6c3.4,4.6,6.8,9.2,10.3,13.7c3.3,4.2,6.7,8.4,10.1,12.5c2.8,3.4,5.6,6.7,8.5,10c2.7,3.2,5.5,6.3,8.3,9.4
		c1.4,1.5,3,2.9,4.3,4.5c4,4.8,8.8,8.7,13,13.3c0.1,0.1,0.3,0.2,0.4,0.4c4.4,3.4,8.5,7.2,13,10.5c4.2,3.1,8.3,6.4,12.4,9.5
		c2.2,1.7,4.5,3.4,6.7,5c0.9,0.6,1.8,1.2,2.6,1.9c2.4,2,4.8,4,7.3,6c3.1,2.5,6.3,4.9,9.4,7.4c2.3,1.9,4.4,4,6.6,5.9
		c7,5.8,13.6,12.2,19.9,18.7c2.4,2.5,4.7,4.9,7,7.5c2,2.3,3.9,4.7,5.9,7c1.6,1.8,3.2,3.6,4.7,5.5c2.7,3.3,5.4,6.6,8.2,9.9
		c3.5,4.1,6.5,8.5,9.1,13.2c1.8,3.3,3.9,6.5,5,10.2c0.7,2.4,1.7,4.8,2.1,7.3c0.3,1.7,0.8,3.4,1,5.1c0.2,1.8,0.2,3.6,0.3,5.4
		c0.1,1,0.3,2,0.4,3c0.1,0,0.2,0,0.3,0c0.1-0.4,0.3-0.9,0.3-1.3c0.1-1.2,0.3-2.5,0.3-3.7c-0.1-2.4-0.2-4.8-0.5-7.2
		c-0.3-2.5-0.5-5.1-1.1-7.6c-1.2-4.4-1.9-8.9-3.5-13.2c-0.5-1.5-0.2-2.8,1.2-3.7c0.4-0.3,0.7-0.5,1-0.8c2.6-2.5,5.2-5,7.7-7.6
		c1.7-1.7,3.4-3.2,5-5c3.1-3.3,6.1-6.7,9.1-10.1c1.2-1.4,2.4-2.7,3.5-4.1c0.7-0.9,1.4-2,2-3c2.5-4.2,4.9-8.4,6.9-12.8
		c1.5-3.5,3.5-6.7,6.3-9.4c2-1.9,4.2-3.6,6.7-4.9c3.8-2,8-3,12.3-3.6c2-0.2,4.1,0,6.2,0.3c2.4,0.3,4.8,0.7,7.2,1.3
		c2.1,0.6,4.2,1.3,6.1,2.6c2.7,1.9,5.2,3.9,7.2,6.5c0.6,0.7,0.6,1.7,0.1,2.5c-0.9,1.6-1.2,3.4-1.4,5.1c-0.2,1.1-0.7,2.1-1.6,2.8
		c-0.4,0.3-0.8,0.7-1.4,1.2c1.3,0,2.4-0.4,3.4-1.2c1.6-1.4,3.2-2.9,4.9-4.3c0.3-0.2,0.5-0.5,0.8-0.7c0.5-0.4,1-0.4,1.6,0.1
		c0.6,0.5,1.3,0.9,2,1.2c3,1.4,6.1,2.8,9.4,3.5c0.2,0,0.4,0,0.6,0.1c0.6,0.3,0.7,0.8,0.2,1.1c-0.5,0.3-1.1,0.4-1.6,0.6
		c-1,0.3-1.9,0.6-2.9,0.9c-0.3,0.1-0.6,0.3-0.9,0.4c-3.8,1.2-7.2,3.1-10.7,5.1c-1.6,0.9-3.1,2.2-3.8,3.8c-0.1,0.3-0.2,0.6,0.1,1
		c1.6-1.1,3.2-2.2,4.8-3.3c1.7-1.2,3.6-1.9,5.5-2.4c3.6-0.9,7.3-1.8,10.9-2.7C753.8,411.7,756.4,411.4,758.5,411.7z M527.3,623.2
		c-1.7-0.3-3.5-0.7-5.2-1.1c-0.9-0.2-1.5-0.1-2.1,1.1c0.8,0.2,1.4,0.4,2,0.5c2.4,0.5,4.7,0.8,7.1,1.4c2.6,0.7,5.2,1.1,7.9,1.1
		c5.7,0,11.3-0.1,17-0.2c4.4,0,8.8-0.6,13.2-1.3c1.3-0.2,2.5-0.2,3.8-0.4c1.5-0.2,3.1-0.6,4.6-0.9c1.3-0.3,2.7-0.7,4-1
		c3.2-0.6,6.3-1.3,9.4-2.2c2.9-0.9,6-1.6,8.9-2.4c5.2-1.4,10.2-3.2,15.1-5.3c2.2-0.9,4.5-1.7,6.8-2.5c0.5-0.2,1.1-0.5,1.6-0.8
		c0.6-0.3,1.1-0.6,1.7-0.9c1.5-0.8,3.1-1.5,4.6-2.3c3.2-1.7,6.3-3.4,9.5-5.1c1.9-1,3.8-1.9,5.6-3c5.2-3.5,10.3-7,15.5-10.6
		c0.9-0.6,1.8-1.3,2.6-2c3.8-3.3,7.6-6.7,11.4-10c1.6-1.4,3.1-3,4.6-4.5c1.9-1.9,3.7-3.9,5.5-6c1.3-1.4,2.6-2.8,3.7-4.4
		c2.2-3,4.4-6.2,6.6-9.3c1.4-2.1,2.8-4.2,4.1-6.3c0.7-1.2,1.2-2.6,1.8-3.9c1-2.1,2.2-4.2,3.1-6.4c1.5-3.8,3.2-7.5,4.1-11.5
		c0.5-2.3,1.2-4.6,1.8-6.8c0.4-1.6,0.8-3.2,1.2-4.8c0.2-0.6,0.3-1.2,0.4-1.9c0.3-1.1,0.5-2.3,0.7-3.4c0.3-1.4,0.5-2.7,0.7-4.1
		c0.2-1.2,0.4-2.4,0.5-3.6c0.4-3.5,0.7-7,1.1-10.6c0.2-2.3,0.4-4.7,0.7-7c0.3-3.5,0.5-7,1.1-10.4c0.7-4.1,0.8-8.3,1.9-12.4
		c0.7-2.5,1-5,1.5-7.5c0.1-0.3,0.2-0.6,0.3-0.8c0.6-2,1.3-3.9,1.9-5.9c1-3.2,1.8-6.5,3-9.7c1.2-3.1,2.7-6,4.1-9
		c0.1-0.2,0.2-0.5,0.2-0.7c-0.1-0.1-0.2-0.1-0.3-0.2c-0.2,0.3-0.4,0.5-0.6,0.8c-0.8,1.2-1.7,2.4-2.5,3.6c-0.7,1.2-1.4,2.4-1.9,3.6
		c-1.4,3.1-2.7,6.2-4.1,9.3c-0.9,2.1-2.1,4.1-2.9,6.3c-1.3,3.4-2.4,6.9-3.6,10.3c-1.1,3.2-2.1,6.3-2.8,9.6c-1.2,6-2.6,11.9-3.9,17.9
		c-0.8,3.7-1.5,7.3-2.2,11c-0.5,2.4-0.9,4.7-1.5,7.1c-0.5,2.4-1.1,4.8-1.7,7.2c-1,4-2,8.1-3.2,12.1c-0.8,2.8-1.9,5.6-2.9,8.4
		c-0.3,1-0.6,2-1,2.9c-1.9,4.3-4.2,8.3-6.7,12.3c-1.6,2.5-3.2,5-5,7.3c-2.4,3.1-4.8,6.2-7.4,9.2c-2.2,2.6-4.6,5-7.1,7.3
		c-2.6,2.5-5.3,5-8,7.4c-2.4,2.1-4.9,4.1-7.4,6c-2.1,1.6-4.2,3.3-6.4,4.8c-2.8,1.9-5.8,3.7-8.7,5.6c-1.7,1-3.4,2-5,3.1
		c-3.6,2.2-7.3,4.4-11.3,6.1c-1,0.4-2,0.8-3,1.3c-4.1,2.3-8.4,4.1-12.7,5.8c-1.1,0.5-2.3,0.7-3.5,1.2c-2,0.8-4,1.7-6,2.5
		c-0.5,0.2-0.9,0.4-1.4,0.5c-2.7,0.7-5.4,1.3-8,2.5c-0.5,0.2-1,0.5-1.6,0c0.5-0.5,1-0.9,1.5-1.4c2.1-2,3.8-4.1,4.2-7.1
		c0.1-0.6,0.2-1.2,0.3-1.7c0.3-2-0.9-4.5-2.8-5.4c-2.2-1.1-4.5-0.9-6.6,0.1c-2.8,1.3-5.6,2.7-8.2,4.3c-3.7,2.2-7.3,4.5-11.5,5.4
		c-0.5,0.1-1.1,0.3-1.1,1c0.7,0.4,1.4,0.3,2,0.2c3.7-0.9,7.4-1.9,11.1-2.8c2.4-0.6,4.9-1.1,7.3-1.7c0.1,0,0.2,0.1,0.3,0.2
		c0.4,0.8-0.1,1.6-0.4,2.3c-0.4,1.1-1,2.2-1.4,3.3c-0.7,2.1-0.3,3.4,1.5,3.9c0.3,0.1,0.5,0.4,0.9,0.7c-1.2,0.3-2.2,0.4-3.1,0.7
		c-2,0.6-4,1.2-6.1,1.7c-1,0.3-2.1,0.1-3,0.5c-2.5,1-5.2,1.1-7.8,1.6c-3.5,0.7-7,0.7-10.5,1.2c-4.2,0.6-8.4,0.5-12.7,0
		c-0.9-0.1-1.9-0.2-2.8-0.3C531.7,623.7,529.5,623.6,527.3,623.2z M336,581.6c1.8,0.9,3.6,1.8,5.5,2.5c3.7,1.4,7.2,3.2,10.6,5.1
		c2.3,1.3,4.7,2.5,7.1,3.5c3.2,1.4,6.5,2.5,9.8,3.8c1,0.4,1.9,0.9,2.8,1.2c3.1,1.2,6.3,2.3,9.4,3.5c2.6,0.9,5.2,1.8,7.8,2.6
		c0.3,0.1,0.6,0.1,0.9,0.1c1,0.2,1.9,0.5,2.9,0.7c1.1,0.2,2.2,0.5,3.3,0.7c0.5,0.1,1.1,0.1,1.6,0.3c2.9,1,5.9,1.4,8.9,1.8
		c2.7,0.4,5.4,0.6,8,0.9c2.5,0.3,5.1,0.6,7.6,0.8c1.6,0.1,3.1,0.1,4.7,0.1c2.8,0.1,5.7,0.4,8.5,0.3c3.9-0.2,7.8-0.2,11.7-0.3
		c3.4-0.2,6.8-0.3,10.1-0.8c4.5-0.6,8.9-1.4,13.3-2.3c2.9-0.6,5.8-0.9,8.6-1.9c2-0.7,4.1-1.1,6.1-1.5c3.3-0.7,6.7-1.3,9.7-2.9
		c0.3-0.2,0.7-0.3,1.1-0.4c2.8-0.9,5.6-1.7,7.9-3.6c0.2-0.2,0.4-0.2,0.6-0.4c2.1-1.3,4.4-2.4,6.1-4.3c0.3-0.3,0.7-0.5,1.1-0.8
		c2.4-2.2,4.8-4.3,7.2-6.5c0.2-0.2,0.3-0.4,0.5-0.6c0.7-0.8,1.3-1.7,2-2.5c2.6-2.8,4.8-5.9,6.8-9.1c2.2-3.5,4.3-7.1,6.5-10.6
		c0.5-0.8,0.6-1.5-0.3-2.2c-1.2,0.6-2.2,1.3-2.9,2.5c-0.4,0.8-1,1.5-1.5,2.2c-1.7,2.1-3.3,4.3-5,6.4c-0.5,0.6-1.1,1.2-1.7,1.8
		c-1.5,1.5-3,3-4.6,4.4c-2,1.8-3.9,3.6-6,5.2c-4.7,3.5-10,5.7-15.4,7.8c-1.6,0.6-3.3,1-4.9,1.4c-1.9,0.5-3.8,1-5.7,1.3
		c-3.6,0.5-7.2,0.8-10.8,1.2c-0.6,0.1-1.2,0.3-1.9,0.4c-1.3,0.2-2.6,0.4-3.9,0.5c-1.5,0.2-3.1,0.2-4.5,0.6c-2.5,0.6-4.9,0.8-7.5,0.8
		c-1.1,0-2.3,0.1-3.4,0.2c-2.6,0.3-5.2,0.8-7.8,0.9c-4.1,0.2-8.2,0.1-12.3,0.1c-6.7-0.1-13.4-0.1-20.1-0.3c-3.3-0.1-6.6-0.3-9.9-0.6
		c-1.4-0.1-2.8-0.3-4.3-0.4c-2.1-0.2-4.1-0.2-6.1-0.8c-0.6-0.2-1.2-0.3-1.7-0.3c-2.5-0.2-5.1-0.2-7.6-1.1c-0.3-0.1-0.6,0-0.9-0.1
		c-1.3-0.2-2.6-0.3-3.9-0.5c-1.8-0.2-3.6-0.5-5.4-0.8c-2-0.3-4-0.5-6-0.9c-2.5-0.4-4.9-1-7.4-1.5c-2.8-0.5-5.6-1.2-8.2-2.3
		c-1.4-0.6-2.8-1.3-4.2-1.8c-3.9-1.4-7.9-2.7-11.9-4c-0.6-0.2-1.2-0.3-1.8-0.4C335.6,581.3,335.7,581.5,336,581.6z M350.1,270.8
		c0,2,0.1,3.9,0.3,5.9c0.3,3.7,0.6,7.3,0.9,11c0.1,0.7,0.1,1.5,0.2,2.2c0.3,2.3,0.8,4.6,0.9,6.9c0.2,3.2,1.1,6.3,1.9,9.4
		c0.8,2.8,2.1,5.5,3.1,8.3c1.5,4.1,3.7,7.8,5.7,11.6c2.2,4.2,4.5,8.3,6.8,12.4c1.2,2.2,2.5,4.5,3.8,6.7c1.3,2.2,2.7,4.2,4,6.4
		c3,5.1,6.5,9.7,10.3,14.2c3.9,4.5,7.7,9.1,12.2,13c3,2.5,5.9,5.1,8.9,7.5c1.7,1.4,3.6,2.6,5.4,3.9c2.2,1.5,4.4,3.2,6.7,4.5
		c4.3,2.4,8.6,4.5,12.9,6.7c3.3,1.7,6.9,2.9,10.4,4.2c4.1,1.5,8.5,2.6,12.6,4.1c2.7,1,5.4,1.4,8.1,2.1c4.2,1.1,8.4,1.8,12.7,2.6
		c2.6,0.5,5.2,0.8,7.9,1.1c1.1,0.1,2.1,0.2,3.2,0.3c1.5,0.1,2.9,0.2,4.4,0.4c3.3,0.3,6.5,1.1,9.8,0.8c1-0.1,2.1-0.1,3.1,0.1
		c1.1,0.2,2-0.1,3-0.4c1.4-0.4,1.9-1.4,2-2.8c0.1-1.2-0.3-1.5-1.4-1.8c-5-1-10.1-1.3-15.1-2.5c-0.1,0-0.3,0-0.4-0.1
		c-2.9-0.1-5.5-1.2-8.3-1.7c-2.6-0.5-5.1-1.2-7.6-1.8c-3-0.7-6-1.3-8.9-2.1c-3.2-0.9-6.4-2-9.6-3c-3.3-1.1-6.6-2.2-9.9-3.4
		c-2.6-1-5.2-2-7.8-3.1c-5.8-2.3-11.3-5.1-16.8-7.9c-2.4-1.2-4.7-2.7-7-4c-0.3-0.1-0.5-0.3-0.7-0.5c-2.9-2-5.8-3.9-8.6-6
		c-2.6-1.9-5.1-4.1-7.6-6c-3.6-2.8-7-5.9-10.1-9.3c-1.3-1.4-2.5-2.8-3.8-4.2c-1.1-1.3-2.2-2.5-3.2-3.9c-2.5-3.1-5.1-6.2-7.4-9.4
		c-2.1-2.9-4-5.9-6-8.9c-1.9-2.8-3.8-5.5-5.5-8.4c-2.7-4.7-5.3-9.4-7.1-14.5c-1.5-4.4-3.2-8.6-3.7-13.3c-0.5-4.9-1.3-9.7-2-14.6
		c-0.2-1.8-0.4-3.6-0.7-5.4c-0.2-1.6-0.5-3.2-0.7-4.8c-0.2-1.4-0.2-2.8-0.6-4.1c-0.5-1.8-1-3.5-1-5.3c0-0.3-0.2-0.5-0.3-0.8
		c-0.1,0-0.2,0.1-0.3,0.1c0.1,1.2,0,2.5,0.3,3.6C349.9,268.1,350.1,269.4,350.1,270.8z M348.1,378.5c1.2,3.5,2.7,6.9,4.1,10.3
		c0.4,1,0.9,2,1.4,2.9c1.4,2.5,2.7,5.1,4.3,7.6c3,4.7,6.2,9.2,10.2,13.1c4.1,3.9,8.2,7.8,13.1,10.8c6,3.7,12.2,7.1,18.8,9.8
		c5,2,10.1,3.9,15.3,5.4c2.6,0.7,5.2,1.2,7.7,1.8c1.7,0.4,3.3,0.9,5,1.2c1.3,0.2,2.5,0.3,3.7,0.8c0.4,0.2,0.9,0.3,1.4,0.4
		c2.6,0.2,5.3,0.2,7.8,1.1c0.1,0,0.3,0,0.4,0.1c2.7,0.4,5.4,0.8,8.2,1.2c0.6,0.1,1.3,0.1,1.9,0.2c2.6,0.4,5.2,0.7,7.9,1.1
		c2.6,0.4,5.1,0.9,7.8,0.8c0.3,0,0.7,0,1,0.1c2.6,0.2,5.2,0.6,7.8,0.7c3.6,0.1,7.2,0.1,10.8,0.1c3.3,0,6.6-0.1,9.9-0.6
		c2.6-0.3,5.2-0.6,7.8-0.9c1.9-0.2,3.7-0.4,5.5-0.7c1.4-0.3,2.6-0.9,2.9-2.5c-0.6-0.8-1.4-0.7-2.2-0.7c-2.7,0-5.4,0-8.1,0
		c-0.4,0-0.9,0-1.3,0.1c-2.7,0.2-5.5,0.5-8.2,0.5c-2.4,0-4.7-0.2-7.1-0.3c-3.3-0.1-6.6-0.2-9.9-0.4c-1.3-0.1-2.6-0.4-3.9-0.6
		c-0.9-0.2-1.8-0.4-2.7-0.5c-2.5-0.4-5.1-0.5-7.6-1c-4.3-1-8.7-1.2-13-1.6c-2.3-0.2-4.7-0.3-7-0.9c-0.9-0.2-1.9-0.2-2.8-0.3
		c-1.2-0.2-2.3-0.3-3.5-0.5c-1-0.2-1.9-0.4-2.9-0.6c-2.7-0.5-5.5-1-8.2-1.5c-0.1,0-0.3-0.1-0.4-0.2c-1-0.2-1.9-0.5-2.9-0.7
		c-0.6-0.1-1.3-0.3-1.9-0.4c-2.2-0.6-4.4-1.2-6.5-1.8c-1-0.3-2.1-0.6-3.1-0.9c-0.7-0.2-1.3-0.5-2-0.6c-4.1-1-8-2.4-11.8-4.2
		c-2.3-1.1-4.6-2-6.8-3.2c-2.6-1.4-5.3-2.9-7.8-4.5c-2.4-1.6-4.5-3.5-6.9-5.1c-3.3-2.3-6.1-5.1-8.8-8.1c-2.1-2.4-4-5-6-7.5
		c-1.8-2.2-3.3-4.7-4.6-7.2c-1.8-3.4-3.4-6.9-4.8-10.4c-1.5-3.8-2.8-7.8-4.1-11.7c-0.2-0.6-0.4-1.2-0.7-2c-0.2,0.3-0.3,0.3-0.3,0.4
		c0,0.3,0,0.7,0.1,1C345.6,371.4,346.8,375,348.1,378.5z M364.9,225.1c0.2,3.6,1.1,7.1,1.8,10.6c0.4,2.1,1.1,4.1,1.7,6.1
		c0.4,1.5,0.8,2.9,1.3,4.4c0.6,2.1,1.2,4.1,2,6.1c0.9,2.4,2,4.7,3.1,7c1.7,3.6,3.4,7.3,5.3,10.9c1.9,3.6,4,7,6.1,10.4
		c1.9,3.2,3.9,6.4,5.9,9.5c1.6,2.5,3.3,5,5,7.5c0.6,0.9,1.2,1.8,2,2.6c2.8,3,5.6,6,8.4,8.9c0.8,0.8,1.6,1.6,2.5,2.3
		c2.5,2,5,4,7.4,6.1c4.9,4.2,10.1,7.8,15.6,11.2c2.4,1.5,4.8,3,7.2,4.5c1.2,0.8,2.3,1.6,3.6,2.3c4.8,2.7,9.6,5.3,14.4,8
		c4.3,2.4,8.6,4.7,12.9,7.1c3,1.6,5.9,3.3,8.9,4.9c0.6,0.3,1.2,0.7,1.9,0.9c1.2,0.5,1.9,0.4,2.1-0.2c0.2-0.6-0.2-1.2-1.2-1.8
		c-3.9-2.4-7.8-4.7-11.7-7.1c-3.8-2.3-7.7-4.6-11.5-6.9c-4.8-3-9.5-6-14.2-9c-3-1.9-6.1-3.8-9-5.9c-3.7-2.6-7.2-5.4-10.8-8
		c-5.8-4.2-11.1-9-16.1-14c-2.7-2.7-5-5.7-7.6-8.4c-2.8-2.9-4.9-6.3-7.4-9.4c-1.8-2.2-3.4-4.6-4.9-7c-2.6-3.9-5.2-7.9-7.6-11.9
		c-2.1-3.6-3.9-7.3-5.8-10.9c-2.1-3.9-3.7-8-5.1-12.1c-1.3-3.8-2.2-7.7-3.2-11.6c-0.4-1.6-0.5-3.3-0.7-4.9
		c-0.7-4.4-1.1-8.8-1.1-13.2c0-5.3,0-10.5,0.1-15.8c0-1.8,0.3-3.5,0.4-5.3c0.2-2.6,0.5-5.3,0.7-7.9c0.1-1.2,0.3-2.4,0.5-3.6
		c0.2-1.6,0.6-3.2,0.1-4.8c-0.1,0.4-0.2,0.7-0.3,1.1c-0.4,1.7-0.7,3.4-1.1,5c-0.2,0.9-0.3,1.7-0.4,2.6c-0.3,2.1-0.5,4.3-0.8,6.4
		c-0.2,1.8-0.5,3.5-0.7,5.3c-0.3,3.8-0.5,7.7-0.7,11.5c-0.1,1.5-0.2,3.1-0.1,4.6C364.2,216.9,364.7,221,364.9,225.1z M389.7,162
		c0.2,2.4,0.4,4.8,0.6,7.2c0.2,2.6,0.3,5.3,0.6,7.9c0.3,2.3,0.7,4.7,1.1,7c0.3,2,0.9,4.1,1,6.1c0.2,2.9,1.1,5.7,1.6,8.5
		c0.5,2.5,1.3,4.9,1.9,7.4c0.6,2.3,1,4.6,1.6,6.9c0.4,1.6,0.9,3.2,1.5,4.8c1.2,3.5,2.4,7,3.7,10.4c0.9,2.3,2.1,4.6,3.2,6.8
		c2,3.8,4,7.7,6.2,11.4c2.1,3.7,4.3,7.3,6.5,10.9c0.5,0.8,1.1,1.7,1.6,2.5c3.1,4.1,6.2,8.3,9.4,12.3c2.3,3,4.7,5.9,7.2,8.8
		c2.1,2.4,4.2,4.8,6.4,7.2c2.6,2.9,5.2,5.8,7.9,8.5c2.9,3,5.9,5.8,8.8,8.7c4.9,4.9,9.9,9.8,14.8,14.6c0.3,0.3,0.7,0.6,1.1,0.8
		c0.3,0.1,0.7,0.1,0.9,0c0.2-0.2,0.3-0.7,0.2-0.9c-0.2-0.5-0.6-1-1-1.4c-1-1-2.2-2-3.2-3.1c-4.3-4.5-8.6-9-12.9-13.6
		c-1.9-2-3.8-4.1-5.7-6.2c-1-1.1-1.9-2.1-2.9-3.2c-2.4-2.7-5-5.3-7.3-8.1c-4.3-5.4-8.5-10.8-12.7-16.3c-3.3-4.4-6.6-8.8-9.7-13.4
		c-2.2-3.2-4-6.6-6-10c-1.1-1.9-2-3.8-3-5.7c-0.8-1.5-1.5-3.1-2.3-4.6c-1.4-2.8-2.9-5.5-4.1-8.3c-1.4-3.2-2.4-6.7-3.8-9.9
		c-2.3-5.2-3.6-10.7-5.2-16.1c-1-3.5-1.8-7.1-2.5-10.7c-0.4-1.9-0.4-3.8-1-5.6c-0.9-3-1.1-6.2-1.6-9.3c-0.6-4.7-0.9-9.5-1.3-14.2
		c-0.2-1.8-0.3-3.5-0.5-5.3c-0.3-2.7-0.5-5.5-0.3-8.2c0.2-2.9,0.2-5.9,0.3-8.9c0.1-2.7,0.3-5.3,0.5-8c0.2-2.9,0.5-5.8,0.7-8.7
		c0.1-1.4,0-2.9,0.4-4.3c0.9-3.9,0.7-7.9,1.9-11.8c0-0.1,0-0.3,0.1-0.4c0.6-3.3,1.1-6.6,1.8-9.8c0.9-4.3,1.9-8.6,2.8-13
		c0.5-2.7,0.8-5.5,1.7-8.2c0.1-0.3,0.1-0.5,0.2-0.8c-0.1,0-0.2-0.1-0.3-0.1c-0.2,0.4-0.5,0.9-0.6,1.3c-0.5,1.5-1,3-1.4,4.5
		c-0.9,3.3-1.8,6.5-2.6,9.8c-1.3,5.9-2.5,11.8-3.8,17.7c-0.2,1-0.3,2.1-0.6,3c-0.6,1.9-0.6,3.8-0.7,5.7c-0.2,2.5-0.4,5-0.6,7.5
		c-0.2,2.2-0.5,4.4-0.6,6.6c-0.1,4.4-0.1,8.8-0.1,13.2c0,5.2,0,10.3,0.1,15.5C389.6,158.9,389.6,160.4,389.7,162z M445.7,499.8
		c2.4,0.9,5,1.4,7.4,2.3c2.6,0.9,5.2,1.4,7.8,1.9c2.5,0.5,5.1,0.6,7.6,0.9c0.7,0.1,1.4,0.2,2,0.3c5.6,0.3,11.2-0.1,16.7-1.3
		c4.8-1,9.6-2.3,14-4.8c2.6-1.4,5.4-2.5,7.9-3.9c2.9-1.7,5.6-3.6,8.4-5.5c1-0.7,2.1-1.3,3.3-1.6c1.5-0.3,3.1-0.6,4.6-0.9
		c4.1-0.6,7.9-2.2,11.6-4c2-1,4.1-1.8,6.1-3c5.2-3.1,10.3-6.3,15.5-9.5c1.1-0.7,2.1-1.6,2.1-3.2c-0.9-0.3-1.6-0.2-2.4,0.2
		c-3.2,1.7-6.4,3.4-9.7,5c-1.3,0.7-2.7,1.2-4.1,1.8c-0.8,0.3-1.7,0.6-2.5,0.9c-2.6,1-5.2,2.1-7.9,2.9c-2.4,0.8-4.8,1.4-7.2,2
		c-2.8,0.6-5.5,1.5-8.4,1.7c-2.2,0.2-4.3,0.4-6.5,0.6c-1.1,0.1-2.3,0.3-3.4,0.2c-2.3-0.2-4.6-0.4-6.9-0.9c-4-0.8-7.3-2.7-9.5-6.3
		c-0.3-0.5-0.7-0.9-1.1-1.5c-0.1,0.4-0.2,0.5-0.2,0.6c0,0.2,0,0.5,0.1,0.7c1.3,3.3,3.1,6.1,6.2,8c2.8,1.7,5.6,3.3,8.9,4.2
		c1.9,0.5,3.7,1.1,5.6,0.6c0.5-0.1,1.1-0.1,1.5,0.7c-0.5,0.2-1,0.5-1.5,0.7c-0.8,0.3-1.7,0.6-2.5,0.9c-2.5,1.2-4.9,2.5-7.5,3.5
		c-3.6,1.5-7.2,2.9-11,3.7c-2.1,0.5-4.2,1-6.3,1.4c-1,0.2-2,0.3-2.9,0.5c-2.3,0.6-4.7,0.9-7.1,0.8c-7.2-0.2-14.5,0.6-21.6-0.9
		c-2.6-0.6-5.2-1-7.7-1.9c-3.1-1.2-6.1-2.4-8.7-4.5c-0.5-0.4-1.1-0.7-1.6-1c-0.2-0.1-0.5-0.2-1-0.3c0.5,0.6,0.7,0.9,1,1.2
		C437.8,496.1,441.6,498.3,445.7,499.8z M483.1,621.3c-0.7,0.3-1.4,0.6-2.1,1c-1.7,1-3.3,2.1-5,3.1c-4.3,2.5-8.7,4.9-13,7.3
		c-2.1,1.2-4.3,2.4-6.5,3.5c-2.8,1.4-5.7,2.8-8.6,4.2c-1.9,0.9-3.9,1.9-5.9,2.8c-3.3,1.4-6.5,2.7-9.7,4.4c-0.3,0.2-0.7,0.4-1.1,0.5
		c-4.1,2-8.3,3.9-12.4,5.9c-4.7,2.3-9.3,4.7-14.3,6.3c-2.6,0.9-5.2,1.8-7.9,2.5c-1.6,0.4-3.3,0.6-4.8,1.3c-0.2,0.1-0.5,0.2-0.7,0.2
		c-2,0.2-4,0.5-6,0.6c-5.1,0.3-9.9-0.7-14.2-3.4c-0.8-0.5-1.7-0.9-2.6-1.3c-0.1,0.1-0.2,0.3-0.3,0.4c0.8,0.6,1.5,1.2,2.3,1.7
		c2.6,1.8,5.5,3,8.6,3.9c1.9,0.6,3.9,1.2,5.9,1.4c2,0.2,4.1,0.1,6.2,0.1c4.6,0.1,9.1-1.1,13.5-2.3c3.4-0.9,6.8-2.2,10.2-3.4
		c4-1.5,8-3,12-4.6c2.9-1.2,5.7-2.6,8.7-3.8c4.9-2,9.6-4.2,14.3-6.6c3.2-1.7,6.4-3.3,9.4-5.3c4-2.6,7.9-5.5,11.8-8.3
		c3.3-2.4,6.6-4.8,9.9-7.2c1-0.8,2-1.6,2.9-2.5c0.5-0.5,0.8-1.2,1.1-1.8C484.1,621.2,483.6,621,483.1,621.3z M640,146.5
		c-2,4-3.7,8.2-5.1,12.4c-0.8,2.4-1.6,4.7-2.4,7.1c-0.5,1.4-1.1,2.9-1.5,4.3c-0.8,3.4-1.5,6.8-2.2,10.2c-0.3,1.4-0.6,2.9-0.8,4.4
		c-0.6,3.8-1.2,7.7-1.8,11.5c-0.1,1-0.3,1.9-0.3,2.9c-0.1,2.3-0.2,4.5-0.3,6.8c-0.2,3.9-0.4,7.8-0.5,11.6c-0.1,2.5,0.2,5,0.2,7.5
		c0,3.8,0.2,7.7,0.6,11.5c0.5,4.2,0.9,8.4,1.4,12.6c0.4,3.2,0.8,6.4,1.3,9.6c0.5,3.1,1.1,6.2,1.7,9.3c0.5,2.3,1,4.6,1.7,6.9
		c0.7,2.3,1,4.7,1.7,7c1,3.7,2,7.4,3.1,11c1.6,5.3,3.3,10.6,5.1,15.9c2.1,6.1,4,12.3,6.7,18.3c1.5,3.4,2.7,7,4.1,10.4
		c1.7,4,3.2,8.1,5.4,11.8c1.2,2.1,2.1,4.3,3,6.6c1.4,3.4,3,6.7,4.5,10.1c0.8,1.7,1.6,3.4,2.4,5.2c0.1,0,0.2,0,0.3-0.1
		c0-0.3,0.1-0.6,0-0.9c-0.8-3.6-2.1-7.1-3.8-10.4c-1.8-3.6-3.9-7.1-5.1-10.9c-0.2-0.7-0.5-1.3-0.8-1.9c-1.4-3.2-2.9-6.4-4.2-9.6
		c-0.9-2.2-1.5-4.5-2.5-6.6c-1.5-3.5-2.9-7-4.2-10.5c-1-2.9-2-5.8-2.9-8.7c-0.6-2-1.3-3.9-1.9-5.9c-0.9-2.9-1.8-5.7-2.6-8.6
		c-1-3.3-2.1-6.5-3-9.9c-0.9-3.5-1.6-7-2.4-10.5c-0.2-0.8-0.4-1.5-0.6-2.3c-0.5-2.7-0.9-5.4-1.3-8.1c0-0.1-0.1-0.3-0.1-0.4
		c-0.4-1.6-0.7-3.2-1-4.7c-0.6-3-1.1-6-1.7-9c-0.2-1.4-0.4-2.7-0.6-4.1c-0.3-2.8-0.5-5.6-0.7-8.4c-0.3-4.1-0.6-8.1-0.8-12.2
		c-0.3-9.1-0.1-18.2,0.5-27.3c0-0.6,0.1-1.3,0.2-1.9c0.3-2.7,0.5-5.5,0.8-8.2c0.1-0.8,0.1-1.7,0.4-2.5c0.6-1.5,0.7-3.1,0.8-4.6
		c0-0.4,0-0.9,0.1-1.3c0.9-3.1,1-6.4,2-9.5c1.2-3.4,1.9-7,2.9-10.5c0.5-1.7,1.1-3.5,1.7-5.2c1.3-3.3,2.6-6.6,4-9.8
		c1.1-2.5,2.3-4.9,3.5-7.3c1.2-2.3,2.7-4.5,3.8-6.8c1.7-3.4,3.9-6.5,6.1-9.6c1.3-1.9,2.7-3.9,4.1-5.8c0.2-0.2,0.2-0.5,0.3-0.8
		c-1.1,0.9-1.9,2-2.8,3c-2.6,2.8-5,5.7-7,8.9c-0.5,0.8-0.9,1.5-1.4,2.2c-2.7,4.1-5.4,8.2-7.2,12.9
		C640.9,144.7,640.4,145.6,640,146.5z M337.8,621.4c3.3,3.4,6.8,6.7,10.8,9.4c2.5,1.6,5.1,3.1,8,3.7c1.7,0.4,3.4,0.5,5.1,0.8
		c3.6,0.5,7.1,0.8,10.7,0.6c3.6-0.2,7.2-0.6,10.9-0.8c4.7-0.3,9.4-0.6,14.1-0.9c1.6-0.1,3.1-0.3,4.7-0.4c3-0.3,5.9-0.7,8.9-1
		c2.6-0.3,5.3-0.6,7.9-1c2.7-0.4,5.3-1.1,8-1.4c3.1-0.3,5.9-1.4,8.9-1.9c2.3-0.4,4.4-1.3,6.6-1.9c0.6-0.2,1.3-0.2,1.9-0.4
		c2.3-0.6,4.7-1.1,7-1.8c1.6-0.5,3.1-1.1,4.7-1.7c2.8-1,5.6-2,8.4-3.1c3.9-1.6,7.7-3.4,11.8-4.5c1-0.3,1.9-0.6,2.5-1.6
		c-1.4,0.1-2.7,0.2-4,0.7c-2.3,0.8-4.6,1.7-6.9,2.5c-4.1,1.3-8.2,2.8-12.2,4.5c-1.4,0.6-3,1-4.5,1.4c-0.8,0.2-1.8,0.2-2.6,0.4
		c-2.4,0.6-4.7,1.2-7.1,1.7c-2.3,0.5-4.6,0.9-6.9,1.4c-0.8,0.2-1.7,0.2-2.5,0.5c-2.5,0.9-5.1,1.1-7.7,1.5c-1.7,0.3-3.4,0.5-5.1,0.6
		c-1.9,0.2-3.8,0.1-5.7,0.4c-4,0.5-7.9,0.8-11.9,0.9c-5.1,0.1-10.2,0.3-15.3,0.5c-2.2,0.1-4.5-0.2-6.6,0.2c-3.7,0.5-7.4,0.4-11,0.4
		c-1.4,0-2.8-0.2-4.2-0.4c-3.4-0.4-6.7-1-10-1.9c-0.8-0.2-1.5-0.4-2.3-0.7c-5.7-2.4-10.8-5.8-15.1-10.2c-3.4-3.4-6.6-7.1-9.7-10.7
		c-2.4-2.8-4.7-5.8-7-8.7c-0.4-0.5-0.9-1-1.4-1.4c-0.1,0-0.2,0.1-0.2,0.1c0.1,0.3,0,0.7,0.2,0.9c0.4,0.8,0.8,1.7,1.3,2.5
		c1.6,2.2,3.1,4.4,4.8,6.5c2.2,2.8,4.5,5.6,6.9,8.3c1.2,1.5,2.6,2.8,3.9,4.2C336.4,620,337.1,620.7,337.8,621.4z M459.9,524.4
		c1.1,0.3,2.2,0.7,3.3,0.9c3,0.7,6,1.5,9,2c2.6,0.4,5.3,0.6,7.9,0.6c4.2,0,8.3,0.2,12.4-1.1c3.6-1.1,7.3-2,10.9-3.1
		c2.9-0.9,5.7-2.1,8.5-3.3c2.2-0.9,4.3-2.1,6.6-3c2-0.9,4.2-1.5,6.2-2.4c6.5-3.1,12.8-6.6,18.1-11.6c0.8-0.7,1.6-1,2.7-1
		c1.3,0,2.7,0,4-0.2c1.5-0.1,3-0.2,4.5-0.6c1.3-0.3,2.5-0.8,3.7-1.3c3-1.3,6-2.8,8.6-4.8c2.3-1.7,4.5-3.5,6.7-5.3
		c3.6-3.1,7.2-6.2,10.8-9.3c0.3-0.3,0.6-0.5,0.8-0.9c0.1-0.3,0.2-0.8,0-1.1c-0.2-0.3-0.7-0.4-1-0.4c-0.3,0-0.5,0.2-0.8,0.4
		c-0.8,0.6-1.6,1.1-2.4,1.7c-4.2,3.2-8.6,6.1-13.1,8.9c-3.3,2-6.7,3.7-10.1,5.4c-3.6,1.8-7.5,2.5-11.6,2.3c-2-0.1-4-0.5-6-0.5
		c-2,0-4-0.4-5.9-1c-2.3-0.7-4.1-2.1-5-4.4c-0.1-0.3-0.3-0.5-0.5-0.9c-0.6,1.4-0.6,1.9,0.1,3.2c1.3,2.3,3.2,4,5.6,5.1
		c1.8,0.8,3.6,1.5,5.4,2.3c0.4,0.2,0.8,0.5,0.9,0.8c0.2,0.5-0.2,0.9-0.7,1.2c-0.8,0.5-1.6,1.1-2.5,1.6c-0.9,0.5-1.8,1-2.7,1.5
		c-1,0.6-2,1.2-3.1,1.7c-2.4,1.1-4.9,2.1-7.3,3.2c-4.3,2-8.6,4-13,6c-3,1.3-5.9,2.6-8.9,3.8c-2.8,1.1-5.7,2.2-8.6,3.1
		c-2.1,0.7-4.3,1.1-6.5,1.5c-1.9,0.3-3.9,0.5-5.8,0.7c-0.3,0-0.7,0.1-1,0.1c-7.6,0.2-15-0.9-22.1-3.7c-0.5-0.2-1.1-0.3-1.7-0.4
		C457.4,522.9,458.5,524,459.9,524.4z M493.9,542.7c3.1,1.4,6.4,2.3,9.6,3.4c2.4,0.8,4.8,1.3,7.3,1.8c1.2,0.2,2.4,0.4,3.6,0.5
		c0.8,0.1,1.6,0,2.4,0c4.1,0.1,8.2,0,12.1-1c1.2-0.3,2.4-0.8,3.7-1.1c2.3-0.5,4.4-1.4,6.5-2.3c2.1-1,4.2-2.1,6.3-3.1
		c1.4-0.7,2.9-1.4,4.3-2.2c1.1-0.7,2.2-1.5,3.2-2.3c3.1-2.5,6.5-4.7,8.9-8c1-1.4,2-2.8,3-4.2c1-1.4,1.8-2.8,2.3-4.4
		c0.4-1.7,1.5-2.6,3.2-2.7c0.1,0,0.3,0,0.4-0.1c3.4-0.4,6.5-1.7,9.4-3.3c4.4-2.4,8.1-5.9,11.3-9.9c3.2-4,6.1-8.2,8.8-12.6
		c0.4-0.7,1-1.4,1.4-2.1c0.1-0.2,0.2-0.7,0.1-0.9c-0.2-0.2-0.7-0.3-0.9-0.2c-0.5,0.3-1,0.6-1.3,1.1c-0.4,0.5-0.7,1.2-1.1,1.8
		c-3,4.1-5.8,8.3-9.3,12c-2.9,3-6.1,5.8-9.6,8c-2.5,1.5-5,2.8-7.9,3.6c-2.6,0.7-5.3,1.3-7.9,1.5c-5.9,0.6-11.7-0.1-17.1-2.6
		c-0.3-0.1-0.6-0.2-0.9-0.3c-0.1,0.1-0.1,0.2-0.2,0.3c0.4,0.3,0.7,0.7,1.1,1c1.6,1.2,3.5,1.7,5.4,2.3c3.8,1.2,7.6,1.5,11.5,1.3
		c0.6,0,1.2,0,1.9,0c-0.1,0.4-0.1,0.6-0.2,0.8c-1.6,2.7-3.5,5.1-5.6,7.4c-3.5,3.9-7.9,6.5-12.1,9.4c-2.3,1.6-4.9,2.7-7.3,4.1
		c-3.9,2.3-8.2,3.7-12.5,5.2c-1,0.3-1.9,0.7-2.9,0.9c-0.7,0.2-1.3,0.3-2,0.3c-2.8,0.1-5.6,0.1-8.4,0.1c-1.2,0-2.5-0.1-3.7-0.3
		c-2.5-0.5-5-1.1-7.4-1.7c-3.6-1-7.2-2.2-10.9-3.2c-1.4-0.4-2.8-1-4.3-0.6c0.2,0.1,0.3,0.2,0.5,0.3
		C490.3,541.2,492.2,541.9,493.9,542.7z M496.4,627.8c-3.7,2.7-7.3,5.5-11.1,8c-2.4,1.5-4.7,3.1-7.1,4.5c-3.6,2-7.2,3.7-10.6,6
		c-2.2,1.5-4.6,2.7-6.8,4.1c-3,2-5.9,4.1-8.8,6.2c-1.9,1.4-3.9,2.7-5.6,4.3c-4.2,4.2-8.2,8.6-12.3,12.9c-4,4.3-7.9,8.7-12.8,12
		c-3.1,2.1-6.1,4-9.9,4.7c-2.3,0.4-4.6,0.5-6.8-0.2c-4.2-1.3-8.1-3.3-11.8-5.6c-1.2-0.8-2.5-1.5-4-2.4c0.2,0.5,0.2,0.6,0.3,0.7
		c1.5,1.5,3,2.8,4.9,3.8c2.1,1.1,4.2,2.2,6.2,3.4c4.2,2.3,8.7,3.2,13.4,2.3c3.1-0.6,6.2-1.4,8.8-3.5c4.1-3.2,7.7-6.8,11.2-10.6
		c2.7-3,5.4-6,8.4-8.7c4.3-4,8.7-8,13.6-11.3c2-1.3,4-2.7,5.9-4.1c3.3-2.5,6.7-4.6,10.2-6.8c4-2.6,7.9-5.3,11.9-7.9
		c2.4-1.6,4.8-3.3,7.1-5c2.3-1.6,4.5-3.3,6.7-5c0.5-0.4,0.9-1.1,1.2-1.8c0.1-0.3-0.1-0.7-0.1-1.3C497.7,627,497,627.3,496.4,627.8z
		 M566.6,254.6c0,4.9-0.6,9.8-0.2,14.8c0.3,2.9,0.1,5.9,0.4,8.8c0.4,3.9,0.9,7.8,1.5,11.7c0.7,4.2,1.5,8.3,2.5,12.4
		c0.9,3.5,2.1,6.9,3.1,10.3c1,3.2,2,6.4,3.1,9.5c0.8,2.3,1.7,4.6,2.6,6.9c1.1,2.7,2.4,5.3,3.6,7.9c1.8,3.9,3.6,7.7,5.5,11.6
		c0.5,0.9,0.9,1.9,1.8,2.6c0.9-0.5,0.5-1.2,0.2-1.7c-0.6-1.3-1.4-2.6-2-4c-1.7-3.7-3.3-7.5-4.9-11.2c-1.4-3.3-2.8-6.6-4.1-9.9
		c-1.3-3.4-2.3-6.8-3.4-10.2c-0.6-1.9-1.1-3.9-1.6-5.8c-0.4-1.6-1-3.1-1.3-4.7c-0.3-1.5-0.5-3-0.8-4.5c-0.6-3-1.3-6-1.9-9.1
		c-0.3-1.4-0.2-2.8-0.4-4.2c-0.5-3.8-1.2-7.7-1.3-11.6c-0.1-2.8-0.6-5.7-0.5-8.5c0.1-2.7-0.1-5.4,0.1-8.1c0.2-3.5,0.6-7,0.7-10.4
		c0.2-3.5,0.3-7.1,1-10.6c0.3-1.8,0.3-3.7,0.7-5.5c0.5-2.9,1.2-5.8,1.9-8.6c0.7-3,1.4-6,2.3-9c1.2-3.9,2.4-7.8,3.8-11.6
		c1-2.7,2.2-5.3,3.4-7.8c1.3-2.7,2.7-5.3,4.1-8c0.3-0.6,0.6-1.2,0.9-1.8c-0.3,0.2-0.8,0.3-1,0.7c-0.9,1.5-1.8,3-2.7,4.6
		c-0.3,0.6-0.6,1.2-0.9,1.8c-1.9,3.5-3.9,7-5.5,10.6c-1.5,3.3-2.7,6.8-3.9,10.2c-0.6,1.7-1.1,3.4-1.5,5.1c-0.6,2.6-1.2,5.2-1.8,7.7
		c-0.4,2.1-0.8,4.1-1.2,6.2c-0.5,2.5-0.8,5-1.4,7.5c-0.5,2.2-0.9,4.3-0.1,6.5c0.1,0.3,0.1,0.6,0.1,0.9
		C567.1,248.9,566.7,251.7,566.6,254.6z M587.4,184.2C587.4,184.2,587.4,184.2,587.4,184.2C587.4,184.2,587.4,184.2,587.4,184.2
		L587.4,184.2z M532.7,558c0.3-0.1,0.6-0.2,0.9-0.1c1.3,0.5,2.7,0.3,4.1,0.2c3.4-0.1,6.8-0.3,10.1-0.7c2.9-0.3,5.7-0.8,8.6-1.5
		c1.8-0.4,3.5-1.2,5.3-1.8c3.8-1.3,7.4-3,10.8-5c2.3-1.3,4.6-2.7,6.7-4.3c2.4-1.8,4.5-3.9,6.7-6c5.1-4.8,8.5-10.7,11.1-17.1
		c1.2-3,2-6.2,2.9-9.3c0.3-1.1,0.4-2.3,0.4-3.5c0.1-1-0.5-1.5-1.5-1.1c-0.4,0.1-0.8,0.5-1.1,0.9c-0.4,0.6-0.8,1.4-1.1,2.1
		c-0.9,2.2-1.7,4.5-2.6,6.7c-1.1,2.9-2.4,5.8-4.2,8.3c-3.1,4.3-6.2,8.5-10.2,12c-2.4,2.2-5.1,4-7.7,6c-1.4,1.1-2.9,2.3-4.4,3.2
		c-2.3,1.3-4.6,2.4-7,3.5c-2.7,1.3-5.4,2.6-8.2,3.6c-1.9,0.7-4,0.9-6,1.4c-2.6,0.6-5.3,0.6-7.9,0.8c-2.1,0.1-4.2,0.1-6.3,0.3
		c-1,0.1-1.9,0.2-2.9,0.3c0,0.1,0,0.2,0,0.3C530.3,557.8,531.4,558.2,532.7,558z M475.1,666.5c1.3-1.2,2.5-2.3,3.8-3.5
		c0.8-0.8,1.6-1.7,2.5-2.5c3.7-3.6,7.5-7,11-10.7c1.8-1.9,3.8-3.5,5.8-5c1.1-0.8,2.2-1.7,3.4-2.4c2.2-1.2,4.6-2.3,6.8-3.4
		c2.9-1.4,5.8-2.9,8.9-3.7c0.8-0.2,1.8-0.6,2.4-1.6c-0.4,0-0.7-0.1-0.9,0c-1.2,0.4-2.4,0.8-3.6,1.2c-2.3,0.7-4.4,1.6-6.4,2.9
		c-0.5,0.3-1.1,0.6-1.7,0.9c-2.2,1.1-4.3,2.1-6.5,3.2c-1,0.5-2.1,1-2.9,1.7c-2.6,2-5.4,3.9-7.7,6.2c-3.7,3.6-8,6.6-11.7,10.4
		c-2.1,2.2-4.6,4.1-6.8,6.3c-2.8,2.7-5.3,5.5-7.6,8.6c-2.2,2.9-4.7,5.7-6.5,9c-0.5,0.9-1,1.8-1.5,2.7c-2.5,3.8-3.9,8.1-5,12.5
		c-1,4-0.7,7.9,0.4,11.8c0.2,0.6,0.3,1.2,1,1.3c0.7,0.1,1.1-0.3,1.5-0.7c0.9-0.9,1.1-2,1.2-3.2c0.1-1.3,0.1-2.6,0.3-3.8
		c0.8-4.3,2.2-8.5,4-12.5c1.4-3.2,3-6.3,4.6-9.4c1-2,2.3-3.8,3.4-5.7c2-3.8,5-6.8,7.6-10.1C474.8,666.6,475,666.6,475.1,666.5z
		 M630.2,492.6c-1.4,3-3,6-4.5,9c-0.2,0.4-0.3,0.8-0.6,1.4c1.1-0.3,1.6-1,2.1-1.6c2.1-2.4,3.6-5.1,5-8c0.5-1,1-1.9,1.4-2.9
		c0.7-2,1.3-4,2-6c0.3-0.9,0.7-1.9,0.7-2.8c0.1-3.1,0.6-6.1,0.4-9.3c-0.2-2.8-0.6-5.6-1.5-8.2c-0.7-2.1-1.8-4-2.8-6
		c-2.2-4.5-4.6-8.9-7.7-12.9c-0.5-0.7-1.1-1.4-1.7-2.1c-2.6-3.6-5.4-7.2-8.5-10.4c-1.9-2-3.8-4-5.7-6c-2.7-2.8-5.3-5.7-8-8.5
		c-0.4-0.4-0.8-0.8-1.2-1.1c-0.4-0.3-0.8-0.5-1.4,0.1c0.2,0.5,0.4,1,0.7,1.5c1.4,1.7,2.8,3.3,4.3,4.9c3.2,3.4,6.4,6.6,9.5,10.1
		c2.1,2.4,3.9,5.1,5.9,7.5c1.8,2.2,3.1,4.6,4.5,7.1c0.5,1,1,2,1.5,3.1c1.1,2.5,2.1,5,3.4,7.3c2.2,4.1,3.9,8.4,4.1,13.1
		c0,0.5,0.1,1.1,0.1,1.6c0.1,2.8,0.3,5.6,0.4,8.4c0,1.2-0.4,2.3-0.5,3.5C632,487.8,631.2,490.2,630.2,492.6z M450.8,471.6
		c1.2,0.1,2.4,0.2,3.7,0.1c2.3-0.1,4.6-0.3,6.9-0.5c2.7-0.2,5.4-0.4,8.1-0.6c1.3-0.1,2.6-0.6,3.9-0.6c4-0.1,7.9-1,11.8-1.9
		c5.7-1.3,11.3-2.9,16.9-4.6c3.9-1.2,7.8-2.5,11.4-4.3c1.5-0.8,3.1-1.5,4.6-2.2c0-0.1,0-0.3-0.1-0.4c-0.6,0.1-1.1,0.2-1.7,0.3
		c-2.3,0.8-4.7,1.5-7,2.3c-4,1.4-8,2.9-12.1,4.1c-4.1,1.2-8.5,1.7-12.6,3c-3.4,1-6.9,0.8-10.3,1.9c-0.3,0.1-0.7,0.1-1,0.1
		c-2,0.2-3.9,0.3-5.9,0.6c-2.2,0.2-4.5,0.8-6.7,0.8c-6.1,0.1-12.1-0.2-18.2-0.1c-5.2,0.1-10.4-0.9-15.5-1.4
		c-4.3-0.4-8.5-1.3-12.8-2.1c-3.5-0.6-7-1.3-10.4-2.2c-3.7-0.9-7.2-2.2-10.6-3.9c-0.2-0.1-0.5-0.1-0.7-0.2c0.1,0.4,0.4,0.7,0.6,0.9
		c1.2,0.9,2.5,1.5,3.9,1.9c3.9,1.3,7.7,2.7,11.6,3.8c3,0.8,6,1.4,9.1,1.8c4.3,0.6,8.5,1.4,12.8,1.8c4.6,0.4,9.2,1,13.8,1.1
		C446.6,471.2,448.7,471.4,450.8,471.6z M610.8,180.2c0.3-1.2,0.6-2.5,1-3.7c1.5-4.4,2.9-8.8,4.5-13.1c1.2-3.4,2.5-6.7,3.9-10
		c2.2-5.1,4.3-10.2,7-15.1c1.5-2.8,2.9-5.6,4.4-8.3c1.8-3.1,3.6-6.1,5.5-9.1c2.1-3.4,4.4-6.8,6.5-10.2c0.8-1.3,1.7-2.6,2.5-4
		c-0.1-0.1-0.2-0.2-0.3-0.2c-0.4,0.4-0.8,0.8-1.2,1.3c-2.1,2.8-4.4,5.5-6.3,8.3c-3.5,5-6.9,10-9.6,15.4c-2.8,5.6-5.8,11.1-8.2,16.8
		c-2.7,6.3-4.9,12.8-7.2,19.2c-1.1,3.1-2.3,6.2-2.7,9.5c-0.1,1-0.5,2-0.7,3c-0.1,0.5-0.3,1,0.2,1.7
		C610.5,181,610.7,180.6,610.8,180.2z M717.9,398.3c-0.6,0.7-1.2,0.9-2.1,0.6c-0.3-0.1-0.6-0.3-0.9-0.4c-1.2-0.5-2.4-1.1-3.6-1.6
		c-0.3-0.1-0.8-0.1-1.1,0.1c-2.1,1.5-2.2,4-0.5,5.4c1.2,0.9,2.6,1.4,4,1.7c0.5,0.1,1,0.1,1.4,0c4.3-0.8,6.4-4.7,5.9-8.7
		c-0.1-0.6-0.4-1.2-0.8-1.7c-1.4-1.9-4.3-2.4-6.4-1.3c-0.7,0.4-1.4,0.7-2.2,0.9c-1.1,0.2-2.2,0.7-3.1,1.3c-1.1,0.7-2.2,1.2-3.6,1.2
		c-0.3,0-0.6,0.2-1,0.3c0.2,0.2,0.2,0.4,0.3,0.5c1.3,0.5,2.5,0.7,3.9,0.3c0.5-0.1,0.9-0.3,1.4-0.4c1.5-0.3,3-0.7,4.6-1
		c0.8-0.2,1.6-0.2,2.5-0.3c0.8,0,1.7-0.1,2,0.8c0.4,0.9-0.3,1.5-0.6,2.2C718,398.1,717.9,398.2,717.9,398.3z M623.7,617.2
		c-1.8,1.1-2.4,2.8-3.1,4.5c-0.4,1.1,0.1,2,1.2,2.2c0.5,0.1,1,0,1.4-0.1c2.8-0.7,4.7-2.5,6-5.1c1.8-3.8-0.2-7.9-4.3-8.6
		c-0.9-0.2-1.8-0.3-2.8,0.5c0.7,0.5,1.2,1,1.8,1.5C625.6,613.5,625.6,615.9,623.7,617.2z M603.2,260.1c0.5,2.9,0.7,5.8,1.5,8.7
		c0.5,1.8,0.9,3.5,1.3,5.3c0.2,1,0.3,2,0.5,2.9c1.1,3.6,2.2,7.1,3.3,10.7c0.2,0.7,0.4,1.5,1.4,2c0-0.7,0.2-1.2,0.1-1.7
		c-0.1-0.8-0.4-1.6-0.7-2.4c-0.6-2.2-1.3-4.3-1.9-6.5c-0.7-2.7-1.3-5.3-1.9-8c-0.5-2-0.9-4-1.3-6.1c-0.5-3.2-0.9-6.5-1.3-9.8
		c-0.3-2.4-0.7-4.9-0.9-7.3c-0.2-2.9-0.3-5.9-0.4-8.9c0-0.7-0.2-1.3-0.3-2c-0.1,0-0.2,0-0.3,0c-0.1,0.2-0.2,0.5-0.2,0.7
		c-0.1,3-0.5,5.9-0.3,8.8C602.3,251.1,602.4,255.7,603.2,260.1z M737.7,405.2c0.1-0.2,0.1-0.6,0-0.8c-0.1-0.2-0.5-0.3-0.7-0.2
		c-1.1,0.2-1.3,0.8-0.9,2.1C736.8,406.2,737.4,405.8,737.7,405.2z M524.3,631.9c0.6,0,1.2,0.4,1.8-0.4
		C525.4,631.2,524.8,631.2,524.3,631.9z M566.4,245.6c-0.1,0-0.3-0.1-0.4-0.1c-0.1,0.6-0.3,1.1-0.4,1.7c0.1,0,0.3,0.1,0.4,0.1
		C566.1,246.7,566.2,246.2,566.4,245.6z M587.4,184.2c0.1-0.4,0.3-0.8,0.5-1.4C587.2,183.3,587.1,183.7,587.4,184.2z M587.4,184.2
		C587.4,184.2,587.4,184.2,587.4,184.2C587.4,184.2,587.4,184.2,587.4,184.2C587.4,184.2,587.4,184.2,587.4,184.2z M707.6,723.8
		 M700.1,729.9"/>
	<path d="M600.4,946.2c0.6,0.8,0.9,1.7,1,2.6c0,0.9-0.3,1.9-1,2.9c-0.7,1-1.8,2.1-3.4,3.1c-0.9,0.6-1.8,1.1-2.8,1.5
		c-1,0.4-1.9,0.8-2.8,1.1c-0.9,0.3-1.8,0.6-2.6,0.8c-0.8,0.2-1.5,0.3-2.1,0.4l-4.3-3.2l0.6-0.4c0.9,0.3,1.8,0.5,2.8,0.6
		c1,0.1,2,0.1,3.1,0c1.1-0.1,2.1-0.3,3.1-0.6c1-0.3,2-0.7,2.9-1.3c0.8-0.5,1.4-1.1,1.8-1.6c0.4-0.5,0.6-1.1,0.7-1.6
		c0-0.5-0.1-1-0.4-1.5c-0.3-0.5-0.8-0.9-1.5-1.3c-0.9-0.5-2-0.9-3.1-1.2c-1.1-0.2-2.4-0.4-3.7-0.4c-1.3,0-2.7,0-4.1,0.1
		c-1.4,0.1-2.8,0.2-4.3,0.3c-1.5,0.1-2.9,0.2-4.4,0.3c-1.5,0.1-2.9,0.1-4.3,0c-1.4-0.1-2.7-0.3-4-0.6c-1.3-0.3-2.5-0.8-3.6-1.4
		c-1.2-0.7-2-1.5-2.4-2.3c-0.5-0.9-0.6-1.7-0.5-2.7c0.1-0.9,0.5-1.8,1.2-2.6c0.7-0.9,1.5-1.6,2.6-2.3c0.8-0.5,1.6-0.9,2.3-1.3
		c0.8-0.4,1.5-0.7,2.2-0.9c0.7-0.2,1.3-0.4,1.9-0.6c0.6-0.2,1-0.3,1.4-0.4l4,2.5l-0.5,0.3c-0.5-0.1-1-0.2-1.7-0.3
		c-0.7-0.1-1.5-0.1-2.3,0c-0.8,0.1-1.7,0.2-2.6,0.5c-0.9,0.3-1.8,0.7-2.6,1.2c-0.8,0.5-1.3,1-1.7,1.5c-0.4,0.5-0.6,1-0.6,1.5
		c0,0.5,0.2,1,0.5,1.4c0.3,0.5,0.8,0.9,1.5,1.3c1.1,0.6,2.4,1,4,1.2c1.6,0.2,3.3,0.2,5.2,0.1c1.9-0.1,3.9-0.2,5.9-0.4
		c2.1-0.2,4.1-0.3,6.1-0.3c2,0,3.8,0.1,5.6,0.3c1.7,0.2,3.3,0.7,4.6,1.5C599,944.8,599.8,945.4,600.4,946.2z M631,930.4
		c-0.5-0.2-1.2-0.5-1.9-0.9c-0.7-0.4-1.6-0.8-2.6-1.3c-1-0.5-2.1-1.2-3.3-1.9l-7.5-4.4c-0.9-0.5-1.8-0.9-2.9-1.3
		c-1.1-0.3-2.2-0.5-3.4-0.5c-1.2,0-2.4,0.1-3.7,0.4c-1.3,0.3-2.5,0.9-3.7,1.7c-0.8,0.5-1.5,1.1-2.1,1.8c-0.6,0.7-1.1,1.4-1.5,2.2
		c-0.4,0.8-0.7,1.6-1,2.4c-0.3,0.8-0.4,1.6-0.5,2.3l-5.7-3.3c-1.2-0.7-2.3-1.4-3.2-2c-0.9-0.6-1.7-1.1-2.3-1.5
		c-0.6-0.4-1.1-0.8-1.5-1.1c-0.4-0.3-0.7-0.6-0.9-0.8l-0.1-0.1l-5.4,3.5l0.1,0.1c0.4,0.1,0.9,0.3,1.4,0.5c0.5,0.2,1.2,0.5,1.9,0.9
		c0.7,0.4,1.6,0.8,2.6,1.3c1,0.5,2.1,1.2,3.3,1.9l15.8,9.3c1.3,0.7,2.3,1.4,3.2,2c0.9,0.6,1.7,1.1,2.3,1.5c0.6,0.4,1.1,0.8,1.5,1.1
		c0.4,0.3,0.7,0.6,0.9,0.9l0.1,0l5.4-3.5l-0.1,0c-0.4-0.1-0.9-0.3-1.4-0.5c-0.5-0.2-1.2-0.5-1.9-0.9c-0.7-0.4-1.6-0.8-2.6-1.3
		c-1-0.5-2.1-1.2-3.3-1.9l-8.2-4.8c0.1-0.7,0.2-1.3,0.4-2c0.2-0.7,0.5-1.4,0.8-2c0.3-0.6,0.7-1.2,1.1-1.7c0.4-0.5,0.9-1,1.4-1.3
		c1.4-0.9,3-1.4,4.7-1.4c1.7,0,3.6,0.6,5.5,1.7l6.3,3.7c1.3,0.7,2.3,1.4,3.2,2c0.9,0.6,1.7,1.1,2.3,1.5c0.6,0.4,1.1,0.8,1.5,1.1
		c0.4,0.3,0.7,0.6,0.9,0.9l0.1,0l5.4-3.5l-0.1,0C632,930.8,631.5,930.6,631,930.4z M613.2,906.1c-0.4-0.1-0.9-0.1-1.3-0.1
		c-0.4,0-0.9,0.1-1.3,0.2c-0.4,0.1-0.8,0.3-1.2,0.5c-0.4,0.2-0.6,0.5-0.8,0.8c-0.2,0.3-0.3,0.5-0.3,0.8c0,0.3,0.1,0.5,0.2,0.8
		c0.1,0.3,0.4,0.5,0.7,0.7c0.3,0.2,0.7,0.3,1.1,0.4c0.4,0.1,0.9,0.1,1.3,0.1c0.4,0,0.9-0.1,1.3-0.2c0.4-0.1,0.8-0.3,1.2-0.5
		c0.7-0.5,1.1-1,1.1-1.6c0-0.6-0.3-1.1-1-1.5C614,906.3,613.6,906.2,613.2,906.1z M642.3,923.1c-0.5-0.2-1.2-0.5-1.9-0.9
		c-0.7-0.4-1.6-0.8-2.6-1.3c-1-0.5-2.1-1.2-3.3-1.9l-5.3-3.1c-1.3-0.7-2.3-1.4-3.3-2c-0.9-0.6-1.7-1.1-2.3-1.5
		c-0.6-0.4-1.1-0.8-1.5-1.1c-0.4-0.3-0.7-0.6-0.9-0.8l-0.1,0l-5.4,3.5l0.1,0c0.4,0.1,0.9,0.3,1.4,0.5c0.5,0.2,1.2,0.5,1.9,0.9
		c0.7,0.4,1.6,0.8,2.5,1.3c1,0.5,2.1,1.2,3.3,1.9l5.3,3.1c1.3,0.7,2.3,1.4,3.2,2c0.9,0.6,1.7,1.1,2.3,1.5c0.6,0.4,1.1,0.8,1.5,1.1
		c0.4,0.3,0.7,0.6,0.9,0.9l0.1,0l5.4-3.5l-0.1,0C643.3,923.5,642.8,923.3,642.3,923.1z M657.6,914.9c-1.2,0.5-2.3,1-3.5,1.4l3.2,1.9
		c1.2,0.7,2.3,1.4,3.3,1.9c1,0.5,1.8,1,2.6,1.3c0.7,0.4,1.4,0.6,1.9,0.9c0.5,0.2,1,0.4,1.4,0.5l0.1,0.1l-5.4,3.5l-0.1-0.1
		c-0.2-0.2-0.5-0.5-0.9-0.9c-0.4-0.3-0.9-0.7-1.5-1.1c-0.6-0.4-1.4-0.9-2.3-1.5c-0.9-0.6-2-1.2-3.2-2l-17.1-10.1
		c-1.3-0.7-2.4-1.4-3.3-1.9c-1-0.5-1.8-1-2.6-1.3c-0.7-0.4-1.4-0.6-1.9-0.9c-0.6-0.2-1-0.4-1.4-0.5l-0.1,0l5.4-3.5l0.1,0
		c0.1,0.2,0.3,0.4,0.5,0.6c0.2,0.2,0.5,0.4,0.8,0.7c0.4-0.9,1-1.8,1.8-2.7c0.8-0.9,1.9-1.8,3.2-2.7c1.7-1.1,3.6-2,5.6-2.6
		c2-0.6,4-0.9,6.1-1c2.1-0.1,4.1,0.2,6.1,0.6c2,0.5,3.9,1.3,5.7,2.3c1.5,0.9,2.7,1.9,3.5,3.1c0.8,1.2,1.3,2.4,1.3,3.8
		c0,1.3-0.5,2.7-1.4,4.1c-0.9,1.4-2.4,2.8-4.5,4.1C659.9,913.6,658.7,914.3,657.6,914.9z M657.3,913.2c0.7-0.3,1.4-0.8,2.2-1.3
		c1.2-0.8,2.1-1.6,2.7-2.5c0.6-0.9,0.8-1.8,0.7-2.7c-0.1-0.9-0.5-1.8-1.3-2.7c-0.8-0.9-1.8-1.8-3.2-2.6c-1.6-0.9-3.2-1.7-4.9-2.3
		c-1.7-0.6-3.3-1-4.9-1.2c-1.6-0.2-3.2-0.1-4.7,0.2c-1.5,0.3-3,0.9-4.5,1.9c-0.5,0.3-1,0.7-1.4,1.2c-0.4,0.4-0.8,0.9-1.1,1.4
		c-0.3,0.5-0.5,1-0.7,1.5c-0.2,0.5-0.2,1-0.1,1.6c0.5,0.4,1.1,0.7,1.8,1.2c0.7,0.4,1.5,0.9,2.3,1.4l11.6,6.8
		c0.5-0.1,1.1-0.2,1.7-0.3c0.6-0.1,1.2-0.3,1.8-0.6C656,913.8,656.6,913.5,657.3,913.2z M685.7,896.6c-1.2,0.5-2.3,1-3.5,1.4
		l3.2,1.9c1.2,0.7,2.3,1.4,3.3,1.9c1,0.5,1.8,1,2.6,1.3c0.7,0.4,1.4,0.6,1.9,0.9c0.5,0.2,1,0.4,1.4,0.5l0.1,0.1l-5.4,3.5l-0.1-0.1
		c-0.2-0.2-0.5-0.5-0.9-0.9c-0.4-0.3-0.9-0.7-1.5-1.1c-0.6-0.4-1.4-0.9-2.3-1.5c-0.9-0.6-2-1.2-3.2-2l-17.1-10.1
		c-1.3-0.7-2.4-1.4-3.3-1.9c-1-0.5-1.8-1-2.6-1.3c-0.7-0.4-1.4-0.6-1.9-0.9c-0.6-0.2-1-0.4-1.4-0.5l-0.1,0l5.4-3.5l0.1,0
		c0.1,0.2,0.3,0.4,0.5,0.6c0.2,0.2,0.5,0.4,0.8,0.7c0.4-0.9,1-1.8,1.8-2.7c0.8-0.9,1.8-1.8,3.2-2.7c1.7-1.1,3.6-2,5.6-2.6
		c2-0.6,4-0.9,6.1-1c2.1-0.1,4.1,0.2,6.1,0.6c2,0.5,3.9,1.3,5.7,2.3c1.5,0.9,2.7,1.9,3.5,3.1c0.8,1.2,1.3,2.4,1.3,3.8
		c0,1.3-0.5,2.7-1.4,4.1c-0.9,1.4-2.4,2.8-4.5,4.1C688.1,895.4,686.9,896,685.7,896.6z M685.5,894.9c0.7-0.3,1.4-0.8,2.2-1.3
		c1.2-0.8,2.1-1.6,2.7-2.5c0.6-0.9,0.8-1.8,0.7-2.7c-0.1-0.9-0.5-1.8-1.3-2.7c-0.8-0.9-1.8-1.8-3.3-2.6c-1.6-0.9-3.2-1.7-4.9-2.3
		c-1.7-0.6-3.3-1-4.9-1.2c-1.6-0.2-3.2-0.1-4.7,0.2c-1.5,0.3-3,0.9-4.5,1.9c-0.5,0.3-1,0.7-1.4,1.2c-0.4,0.4-0.8,0.9-1.1,1.4
		c-0.3,0.5-0.5,1-0.7,1.5c-0.2,0.5-0.2,1-0.1,1.6c0.5,0.4,1.1,0.7,1.8,1.2c0.7,0.4,1.5,0.9,2.3,1.4l11.6,6.8
		c0.5-0.1,1.1-0.2,1.7-0.3c0.6-0.1,1.2-0.3,1.8-0.6C684.1,895.5,684.8,895.2,685.5,894.9z M681.1,862c-0.4-0.1-0.9-0.1-1.3-0.1
		c-0.4,0-0.9,0.1-1.3,0.2c-0.4,0.1-0.8,0.3-1.2,0.5c-0.4,0.2-0.6,0.5-0.8,0.8c-0.2,0.3-0.3,0.5-0.3,0.8c0,0.3,0.1,0.5,0.2,0.8
		c0.2,0.3,0.4,0.5,0.7,0.7c0.3,0.2,0.7,0.3,1.1,0.4c0.4,0.1,0.9,0.1,1.3,0.1c0.4,0,0.9-0.1,1.3-0.2c0.4-0.1,0.8-0.3,1.2-0.5
		c0.7-0.5,1.1-1,1.1-1.6c0-0.6-0.3-1.1-1-1.5C681.9,862.2,681.6,862.1,681.1,862z M710.3,878.9c-0.5-0.2-1.2-0.5-1.9-0.9
		c-0.7-0.4-1.6-0.8-2.6-1.3c-1-0.5-2.1-1.2-3.3-1.9l-5.3-3.1c-1.3-0.7-2.3-1.4-3.2-2c-0.9-0.6-1.7-1.1-2.3-1.5
		c-0.6-0.4-1.1-0.8-1.5-1.1c-0.4-0.3-0.7-0.6-0.9-0.8l-0.1,0l-5.4,3.5l0.1,0c0.4,0.1,0.9,0.3,1.4,0.5c0.6,0.2,1.2,0.5,1.9,0.9
		c0.7,0.4,1.6,0.8,2.6,1.3c1,0.5,2.1,1.2,3.3,1.9l5.3,3.1c1.3,0.7,2.3,1.4,3.2,2c0.9,0.6,1.7,1.1,2.3,1.5c0.6,0.4,1.1,0.8,1.5,1.1
		c0.4,0.3,0.7,0.6,0.9,0.9l0.1,0l5.4-3.5l-0.1,0C711.3,879.3,710.8,879.1,710.3,878.9z M738,860.9c-0.5-0.2-1.2-0.5-1.9-0.9
		c-0.7-0.4-1.6-0.8-2.6-1.3c-1-0.5-2.1-1.2-3.3-1.9l-7.5-4.4c-0.9-0.5-1.8-0.9-2.9-1.2c-1.1-0.3-2.2-0.5-3.4-0.5
		c-1.2,0-2.4,0.1-3.7,0.4c-1.3,0.3-2.5,0.9-3.7,1.7c-0.8,0.5-1.5,1.1-2.1,1.8c-0.6,0.7-1.1,1.4-1.5,2.2c-0.4,0.8-0.7,1.5-1,2.3
		c-0.2,0.8-0.4,1.5-0.6,2.2c-0.8-0.6-1.5-1.1-2-1.4c-0.5-0.4-0.9-0.7-1.1-1l-0.1,0l-5.4,3.5l0.1,0c0.4,0.1,0.9,0.3,1.4,0.5
		c0.6,0.2,1.2,0.5,1.9,0.9c0.7,0.4,1.6,0.8,2.6,1.3c1,0.5,2.1,1.2,3.3,1.9l5.3,3.1c1.3,0.7,2.3,1.4,3.2,2c0.9,0.6,1.7,1.1,2.3,1.5
		c0.6,0.4,1.1,0.8,1.5,1.1c0.4,0.3,0.7,0.6,0.9,0.9l0.1,0l5.4-3.5l-0.1,0c-0.4-0.1-0.9-0.3-1.4-0.5c-0.5-0.2-1.2-0.5-1.9-0.9
		c-0.7-0.4-1.6-0.8-2.6-1.3c-1-0.5-2.1-1.2-3.3-1.9l-5.3-3.1l-2.9-1.7c0.1-0.7,0.2-1.4,0.4-2c0.2-0.7,0.5-1.3,0.8-2
		c0.3-0.6,0.7-1.2,1.1-1.7c0.4-0.5,0.9-1,1.4-1.3c1.4-0.9,3-1.4,4.7-1.4c1.7,0,3.6,0.6,5.5,1.7l6.3,3.7c1.3,0.7,2.3,1.4,3.2,2
		c0.9,0.6,1.7,1.1,2.3,1.5c0.6,0.4,1.1,0.8,1.5,1.1c0.4,0.3,0.7,0.6,0.9,0.9l0.1,0l5.4-3.5l-0.1,0C739,861.3,738.5,861.2,738,860.9z
		 M771.2,847.1c0.9,1,1.4,2.1,1.5,3.3c0.1,1.2-0.3,2.4-1.2,3.8c-0.9,1.3-2.5,2.7-4.7,4.2c-0.8,0.5-1.6,1-2.6,1.4
		c-0.9,0.4-1.9,0.8-2.8,1.2c-0.9,0.3-1.8,0.6-2.6,0.9c-0.8,0.2-1.5,0.4-2,0.5l-5-2l0.3-0.3c1.1,0.2,2.3,0.3,3.6,0.2
		c1.2-0.1,2.4-0.3,3.6-0.5c1.2-0.3,2.2-0.6,3.3-1c1-0.4,1.9-0.9,2.6-1.3c1.3-0.8,2.2-1.6,2.8-2.3c0.6-0.7,1-1.4,1.1-2
		c0.1-0.6,0-1.2-0.3-1.8c-0.3-0.6-0.8-1.1-1.4-1.7c-0.6-0.5-1.4-1.1-2.2-1.6c-0.8-0.5-1.7-1.1-2.6-1.6l-0.7-0.4
		c-0.4,0.7-1,1.5-1.8,2.4c-0.8,0.9-1.9,1.7-3.3,2.6c-1.9,1.2-3.8,2.2-5.9,2.8c-2.1,0.7-4.1,1-6.2,1.2c-2.1,0.1-4.1-0.1-6.2-0.6
		c-2-0.5-4-1.3-5.8-2.3c-1.7-1-2.9-2.1-3.8-3.3c-0.9-1.2-1.3-2.5-1.3-3.8c0-1.3,0.4-2.6,1.3-3.9c0.9-1.3,2.2-2.5,3.9-3.6
		c0.8-0.5,1.5-0.9,2.3-1.2c0.8-0.3,1.5-0.6,2.2-0.9c0.7-0.2,1.5-0.4,2.2-0.6c0.7-0.2,1.5-0.3,2.2-0.4l-1.9-0.8l-0.1,0l5.2-3.4l0.1,0
		c0.2,0.2,0.5,0.5,0.9,0.8c0.4,0.3,0.9,0.7,1.5,1.1c0.6,0.4,1.4,0.9,2.3,1.5c0.9,0.6,2,1.2,3.2,2l15,8.8
		C769.2,845.2,770.3,846.1,771.2,847.1z M759.7,844.7l-11-6.5c-0.8-0.5-1.6-0.9-2.3-1.3c-0.7-0.4-1.3-0.7-1.8-1.1
		c-0.9-0.1-1.8-0.1-2.8,0c-0.9,0.1-1.8,0.2-2.6,0.4c-0.8,0.2-1.6,0.4-2.4,0.7c-0.7,0.3-1.4,0.6-2,1c-1.2,0.8-2.1,1.6-2.6,2.5
		c-0.5,0.9-0.8,1.7-0.7,2.6c0.1,0.9,0.5,1.8,1.3,2.7c0.8,0.9,1.8,1.7,3.3,2.6c1.6,0.9,3.3,1.7,5,2.2c1.7,0.6,3.5,0.9,5.2,1
		c1.7,0.1,3.4,0,5.1-0.4c1.6-0.4,3.2-1,4.6-1.9c1.1-0.7,2-1.5,2.5-2.3C759.2,846.1,759.6,845.3,759.7,844.7z M811,808.5
		c0,0.8-0.1,1.5-0.3,2.3c-0.2,0.8-0.6,1.5-1.1,2.3c-0.5,0.7-1.1,1.4-1.8,2.1c-0.7,0.7-1.5,1.3-2.4,1.9c-2.5,1.6-5.1,2.8-7.7,3.5
		c-2.7,0.7-5.4,1.1-8,1c-2.7,0-5.3-0.4-7.9-1.2c-2.6-0.7-5-1.8-7.3-3.1c-2-1.2-3.5-2.5-4.5-3.9c-0.9-1.4-1.4-2.8-1.3-4.2
		c0.1-1.4,0.7-2.8,1.7-4.3c1.1-1.4,2.6-2.8,4.6-4c2-1.3,4.3-2.4,6.6-3.1c2.3-0.7,4.7-1.2,7-1.4l0.1-0.2l-5.7-1.4
		c-3.5,1.2-6.7,2.7-9.7,4.7c-1.9,1.3-3.6,2.6-4.8,3.9c-1.3,1.3-2.2,2.7-2.8,4c-0.6,1.3-1,2.7-1,4c-0.1,1.3,0.1,2.6,0.6,3.8
		c0.5,1.2,1.2,2.3,2.2,3.4c1,1,2.2,2,3.6,2.8c2.5,1.5,5.2,2.5,8.2,3c3,0.6,6.1,0.7,9.3,0.4c3.2-0.3,6.4-1,9.6-2.1
		c3.2-1.1,6.3-2.6,9.2-4.5c1.4-0.9,2.8-1.9,4-3c1.2-1.1,2.2-2.1,2.9-3.1l-2.6-3.9L811,808.5z M837.2,789.6c0.8,1.2,1.2,2.4,1.2,3.8
		c0,1.3-0.5,2.7-1.5,4.1c-0.9,1.4-2.5,2.8-4.5,4.1c-1.8,1.1-3.7,2.1-5.8,2.7c-2.1,0.7-4.2,1.1-6.4,1.3c-2.2,0.2-4.3,0-6.5-0.4
		c-2.1-0.4-4.1-1.2-5.9-2.2c-1.7-1-2.9-2.1-3.6-3.4c-0.8-1.3-1.1-2.6-1-3.9c0.1-1.4,0.7-2.7,1.6-4.1c1-1.4,2.4-2.6,4.2-3.8
		c1.8-1.2,3.7-2.1,5.8-2.8c2.1-0.7,4.3-1.1,6.4-1.3c2.2-0.2,4.3,0,6.5,0.4c2.1,0.4,4.1,1.2,5.9,2.2
		C835.2,787.3,836.4,788.4,837.2,789.6z M834.4,795.4c-0.1-0.9-0.5-1.8-1.3-2.7c-0.8-0.9-1.8-1.8-3.2-2.6c-1.6-0.9-3.2-1.7-5-2.2
		c-1.7-0.6-3.4-0.9-5.2-1c-1.7-0.1-3.4,0-5,0.4c-1.6,0.4-3.2,1-4.6,2c-1.1,0.7-1.9,1.5-2.5,2.3c-0.5,0.8-0.7,1.7-0.7,2.6
		c0.1,0.9,0.5,1.8,1.2,2.7c0.7,0.9,1.8,1.8,3.2,2.6c1.6,0.9,3.3,1.7,5,2.3c1.7,0.6,3.5,0.9,5.2,1c1.7,0.1,3.4,0,5.1-0.4
		c1.6-0.4,3.2-1,4.6-1.9c1.1-0.7,1.9-1.5,2.5-2.4C834.3,797.1,834.5,796.3,834.4,795.4z M852,786c-0.3-0.2-0.7-0.3-1.1-0.4
		c-0.4-0.1-0.9-0.1-1.3-0.1c-0.4,0-0.9,0.1-1.3,0.2c-0.4,0.1-0.8,0.3-1.2,0.5c-0.3,0.2-0.6,0.5-0.8,0.7c-0.2,0.3-0.3,0.6-0.3,0.8
		c0,0.3,0.1,0.5,0.2,0.8c0.2,0.3,0.4,0.5,0.7,0.7c0.3,0.2,0.7,0.3,1.1,0.4c0.4,0.1,0.9,0.1,1.3,0.1c0.4,0,0.9-0.1,1.3-0.2
		c0.4-0.1,0.8-0.3,1.2-0.5c0.7-0.5,1.1-1,1.1-1.6C853,786.9,852.7,786.4,852,786z M761.9,395.5 M722.5,434.3c1.2-3.1,2.7-6,4.1-9
		c0.1-0.2,0.2-0.5,0.2-0.7c-0.1-0.1-0.2-0.1-0.3-0.2c-0.2,0.3-0.4,0.5-0.6,0.8c-0.8,1.2-1.7,2.4-2.5,3.6c-0.7,1.2-1.4,2.4-1.9,3.6
		 M735.2,678.8c0,0,0.3,0.6,0.2,0.7c-0.2,0.2-0.6,0.5-0.9,0.5c-1.8,0.1-2.6,1.8-4.4,2.1c-2.4,1.2-4.6,2.5-7,3.5
		c-19.5,10-101.5,49.1-113.3,54.9c-4,1.3-7.9,5.4-11.9,4.9c-39.7-6.4-80.7-10.1-119.8-17c0.9-0.7,2.1-0.4,3.2-0.6
		c17.9,1.6,35.9,4.1,53.8,6.5c0.8-1.4,3-6,3.2-6.2c0-0.1,0-0.2,0-0.3c-0.2-1.6-0.2-3.2,0.1-4.9c0.1-0.5,0.2-1,0.3-1.5
		c0.2-0.6,0.4-1.1,0.6-1.7c0.1-0.1,0.1-0.2,0.2-0.3c0.6-1.2,1.2-2.3,2.1-3.2c0.4-0.5,0.9-0.8,1.3-1.3c-0.2-1.6-0.2-3.2,0-4.8
		c0.1-0.6,0.2-1.2,0.4-1.8c0.2-0.5,0.4-1.1,0.6-1.6c0.1-0.1,0.1-0.2,0.2-0.3c0.8-1.8,1.9-3.2,3.2-4.3c0.1-0.1,0.2-0.1,0.3-0.2
		c0,0,0-0.1,0-0.1c0-0.1,0-0.2,0-0.3c-0.1-1.2-0.2-2.3,0-3.5c-26,10.8-52.1,21-76.1,29.1c4.3-5.4,12-7.4,18.1-10.3
		c13.2-5.6,26.1-11.6,39.4-17c6.8-2.7,13.7-5.3,20.5-7.9c0.7-1.2,1.6-2.2,2.6-3c0.1,0,0.1-0.1,0.2-0.2c-0.2-1.7-0.2-3.4,0.1-5.2
		c0.1-0.5,0.2-1,0.3-1.5c0.2-0.6,0.4-1.1,0.6-1.7c0.1-0.1,0.1-0.2,0.2-0.3c0.8-1.7,1.7-3,3-4.1c0.2-0.1,0.3-0.3,0.5-0.4
		c-0.2-1.6-0.2-3.3,0-4.9c0.1-0.6,0.2-1.2,0.4-1.8c0.2-0.5,0.4-1.1,0.6-1.6c0,0,0-0.1,0.1-0.1c0.9-2.1,2.1-3.7,3.6-4.9
		c0.1,0,0.1-0.2,0.1-0.3c-0.1-1.8,0.1-3.6,0.6-5.4c1.1-3.9,3.1-6.6,5.9-7.9c0.2-0.1,0.2-0.2,0.3-0.5c0.2-2.3,0.9-4.3,2-6
		c1.6-2.7,3.7-4.4,6.2-4.8c0.4-0.1,0.5-0.2,0.7-0.7c1.6-5.2,5.7-8.5,9.5-7.8c0.3,0.1,0.5,0,0.7-0.4c2.5-4.8,7.2-6.7,10.7-4.6
		c0.1,0.1,0.2,0,0.4-0.1c1-1.3,2-2.2,3.3-2.8c2.8-1.3,5.5-1,7.9,1.4c0.2,0.2,0.3,0.2,0.4,0c3.6-3,8.4-2,10.9,2.2
		c0.1,0.2,0.2,0.2,0.4,0.1c1-0.5,2.1-0.7,3.2-0.6c3,0.4,5.3,2.2,6.7,5.9c0,0,0,0.1,0.1,0.1c0,0,0.1,0,0.1,0c3.7-1.2,7.2,0.9,8.9,5.4
		c0.1,0.2,0.2,0.2,0.3,0.2c3.6-1.2,7.1,1,8.8,5.4c0,0.1,0.1,0.2,0.1,0.2c4.1-1.1,7.2,0.8,9.2,5.7c1.9-0.7,3.6-0.5,5.3,0.5
		c1.7,1,2.9,2.8,3.7,5.1c0.1,0,0.8,2.6,0.7,2.6c0,0.2,0.1,0.3,0.1,0.4c0.2,0.6,0.3,1.3,0.5,1.9c4.8-2.1,9.6-4.2,14.5-6.2
		c15.5-6.2,31.2-11.9,46.8-17.3c4-1.5,7.8-2.5,11.7-4.1c0.8-0.3,2.1-0.6,2.8,0.1c-26.7,11.5-50.1,21.9-75,31.3
		c0.6,2.3,1.1,4.6,1.7,6.9c0.1,0.5,0.4,2.2,0.6,3c21.2,0.9,42.3,2.3,63.3,3.8c0,0.1,0,0.2,0,0.3c-36.8,1.6-74.1-2.3-110.9-4.7
		c0-0.1,0-0.2,0-0.3c13-0.1,26.1,0.1,39.2,0.6c-0.9-1-1.8-2.3-2.4-3.9c-2,0.6-3.8,0.4-5.3-0.5c-2.8,1-5.7,2-8.6,3
		c3.5-4.4-0.5-2.1,4.4-4.5c0.6-0.3,1.3-0.6,1.9-0.8c-0.5-0.8-1-1.7-1.5-2.8c-4.1,1.1-7.1-0.7-9.1-5.6c-4.1,1.1-7.1-0.7-9.1-5.6
		c-4.1,1.1-7.1-0.7-9.1-5.6c-3.5,1.1-6.5,0-8.4-4.3c-1.5,1.1-3,1.7-4.6,1.4c-1.6-0.3-2.9-1.3-4.1-2.8c-2.8,3.3-5.8,3.8-8.8,1.4
		c-2.3,4.1-5.1,5.4-8.5,4.2c-1.6,4.6-4.1,6.8-7.7,6.7c-0.8,4.9-3,7.9-6.5,8.9c0,5-1.6,8.5-5,10.6c0.4,2.6,0.1,5.1-0.7,7.5
		c-0.9,2.4-2.2,4.2-3.8,5.5c0.1,0.7,0.1,1.3,0.1,1.9c6.8-2.4,13.5-4.8,20.3-7.2c4.9-1.8,9.8-3.1,14.6-5.1c1-0.4,2.6-0.7,3.5,0.1
		c-12.6,5.5-25.7,11.1-39,16.7c-0.7,2.7-2.1,4.9-4.2,6.7c0.6,5.7-1,10-4.6,13.1c0.6,5.7-1,10-4.6,13.1c0,0.3,0.1,0.6,0.1,0.9
		c0.3,4.7-1,8.5-3.9,11.4c0,0-0.5,0.3-1,0.5c3.4,0.5,6.8,0.9,10.1,1.3c9.8,0.9,19.6,2.4,29.5,3.7c4.6,0,9.9,3.1,14.1,0.5
		c33.3-16.2,85.1-40.3,118-56c1.5-0.2,2.4-1.6,4-1.7c1.1-0.2,1.7-1.4,2.9-1.5C729.5,681.5,731.9,679,735.2,678.8z M659.2,649.5
		c0,0.1,0,0.2,0,0.2c1.2,5,2.4,10.1,3.6,15.1c0.9,3.8,3.7,5.9,6.5,5.2c0.1,0,0.2-0.1,0.3-0.1c0-0.2-0.1-0.3-0.1-0.4
		c-1.2-4.9-2.3-9.7-3.5-14.6c-0.5-2.1-1.4-3.7-2.8-4.7C662,649.3,660.7,649.1,659.2,649.5z M650.3,644c0,0.1,0,0.2,0,0.2
		c1.2,5,2.4,10.1,3.6,15.1c0.9,3.8,3.7,5.9,6.5,5.2c0.1,0,0.2-0.1,0.3-0.1c0-0.2-0.1-0.3-0.1-0.4c-1.2-4.9-2.3-9.7-3.5-14.6
		c-0.5-2.1-1.4-3.7-2.8-4.7C653.1,643.8,651.8,643.5,650.3,644z M640.9,638.4c0,0.1,0,0.2,0,0.2c1.2,5,2.4,10.1,3.6,15.1
		c0.9,3.8,3.7,5.9,6.5,5.2c0.1,0,0.2-0.1,0.3-0.1c0-0.2-0.1-0.3-0.1-0.4c-1.2-4.9-2.3-9.7-3.5-14.6c-0.5-2.1-1.4-3.7-2.8-4.7
		C643.7,638.2,642.4,638,640.9,638.4z M631.7,632.8c0,0.1,0,0.2,0.1,0.3c1.2,4.9,2.3,9.8,3.5,14.7c0.6,2.7,1.9,4.4,3.9,5.2
		c1,0.4,2,0.4,3,0.1c0-0.1-0.1-0.3-0.1-0.4c-1.2-4.9-2.3-9.7-3.5-14.6c-0.6-2.7-1.9-4.4-3.8-5.3
		C633.8,632.5,632.8,632.5,631.7,632.8z M622,627.3c0.1,0.2,0.1,0.3,0.2,0.5c0.6,1.8,1.3,3.6,1.8,5.6c0.8,3,1.5,6,2.2,9
		c1,3.9,3.7,6.1,6.6,5.4c0.1,0,0.2-0.1,0.3-0.1c0-0.1-0.1-0.2-0.1-0.3c-1.2-4.8-2.4-9.6-3.5-14.5c-0.9-4-3.5-6-6.2-5.7
		C622.9,627,622.5,627.2,622,627.3z M611.1,624.6c0.1,0.2,0.2,0.3,0.2,0.4c1.4,2.1,2.6,4.4,3.7,6.8c0.9,1.9,1.7,3.9,2.4,6
		c0.7,2.1,1.9,3.6,3.6,4.3c1,0.4,2,0.2,3,0c-0.2-0.7-0.4-1.2-0.5-1.9c-0.9-4.4-2.3-8.5-3.8-12.4c-1.6-3.9-5-5.1-7.8-3.6
		C611.7,624.2,611.4,624.4,611.1,624.6z M599.9,625.5c0,0.1,0.1,0.1,0.1,0.1c3.2,3,6,6.5,8.4,10.6c0.9,1.5,2,2.4,3.4,2.7
		c1.2,0.3,2.4-0.1,3.5-0.9c0-0.1,0-0.1,0-0.1c0-0.1-0.1-0.2-0.1-0.3c-1.8-4.6-4-8.6-6.6-12.3c-2.2-3-6.1-3-8.6-0.1
		C600,625.3,600,625.4,599.9,625.5z M589,629.8c0.2,0.1,0.4,0.3,0.6,0.3c3.1,1.7,6,3.8,8.7,6.4c0.7,0.7,1.4,1.4,2.2,1.9
		c2.1,1,4,0.5,5.8-1.5c-0.1-0.2-0.2-0.3-0.3-0.4c-2.1-3.2-4.5-6-7.1-8.4c-0.7-0.6-1.4-1.3-2.2-1.7c-2.5-1.2-4.9-0.4-7,2.2
		C589.5,629,589.2,629.4,589,629.8z M578.9,637.5c0.1,0,0.1,0,0.1,0.1c3.9,0.6,7.7,2,11.3,4.1c1.7,1,3.4,0.8,5.1-0.6
		c0.7-0.6,1.3-1.3,1.8-2.2c0-0.1-0.1-0.1-0.1-0.1c-0.1-0.1-0.1-0.1-0.2-0.2c-3-2.7-6.2-4.8-9.6-6.4c-2.4-1.1-4.5-0.4-6.5,1.8
		C580,634.9,579.3,636.1,578.9,637.5z M570.2,648.1c0.2,0,0.3,0,0.4-0.1c2.3-0.4,4.6-0.5,6.8-0.3c1.6,0.2,3.3,0.5,4.9,0.7
		c2,0.3,3.7-0.6,5.1-2.7c0.4-0.6,0.8-1.4,1.1-2.2c-0.1-0.1-0.2-0.1-0.3-0.2c-3.5-1.7-7.1-2.7-10.8-3.1c-3-0.3-5.9,2.6-6.9,6.5
		C570.3,647.2,570.3,647.6,570.2,648.1z M563.3,661.1c0.1,0,0.1,0,0.1,0c3.8-1.9,7.7-3,11.7-3.5c2.2-0.3,3.9-1.8,5-4.7
		c0.2-0.6,0.4-1.3,0.5-2c-0.1,0-0.2,0-0.3-0.1c-2.8-0.4-5.6-0.4-8.4,0c-0.9,0.1-1.7,0.3-2.6,0.5c-2.6,0.5-4.8,3.2-5.7,6.8
		C563.4,659,563.3,660,563.3,661.1z M558.4,674.6c0.1-0.1,0.2-0.1,0.2-0.1c3.7-2,7.4-4.1,11.2-5.9c2-0.9,3.4-2.9,4-5.8
		c0.2-0.8,0.2-1.5,0.2-2.3c-0.1,0-0.2,0-0.3,0.1c-3.7,0.6-7.3,2-10.9,4c-1.6,0.9-2.8,2.3-3.6,4.3
		C558.5,670.6,558.2,672.5,558.4,674.6z M553.8,687.7c0.1,0,0.2-0.1,0.2-0.1c3.6-2,7.3-3.9,10.9-5.9c2-1.1,3.4-3.2,4-6.2
		c0.3-1.2,0.3-2.5,0.2-3.8c-0.1,0-0.1,0-0.2,0.1c-3.6,2-7.3,3.9-10.9,6c-2.2,1.2-3.6,3.6-4.1,6.8
		C553.7,685.6,553.7,686.6,553.8,687.7z M548.9,700.9c0.1,0,0.2-0.1,0.2-0.1c3.6-2,7.3-3.9,10.9-5.9c2-1.1,3.4-3.2,4-6.2
		c0.3-1.2,0.3-2.5,0.2-3.8c-0.1,0-0.1,0-0.2,0.1c-3.6,2-7.3,3.9-10.9,6c-2.2,1.2-3.6,3.6-4.1,6.8
		C548.8,698.8,548.8,699.8,548.9,700.9z M544.7,713.9c0.1,0,0.2-0.1,0.3-0.1c3.6-1.9,7.2-3.9,10.7-5.8c2-1.1,3.3-3,4-5.7
		c0.4-1.4,0.4-2.8,0.3-4.3c-0.1,0-0.2,0.1-0.3,0.1c-3.6,1.9-7.2,3.9-10.7,5.8c-1.9,1.1-3.3,2.9-4,5.7
		C544.6,711,544.5,712.4,544.7,713.9z M540.1,727c0.1,0,0.1-0.1,0.2-0.1c3.7-2,7.3-3.9,10.9-6c2.2-1.2,3.6-3.6,4.1-6.8
		c0.2-1,0.2-2,0-3.1c-0.1,0.1-0.2,0.1-0.3,0.1c-3.6,1.9-7.1,3.9-10.7,5.8c-1.5,0.8-2.7,2.2-3.5,4.2C540.1,723,539.8,725,540.1,727z
		 M546.7,734c2.1-1.4,3.5-3.6,4-6.8c0.2-1,0.2-2,0-3c-0.1,0.1-0.2,0.1-0.3,0.1c-3.2,1.8-6.1,4.7-9.7,5.3c-0.9,0.2-3.7,3.8-4.1,4.9
		c2.7,0.4,5.3,0.7,8,1.1C545.5,734.9,546.7,734.1,546.7,734z M469.5,757.6c1.3,0.6,1.8,1,1.8-0.7c-0.1-4.4-0.4-11.4-1.9-22.6
		c-0.1,0-0.2,0-0.3,0C468.9,742.1,469.3,749.9,469.5,757.6z M600.2,746.8c-1.3-0.6-1.7-0.9-1.7,0c0,2.4,0.1,6.3,1.2,12.7
		c0.1,0,0.2,0,0.3,0C600.3,755.4,600.1,751,600.2,746.8z M738.5,684.2c-0.1,0-0.1,0-0.2,0c-0.8,2.9,1.3,16,0.1,22.3
		C740.6,700.6,738.7,692.8,738.5,684.2z M736.4,709.9c-0.6,0.8-1.4,0.9-2.2,1.1c-1.3,0.2-2,1.6-3.4,1.7c-7.8,3.5-15.5,7.6-23.3,11.2
		c-34.8,17.3-70.1,34.4-104.9,51.8c-0.2,1.5,1.9,2.6,1.9,2.6c31.7-16.5,63.8-32.5,95.5-48.3c10.2-5.3,20.7-10.3,30.7-15.6
		c2.6-1.3,4.5-2.8,5.8-4.5C736.6,709.8,736.5,709.8,736.4,709.9z M738.4,706.5c-0.4,1.1-1,2.2-1.8,3.2
		C737.5,709.3,738.1,708.2,738.4,706.5z M733.9,727.7c0.1,27.3,0.6,54.9,2.3,82c0.1,0,0.1,0,0.2,0c0.1-27.4-1.2-54.7-2.3-82
		C734.1,727.7,734,727.7,733.9,727.7z M720.7,823.6c-6.9,4.2-13.9,8.6-20.7,12.6c-20.2,12.8-40.9,24.8-61,38.1
		c-10.6,6.3-20.9,13.2-31.4,19.6c-2,2.6-17.5,3.9-1.7,7.1c8.8-3.6,16.8-11.1,25.3-16c32.6-22.3,67.1-44,98.9-66
		C727,818.6,723.8,822.3,720.7,823.6z M760.2,628.1c29.5,1.9,59.5,5,89.1,3.8c0-0.1,0-0.2,0-0.2c-29.5-2.1-59.5-4.1-89.1-3.8
		C760.2,627.9,760.2,628,760.2,628.1z M839.5,639.9c2-0.8,3.7-1.9,5.7-2.8c1.4-0.2,2.1-1.6,3.5-1.7c0.3,0,0.5-0.2,0.7-0.4
		c0.1-0.1-0.1-0.6-0.2-0.6c-2.6,0.2-4.6,2.2-6.9,2.9c-1,0.1-1.4,1.1-2.3,1.2c-1.3,0.1-2,1.2-3.2,1.4c-26.5,12.6-68.1,32-94.9,45
		c-2,1.1-1.3,0.2-2.8,1.3c-0.3,0.7-0.3,1.2-0.3,1.7c3.3,0.2,6.4-2.9,9.6-3.9C757.9,679.4,823.8,648,839.5,639.9z M741.7,711.8
		c0.3-3.4-1-18.6-1-22c-1-0.5-1.4-0.8-1.4,0c0,2,0.5,14.9,1.4,20C740.8,709.8,741.7,711.8,741.7,711.8z M852.5,650
		c-0.1,0-0.1,0-0.2,0c-0.9,3,1.7,8.3-2.1,9.5c-0.5,0.7-1.1,0.7-1.8,0.9c-1.1,0.1-1.6,1.3-2.7,1.4c-6.3,2.8-12.4,6.1-18.7,9
		c-28,13.9-56.4,27.6-84.3,41.6c-0.2,1.2,1.6,2.1,1.6,2.1c25.5-13.2,51.3-26.1,76.7-38.8c8.2-4.3,16.7-8.3,24.7-12.6
		C855.6,658.3,852.8,660.4,852.5,650z M850.2,739.7c0.1,0,0.1,0,0.2,0c0.1-22-1-44-1.9-65.9c-0.1,0-0.1,0-0.2,0
		C848.3,695.7,848.8,717.9,850.2,739.7z M821.1,761c-16.3,10.3-32.9,20-49,30.6c-8.5,5-16.8,10.6-25.3,15.7
		c-1.6,2.1-14.1,3.1-1.4,5.7c7.1-2.9,13.5-8.9,20.3-12.8c26.2-17.9,53.9-35.3,79.5-53.1c-2.5-0.3-5.1,2.7-7.5,3.7
		C832.1,754.2,826.5,757.7,821.1,761z M490.7,756.1c36.7,2.3,74.1,6.2,110.9,4.7c0-0.1,0-0.2,0-0.3c-36.7-2.6-74.1-5.1-110.9-4.7
		C490.7,755.8,490.7,755.9,490.7,756.1z M600.4,812.9c-0.1,0-0.2,0-0.2,0c0.1,27.3,0.6,54.9,2.3,82c0.1,0,0.1,0,0.2,0
		C602.9,867.6,601.6,840.2,600.4,812.9z M471.7,962.8c0.1,0,0.2,0,0.3,0C470.4,839.9,461.6,836.1,471.7,962.8z M378.5,856.4
		c19.6,2.7,39.2,5.4,58.8,8.1c7.7,1.1,15.3,2.4,23,3.1c3.8,0.1,6.9-3.2,10.5-4.2c31.7-16.5,63.8-32.5,95.5-48.3
		c10.2-5.3,20.7-10.3,30.7-15.6c12.2-5.9,8.7-3.2,8.4-16.2c-0.1,0-0.1,0-0.2,0c-1.1,3.8,2.1,10.4-2.6,11.8c-0.6,0.8-1.4,0.9-2.2,1.1
		c-1.3,0.2-2,1.6-3.4,1.7c-7.8,3.5-15.5,7.6-23.3,11.2c-34.8,17.3-70.1,34.4-104.9,51.8c-10.4,7-22,0.4-33.3,0.4
		c-21.4-3.1-43-5.4-64.5-8.2c-42.2-7.8-30.3,7.2-35.5-33.5c-0.1,0-0.2,0-0.3,0c-0.2,9.5,0.3,19,0.5,28.5c0.3,4.7,6.2,2.9,9.3,3.8
		C356.3,853.5,367.4,854.9,378.5,856.4z M587,908.8c-6.9,4.2-13.9,8.6-20.7,12.6c-20.2,12.8-40.9,24.8-61,38.1
		c-10.6,6.3-20.9,13.2-31.4,19.6c-2,2.6-18.1-3.3-22.3-3.7c-29.9-6.5-59.8-13.3-89.9-18.4c-3.8-1-7.7-1.9-11.6-2.2
		c-3,0-2.2-3.4-2.3-5.6c-1.6-31.8-0.2-64.2-5.4-95.6c-0.1,0-0.3,0-0.4,0.1c0.4,34.5,1.7,69,2.3,103.5c0.5,3.1,4.8,2,7,3.1
		c6.2,1.5,12.4,2.7,18.6,4c18.3,4.4,36.7,8.1,55,12.4c15.8,3.5,31.6,6.3,47.4,9.6c8.8-3.6,16.8-11.1,25.3-16
		c32.6-22.3,67.1-44,98.9-66C593.2,903.9,590,907.6,587,908.8z M337.4,812.4c42.2-14.2,90.9-35.2,133.9-53.8
		c-0.9-0.8-2.6-0.5-3.5-0.1c-4.9,1.9-9.7,3.3-14.6,5.1c-19.5,6.7-39,13.8-58.3,21.5c-13.3,5.4-26.2,11.4-39.4,17
		C349.4,805,341.7,807,337.4,812.4z M476,825.7c11.7-5.8,93.8-44.9,113.3-54.9c2.5-1,4.6-2.3,7-3.5c1.8-0.3,2.6-2,4.4-2.1
		c0.3-0.1,0.7-0.3,0.9-0.5c0.1-0.1-0.2-0.7-0.2-0.7c-3.2,0.3-5.7,2.7-8.6,3.6c-1.2,0.1-1.8,1.4-2.9,1.5c-1.6,0.1-2.5,1.5-4,1.7
		c-33,15.7-84.8,39.8-118,56c-4.2,2.5-9.5-0.5-14.1-0.5c-9.9-1.3-19.6-2.7-29.5-3.7c-25.6-3.3-51.3-7.2-76.9-9.6
		c-1.1,0.1-2.2-0.1-3.2,0.6c39.1,6.9,82.9,10.6,122.6,17C471,828.3,472.2,827.6,476,825.7z"/>
	<g>
		<path d="M567.2,822.4c-0.9,0.5-1.7,1.4-2.3,2.5c-0.7,1.1-1,2.3-1,3.4c0,0.2,0.1,0.7,0.2,1.5c0.1,0.8,0.2,1.4,0.2,1.7
			c0,1.5-0.5,2.9-1.4,4.3c-0.9,1.4-2.6,2.8-4.8,4.1c-2.3,1.3-6,3.1-11.1,5.3c-7.1,3-12.4,5.5-15.6,7.4c-6.9,4-12.7,8.6-17.5,14
			c-4.8,5.4-8.5,11.3-11.3,17.6c-2.7,6.4-4.1,12.1-4.1,17.2c0,3.8,0.7,6.5,2.1,8.2c0.9,1.1,2.2,1.2,3.7,0.4c1-0.6,1.9-1.5,2.6-2.7
			c0.7-1.2,1.1-2.4,1.1-3.5c0-1.3-0.6-2.4-1.9-3.2c-1.3-0.9-2.1-1.7-2.4-2.2c-0.4-0.9-0.6-1.9-0.6-3.2c0-3.7,1-7.7,2.9-12
			s4.9-8.4,8.8-12.4c3.9-3.9,9.3-7.9,16-11.7c1.1-0.6,2.7-1.5,4.8-2.6l-0.4,1.8l-6.9,37.2c-3,15.6-4.9,24.8-5.7,27.6
			c-0.8,2.8-1.9,5-3.1,6.7c-1.7,2.3-4.3,4.7-8,7.2l-0.8,3.9c3.8-3,7.6-5.5,11.2-7.6c2.1-1.2,4.5-2.5,7.1-3.7c3.5-1.7,6-2.9,7.6-3.8
			c1.6-0.9,3.6-2.4,6.1-4.5l0.8-4c-2.6,2.2-5.2,4.1-7.6,5.5c-1.6,0.9-3.6,1.9-6,3l3-16.8l2.9-14.9l4.7-24.4c1.9-9.8,3-15.5,3.4-17.2
			c2.8-1.4,5.4-2.8,7.9-4.2c6.9-4,11.8-8,14.7-11.9c2.9-4,4.4-7.6,4.4-10.7c0-1.5-0.4-2.6-1.1-3.1
			C569.2,821.7,568.3,821.8,567.2,822.4"/>
	</g>
	<g>
		<path d="M671,753.1c-5.2,3-10.6,8.2-16.4,15.7c-5.7,7.5-10.2,15.4-13.4,23.7c-3.2,8.3-4.8,16.1-4.8,23.5c0,8,2.2,13.1,6.4,15.1
			c3.2,1.5,7.6,0.7,13.1-2.5c2.2-1.3,4.4-2.9,6.6-4.8c2.1-1.9,4.3-4.1,6.3-6.6c-3,14.5-6,24.4-9.1,29.7c-1.5,2.7-3.3,4.6-5.2,5.7
			c-1,0.6-1.9,0.8-2.8,0.7c-0.9-0.1-2.1-0.7-3.6-1.7c-1.4-1-2.6-1.1-3.7-0.5c-0.8,0.5-1.5,1.2-2.1,2.2c-0.6,1-0.9,2.1-0.9,3
			c0,1.8,1,3,2.9,3.5c1.9,0.5,4.5-0.1,7.6-1.9c3.7-2.1,7.2-5.4,10.4-9.6c3.2-4.3,6.1-9.9,8.6-16.9c2.5-7,5-17.4,7.6-31.3
			c0.7-3.9,1.4-6.4,2.1-7.6c0.6-1.2,1.7-2.2,3.2-3c0.1,0,0.1-0.1,0.2-0.1l0.5-3.1c-0.9,0.5-1.9,1.2-3.2,2c-2.3,1.6-4.1,2.7-5.2,3.3
			c-0.6,0.4-1.6,0.9-2.9,1.6c-1.7,0.9-3.1,1.7-4.2,2.3c-1.4,0.8-2.8,1.8-4.2,2.9l-0.4,2.9c1.9-1.3,3.1-2.1,3.6-2.4
			c1.5-0.9,2.5-1.2,3.1-1c0.6,0.2,0.9,0.7,0.9,1.6c0,1.9-0.7,6.1-2.1,12.6c-1.7,2.2-3.5,4.2-5.5,6c-1.9,1.7-3.9,3.2-6,4.4
			c-3.5,2-6.7,2.2-9.5,0.6c-2.8-1.6-4.3-5.8-4.3-12.7c0-6.7,1.4-14,4.2-21.9c2.8-7.8,6.5-14.8,11-20.8c4.5-6,8.9-10.4,13.4-12.9
			c3.2-1.9,5.9-2.3,8.1-1.3c2.2,1,3.3,3.9,3.3,8.8c0,1.3-0.1,2.9-0.2,4.7l2.6-1.5c0-5.7,0.8-12.4,2.5-20.3c-2,1.1-4.9,2.3-8.7,3.5
			C677.1,750.1,673.8,751.5,671,753.1"/>
	</g>
	<g>
		<path d="M813.1,688c-0.8,0.4-1.4,1.1-2,2.1c-0.5,0.9-0.8,1.8-0.8,2.7c0,0.6,0.2,1.4,0.6,2.3c0.6,1.5,0.9,3,0.9,4.6
			c0,2.8-0.9,6.4-2.6,10.9c-2.3,5.9-6.8,14.7-13.4,26.4l-6.6,11.6l-7.7,14c-0.5-4.2-0.8-8.9-0.8-14.3c0-7,0.5-12.9,1.6-17.6
			c1.1-4.7,3.4-11.2,7.1-19.4c-1.5,1-2.9,2-4.4,3c-5.3,3.5-9.3,6.5-12.1,9.2c-4.3,4.1-7.7,8.7-10.1,13.6c-2.5,4.9-3.7,9.3-3.7,13
			c0,2,0.4,3.5,1.2,4.4c0.6,0.6,1.4,0.7,2.2,0.2c0.6-0.3,1.1-0.8,1.4-1.5c0.4-0.6,0.6-1.3,0.6-2c0-0.8-0.4-1.7-1.1-2.8
			c-0.6-0.9-0.8-1.8-0.8-2.9c0-2.3,0.7-5,2.3-8.1c1.5-3.1,3.9-6.5,7.2-10.1c3.3-3.6,6.5-6.3,9.6-8.1c-2.6,5.5-4.5,10.4-5.5,14.5
			c-1,4.1-1.5,8.3-1.5,12.4c0,1.5,0.2,4.4,0.5,8.8l1.5,21.6c6.5-12.2,13-23.9,19.4-35.1c6.1-10.7,10.6-19,13.6-25
			c2.9-6,4.8-10.7,5.7-14c0.9-3.3,1.4-6.2,1.3-8.7c0-2.6-0.4-4.2-1.1-5C815,687.5,814.1,687.4,813.1,688"/>
	</g>
</g>
</svg>
