<?xml version="1.0" encoding="utf-8"?>
<!-- Generator: Adobe Illustrator 25.1.0, SVG Export Plug-In . SVG Version: 6.00 Build 0)  -->
<svg version="1.1" id="Layer_1" xmlns="http://www.w3.org/2000/svg" xmlns:xlink="http://www.w3.org/1999/xlink" x="0px" y="0px"
	 viewBox="0 0 1200 500" style="enable-background:new 0 0 1200 500;" xml:space="preserve">
<style type="text/css">
	.st0{fill:#FFFFFF;}
	.st1{fill:#E55E38;}
	.st2{fill:#3E3E3E;}
	.st3{fill:#2D2E2D;}
	.st4{fill:#D7D7D7;}
	.st5{fill:#959595;}
	.st6{fill:none;}
	.st7{fill:#1F140F;}
	.st8{fill:#DF190D;stroke:#3F280F;stroke-width:5;stroke-miterlimit:10;}
	.st9{fill:#DF800E;stroke:#3F280F;stroke-width:4;stroke-miterlimit:10;}
	.st10{fill:#695F6A;}
	.st11{fill:#AFA397;}
	.st12{fill:#7F7480;}
	.st13{fill:#494244;}
</style>
<g>
	<path class="st0" d="M586.7,179.5h-34.2c-6.7-22.8-16.8-44.5-30-64.5c-14.5-22-32.3-41.4-53.1-57.7c-20.9-16.5-44.2-29.3-69.3-38.1
		c-25.9-9.1-53-13.7-80.7-13.7c-41.9,0-83.2,10.8-119.5,31.4c-32.1,18.2-60.1,43.9-81,74.4c-5.4-2.3-15.1-6.3-16.5-6.8l-7.7-3.1
		l9.6,34c-7.4,14.1-13.5,28.9-18,44.2h-34c-22.4,0-40.7,18.3-40.7,40.7v56.5c0,22.4,18.3,40.7,40.7,40.7h34.2
		c9,30.3,23.6,58.3,43.5,83.1c20.4,25.4,45.1,46.1,73.6,61.6c1.3,2,2.7,3.8,4.3,5.4c6.3,6.4,14.7,9.1,23.6,7.6
		c28,10.9,57.6,16.4,87.9,16.4c27.7,0,54.8-4.6,80.7-13.7c25-8.8,48.3-21.6,69.3-38.1c20.7-16.3,38.6-35.7,53.1-57.7
		c13.2-20,23.2-41.7,30-64.5h34.2c22.4,0,40.7-18.3,40.7-40.7v-56.5C627.4,197.7,609.2,179.5,586.7,179.5z M559.4,209.7h27.3
		c5.7,0,10.4,4.7,10.4,10.4v56.5c0,5.7-4.7,10.4-10.4,10.4h-27.3c2-12.7,3.1-25.7,3.1-38.7S561.4,222.5,559.4,209.7z M79.6,287.1
		H52.3c-5.7,0-10.4-4.7-10.4-10.4v-56.5c0-5.7,4.7-10.4,10.4-10.4h27.3c-2,12.7-3.1,25.7-3.1,38.7C76.5,261.4,77.6,274.4,79.6,287.1
		z"/>
	<g>
		<g>
			<path class="st1" d="M586.7,306.5h-70.3c-16.4,0-29.8-13.4-29.8-29.8v-56.5c0-16.4,13.4-29.8,29.8-29.8h70.3
				c16.4,0,29.8,13.4,29.8,29.8v56.5C616.5,293.1,603.2,306.5,586.7,306.5z M516.5,198.9c-11.7,0-21.3,9.6-21.3,21.3v56.5
				c0,11.7,9.6,21.3,21.3,21.3h70.3c11.7,0,21.3-9.6,21.3-21.3v-56.5c0-11.7-9.6-21.3-21.3-21.3L516.5,198.9L516.5,198.9z"/>
		</g>
		<g>
			<path class="st1" d="M122.5,306.5H52.3c-16.4,0-29.8-13.4-29.8-29.8v-56.5c0-16.4,13.4-29.8,29.8-29.8h70.3
				c16.4,0,29.8,13.4,29.8,29.8v56.5C152.4,293.1,139,306.5,122.5,306.5z M52.3,198.9c-11.7,0-21.3,9.6-21.3,21.3v56.5
				c0,11.7,9.6,21.3,21.3,21.3h70.3c11.7,0,21.3-9.6,21.3-21.3v-56.5c0-11.7-9.6-21.3-21.3-21.3L52.3,198.9L52.3,198.9z"/>
		</g>
		<g>
			<circle class="st2" cx="319.5" cy="248.4" r="232.1"/>
		</g>
		<g>
			<circle class="st3" cx="319.5" cy="247.4" r="205.5"/>
		</g>
		<g>
			<g>
				<path class="st4" d="M241,191.7c0,2.5-2,4.5-4.5,4.5h-5.1c-1,0-1.9-0.8-2-1.8l-0.6-4.1h-0.5c-2.5,5-4.3,6.9-9.3,6.9
					c-5.4,0-8.4-3.4-8.4-9.9v-37.2c0-4.1,1.5-7.5,4.4-10.4l12.5-12.3c0.9-0.9,1.4-2,1.4-3.3v-22.5c0-1-0.8-2-1.8-2h-1
					c-3.3,0-3.1,3.4-3.1,3.4v9.5c0,2.5-2,4.5-4.5,4.5h-3.4c-2.5,0-4.5-2-4.5-4.5v-9c0-8.8,5.9-14.4,15.3-14.4
					c9.3,0,15.2,5.6,15.2,14.4L241,191.7L241,191.7z M228.7,140.5l-4.6,4.9c-0.9,0.9-1.3,1.9-1.3,3.1v33.6c0,1.9,1.3,2.9,3,2.9
					c1.6,0,2.9-1.5,2.9-3.5L228.7,140.5L228.7,140.5z"/>
			</g>
			<g>
				<path class="st4" d="M250.8,166.4h3.3c2.5,0,4.5,2,4.5,4.5v10.5c0,4.5,1.4,5.3,3,5.3c1.5,0,2.9-0.8,2.9-5.3v-18.8
					c0-13.9-18.2-23.8-18.2-37.4v-21.7c0-8.8,5.9-14.4,15.3-14.4c9.3,0,15.2,5.6,15.2,14.4V123c0,2.5-2,4.5-4.5,4.5H269
					c-2.5,0-4.5-2-4.5-4.5v-18.2c0-4.5-1.4-5.3-2.9-5.3c-1.6,0-3,0.8-3,5.3V122c0,8.6,18.2,20.5,18.2,33.3v27.4
					c0,8.9-5.9,14.4-15.2,14.4c-9.4,0-15.3-5.5-15.3-14.4v-11.9C246.3,168.4,248.3,166.4,250.8,166.4z"/>
			</g>
			<g>
				<path class="st4" d="M312.1,191.7c0,2.5-2,4.5-4.5,4.5h-5.1c-1,0-1.9-0.8-2-1.8l-0.6-4.1h-0.5c-2.5,5-4.3,6.9-9.3,6.9
					c-5.4,0-8.4-3.4-8.4-9.9v-37.2c0-4.1,1.5-7.5,4.4-10.4l12.5-12.3c0.9-0.9,1.4-2,1.4-3.3v-22.5c0-1-0.8-2-1.8-2h-1
					c-3.3,0-3.1,3.4-3.1,3.4v9.5c0,2.5-2,4.5-4.5,4.5h-3.4c-2.5,0-4.5-2-4.5-4.5v-9c0-8.8,5.9-14.4,15.3-14.4
					c9.3,0,15.2,5.6,15.2,14.4v88.2H312.1z M299.9,140.5l-4.6,4.9c-0.9,0.9-1.3,1.9-1.3,3.1v33.6c0,1.9,1.3,2.9,3,2.9
					c1.6,0,2.9-1.5,2.9-3.5V140.5z"/>
			</g>
			<g>
				<path class="st4" d="M347.8,73.8v118c0,2.5-2,4.5-4.5,4.5h-4.9c-1,0-1.8-0.6-2-1.6l-0.6-3.5h-0.5c-1.9,3.1-5.1,6.1-8.8,6.1
					c-4.8,0-9.1-3-9.1-10v-57.8c0-7.1,4.4-10.1,9.1-10.1c3.9,0,6.8,3.1,8.5,6.5h0.5v-52c0-2.5,2-4.5,4.5-4.5h3.3
					C345.8,69.3,347.8,71.3,347.8,73.8z M329.7,179.7c0,4.5,1.4,5.3,3,5.3c1.5,0,2.9-0.8,2.9-5.3v-42.8c0-4.5-1.4-5.3-2.9-5.3
					c-1.6,0-3,0.8-3,5.3V179.7z"/>
			</g>
			<g>
				<path class="st4" d="M383.4,182.8c0,8.9-5.9,14.4-15.1,14.4c-9.4,0-15.3-5.5-15.3-14.4v-79.3c0-8.8,5.9-14.4,15.3-14.4
					c9.3,0,15.1,5.6,15.1,14.4V182.8z M371.1,103.9c0-3.9-1.1-4.3-2.9-4.3c-1.9,0-3,0.4-3,4.3v78.6c0,3.9,1.1,4.1,3,4.1
					c1.8,0,2.9-0.2,2.9-4.1V103.9z"/>
			</g>
			<g>
				<path class="st4" d="M393,166.4h3.3c2.5,0,4.5,2,4.5,4.5v10.5c0,4.5,1.4,5.3,3,5.3c1.5,0,2.9-0.8,2.9-5.3v-18.8
					c0-13.9-18.2-23.8-18.2-37.4v-21.7c0-8.8,5.9-14.4,15.3-14.4c9.3,0,15.2,5.6,15.2,14.4V123c0,2.5-2,4.5-4.5,4.5h-3.3
					c-2.5,0-4.5-2-4.5-4.5v-18.2c0-4.5-1.4-5.3-2.9-5.3c-1.6,0-3,0.8-3,5.3V122c0,8.6,18.2,20.5,18.2,33.3v27.4
					c0,8.9-5.9,14.4-15.2,14.4c-9.4,0-15.3-5.5-15.3-14.4v-11.9C388.5,168.4,390.5,166.4,393,166.4z"/>
			</g>
		</g>
		<g>
			<g>
				<path class="st4" d="M471.3,181.9c-0.2,2.6-0.7,5.2-1.3,7.6c-0.6,2.4-1.5,4.6-2.6,6.5c0.6,0.7,1.4,1.5,2.2,2.4
					c0.9,0.9,1.7,1.8,2.6,2.7s1.7,1.8,2.6,2.7s1.6,1.6,2.2,2.3h-10.7l-1.1-1.2c-0.3-0.3-0.6-0.6-0.8-0.8c-0.2-0.2-0.4-0.3-0.6-0.5
					s-0.3-0.4-0.5-0.6c-0.2-0.2-0.4-0.5-0.7-0.9c-1.8,1.6-3.9,2.9-6.2,3.9c-2.3,1-4.9,1.5-7.7,1.5c-3.1,0-5.7-0.4-7.8-1.3
					c-2.1-0.9-3.8-2-5.1-3.3c-1.3-1.4-2.3-2.9-2.9-4.6c-0.6-1.7-0.9-3.4-0.9-5s0.3-3.1,0.9-4.5s1.4-2.7,2.4-3.9s2.2-2.4,3.5-3.5
					s2.7-2.2,4.2-3.3c-1.6-2.5-2.9-4.9-3.7-7c-0.9-2.1-1.3-4-1.3-5.8c0-1.4,0.3-2.7,0.8-4c0.6-1.3,1.4-2.5,2.5-3.5s2.4-1.9,4-2.5
					s3.4-1,5.4-1c2.2,0,4,0.3,5.7,1c1.6,0.7,2.9,1.6,4,2.6c1.1,1.1,1.8,2.3,2.4,3.6c0.5,1.3,0.8,2.6,0.8,3.9c0,1.4-0.3,2.8-0.8,4
					c-0.5,1.3-1.3,2.5-2.2,3.6c-0.9,1.1-2,2.2-3.2,3.3s-2.5,2.1-3.8,3.1c0.6,0.8,1.1,1.5,1.7,2.2c0.5,0.7,1.1,1.4,1.7,2.1
					c0.6,0.7,1.3,1.6,2,2.5s1.6,1.9,2.6,3.1c0.4-1.1,0.7-2.2,0.9-3.4c0.2-1.2,0.4-2.6,0.5-4.1L471.3,181.9L471.3,181.9z
					 M448.8,199.9c1.7,0,3.2-0.3,4.7-1s2.8-1.6,4-2.7c-2-2.3-3.8-4.3-5.4-6.2s-3.1-3.8-4.7-5.9c-0.9,0.7-1.8,1.4-2.6,2.1
					c-0.8,0.7-1.6,1.5-2.2,2.3c-0.7,0.8-1.2,1.6-1.6,2.3c-0.4,0.8-0.6,1.6-0.6,2.3c0,1.1,0.2,2.1,0.7,2.9c0.5,0.8,1.1,1.5,1.9,2.1
					c0.8,0.5,1.7,0.9,2.7,1.2C446.7,199.8,447.7,199.9,448.8,199.9z M446.3,165.2c0,1,0.3,2.1,0.8,3.5c0.5,1.3,1.3,2.9,2.5,4.8
					c1.8-1.4,3.2-2.7,4.3-4c1.1-1.3,1.7-2.6,1.7-4c0-1.3-0.5-2.3-1.4-2.9c-0.9-0.6-2-1-3.3-1c-1.1,0-2.2,0.3-3.1,1
					C446.7,163.2,446.3,164.1,446.3,165.2z"/>
			</g>
		</g>
		<g>
			<g>
				<path class="st4" d="M253.2,354.9v-127c0-2.7,2.2-4.9,4.9-4.9h5.3c1.1,0,1.9,0.7,2.2,1.8l0.8,3.7h0.5c2.1-3.4,5.5-6.7,10.5-6.7
					c5.2,0,8.9,4.1,8.9,14.4v67.6c0,9.2-3,14.2-10,14.2c-4.2,0-7.5-3.4-9.3-7h-0.5v43.9c0,2.7-2.2,4.9-4.9,4.9H258
					C255.4,359.8,253.2,357.6,253.2,354.9z M273.1,241c0-4.9-1.5-5.7-3.1-5.7c-1.8,0-3.3,0.8-3.3,5.7v57.7c0,4.9,1.5,5.7,3.3,5.7
					c1.6,0,3.1-0.8,3.1-5.7V241z"/>
			</g>
			<g>
				<path class="st4" d="M325.2,333.9c0,2.7-2.2,4.9-4.9,4.9h-5.6c-1.1,0-2.1-0.8-2.2-1.9l-0.7-4.5h-0.5c-2.7,5.5-4.7,7.5-10.1,7.5
					c-5.9,0-9.2-3.7-9.2-10.8v-29.7c0-4.5,1.6-8.2,4.8-11.4l13.7-13.4c1-1,1.5-2.2,1.5-3.6v-35.6c0-1.1-0.8-2.2-1.9-2.2H309
					c-3.6,0-3.4,3.7-3.4,3.7v10.4c0,2.7-2.2,4.9-4.9,4.9H297c-2.7,0-4.9-2.2-4.9-4.9v-9.8c0-9.6,6.4-15.7,16.7-15.7
					c10.1,0,16.6,6.2,16.6,15.7v96.4H325.2z M311.8,288.9l-5.1,5.3c-1,1-1.4,2.1-1.4,3.4v25.7c0,2.1,1.4,3.1,3.3,3.1
					c1.8,0,3.1-1.6,3.1-3.8v-33.7H311.8z"/>
			</g>
			<g>
				<path class="st4" d="M355.7,295.1h3.6c2.7,0,4.9,2.2,4.9,4.9v24.2c0,9.7-6.4,15.7-16.6,15.7c-10.3,0-16.7-6-16.7-15.7v-86.6
					c0-9.6,6.4-15.7,16.7-15.7c10.1,0,16.6,6.2,16.6,15.7v29.6c0,2.7-2.2,4.9-4.9,4.9h-14.9V324c0,4.2,1.2,4.5,3.3,4.5
					c1.9,0,3.1-0.3,3.1-4.5v-24C350.8,297.3,353,295.1,355.7,295.1z M350.8,238c0-4.2-1.2-4.6-3.1-4.6c-2.1,0-3.3,0.4-3.3,4.6v23.1
					h6.4V238z"/>
			</g>
			<g>
				<path class="st4" d="M379.1,338.8h-3.6c-2.7,0-4.9-2.2-4.9-4.9V205c0-2.7,2.2-4.9,4.9-4.9h3.6c2.7,0,4.9,2.2,4.9,4.9v128.9
					C384,336.7,381.8,338.8,379.1,338.8z"/>
			</g>
			<g>
				<path class="st4" d="M399.8,338.8h-3.6c-2.7,0-4.9-2.2-4.9-4.9V205c0-2.7,2.2-4.9,4.9-4.9h3.6c2.7,0,4.9,2.2,4.9,4.9v128.9
					C404.7,336.7,402.5,338.8,399.8,338.8z"/>
			</g>
			<g>
				<path class="st4" d="M444.2,333.9c0,2.7-2.2,4.9-4.9,4.9h-5.6c-1.1,0-2.1-0.8-2.2-1.9l-0.7-4.5h-0.5c-2.7,5.5-4.7,7.5-10.1,7.5
					c-5.9,0-9.2-3.7-9.2-10.8v-29.7c0-4.5,1.6-8.2,4.8-11.4l13.7-13.4c1-1,1.5-2.2,1.5-3.6v-35.6c0-1.1-0.8-2.2-1.9-2.2H428
					c-3.6,0-3.4,3.7-3.4,3.7v10.4c0,2.7-2.2,4.9-4.9,4.9H416c-2.7,0-4.9-2.2-4.9-4.9v-9.8c0-9.6,6.4-15.7,16.7-15.7
					c10.1,0,16.6,6.2,16.6,15.7v96.4H444.2z M430.8,288.9l-5.1,5.3c-1,1-1.4,2.1-1.4,3.4v25.7c0,2.1,1.4,3.1,3.3,3.1
					c1.8,0,3.1-1.6,3.1-3.8v-33.7H430.8z"/>
			</g>
			<g>
				<path class="st4" d="M454.9,306.3h3.6c2.7,0,4.9,2.2,4.9,4.9v11.5c0,4.9,1.5,5.7,3.3,5.7c1.6,0,3.1-0.8,3.1-5.7v-9.6
					c0-15.2-19.8-26-19.8-40.9v-34.6c0-9.6,6.4-15.7,16.7-15.7c10.1,0,16.6,6.2,16.6,15.7V248c0,2.7-2.2,4.9-4.9,4.9h-3.6
					c-2.7,0-4.9-2.2-4.9-4.9v-8.9c0-4.9-1.5-5.7-3.1-5.7c-1.8,0-3.3,0.8-3.3,5.7v29.7c0,9.4,19.8,22.4,19.8,36.4v19
					c0,9.7-6.4,15.7-16.6,15.7c-10.3,0-16.7-6-16.7-15.7v-13C450,308.5,452.2,306.3,454.9,306.3z"/>
			</g>
		</g>
		<path class="st5" d="M212.9,423h213.3c0,0-0.1,0-0.1,0.1l-7.2,4.2l0,0H220.2L212.9,423z"/>
		<polygon class="st5" points="177,395.3 462,395.3 462,395.3 457.5,399.6 181.5,399.6 		"/>
		<path class="st5" d="M152.9,367.7h333.2c0,0,0,0.1-0.1,0.1l-3.1,4.2H156.1L152.9,367.7z"/>
		<path id="SVGID_3_" class="st6" d="M525,247.4c0,113.5-92,205.5-205.5,205.5S114,360.9,114,247.4S206,41.9,319.5,41.9
			C433,41.9,525,133.9,525,247.4z"/>
		<g>
			<g>
				<path class="st1" d="M213.9,322.9c-0.5-2-1-3.9-1.5-5.8c-1.8-7-3.7-14-5.7-21c-14.1-48.9-47.8-148-94.8-174l1.8,6.5L173.1,337
					l41.4-11.9C214.3,324.4,214.1,323.6,213.9,322.9z"/>
			</g>
			<g>
				<path class="st1" d="M249.9,445.7c-1.9-6.8-10.8-12.7-15.8-15.5c0,0,2.5-9.7-1.2-32.2c-1.3-8.1-5-15.9-11.5-27.9
					c0,0-7.6-10.9-9.5-17.4c-0.7-2.5-0.3-4.5,2.2-5.2c6.4-1.9,8.9-5.1,6.9-12.3c-1-3.5-2.5-5.9-4.2-9L174,338.6
					c3.3,6.8,15.8,33.3,25.4,66.3c3.7,12.8,6.9,26.5,9,40.4c0,0,0.1,0.6,0.4,1.7c0.8,2.8,2.9,8.5,6.9,12.7c4,4.1,10,6.6,18.7,3.2
					C248.4,457.5,251.5,451.3,249.9,445.7z"/>
			</g>
			<g>
				<path class="st1" d="M208.4,295.6c5.1,17.5,7.7,29,7.7,29l14.4-4.1c0,0-0.3-1.2-0.9-3.3c-6.9-24-52-172-118.3-197.5
					C159.6,144.7,193.9,245.3,208.4,295.6z"/>
			</g>
		</g>
	</g>
</g>
<g>
	<path class="st0" d="M1178.6,166.2l-30.2,0.2l0.1,10l-25.6,0.2c-1.9-5.9-4.1-11.8-6.5-17.5c-2.6-6.3-5.4-12.5-8.5-18.5
		c-0.8-1.5-0.3-3.4,1.2-4.2l2.7-1.6l-0.2-0.3l8.3-5c1.5-0.9,2-2.9,1.1-4.4l-13.8-23C1064.2,42.6,992.4,6,895.7,9.9l0,0.2
		c-1.1,0-2.1,0.1-3.2,0.2c-2.3,0.3-4.4,0.8-6.2,1.7c-1.8,0.8-3.2,1.9-4.4,3.2c-1.2-0.5-2.4-0.9-3.8-1.1c-2.7-0.5-5.6-0.5-8.6,0.2
		c-3,0.6-5.6,1.8-7.9,3.4c-0.8,0.5-1.4,1.1-2.1,1.7c-1.4-0.3-2.9-0.5-4.5-0.5c-2.3,0-4.5,0.3-6.7,1c-2.9,0.9-5.4,2.3-7.5,4.2
		c-2.3,2-3.9,4.4-4.9,7c-0.6,1.8-0.9,3.6-0.8,5.5l-10.5-7.6l-3.9,1.9l-4.4,2.1l-3.7,1.8l-1,14.9l-6.5-10.9l-8.8,5.2l-0.3-0.4
		l-4.5,3.3l-2.8,1.7l0.1,0.2L778.7,56l-0.3-0.4l-3.8,3.3l-2.7,1.9l0.2,0.3l-8,7.1v0l-10.2,9l0.6,0.7c-1.5,1-2.8,2.1-4,3.4
		c-2,2.2-3.5,4.7-4.4,7.3c-0.3,0.7-0.5,1.5-0.6,2.2l-0.8,0.4c-1.6,0.8-3.1,1.8-4.6,3.1c-1.5,1.3-2.8,2.7-4,4.2
		c-1.3,1.8-2.3,3.6-2.9,5.3l-0.9-0.5l-13.8,23c-0.9,1.5-0.4,3.5,1.1,4.4l12.3,7.4c1.4,0.9,2,2.7,1.2,4.2c-2.6,5.1-5,10.4-7.2,15.8
		c-2.3,5.6-4.4,11.3-6.2,17.1l-26.6,0.2l0-6.1l-14.9-2.8l-15,0.1l1.1,147l30.2-0.2l-0.1-10l23.3-0.2c7,25.4,18.4,49.2,33.5,70
		c0.9,1.3,0.8,3-0.3,4.2l-24.4,24.4c-1.3,1.3-1.3,3.3,0,4.5l14.5,14.6l25.9,22.9l13.7,9.8l21.9,13.4l13.7,6.2l4.6,2.1l26.4,10
		l14.4,3.4l4.9,1.2l27.6,4.4l11.3,1.1l0,0.5l36.6-0.7l0,0.1l0.6-0.1l4.3-0.1l0-0.6l31.6-5.3l0.1,0.3l2-0.7l2.4-0.4l-0.1-0.4
		l37.6-12.6l0.1,0.1l0.8-0.4l1.3-0.4l-0.1-0.2l18.8-10.2l4.4-2.4l25-14.4c0,0,8.7-7.5,12.7-10.7c4-3.2,7.1-7,9.2-11.1
		c1.5-2.9,2.5-5.9,2.9-9l2.5-0.6c3.5-0.9,7.1-2.4,10.6-4.6c3.4-2.1,6.5-4.7,9.2-7.7c2.6-2.9,4.5-5.9,5.9-8.9
		c1.5-3.5,2.2-6.9,1.8-10.2c-0.4-3.8-2.1-7.3-5-9.9c-3-2.7-6.6-4-10.4-3.8c-0.3,0-0.5,0-0.8,0.1l-4.4-13.6l-5.6,2.2
		c10.8-17.1,19.2-35.7,25-55.1l25.4-0.2l0,6.1l14.9,2.8l15-0.1L1178.6,166.2z M842.2,466.9C842.2,466.9,842.2,466.9,842.2,466.9
		L842.2,466.9L842.2,466.9z"/>
	<g>
		<path class="st7" d="M1109.7,161.8C1065.4,51.6,932.8,0.6,827.4,57v-0.1C661.9,145,687.1,395.3,868.6,445.8
			C1035.5,490.3,1175,318.3,1109.7,161.8z M736.1,154c-0.6,1.3-1.2,2.6-1.7,3.8C734.9,156.5,735.5,155.3,736.1,154z"/>
	</g>
	<g>
		<path class="st0" d="M1097.9,166.9c-41.6-103.3-165.8-151-264.5-98.2v-0.1c-155.1,82.6-131.5,317.1,38.6,364.4
			C1028.3,474.8,1159.1,313.6,1097.9,166.9z M747.7,159.6c-0.6,1.2-1.1,2.4-1.6,3.6C746.6,162,747.2,160.8,747.7,159.6z
			 M770.1,359.3c-24.4-33.1-37.5-72.5-37.8-114.2h37.8V359.3z M770.1,241.5h-37.8c0.4-41.7,13.4-81,37.8-114.2V241.5z M790,382.3
			c-5.8-5.7-11.3-11.9-16.3-18.3V245.1H790V382.3z M790,241.5h-16.3V122.7c5-6.4,10.5-12.6,16.3-18.3V241.5z M809.9,399.3
			c-5.7-4.2-11.2-8.8-16.3-13.7V245.1h16.3V399.3z M809.9,241.5h-16.3V101c5.2-4.9,10.7-9.4,16.3-13.7V241.5z M829.8,412.3
			c-5.6-3.2-11.1-6.7-16.3-10.4V245.1h16.3V412.3z M829.8,241.5h-16.3V84.7c5.3-3.7,10.8-7.2,16.3-10.4V241.5z M849.7,422.1
			c-5.6-2.3-11-4.9-16.3-7.8V245.1h16.3V422.1z M849.7,241.5h-16.3V72.4c5.3-2.9,10.8-5.5,16.3-7.8V241.5z M869.5,429.1
			c-5.5-1.6-11-3.5-16.3-5.6V245.1h16.3V429.1z M869.5,241.5h-16.3V63.1c5.3-2.1,10.8-4,16.3-5.6V241.5z M889.4,433.6
			c-5.5-0.9-11-2.2-16.3-3.6v-185h16.3V433.6z M889.4,241.5h-16.3v-185c5.4-1.4,10.8-2.6,16.3-3.6V241.5z M909.3,436
			c-5.5-0.3-11-0.9-16.3-1.8V245.1h16.3V436z M909.3,241.5H893V52.4c5.4-0.8,10.9-1.4,16.3-1.8V241.5z M929.2,436.2
			c-5.5,0.2-10.8,0.2-16.3,0V245.1h16.3V436.2z M929.2,241.5h-16.3V50.5c5.5-0.2,10.8-0.2,16.3,0V241.5z M949.1,434.2
			c-5.4,0.8-10.9,1.4-16.3,1.8V245.1h16.3V434.2z M949.1,241.5h-16.3V50.7c5.5,0.3,11,0.9,16.3,1.8V241.5z M968.9,430.1
			c-5.4,1.4-10.8,2.6-16.3,3.6V245.1h16.3V430.1z M968.9,241.5h-16.3V53c5.5,0.9,11,2.2,16.3,3.6V241.5z M988.8,423.5
			c-5.3,2.1-10.8,4-16.3,5.6v-184h16.3V423.5z M988.8,241.5h-16.3v-184c5.5,1.6,11,3.5,16.3,5.6V241.5z M1071.9,127.4
			c24.4,33.1,37.5,72.5,37.8,114.2h-37.8V127.4z M1052,104.4c5.8,5.7,11.3,11.9,16.3,18.3v118.8H1052V104.4z M1032.1,87.3
			c5.7,4.2,11.2,8.8,16.3,13.7v140.6h-16.3V87.3z M1012.2,74.3c5.6,3.2,11.1,6.7,16.3,10.4v156.8h-16.3V74.3z M992.4,64.6
			c5.6,2.3,11,4.9,16.3,7.8v169.2h-16.3V64.6z M1008.7,414.3c-5.3,2.9-10.8,5.5-16.3,7.8v-177h16.3V414.3z M1028.6,401.9
			c-5.3,3.7-10.7,7.2-16.3,10.4V245.1h16.3V401.9z M1048.5,385.7c-5.2,4.9-10.6,9.4-16.3,13.7V245.1h16.3V385.7z M1068.4,363.9
			c-5,6.4-10.5,12.6-16.3,18.3V245.1h16.3V363.9z M1071.9,359.3V245.1h37.8C1109.4,286.8,1096.3,326.1,1071.9,359.3z"/>
	</g>
	<g>
		<path class="st8" d="M1137.5,197.2l18.4-0.1l-0.1-10.9l-38,0.3l0-2.6l38-0.3l-0.1-10l11.9-0.1l3.9,0l1,132.5l-7.1,0.1l-8.4-1.5
			l-0.1-7.4l-36.7,0.3l0-2.6l37.3-0.3l-0.4-9.3l-7.1-1.9l-10,0.1C1140.1,283.4,1142.8,214.5,1137.5,197.2z"/>
		<path class="st8" d="M705.3,282.7l-18.4,0.1l0.1,10.9l38-0.3l0,2.6l-38,0.3l0.1,10l-11.9,0.1l-3.9,0l-1-132.5l7.1-0.1l8.4,1.5
			l0.1,7.4l36.7-0.3l0,2.6l-37.3,0.3l0.4,9.3l7.1,1.9l10-0.1C702.7,196.5,700,265.4,705.3,282.7z"/>
	</g>
	<g>
		<path class="st9" d="M963.5,269.7c0.5-4.9,1.5-9.7,2.4-14.7c-2.4,0.2-3.9,1.3-5,3.9c-2.3,5.1-4.7,10.1-7.2,15
			c-2.2,4.3-3.9,2.7-5.1-1.4c-0.5-1.8-0.9-3.8-1-5.8c-0.7-9.2-1.4-18.5-1.8-27.7c-0.7-13.1-6.3-24.1-14.7-27.8
			c7.3,24-2.5,40.4-10.4,58.9c-0.9-11.3-1.8-21.4-6.5-29.4c-1.4,2.1-1.5,4.5-1.3,6.9c0.4,5.6-0.5,11-1.8,16
			c-3.2,12.8-8.3,23.9-13.3,35c-2.8,6.2-6,12-8.6,18.3l0,0c-9.6,20.5-5.5,34-5.5,34l0,0c0.3,1.4,0.8,2.7,1.4,4.1
			c1.5-3.5,3.4-6.9,5.6-10c1.9-4,4.8-6.5,7.2-9.6c3.7-4.7,7.2-9.5,10-15.8c1.4,1.9-0.1,4.5,1,6.2c4.6-3.2,8.4-11.8,11.5-26.5
			c2.7,8.8-0.6,16.7-0.7,24.8l0.3,0.4c7.7-10.7,9.7-24.6,9.8-39.7c0-6.4,0.3-12.8,3.8-19.2c0.1,16.1,4,29.8,6.1,45.5
			c1.9-6.8,2.5-13.2,6-18.6c0.4,7.7-0.3,14.5,0.8,21.1c1.2,6.5,3.3,11.6,6.6,15.4c1.1,1.3,2.3,2.4,3.6,3.4c0.8,0.6,1.8,1.8,2.7,0.3
			l0-0.1c0.6-1.2-0.1-2.5-0.3-3.7c-1.6-6.8-3.1-13.6-1.5-21.2c0.4,11.2,4.3,18.8,9.8,25.3c2.1,2.4,3.7,5.6,4.9,9.2
			c0.1,1.9,1.1,22.7,2.6,13.9c0.6-3.5,0.9-5.6,1-7c1.5-11.8-0.2-27.5-4.8-34.4C962.4,301.8,961.8,286.3,963.5,269.7L963.5,269.7z"/>
	</g>
	<g>
		<path class="st8" d="M968.6,84.5c-0.9,0.7-1.9,1-2.9,1H911c-2.9,0-4.3,1.2-4.3,3.6v29.2c0,0.8,0.4,1.6,1.2,2.4
			c0.8,0.8,1.8,1.1,3.1,1.1h54.7c1,0,2,0.3,2.9,1c0.9,0.7,1.4,1.5,1.4,2.5v17.3c0,1-0.5,1.9-1.4,2.5c-0.9,0.7-1.9,1-2.9,1H911
			c-1.2,0-2.2,0.4-3.1,1.1c-0.8,0.8-1.2,1.6-1.2,2.7v27.9c0,1,0.4,1.9,1.2,2.7c0.8,0.8,1.8,1.1,3.1,1.1h54.7c1,0,2,0.3,2.9,1
			c0.9,0.7,1.4,1.5,1.4,2.5v17.3c0,1-0.5,1.9-1.4,2.5c-0.9,0.7-1.9,1-2.9,1h-92.9c-2.9,0-4.3-1.2-4.3-3.6V64.7
			c0-2.4,1.4-3.6,4.3-3.6h92.9c1,0,2,0.3,2.9,1c0.9,0.7,1.4,1.5,1.4,2.5V82C970,83,969.5,83.8,968.6,84.5z"/>
	</g>
	<g>
		<path class="st8" d="M820.7,348.2c6.9,0,12.6-1.7,17-5.1c4.4-3.4,8-8,10.8-14c0.6-0.8,1.5-1.5,2.6-2c1.1-0.5,2.3-0.6,3.5-0.3
			l18.9,6.1c1,0.3,1.8,1.1,2.3,2.2c0.5,1.1,0.6,2.1,0.2,2.9c-5.1,10.7-12.6,19.1-22.5,25.3c-9.9,6.2-22.3,9.3-37.1,9.3
			c-11.4,0-21.3-1.9-29.6-5.6c-8.4-3.7-15.4-8.9-21.1-15.5c-5.7-6.6-9.9-14.4-12.7-23.5c-2.8-9-4.1-19-4.1-29.8
			c0-10.7,1.4-20.6,4.1-29.7c2.8-9.1,7-17,12.7-23.6c5.7-6.6,12.7-11.8,21.1-15.5c8.4-3.7,18.2-5.6,29.6-5.6
			c14.9,0,27.2,3.1,37.1,9.3c9.9,6.2,17.4,14.5,22.5,25c0.4,1,0.4,2-0.2,3c-0.5,1-1.3,1.7-2.3,2l-18.9,6.3c-2.7,0.8-4.7,0.1-6.1-2.3
			c-2.9-5.9-6.5-10.5-10.8-13.8c-4.4-3.3-10-4.9-17-4.9c-6.1,0-11.2,1.2-15.3,3.7c-4.1,2.5-7.3,5.9-9.6,10.3c-2.3,4.4-4,9.6-5,15.7
			c-1,6.1-1.5,12.8-1.5,20c0,7.4,0.5,14.2,1.5,20.3c1,6.1,2.7,11.3,5,15.7c2.3,4.4,5.5,7.8,9.6,10.3
			C809.5,347,814.6,348.2,820.7,348.2z"/>
	</g>
	<g>
		<path class="st8" d="M1036.7,227.5c9.4,0,18,1.1,25.8,3.2c7.8,2.1,14.6,5.2,20.3,9.2c5.7,4,10.1,8.8,13.3,14.5
			c3.2,5.7,4.7,12,4.7,19c0,14.2-4.5,25.5-13.4,33.8c-9,8.3-22.9,12.4-41.9,12.4h-12.2c-1.2,0-2.3,0.3-3.2,1
			c-0.9,0.7-1.4,1.6-1.4,2.7v40.5c0,1.1-0.5,2.1-1.4,2.8c-0.9,0.7-2,1.1-3.2,1.1h-29c-1.2,0-2.3-0.4-3.2-1.1
			c-0.9-0.7-1.4-1.7-1.4-2.8V231.2c0-1.1,0.5-2,1.4-2.7c0.9-0.7,2-1,3.2-1H1036.7z M1041,295.8c8.6,0,15-1.8,19.4-5.3
			c4.4-3.5,6.6-9.2,6.6-17.1c0-14.9-8.7-22.4-26-22.4h-7.6c-1.2,0-2.3,0.3-3.2,1c-0.9,0.7-1.4,1.6-1.4,2.7v37.1
			c0,1.1,0.5,2.1,1.4,2.8c0.9,0.7,2,1.1,3.2,1.1H1041z"/>
	</g>
	<g>
		<path class="st7" d="M726.8,126.6l8-13.3l2.6,1.5l-5.6,9.4l3,1.8l5.1-8.4l2.6,1.5l-5.1,8.4l3,1.8l5.8-9.6l2.6,1.5l-8.2,13.6
			L726.8,126.6z"/>
		<path class="st7" d="M746.3,102.9c-0.9,0.8-1.7,1.5-2.2,2.2c-0.5,0.6-0.8,1.2-0.9,1.7c-0.1,0.5,0,0.9,0.4,1.2c0.4,0.3,1,0.3,1.6,0
			c0.6-0.4,1.5-1,2.6-1.9c1.1-0.9,2-1.7,2.8-2.2c0.8-0.5,1.6-0.9,2.5-1c0.9-0.1,1.8,0.1,2.6,0.7c0.8,0.6,1.3,1.4,1.5,2.4
			c0.2,1,0.1,2.1-0.4,3.3c-0.4,1.2-1.1,2.4-2,3.6c-1,1.3-2.1,2.5-3.5,3.5c-1.3,1-2.6,1.7-4,2.2l-1.3-3.2c1.2-0.4,2.4-1,3.5-1.8
			c1.2-0.8,2.1-1.7,2.7-2.6c0.6-0.8,0.9-1.4,1-2c0.1-0.6-0.1-1-0.5-1.3c-0.3-0.2-0.7-0.3-1.1-0.2c-0.4,0.1-0.9,0.4-1.3,0.7
			c-0.5,0.3-1.1,0.8-1.8,1.5c-1.1,0.9-2,1.7-2.8,2.2c-0.8,0.5-1.6,0.9-2.5,1c-0.9,0.1-1.7-0.1-2.6-0.7c-0.8-0.6-1.2-1.3-1.4-2.3
			c-0.2-1-0.1-2,0.3-3.2c0.4-1.2,1.1-2.4,2-3.7c0.8-1.1,1.8-2.1,2.9-3c1.1-0.9,2.1-1.6,3.2-2.1l1.3,3.2
			C748.2,101.5,747.2,102.1,746.3,102.9z"/>
		<path class="st7" d="M760.5,86.6c-0.9,0.4-1.7,1-2.3,1.7c-0.8,0.8-1.3,1.8-1.6,2.8c-0.3,1-0.4,2-0.2,2.9c0.2,0.9,0.6,1.7,1.3,2.3
			c0.7,0.6,1.5,1,2.4,1.1c0.9,0.1,1.9,0,2.9-0.4c1-0.4,1.8-1,2.6-1.9c0.6-0.7,1.1-1.5,1.5-2.4c0.4-0.9,0.6-1.9,0.7-2.8l3.5-0.5
			c-0.1,1.4-0.4,2.8-1,4.2c-0.6,1.4-1.4,2.7-2.4,3.8c-1.4,1.5-2.8,2.6-4.5,3.3c-1.6,0.7-3.2,1-4.8,0.8c-1.6-0.2-2.9-0.8-4-1.8
			c-1.1-1-1.8-2.3-2.1-3.9c-0.3-1.5-0.1-3.2,0.5-4.9c0.6-1.7,1.6-3.3,2.9-4.8c1-1.1,2.2-2,3.5-2.7c1.3-0.7,2.6-1.2,3.9-1.4l0.1,3.7
			C762.4,85.9,761.5,86.2,760.5,86.6z"/>
		<path class="st7" d="M776.5,83c1.1-0.1,2.1-0.5,3.1-1.5c1-0.9,1.6-1.8,1.8-2.9c0.2-1-0.1-2-0.9-2.8l-6.2-7l3.5-3.1l6.2,7
			c0.9,1,1.4,2.2,1.6,3.4c0.1,1.2-0.1,2.5-0.8,3.8c-0.7,1.3-1.7,2.6-3.1,3.8c-1.4,1.2-2.8,2.1-4.2,2.6c-1.4,0.5-2.7,0.6-3.9,0.3
			c-1.2-0.3-2.3-0.9-3.2-2l-6.2-7l3.5-3.1l6.2,7C774.5,82.7,775.4,83.1,776.5,83z"/>
		<path class="st7" d="M782,62.6l12.6-9.1l1.7,2.4l-8.9,6.4l2,2.8l8-5.7l1.7,2.4l-8,5.7l2.1,2.9l9.1-6.6l1.7,2.4l-12.9,9.2L782,62.6
			z"/>
		<path class="st7" d="M798.9,50.9l4-2.4l6.5,11l7.5-4.5l1.6,2.7L807,64.6L798.9,50.9z"/>
		<path class="st7" d="M834.2,50l-2.8-2.1l-8.5,4.1l-0.1,3.5l-4.3,2l1.2-18.2l4.3-2l14.7,10.6L834.2,50z M823.1,48.7l5.8-2.8
			l-5.5-4.2L823.1,48.7z"/>
		<path class="st7" d="M854.5,29.3c-1-0.1-2,0.1-2.9,0.3c-1.1,0.4-2,0.9-2.8,1.6c-0.8,0.7-1.3,1.5-1.6,2.4c-0.3,0.9-0.3,1.8,0,2.7
			c0.3,0.9,0.8,1.6,1.6,2.2c0.8,0.6,1.7,0.9,2.7,1c1,0.1,2.1,0,3.2-0.3c0.9-0.3,1.7-0.7,2.5-1.3c0.8-0.6,1.4-1.3,2-2.1l3.3,1.3
			c-0.8,1.2-1.8,2.2-3,3.2c-1.2,0.9-2.6,1.6-4,2.1c-1.9,0.6-3.7,0.8-5.5,0.7s-3.3-0.7-4.6-1.6c-1.3-0.9-2.1-2.1-2.6-3.6
			c-0.5-1.5-0.4-2.9,0.1-4.4c0.5-1.5,1.5-2.8,2.8-4c1.4-1.2,3-2.1,4.9-2.7c1.4-0.5,2.9-0.7,4.4-0.7c1.5,0,2.9,0.2,4.1,0.7l-1.8,3.3
			C856.5,29.6,855.5,29.4,854.5,29.3z"/>
		<path class="st7" d="M876.7,21.1c1.8,0.3,3.3,1,4.5,2c1.2,1,2,2.3,2.3,3.8c0.3,1.5,0.2,3-0.5,4.4c-0.7,1.4-1.7,2.7-3.2,3.7
			c-1.5,1.1-3.2,1.8-5.2,2.2c-2,0.4-3.9,0.5-5.7,0.1c-1.8-0.3-3.3-1-4.5-2c-1.2-1-2-2.3-2.3-3.8c-0.3-1.5-0.1-3,0.5-4.4
			c0.7-1.4,1.7-2.7,3.2-3.7c1.5-1,3.2-1.8,5.2-2.2C873,20.8,874.9,20.8,876.7,21.1z M868.8,25.6c-0.9,0.6-1.5,1.4-1.9,2.3
			c-0.4,0.9-0.5,1.8-0.3,2.7c0.2,0.9,0.7,1.7,1.4,2.3c0.7,0.6,1.6,1.1,2.6,1.3c1,0.2,2.1,0.2,3.2,0c1.1-0.2,2.1-0.7,2.9-1.3
			c0.8-0.6,1.4-1.4,1.8-2.3c0.4-0.9,0.5-1.8,0.3-2.7c-0.2-0.9-0.6-1.7-1.4-2.3c-0.7-0.6-1.6-1.1-2.6-1.3c-1-0.2-2.1-0.2-3.2,0
			C870.7,24.5,869.7,25,868.8,25.6z"/>
		<path class="st7" d="M896.4,20.7c-1.2-0.2-2.2-0.2-3-0.1c-0.8,0.1-1.4,0.3-1.8,0.6c-0.4,0.3-0.6,0.6-0.6,1.1
			c0.1,0.6,0.4,0.9,1.1,1.2c0.7,0.2,1.8,0.4,3.2,0.5c1.4,0.1,2.6,0.3,3.5,0.5c0.9,0.2,1.8,0.6,2.5,1.1c0.7,0.6,1.1,1.4,1.3,2.4
			c0.1,1-0.1,1.9-0.7,2.7c-0.6,0.8-1.5,1.5-2.6,2c-1.2,0.5-2.5,0.9-4,1.1c-1.6,0.2-3.3,0.2-4.9-0.1c-1.6-0.3-3.1-0.7-4.3-1.4
			l1.5-3.1c1.1,0.6,2.4,1,3.7,1.3c1.4,0.3,2.6,0.3,3.7,0.2c0.9-0.1,1.7-0.3,2.2-0.7c0.5-0.3,0.7-0.8,0.7-1.3c0-0.4-0.3-0.7-0.7-0.9
			c-0.4-0.2-0.9-0.4-1.4-0.5c-0.6-0.1-1.3-0.2-2.3-0.3c-1.4-0.1-2.6-0.3-3.5-0.5c-0.9-0.2-1.7-0.6-2.4-1.1c-0.7-0.5-1.1-1.3-1.2-2.3
			c-0.1-0.9,0.1-1.8,0.7-2.6c0.6-0.8,1.4-1.5,2.6-2c1.1-0.5,2.5-0.9,4-1.1c1.4-0.2,2.8-0.2,4.2,0c1.4,0.2,2.6,0.4,3.7,0.8l-1.4,3.2
			C898.7,21.1,897.6,20.8,896.4,20.7z"/>
		<path class="st7" d="M903.3,16.8l17-0.9l0.2,3l-6.2,0.3l0.6,12.8l-4.6,0.2l-0.6-12.8l-6.2,0.3L903.3,16.8z"/>
		<path class="st7" d="M936.1,32.5l-1.5-3.2l-9.4-0.4l-1.7,3l-4.7-0.2l9.5-15.5l4.7,0.2l8,16.2L936.1,32.5z M926.9,26.1l6.4,0.3
			l-2.9-6.3L926.9,26.1z"/>
		<path class="st7" d="M955.2,34.7l-2.6-4.9l-0.4-0.1l-4.2-0.6l-0.6,4.5l-4.6-0.6l2.2-15.8l8.8,1.2c2.6,0.4,4.6,1.1,5.9,2.3
			c1.3,1.2,1.8,2.6,1.6,4.3c-0.2,1.2-0.6,2.2-1.4,3c-0.8,0.8-1.8,1.3-3.1,1.6l3.6,5.8L955.2,34.7z M948.4,26.2l4.2,0.6
			c1.3,0.2,2.3,0.1,3-0.3c0.7-0.4,1.2-1,1.3-1.9c0.1-0.9-0.1-1.6-0.7-2.1c-0.6-0.5-1.6-0.9-2.8-1.1l-4.2-0.6L948.4,26.2z"/>
		<path class="st7" d="M975.5,39l-2.1-5.2l-0.4-0.1l-4.1-1l-1.1,4.4l-4.5-1.1l3.7-15.5l8.6,2.1c2.6,0.6,4.5,1.6,5.7,2.8
			c1.2,1.3,1.6,2.8,1.2,4.5c-0.3,1.2-0.9,2.1-1.7,2.8c-0.8,0.7-1.9,1.1-3.2,1.3l3,6.1L975.5,39z M969.5,29.8l4.1,1
			c1.2,0.3,2.3,0.3,3,0c0.8-0.3,1.3-0.9,1.5-1.7c0.2-0.9,0-1.6-0.5-2.2c-0.6-0.6-1.5-1-2.7-1.3l-4.1-1L969.5,29.8z"/>
		<path class="st7" d="M988.2,26.1l4.4,1.4l-4.8,15.2l-4.4-1.4L988.2,26.1z"/>
		<path class="st7" d="M1007.9,36.8c-0.7-0.7-1.6-1.2-2.4-1.6c-1.1-0.4-2.1-0.6-3.2-0.5c-1,0.1-2,0.3-2.7,0.8
			c-0.8,0.5-1.3,1.2-1.7,2c-0.3,0.9-0.4,1.7-0.2,2.7c0.2,0.9,0.7,1.7,1.4,2.5c0.7,0.8,1.6,1.4,2.7,1.8c0.8,0.3,1.8,0.5,2.8,0.5
			c1,0,2-0.1,2.8-0.4l1.7,3.1c-1.3,0.4-2.8,0.6-4.3,0.5c-1.6-0.1-3-0.4-4.4-0.9c-1.9-0.7-3.4-1.7-4.7-3c-1.3-1.3-2.1-2.7-2.5-4.2
			c-0.4-1.5-0.3-3,0.2-4.4c0.6-1.4,1.5-2.5,2.9-3.3c1.3-0.8,2.9-1.2,4.7-1.3c1.8-0.1,3.6,0.3,5.5,1c1.4,0.5,2.6,1.3,3.8,2.3
			c1.2,1,2.1,2,2.7,3.2l-3.4,1.4C1009.2,38.3,1008.7,37.5,1007.9,36.8z"/>
		<path class="st7" d="M1017.5,37.2l13.8,7l-1.4,2.7l-9.7-4.9l-1.6,3.1l8.7,4.4l-1.4,2.7l-8.7-4.4l-1.6,3.1l10,5.1l-1.4,2.7
			l-14.1-7.2L1017.5,37.2z"/>
		<path class="st7" d="M1047.7,54.4l3.7,2.4l-8.6,13.4l-3.5-2.3l-2.7-13.9l-5.6,8.6l-3.7-2.4l8.6-13.4l3.5,2.3l2.7,14L1047.7,54.4z"
			/>
		<path class="st7" d="M1061.8,69c-0.7-1-1.4-1.7-2.1-2.2c-0.6-0.5-1.2-0.8-1.7-0.9c-0.5-0.1-0.9,0-1.2,0.3c-0.4,0.4-0.4,1,0,1.6
			c0.3,0.6,1,1.5,1.8,2.7c0.9,1.1,1.6,2.1,2.1,2.9s0.8,1.7,0.9,2.6c0.1,0.9-0.2,1.8-0.8,2.6c-0.6,0.8-1.5,1.3-2.4,1.4
			c-1,0.1-2.1,0-3.3-0.5c-1.2-0.5-2.4-1.2-3.6-2.1c-1.3-1-2.4-2.2-3.4-3.6c-1-1.4-1.6-2.7-2.1-4l3.3-1.1c0.3,1.2,0.9,2.4,1.7,3.6
			c0.8,1.2,1.6,2.1,2.5,2.8c0.7,0.6,1.4,1,2,1.1c0.6,0.1,1,0,1.4-0.4c0.3-0.3,0.3-0.7,0.2-1.1c-0.1-0.4-0.3-0.9-0.7-1.4
			c-0.3-0.5-0.8-1.1-1.4-1.9c-0.9-1.1-1.6-2.1-2.1-2.9c-0.5-0.8-0.8-1.6-0.9-2.5c-0.1-0.9,0.2-1.7,0.8-2.5c0.6-0.7,1.4-1.2,2.3-1.3
			c1-0.1,2,0,3.2,0.4c1.2,0.4,2.4,1.2,3.6,2.1c1.1,0.9,2.1,1.9,2.9,3c0.9,1.1,1.5,2.2,2,3.3l-3.2,1.2C1063.2,71,1062.5,70,1061.8,69
			z"/>
		<path class="st7" d="M1071.2,72.7l11.1,10.8l-2.1,2.1l-7.8-7.6l-2.4,2.5l7,6.8l-2.1,2.1l-7-6.8l-2.5,2.5l8.1,7.8l-2.1,2.1
			l-11.4-11.1L1071.2,72.7z"/>
		<path class="st7" d="M1098.5,104.7c0.5,1.7,0.5,3.3,0.1,4.7c-0.4,1.4-1.2,2.6-2.5,3.6c-1.2,0.9-2.6,1.4-4.1,1.4
			c-1.5,0-3-0.4-4.6-1.3c-1.5-0.9-3-2.2-4.2-3.9l-5.2-6.7l12.6-9.7l5.3,6.9C1097.2,101.4,1098.1,103,1098.5,104.7z M1088.1,109.7
			c0.9,0.5,1.8,0.7,2.7,0.6c0.9-0.1,1.7-0.4,2.5-0.9c0.8-0.6,1.3-1.3,1.6-2.2s0.3-1.8,0.1-2.8c-0.2-1-0.7-1.9-1.4-2.9l-2.4-3.1
			l-7.8,6l2.5,3.3C1086.5,108.5,1087.2,109.2,1088.1,109.7z"/>
		<path class="st7" d="M1104.8,111.9l8,13.3l-2.6,1.5l-5.6-9.4l-3,1.8l5.1,8.4l-2.6,1.5l-5.1-8.4l-3,1.8l5.8,9.6l-2.6,1.5l-8.2-13.6
			L1104.8,111.9z"/>
	</g>
	<g>
		<path class="st10" d="M1081,365.4c-0.3-0.3-0.6-0.7-1-1c2.1-2.9,4.3-5.9,6.3-9c0.4,0.3,0.9,0.5,1.4,0.7
			C1085.5,359.2,1083.2,362.4,1081,365.4z"/>
		<path class="st11" d="M1120.7,244.5c0.3-16.5-1.4-33-5-49.2c0.5-0.1,0.9-0.2,1.4-0.3c3.6,16.2,5.3,32.8,5.1,49.3
			c-0.1,0-0.3,0-0.4,0c-0.2,0-0.4,0-0.6,0C1121,244.4,1120.9,244.5,1120.7,244.5z"/>
		<path class="st12" d="M1115.6,193c-0.9-3.7-1.9-7.5-3-11.3c0.2-0.1,0.4-0.2,0.6-0.2c1.1,3.8,2.2,7.6,3,11.4
			C1116,192.9,1115.8,192.9,1115.6,193z"/>
		<path class="st13" d="M1111.8,179.1c-1.6-5.4-3.5-10.7-5.5-15.8c0.2,0,0.4-0.1,0.5-0.1c2,5.1,3.9,10.3,5.6,15.7
			C1112.2,178.9,1112,179,1111.8,179.1z"/>
		<path class="st11" d="M1098.1,339c0.1,0,0.2,0,0.3-0.1c14.7-27.3,23.1-58.3,24.4-89.6c0-0.1-0.1-0.2-0.2-0.2c0,0-0.1,0-0.1,0
			c-0.6,0.1-1.4,0.1-2.3-0.1c-0.1,0-0.2,0-0.2,0c0,0-0.1,0.1-0.1,0.2c-1.2,31-9.5,61.8-23.9,88.9c0,0.1,0,0.2,0,0.2
			c0,0.1,0.1,0.1,0.2,0.1l0,0c0.3,0.1,0.5,0.1,0.8,0.2C1097.4,338.8,1097.8,338.9,1098.1,339L1098.1,339z"/>
		<path class="st11" d="M1088.4,355.2c0.1,0,0.2,0,0.3-0.1c2.7-4.1,5.3-8.3,7.7-12.5c0.1-0.1,0-0.2,0-0.2c0-0.1-0.1-0.1-0.2-0.2
			c-0.4-0.1-0.7-0.1-1.1-0.2c-0.2-0.1-0.5-0.1-0.7-0.2c0,0,0,0,0,0c-0.1,0-0.2,0-0.3,0.1c-2.3,4.1-4.8,8.2-7.3,12.1
			c0,0.1-0.1,0.1,0,0.2c0,0.1,0.1,0.1,0.1,0.2C1087.3,354.7,1087.8,355,1088.4,355.2C1088.4,355.2,1088.4,355.2,1088.4,355.2z"/>
		<path class="st13" d="M1068,379.6c3.9-4.3,7.7-8.9,11.2-13.6c0.2,0.2,0.3,0.4,0.5,0.5c-3.6,4.7-7.4,9.2-11.4,13.5
			C1068.2,379.9,1068.1,379.7,1068,379.6z"/>
	</g>
	<g>
		<path class="st10" d="M1108.4,302.3c-0.4-0.2-0.8-0.4-1.3-0.7c1-3.4,2-7,2.9-10.6c0.5,0.1,1,0.2,1.5,0.2
			C1110.6,294.9,1109.6,298.7,1108.4,302.3z"/>
		<path class="st11" d="M1105.2,175.1c-5.3-15.6-12.5-30.6-21.3-44.6c0.4-0.3,0.8-0.5,1.2-0.7c8.9,14,16.1,29,21.4,44.7
			c-0.1,0-0.2,0.1-0.4,0.1c-0.2,0.1-0.4,0.2-0.6,0.3C1105.4,174.9,1105.3,175,1105.2,175.1z"/>
		<path class="st12" d="M1082.9,128.3c-2.1-3.2-4.3-6.4-6.6-9.6c0.2-0.1,0.3-0.3,0.5-0.4c2.4,3.2,4.6,6.5,6.7,9.7
			C1083.3,128,1083.1,128.2,1082.9,128.3z"/>
		<path class="st13" d="M1074.7,116.5c-3.3-4.5-6.9-8.9-10.5-13c0.2-0.1,0.3-0.2,0.5-0.3c3.6,4.1,7.2,8.4,10.5,12.9
			C1075,116.2,1074.9,116.3,1074.7,116.5z"/>
		<path class="st11" d="M1115.7,271.7c0.1,0,0.2-0.1,0.2-0.2c4.6-30.7,2.1-62.7-7.2-92.5c0-0.1-0.2-0.2-0.2-0.2c0,0-0.1,0-0.1,0
			c-0.6,0.3-1.3,0.5-2.2,0.7c-0.1,0-0.1,0.1-0.2,0.1c0,0,0,0.1,0,0.2c9.3,29.6,11.9,61.3,7.5,91.8c0,0.1,0,0.2,0.1,0.2
			c0,0.1,0.1,0.1,0.2,0.1l0,0c0.3,0,0.5-0.1,0.8-0.1C1114.9,271.7,1115.3,271.7,1115.7,271.7L1115.7,271.7z"/>
		<path class="st11" d="M1112,290.2c0.1,0,0.2-0.1,0.2-0.2c1.2-4.7,2.2-9.5,3-14.3c0-0.1,0-0.2-0.1-0.2c-0.1-0.1-0.1-0.1-0.2-0.1
			c-0.4,0.1-0.7,0.1-1.1,0.1c-0.3,0-0.5,0-0.8,0.1c0,0,0,0,0,0c-0.1,0-0.2,0.1-0.2,0.2c-0.8,4.7-1.7,9.4-2.8,13.9c0,0.1,0,0.1,0,0.2
			c0,0.1,0.1,0.1,0.2,0.1C1110.8,290.1,1111.4,290.2,1112,290.2C1112,290.2,1112,290.2,1112,290.2z"/>
		<path class="st13" d="M1101,320c2.2-5.4,4.2-11,6-16.6c0.2,0.1,0.4,0.2,0.6,0.3c-1.8,5.6-3.9,11.2-6.2,16.6
			C1101.3,320.2,1101.1,320.1,1101,320z"/>
	</g>
	<g>
		<g>
			<path class="st10" d="M760.9,365.7c0.3-0.3,0.6-0.7,1-1c-2.1-2.9-4.3-5.9-6.3-9c-0.4,0.3-0.9,0.5-1.4,0.7
				C756.3,359.5,758.6,362.7,760.9,365.7z"/>
			<path class="st11" d="M721.1,244.9c-0.3-16.5,1.4-33,5-49.2c-0.5-0.1-0.9-0.2-1.4-0.3c-3.6,16.2-5.3,32.8-5.1,49.3
				c0.1,0,0.3,0,0.4,0c0.2,0,0.4,0,0.6,0C720.8,244.8,720.9,244.8,721.1,244.9z"/>
			<path class="st12" d="M726.3,193.3c0.9-3.7,1.9-7.5,3-11.3c-0.2-0.1-0.4-0.2-0.6-0.2c-1.1,3.8-2.2,7.6-3,11.4
				C725.8,193.2,726,193.2,726.3,193.3z"/>
			<path class="st13" d="M730,179.4c1.6-5.4,3.5-10.7,5.5-15.8c-0.2,0-0.4-0.1-0.5-0.1c-2,5.1-3.9,10.3-5.6,15.7
				C729.6,179.2,729.8,179.3,730,179.4z"/>
			<path class="st11" d="M743.7,339.3c-0.1,0-0.2,0-0.3-0.1c-14.7-27.3-23.1-58.3-24.4-89.6c0-0.1,0.1-0.2,0.2-0.2c0,0,0.1,0,0.1,0
				c0.6,0.1,1.4,0.1,2.3-0.1c0.1,0,0.2,0,0.2,0c0,0,0.1,0.1,0.1,0.2c1.2,31,9.5,61.8,23.9,88.9c0,0.1,0,0.2,0,0.2
				c0,0.1-0.1,0.1-0.2,0.1l0,0c-0.3,0.1-0.5,0.1-0.8,0.2C744.4,339.1,744.1,339.2,743.7,339.3L743.7,339.3z"/>
			<path class="st11" d="M753.4,355.5c-0.1,0-0.2,0-0.3-0.1c-2.7-4.1-5.3-8.3-7.7-12.5c-0.1-0.1,0-0.2,0-0.2c0-0.1,0.1-0.1,0.2-0.2
				c0.4-0.1,0.7-0.1,1.1-0.2c0.2-0.1,0.5-0.1,0.7-0.2c0,0,0,0,0,0c0.1,0,0.2,0,0.3,0.1c2.3,4.1,4.8,8.2,7.3,12.1
				c0,0.1,0.1,0.1,0,0.2c0,0.1-0.1,0.1-0.1,0.2C754.5,355,754,355.3,753.4,355.5C753.5,355.5,753.5,355.5,753.4,355.5z"/>
			<path class="st13" d="M773.8,379.9c-3.9-4.3-7.7-8.9-11.2-13.6c-0.2,0.2-0.3,0.4-0.5,0.5c3.6,4.7,7.4,9.2,11.4,13.5
				C773.6,380.2,773.7,380,773.8,379.9z"/>
		</g>
		<g>
			<path class="st10" d="M734.4,302.9c0.4-0.2,0.8-0.4,1.3-0.7c-1-3.4-2-7-2.9-10.6c-0.5,0.1-1,0.2-1.5,0.2
				C732.2,295.6,733.2,299.3,734.4,302.9z"/>
			<path class="st11" d="M737.6,175.8c5.3-15.6,12.5-30.6,21.3-44.6c-0.4-0.3-0.8-0.5-1.2-0.7c-8.9,14-16.1,29-21.4,44.7
				c0.1,0,0.2,0.1,0.4,0.1c0.2,0.1,0.4,0.2,0.6,0.3C737.4,175.6,737.5,175.7,737.6,175.8z"/>
			<path class="st12" d="M759.9,128.9c2.1-3.2,4.3-6.4,6.6-9.6c-0.2-0.1-0.3-0.3-0.5-0.4c-2.4,3.2-4.6,6.5-6.7,9.7
				C759.5,128.7,759.7,128.8,759.9,128.9z"/>
			<path class="st13" d="M768.1,117.1c3.3-4.5,6.9-8.9,10.5-13c-0.2-0.1-0.3-0.2-0.5-0.3c-3.6,4.1-7.2,8.4-10.5,12.9
				C767.8,116.8,767.9,117,768.1,117.1z"/>
			<path class="st11" d="M727.1,272.3c-0.1,0-0.2-0.1-0.2-0.2c-4.6-30.7-2.1-62.7,7.2-92.5c0-0.1,0.2-0.2,0.2-0.2c0,0,0.1,0,0.1,0
				c0.6,0.3,1.3,0.5,2.2,0.7c0.1,0,0.1,0.1,0.2,0.1c0,0,0,0.1,0,0.2c-9.3,29.6-11.9,61.3-7.5,91.8c0,0.1,0,0.2-0.1,0.2
				c0,0.1-0.1,0.1-0.2,0.1l0,0c-0.3,0-0.5-0.1-0.8-0.1C727.9,272.4,727.5,272.3,727.1,272.3L727.1,272.3z"/>
			<path class="st11" d="M730.8,290.9c-0.1,0-0.2-0.1-0.2-0.2c-1.2-4.7-2.2-9.5-3-14.3c0-0.1,0-0.2,0.1-0.2c0.1-0.1,0.1-0.1,0.2-0.1
				c0.4,0.1,0.7,0.1,1.1,0.1c0.3,0,0.5,0,0.8,0.1c0,0,0,0,0,0c0.1,0,0.2,0.1,0.2,0.2c0.8,4.7,1.7,9.4,2.8,13.9c0,0.1,0,0.1,0,0.2
				c0,0.1-0.1,0.1-0.2,0.1C732,290.7,731.4,290.8,730.8,290.9C730.8,290.9,730.8,290.9,730.8,290.9z"/>
			<path class="st13" d="M741.8,320.7c-2.2-5.4-4.2-11-6-16.6c-0.2,0.1-0.4,0.2-0.6,0.3c1.8,5.6,3.9,11.2,6.2,16.6
				C741.5,320.9,741.7,320.8,741.8,320.7z"/>
		</g>
	</g>
	<g>
		<path class="st7" d="M776.4,404.3c0.6,3.4-0.3,6.4-2.9,9c-2.7,2.7-5.8,3.7-9.3,3.2c-3.5-0.6-7.2-2.7-10.9-6.4l-5.8-5.8l-6.6,6.6
			l-6.6-6.6l23.1-23.1l12.4,12.5C773.6,397.3,775.7,400.9,776.4,404.3z M762.6,408.6c1.7,0.3,3.1-0.2,4.4-1.5
			c1.3-1.3,1.7-2.7,1.4-4.4c-0.3-1.6-1.4-3.4-3.3-5.3l-5.5-5.5l-7.8,7.8l5.5,5.5C759.2,407.2,761,408.3,762.6,408.6z"/>
		<path class="st7" d="M788.3,450.4l1-7.1l-15.6-11.1l-6.3,3.3l-7.9-5.6l33.6-16.2l7.9,5.6l-4.5,37L788.3,450.4z M779.6,429.1
			l10.6,7.6l2-14.2L779.6,429.1z"/>
		<path class="st7" d="M827.1,470.4l-2.2-11.2l-0.8-0.4l-7.9-3.6l-3.8,8.5l-8.5-3.9l13.4-29.9l16.4,7.4c4.9,2.2,8.3,4.9,10.2,7.9
			c1.9,3,2.1,6.2,0.6,9.5c-1,2.3-2.5,4-4.4,5.1c-1.9,1.1-4.2,1.5-6.9,1.4l3.6,13.5L827.1,470.4z M818.8,449.6l7.9,3.6
			c2.4,1.1,4.4,1.5,6.1,1.2c1.7-0.3,2.9-1.3,3.6-3c0.7-1.7,0.7-3.2-0.2-4.6c-0.9-1.4-2.5-2.7-4.9-3.7l-7.9-3.6L818.8,449.6z"/>
		<path class="st7" d="M871.8,483.9l-4.3-10.6l-0.9-0.2l-8.4-2l-2.1,9.1l-9.1-2.2l7.4-31.9l17.5,4.1c5.2,1.2,9.1,3.2,11.5,5.8
			c2.4,2.6,3.2,5.7,2.4,9.2c-0.6,2.5-1.7,4.4-3.4,5.9c-1.7,1.4-3.9,2.3-6.5,2.7l6.1,12.6L871.8,483.9z M859.7,465l8.4,2
			c2.5,0.6,4.6,0.6,6.2,0c1.6-0.6,2.6-1.8,3-3.6c0.4-1.8,0-3.3-1.1-4.5c-1.2-1.2-3-2.1-5.5-2.7l-8.4-2L859.7,465z"/>
		<path class="st7" d="M894.7,454.3l9.3,0.9l-3,32.7l-9.3-0.9L894.7,454.3z"/>
		<path class="st7" d="M911.6,455.9l9.3-0.2l0.6,26.3l17.7-0.3l0.2,6.5l-27,0.5L911.6,455.9z"/>
		<path class="st7" d="M942.4,454.7l9.2-1.5l4.5,26l17.4-2.9l1.1,6.4l-26.6,4.5L942.4,454.7z"/>
		<path class="st7" d="M972.5,449.4l29.8-10l2,5.8l-20.9,7l2.3,6.8l18.8-6.3l2,5.8l-18.8,6.3l2.3,6.9l21.6-7.2l2,5.8l-30.4,10.2
			L972.5,449.4z"/>
		<path class="st7" d="M1045.7,453.8l-10.2-5.1l-0.8,0.4l-7.6,4.1l4.5,8.2l-8.2,4.4l-15.7-28.9l15.7-8.5c4.7-2.6,8.9-3.7,12.4-3.3
			c3.5,0.3,6.2,2.1,7.9,5.3c1.2,2.2,1.7,4.4,1.4,6.7c-0.3,2.2-1.3,4.3-3.1,6.3l12.9,5.3L1045.7,453.8z M1024.1,447.8l7.6-4.1
			c2.3-1.2,3.8-2.6,4.6-4.1c0.8-1.5,0.7-3.1-0.2-4.7c-0.9-1.6-2.1-2.5-3.8-2.6c-1.7-0.1-3.6,0.4-5.9,1.6l-7.6,4.1L1024.1,447.8z"/>
		<path class="st7" d="M1067.8,399.5c3.6-1,6.9-1.1,10-0.3c3.1,0.8,5.7,2.4,7.7,4.9c2,2.5,3,5.3,3.2,8.6c0.1,3.2-0.7,6.5-2.4,9.8
			c-1.7,3.3-4.1,6.2-7.4,8.8c-3.2,2.6-6.6,4.4-10.2,5.3c-3.6,1-6.9,1.1-10,0.3c-3.1-0.8-5.7-2.4-7.7-4.9c-2-2.5-3-5.3-3.1-8.5
			c-0.1-3.2,0.7-6.5,2.4-9.7c1.7-3.3,4.2-6.2,7.4-8.8C1060.9,402.3,1064.3,400.5,1067.8,399.5z M1057.7,414.9
			c-0.9,2-1.4,3.9-1.2,5.9c0.1,2,0.8,3.7,2,5.2c1.2,1.5,2.8,2.5,4.7,3c1.9,0.5,3.9,0.5,6,0c2.1-0.5,4-1.5,5.8-2.9
			c1.8-1.4,3.1-3.1,4-5c0.9-1.9,1.3-3.9,1.1-5.8c-0.1-2-0.8-3.7-2-5.2c-1.2-1.5-2.7-2.5-4.6-3c-1.9-0.5-3.8-0.6-5.9-0.1
			c-2.1,0.5-4,1.4-5.8,2.9C1060.1,411.3,1058.7,413,1057.7,414.9z"/>
		<path class="st7" d="M1096.3,377.2c-2,1.4-3.6,2.7-4.7,3.9c-1.1,1.2-1.7,2.3-2,3.3c-0.3,1-0.1,1.8,0.6,2.4c0.9,0.8,2,0.9,3.3,0.2
			c1.4-0.6,3.2-1.7,5.6-3.4c2.4-1.7,4.4-3,6.1-3.9c1.7-0.9,3.5-1.4,5.3-1.5c1.8-0.1,3.6,0.6,5.2,2c1.6,1.4,2.4,3.1,2.7,5.2
			c0.2,2.1-0.2,4.3-1.2,6.6c-1,2.3-2.6,4.7-4.6,7c-2.2,2.5-4.7,4.6-7.6,6.4c-2.8,1.8-5.7,3-8.4,3.7l-2-6.8c2.5-0.6,5-1.5,7.5-3
			c2.5-1.4,4.5-3,5.9-4.6c1.3-1.4,2.1-2.7,2.4-3.9c0.3-1.2,0.1-2.1-0.7-2.8c-0.6-0.6-1.4-0.8-2.3-0.6c-0.9,0.2-1.8,0.6-2.8,1.2
			c-1,0.6-2.3,1.5-3.9,2.7c-2.3,1.7-4.3,3-6,3.9c-1.7,0.9-3.4,1.4-5.2,1.5c-1.8,0.1-3.5-0.5-5.1-2c-1.5-1.3-2.3-3-2.5-5
			c-0.2-2,0.2-4.1,1.2-6.5c1-2.3,2.6-4.7,4.7-7.1c1.9-2.1,4-4,6.3-5.6c2.3-1.6,4.6-2.9,6.8-3.7l2.2,6.8
			C1100.5,374.7,1098.4,375.8,1096.3,377.2z"/>
	</g>
</g>
</svg>
