<?xml version="1.0" encoding="utf-8"?>
<!-- Generator: Adobe Illustrator 28.4.1, SVG Export Plug-In . SVG Version: 6.00 Build 0)  -->
<svg version="1.1" id="Layer_1" xmlns="http://www.w3.org/2000/svg" xmlns:xlink="http://www.w3.org/1999/xlink" x="0px" y="0px"
	 viewBox="0 0 500 500" style="enable-background:new 0 0 500 500;" xml:space="preserve">
<style type="text/css">
	.st0{fill:#ED1C24;}
	.st1{fill:#008E74;}
</style>
<g>
	<path class="st0" d="M285.2,290.2h-31.8c-1.3-0.4-2.5-0.9-3.7-1.4c-1.2-0.5-1.8-1.5-1.9-2.8c-0.1-1.4-0.1-2.9-0.2-4.3
		c0-0.5,0.2-0.9,0.4-1.3c0.8-1.2,1.7-2.3,2.3-3.6c0.6-1.2,0.8-2.6,1.2-3.8c0.1-0.4,0.2-0.8,0.5-1.1c0.4-0.5,1-0.9,1.4-1.4
		c1.6-2.1,2.1-4.6,2.2-7.2c0-1.5-0.6-2.7-2-3.5c-0.2-0.1-0.4-0.5-0.4-0.7c0.1-1.3,0.4-2.7,0.4-4c0.1-1.4,0.1-2.8-0.2-4.1
		c-1.3-5.6-4.7-9.3-10.1-11.3c-1.2-0.4-5-1.2-8.5-0.8c-2.8,0.5-5.3,1.6-7.5,3.4c-3.1,2.5-5.1,5.6-5.5,9.6c-0.2,2.3,0.2,4.8,0.3,7.2
		c0,0.5-0.1,0.7-0.5,0.9c-0.9,0.5-1.5,1.3-1.7,2.4c-0.3,1.8-0.1,3.5,0.4,5.1c0.5,1.7,1.3,3.2,2.7,4.3c0.5,0.4,0.7,0.8,0.8,1.4
		c0.2,0.8,0.4,1.7,0.6,2.6c0.6,2,1.7,3.6,3,5.2c0.1,0.2,0.3,0.4,0.3,0.7c-0.1,1.5-0.2,3-0.2,4.4c-0.1,1.9-1.1,3.1-2.8,3.6
		c-1,0.3-2,0.6-2.9,0.9h-31.6c0,0,15.2-5.8,18.1-6.7c2.4-0.7,4.9-1.5,7.4-2.3c-0.4-1-0.8-2-1.1-3c-0.1-0.2-0.1-0.5-0.2-0.7
		c-1.7-2-3-4.3-3.9-7.2c-1.1-3.6-1.3-6.9-0.7-10.2c0.3-1.6,0.9-3.1,1.7-4.5c-0.1-1.5-0.1-3.2,0-5c0.6-6.5,3.9-12.3,9.4-16.7
		c3.4-2.7,7.8-4.3,11-5.2c1.3-0.4,3.1-0.6,5.1-0.6c2.4,0,4.4,0.3,4.5,0.3l0.2,0l0.1,0c0.2,0.1,0.5,0.1,0.8,0.2l0.1,0
		c1.1,0.2,2.7,0.5,4.3,1.1c8.8,3.3,14.5,9.8,16.5,18.7c0.6,2.5,0.5,4.8,0.4,6.5c0,0,0,0.5,0,0.6c1.3,2.2,2,4.8,2,7.5
		c0,5.2-1.4,9.7-4.2,13.4c-0.2,0.3-0.4,0.6-0.7,0.8c-0.3,1-0.6,2.3-1.3,3.6c-0.1,0.1-0.1,0.2-0.1,0.3c1.7,0.5,3.3,1,5,1.5
		c1.6,0.5,3.2,0.9,4.8,1.4C271.8,285,285.2,290.2,285.2,290.2z"/>
	<g>
		<path class="st1" d="M109.9,237c1.4-0.8,3.4-1.6,5.7-2.3c2.4-0.8,5-1.5,7.8-2.1c2.8-0.6,5.7-1.1,8.6-1.5c2.9-0.4,5.5-0.6,8-0.6
			c5.2,0,9.6,0.7,13.3,2c3.7,1.3,6.5,3.5,8.4,6.5c2,3,2.9,7,2.9,12.2v39.1h-17.1v-35.6c0-1.4-0.2-2.8-0.6-4
			c-0.4-1.2-1.1-2.3-1.9-3.2c-0.8-0.9-2-1.6-3.5-2.1c-1.4-0.5-3.2-0.7-5.3-0.7c-1.8,0-3.5,0.2-5.3,0.6c-1.8,0.4-3.1,0.9-4,1.3v43.6
			h-17.1L109.9,237L109.9,237z"/>
		<path class="st1" d="M179.5,290.2v-45h-8.6v-13.1h8.7v-1.4c0-3.7,0.4-7,1.2-9.6c0.8-2.7,1.8-4.9,3.2-6.7c1.4-1.8,3-3.2,4.8-4.2
			c1.8-1,3.9-1.7,6.1-2.1c2.2-0.4,4.5-0.6,6.9-0.6c1.2,0,2.6,0.1,4,0.3c1.4,0.2,2.6,0.5,3.6,0.9v15.1c-0.7-0.8-1.4-1.5-2.3-2
			c-0.8-0.4-2-0.7-3.5-0.7c-1,0-1.9,0.1-2.8,0.3c-0.8,0.2-1.6,0.6-2.2,1.2c-0.6,0.5-1.1,1.3-1.4,2.3c-0.3,1-0.5,2.3-0.5,3.8v3.5
			h12.6v13.1h-12.8v45L179.5,290.2L179.5,290.2z"/>
		<path class="st1" d="M360,239c-1.8-3-4.5-5.1-8-6.5s-8-2-13.2-2c-3.2,0-6.7,0.4-10.5,1.3c-3,0.7-5.8,1.6-8.5,2.7
			c-1.2-0.8-2.5-1.5-3.9-2.1c-3.6-1.3-8-2-13.2-2c-2.5,0-5.1,0.2-8,0.6c-2.9,0.4-5.7,0.9-8.6,1.5c-2.8,0.6-5.4,1.3-7.8,2.1
			s-4.3,1.6-5.7,2.3v53.2h17.1v-43.7c0.9-0.4,2.1-0.9,3.6-1.3c1.5-0.4,3.1-0.6,4.9-0.6c2.1,0,3.8,0.2,5.3,0.7
			c1.4,0.5,2.6,1.2,3.5,2.1c0.8,0.9,1.5,1.9,1.9,3.2c0.4,1.2,0.6,2.6,0.6,4v35.6h17.1v-39.1c0-1.5-0.1-3-0.3-4.3
			c0.8-0.6,1.8-1.1,3.1-1.5c1.5-0.5,3.1-0.7,4.9-0.7c2.1,0,3.8,0.2,5.3,0.7c1.4,0.5,2.6,1.2,3.5,2.1c0.8,0.9,1.5,1.9,1.9,3.2
			c0.4,1.2,0.6,2.6,0.6,4v35.6h17.1v-39.1C362.7,246,361.8,242,360,239z"/>
		<path class="st1" d="M409.9,277c-2.1,0.5-4.2,0.7-6.4,0.7c-5.8,0-10-1.5-12.7-4.5c-1.7-2-2.9-4.5-3.5-7.6h38.4
			c0.1-7.6-0.8-14-2.6-19.3c-1.8-5.3-4.7-9.3-8.7-12.1c-4-2.8-9.1-4.1-15.6-4.1c-9.4,0-16.5,2.8-21.5,8.3c-5,5.6-7.5,13.4-7.5,23.5
			c0,6.2,1.2,11.5,3.7,16c2.5,4.5,6,7.9,10.5,10.3c4.5,2.4,9.6,3.6,15.4,3.6c4.5,0,8.5-0.4,11.9-1.1c3.4-0.7,6.5-1.7,9.2-2.8v-14.7
			c-1.3,0.5-2.9,1.2-4.7,1.8C413.9,275.9,412,276.5,409.9,277z M388.3,250.2c0.9-2.5,2.3-4.3,4-5.3c1.7-1.1,3.7-1.6,5.8-1.6
			c3.8,0,6.6,1.3,8.3,3.8c1.2,1.7,1.9,4.2,2.3,7.7c-5.3,0-21.5,0-21.5,0C387.4,253,387.8,251.5,388.3,250.2z"/>
		<path class="st1" d="M460.6,292c-4.5,0-8.7-0.5-12.5-1.5c-3.8-1-7.1-2.7-9.8-5s-4.9-5.5-6.5-9.6c-1.6-4.1-2.3-9.1-2.3-15.2
			c0-9.4,2.3-16.8,7-22.3c4.6-5.4,11.6-8.1,20.8-8.1c1.2,0,2.8,0.1,4.8,0.3c2,0.2,4.1,0.7,6.2,1.4c0.8,0.3,1.6,0.6,2.3,1.1
			c0-8.6,0-24.9,0-24.9h17v66.9c0,2.8-0.8,5.3-2.3,7.4c-1.5,2.1-3.6,3.8-6.1,5.2c-2.6,1.4-5.5,2.4-8.7,3.2
			C467.3,291.6,464,292,460.6,292z M461.3,277.6c2.8,0,5-0.4,6.7-1.1c1.7-0.7,2.6-1.8,2.6-3.3v-26.8c-1.4-0.8-2.8-1.4-4.4-1.8
			c-1.6-0.4-3.1-0.6-4.5-0.6c-3.2,0-5.9,0.5-8.1,1.6c-2.2,1.1-3.9,2.9-5,5.4c-1.1,2.5-1.7,5.9-1.7,10.2c0,3.4,0.4,6.3,1.4,8.7
			c0.9,2.4,2.4,4.3,4.5,5.6C454.9,276.9,457.7,277.6,461.3,277.6z"/>
	</g>
	<path class="st0" d="M91.5,235.5l-12.6,43.8c-0.7,2.5-1.1,4.2-1.1,4.9c0,0.4,0.2,0.9,0.6,1.3s0.8,0.6,1.2,0.6
		c0.7,0,1.4-0.3,2.1-0.9c1.8-1.5,4.1-4.3,6.7-8.2l2.1,1.2c-6.2,10.8-12.8,16.2-19.8,16.2c-2.7,0-4.8-0.7-6.4-2.2
		c-1.6-1.5-2.4-3.4-2.4-5.7c0-1.5,0.3-3.5,1.1-5.8l8.6-29.5c0.8-2.8,1.2-5,1.2-6.4c0-0.9-0.4-1.7-1.2-2.4c-0.8-0.7-1.8-1.1-3.2-1.1
		c-0.6,0-1.3,0-2.2,0.1l0.8-2.5l20.9-3.4H91.5L91.5,235.5z M87.7,207.1c2.6,0,4.7,0.9,6.4,2.7c1.7,1.8,2.6,3.9,2.6,6.4
		c0,2.5-0.9,4.6-2.7,6.4c-1.8,1.8-3.9,2.7-6.4,2.7c-2.5,0-4.6-0.9-6.4-2.7c-1.8-1.8-2.7-3.9-2.7-6.4c0-2.5,0.9-4.6,2.6-6.4
		C83,208,85.2,207.1,87.7,207.1z"/>
	<path class="st1" d="M79.1,317.5c-16.2,0-31.9-6-44.1-16.7c-14-12.3-22-29.3-22.7-47.9c-0.6-16.6,5-32.8,15.8-45.6
		S54,186.2,70.5,184c0.9-0.1,1.8-0.2,2.7-0.3c2-0.2,4-0.3,6-0.3c24,0,46.4,13,58.3,33.9c0.9,1.6,1.1,3.6,0.6,5.3
		c-0.6,1.8-1.8,3.2-3.5,4.1c-0.8,0.4-1.6,0.6-2.4,0.7c-0.2,0-0.4,0-0.6,0c-2.4,0-4.6-1.3-5.8-3.4c-9.5-16.7-27.4-27.1-46.6-27.1
		c-1.6,0-3.2,0.1-4.8,0.2c-16.7,1.5-31.4,10.5-40.4,24.7c-9,14.2-10.8,31.6-4.8,47.9c6.2,16.9,20.8,29.6,38.4,33.2
		c3.8,0.8,7.7,1.2,11.6,1.2c1.7,0,3.3-0.1,5-0.2c9.1-0.8,17.9-4,25.5-9.2c0.9-0.6,2-1,3.2-1.1c0.2,0,0.4,0,0.6,0
		c1.9,0,3.8,0.8,5.1,2.3c1.3,1.4,1.9,3.4,1.6,5.3c-0.2,1.9-1.3,3.6-2.9,4.7c-9.4,6.5-20.4,10.5-31.8,11.5
		C83.3,317.5,81.2,317.5,79.1,317.5z"/>
	<path class="st1" d="M85.2,315.3c-17.9,1.6-35.3-4-48.9-16c-13.6-11.9-21.4-28.4-22.1-46.5c-0.6-16.1,4.9-31.9,15.4-44.3
		c10.5-12.4,25.1-20.5,41.1-22.6c0.9-0.1,1.8-0.2,2.6-0.3c25.3-2.3,49.8,10.5,62.5,32.7c0.7,1.2,0.8,2.5,0.4,3.8
		c-0.4,1.3-1.3,2.3-2.5,2.9c-0.5,0.3-1.1,0.4-1.7,0.5c-1.8,0.2-3.6-0.8-4.6-2.4c-10.8-18.9-31.7-29.9-53.4-27.9
		c-17.3,1.6-32.5,10.9-41.8,25.6c-9.3,14.7-11.2,32.8-5,49.6c6.4,17.6,21.6,30.8,39.8,34.4c5.7,1.2,11.5,1.5,17.1,1
		c9.5-0.9,18.6-4.2,26.4-9.5c0.7-0.4,1.4-0.7,2.2-0.8c1.5-0.1,3,0.4,4,1.6c0.9,1,1.3,2.4,1.2,3.7c-0.2,1.4-0.9,2.6-2,3.3
		C106.9,310.5,96.3,314.3,85.2,315.3z"/>
</g>
</svg>
