<?xml version="1.0" encoding="utf-8"?>
<!-- Generator: Adobe Illustrator 25.1.0, SVG Export Plug-In . SVG Version: 6.00 Build 0)  -->
<svg version="1.1" id="Layer_1" xmlns="http://www.w3.org/2000/svg" xmlns:xlink="http://www.w3.org/1999/xlink" x="0px" y="0px"
	 viewBox="0 0 1920 652.4" style="enable-background:new 0 0 1920 652.4;" xml:space="preserve">
<style type="text/css">
	.st0{fill:#ED1C24;}
	.st1{fill:#008E74;}
</style>
<g>
	<path class="st0" d="M1093.9,477.4H973.3c-4.8-1.6-9.5-3.3-14.2-5.2c-4.6-1.8-6.9-5.8-7.2-10.7c-0.4-5.5-0.5-11-0.9-16.5
		c-0.1-2,0.6-3.5,1.6-5.1c3-4.5,6.3-8.9,8.6-13.8c2.1-4.6,3-9.7,4.5-14.6c0.4-1.4,0.9-3,1.8-4.1c1.6-2,3.9-3.4,5.4-5.5
		c6.1-8.1,8.1-17.6,8.2-27.5c0-5.7-2.2-10.4-7.6-13.2c-0.8-0.4-1.6-1.8-1.5-2.6c0.4-5.1,1.4-10.1,1.6-15.2
		c0.2-5.2,0.5-10.7-0.6-15.7c-4.8-21.2-18-35.4-38.2-42.9c-4.6-1.7-18.8-4.6-32.1-3c-10.6,1.9-20.1,6.1-28.5,12.8
		c-11.7,9.4-19.4,21.4-20.9,36.3c-0.9,8.9,0.6,18.1,1.2,27.2c0.1,1.8-0.3,2.5-1.8,3.4c-3.5,2-5.8,5-6.6,9.1
		c-1.3,6.7-0.3,13.1,1.6,19.4c1.9,6.3,4.8,12.1,10.1,16.3c1.8,1.4,2.7,3.1,3.2,5.2c0.8,3.2,1.5,6.5,2.4,9.7
		c2.1,7.5,6.5,13.7,11.2,19.8c0.5,0.7,1,1.7,1,2.6c-0.2,5.6-0.6,11.2-0.8,16.8c-0.3,7.2-4.3,11.6-10.8,13.7
		c-3.7,1.2-7.4,2.3-11.1,3.4H732.9c0,0,57.5-22,68.8-25.4c9.1-2.7,18.6-5.6,28.2-8.6c-1.7-3.8-3.1-7.6-4.3-11.5
		c-0.3-0.9-0.5-1.9-0.8-2.8c-6.5-7.5-11.3-16.5-14.7-27.4c-4.2-13.7-5-26.3-2.6-38.6c1.2-6.1,3.4-11.7,6.4-16.9
		c-0.4-5.7-0.5-12.1,0.1-18.9c2.4-24.8,14.7-46.7,35.5-63.3c12.8-10.3,29.7-16.5,41.7-19.9c5.1-1.4,11.6-2.2,19.3-2.2
		c9,0,16.8,1,17.1,1l0.6,0.1l0.5,0.1c0.9,0.2,1.9,0.4,2.9,0.6l0.4,0.1c4.2,0.8,10.1,1.9,16.4,4.3c33.4,12.5,55.1,37.1,62.8,71.1
		c2.2,9.6,1.8,18.3,1.6,24.6c0,0-0.1,2-0.1,2.4c5,8.4,7.7,18.2,7.6,28.6c-0.1,19.8-5.5,36.9-16.1,51c-0.8,1.1-1.7,2.1-2.6,3.2
		c-1,3.8-2.4,8.6-4.8,13.7c-0.2,0.4-0.3,0.7-0.5,1c6.3,2,12.7,3.9,19,5.8c6.1,1.8,12.2,3.6,18.2,5.5
		C1043.1,457.8,1093.9,477.4,1093.9,477.4z"/>
	<g>
		<path class="st1" d="M428.7,275.6c5.5-2.9,12.8-5.9,21.8-8.9c9-3.1,18.9-5.7,29.6-8.1c10.7-2.3,21.6-4.2,32.5-5.7
			c10.9-1.5,21-2.2,30.3-2.2c19.8,0,36.6,2.5,50.6,7.6c13.9,5.1,24.6,13.3,32,24.6c7.4,11.3,11.1,26.7,11.1,46.2v148.2h-64.9V342.3
			c0-5.5-0.8-10.6-2.4-15.3c-1.6-4.6-4-8.6-7.2-12c-3.2-3.3-7.6-6-13.1-7.8c-5.5-1.9-12.2-2.8-20.1-2.8c-6.7,0-13.4,0.8-20.1,2.4
			c-6.7,1.6-11.8,3.3-15.3,5v165.6h-64.9V275.6z"/>
		<path class="st1" d="M692.6,477.4V306.6h-32.7v-49.7H693v-5.2c0-14.2,1.5-26.4,4.4-36.6c2.9-10.2,7-18.7,12.2-25.5
			c5.2-6.8,11.3-12.1,18.3-15.9c7-3.8,14.7-6.5,23.1-8.1c8.4-1.6,17.1-2.4,26.2-2.4c4.6,0,9.7,0.4,15.3,1.1c5.5,0.7,10,1.8,13.5,3.3
			V225c-2.6-3.2-5.5-5.7-8.7-7.4c-3.2-1.7-7.6-2.6-13.1-2.6c-3.8,0-7.3,0.4-10.5,1.3c-3.2,0.9-6,2.3-8.3,4.4c-2.3,2-4.1,4.9-5.4,8.7
			c-1.3,3.8-2,8.6-2,14.4v13.1h47.9v49.7h-48.4v170.9H692.6z"/>
		<path class="st1" d="M1377.6,283c-6.8-11.3-17-19.5-30.5-24.6c-13.5-5.1-30.2-7.6-49.9-7.6c-12.2,0-25.4,1.7-39.7,5
			c-11.3,2.7-22.1,6.2-32.4,10.4c-4.4-3.1-9.3-5.7-14.9-7.8c-13.5-5.1-30.2-7.6-49.9-7.6c-9.3,0-19.4,0.7-30.3,2.2
			c-10.9,1.5-21.7,3.3-32.5,5.7c-10.8,2.3-20.6,5-29.6,8.1c-9,3.1-16.3,6-21.8,8.9v201.8h64.9V311.8c3.5-1.7,8.1-3.4,13.7-5
			c5.7-1.6,11.8-2.4,18.5-2.4c7.8,0,14.5,0.9,20.1,2.8c5.5,1.9,9.9,4.5,13.1,7.8c3.2,3.3,5.6,7.3,7.2,12c1.6,4.7,2.4,9.7,2.4,15.3
			v135.1h64.9V329.2c0-5.8-0.3-11.3-1-16.4c3.2-2.2,7-4.1,11.6-5.6c5.7-1.9,11.8-2.8,18.5-2.8c7.8,0,14.5,0.9,20.1,2.8
			c5.5,1.9,9.9,4.5,13.1,7.8c3.2,3.3,5.6,7.3,7.2,12c1.6,4.7,2.4,9.7,2.4,15.3v135.1h64.9V329.2
			C1387.8,309.8,1384.4,294.4,1377.6,283z"/>
		<path class="st1" d="M1566.9,427.1c-8,1.9-16.1,2.8-24.2,2.8c-22.1,0-38.1-5.7-48.2-17c-6.6-7.5-11.1-17.1-13.3-28.8h145.6
			c0.3-28.8-3.1-53.2-10-73.2c-7-20-17.9-35.3-32.9-45.8c-15-10.5-34.7-15.7-59.1-15.7c-35.5,0-62.7,10.5-81.7,31.6
			c-19,21.1-28.6,50.8-28.6,89.1c0,23.5,4.7,43.8,14.2,60.8c9.4,17,22.7,30.1,39.7,39.2c17,9.2,36.5,13.7,58.6,13.7
			c17.1,0,32.2-1.4,45.1-4.1c12.9-2.8,24.6-6.3,35.1-10.7v-55.8c-4.9,2-10.9,4.4-17.9,7C1582.3,422.9,1574.9,425.2,1566.9,427.1z
			 M1484.9,325.5c3.6-9.4,8.7-16.2,15.3-20.3c6.5-4.1,13.9-6.1,22-6.1c14.5,0,25,4.8,31.4,14.4c4.4,6.6,7.3,16.1,8.8,29.2
			c-20.1,0-81.6,0-81.6,0C1481.7,336,1483.1,330.4,1484.9,325.5z"/>
		<path class="st1" d="M1759.5,484c-17.1,0-32.9-1.9-47.3-5.7c-14.4-3.8-26.8-10.1-37.3-19c-10.5-8.9-18.7-21-24.6-36.4
			c-6-15.4-8.9-34.6-8.9-57.5c0-35.7,8.8-63.9,26.4-84.6c17.6-20.6,44-30.9,79.1-30.9c4.6,0,10.7,0.4,18.3,1.1
			c7.6,0.7,15.4,2.5,23.5,5.4c3,1.1,5.9,2.4,8.7,4.1c0-32.8,0-94.3,0-94.3h64.5v253.7c0,10.8-2.9,20.1-8.7,28.1
			c-5.8,8-13.6,14.6-23.3,19.8c-9.7,5.2-20.7,9.2-32.9,12C1784.7,482.6,1772.2,484,1759.5,484z M1762.1,429.5
			c10.5,0,19-1.4,25.5-4.1c6.5-2.8,9.8-6.9,9.8-12.4V311.4c-5.2-2.9-10.8-5.2-16.8-6.8c-6-1.6-11.7-2.4-17.2-2.4
			c-12.2,0-22.5,2-30.9,6.1c-8.4,4.1-14.8,10.9-19,20.5c-4.2,9.6-6.3,22.5-6.3,38.8c0,12.8,1.7,23.8,5.2,32.9
			c3.5,9.2,9.2,16.3,17.2,21.4C1737.6,426.9,1748.4,429.5,1762.1,429.5z"/>
	</g>
	<path class="st0" d="M358.8,269.7l-48,166.3c-2.7,9.5-4,15.8-4,18.7c0,1.7,0.7,3.3,2.1,4.8c1.4,1.5,2.9,2.2,4.4,2.2
		c2.7,0,5.3-1.2,8-3.5c7-5.8,15.4-16.2,25.3-31.3l8,4.7c-23.5,41-48.6,61.5-75.1,61.5c-10.1,0-18.2-2.8-24.2-8.5
		c-6-5.7-9-12.9-9-21.6c0-5.8,1.3-13.1,4-22l32.5-111.8c3.1-10.8,4.7-18.9,4.7-24.3c0-3.4-1.5-6.5-4.4-9.1c-3-2.6-7-4-12.2-4
		c-2.3,0-5.1,0.1-8.4,0.2l3-9.4l79.3-12.9H358.8z M344.3,162.1c9.7,0,17.8,3.4,24.4,10.1c6.6,6.7,9.9,14.8,9.9,24.3
		c0,9.5-3.4,17.6-10.1,24.3c-6.7,6.7-14.8,10.1-24.3,10.1c-9.4,0-17.4-3.3-24.1-10.1c-6.7-6.7-10.1-14.8-10.1-24.3
		c0-9.5,3.3-17.6,9.9-24.3C326.7,165.5,334.8,162.1,344.3,162.1z"/>
	<path class="st1" d="M311.9,581.1c-61.4,0-120.9-22.6-167.5-63.5c-53-46.6-83.6-111.2-86.3-181.8c-2.3-63.1,19-124.6,60.1-173.2
		c41.1-48.6,98.2-79.9,160.8-88.2c3.4-0.5,6.8-0.8,10.3-1.1c7.6-0.7,15.3-1,22.9-1c91.2,0,176,49.3,221.3,128.6
		c3.5,6.1,4.3,13.5,2.3,20.3c-2.1,6.8-6.7,12.3-13.1,15.4c-2.9,1.4-5.9,2.3-9.1,2.6c-0.8,0.1-1.5,0.1-2.3,0.1
		c-9.2,0-17.6-4.9-22.1-12.8c-36.1-63.5-103.8-102.9-176.9-102.9c-6.1,0-12.3,0.3-18.3,0.8c-63.3,5.8-119.1,39.9-153.2,93.6
		c-34.1,53.8-40.8,120-18.4,181.8c23.4,64.2,79.1,112.4,145.6,125.8c14.6,2.9,29.4,4.4,43.9,4.4c6.3,0,12.7-0.3,19-0.9
		c34.6-3.2,68-15.2,96.6-34.9c3.6-2.4,7.7-3.9,12-4.3c0.8-0.1,1.5-0.1,2.3-0.1c7.3,0,14.3,3.2,19.2,8.7c4.9,5.5,7.1,12.8,6.2,20.1
		c-0.9,7.3-4.8,13.8-10.9,18c-35.7,24.6-77.5,39.7-120.8,43.6C327.7,580.8,319.7,581.1,311.9,581.1z"/>
	<path class="st1" d="M334.9,572.6c-68.1,6.2-134-15.3-185.5-60.6c-51.5-45.3-81.2-107.9-83.7-176.5
		c-2.3-61.2,18.5-120.9,58.4-168.1c39.9-47.2,95.3-77.6,156.1-85.6c3.3-0.4,6.7-0.8,10-1.1c96.1-8.8,189.1,39.9,237,123.9
		c2.5,4.4,3.1,9.6,1.6,14.4c-1.5,4.8-4.8,8.7-9.3,10.9c-2,1-4.2,1.6-6.4,1.8c-7,0.6-13.8-2.9-17.3-9
		C454.9,151,375.5,109.4,293.3,116.9c-65.6,6-123.5,41.3-158.8,97c-35.4,55.8-42.4,124.4-19.1,188.3
		c24.2,66.6,82.1,116.7,151.1,130.5c21.8,4.4,43.7,5.6,65,3.7c35.9-3.3,70.5-15.8,100.1-36.2c2.5-1.7,5.4-2.8,8.4-3
		c5.7-0.5,11.4,1.7,15.2,6.1c3.4,3.9,5.1,9.1,4.4,14.2c-0.6,5.2-3.4,9.8-7.7,12.7C417.4,554.2,376.9,568.8,334.9,572.6z"/>
</g>
</svg>
