<?xml version="1.0" encoding="utf-8"?>
<!-- Generator: Adobe Illustrator 26.5.0, SVG Export Plug-In . SVG Version: 6.00 Build 0)  -->
<svg version="1.1" id="Layer_1" xmlns="http://www.w3.org/2000/svg" xmlns:xlink="http://www.w3.org/1999/xlink" x="0px" y="0px"
	 viewBox="0 0 1080 1080" style="enable-background:new 0 0 1080 1080;" xml:space="preserve">
<path d="M891.8,1004.2c-18.8,0-37.5,0-56.2,0c0-27.9,0-55.8,0-84.1c-9.7,0-19,0-28.7,0c0-9.7,0-19,0-28.5c-19,0-37.6,0-56.1,0
	l0.1,0.1c0-28.2,0-56.4,0-84.5c-28.4,0-56.2,0-83.8,0c0,9.5,0,18.7,0,28.3c9.3,0,18.3,0,27.3,0c0,18.9,0,37.3,0,55.9
	c-18.7,0-37.3,0-56.2,0c0-28.3,0-56.3,0-84.3c-9.4,0-18.3,0-27.7,0c0,9.5,0,18.8,0,28.4c-9.8,0-19.1,0-28.5,0c0-9.4,0-18.9,0-28.5
	c-9.5,0-18.7,0-27.8,0c0-9.2,0-18.4,0-27.7c-19,0-37.6,0-56.2,0c0-9.4,0-18.9,0-28.3c-9.7,0-19,0-28.4,0c0,9.6,0,19,0,28.3
	c-9.2,0-18.4,0-27.5,0c0,19,0,37.5,0,56.3c9.2,0,18.2,0,27.3,0c0,9.6,0,18.8,0,28.5c-9.2,0-18.3,0-27.5,0c0,9.5,0,18.6,0,27.7
	c-18.7,0-37.4,0-56.4,0c0,28.5,0,56.6,0,84.8l0.1-0.1c-9.5,0-19.1,0-28.6,0l0.1,0.1c0-9.4,0-18.9,0-28.6c-9.7,0-18.8,0-27.9,0
	l0.1,0.1c0-9.3,0-18.6,0-27.8l-0.1,0.1c9.2,0,18.4,0,27.5,0c0-38.1,0-75.6,0-113.1c-9.2,0-18.2,0-27.5,0c0,9.5,0,18.8,0,28
	c-9.7,0-19,0-28.2,0c0-18.7,0-37.2,0-56c9.5,0,18.8,0,28,0c0-18.9,0-37.5,0-56c-9.5,0-18.7,0-28.3,0c0,9.2,0,18.3,0,27.6
	c-9.5,0-18.6,0-27.7,0c0-9.2,0-18.4,0-27.5c-9.7,0-19,0-28.4,0c0,9.4,0,18.5,0,27.5c-9.2,0-18.4,0-28,0c0,9.7,0,19,0,28.3
	c-9.6,0-18.8,0-28.1,0c0-18.7,0-37.2,0-56.2c9.5,0,18.8,0,28.4,0c0-9.7,0-19.1,0-28.4l-0.1,0.1c37.4,0,74.9,0,112.5,0
	c0-9.7,0-18.8,0-27.9c27.9,0,55.9,0,83.8,0c0,9.6,0,18.6,0,27.9c-9.2,0-18.2,0-27.5,0c0,9.6,0,18.9,0,28.5c-9.7,0-19,0-28.2,0
	c0,18.9,0,37.3,0,55.8c18.7,0,37.3,0,56.2,0c0-9.5,0-18.8,0-28.4c9.6,0,18.8,0,28.4,0c0-9.3,0-18.4,0-27.6c28.3,0,56.1,0,84,0
	l-0.1-0.1c0,9.2,0,18.4,0,27.7c19.2,0,37.8,0,56.4,0c0,9.4,0,18.9,0,28.3c19,0,37.5,0,56.1,0c0-18.9,0-37.4,0-56
	c18.7,0,37.4,0,56.3,0c0-9.8,0-19.2,0-28.5c9.4,0,18.9,0,28.3,0c0,19.1,0,37.6,0,56.4c-9.5,0-18.7,0-28,0c0,9.6,0,18.8,0,28.1
	c18.8,0,37.3,0,56.2,0c0-28.3,0-56.3,0-84.3c9.6,0,18.8,0,28.4,0c0,9.5,0,18.8,0,28.2c9.5,0,18.6,0,27.7,0c0,9.2,0,18.4,0,27.8
	c28.6,0,56.7,0,84.8,0c0,9.4,0,18.9,0,28.7c18.9,0,37.4,0,56.3,0c0,9.4,0,18.4,0,27.6c9.7,0,19.1,0,28.4,0c0,19,0,38.1,0,57.1
	c-9.4,0-18.9,0-28.7,0c0-9.8,0-19.1,0-28.7c-9.4,0-18.3,0-27.7,0c0-9.6,0-18.9,0-28.1c-9.7,0-19,0-28.2,0c0,28.2,0,56.2,0,84.2
	c28.2,0,56.3,0,84.5,0c0-9.4,0-18.5,0-27.6c9.3,0,18.5,0,27.8,0.1c0,28,0,56,0,84c-18.7,0-37.4,0-56.3,0c0-9.5,0-18.4,0-27.5
	c-18.8,0-37.4,0-56.2,0C891.8,948.6,891.8,976.4,891.8,1004.2z M863.8,779.5c-28.3,0-56.4,0-84.3,0c0,28.3,0,56.3,0,84.3
	c28.2,0,56.2,0,84.3,0C863.8,835.7,863.8,807.7,863.8,779.5z M385.6,863.7c9.2,0,18.3,0,27.4,0c0-18.9,0-37.7,0-56.4
	c-9.3,0-18.3,0-27.4,0C385.6,826.2,385.6,844.8,385.6,863.7z M75.8,273c0-65.8,0-131.5,0-197.2c65.8,0,131.5,0,197.2,0
	c0,65.7,0,131.3,0,197.2C206.9,273,141.3,273,75.8,273z M244.2,244.3c0-46.8,0-93.3,0-139.8c-46.8,0-93.3,0-139.8,0
	c0,46.7,0,93.2,0,139.8C151.1,244.3,197.5,244.3,244.2,244.3z M1004.2,273c-65.6,0-131.2,0-197.2,0c0-65.9,0-131.6,0-197.2
	c65.8,0,131.5,0,197.2,0C1004.2,141.5,1004.2,207.2,1004.2,273z M976.3,104.5c-47.1,0-93.8,0-140.5,0c0,46.8,0,93.3,0,139.8
	c47,0,93.7,0,140.5,0C976.3,197.7,976.3,151.2,976.3,104.5z M75.8,807c65.6,0,131.2,0,197.2,0c0,65.9,0,131.6,0,197.2
	c-65.8,0-131.5,0-197.2,0C75.8,938.5,75.8,872.8,75.8,807z M104.5,835.7c0,47.1,0,93.9,0,140.5c46.8,0,93.3,0,139.8,0
	c0-47,0-93.7,0-140.5C197.7,835.7,151.2,835.7,104.5,835.7z M976.6,329.2c0,18.6,0,37.2,0,56.2c-9.5,0-18.8,0-28.3,0
	c0,9.3,0,18.3,0,27.7c9.2,0,18.5,0,28,0c0,9.7,0,19,0,28.5c-18.5,0-37.1,0-55.9,0c0-9.3,0-18.5,0-28c-9.6,0-18.8,0-28.5,0
	c0,9.2,0,18.5,0,28.1c-9.3,0-18.3,0-27.7,0c0,9.3,0,18.3,0,27.8c-9.8,0-19.3,0-28.7,0c0,9.3,0,18.7,0,28.4c9.5,0,18.8,0,28.5,0
	c0,19.1,0,37.8,0,56.4c9.3,0,18.6,0,27.9,0c0-9.3,0-18.7,0-28.5c9.4,0,18.7,0,28.4,0c0-18.9,0-37.5,0-56.2c9.3,0,18.3,0,27.6,0
	c0,18.5,0,37,0,56.1c9.8,0,19.3,0,28.7,0c0-18.6,0-37.2,0-56.3c9.3,0,18.5,0,27.7,0c0-46.8,0-93.5,0-140.2c-9.3,0-18.5,0-27.8,0.1
	L976.6,329.2z M75.8,723c9.3,0,18.7,0,28.6,0c0,9.4,0,18.6,0,27.8l-0.1-0.1c9.2,0,18.4,0,28,0c0,9.9,0,19.2,0,28.3
	c9.6,0,18.8,0,28,0c0-37.5,0-74.8,0-112.1c-9.5,0-18.7,0-28.3,0c0,9.2,0,18.3,0,27.6c-19,0-37.6,0-56.2,0
	C75.8,704,75.8,713.5,75.8,723z M554.2,132.1c0-9.3,0-18.6,0-27.9c0,0,0.1,0.1,0.1,0.1c-9.3,0-18.7,0-28.6,0c0-9.7,0-19.1,0-28.6
	c-18.8,0-37.5,0-56.2,0c0,9.4,0,18.9,0,28.7c-9.6,0-18.6,0-27.5,0c0,9.4,0,18.3,0,27.6c18.7,0,37.3,0,56,0c0,9.7,0,19.1,0,28.5
	c9.2,0,18.4,0,27.9,0c0-9.8,0-19.1,0-28.6c9.7,0,19.1,0,28.4,0L554.2,132.1z M779,132.1c0-9.4,0-18.5,0-27.9c-9.5,0-18.8,0-28.3,0
	c0-9.7,0-19.1,0-28.4c-28,0-56,0-84,0c0,18.8,0,37.5-0.1,56.3C704.1,132.1,741.5,132.1,779,132.1z M413.4,920.2
	c0,18.8,0,37.3,0,56.4c-9.6,0-18.8,0-27.9,0l0.1-0.1c0,9.3,0,18.5-0.1,27.8c37.5,0,75,0,112.5,0c0-9.2,0-18.4,0-27.9
	c-19,0-37.6,0-56.2,0c0-19,0-37.5,0-56.1C432.5,920.2,423.1,920.2,413.4,920.2z M554.2,1004.2c0-9.2,0-18.4,0-27.8c19,0,37.4,0,56,0
	c0-18.8,0-37.3,0-55.9c-9.5,0-18.8,0-28.4,0c0,9.2,0,18.2,0,27.5c-18.8,0-37.4,0-56.2,0c0,19,0,37.6,0,56.2
	C535.2,1004.2,544.8,1004.2,554.2,1004.2z M357,75.8c0,9.4,0,18.9,0,28.6c-19,0-37.5,0-56,0c0,18.9,0,37.4,0,56.2
	c9.6,0,18.9,0,28.3,0c0-9.4,0-18.9,0-28.7c18.9,0,37.5,0,56.2,0c0-19,0-37.5,0-56.1C376,75.8,366.5,75.8,357,75.8z M807,1004.2
	c0-18.7,0-37.4,0-56c-28.3,0-56.1,0-83.8,0c0,9.5,0,18.7,0,28.3c9.2,0,18.3,0,27.6,0c0,9.5,0,18.6,0,27.7
	C769.5,1004.2,788.2,1004.2,807,1004.2z M104.2,469.4c0,9.3,0,18.7,0,28.6c-9.6,0-19,0-28.4,0c0,9.2,0,18.5,0,27.8
	c28.2,0,56.4,0,84.8,0c0-19.1,0-37.7,0-56.3C141.8,469.4,123,469.4,104.2,469.4z M131.9,329.2c0-9.7,0-19,0-28.4
	c-19,0-37.5,0-56.1,0c0,18.8,0,37.5,0,56.2c28.2,0,56.3,0,84.8,0c0-9.6,0-18.7,0-27.8C151.1,329.2,141.7,329.2,131.9,329.2z
	 M554.2,75.8c0,9.5,0,19,0.1,28.6c0,0-0.1-0.1-0.1-0.1c9.1,0,18.2,0,27.9,0c0,9.5,0,18.7,0,27.9l-0.1-0.1c9.4,0,18.8,0,28.6,0
	c0-9.4,0-18.4,0-27.8c9.4,0,18.4,0,27.7,0c0-9.7,0-19,0-28.4C610.2,75.8,582.2,75.8,554.2,75.8z M976.4,723.1c-9.6,0-18.9,0-28.2,0
	c0,9.4,0,18.4,0,27.7c18.8,0,37.4,0,56,0c0-28,0-56,0-84c-9.3,0-18.5,0-27.8-0.1C976.4,685.4,976.4,704,976.4,723.1z M357,1004.2
	c0-9.3,0-18.5-0.1-27.8l0.1,0.1c-9.1,0-18.2,0-27.9,0c0-9.7,0-19.2,0-28.6l0.1,0.1c-9.4,0-18.9,0-28.6,0c0,19,0,37.6,0,56.2
	C319.5,1004.2,338.2,1004.2,357,1004.2z M1004.2,582c-18.8,0-37.5,0-56.3-0.1c0,9.4,0,18.9,0,28.6c19.1,0,37.7,0,56.3,0
	C1004.2,601,1004.2,591.5,1004.2,582z M75.8,666.8c9.4,0,18.9,0,28.6,0c0-19.1,0-37.7,0-56.3c-9.5,0-19,0-28.6,0.1
	C75.8,629.2,75.8,648,75.8,666.8z M104.3,750.8c-9.5,0-19,0-28.6-0.1c0,9.5,0,19,0,28.5c9.4,0,18.9,0,28.4,0c0-9.9,0-19.2,0-28.6
	L104.3,750.8z M976.4,554.2c9.6,0,18.7,0,27.8,0c0-9.5,0-19,0-28.5c-9.3,0-18.5,0-27.8-0.1C976.4,535.1,976.4,544.6,976.4,554.2z
	 M104.3,441.8c-9.9,0-19.2,0-28.6,0c0,9.2,0,18.5,0,27.8c9.5,0,19,0,28.6,0.1C104.3,460.4,104.3,451.2,104.3,441.8z M976.5,1004.2
	c0-9.2,0-18.3,0-27.5c-9.8,0-19,0-28.5,0c0,9.3,0,18.4,0,27.5C957.5,1004.2,967,1004.2,976.5,1004.2z M1004.2,779.2
	c-9.2,0-18.4,0-27.8,0c0,9.6,0,18.7,0,27.8c9.3,0,18.5,0,27.8-0.1C1004.2,797.8,1004.2,788.5,1004.2,779.2z M525.6,806.9
	c0,9.9,0,19.1,0,28.7c-9.4,0-18.3,0-27.3,0c0,9.6,0,18.9,0,28.4c9.2,0,18.2,0,27.5,0c0,18.8,0,37.4,0,55.9c9.7,0,19,0,28.6,0
	c0-9.5,0-18.7,0-28.3c9.3,0,18.4,0,27.7,0c0-19,0-37.6,0-56.2c-9.2,0-18.4,0-27.8,0c0-9.8,0-19.1,0-28.5
	C544.9,806.9,535.4,806.9,525.6,806.9z M694.3,920.5c-18.7,0-37.3,0-55.8,0c0,18.8,0,37.3,0,55.8c18.7,0,37.1,0,55.8,0
	C694.3,957.5,694.3,939,694.3,920.5z M497.7,920.3c0-9.8,0-19.1,0-28.6c-18.9,0-37.4,0-56,0c0,9.5,0,19.1,0,28.6
	C460.4,920.3,479.1,920.3,497.7,920.3z M469.4,806.7c9.8,0,19.1,0,28.6,0c0-9.4,0-18.4,0-27.5c-9.5,0-19.1,0-28.6,0
	C469.4,788.4,469.4,797.6,469.4,806.7z M750.8,891.8c-9.2,0-18.4,0-27.6,0c0,9.7,0,19,0,28.2c9.3,0,18.3,0,27.5,0c0-9.6,0-19,0-28.3
	C750.7,891.7,750.8,891.8,750.8,891.8z M441.7,638.3c0-18.7,0-37.4,0-56.4c19.1,0,37.6,0,56.3,0c0-9.5,0-18.6,0-27.7l0.1,0.1
	c-18.6,0-37.2,0-56.4,0c0-9.7,0-19.2,0-28.6l0.1,0.1c-9.5,0-19.1,0-28.6,0l0.1-0.1c0,18.6,0,37.2,0,56c-18.8,0-37.3,0-56.2,0
	c0-9,0-18,0-27.5c-18.9,0-37.4,0-56.2,0c0-9.6,0-18.8,0-28.4c9.3,0,18.5,0,28.4,0c0-9.6,0-18.8,0-28c-9.4,0-18.7,0-28.5,0
	c0-9.6,0-19.1,0-28.5c-18.8,0-37.6,0.1-56.4,0.1l0.1-0.1c0,9.3,0,18.7,0,28.4c9.4,0,18.7,0,28.2,0c0,9.4,0,18.4,0,27.9
	c-18.7,0-37.4,0-56.1,0l0.1-0.1c0,9.4,0,18.9,0,28.7c19,0,37.5,0,56,0c0,9.4,0,18.3,0,27.7c-9.5,0-18.8,0-28.2,0
	c0,9.8,0,19.1,0,28.5l-0.1-0.1c9.4,0,18.7,0,28.6,0c0,9.5,0,18.7,0,27.9l-0.1-0.1c9.3,0,18.6,0.1,27.9,0.1c0-18.7,0-37.4,0-56
	c9.7,0,19,0,28.6,0c0,9.5,0,18.7,0,28.3c9.3,0,18.4,0,27.7,0c0,9.4,0,18.3,0,27.4c9.6,0,18.9,0,28.6,0c0-9.3,0-18.3,0-27.3
	c9.4,0,18.3,0,27.7,0c0,9.2,0,18.3,0,27.5c9.8,0,19.1,0,28.5,0L441.7,638.3z M160.6,581.9c0,9.5,0,19.1,0,28.6l-0.1-0.1
	c9.2,0,18.4,0,27.9,0c0,9.6,0,18.6,0,27.8c19,0,37.6,0,56.2,0l-0.1,0.1c0-9.3,0-18.6,0-27.9c0,0,0.1,0.1,0.1,0.1c-9.2,0-18.4,0-28,0
	c0-9.8,0-19.1,0-28.5c-19,0-37.6,0-56.2,0L160.6,581.9z M273.1,638.3c-9.5,0-19.1,0-28.6,0c0,0,0.1-0.1,0.1-0.1c0,9.4,0,18.9,0,28.3
	c9.7,0,19,0,28.4,0c0-9.6,0-19,0-28.3L273.1,638.3z M300.7,666.8c9.9,0,19.3,0,28.6,0c0-9.4,0-18.9,0-28.6c-9.9,0-19.3,0-28.6,0
	C300.7,647.6,300.7,657.1,300.7,666.8z M244.4,779c9.8,0,19.1,0,28.6,0c0-9.6,0-18.9,0-28.3c-9.5,0-19.1,0-28.6,0
	C244.4,760.1,244.4,769.6,244.4,779z M329.2,920.3c0-9.4,0-18.9,0-28.3c-9.7,0-19,0-28.2,0c0,9.5,0,18.8,0,28.2c9.6,0,19,0,28.3,0
	C329.3,920.2,329.2,920.3,329.2,920.3z M132.1,610.4l-0.1,0.1c0-9.5,0-19.1,0-28.6l0.1,0.1c-9.2,0-18.4,0-27.9,0
	c0,9.8,0,19.1,0,28.5C113.5,610.5,122.8,610.5,132.1,610.4z M160.6,610.6c-9.5,0-19.1,0-28.6,0c0,0,0.1-0.1,0.1-0.1
	c0,9.2,0,18.4,0,27.5c9.7,0,19,0,28.4,0c0-9.4,0-18.5,0-27.5L160.6,610.6z M216.7,694.6c0-9.2,0-18.4,0-27.6c-9.7,0-19,0-28.2,0
	c0,9.3,0,18.3,0,27.5c9.6,0,19,0,28.3,0C216.8,694.5,216.7,694.6,216.7,694.6z M581.9,413.2c0,9.4,0,18.7,0,28.5
	c-9.2,0-18.3,0-27.6,0c0,9.4,0,18.3,0,27.5c-9.6,0-18.9,0-28.6,0c0-9,0-18.1,0-27.4c-9.4,0-18.3,0-27.5,0c0-18.8,0-37.4,0-56.3
	c9,0,18.1,0,27.3,0c0-9.6,0-18.8,0-28.4c-9,0-18.1,0-27.4,0c0-9.4,0-18.3,0-27.6c-18.8,0-37.4,0-56.2,0c0,8.9,0,18,0,27.3
	c9,0,17.9,0,27.2,0c0,28.3,0,56.3,0,84.6c-9,0-18,0-27.3,0c0-9.3,0-18.5,0-28c-9.6,0-18.9,0-28.7,0c0,37.4,0,74.8,0,112.3l0.1-0.1
	c-9.2,0-18.4,0-27.9,0c0-28.2,0-56,0-83.9c-9.7,0-19.1,0-28.4,0c0-9.4,0-18.9,0-28.3c-18.9,0-37.5,0-56.1,0c0,9.6,0,19,0,28.3
	c-18.8,0-37.6-0.1-56.4-0.1l0.1,0.1c0-9.5-0.1-19.1-0.1-28.6c9.4,0,18.9,0,28.3,0c0-9.4,0-18.5,0-27.4c-9.5,0-18.8,0-28.2,0
	c0,9.4,0,18.5,0,27.5c-9.3,0-18.6-0.1-27.8-0.1l0.1,0.1c0-18.8-0.1-37.6-0.1-56.4c27.8,0,55.7,0,84.1,0c0-9.4,0-18.6,0-27.7
	l-0.1,0.1c18.7,0,37.4,0,56,0c0,9.5,0,18.5,0,27.8c-9.2,0-18.2,0-27.2,0c0,9.6,0,18.9,0,28.1c18.8,0,37.3,0,55.8,0
	c0-28.2,0-56.2,0-84.5c-9.5,0-18.8,0-28.5,0c0-28.2,0-56,0-83.7c-9.4,0-18.3,0-27.7,0c0,28,0,55.8,0,83.7c-9.8,0-19.1,0-28.5,0
	l0.1,0.1c0-37.3,0-74.7,0-112.4c9.4,0,18.7,0,28.4,0c0-9.6,0-18.8,0-28c9.1,0,18.2,0,27.7,0c0,9.3,0,18.4,0,27.7
	c9.6,0,18.8,0,28.4,0c0,28.3,0,56.3,0,84.9c9.6,0,18.8,0,28,0l-0.1-0.1c0,9.1,0,18.2,0,27.5c18.8,0,37.3,0,56.2,0
	c0-18.5,0-37,0-56.1c9.8,0,19.2,0,28.7,0c0,9.4,0,18.9,0,28.3c9.4,0,18.5,0,27.4,0c0-9.5,0-18.8,0-28.2c-9.4,0-18.5,0-27.5,0
	c0-9.1,0-18.2,0-27.7c-9.4,0-18.7,0-28.2,0c0-18.9,0-37.4,0-56.4c9.5,0,18.9,0,28.3,0c0,9.1,0,18.2,0,27.9c37.6,0,75.1,0,112.5,0
	l-0.1-0.1c0,9.4,0,18.9,0,28.6c19.2,0,37.8,0,56.4,0l-0.1-0.1c0,18.7,0,37.4,0,56c9.5,0,18.6,0,27.9,0c0-18.9,0-37.4,0-56l-0.1,0.1
	c9.5,0,19,0,28.5,0c0,18.7,0,37.3,0,55.9c9.6,0,18.7,0,27.6,0c0-18.7,0-37.2,0-55.7c-9.4,0-18.6,0-27.7,0c0.1-9.6,0.2-19.2,0.2-28.8
	l-0.1,0.1c18.6,0,37.2,0,56.2,0c0,46.9,0,93.7,0,140.7c9.4,0,18.5,0,27.8,0c0-9.3,0-18.5,0-28c28.3,0,56.3,0,84.8,0
	c0,9.4,0,18.8,0,28.3l0.1-0.1c-18.7,0-37.4,0-56,0c0,9.6,0,18.6,0,27.9c9.5,0,18.7,0,28,0c0,18.8,0,37.3,0,56.2c-9.6,0-19,0-28.3,0
	c0-9.2,0-18.4,0-27.8c-19.1,0-37.7,0-56.3,0c0-9.4,0-18.9,0-28.7c-9.7,0-19,0-28.7,0c0-18.9,0-37.5,0-55.9c-18.8,0-37.3,0-55.8,0
	c0,18.7,0,37.2,0,56.2c9.5,0,18.8,0,28.3,0c0,9.7,0,19.1,0,28.4c-9.4,0-18.9,0-28.5,0c0,19,0,37.6,0,56.2c-9.2,0-18.4,0-27.5,0
	c0,9.4,0,18.5,0,27.6c9.4,0,18.5,0,27.5,0c0,9.4,0,18.9,0,28.5c9.8,0,19.1,0,28.5,0c0,18.8-0.1,37.6-0.1,56.4l0.1-0.1
	c-28.1,0-56.2,0-84.7,0c0-9.5,0-18.8,0-28.3c-9.4,0-18.3,0-27.5,0c0-9.3,0-18.4,0-27.8c9,0,18.1,0,27.3,0c0-9.6,0-18.8,0-28.4
	c-9,0-18.1,0-27.3,0c0-9.4,0-18.3,0-27.7c8.9,0,18,0,27.6,0c0-9.9,0-19.3,0-28.7l-0.1,0.1c9.4,0,18.9,0,28.3,0c0-19.1,0-37.6,0-56.4
	c-9.6,0-18.9,0-28.3,0l0.1,0.1c0-9.3-0.1-18.6-0.1-27.8c9.4,0,18.9,0,28.3,0c0-9.7,0-19,0-28.2c-9.5,0-18.8,0-28.2,0
	c0,9.6,0,19,0,28.3c-9.2,0-18.4,0-27.9,0c0-9.8,0-19.1,0-28.4c-9.6,0-18.8,0-28.4,0c0,9.5,0,18.7,0,28.4c-9.4,0-18.5,0-27.5,0
	c0,28.2,0,55.9,0,84c9.4,0,18.4,0,27.5,0L581.9,413.2z M554.5,216.8c0,18.8,0,37.4,0,55.9c9.3,0,18.3,0,27.2,0c0-18.8,0-37.3,0-55.9
	C572.6,216.8,563.7,216.8,554.5,216.8z M610.7,244.7c0,9.5,0,18.7,0,28.1c9.2,0,18.3,0,27.2,0c0-9.5,0-18.8,0-28.1
	C628.7,244.7,619.8,244.7,610.7,244.7z M610.4,188.2c18.8,0,37.6,0,56.4,0c0,0-0.1,0.1-0.1,0.1c0-18.8,0.1-37.6,0.1-56.4
	c-9.4,0-18.9,0-28.7,0c0,9.8,0,19.1,0,28.7c-9.4,0-18.4,0-27.6,0c0,9.5,0,18.6,0,27.7L610.4,188.2z M891.8,329.2c0,18.6,0,37.2,0,56
	c9.4,0,18.7,0,28.4,0c0-18.7,0-37.4,0-56l0.1,0.1c-9.5,0-19.1,0-28.6,0L891.8,329.2z M920.2,329.2c18.8,0,37.6,0,56.4,0l-0.1,0.1
	c0-9.4,0-18.9,0-28.3c-18.9,0-37.5,0-56.1,0c0,9.6,0,19,0,28.3L920.2,329.2z M694.4,188.2c9.5,0,19.1,0,28.6,0c0,0-0.1,0.1-0.1,0.1
	c0-9.2,0-18.4,0-27.5c-9.7,0-19,0-28.4,0c0,9.4,0,18.4,0,27.5L694.4,188.2z M666.8,188.2c0,9.5,0,19.1,0,28.6l-0.1-0.1
	c9.3,0,18.6,0,27.9,0l-0.1,0.1c0-9.5,0-19.1,0-28.6c0,0,0.1,0.1,0.1,0.1c-9.3,0-18.6,0-27.9,0L666.8,188.2z M300.7,329.3
	c0-9.5,0-19.1,0-28.6c0,0,0.1,0.1,0.1,0.1c-18.7,0-37.4,0-56,0c0,9.7,0,19,0,28.4c18.9,0,37.4,0,56,0L300.7,329.3z M216.8,329.2
	c-9.9,0-19.3,0-28.6,0c0,9.2,0,18.4,0,27.9c9.9,0,19.3,0,28.6,0C216.8,347.9,216.8,338.7,216.8,329.2z M188.3,301
	c-9.5,0-18.6,0-27.9,0c0,9.6,0,18.9,0,28.3c9.3,0,18.6,0,27.9,0C188.3,319.9,188.3,310.4,188.3,301z M413.2,273c9.4,0,18.9,0,28.3,0
	c0-37.7,0-75,0-112.2c-9.5,0-18.8,0-28.2,0c0,37.6,0,74.9,0,112.3C413.3,273.1,413.2,273,413.2,273z M216.7,525.8
	c0-18.6,0-37.2,0-56.4c9.5,0,18.7,0,27.9,0l-0.1,0.1c0-9.3,0-18.6,0-27.9l0.1,0.1c-9.1,0-18.2,0-27.9,0c0-9.7,0-19.2,0-28.6
	c0,0,0.1,0.1,0.1,0.1c-9.4,0-18.9,0-28.7,0c0-9.5,0-18.6,0-27.5c-9.4,0-18.5,0-27.7,0c0,28.1,0,55.9,0,83.8c9.2,0,18.4,0,27.9,0
	c0,18.9,0,37.5,0,56.1c9.7,0,19.1,0,28.4,0L216.7,525.8z M131.9,581.9c9.5,0,19.1,0,28.6,0c0,0-0.1,0.1-0.1,0.1c0-9.2,0-18.4,0-27.5
	c-9.7,0-19,0-28.4,0c0,9.4,0,18.5,0,27.5L131.9,581.9z M582.1,132.1c-9.3,0-18.6,0-27.9,0c0,0,0.1-0.1,0.1-0.1c0,9.4,0,18.9,0,28.3
	c9.4,0,18.5,0,27.6,0c0-9.6,0-19,0-28.3L582.1,132.1z M920.3,750.8c0-19.2,0-37.8,0-56.4c-9.4,0-18.9,0-28.6,0c0,19.2,0,37.8,0,56.4
	C901.1,750.8,910.6,750.8,920.3,750.8z M976.6,666.8c0-9.4,0-18.9,0-28.3c-9.8,0-19.1,0-28.6,0c0,9.6,0,18.9,0,28.3
	C957.5,666.8,967,666.8,976.6,666.8z M948.1,694.6c0-9.7,0-18.8,0-27.9c-9.3,0-18.6,0-27.9,0c0,9.3,0,18.6,0,27.9
	C929.4,694.6,938.6,694.6,948.1,694.6z M864.2,666.8c0-9.8,0-19.1,0-28.3c9.4,0,18.3,0,27.7,0c0,9.5,0,18.8,0,28.3
	c9.8,0,19.1,0,28.5,0c0-28.2,0-56.4,0-84.8c9.5,0,18.6,0,27.8,0c0-9.2,0-18.4,0-27.9c-19.2,0-37.8,0-56.4,0c0,18.7,0,37.4,0,56.4
	c-18.9,0-37.5,0-56.2,0c0,19,0,37.6,0,56.2C844.9,666.8,854.3,666.8,864.2,666.8z M807.1,554.3c-9.1,0-18.2,0-27.9,0
	c0-9.7,0-19.2,0-28.6l0.1,0.1c-9.3,0-18.7,0-28.4,0c0,9.4,0,18.7,0,28.5c-9.6,0-18.8,0-27.9,0l0.1-0.1c0,9.2,0,18.4,0,28
	c9.5,0,18.5,0,27.9,0c0,28.4,0,56.4,0,84.7c19,0,37.5,0,56.1,0c0-18.7,0-37.4,0-56.5c-9.6,0-18.6,0-27.6,0c0-9.6,0-18.8,0-28.4
	c9.2,0,18.3,0,27.5,0c0-9.5,0-18.6,0-27.7L807.1,554.3z M694.6,610.8c-19,0-37.6,0-56.4,0c0,28.1,0,55.9,0,83.8
	c18.8,0,37.6,0,56.4,0C694.6,666.6,694.6,638.7,694.6,610.8z M638.2,413.3c0-18.8,0-37.6,0-56.4l0.1,0.1c-18.6,0-37.2,0-56.2,0
	c0,18.9,0,37.6,0,56.2l-0.1-0.1c18.8,0,37.6,0,56.4,0L638.2,413.3z M806.9,723.1c18.9,0,37.8,0,56.8,0c0-9.8,0-19,0-28.7
	c-9.5,0-18.8,0-28.2,0c0-9.5,0-18.6,0-27.7c-9.5,0-19.1,0-28.6,0C806.9,685.5,806.9,704.3,806.9,723.1z M525.7,723
	c9.4,0,18.9,0,28.7,0c0-9.7,0-19,0-28.6c9.4,0,18.3,0,27.4,0c0-9.3,0-18.3,0-27.4c-18.8,0-37.3,0-56,0c0,18.9,0,37.5,0,56.1
	C525.8,723.1,525.7,723,525.7,723z M441.7,525.7c18.8,0,37.6,0,56.4,0l-0.1,0.1c0-18.7,0-37.4,0-56c-9.7,0-19,0-28.6,0
	c0,9.5,0,18.7,0,28.3c-9.3,0-18.4,0-27.6,0c0,9.5,0,18.6,0,27.7L441.7,525.7z M525.7,525.7c9.4,0,18.7,0,28.6,0c0,9.7,0,19.2,0,28.6
	l-0.1-0.1c9.3,0,18.6,0,27.8,0l-0.1,0.1c0-18.7,0-37.4,0-56c-18.9,0-37.4,0-56.1,0c0,9.4,0,18.4,0,27.5L525.7,525.7z M554.3,554.3
	c-9.5,0-19.1,0-28.6,0l0.1-0.1c0,18.7,0,37.4,0,56.2c9.8,0,19.1,0,28.5,0l-0.1,0.1c0-18.8,0-37.6,0-56.4L554.3,554.3z M441.8,638.2
	c0,9.4,0,18.9,0,28.3c9.4,0,18.5,0,27.4,0c0-9.5,0-18.8,0-28.2c-9.4,0-18.5,0-27.5,0C441.7,638.3,441.8,638.2,441.8,638.2z
	 M610.4,694.4c0,9.9,0,19.3,0,28.6c9.3,0,18.6,0,27.9,0c0-9.5,0-19.1,0-28.6C629.1,694.4,619.9,694.4,610.4,694.4z M581.9,722.9
	c0,9.7,0,18.8,0,27.9c9.4,0,18.9,0,28.6,0c0-9.7,0-18.8,0-27.9C601.1,722.9,591.7,722.9,581.9,722.9z M525.7,554.3
	c0-9.5,0-19.1,0-28.6l0.1,0.1c-9.3,0-18.6,0-27.9,0l0.1-0.1c0,9.5,0,19.1,0,28.6l-0.1-0.1c9.3,0,18.6,0,27.9,0L525.7,554.3z
	 M582,554.2c0,9.2,0,18.4,0,27.6c9.7,0,19,0,28.2,0c0-9.3,0-18.3,0-27.5c-9.6,0-19,0-28.3,0C581.9,554.3,582,554.2,582,554.2z
	 M554.3,610.4c0,9.2,0,18.4,0,27.6c9.4,0,18.5,0,27.4,0c0-9.3,0-18.3,0-27.5c-9.4,0-18.5,0-27.5,0
	C554.2,610.5,554.3,610.4,554.3,610.4z M835.2,835.2c0-9.5,0-18.8,0-28c-9.5,0-18.7,0-28,0c0,9.4,0,18.6,0,28
	C816.7,835.2,826,835.2,835.2,835.2z M216.5,132.3c-28.3,0-56.3,0-84.3,0c0,28.2,0,56.2,0,84.3c28.1,0,56.1,0,84.3,0
	C216.5,188.3,216.5,160.2,216.5,132.3z M864.3,132.3c0,28.3,0,56.3,0,84.3c28,0,55.7,0,83.5,0c0-28.1,0-56.1,0-84.3
	C919.8,132.3,892,132.3,864.3,132.3z M132.3,864.3c0,28,0,55.8,0,83.5c28.2,0,56.2,0,84.3,0c0-27.9,0-55.6,0-83.5
	C188.3,864.3,160.2,864.3,132.3,864.3z M722.9,385.4c0,18.8,0.1,37.6,0.1,56.4l-0.1-0.1c9.1,0,18.2,0,27.9,0c0,9.5,0,18.7,0,27.9
	l-0.1-0.1c9.4,0,18.9,0,28.6,0c0,19.2,0,37.8,0,56.4l-0.1-0.1c9.3,0,18.6,0,27.9,0l-0.1,0.1c0-18.7,0-37.4,0-56.2
	c9.9,0,19.3,0,28.6,0c0-18.8,0-37.6,0-56.4c-18.7,0-37.4,0-56.2,0c0-9.5,0-18.6,0-27.8C760.5,385.4,741.7,385.4,722.9,385.4z
	 M807.1,525.7c0,9.5,0,19.1,0,28.6l-0.1-0.1c9.5,0,19.1,0.1,28.6,0.1c0-9.4,0-18.9,0-28.5c-9.9,0-19.3,0-28.6,0L807.1,525.7z
	 M835.4,581.7c9.8,0,19.1,0,28.6,0c0-9.4,0-18.4,0-27.5c-9.5,0-19.1,0-28.6,0C835.4,563.4,835.4,572.6,835.4,581.7z M300.7,469.6
	c9.4,0,18.9,0,28.5,0c0,9.8,0,19.1,0,28.5c9.2,0,18.4,0,27.9,0c0-19.2,0-37.8,0-56.4c-18.8,0-37.6,0-56.4,0
	C300.7,451,300.7,460.3,300.7,469.6z M750.7,498.1c0-9.9,0-19.3,0-28.6l0.1,0.1c-9.3,0-18.6,0-27.9,0c0,0,0.1-0.1,0.1-0.1
	c0,9.5-0.1,19.1-0.1,28.6C732.1,498.1,741.3,498.1,750.7,498.1z M723.1,469.4l-0.1,0.1c0-9.3,0-18.6,0-27.9l0.1,0.1
	c-9.5,0-19.1-0.1-28.6-0.1c0,9.3,0,18.6,0,27.9C704,469.5,713.5,469.5,723.1,469.4z"/>
</svg>
