<?xml version="1.0" encoding="utf-8"?>
<!-- Generator: Adobe Illustrator 22.0.0, SVG Export Plug-In . SVG Version: 6.00 Build 0)  -->
<svg version="1.1" id="Layer_1" xmlns="http://www.w3.org/2000/svg" xmlns:xlink="http://www.w3.org/1999/xlink" x="0px" y="0px"
	 viewBox="0 0 504 288" style="enable-background:new 0 0 504 288;" xml:space="preserve">
<style type="text/css">
	.st0{fill:url(#SVGID_1_);}
	.st1{fill:url(#SVGID_2_);}
	.st2{fill:url(#SVGID_3_);}
	.st3{fill:url(#SVGID_4_);}
	.st4{fill:url(#SVGID_5_);}
	.st5{fill:url(#SVGID_6_);}
	.st6{fill:url(#SVGID_7_);}
</style>
<linearGradient id="SVGID_1_" gradientUnits="userSpaceOnUse" x1="92.6147" y1="205.8321" x2="434.5321" y2="73.1883">
	<stop  offset="1.682955e-07" style="stop-color:#6F6C72"/>
	<stop  offset="0.2122" style="stop-color:#B7B1AF"/>
	<stop  offset="0.792" style="stop-color:#767376"/>
	<stop  offset="1" style="stop-color:#9E9C91"/>
</linearGradient>
<rect class="st0" width="504" height="288"/>
<g>
	<g>
		<linearGradient id="SVGID_2_" gradientUnits="userSpaceOnUse" x1="0" y1="40.1045" x2="504" y2="40.1045">
			<stop  offset="0" style="stop-color:#00486A"/>
			<stop  offset="1" style="stop-color:#005AD4"/>
		</linearGradient>
		<path class="st1" d="M504,80.2c0,0-37-13-66.5-11.3c-29.5,1.6-49.9,7.8-49.9,7.8s-24.7,6.2-70.4-7.9
			C238.9,44.5,197.9,35.5,112.6,51C33.8,65.3,0,37.7,0,37.7V0h504V80.2z"/>
	</g>
	<g>
		<linearGradient id="SVGID_3_" gradientUnits="userSpaceOnUse" x1="252" y1="76.3333" x2="252" y2="4.9222">
			<stop  offset="1.682955e-07" style="stop-color:#00486A;stop-opacity:0.5"/>
			<stop  offset="1" style="stop-color:#005AD4"/>
		</linearGradient>
		<path class="st2" d="M504,80.2c0,0-36.9-18.6-66.5-17.3c-27.5,1.1-44.4,6.4-49.9,7.8c-16.7,3-28.3,1.4-70.4-12.9
			C240.8,31.7,197.9,16.5,112.6,32C33.8,46.3,0,18.7,0,18.7V0h504V80.2z"/>
	</g>
	<linearGradient id="SVGID_4_" gradientUnits="userSpaceOnUse" x1="0" y1="40.1045" x2="504" y2="40.1045">
		<stop  offset="0" style="stop-color:#001855;stop-opacity:0.5"/>
		<stop  offset="1" style="stop-color:#005AD4"/>
	</linearGradient>
	<path class="st3" d="M0,80.2c0,0,37-13,66.5-11.3s51.8,8.1,51.8,8.1c12.7,3.3,25.6,6.5,68.5-8.3C262.9,42.4,378,34.8,458,57.8
		c18.7,5.4,46,22.4,46,22.4V0H0V80.2z"/>
</g>
<g>
	<g>
		
			<linearGradient id="SVGID_5_" gradientUnits="userSpaceOnUse" x1="0" y1="247.8955" x2="504" y2="247.8955" gradientTransform="matrix(-1 0 0 -1 504 495.7911)">
			<stop  offset="0" style="stop-color:#00486A"/>
			<stop  offset="1" style="stop-color:#005AD4"/>
		</linearGradient>
		<path class="st4" d="M0,207.8c0,0,37,13,66.5,11.3s49.9-7.8,49.9-7.8s24.7-6.2,70.4,7.9c78.3,24.2,119.3,33.3,204.7,17.7
			c78.8-14.3,112.6,13.3,112.6,13.3V288H0V207.8z"/>
	</g>
	<g>
		
			<linearGradient id="SVGID_6_" gradientUnits="userSpaceOnUse" x1="252" y1="284.1244" x2="252" y2="212.7132" gradientTransform="matrix(-1 0 0 -1 504 495.7911)">
			<stop  offset="1.682955e-07" style="stop-color:#00486A;stop-opacity:0.5"/>
			<stop  offset="1" style="stop-color:#005AD4"/>
		</linearGradient>
		<path class="st5" d="M0,207.8c0,0,36.9,18.6,66.5,17.3c27.5-1.1,44.4-6.4,49.9-7.8c16.7-3,28.3-1.4,70.4,12.9
			c76.4,26.1,119.3,41.3,204.7,25.7c78.8-14.3,112.6,13.3,112.6,13.3V288H0V207.8z"/>
	</g>
	
		<linearGradient id="SVGID_7_" gradientUnits="userSpaceOnUse" x1="0" y1="247.8955" x2="504" y2="247.8955" gradientTransform="matrix(-1 0 0 -1 504 495.7911)">
		<stop  offset="0" style="stop-color:#001855;stop-opacity:0.5"/>
		<stop  offset="1" style="stop-color:#005AD4"/>
	</linearGradient>
	<path class="st6" d="M504,207.8c0,0-37,13-66.5,11.3c-29.5-1.6-51.8-8.1-51.8-8.1c-12.7-3.3-25.6-6.5-68.5,8.3
		C241.1,245.6,126,253.2,46,230.2c-18.7-5.4-46-22.4-46-22.4V288h504V207.8z"/>
</g>
</svg>
