<?xml version="1.0" encoding="utf-8"?>
<!-- Generator: Adobe Illustrator 22.0.0, SVG Export Plug-In . SVG Version: 6.00 Build 0)  -->
<svg version="1.1" id="Layer_1" xmlns="http://www.w3.org/2000/svg" xmlns:xlink="http://www.w3.org/1999/xlink" x="0px" y="0px"
	 viewBox="0 0 402 402" style="enable-background:new 0 0 402 402;" xml:space="preserve">
<style type="text/css">
	.st0{enable-background:new    ;}
</style>
<path d="M339.8,80.9c-1.2-8.3-2.1-16.1-3.3-24C326.6,66.1,324.9,76.6,339.8,80.9z"/>
<path d="M314.1,337c-0.3-14.5,1-29,2-43.5c1.5-19.5,3.3-39.1,5.1-59.9c-1.6,0.4-3.1,0.9-4.7,1.2c-6,11.8-12.1,23.8-17.8,35.8
	c-4.8,10-12.7,20.4-12.9,30.6c-0.5,22.5,1.3,45.5,5.2,67.8c3.1,17.7,24.5,21.7,38.6,7.7C312.3,368.2,314.4,351.7,314.1,337z"/>
<path d="M392.9,103.3c-10-1.1-21.2-1.9-29.3-7c-7.7-4.9-14.6-10.1-23.8-11.8c-10.5-2-16.3-9.1-17.2-19.5c-0.2-2.6,0-5.1,0-7.7
	c-5.2,3.3-9.2,7.2-11.5,11.8c-3.5,7-6.3,14.4-9,21.9c-6.9,19.3-15.2,37.8-29.3,53c-18.2,19.5-42.3,26.6-67.7,30
	c-24.7,3.4-49.5,5.1-74,9.5c-18.1,3.3-31.3,12.9-38.6,27.5c-3.3,4.1-6.7,8.1-10.2,11.8c8.8,1,17.6,1.3,26.5-0.1
	c5.8-0.9,11.3-2.2,16-6.1c7.4-6.1,14.8-12,22.3-17.9c2-1.6,4.5-1.4,6.2,0.4c1.6,1.8,1.5,4.4-0.2,6.2c-2.7,2.8-5.2,5.5-7.9,8.2
	c-1.1,1.2-1.8,2.3-1,3.8c0.9,1.5,2.1,1.8,3.7,1.3c4.6-1.4,9.1-2.8,13.7-4.2c7.7-2.5,15.4-4.9,23.2-7.3c2.7-0.9,4.9,0.6,5,3
	c0,2.1-1.3,3.1-3.2,3.7c-9.6,3.2-19.1,6.4-28.6,9.7c-1.4,0.4-2.8,1.2-2.3,2.9c0.4,1.8,1.8,1.9,3.6,1.7c10.8-1.5,21.7-2.8,32.5-4.1
	c2.1-0.2,3.6,1.1,3.9,3.1c0.2,1.9-1.2,3.7-3.3,4.1c-6.5,1.1-13.1,2-19.6,3c-4.3,0.6-8.4,1.3-12.7,2.1c-0.7,0.1-1.3,1.5-1.9,2.2
	c0.7,0.6,1.5,1.3,2.3,1.9c0.2,0.2,0.6,0,1.1,0c7.8,0,15.7,0,23.5,0c0.7,0,1.5,0,2.2,0.2c1.6,0.3,2.2,1.5,2.3,3
	c0,1.5-0.7,2.5-2.2,2.9c-1,0.3-2,0.3-3.1,0.4c-8.9,0.9-17.6,1.6-26.5,2.3c-1.4,0.1-2.8,0.5-2.7,2.2c0,1.6,1.5,1.8,2.8,1.9
	c3.2,0.3,6.3,0.6,9.5,1c2.6,0.3,5.1,0.5,7.6,1c1.7,0.3,3,1.2,2.9,3.2c0,1.7-1.4,2.9-3.4,2.9c-0.3,0-0.5,0-0.9,0
	c-17.4,0-34.9,0-52.3-1.7c-7.7-0.7-15.4-1.5-23.2-2.3c-3.8-0.4-7.7-1-12.2-1.5c-14-2.9-26.1-5.8-36.7-8.8
	c-6.1,2.6-12.3,4.9-18.1,7.8c-13,6.4-23.9,15.2-28.5,29.7c-5.5,17.4,1.2,32.2,18.1,38.1c-6.5-16.4-1.1-28.6,12.5-37.6
	c3.8-2.6,7.5-5.3,11.6-7.3c13.3-6.4,26.9-12.3,40.2-18.8c0.1,4.8,0.4,9.5,0.9,14.2c1.9,22.1,1.1,43.3-6.7,64.6
	c-3.9,10.7-6.4,22.4-6.5,33.6c-0.2,21.3,24.8,34.7,42.2,21.9c-0.6-1.2-1.2-2.7-2.1-3.7c-10.2-12.5-11.5-26.7-6.4-41.2
	c4.1-11.7,9.4-22.9,14.6-34.3c7-15.4,12.1-25.7,10.2-42.9c-0.1-0.6-0.3-1.4-0.1-1.8c1.7-2.5,3.5-4.9,5.2-7.4
	c1.8,1.9,4.9,3.6,5.3,5.9c1,5,1.8,5.1,0.5,9.8c-4.2,16-9.7,31.8-14.1,47.8c-2.9,10.4-6.1,21-6.4,31.7c-0.3,11.1,8.9,16.1,20.5,12.4
	c-4.7-25.8,8.1-45.5,22.9-65.1c11.4-15.2,21-31.7,30.8-48c5.1-8.5,9-17.9,13.8-26.7c1.8-3.4,4.6-6.4,7.7-10.6
	c1.8,5.8,3.1,9.8,4.7,15c2.1-4.3,3.5-6.9,4.8-9.5c1.9,6.1,2.7,12.3,5.7,17c4.2,6.5,9.6,12.5,15.3,17.7c6.1,5.5,4.1,10.6-0.4,14.6
	c-3,2.7-7.7,3.9-11.8,4.8c-5.8,1.2-8.5,3.7-5.7,9.4c7.6,14.6,7.5,30.4,7.6,46.2c0.1,13.7-0.5,27.3,0,41c0.4,9.8,4.2,18.7,14.1,22.6
	c10,4.1,20.1,3.8,30.9-3.6c-12.4-6.9-14-17.6-14.7-28.7c-2.1-32.4,5.7-62.6,20.8-91c6.7-12.7,13.1-25.5,19-38.5
	c-5.7,1-11.3,1.7-17.1,2.2c-8.4,0.7-17,0.7-25.5,1c-5.8,0.1-11.5,0.2-17.2,0.2c-2.2,0-3.5-1.2-3.5-3s1.2-2.9,3.4-3.2
	c2.6-0.3,5.2-0.5,7.8-0.9c3.2-0.3,6.5-0.6,9.7-1.2c0.7-0.1,1.7-1.2,1.7-1.8s-1-1.5-1.7-1.9s-1.7-0.3-2.7-0.4
	c-8.8-0.7-17.5-1.5-26.3-2.3c-2.5-0.2-3.7-1.5-3.6-3.4c0.1-2,1.5-3,4.2-3c8,0,16,0,24,0c1.5,0,2.9-0.1,3.1-1.9
	c0.2-1.8-1.2-2.2-2.7-2.5c-3.8-0.6-7.7-1.2-11.4-1.8c-6.7-1.1-13.6-2-20.3-3.2c-2-0.3-3.4-2.2-3.2-3.9c0.3-2,2.1-3.4,4.4-3.2
	c1.5,0.2,2.9,0.3,4.3,0.5c9.6,1.3,19.2,2.5,28.8,3.7c1.4,0.2,2.3-0.4,2.7-1.7c0.3-1.3-0.2-2.2-1.6-2.7c-2.3-0.7-4.7-1.6-7-2.5
	c-7.7-2.6-15.3-5.2-22.9-7.9c-2.6-0.9-3.4-3.6-1.7-5.7c1.2-1.4,2.8-1.3,4.4-0.9c10.8,3.4,21.4,6.8,32.2,10.1c1.6,0.5,3.3,1.2,5,1.2
	c1.1,0,2.5-0.6,3-1.5c0.4-0.7-0.1-2.1-0.4-3.1c-0.2-0.6-1-1.1-1.5-1.7c-2.3-2.5-4.7-4.9-7-7.4c-1.3-1.4-1.7-3.3-0.6-4.8
	c0.9-1.2,2.5-2.3,3.7-2.5c1.5,0,3.1,1,4.4,1.9c6.2,4.8,12.4,9.6,18.2,14.7c6.9,6.1,14.7,8.9,23.9,7.3c1.3-0.2,2.6-0.4,3.7-0.7
	c2.5-7.7,4.7-15.6,6.5-23.5c3.3-14.6,11.4-22.4,25.9-25.3c20.9-4.2,38.2-13.6,45.6-35.5C403.5,105.1,402.8,104.4,392.9,103.3z"/>
<g class="st0">
	<path d="M35.2,25.8v38.5c3.3-3.8,6.5-6.8,9.6-9c3.1-2.2,6.6-3.9,10.4-5c3.8-1.1,7.9-1.7,12.2-1.7c6.6,0,12.4,1.4,17.5,4.2
		c5.1,2.8,9.1,6.8,12,12.2c1.8,3.1,3.1,6.6,3.7,10.4c0.6,3.8,0.9,8.2,0.9,13.2v49.7c0,5.2-1.2,9.1-3.6,11.8c-2.4,2.7-5.5,4-9.4,4
		c-8.5,0-12.8-5.3-12.8-15.8V94.5c0-8.3-1.2-14.7-3.7-19.1c-2.5-4.5-7.2-6.7-14.1-6.7c-4.6,0-8.8,1.3-12.5,3.9
		c-3.7,2.6-6.5,6.2-8.3,10.8c-1.4,3.9-2.1,10.7-2.1,20.6v34.3c0,5.1-1.2,9-3.5,11.7c-2.3,2.7-5.5,4-9.6,4c-8.5,0-12.8-5.3-12.8-15.8
		V25.8c0-5.3,1.1-9.2,3.4-11.8c2.2-2.6,5.4-3.9,9.4-3.9c4.1,0,7.3,1.3,9.6,4C34.1,16.7,35.2,20.6,35.2,25.8z"/>
	<path d="M151.2,63.1v3.1c4.9-6,9.9-10.4,15.2-13.2c5.3-2.8,11.2-4.2,17.8-4.2c8,0,15.3,2.1,22,6.2c6.7,4.1,12,10.1,15.9,18
		c3.9,7.9,5.8,17.3,5.8,28.1c0,8-1.1,15.3-3.4,22c-2.2,6.7-5.3,12.3-9.3,16.8c-3.9,4.5-8.6,8-13.9,10.4c-5.3,2.4-11.1,3.7-17.2,3.7
		c-7.4,0-13.6-1.5-18.7-4.5c-5-3-9.8-7.3-14.4-13.1v38.9c0,11.4-4.1,17.1-12.4,17.1c-4.9,0-8.1-1.5-9.7-4.4
		c-1.6-2.9-2.4-7.2-2.4-12.9V63.3c0-4.9,1.1-8.6,3.2-11.1c2.2-2.4,5.1-3.7,8.8-3.7c3.7,0,6.7,1.3,9,3.8
		C150.1,54.9,151.2,58.4,151.2,63.1z M202,100.8c0-6.8-1-12.7-3.1-17.6c-2.1-4.9-5-8.7-8.7-11.3c-3.7-2.6-7.8-3.9-12.3-3.9
		c-7.2,0-13.2,2.8-18.1,8.5c-4.9,5.6-7.4,13.9-7.4,24.9c0,10.3,2.4,18.3,7.3,24.1c4.9,5.7,10.9,8.6,18.1,8.6c4.3,0,8.3-1.2,12-3.8
		c3.7-2.5,6.6-6.3,8.8-11.3C200.9,114,202,107.9,202,100.8z"/>
	<path d="M246.8,50.9h6.2v-7.8c0-8.1,1-14.5,3.1-19.3c2.1-4.8,5.5-8.3,10.4-10.4s11.6-3.3,20.2-3.3c15.1,0,22.7,3.7,22.7,11.1
		c0,2.4-0.8,4.5-2.4,6.2c-1.6,1.7-3.5,2.6-5.6,2.6c-1,0-2.8-0.2-5.2-0.6c-2.5-0.4-4.6-0.6-6.3-0.6c-4.7,0-7.7,1.4-9,4.1
		s-2,6.7-2,11.8v6.2h6.4c9.9,0,14.8,3,14.8,8.9c0,4.2-1.3,6.9-3.9,8.1c-2.6,1.1-6.3,1.7-10.9,1.7h-6.4v68.6c0,5.1-1.2,9-3.7,11.7
		c-2.4,2.7-5.6,4-9.4,4c-3.7,0-6.7-1.3-9.2-4c-2.4-2.7-3.7-6.6-3.7-11.7V69.6h-7.1c-3.9,0-6.8-0.9-8.9-2.6c-2.1-1.7-3.1-4-3.1-6.8
		C233.7,54,238.1,50.9,246.8,50.9z"/>
</g>
</svg>
