<?xml version="1.0" encoding="utf-8"?>
<!-- Generator: Adobe Illustrator 22.0.0, SVG Export Plug-In . SVG Version: 6.00 Build 0)  -->
<svg version="1.1" id="Layer_1" xmlns="http://www.w3.org/2000/svg" xmlns:xlink="http://www.w3.org/1999/xlink" x="0px" y="0px"
	 viewBox="0 0 402 348" style="enable-background:new 0 0 402 348;" xml:space="preserve">
<style type="text/css">
	.st0{font-family:'ArialRoundedMTBold';}
	.st1{font-size:117.0324px;}
</style>
<path d="M332.7,32.4c-1.1-7.8-2-15.1-3.1-22.5C320.3,18.5,318.7,28.4,332.7,32.4z"/>
<path d="M308.6,272.4c-0.3-13.6,0.9-27.2,1.9-40.8c1.4-18.3,3.1-36.6,4.8-56.1c-1.5,0.4-2.9,0.8-4.4,1.1
	c-5.6,11.1-11.3,22.3-16.7,33.5c-4.5,9.4-11.9,19.1-12.1,28.7c-0.5,21.1,1.2,42.6,4.9,63.5c2.9,16.6,23,20.3,36.2,7.2
	C306.9,301.6,308.9,286.2,308.6,272.4z"/>
<path d="M382.4,53.4c-9.4-1-19.9-1.8-27.5-6.6c-7.2-4.6-13.7-9.5-22.3-11.1c-9.8-1.9-15.3-8.5-16.1-18.3c-0.2-2.4,0-4.8,0-7.2
	c-4.9,3.1-8.6,6.7-10.8,11.1c-3.3,6.6-5.9,13.5-8.4,20.5c-6.5,18.1-14.2,35.4-27.5,49.7c-17.1,18.3-39.6,24.9-63.4,28.1
	c-23.1,3.2-46.4,4.8-69.3,8.9c-17,3.1-29.3,12.1-36.2,25.8c-3.1,3.8-6.3,7.6-9.6,11.1c8.2,0.9,16.5,1.2,24.8-0.1
	c5.4-0.8,10.6-2.1,15-5.7c6.9-5.7,13.9-11.2,20.9-16.8c1.9-1.5,4.2-1.3,5.8,0.4c1.5,1.7,1.4,4.1-0.2,5.8c-2.5,2.6-4.9,5.2-7.4,7.7
	c-1,1.1-1.7,2.2-0.9,3.6c0.8,1.4,2,1.7,3.5,1.2c4.3-1.3,8.5-2.6,12.8-3.9c7.2-2.3,14.4-4.6,21.7-6.8c2.5-0.8,4.6,0.6,4.7,2.8
	c0,2-1.2,2.9-3,3.5c-9,3-17.9,6-26.8,9.1c-1.3,0.4-2.6,1.1-2.2,2.7c0.4,1.7,1.7,1.8,3.4,1.6c10.1-1.4,20.3-2.6,30.5-3.8
	c2-0.2,3.4,1,3.7,2.9c0.2,1.8-1.1,3.5-3.1,3.8c-6.1,1-12.3,1.9-18.4,2.8c-4,0.6-7.9,1.2-11.9,2c-0.7,0.1-1.2,1.4-1.8,2.1
	c0.7,0.6,1.4,1.2,2.2,1.8c0.2,0.2,0.6,0,1,0c7.3,0,14.7,0,22,0c0.7,0,1.4,0,2.1,0.2c1.5,0.3,2.1,1.4,2.2,2.8c0,1.4-0.7,2.3-2.1,2.7
	c-0.9,0.3-1.9,0.3-2.9,0.4c-8.3,0.8-16.5,1.5-24.8,2.2c-1.3,0.1-2.6,0.5-2.5,2.1c0,1.5,1.4,1.7,2.6,1.8c3,0.3,5.9,0.6,8.9,0.9
	c2.4,0.3,4.8,0.5,7.1,0.9c1.6,0.3,2.8,1.1,2.7,3c0,1.6-1.3,2.7-3.2,2.7c-0.3,0-0.5,0-0.8,0c-16.3,0-32.7,0-49-1.6
	c-7.2-0.7-14.4-1.4-21.7-2.2c-3.6-0.4-7.2-0.9-11.4-1.4c-13.1-2.7-24.5-5.4-34.4-8.2c-5.7,2.4-11.5,4.6-17,7.3
	c-12.2,6-22.4,14.2-26.7,27.8c-5.2,16.3,1.1,30.2,17,35.7c-6.1-15.4-1-26.8,11.7-35.2c3.6-2.4,7-5,10.9-6.8
	c12.5-6,25.2-11.5,37.7-17.6c0.1,4.5,0.4,8.9,0.8,13.3c1.8,20.7,1,40.6-6.3,60.5c-3.7,10-6,21-6.1,31.5c-0.2,20,23.2,32.5,39.5,20.5
	c-0.6-1.1-1.1-2.5-2-3.5c-9.6-11.7-10.8-25-6-38.6c3.8-11,8.8-21.5,13.7-32.1c6.6-14.4,11.3-24.1,9.6-40.2c-0.1-0.6-0.3-1.3-0.1-1.7
	c1.6-2.3,3.3-4.6,4.9-6.9c1.7,1.8,4.6,3.4,5,5.5c0.9,4.7,1.7,4.8,0.5,9.2c-3.9,15-9.1,29.8-13.2,44.8c-2.7,9.7-5.7,19.7-6,29.7
	c-0.3,10.4,8.3,15.1,19.2,11.6c-4.4-24.2,7.6-42.6,21.5-61c10.7-14.2,19.7-29.7,28.9-45c4.8-8,8.4-16.8,12.9-25
	c1.7-3.2,4.3-6,7.2-9.9c1.7,5.4,2.9,9.2,4.4,14.1c2-4,3.3-6.5,4.5-8.9c1.8,5.7,2.5,11.5,5.3,15.9c3.9,6.1,9,11.7,14.3,16.6
	c5.7,5.2,3.8,9.9-0.4,13.7c-2.8,2.5-7.2,3.7-11.1,4.5c-5.4,1.1-8,3.5-5.3,8.8c7.1,13.7,7,28.5,7.1,43.3c0.1,12.8-0.5,25.6,0,38.4
	c0.4,9.2,3.9,17.5,13.2,21.2c9.4,3.8,18.8,3.6,29-3.4c-11.6-6.5-13.1-16.5-13.8-26.9c-2-30.4,5.3-58.7,19.5-85.3
	c6.3-11.9,12.3-23.9,17.8-36.1c-5.3,0.9-10.6,1.6-16,2.1c-7.9,0.7-15.9,0.7-23.9,0.9c-5.4,0.1-10.8,0.2-16.1,0.2
	c-2.1,0-3.3-1.1-3.3-2.8c0-1.7,1.1-2.7,3.2-3c2.4-0.3,4.9-0.5,7.3-0.8c3-0.3,6.1-0.6,9.1-1.1c0.7-0.1,1.6-1.1,1.6-1.7
	c0-0.6-0.9-1.4-1.6-1.8c-0.7-0.4-1.6-0.3-2.5-0.4c-8.2-0.7-16.4-1.4-24.6-2.2c-2.3-0.2-3.5-1.4-3.4-3.2c0.1-1.9,1.4-2.8,3.9-2.8
	c7.5,0,15,0,22.5,0c1.4,0,2.7-0.1,2.9-1.8c0.2-1.7-1.1-2.1-2.5-2.3c-3.6-0.6-7.2-1.1-10.7-1.7c-6.3-1-12.7-1.9-19-3
	c-1.9-0.3-3.2-2.1-3-3.7c0.3-1.9,2-3.2,4.1-3c1.4,0.2,2.7,0.3,4,0.5c9,1.2,18,2.3,27,3.5c1.3,0.2,2.2-0.4,2.5-1.6
	c0.3-1.2-0.2-2.1-1.5-2.5c-2.2-0.7-4.4-1.5-6.6-2.3c-7.2-2.4-14.3-4.9-21.5-7.4c-2.4-0.8-3.2-3.4-1.6-5.3c1.1-1.3,2.6-1.2,4.1-0.8
	c10.1,3.2,20.1,6.4,30.2,9.5c1.5,0.5,3.1,1.1,4.7,1.1c1,0,2.3-0.6,2.8-1.4c0.4-0.7-0.1-2-0.4-2.9c-0.2-0.6-0.9-1-1.4-1.6
	c-2.2-2.3-4.4-4.6-6.6-6.9c-1.2-1.3-1.6-3.1-0.6-4.5c0.8-1.1,2.3-2.2,3.5-2.3c1.4,0,2.9,0.9,4.1,1.8c5.8,4.5,11.6,9,17.1,13.8
	c6.5,5.7,13.8,8.3,22.4,6.8c1.2-0.2,2.4-0.4,3.5-0.7c2.3-7.2,4.4-14.6,6.1-22c3.1-13.7,10.7-21,24.3-23.7
	c19.6-3.9,35.8-12.7,42.7-33.3C392.4,55.1,391.7,54.4,382.4,53.4z"/>
<text transform="matrix(1 0 0 1 26.8877 110.3135)" class="st0 st1">hpf</text>
</svg>
