<?xml version="1.0" encoding="utf-8"?>
<!-- Generator: Adobe Illustrator 28.4.1, SVG Export Plug-In . SVG Version: 6.00 Build 0)  -->
<svg version="1.1" id="Layer_1" xmlns="http://www.w3.org/2000/svg" xmlns:xlink="http://www.w3.org/1999/xlink" x="0px" y="0px"
	 viewBox="0 0 500 500" style="enable-background:new 0 0 500 500;" xml:space="preserve">
<style type="text/css">
	.st0{fill:#FFFFFF;}
</style>
<path class="st0" d="M410,78.1c-1.3-9.5-2.4-18.4-3.8-27.4C394.9,61.2,393,73.2,410,78.1z"/>
<path class="st0" d="M380.7,370.5c-0.4-16.6,1.1-33.1,2.3-49.7c1.7-22.3,3.8-44.6,5.8-68.3c-1.8,0.5-3.5,1-5.4,1.3
	c-6.8,13.5-13.8,27.2-20.3,40.8c-5.5,11.5-14.5,23.3-14.7,35c-0.6,25.7,1.5,51.9,6,77.4c3.5,20.2,28,24.7,44.1,8.8
	C378.6,406.1,381,387.3,380.7,370.5z"/>
<path class="st0" d="M470.6,103.7c-11.5-1.2-24.2-2.2-33.5-8c-8.8-5.6-16.7-11.6-27.2-13.5c-11.9-2.3-18.6-10.4-19.6-22.3
	c-0.2-2.9,0-5.8,0-8.8c-6,3.8-10.5,8.2-13.2,13.5c-4,8-7.2,16.4-10.2,25c-7.9,22.1-17.3,43.1-33.5,60.5
	c-20.8,22.3-48.2,30.3-77.2,34.2c-28.1,3.9-56.5,5.8-84.4,10.8c-20.7,3.8-35.7,14.7-44.1,31.4c-3.8,4.6-7.7,9.3-11.7,13.5
	c10,1.1,20.1,1.5,30.2-0.1c6.6-1,12.9-2.6,18.3-6.9c8.4-6.9,16.9-13.6,25.5-20.5c2.3-1.8,5.1-1.6,7.1,0.5c1.8,2.1,1.7,5-0.2,7.1
	c-3,3.2-6,6.3-9,9.4c-1.2,1.3-2.1,2.7-1.1,4.4c1,1.7,2.4,2.1,4.3,1.5c5.2-1.6,10.4-3.2,15.6-4.8c8.8-2.8,17.5-5.6,26.4-8.3
	c3-1,5.6,0.7,5.7,3.4c0,2.4-1.5,3.5-3.7,4.3c-11,3.7-21.8,7.3-32.7,11.1c-1.6,0.5-3.2,1.3-2.7,3.3c0.5,2.1,2.1,2.2,4.1,1.9
	c12.3-1.7,24.7-3.2,37.2-4.6c2.4-0.2,4.1,1.2,4.5,3.5c0.2,2.2-1.3,4.3-3.8,4.6c-7.4,1.2-15,2.3-22.4,3.4c-4.9,0.7-9.6,1.5-14.5,2.4
	c-0.9,0.1-1.5,1.7-2.2,2.6c0.9,0.7,1.7,1.5,2.7,2.2c0.2,0.2,0.7,0,1.2,0c8.9,0,17.9,0,26.8,0c0.9,0,1.7,0,2.6,0.2
	c1.8,0.4,2.6,1.7,2.7,3.4c0,1.7-0.9,2.8-2.6,3.3c-1.1,0.4-2.3,0.4-3.5,0.5c-10.1,1-20.1,1.8-30.2,2.7c-1.6,0.1-3.2,0.6-3,2.6
	c0,1.8,1.7,2.1,3.2,2.2c3.7,0.4,7.2,0.7,10.8,1.1c2.9,0.4,5.8,0.6,8.6,1.1c1.9,0.4,3.4,1.3,3.3,3.7c0,1.9-1.6,3.3-3.9,3.3
	c-0.4,0-0.6,0-1,0c-19.9,0-39.8,0-59.7-1.9c-8.8-0.9-17.5-1.7-26.4-2.7c-4.4-0.5-8.8-1.1-13.9-1.7c-16-3.3-29.8-6.6-41.9-10
	c-6.9,2.9-14,5.6-20.7,8.9c-14.9,7.3-27.3,17.3-32.5,33.9c-6.3,19.9,1.3,36.8,20.7,43.5c-7.4-18.8-1.2-32.7,14.3-42.9
	c4.4-2.9,8.5-6.1,13.3-8.3c15.2-7.3,30.7-14,45.9-21.4c0.1,5.5,0.5,10.8,1,16.2c2.2,25.2,1.2,49.5-7.7,73.7
	c-4.5,12.2-7.3,25.6-7.4,38.4c-0.2,24.4,28.3,39.6,48.1,25c-0.7-1.3-1.3-3-2.4-4.3c-11.7-14.3-13.2-30.5-7.3-47
	c4.6-13.4,10.7-26.2,16.7-39.1c8-17.5,13.8-29.4,11.7-49c-0.1-0.7-0.4-1.6-0.1-2.1c1.9-2.8,4-5.6,6-8.4c2.1,2.2,5.6,4.1,6.1,6.7
	c1.1,5.7,2.1,5.8,0.6,11.2c-4.8,18.3-11.1,36.3-16.1,54.6c-3.3,11.8-6.9,24-7.3,36.2c-0.4,12.7,10.1,18.4,23.4,14.1
	c-5.4-29.5,9.3-51.9,26.2-74.3c13-17.3,24-36.2,35.2-54.8c5.8-9.7,10.2-20.5,15.7-30.5c2.1-3.9,5.2-7.3,8.8-12.1
	c2.1,6.6,3.5,11.2,5.4,17.2c2.4-4.9,4-7.9,5.5-10.8c2.2,6.9,3,14,6.5,19.4c4.8,7.4,11,14.3,17.4,20.2c6.9,6.3,4.6,12.1-0.5,16.7
	c-3.4,3-8.8,4.5-13.5,5.5c-6.6,1.3-9.7,4.3-6.5,10.7c8.6,16.7,8.5,34.7,8.6,52.8c0.1,15.6-0.6,31.2,0,46.8
	c0.5,11.2,4.8,21.3,16.1,25.8c11.5,4.6,22.9,4.4,35.3-4.1c-14.1-7.9-16-20.1-16.8-32.8c-2.4-37,6.5-71.5,23.8-103.9
	c7.7-14.5,15-29.1,21.7-44c-6.5,1.1-12.9,1.9-19.5,2.6c-9.6,0.9-19.4,0.9-29.1,1.1c-6.6,0.1-13.2,0.2-19.6,0.2c-2.6,0-4-1.3-4-3.4
	c0-2.1,1.3-3.3,3.9-3.7c2.9-0.4,6-0.6,8.9-1c3.7-0.4,7.4-0.7,11.1-1.3c0.9-0.1,1.9-1.3,1.9-2.1c0-0.7-1.1-1.7-1.9-2.2
	c-0.9-0.5-1.9-0.4-3-0.5c-10-0.9-20-1.7-30-2.7c-2.8-0.2-4.3-1.7-4.1-3.9c0.1-2.3,1.7-3.4,4.8-3.4c9.1,0,18.3,0,27.4,0
	c1.7,0,3.3-0.1,3.5-2.2c0.2-2.1-1.3-2.6-3-2.8c-4.4-0.7-8.8-1.3-13-2.1c-7.7-1.2-15.5-2.3-23.1-3.7c-2.3-0.4-3.9-2.6-3.7-4.5
	c0.4-2.3,2.4-3.9,5-3.7c1.7,0.2,3.3,0.4,4.9,0.6c11,1.5,21.9,2.8,32.9,4.3c1.6,0.2,2.7-0.5,3-1.9c0.4-1.5-0.2-2.6-1.8-3
	c-2.7-0.9-5.4-1.8-8-2.8c-8.8-2.9-17.4-6-26.2-9c-2.9-1-3.9-4.1-1.9-6.5c1.3-1.6,3.2-1.5,5-1c12.3,3.9,24.5,7.8,36.8,11.6
	c1.8,0.6,3.8,1.3,5.7,1.3c1.2,0,2.8-0.7,3.4-1.7c0.5-0.9-0.1-2.4-0.5-3.5c-0.2-0.7-1.1-1.2-1.7-1.9c-2.7-2.8-5.4-5.6-8-8.4
	c-1.5-1.6-1.9-3.8-0.7-5.5c1-1.3,2.8-2.7,4.3-2.8c1.7,0,3.5,1.1,5,2.2c7.1,5.5,14.1,11,20.8,16.8c7.9,6.9,16.8,10.1,27.3,8.3
	c1.5-0.2,2.9-0.5,4.3-0.9c2.8-8.8,5.4-17.8,7.4-26.8c3.8-16.7,13-25.6,29.6-28.9c23.9-4.8,43.6-15.5,52-40.6
	C482.8,105.8,481.9,104.9,470.6,103.7z"/>
<g>
	<path class="st0" d="M43.2,69.1v11.6c1-1.1,1.9-2.1,2.9-2.7s1.9-1.2,3.2-1.5c1.1-0.4,2.4-0.5,3.7-0.5c1.9,0,3.8,0.4,5.2,1.2
		c1.6,0.9,2.8,2.1,3.7,3.7c0.6,1,1,1.9,1.1,3.2c0.2,1.2,0.2,2.4,0.2,4v15c0,1.6-0.4,2.8-1.1,3.5s-1.7,1.2-2.8,1.2
		c-2.6,0-3.9-1.6-3.9-4.8V89.8c0-2.6-0.4-4.4-1.1-5.7C53.6,82.7,52.1,82,50,82c-1.3,0-2.7,0.4-3.8,1.2c-1.1,0.9-1.9,1.8-2.6,3.3
		c-0.4,1.2-0.6,3.3-0.6,6.2v10.4c0,1.6-0.4,2.7-1.1,3.5c-0.7,0.9-1.7,1.2-2.9,1.2c-2.6,0-3.9-1.6-3.9-4.8v-34c0-1.6,0.4-2.8,1-3.5
		c0.7-0.9,1.6-1.2,2.8-1.2s2.2,0.4,2.9,1.2C42.8,66.3,43.2,67.5,43.2,69.1z"/>
	<path class="st0" d="M90.8,103.3c-1.9,1.5-3.8,2.6-5.5,3.3c-1.8,0.7-3.8,1.1-6,1.1c-1.9,0-3.8-0.4-5.2-1.2
		c-1.5-0.9-2.7-1.8-3.5-3.3c-0.9-1.5-1.2-2.8-1.2-4.4c0-2.2,0.7-4,2.1-5.5c1.3-1.5,3.2-2.6,5.6-3c0.5-0.1,1.7-0.4,3.7-0.7
		s3.7-0.7,5.1-1.1c1.5-0.4,2.9-0.7,4.6-1.2c-0.1-2.1-0.5-3.5-1.2-4.5c-0.7-1-2.3-1.5-4.6-1.5c-1.9,0-3.5,0.2-4.5,0.9
		c-1,0.6-1.8,1.3-2.6,2.4c-0.7,1.1-1.2,1.8-1.5,2.2s-1,0.5-1.9,0.5c-0.9,0-1.6-0.2-2.3-0.9c-0.6-0.6-1-1.3-1-2.2
		c0-1.3,0.5-2.7,1.5-4c1-1.3,2.4-2.3,4.5-3.2c2.1-0.9,4.6-1.2,7.7-1.2c3.4,0,6.1,0.4,8.2,1.2c1.9,0.9,3.4,2.1,4.1,3.9
		c0.9,1.7,1.2,4.1,1.2,6.9c0,1.8,0,3.4,0,4.6c0,1.3,0,2.7,0,4.3c0,1.5,0.2,3,0.7,4.6c0.5,1.6,0.7,2.7,0.7,3c0,0.9-0.4,1.6-1.1,2.2
		c-0.7,0.6-1.6,1-2.6,1c-0.9,0-1.6-0.4-2.4-1.1C92.5,105.9,91.7,104.8,90.8,103.3z M90.3,92c-1.1,0.4-2.8,0.9-5,1.3
		c-2.2,0.5-3.7,0.9-4.5,1c-0.9,0.2-1.7,0.6-2.4,1.3c-0.7,0.6-1.1,1.6-1.1,2.7c0,1.2,0.5,2.2,1.3,3c0.9,0.9,2.1,1.2,3.5,1.2
		c1.6,0,2.9-0.4,4.3-1c1.3-0.7,2.3-1.6,2.9-2.7c0.7-1.2,1.1-3.2,1.1-5.8V92H90.3z"/>
	<path class="st0" d="M112.4,80.3v1c1.5-1.8,3-3.2,4.6-4c1.6-0.9,3.4-1.2,5.4-1.2c2.4,0,4.6,0.6,6.7,1.8c2.1,1.2,3.7,3,4.8,5.5
		c1.2,2.4,1.7,5.2,1.7,8.5c0,2.4-0.4,4.6-1,6.7c-0.7,2.1-1.6,3.7-2.8,5.1c-1.2,1.3-2.6,2.4-4.3,3.2c-1.7,0.7-3.4,1.1-5.2,1.1
		c-2.2,0-4.1-0.5-5.6-1.3s-2.9-2.2-4.4-4v11.8c0,3.4-1.2,5.1-3.8,5.1c-1.5,0-2.4-0.5-2.9-1.3c-0.5-0.9-0.7-2.2-0.7-3.9V80.4
		c0-1.5,0.4-2.6,1-3.3s1.6-1.1,2.7-1.1s2.1,0.4,2.7,1.1C112,77.9,112.4,79,112.4,80.3z M127.7,91.8c0-2.1-0.4-3.9-1-5.4
		c-0.6-1.5-1.5-2.7-2.7-3.4c-1.1-0.9-2.3-1.2-3.8-1.2c-2.2,0-4,0.9-5.5,2.6c-1.5,1.7-2.2,4.3-2.2,7.6c0,3.2,0.7,5.6,2.2,7.3
		c1.5,1.7,3.3,2.6,5.5,2.6c1.3,0,2.6-0.4,3.7-1.1s1.9-1.9,2.7-3.4C127.4,95.7,127.7,93.8,127.7,91.8z"/>
	<path class="st0" d="M149.2,80.3v1c1.5-1.8,3-3.2,4.6-4c1.6-0.9,3.4-1.2,5.4-1.2c2.4,0,4.6,0.6,6.7,1.8c2.1,1.2,3.7,3,4.8,5.5
		c1.2,2.4,1.7,5.2,1.7,8.5c0,2.4-0.4,4.6-1,6.7c-0.7,2.1-1.6,3.7-2.8,5.1c-1.2,1.3-2.6,2.4-4.3,3.2c-1.7,0.7-3.4,1.1-5.2,1.1
		c-2.2,0-4.1-0.5-5.6-1.3s-2.9-2.2-4.4-4v11.8c0,3.4-1.2,5.1-3.8,5.1c-1.5,0-2.4-0.5-2.9-1.3c-0.5-0.9-0.7-2.2-0.7-3.9V80.4
		c0-1.5,0.4-2.6,1-3.3s1.6-1.1,2.7-1.1s2.1,0.4,2.7,1.1C148.8,77.9,149.2,79,149.2,80.3z M164.5,91.8c0-2.1-0.4-3.9-1-5.4
		s-1.5-2.7-2.7-3.4c-1.1-0.9-2.3-1.2-3.8-1.2c-2.2,0-4,0.9-5.5,2.6c-1.5,1.7-2.2,4.3-2.2,7.6c0,3.2,0.7,5.6,2.2,7.3
		c1.5,1.7,3.3,2.6,5.5,2.6c1.3,0,2.6-0.4,3.7-1.1s1.9-1.9,2.7-3.4C164.2,95.7,164.5,93.8,164.5,91.8z"/>
	<path class="st0" d="M185.1,108.8l0.7-1.7l-9.6-24.2c-0.6-1.3-0.9-2.4-0.9-3s0.1-1.3,0.5-1.8c0.4-0.5,0.9-1,1.5-1.3
		c0.6-0.4,1.2-0.5,1.8-0.5c1.1,0,1.9,0.4,2.6,1.1c0.6,0.7,1.1,1.7,1.5,3l6.6,19.2l6.3-17.9c0.5-1.5,1-2.6,1.3-3.4
		c0.4-0.9,0.9-1.3,1.2-1.7c0.5-0.2,1.1-0.5,1.9-0.5c0.6,0,1.2,0.1,1.7,0.5c0.5,0.4,1,0.7,1.2,1.2s0.5,1.1,0.5,1.7
		c-0.1,0.4-0.2,0.9-0.4,1.6c-0.1,0.6-0.4,1.3-0.6,2.1l-10.2,26.8c-0.9,2.3-1.7,4.1-2.6,5.5c-0.9,1.3-1.9,2.3-3.3,3
		c-1.3,0.7-3.3,1.1-5.6,1.1c-2.3,0-4-0.2-5.1-0.7c-1.1-0.5-1.7-1.5-1.7-2.7c0-0.9,0.2-1.6,0.9-2.1s1.3-0.7,2.4-0.7
		c0.4,0,0.9,0,1.2,0.1c0.5,0.1,1,0.1,1.3,0.1c0.9,0,1.6-0.1,2.1-0.4c0.5-0.2,1-0.7,1.3-1.3C184.2,111,184.6,110,185.1,108.8z"/>
	<path class="st0" d="M231.7,80.3v1c1.5-1.8,3-3.2,4.6-4c1.6-0.9,3.4-1.2,5.4-1.2c2.4,0,4.6,0.6,6.7,1.8c2.1,1.2,3.7,3,4.8,5.5
		c1.2,2.4,1.7,5.2,1.7,8.5c0,2.4-0.4,4.6-1,6.7c-0.7,2.1-1.6,3.7-2.8,5.1c-1.2,1.3-2.6,2.4-4.3,3.2c-1.7,0.7-3.4,1.1-5.2,1.1
		c-2.2,0-4.1-0.5-5.6-1.3c-1.5-0.9-2.9-2.2-4.4-4v11.8c0,3.4-1.2,5.1-3.8,5.1c-1.5,0-2.4-0.5-2.9-1.3c-0.5-0.9-0.7-2.2-0.7-3.9V80.4
		c0-1.5,0.4-2.6,1-3.3s1.6-1.1,2.7-1.1c1.1,0,2.1,0.4,2.7,1.1C231.3,77.9,231.7,79,231.7,80.3z M247,91.8c0-2.1-0.4-3.9-1-5.4
		c-0.6-1.5-1.5-2.7-2.7-3.4c-1.1-0.9-2.3-1.2-3.8-1.2c-2.2,0-4,0.9-5.5,2.6c-1.5,1.7-2.2,4.3-2.2,7.6c0,3.2,0.7,5.6,2.2,7.3
		c1.5,1.7,3.3,2.6,5.5,2.6c1.3,0,2.6-0.4,3.7-1.1s1.9-1.9,2.7-3.4C246.7,95.7,247,93.8,247,91.8z"/>
	<path class="st0" d="M283.1,93.8h-15.4c0,1.8,0.4,3.3,1.1,4.8c0.7,1.3,1.6,2.4,2.8,3c1.1,0.7,2.4,1,3.8,1c1,0,1.8-0.1,2.6-0.4
		c0.7-0.2,1.6-0.6,2.2-1c0.7-0.5,1.3-1,1.9-1.5c0.6-0.5,1.5-1.2,2.4-2.2c0.4-0.4,1-0.5,1.7-0.5c0.9,0,1.5,0.2,1.9,0.6
		c0.5,0.5,0.7,1.1,0.7,1.8c0,0.7-0.2,1.6-0.9,2.4c-0.6,0.9-1.3,1.8-2.6,2.7c-1.1,0.9-2.6,1.6-4.3,2.2s-3.7,0.9-5.8,0.9
		c-5,0-8.9-1.5-11.7-4.3c-2.8-2.9-4.1-6.8-4.1-11.7c0-2.3,0.4-4.5,1-6.5c0.6-1.9,1.7-3.7,3-5.1c1.3-1.5,2.9-2.6,4.9-3.3
		c1.9-0.7,4-1.1,6.5-1.1c3,0,5.7,0.6,7.9,1.9c2.2,1.3,3.8,2.9,4.9,5c1.1,2.1,1.6,4.1,1.6,6.2c0,1.9-0.6,3.3-1.7,3.8
		C286.7,93.5,285.2,93.8,283.1,93.8z M267.7,89.3H282c-0.2-2.7-1-4.6-2.2-6c-1.2-1.3-2.9-1.9-5-1.9c-1.9,0-3.5,0.7-4.8,2.1
		C268.7,84.7,268,86.8,267.7,89.3z"/>
	<path class="st0" d="M296.6,76.7h0.9v-4.8c0-1.2,0-2.2,0.1-2.9c0.1-0.7,0.2-1.3,0.6-1.8c0.4-0.5,0.7-1,1.3-1.3
		c0.6-0.4,1.2-0.5,1.9-0.5c1,0,1.9,0.4,2.7,1.1c0.5,0.5,0.9,1.1,1,1.8c0.1,0.7,0.2,1.7,0.2,3v5.4h2.9c1.1,0,1.9,0.2,2.6,0.7
		c0.6,0.5,0.9,1.2,0.9,2.1c0,1.1-0.4,1.8-1.2,2.2c-0.9,0.4-2.1,0.6-3.5,0.6h-1.5v14.4c0,1.2,0,2.2,0.1,2.8c0.1,0.6,0.4,1.2,0.7,1.6
		c0.4,0.4,1,0.6,1.8,0.6c0.5,0,1.1-0.1,1.8-0.2c0.7-0.1,1.3-0.2,1.8-0.2c0.6,0,1.2,0.2,1.7,0.7c0.5,0.5,0.7,1.1,0.7,1.8
		c0,1.2-0.7,2.2-2.1,2.9c-1.3,0.6-3.4,1-6,1c-2.4,0-4.3-0.4-5.6-1.2c-1.2-0.9-2.1-1.9-2.4-3.4c-0.4-1.5-0.6-3.4-0.6-5.8V82.3h-1
		c-1.1,0-1.9-0.2-2.6-0.9c-0.6-0.5-0.9-1.2-0.9-2.1c0-0.9,0.4-1.5,1-2.1C294.4,76.9,295.4,76.7,296.6,76.7z"/>
	<path class="st0" d="M101.9,147.2h1.8v-2.3c0-2.4,0.4-4.4,1-5.8c0.6-1.5,1.7-2.4,3.2-3.2c1.5-0.6,3.5-1,6.1-1
		c4.6,0,6.8,1.1,6.8,3.4c0,0.7-0.2,1.3-0.7,1.8s-1.1,0.7-1.7,0.7c-0.4,0-0.9,0-1.6-0.1c-0.7-0.1-1.3-0.1-1.9-0.1
		c-1.5,0-2.3,0.4-2.7,1.2c-0.4,0.9-0.6,2.1-0.6,3.5v1.8h1.9c3,0,4.5,0.9,4.5,2.7c0,1.3-0.4,2.1-1.2,2.4c-0.9,0.4-1.9,0.5-3.3,0.5
		h-1.9v20.7c0,1.6-0.4,2.7-1.1,3.5c-0.7,0.9-1.7,1.2-2.8,1.2c-1.1,0-2.1-0.4-2.8-1.2c-0.7-0.9-1.1-1.9-1.1-3.5v-20.7h-2.2
		c-1.2,0-2.1-0.2-2.7-0.7s-1-1.2-1-2.1C98,148.2,99.2,147.2,101.9,147.2z"/>
	<path class="st0" d="M150.7,162.4c0,2.3-0.4,4.5-1.1,6.5s-1.8,3.7-3.2,5.1c-1.3,1.5-3,2.6-5,3.3c-1.9,0.7-4,1.1-6.5,1.1
		c-2.3,0-4.5-0.4-6.5-1.1c-1.9-0.7-3.5-1.8-4.9-3.3c-1.3-1.5-2.4-3.2-3.2-5c-0.7-1.9-1.1-4.1-1.1-6.5c0-2.3,0.4-4.5,1.1-6.5
		c0.7-1.9,1.8-3.7,3.2-5c1.3-1.3,3-2.4,5-3.3c1.9-0.7,4-1.1,6.5-1.1c2.3,0,4.5,0.4,6.5,1.1c1.9,0.7,3.5,1.8,5,3.3
		c1.5,1.5,2.4,3,3.2,5C150.4,158,150.7,160.1,150.7,162.4z M142.9,162.4c0-3.2-0.7-5.7-2.1-7.4c-1.5-1.8-3.3-2.7-5.7-2.7
		c-1.6,0-2.9,0.4-4,1.2c-1.2,0.9-2.1,1.9-2.7,3.5c-0.6,1.6-1,3.4-1,5.5c0,2.1,0.4,3.8,1,5.4s1.5,2.7,2.7,3.5
		c1.1,0.9,2.6,1.2,4.1,1.2c2.3,0,4.3-0.9,5.7-2.7C142.1,168,142.9,165.6,142.9,162.4z"/>
	<path class="st0" d="M177.2,173.9v-1c-1,1.2-1.9,2.2-2.9,3s-2.2,1.5-3.4,1.8c-1.2,0.4-2.7,0.6-4.1,0.6c-1.9,0-3.5-0.4-5.1-1.2
		c-1.5-0.7-2.7-1.8-3.5-3.3c-1-1.7-1.5-4-1.5-7.2v-15.5c0-1.6,0.4-2.8,1.1-3.5c0.7-0.7,1.7-1.2,2.8-1.2c1.2,0,2.2,0.4,2.9,1.2
		c0.7,0.7,1.1,1.9,1.1,3.5v12.5c0,1.8,0.1,3.3,0.5,4.6c0.4,1.2,0.9,2.2,1.7,2.9c0.9,0.7,1.8,1.1,3.3,1.1c1.3,0,2.6-0.4,3.8-1.2
		c1.2-0.9,2.1-1.8,2.6-3c0.5-1.1,0.6-3.5,0.6-7.3v-9.5c0-1.6,0.4-2.7,1.1-3.5c0.7-0.7,1.7-1.2,2.8-1.2s2.1,0.4,2.8,1.2
		c0.7,0.7,1.1,1.9,1.1,3.5v22.5c0,1.5-0.4,2.6-1,3.4c-0.7,0.7-1.6,1.1-2.7,1.1c-1.1,0-1.9-0.4-2.7-1.2
		C177.7,176.3,177.2,175.3,177.2,173.9z"/>
	<path class="st0" d="M199.5,150.8v1c1.3-1.8,2.9-3.2,4.5-4s3.5-1.2,5.6-1.2c2.1,0,3.9,0.5,5.5,1.3c1.6,0.9,2.8,2.2,3.7,3.8
		c0.5,1,0.9,1.9,1,3c0.1,1.1,0.2,2.6,0.2,4.3v14.6c0,1.6-0.4,2.8-1.1,3.5c-0.7,0.9-1.7,1.2-2.8,1.2c-1.2,0-2.1-0.4-2.8-1.2
		c-0.7-0.9-1.1-1.9-1.1-3.5v-13.2c0-2.6-0.4-4.5-1.1-6c-0.7-1.5-2.2-2.1-4.3-2.1c-1.3,0-2.7,0.4-3.8,1.2c-1.1,0.9-1.9,1.9-2.6,3.4
		c-0.4,1.2-0.6,3.3-0.6,6.6v9.9c0,1.6-0.4,2.8-1.1,3.5c-0.7,0.9-1.7,1.2-2.8,1.2s-2.1-0.4-2.8-1.2s-1.1-1.9-1.1-3.5V151
		c0-1.5,0.4-2.6,1-3.3c0.6-0.7,1.6-1.1,2.7-1.1c0.7,0,1.3,0.1,1.8,0.5c0.6,0.4,1,0.9,1.3,1.5C199.3,149.1,199.5,149.9,199.5,150.8z"
		/>
	<path class="st0" d="M249.3,173.9v-0.7c-1.1,1.2-2.1,2.2-3.2,2.9c-1,0.7-2.2,1.3-3.3,1.7c-1.2,0.4-2.6,0.6-3.9,0.6
		c-1.8,0-3.7-0.4-5.2-1.2s-2.9-1.9-4.1-3.4c-1.2-1.5-2.1-3.2-2.7-5.2c-0.6-1.9-0.9-4.1-0.9-6.5c0-4.9,1.2-8.8,3.5-11.5
		c2.4-2.7,5.5-4.1,9.5-4.1c2.3,0,4.1,0.4,5.7,1.2c1.6,0.7,3,1.9,4.5,3.5v-11.5c0-1.6,0.4-2.8,1-3.7c0.6-0.9,1.6-1.2,2.8-1.2
		s2.1,0.4,2.8,1.1c0.6,0.7,1,1.8,1,3.3v34.6c0,1.5-0.4,2.6-1,3.4c-0.7,0.7-1.6,1.1-2.7,1.1c-1.1,0-1.9-0.4-2.7-1.2
		C249.7,176.4,249.3,175.3,249.3,173.9z M233.9,162.4c0,2.1,0.4,3.9,1,5.5c0.6,1.5,1.6,2.6,2.7,3.4c1.1,0.9,2.4,1.1,3.8,1.1
		s2.7-0.4,3.8-1.1c1.1-0.7,2.1-1.8,2.7-3.3c0.6-1.5,1-3.3,1-5.6c0-2.1-0.4-3.9-1-5.4c-0.7-1.5-1.6-2.7-2.8-3.4
		c-1.2-0.9-2.4-1.2-3.8-1.2c-1.5,0-2.7,0.4-3.9,1.2c-1.1,0.9-1.9,1.9-2.7,3.5C234.2,158.6,233.9,160.4,233.9,162.4z"/>
</g>
</svg>
