<?xml version="1.0" encoding="utf-8"?>
<!-- Generator: Adobe Illustrator 26.5.0, SVG Export Plug-In . SVG Version: 6.00 Build 0)  -->
<svg version="1.1" id="Layer_1" xmlns="http://www.w3.org/2000/svg" xmlns:xlink="http://www.w3.org/1999/xlink" x="0px" y="0px"
	 viewBox="0 0 1080 1080" style="enable-background:new 0 0 1080 1080;" xml:space="preserve">
<style type="text/css">
	.st0{fill:#FFFFFF;}
</style>
<path class="st0" d="M694.5,1004.2c-18.8,0-37.5,0-56.2,0c0-46.6,0-93.3,0-140.4c-9.5,0-18.5,0-27.8,0c0-9.7,0-19.1,0-28.4
	c9.2,0,18.4,0,27.6,0c0-9.7,0-19,0-28.2c-9.3,0-18.3,0-27.5,0c0,9.6,0,19,0,28.3c-9.4,0-18.9,0-28.5,0c0,19,0,37.6,0,56.2
	c-9.2,0-18.4,0-27.9,0c0-9.5,0-18.6,0-27.5c-9.7,0-19,0-28.5,0c0,9.2,0,18.2,0,27.5c-9.3,0-18.3,0-27.7,0c0,9.7,0,19,0,28.5
	c-9.7,0-19.1,0-28.4,0c0-9.4,0-18.9,0-28.7c-9.4,0-18.4,0-27.9,0c0-9.4,0-18.4,0-27.7c-9.7,0-19.1,0-28.4,0l0.1,0.1
	c0-18.9,0-37.9,0-57.2c-9.5,0-18.6,0-27.5,0c0-9.4,0-18.5,0-27.8c9.3,0,18.2,0,27.5,0c0-9.6,0-18.8,0-28.5c9.7,0,19,0,28.3,0
	c0-37.7,0-75.1,0-112.4c18.8,0,37.6,0,56.4,0c0,9.4,0,18.9,0,28.7c-9.9,0-19.2,0-28.3,0c0,18.9,0,37.3,0,56.2c18.8,0,37.3,0,55.8,0
	c0,9.4,0,18.3,0,27.7c-18.7,0-37.3,0-56.2,0c0,9.7,0,19,0,28.6c-9.4,0-18.3,0-27.4,0c0,9.3,0,18.4,0,27.7c18.8,0,37.4,0,56.1,0
	l-0.1-0.1c0,9.5,0.1,19.1,0.1,28.6c-9.4,0-18.9,0-28.3,0c0,9.7,0,19,0,28.2c9.5,0,18.8,0,28.2,0c0-9.6,0-19,0-28.3
	c18.7,0,37.4,0,56.4,0c0-28.4,0-56.4,0-84.7c9.5,0,18.6,0,27.7,0c0,9.4,0,18.9,0,28.3c19,0,37.5,0,56.3,0c0-9.5,0-18.7,0-28.3
	c9.6,0,18.9,0,28.3,0c0-9.5,0-18.6,0-27.7c9.2,0,18.4,0,28,0c0-9.7,0-19,0-28.3c9.6,0,18.8,0,28.1,0c0,18.7,0,37.2,0,56.2
	c-9.5,0-18.8,0-28.2,0c0,19,0,37.6,0,56.2c-9.2,0-18.4,0-27.5,0c0,9.7,0,19,0,28.4c9.4,0,18.5,0,27.5,0c0,9.4,0,18.9,0,28.7
	c9.7,0,19,0,28.5,0c0,9.5,0,18.6,0,27.7c-9.4,0-18.9,0-28.7,0c0,9.7,0,19,0,28.5c-9.3,0-18.3,0-27.4,0c0,9.3,0,18.3,0,27.8
	c9.2,0,18.3,0,27.5,0C694.5,967.1,694.5,985.7,694.5,1004.2z M976.6,835.5c0-9.7,0-19.1,0-28.6c-9.3,0-18.7,0-28.4,0
	c0-9.2,0-18.2,0-27.6c-18.9,0-37.4,0-56.3,0c0-9.8,0-19.2,0-28.7c-28.1,0-56.2,0-84.8,0c0-9.4,0-18.6,0-27.8c-9.1,0-18.2,0-27.7,0
	c0-9.4,0-18.7,0-28.2c-9.6,0-18.8,0-28.4,0c0,27.9,0,55.9,0,84.4c-9.4,0-18.5,0-28,0c0,9.6,0,18.8,0,28c9.1,0,18.2,0,27.8,0
	c0,28.4,0,56.6,0,84.8c18.6,0,37.2,0,56.1,0c0,9.4,0,18.7,0,28.3c9.7,0,18.9,0,28.7,0c0,28.3,0,56.2,0,84.1c18.8,0,37.5,0,56.2,0
	c0-27.8,0-55.7,0-83.8c18.8,0,37.3,0,56.2,0c0,9.1,0,18,0,27.5c19,0,37.7,0,56.3,0c0-37.5,0-75,0-112.5
	C995.2,835.5,986.1,835.5,976.6,835.5z M779.4,779.4c28.1,0,56,0,84.3,0c0,28,0,56,0,84.3c-27.9,0-56,0-84.3,0
	C779.4,835.5,779.4,807.6,779.4,779.4z M920.2,807.2c0,9.4,0,18.6,0,28.2c9.3,0,18.4,0,27.6,0c0,18.9,0,37.5,0,56.2
	c-18.6,0-37,0-55.8,0c0-28,0-56.1,0-84.4C901.5,807.2,910.7,807.2,920.2,807.2z M75.8,441.8c9.3,0,18.7,0,28.2,0
	c0,9.2,0,18.2,0,27.8c-9.4,0-18.8,0-28.2,0c0,9.5,0,19,0,28.5c9.3,0,18.7,0,28.3,0c0,28,0,55.7,0,84c-9.4,0-18.8,0-28.3,0
	c0,28.2,0,56.5,0,84.8c9.3,0,18.7,0,28.2,0c0,9.2,0,18.2,0,27.8c-9.4,0-18.8,0-28.2,0c0,9.5,0,19,0,28.5c9.3,0,18.7,0,28.6,0
	c0,9.4,0,18.6,0,27.8c0,0-0.1-0.1-0.1-0.1c9.3,0,18.6,0.1,27.9,0.1c0-9.2,0-18.4,0-28c9.7,0,19,0,28.2,0c0-9.6,0-18.8,0-28.4
	c-9.5,0-18.8,0-28,0c0-9.5,0-18.5,0-27.8c9.5,0,18.7,0,27.9,0c0-9.6,0-18.9,0-28.4c-9.5,0-18.7,0-28,0c0-9.3,0-18.4,0-27.8
	c9.5,0,18.8,0,28.1,0c0-18.9,0-37.3,0-56.2c-9.5,0-18.8,0-28,0c0-9.7,0-19,0-28.6c9.5,0,18.7,0,28,0c0-9.3,0-18.4,0-27.8
	c-9.5,0-18.8,0-28,0c0-9.6,0-18.8,0-28.4c9.5,0,18.8,0,28,0c0-9.5,0-18.5,0-27.8c-9.5,0-18.7,0-27.9,0c0-9.6,0-18.9,0-28.4
	c9.5,0,18.7,0,28,0c0-9.3,0-18.4,0-27.7c-28.3,0-56.4,0-84.5,0C75.8,404.2,75.8,423,75.8,441.8z M75.8,75.8c0,65.8,0,131.5,0,197.2
	c65.7,0,131.3,0,197.2,0c0-66.1,0-131.7,0-197.2C207.2,75.8,141.5,75.8,75.8,75.8z M104.4,104.4c46.6,0,93.1,0,139.8,0
	c0,46.5,0,93,0,139.8c-46.4,0-93,0-139.8,0C104.4,197.5,104.4,151.1,104.4,104.4z M807,273c65.9,0,131.6,0,197.2,0
	c0-65.8,0-131.5,0-197.2c-65.8,0-131.5,0-197.2,0C807,141.3,807,206.9,807,273z M976.3,104.4c0,46.6,0,93,0,139.8
	c-46.7,0-93.5,0-140.5,0c0-46.4,0-92.9,0-139.8C882.7,104.4,929.4,104.4,976.3,104.4z M273,807c-65.9,0-131.6,0-197.2,0
	c0,65.8,0,131.5,0,197.2c65.8,0,131.5,0,197.2,0C273,938.7,273,873.1,273,807z M244.3,976.3c-46.6,0-93,0-139.8,0
	c0-46.7,0-93.5,0-140.5c46.4,0,92.9,0,139.8,0C244.3,882.7,244.3,929.4,244.3,976.3z M723.1,131.8c19,0,37.5,0,56,0
	c0-9.4,0-18.3,0-27.6c-9.5,0-18.8,0-28.3,0c0-9.8,0-19.1,0-28.4c-28,0-56,0-84,0c0,9.3,0,18.7,0,28.4c-9.7,0-19.1,0-28.5,0
	c0,9.1,0,18.2,0,27.6c-18.7,0-37.2,0-56,0c0-9,0-18,0-27.4c18.7,0,37.4,0,56.1,0c0-9.5,0-19-0.1-28.5c-28,0-56,0-84,0
	c0,28.2,0,56.4,0,84.8c9.5,0,18.4,0,27.8,0c0,9.3,0,18.4,0,27.4c9.7,0,19,0,28.6,0c0-9.2,0-18.2,0-27.5c18.8,0,37.4,0,56.3,0
	c0-9.7,0-19,0-28.2c9.4,0,18.3,0,27.7,0c0,18.7,0,37.3,0,56.1c9.8,0,19.1,0,28.5,0C723.1,169.6,723.1,150.9,723.1,131.8z
	 M976.6,329.2c0,18.6,0,37.2,0,56.2c-9.5,0-18.8,0-28.3,0c0,9.3,0,18.3,0,27.7c9.2,0,18.5,0,28,0c0,9.7,0,19,0,28.5
	c-18.5,0-37.1,0-55.9,0c0-9.3,0-18.5,0-28c-9.6,0-18.8,0-28.5,0c0,9.2,0,18.5,0,28.1c-9.3,0-18.3,0-27.7,0c0,9.3,0,18.3,0,27.8
	c-9.8,0-19.3,0-28.7,0c0,9.3,0,18.7,0,28.4c9.5,0,18.8,0,28.5,0c0,19.1,0,37.8,0,56.4c9.3,0,18.6,0,27.9,0c0-9.3,0-18.7,0-28.5
	c9.4,0,18.7,0,28.4,0c0-18.9,0-37.5,0-56.2c9.3,0,18.3,0,27.6,0c0,18.5,0,37,0,56.1c9.8,0,19.3,0,28.7,0c0-18.6,0-37.2,0-56.3
	c9.3,0,18.5,0,27.7,0c0-46.8,0-93.5,0-140.2c-9.3,0-18.5,0-27.8,0.1L976.6,329.2z M329.2,1004.2c0-9.1,0-18.2,0-27.5
	c18.7,0,37.2,0,56.2,0c0,9.2,0,18.3,0,27.5c18.8,0,37.5,0,56.2,0c0-9.3,0-18.5,0.1-27.8c-9.3,0-18.7,0-28.5,0c0-9.4,0-18.7,0-28.4
	c-9.4,0-18.5,0-27.7,0c0-18.8,0-37.3,0-56.1c9,0,18,0,27.5,0c0-9.6,0-18.8,0-28l0.1,0.1c-9.1,0-18.2,0-27.7,0c0-9.5,0-18.8,0-28.5
	c-9.7,0-19,0-28.5,0c0-9.6,0-18.8,0-28.4c-9.3,0-18.3,0-27.9,0c0-9.6,0-18.8,0-28l0.1,0.1c-9.5,0-19.1,0-28.6,0l0.1-0.1
	c0,18.7,0,37.4,0,56.5c9.7,0,19,0,28.6,0c0,9.6,0,18.8,0,28.4c9.3,0,18.4,0,27.3,0c0,9.5,0,18.5,0,27.8c-18.7,0-37.2,0-55.7,0
	c0,9.6,0,18.8,0,28.5c18.8,0,37.3,0,55.8,0c0,9.4,0,18.3,0,27.7c-18.7,0-37.3,0-56.1,0c0,19,0,37.6,0,56.2
	C310.2,1004.2,319.8,1004.2,329.2,1004.2z M498,75.8c0,9.4,0,18.9,0,28.6c-9.7,0-18.9,0-28.3,0c0,37.5,0,74.8,0,112.5
	c9.5,0,18.8,0,28.4,0c0,9.5,0,18.6,0,27.7c0,0-0.1-0.1-0.1-0.1c9.3,0,18.6,0.1,27.8,0.1c0-9.2,0-18.4,0-28c9.7,0,19,0,28.2,0
	c0-9.6,0-18.8,0-28.4c-18.8,0-37.3,0-55.9,0c0-9.4,0-18.3,0-27.7c9.2,0,18.3,0,27.6,0c0-28.5,0-56.6,0-84.7
	C516.5,75.8,507.2,75.8,498,75.8z M357,75.8c0,9.4,0,18.9,0,28.6c-19,0-37.5,0-56,0c0,18.9,0,37.4,0,56.2c9.6,0,18.9,0,28.3,0
	c0-9.4,0-18.9,0-28.7c18.9,0,37.5,0,56.2,0c0-19,0-37.5,0-56.1C376,75.8,366.5,75.8,357,75.8z M807,1004.2c0-18.7,0-37.4,0-56
	c-28.3,0-56.1,0-83.8,0c0,9.5,0,18.7,0,28.3c9.2,0,18.3,0,27.6,0c0,9.5,0,18.6,0,27.7C769.5,1004.2,788.2,1004.2,807,1004.2z
	 M498.2,947.9c0,9.5,0,18.8,0,28.5c-9.8,0-19.3,0-28.7,0c0,9.3,0,18.5,0.1,27.8c18.8,0,37.5,0,56.2,0c0-9.2,0-18.4,0-27.9
	c19,0,37.5,0,56.3,0c0-9.7,0-19.1,0-28.4C554.2,947.9,526.4,947.9,498.2,947.9z M976.4,723.1c-9.6,0-18.9,0-28.2,0
	c0,9.4,0,18.4,0,27.7c18.8,0,37.4,0,56,0c0-28,0-56,0-84c-9.3,0-18.5,0-27.8-0.1C976.4,685.4,976.4,704,976.4,723.1z M75.8,329.2
	c9.4,0,18.9,0,28.7,0c0,9.6,0,18.6,0,27.5c9.4,0,18.3,0,27.3,0c0-18.7,0-37.3,0-56c-18.8,0-37.4,0-56,0
	C75.8,310.2,75.8,319.8,75.8,329.2z M1004.2,582c-18.8,0-37.5,0-56.3-0.1c0,9.4,0,18.9,0,28.6c19.1,0,37.7,0,56.3,0
	C1004.2,601,1004.2,591.5,1004.2,582z M104.3,750.8c-9.5,0-19,0-28.6-0.1c0,9.5,0,19,0,28.5c9.4,0,18.9,0,28.4,0
	c0-9.9,0-19.2,0-28.6L104.3,750.8z M976.4,554.2c9.6,0,18.7,0,27.8,0c0-9.5,0-19,0-28.5c-9.3,0-18.5,0-27.8-0.1
	C976.4,535.1,976.4,544.6,976.4,554.2z M976.5,1004.2c0-9.2,0-18.3,0-27.5c-9.8,0-19,0-28.5,0c0,9.3,0,18.4,0,27.5
	C957.5,1004.2,967,1004.2,976.5,1004.2z M1004.2,779.2c-9.2,0-18.4,0-27.8,0c0,9.6,0,18.7,0,27.8c9.3,0,18.5,0,27.8-0.1
	C1004.2,797.8,1004.2,788.5,1004.2,779.2z M498,356.9c9.3,0,18.3,0,27.6,0c0,9.6,0,18.8,0,28.3c-18.4,0-37,0-55.8,0
	c0-18.4,0-36.9,0-55.9c9.4,0,18.8,0,28.3,0c0-9.4,0-18.9,0-28.7c-28.6,0-56.6,0-84.9,0c0-9.5,0-18.6,0-27.7l0.1,0.1
	c-9.2,0-18.4,0-28,0c0-28.6,0-56.6,0-84.9c-9.6,0-18.8,0-28.4,0c0-9.3,0-18.4,0-27.7c-9.5,0-18.6,0-27.7,0c0,9.2,0,18.4,0,28
	c-9.7,0-19,0-28.4,0c0,37.7,0,75.1,0,112.4l-0.1-0.1c9.4,0,18.9,0,28.7,0c0-28.2,0-56,0-83.7c9.3,0,18.3,0,27.6,0
	c0,28,0,55.8,0,83.9c9.7,0,19,0,28.1,0c0,28.4,0,56.5,0,84.8c-18.8,0-37.2,0-55.7,0c0,9.3,0,18.3,0,27.8c9.3,0,18.3,0,27.6,0
	c0,9.6,0,18.8,0,28.4c9.6,0,18.9,0,28.4,0c0,28.3,0,56.1,0,83.9l-0.1-0.1c9.3,0,18.6,0.1,27.9,0.1c0-37.3,0-74.7,0-112.3
	c9.4,0,18.7,0,28.4,0c0,37.4,0,74.9,0,112.3c9.1,0,18.2,0,27.7,0c0-9.3,0-18.3,0-27.7c9.8,0,19.2,0,28.7,0c0-9.4,0-18.7,0-28.5
	c-9.5,0-18.8,0-28.3,0c0-9.3,0-18.3,0-27.5c18.4,0,37,0,55.8,0c0,18.4,0,36.9,0,55.9c-9.2,0-18.3,0-27.5,0c0,9.1,0,18.2,0,27.7
	c9.3,0,18.3,0,27.7,0c0,18.9,0,37.4,0,56.4c19,0,37.7,0,56.4,0c0-9.1,0-18.2,0-27.7c-9.3,0-18.4,0-27.6,0c0-9.6,0-18.8,0-28.3
	c18.5,0,37,0,56,0c0,9.2,0,18.5,0,28c9.4,0,18.3,0,27.7,0c0-9.2,0-18.5,0-28c9.7,0,19,0,28.5,0c0,9.3,0,18.5,0,28.1
	c9.3,0,18.3,0,27.8,0c0,19.1,0,37.8,0,56.5c9.4,0,18.7,0,28.5,0c0-9.6,0-18.9,0-28.4c9.4,0,18.3,0,27.7,0c0,28,0,56,0,84.6
	c19.1,0,37.8,0,56.5,0c0-18.6,0-37.2,0-56.2c-9.3,0-18.3,0-27.6,0c0-9.6,0-18.8,0-28.4c9,0,18,0,27.6,0c0-9.6,0-18.8,0-28
	c-9.1,0-18.2,0-27.8,0c0-9.6,0-19.1,0-28.5c-9.3,0-18.7,0-28.4,0c0,9.6,0,18.8,0,28.3c-9.4,0-18.5,0-27.8,0c0-9.3,0-18.5,0-28.1
	c-9.5,0-18.8,0-28.5,0c0-9.6,0-18.8,0-28c-9.1,0-18.2,0-27.5,0c0-9.4,0-18.7,0-28.4c9.2,0,18.4,0,27.5,0c0-27.8,0-55.7,0-84
	c-9.5,0-18.7,0-27.9,0l0.1-0.1c0,9.1,0,18.2,0,27.5c-37.5,0-74.8,0-112.3,0c0-9,0-18,0-27.3c9,0,17.9,0,27.2,0c0-18.8,0-37.3,0-56.2
	c-8.9,0-17.9,0-27.5,0c0-9.8,0-19.3,0-28.7c0,0,0.1,0.1,0.1,0.1c-9.4,0-18.9,0-28.7,0c0,9.7,0,19,0,28.4c-9.5,0-18.6,0-27.7,0
	C498,338.3,498,347.4,498,356.9z M554.4,497.8c0-18.6,0-37.1,0-55.8c18.5,0,37.1,0,56,0c0,9,0,18.1,0,27.4c9.4,0,18.3,0,27.5,0
	c0,9.6,0,18.8,0,28.4C610,497.8,582.3,497.8,554.4,497.8z M329.3,525.7c0,18.7,0,37.3,0,56.4c-9.8,0-19.1,0-28.5,0
	c0,9.7,0,19.1,0,28.4l-0.1-0.1c9.4,0,18.7,0,28.4,0c0,37.6,0,74.8,0,112.3c9.4,0,18.5,0,27.8,0c0-28.1,0-56,0-84.3
	c9.5,0,18.8,0,28.7,0c0-9.6,0-18.8,0-28c-9.3,0-18.7,0-28.3,0c0-9.4,0-18.7,0-28.4c9.4,0,18.9,0,28.3,0c0-18.8-0.1-37.6-0.1-56.4
	c0,0,0.1,0.1,0.1,0.1c-18.8,0-37.6,0-56.3,0L329.3,525.7z M300.7,779.3c0-9.3,0-18.7,0-28.4c-18.7,0-37.2,0-56.1,0
	c0-9.6,0-18.7,0-27.9c-9.1,0-18.2,0-27.9,0c0-18.9,0-37.6,0-56.3c0,0,0.1,0.1,0.1,0.1c-9.4,0-18.9,0-28.7,0c0,28.2,0,56,0,83.9
	c-19,0-37.6,0-56.2,0c0,9.4,0,18.9,0,28.4c1,0.1,1.5,0.2,2,0.2c55.6,0,111.2,0,166.9,0L300.7,779.3z M273.1,610.4
	c0,9.1,0,18.2,0,27.5c-9.5,0-18.8,0-28.6,0c0-9.2,0-18.4,0-27.5l0.1,0.1c-9.3,0-18.6,0-27.8,0l0.1-0.1c0,18.8,0,37.6,0,56.4
	c0,0-0.1-0.1-0.1-0.1c18.6,0,37.2,0,56.3,0c0,9.5,0,18.7,0,27.9c9.1,0,18.2,0,27.7,0c0-28.2,0-56.2,0-84.1c0,0,0.1,0.1,0.1,0.1
	c-9.3,0-18.6,0-27.9,0L273.1,610.4z M300.8,300.8c-18.7,0-37.4,0-56.3,0c0,9.8,0,19.2,0,28.5l-0.1-0.1c9.4,0,18.7,0,28.6,0
	c0,9.5,0,18.7,0,27.9l-0.1-0.1c27.9,0,55.8,0,83.8,0c0-9.4,0-18.4,0-27.8c-18.8,0-37.3,0-56,0c0-9.7,0-19.1,0-28.4
	C300.7,300.7,300.8,300.8,300.8,300.8z M216.7,610.6c0-37.4,0-74.8,0-112.3c-9.7,0-18.9,0-28.2,0c0,37.5,0,74.8,0,112.2
	c9.6,0,19,0,28.3,0C216.8,610.5,216.7,610.6,216.7,610.6z M273.1,357.1c-9.4,0-18.7,0-28.6,0c0-9.5,0-18.7,0-27.9
	c0,0,0.1,0.1,0.1,0.1c-9.2,0-18.4,0-27.9,0c0,9.4,0,18.5,0,27.8c-9.7,0-19.1,0-28.4,0l0.1-0.1c0,9.4,0,18.9,0,28.3
	c28.4,0,56.5,0,84.6,0c0-9.6,0-19,0-28.3L273.1,357.1z M329.2,525.8c0-9.2,0-18.4,0-28c9.6,0,18.6,0,27.6,0c0-9.6,0-18.8,0-28.4
	c-9.2,0-18.3,0-27.7,0c0-9.4,0-18.5,0-27.4c-9.8,0-19.1,0-28.5,0c0,0,0.1-0.1,0.1-0.1c0,27.9,0,55.8,0,83.9c9.9,0,19.3,0,28.6,0
	C329.3,525.7,329.2,525.8,329.2,525.8z M244.5,441.7c18.7,0.1,37.5,0.1,56.2,0.2c0,0-0.1,0.1-0.1,0.1c0-9.5,0-18.9,0-28.5
	c-18.8,0-37.3,0-56,0c0,9.6,0,18.9,0,28.3L244.5,441.7z M244.6,441.8c-18.7,0-37.4,0-56,0c0,9.4,0,18.5,0,27.6c18.9,0,37.4,0,56,0
	l-0.1,0.1c0-9.3,0-18.6,0-27.9C244.5,441.7,244.6,441.8,244.6,441.8z M188.2,357.1c0-18.7,0-37.3,0-56.1c-9.4,0-18.5,0-27.4,0
	c0,18.8,0,37.3,0,56c9.4,0,18.5,0,27.6,0C188.3,357,188.2,357.1,188.2,357.1z M244.5,469.4c0,9.4,0,18.9,0,28.3c9.7,0,19,0,28.2,0
	c0-9.5,0-18.8,0-28.2c-9.6,0-19,0-28.3,0C244.4,469.5,244.5,469.4,244.5,469.4z M244.4,610.4c9.5,0,19.1,0,28.6,0l-0.1,0.1
	c0-9.4,0-18.9,0-28.3c-9.7,0-19,0-28.4,0c0,9.6,0,19,0,28.3L244.4,610.4z M272.7,526c-9.5,0-18.8,0-28,0c0,9.5,0,18.7,0,28
	c9.4,0,18.6,0,28,0C272.7,544.5,272.7,535.2,272.7,526z M413.2,273c9.4,0,18.9,0,28.3,0c0-37.7,0-75,0-112.2c-9.5,0-18.8,0-28.2,0
	c0,37.6,0,74.9,0,112.3C413.3,273.1,413.2,273,413.2,273z M498.1,244.5c-9.4,0-18.9,0-28.3,0c0,9.7,0,19,0,28.2c9.5,0,18.8,0,28.2,0
	c0-9.6,0-19,0-28.3C498,244.4,498.1,244.5,498.1,244.5z M525.7,273.1c9.9,0,19.3,0,28.6,0c0-9.4,0-18.9,0-28.6c-9.9,0-19.3,0-28.6,0
	C525.7,253.9,525.7,263.3,525.7,273.1z M554.3,300.8c0,0-0.1-0.1-0.1-0.1c9.1,0,18.2,0,27.8,0c0-9.4,0-18.6,0-27.8l0.1,0.1
	c-9.3,0-18.6-0.1-27.9-0.1C554.2,282.2,554.3,291.5,554.3,300.8z M723.1,272.9c0,9.1,0,18.2,0,27.7c9.2,0,18.3,0,27.6,0
	c0,18.9,0,37.3,0,56.2c9.6,0,18.8,0,28.6,0c0,9.8,0,19.3,0,28.7c18.6,0,37.2,0,56.3,0c0,9.4,0,18.6,0,27.8c9.4,0,18.7,0,28.3,0
	c0-18.8,0-37.4,0-56.2c-9.3,0-18.5,0-28,0c0-9.3,0-18.3,0-27.9c18.6,0,37.3,0,56,0l-0.1,0.1c0-9.4,0-18.9,0-28.3
	c-28.5,0-56.5,0-84.8,0c0,9.5,0,18.7,0,28c-9.3,0-18.3,0-27.8,0c0-47,0-93.8,0-140.8c-19,0-37.6,0-56.2,0c0,9.4,0,18.9,0,28.7
	c9.5,0,18.6,0,27.5,0c0,18.9,0,37.4,0,56.2c-9.4,0-18.4,0-27.5,0L723.1,272.9z M891.8,329.2c0,18.6,0,37.2,0,56c9.4,0,18.7,0,28.4,0
	c0-18.7,0-37.4,0-56l0.1,0.1c-9.5,0-19.1,0-28.6,0L891.8,329.2z M920.2,329.2c18.8,0,37.6,0,56.4,0l-0.1,0.1c0-9.4,0-18.9,0-28.3
	c-18.9,0-37.5,0-56.1,0c0,9.6,0,19,0,28.3L920.2,329.2z M610.4,244.4c9.1,0,18.2,0,27.7,0c0,18.8,0,37.3,0,56.3c9.7,0,19,0,28.4,0
	c0,9.6,0,18.8,0,28.4c-9.3,0-18.6,0-28.3,0c0,9.4,0,18.5,0,27.8c-9.3,0-18.3,0-27.5,0c0,9.6,0,18.8,0,28.5c18.7,0,37.3,0,56,0
	l-0.1,0.1c0-9.4,0-18.7,0-28.5c18.8,0,37.4,0,56.1,0c0-9.4,0-18.3,0-27.7c-9.2,0-18.5,0-28.3,0c0-19.1,0-37.8,0-56.5l0.1,0.1
	c-9.1,0-18.2,0-27.5,0c0-9.5,0-18.8,0-28.6c9.2,0,18.4,0,27.5,0l-0.1,0.1c0-9.2,0-18.4,0-27.9c-9.4,0-18.5,0-27.9,0
	c0-9.7,0-19,0-28.2c-9.6,0-18.8,0-28.4,0c0,9.5,0,18.8,0,28.4c-9.4,0-18.5,0-27.6,0c0,9.5,0,18.6,0,27.7L610.4,244.4z M694.6,244.4
	c0,9.5,0,19.1,0,28.6l-0.1-0.1c9.5,0,19.1,0,28.6,0c0,0-0.1,0.1-0.1,0.1c0-9.4,0-18.9,0-28.5c-9.8,0-19.2,0-28.5,0L694.6,244.4z
	 M581.9,272.9c9.4,0,18.7,0,28.5,0c0-9.6,0-19.1,0-28.5c0,0,0.1,0.1,0.1,0.1c-9.4,0-18.9,0-28.5,0c0,9.8,0,19.2,0,28.5L581.9,272.9z
	 M722.9,920c9.5,0,18.6,0,27.9,0c0-9.6,0-18.9,0-28.3c-9.3,0-18.6,0-27.9,0C722.9,901.1,722.9,910.6,722.9,920z M610.2,948.1
	c0-19.1,0-37.6,0-56.4c-9.6,0-18.9,0-28.3,0c0,18.8,0,37.6,0,56.4C591.4,948.1,600.8,948.1,610.2,948.1z M920.3,750.8
	c0-19.2,0-37.8,0-56.4c-9.4,0-18.9,0-28.6,0c0,19.2,0,37.8,0,56.4C901.1,750.8,910.6,750.8,920.3,750.8z M976.6,666.8
	c0-9.4,0-18.9,0-28.3c-9.8,0-19.1,0-28.6,0c0,9.6,0,18.9,0,28.3C957.5,666.8,967,666.8,976.6,666.8z M948.1,694.6
	c0-9.7,0-18.8,0-27.9c-9.3,0-18.6,0-27.9,0c0,9.3,0,18.6,0,27.9C929.4,694.6,938.6,694.6,948.1,694.6z M864.2,666.8
	c0-9.8,0-19.1,0-28.3c9.4,0,18.3,0,27.7,0c0,9.5,0,18.8,0,28.3c9.8,0,19.1,0,28.5,0c0-28.2,0-56.4,0-84.8c9.5,0,18.6,0,27.8,0
	c0-9.2,0-18.4,0-27.9c-19.2,0-37.8,0-56.4,0c0,18.7,0,37.4,0,56.4c-18.9,0-37.5,0-56.2,0c0,19,0,37.6,0,56.2
	C844.9,666.8,854.3,666.8,864.2,666.8z M469.6,976.6c0-18.8,0-37.6,0-56.4c-9.2,0-18.4,0-27.9,0c0,19.2,0,37.8,0,56.4
	C451,976.6,460.3,976.6,469.6,976.6z M413.4,610.6c0,9.4,0,18.5,0,27.8c9.7,0,19.1,0,28.4,0c0-18.7,0-37.4,0-56.2
	c9.5,0,18.6,0,27.8,0c0-9.2,0-18.4,0-27.9c-9.5,0-18.6,0-27.8,0c0-9.7,0-19.1,0-28.4c-9.5,0-19.1,0-28.6,0c0,18.7,0,37.4,0,56.2
	c-9.5,0-18.6,0-27.8,0c0,9.5,0,19.1,0,28.6C394.6,610.6,403.8,610.6,413.4,610.6z M273.1,723.1c0-9.9,0-19.3,0-28.6
	c-9.4,0-18.9,0-28.6,0c0,9.9,0,19.3,0,28.6C253.9,723.1,263.3,723.1,273.1,723.1z M329.2,779.2c9.2,0,18.4,0,27.6,0
	c0-9.7,0-19,0-28.2c-9.3,0-18.3,0-27.5,0c0,9.6,0,19,0,28.3C329.3,779.3,329.2,779.2,329.2,779.2z M413,667c-9.3,0-18.3,0-27.3,0
	c0,9.2,0,18.2,0,27.3c9.1,0,18.1,0,27.3,0C413,685,413,676,413,667z M666.7,666.7l0.1,0.1c-9.5,0-19.1,0-28.6,0l0.1-0.1
	c0,9.1,0,18.2,0,27.9c-19,0-37.7,0-56.4,0c0,0,0.1-0.1,0.1-0.1c0,18.8-0.1,37.6-0.1,56.4c9.4,0,18.9,0,28.7,0c0-9.6,0-18.6,0-27.8
	c19,0,37.6,0,56.2,0C666.8,704.3,666.7,685.5,666.7,666.7z M525.7,694.4c19.2,0,37.8,0,56.4,0l-0.1,0.1c0-9.1,0-18.2,0-27.7
	c-9.2,0-18.2,0-27.8,0c0-9.8,0-19.3,0-28.7l0.1,0.1c-9.5,0-19.1-0.1-28.6-0.1C525.7,656.9,525.7,675.6,525.7,694.4z M497.9,807
	c9.2,0,18.4,0,27.6,0c0-9.4,0-18.5,0-27.4c-9.3,0-18.3,0-27.5,0c0,9.4,0,18.5,0,27.5C498,807.1,497.9,807,497.9,807z M497.9,638.3
	c9.3,0,18.6,0,27.9,0c0-9.2,0-18.4,0-27.9c-9.7,0-18.8,0-27.9,0C497.9,619.7,497.9,629,497.9,638.3z M610.6,610.4
	c0,18.6,0,37.2,0,56.2c9.4,0,18.6,0,27.8,0l-0.1,0.1c0-9.3,0-18.7,0-28.3c9.5,0,18.8,0,28.6,0c0,9.4,0,18.9,0,28.3l-0.1-0.1
	c18.7,0,37.3,0,56.1,0c0-9.6,0-18.9,0-28.6c-9.5,0-18.8,0-28.2,0c0-9.5,0-18.6,0-27.7c-28,0-56.1,0.1-84.1,0.1
	C610.4,610.6,610.6,610.4,610.6,610.4z M806.9,723.1c18.9,0,37.8,0,56.8,0c0-9.8,0-19,0-28.7c-9.5,0-18.8,0-28.2,0
	c0-9.5,0-18.6,0-27.7c-9.5,0-19.1,0-28.6,0C806.9,685.5,806.9,704.3,806.9,723.1z M723.1,835.6c0-9.9,0-19.3,0-28.6
	c-9.5,0-19.1,0-28.6,0c0,9.5,0,19.1,0,28.6C703.9,835.6,713.3,835.6,723.1,835.6z M469.4,610.6c9.9,0,19.3,0,28.6,0
	c0-9.4,0-18.9,0-28.6c-9.9,0-19.3,0-28.6,0C469.4,591.4,469.4,600.8,469.4,610.6z M807.2,835.2c9.5,0,18.8,0,28.1,0
	c0-9.5,0-18.7,0-28c-9.4,0-18.6,0-28.1,0C807.2,816.7,807.2,826,807.2,835.2z M132.3,132.3c0,28.3,0,56.3,0,84.3
	c28.2,0,56.2,0,84.3,0c0-28.1,0-56.1,0-84.3C188.3,132.3,160.2,132.3,132.3,132.3z M947.7,216.5c0-28.3,0-56.3,0-84.3
	c-28,0-55.7,0-83.5,0c0,28.1,0,56.1,0,84.3C892.2,216.5,920,216.5,947.7,216.5z M132.3,864.3c0,28,0,55.8,0,83.5
	c28.2,0,56.2,0,84.3,0c0-27.9,0-55.6,0-83.5C188.3,864.3,160.2,864.3,132.3,864.3z M723.2,385.4c0,19,0,37.5,0,56.4
	c9.3,0,18.3,0,27.5,0c0,9.5,0,18.6,0,27.7c9.4,0,18.9,0,28.5,0c0,19,0,37.6,0,56.2c9.3,0,18.6,0,27.9,0c0-18.7,0-37.4,0-56.2
	c9.8,0,19.1,0,28.5,0c0-18.8,0-37.6,0-56.4c-18.7,0-37.4,0-56.2,0c0-9.5,0-18.6,0-27.8C760.6,385.4,742,385.4,723.2,385.4z
	 M835.6,554.3c0-9.4,0-18.9,0-28.6c-9.9,0-19.3,0-28.6,0c0,9.5,0,19.1,0,28.6C816.5,554.3,826,554.3,835.6,554.3z M835.4,581.7
	c9.8,0,19.1,0,28.6,0c0-9.4,0-18.4,0-27.5c-9.5,0-19.1,0-28.6,0C835.4,563.4,835.4,572.6,835.4,581.7z M750.8,498.1
	c0-9.9,0-19.3,0-28.6c-18.8,0-37.6,0-56.4,0c0,9.5,0,19.1,0,28.6C713.1,498.1,731.8,498.1,750.8,498.1z M581.9,610.4
	c9.5,0,19.1,0,28.6,0l-0.1,0.1c0-9.4,0-18.9,0-28.6c-9.8,0-19.1,0-28.5,0c0,9.5,0.1,19.1,0.1,28.6L581.9,610.4z M554.2,638.2
	c9.1,0,18.2,0,27.8,0c0-9.4,0-18.6,0-27.8l0.1,0.1c-9.2,0-18.4,0-27.8,0c0,9.5,0,18.7,0,27.8L554.2,638.2z"/>
</svg>
