<?xml version="1.0" encoding="utf-8"?>
<!-- Generator: Adobe Illustrator 25.1.0, SVG Export Plug-In . SVG Version: 6.00 Build 0)  -->
<svg version="1.1" id="Layer_1" xmlns="http://www.w3.org/2000/svg" xmlns:xlink="http://www.w3.org/1999/xlink" x="0px" y="0px"
	 viewBox="0 0 1629.6 507" style="enable-background:new 0 0 1629.6 507;" xml:space="preserve">
<style type="text/css">
	.st0{fill:#008E74;}
	.st1{fill:#ED1C24;}
</style>
<g>
	<path class="st0" d="M341.5,243h0.5c2.7-3.4,5.6-6.6,8.9-9.5c3.2-2.9,6.9-5.5,10.9-7.7c4-2.2,8.4-3.9,13.2-5.2
		c4.8-1.2,10-1.9,15.7-1.9c6.7,0,13,0.9,18.8,2.8c5.9,1.9,11,4.8,15.3,9c4.3,4.1,7.7,9.5,10.3,16.1c2.5,6.6,3.8,14.8,3.8,24.5v98.2
		h-23.9V275c0-12.7-2.4-21.8-7.3-27.3c-4.9-5.6-12-8.3-21.4-8.3c-8.2,0-16.2,2.3-23.9,6.9c-7.7,4.6-14.4,10.9-19.9,18.9v104.2h-23.9
		V222.6h18.5L341.5,243z"/>
	<path class="st0" d="M559.1,164.6c-3.1-0.6-6.5-1.1-10.2-1.4c-3.7-0.3-6.9-0.5-9.6-0.5c-5.4,0-10.2,0.7-14.4,2
		c-4.3,1.3-7.8,3.5-10.7,6.4c-2.9,2.9-5.1,6.8-6.6,11.6c-1.5,4.8-2.3,10.6-2.3,17.4v22.5h43.7v20.5h-43.7v126.1h-23.9V243.2h-25.8
		v-20.5h25.8v-22.4c0-10.6,1.4-19.5,4.2-26.8c2.8-7.3,6.7-13.2,11.7-17.9c4.9-4.7,10.8-8.1,17.4-10.3c6.7-2.2,13.9-3.3,21.6-3.3
		c4.9,0,9.5,0.3,13.7,0.8c4.2,0.5,7.2,1.1,9.2,1.7V164.6z"/>
	<path class="st0" d="M840.8,369.3h-23.9V275c0-6.4-0.7-11.8-2.1-16.3c-1.4-4.5-3.4-8.2-6-11c-2.6-2.9-5.8-5-9.4-6.3
		c-3.7-1.3-7.7-2-12.3-2c-8.5,0-16.3,2.3-23.3,6.9c-7,4.6-13.3,10.9-18.8,18.9v104.2H721V222.6h18.5l4.6,20.4h0.5
		c2.7-3.4,5.6-6.6,8.7-9.5c3.1-2.9,6.6-5.5,10.5-7.7c3.9-2.2,8.1-3.9,12.7-5.2c4.6-1.2,9.7-1.9,15.1-1.9c10.9,0,20,2.6,27.2,7.9
		c7.2,5.3,12.8,12.4,16.7,21.5h0.6c6.5-9.2,13.9-16.3,22.3-21.5c8.3-5.2,18.1-7.8,29.2-7.8c5.2,0,10.6,0.7,16.4,2.2
		c5.8,1.4,11.1,4.1,15.9,8c4.8,3.9,8.9,9.2,12.1,16c3.2,6.8,4.8,15.5,4.8,26.2v98.2h-23.9V275c0-6.4-0.7-11.8-2.1-16.3
		c-1.4-4.5-3.4-8.2-6-11c-2.6-2.9-5.8-5-9.4-6.3c-3.7-1.3-7.7-2-12.3-2c-8.5,0-16.3,2.3-23.4,6.9c-7.1,4.6-13.4,10.9-18.9,18.9
		V369.3z"/>
	<path class="st0" d="M1041.6,352.3c7.9,0,15.2-0.6,21.7-1.9c6.5-1.3,13-3.1,19.5-5.5v19.9c-5.2,2.6-11.7,4.6-19.5,6.1
		c-7.7,1.5-16,2.2-24.9,2.2c-10.5,0-20.4-1.3-29.6-4c-9.2-2.7-17.2-7-23.9-13c-6.7-6-12-13.8-15.8-23.4c-3.8-9.6-5.7-21.2-5.7-34.8
		c0-13.4,1.8-25,5.5-34.8c3.7-9.8,8.6-18,14.8-24.6c6.2-6.6,13.2-11.5,21.3-14.8c8-3.3,16.4-4.9,25.1-4.9c8.2,0,15.9,1.4,23,4.1
		c7.1,2.7,13.3,7,18.6,12.9c5.2,5.9,9.4,13.4,12.4,22.7c3,9.3,4.5,20.4,4.5,33.3c0,1.2,0,2.3,0,3.2c0,0.9-0.1,2.9-0.2,5.9H987.2
		c0,9.4,1.4,17.3,4.2,23.9c2.8,6.5,6.7,11.8,11.6,15.9c4.9,4.1,10.6,7,17.2,8.9C1026.8,351.4,1033.9,352.3,1041.6,352.3z
		 M1028.9,239.3c-5.5,0-10.7,1.1-15.4,3.2c-4.7,2.2-8.9,5.1-12.4,8.8c-3.5,3.7-6.4,8.1-8.6,13c-2.2,5-3.5,10.3-4.1,16h75
		c0-5.8-0.8-11.1-2.3-16.1c-1.5-5-3.7-9.3-6.6-13c-2.9-3.7-6.5-6.6-10.8-8.7C1039.5,240.4,1034.6,239.3,1028.9,239.3z M1063.5,141.9
		l-24.9,53.9h-20.1l19-53.9H1063.5z"/>
	<path class="st0" d="M1109.7,297.8c0-10.2,1-19.2,3-27.1c2-7.9,4.7-14.7,8-20.6c3.3-5.9,7.2-10.8,11.6-14.7c4.4-4,9-7.2,13.7-9.6
		c4.7-2.5,9.5-4.2,14.4-5.3c4.9-1.1,9.5-1.6,13.8-1.6c9,0,16.7,1.5,23.3,4.5c6.6,3,12.5,7.4,17.8,13.1h0.5v-90.6h23.9v223.6h-18.1
		l-4.9-16.4h-0.6c-1.9,2.4-4,4.8-6.5,7.2c-2.5,2.4-5.4,4.6-8.7,6.6c-3.3,2-7.2,3.5-11.6,4.7c-4.4,1.2-9.4,1.8-15.2,1.8
		c-8,0-15.9-1.4-23.6-4.1s-14.6-7.1-20.6-13.1c-6-6-10.9-13.8-14.6-23.3C1111.5,323.1,1109.7,311.5,1109.7,297.8z M1134.7,297.5
		c0,8.4,1,16.1,2.9,22.9c1.9,6.8,4.7,12.7,8.3,17.4c3.6,4.8,8,8.5,13.3,11c5.2,2.6,11.3,3.9,18.1,3.9c5,0,9.6-0.7,13.7-2
		c4.1-1.3,7.8-3,11-5.1c3.2-2.1,6-4.2,8.3-6.6c2.3-2.3,4.1-4.5,5.5-6.4V256c-4.9-5-10.7-9.1-17.1-12.1c-6.5-3-13.5-4.6-21-4.6
		c-4.5,0-9.3,0.8-14.3,2.5c-5,1.7-9.6,4.8-13.9,9.2c-4.3,4.4-7.8,10.4-10.6,17.8C1136.1,276.3,1134.7,285.9,1134.7,297.5z"/>
	<path class="st0" d="M1277.4,188.5v-26.7h23.9v26.7H1277.4z M1278,369.3V222.6h23.9v146.7H1278z"/>
	<path class="st0" d="M1401.7,218.8c7.1,0,13.9,0.7,20.4,2.2c6.5,1.5,12,3.6,16.7,6.3v19.9c-6.5-2.5-12.5-4.3-17.9-5.6
		c-5.5-1.2-11-1.9-16.7-1.9c-6,0-11.9,1-17.8,2.9c-5.9,2-11.1,5.2-15.7,9.7c-4.6,4.5-8.4,10.4-11.2,17.8c-2.8,7.4-4.2,16.5-4.2,27.4
		c0,7.9,1.1,15.2,3.2,21.9c2.1,6.7,5.2,12.5,9.4,17.4c4.2,4.9,9.4,8.7,15.7,11.4c6.3,2.7,13.5,4.1,21.8,4.1c6,0,12-0.6,18.1-1.9
		c6.1-1.3,12-3.1,17.8-5.5v19.9c-1.8,1-4,2.1-6.9,3.1c-2.8,1-5.9,1.9-9.3,2.7c-3.4,0.8-7,1.4-10.8,1.9c-3.8,0.5-7.6,0.7-11.4,0.7
		c-9.9,0-19.2-1.5-28-4.5c-8.8-3-16.5-7.6-23.1-13.7c-6.6-6.2-11.8-14-15.6-23.5c-3.8-9.5-5.7-20.7-5.7-33.7c0-9.7,1-18.4,3-26.1
		c2-7.7,4.8-14.5,8.3-20.4c3.5-5.9,7.6-10.9,12.3-15c4.7-4.1,9.7-7.5,15-10.1c5.3-2.6,10.8-4.5,16.4-5.7
		C1390.9,219.4,1396.4,218.8,1401.7,218.8z"/>
	<path class="st0" d="M1552.2,353.1h-0.6c-2,2.5-4.4,4.9-7.4,7.3c-3,2.4-6.4,4.6-10.3,6.5c-3.9,1.9-8.2,3.4-12.8,4.6
		c-4.6,1.1-9.6,1.7-14.8,1.7c-7.1,0-13.6-1.1-19.5-3.2c-5.9-2.1-11-5.2-15.3-9.3c-4.3-4.1-7.6-9-10-14.9c-2.4-5.9-3.6-12.5-3.6-19.9
		c0-7.3,1.3-13.8,3.9-19.6c2.6-5.8,6.3-10.7,11-14.7c4.7-4,10.4-7.1,17.1-9.3c6.6-2.2,14-3.2,22-3.2c7.6,0.1,14.7,0.8,21.2,2
		c6.5,1.2,12.2,2.8,17.3,4.6h0.6v-10.2c0-4-0.3-7.6-0.8-10.7c-0.5-3.1-1.4-5.8-2.6-8.2c-2.7-4.9-6.9-9-12.8-12.3
		c-5.9-3.2-13.8-4.9-23.8-4.9c-7.4,0-14.4,0.7-20.9,2.1c-6.5,1.4-13,3.3-19.5,5.8v-20.1c2.5-1.2,5.4-2.4,8.7-3.5
		c3.3-1.1,6.9-2,10.6-2.8c3.7-0.8,7.6-1.4,11.7-1.8c4.1-0.4,8.2-0.6,12.4-0.6c14.8,0,26.9,2.6,36.4,7.9c9.4,5.3,16.2,12.2,20.3,20.8
		c1.5,3.3,2.6,6.9,3.3,10.9c0.7,4,1,8.3,1,13v97.9h-20.1L1552.2,353.1z M1550.9,304.9c-4.4-1.2-9.6-2.4-15.7-3.6
		c-6-1.1-12.7-1.7-20-1.9c-10.1,0-18.1,2.2-23.8,6.5c-5.7,4.3-8.6,11-8.6,19.9c0,4.5,0.7,8.5,2.2,11.9c1.4,3.4,3.4,6.2,5.9,8.4
		c2.5,2.2,5.5,3.9,8.9,4.9c3.4,1.1,7.1,1.6,11,1.6c5.1,0,9.9-0.7,14.3-2.2c4.4-1.5,8.3-3.3,11.8-5.3c3.4-2.1,6.4-4.1,8.8-6.2
		c2.4-2.1,4.2-3.7,5.3-4.8V304.9z"/>
	<path class="st1" d="M246.3,215.3l-31.7,109.8c-1.8,6.3-2.6,10.4-2.6,12.4c0,1.1,0.5,2.2,1.4,3.2c0.9,1,1.9,1.5,2.9,1.5
		c1.7,0,3.5-0.8,5.2-2.3c4.6-3.8,10.2-10.7,16.7-20.7l5.2,3.1c-15.5,27.1-32.1,40.6-49.6,40.6c-6.7,0-12-1.9-16-5.6
		c-4-3.8-5.9-8.5-5.9-14.3c0-3.8,0.9-8.6,2.6-14.5l21.5-73.8c2.1-7.1,3.1-12.5,3.1-16.1c0-2.3-1-4.3-2.9-6c-2-1.7-4.6-2.6-8-2.6
		c-1.5,0-3.4,0.1-5.6,0.2l2-6.2l52.3-8.5H246.3z M236.7,144.3c6.4,0,11.8,2.2,16.1,6.6c4.4,4.4,6.6,9.8,6.6,16.1
		c0,6.3-2.2,11.6-6.6,16.1c-4.4,4.4-9.8,6.6-16.1,6.6c-6.2,0-11.5-2.2-15.9-6.6c-4.4-4.4-6.6-9.8-6.6-16.1c0-6.3,2.2-11.6,6.6-16.1
		C225.1,146.5,230.4,144.3,236.7,144.3z"/>
	<path class="st0" d="M284.7,376.5c-31.8,17.9-71.1,23.8-112,11.6c-45.5-13.6-80.8-50.3-92.9-96.3c-24.9-94.4,45.6-179.4,136-179.4
		c57.1,0,106.3,34,128.5,82.9c2.2,4.8,7.7,7,12.6,5.1l0,0c5.4-2.1,7.8-8.3,5.5-13.5c-26.2-57.5-85.3-97-153.1-94.3
		c-82.5,3.3-149.8,69.6-154.2,152c-5,92.8,69.1,169.9,160.8,169.9c28.5,0,55.3-7.5,78.6-20.6c5.2-2.9,6.7-9.8,3.1-14.6l0,0
		C294.5,375.4,289,374.1,284.7,376.5z"/>
	<path class="st1" d="M523.7,369.3h52.6c2.4-0.8,4.9-1.5,7.3-2.3c4.3-1.4,7-4.3,7.1-9c0.1-3.7,0.4-7.4,0.5-11.1
		c0-0.6-0.3-1.2-0.7-1.7c-3.1-4-6-8.1-7.4-13c-0.6-2.1-1.1-4.2-1.6-6.4c-0.3-1.4-0.9-2.5-2.1-3.4c-3.5-2.7-5.4-6.6-6.7-10.7
		c-1.3-4.2-2-8.4-1.1-12.8c0.5-2.7,2-4.7,4.3-6c1-0.5,1.3-1,1.2-2.2c-0.4-6-1.4-12-0.8-17.9c1-9.8,6-17.8,13.8-24
		c5.5-4.4,11.9-7.2,18.8-8.5c8.8-1.1,18.1,0.8,21.2,2c13.3,5,22,14.3,25.2,28.3c0.7,3.3,0.5,6.9,0.4,10.4c-0.1,3.4-0.8,6.7-1,10
		c0,0.6,0.5,1.4,1,1.7c3.5,1.9,5,4.9,5,8.7c0,6.5-1.4,12.8-5.4,18.1c-1,1.3-2.5,2.3-3.6,3.6c-0.6,0.7-0.9,1.8-1.2,2.7
		c-1,3.2-1.5,6.6-2.9,9.6c-1.5,3.2-3.7,6.1-5.6,9.1c-0.7,1.1-1.2,2-1.1,3.4c0.3,3.6,0.3,7.3,0.6,10.9c0.2,3.2,1.7,5.9,4.8,7
		c3.1,1.2,6.2,2.3,9.4,3.4h52.8c-4.7-3.1-9.8-5.5-15.4-7.2c-4-1.2-8-2.4-11.9-3.6c-4.7-1.4-9.4-2.8-14.1-4.3c-2.7-0.8-5.3-1.7-8-2.7
		c0,0,0-0.1,0-0.1c1.6-2.4,3.4-5.2,4.9-8.4c1.6-3.5,2.4-6.7,3.1-9.4c0-0.1,0.1-0.2,0.1-0.3c0.8-0.8,1.7-1.8,2.6-2.9
		c5.9-7.9,9-17.6,9-28.9c0-6.3-1.8-12-5.2-16.7c0.1-1,0.2-2.1,0.2-3.2l0-0.8c0.2-3.9,0.3-8.8-0.9-14.2c-4.4-19.7-17-34-36.4-41.2
		c-3.5-1.3-6.9-1.9-9.5-2.4c-0.8-0.2-1.6-0.3-2.4-0.5c0,0-13.1-1.7-20.8,0.5c-7.7,2.2-17.5,5.9-24.7,11.7
		c-12,9.6-19.1,22.1-20.4,36.3c-0.5,4.9-0.2,9.6,0.1,13.8c-2.2,3.1-3.8,6.7-4.6,10.6c-1.3,6.8-0.8,13.8,1.5,21.6
		c2.1,6.8,5.1,12.2,9.3,16.5c0.3,1.2,0.6,2.4,0.9,3.6c1.6,5.7,4.3,10.4,7,14.4c-9.7,3-19.2,5.9-28.2,8.6
		C538.2,362.2,530.8,364.6,523.7,369.3z"/>
</g>
</svg>
