<?xml version="1.0" encoding="utf-8"?>
<!-- Generator: Adobe Illustrator 22.0.0, SVG Export Plug-In . SVG Version: 6.00 Build 0)  -->
<svg version="1.1" id="Layer_1" xmlns="http://www.w3.org/2000/svg" xmlns:xlink="http://www.w3.org/1999/xlink" x="0px" y="0px"
	 viewBox="0 0 612 792" style="enable-background:new 0 0 612 792;" xml:space="preserve">
<style type="text/css">
	.st0{fill:url(#SVGID_1_);}
	.st1{fill:#1B1464;}
</style>
<linearGradient id="SVGID_1_" gradientUnits="userSpaceOnUse" x1="30.3826" y1="375.6693" x2="583.3668" y2="375.6693">
	<stop  offset="0.5" style="stop-color:#A82A4D"/>
	<stop  offset="0.75" style="stop-color:#1B1464"/>
</linearGradient>
<path class="st0" d="M305.7,652.1c-45.8,0-89-11.2-127-31c0.4-2.4,0.8-4.6,0.8-4.6l35.2-199h0.9l90.3,205.4l90.4-205.4h0.9l35.2,199
	c0,0,0.3,1.3,0.8,4.4C395,640.8,351.5,652.1,305.7,652.1z M306,375.1l104-255.3c-32.2-13.2-67.5-20.5-104.4-20.5
	c-36.3,0-70.9,7.1-102.6,19.8L306,375.1z M445.1,136.4L307.3,469.5L170.4,135.4C86.9,183,30.4,272.8,30.4,375.7
	c0,92.1,45.4,174,114.9,224l58.3-297.5l103.5,237.4l103.6-237.4L469,599.4c69.3-50.2,114.4-131.9,114.4-223.8
	C583.4,273.6,527.7,184.3,445.1,136.4z"/>
<g>
	<path class="st1" d="M68.4,132.2l-0.1,0.1l23.7,39.8l-6.7,5.8l-36.4-63.7l53.5,25.7L84.7,83.2l57.7,45.3l-6.7,5.8L99.8,105
		l-0.1,0.1l15.1,49.1L68.4,132.2z"/>
	<path class="st1" d="M132.7,86.6l11.6,20.7c3.4,6,7.8,10.4,14.9,6.4c7.1-4,5.7-10.1,2.3-16.1L150,76.9l7.2-4l12,21.5
		c5.7,10.2,4.8,19.9-6.2,26c-11,6.2-19.7,1.9-25.4-8.3l-12-21.5L132.7,86.6z"/>
	<path class="st1" d="M194.7,103.5l-7.6,3.2L156,33.6l7.6-3.2L194.7,103.5z"/>
	<path class="st1" d="M213.6,96.5l-7.8,2.7L194.3,66l-4.2,1.5l-2.5-7.3l4.2-1.5l-5.4-15.5l7.8-2.7l5.4,15.5l7.6-2.6l2.5,7.3
		l-7.6,2.6L213.6,96.5z"/>
	<path class="st1" d="M219.7,29.8c0.8,3-1,6.1-4.1,6.9c-3,0.8-6.1-0.9-6.9-3.9c-0.8-3.1,1-6.2,4-7C215.8,24.9,218.9,26.7,219.7,29.8
		z M234.2,90.5l-8,2.1l-11-41.4l8-2.1L234.2,90.5z"/>
	<path class="st1" d="M257.2,52.3c-1.3-1.9-3.7-3.2-6-2.8c-2.3,0.4-4.1,2.5-3.7,4.9c0.6,3.7,5.8,4.5,11.1,5.9
		c5.3,1.4,10.6,3.7,11.7,10.4c1.3,8-4.4,15.1-12.2,16.4c-6.1,1-13-1.5-16.2-7.1l6.4-4.3c2.2,2.9,4.7,4.8,8.6,4.1
		c3.4-0.6,6-3.4,5.4-7c-0.4-2.3-1.6-3.2-3.7-4.1l-8.6-2.9c-5.1-1.7-8.9-3.5-9.9-9.3c-1.1-6.9,3.6-13.2,10.4-14.3
		c5.1-0.9,9.8,1.3,12.8,5.5L257.2,52.3z"/>
	<path class="st1" d="M282.7,62.4c0.3,7.3,5.5,14,13.4,13.7c6.3-0.2,9.6-3.5,12.5-8.8l7.1,3.7c-3.8,7.6-11.1,12.1-19.4,12.4
		c-13.1,0.5-21.4-9.1-21.8-21.8c-0.5-13.2,6.2-23.3,20.1-23.8c13.6-0.5,20.4,9.4,20.8,22.1l0,1.3L282.7,62.4z M306.9,55.3
		c-1.2-6.4-5.6-10.5-12.2-10.3c-6.4,0.2-11,5-11.8,11.1L306.9,55.3z"/>
	<path class="st1" d="M333.2,47l0.3,0c2.5-4.8,6.9-7.7,12.4-7.2c2.4,0.2,4.7,1.2,6.6,2.7l-4.4,7.1c-1.3-1.4-2.9-2-4.9-2.2
		c-8.8-0.8-10.7,7.3-11.3,14.3l-1.9,21l-8.2-0.7l3.8-42.7l8.2,0.7L333.2,47z"/>
	<path class="st1" d="M372.7,73l17.8-23.4l9,2l-30.7,38.6l-11.4-47.9l9,2L372.7,73z"/>
	<path class="st1" d="M402.5,98.2l-7.8-2.6l13.6-40.6l7.8,2.6L402.5,98.2z M423.8,39.4c-1,3-4.2,4.5-7.2,3.5c-3-1-4.6-4.1-3.6-7.1
		c1-3,4.3-4.7,7.2-3.7C423.1,33.2,424.8,36.4,423.8,39.4z"/>
	<path class="st1" d="M454.9,87c-1.4-4.8-4.3-8.3-8.8-10.3c-7.3-3.3-16,0.6-19.2,7.8c-3.6,8-0.7,16.4,7.2,20c4.3,2,8.7,1.6,13-0.3
		l-4.4,9.6c-4.2,0.3-8-0.5-11.9-2.3c-11.5-5.2-16.9-18.3-11.6-30c5.5-12.1,18.9-16.8,30.9-11.3c3.5,1.6,7,4.2,9.2,7.3L454.9,87z"/>
	<path class="st1" d="M457.1,123.9l-7.1-4.2l21.6-37l7.1,4.2L457.1,123.9z M490,70.8c-1.6,2.7-5,3.5-7.7,2c-2.7-1.6-3.6-5-2.1-7.7
		c1.6-2.8,5.1-3.7,7.8-2.1C490.7,64.6,491.6,68.1,490,70.8z"/>
	<path class="st1" d="M513.4,137.7c-7.8,10.3-21.8,12.1-32,4.4c-10.2-7.7-12.3-21.7-4.5-32c7.8-10.3,21.8-12.1,32-4.4
		C519.1,113.5,521.2,127.4,513.4,137.7z M483.5,115.1c-4.9,6.4-3.8,15.8,2.7,20.7c6.5,4.9,15.8,3.3,20.7-3.1
		c4.9-6.5,3.8-15.8-2.7-20.7C497.6,107.1,488.4,108.6,483.5,115.1z"/>
	<path class="st1" d="M539.8,147.6c0.8-2.2,0.4-4.9-1.3-6.5c-1.6-1.6-4.5-1.9-6.2-0.2c-2.6,2.7-0.3,7.3,1.7,12.5
		c2,5.2,3.2,10.8-1.6,15.6c-5.7,5.8-14.8,5.3-20.5-0.3c-4.4-4.4-6.4-11.4-3.7-17.3l7.3,2.7c-1,3.5-1.1,6.6,1.7,9.4
		c2.5,2.5,6.3,2.9,8.9,0.3c1.6-1.6,1.6-3.2,1.1-5.4l-2.7-8.7c-1.6-5.2-2.4-9.3,1.8-13.5c4.9-4.9,12.8-4.8,17.7,0.1
		c3.7,3.7,4.7,8.7,3,13.6L539.8,147.6z"/>
</g>
<g>
	<path class="st1" d="M160.5,714.1l52.1-51.8l11.6,5l-75,73.2l1.6-104.9l11.6,5L160.5,714.1z"/>
	<path class="st1" d="M246.5,764.3l-10.7-2.4l1.9-8.7l-0.2-0.1c-5.7,5.4-13.3,8.2-21.3,6.4c-17-3.8-23.5-20.2-20-36.1
		c3.4-15.3,16.7-26.9,32.9-23.3c8.2,1.8,13.9,7.6,16.9,15.3l0.2,0.1l2.1-9.3l10.7,2.4L246.5,764.3z M242.6,734.2
		c2.4-10.8-2.1-21.5-13.6-24.1c-11.1-2.5-19.8,5.7-22.1,16.1c-2.3,10.5,1.8,21.7,13.1,24.2C231.7,753,240.2,745.1,242.6,734.2z"/>
	<path class="st1" d="M279.4,767l-11-0.9l8.5-105.7l11,0.9L279.4,767z"/>
	<path class="st1" d="M311,719.9l0.4,0c2.5-6.8,8.1-11.2,15.4-11.3c3.2-0.1,6.4,1,9.1,2.6l-4.8,10.1c-2-1.7-4.2-2.2-6.8-2.2
		c-11.8,0.3-13.1,11.3-12.9,20.6l0.6,28.1l-11,0.2l-1.2-57.1l11-0.2L311,719.9z"/>
	<path class="st1" d="M353.2,681c0.5,4.1-2.4,7.8-6.5,8.4c-4.1,0.5-7.9-2.3-8.5-6.4c-0.5-4.2,2.4-8.1,6.5-8.6S352.6,676.7,353.2,681
		z M361.8,763.8l-10.9,1.4l-7.4-56.7l10.9-1.4L361.8,763.8z"/>
	<path class="st1" d="M438.2,745.7l-10.6,3l-2.4-8.6l-0.2,0.1c-2.5,7.4-7.9,13.5-15.7,15.7c-16.8,4.7-30.3-6.6-34.7-22.3
		c-4.2-15,1.9-31.6,17.8-36.1c8.1-2.3,15.9,0.1,22.1,5.4l0.2-0.1l-2.6-9.2l10.6-3L438.2,745.7z M420.5,721.1
		c-3-10.7-12-17.9-23.4-14.7c-10.9,3.1-14.7,14.4-11.8,24.7c2.9,10.3,11.9,18.2,23,15.1C419.8,742.8,423.5,731.9,420.5,721.1z"/>
	<path class="st1" d="M461.1,687.1c-2.4-2-5.9-2.7-8.8-1.4c-2.8,1.3-4.4,4.8-3,7.6c2.2,4.5,9.1,3.7,16.4,3.5c7.4-0.1,15,0.8,18.9,9
		c4.7,9.8,0,21-9.6,25.6c-7.5,3.6-17.2,2.9-23.4-3.1l6.7-7.9c3.9,2.9,7.8,4.4,12.5,2.1c4.2-2,6.5-6.6,4.4-11
		c-1.3-2.8-3.3-3.4-6.3-3.9l-12.2-0.6c-7.2-0.4-12.8-1.2-16.1-8.3c-4-8.4-0.3-18.3,8.1-22.2c6.3-3,13-2,18.4,2.3L461.1,687.1z"/>
</g>
</svg>
