<?xml version="1.0" encoding="utf-8"?>
<!-- Generator: Adobe Illustrator 22.0.0, SVG Export Plug-In . SVG Version: 6.00 Build 0)  -->
<svg version="1.1" id="Layer_1" xmlns="http://www.w3.org/2000/svg" xmlns:xlink="http://www.w3.org/1999/xlink" x="0px" y="0px"
	 viewBox="0 0 612 612" style="enable-background:new 0 0 612 612;" xml:space="preserve">
<style type="text/css">
	.st0{fill:#FFFFFF;}
</style>
<path class="st0" d="M234.6,13c15.9,0,31.8,0,47.7,0c0,5.4,0,10.7,0,16.1l0.1-0.1c-10.5,0-21,0-31.8,0c0,21.3,0,42.3,0,63.2
	c-10.6,0-21,0-31.4,0c0-5.3,0-10.6,0-16c5.2,0,10.3,0,15.4,0c0-10.6,0-21,0-31.4c-5.2,0-10.3,0-15.6,0c0,5.4,0,10.6,0,16
	c-10.6,0-21,0-31.4,0c0,5.2,0,10.3,0,15.7c5.2,0,10.3,0,15.5,0c0,2.5,0,4.7,0,7c0,8.2,0.1,16.5,0.1,24.7c-5.3,0-10.5,0-15.8-0.1
	c0-5.2,0-10.3,0-15.5c-10.7,0-21.1,0-31.5,0c0,15.8,0,31.4,0,47c5.2,0,10.2,0,15.5,0c0-10.5,0-21,0-31.6c5.5,0,10.8,0,16,0
	c0,5.3,0,10.6,0,16c5.3,0,10.4,0,15.6,0c0-5.4,0-10.6,0-15.9c5.3,0,10.6,0,16,0c0,10.7,0,21.2,0,31.7l0.1-0.1c-10.5,0-21,0-31.5,0
	c0,10.7,0,21.2,0,31.8c5.2,0,10.2,0,15.3,0c0,5.4,0,10.6,0,15.8c-10.6,0-21,0-31.6,0c0-10.6,0-20.9,0-31.3c-5.2,0-10.3,0-15.4,0
	c0,15.8,0,31.4,0,47.2c5.2,0,10.2,0,15.5,0c0,5.4,0,10.6,0,15.9c5.5,0,10.8,0,16,0c0,10.6,0,21.2,0,31.7c-5.4,0-10.7,0-16.1,0
	c0-5.3,0-10.6,0-16c-10.7,0-21.2,0-31.7,0c0-0.9,0-1.8,0-2.7c0-50.9,0-101.9,0-152.8c0-0.9,0-1.8,0-2.9c10.7,0,21.1,0,31.6,0
	c0-10.6,0-21,0-31.6c-10.5,0-21,0-31.6,0c0-10.7,0-21.2,0-31.6c5.3,0,10.7,0,16,0c0,5.3,0,10.6,0,16c10.8,0,21.2,0,31.7,0
	c0,5.2,0,10.3,0,15.5c5.3,0,10.4,0,15.5,0c0-5.2,0-10.3,0-15.5c-5.3,0-10.4,0-15.5,0c0-5.4,0-10.7,0-16.1c10.6,0,21.1,0,31.7,0
	c0,5.3,0,10.6,0,15.9c5.3,0,10.4,0,15.6,0C234.6,23.5,234.6,18.3,234.6,13z M13,13c0,37,0,74,0,111c37,0,73.9,0,111,0
	c0-37.2,0-74.1,0-111C87,13,50,13,13,13z M107.9,29.1c0,26.2,0,52.4,0,78.7c-26.2,0-52.4,0-78.7,0c0-26.1,0-52.3,0-78.7
	C55.5,29.1,81.6,29.1,107.9,29.1z M13,599c37,0,74,0,111,0c0-37,0-73.9,0-111c-37.2,0-74.1,0-111,0C13,525,13,562,13,599z
	 M107.9,583.3c-26.2,0-52.4,0-78.7,0c0-26.3,0-52.6,0-79.1c26.1,0,52.3,0,78.7,0C107.9,530.6,107.9,556.9,107.9,583.3z M488,13
	c0,37,0,73.9,0,110.9c37.2,0,74,0,111,0c0-37.1,0-74,0-110.9C562,13,525,13,488,13z M504.1,29.1c26.4,0,52.7,0,79.1,0
	c0,26.2,0,52.4,0,78.7c-26.3,0-52.6,0-79.1,0C504.1,81.6,504.1,55.4,504.1,29.1z M456.3,76.3L456.3,76.3c-5.1,0.1-10.2,0.1-15.6,0.1
	c0-5.3,0-10.5,0-15.7l0.1,0.1c-5.3,0-10.5,0-15.9,0c0-5.4,0-10.6,0-16.1c5.3,0,10.6,0,15.9,0l-0.1,0.1c0-10.6,0-21.1,0-31.7
	c-5.3,0-10.7,0-16,0c0,5.3,0,10.5,0,16.1c-10.7,0-21.2,0-31.7,0L393,29c0,5.2,0,10.5,0,15.7l-0.1-0.1c5.3,0,10.5,0,15.9,0
	c0,10.6,0,21,0,31.7c-5.3,0-10.6,0-15.9,0l0.1-0.1c0,5.3,0,10.6,0,16.2c10.7,0,21.1,0,31.7,0c0,10.6,0,21,0,31.4c5.4,0,10.6,0,16,0
	c0-10.6,0-21,0-31.5c5.3,0,10.5,0,15.6,0C456.3,87,456.3,81.7,456.3,76.3z M551.7,567.4c-5.4,0-10.7,0-16.1,0l0.1-0.1
	c0,5.3,0,10.5,0,15.9c-5.2,0-10.3,0-15.7,0c0-5.3,0-10.6,0-15.9l0.1,0.1c-10.6,0-21.2,0-32.1,0c0-5.2,0-10.3,0-15.5
	c-5.3,0-10.3,0-15.6,0c0,5,0,10.1,0,15.5c-5.5,0-10.9,0-16.2,0l0.1-0.1c0,10.6,0,21.1,0,31.7c10.6,0,21.1,0,31.7,0
	c0-5.1,0-10.2,0-15.5c5.3,0,10.6,0,16,0c0,5.2,0,10.3,0,15.5c15.9,0,31.8,0,47.7,0C551.7,588.4,551.7,577.9,551.7,567.4L551.7,567.4
	z M392.9,76.4c0-10.6,0-21.2,0-31.7l0.1,0.1c-5.1,0-10.2,0-15.6,0c0,5.3,0,10.6,0,15.9c-5.4,0-10.6,0-15.9,0c0-10.4,0-20.9,0-31.6
	c10.5,0,21,0,31.5,0l-0.1,0.1c0-5.4,0-10.7,0-16.1c-15.8,0-31.5,0-47.3,0c0,26.5,0,52.9,0,79.4l-0.1-0.1c10.5,0,21,0,31.8,0
	c0-5.5,0-10.7,0-16C382.8,76.3,387.9,76.3,392.9,76.4L392.9,76.4z M345.7,599c0-10.6,0-21.1,0-31.7l0.1,0.1c-5.3,0-10.5,0-15.9,0
	c0-5.2,0-10.3,0-15.7c5.3,0,10.6,0,15.9,0l-0.1,0.1c0-10.5,0-20.9,0-31.7c-10.6,0-21.1,0-31.7,0c0,15.7,0,31.4,0,47.3
	c-5.4,0-10.7,0-16,0c0,0,0.1-0.1,0.1-0.1c0,5.3,0,10.6,0,16.1c5.5,0,10.7,0,16,0c0,5.3,0,10.4,0,15.6C324.6,599,335.1,599,345.7,599
	z M409,583.4c-5.4,0-10.6,0-15.9,0c0-10.6,0-21.1,0-31.8c5.3,0,10.6,0,16,0l-0.1,0.1c0-10.5,0-20.9,0-31.7c-5.4,0-10.7,0-16,0
	c0,5.1,0,10.2,0,15.6c-5.2,0-10.2,0-15.5,0c0,5.4,0,10.7,0,16.1c-10.7,0-21.2,0-31.7,0l0.1-0.1c0,5.2,0,10.5,0,15.7l-0.1-0.1
	c5.1,0,10.2,0,15.6,0c0,5.3,0,10.6,0,16c5.4,0,10.7,0,16.1,0c0,5.4,0,10.5,0,15.7c10.6,0,21.1,0,31.7,0
	C409,593.9,409,588.8,409,583.4z M13,393c15.9,0,31.7,0,47.7,0c0-5.4,0-10.5,0-15.6c-5.3,0-10.6,0-16.1,0c0-5.4,0-10.7,0-16
	c-10.7,0-21.1,0-31.6,0C13,371.9,13,382.4,13,393z M60.7,329.7c0-5.2,0-10.5,0-15.7l0.1,0.1c-5.3,0-10.6,0-16.2,0
	c0-5.5,0-10.8,0-16.1c-5.3,0-10.3,0-15.6,0c0-5.2,0-10.3,0-15.6c-5.5,0-10.7,0-16,0c0,10.6,0,21.1,0,31.7c5.3,0,10.5,0,16.1,0
	c0,5.3,0,10.5,0,15.7l-0.1-0.1C39.6,329.6,50.2,329.6,60.7,329.7L60.7,329.7z M234.6,599c0-10.5,0-21,0-31.5c-5.4,0-10.5,0-15.7,0
	c0,5.3,0,10.5,0,15.9c-15.9,0-31.7,0-47.6,0c0,5.3,0,10.5,0,15.6C192.4,599,213.5,599,234.6,599z M60.7,139.7c-16.1,0-31.9,0-47.7,0
	c0,5.3,0,10.7,0,16c5.3,0,10.5,0,16.1,0c0,5.3,0,10.5,0,15.7l-0.1-0.1c5.2,0,10.3,0,15.7,0c0-5.3,0-10.4,0-15.6c5.5,0,10.7,0,16,0
	C60.7,150.4,60.7,145.1,60.7,139.7z M13,440.7c10.5,0,21,0,31.7,0c0-5.5,0-10.7,0-16.1c5.4,0,10.6,0,15.8,0c0-5.3,0-10.4,0-15.5
	c-10.5,0-20.9,0-31.5,0c0,5.2,0,10.3,0,15.5c-5.5,0-10.8,0-16,0C13,430,13,435.3,13,440.7z M155.7,599c0-15.7,0-31.4,0-47.1
	c-5.5,0-10.7,0-16,0c0,15.8,0,31.5,0,47.1C145,599,150.4,599,155.7,599z M29.1,171.4c-5.4,0-10.7,0-16.1,0c0,10.6,0,21.1,0,31.7
	c10.5,0,21,0,31.5,0c0-5.4,0-10.4,0-15.7c-5.2,0-10.3,0-15.5,0C29,181.8,29,176.6,29.1,171.4L29.1,171.4z M13,472.3
	c10.5,0,21,0,31.5,0c0-5.5,0-10.7,0-16c-10.6,0-21.1,0-31.5,0C13,461.6,13,467,13,472.3z M282.4,599c0-5.2,0-10.3,0-15.5
	c-10.7,0-21.1,0-31.7,0c0,5.3,0,10.4,0,15.5C261.2,599,271.8,599,282.4,599z M29.1,329.7c-5.4,0-10.7,0-16.1,0c0,5.3,0,10.7,0,16
	c5.3,0,10.6,0,16,0C29,340.1,29,334.9,29.1,329.7L29.1,329.7z M329.6,29.1c0-5.6,0-10.8,0-16.1c-5.2,0-10.4,0-15.6,0
	c0,5.4,0,10.7,0,16.1C319.2,29.1,324.3,29.1,329.6,29.1z M13,266.3c5.3,0,10.6,0,15.9,0c0-5.4,0-10.4,0-15.6c-5.4,0-10.6,0-15.9,0
	C13,255.9,13,261.1,13,266.3z M13,234.6c5.3,0,10.6,0,15.9,0c0-5.4,0-10.4,0-15.6c-5.4,0-10.6,0-15.9,0C13,224.2,13,229.4,13,234.6z
	 M599,599c0-5.2,0-10.3,0-15.5c-5.4,0-10.4,0-15.6,0c0,5.3,0,10.4,0,15.5C588.6,599,593.8,599,599,599z M456.3,567.4
	c0-10.5,0-20.9,0-31.6c15.9,0,31.7,0,47.7,0c0,5.2,0,10.4,0,15.8c5.4,0,10.6,0,16.1,0c0,5.4,0,10.6,0,15.8l-0.1-0.1
	c5.2,0,10.5,0,15.7,0l-0.1,0.1c0-10.5,0-20.9,0-31.7c5.5,0,10.8,0,16.1,0l-0.1,0.1c0-15.9,0-31.7,0-47.8c-5.5,0-10.7,0-16,0
	c0-2.2,0-4.2,0-6.1c0-8.5-0.1-17-0.1-25.5c0,0,0.1,0.1,0.1,0.1c-10.5,0-21,0-31.5,0c0-10.7,0-21.1,0-31.7c5.3,0,10.5,0,15.8,0
	c0-5.2,0-10.3,0-15.6c-5.4,0-10.6,0-15.9,0c0-5.5,0-10.7,0-16l0.1,0.1c-5.4,0-10.7,0-16.1-0.1c0,10.5,0,20.9,0,31.6
	c-5.1,0-10.2,0-15.6,0c0,5.5,0,10.8,0,16.2c5.1,0,10.2,0,15.5,0c0,5.2,0,10.2,0,15.5c-5.1,0-10.1,0-15.5,0c0-5.2,0-10.3,0-15.5
	c-5.3,0-10.5,0-16,0c0-10.6,0-21.1,0-31.7c-5.2,0-10.5,0-15.7,0c0,10.5,0,20.9,0,31.7c-5.4,0-10.7,0-16,0c0,5.2,0,10.5,0,15.7
	c10.5,0,20.9,0,31.6,0c0,15.9,0,31.6,0,47.7c-5.2,0-10.3,0-15.5,0c0,15.8,0,31.6,0,47.8c-10.6,0-21.1,0-31.7,0c0,0,0.1-0.1,0.1-0.1
	c0,5.2,0,10.3,0,15.7c5.3,0,10.4,0,15.7,0c0,5.4,0,10.6,0,15.8c5.4,0,10.6,0,16,0c0-5.4,0-10.6,0-15.9
	C446.1,567.3,451.2,567.3,456.3,567.4L456.3,567.4z M520,519.9c-15.8,0-31.6,0-47.5,0c0-15.7,0-31.5,0-47.5c15.7,0,31.5,0,47.5,0
	C520,488.4,520,504.1,520,519.9z M488,203c0,5.3,0,10.5,0,15.9c-5.2,0-10.3,0-15.7,0c0-5.3,0-10.6,0-15.9l0.1,0.1
	c-5.3,0-10.5,0-16,0c0,10.5,0,20.9,0,31.6c-5.3,0-10.4,0-15.7,0c0,5.5,0,10.8,0,16.1c5.1,0,10.2,0,15.5,0c0,5.2,0,10.2,0,15.6
	c-5.2,0-10.3,0-15.5,0c0,5.3,0,10.5,0,16c5.2,0,10.3,0,15.6,0c0,5.4,0,10.6,0,15.7c5.4,0,10.7,0,16.1,0c0-21,0-42,0-63.2
	c5.1,0,10.2,0,15.5,0c0,5.2,0,10.4,0,15.9c5.5,0,10.7,0,16,0c0,5.3,0,10.3,0,15.6c-5.2,0-10.4,0-16,0c0,10.7,0,21.3,0,31.8
	c5.4,0,10.7,0,16.1-0.1L504,298c0-5.1,0-10.2,0-15.6c5.3,0,10.6,0,16,0c0-5.4,0-10.7,0-16.2c5.4,0,10.6,0,15.7,0l-0.1,0.1
	c0-5.2,0-10.3,0-15.7c-5.3,0-10.4,0-15.7,0c0-21.2,0-42.2,0-63.1c-5.4,0-10.6,0-16,0c0,5.2,0,10.3,0,15.5
	C498.5,203,493.2,203,488,203L488,203z M551.7,171.3c5.2,0,10.3,0,15.5,0c0,16.1,0,31.9,0,47.7c-5.2,0-10.2,0-15.5,0
	c0-5.3,0-10.6,0-15.8c-5.5,0-10.7,0-15.9,0c0,10.5,0,20.9,0,31.5c15.9,0,31.7,0,47.7,0c0,5.5,0,10.7,0,15.9c5.3,0,10.3,0,15.4,0
	c0-37,0-73.9,0-110.7c-10.6,0-21,0-31.6,0c0,5.3,0,10.5,0,15.9c-5.2,0-10.3,0-15.5,0C551.8,161.1,551.8,166.2,551.7,171.3
	L551.7,171.3z M535.7,298c-10.6,0-21.2,0-31.7,0l0.1-0.1c0,10.5,0,20.9,0,31.6c-5.3,0-10.6,0-16,0c0,5.4,0,10.7,0,16
	c-5.3,0-10.4,0-15.6,0c0-5.3,0-10.4,0-15.8c-5.4,0-10.6,0-16.1,0c0,10.5,0,21,0,31.5c10.5,0,20.9,0,31.7,0c0,5.4,0,10.7,0,16
	c5.4,0,10.7,0,16.1-0.1l-0.1,0.1c0-5.3,0-10.5,0-16.1c5.5,0,10.8,0,16.1,0c0,0-0.1,0.1-0.1,0.1c0-10.5,0-21,0-31.6
	c5.4,0,10.4,0,15.8,0c0,5.4,0,10.6,0,15.8c5.4,0,10.6,0,15.8,0c0-10.5,0-21,0-31.6c-5.4,0-10.6,0-15.9,0
	C535.6,308.5,535.6,303.2,535.7,298L535.7,298z M456.3,155.7c10.5,0,20.9,0,31.7,0c0,5.3,0,10.5,0,15.7l-0.1-0.1
	c10.7,0,21.3,0,32.2,0c0-5.3,0-10.4,0-15.7c5.3,0,10.3,0,15.4,0c0-5.4,0-10.6,0-16c-21.1,0-42,0-63.2,0c0-15.8,0-31.4,0-47.3
	c-5.5,0-10.8,0-16,0c0,0.9,0,1.8,0,2.7C456.3,115.3,456.3,135.5,456.3,155.7L456.3,155.7z M535.7,266.3c0,10.6,0,21.2,0,31.7
	c0,0-0.1-0.1-0.1-0.1c15.9,0,31.7,0,47.8,0c0,5.5,0,10.7,0,16c5.3,0,10.3,0,15.4,0c0-15.9,0-31.7,0-47.4c-10.6,0-21,0-31.6,0
	c0,5.4,0,10.6,0,15.8c-5.3,0-10.3,0-15.6,0c0-5.3,0-10.6,0-15.9C546.2,266.3,540.9,266.3,535.7,266.3L535.7,266.3z M567.4,361.3
	c5.3,0,10.6,0,16.1,0c0,5.5,0,10.6,0,15.9c5.2,0,10.3,0,15.4,0c0-15.9,0-31.7,0-47.4c-5.2,0-10.2,0-15.5,0c0,5.3,0,10.6,0,16
	c-5.5,0-10.7,0-15.9,0C567.5,351.2,567.5,356.3,567.4,361.3C567.5,361.4,567.4,361.3,567.4,361.3z M567.4,424.7c5.3,0,10.6,0,16.1,0
	c0,5.5,0,10.6,0,15.9c5.2,0,10.3,0,15.4,0c0-15.9,0-31.7,0-47.4c-5.2,0-10.2,0-15.5,0c0,5.3,0,10.6,0,16c-5.5,0-10.7,0-15.9,0
	C567.5,414.5,567.5,419.6,567.4,424.7C567.5,424.7,567.4,424.7,567.4,424.7z M583.4,535.6c5.2,0,10.3,0,15.5,0c0-21.2,0-42.2,0-63.2
	c-5.3,0-10.4,0-15.5,0l0.1-0.1C583.4,493.4,583.4,514.6,583.4,535.6L583.4,535.6z M583.4,535.7c-10.6,0-21.2,0-31.7,0l0.1-0.1
	c0,10.6,0,21.2,0,31.7l-0.1-0.1c5.2,0,10.3,0,15.7,0c0-5.3,0-10.4,0-15.6c5.5,0,10.7,0,16,0l-0.1,0.1
	C583.3,546.4,583.3,541,583.4,535.7C583.4,535.6,583.4,535.7,583.4,535.7z M535.7,377.3c0,10.5,0,21,0,31.5c5.4,0,10.7,0,16,0
	c0-10.6,0-21.1,0-31.5l0.1,0.1C546.4,377.4,541,377.4,535.7,377.3L535.7,377.3z M488,171.4c-5.1,0-10.2,0-15.6,0
	c0,10.6,0,21.1,0,31.7l-0.1-0.1c5.2,0,10.5,0,15.7,0l-0.1,0.1C487.9,192.4,487.9,181.9,488,171.4L488,171.4z M551.8,171.3
	c-5.3,0-10.6,0-15.9,0c0,5.5,0,10.7,0,15.9c5.4,0,10.6,0,15.9,0C551.7,181.8,551.7,176.5,551.8,171.3
	C551.7,171.3,551.8,171.3,551.8,171.3z M583.4,472.4c0-5.3,0-10.6,0-15.9c-5.5,0-10.7,0-15.9,0c0,5.4,0,10.6,0,15.9
	C572.9,472.3,578.2,472.3,583.4,472.4C583.4,472.3,583.4,472.4,583.4,472.4z M456.3,60.7c0,5.2,0,10.5,0,15.7c0,0-0.1-0.1-0.1-0.1
	c5.3,0,10.6,0,15.9,0c0-5.3,0-10.4,0-15.6C466.8,60.7,461.5,60.7,456.3,60.7L456.3,60.7z M440.7,44.6c0,5.4,0,10.7,0,16.1l-0.1-0.1
	c5.2,0,10.5,0,15.7,0c0,0-0.1,0.1-0.1,0.1c0-5.3,0-10.6,0-16C450.9,44.7,445.8,44.7,440.7,44.6L440.7,44.6z M551.7,440.6
	c5.2,0,10.3,0,15.7,0c0-5.5,0-10.7,0-16c0,0,0.1,0.1,0.1,0.1c-5.2,0-10.4,0-15.7,0C551.8,430.2,551.8,435.5,551.7,440.6L551.7,440.6
	z M551.8,440.7c-5.3,0-10.6,0-16.1,0c0,5.3,0,10.5,0,15.6c0,0-0.1-0.1-0.1-0.1c5.4,0,10.7,0,16.1,0
	C551.7,450.9,551.7,445.7,551.8,440.7C551.7,440.6,551.8,440.7,551.8,440.7z M535.6,377.4c0-5.3,0-10.6,0-16.1c-5.4,0-10.5,0-15.6,0
	c0,0,0.1-0.1,0.1-0.1c0,5.4,0,10.7,0,16.1l-0.1-0.1C525.3,377.3,530.5,377.3,535.6,377.4C535.7,377.3,535.6,377.4,535.6,377.4z
	 M551.7,377.3c5.2,0,10.3,0,15.7,0c0-5.5,0-10.7,0-16c0,0,0.1,0.1,0.1,0.1c-5.2,0-10.4,0-15.7,0
	C551.7,366.9,551.7,372.1,551.7,377.3C551.7,377.4,551.7,377.3,551.7,377.3z M520.1,377.4c-5.4,0-10.7,0-16.1,0l0.1-0.1
	c0,5.2,0,10.5,0,15.7c0,0-0.1-0.1-0.1-0.1c5.3,0,10.6,0,16,0C520,387.6,520,382.4,520.1,377.4L520.1,377.4z M583.4,551.7
	c0,5.2,0,10.3,0,15.5c5.3,0,10.4,0,15.4,0c0-5.2,0-10.3,0-15.4C593.6,551.7,588.5,551.7,583.4,551.7
	C583.3,551.7,583.4,551.7,583.4,551.7z M155.7,488c0-10.5,0-20.9,0-31.6c5.2,0,10.3,0,15.7,0c0,10.5,0,21,0,31.6l-0.1-0.1
	c5.3,0,10.5,0,16,0c0-5.2,0-10.3,0-15.5c5.3,0,10.4,0,15.6,0c0,10.5,0,20.9,0,31.5c-5.1,0-10.2,0-15.5,0c0,5.5,0,10.9,0,16.2
	l-0.1-0.1c10.6,0,21.1,0,31.7,0.1c0-5.3,0-10.5,0-15.9c5.2,0,10.2,0,15.5,0c0,5.2,0,10.4,0,15.9c-5.2,0-10.3,0-15.5,0
	c0,10.5,0,21,0,31.8c10.8,0,21.2,0,31.8,0c0,5.3,0,10.3,0,15.4c5.2,0,10.3,0,15.6,0c0-5.2,0-10.3,0-15.4c5.4,0,10.6,0,16,0
	c0,5.2,0,10.3,0,15.5c5.4,0,10.5,0,15.6,0c0,0-0.1,0.1-0.1,0.1c0-15.8,0-31.6,0.1-47.3c-5.1,0-10.2,0-15.6,0c0-5.3,0-10.5,0-15.9
	c-5.4,0-10.6,0-15.9,0c0-5.4,0-10.6,0-16c15.7,0,31.5,0,47.5,0c0,5.3,0,10.6,0,15.9c5.1,0,10.2,0,15.6,0c0-5.4,0-10.6,0-16
	c5.4,0,10.6,0,16,0c0,5.2,0,10.4,0,16c5.4,0,10.6,0,15.7,0c0-15.9,0-31.8,0-47.8c-5.1,0-10.2,0-15.5,0c0-5.2,0-10.2,0-15.6
	c5.2,0,10.3,0,15.5,0c0-10.6,0-21.1-0.1-31.7l0.1,0.1c-5.2,0-10.3,0-15.7,0c0-5.5,0-10.7,0-16c-10.7,0-21.1,0-31.6,0l0.1-0.1
	c0,5.3,0,10.5,0,16c-5.4,0-10.6,0-16.1,0c0,15.9,0,31.7,0,47.4c10.5,0,20.9,0,31.5,0c0,5.3,0,10.5,0,15.9c-10.4,0-20.8,0-31.5,0
	c0-5.3,0-10.6,0-15.9c-15.7,0-31.4,0-47.3,0c0,10.6,0,21.1,0,31.6c-10.6,0-21,0-31.6,0c0-5.1,0-10.2,0-15.5c5.1,0,10.2,0,15.4,0
	c0-10.6,0-21,0-31.5c-5.1,0-10.2,0-15.4,0c0,5.1,0,10.1,0,15.3c-10.6,0-21,0-31.7,0c0-5.1,0-10.3,0-15.5c-5.3,0-10.5,0-16,0
	c0-5.4,0-10.7,0-16c-5.1,0-10.2,0-15.6,0c0,5.4,0,10.6,0,16.1c-5.5,0-10.8,0-16.1,0l0.1-0.1c0,15.7,0,31.4,0,47.3
	C145.2,487.9,150.5,487.9,155.7,488L155.7,488z M314.1,139.6c0,10.5,0,20.9,0,31.6c-10.6,0-21,0-31.7,0c0-21.1,0-42.1,0-63.2
	l0.1,0.1c-5.3,0-10.5,0-16,0c0,10.5,0,21,0,31.5c-5.3,0-10.4,0-15.6,0c0-10.4,0-20.8,0-31.4c-5.4,0-10.6,0-16,0
	c0,10.4,0,20.8,0,31.5c-5.4,0-10.6,0-15.7,0l0.1-0.1c0,10.5,0,20.9,0,31.6c10.5,0,21,0,31.6,0c0,5.4,0,10.7,0,16
	c15.8,0,31.4,0,47.2,0c0,5.2,0,10.3,0,15.7c5.5,0,10.9,0,16.2,0L314,203c0-5.1,0-10.3,0-15.7c5.3,0,10.5,0,15.7,0l-0.1,0.1
	c0-5.3,0-10.6,0-16.2c5.5,0,10.7,0,15.9,0c0-10.6,0-21.1,0-31.6C334.9,139.7,324.4,139.7,314.1,139.6L314.1,139.6z M392.8,139.7
	c0,5.5,0,10.7,0,16.1c-10.6,0-20.9,0-31.3,0c0,10.6,0,21,0,31.4c10.5,0,20.9,0,31.5,0c0-5.3,0-10.6,0-16c10.7,0,21.1,0,31.5,0
	c0-5.3,0-10.3,0-15.6c-5.2,0-10.3,0-15.5,0c0-16,0-31.7,0-47.5c-5.4,0-10.6,0-16.1,0c0,5.4,0,10.6,0,15.8c-5.3,0-10.3,0-15.6,0
	c0-5.3,0-10.6,0-15.8c-5.5,0-10.7,0-15.9,0c0,10.5,0,20.8,0,31.5C372,139.7,382.4,139.7,392.8,139.7z M329.7,203
	c-5.2,0-10.5,0-15.7,0l0.1-0.1c0,5.3,0,10.5,0,16c-5.4,0-10.6,0-15.9,0c0,10.7,0,21.1,0,31.7c5.2,0,10.4,0,15.8,0
	c0,5.2,0,10.3,0,15.7c5.4,0,10.6,0,15.7,0l-0.1,0.1c0-5.2,0-10.4,0-15.8c10.7,0,21.2,0,31.6,0c0-10.6,0-21,0-31.6
	c-10.6,0-21,0-31.6,0C329.6,213.5,329.6,208.2,329.7,203L329.7,203z M361.3,409c5.4,0,10.7,0,16.1,0.1c0-5.3,0-10.5,0-15.9
	c5.2,0,10.2,0,15.6,0c0,5.3,0,10.6,0,15.9c5.4,0,10.7,0,16.1,0c0-10.5,0-20.9,0-31.6c-5.4,0-10.6,0-16.1,0c0-5.5,0-10.8,0-16.2
	l0.1,0.1c-5.2,0-10.3,0-15.7,0c0-5.4,0-10.5,0-15.5c-5.4,0-10.6,0-15.9,0C361.3,366.9,361.3,388,361.3,409L361.3,409z M392.9,329.7
	c0-5.1,0-10.3,0-15.6c10.7,0,21.2,0,31.7,0c0-5.3,0-10.5,0-16c-5.3,0-10.3,0-15.6,0c0-5.3,0-10.3,0-15.6c-5.4,0-10.6,0-16.1,0
	c0-5.5,0-10.9,0-16.2l0.1,0.1c-5.2,0-10.3,0-15.7,0c0,16,0,31.8,0,47.7c-5.4,0-10.6,0-15.8,0c0,5.2,0,10.3,0,15.5
	C372.1,329.6,382.5,329.6,392.9,329.7L392.9,329.7z M392.9,250.7c0-5.3,0-10.5,0-15.9c5.4,0,10.6,0,16.1,0c0,5.3,0,10.6,0,15.9
	l-0.1-0.1c5.2,0,10.5,0,15.7,0.1c0-10.6,0-21.1-0.1-31.7l0.1,0.1c-5.2,0-10.3,0-15.8,0c0-5.5,0-10.8,0-16c-10.6,0-21,0-31.4,0
	c0,15.9,0,31.7,0,47.5C382.8,250.7,387.9,250.7,392.9,250.7L392.9,250.7z M298,60.7c0,5.1,0,10.2,0,15.6c-5.2,0-10.3,0-15.6,0
	c0,10.7,0,21.2,0,31.8l-0.1-0.1c5.2,0,10.5,0,15.7,0l-0.1,0.1c0-5.2,0-10.3,0-15.7c5.5,0,10.7,0,16.1,0c0-5.4,0-10.6,0-16
	c5.2,0,10.3,0,15.4,0c0-5.3,0-10.4,0-15.6C318.9,60.7,308.4,60.7,298,60.7L298,60.7z M329.7,298c-5.1,0-10.2,0-15.5,0
	c0,10.5,0,20.9,0,31.6c5.1,0,10.1,0,15.5,0c0,5.5,0,10.8,0,16.1l-0.1-0.1c5.3,0,10.6,0,15.9,0c0-10.7,0-21.1,0-31.7
	c-5.4,0-10.6,0-15.9,0C329.6,308.5,329.6,303.2,329.7,298L329.7,298z M329.7,266.3c0,10.6,0,21.2,0,31.7c0,0-0.1-0.1-0.1-0.1
	c10.5,0,21,0,31.5,0c0-5.3,0-10.4,0-15.7c-5.2,0-10.2,0-15.5,0c0-5.4,0-10.6,0-15.9C340.1,266.3,334.9,266.3,329.7,266.3
	L329.7,266.3z M392.9,361.3c10.5,0,20.9,0,31.5,0c0-5.2,0-10.3,0-15.5c-5.1,0-10.1,0-15.4,0c0-5.4,0-10.6,0-16.1
	c-5.5,0-10.9,0-16.2,0c0,0,0.1-0.1,0.1-0.1C393,340.2,393,350.8,392.9,361.3L392.9,361.3z M282.4,29c0,10.5,0,20.9,0,31.7
	c5.3,0,10.4,0,15.6,0c0,0-0.1,0.1-0.1,0.1c0-5.3,0-10.6,0-16.2c5.5,0,10.7,0,16.1,0c0-5.3,0-10.5,0-15.6
	C303.5,29,292.9,29.1,282.4,29L282.4,29z M424.6,219c5.3,0,10.5,0,16,0c0-10.6,0-21.1,0-31.7l0.1,0.1c-5.3,0-10.6,0-16,0
	C424.7,198.1,424.7,208.6,424.6,219L424.6,219z M298,108c0,10.5,0,20.9,0,31.7c5.4,0,10.7,0,16,0c0,0-0.1,0.1-0.1,0.1
	c0-10.5,0-21,0-31.7C308.5,108,303.2,108,298,108L298,108z M345.7,92.4c-5.3,0-10.6,0-15.9,0c0,10.7,0,21.1,0,31.5
	c5.4,0,10.6,0,15.9,0C345.7,113.2,345.7,102.8,345.7,92.4C345.7,92.3,345.7,92.4,345.7,92.4z M329.7,345.7c-5.1,0-10.2,0-15.6,0
	c0,10.6,0,21.1,0,31.7l-0.1-0.1c5.2,0,10.3,0,15.6,0C329.6,366.6,329.6,356.1,329.7,345.7L329.7,345.7z M440.6,187.3
	c5.1,0,10.2,0,15.6,0c0-10.6,0-21.1,0-31.7c0,0,0.1,0.1,0.1,0.1c-5.2,0-10.3,0-15.6,0C440.7,166.5,440.7,176.9,440.6,187.3
	L440.6,187.3z M329.7,187.3c0,5.2,0,10.5,0,15.7c0,0-0.1-0.1-0.1-0.1c5.3,0,10.6,0,15.9,0c0-5.3,0-10.4,0-15.6
	C340.1,187.4,334.9,187.4,329.7,187.3L329.7,187.3z M392.9,266.3c5.3,0,10.5,0,16,0c0-5.3,0-10.4,0-15.6l0.1,0.1
	c-5.4,0-10.7,0-16.1,0c0,0,0.1-0.1,0.1-0.1C393,255.9,393,261.1,392.9,266.3L392.9,266.3z M314.1,377.4c-5.3,0-10.5,0-15.9,0
	c0,5.2,0,10.2,0,15.6c5.3,0,10.6,0,15.9,0c0,0-0.1,0.1-0.1,0.1C314,387.8,314,382.5,314.1,377.4L314.1,377.4z M76.4,377.4
	c0,21.3,0,42.3,0,63.3c0,0-0.1-0.1-0.1-0.1c5.4,0,10.7,0,16.1,0c0,0-0.1,0.1-0.1,0.1c0-5.3,0-10.5,0-16.1c5.3,0,10.5,0,15.7,0
	l-0.1,0.1c0-5.2,0-10.5,0.1-15.7c-5.1,0-10.2,0-15.5,0c0-5.3,0-10.5,0-16c5.2,0,10.3,0,15.5,0c0-5.1,0-10.3,0-15.6
	c5.4,0,10.7,0,16,0c0-5.3,0-10.5,0-16c-5.4,0-10.6,0-16,0c0-5.3,0-10.4,0-15.7c10.6,0,21.1,0,31.6,0c0-5.3,0-10.5,0-16
	c-15.8,0-31.4,0-47.2,0c0-5.3,0-10.4,0-15.7c-5.5,0-10.8,0-16.1,0l0.1-0.1c0,5.1,0,10.3,0,15.7c-5.3,0-10.5,0-15.7,0
	c0,0,0.1-0.1,0.1-0.1c0,15.9,0,31.8-0.1,47.8C65.9,377.4,71,377.4,76.4,377.4z M108,440.7c-5.2,0-10.5,0-15.7,0c0,0,0.1-0.1,0.1-0.1
	c0,10.5,0,21,0,31.5c10.7,0,21.1,0,31.5,0c0-5.3,0-10.5,0-15.9c-5.3,0-10.6,0-16,0C108,450.9,108,445.8,108,440.7L108,440.7z
	 M187.4,520.1c-10.6,0-21.2,0-31.7,0l0.1-0.1c0,5.2,0,10.3,0,15.7c5.3,0,10.4,0,15.7,0c0,5.4,0,10.7,0,15.9c5.5,0,10.7,0,16,0
	l-0.1,0.1C187.3,541.2,187.3,530.6,187.4,520.1L187.4,520.1z M139.6,440.7c0-10.6,0-21.1,0.1-31.7c-5.2,0-10.5,0-15.7,0
	c0,5.1,0,10.3,0,15.7c-5.4,0-10.7,0-16,0l0.1-0.1c0,5.4,0,10.7,0,16.1c0,0-0.1-0.1-0.1-0.1C118.5,440.6,129.1,440.6,139.6,440.7
	L139.6,440.7z M76.4,440.7c-5.2,0-10.3,0-15.5,0c0,10.7,0,21.1,0,31.5c5.2,0,10.3,0,15.4,0C76.3,461.6,76.3,451.1,76.4,440.7
	C76.3,440.6,76.4,440.7,76.4,440.7z M155.7,520.1c0-5.4,0-10.7,0-16.1l0.1,0.1c-5.3,0-10.6,0-15.9,0c0,5.5,0,10.7,0,16
	C145.2,520,150.5,520,155.7,520.1L155.7,520.1z M155.7,504c5.1,0,10.2,0,15.6,0c0-5.4,0-10.7,0-16l0.1,0.1c-5.2,0-10.5,0-15.7,0
	c0,0,0.1-0.1,0.1-0.1C155.7,493.3,155.7,498.7,155.7,504L155.7,504z M187.4,551.7c0,5.2,0,10.3,0,15.5c5.3,0,10.4,0,15.4,0
	c0-5.2,0-10.3,0-15.4C197.6,551.7,192.4,551.7,187.4,551.7C187.3,551.7,187.4,551.7,187.4,551.7z M108.1,234.6c0-5.3,0-10.4,0-15.7
	c5.3,0,10.5,0,15.7,0c0-5.4,0-10.6,0-15.9c-10.6,0-21.1,0-31.5,0l0.1-0.1c0,5.3,0,10.5,0,16.1c-5.5,0-10.8,0-16.1,0l0.1-0.1
	c0,5.2,0,10.5,0,15.7l-0.1-0.1c5.3,0,10.5,0,16.1,0c0,5.5,0,10.8,0,16.1l-0.1-0.1c15.8,0,31.6,0,47.3,0.1c0-5.4,0-10.7,0-16.1
	C129.2,234.6,118.6,234.6,108.1,234.6z M76.3,219.1c0-5.3,0-10.5,0-16.1c5.5,0,10.8,0,16.1,0c0,0-0.1,0.1-0.1,0.1
	c0-5.2,0-10.3,0-15.7c10.7,0,21.1,0,31.5,0c0-5.4,0-10.7,0-16c-16,0-31.8,0-47.6,0c0,5.3,0,10.6,0,16.1c-5.3,0-10.4,0-15.4,0
	c0,10.6,0,21.1,0,31.6C66.1,219,71.2,219,76.3,219.1L76.3,219.1z M92.6,139.8c0,5.4,0,10.6,0,15.8c10.5,0,20.9,0,31.4,0
	c0-5.3,0-10.5,0-15.8C113.3,139.8,102.9,139.8,92.6,139.8z M76.4,155.7c-5.4,0-10.6,0-15.7,0c0,5.2,0,10.3,0,15.7
	c5.4,0,10.6,0,15.7,0C76.4,166.2,76.4,161,76.4,155.7z M60.7,314c5.2,0,10.5,0,15.7,0l-0.1,0.1c0-5.3,0-10.5,0-16c5.4,0,10.6,0,16,0
	c0-15.9,0-31.7,0-47.4l0.1,0.1c-5.4,0-10.7,0-16.1,0l0.1-0.1c0,10.5,0,21,0,31.8c-5.4,0-10.5,0-15.6,0
	C60.7,293.1,60.7,303.6,60.7,314L60.7,314z M76.3,250.7c0-5.4,0-10.7,0-16.1c0,0,0.1,0.1,0.1,0.1c-10.5,0-21,0-31.5,0
	c0,5.5,0,10.7,0,16C55.4,250.7,65.9,250.7,76.3,250.7L76.3,250.7z M187.3,329.7c0,5.3,0,10.6,0,16.1c5.4,0,10.5,0,15.5,0
	c0,10.6,0,21,0,31.6c-5.2,0-10.2,0-15.3,0c0,5.2,0,10.3,0,15.6c10.6,0,21.1,0,31.5,0c0-5.1,0-10.2,0-15.5c5.2,0,10.2,0,15.5,0
	c0,5.1,0,10.1,0,15.5c-5.2,0-10.4,0-15.5,0c0,10.5,0,21,0,31.8c10.8,0,21.2,0,31.8,0c0,5.4,0,10.6,0,15.8c5.2,0,10.3,0,15.6,0
	c0-5.3,0-10.5,0-15.9c5.4,0,10.6,0,16.1,0c0-21.2,0-42.2,0-63.3c5.3,0,10.3,0,15.4,0c0-5.2,0-10.3,0-15.6c-5.2,0-10.3,0-15.6,0
	c0-5.4,0-10.6,0-15.8c-10.6,0-21,0-31.7,0c0,10.6,0,21,0,31.4c-10.6,0-21,0-31.4,0c0-5.2,0-10.3,0-15.6c5.2,0,10.3,0,15.4,0
	c0-10.6,0-21,0-31.4c-5.2,0-10.3,0-15.6,0c0,5.2,0,10.3,0,15.5c-2.2,0-4.2,0-6.1,0C204.3,329.7,195.8,329.7,187.3,329.7
	C187.3,329.8,187.3,329.7,187.3,329.7z M250.8,393.1c5.1,0,10.2,0,15.4,0c0,5.2,0,10.4,0,15.8c-5,0-10.1,0-15.4,0
	C250.8,403.5,250.8,398.4,250.8,393.1z M187.3,266.3c10.8,0,21.3,0,31.7,0c0-5.1,0-10.2,0-15.5c5.2,0,10.2,0,15.5,0
	c0,5.1,0,10.1,0,15.5c-5.2,0-10.4,0-15.5,0c0,10.5,0,21,0,31.8c10.8,0,21.2,0,31.8,0c0,5.4,0,10.6,0,15.8c5.2,0,10.3,0,15.6,0
	c0-10.6,0-21.1,0-31.5c-5.1,0-10.2,0-15.5,0c0-5.3,0-10.5,0-15.9c5.1,0,10.1,0,15.5,0c0,5.3,0,10.6,0,15.9c5.4,0,10.7,0,16.1-0.1
	l-0.1,0.1c0-21.1,0-42.1,0-63.5c-5.5,0-10.7,0-16.1,0c0-5.4,0-10.6,0-15.8c-5.2,0-10.3,0-15.6,0c0,10.5,0,20.9,0,31.4
	c-10.6,0-21,0-31.5,0c0-5.2,0-10.3,0-15.6c5.2,0,10.3,0,15.3,0c0-10.6,0-21,0-31.4c-5.2,0-10.3,0-15.5,0c0,5.2,0,10.2,0,15.5
	c-10.6,0-21,0-31.6,0c0,5.5,0,10.8,0,16c5.2,0,10.3,0,15.5,0c0,10.7,0,21.1,0,31.6c-5.3,0-10.4,0-15.5,0
	C187.3,255.8,187.3,261,187.3,266.3z M171.3,314.1c0-5.3,0-10.5,0-16.1c5.5,0,10.8,0,16.1,0l-0.1,0.1c0-5.2,0-10.3,0-15.7
	c-10.7,0-21.1,0-31.5,0c0-5.4,0-10.6,0-16c5.2,0,10.3,0,15.5,0c0-5.4,0-10.5,0-15.6c-10.6,0-21.1,0-31.7,0c0,5.2,0,10.3,0,15.7
	c-10.7,0-21.1,0-31.5,0c0,5.4,0,10.6,0,16c10.5,0,21,0,31.6,0c0,10.7,0,21.1,0,31.6C150.4,314,160.9,314,171.3,314.1L171.3,314.1z
	 M155.8,377.4c0-5.5,0-10.7,0-16.2c5.3,0,10.4,0,15.6,0c0-10.7,0-21.1,0-31.6c-5.2,0-10.3,0-15.7,0c0,5.5,0,10.8,0,16
	c-5.5,0-10.7,0-16,0c0,10.6,0,21.1,0,31.7C144.9,377.4,150.2,377.4,155.8,377.4z M282.4,282.3c0,10.5,0,21,0,31.6
	c5.3,0,10.4,0,15.4,0c0-10.6,0-21,0-31.5C292.6,282.4,287.4,282.4,282.4,282.3C282.3,282.4,282.4,282.3,282.4,282.3z M155.5,409
	c0-5.5,0-10.7,0-16.1c-5.4,0-10.7,0-15.9,0c0,5.4,0,10.7,0,16.1C144.9,409,150.2,409,155.5,409z M202.8,440.7c0-5.5,0-10.7,0-16.1
	c-5.3,0-10.4,0-15.5,0c0,5.4,0,10.7,0,16.1C192.5,440.7,197.7,440.7,202.8,440.7z M187.4,297.9c0,5.4,0,10.7,0,16.1
	c0,0-0.1-0.1-0.1-0.1c5.2,0,10.3,0,15.5,0c0-5.5,0-10.7,0-16C197.6,298,192.4,298,187.4,297.9L187.4,297.9z M187.3,329.7
	C187.3,329.7,187.3,329.8,187.3,329.7c0-5.2,0-10.5,0-15.7c0,0,0.1,0.1,0.1,0.1c-5.4,0-10.7,0-16.1,0c0,0,0.1-0.1,0.1-0.1
	c0,5.2,0,10.5-0.1,15.7C176.6,329.7,182,329.7,187.3,329.7z M187.4,409.2c-5.5,0-10.7,0-16.1,0c0,5.3,0,10.4,0,15.5
	c5.4,0,10.7,0,16.1,0C187.4,419.5,187.4,414.3,187.4,409.2z M139.7,377.3c-5.2,0-10.5,0-15.7,0c0,5.2,0,10.5,0,15.7
	c5.2,0,10.5,0,15.7,0C139.7,387.8,139.7,382.5,139.7,377.3z M44.8,92.2c15.9,0,31.7,0,47.4,0c0-15.9,0-31.6,0-47.4
	c-15.8,0-31.6,0-47.4,0C44.8,60.7,44.8,76.5,44.8,92.2z M92.2,567.2c0-15.8,0-31.4,0-47c-15.9,0-31.6,0-47.4,0c0,15.7,0,31.3,0,47
	C60.7,567.2,76.5,567.2,92.2,567.2z M520.2,44.8c0,15.8,0,31.6,0,47.4c15.8,0,31.4,0,47.1,0c0-15.8,0-31.5,0-47.4
	C551.6,44.8,535.9,44.8,520.2,44.8z M377.3,440.7c-5.5,0-10.8,0-16,0c0,5.2,0,10.5,0,15.7c5.3,0,10.6,0,15.9,0c0,16,0,31.8,0,47.7
	c-5.4,0-10.7,0-15.9,0c0,5.3,0,10.6,0,16.1c10.8,0,21.3,0,31.7,0c0-10.7,0-21.3,0-32.2c5.4,0,10.7,0,16,0c0-5.3,0-10.5,0-15.6
	c-5.3,0-10.6,0-16,0c0-21.3,0-42.3,0-63.3c-5.2,0-10.5,0-15.7,0C377.3,419.5,377.3,430,377.3,440.7z M314.1,520.1
	c0-5.4,0-10.7,0-16.1c-5.3,0-10.6,0-16.1,0c0,5.6,0,10.8,0,16.1C303.3,520.1,308.7,520.1,314.1,520.1z M424.6,504
	c5.6,0,10.8,0,16.1,0c0-10.5,0-21,0-31.7c-5.6,0-10.8,0-16.1,0C424.6,482.8,424.6,493.3,424.6,504z M409,456.3c0,5.6,0,10.8,0,16.1
	c5.2,0,10.5,0,15.7,0c0-5.4,0-10.7,0-16.1C419.5,456.3,414.3,456.3,409,456.3z M503.8,503.8c0-5.4,0-10.6,0-15.8
	c-5.3,0-10.5,0-15.8,0c0,5.3,0,10.4,0,15.8C493.5,503.8,498.7,503.8,503.8,503.8z M409,440.7c5.4,0,10.6,0,15.7,0
	c0-10.6,0-21.1,0-31.7c-5.2,0-10.5,0-15.7,0C409,419.5,409,430,409,440.7z M440.7,361.3c0,10.8,0,21.3,0,31.7c5.2,0,10.4,0,15.6,0
	c0,5.5,0,10.8,0,16c5.3,0,10.6,0,16.1,0c0-5.5,0-10.8,0-16c5.3,0,10.5,0,15.6,0c0-5.2,0-10.5,0-15.7c-10.5,0-21,0-31.7,0
	c0-5.5,0-10.8,0-16C451.2,361.3,446,361.3,440.7,361.3z M440.7,409c0-5.4,0-10.7,0-16.1c-5.3,0-10.6,0-16.1,0c0,5.6,0,10.8,0,16.1
	C430,409,435.3,409,440.7,409z M456.3,314.1c0-5.6,0-10.8,0-16.1c-5.2,0-10.3,0-15.7,0c0,5.6,0,10.8,0,16.1
	C445.8,314.1,451,314.1,456.3,314.1z M424.6,329.5c5.5,0,10.7,0,16.1,0c0-5.3,0-10.4,0-15.5c-5.4,0-10.7,0-16.1,0
	C424.6,319.2,424.6,324.3,424.6,329.5z M472.3,313.9c5.4,0,10.5,0,15.7,0c0-5.4,0-10.7,0-15.9c-5.2,0-10.5,0-15.7,0
	C472.3,303.3,472.3,308.6,472.3,313.9z M424.6,250.7c0,5.2,0,10.3,0,15.7c5.6,0,10.8,0,16.1,0c0-5.2,0-10.5,0-15.7
	C435.3,250.7,430,250.7,424.6,250.7z M123.9,298.2c-5.4,0-10.6,0-15.8,0c0,5.3,0,10.5,0,15.8c5.3,0,10.4,0,15.8,0
	C123.9,308.5,123.9,303.3,123.9,298.2z M108,392.9c0,5.4,0,10.7,0,16.1c5.4,0,10.7,0,16.1,0c0-5.4,0-10.7,0-16.1
	C118.7,392.9,113.3,392.9,108,392.9z"/>
</svg>
