<?xml version="1.0" encoding="utf-8"?>
<!-- Generator: Adobe Illustrator 22.0.0, SVG Export Plug-In . SVG Version: 6.00 Build 0)  -->
<svg version="1.1" id="Layer_1" xmlns="http://www.w3.org/2000/svg" xmlns:xlink="http://www.w3.org/1999/xlink" x="0px" y="0px"
	 viewBox="0 0 792 526" style="enable-background:new 0 0 792 526;" xml:space="preserve">
<style type="text/css">
	.st0{fill:#F7DF88;}
</style>
<path class="st0" d="M181.4,87.3h22.3v22.9h-22.3v36.3c0,12.1,2.9,17.6,12.3,17.6c3.9,0,7-0.4,9.2-0.8l0.2,23.6
	c-4.1,1.6-11.5,2.7-20.3,2.7c-10,0-18.4-3.5-23.4-8.6c-5.7-5.9-8.6-15.6-8.6-29.7v-41h-13.3V87.3h13.3V65.5l30.5-7V87.3z
	 M211.7,138.1c0-32.4,21.3-53.1,53.5-53.1c30.7,0,51.2,21.1,51.2,51.2c0,36.7-26,53.5-52.9,53.5
	C234.2,189.7,211.7,170.4,211.7,138.1z M243.8,137.2c0,17.2,7.2,30.1,20.5,30.1c12.1,0,19.9-12.1,19.9-30.1c0-15-5.7-30.1-19.9-30.1
	C249.4,107.1,243.8,122.5,243.8,137.2z M327.2,138.3C327,104.5,348.1,85,372.1,85c12.3,0,21.9,4.3,26.4,11.3h0.4V42h31.1v115.5
	c0,11.3,0.4,23.2,0.8,29.9h-27.7l-1.4-14.8h-0.4c-6.4,11.3-18.4,17-31.3,17C346.3,189.7,327.2,169.4,327.2,138.3z M358.8,137.2
	c0,17,8.4,27.7,21.3,27.7c9,0,16.2-6.1,18-15c0.6-2.3,0.8-4.5,0.8-7.2v-13.1c0-1.6-0.2-3.9-0.4-5.5c-1.8-8.4-8.6-15.4-18.2-15.4
	C366.1,108.8,358.8,121.5,358.8,137.2z M446,138.1c0-32.4,21.3-53.1,53.5-53.1c30.7,0,51.2,21.1,51.2,51.2c0,36.7-26,53.5-52.9,53.5
	C468.6,189.7,446,170.4,446,138.1z M478.2,137.2c0,17.2,7.2,30.1,20.5,30.1c12.1,0,19.9-12.1,19.9-30.1c0-15-5.7-30.1-19.9-30.1
	C483.7,107.1,478.2,122.5,478.2,137.2z M286.7,232.2c32.4,0,44.7,25.2,44.7,50c0,5.3-0.6,10-1,12.3h-64.5
	c1,12.9,13.7,19.1,28.3,19.1c10.7,0,19.3-1.4,27.7-4.1l4.1,21.1c-10.2,4.1-22.7,6.1-36.3,6.1c-34,0-53.5-19.7-53.5-51
	C236.1,260.2,251.8,232.2,286.7,232.2z M284.8,252.9c-13.1,0-18.4,11.9-19.3,20.3h36.9C302.4,265.6,299.2,252.9,284.8,252.9z
	 M410.6,279.1v55.5h31.1v-59.4c0-29.5-15.4-43-35.9-43c-16.6,0-26.8,9.6-30.9,16h-0.6l-1.4-13.7h-27c0.4,8.8,0.8,19.5,0.8,32v68.2
	h31.1v-57.8c0-2.9,0.4-5.9,1.2-7.8c2-5.7,7.2-11.7,15.8-11.7C406.1,257.4,410.6,266.2,410.6,279.1z M241,400h-0.8l-1-18.4h-26.8
	c0.4,8.6,0.8,18.2,0.8,33v67.2h31.1V431c0-2.5,0.2-4.9,0.6-7c2-9.6,9.8-15.8,21.3-15.8c3.5,0,6.1,0.4,8.4,0.8v-29.3
	c-2.3-0.4-3.7-0.4-6.6-0.4C258.4,379.4,246.1,385.5,241,400z M369,457.4c0,9.6,0.4,18.8,1.4,24.4h-28.1l-1.8-10h-0.6
	c-6.6,8-16.8,12.3-28.7,12.3c-20.3,0-32.4-14.8-32.4-30.7c0-26,23.4-38.5,58.8-38.3v-1.4c0-5.3-2.9-12.9-18.2-12.9
	c-10.2,0-21.1,3.5-27.7,7.6l-5.7-20.1c7-3.9,20.7-8.8,38.9-8.8c33.4,0,44,19.7,44,43.2V457.4z M338.7,434.5
	c-16.4-0.2-29.1,3.7-29.1,15.8c0,8,5.3,11.9,12.3,11.9c7.8,0,14.1-5.1,16.2-11.5c0.4-1.6,0.6-3.5,0.6-5.3V434.5z M443.4,403.3
	c8.2,0,13.7,1.4,17.4,3.1l4.9-23.2c-6.6-2.5-15.6-3.9-23.8-3.9c-37.3,0-57.4,24-57.4,53.3c0,31.5,20.7,51.2,53.1,51.2
	c11.9,0,22.3-2,27.9-4.5l-3.7-22.9c-4.7,1.8-10.4,3.1-17.8,3.1c-15.2,0-27.5-9.6-27.5-28.1C416.3,415,427,403.3,443.4,403.3z
	 M575.9,381.6h-37.5l-20.3,30.1c-2.5,3.9-4.9,8-7.2,12.1h-0.4v-87.5h-31.1v145.5h31.1v-31.3l8-9.8l24.2,41.2H581l-41-59.6
	L575.9,381.6z M630,420.5c-12.3-4.3-16.2-6.8-16.2-11.5c0-5.1,4.3-8.2,11.9-8.2c8.6,0,17.2,3.3,21.7,5.7l5.5-21.5
	c-6.1-3.1-16.6-5.7-28.3-5.7c-24.8,0-40.8,14.1-40.8,32.8c-0.2,11.9,7.8,23.2,28.5,30.1c11.7,3.9,14.8,6.4,14.8,11.5
	c0,5.1-3.9,8.4-13.3,8.4c-9.2,0-21.1-4.1-26.8-7.6l-5.5,22.3c7.6,4.1,19.3,7,32.4,7c28.7,0,43.4-13.7,43.4-32.4
	C657,436.7,649.1,427.1,630,420.5z M29,182.4h37.7V42H29V182.4z M29,483.8h37.7V340.5H29V483.8z M29,333.2h37.7V189.7H29V333.2z
	 M725.3,42v140.4H763V42H725.3z M725.3,483.8H763V340.5h-37.7V483.8z M725.3,333.2H763V189.7h-37.7V333.2z"/>
</svg>
