<?xml version="1.0" encoding="UTF-8" standalone="no"?>
<svg id="svg2" xmlns:rdf="http://www.w3.org/1999/02/22-rdf-syntax-ns#" xmlns="http://www.w3.org/2000/svg" xml:space="preserve" height="730.1" viewBox="0 0 730.05627 730.055" width="730.1" version="1.1" xmlns:cc="http://creativecommons.org/ns#" xmlns:dc="http://purl.org/dc/elements/1.1/"><metadata id="metadata8"><rdf:RDF><cc:Work rdf:about=""><dc:format>image/svg+xml</dc:format><dc:type rdf:resource="http://purl.org/dc/dcmitype/StillImage"/><dc:title/></cc:Work></rdf:RDF></metadata><defs id="defs6"><linearGradient id="linearGradient36" gradientUnits="userSpaceOnUse" gradientTransform="matrix(0 584 584 0 642 241.8)"><stop id="stop38" stop-color="#25cf43" offset="0"/><stop id="stop40" stop-color="#61fd7d" offset="1"/></linearGradient><clipPath id="clipPath48" clipPathUnits="userSpaceOnUse"><path id="path50" d="m0 1067h1280v-1067h-1280v1067z"/></clipPath></defs><g id="g10" transform="matrix(1.25 0 0 -1.25 -437.5 1032)"><g id="g24"><g id="g26"><g id="g32"><g id="g34"><path id="path42" fill="url(#linearGradient36)" d="m482.8 825.6c-13.02-.463-29.81-1.482-37.44-3.022-11.65-2.352-22.65-5.918-31.79-10.58-10.75-5.477-20.38-12.46-28.7-20.77-8.336-8.32-15.35-17.96-20.85-28.72-4.649-9.098-8.213-20.03-10.58-31.61-1.571-7.707-2.61-24.62-3.081-37.73-.191-5.358-.289-12.29-.289-15.49l-.046-287.6c0-3.185.097-10.12.287-15.48.463-13.02 1.482-29.81 3.023-37.44 2.351-11.65 5.918-22.65 10.58-31.79 5.478-10.75 12.46-20.38 20.77-28.7 8.32-8.335 17.96-15.35 28.72-20.85 9.099-4.648 20.03-8.213 31.61-10.58 7.707-1.571 24.62-2.61 37.73-3.08 5.356-.192 12.29-.29 15.49-.29l287.6-.046c3.186 0 10.12.096 15.48.287 13.02.464 29.81 1.482 37.44 3.023 11.65 2.352 22.65 5.919 31.79 10.58 10.75 5.478 20.38 12.47 28.7 20.77 8.335 8.321 15.35 17.96 20.85 28.72 4.648 9.099 8.214 20.03 10.58 31.61 1.572 7.707 2.61 24.62 3.081 37.73.192 5.357.289 12.29.289 15.49l.047 287.6c0 3.186-.097 10.12-.288 15.48-.464 13.02-1.482 29.81-3.023 37.44-2.351 11.65-5.918 22.65-10.58 31.79-5.477 10.75-12.47 20.38-20.77 28.7-8.321 8.334-17.96 15.35-28.72 20.85-9.099 4.649-20.03 8.214-31.61 10.58-7.707 1.571-24.62 2.61-37.73 3.08-5.358.193-12.29.29-15.49.29l-287.6.046c-3.186 0-10.12-.096-15.48-.287"/></g></g></g></g><g id="g44"><g id="g46" clip-path="url(#clipPath48)"><g id="g52" transform="translate(743.2 495.4)"><path id="path54" d="m0 0c-5.202 2.603-30.78 15.18-35.55 16.92-4.768 1.735-8.235 2.603-11.7-2.603-3.468-5.206-13.44-16.92-16.47-20.39-3.034-3.47-6.068-3.905-11.27-1.301-5.202 2.602-21.96 8.094-41.83 25.81-15.46 13.79-25.9 30.82-28.94 36.02-3.034 5.206-.323 8.02 2.282 10.61 2.339 2.329 5.201 6.073 7.802 9.11s3.468 5.206 5.202 8.676c1.734 3.471.867 6.508-.434 9.111-1.3 2.603-11.7 28.2-16.04 38.61-4.222 10.14-8.511 8.768-11.7 8.927-3.031.151-6.502.183-9.97.183s-9.103-1.302-13.87-6.507c-4.768-5.206-18.21-17.79-18.21-43.38 0-25.6 18.64-50.32 21.24-53.8 2.601-3.471 36.68-56 88.86-78.52 12.41-5.358 22.1-8.557 29.66-10.96 12.46-3.957 23.8-3.399 32.76-2.06 9.994 1.493 30.78 12.58 35.11 24.73 4.28 12.13 4.28 22.55 2.98 24.72-1.3 2.165-4.768 3.467-9.97 6.07m-94.92-129.6h-.07c-31.05.012-61.5 8.35-88.07 24.11l-6.319 3.75-65.49-17.18 17.48 63.83-4.115 6.544c-17.32 27.54-26.47 59.38-26.46 92.06.038 95.38 77.66 173 173.1 173 46.22-.018 89.66-18.04 122.3-50.73 32.76-32.7 50.74-76.15 50.72-122.4-.04-95.35-77.66-173-173-173m147.2 320.3c-39.31 39.34-91.58 61.01-147.3 61.04-114.8 0-208.1-93.36-208.2-208.1-.015-36.68 9.571-72.49 27.79-104l-29.54-107.8 110.4 28.94c30.41-16.58 64.64-25.32 99.49-25.33h.085.001c114.7 0 208.1 93.37 208.2 208.1.021 55.61-21.61 107.9-60.92 147.2" fill-rule="evenodd" fill="#fff"/></g></g></g></g></svg>
