<?xml version="1.0" encoding="utf-8"?>
<!-- Generator: Adobe Illustrator 22.0.0, SVG Export Plug-In . SVG Version: 6.00 Build 0)  -->
<svg version="1.1" id="Layer_1" xmlns="http://www.w3.org/2000/svg" xmlns:xlink="http://www.w3.org/1999/xlink" x="0px" y="0px"
	 viewBox="0 0 792 181.1" style="enable-background:new 0 0 792 181.1;" xml:space="preserve">
<style type="text/css">
	.st0{fill:#F4E2CF;}
</style>
<g>
	<g>
		<path class="st0" d="M293.9,21.4c4,3.7,7.2,8.2,9.6,13.4c2.4,5.2,3.5,11.2,3.5,17.9c0,6-1,11.6-3,17c-2,5.4-4.9,10-8.6,13.9
			c-4,4-8.6,7.2-14,9.4c-5.3,2.3-11.7,3.4-19.1,3.4c-6,0-11.6-1-16.9-2.9c-5.3-2-10-4.8-14-8.5c-4-3.7-7.2-8.1-9.5-13.3
			c-2.3-5.2-3.5-11-3.5-17.5c0-6.7,1.1-12.7,3.4-18.2c2.3-5.4,5.4-10.1,9.4-14c4-3.8,8.7-6.7,14.1-8.8c5.4-2.1,11.2-3.1,17.4-3.1
			c6.1,0,11.8,1,17.2,3C285.3,15,290,17.8,293.9,21.4z M279.1,79.9c1.7-3.5,3-7.5,3.8-11.9c0.8-4.4,1.2-9.4,1.2-15
			c0-4.7-0.4-9.3-1-13.8c-0.7-4.5-1.8-8.5-3.4-12c-1.7-3.5-3.8-6.3-6.6-8.4c-2.7-2.1-6.2-3.2-10.2-3.2c-7,0-12.2,3.3-15.9,9.9
			c-3.6,6.6-5.4,15.9-5.4,28c0,5.1,0.4,10,1.2,14.5c0.8,4.5,2,8.5,3.7,11.9c1.7,3.4,3.9,6.1,6.6,8c2.6,1.9,5.9,2.9,9.8,2.9
			c3.8,0,7.1-1,9.8-2.9C275.3,85.9,277.5,83.3,279.1,79.9z"/>
		<path class="st0" d="M403.8,94.1H354v-4.5c4.8-0.3,7.9-0.7,9.3-1.2c1.4-0.6,2.1-1.3,2.1-2.2c0-0.5-0.2-1.3-0.8-2.4
			c-0.5-1.1-1.2-2.4-2.1-3.8c-1.3-2.3-3.1-5.1-5.4-8.5c-2.3-3.4-4.6-6.9-7-10.5c-8,9.3-13.2,15.5-15.3,18.6
			c-2.2,3.1-3.3,5.1-3.3,6.1c0,0.5,0.1,1,0.3,1.4c0.2,0.4,0.6,0.7,1.4,1.1c0.5,0.3,1.5,0.6,2.8,0.9c1.3,0.3,2.9,0.5,4.7,0.6v4.5
			h-31.8v-4.5c1.7-0.1,3-0.3,4-0.5c1-0.2,2-0.6,2.9-1c2.2-1.1,4.2-2.4,6-4c1.7-1.6,3.5-3.4,5.4-5.6c2.7-3,5.7-6.5,9.1-10.3
			c3.4-3.8,7-7.9,10.6-12.3c-3.5-5.3-7.1-10.5-10.6-15.6c-3.5-5-6.5-9.3-9-12.9c-1.2-1.8-2.7-3.5-4.6-5.3c-1.8-1.8-3.7-3-5.7-3.8
			c-1-0.4-2.1-0.8-3.3-1.1c-1.3-0.3-2.7-0.5-4.5-0.6v-4.5h50v4.5c-3.9,0.1-6.7,0.5-8.6,1c-1.9,0.5-2.8,1.4-2.8,2.4
			c0,0.5,0.2,1.2,0.6,2.1c0.4,0.8,1.1,2.1,2.1,3.9c0.9,1.5,2.4,3.8,4.3,6.7c1.9,3,4.2,6.3,6.6,10.1c7.3-8.6,11.8-14.3,13.7-16.9
			c1.9-2.6,2.8-4.4,2.8-5.4c0-1.1-0.5-1.9-1.6-2.5c-1.1-0.6-3.6-1-7.6-1.4v-4.5h31.9v4.5c-1.5,0-2.7,0.2-3.6,0.4
			c-0.9,0.2-2,0.6-3.2,1.1c-2.4,1.1-4.4,2.4-6,4c-1.6,1.6-3.4,3.4-5.3,5.5c-2.8,3.2-5.5,6.2-8.1,9.2c-2.6,3-5.8,6.6-9.5,11
			c4.6,7,8.6,12.8,11.9,17.6c3.3,4.7,6.4,9.1,9.4,13.3c1.2,1.8,2.6,3.5,4.5,5.3c1.8,1.8,3.7,3.1,5.7,3.8c0.9,0.3,2,0.7,3.2,1
			c1.2,0.3,2.8,0.5,4.7,0.6V94.1z"/>
		<path class="st0" d="M478.2,34.1h-4.5c-1.1-3.2-3.1-6.6-5.9-10.1c-2.8-3.6-5.5-5.5-8-5.9c-1.2-0.2-2.7-0.3-4.6-0.4
			c-1.9-0.1-3.7-0.2-5.3-0.2h-12.7v32.1h8.1c2.3,0,4.3-0.3,6-0.8c1.7-0.5,3.2-1.5,4.5-2.8c1-1,1.9-2.6,2.8-4.8
			c0.9-2.2,1.4-4.2,1.6-5.8h4.4v34.4h-4.4c-0.2-1.7-0.8-3.9-1.8-6.3c-1-2.5-1.9-4.1-2.6-4.9c-1.1-1.2-2.5-2.1-4.3-2.7
			c-1.7-0.6-3.8-0.9-6.2-0.9h-8.1V82c0,1.4,0.3,2.6,0.8,3.5c0.5,1,1.5,1.8,3,2.4c0.8,0.3,2,0.6,3.5,0.9c1.5,0.3,2.9,0.5,4.4,0.7v4.5
			h-44.1v-4.5c1.1-0.1,2.6-0.3,4.4-0.5c1.8-0.2,3.2-0.5,3.9-0.8c1.4-0.5,2.4-1.3,2.9-2.3c0.5-1,0.8-2.2,0.8-3.7V24.6
			c0-1.3-0.2-2.4-0.7-3.4c-0.5-1-1.5-1.8-3-2.4c-1.1-0.5-2.5-0.9-4.2-1.3c-1.8-0.4-3.1-0.6-4-0.7v-4.5h73.5V34.1z"/>
		<path class="st0" d="M556.6,21.4c4,3.7,7.3,8.2,9.6,13.4c2.4,5.2,3.5,11.2,3.5,17.9c0,6-1,11.6-3,17c-2,5.4-4.9,10-8.7,13.9
			c-4,4-8.6,7.2-14,9.4c-5.3,2.3-11.7,3.4-19.1,3.4c-5.9,0-11.6-1-16.9-2.9c-5.3-2-10-4.8-14-8.5c-4-3.7-7.2-8.1-9.5-13.3
			c-2.3-5.2-3.5-11-3.5-17.5c0-6.7,1.1-12.7,3.4-18.2c2.3-5.4,5.5-10.1,9.4-14c4-3.8,8.7-6.7,14.1-8.8c5.4-2.1,11.2-3.1,17.4-3.1
			c6.1,0,11.8,1,17.2,3C548.1,15,552.7,17.8,556.6,21.4z M541.8,79.9c1.7-3.5,3-7.5,3.7-11.9c0.8-4.4,1.2-9.4,1.2-15
			c0-4.7-0.3-9.3-1-13.8c-0.7-4.5-1.8-8.5-3.4-12c-1.6-3.5-3.8-6.3-6.6-8.4c-2.7-2.1-6.1-3.2-10.2-3.2c-6.9,0-12.2,3.3-15.8,9.9
			c-3.6,6.6-5.4,15.9-5.4,28c0,5.1,0.4,10,1.2,14.5c0.8,4.5,2,8.5,3.7,11.9c1.7,3.4,3.9,6.1,6.6,8c2.7,1.9,5.9,2.9,9.8,2.9
			c3.8,0,7.1-1,9.8-2.9C538,85.9,540.2,83.3,541.8,79.9z"/>
		<path class="st0" d="M668.8,94.1h-31.4c-5.4-8.3-9.9-14.9-13.5-19.8c-3.6-4.9-8.1-10.6-13.4-17.1h-3.1V82c0,1.4,0.3,2.6,0.8,3.5
			c0.5,1,1.5,1.8,3,2.4c0.7,0.3,1.9,0.6,3.4,0.9c1.6,0.3,2.9,0.5,4,0.7v4.5h-43.7v-4.5c1.1-0.1,2.6-0.3,4.4-0.5
			c1.8-0.2,3.1-0.5,3.9-0.8c1.5-0.6,2.5-1.4,3-2.3c0.5-0.9,0.7-2.2,0.7-3.6V24.6c0-1.4-0.2-2.5-0.6-3.5c-0.4-0.9-1.4-1.7-3.1-2.4
			c-1.2-0.5-2.7-0.9-4.3-1.3c-1.7-0.3-3-0.6-4-0.7v-4.5h45.9c10.3,0,18.1,1.6,23.4,4.8c5.3,3.2,8,8.1,8,14.6
			c0,5.7-1.6,10.3-4.9,13.8c-3.3,3.5-8.3,6.2-15,8.2c2.6,3.4,5.7,7.3,9.1,11.8c3.5,4.5,7.1,9,10.9,13.7c1.2,1.5,2.8,3.3,4.9,5.5
			c2.1,2.2,3.9,3.5,5.4,4c0.9,0.3,2,0.5,3.4,0.7c1.4,0.2,2.3,0.3,2.9,0.4V94.1z M629.6,33.2c0-5.5-1.5-9.4-4.6-12
			c-3.1-2.5-7.4-3.8-13.1-3.8h-4.6v34.2h4.4c5.6,0,10-1.5,13.1-4.4C628,44.3,629.6,39.7,629.6,33.2z"/>
		<path class="st0" d="M739.8,20.7c5,3.3,9,7.6,12.1,13.1c3.1,5.4,4.6,12.1,4.6,20c0,6.9-1.4,13-4.1,18.1
			c-2.7,5.1-6.4,9.3-10.9,12.6c-4.6,3.3-9.9,5.7-15.7,7.3c-5.9,1.6-12,2.4-18.4,2.4h-41.2v-4.5c1.2,0,2.7-0.2,4.6-0.4
			c1.8-0.2,3.1-0.4,3.7-0.7c1.4-0.6,2.4-1.4,2.9-2.3c0.5-1,0.8-2.2,0.8-3.5v-58c0-1.3-0.2-2.5-0.7-3.5c-0.5-1.1-1.5-1.9-3-2.6
			c-1.4-0.7-3-1.1-4.6-1.3c-1.6-0.2-2.9-0.4-3.8-0.5v-4.5h43.5c4.6,0,9.6,0.6,14.9,1.8C729.8,15.2,734.9,17.4,739.8,20.7z M728,79.3
			c1.9-3.1,3.3-6.7,4.1-11c0.9-4.2,1.3-9.1,1.3-14.7c0-5.4-0.6-10.4-1.7-14.8c-1.1-4.5-2.9-8.3-5.1-11.4c-2.2-3.1-5-5.6-8.3-7.3
			c-3.3-1.7-7.1-2.6-11.3-2.6c-1.3,0-2.9,0-4.6,0.1c-1.7,0.1-3,0.1-3.8,0.1v62.1c0,1.4,0.2,2.6,0.6,3.7c0.3,1.1,1,2,1.8,2.8
			c0.9,0.8,2,1.4,3.3,1.9c1.3,0.4,3,0.7,5.1,0.7c4.3,0,8.1-0.8,11.2-2.4C723.6,84.8,726.1,82.4,728,79.3z"/>
	</g>
	<g>
		<path class="st0" d="M240.5,146.4c-0.4-1.4-0.7-2.3-1.3-3c-0.7-0.9-1.6-1.1-3.9-1.1h-2.1c-1.2,0-1.3,0.1-1.3,1.2v8.1h3.3
			c3.2,0,3.5-0.3,3.9-2.6h1.2v7.1H239c-0.4-2.5-0.7-2.8-3.9-2.8h-3.3v6c0,3.3,0.3,3.5,3.5,3.7v1.2h-10.7V163
			c2.7-0.2,3.1-0.5,3.1-3.7v-13.7c0-3.2-0.3-3.4-3-3.7v-1.2h16.6c0,0.9,0.2,3.5,0.4,5.4L240.5,146.4z"/>
		<path class="st0" d="M246.3,164.2v-1.1c2.1-0.2,2.4-0.4,2.4-2.9V153c0-2.3-0.2-2.4-2.1-2.7v-1c2.1-0.3,4.2-0.7,6.1-1.3v12.3
			c0,2.4,0.2,2.7,2.4,2.9v1.1H246.3z M248.1,143c0-1.3,1.1-2.3,2.3-2.3c1.3,0,2.3,1,2.3,2.3c0,1.2-1,2.3-2.3,2.3
			C249.1,145.3,248.1,144.3,248.1,143z"/>
		<path class="st0" d="M269.4,164.2v-1.1c1.7-0.2,1.9-0.4,1.9-2.9v-6.1c0-2.5-1.1-3.6-2.7-3.6c-1.1,0-2.2,0.6-3.1,1.4v8.6
			c0,2.3,0.2,2.5,1.9,2.7v1.1H259v-1.1c2.3-0.3,2.5-0.4,2.5-2.8v-7.5c0-2.2-0.2-2.3-2-2.7v-1c1.9-0.3,4-0.8,6-1.4v2.8
			c0.7-0.5,1.4-1.1,2.3-1.6c1.1-0.7,1.8-1,2.9-1c2.9,0,4.7,2.1,4.7,5.6v6.8c0,2.3,0.2,2.5,2.2,2.7v1.1H269.4z"/>
		<path class="st0" d="M293.4,164.6c-0.8,0-1.5-0.3-2-0.7c-0.5-0.5-0.7-0.9-0.9-1.4c-1.4,0.9-3.1,2.2-3.9,2.2
			c-2.9,0-4.7-2.3-4.7-4.5c0-1.8,0.9-2.8,2.8-3.5c2.1-0.7,4.9-1.7,5.7-2.4v-0.9c0-2.4-1-3.7-2.5-3.7c-0.6,0-1,0.2-1.4,0.6
			c-0.4,0.5-0.8,1.3-1,2.5c-0.2,0.8-0.7,1.1-1.4,1.1c-0.8,0-2-0.8-2-1.7c0-0.6,0.4-1.1,1.2-1.6c1.2-0.9,3.7-2.2,5.8-2.6
			c1.3,0,2.4,0.3,3.3,1c1.4,1.1,1.8,2.6,1.8,4.6v6.2c0,1.7,0.6,2.1,1.2,2.1c0.4,0,0.9-0.1,1.2-0.3l0.4,1.1L293.4,164.6z
			 M290.4,155.5c-0.7,0.4-1.7,0.9-2.4,1.3c-1.2,0.6-1.9,1.3-1.9,2.5c0,2,1.4,2.8,2.3,2.8c0.7,0,1.4-0.3,2-0.8V155.5z"/>
		<path class="st0" d="M310.8,164.2v-1.1c1.7-0.2,2-0.4,2-2.9v-6.1c0-2.5-1.1-3.6-2.8-3.6c-1.1,0-2.2,0.6-3.1,1.4v8.6
			c0,2.3,0.2,2.5,1.9,2.7v1.1h-8.4v-1.1c2.3-0.3,2.5-0.4,2.5-2.8v-7.5c0-2.2-0.2-2.3-2-2.7v-1c1.9-0.3,4-0.8,6-1.4v2.8
			c0.7-0.5,1.4-1.1,2.3-1.6c1.1-0.7,1.8-1,2.9-1c2.9,0,4.7,2.1,4.7,5.6v6.8c0,2.3,0.2,2.5,2.2,2.7v1.1H310.8z"/>
		<path class="st0" d="M337.1,160.8c-1.6,2.2-4,3.8-6.2,3.8c-4.8,0-7.6-3.7-7.6-7.6c0-2.7,1.3-5.2,3.7-7c2.1-1.6,4.4-2.2,5.8-2.2h0
			c1.3,0,2.5,0.4,3.1,0.9c0.5,0.4,0.6,0.7,0.6,1.2c0,0.9-0.9,1.9-1.4,1.9c-0.2,0-0.4-0.1-0.7-0.4c-1.4-1.2-2.5-1.7-3.7-1.7
			c-1.8,0-3.5,1.6-3.5,5.5c0,4.9,3.4,6.4,5.2,6.4c1.5,0,2.6-0.4,4-1.7L337.1,160.8z"/>
		<path class="st0" d="M341,164.2v-1.1c2.2-0.2,2.4-0.4,2.4-2.9V153c0-2.3-0.2-2.4-2.1-2.7v-1c2.1-0.3,4.2-0.7,6.1-1.3v12.3
			c0,2.4,0.2,2.7,2.4,2.9v1.1H341z M342.8,143c0-1.3,1.1-2.3,2.3-2.3c1.3,0,2.3,1,2.3,2.3c0,1.2-1,2.3-2.3,2.3
			C343.9,145.3,342.8,144.3,342.8,143z"/>
		<path class="st0" d="M365.6,164.6c-0.8,0-1.5-0.3-2-0.7c-0.5-0.5-0.7-0.9-0.9-1.4c-1.4,0.9-3.1,2.2-3.9,2.2
			c-2.9,0-4.7-2.3-4.7-4.5c0-1.8,0.9-2.8,2.8-3.5c2.1-0.7,4.9-1.7,5.7-2.4v-0.9c0-2.4-1-3.7-2.5-3.7c-0.5,0-1,0.2-1.3,0.6
			c-0.4,0.5-0.8,1.3-1.1,2.5c-0.2,0.8-0.7,1.1-1.4,1.1c-0.8,0-2-0.8-2-1.7c0-0.6,0.4-1.1,1.2-1.6c1.2-0.9,3.7-2.2,5.7-2.6
			c1.4,0,2.4,0.3,3.3,1c1.4,1.1,1.8,2.6,1.8,4.6v6.2c0,1.7,0.6,2.1,1.2,2.1c0.4,0,0.9-0.1,1.2-0.3l0.4,1.1L365.6,164.6z
			 M362.5,155.5c-0.7,0.4-1.7,0.9-2.4,1.3c-1.2,0.6-1.9,1.3-1.9,2.5c0,2,1.4,2.8,2.3,2.8c0.6,0,1.4-0.3,2-0.8V155.5z"/>
		<path class="st0" d="M372.5,164.2v-1.1c2.2-0.3,2.4-0.5,2.4-2.8v-16.7c0-2.3-0.2-2.4-2.3-2.6v-1c2-0.2,4.5-0.7,6.2-1.3v21.6
			c0,2.4,0.3,2.6,2.5,2.8v1.1H372.5z"/>
		<path class="st0" d="M420.9,150c-2.3,0.2-3,0.8-4.2,2.5c-1,1.3-1.9,2.7-3.1,4.4c2,2,4.6,5,6.1,7.4l-0.2,0.4c-3,0-5.1-0.9-5.5-1.3
			c-0.5-0.5-1.7-1.9-3-3.2c-2.4,3.1-4.7,4.5-7.2,4.5c-4.7,0-7.4-3.5-7.4-6.6c0-3.1,2-4.5,5.2-6.7c-1.6-1.5-2.5-3.1-2.5-5.1
			c0-3.2,2.9-5.9,6.3-5.9c3.4,0,5.9,2.2,5.9,5.1c0,1.3-0.7,2.3-1.5,3c-0.7,0.7-1.7,1.3-2.9,2.2c1.1,0.9,3.4,2.9,5.8,5.3
			c0.7-1.1,1.3-2.2,1.9-3.5c0.7-1.6,0.4-2.1-2.1-2.4l0-1.1h8.4V150z M405.3,161.7c1.8,0,3.7-1.2,4.8-2.5c-2.4-2.5-4.4-4.3-7.5-7
			c-1.5,1.3-2.2,2.8-2.2,4.4C400.4,160,402.9,161.7,405.3,161.7L405.3,161.7z M405.1,141.7c-1.5,0-2.6,1.5-2.6,3.3
			c0,1.8,1,3.1,3.3,4.9c1.2-0.9,2.1-2.4,2.1-4.5C408,143.5,406.9,141.7,405.1,141.7L405.1,141.7z"/>
		<path class="st0" d="M434.9,164.2V163c2.8-0.2,3.1-0.5,3.1-3.5v-14c0-3.1-0.3-3.3-3.1-3.5v-1.2h10.3v1.2c-2.8,0.2-3.1,0.5-3.1,3.5
			v14c0,3,0.3,3.3,3.1,3.5v1.2H434.9z"/>
		<path class="st0" d="M460,164.2v-1.1c1.7-0.2,2-0.4,2-2.9v-6.1c0-2.5-1.1-3.6-2.8-3.6c-1.1,0-2.2,0.6-3.1,1.4v8.6
			c0,2.3,0.2,2.5,1.9,2.7v1.1h-8.4v-1.1c2.3-0.3,2.5-0.4,2.5-2.8v-7.5c0-2.2-0.2-2.3-2-2.7v-1c1.9-0.3,4-0.8,6-1.4v2.8
			c0.7-0.5,1.5-1.1,2.3-1.6c1.1-0.7,1.8-1,2.9-1c2.9,0,4.6,2.1,4.6,5.6v6.8c0,2.3,0.2,2.5,2.2,2.7v1.1H460z"/>
		<path class="st0" d="M488,149.4c-1.8,0.3-2.2,0.7-3.1,2.6c-1.3,2.9-3.1,7.2-5.2,12.6h-1.3c-1.7-4.4-3.4-8.6-5.1-12.7
			c-0.7-1.8-1.1-2.1-2.9-2.5v-1.1h8.3v1.1c-1.8,0.3-1.9,0.6-1.4,2c0.9,2.5,2.3,6.2,3,8c0.9-2.1,2.1-5.4,2.8-7.8
			c0.5-1.4,0.3-1.8-1.7-2.1v-1.1h6.5V149.4z"/>
		<path class="st0" d="M504.5,160.8c-2.2,3.1-4.9,3.8-6.3,3.8c-4.6,0-7.3-3.6-7.3-7.7c0-2.6,1.1-4.9,2.6-6.4
			c1.5-1.6,3.5-2.6,5.4-2.6h0.1c3.2,0,5.7,2.8,5.7,5.6c0,0.7-0.2,1.2-1,1.3c-0.6,0.1-5.1,0.4-8.9,0.6c0.1,4.2,2.5,6.2,5.1,6.2
			c1.4,0,2.8-0.5,4-1.7L504.5,160.8z M498.2,149.3c-1.4,0-2.8,1.6-3.2,4.5c1.7,0,3.3,0,4.9-0.1c0.6,0,0.8-0.1,0.8-0.7
			C500.8,151.1,499.8,149.3,498.2,149.3L498.2,149.3z"/>
		<path class="st0" d="M518.8,152.8c-0.8-2.2-2.1-3.6-3.8-3.6c-1.1,0-2,0.9-2,2.2c0,1.2,1,2.1,2.8,2.9c2.9,1.2,4.7,2.5,4.7,5.2
			c0,3.5-3.3,5.2-6.3,5.2c-1.9,0-3.7-0.7-4.4-1.2c-0.2-0.5-0.6-3.1-0.6-4.7l1-0.1c0.8,2.3,2.4,4.6,4.6,4.6c1.2,0,2.2-0.9,2.2-2.1
			c0-1.2-0.7-2.1-2.7-3.1c-1.8-0.9-4.6-2.2-4.6-5.2c0-2.7,2.2-4.9,5.9-4.9c1.6,0,2.6,0.3,3.3,0.6c0.4,0.8,0.8,3.3,0.9,4L518.8,152.8
			z"/>
		<path class="st0" d="M532.6,164.2c-0.6,0.3-1.2,0.4-1.5,0.4c-2.6,0-4.1-1.3-4.1-4.5v-10.2h-2.3l-0.2-0.4l1-1.2h1.5v-2.6l3.5-2.7
			l0.5,0.2v5.1h3.7c0.4,0.4,0.3,1.3-0.2,1.6H531v9c0,2.9,1.3,3.2,2.1,3.2c0.7,0,1.4-0.2,1.9-0.4l0.4,1.1L532.6,164.2z"/>
		<path class="st0" d="M559.3,164.2v-1.1c1.8-0.2,2.1-0.4,2.1-2.7v-6.1c0-2.8-1.2-3.8-2.7-3.8c-0.9,0-2,0.4-3.3,1.4
			c0,0.4,0.1,0.9,0.1,1.5v7.2c0,2.1,0.3,2.3,2.1,2.5v1.1h-8.1v-1.1c1.9-0.2,2.1-0.4,2.1-2.5v-6.5c0-2.6-1.1-3.6-2.7-3.6
			c-1.1,0-2.2,0.6-3.2,1.4v8.7c0,2.1,0.2,2.3,1.8,2.5v1.1h-8.1v-1.1c2.2-0.2,2.4-0.4,2.4-2.7v-7.5c0-2.2-0.2-2.5-2-2.7v-1
			c1.7-0.3,3.9-0.8,5.9-1.4v2.8c0.8-0.5,1.5-1.1,2.4-1.7c1-0.7,2-1.1,3.1-1.1c1.9,0,3.4,1.2,4.1,2.9c0.9-0.7,1.8-1.3,2.7-1.9
			c0.8-0.6,1.8-1,2.8-1c3,0,4.7,2,4.7,5.7v7c0,2.2,0.2,2.3,2.2,2.5v1.1H559.3z"/>
		<path class="st0" d="M585.6,160.8c-2.2,3.1-4.9,3.8-6.3,3.8c-4.7,0-7.3-3.6-7.3-7.7c0-2.6,1-4.9,2.5-6.4c1.6-1.6,3.5-2.6,5.4-2.6
			h0c3.2,0,5.7,2.8,5.7,5.6c0,0.7-0.2,1.2-1,1.3c-0.6,0.1-5.1,0.4-8.9,0.6c0.1,4.2,2.5,6.2,5.1,6.2c1.4,0,2.8-0.5,4-1.7L585.6,160.8
			z M579.2,149.3c-1.4,0-2.8,1.6-3.1,4.5c1.7,0,3.3,0,4.9-0.1c0.6,0,0.8-0.1,0.8-0.7C581.8,151.1,580.8,149.3,579.2,149.3
			L579.2,149.3z"/>
		<path class="st0" d="M600.2,164.2v-1.1c1.7-0.2,1.9-0.4,1.9-2.9v-6.1c0-2.5-1.1-3.6-2.8-3.6c-1.1,0-2.2,0.6-3.1,1.4v8.6
			c0,2.3,0.2,2.5,1.9,2.7v1.1h-8.3v-1.1c2.3-0.3,2.5-0.4,2.5-2.8v-7.5c0-2.2-0.2-2.3-2-2.7v-1c1.9-0.3,4-0.8,6-1.4v2.8
			c0.7-0.5,1.4-1.1,2.3-1.6c1.1-0.7,1.8-1,2.9-1c2.9,0,4.6,2.1,4.6,5.6v6.8c0,2.3,0.2,2.5,2.2,2.7v1.1H600.2z"/>
		<path class="st0" d="M619.8,164.2c-0.6,0.3-1.2,0.4-1.5,0.4c-2.6,0-4.1-1.3-4.1-4.5v-10.2h-2.3l-0.2-0.4l1-1.2h1.5v-2.6l3.4-2.7
			l0.5,0.2v5.1h3.7c0.4,0.4,0.3,1.3-0.2,1.6h-3.5v9c0,2.9,1.3,3.2,2.1,3.2c0.7,0,1.4-0.2,2-0.4l0.4,1.1L619.8,164.2z"/>
		<path class="st0" d="M650.7,164.2V163c2.2-0.3,2.4-0.7,1.9-2.2c-0.4-1.2-1-2.9-1.6-4.6h-7.2c-0.4,1.3-1,2.7-1.4,4.2
			c-0.6,1.9-0.4,2.4,2.2,2.7v1.2h-8V163c2.3-0.3,2.8-0.6,4-3.7l7.4-18.6l1.6-0.4c2.3,6.3,4.6,12.8,6.9,19c1.2,3.2,1.7,3.6,4,3.8v1.2
			H650.7z M647.5,146.1h-0.1c-1.1,2.8-2,5.6-3,8.3h6L647.5,146.1z"/>
		<path class="st0" d="M681.9,163.3c-0.8,0.2-4,0.6-6.5,1.4v-2.2l-2.2,1.4c-1.1,0.6-1.8,0.8-2.2,0.8c-3,0-7.1-2.6-7.1-7.8
			c0-4.9,4.3-8.9,9.7-8.9c0.4,0,1,0.1,1.8,0.3v-4.6c0-2.1-0.2-2.2-2.6-2.5v-1c2.2-0.3,4.9-0.7,6.5-1.3v21c0,2,0.2,2.1,1.7,2.3
			l0.9,0.1V163.3z M675.4,151.2c-0.7-1.3-1.8-1.9-3-1.9c-1.1,0-4,1.1-4,6.5c0,4.4,2.6,6.2,4.5,6.2c0.9,0,1.7-0.3,2.5-0.8V151.2z"/>
		<path class="st0" d="M702.1,149.4c-1.8,0.3-2.3,0.7-3.1,2.6c-1.2,2.9-3.1,7.2-5.2,12.6h-1.2c-1.7-4.4-3.4-8.6-5.1-12.7
			c-0.7-1.8-1.1-2.1-2.9-2.5v-1.1h8.3v1.1c-1.7,0.3-1.9,0.6-1.4,2c0.9,2.5,2.3,6.2,3,8c0.9-2.1,2.1-5.4,2.9-7.8
			c0.5-1.4,0.3-1.8-1.7-2.1v-1.1h6.5V149.4z"/>
		<path class="st0" d="M705.4,164.2v-1.1c2.1-0.2,2.4-0.4,2.4-2.9V153c0-2.3-0.2-2.4-2.1-2.7v-1c2-0.3,4.2-0.7,6.1-1.3v12.3
			c0,2.4,0.2,2.7,2.4,2.9v1.1H705.4z M707.2,143c0-1.3,1.1-2.3,2.3-2.3c1.3,0,2.3,1,2.3,2.3c0,1.2-1,2.3-2.3,2.3
			C708.3,145.3,707.2,144.3,707.2,143z"/>
		<path class="st0" d="M732.2,160.8c-1.6,2.2-4,3.8-6.2,3.8c-4.8,0-7.6-3.7-7.6-7.6c0-2.7,1.3-5.2,3.6-7c2.2-1.6,4.5-2.2,5.8-2.2
			h0.1c1.3,0,2.5,0.4,3.1,0.9c0.5,0.4,0.7,0.7,0.7,1.2c-0.1,0.9-0.9,1.9-1.4,1.9c-0.2,0-0.4-0.1-0.8-0.4c-1.3-1.2-2.5-1.7-3.7-1.7
			c-1.8,0-3.5,1.6-3.5,5.5c0,4.9,3.4,6.4,5.2,6.4c1.5,0,2.6-0.4,4-1.7L732.2,160.8z"/>
		<path class="st0" d="M749.8,160.8c-2.2,3.1-4.9,3.8-6.3,3.8c-4.7,0-7.3-3.6-7.3-7.7c0-2.6,1.1-4.9,2.6-6.4
			c1.5-1.6,3.6-2.6,5.4-2.6h0c3.2,0,5.7,2.8,5.7,5.6c0,0.7-0.2,1.2-1,1.3c-0.6,0.1-5.1,0.4-8.9,0.6c0.1,4.2,2.5,6.2,5.1,6.2
			c1.4,0,2.8-0.5,4-1.7L749.8,160.8z M743.4,149.3c-1.4,0-2.8,1.6-3.1,4.5c1.7,0,3.3,0,4.9-0.1c0.6,0,0.8-0.1,0.8-0.7
			C746,151.1,745,149.3,743.4,149.3L743.4,149.3z"/>
	</g>
	<path class="st0" d="M84.6,46.4C84.6,46.4,84.6,46.4,84.6,46.4C84.6,46.4,84.6,46.4,84.6,46.4z M179.6,123.9
		C179.3,124.2,179.4,124.1,179.6,123.9L179.6,123.9z M179.6,123.8L179.6,123.8C179.6,123.8,179.6,123.9,179.6,123.8
		C179.6,123.9,179.6,123.8,179.6,123.8z M36.5,39.1c-3.2-6-1.3-26,17.6-25.8c18.8,0.2,17.9,20.6,20.4,25c2.5,4.4,4.7-1,4.7-1
		c2.2,4.4-3.3,8.2-5.1,6c-1.7-2.2-7.7-4-8.1,1.1c-0.3,5.1,7.6,3.3,7.6,3.3c-3.2,3.5-10.3,4.3-12.2-1.3c-1.9-5.5,3.6-8.7,3.6-8.7
		s-3.9-3.5-8.1,1.4c-4.1,4.9,0.9,9.2,0.9,9.2c-3.2-0.8-8.4-3.2-7-8.2c1.1-4,4.9-5.8,6.6-6.4c-1.8,0.5-6.2,1.4-8.2-1.8
		c-2.5-4.1,1.7-7.8,1.7-7.8c-2.5,3.7,1.9,6.2,5.1,4.9c3.2-1.3,4.9-10.6-4-10.6c-8.9,0-10.9,10.9-10,19.5
		c0.9,8.6,18.4,13.5,29.5,18.2c11.1,4.7,16.1,13.6,12.3,28.5c-0.8,3-2.2,5.3-4.1,7.1c0.2,1.6,0.2,2.1-0.2,0.2
		c-7.6,6.8-21.9,5.4-28.3,5.4c-8,0-5.8,10.9-0.5,13.8c4.6,2.4,16.2,0.9,19.7,0.3c1.4-3,4.3-8.5,6.7-10.6c3.3-3,4.4-6.8,4.4-6.8
		s2.1,2.4,2.1,5.5c5-5.2,11.4-13.4,11-20.9c0,0,2.6-2.4,0.5-3.3c-2.1-1-6.9,0.5-5.2,5.6c0,0-4.4-9.1-2.5-18.1c0,0,3.2-0.5,2-3.3
		c-1.2-2.9-5-1.7-5,0c0,0-3.5-3.7,0.5-8.5c0.9-1.1,1.7-1.9,2.5-2.4v-0.1c-1.1-1.1-2.7-0.2-3.4,0.9c-0.8-2,1.7-2.8,2-3.5
		c-1,0.3-1.6,0.5-1.8,0.6c0.9-0.4,1.6-12.3,0-11.6c-1.6,0.7-3.3-0.2-3.3-0.2c1.4,0,2.2-3.6,2.2-3.6c-5,3.3-7.8-1.2-7.8-1.2
		s1.2,1.9,4.5-4.5c3.3-6.4,7.4-7.8,7.4-7.8c-1.7-3.3,0.5-9.3,0.5-9.3c0.7,4.7,9,5.5,13.3,5.5c4.3,0,5,0.7,8.8,4.7
		c3.8,4.1,10.7,2.2,10.7,2.2c1.7,8.6-3.3,12.8-3.3,12.8l-1.1,2.1c0.7,0.2,1.3,0.4,1.9,0.6c7.1,2.6,13.8,3.8,13.3,0.2
		c-0.5-3.6-1.2-7.9,2.6-11.4c3.8-3.5,6.2-1.4,6.2-1.4s-5.5,0.5-2.2,6.4c3.3,5.9-1.2,14-7.8,13.5c-3.6-0.3-8.1-3.1-13.3-4.8
		c0,1.5,0,3.8,0,4.8c0,1.4,2.6,0,3.3,4c0.5,2.7,2.1,5.1,3.5,6.4l0.4,0c2.4,1.7,10,3.5,11.5,0.2c1.6-3.2,1.8-8.5,1.8-8.5
		s1.7,1.9,1.4,4.7c0,0,3.6-8.9,7.1-14c3.6-5.1,5.3-4.4,1.8-9.1c-3.6-4.7-1.8-14.3,3.8-16c0,0-3.3,7.3-0.5,7.6
		c2.9,0.4,1.4-1.3,6.3-4.4c4.9-3.1,11.2,2.6,11.2,2.6s-7.3-2.3-8.3,2.1c-1.1,4.4,4.7,3.9,6.8,2.4c2-1.5,6.1,1.2,6.5,4.9
		c0,0-3.7-3.8-6.4,0.1c-2.7,3.9,5.5,3.6,7.3,8c1.8,4.4-0.9,6.3-0.9,6.3s1.2-4-3.1-4.5c-4.3-0.5-6.5,5.5-2.7,6.9c0,0-4.5,3.1-1.4,5.1
		c3.1,2,2,7.4-0.3,9.2c0,0,1.4-4.2-1.8-4.3c-3.2-0.1-6.8,3.9-4.5,8c0,0-6.3,3.7-2.6,7c0,0-2.9,2.2-6.3,1.1c-0.5,0.7-1.3,1.7-2.2,2.9
		c-0.1,1.8,0.2,3.6,1.8,4c0,0,0.8,2.6-5.1,1.8c0,0.1-0.1,0.3-0.1,0.4c0,0.1,0,0.2-0.1,0.3c0.9,2.6,2.9,7.3,5.6,7.5
		c0,0-0.9,2.2-3,1.6c0,0,11.4,18.7,13.6,20.1c2.2,1.4,4.6,1,4.7-2.8c0.2-3.8,5.2-6.5,12-3.3c0,0-5.9,5.4,1.9,9.5
		c7.8,4.1,0.7,11.7-0.2,12.8c0.3-0.4,0.8-1.1,0.8-1.1s-0.3-8.4-4.8-6.7c-4.4,1.7,1.4,10.6-9.8,12.5c0,0,7.3-4.6,1.8-7.4
		c-5.5-2.9-8.4,4.8-8.4,4.8s-0.9-11.9-8.4-10.8c-7.4,1.1-4.6,4.6-4.6,4.6s-9-9.3-8.5-17.1c0,0-3.8,0-2.7,4.7c0,0-6.8-2.8-6.5-11.2
		c-1.6,1.3-3.1,2.4-4.3,3.1c-5.6,3.2-6.2,2.8-10.7,4.5c7.9,0.7,29.8,4.8,16.9,29.1c0,0-0.7-3.9-4.4-0.7c0,0-4.6-0.4-4.6,4.6
		c0,5,9,18,14.4,13.1c5.3-5,8.6-7.3,17-2.6c0,0-9.2-1.1-8.9,3.7c0.2,4.7,5.3,2,9.3,2c3.9,0,8.2,5.3,3.6,10.8c0,0-0.2-10-9.6-4.6
		c0,0,4.3,7.7-7.7,10.2c0,0,6.9-8.2-6.4-5.8c-13.3,2.4-18.7-6.8-19.3-7.4c-0.6-0.6-3.8,1.2-1.9,4c0,0-7.1-4.9-5.7-13.9
		c0,0-1.7-1.1-2.1,2.7c0,0-4-3-3-10.3c-2.1,1.9-4.6,3.6-7.6,4.7c0,0,3-3.3-1.1-5.2c0,0-2.7,4.9-12.4,5.8c-9.7,0.9-7.3,12.5-2.2,13.1
		c5.1,0.6,7.4-0.5,8.7-4.9c1.3-4.4,9-1.3,9.8,5.5c0,0-2.7-3.8-5.4-0.9c-2.7,2.8,9.3,8.1,7.6,17.6c0,0-6.7-12-13.5-7.4
		c0,0,3.2,4.6-3.8,7.7c0,0,1.1-8.7-4.9-8.4c0,0-7.1,4.4-13.5,0.5c0,0,4.7-5.5-5.1-8.2c0,0,4-7.4-3.3-7.8c0,0,5.2-4.3,0.6-8.2
		c-4.6-3.9-0.8-0.8-0.8-0.8s5.4-2.4,3.8-9.2c0,0,7.3,3.2,14.4-3.8c2.2-2.1,3.8-3.6,4.8-4.8c0-0.3,0-0.6,0.1-1c1-5.1-5.4-7.1-7.4-1.4
		c-2.1,5.7-8.2,6.8-8.2,6.8c3.3-2.4,0-5.8,0-5.8c-0.8,3.9-13.1,4.9-13.1,4.9c9.6-4,4.9-14.4,0.9-9.7c-4,4.8-8.6,3.7-8.6,3.7
		s6.2-3.3,2.2-7c-3.9-3.6-5.5-17.9-1.1-19.6c4.4-1.7,1.7-5.5,0.9-5.5c-0.8,0-0.9,1.6-0.9,1.6c-3-3-2.9-10.5-2.9-10.5
		c1.1,4.1,8.4,13,27.4,10.5c4.7-0.6,7.9-2.3,9.9-4.6c-3.8-2.9-9.6-3.7-12.6-3.7c-4.3,0-5.5-0.6-7.8-3c-2.2-2.4-6.9-5.4-10-5.4
		c-3,0-6.3-2.7-6.3-2.7s4.6,0,8.2,0s6.3,0.5,8.2,2.8C58,76.8,62.3,78,68.9,78c4.4,0,7.1,1,8.5,1.6C73.8,76,67,75,63.7,75
		c-4.3,0-5.5-0.6-7.8-3c-2.2-2.4-6.9-5.4-10-5.4c-3,0-6.3-2.7-6.3-2.7s4.6,0,8.2,0s6.3,0.5,8.2,2.9c1.9,2.4,6.2,3.6,12.8,3.6
		c4.5,0,7.2,1,8.6,1.7l0-0.3C73.8,68,67,67.1,63.7,67.1c-4.3,0-5.5-0.7-7.8-3c-2.2-2.4-6.9-5.4-10-5.4c-3,0-6.3-2.7-6.3-2.7
		s4.6,0,8.2,0s6.3,0.5,8.2,2.8c1.9,2.4,6.2,3.6,12.8,3.6c2.3,0,4.2,0.3,5.6,0.6c-5-3.7-17.7-6.8-25.2-10.5
		C40.7,48.6,39.6,45.1,36.5,39.1z M115.3,34.1c0-3.1-5.7-1.7-5.7-1.7c-0.4,1-0.8,1.8-1.1,2.4c2.2-0.1,4.6,0,6.8,0.4
		C115.3,34.9,115.3,34.5,115.3,34.1z M109.3,39.8c0,2.6,4.2,1.4,4.5-2c-1.9-0.4-4-0.5-6-0.3C108.6,37.9,109.3,38.6,109.3,39.8z
		 M104.9,39c0.3-0.4,0.5-0.7,0.6-1.1c-0.3,0.1-0.6,0.2-0.9,0.3C104.7,38.5,104.8,38.8,104.9,39z M103.5,35.2c0.9-0.1,2-0.3,3.2-0.3
		c0-0.5,0-1.1,0-2c0-3.8-2.8-3.3-3.6-1.2C102.9,32.5,103.1,33.8,103.5,35.2z"/>
</g>
</svg>
