<?xml version="1.0" encoding="utf-8"?>
<!-- Generator: Adobe Illustrator 28.4.1, SVG Export Plug-In . SVG Version: 6.00 Build 0)  -->
<svg version="1.1" id="Layer_1" xmlns="http://www.w3.org/2000/svg" xmlns:xlink="http://www.w3.org/1999/xlink" x="0px" y="0px"
	 viewBox="0 0 512 259.7" style="enable-background:new 0 0 512 259.7;" xml:space="preserve">
<style type="text/css">
	.st0{fill:#DF1D3A;}
	.st1{fill-rule:evenodd;clip-rule:evenodd;fill:#DF1D3A;}
</style>
<g>
	<g>
		<path class="st0" d="M477,199.2c-5.4,0-9.8,4.4-9.8,9.8c0,5.4,4.4,9.8,9.8,9.8c5.4,0,9.8-4.4,9.8-9.8
			C486.7,203.6,482.4,199.2,477,199.2z M477,217.1c-4.5,0-8.2-3.7-8.2-8.2c0-4.5,3.7-8.2,8.2-8.2c4.5,0,8.2,3.7,8.2,8.2
			C485.2,213.5,481.5,217.1,477,217.1z"/>
		<path class="st0" d="M478.6,208.8L478.6,208.8c1.2-0.5,2.1-1.5,2.1-3c0-0.9-0.3-1.7-0.9-2.2c-0.7-0.6-1.7-0.9-3.3-0.9
			c-1,0-2.1,0.1-2.8,0.2v11.2h1.5v-4.9h1.4c1.3,0.1,1.9,0.6,2.3,2.2c0.3,1.4,0.6,2.4,0.8,2.7h1.5c-0.2-0.4-0.5-1.5-0.9-3.1
			C480,210,479.5,209.1,478.6,208.8z M476.7,208.2h-1.5V204c0.2-0.1,0.7-0.1,1.5-0.1c1.6,0,2.6,0.7,2.6,2.1
			C479.3,207.3,478.3,208.2,476.7,208.2z"/>
	</g>
	<polygon class="st1" points="463.7,38.4 408.2,38.4 408.2,93.8 	"/>
	<polygon class="st1" points="463.7,59.6 408.2,114.7 408.2,218.7 463.7,218.7 	"/>
	<polygon class="st1" points="331.2,38.4 331.2,127.4 330.4,127.4 327.4,123.5 260.6,38.4 205.9,38.4 205.9,219 260.6,219 
		260.6,123.5 261.1,123.5 336.3,219 385.3,219 385.3,127.4 385.3,38.4 	"/>
	<path class="st1" d="M186,162.4l-1.1-5.6l-1.6-5.2l-1.2-2.5l-1-2.3l-2.7-4.4l-3.2-3.9l-3.7-3.6l-3.9-3.2l-4.4-2.8l-4.7-2.3
		l-4.9-1.9l-5.1-1.5v-0.5l4.4-2l4.4-2.5l4.2-3.1l3.9-3.6l2.3-2.7l1.2-1.4l3-4.7l2.2-5.1l1.5-5.6l0.5-6.1l-0.3-6v-0.1l-0.8-5.6
		l-1.3-5.1l-1.8-4.7l-2.3-4.2l-2.8-3.7l-3.1-3.4l-3.5-3l-3.8-2.6l-4.2-2.3l-4.4-1.9l-4.7-1.6l-4.9-1.3l-5.1-0.9l-5.4-0.7l-5.4-0.4
		l-5.6-0.1H25.3V219h93.3l6.4-0.2l6.1-0.4l5.9-0.8l5.6-1.1l5.3-1.3l5-1.7l4.7-1.9l4.4-2.2l4.1-2.5l3.7-2.8l3.4-3l3-3.3l2.7-3.5
		l2.3-3.7l1.9-4.1l1.5-4.2l1.1-4.4l0.1-0.6l0.6-4.1l0.2-4.9L186,162.4z M80.7,79.9h21.9l6.9,0.6l5.1,1.8l3.5,2.9l2.1,4.2l0.6,5.3
		l-0.8,4.9l-2.4,3.9l-4,2.9l-5.4,1.8l-6.9,0.6H80.7V79.9z M80.7,177.4V149h28.6l6.8,0.4l5.4,1.2l4.2,2l2.9,2.7l1.8,3.5l0.6,4.2
		l-0.6,4.6l-1.8,3.7l-2.9,2.8l-3.9,2l-5.1,1.1l-6.1,0.4H80.7z"/>
</g>
</svg>
