<?xml version="1.0" encoding="utf-8"?>
<!-- Generator: Adobe Illustrator 28.4.1, SVG Export Plug-In . SVG Version: 6.00 Build 0)  -->
<svg version="1.1" id="Layer_1" xmlns="http://www.w3.org/2000/svg" xmlns:xlink="http://www.w3.org/1999/xlink" x="0px" y="0px"
	 viewBox="0 0 512 512" style="enable-background:new 0 0 512 512;" xml:space="preserve">
<style type="text/css">
	.st0{fill:#FFFFFF;}
	.st1{fill:#A1804B;}
</style>
<g>
	<g>
		<path class="st0" d="M135.3,232.9v101.6h-16.6v-20.9c-9.6-24-41.7-33.9-44.7-49.7v70.6H57.4V232.9H74v6.6
			c9.6,24,41.7,33.9,44.7,49.7v-56.3L135.3,232.9L135.3,232.9z"/>
	</g>
	<path class="st1" d="M305.6,364.5L305.6,364.5l-7.1-0.1v0.1l-15.2,42.1h7.1l3.1-8.4c2.6-2.4,6.6-3.8,15.9-3.8l4.4,12.2h7.1
		L305.6,364.5z M296.3,389.9l5.7-15.6l5,13.8C301.9,388.3,298.7,388.9,296.3,389.9z"/>
	<path class="st1" d="M227,371.3v13.8c3.3-4.6,6.8-5.3,18.2-5.3v6.4c-13.7,0-14.9,3.8-18.2,8.3v5.2h20.2v6.9h-27.3v-42.2h27.3v6.9
		L227,371.3L227,371.3z"/>
	<path class="st0" d="M28.7,104.2v83.5h39.2v15.1H10.6v-98.7L28.7,104.2L28.7,104.2z"/>
	<path class="st0" d="M133.5,177.7h-35l-9.1,25.1H71.2l36.9-98.7h15.6l36.9,98.7h-18L133.5,177.7z M115.8,127.9
		c-3.3,10.3-6.2,18.9-8.7,25.9l-3.2,8.8H128l-3.2-8.8c-2.5-7-5.4-15.6-8.7-25.9H115.8z"/>
	<path class="st0" d="M147.1,104.2V120h28.2v82.8h18.1V120h28.2v-15.8H147.1z"/>
	<path class="st0" d="M252.9,104.6v15.8h28.2v82.8h18.1v-82.8h28.2v-15.8C327.4,104.6,252.9,104.6,252.9,104.6z"/>
	<path class="st0" d="M316.8,234.4v15.8H345V333h18.1v-82.8h28.2v-15.8H316.8z"/>
	<path class="st0" d="M228.2,203.4v-98.7h18.1v98.7H228.2z"/>
	<path class="st0" d="M371,204.7c-4.6,0-8.8-0.5-12.5-1.5s-7-2.5-9.8-4.4s-5.2-4.2-7.2-6.9s-3.6-5.8-4.8-9.3c-1-2.8-1.7-5.8-2.1-9.1
		s-0.6-7.1-0.6-11.2v-58.1h16.2v56.5c0,7,0.7,12.4,2.2,16.4c1.7,4.4,4.1,7.5,7.3,9.5c3.2,1.9,7,2.9,11.4,2.9s8.1-1,11.4-2.9
		c3.2-1.9,5.7-5.1,7.3-9.5c1.5-3.9,2.2-9.4,2.2-16.4v-56.5h16.2v58.1c0,4.1-0.2,7.9-0.6,11.2s-1.1,6.4-2.1,9.1
		c-1.2,3.4-2.8,6.5-4.8,9.3c-2,2.7-4.4,5-7.3,6.9s-6.2,3.3-9.9,4.4C379.8,204.2,375.6,204.7,371,204.7z"/>
	<path class="st0" d="M417.9,202.8v-98.7h25.7c2.3,0,4.6,0.1,6.9,0.2s4.6,0.4,6.9,0.7c2.2,0.3,4.4,0.7,6.5,1.1s4,0.9,5.7,1.5
		c5.2,1.7,9.7,3.9,13.7,6.8s7.3,6.2,10,10.1c2.7,3.9,4.7,8.2,6.1,13s2.1,10,2.1,15.6c0,5.3-0.6,10.3-1.7,14.9
		c-1.2,4.6-2.9,8.9-5.3,12.7s-5.4,7.2-9,10.1c-3.6,2.9-7.9,5.3-12.8,7.2c-4.1,1.6-8.8,2.8-14,3.5c-5.2,0.8-11.1,1.2-17.6,1.2h-23.2
		V202.8z M443,187.7c10.4,0,18.5-1.4,24.4-4.4c5.2-2.6,9.1-6.4,11.8-11.4c2.7-5,4-11.3,4-19c0-4-0.4-7.7-1.3-10.9s-2.1-6.1-3.8-8.7
		c-1.6-2.5-3.6-4.7-6-6.5c-2.3-1.8-5-3.3-7.9-4.5c-2.8-1.1-5.8-1.9-9.2-2.4c-3.4-0.5-7.2-0.7-11.4-0.7h-7.8v68.4L443,187.7
		L443,187.7z"/>
	<path class="st0" d="M235.2,283.5c0,7.5-1,14.4-3.1,20.7c-2.1,6.3-5.1,11.7-9,16.2s-8.8,8-14.5,10.5s-12.3,3.8-19.6,3.8
		s-13.9-1.3-19.6-3.8c-5.7-2.5-10.6-6-14.5-10.5s-7-9.9-9-16.2c-2.1-6.3-3.1-13.2-3.1-20.7s1-14.4,3.1-20.7c2.1-6.3,5.1-11.7,9-16.2
		s8.8-8,14.5-10.5s12.3-3.8,19.6-3.8s13.9,1.3,19.6,3.8c5.7,2.5,10.6,6,14.5,10.5s7,9.9,9,16.2C234.1,269.1,235.2,276,235.2,283.5z
		 M217.2,283.5c0-6-0.7-11.2-2.1-15.7c-1.4-4.5-3.4-8.2-5.9-11.2s-5.5-5.2-8.9-6.7c-3.5-1.5-7.2-2.2-11.3-2.2s-7.9,0.7-11.3,2.2
		c-3.5,1.5-6.4,3.7-8.9,6.7s-4.5,6.7-5.9,11.2s-2.1,9.7-2.1,15.7s0.7,11.2,2.1,15.7c1.4,4.5,3.4,8.2,5.9,11.2s5.5,5.2,8.9,6.7
		c3.5,1.5,7.2,2.2,11.3,2.2s7.9-0.7,11.3-2.2c3.5-1.5,6.4-3.7,8.9-6.7s4.5-6.7,5.9-11.2C216.5,294.8,217.2,289.5,217.2,283.5z"/>
	<path class="st0" d="M315.1,263.8c0,6.9-1.8,12.7-5.5,17.5s-7,8.3-14.7,10.7v0.3l23.7,40.6H300l-21.3-37.5h-17.8v37.5h-16v-98.7
		h28.9c4.8,0,9.2,0.3,13.3,0.8c4.1,0.6,7.6,1.4,10.6,2.5c5.6,2.2,9.9,5.5,12.9,9.8S315.1,257.2,315.1,263.8z M275.3,279.5
		c20.1,0,21.9-7.5,21.9-16.1c0-2.7-0.5-5-1.6-7s-2.9-3.6-5.4-4.8c-1.7-0.8-3.7-1.4-6.2-1.7c-2.5-0.4-5.6-0.6-9.3-0.6h-13.8v30.2
		H275.3z"/>
	<path class="st0" d="M417.6,317.7h45.9v15.1h-63.9v-98.7h63.9v15.1h-45.9v25.5H457v15.1h-39.4V317.7z"/>
	<path class="st1" d="M198.7,364.4v35.9h19.2v6.3h-26.7v-42.2L198.7,364.4L198.7,364.4z"/>
	<path class="st1" d="M275.2,390.9H266v-6.3h16.7v20.7c-0.6,0.2-1.4,0.5-2.3,0.7c-1,0.2-2,0.5-3.2,0.7s-2.4,0.4-3.6,0.5
		s-2.5,0.2-3.7,0.2c-3.7,0-6.9-0.5-9.6-1.5c-2.8-1-5-2.4-6.9-4.2c-1.8-1.8-3.2-3.9-4.1-6.4s-1.4-5.2-1.4-8.2c0-2.1,0.2-4.2,0.7-6.1
		s1.2-3.7,2.1-5.4c0.9-1.6,2.1-3.1,3.4-4.5c1.3-1.3,2.8-2.5,4.6-3.4c1.7-0.9,3.6-1.7,5.6-2.2s4.2-0.8,6.5-0.8c2.1,0,4,0.1,5.9,0.4
		s3.4,0.7,4.6,1.1v6.4c-1.6-0.5-3.2-0.9-4.8-1.2c-1.6-0.3-3.3-0.4-4.9-0.4c-2.2,0-4.3,0.3-6.3,1c-1.9,0.7-3.6,1.6-5,2.9
		s-2.5,2.9-3.4,4.8c-0.8,1.9-1.2,4.1-1.2,6.6c0,4.8,1.3,8.5,3.8,10.9s6.1,3.6,10.7,3.6c0.9,0,1.7,0,2.7-0.1c0.9-0.1,1.7-0.2,2.4-0.4
		v-9.4H275.2z"/>
	<path class="st1" d="M329.7,364.4v35.9h19.2v6.3h-26.7v-42.2L329.7,364.4L329.7,364.4z"/>
	<rect x="478" y="313.9" class="st1" width="18.9" height="18.9"/>
</g>
</svg>
