<?xml version="1.0" encoding="utf-8"?>
<!-- Generator: Adobe Illustrator 28.4.1, SVG Export Plug-In . SVG Version: 6.00 Build 0)  -->
<svg version="1.1" id="Layer_1" xmlns="http://www.w3.org/2000/svg" xmlns:xlink="http://www.w3.org/1999/xlink" x="0px" y="0px"
	 viewBox="0 0 512 512" style="enable-background:new 0 0 512 512;" xml:space="preserve">
<style type="text/css">
	.st0{fill:#F0EDE7;}
	.st1{fill:#A3804B;}
</style>
<g>
	<g>
		<path class="st0" d="M70.6,197v13H13.1v-90.8h14.4V197H70.6z"/>
		<path class="st0" d="M163.3,210h-15.1l-9.2-22.6H98.3L88.9,210H73.9l37.6-90.8h14.4L163.3,210z M133.7,174.2l-15.1-37l-15.1,37
			H133.7z"/>
		<path class="st0" d="M224.5,119.2v13h-29.3V210h-14.4v-77.7h-29.3v-13H224.5z"/>
		<path class="st0" d="M233.9,210v-90.8h14.4V210H233.9z"/>
		<path class="st0" d="M330.6,119.2v13h-29.3V210h-14.4v-77.7h-29.3v-13H330.6z"/>
		<path class="st0" d="M410.5,119.2v51.4c0,6.4-0.6,12.1-1.9,17.2c-1.2,5.1-3.3,9.3-6.1,12.8c-2.8,3.5-6.6,6.1-11.1,7.9
			c-4.6,1.8-10.2,2.7-16.9,2.7c-6.5,0-12-0.9-16.6-2.7s-8.3-4.5-11.1-8c-2.8-3.5-4.9-7.8-6.2-12.8c-1.3-5.1-1.9-10.8-1.9-17.2v-51.2
			H353v54c0,2.9,0.3,5.9,0.9,8.9c0.6,3,1.6,5.7,3.2,8.1c1.6,2.4,3.7,4.3,6.5,5.8c2.8,1.5,6.4,2.2,10.9,2.2c4.5,0,8.2-0.7,11-2.2
			s5-3.4,6.6-5.7c1.6-2.3,2.7-5,3.2-8c0.5-3,0.8-6,0.8-9v-54H410.5z"/>
		<path class="st0" d="M456.8,119.2c7.2,0,13.6,1.2,19.3,3.5c5.7,2.3,10.5,5.5,14.5,9.6c4,4.1,7,8.9,9.1,14.4
			c2.1,5.5,3.2,11.5,3.2,17.9c0,6.2-1,12-3,17.4c-2,5.4-4.9,10.2-8.6,14.2c-3.7,4.1-8.3,7.3-13.7,9.7c-5.4,2.4-11.6,3.7-18.4,4
			h-36.7v-90.8H456.8z M456.8,197c5.2,0,9.7-0.8,13.5-2.3c3.9-1.6,7.1-3.8,9.7-6.7c2.6-2.9,4.6-6.3,5.9-10.3
			c1.3-3.9,1.9-8.3,1.9-13.1s-0.6-9.2-1.9-13.1c-1.3-3.9-3.2-7.3-5.9-10.2c-2.6-2.8-5.9-5-9.7-6.6c-3.9-1.6-8.4-2.3-13.5-2.3h-19.9
			V197H456.8z"/>
		<path class="st0" d="M87.4,236.4v90.8H73.9v-6.5c0-6.9-1.6-13.1-4.7-18.5c-3.1-5.4-6.8-10.1-11.1-14c-3.3-2.9-6.7-5.7-10.3-8.2
			c-3.6-2.5-7-5.1-10.4-7.7c-3.6-2.7-6.9-5.5-10-8.4v63.2H13.1v-90.8h13.7c0.1,3.3,0.8,6.2,2.2,8.8c1.4,2.6,3.2,5,5.5,7.3
			c2.7,2.8,5.7,5.5,9.1,8.1c3.4,2.5,6.9,5.1,10.5,7.7c3.4,2.5,6.7,5.1,9.9,7.9c3.2,2.8,6.2,5.7,8.9,8.9v-48.6H87.4z"/>
		<path class="st0" d="M144.1,235.2c7.2,0,13.6,1.2,19.3,3.7c5.7,2.4,10.5,5.8,14.5,10c4,4.2,7,9.2,9.1,14.8
			c2.1,5.7,3.1,11.7,3.1,18.1s-1,12.4-3.1,18.1c-2.1,5.7-5.1,10.6-9.1,14.8c-4,4.2-8.8,7.5-14.5,10c-5.7,2.4-12.1,3.7-19.3,3.7
			s-13.6-1.2-19.3-3.7c-5.7-2.4-10.5-5.8-14.5-10c-4-4.2-7-9.2-9.1-14.8c-2.1-5.7-3.1-11.7-3.1-18.1s1-12.4,3.1-18.1
			c2.1-5.7,5.1-10.6,9.1-14.8c4-4.2,8.8-7.5,14.5-10C130.5,236.4,136.9,235.2,144.1,235.2z M144.1,315.3c5.2,0,9.7-0.8,13.5-2.5
			c3.9-1.7,7.1-4,9.7-7.1c2.6-3,4.6-6.6,5.9-10.6c1.3-4.1,1.9-8.5,1.9-13.3s-0.6-9.2-1.9-13.2c-1.3-4-3.2-7.6-5.9-10.6
			c-2.6-3-5.9-5.4-9.7-7.1c-3.9-1.7-8.4-2.5-13.5-2.5c-5.2,0-9.7,0.8-13.6,2.5c-3.9,1.7-7.2,4-9.8,7.1c-2.6,3-4.6,6.5-5.9,10.6
			c-1.3,4-1.9,8.5-1.9,13.2s0.6,9.2,1.9,13.3c1.3,4.1,3.2,7.6,5.9,10.6c2.6,3,5.9,5.4,9.8,7.1C134.5,314.5,139,315.3,144.1,315.3z"
			/>
		<path class="st0" d="M272.4,327.2h-15.9l-22.8-35.8h-18.4v35.8h-14.4v-90.8h32.8c4.9,0,9.4,0.4,13.6,1.3c4.2,0.8,7.8,2.3,10.9,4.4
			c3.1,2.1,5.5,4.9,7.2,8.4c1.7,3.5,2.6,8,2.6,13.4c0,3.7-0.5,7-1.4,9.9c-0.9,2.9-2.2,5.4-3.9,7.5c-1.7,2.1-3.7,3.8-6.1,5.1
			c-2.4,1.3-5,2.4-7.8,3.2L272.4,327.2z M228,278.2c3.3,0,6.4,0,9.5-0.1c3-0.1,5.7-0.6,8-1.5c2.3-0.9,4.2-2.3,5.5-4.3
			c1.4-2,2.1-4.8,2.1-8.5c0-3.2-0.5-5.7-1.5-7.6c-1-1.9-2.3-3.3-4-4.3c-1.7-1-3.7-1.6-5.9-1.9c-2.3-0.3-4.7-0.5-7.3-0.5h-19.1v28.6
			H228z"/>
		<path class="st0" d="M345.4,236.4v13h-29.3v77.7h-14.4v-77.7h-29.3v-13H345.4z"/>
		<path class="st0" d="M369.2,249.6v25h44v13.2h-44v26.4H418v13h-63.2v-90.8H418v13.2H369.2z"/>
		<path class="st1" d="M427.3,327.2v-16.6h18.1v16.6H427.3z"/>
	</g>
	<g>
		<g>
			<path class="st1" d="M32.2,387v5.2H9.1v-36.5h5.8V387H32.2z"/>
			<path class="st1" d="M41.8,361.1v12.4c0.8-0.6,1.7-1.1,2.6-1.6c0.9-0.5,2-0.9,3.1-1.2c1.2-0.3,2.4-0.6,3.9-0.8
				c1.4-0.2,3-0.3,4.7-0.3h2.6v5.2h-2.6c-1.8,0-3.4,0.2-5,0.5c-1.6,0.3-3.1,0.7-4.3,1.3c-1.3,0.6-2.3,1.2-3.2,2.1
				c-0.9,0.8-1.5,1.8-1.8,2.8v5.6h19.6v5.2H36v-36.5h25.4v5.3H41.8z"/>
			<path class="st1" d="M97.1,371.6v15.9c-1.4,1.5-3.2,2.8-5.5,3.8c-2.3,1-5,1.5-8.3,1.5c-3.1,0-5.8-0.5-8.3-1.5
				c-2.5-1-4.5-2.3-6.2-4c-1.7-1.7-3-3.7-3.9-6s-1.4-4.7-1.4-7.3c0-2.6,0.5-5,1.4-7.3c0.9-2.3,2.2-4.3,3.9-6c1.7-1.7,3.8-3,6.2-4
				c2.4-1,5.1-1.5,8-1.5c2.7,0,5.1,0.3,7.1,1c2,0.7,3.4,1.5,4.4,2.3v6.8c-0.4-0.5-0.9-1-1.5-1.6c-0.7-0.6-1.5-1.1-2.4-1.6
				c-0.9-0.5-2-0.9-3.2-1.2c-1.2-0.3-2.5-0.5-4-0.5c-2.1,0-4,0.3-5.7,1c-1.7,0.7-3.1,1.6-4.3,2.8c-1.2,1.2-2.1,2.6-2.8,4.3
				c-0.6,1.6-1,3.4-1,5.3s0.3,3.7,1,5.4s1.6,3.1,2.8,4.3c1.2,1.2,2.6,2.2,4.3,2.8c1.7,0.7,3.6,1,5.7,1c1,0,2-0.1,2.8-0.2
				c0.8-0.1,1.5-0.3,2.1-0.5c0.6-0.2,1.2-0.4,1.7-0.7c0.5-0.2,1-0.5,1.4-0.7v-8.5H79.9v-5.3H97.1z"/>
			<path class="st1" d="M135,392.3H129l-4.2-10.2h-3.7c-1.8,0-3.5,0.2-5.2,0.5c-1.7,0.4-3.2,0.9-4.4,1.8c-1.1,0.7-2.1,1.6-3.2,2.8
				c-1.1,1.1-2,2.5-2.7,4.1l-0.4,1H99l15.1-36.5h5.7L135,392.3z M122.7,376.9L117,363l-6.9,16.9c0.7-0.4,1.4-0.8,2.1-1.2
				s1.5-0.7,2.3-1c0.8-0.3,1.8-0.5,2.8-0.6c1-0.1,2.3-0.2,3.6-0.2H122.7z"/>
			<path class="st1" d="M161.2,387v5.2h-23.1v-36.5h5.8V387H161.2z"/>
		</g>
	</g>
</g>
</svg>
