<?xml version="1.0" encoding="utf-8"?>
<!-- Generator: Adobe Illustrator 22.0.0, SVG Export Plug-In . SVG Version: 6.00 Build 0)  -->
<svg version="1.1" id="Layer_1" xmlns="http://www.w3.org/2000/svg" xmlns:xlink="http://www.w3.org/1999/xlink" x="0px" y="0px"
	 viewBox="0 0 1920 1080" style="enable-background:new 0 0 1920 1080;" xml:space="preserve">
<style type="text/css">
	.st0{clip-path:url(#SVGID_2_);fill:#3E489B;}
	.st1{clip-path:url(#SVGID_2_);}
	.st2{fill:#0086E6;}
	.st3{fill:#007ED7;}
	.st4{fill:#007CD2;}
	.st5{fill:#0085E3;}
	.st6{fill:#00BEFF;}
	.st7{fill:#0097FF;}
	.st8{fill:#09AFED;}
	.st9{fill:#6DCFFF;}
	.st10{fill:#FFA000;}
	.st11{fill:#FF9600;}
	.st12{fill:#F28900;}
	.st13{fill:#FFBC57;}
	.st14{fill:#FFB442;}
	.st15{fill:#FFC776;}
</style>
<g id="Jorge_Canelon_1_">
</g>
<g>
	<defs>
		<rect id="SVGID_1_" width="1920" height="1080.1"/>
	</defs>
	<clipPath id="SVGID_2_">
		<use xlink:href="#SVGID_1_"  style="overflow:visible;"/>
	</clipPath>
	<rect class="st0" width="1920" height="1080.1"/>
	<g class="st1">
		<path class="st2" d="M1948.4,765.2c-77.5-44.5-167-69.7-256.5-75.6c-144.2-9.5-288.5,27.5-420.9,85.6
			c-132.4,58.1-254.5,136.8-375.9,215.2c106.6-55,222-100.1,336.7-135.3c90.1-27.6,184.3-49,277.9-38.9
			c96.6,10.5,187.1,54.2,265.8,111.1c62.6,45.2,118.5,98.7,172.8,153.7V765.2z"/>
		<g>
			<path class="st3" d="M1982,1085V915.9c-108.5-108.4-259.3-174.6-412.9-177.5c-138.6-2.6-273.7,43-400,100.1
				c-126.3,57.1-247.2,126.2-376.9,175.3c-90.7,34.3-185.2,58-281.2,71.2H1982z"/>
		</g>
		<path class="st4" d="M923.2,834.1c153.8-80,317.8-140.5,486.8-179.5c98.8-22.8,200.5-38.4,301.6-29.5c101,8.9,202,44,277.1,112.2
			c14.7-20.3,6.5-49.6-8.2-69.8c-14.7-20.3-37.4-33-60.1-43.8C1769,552,1594.6,545.2,1428.1,563c-80,8.5-160.3,22.6-234.3,54.3
			c-63.8,27.4-121.5,67.3-175.3,111.2C980.7,759.5,957.4,799.1,923.2,834.1z"/>
		<path class="st5" d="M711.1,931.1c197.4-107.8,397.4-216,614.2-275.8c216.9-59.8,455.3-68,661.5,21.9c21.4-22.9,5-66.6-19.8-85.8
			c-24.8-19.2-57.7-23.1-88.9-26.1c-73-7.1-146.3-13.4-219.6-11.5c-172,4.6-340.3,54.6-497.1,125.2
			C1004.5,749.6,857.3,840.6,711.1,931.1z"/>
		<path class="st6" d="M691.3,919.8C837.1,826,979,725.9,1129.7,640.4c150.8-85.5,311.7-156.8,482.3-187.7
			c170.6-30.9,351.9-19.3,508.8,54.4c-55.1,50.7-135.7,67.7-210.5,64.6c-74.8-3.2-148.4-21-223.1-24.4
			c-178.6-8.1-350.1,66.4-508.7,149.1S866.5,884,691.3,919.8z"/>
		<path class="st5" d="M331.8,1044.4C92.3,1095-164.8,1057.3-379.7,940C-137.5,915.7,89,1061.7,331.8,1044.4z"/>
		<path class="st7" d="M2425.6,793.7c-248.8-119.2-511.4-241.2-786.8-224.6C1204,595.2,856.4,956.6,428.6,1038.2
			c-315.8,60.2-658.9-48.9-882-280.4c262.6,209.8,618.9,279.2,944.5,195.9c335.5-85.7,615.5-326.4,951.5-409.9
			C1792.6,456.8,2164.6,544.9,2425.6,793.7z"/>
		<path class="st7" d="M478.2,1050.6c0,0,7.9-2.2,22.7-6.4c14.7-4.4,36.7-9.5,63.7-19.2c6.8-2.3,13.9-4.7,21.4-7.2
			c7.5-2.6,15.4-5,23.4-8.3c16.1-6.2,33.5-13,52-20.2c18.3-7.9,37.8-16.3,58.3-25.1c20.2-9.5,41.5-19.4,63.7-29.8
			c44.1-21.5,91.5-45.5,141.4-71.6c49.9-26,102.6-53.6,157.7-81.1c55.1-27.7,113.3-54.3,173.6-78.9c15.2-5.8,30.6-11.7,45.9-17.6
			c7.6-3.1,15.5-5.5,23.4-8.1c7.8-2.6,15.7-5.2,23.6-7.8l23.6-7.8l24.1-6.6l24.1-6.6l12.1-3.3l1.5-0.4l0.8-0.2
			c0.1,0,1.8-0.4,1.4-0.3l3-0.6l6-1.3c16-3.4,32.1-6.8,48.1-10.2c7.9-1.9,16.4-2.9,24.7-4.2l25-3.7c8.3-1.2,16.7-2.5,25-3.7
			c8.3-1,16.6-1.5,24.9-2.3c16.6-1.3,33.1-3.1,49.6-4c16.5-0.4,33-0.9,49.4-1.3l12.3-0.3c4.1-0.1,8.2,0.2,12.2,0.3
			c8.2,0.3,16.3,0.6,24.4,0.8c32.5,0.3,64.4,4.3,95.9,7.2c15.7,1.9,31.1,4.8,46.5,7.1c7.7,1.2,15.3,2.4,22.9,3.6
			c7.6,1.5,15,3.3,22.4,4.9c14.9,3.3,29.6,6.6,44.2,9.8c14.3,4.1,28.5,8.2,42.5,12.2c7,2,13.9,4,20.8,6c6.9,2.1,13.5,4.7,20.2,7
			c13.3,4.8,26.5,9.5,39.4,14.1c6.5,2.2,12.7,5,18.9,7.6c6.2,2.7,12.3,5.3,18.4,7.9c12.1,5.4,24.2,10.2,35.7,15.7
			c11.4,5.8,22.5,11.4,33.4,17c5.4,2.8,10.8,5.5,16.1,8.2c2.7,1.4,5.3,2.7,7.9,4.1c2.5,1.5,5.1,3,7.6,4.5
			c10,5.9,19.8,11.7,29.2,17.4c4.7,2.8,9.4,5.6,14,8.3c2.3,1.4,4.6,2.7,6.9,4.1c2.2,1.4,4.4,2.9,6.5,4.4c17.1,11.8,33.2,22.8,48,33
			c14.4,10.7,27.2,21.2,39,30.4c5.9,4.6,11.4,9,16.7,13.2c5.2,4.2,9.6,8.6,14,12.4c8.6,7.8,16,14.4,21.9,19.8
			c11.9,10.8,18.3,16.5,18.3,16.5l-64,63.7c0,0-5.6-5.5-16.1-15.8c-5.2-5.2-11.7-11.5-19.3-19c-3.8-3.7-7.8-7.9-12.3-11.9
			c-4.6-4-9.6-8.2-14.8-12.7c-10.5-8.9-21.8-19.1-34.6-29.5c-13.2-10-27.6-20.7-42.9-32.2c-1.9-1.4-3.8-2.9-5.8-4.3
			c-2-1.3-4.1-2.7-6.2-4c-4.1-2.7-8.3-5.4-12.6-8.2c-8.5-5.6-17.3-11.3-26.3-17.2c-2.3-1.5-4.5-3-6.8-4.5c-2.4-1.3-4.8-2.7-7.1-4.1
			c-4.8-2.7-9.7-5.5-14.6-8.2c-9.9-5.6-19.9-11.3-30.2-17.1c-10.4-5.6-21.5-10.5-32.5-16c-5.5-2.7-11.1-5.4-16.8-8.1
			c-5.7-2.7-11.3-5.6-17.3-7.9c-11.8-4.8-23.9-9.7-36.1-14.7c-6.1-2.4-12.2-5.2-18.6-7.4c-6.4-2.1-12.8-4.3-19.2-6.4
			c-12.9-4.3-26-8.7-39.3-13.2c-13.5-3.6-27.2-7.3-41-11c-6.9-1.8-13.9-3.8-20.9-5.5c-7.1-1.4-14.2-2.9-21.4-4.3
			c-14.4-2.8-28.8-6.1-43.5-8.6c-29.6-3.9-59.5-9.1-90.3-10.7c-7.7-0.6-15.4-1.2-23.1-1.8c-3.9-0.3-7.7-0.7-11.6-0.8l-11.7-0.2
			c-15.6-0.3-31.2-0.5-47-0.8c-15.7,0.2-31.5,1.2-47.4,1.8c-7.9,0.4-15.9,0.6-23.8,1.1c-7.8,0.8-15.7,1.6-23.5,2.5l-23.6,2.4
			c-7.9,0.9-15.7,1.4-23.8,3c-16.1,2.7-32.3,5.4-48.5,8.1l-6.1,1l-3,0.5c-0.8,0.2,0.3-0.1-0.1,0l-0.7,0.2l-1.5,0.3l-11.7,2.7
			l-23.5,5.4l-23.5,5.3l-23.2,6.6c-7.7,2.2-15.4,4.4-23.2,6.6c-7.7,2.2-15.5,4.2-23,6.9c-15.2,5.1-30.4,10.2-45.5,15.2
			c-60.1,21.5-118.5,45.3-174.4,70.4c-55.9,24.9-109.6,50.2-160.7,74.1c-51,24-99.6,46-144.8,65.7c-22.7,9.5-44.5,18.5-65.3,27.2
			c-21,8-40.9,15.6-59.6,22.7c-19,6.4-36.7,12.5-53.1,18c-8.1,2.9-16.2,5-23.8,7.3c-7.6,2.2-14.9,4.3-21.8,6.3
			c-27.4,8.6-49.6,12.8-64.5,16.5C486.2,1048.7,478.2,1050.6,478.2,1050.6z"/>
		<path class="st7" d="M1276.1,518c0,0,14.3-8.3,39.4-22.7c6.3-3.6,13.2-7.7,20.8-11.9c7.8-3.9,16.3-8.1,25.4-12.6
			c9.1-4.5,18.8-9.3,29-14.4c10.3-5,21.4-9.2,32.9-14.2c11.5-4.8,23.4-10.1,36-15c12.7-4.5,25.9-9.2,39.4-13.9
			c6.8-2.4,13.6-4.8,20.6-7.3c7.1-2,14.3-4.1,21.5-6.2c14.5-4.1,29.3-8.5,44.5-12.6c30.7-6.5,62.3-14.8,95.2-19.1
			c32.7-6,66.3-8.3,100-11.6c33.7-1,67.7-3.2,101-1.3c33.5,0.1,66.2,4.2,98.1,7.1c15.8,2.1,31.3,4.9,46.5,7.2
			c7.6,1.2,15.2,2.4,22.6,3.6c7.4,1.6,14.6,3.3,21.8,4.9c14.4,3.3,28.3,6.4,41.8,9.5c13.4,3.4,26.2,7.6,38.5,11.1
			c12.3,3.8,24.3,6.9,35.4,10.8c11,4.1,21.5,7.9,31.3,11.6c9.9,3.7,19.1,7.1,27.6,10.2c8.4,3.4,15.9,7,22.9,10
			c27.6,12.4,43.4,19.4,43.4,19.4l-42.9,79.4c0,0-13.8-7.7-38-21.1c-6.1-3.3-12.7-7.2-20.2-11c-7.6-3.6-15.8-7.4-24.5-11.5
			c-8.8-4.1-18.1-8.5-27.9-13.2c-9.9-4.5-20.7-8.3-31.8-12.7c-11.2-4.3-22.6-9.2-34.8-13.4c-12.3-3.9-25-8-38.1-12.1
			c-6.6-2.1-13.2-4.2-19.9-6.3c-6.8-1.7-13.8-3.4-20.8-5.1c-14-3.4-28.3-7.2-43-10.5c-29.6-5.1-60.2-11.8-91.8-14.5
			c-31.5-4.6-63.8-5.2-96.2-7c-32.3,0.5-64.9-0.2-96.8,3c-32.1,1.4-63.2,6.8-93.6,10.6c-15,2.8-29.8,5.8-44.3,8.6
			c-7.3,1.4-14.4,2.8-21.5,4.2c-7,1.8-13.9,3.6-20.7,5.4c-13.6,3.6-26.9,7-39.8,10.4c-12.7,3.8-24.8,8-36.6,11.7
			c-11.7,3.9-23.1,7.2-33.6,11.3c-10.5,4.1-20.4,8-29.7,11.7c-9.3,3.7-18.1,7.1-26.2,10.3c-8,3.5-15.2,7-21.8,10
			C1291.1,511,1276.1,518,1276.1,518z"/>
		<path class="st6" d="M310,957c0,0-3,0.6-8.6,1.7c-5.6,1-13.7,3-24.2,4.5c-5.3,0.8-11.1,1.8-17.4,2.7c-6.4,0.8-13.3,1.6-20.6,2.4
			c-7.4,0.6-15.3,1.2-23.6,1.9c-8.3,0.5-17.1,0.7-26.2,1.1c-18.3,0.1-38.1,0-59.1-1.7c-21-1.3-43-4.4-65.6-8.2
			c-22.6-4-45.7-9.6-69-16.3c-23.2-7.1-46.1-15.3-69.2-25.1c-21.9-9.6-44.6-21.1-65.6-33.1c-20.9-12.4-41-25.5-59.7-39.4
			c-18.5-14-36.1-28.1-51.7-42.8c-15.9-14.3-29.8-29-42.5-42.7c-6.1-7.1-12.1-13.8-17.5-20.3c-5.3-6.7-10.4-13-15.1-18.9
			c-4.5-6.1-8.8-11.8-12.7-17.1c-3.9-5.3-7.2-10.4-10.3-14.9c-6.3-9-10.6-16.4-13.8-21.4c-3.1-5-4.8-7.6-4.8-7.6l34.9-19.7
			c0,0,1.4,2.6,4.1,7.4c2.7,4.8,6.4,12,11.9,20.7c2.7,4.4,5.6,9.3,8.9,14.5c3.4,5.2,7.1,10.8,11.1,16.7c4.2,5.8,8.6,12,13.4,18.6
			c4.9,6.4,10.2,13,15.6,20c11.4,13.6,23.9,28.2,38.3,42.6c14.1,14.7,30.1,29,47.2,43.3c17.2,14.2,35.8,27.7,55.3,40.7
			c19.8,12.7,39.9,24.3,61.9,35.3c21.1,10.3,43.4,19.7,65.5,27.7c22.3,7.7,44.6,14.3,66.5,19.4c22,4.9,43.4,9,64,11.4
			c20.5,2.7,40.1,3.9,58.2,4.7c9,0.1,17.7,0.3,26,0.2c8.3-0.2,16.1-0.5,23.5-0.7c7.4-0.5,14.2-0.9,20.6-1.4
			c6.4-0.5,12.2-1.2,17.4-1.7c10.6-1,18.8-2.5,24.4-3.2C307,957.4,310,957,310,957z"/>
		<g>
			<path class="st6" d="M-157,1023.8v61.2H96.8C10.4,1073.1-74.8,1052.6-157,1023.8z"/>
			<path class="st6" d="M1934.3,1085V915.9c-108.5-108.4-259.3-174.6-412.9-177.5c-138.6-2.6-273.7,43-400,100.1
				c-126.3,57.1-247.2,126.2-376.9,175.3c-90.7,34.3-185.2,58-281.2,71.2H1934.3z"/>
		</g>
		<path class="st8" d="M2022.1,1085v-16.1c-66.6,17.7-139.1,17.4-207.6,6.1c-105.5-17.5-205.3-58.5-307.3-90.6
			c-102-32.1-210.2-55.7-315.4-36.8c-106,19-199.2,79-296.1,126.1c-8,3.9-16.1,7.7-24.2,11.4H2022.1z"/>
		<path class="st9" d="M1934.3,1085v-16.1c-66.6,17.7-139.1,17.4-207.6,6.1c-105.5-17.5-205.3-58.5-307.3-90.6
			c-102-32.1-210.2-55.7-315.4-36.8c-106,19-199.2,79-296.1,126.1c-8,3.9-16.1,7.7-24.2,11.4H1934.3z"/>
	</g>
	<g class="st1">
		<path class="st10" d="M1224.2,45c360.5,113.8,685.8,303.5,917.4,547.2V-13.6H1002.9C1077.9,2.6,1151.9,22.1,1224.2,45z"/>
		<path class="st11" d="M1759.4,121.4c125.3,26.8,258.9,17.1,382.2-16.9V17.8l-776.9-31.4c28.6,7.8,56.8,16.4,84.5,26.1
			C1552.9,48.6,1649.9,98,1759.4,121.4z"/>
		<path class="st12" d="M2155,668l13.2-72.1l-0.6-8.2c-228-188.6-506.3-339.9-811.9-440.9C1643.5,255.8,1943.8,480.2,2155,668z"/>
		<path class="st12" d="M1043.7,141.8C704.5,60.4,338.4,49.7-7.8,109.5V41.2l-14.2,0.6l8.4,123C328,90.6,694.3,86,1038.5,153.1
			c93.2,18.2,184.6,41.6,273.5,69.9C1225.2,191,1135.4,163.8,1043.7,141.8z"/>
		<path class="st10" d="M1202.2,93.8C1041.9,43.9,874.6,8,704.4-13.6H-7.8v123.2c346.3-59.9,712.4-49.1,1051.5,32.3
			c369.1,88.6,704.7,260.6,956.8,489.3h141.1v-8.2C1889.3,390.6,1564.2,206.6,1202.2,93.8z"/>
		<path class="st10" d="M1318.5,259.3c0,0,13.2,5.2,36.3,14.3c5.8,2.3,12.2,4.7,19.1,7.6c6.9,2.9,14.3,6.1,22.2,9.5
			c7.9,3.4,16.4,7,25.3,10.8c8.8,4,18,8.2,27.6,12.6c9.6,4.4,19.7,8.9,29.9,13.8c10.2,5,20.7,10.1,31.5,15.4
			c5.4,2.7,10.9,5.3,16.4,8.1c5.4,2.9,10.9,5.7,16.5,8.7c11.1,5.9,22.6,11.7,34,18c22.6,12.7,46.3,25.6,69.4,39.7
			c23.6,13.7,46.4,28.6,69.7,43.3c22.5,15.3,45.5,30.3,66.9,46c22,15.3,42.4,31.4,62.6,46.6c9.9,7.8,19.4,15.6,28.8,23.2
			c4.7,3.8,9.3,7.6,13.9,11.3c4.5,3.7,8.9,7.6,13.2,11.3c8.7,7.5,17.1,14.7,25.3,21.7c8.1,7,15.6,14.1,22.9,20.8
			c7.3,6.7,14.3,13.1,21,19.2c6.4,6.3,12.5,12.2,18.3,17.8c5.7,5.6,11.1,10.8,16.1,15.6c4.9,4.9,9.2,9.5,13.2,13.6
			c15.9,16.4,24.9,25.8,24.9,25.8l-55.4,29.4c0,0-7.9-9.5-21.8-26.2c-3.5-4.2-7.2-8.8-11.5-13.8c-4.4-4.9-9.1-10.3-14.2-16
			c-5.1-5.7-10.4-11.8-16.1-18.2c-5.9-6.3-12.1-12.9-18.6-19.8c-6.6-6.8-13.2-14.1-20.4-21.4c-7.3-7.2-14.9-14.7-22.6-22.4
			c-3.9-3.8-7.8-7.8-11.9-11.7c-4.1-3.9-8.3-7.8-12.6-11.7c-8.5-7.9-17-16-26-24.1c-18.3-16-36.9-32.7-56.9-48.9
			c-19.6-16.6-40.7-32.5-61.4-48.7c-21.5-15.6-42.6-31.6-64.6-46.3c-21.5-15.2-43.7-29.1-64.9-42.9c-10.7-6.8-21.5-13.2-32-19.6
			c-5.2-3.2-10.4-6.3-15.6-9.5c-5.2-3.1-10.4-6-15.5-8.9c-10.2-5.8-20.2-11.5-29.8-17c-9.7-5.5-19.3-10.4-28.4-15.3
			c-9.1-4.9-17.9-9.5-26.2-14c-8.5-4.3-16.5-8.3-24.1-12.1c-7.6-3.8-14.7-7.4-21.2-10.6c-6.6-3.2-12.8-6-18.3-8.7
			C1331.1,265.3,1318.5,259.3,1318.5,259.3z"/>
		<path class="st13" d="M1568.3,132.6c0,0,13.6,4.6,37.3,12.7c5.9,2.1,12.5,4.2,19.6,6.8c7.1,2.6,14.7,5.5,22.8,8.5
			c8.2,3,16.9,6.3,26,9.7c9,3.6,18.5,7.4,28.4,11.3c9.9,4,20.3,8,30.8,12.5c10.5,4.5,21.4,9.2,32.6,14.1c5.6,2.4,11.3,4.8,17,7.4
			c5.6,2.6,11.3,5.3,17.1,7.9c11.5,5.4,23.4,10.7,35.3,16.5c23.5,11.7,48.1,23.5,72.2,36.7c24.5,12.6,48.4,26.6,72.7,40.2
			c23.6,14.3,47.6,28.3,70.2,43.1c23.1,14.4,44.7,29.5,65.9,43.9c10.5,7.3,20.5,14.8,30.5,21.9c5,3.6,9.9,7.2,14.7,10.7
			c4.8,3.6,9.4,7.2,14,10.7c9.2,7.1,18.2,14,26.8,20.6c8.6,6.7,16.6,13.5,24.4,19.8c7.8,6.4,15.2,12.5,22.3,18.3
			c6.9,6,13.4,11.7,19.6,17c6.1,5.3,11.9,10.3,17.2,15c5.3,4.7,9.9,9.1,14.2,13c17,15.8,26.8,24.8,26.8,24.8l-61.7,36.5
			c0,0-8.4-9.2-23.2-25.4c-3.7-4-7.7-8.6-12.3-13.4c-4.6-4.8-9.7-9.9-15-15.4c-5.4-5.5-11.1-11.4-17.1-17.6
			c-6.2-6-12.8-12.4-19.7-19c-6.9-6.6-13.9-13.6-21.6-20.6c-7.7-7-15.6-14.2-23.8-21.6c-4.1-3.7-8.2-7.5-12.5-11.2
			c-4.3-3.7-8.7-7.5-13.2-11.2c-8.9-7.6-17.9-15.4-27.3-23.2c-19.1-15.3-38.6-31.4-59.6-46.8c-20.5-15.9-42.4-31-64.1-46.4
			c-22.3-14.8-44.3-30-67.1-43.9c-22.3-14.4-45.2-27.5-67.2-40.6c-11.1-6.4-22.3-12.4-33.1-18.4c-5.4-3-10.8-6-16.1-8.9
			c-5.3-2.9-10.7-5.6-16-8.4c-10.5-5.5-20.8-10.8-30.7-16c-10-5.1-19.9-9.7-29.2-14.3c-9.4-4.5-18.4-8.9-27-13.1
			c-8.7-3.9-17-7.7-24.8-11.2c-7.8-3.5-15.1-6.8-21.8-9.9c-6.8-3-13.2-5.6-18.8-8C1581.4,138.1,1568.3,132.6,1568.3,132.6z"/>
		<path class="st13" d="M891.2,76.5c0,0-14.4-2.6-39.6-7.2c-6.3-1.1-13.3-2.5-20.9-3.7c-7.6-1.2-15.9-2.5-24.7-3.9
			c-8.8-1.4-18.2-2.8-28.1-4.4c-9.9-1.3-20.4-2.7-31.3-4.2c-10.9-1.4-22.2-3-34-4.4c-11.8-1.3-24-2.6-36.5-3.9
			c-6.3-0.6-12.6-1.4-19-2c-6.5-0.5-13-1.1-19.6-1.6c-13.2-1.1-26.7-2.3-40.4-3.3c-27.5-1.6-55.8-3.6-84.7-4.3
			c-28.8-1.3-58.2-1.3-87.4-1.7c-29.3,0.4-58.5,0.4-87.3,1.7c-28.8,0.7-57,2.7-84.2,4.3c-13.6,1-27,2.2-40.1,3.3
			c-6.5,0.5-13,1.1-19.4,1.6c-6.4,0.6-12.7,1.3-18.9,2c-12.4,1.3-24.4,2.6-36.1,3.9c-11.6,1.3-22.8,3-33.6,4.3
			c-10.7,1.4-21,2.8-30.8,4.1c-9.7,1.5-19,3-27.7,4.3c-8.7,1.4-16.8,2.6-24.3,3.8c-7.5,1.2-14.3,2.6-20.5,3.7
			c-24.7,4.5-38.8,7.1-38.8,7.1L-52.3,17c0,0,14.9-1.7,41-4.8c6.5-0.7,13.7-1.7,21.6-2.4c7.9-0.7,16.4-1.5,25.5-2.3
			c9.1-0.8,18.8-1.7,29-2.7c10.2-0.7,21-1.4,32.3-2.2c11.2-0.7,22.9-1.7,35-2.2c12.1-0.5,24.7-1.1,37.6-1.6c6.4-0.3,13-0.6,19.6-0.8
			c6.6-0.1,13.3-0.3,20.1-0.4c13.5-0.2,27.3-0.6,41.4-0.7C279-3,308-3.2,337.4-2c29.4,0.5,59.3,2.5,89.1,3.9
			c29.7,2.3,59.5,4.2,88.6,7.4c29.2,2.6,57.6,6.5,85.2,9.8c13.7,1.9,27.2,4,40.4,5.9c6.6,1,13.1,1.9,19.5,2.9c6.4,1,12.7,2.2,19,3.2
			c12.5,2.2,24.6,4.3,36.3,6.3c11.7,2.1,22.9,4.5,33.7,6.6c10.8,2.2,21.1,4.2,30.9,6.2c9.8,2.2,19,4.3,27.7,6.2
			c8.7,1.9,16.8,3.8,24.3,5.4c7.5,1.7,14.3,3.5,20.4,5C877.1,73,891.2,76.5,891.2,76.5z"/>
		<path class="st14" d="M2141.6-13.6h-776.9c27.5,6.2,54.7,13.4,81.5,21.4C1546.4,38,1641.3,81,1746.2,98.9
			c132.5,22.7,271.9,2.9,395.3-42.7V-13.6z"/>
		<path class="st15" d="M1863.2,31.7c70.4-4,136.4-26.9,203.3-45.4h-458C1692,12,1775.1,36.8,1863.2,31.7z"/>
	</g>
</g>
</svg>
