<?xml version="1.0" encoding="utf-8"?>
<!-- Generator: Adobe Illustrator 22.0.0, SVG Export Plug-In . SVG Version: 6.00 Build 0)  -->
<svg version="1.1" id="Layer_1" xmlns="http://www.w3.org/2000/svg" xmlns:xlink="http://www.w3.org/1999/xlink" x="0px" y="0px"
	 viewBox="0 0 792 612" style="enable-background:new 0 0 792 612;" xml:space="preserve">
<style type="text/css">
	.st0{fill:url(#SVGID_1_);}
	.st1{fill:url(#SVGID_2_);}
	.st2{fill:#F1F2F2;}
	.st3{fill:#EC008C;}
	.st4{fill:#FFCD03;}
	.st5{fill:#5F9375;}
	.st6{fill:#4E8A93;}
	.st7{fill:#F26322;}
	.st8{fill:#DDA827;}
	.st9{fill:#D6582A;}
	.st10{fill:#4E7978;}
	.st11{fill:#5D7F62;}
</style>
<path d="M638.4,149.5c-96-15.4-171.6-49.8-224.7-102.1c-1.9-1.9-3.7-3.7-5.6-5.6l-3.8-3.9l-3.8,3.9c-26.1,27.1-57.9,49.6-95.1,67.4
	c-37.9,18.1-81.4,31.3-130.4,39.5c-1.6,0.3-3.2,0.5-4.8,0.8l-4.7,0.8l0.3,4.7c1.7,29.4,4.8,58,9.2,85.6
	c9.3,58.8,24.6,112.9,45.3,160.1c4,9.2,8.3,18.2,12.7,26.8c41.3,80.6,98.2,136.2,169.3,165.4l2,0.8l2-0.8c29.2-12,56-28.4,80.3-49.2
	c34.9-29.8,64.7-68.7,89-116.2c37.9-73.9,61.1-168.2,67.1-272.5l0.3-4.7L638.4,149.5z M477.1,537.8c-22.2,18.6-46.5,33.6-72.8,44.6
	c-74.4-31.2-133.3-94.1-172.8-181.8c-25.8-57.2-43.3-124.8-51.5-201.1c18.6,57.9,50.3,111.8,94.6,160.7c9.7,10.7,20,21.1,30.8,31.2
	c29,27.1,62,52.2,98.9,75c1,0.6,2,1.2,3,1.9c28.6,17.5,59.4,33.7,92.4,48.5C492.5,524.3,484.9,531.3,477.1,537.8z M507.4,508.9
	c-37.3-16.6-71.7-34.8-103.1-54.5c-37.2-23.5-70.3-49.1-98.9-76.8c-65.4-63.2-108-137-125.6-219.1c46.8-8.1,88.7-20.7,125.6-37.8
	c38.6-17.8,71.6-40.5,98.9-67.8c54,54.2,130.6,89.9,227.7,106.2C622.6,310.1,578.6,431.2,507.4,508.9z"/>
<linearGradient id="SVGID_1_" gradientUnits="userSpaceOnUse" x1="179.8249" y1="249.0905" x2="305.4331" y2="249.0905">
	<stop  offset="9.914436e-08" style="stop-color:#EC008C"/>
	<stop  offset="0.5" style="stop-color:#F6ADCD"/>
	<stop  offset="1" style="stop-color:#EC008C"/>
</linearGradient>
<path class="st0" d="M305.4,120.7v256.9c-65.4-63.2-108-137-125.6-219.1C226.6,150.4,268.5,137.7,305.4,120.7z"/>
<linearGradient id="SVGID_2_" gradientUnits="userSpaceOnUse" x1="305.4331" y1="253.5696" x2="404.3367" y2="253.5696">
	<stop  offset="2.974331e-07" style="stop-color:#0089CF"/>
	<stop  offset="0.5" style="stop-color:#C7EAFB"/>
	<stop  offset="1" style="stop-color:#0089CF"/>
</linearGradient>
<path class="st1" d="M404.3,52.8v401.5c-37.2-23.5-70.3-49.1-98.9-76.8V120.7C344,102.8,377,80.2,404.3,52.8z"/>
<path class="st2" d="M632.1,159c-9.5,151.1-53.5,272.2-124.7,349.8c-37.3-16.6-71.7-34.8-103.1-54.5V52.8
	C458.3,107,534.9,142.7,632.1,159z"/>
<path class="st2" d="M477.1,537.8c-22.2,18.6-46.5,33.6-72.8,44.6c-74.4-31.2-133.3-94.1-172.8-181.8
	c-25.8-57.2-43.3-124.8-51.5-201.1c18.6,57.9,50.3,111.8,94.6,160.7c9.7,10.7,20,21.1,30.8,31.2c29,27.1,62,52.2,98.9,75
	c1,0.6,2,1.2,3,1.9c28.6,17.5,59.4,33.7,92.4,48.5C492.5,524.3,484.9,531.3,477.1,537.8z"/>
<g>
	<path d="M416.3,421.3c0-0.6,0.3-1.1,0.8-1.5c0.5-0.4,1.1-0.6,1.8-0.6c0.7,0,1.3,0.2,1.8,0.6c0.5,0.4,0.8,0.9,0.8,1.5
		c0,2.1,1,3.1,3.1,3.1c2.1,0,3.1-1,3.1-3.1c0-1.4-1.9-3.5-5.7-6.2c-3.8-2.8-5.7-5.5-5.7-8.3c0-4.8,2.8-7.3,8.3-7.3
		c5.5,0,8.3,2.4,8.3,7.3c0,0.6-0.3,1.1-0.8,1.5c-0.5,0.4-1.1,0.6-1.8,0.6c-0.7,0-1.3-0.2-1.8-0.6c-0.5-0.4-0.8-0.9-0.8-1.5
		c0-2.1-1-3.1-3.1-3.1c-2.1,0-3.1,1-3.1,3.1c0,1.4,1.9,3.5,5.7,6.2c3.8,2.8,5.7,5.5,5.7,8.3c0,4.8-2.8,7.3-8.3,7.3
		C419,428.6,416.3,426.1,416.3,421.3z"/>
	<path d="M451.6,426.5c0,0.6-0.3,1.1-0.8,1.5c-0.5,0.4-1.1,0.6-1.8,0.6c-0.7,0-1.3-0.2-1.8-0.6s-0.8-0.9-0.8-1.5v-8.3h-6.2v8.3
		c0,0.6-0.3,1.1-0.8,1.5c-0.5,0.4-1.1,0.6-1.8,0.6c-0.7,0-1.3-0.2-1.8-0.6s-0.8-0.9-0.8-1.5v-19.7c0-4.8,2.8-7.3,8.3-7.3
		c5.5,0,8.3,2.4,8.3,7.3V426.5z M446.4,406.8c0-2.1-1-3.1-3.1-3.1c-2.1,0-3.1,1-3.1,3.1v7.3h6.2V406.8z"/>
	<path d="M458.9,426.5c0,0.6-0.3,1.1-0.8,1.5c-0.5,0.4-1.1,0.6-1.8,0.6c-0.7,0-1.3-0.2-1.8-0.6s-0.8-0.9-0.8-1.5v-24.9
		c0-0.6,0.3-1.1,0.8-1.5s1.1-0.6,1.8-0.6c0.7,0,1.3,0.2,1.8,0.6c0.2,0.2,0.4,0.4,0.5,0.6l6.4,6.4v-5.6c0-0.6,0.3-1.1,0.8-1.5
		c0.5-0.4,1.1-0.6,1.8-0.6c0.7,0,1.3,0.2,1.8,0.6s0.8,0.9,0.8,1.5v24.9c0,0.6-0.3,1.1-0.8,1.5s-1.1,0.6-1.8,0.6
		c-0.7,0-1.3-0.2-1.8-0.6c-0.5-0.4-0.8-0.9-0.8-1.5v-12l-6.2-6.2V426.5z"/>
	<path d="M478.6,421.3c0-0.6,0.3-1.1,0.8-1.5c0.5-0.4,1.1-0.6,1.8-0.6c0.7,0,1.3,0.2,1.8,0.6c0.5,0.4,0.8,0.9,0.8,1.5
		c0,2.1,1,3.1,3.1,3.1s3.1-1,3.1-3.1v-19.7c0-0.6,0.3-1.1,0.8-1.5c0.5-0.4,1.1-0.6,1.8-0.6c0.7,0,1.3,0.2,1.8,0.6
		c0.5,0.4,0.8,0.9,0.8,1.5v19.7c0,4.8-2.8,7.3-8.3,7.3S478.6,426.1,478.6,421.3z"/>
	<path d="M513.9,421.3c0,4.8-2.8,7.3-8.3,7.3c-5.5,0-8.3-2.4-8.3-7.3v-14.5c0-4.8,2.8-7.3,8.3-7.3c5.5,0,8.3,2.4,8.3,7.3V421.3z
		 M505.6,424.4c2.1,0,3.1-1,3.1-3.1v-14.5c0-2.1-1-3.1-3.1-3.1c-2.1,0-3.1,1-3.1,3.1v14.5C502.5,423.4,503.5,424.4,505.6,424.4z"/>
	<path d="M516,421.3c0-0.6,0.3-1.1,0.8-1.5c0.5-0.4,1.1-0.6,1.8-0.6c0.7,0,1.3,0.2,1.8,0.6c0.5,0.4,0.8,0.9,0.8,1.5
		c0,2.1,1,3.1,3.1,3.1c2.1,0,3.1-1,3.1-3.1c0-1.4-1.9-3.5-5.7-6.2c-3.8-2.8-5.7-5.5-5.7-8.3c0-4.8,2.8-7.3,8.3-7.3
		c5.5,0,8.3,2.4,8.3,7.3c0,0.6-0.3,1.1-0.8,1.5c-0.5,0.4-1.1,0.6-1.8,0.6c-0.7,0-1.3-0.2-1.8-0.6c-0.5-0.4-0.8-0.9-0.8-1.5
		c0-2.1-1-3.1-3.1-3.1c-2.1,0-3.1,1-3.1,3.1c0,1.4,1.9,3.5,5.7,6.2c3.8,2.8,5.7,5.5,5.7,8.3c0,4.8-2.8,7.3-8.3,7.3
		C518.8,428.6,516,426.1,516,421.3z"/>
	<path d="M534.7,401.6c0-0.6,0.3-1.1,0.8-1.5c0.5-0.4,1.1-0.6,1.8-0.6h10.4c0.7,0,1.3,0.2,1.8,0.6c0.5,0.4,0.8,0.9,0.8,1.5
		s-0.3,1.1-0.8,1.5c-0.5,0.4-1.1,0.6-1.8,0.6h-7.8v8.3h4.7c0.7,0,1.3,0.2,1.8,0.6c0.5,0.4,0.8,0.9,0.8,1.5c0,0.6-0.3,1.1-0.8,1.5
		c-0.5,0.4-1.1,0.6-1.8,0.6h-4.7v8.3h7.8c0.7,0,1.3,0.2,1.8,0.6c0.5,0.4,0.8,0.9,0.8,1.5c0,0.6-0.3,1.1-0.8,1.5
		c-0.5,0.4-1.1,0.6-1.8,0.6h-10.4c-0.7,0-1.3-0.2-1.8-0.6c-0.5-0.4-0.8-0.9-0.8-1.5V401.6z"/>
</g>
<g>
	<path d="M267.4,287.4c0,0.8-0.4,1.5-1.1,2.1c-0.7,0.6-1.6,0.9-2.6,0.9s-1.9-0.3-2.6-0.9c-0.7-0.6-1.1-1.3-1.1-2.1v-28
		c0-6.9,3.9-10.3,11.8-10.3c3.5,0,6.2,0.7,8.1,2c1.9-1.3,4.7-2,8.1-2c7.9,0,11.8,3.4,11.8,10.3v28c0,0.8-0.4,1.5-1.1,2.1
		c-0.7,0.6-1.6,0.9-2.6,0.9c-1,0-1.9-0.3-2.6-0.9c-0.7-0.6-1.1-1.3-1.1-2.1v-28c0-3-1.5-4.4-4.4-4.4c-3,0-4.4,1.5-4.4,4.4v28
		c0,0.8-0.4,1.5-1.1,2.1c-0.7,0.6-1.6,0.9-2.6,0.9c-1,0-1.9-0.3-2.6-0.9c-0.7-0.6-1.1-1.3-1.1-2.1v-28c0-3-1.5-4.4-4.4-4.4
		c-3,0-4.4,1.5-4.4,4.4V287.4z"/>
	<path d="M326.4,287.4c0,0.8-0.4,1.5-1.1,2.1c-0.7,0.6-1.6,0.9-2.6,0.9c-1,0-1.9-0.3-2.6-0.9c-0.7-0.6-1.1-1.3-1.1-2.1v-11.8h-8.9
		v11.8c0,0.8-0.4,1.5-1.1,2.1c-0.7,0.6-1.6,0.9-2.6,0.9c-1,0-1.9-0.3-2.6-0.9c-0.7-0.6-1.1-1.3-1.1-2.1v-28
		c0-6.9,3.9-10.3,11.8-10.3c7.9,0,11.8,3.4,11.8,10.3V287.4z M319,259.3c0-3-1.5-4.4-4.4-4.4c-3,0-4.4,1.5-4.4,4.4v10.3h8.9V259.3z"
		/>
	<path d="M341.2,249c7.9,0,11.8,3.4,11.8,10.3v3c0,3.2-0.9,5.7-2.6,7.4c1.7,1.7,2.6,4.2,2.6,7.4v10.3c0,0.8-0.4,1.5-1.1,2.1
		c-0.7,0.6-1.6,0.9-2.6,0.9c-1,0-1.9-0.3-2.6-0.9c-0.7-0.6-1.1-1.3-1.1-2.1v-10.3c0-3-1.5-4.4-4.4-4.4h-4.4v14.8
		c0,0.8-0.4,1.5-1.1,2.1c-0.7,0.6-1.6,0.9-2.6,0.9s-1.9-0.3-2.6-0.9c-0.7-0.6-1.1-1.3-1.1-2.1V252c0-0.8,0.4-1.5,1.1-2.1
		c0.7-0.6,1.6-0.9,2.6-0.9H341.2z M345.6,259.3c0-3-1.5-4.4-4.4-4.4h-4.4v11.8h4.4c3,0,4.4-1.5,4.4-4.4V259.3z"/>
	<path d="M355.9,252c0-0.8,0.4-1.5,1.1-2.1c0.7-0.6,1.6-0.9,2.6-0.9s1.9,0.3,2.6,0.9c0.7,0.6,1.1,1.3,1.1,2.1v35.4
		c0,0.8-0.4,1.5-1.1,2.1c-0.7,0.6-1.6,0.9-2.6,0.9s-1.9-0.3-2.6-0.9c-0.7-0.6-1.1-1.3-1.1-2.1V252z"/>
	<path d="M389.8,287.4c0,0.8-0.4,1.5-1.1,2.1c-0.7,0.6-1.6,0.9-2.6,0.9s-1.9-0.3-2.6-0.9c-0.7-0.6-1.1-1.3-1.1-2.1v-11.8h-8.9v11.8
		c0,0.8-0.4,1.5-1.1,2.1c-0.7,0.6-1.6,0.9-2.6,0.9c-1,0-1.9-0.3-2.6-0.9c-0.7-0.6-1.1-1.3-1.1-2.1v-28c0-6.9,3.9-10.3,11.8-10.3
		c7.9,0,11.8,3.4,11.8,10.3V287.4z M382.5,259.3c0-3-1.5-4.4-4.4-4.4c-3,0-4.4,1.5-4.4,4.4v10.3h8.9V259.3z"/>
</g>
<g>
	<g>
		<path class="st3" d="M244.2,405.6c-0.7,0.9-1.5,1.3-2.4,1.3c-0.9,0-1.7-0.6-2.3-1.6c-0.6-1-0.8-2.3-0.7-3.6
			c0.1-1.4,0.5-2.5,1.2-3.3c4.1-4.8,6-6.4,9.8-9.5c-2-3.1-3-4.6-5.1-7.8c-3.7,2.6-5.5,4-9.6,8.4c-0.7,0.8-1.5,1.1-2.4,0.9
			c-0.9-0.1-1.7-0.7-2.2-1.8c-0.6-1.1-0.8-2.3-0.6-3.7c0.1-1.3,0.6-2.4,1.3-3.1c9.7-9.7,12.9-8.2,21.7-14.4
			c5.4-3.8,11.2-5.8,16.1-1.3c4.9,4.5,4.2,11.5-1.5,17.2C258.1,392.6,253.9,393.5,244.2,405.6z M262.9,378.3
			c2.4-2.2,2.8-4.6,0.9-6.4c-1.8-1.9-4-1.5-6.4,0.4c-3.3,2.7-4.9,3.6-8.1,5.7c2.1,2.9,3.1,4.3,5.2,7.1
			C257.9,382.6,259.5,381.4,262.9,378.3z"/>
		<path class="st3" d="M275.4,378.2c0.7-0.9,1.5-1.5,2.5-1.7c0.9-0.3,1.7-0.1,2.3,0.5c0.6,0.6,0.9,1.5,0.8,2.7
			c-0.1,1.1-0.4,2.2-1.1,3.1c-9.6,12.9-14.1,14.8-23.6,25.2c-2.5,2.7-2.9,5.7-1.2,8.4c1.7,2.7,3.8,2.3,6.3-0.6
			c9.5-11.3,14.3-13.9,23.8-27.5c0.7-1,1.5-1.6,2.4-1.9c0.9-0.3,1.7-0.2,2.3,0.5c0.6,0.6,0.9,1.6,0.9,2.8c0,1.2-0.4,2.3-1.1,3.3
			c-7,10.4-15.8,19.6-23.9,29.2c-5.9,7.3-11,8.8-15.7,1.3c-4.7-7.5-3.8-16.1,1.9-22.1C261.5,391.7,265.8,390.5,275.4,378.2z"/>
		<path class="st3" d="M275.9,432.3c-8.1,5.4-12,8.8-12.5,8.9c-0.9,0.1-1.7-0.2-2.3-1.2c-0.6-0.9-0.9-2.1-0.9-3.5
			c0-1.4,0.4-2.6,1-3.6c0,0,0-0.1,0-0.1c0.1-0.1,0.1-0.1,0.2-0.2c0.3-0.4,6.6-4.9,19.6-13c6.7-15.9,9.9-24.3,10.2-24.8
			c0.1-0.1,0.1-0.2,0.1-0.4c0,0,0,0,0.1,0c0.6-1,1.4-1.6,2.3-1.9c0.9-0.3,1.7-0.2,2.3,0.4c0.6,0.6,0.9,1.6,0.9,2.9
			c0,0.6-1.8,6.7-5.8,17.1c8.1-5.9,12-10.1,12.4-10.3c0.9-0.3,1.7-0.2,2.3,0.4c0.6,0.7,0.9,1.6,0.9,2.9c0,1.2-0.3,2.4-0.9,3.5
			c0,0,0,0.1,0,0.1c-0.1,0.1-0.1,0.2-0.2,0.3c-0.3,0.4-6.6,6.9-19.7,15.7c-6.8,16.5-9.8,26.8-10.1,27.3c-0.1,0.2-0.1,0.2-0.1,0.4
			c0,0,0,0-0.1,0c-0.6,1.1-1.4,1.7-2.2,1.9c-0.9,0.2-1.7-0.1-2.3-1c-0.6-0.9-1-2.1-1-3.5C270.1,449.9,271.8,443,275.9,432.3z"/>
		<path class="st3" d="M308.2,411.8c0.6-1.1,1.4-1.8,2.2-2.2c0.9-0.4,1.6-0.2,2.3,0.4c0.6,0.7,1,1.6,1,2.9c0,1.3-0.2,2.5-0.8,3.6
			c-9.6,15.5-20.5,30.1-30.2,45.7c-0.6,1.1-1.3,1.8-2.2,2c-0.9,0.2-1.6-0.1-2.3-0.9c-0.7-0.8-1-2-1-3.4c0-1.4,0.3-2.7,0.9-3.8
			C287.1,440.8,299,427.3,308.2,411.8z"/>
		<path class="st3" d="M291.6,466.5c2.9,3.5,4.3,5.2,7.2,8.6c0.7,0.8,1,1.8,1.1,3.2c0,1.4-0.2,2.6-0.8,3.7c-0.6,1.1-1.3,1.9-2.1,2.1
			c-0.9,0.3-1.6,0-2.3-0.8c-4-4.5-5.9-6.8-9.8-11.6c-0.7-0.8-1-1.9-1.1-3.3c-0.1-1.4,0.2-2.7,0.8-3.8c9.6-15.7,20.5-30.5,30.2-46.2
			c0.6-1.1,1.3-1.9,2.2-2.2s1.6-0.2,2.3,0.4c0.7,0.7,1,1.6,1.1,2.9c0.1,1.3-0.2,2.5-0.8,3.6C311.2,438.4,300.5,451.8,291.6,466.5z"
			/>
		<path class="st3" d="M331.4,434.8c0.6-1.1,1.3-1.9,2.1-2.2c0.9-0.4,1.6-0.2,2.3,0.4c0.7,0.7,1.1,1.6,1.3,2.9
			c0.1,1.3-0.1,2.5-0.6,3.6c-9.7,17.1-20.8,33.2-30.4,50.2c-0.6,1.1-1.2,1.9-2.1,2.1c-0.9,0.3-1.6,0.1-2.3-0.7
			c-0.7-0.8-1.1-1.8-1.2-3.2s0.1-2.6,0.7-3.8C310.7,467.4,321.7,451.6,331.4,434.8z"/>
		<path class="st3" d="M324.4,508.6c-0.5,1.1-1.2,1.8-2.1,2.2c-0.8,0.3-1.6,0.1-2.3-0.6c-0.7-0.7-1.2-1.7-1.3-3
			c-0.2-1.3,0-2.5,0.6-3.7c3.2-6.6,5.4-10.1,9.8-17.1c-2.5-2.4-3.7-3.6-6.2-6.1c-4.4,6.9-6.6,10.3-9.8,17c-0.5,1.1-1.2,1.9-2.1,2.2
			c-0.8,0.3-1.6,0.1-2.3-0.7c-0.7-0.7-1.1-1.8-1.3-3.1c-0.1-1.3,0.1-2.6,0.6-3.7c7.1-14,16.5-26.7,24.8-40
			c5.9-9.8,10.3-12.1,16.1-7.1c5.8,5,7.4,12,1.2,22.2C341.5,480.8,331.7,494,324.4,508.6z M344.6,462.3c2.6-4.3,2.5-7.3,0.4-9.2
			c-2.2-1.9-4.3-0.7-6.9,3.5c-3.6,6-5.6,9-9.6,15c2.5,2.4,3.8,3.6,6.3,5.9C338.9,471.5,341,468.4,344.6,462.3z"/>
		<path class="st3" d="M349.5,515.4c-6.6,10.4-10.9,12.1-16.5,7c-2.3-2.1-3.5-3.2-5.8-5.3c-0.7-0.7-1.2-1.6-1.4-2.9
			c-0.2-1.3,0-2.5,0.5-3.6c9.4-18.2,22.7-34,31.8-52.4c0.5-1.1,1.2-1.9,2.1-2.2c0.9-0.3,1.7-0.2,2.5,0.5c2.6,2,3.9,3,6.5,5.1
			c6.4,4.9,8.6,11.4,1.9,21.8C364.3,494.2,356.6,504.6,349.5,515.4z M337,514.3c2.1,1.9,4.3,0.8,7.1-3.6
			c6.9-10.7,14.4-21.1,21.3-31.8c2.8-4.4,2.6-7.4,0.2-9.2c-1.4-1.1-2.2-1.6-3.6-2.7c-8.7,15.2-19.4,29.2-28.1,44.4
			C335.1,512.5,335.7,513.1,337,514.3z"/>
		<path class="st3" d="M369.9,531.8c-7.5,10.5-11.9,12-17.6,7.3c-5.8-4.7-7.2-11.4-0.5-21.7c7.2-10.9,15-21.3,22.2-32.2
			c6.7-10.4,11.4-12.1,18.7-7.5c7.3,4.6,9.8,10.6,2.3,21.1C386.7,509.9,378,520.6,369.9,531.8z M356.5,531.2
			c2.2,1.8,4.5,0.7,7.6-3.8c7.8-11.1,16.2-21.7,24-32.8c3.1-4.5,2.9-7.4,0.3-9.1c-2.7-1.7-5.1-0.5-8.1,3.9
			c-7.5,11-15.5,21.5-22.9,32.5C354.3,526.4,354.3,529.3,356.5,531.2z"/>
		<path class="st3" d="M418.8,492.8c8.3,4.3,11.1,9.7,2.1,20.3c-1.5,1.8-2.3,2.8-4,4.7c-4.5,5.2-9.1,8.9-13.2,10.9
			c-0.9,3.8-3.9,8.5-8.4,13.7c-5.8,6.7-8.5,9.9-12.3,15.1c-0.7,1-1.6,1.7-2.6,1.9c-1,0.3-1.8,0.1-2.6-0.4c-0.8-0.6-1.2-1.4-1.3-2.4
			c-0.1-1.1,0.1-2.1,0.8-3.2c3.6-5.3,6.2-8.5,11.6-15.1c3.9-4.7,4.8-8.1,2.2-9.7c-1.5-1-2.3-1.5-3.8-2.5
			c-7.9,9.7-11.9,14.7-16.7,22.3c-0.7,1-1.4,1.7-2.4,2c-0.9,0.3-1.7,0.1-2.5-0.5c-0.8-0.6-1.2-1.4-1.4-2.5c-0.2-1.1,0.1-2.2,0.7-3.3
			c12.1-18.8,27.7-35.2,39.6-54.2c0.6-1.1,1.5-1.7,2.6-2c1.1-0.3,2.1-0.2,3.2,0.4C413.7,490.1,415.3,491,418.8,492.8z M413.4,509.2
			c3.6-4.5,3.5-7.3,0.5-8.9c-1.8-1-2.7-1.4-4.5-2.4c-4.6,6.6-7.8,10.6-14.1,18.3c1.6,1,2.4,1.5,4.1,2.4c2.7,1.6,6.3-0.1,10.2-4.8
			C411.1,512,411.9,511,413.4,509.2z"/>
		<path class="st3" d="M403.7,571.6c-0.9,1-1.9,1.6-3,1.9c-1.1,0.3-2,0.1-2.8-0.4c-0.8-0.5-1.2-1.3-1.2-2.3c0-1,0.4-2,1.3-3
			c5.1-5.8,8.9-9.7,16.6-17.6c-3.2-1.8-4.8-2.8-8-4.6c-7.3,7.8-10.8,11.7-15.5,17.6c-0.8,1-1.7,1.6-2.7,1.9c-1,0.3-1.9,0.1-2.7-0.4
			c-0.8-0.5-1.2-1.3-1.3-2.4c-0.1-1.1,0.2-2.1,1-3.1c12.1-15.5,25.7-29.8,38.6-44.5c9.1-10.7,15.2-11.9,24.7-7.9
			c9.4,3.9,12.2,8.7,1.3,19.5C434.5,541.3,418.6,556,403.7,571.6z M441.5,522.7c4.4-4.6,4.4-7.3,1-8.7c-3.4-1.4-6.6-0.2-10.8,4.4
			c-5.8,6.4-9.3,10.1-15.9,17.1c3.4,1.8,5.1,2.7,8.6,4.5C431.6,532.8,435.3,529.1,441.5,522.7z"/>
	</g>
</g>
<g>
	<g>
		<path d="M243.6,160.8c0-1.2,0.4-2.2,1.1-3.2c0.7-0.9,1.6-1.5,2.7-1.6c6.1-0.8,9.2-1.2,15.3-2c1.1-0.1,2,0.2,2.7,1
			c0.7,0.8,1.1,1.8,1.1,3.1c0,1.2-0.4,2.4-1.1,3.3c-0.7,1-1.6,1.5-2.7,1.6c-4.6,0.5-6.9,0.8-11.5,1.3c0,7,0,10.6,0,17.6
			c2.8-0.2,4.1-0.3,6.9-0.5c1.1-0.1,2,0.3,2.7,1.1c0.7,0.8,1.1,1.9,1.1,3.1s-0.4,2.3-1.1,3.2c-0.7,0.9-1.6,1.4-2.7,1.5
			c-2.8,0.2-4.1,0.2-6.9,0.4c0,7,0,10.6,0,17.6c4.6-0.1,6.9-0.1,11.5-0.2c1.1,0,2,0.4,2.7,1.3c0.7,0.9,1.1,1.9,1.1,3.2
			c0,1.2-0.4,2.3-1.1,3.2c-0.7,0.9-1.6,1.3-2.7,1.3c-6.1,0-9.2,0-15.3,0c-1.1,0-2-0.4-2.7-1.3c-0.7-0.9-1.1-1.9-1.1-3.1
			C243.6,195.5,243.6,178.1,243.6,160.8z"/>
		<path d="M269.6,201.1c0-1.3,0.4-2.3,1.1-3.3c0.7-0.9,1.6-1.4,2.7-1.5c1.1,0,2,0.4,2.7,1.3c0.7,0.9,1.1,2,1.1,3.2
			c0,4.6,1.5,6.9,4.6,6.9c3.1-0.1,4.6-2.4,4.6-7.2c0-3.2-2.8-7.8-8.4-13.7c-5.6-5.9-8.4-11.7-8.4-17.8c0-10.7,4.1-16.5,12.2-17.6
			c8.2-1,12.2,4,12.2,15.2c0,1.3-0.4,2.5-1.1,3.5c-0.7,1-1.6,1.6-2.7,1.6c-1.1,0.1-2-0.3-2.7-1.2c-0.7-0.9-1.1-1.9-1.1-3.2
			c0-4.7-1.5-6.9-4.6-6.6c-3.1,0.3-4.6,2.8-4.6,7.5c0,3.1,2.8,7.4,8.4,13.4c5.6,5.9,8.4,12.2,8.4,18.6c0,11.2-4.1,16.8-12.2,16.8
			C273.7,217.2,269.6,211.8,269.6,201.1z"/>
		<path d="M314,199.7c0-1.4,0.4-2.5,1.1-3.6c0.7-1,1.6-1.5,2.7-1.6c1.1,0,2,0.4,2.7,1.4c0.7,1,1.1,2.1,1.1,3.5
			c0,11.8-4.1,17.7-12.2,17.7c-8.2,0-12.2-5.6-12.2-16.9c0-13.5,0-20.3,0-33.8c0-11.3,4.1-17.4,12.2-18.4c8.2-1,12.2,4.3,12.2,16.1
			c0,1.4-0.4,2.6-1.1,3.7c-0.7,1.1-1.6,1.6-2.7,1.7c-1.1,0.1-2-0.3-2.7-1.2c-0.7-0.9-1.1-2-1.1-3.4c0-5-1.5-7.3-4.6-7
			c-3.1,0.3-4.6,2.9-4.6,7.8c0,13.7,0,20.6,0,34.3c0,4.9,1.5,7.3,4.6,7.3C312.5,207.2,314,204.7,314,199.7z"/>
		<path d="M324.7,151.2c0-1.4,0.4-2.6,1.1-3.7c0.7-1.1,1.6-1.7,2.7-1.8c1.1-0.1,2,0.3,2.7,1.2c0.7,0.9,1.1,2.1,1.1,3.5
			c0,16.3,0,32.6,0,48.9c0,5.1,1.5,7.7,4.6,7.6c3.1-0.1,4.6-2.7,4.6-7.9c0-16.6,0-33.1,0-49.7c0-1.4,0.4-2.7,1.1-3.8
			c0.7-1.1,1.6-1.8,2.7-1.9c1.1-0.1,2,0.3,2.7,1.2c0.7,0.9,1.1,2.1,1.1,3.6c0,16.8,0,33.6,0,50.3c0,12.4-4.1,18.5-12.2,18.5
			c-8.2,0-12.2-5.9-12.2-17.8C324.7,183.3,324.7,167.3,324.7,151.2z"/>
		<path d="M352.3,147.9c0-1.5,0.4-2.8,1.1-3.9c0.7-1.1,1.6-1.8,2.7-1.9c6.1-0.8,9.2-1.2,15.3-2c1.1-0.1,2,0.3,2.7,1.3
			c0.7,1,1.1,2.2,1.1,3.8c0,1.5-0.4,2.9-1.1,4c-0.7,1.2-1.6,1.8-2.7,1.9c-4.6,0.5-6.9,0.8-11.5,1.3c0,8.6,0,12.9,0,21.6
			c2.8-0.2,4.1-0.3,6.9-0.5c1.1-0.1,2,0.4,2.7,1.4c0.7,1,1.1,2.3,1.1,3.8c0,1.5-0.4,2.8-1.1,3.9c-0.7,1.1-1.6,1.7-2.7,1.8
			c-2.8,0.2-4.1,0.2-6.9,0.4c0,8.6,0,12.9,0,21.6c4.6-0.1,6.9-0.1,11.5-0.2c1.1,0,2,0.5,2.7,1.6c0.7,1.1,1.1,2.4,1.1,3.9
			c0,1.5-0.4,2.8-1.1,3.9c-0.7,1.1-1.6,1.6-2.7,1.6c-6.1,0-9.2,0-15.3,0c-1.1,0-2-0.5-2.7-1.6c-0.7-1-1.1-2.3-1.1-3.8
			C352.3,190.5,352.3,169.2,352.3,147.9z"/>
		<path d="M386,205.9c4.6-0.1,6.9-0.1,11.5-0.2c1.1,0,2,0.5,2.7,1.6c0.7,1.1,1.1,2.5,1.1,4.1c0,1.6-0.4,2.9-1.1,4.1
			c-0.7,1.1-1.6,1.7-2.7,1.7c-6.1,0-9.2,0-15.3,0c-1.1,0-2-0.6-2.7-1.6c-0.7-1.1-1.1-2.4-1.1-3.9c0-22.2,0-44.5,0-66.7
			c0-1.5,0.4-2.9,1.1-4.1c0.7-1.2,1.6-1.9,2.7-2c1.1-0.1,2,0.3,2.7,1.3c0.7,1,1.1,2.3,1.1,3.8C386,164.6,386,185.2,386,205.9z"/>
		<path d="M428.8,211.6c0,1.5-0.4,2.8-1.1,3.9c-0.7,1.1-1.6,1.6-2.7,1.6c-1.1,0-2-0.6-2.7-1.7c-0.7-1.1-1.1-2.4-1.1-4
			c0-9,0-13.5,0-22.6c-3.7-0.2-5.5-0.3-9.2-0.4c0,9.2,0,13.8,0,22.9c0,1.6-0.4,2.9-1.1,4c-0.7,1.1-1.6,1.7-2.7,1.7
			c-1.1,0-2-0.6-2.7-1.7c-0.7-1.1-1.1-2.5-1.1-4.1c0-18.4,0-36.7,0-55.1c0-13.5,4.1-19.8,12.2-18.7c8.2,1,12.2,8.1,12.2,21.1
			C428.8,176.3,428.8,193.9,428.8,211.6z M421.2,157.9c0-5.6-1.5-8.6-4.6-9c-3.1-0.3-4.6,2.4-4.6,8.1c0,8,0,12,0,20.1
			c3.7,0.2,5.5,0.4,9.2,0.6C421.2,169.7,421.2,165.8,421.2,157.9z"/>
		<path d="M457.9,206.5c4.6,0.1,6.9,0.1,11.5,0.2c1.1,0,2,0.5,2.7,1.6c0.7,1,1.1,2.2,1.1,3.7c0,1.4-0.4,2.6-1.1,3.6
			c-0.7,1-1.6,1.5-2.7,1.5c-6.1,0-9.2,0-15.3,0c-1.1,0-2-0.5-2.7-1.6c-0.7-1.1-1.1-2.3-1.1-3.8c0-21.5,0-43,0-64.6
			c0-1.5,0.4-2.7,1.1-3.7c0.7-1,1.6-1.4,2.7-1.2c1.1,0.1,2,0.8,2.7,1.9c0.7,1.1,1.1,2.4,1.1,3.9
			C457.9,167.6,457.9,187.1,457.9,206.5z"/>
		<path d="M476.3,150.3c0-1.4,0.4-2.6,1.1-3.5c0.7-0.9,1.6-1.3,2.7-1.2c1.1,0.1,2,0.8,2.7,1.8c0.7,1.1,1.1,2.3,1.1,3.7
			c0,20.3,0,40.6,0,60.9c0,1.4-0.4,2.6-1.1,3.6c-0.7,1-1.6,1.5-2.7,1.5c-1.1,0-2-0.5-2.7-1.5c-0.7-1-1.1-2.2-1.1-3.6
			C476.3,191.4,476.3,170.9,476.3,150.3z"/>
		<path d="M503.8,200c0-1.3,0.4-2.5,1.1-3.4c0.7-0.9,1.6-1.4,2.7-1.3c1.1,0,2,0.6,2.7,1.5c0.7,1,1.1,2.1,1.1,3.4
			c0,11.3-4.1,16.9-12.2,16.9c-8.2,0-12.2-5.9-12.2-17.7c0-14.1,0-21.2,0-35.3c0-11.8,4.1-17.1,12.2-16.1c8.2,1,12.2,7.2,12.2,18.4
			c0,1.3-0.4,2.4-1.1,3.3c-0.7,0.9-1.6,1.3-2.7,1.2c-1.1-0.1-2-0.6-2.7-1.7c-0.7-1-1.1-2.2-1.1-3.5c0-4.9-1.5-7.5-4.6-7.8
			c-3.1-0.3-4.6,2-4.6,7c0,13.9,0,20.9,0,34.8c0,5,1.5,7.5,4.6,7.5C502.3,207.3,503.8,204.9,503.8,200z"/>
		<path d="M514.5,154.8c0-1.3,0.4-2.4,1.1-3.2c0.7-0.8,1.6-1.2,2.7-1.1c6.1,0.8,9.2,1.2,15.3,2c1.1,0.1,2,0.7,2.7,1.7
			c0.7,1,1.1,2.1,1.1,3.4c0,1.3-0.4,2.3-1.1,3.1c-0.7,0.8-1.6,1.2-2.7,1.1c-4.6-0.5-6.9-0.8-11.5-1.3c0,7.6,0,11.3,0,18.9
			c2.8,0.2,4.1,0.3,6.9,0.5c1.1,0.1,2,0.6,2.7,1.6c0.7,1,1.1,2.1,1.1,3.3c0,1.3-0.4,2.3-1.1,3.2c-0.7,0.9-1.6,1.3-2.7,1.2
			c-2.8-0.2-4.1-0.2-6.9-0.4c0,7.6,0,11.3,0,18.9c4.6,0.1,6.9,0.1,11.5,0.2c1.1,0,2,0.5,2.7,1.4c0.7,0.9,1.1,2,1.1,3.3
			c0,1.3-0.4,2.3-1.1,3.2c-0.7,0.9-1.6,1.4-2.7,1.4c-6.1,0-9.2,0-15.3,0c-1.1,0-2-0.5-2.7-1.4s-1.1-2.1-1.1-3.4
			C514.5,193.2,514.5,174,514.5,154.8z"/>
		<path d="M565,202c0,10.1-4.1,15.2-12.2,15.2c-8.2,0-12.2-5.3-12.2-16c0-12.8,0-19.1,0-31.9c0-10.6,4.1-15.4,12.2-14.4
			c8.2,1,12.2,6.6,12.2,16.7C565,183.8,565,189.8,565,202z M552.8,208.3c3.1,0.1,4.6-2.1,4.6-6.5c0-12.3,0-18.5,0-30.8
			c0-4.4-1.5-6.8-4.6-7.1c-3.1-0.3-4.6,1.7-4.6,6.2c0,12.6,0,18.9,0,31.4C548.2,205.9,549.7,208.2,552.8,208.3z"/>
	</g>
</g>
<g>
	<path class="st4" d="M549.9,323.7l-2.1,4.7l2,1.3c-1.2,8.6-13.6,15.4-28.7,15.4c-14.7,0-26.8-14-28.6-23.1v-7.1h2.2v-3h-2.2v-2.8
		h-2.4v2.8h-2.2v3h2.2v7.1c-1.8,9.2-13.9,23.1-28.6,23.1c-15.1,0-27.5-6.8-28.8-15.4l1.9-1.3l-2.1-4.7l-3.8,2.5l1.2,2.8l14.5,55.7
		h95.1l13.1-55.9l1.2-2.7L549.9,323.7z"/>
	<polygon class="st5" points="450.5,375.7 447.2,372.8 450.5,369.8 453.8,372.8 	"/>
	<g>
		<path class="st6" d="M468.6,375.7c-1.3,0-2.4-1.3-2.4-2.9c0-1.6,1.1-2.9,2.4-2.9c1.3,0,2.4,1.3,2.4,2.9
			C471,374.4,469.9,375.7,468.6,375.7"/>
	</g>
	<polygon class="st7" points="491.3,378.1 485.2,372.8 491.3,367.4 497.3,372.8 	"/>
	<g>
		<path class="st6" d="M514,375.7c-1.3,0-2.4-1.3-2.4-2.9c0-1.6,1.1-2.9,2.4-2.9c1.3,0,2.4,1.3,2.4,2.9
			C516.4,374.4,515.3,375.7,514,375.7"/>
	</g>
	<polygon class="st5" points="532,375.7 528.7,372.8 532,369.8 535.3,372.8 	"/>
	<g>
		<path class="st8" d="M492.5,309.1h-1.2v58.3l0,0l6,5.4l-6,5.4l0,0v6.6h48.3l13.1-55.9l1.2-2.7l-3.8-2.5l-2.1,4.7l2,1.3
			c-1.2,8.6-13.6,15.4-28.7,15.4c-14.7,0-26.8-14-28.6-23.1v-7.1h2.2v-3h-2.2V309.1z M532,375.7l-3.3-2.9l3.3-2.9l3.3,2.9L532,375.7
			z M514,375.7c-1.3,0-2.4-1.3-2.4-2.9c0-1.6,1.1-2.9,2.4-2.9c1.3,0,2.4,1.3,2.4,2.9C516.4,374.4,515.3,375.7,514,375.7"/>
	</g>
	<polygon class="st9" points="491.3,367.4 491.3,367.4 491.3,378.1 491.3,378.1 497.3,372.8 	"/>
	<g>
		<path class="st10" d="M514,369.8c-1.3,0-2.4,1.3-2.4,2.9c0,1.6,1.1,2.9,2.4,2.9c1.3,0,2.4-1.3,2.4-2.9
			C516.4,371.2,515.3,369.8,514,369.8"/>
	</g>
	<polygon class="st11" points="532,369.8 528.7,372.8 532,375.7 535.3,372.8 	"/>
</g>
</svg>
