<?xml version="1.0" encoding="utf-8"?>
<!-- Generator: Adobe Illustrator 22.0.0, SVG Export Plug-In . SVG Version: 6.00 Build 0)  -->
<svg version="1.1" id="Layer_1" xmlns="http://www.w3.org/2000/svg" xmlns:xlink="http://www.w3.org/1999/xlink" x="0px" y="0px"
	 viewBox="0 0 612 437" style="enable-background:new 0 0 612 437;" xml:space="preserve">
<style type="text/css">
	.st0{fill:#7D7D7D;}
	.st1{fill:#FFFFFF;}
	.st2{fill:#8E8E8E;}
	.st3{fill:#8FC640;}
	.st4{fill:#68B845;}
	.st5{fill:none;stroke:#FDFEFF;stroke-width:2;stroke-linecap:round;stroke-linejoin:round;stroke-miterlimit:10;}
	.st6{fill:#1D8FCE;}
</style>
<g>
	<g>
		
			<ellipse transform="matrix(0.9732 -0.2298 0.2298 0.9732 -41.7188 48.6542)" class="st0" cx="188.1" cy="203.5" rx="8.7" ry="8.7"/>
		<circle class="st0" cx="470" cy="25.9" r="10.9"/>
		<circle class="st0" cx="202.7" cy="60.5" r="4.9"/>
		<path class="st0" d="M572.5,73.2c0-25.3-20.5-45.8-45.8-45.8c-17.5,0-32.6,9.8-40.4,24.2c-3.2-1.7-6.9-2.7-10.9-2.7
			c-9.1,0-17,5.3-20.7,13c-6-2.9-12.7-4.5-19.7-4.5c-18.1,0-33.7,10.5-41.1,25.7c-5.3-3.1-11.4-4.9-17.9-4.9
			c-7.7,0-14.8,2.5-20.6,6.7c-0.2-19.3-15.9-34.8-35.2-34.8c-14.2,0-26.4,8.4-32,20.5c-9-5.2-19.5-8.3-30.7-8.3
			c-22.7,0-42.6,12.4-53.1,30.8c-3.3-1.4-6.8-2.5-10.4-3.1c-6.8-19.9-25.6-34.2-47.8-34.2c-1,0-2.1,0-3.1,0.1
			c-7.1-19.3-25.7-33.1-47.4-33.1c-27.9,0-50.5,22.6-50.5,50.5c0,14,5.7,26.7,15,35.9c-6.3,6.5-10.2,15.4-10.2,25.1
			c0,1.6,0.1,3.2,0.3,4.7c-7.1,6.9-11.5,16.5-11.5,27.2c0,21,17,38,38,38c13.3,0,24.9-6.8,31.7-17.1c4.6,5.2,11.3,8.5,18.8,8.5
			c11.4,0,21-7.6,24.1-18c8.9,7.8,20.6,12.6,33.3,12.6c14.9,0,28.3-6.5,37.6-16.8c7.8,5.5,16.9,9.2,26.8,10.6c0,0.2,0,0.4,0,0.6
			c0,20,16.2,36.2,36.2,36.2c20,0,36.2-16.2,36.2-36.2c0-1.1-0.1-2.2-0.2-3.3c4.9,2.5,10.5,3.9,16.3,3.9c7.8,0,15.1-2.5,21-6.7
			c6.4,4.9,14.4,7.9,23.1,7.9c5.4,0,10.6-1.2,15.3-3.2c-2.1,3.8-3.4,8.1-3.4,12.8c0,14.4,11.7,26,26,26c7.1,0,13.5-2.8,18.2-7.4
			c1,0.1,1.9,0.1,2.9,0.1c10.9,0,20.8-4.3,28-11.4c-0.6,2.3-0.9,4.8-0.9,7.3c0,5.6,1.6,10.8,4.4,15.2c-2,2.6-3.4,5.7-4,9
			c-7.1-5.1-15.8-8.2-25.3-8.2c-13.2,0-25.1,5.9-33,15.3c-6.5-13.2-19.6-22.5-35-23.9c-1.2-6-6.6-10.6-13-10.6
			c-7.3,0-13.3,5.9-13.3,13.3c0,1.1,0.1,2.1,0.4,3.1c-2.6,1.5-5,3.3-7.2,5.3c-4-4.1-9.6-6.7-15.8-6.7c-12.2,0-22.1,9.9-22.1,22.1
			c0,0.6,0,1.1,0.1,1.7c-0.7-0.3-1.5-0.4-2.3-0.4c-2.2,0-4.2,1-5.5,2.7c-4-4.6-10-7.6-16.6-7.6c-2.5,0-4.9,0.4-7.1,1.2
			c-9.1-17.8-27.6-30.1-49-30.1c-20.5,0-38.4,11.3-47.9,28c-4.4-3.3-9.8-5.2-15.7-5.2c-0.2,0-0.3,0-0.5,0
			c-2.9-18.1-18.6-31.9-37.5-31.9c-19.2,0-35,14.2-37.6,32.7c-18,5.3-31.1,21.9-31.1,41.6c0,17.1,9.9,31.8,24.2,38.9
			c-11,6.7-18.3,18.7-18.3,32.5c0,21,17,37.9,37.9,37.9c12.3,0,23.2-5.8,30.1-14.9c9.1,6.8,20.4,10.8,32.7,10.8
			c10.8,0,20.9-3.1,29.4-8.5c2.8,11.5,13.2,20,25.5,20c14.5,0,26.3-11.8,26.3-26.3c0,0,0,0,0-0.1c4.7-0.3,9-1.8,12.7-4.3
			c7.7,6.9,17.8,11,28.9,11c10.2,0,19.5-3.5,26.9-9.4c5.2,18.1,21.9,31.3,41.6,31.3c11.9,0,22.6-4.8,30.4-12.5
			c3.9,3.7,9.2,5.9,15.1,5.9c10.4,0,19.2-7.3,21.5-17c3.7,1,7.6,1.6,11.6,1.6c23.9,0,43.3-19.4,43.3-43.3c0,0,0-0.1,0-0.1
			c0,0,0,0,0,0c0,0,0,0.1,0,0.1c0,3.8,3.1,7,7,7c3.8,0,7-3.1,7-7c0-1.1-0.3-2.2-0.8-3.1c15.9-6.4,27.2-22,27.2-40.2
			c0-1.6-0.1-3.1-0.2-4.6c3.4,1.7,7.2,2.6,11.3,2.6c14.3,0,25.9-11.6,25.9-25.9c0-14.3-11.6-25.9-25.9-25.9c-4.6,0-9,1.2-12.7,3.4
			c-0.1-0.9-0.2-1.8-0.4-2.7c7.9-5.1,13.1-13.9,13.1-23.9c0-7.6-3-14.6-7.9-19.7c8.9-6.1,14.7-16.3,14.7-27.8c0-2.3-0.2-4.5-0.7-6.6
			c15.3-7.4,25.8-23.1,25.8-41.2c0-2.4-0.2-4.7-0.5-7C566.2,99.9,572.5,87.3,572.5,73.2z M213.3,341.4
			C213.3,341.4,213.3,341.4,213.3,341.4C213.3,341.4,213.3,341.4,213.3,341.4C213.3,341.4,213.3,341.4,213.3,341.4z"/>
		<circle class="st0" cx="275.7" cy="407.3" r="7"/>
		<circle class="st0" cx="464.5" cy="393.9" r="7"/>
	</g>
	<g>
		<circle class="st1" cx="190.6" cy="200.6" r="8.7"/>
		<circle class="st1" cx="472.5" cy="23" r="10.9"/>
		
			<ellipse transform="matrix(0.7071 -0.7071 0.7071 0.7071 19.3816 162.0027)" class="st1" cx="205.2" cy="57.6" rx="4.9" ry="4.9"/>
		<path class="st1" d="M575.1,70.4c0-25.3-20.5-45.8-45.8-45.8c-17.5,0-32.6,9.8-40.4,24.2c-3.2-1.7-6.9-2.7-10.9-2.7
			c-9.1,0-17,5.3-20.7,13c-6-2.9-12.7-4.5-19.7-4.5c-18.1,0-33.7,10.5-41.1,25.7c-5.3-3.1-11.4-4.9-17.9-4.9
			c-7.7,0-14.8,2.5-20.6,6.7c-0.2-19.3-15.9-34.8-35.2-34.8c-14.2,0-26.4,8.4-32,20.5c-9-5.2-19.5-8.3-30.7-8.3
			c-22.7,0-42.6,12.4-53.1,30.8c-3.3-1.4-6.8-2.5-10.4-3.1C189.9,67.3,171,53,148.8,53c-1,0-2.1,0-3.1,0.1
			c-7.1-19.3-25.7-33.1-47.4-33.1c-27.9,0-50.5,22.6-50.5,50.5c0,14,5.7,26.7,15,35.9c-6.3,6.5-10.2,15.4-10.2,25.1
			c0,1.6,0.1,3.2,0.3,4.7c-7.1,6.9-11.5,16.5-11.5,27.2c0,21,17,38,38,38c13.3,0,24.9-6.8,31.7-17.1c4.6,5.2,11.3,8.5,18.8,8.5
			c11.4,0,21-7.6,24.1-18c8.9,7.8,20.6,12.6,33.3,12.6c14.9,0,28.3-6.5,37.6-16.8c7.8,5.5,16.9,9.2,26.8,10.6c0,0.2,0,0.4,0,0.6
			c0,20,16.2,36.2,36.2,36.2s36.2-16.2,36.2-36.2c0-1.1-0.1-2.2-0.2-3.3c4.9,2.5,10.5,3.9,16.3,3.9c7.8,0,15.1-2.5,21-6.7
			c6.4,4.9,14.4,7.9,23.1,7.9c5.4,0,10.6-1.2,15.3-3.2c-2.1,3.8-3.4,8.1-3.4,12.8c0,14.4,11.7,26,26,26c7.1,0,13.5-2.8,18.2-7.4
			c1,0.1,1.9,0.1,2.9,0.1c11,0,21-4.5,28.3-11.7c-0.6,2.3-0.9,4.7-0.9,7.2c0,5.6,1.6,10.8,4.4,15.2c-2,2.6-3.4,5.7-4,9
			c-7.1-5.1-15.8-8.2-25.3-8.2c-13.2,0-25.1,5.9-33,15.3c-6.6-13.3-19.8-22.7-35.4-23.9c-1.4-5.8-6.6-10.2-12.9-10.2
			c-7.3,0-13.3,5.9-13.3,13.3c0,1,0.1,2,0.3,3c-2.4,1.5-4.7,3.2-6.8,5.1c-4-4.1-9.6-6.7-15.8-6.7c-12.2,0-22.1,9.9-22.1,22.1
			c0,0.6,0,1.1,0.1,1.7c-0.7-0.3-1.5-0.4-2.3-0.4c-2.2,0-4.2,1-5.5,2.7c-4-4.6-10-7.6-16.6-7.6c-2.5,0-4.9,0.4-7.1,1.2
			c-9.1-17.8-27.6-30.1-49-30.1c-20.5,0-38.4,11.3-47.9,28c-4.4-3.3-9.8-5.2-15.7-5.2c-0.2,0-0.3,0-0.5,0
			c-2.9-18.1-18.6-31.9-37.5-31.9c-19.2,0-35,14.2-37.6,32.7c-18,5.3-31.1,21.9-31.1,41.6c0,17.1,9.9,31.8,24.2,38.9
			c-11,6.7-18.3,18.7-18.3,32.5c0,21,17,37.9,37.9,37.9c12.3,0,23.2-5.8,30.1-14.9c9.1,6.8,20.4,10.8,32.7,10.8
			c10.8,0,20.9-3.1,29.4-8.5c2.8,11.5,13.2,20,25.5,20c14.5,0,26.3-11.8,26.3-26.3c0,0,0,0,0-0.1c4.7-0.3,9-1.8,12.7-4.3
			c7.7,6.9,17.8,11,28.9,11c10.2,0,19.5-3.5,26.9-9.4c5.2,18.1,21.9,31.3,41.6,31.3c11.9,0,22.6-4.8,30.4-12.5
			c3.9,3.7,9.2,5.9,15.1,5.9c10.4,0,19.2-7.3,21.5-17c3.7,1,7.6,1.6,11.6,1.6c23.9,0,43.3-19.4,43.3-43.3c0,0,0-0.1,0-0.1
			c0,0,0,0,0,0c0,0,0,0.1,0,0.1c0,3.8,3.1,7,7,7c3.8,0,7-3.1,7-7c0-1.1-0.3-2.2-0.8-3.1c15.9-6.4,27.2-22,27.2-40.2
			c0-1.6-0.1-3.1-0.2-4.6c3.4,1.7,7.2,2.6,11.3,2.6c14.3,0,25.9-11.6,25.9-25.9c0-14.3-11.6-25.9-25.9-25.9c-4.6,0-9,1.2-12.7,3.4
			c-0.1-0.9-0.2-1.8-0.4-2.7c7.9-5.1,13.1-13.9,13.1-23.9c0-7.6-3-14.5-7.8-19.6c8.6-6.1,14.3-16.2,14.3-27.5c0-2.3-0.2-4.5-0.7-6.6
			c15.3-7.4,25.8-23.1,25.8-41.2c0-2.4-0.2-4.7-0.5-7C568.7,97.1,575.1,84.5,575.1,70.4z M216.1,338.1
			C216.1,338.2,216.1,338.2,216.1,338.1C216.1,338.2,216.1,338.2,216.1,338.1C216.1,338.2,216.1,338.2,216.1,338.1z"/>
		<circle class="st1" cx="278.6" cy="404.1" r="7"/>
		<circle class="st1" cx="467.4" cy="390.7" r="7"/>
	</g>
	<g>
		<path class="st2" d="M82.3,173.4c1.8-0.2,3.4-0.7,4.9-1.5c1.5-0.7,2.8-1.5,3.8-2.4c1.1-0.9,1.9-1.8,2.6-2.6c0.9-1,1.6-1.8,2.1-2.6
			c2.7,2.3,5.7,4.3,8.8,5.9c2.7,1.5,5.9,2.8,9.5,3.9c3.6,1.1,7.5,1.5,11.7,1.2c4.3-0.3,7.8-1,10.5-2.2c2.7-1.2,4.7-2.4,6.1-3.8
			c1.3-1.3,1.9-2.5,1.8-3.4c-0.1-1-0.8-1.3-2.1-1.1c-5.3,0.9-9.7,1.1-13.3,0.6c-3.6-0.5-6.8-1.4-9.7-2.7c-2.9-1.3-5.6-2.9-8.1-4.8
			c-2.5-1.9-5.4-3.8-8.4-5.6c0.5-1.3,0.9-3,1.1-5c0.2-2,0.3-4.2,0.3-6.6c0-2.4,0.1-4.9,0.1-7.5c0-2.6,0.1-5.1,0.3-7.6
			c0-0.4,0.8-1.4,2.4-2.9c1.6-1.5,3.3-3.6,5.3-6.4c1.9-2.8,3.7-6.2,5.4-10.2c1.7-4,2.6-8.8,2.8-14.3c0.1-4.1-0.7-7.9-2.4-11.3
			c-1.7-3.4-3.8-6.2-6.3-8.2c-2.5-2.1-5.2-3.3-8.1-3.7c-2.9-0.4-5.4,0.4-7.6,2.3c-1.2,1-2.2,2.9-3,5.7c-0.7,2.8-1.4,6.1-1.8,9.7
			c-0.5,3.7-0.8,7.6-1.1,11.6c-0.2,4.1-0.4,7.8-0.5,11.3c-0.1,3.4-0.2,6.3-0.3,8.5c0,2.2-0.1,3.4-0.2,3.5c-1.6,1.9-3.2,3.6-5,4.9
			c-1.8,1.3-3.3,2.5-4.7,3.4c-1.4,1-2.5,1.8-3.4,2.6c-0.9,0.8-1.2,1.6-1.1,2.4c0.1,0.9,0.7,1.4,1.9,1.5c1.2,0.1,2.5,0.1,4.1-0.2
			c1.5-0.3,3.1-0.7,4.7-1.3c1.6-0.6,3-1.2,4.1-1.8c0.3,1.9,0.4,3.9,0.4,5.9c0,2-0.1,3.8-0.3,5.3c-0.2,1.6-0.4,2.9-0.7,3.8
			c-0.3,1-0.5,1.4-0.7,1.3c-3.1-1.3-6.1-1.8-8.9-1.3c-2.9,0.4-5.4,1.5-7.4,3.2c-2,1.7-3.4,3.8-4.3,6.3c-0.8,2.5-0.7,5.3,0.5,8.2
			c1.1,2.3,2.5,4,4,5.3c1.5,1.2,3.2,2.1,4.9,2.5C78.8,173.5,80.5,173.6,82.3,173.4z M104.1,93.9c0.1-1.8,0.2-3.6,0.4-5.4
			c0.2-1.8,0.4-3.3,0.6-4.6c0.2-1.3,0.4-2.3,0.7-3c0.2-0.7,0.5-0.9,0.7-0.7c3.1,3.7,4.6,7.2,4.7,10.7c0.1,3.4-0.5,6.5-1.7,9.2
			c-1.4,3.2-3.5,6.2-6.3,9.1C103.5,103.4,103.8,98.3,104.1,93.9z M75.2,161.2c-0.6-1.8-0.5-3.1,0.3-3.8c0.8-0.7,1.8-1,3.2-1
			c1.3,0,2.7,0.3,4.2,0.9c1.5,0.5,2.7,1.1,3.7,1.8c-1.2,2.1-2.4,3.6-3.6,4.6c-1.1,1-2.2,1.4-3.3,1.4c-1.1,0-2-0.4-2.8-1.1
			C76.1,163.4,75.5,162.4,75.2,161.2z"/>
		<path class="st2" d="M132.5,91.3c0.8,0.7,1.8,1.1,2.8,1.2c3.8,0.4,6.6-0.2,8.5-1.6c1.9-1.4,3-3.2,3.4-5.2c0.3-1.7-0.3-3.1-1.6-4.4
			c-0.1-0.1-0.1-0.1-0.2-0.2c-0.3-1.1-1.4-1.5-1.4-1.5V80c-1-0.7-2.1-1.2-3.3-1.5c-1.9-0.5-3.8-0.6-5.8-0.1c-2,0.4-3.4,1.6-4.4,3.6
			c-0.6,1.1-0.9,2.2-0.9,3.4c0,1.2,0.3,2.3,0.9,3.4C131,89.7,131.7,90.6,132.5,91.3z"/>
		<path class="st2" d="M126.6,152.9c0.9,2.7,2.2,4.9,3.9,6.5c1.7,1.6,3.8,2.9,6.4,3.8c2.6,1,5.3,1.4,7.9,1.2
			c2.6-0.2,5.1-0.8,7.4-1.9c2.3-1.1,4.4-2.6,6.3-4.5c0.9-1,1.8-2,2.6-3.1c0.8,2.1,1.6,3.6,2.5,4.3c1.8,1.3,3.7,2.1,5.5,2.3
			c1.8,0.2,3.5,0.1,4.9-0.5c1.4-0.5,2.5-1.3,3.4-2.4c0.9-1.1,1.3-2.2,1.3-3.6c0-1.3,0-3.5-0.1-6.6c-0.1-3.1,0-6.4,0.3-10
			c0.3-3.6,0.8-7.1,1.6-10.6c0.8-3.5,2.1-6.2,3.9-8.2c3.7-4.2,6.7-6.7,9-7.6c2.3-0.8,4-0.2,4.9,1.9c0.3,0.8,0.5,2.1,0.7,4
			c0.2,1.9,0.4,4.1,0.7,6.8c0.2,2.6,0.5,5.4,0.9,8.4c0.4,3,0.9,5.9,1.6,8.9c0.7,2.9,1.5,5.7,2.5,8.3c1,2.6,2.3,4.7,3.9,6.4
			c2.4,2.5,4.5,4.1,6.4,4.5c1.9,0.5,3.7,0.3,5.2-0.6c1.5-0.9,2.9-2.2,4.2-3.9c1.3-1.8,2.4-3.6,3.5-5.5c1.1-1.9,2.1-4.2,3.2-6.9
			c1.1-2.7,2.1-5.1,3-7.2c1-2.1,1.8-3.7,2.6-4.7c0.8-1,1.4-0.7,2,0.9c0.3,1.1,0.9,2.6,1.5,4.6c0.7,2,1.5,4.3,2.5,6.8
			c1,2.5,2.2,5,3.7,7.6c1.4,2.6,3.1,4.9,4.9,7c1.8,2.1,3.9,3.9,6.2,5.3c2.3,1.4,4.8,2.1,7.6,2.1c2.9,0,5.2-0.5,6.9-1.5
			c0.2-0.1,0.5-0.3,0.7-0.4c0,0.4,0,0.8,0,1.2c0.1,5.4,0.2,10.3,0.4,14.7c0.2,4.3,0.4,7.9,0.7,10.8c0.3,2.9,0.6,4.5,0.9,4.8
			c1,1.1,2.2,2,3.6,3c1.4,0.9,2.9,1.5,4.3,1.8c1.4,0.3,2.6,0.1,3.7-0.4c1.1-0.5,1.7-1.7,2-3.6c0.2-1.2,0.3-3.5,0.3-6.7
			c0-3.2,0-7-0.1-11.3c0-4.3-0.1-8.9-0.1-13.8c0-4.9,0.1-9.7,0.3-14.3c0.2-4.6,0.6-8.8,1.1-12.7c0.5-3.9,1.3-6.8,2.2-8.9
			c2.1-4.7,4.7-7.9,7.7-9.3c3-1.5,6.1-1,9.1,1.6c1.8,1.5,3,3.2,3.4,5.3c0.4,2,0.4,4-0.1,6c-0.5,2-1.5,3.8-2.8,5.5
			c-1.4,1.7-2.9,3-4.5,3.9c-1.8,1-3.4,1.7-4.8,2.3c-1.4,0.6-2.5,1.1-3.4,1.6c-0.9,0.5-1.6,1-2.2,1.4c-0.5,0.5-0.9,1.1-1.1,1.8
			c-0.4,1.4,0.3,2.2,1.9,2.5c1.6,0.3,4.8-0.1,9.4-1.1c2.6-0.5,5.2-1.3,7.6-2.4c2.4-1.1,4.6-2.5,6.5-4.3c1.9-1.8,3.5-4,4.6-6.6
			c1.1-2.6,1.8-5.6,2-9c0.2-3.2-0.2-6.1-1.1-8.7c-0.9-2.5-2.2-4.7-3.8-6.4c-1.6-1.7-3.4-3-5.6-3.9c-2.2-0.9-4.3-1.5-6.5-1.6
			c-3.1-0.3-5.8,0.2-8.1,1.3c-2.3,1.1-4.3,2.5-5.9,4c-1.6,1.5-2.9,3-3.9,4.5c-1,1.4-1.6,2.4-2,3c-0.4,0.5-0.7,0.3-0.9-0.7
			c-0.2-1-0.3-2.2-0.5-3.8c-0.1-1.5-0.3-3.1-0.6-4.7c-0.3-1.6-0.7-2.8-1.2-3.6c-0.4-0.7-1.1-1.5-2-2.5c-0.9-1-1.9-1.8-3-2.5
			c-1.1-0.7-2.1-1.1-3.2-1.3c-1.1-0.1-2,0.2-2.8,1.1c-0.3,0.4-0.5,1.9-0.7,4.7c-0.2,2.8-0.4,6.4-0.6,10.7c-0.2,4.3-0.3,9.2-0.4,14.7
			c-0.1,5.4-0.1,11-0.1,16.6c0,3,0,5.9,0,8.8c-0.2,0-0.4,0.1-0.7,0.1c-2.1,0.4-3.8,0.5-5.2,0.1c-1.4-0.3-2.5-1.2-3.3-2.5
			c-0.8-1.3-1.5-3.1-2-5.4c-0.5-2.3-0.9-5.1-1.1-8.6c-0.3-3.3-0.8-6.5-1.6-9.5c-0.8-3-1.8-5.8-3-8.3c-1.2-2.5-2.5-4.7-4.1-6.4
			c-1.5-1.8-3.1-3.2-4.8-4.1c-2.5-1.3-4.8-1.5-7.1-0.5c-2.3,1-4.4,2.5-6.3,4.7c-1.9,2.2-3.6,4.6-5,7.4c-1.4,2.8-2.5,5.2-3.2,7.4
			c-1.4,4.1-2.3,5.8-2.8,5.1c-0.4-0.7-1.1-3.4-1.8-8.1c-0.5-2.3-1-4.7-1.4-7.2c-0.4-2.5-1.1-4.9-2-7.1c-0.9-2.2-2.2-4.3-3.9-6.1
			c-1.7-1.8-4.1-3.3-7-4.3c-3.1-1.1-5.8-1.7-8.2-1.6c-2.4,0.1-4.5,0.6-6.5,1.5c-2,0.9-3.8,2.1-5.3,3.6c-1.6,1.5-3.1,3.1-4.5,4.7
			c-2.9,3.5-4.9,6.2-5.9,8c-0.8,1.1-1.4,2.2-1.8,3c-0.3-3.9-0.9-7.3-1.8-10.3c-0.4-1.3-1-2.6-1.7-3.8c-0.7-1.2-1.5-2.3-2.5-3.2
			c-1-0.9-2.1-1.7-3.4-2.2c-1.3-0.6-2.8-0.8-4.5-0.7c-0.9,0.2-1.6,1.5-2,4.1c-0.5,2.5-0.8,5.7-0.9,9.5c-0.1,3.8-0.1,8,0.1,12.5
			c0.2,4.5,0.6,8.8,1.1,12.8c0.2,1.9,0.5,3.6,0.9,5.3c-1.5,2-3.1,3.4-4.8,4.4c-1.8,1.1-4,1.1-6.6,0.3c-1.2-0.4-2.3-1.4-3.1-3
			c-0.8-1.5-1.5-3.4-2-5.6c-0.5-2.2-0.8-4.6-1-7.2c-0.2-2.6-0.2-5.2-0.2-7.8c0-2.6,0.2-5,0.5-7.2c0.3-2.2,0.6-4.1,0.9-5.6
			c0.8-2.7,0.8-4.6,0.1-5.7c-0.7-1.1-1.7-1.7-3.1-1.8c-1.4-0.1-2.8,0-4.3,0.5c-1.5,0.5-2.8,0.9-3.8,1.4c-1,0.5-1.8,1.4-2.6,2.6
			c-0.8,1.2-1.5,2.6-2.2,4.3c-0.7,1.7-1.2,3.5-1.6,5.4c-0.4,1.9-0.8,3.9-1.1,6.1c-0.2,5.4-0.1,10.1,0.2,14
			C125,146.9,125.6,150.2,126.6,152.9z"/>
		<path class="st2" d="M336.4,91.3c0.8,0.7,1.8,1.1,2.8,1.2c3.8,0.4,6.6-0.2,8.5-1.6c1.9-1.4,3-3.2,3.4-5.2c0.3-1.7-0.3-3.1-1.6-4.4
			c-1.4-1.3-3-2.2-4.9-2.7c-1.9-0.5-3.8-0.6-5.8-0.1c-2,0.4-3.4,1.6-4.4,3.6c-0.6,1.1-0.9,2.2-0.9,3.4c0,1.2,0.3,2.3,0.9,3.4
			C334.9,89.7,335.5,90.6,336.4,91.3z"/>
		<path class="st2" d="M330.4,152.9c0.9,2.7,2.2,4.9,3.9,6.5c1.7,1.6,3.8,2.9,6.4,3.8c2.6,1,5.3,1.4,7.9,1.2
			c2.6-0.2,5.1-0.8,7.4-1.9c2.3-1.1,4.4-2.6,6.3-4.5c0.8-0.8,1.5-1.7,2.2-2.7c0.8,1.1,1.7,2.2,2.7,3.2c2.3,2.3,5.1,3.9,8.6,5
			c4.2,1.3,8,1.6,11.5,1s6.4-1.9,9.1-3.6c2.6-1.8,4.8-3.9,6.5-6.4c1.7-2.5,3-4.9,3.9-7.3c0.9-2.4,1.3-4.4,1.2-6.2
			c0-1.8-0.5-2.9-1.5-3.3c-0.8-0.3-1.6,0.2-2.4,1.5c-0.8,1.4-1.9,3-3.2,4.8c-1.3,1.8-3,3.7-4.9,5.5c-2,1.8-4.5,3-7.7,3.5
			c-1.5,0.3-2.8,0.2-3.9-0.1c-1.1-0.3-2.1-0.8-2.9-1.5c-0.8-0.7-1.4-1.5-1.9-2.4c-0.5-0.9-0.9-1.9-1.2-3c-0.8-2.4-1.1-5.2-1.1-8.6
			c2.5,0.1,5-0.3,7.5-1.2c2.2-0.7,4.6-1.9,7.2-3.6c2.6-1.7,5-4.2,7.3-7.5c2.1-3.1,3.4-6.1,3.9-9.1c0.5-3,0.3-5.7-0.5-8.1
			c-0.8-2.4-2.1-4.4-4-5.9c-1.9-1.5-4.1-2.4-6.8-2.6c-2.5,0-5.2,0.3-7.8,0.8c-2.7,0.5-5.2,1.3-7.6,2.4c-2.4,1.1-4.6,2.5-6.6,4.3
			c-2,1.8-3.6,3.8-4.9,6.2c-1.5,2.2-2.7,4.8-3.8,7.9c-1,3.1-1.7,6.3-2,9.7c-0.3,3.4-0.2,6.8,0.2,10.2c0.4,3.1,1.2,6.1,2.3,8.9
			c-1,1.1-2.1,1.9-3.3,2.6c-1.8,1.1-4,1.1-6.6,0.3c-1.2-0.4-2.3-1.4-3.1-3c-0.8-1.5-1.5-3.4-2-5.6c-0.5-2.2-0.8-4.6-1-7.2
			c-0.2-2.6-0.2-5.2-0.2-7.8c0-2.6,0.2-5,0.5-7.2c0.3-2.2,0.6-4.1,0.9-5.6c0.8-2.7,0.8-4.6,0.1-5.7c-0.7-1.1-1.7-1.7-3.1-1.8
			c-1.4-0.1-2.8,0-4.3,0.5c-1.5,0.5-2.8,0.9-3.8,1.4c-1,0.5-1.8,1.4-2.6,2.6c-0.8,1.2-1.5,2.6-2.2,4.3c-0.7,1.7-1.2,3.5-1.6,5.4
			c-0.4,1.9-0.8,3.9-1.1,6.1c-0.2,5.4-0.1,10.1,0.2,14C328.9,146.9,329.5,150.2,330.4,152.9z M377,124.9c0.2-0.9,0.5-2,1.1-3.4
			c0.5-1.4,1.4-2.9,2.6-4.7c1.6-2.3,3.1-3.9,4.6-5c1.5-1.1,2.9-1.8,4.1-2.1c1.4-0.3,2.7-0.3,3.9,0c0.4,1,0.6,2,0.5,3.2
			c-0.1,1-0.4,2.2-1,3.6c-0.6,1.4-1.6,2.9-3.2,4.3c-1.7,1.6-3.2,2.8-4.7,3.7c-1.4,0.9-2.8,1.5-4,2c-1.4,0.5-2.7,0.9-3.8,1.1
			C376.8,126.8,376.8,125.9,377,124.9z"/>
		<path class="st2" d="M527.7,139.2c-0.5-0.3-1.2,0.2-2.1,1.5c-0.9,1.3-1.9,2.7-3.2,4.3c-1.2,1.6-2.6,3-4.1,4.3
			c-1.5,1.3-3.3,1.7-5.2,1.4c-2.8-0.6-4.7-2.7-5.7-6.4c-1-3.6-1.3-9-1.1-16.1c0.2-3.5-0.1-6-0.9-7.4c-0.7-1.4-1.7-2.3-3-2.6
			c-1.2-0.3-2.5-0.2-3.9,0.1c-1.4,0.4-2.5,0.6-3.5,0.7c-1,0.1-1.6,0.7-2,2c-0.4,1.2-0.7,2.7-0.8,4.3c-0.1,1.7-0.2,3.4-0.1,5.1
			c0.1,1.7,0.1,3.1,0.1,4c0,1-0.4,2.3-1.2,4.1c-0.8,1.8-1.8,3.6-3,5.3c-1.2,1.7-2.6,3.2-4.1,4.5c-1.5,1.3-3,2-4.4,2
			c-1.1,0-2.1-1.2-2.8-3.5c-0.7-2.3-1.1-5.1-1.2-8.3c0-3.2,0.3-6.6,1-10.1c0.7-3.5,1.9-6.5,3.7-9.1c1.1-1.6,2.5-2.9,4.2-3.8
			c1.7-1,3.3-1.8,4.9-2.6c1.6-0.8,3-1.6,4.2-2.3c1.2-0.7,2-1.7,2.2-2.8c0.2-0.7-0.4-1.3-1.6-1.6c-1.3-0.4-2.9-0.5-5-0.5
			c-2.1,0.1-4.4,0.5-7,1.1c-2.6,0.7-5.2,1.7-7.8,3.2c-2.6,1.4-5,3.3-7.3,5.6c-2.3,2.3-4.1,5-5.5,8.3c-1.9,4.5-2.9,8.8-3,12.9
			c-0.7,0.1-1.5,0.3-2.4,0.7c-1.6,0.7-3.6,1.8-5.9,3.5c-2.3,1.7-4.9,4-7.8,7c-1.3-1.8-2.5-3.1-3.7-3.9c-1.1-0.9-2.2-1.5-3-2
			c-1-0.4-1.8-0.7-2.6-0.7c2.3-1.1,4.4-2.4,6.4-3.9c1.8-1.3,3.4-3,5-5.1c1.6-2.1,2.6-4.5,3.2-7.3c1.1-5.8,0.5-10.7-1.8-14.7
			c-2.4-4-6.4-6.8-12.1-8.2c-3-0.7-5.7-0.8-8-0.4c-2.4,0.4-4.4,1.2-6.2,2.4c-1.8,1.1-3.2,2.5-4.3,4.1c-1.1,1.6-1.9,3.1-2.4,4.7
			c-0.5,1.5-0.6,2.9-0.4,4.2c0.2,1.3,0.8,2.2,1.6,2.7c1.7,1,3,1.1,4.1,0.5c1.1-0.7,2.2-1.4,3.2-2.4c1.1-0.9,2.2-1.7,3.4-2.3
			c1.2-0.6,2.8-0.4,4.7,0.5c1.7,0.9,2.8,2,3.5,3.3c0.7,1.3,0.9,2.7,0.7,4.1c-0.2,1.4-0.7,2.9-1.4,4.3c-0.8,1.4-1.8,2.7-2.9,3.8
			c-1.1,1.1-2.4,2.2-3.9,3.3c-1.4,1.1-2.8,2.1-4,3.1c-1.2,1-2.2,2-3,3c-0.8,1-1.1,1.9-0.8,2.8c0.3,1.3,0.9,2.2,1.9,2.5
			c1,0.4,2.2,0.8,3.6,1.3c1.4,0.5,2.9,1.4,4.6,2.6c1.7,1.2,3.3,3.4,4.9,6.6c-2.9,3.3-5.3,6.1-7.3,8.4c-2,2.3-3.6,4.5-5,6.6
			c-1.4,2.1-2.5,4.3-3.3,6.6c-0.8,2.3-1.6,5.1-2.3,8.6c-0.9,4.1-1.3,7.6-1.1,10.4c0.1,2.8,0.6,5.1,1.4,7c0.8,1.8,2,3.2,3.4,4.2
			c1.4,1,3,1.7,4.8,2.2c2.1,0.4,4.6,0.2,7.4-0.7c2.9-0.9,5.6-2.5,8.3-4.6c2.7-2.2,5.1-4.9,7.2-8.2c2.1-3.3,3.5-7.2,4.2-11.6
			c0.9-5.3,1.2-9.8,0.9-13.6c-0.3-3.8-0.7-7-1.4-9.5c-0.8-2.9-1.8-5.4-3.2-7.5c0.4-0.6,1-1.4,1.7-2.2c1.2-1.6,3.2-3.5,5.8-5.7
			c1.1-0.9,2.1-1.7,3.2-2.6c0.5-0.4,1-0.8,1.4-1.1c0.4,2.4,1.1,4.7,2.1,6.7c1.6,3.4,3.8,6.1,6.5,8.2c2.7,2,5.6,3,8.7,2.9
			c3.1-0.2,5.7-0.9,7.8-2c2.1-1.2,3.8-2.5,5.1-3.9c1.6-1.6,2.8-3.4,3.7-5.5c1.1,3.2,2.5,6,4.2,8.2c0.8,1,1.7,1.8,2.6,2.6
			c1,0.8,2.1,1.4,3.4,1.8c1.3,0.4,2.7,0.7,4.3,0.7c1.6,0,3.3-0.3,5.1-1.1c3.5-1.3,6.4-3.2,8.6-5.6c2.2-2.4,3.9-4.8,5.1-7.2
			c1.1-2.4,1.8-4.6,2-6.5C528.5,140.6,528.3,139.5,527.7,139.2z M437.4,179.9c-0.4,2.9-1.3,6.5-2.8,10.9c-1.2,3.3-2.5,6-3.9,8.1
			c-1.4,2.1-2.7,3.4-3.9,3.9c-1.2,0.6-2.3,0.3-3.1-0.9c-0.8-1.2-1.3-3.4-1.4-6.6c-0.1-3.2,0.6-6.5,2-9.7c1.4-3.2,3-6.1,4.8-8.8
			c2-3,4.3-5.9,6.8-8.8c0.9,1.1,1.4,2.8,1.7,4.9C437.8,174.7,437.7,177,437.4,179.9z"/>
		<path class="st2" d="M136.5,272.3c2.1-1.2,3.2-2.7,3.2-4.4c0-1.6-1.1-2.7-3.3-3.3c-2.2-0.6-4.7-1-7.5-1.1c-3.2-0.1-6.8,0-10.9,0.4
			c-0.1-2.4-0.2-5-0.4-7.8c-0.1-2.3-0.2-4.9-0.4-7.8c-0.1-2.9-0.2-5.8-0.4-8.5c-0.1-2.7-1.2-5.1-3.3-7.4c-2.1-2.2-4.3-4-6.7-5.2
			c-2.4-1.2-4.7-1.7-6.9-1.5c-2.2,0.2-3.5,1.5-3.8,3.6c-0.4,1.5-0.6,2.8-0.7,4.1c-0.1,1.3-0.2,2.9-0.2,4.9c0,2,0.1,4.5,0.2,7.5
			c0.1,3,0.2,7,0.2,11.8c0,0.6,0,1.4-0.1,2.3c-0.1,0.9-0.1,1.8-0.1,2.6v2.9c-3.8,0.8-7,1.8-9.8,2.9c-2.4,1-4.6,2.1-6.5,3.5
			c-1.9,1.3-2.6,2.8-2.3,4.5c0.5,2.2,1.8,3.7,3.8,4.5c2.1,0.8,4.3,1.2,6.7,1.2c2.8,0,5.8-0.4,9.1-1.1c0,13.8,0.2,26.3,0.5,37.4
			c0.1,4.7,0.3,9.4,0.5,13.9c0.2,4.5,0.5,8.6,0.9,12.3c0.4,3.6,0.8,6.6,1.5,8.9c0.6,2.3,1.3,3.6,2,3.8c1.5,0.6,3,1.1,4.7,1.5
			c1.7,0.4,3.3,0.3,4.9-0.5c1.6-0.7,3-2.4,4.3-4.9c1.3-2.5,2.2-6.5,2.8-12c0.5-5.5,0.8-11.8,0.8-19.1c0.1-7.3,0-14.2-0.1-20.9
			c-0.2-7.6-0.5-15.5-0.7-23.6c3.9-0.7,7.4-1.6,10.5-2.5C132,274.5,134.3,273.5,136.5,272.3z"/>
		<path class="st2" d="M192,298.9c-3-4.9-7.3-9.1-12.9-12.4c-1.3-0.7-2.2-1-2.6-0.7c-0.4,0.2-1.2,0.7-2.3,1.4
			c-1.1,0.7-2.8,1.4-5.3,2.2c-2.4,0.8-6.3,1.4-11.6,1.7c-5.8,0.4-10.7,2.4-14.5,6c-3.9,3.6-6.7,8-8.4,13.2
			c-1.7,5.2-2.3,10.7-1.9,16.5c0.4,5.9,1.9,11.3,4.5,16.3c2.5,5,6.2,9.1,11,12.3c4.8,3.2,10.7,4.8,17.7,4.6
			c5.6-0.1,10.5-1.6,14.9-4.4c4.4-2.8,8-6.3,10.8-10.6c2.8-4.3,4.9-9.1,6.1-14.4c1.2-5.3,1.4-10.7,0.5-16.1
			C197,309,195,303.8,192,298.9z M177.4,320.6c-0.2,3.4-0.7,6.9-1.5,10.4c-0.8,3.6-1.8,6.8-3.1,9.8c-1.3,3-2.7,5.5-4.3,7.5
			c-1.6,2-3.2,3.1-4.9,3.4c-1.7,0.2-3.2-0.7-4.4-2.9c-1.2-2.2-2.2-5-2.8-8.4c-0.7-3.4-1.1-7.1-1.4-11.3c-0.2-4.1-0.3-8.1-0.1-11.8
			c0.2-3.8,0.5-7,1-9.8c0.5-2.8,1.1-4.5,1.8-5.3c2.4-2.3,4.8-3.3,7.2-3c2.4,0.3,5.2,2.2,8.6,5.7c1.5,1.5,2.5,3.6,3.1,6.4
			C177.3,314.1,177.5,317.2,177.4,320.6z"/>
		<path class="st2" d="M252.8,272.3c2.1-1.2,3.2-2.7,3.2-4.4c0-1.6-1.1-2.7-3.3-3.3c-2.2-0.6-4.7-1-7.5-1.1c-3.2-0.1-6.8,0-10.9,0.4
			c-0.1-2.4-0.2-5-0.4-7.8c-0.1-2.3-0.2-4.9-0.4-7.8c-0.1-2.9-0.2-5.8-0.4-8.5c-0.1-2.7-1.2-5.1-3.3-7.4c-2.1-2.2-4.3-4-6.7-5.2
			c-2.4-1.2-4.7-1.7-6.9-1.5c-2.2,0.2-3.5,1.5-3.8,3.6c-0.4,1.5-0.6,2.8-0.7,4.1c-0.1,1.3-0.2,2.9-0.2,4.9c0,2,0.1,4.5,0.2,7.5
			c0.1,3,0.2,7,0.2,11.8c0,0.6,0,1.4-0.1,2.3c-0.1,0.9-0.1,1.8-0.1,2.6v2.9c-3.8,0.8-7,1.8-9.8,2.9c-2.4,1-4.6,2.1-6.5,3.5
			c-1.9,1.3-2.6,2.8-2.3,4.5c0.5,2.2,1.8,3.7,3.8,4.5c2.1,0.8,4.3,1.2,6.7,1.2c2.8,0,5.8-0.4,9.1-1.1c0,13.8,0.2,26.3,0.5,37.4
			c0.1,4.7,0.3,9.4,0.5,13.9c0.2,4.5,0.5,8.6,0.9,12.3c0.4,3.6,0.8,6.6,1.5,8.9c0.6,2.3,1.3,3.6,2,3.8c1.5,0.6,3,1.1,4.7,1.5
			c1.7,0.4,3.3,0.3,4.9-0.5c1.6-0.7,3-2.4,4.3-4.9c1.3-2.5,2.2-6.5,2.8-12c0.5-5.5,0.8-11.8,0.8-19.1c0.1-7.3,0-14.2-0.1-20.9
			c-0.2-7.6-0.5-15.5-0.7-23.6c3.9-0.7,7.4-1.6,10.5-2.5C248.3,274.5,250.7,273.5,252.8,272.3z"/>
		<path class="st2" d="M412.1,329.3c-0.8-0.4-1.7-0.2-2.6,0.6c-1,0.8-1.9,2.7-2.9,5.5c-1,2.7-2.8,5.3-5.5,7.9
			c-2.7,2.6-5.8,4.4-9.4,5.5c-3.6,1-7.3,0.9-11.1-0.4c-3.8-1.3-7.3-4.5-10.4-9.5c-1.6-2.4-2.7-4.5-3.5-6.3c-0.7-1.8-1.2-3.2-1.5-4.5
			c-0.4-1.3-0.5-2.4-0.5-3.3c5.6-6.3,10.7-13.3,15.3-21.1c1.9-3.3,3.9-6.9,5.8-10.9c1.9-4,3.7-8.2,5.4-12.7
			c1.6-4.5,3.1-9.2,4.3-14.2c1.2-5,2.1-10.2,2.5-15.6c0.8-6.3,0.4-11.3-1.3-15c-1.7-3.7-3.8-6.5-6.2-8.3c-2.9-2.2-6.4-3.6-10.4-4.2
			c-5.5-0.6-10.2,0.2-14.3,2.5c-4.1,2.3-7.6,5.5-10.5,9.4c-3,4-5.5,8.6-7.4,13.8c-2,5.2-3.6,10.5-4.8,15.8c-1.1,5.1-2,11.1-2.8,17.9
			c-0.8,6.8-1.1,14-0.9,21.4c0.2,7.4,0.9,14.7,2.3,21.9c0.4,1.9,0.8,3.8,1.3,5.6c-0.8,1.1-1.7,2.3-2.7,3.6c-1.7,2.2-3.6,4.2-5.7,5.9
			c-2.1,1.8-4.5,2.4-7.2,1.9c-3.9-0.8-6.5-3.8-7.8-8.8c-1.3-5-1.8-12.4-1.5-22.3c0.2-4.8-0.2-8.3-1.2-10.3c-1-2-2.4-3.2-4.1-3.5
			c-1.7-0.4-3.5-0.3-5.4,0.2c-1.9,0.5-3.5,0.8-4.8,0.9c-1.3,0.1-2.3,1-2.8,2.7c-0.5,1.7-0.9,3.7-1.1,6c-0.2,2.3-0.2,4.6-0.1,7
			c0.1,2.4,0.2,4.2,0.2,5.5c0,1.3-0.5,3.2-1.6,5.7c-1.1,2.5-2.5,4.9-4.2,7.3c-1.7,2.4-3.6,4.5-5.7,6.3c-2.1,1.8-4.2,2.7-6.1,2.7
			c-1.6,0-2.9-1.6-3.9-4.8c-1-3.2-1.6-7-1.6-11.4c-0.1-4.4,0.4-9.1,1.4-13.9c1-4.8,2.7-9,5.1-12.5c1.6-2.2,3.5-3.9,5.8-5.3
			c2.3-1.3,4.5-2.5,6.7-3.6c2.2-1.1,4.1-2.1,5.8-3.2c1.7-1,2.7-2.3,3.1-3.9c0.2-1-0.5-1.7-2.3-2.3c-1.8-0.5-4.1-0.8-6.9-0.6
			c-2.8,0.1-6.1,0.6-9.6,1.5c-3.6,0.9-7.2,2.4-10.7,4.4c-3.6,2-6.9,4.6-10.1,7.7c-3.2,3.2-5.7,7-7.6,11.4
			c-2.9,6.9-4.3,13.5-4.1,19.7c0.2,6.2,1.4,11.7,3.6,16.4c2.2,4.7,5.2,8.5,9,11.3c3.8,2.8,7.8,4.1,12,4c4.2-0.2,7.8-1.2,10.7-2.8
			c2.9-1.6,5.3-3.4,7.1-5.4c2.2-2.2,3.9-4.7,5.1-7.6c1.5,4.5,3.4,8.2,5.8,11.3c1.1,1.3,2.3,2.5,3.6,3.6c1.3,1.1,2.9,1.9,4.6,2.5
			c1.8,0.6,3.7,0.9,5.9,0.9c2.2,0,4.5-0.5,7.1-1.5c4.8-1.8,8.8-4.4,11.9-7.7c3.1-3.3,5.4-6.7,7-10c0.1-0.2,0.2-0.3,0.2-0.5
			c0.8,1.8,1.6,3.5,2.5,5.1c3.1,5.7,7.3,10.4,12.4,14c5.1,3.6,11.6,5.5,19.4,5.6c3,0.1,5.8-0.2,8.4-1c2.6-0.8,5-1.8,7.2-3.2
			c2.2-1.3,4.2-2.8,6-4.5c1.8-1.7,3.4-3.5,4.7-5.3c3.1-4.1,5.8-8.9,7.8-14.4c0.1-1.6,0-3-0.5-4.4
			C413.5,330.6,412.9,329.7,412.1,329.3z M362.1,292.1c-0.1-5.8,0-11.5,0.4-17c0.4-5.5,1-10.7,1.8-15.6c0.8-4.9,2-9.1,3.4-12.7
			c1.4-3.6,3.1-6.4,5.1-8.4c2-2,4.3-2.9,6.8-2.6c1.9,0.2,3.3,1.2,4.2,2.8c0.8,1.6,1.3,3.6,1.4,6c0.1,2.4-0.1,4.9-0.5,7.7
			c-0.4,2.8-0.9,5.5-1.4,8.2c-1,5.5-2.5,11-4.7,16.6c-2.2,5.6-4.4,10.8-6.7,15.5c-2.7,5.6-5.6,11-8.7,16.2
			C362.5,303.5,362.2,297.9,362.1,292.1z"/>
	</g>
	<g>
		<g>
			<g>
				
					<ellipse transform="matrix(0.6431 -0.7658 0.7658 0.6431 -13.152 69.9032)" class="st3" cx="68.4" cy="49.1" rx="9.5" ry="9.8"/>
			</g>
		</g>
		<g>
			<g>
				<g>
					<ellipse class="st3" cx="70.4" cy="73.8" rx="14.2" ry="14.6"/>
				</g>
			</g>
			<g>
				<g>
					
						<ellipse transform="matrix(0.2611 -0.9653 0.9653 0.2611 15.1393 117.8985)" class="st3" cx="84.6" cy="49.1" rx="5.5" ry="5.4"/>
				</g>
			</g>
		</g>
	</g>
	<g>
		<path class="st4" d="M144.6,162c-5.3,0.9-9.7,1.1-13.3,0.6c-3.6-0.5-6.8-1.4-9.7-2.7c-2.9-1.3-5.6-2.9-8.1-4.8
			c-2.5-1.9-5.4-3.8-8.4-5.6c0.5-1.3,0.9-3,1.1-5c0.2-2,0.3-4.2,0.3-6.6c0-2.4,0.1-4.9,0.1-7.5c0-2.6,0.1-5.1,0.3-7.6
			c0-0.4,0.8-1.4,2.4-2.9c1.6-1.5,3.3-3.6,5.3-6.4c1.9-2.8,3.7-6.2,5.4-10.2c1.7-4,2.6-8.8,2.8-14.3c0.1-4.1-0.7-7.9-2.4-11.3
			c-1.7-3.4-3.8-6.2-6.3-8.2c-2.5-2.1-5.2-3.3-8.1-3.7c-2.9-0.4-5.4,0.4-7.6,2.3c-1.2,1-2.2,2.9-3,5.7c-0.7,2.8-1.4,6.1-1.8,9.7
			C93,87.1,92.6,91,92.4,95c-0.2,4.1-0.4,7.8-0.5,11.3c-0.1,3.4-0.2,6.3-0.3,8.5c0,2.2-0.1,3.4-0.2,3.5c-1.6,1.9-3.2,3.6-5,4.9
			c-1.8,1.3-3.3,2.5-4.7,3.4c-1.4,1-2.5,1.8-3.4,2.6c-0.9,0.8-1.2,1.6-1.1,2.4c0.1,0.9,0.7,1.4,1.9,1.5c1.2,0.1,2.5,0.1,4.1-0.2
			c1.5-0.3,3.1-0.7,4.7-1.3c1.6-0.6,3-1.2,4.1-1.8c0.3,1.9,0.4,3.9,0.4,5.9c0,2-0.1,3.8-0.3,5.3c-0.2,1.6-0.4,2.9-0.7,3.8
			c-0.3,1-0.5,1.4-0.7,1.3c-3.1-1.3-6.1-1.8-8.9-1.3c-2.9,0.4-5.4,1.5-7.4,3.2c-2,1.7-3.4,3.8-4.3,6.3c-0.8,2.5-0.7,5.3,0.5,8.2
			c1.1,2.3,2.5,4,4,5.3c1.5,1.2,3.2,2.1,4.9,2.5c1.7,0.4,3.4,0.5,5.2,0.3c1.8-0.2,3.4-0.7,4.9-1.5c1.5-0.7,2.8-1.5,3.8-2.4
			s1.9-1.8,2.6-2.6c0.9-1,1.6-1.8,2.1-2.6c2.7,2.3,5.7,4.3,8.8,5.9c2.7,1.5,5.9,2.8,9.5,3.9c3.6,1.1,7.5,1.5,11.7,1.2
			c4.3-0.3,7.8-1,10.5-2.2c2.7-1.2,4.7-2.4,6.1-3.8c1.3-1.3,1.9-2.5,1.8-3.4C146.6,162.1,145.9,161.7,144.6,162z M106.7,91
			c0.1-1.8,0.2-3.6,0.4-5.4c0.2-1.8,0.4-3.3,0.6-4.6c0.2-1.3,0.4-2.3,0.7-3c0.2-0.7,0.5-0.9,0.7-0.7c3.1,3.7,4.6,7.2,4.7,10.7
			c0.1,3.4-0.5,6.5-1.7,9.2c-1.4,3.2-3.5,6.2-6.3,9.1C106.1,100.5,106.4,95.4,106.7,91z M85.5,160.8c-1.1,1-2.2,1.4-3.3,1.4
			c-1.1,0-2-0.4-2.8-1.1c-0.8-0.7-1.4-1.7-1.7-2.9c-0.6-1.8-0.5-3.1,0.3-3.8c0.8-0.7,1.8-1,3.2-1c1.3,0,2.7,0.3,4.2,0.9
			c1.5,0.5,2.7,1.1,3.7,1.8C87.8,158.3,86.7,159.8,85.5,160.8z"/>
		<path class="st4" d="M135.1,88.4c0.8,0.7,1.8,1.1,2.8,1.2c3.8,0.4,6.6-0.2,8.5-1.6c1.9-1.4,3-3.2,3.4-5.2c0.3-1.7-0.3-3.1-1.6-4.4
			c-1.4-1.3-3-2.2-4.9-2.7c-1.9-0.5-3.8-0.6-5.8-0.1c-2,0.4-3.4,1.6-4.4,3.6c-0.6,1.1-0.9,2.2-0.9,3.4c0,1.2,0.3,2.3,0.9,3.4
			C133.6,86.8,134.2,87.7,135.1,88.4z"/>
		<path class="st4" d="M323.2,110.3c-1.6-1.7-3.4-3-5.6-3.9c-2.2-0.9-4.3-1.5-6.5-1.6c-3.1-0.3-5.8,0.2-8.1,1.3
			c-2.3,1.1-4.3,2.5-5.9,4c-1.6,1.5-2.9,3-3.9,4.5c-1,1.4-1.6,2.4-2,3c-0.4,0.5-0.7,0.3-0.9-0.7c-0.2-1-0.3-2.2-0.5-3.8
			c-0.1-1.5-0.3-3.1-0.6-4.7c-0.3-1.6-0.7-2.8-1.2-3.6c-0.4-0.7-1.1-1.5-2-2.5c-0.9-1-1.9-1.8-3-2.5c-1.1-0.7-2.1-1.1-3.2-1.3
			c-1.1-0.1-2,0.2-2.8,1.1c-0.3,0.4-0.5,1.9-0.7,4.7c-0.2,2.8-0.4,6.4-0.6,10.7c-0.2,4.3-0.3,9.2-0.4,14.7c-0.1,5.4-0.1,11-0.1,16.6
			c0,3,0,5.9,0,8.8c-0.2,0-0.4,0.1-0.7,0.1c-2.1,0.4-3.8,0.5-5.2,0.1c-1.4-0.3-2.5-1.2-3.3-2.5c-0.8-1.3-1.5-3.1-2-5.4
			c-0.5-2.3-0.9-5.1-1.1-8.6c-0.3-3.3-0.8-6.5-1.6-9.5c-0.8-3-1.8-5.8-3-8.3c-1.2-2.5-2.5-4.7-4.1-6.4c-1.5-1.8-3.1-3.2-4.8-4.1
			c-2.5-1.3-4.8-1.5-7.1-0.5c-2.3,1-4.4,2.5-6.3,4.7c-1.9,2.2-3.6,4.6-5,7.4c-1.4,2.8-2.5,5.2-3.2,7.4c-1.4,4.1-2.3,5.8-2.8,5.1
			c-0.4-0.7-1.1-3.4-1.8-8.1c-0.5-2.3-1-4.7-1.4-7.2c-0.4-2.5-1.1-4.9-2-7.1c-0.9-2.2-2.2-4.3-3.9-6.1c-1.7-1.8-4.1-3.3-7-4.3
			c-3.1-1.1-5.8-1.7-8.2-1.6c-2.4,0.1-4.5,0.6-6.5,1.5c-2,0.9-3.8,2.1-5.3,3.6c-1.6,1.5-3.1,3.1-4.5,4.7c-2.9,3.5-4.9,6.2-5.9,8
			c-0.8,1.1-1.4,2.2-1.8,3c-0.3-3.9-0.9-7.3-1.8-10.3c-0.4-1.3-1-2.6-1.7-3.8c-0.7-1.2-1.5-2.3-2.5-3.2c-1-0.9-2.1-1.7-3.4-2.2
			c-1.3-0.6-2.8-0.8-4.5-0.7c-0.9,0.2-1.6,1.5-2,4.1c-0.5,2.5-0.8,5.7-0.9,9.5c-0.1,3.8-0.1,8,0.1,12.5c0.2,4.5,0.6,8.8,1.1,12.8
			c0.2,1.9,0.5,3.6,0.9,5.3c-1.5,2-3.1,3.4-4.8,4.4c-1.8,1.1-4,1.1-6.6,0.3c-1.2-0.4-2.3-1.4-3.1-3c-0.8-1.5-1.5-3.4-2-5.6
			c-0.5-2.2-0.8-4.6-1-7.2c-0.2-2.6-0.2-5.2-0.2-7.8c0-2.6,0.2-5,0.5-7.2c0.3-2.2,0.6-4.1,0.9-5.6c0.8-2.7,0.8-4.6,0.1-5.7
			c-0.7-1.1-1.7-1.7-3.1-1.8c-1.4-0.1-2.8,0-4.3,0.5c-1.5,0.5-2.8,0.9-3.8,1.4c-1,0.5-1.8,1.4-2.6,2.6c-0.8,1.2-1.5,2.6-2.2,4.3
			c-0.7,1.7-1.2,3.5-1.6,5.4c-0.4,1.9-0.8,3.9-1.1,6.1c-0.2,5.4-0.1,10.1,0.2,14c0.3,3.9,0.9,7.2,1.8,9.9c0.9,2.7,2.2,4.9,3.9,6.5
			c1.7,1.6,3.8,2.9,6.4,3.7c2.6,1,5.3,1.4,7.9,1.2c2.6-0.2,5.1-0.8,7.4-1.9c2.3-1.1,4.4-2.6,6.3-4.5c0.9-1,1.8-2,2.6-3.1
			c0.8,2.1,1.6,3.6,2.5,4.3c1.8,1.3,3.7,2.1,5.5,2.3c1.8,0.2,3.5,0.1,4.9-0.5c1.4-0.5,2.5-1.3,3.4-2.4c0.9-1.1,1.3-2.2,1.3-3.6
			c0-1.3,0-3.5-0.1-6.6c-0.1-3.1,0-6.4,0.3-10c0.3-3.6,0.8-7.1,1.6-10.6c0.8-3.5,2.1-6.2,3.9-8.2c3.7-4.2,6.7-6.7,9-7.6
			c2.3-0.8,4-0.2,4.9,1.9c0.3,0.8,0.5,2.1,0.7,4c0.2,1.9,0.4,4.1,0.7,6.8c0.2,2.6,0.5,5.4,0.9,8.4c0.4,3,0.9,5.9,1.6,8.9
			c0.7,2.9,1.5,5.7,2.5,8.3c1,2.6,2.3,4.7,3.9,6.4c2.4,2.5,4.5,4.1,6.4,4.5c1.9,0.5,3.7,0.3,5.2-0.6c1.5-0.9,2.9-2.2,4.2-3.9
			c1.3-1.8,2.4-3.6,3.5-5.5c1.1-1.9,2.1-4.2,3.2-6.9c1.1-2.7,2.1-5.1,3-7.2c1-2.1,1.8-3.7,2.6-4.7c0.8-1,1.4-0.7,2,0.9
			c0.3,1.1,0.9,2.6,1.5,4.6c0.7,2,1.5,4.3,2.5,6.8c1,2.5,2.2,5,3.7,7.6c1.4,2.6,3.1,4.9,4.9,7c1.8,2.1,3.9,3.9,6.2,5.3
			c2.3,1.4,4.8,2.1,7.6,2.1c2.9,0,5.2-0.5,6.9-1.5c0.3-0.1,0.5-0.3,0.7-0.4c0,0.4,0,0.8,0,1.2c0.1,5.4,0.2,10.3,0.4,14.7
			c0.2,4.3,0.4,7.9,0.7,10.8c0.3,2.9,0.6,4.5,0.9,4.8c1,1.1,2.2,2,3.6,3c1.4,0.9,2.9,1.5,4.3,1.8c1.4,0.3,2.6,0.1,3.7-0.4
			c1.1-0.5,1.7-1.7,2-3.6c0.2-1.2,0.3-3.5,0.3-6.7c0-3.2,0-7-0.1-11.3c0-4.3-0.1-8.9-0.1-13.8s0.1-9.7,0.3-14.3
			c0.2-4.6,0.6-8.8,1.1-12.7c0.5-3.9,1.3-6.8,2.2-8.9c2.1-4.7,4.7-7.9,7.7-9.3c3-1.5,6.1-1,9.1,1.6c1.8,1.5,3,3.2,3.4,5.3
			c0.4,2,0.4,4-0.1,6c-0.5,2-1.5,3.8-2.8,5.5c-1.4,1.7-2.9,3-4.5,3.9c-1.8,1-3.4,1.7-4.8,2.3c-1.4,0.6-2.5,1.1-3.4,1.6
			c-0.9,0.5-1.6,1-2.2,1.4c-0.5,0.5-0.9,1.1-1.1,1.8c-0.4,1.4,0.3,2.2,1.9,2.5c1.6,0.3,4.8-0.1,9.4-1.1c2.6-0.5,5.2-1.3,7.6-2.4
			c2.4-1.1,4.6-2.5,6.5-4.3c1.9-1.8,3.5-4,4.6-6.6c1.1-2.6,1.8-5.6,2-9c0.2-3.2-0.2-6.1-1.1-8.7C326.1,114.1,324.8,112,323.2,110.3z
			"/>
		<path class="st4" d="M339,88.4c0.8,0.7,1.8,1.1,2.8,1.2c3.8,0.4,6.6-0.2,8.5-1.6c1.9-1.4,3-3.2,3.4-5.2c0.3-1.7-0.3-3.1-1.6-4.4
			c-1.4-1.3-3-2.2-4.9-2.7c-1.9-0.5-3.8-0.6-5.8-0.1c-2,0.4-3.4,1.6-4.4,3.6c-0.6,1.1-0.9,2.2-0.9,3.4c0,1.2,0.3,2.3,0.9,3.4
			C337.4,86.8,338.1,87.7,339,88.4z"/>
		<path class="st4" d="M409.2,134.7c-0.8-0.3-1.6,0.2-2.4,1.5c-0.8,1.4-1.9,3-3.2,4.8c-1.3,1.8-3,3.7-4.9,5.5c-2,1.8-4.5,3-7.7,3.5
			c-1.5,0.3-2.8,0.2-3.9-0.1c-1.1-0.3-2.1-0.8-2.9-1.5c-0.8-0.7-1.4-1.5-1.9-2.4c-0.5-0.9-0.9-1.9-1.3-3c-0.8-2.4-1.1-5.2-1.1-8.6
			c2.5,0.1,5-0.3,7.5-1.2c2.2-0.7,4.6-1.9,7.2-3.6c2.6-1.7,5-4.2,7.3-7.5c2.1-3.1,3.4-6.1,3.9-9.1c0.5-3,0.3-5.7-0.5-8.1
			c-0.8-2.4-2.1-4.4-4-5.9c-1.9-1.5-4.1-2.4-6.8-2.6c-2.5,0-5.2,0.3-7.8,0.8c-2.7,0.5-5.2,1.3-7.6,2.4c-2.4,1.1-4.6,2.5-6.6,4.3
			c-2,1.8-3.6,3.8-4.9,6.2c-1.5,2.2-2.7,4.8-3.8,7.9c-1,3.1-1.7,6.3-2,9.7c-0.3,3.4-0.2,6.8,0.2,10.2c0.4,3.1,1.2,6.1,2.3,8.9
			c-1,1.1-2.1,1.9-3.3,2.6c-1.8,1.1-4,1.1-6.6,0.3c-1.2-0.4-2.3-1.4-3.1-3c-0.8-1.5-1.5-3.4-2-5.6c-0.5-2.2-0.8-4.6-1-7.2
			c-0.2-2.6-0.2-5.2-0.2-7.8c0-2.6,0.2-5,0.5-7.2c0.3-2.2,0.6-4.1,0.9-5.6c0.8-2.7,0.8-4.6,0.1-5.7c-0.7-1.1-1.7-1.7-3.1-1.8
			c-1.4-0.1-2.8,0-4.3,0.5c-1.5,0.5-2.8,0.9-3.8,1.4c-1,0.5-1.8,1.4-2.6,2.6c-0.8,1.2-1.5,2.6-2.2,4.3c-0.7,1.7-1.2,3.5-1.6,5.4
			c-0.4,1.9-0.8,3.9-1.1,6.1c-0.2,5.4-0.1,10.1,0.2,14c0.3,3.9,0.9,7.2,1.8,9.9c0.9,2.7,2.2,4.9,3.9,6.5c1.7,1.6,3.8,2.9,6.4,3.7
			c2.6,1,5.3,1.4,7.9,1.2c2.6-0.2,5.1-0.8,7.4-1.9c2.3-1.1,4.4-2.6,6.3-4.5c0.8-0.8,1.5-1.7,2.2-2.7c0.8,1.1,1.7,2.2,2.7,3.2
			c2.3,2.3,5.1,3.9,8.6,5c4.2,1.3,8,1.6,11.5,1c3.4-0.7,6.4-1.9,9.1-3.6c2.6-1.8,4.8-3.9,6.5-6.4c1.7-2.5,3-4.9,3.9-7.3
			c0.9-2.4,1.3-4.4,1.3-6.2C410.6,136.3,410.1,135.2,409.2,134.7z M379.6,122c0.2-0.9,0.5-2,1.1-3.4c0.5-1.4,1.4-2.9,2.6-4.7
			c1.6-2.3,3.1-3.9,4.6-5c1.5-1.1,2.9-1.8,4.1-2.1c1.4-0.3,2.7-0.3,3.9,0c0.4,1,0.6,2,0.5,3.2c-0.1,1-0.4,2.2-1,3.6
			c-0.6,1.4-1.6,2.9-3.2,4.3c-1.7,1.6-3.2,2.8-4.7,3.7c-1.4,0.9-2.8,1.5-4,2c-1.4,0.5-2.7,0.9-3.8,1.1
			C379.4,123.9,379.4,123,379.6,122z"/>
		<path class="st4" d="M530.3,136.3c-0.5-0.3-1.2,0.2-2.1,1.5c-0.9,1.3-1.9,2.7-3.2,4.3c-1.2,1.6-2.6,3-4.1,4.3
			c-1.5,1.3-3.3,1.7-5.2,1.4c-2.8-0.6-4.7-2.7-5.7-6.4c-1-3.6-1.3-9-1.1-16.1c0.2-3.5-0.1-6-0.9-7.4c-0.7-1.4-1.7-2.3-3-2.6
			c-1.2-0.3-2.5-0.2-3.9,0.1c-1.4,0.4-2.5,0.6-3.5,0.7c-1,0.1-1.6,0.7-2,2c-0.4,1.2-0.7,2.7-0.8,4.3c-0.1,1.7-0.2,3.4-0.1,5.1
			c0.1,1.7,0.1,3.1,0.1,4c0,1-0.4,2.3-1.2,4.1c-0.8,1.8-1.8,3.6-3,5.3c-1.2,1.7-2.6,3.2-4.1,4.5c-1.5,1.3-3,2-4.4,2
			c-1.1,0-2.1-1.2-2.8-3.5c-0.7-2.3-1.1-5.1-1.2-8.3c0-3.2,0.3-6.6,1-10.1c0.7-3.5,1.9-6.5,3.7-9.1c1.1-1.6,2.5-2.9,4.2-3.8
			c1.7-1,3.3-1.8,4.9-2.6c1.6-0.8,3-1.6,4.2-2.3c1.2-0.7,2-1.7,2.2-2.8c0.2-0.7-0.4-1.3-1.6-1.6c-1.3-0.4-2.9-0.5-5-0.5
			c-2.1,0.1-4.4,0.5-7,1.1c-2.6,0.7-5.2,1.7-7.8,3.2c-2.6,1.4-5,3.3-7.3,5.6c-2.3,2.3-4.1,5-5.5,8.3c-1.9,4.5-2.9,8.8-3,12.9
			c-0.7,0.1-1.5,0.3-2.4,0.7c-1.6,0.7-3.6,1.8-5.9,3.5c-2.3,1.7-4.9,4-7.8,7c-1.3-1.8-2.5-3.1-3.7-3.9c-1.1-0.9-2.2-1.5-3-2
			c-1-0.4-1.8-0.7-2.6-0.7c2.3-1.1,4.4-2.4,6.4-3.9c1.8-1.3,3.4-3,5-5.1c1.6-2.1,2.6-4.5,3.2-7.3c1.1-5.8,0.5-10.7-1.8-14.7
			c-2.4-4-6.4-6.8-12.1-8.2c-3-0.7-5.7-0.8-8-0.4c-2.4,0.4-4.4,1.2-6.2,2.4c-1.8,1.1-3.2,2.5-4.3,4.1c-1.1,1.6-1.9,3.1-2.4,4.7
			c-0.5,1.5-0.6,2.9-0.4,4.2c0.2,1.3,0.8,2.2,1.6,2.7c1.7,1,3,1.1,4.1,0.5c1.1-0.7,2.2-1.4,3.2-2.4c1.1-0.9,2.2-1.7,3.4-2.3
			c1.2-0.6,2.8-0.4,4.7,0.5c1.7,0.9,2.8,2,3.5,3.3c0.7,1.3,0.9,2.7,0.7,4.1c-0.2,1.4-0.7,2.9-1.4,4.3c-0.8,1.4-1.8,2.7-2.9,3.8
			c-1.1,1.1-2.4,2.2-3.9,3.3c-1.4,1.1-2.8,2.1-4,3.1c-1.2,1-2.2,2-3,3c-0.8,1-1.1,1.9-0.8,2.8c0.3,1.3,0.9,2.2,1.9,2.5
			c1,0.4,2.2,0.8,3.6,1.3c1.4,0.5,2.9,1.4,4.6,2.6c1.7,1.2,3.3,3.4,4.9,6.6c-2.9,3.3-5.3,6.1-7.3,8.4c-2,2.3-3.6,4.5-5,6.6
			c-1.4,2.1-2.5,4.3-3.3,6.6c-0.8,2.3-1.6,5.1-2.3,8.6c-0.9,4.1-1.3,7.6-1.1,10.4c0.1,2.8,0.6,5.1,1.4,7c0.8,1.8,2,3.2,3.4,4.2
			c1.4,1,3,1.7,4.8,2.2c2.1,0.4,4.6,0.2,7.4-0.7c2.9-0.9,5.6-2.5,8.3-4.6c2.7-2.2,5.1-4.9,7.2-8.2c2.1-3.3,3.5-7.2,4.2-11.6
			c0.9-5.3,1.2-9.8,0.9-13.6c-0.3-3.8-0.7-7-1.4-9.5c-0.8-2.9-1.8-5.4-3.2-7.5c0.4-0.6,1-1.4,1.7-2.2c1.2-1.6,3.2-3.5,5.8-5.7
			c1.1-0.9,2.1-1.7,3.2-2.6c0.5-0.4,1-0.8,1.4-1.1c0.4,2.4,1.1,4.7,2.1,6.7c1.6,3.4,3.8,6.1,6.5,8.2c2.7,2,5.6,3,8.7,2.9
			c3.1-0.2,5.7-0.9,7.8-2c2.1-1.2,3.8-2.5,5.1-3.9c1.6-1.6,2.8-3.4,3.7-5.5c1.1,3.2,2.5,6,4.2,8.2c0.8,1,1.7,1.8,2.6,2.6
			c1,0.8,2.1,1.4,3.4,1.8c1.3,0.4,2.7,0.7,4.3,0.7c1.6,0,3.3-0.3,5.1-1.1c3.5-1.3,6.4-3.2,8.6-5.6c2.2-2.4,3.9-4.8,5.1-7.2
			c1.1-2.4,1.8-4.6,2-6.5C531.1,137.7,530.9,136.6,530.3,136.3z M440,177c-0.4,2.9-1.3,6.5-2.8,10.9c-1.2,3.3-2.5,6-3.9,8.1
			c-1.4,2.1-2.7,3.4-3.9,3.9c-1.2,0.6-2.3,0.3-3.1-0.9c-0.8-1.2-1.3-3.4-1.4-6.6c-0.1-3.2,0.6-6.5,2-9.7c1.4-3.2,3-6.1,4.8-8.8
			c2-3,4.3-5.9,6.8-8.8c0.9,1.1,1.4,2.8,1.7,4.9C440.4,171.8,440.3,174.1,440,177z"/>
	</g>
	<path class="st3" d="M492.5,52c0,0,0.2-0.2,0.4-0.7c0.1-0.2,0.3-0.5,0.6-0.8c0.2-0.3,0.5-0.6,0.9-1c0.7-0.7,1.6-1.5,2.8-2.1
		c1.2-0.7,2.7-1.2,4.4-1.5c1.7-0.2,3.7-0.1,5.7,0.5c0.3,0.1,0.5,0.2,0.7,0.3c0.3,0.1,0.5,0.2,0.8,0.3c0.4,0.2,0.9,0.4,1.4,0.8
		c1,0.7,1.9,1.4,2.7,2.4c0.8,0.9,1.4,2,2,3.2c0.5,1.2,0.8,2.4,1,3.8c0.1,1.3,0,2.7-0.3,4c-0.2,0.7-0.3,1.3-0.6,1.9
		c-0.1,0.3-0.3,0.6-0.4,0.9l-0.2,0.5l-0.1,0.2l-0.1,0.1l0,0.1l0,0c0,0.1,0.1-0.1-0.1,0.1l-0.5,0.7c-0.1,0.2-0.4,0.5-0.6,0.8
		c-0.5,0.6-1,1.1-1.5,1.5c-1,0.9-2.2,1.6-3.4,2.1c-1.2,0.5-2.5,0.8-3.8,0.9c-1.3,0.1-2.5,0-3.7-0.3c-2.4-0.5-4.5-1.8-5.9-3.1
		c-0.8-0.8-1.5-1.5-1.9-2.4c-0.5-0.8-0.9-1.7-1.2-2.5c-0.6-1.6-0.8-3.2-0.8-4.6c0-1.4,0.3-2.5,0.6-3.5c0.2-0.5,0.3-0.9,0.4-1.2
		c0.1-0.3,0.3-0.6,0.4-0.9C492.4,52.2,492.5,52,492.5,52z M492.5,52c0,0-0.1,0.2-0.4,0.7c-0.1,0.2-0.3,0.5-0.4,0.9
		c-0.2,0.3-0.3,0.8-0.4,1.2c-0.2,0.9-0.4,2.1-0.3,3.4c0.1,1.3,0.5,2.8,1.4,4.2c0.4,0.7,0.9,1.3,1.5,1.9c0.6,0.6,1.3,1.1,2,1.5
		c0.2,0.1,0.4,0.2,0.6,0.3l0.3,0.2l0.2,0.1c0.1,0-0.1,0,0,0l0,0l0,0l0.1,0c0.4,0.1,0.8,0.3,1.2,0.4c0.8,0.3,1.7,0.3,2.6,0.3
		c0.9,0,1.7-0.1,2.6-0.3c0.8-0.2,1.6-0.6,2.4-1c0.7-0.4,1.4-1,2.1-1.5c0.3-0.3,0.6-0.6,0.8-0.9c0.2-0.2,0.6-0.8,0.9-1.2
		c-0.1,0.2,0,0-0.1,0.1l0,0l0,0l0-0.1l0.1-0.1l0.2-0.3c0.1-0.2,0.2-0.4,0.3-0.6c0.2-0.4,0.3-0.8,0.5-1.2c0.2-0.8,0.4-1.7,0.4-2.5
		c0-0.9-0.1-1.7-0.3-2.6c-0.2-0.8-0.5-1.7-0.9-2.5c-0.4-0.7-0.9-1.5-1.5-2.1c-0.2-0.3-0.7-0.6-1-1c-0.1-0.1-0.3-0.2-0.5-0.4
		c-0.2-0.1-0.3-0.3-0.5-0.4c-1.5-0.9-3.1-1.4-4.7-1.5c-1.6-0.1-3.1,0.2-4.3,0.7c-1.2,0.5-2.2,1.2-2.9,1.8c-0.4,0.3-0.7,0.6-0.9,0.9
		c-0.2,0.3-0.5,0.5-0.6,0.7C492.7,51.7,492.5,52,492.5,52z"/>
	<path class="st3" d="M492.6,76.8c0,0,0,0.2,0,0.5c0,0.3,0.1,0.8,0,1.5c-0.1,0.6-0.2,1.4-0.5,2.2c-0.3,0.8-0.8,1.8-1.5,2.7
		c-0.8,0.9-1.8,1.8-3.1,2.4c-0.2,0.1-0.3,0.1-0.5,0.2l-0.3,0.1l-0.1,0c0.1,0-0.1,0-0.1,0l0,0l0,0l-0.1,0c-0.3,0.1-0.6,0.2-1.1,0.3
		c-0.9,0.1-1.7,0.2-2.6,0c-1.7-0.2-3.5-1-4.9-2.4c-0.7-0.7-1.3-1.5-1.8-2.4c-0.2-0.5-0.4-0.9-0.6-1.4c-0.1-0.2-0.2-0.5-0.2-0.7
		l-0.1-0.4l0-0.2l0-0.1l0,0l0,0l0-0.2l0-0.5c0-0.1,0-0.1,0-0.3l0-0.4c0-0.6,0.1-1.1,0.2-1.6c0.2-1,0.6-1.9,1.1-2.8
		c0.5-0.8,1.1-1.6,1.8-2.2c0.7-0.6,1.5-1.1,2.3-1.4c1.6-0.7,3.4-0.8,4.7-0.6c0.8,0.1,1.5,0.3,2.1,0.6c0.6,0.2,1.2,0.6,1.6,0.9
		c1,0.7,1.7,1.5,2.2,2.2c0.5,0.7,0.8,1.5,1.1,2c0.2,0.6,0.3,1.1,0.4,1.4C492.6,76.6,492.6,76.8,492.6,76.8z M492.6,76.8
		c0,0,0-0.2-0.1-0.5c0-0.2-0.1-0.4-0.2-0.6c-0.1-0.2-0.2-0.5-0.3-0.8c-0.3-0.6-0.7-1.2-1.3-1.8c-0.6-0.6-1.5-1.1-2.4-1.3
		c-0.5-0.1-1-0.2-1.5-0.2c-0.5,0-1.1,0.1-1.5,0.2l-0.4,0.1l-0.2,0.1l-0.1,0c-0.1,0,0.1,0,0.1,0l0,0l0,0l0,0
		c-0.2,0.1-0.5,0.2-0.7,0.4c-0.4,0.2-0.8,0.6-1.2,1c-0.7,0.7-1.1,1.6-1.4,2.4c-0.1,0.4-0.2,0.9-0.2,1.3c0,0.2,0,0.4,0,0.5
		c0,0,0,0.1,0,0.1c0,0,0,0.2,0,0.2l0,0.5c0-0.3,0-0.1,0-0.1l0,0l0,0l0,0l0,0.1l0,0.2c0,0.1,0,0.2,0.1,0.3c0,0.2,0.1,0.4,0.2,0.6
		c0.2,0.4,0.3,0.8,0.5,1.2c0.5,0.8,1.1,1.4,2,2c0.2,0.1,0.4,0.2,0.7,0.3c0.2,0.1,0.5,0.2,0.7,0.3c0.2,0.1,0.6,0.1,0.9,0.2l0.1,0l0,0
		l0,0c0,0-0.1,0-0.1,0l0.1,0l0.2,0c0.1,0,0.3,0,0.4,0c1,0,2.1-0.3,2.9-0.8c0.9-0.5,1.5-1.2,2-1.9c0.5-0.7,0.7-1.5,0.8-2.1
		c0.1-0.3,0.1-0.6,0.1-0.8c0-0.2,0-0.4,0-0.6C492.6,76.9,492.6,76.8,492.6,76.8z"/>
	<path class="st5" d="M104.9,70.4c0,0,8-1.1,10.9,6.9"/>
	<path class="st5" d="M136.8,167.3c0,0-20.9,8-33.7-10.5"/>
	<path class="st5" d="M151.6,158c0,0-10.7,4.3-17.6-6.7"/>
	<path class="st5" d="M203.1,104.3c0,0,11.5-0.2,14,12.6"/>
	<path class="st5" d="M242.1,114.1c0,0,11.5-0.2,14,12.6"/>
	<path class="st5" d="M310.4,107.8c0,0,11.5-0.2,14,12.6"/>
	<path class="st5" d="M351.4,157.4c0,0-11.3,2.2-16-9.9"/>
	<path class="st5" d="M287.9,193c0,0-5.8,1.1-8.2-5.1"/>
	<path class="st5" d="M346.5,86.3c0,0-4.4,0.8-6.2-3.8"/>
	<path class="st5" d="M393,99.1c0,0,8.7,1.5,8.8,11.5"/>
	<path class="st5" d="M439,102.6c0,0,8.7,1.5,8.8,11.5"/>
	<path class="st5" d="M441.5,196.6c0,0-2.1,8.6-12,8"/>
	<path class="st5" d="M491.4,146.2c0,0-2.1,8.6-12,8"/>
	<path class="st5" d="M497.5,119.1c0,0,5.5-2.6,9.2,1.5"/>
	<path class="st6" d="M99.1,226.1c0.4-2.2,1.6-3.4,3.8-3.6c2.2-0.2,4.5,0.2,6.9,1.5c2.4,1.2,4.7,2.9,6.7,5.2
		c2.1,2.2,3.1,4.7,3.3,7.4c0.1,2.8,0.2,5.6,0.4,8.5c0.1,2.9,0.2,5.5,0.4,7.8c0.1,2.8,0.2,5.4,0.4,7.8c4.1-0.4,7.8-0.5,10.9-0.4
		c2.8,0.1,5.3,0.5,7.5,1.1c2.2,0.6,3.3,1.7,3.3,3.3c0,1.7-1.1,3.2-3.2,4.4c-2.1,1.2-4.5,2.2-7.2,3.1c-3.2,1-6.7,1.8-10.5,2.5
		c0.2,8.1,0.5,16,0.7,23.6c0.1,6.7,0.2,13.6,0.1,20.9c-0.1,7.3-0.3,13.6-0.8,19.1c-0.6,5.5-1.5,9.4-2.8,12c-1.3,2.5-2.7,4.2-4.3,4.9
		c-1.6,0.7-3.2,0.9-4.9,0.5c-1.7-0.4-3.3-0.9-4.7-1.5c-0.7-0.2-1.4-1.5-2-3.8c-0.6-2.3-1.1-5.3-1.5-8.9c-0.4-3.6-0.7-7.7-0.9-12.3
		c-0.2-4.5-0.4-9.2-0.5-13.9c-0.4-11.1-0.5-23.6-0.5-37.4c-3.3,0.7-6.3,1.1-9.1,1.1c-2.4,0-4.7-0.4-6.7-1.2
		c-2.1-0.8-3.3-2.3-3.8-4.5c-0.4-1.7,0.4-3.2,2.3-4.5c1.9-1.3,4-2.5,6.5-3.5c2.8-1.1,6.1-2.1,9.8-2.9v-2.9c0-0.8,0-1.7,0.1-2.6
		c0.1-0.9,0.1-1.7,0.1-2.3c0-4.8-0.1-8.8-0.2-11.8c-0.1-3-0.2-5.5-0.2-7.5c0-2,0.1-3.6,0.2-4.9C98.5,228.9,98.8,227.6,99.1,226.1z"
		/>
	<path class="st6" d="M182,283.2c5.6,3.4,9.9,7.5,12.9,12.4c3,4.9,5,10.1,5.9,15.4c0.9,5.4,0.8,10.8-0.5,16.1
		c-1.2,5.3-3.2,10.1-6.1,14.4c-2.8,4.3-6.5,7.8-10.8,10.6c-4.4,2.8-9.3,4.2-14.9,4.4c-7,0.1-12.9-1.4-17.7-4.6
		c-4.8-3.2-8.4-7.3-11-12.3c-2.5-5-4-10.4-4.5-16.3c-0.4-5.9,0.2-11.4,1.9-16.5c1.7-5.1,4.5-9.5,8.4-13.2c3.9-3.6,8.7-5.6,14.5-6
		c5.3-0.4,9.2-0.9,11.6-1.7c2.4-0.8,4.2-1.5,5.3-2.2c1.1-0.7,1.8-1.1,2.3-1.4C179.8,282.2,180.7,282.5,182,283.2z M160.7,299
		c-0.7,0.7-1.3,2.5-1.8,5.3c-0.5,2.8-0.8,6.1-1,9.8c-0.2,3.8-0.2,7.7,0.1,11.8c0.2,4.1,0.7,7.9,1.4,11.3c0.7,3.4,1.6,6.2,2.8,8.4
		c1.2,2.2,2.7,3.2,4.4,2.9c1.7-0.2,3.3-1.4,4.9-3.4c1.6-2,3-4.5,4.3-7.5c1.3-3,2.3-6.2,3.1-9.8c0.8-3.6,1.3-7.1,1.5-10.4
		c0.2-3.4,0-6.5-0.6-9.3c-0.6-2.8-1.6-4.9-3.1-6.4c-3.4-3.5-6.3-5.4-8.6-5.7C165.5,295.7,163.2,296.7,160.7,299z"/>
	<path class="st6" d="M215.4,226.1c0.4-2.2,1.6-3.4,3.8-3.6c2.2-0.2,4.5,0.2,6.9,1.5c2.4,1.2,4.7,2.9,6.7,5.2
		c2.1,2.2,3.1,4.7,3.3,7.4c0.1,2.8,0.2,5.6,0.4,8.5c0.1,2.9,0.2,5.5,0.4,7.8c0.1,2.8,0.2,5.4,0.4,7.8c4.1-0.4,7.8-0.5,10.9-0.4
		c2.8,0.1,5.3,0.5,7.5,1.1c2.2,0.6,3.3,1.7,3.3,3.3c0,1.7-1.1,3.2-3.2,4.4c-2.1,1.2-4.5,2.2-7.2,3.1c-3.2,1-6.7,1.8-10.5,2.5
		c0.2,8.1,0.5,16,0.7,23.6c0.1,6.7,0.2,13.6,0.1,20.9c-0.1,7.3-0.3,13.6-0.8,19.1c-0.6,5.5-1.5,9.4-2.8,12c-1.3,2.5-2.7,4.2-4.3,4.9
		c-1.6,0.7-3.2,0.9-4.9,0.5c-1.7-0.4-3.3-0.9-4.7-1.5c-0.7-0.2-1.4-1.5-2-3.8c-0.6-2.3-1.1-5.3-1.5-8.9c-0.4-3.6-0.7-7.7-0.9-12.3
		c-0.2-4.5-0.4-9.2-0.5-13.9c-0.4-11.1-0.5-23.6-0.5-37.4c-3.3,0.7-6.3,1.1-9.1,1.1c-2.4,0-4.7-0.4-6.7-1.2
		c-2.1-0.8-3.3-2.3-3.8-4.5c-0.4-1.7,0.4-3.2,2.3-4.5c1.9-1.3,4-2.5,6.5-3.5c2.8-1.1,6.1-2.1,9.8-2.9v-2.9c0-0.8,0-1.7,0.1-2.6
		c0.1-0.9,0.1-1.7,0.1-2.3c0-4.8-0.1-8.8-0.2-11.8c-0.1-3-0.2-5.5-0.2-7.5c0-2,0.1-3.6,0.2-4.9C214.8,228.9,215.1,227.6,215.4,226.1
		z"/>
	<path class="st6" d="M306.5,280.1c-0.4,1.6-1.4,2.9-3.1,3.9c-1.7,1-3.6,2.1-5.8,3.2c-2.2,1.1-4.4,2.3-6.7,3.6
		c-2.3,1.3-4.2,3.1-5.8,5.3c-2.4,3.5-4.1,7.7-5.1,12.5c-1,4.8-1.4,9.5-1.4,13.9c0.1,4.4,0.6,8.2,1.6,11.4c1,3.2,2.3,4.8,3.9,4.8
		c1.9,0,4-0.9,6.1-2.7c2.1-1.8,4-3.9,5.7-6.3c1.7-2.4,3.1-4.8,4.2-7.3c1.1-2.5,1.6-4.4,1.6-5.7c0-1.3-0.1-3.2-0.2-5.5
		c-0.1-2.4-0.1-4.7,0.1-7c0.2-2.3,0.5-4.3,1.1-6c0.5-1.7,1.5-2.6,2.8-2.7c1.3-0.1,2.9-0.4,4.8-0.9c1.9-0.5,3.7-0.5,5.4-0.2
		c1.7,0.4,3.1,1.5,4.1,3.5c1,2,1.4,5.4,1.2,10.3c-0.4,9.8,0.1,17.2,1.5,22.3c1.3,5,3.9,8,7.8,8.8c2.7,0.5,5.1-0.2,7.2-1.9
		c2.1-1.8,4-3.7,5.7-5.9c1.7-2.2,3.1-4.1,4.4-5.9c1.2-1.8,2.2-2.5,2.9-2.1c0.8,0.4,1.1,1.9,0.9,4.5c-0.2,2.7-1.2,5.7-2.7,9
		c-1.6,3.3-3.9,6.7-7,10c-3.1,3.3-7.1,5.9-11.9,7.7c-2.5,1-4.9,1.5-7.1,1.5c-2.2,0-4.2-0.3-5.9-0.9c-1.8-0.6-3.3-1.5-4.6-2.5
		c-1.3-1.1-2.5-2.3-3.6-3.6c-2.4-3-4.4-6.8-5.8-11.3c-1.2,2.9-2.9,5.5-5.1,7.6c-1.8,1.9-4.2,3.7-7.1,5.4c-2.9,1.6-6.5,2.6-10.7,2.8
		c-4.2,0.1-8.2-1.2-12-4c-3.8-2.8-6.8-6.5-9-11.3c-2.2-4.7-3.5-10.2-3.6-16.4c-0.2-6.2,1.2-12.8,4.1-19.7c1.9-4.5,4.5-8.3,7.6-11.4
		c3.1-3.1,6.5-5.7,10.1-7.7c3.6-2,7.1-3.5,10.7-4.4c3.6-0.9,6.8-1.4,9.6-1.5c2.8-0.1,5.1,0.1,6.9,0.6
		C306,278.4,306.7,279.1,306.5,280.1z"/>
	<path class="st6" d="M401,247c-0.5,5.5-1.3,10.7-2.5,15.6c-1.2,5-2.6,9.7-4.3,14.2c-1.6,4.5-3.4,8.7-5.4,12.7
		c-1.9,4-3.9,7.6-5.8,10.9c-4.6,7.8-9.7,14.8-15.3,21.1c0,0.8,0.2,1.9,0.5,3.3c0.2,1.2,0.7,2.7,1.5,4.5c0.7,1.8,1.9,3.8,3.5,6.3
		c3.1,5.1,6.6,8.3,10.4,9.5c3.8,1.3,7.5,1.4,11.1,0.4c3.6-1,6.7-2.8,9.4-5.5c2.7-2.6,4.5-5.2,5.5-7.9c1-2.8,1.9-4.6,2.9-5.5
		c1-0.8,1.8-1.1,2.6-0.6c0.8,0.4,1.4,1.3,1.8,2.6c0.4,1.3,0.6,2.8,0.5,4.4c-2.1,5.5-4.7,10.2-7.8,14.4c-1.3,1.8-2.9,3.6-4.7,5.3
		c-1.8,1.7-3.8,3.2-6,4.5c-2.2,1.3-4.6,2.4-7.2,3.2c-2.6,0.8-5.4,1.1-8.4,1c-7.8-0.1-14.2-2-19.4-5.6c-5.2-3.6-9.3-8.3-12.4-14
		c-3.2-5.7-5.4-12.1-6.7-19.4c-1.3-7.2-2.1-14.5-2.3-21.9c-0.2-7.4,0.1-14.5,0.9-21.4c0.8-6.8,1.7-12.8,2.8-17.9
		c1.2-5.3,2.8-10.6,4.8-15.8c2-5.2,4.5-9.8,7.4-13.8c3-4,6.5-7.1,10.5-9.4c4.1-2.3,8.8-3.1,14.3-2.5c4,0.6,7.5,2,10.4,4.2
		c2.4,1.8,4.5,4.6,6.2,8.3C401.4,235.7,401.8,240.7,401,247z M365.9,305.5c3.1-5.2,6.1-10.6,8.7-16.2c2.3-4.7,4.5-9.9,6.7-15.5
		s3.8-11.2,4.7-16.6c0.5-2.7,0.9-5.4,1.4-8.2c0.4-2.8,0.6-5.4,0.5-7.7c-0.1-2.4-0.5-4.4-1.4-6c-0.8-1.6-2.2-2.6-4.2-2.8
		c-2.5-0.2-4.8,0.6-6.8,2.6c-2,2-3.7,4.8-5.1,8.4c-1.4,3.6-2.5,7.8-3.4,12.7c-0.8,4.9-1.5,10.1-1.8,15.6c-0.4,5.5-0.5,11.2-0.4,17
		C365.1,294.6,365.4,300.2,365.9,305.5z"/>
	<g>
		<path class="st6" d="M459.5,245.3c7.9-2.1,16.6-1.3,24.3,2.4c3.8,1.8,7.4,4.4,10.5,7.6c3.1,3.2,5.6,7.1,7.3,11.5
			c1.7,4.3,2.6,9.1,2.4,14c-0.2,4.9-1.4,9.8-3.6,14.3c-2.2,4.5-5.5,8.6-9.5,11.9c-4,3.3-8.7,5.6-13.7,6.9c-5,1.3-10.3,1.5-15.4,0.6
			c-5.1-0.9-9.9-2.9-14-5.8c-4.1-2.9-7.6-6.6-10.1-10.8c-2.5-4.2-4.1-8.8-4.7-13.5c-0.6-4.6-0.3-9.3,0.9-13.6
			c1.1-4.3,3-8.3,5.5-11.8C444.4,252.2,451.6,247.3,459.5,245.3z M459.5,245.3c-4,1-7.7,2.9-10.8,5.5c-3.1,2.6-5.7,5.9-7.3,9.5
			c-1.7,3.6-2.5,7.5-2.5,11.3c0,3.8,0.8,7.5,2.2,10.8c1.4,3.3,3.5,6.2,5.9,8.6c2.4,2.4,5.2,4.2,8.1,5.5c5.9,2.6,12.2,3,18.1,1.5
			c5.9-1.5,11.2-5,15.1-10.1c1.9-2.5,3.5-5.5,4.4-8.8c1-3.2,1.4-6.8,1-10.4c-0.4-3.6-1.4-7.2-3.3-10.6c-1.9-3.3-4.5-6.3-7.7-8.7
			c-3.2-2.3-7-4-11-4.7C467.7,244.1,463.5,244.2,459.5,245.3z"/>
	</g>
	<g>
		<path class="st6" d="M486.8,208.6c0,0-0.1-0.3-0.4-0.9c-0.1-0.3-0.3-0.7-0.4-1.1c-0.1-0.2-0.2-0.5-0.2-0.7
			c-0.1-0.3-0.1-0.5-0.2-0.8c-0.2-1.2-0.4-2.7-0.3-4.4c0.1-1.7,0.6-3.6,1.5-5.6c0.9-2,2.4-3.9,4.4-5.6c0.2-0.2,0.5-0.4,0.8-0.6
			l0.4-0.3l0.2-0.1l0.3-0.1c0.6-0.3,1-0.6,1.8-0.9c1.4-0.6,2.7-1,4.2-1.2c1.5-0.2,3-0.1,4.6,0.1c1.5,0.3,3.1,0.8,4.5,1.6
			c1.4,0.8,2.8,1.8,3.9,3c0.6,0.6,1.1,1.2,1.6,1.9c0.2,0.3,0.5,0.7,0.7,1.1l0.3,0.5l0.2,0.3l0.1,0.1l0,0.1l0,0
			c0,0.1-0.1-0.1,0.1,0.2l0.4,1c0.1,0.2,0.1,0.3,0.2,0.5l0.2,0.7c0.3,0.9,0.4,1.7,0.6,2.5c0.2,1.7,0.2,3.3-0.1,4.9
			c-0.3,1.6-0.8,3.1-1.6,4.5c-0.8,1.4-1.7,2.6-2.7,3.7c-2.1,2.1-4.8,3.5-7.2,4c-0.7,0.1-1.3,0.3-1.9,0.3c-0.3,0-0.6,0.1-0.9,0.1
			c-0.3,0-0.6,0-0.9,0c-1.2,0-2.3-0.2-3.4-0.4c-2.1-0.5-3.9-1.4-5.3-2.3c-1.4-0.9-2.5-2-3.3-2.9c-0.2-0.2-0.4-0.5-0.5-0.7
			c-0.2-0.2-0.3-0.4-0.4-0.6c-0.3-0.4-0.5-0.7-0.6-1C487,208.9,486.8,208.6,486.8,208.6z M486.8,208.6c0,0,0.2,0.3,0.5,0.9
			c0.1,0.3,0.4,0.6,0.6,1c0.1,0.2,0.3,0.4,0.4,0.6c0.2,0.2,0.4,0.4,0.6,0.6c0.8,0.9,1.9,1.9,3.4,2.6c1.5,0.8,3.3,1.3,5.3,1.4
			c1,0,2,0,3-0.3c0.3-0.1,0.5-0.1,0.8-0.2c0.3-0.1,0.5-0.2,0.8-0.3c0.5-0.1,1-0.4,1.4-0.6c0.2-0.1,0.5-0.3,0.8-0.4l0.4-0.2l0.2-0.1
			c0.1,0-0.1,0,0,0l0,0l0,0l0.1-0.1c0.4-0.3,0.9-0.6,1.3-1c0.8-0.7,1.5-1.6,2.2-2.5c0.6-0.9,1.1-1.9,1.4-3c0.4-1,0.5-2.1,0.6-3.2
			c0.1-1.1,0-2.2-0.2-3.3c-0.1-0.5-0.2-1.1-0.4-1.5l-0.1-0.3c0-0.1-0.1-0.3-0.2-0.4l-0.4-1c0.1,0.3,0,0.1,0.1,0.1l0,0l0,0l0-0.1
			l-0.1-0.2l-0.2-0.4c-0.1-0.2-0.3-0.5-0.4-0.7c-0.3-0.5-0.6-0.9-1-1.3c-0.7-0.8-1.5-1.5-2.4-2.2c-0.9-0.6-1.9-1.1-2.9-1.5
			c-1-0.3-2.1-0.6-3.2-0.7c-0.3,0-0.5,0-0.8,0c-0.3,0-0.6,0-0.8,0l-0.8,0.1c-0.3,0-0.5,0.1-0.8,0.1c-0.5,0-1.1,0.3-1.7,0.4l-0.1,0
			l-0.1,0l0,0c0,0,0.1-0.1,0,0l-0.2,0.1l-0.4,0.2c-0.2,0.1-0.5,0.2-0.8,0.3c-2,0.9-3.6,2.4-4.8,4c-1.2,1.6-1.8,3.4-2.1,5
			c-0.3,1.6-0.2,3.1-0.1,4.3c0.1,0.3,0.1,0.6,0.1,0.8c0.1,0.3,0.1,0.5,0.2,0.7c0.1,0.5,0.2,0.8,0.4,1.1
			C486.7,208.3,486.8,208.6,486.8,208.6z"/>
	</g>
	<g>
		<path class="st6" d="M524.9,241.7c0,0,0.3-0.1,0.8-0.2c0.2-0.1,0.6-0.1,0.9-0.1c0.4-0.1,0.8-0.1,1.3-0.1c0.9,0,2.1,0.1,3.4,0.5
			c1.3,0.4,2.7,1,4,2.1c1.3,1,2.5,2.5,3.4,4.3c0.2,0.5,0.4,0.9,0.6,1.4c0.1,0.5,0.3,0.9,0.4,1.5c0.2,1.1,0.2,2.2,0.1,3.3
			c-0.1,1.1-0.4,2.3-0.8,3.4c-0.5,1.1-1.1,2.1-1.9,3.1c-0.8,0.9-1.7,1.8-2.8,2.4c-0.5,0.3-1.1,0.6-1.7,0.9c-0.3,0.1-0.6,0.3-0.9,0.3
			l-0.4,0.1l-0.2,0.1l-0.1,0l-0.1,0l0,0c0,0,0.1,0-0.1,0c-0.6,0.1-1,0.2-1.7,0.3c-0.7,0.1-1.3,0.1-1.9,0.1c-1.2-0.1-2.5-0.3-3.6-0.8
			c-1.1-0.4-2.2-1.1-3.1-1.8c-0.9-0.8-1.7-1.6-2.4-2.5c-1.3-1.8-1.9-4-2.1-5.9c-0.1-2.1,0.3-3.9,0.9-5.4c0.7-1.5,1.6-2.8,2.5-3.7
			c0.9-1,1.9-1.6,2.7-2.1c0.4-0.2,0.8-0.4,1.1-0.6c0.3-0.1,0.6-0.3,0.9-0.3C524.6,241.8,524.9,241.7,524.9,241.7z M524.9,241.7
			c0,0-0.3,0.1-0.7,0.2c-0.2,0.1-0.5,0.2-0.9,0.3c-0.3,0.1-0.7,0.3-1.1,0.6c-0.8,0.5-1.7,1.2-2.6,2.2c-0.8,1-1.6,2.3-2,3.8
			c-0.2,0.8-0.3,1.6-0.4,2.4c0,0.8,0.1,1.7,0.3,2.5c0.4,1.8,1.3,3.4,2.5,4.7c1.2,1.3,2.9,2.3,4.6,2.8c0.9,0.3,1.8,0.4,2.7,0.4
			c1,0,1.6-0.1,2.8-0.3c-0.2,0,0,0-0.1,0l0,0l0,0l0.1,0l0.2-0.1l0.3-0.1c0.2-0.1,0.4-0.1,0.6-0.2c0.4-0.2,0.8-0.4,1.2-0.6
			c0.8-0.5,1.5-1,2.2-1.7c1.3-1.3,2.2-2.9,2.6-4.7c0.2-0.9,0.3-1.8,0.3-2.6c0-0.4-0.1-0.9-0.1-1.4c-0.1-0.4-0.2-0.8-0.3-1.3
			c-0.5-1.7-1.4-3.1-2.5-4.3c-1.1-1.1-2.4-1.9-3.6-2.4c-1.2-0.5-2.4-0.6-3.3-0.7c-0.5,0-0.9,0-1.3,0c-0.4,0-0.7,0.1-0.9,0.1
			C525.1,241.6,524.9,241.7,524.9,241.7z"/>
	</g>
	<path class="st5" d="M178.4,287.9c0,0,19.2,4.5,17.4,27.9"/>
	<path class="st5" d="M103.9,225.9c0,0,12.9,3.4,12.6,17"/>
	<path class="st5" d="M220.3,225.9c0,0,12.9,3.4,12.6,17"/>
	<path class="st5" d="M311,297.4c0,0,7.4,1.6,6.3,11.4"/>
	<path class="st5" d="M297.4,338.1c0,0-3.1,14.3-23.8,11.2"/>
	<path class="st5" d="M404.8,345.4c0,0-3.1,14.3-23.8,11.2"/>
	<path class="st5" d="M376.1,223.7c0,0,13.3-2.8,19.2,7.6"/>
</g>
</svg>
