<?xml version="1.0" encoding="utf-8"?>
<!-- Generator: Adobe Illustrator 22.0.0, SVG Export Plug-In . SVG Version: 6.00 Build 0)  -->
<svg version="1.1" xmlns="http://www.w3.org/2000/svg" xmlns:xlink="http://www.w3.org/1999/xlink" x="0px" y="0px"
	 viewBox="0 0 612 612" style="enable-background:new 0 0 612 612;" xml:space="preserve">
<style type="text/css">
	.st0{fill:#41CECA;}
	.st1{fill:#FFFFFF;}
	.st2{display:none;}
	.st3{display:inline;fill:#636363;}
</style>
<g id="Layer_1">
	<path class="st0" d="M491.9,211.7c53.5,101,15,226.2-86.1,279.7s-226.2,15-279.7-86.1c-53.5-101-15-226.2,86.1-279.7
		C313.2,72.2,438.5,110.7,491.9,211.7"/>
	<path class="st1" d="M314.2,493.8c-18.6,0-37.4-2.9-55.8-8.9c-46.6-15-85.1-47.4-108.3-91.3c-47.9-90.6-15.1-202.2,73.1-249
		c88.3-46.7,199.1-11.1,247,79.5c23.2,43.9,28.4,93.9,14.6,140.9c-13.8,47-45,85.4-87.7,108C371.1,486.9,342.8,493.8,314.2,493.8z
		 M305.9,127.2c-27.6,0-55.5,6.5-81.3,20.2c-86.8,45.9-119,155.7-71.8,244.8c22.8,43.1,60.7,75,106.6,89.8
		c45.9,14.8,94.3,10.6,136.3-11.6c42-22.2,72.6-60,86.2-106.2c13.6-46.2,8.5-95.5-14.4-138.6C434.3,163.1,370.8,127.2,305.9,127.2z"
		/>
	<path d="M562.2,170.3C487.3,28.8,311.8-25.2,170.3,49.8S-25.2,300.2,49.8,441.7c74.9,141.5,250.4,195.5,391.9,120.6
		C583.2,487.3,637.2,311.8,562.2,170.3z M500.9,350.6c-7.4-1.8-15.1,1.2-19.3,7.5c-0.1,0.1-0.2,0.3-0.3,0.4c-2.1,0.6-4,1.5-5.8,2.8
		c-3.2-0.6-6.4-0.2-9.4,0.9c-5.8-2.1-11.1-0.6-13.7,0.4c-3.7-0.8-7.6-0.4-11.2,1c-5.3-7.2-8.7-15.6-10.4-25.2
		c-0.2-1.3-0.4-2.5-0.6-3.8c-0.6-4.3-1.3-9.1-3-14.2c-0.3-1-0.7-1.9-1.1-2.7c2.5-3.5,5.2-7,7.9-10.4c0.5,0.3,1,0.5,1.6,0.8
		c3.2,1.4,6.1,1.9,8.6,1.9c3.2,0,5.8-0.8,7.8-1.7c2.1-0.9,4.5-2.5,6.7-5c1.6-0.5,3.1-1.1,4.5-1.9c0.9,0.1,1.8,0.2,2.8,0.2
		c2.5,0,4.9-0.5,7.1-1.4c0.6,0.2,1.2,0.4,1.7,0.5c6.4,1.6,13-0.5,17.4-5.3c4.8,0.1,9.4-1.8,12.8-5.2c1.9,20.5,0.6,40.9-3.8,60.7
		C501.4,350.7,501.2,350.6,500.9,350.6z M451.2,171.8c-0.5-0.1-1.1-0.1-1.6-0.2c-33.9-3.7-69.1-1.5-114.2,7c-2.1,0.4-4,1-5.9,1.8
		c-1.8-0.7-3.9-1.1-6.1-1.2c-0.6-0.7-1.2-1.4-1.9-2.1l-3.8-3.9c-4.7-4.8-9.6-9.7-14.7-14.5c-18-16.9-39.5-27.9-65.7-33.8
		C312.2,95.5,396.8,115.2,451.2,171.8z M216,134.7c-2.9,6.5-1.7,14.3,3.3,19.5c0.6,0.7,1.3,1.3,1.9,1.9c-4,2.2-7,5.9-8.4,10.5
		l-0.3,1c-1.4,4.9-0.7,10.2,2.1,14.6c0.8,1.2,1.7,2.3,2.7,3.2c0,0.1-0.1,0.2-0.1,0.3c-1,3.1-1.3,6.3-0.8,9.3
		c-2.6,4.1-3.4,9-2.3,13.7c-1.2,1.8-1.9,3.6-2.3,5c-0.8,2.8-1.6,8,1.4,13.9c0.2,0.7,0.5,1.4,0.9,2.1c-22.7,18.8-43.3,41.1-61.3,67
		c-4.6,0.4-8.3,2.1-10.1,2.9c-11.3,5.1-21.6,11.3-30.7,17.1C109,243.5,147.1,171.5,216,134.7z M401.3,482.8
		c-80.7,42.7-177.5,23.8-236.8-40.1c-0.1-13.3,0.1-28.3,1.9-43.3c2.3-19.2,7.3-38,14-60.3c1.5-4.9,1.5-9.7,0.1-13.9
		c0.4-0.4,0.8-0.9,1.2-1.3c3.1-3.3,6.2-6.7,9.3-10.1c0.2-0.3,0.5-0.5,0.7-0.8c7.7,5,15.5,8.5,23.7,10.7c2.2,0.6,5.2,1.2,8.7,1.2
		c2,0,4.2-0.2,6.5-0.7c0.2,0,0.3-0.1,0.5-0.1c3.2,1.8,6.6,3.4,10.1,5c2,0.9,4,1.4,5.8,1.7c-3.5,2-6.9,4-10,6l-0.5,0.3
		c-4,2.6-9.6,6.1-14,12.4c-4.5,6.4-4.3,14.9,0.5,21.1c0.6,0.8,1.3,1.5,2,2.1c-2.3,6.5-0.6,13.9,4.6,18.8c4.6,4.4,11.1,5.9,17,4.2
		c3.2,2.6,7.2,3.9,11.1,3.9c3.4,0,6.8-1,9.8-3l2.2-1.5c3.2,1.5,6.8,2,10.1,1.5c0.7,0.4,1.4,0.8,2.1,1.1c5.1,2.3,10.8,2,15.6-0.5
		c4,0.5,8.1-0.4,11.6-2.6c5.7-3.6,8.8-8.2,10.6-11.3c1.7-2.8,3.4-5.7,5.3-8.4c4.4,2.8,8.9,4.3,12.5,5.3c1.6,0.4,3.2,0.7,4.8,0.7
		c4.3,0,8.5-1.6,11.7-4.4c11.5,11.8,24.3,22.5,38.2,32c5.8,4,12.3,8,19.9,10.7l0.2,0.1c1.6,0.6,4.7,1.7,8.9,1.7
		c1.3,0,2.6-0.1,4.1-0.4c9.2,5,18.9,8.8,29.1,11.4c2.4,0.6,4.8,1.1,7.1,1.5C445.5,453.2,425.3,470.1,401.3,482.8z"/>
	<g>
		<path class="st1" d="M549.8,220.9c-4-2.7-8.1-5.2-12.1-7.9c-8.9-6.2-18.3-11.4-28.8-14.6c-17.9-5.4-36.3-8.6-54.9-10.6
			c-36.7-4-72.9,0-109,6.8c-2.6,0.5-4.7,1.6-6.4,3.7c-5.3,6.3-9.5,13.3-12.6,21c-0.8,1.9-1.4,3.9-1.3,6c0,1.8,0.6,3.3,2.9,2.7
			c0.8-0.2,1.7-0.1,2.6-0.2c7.9-0.6,15.8-1.1,23.8-1.7c0.2,0.3,0.3,0.6,0.5,0.8c-13.9,9.6-29.6,17.1-37.8,33.5
			c5.8-3.2,11.2-6.3,16.7-9.2c5.4-2.9,10.9-5.6,17.1-7.5c-0.5,2.1-1.4,3.3-2.7,4.1c-4,2.6-5.2,6.5-5.1,11c0.1,6.6,1.4,13,3,19.4
			c3.4,13.5,7.9,26.6,14,39.1c1.8,3.6,1.8,3.6,4.2,0.6c4.5-5.5,8.9-11,13.4-16.5c4.4-5.4,9.3-10.4,15.2-14.3c1.1-0.7,2.2-1.8,4-1.1
			c-11.1,11.5-21.6,23.1-26.8,38.4c4.7-4.7,9.2-9.5,13.3-14.7c11.9-15,27.2-25.7,43.4-35.2c2.3-1.3,4.7-2.8,8.1-2.5
			c-1.1,1.1-1.9,1.9-2.8,2.7c-5.1,4.7-10,9.4-15.2,13.9c-15,13.1-27.1,28.4-35.1,46.7c-1.4,3.2-3.1,6.2-5.3,9
			c-1.4,1.8-2.3,2.1-3.8-0.1c-6.2-9.4-12.5-18.7-18.8-28c-4-5.8-7-12-8.9-18.9c-2.8-10.1-6.4-20-9.8-29.9c-0.4-1.2-0.6-2.6-1.9-3.6
			c-2.7,2.6-5.5,5.2-8.2,7.9c-3.4,3.4-4.2,7.4-2.7,12c2.2,6.7,5.3,12.9,8.5,19.1c18.2,36.5,44,66.4,77.8,89.3
			c5,3.4,10.1,6.6,15.8,8.6c1.4,0.5,2.8,1.1,4.8,0.6c-3.1-2.3-5.8-4.3-8.5-6.3c-12.1-8.8-23-18.7-30.4-32c-1.6-2.9-2.1-5.6-0.3-8.6
			c1.2-2,2-4.1,3-6.2c16.1-34,38.2-63.4,66.6-88.1c19.4-16.9,41.5-28.3,66.8-33.6c7.4-1.5,14.9-2.4,22.4-2.6c1,0,2.4,0.2,2.7-1.2
			C551.9,221.6,550.6,221.4,549.8,220.9z"/>
		<path class="st1" d="M538.2,377.7c-1.8,3-4,5.7-6.5,8.2c-18.6,18.9-48.7,23.2-72.5,9.4c-21.4-12.4-35.2-30.6-39.4-55.5
			c-0.9-5.2-1.3-10.4-2.9-15.4c-0.7-2.2-1.4-3.4-3.5-0.9c-7.6,8.8-12.8,19-17.3,29.6c-1.6,3.8-0.8,7.5,1.6,10.9
			c4.1,5.9,8.6,11.6,13.6,16.8c15,15.8,32.8,27.2,54,32.5c30.2,7.5,57.2-3.7,73.4-29.7c2-3.1,3.9-6.3,4-10.8
			C540.3,374.1,539.3,375.9,538.2,377.7z"/>
		<path class="st1" d="M209.2,274.2c3.5-3.4,7.1-6.7,11.4-9.3c20.7-12.3,41.4-24.7,62.1-37c3.2-1.9,6.6-3.3,10.3-4.2
			c6.7-1.5,13.4-3,20.1-4.6c2.5-0.6,5.2-1.5,6.7-3.7c3.4-4.9,5.6-10.6,9.6-15.1c0.9-1,1.6-3.1,0.8-4.3c-0.8-1.3-2.6,0-3.9,0.1
			c-0.5,0-1.1,0.2-1.6,0.2c-15.1,2-29.7,5.9-43.4,12.9c-45.9,23.8-82,58.4-110.7,101c-1.1,1.6-2.2,3.3-1.2,6.2c2.1-2.2,4-4,5.8-5.9
			C186.4,298.2,197.3,285.7,209.2,274.2z"/>
		<path class="st1" d="M517.1,252.2c0.3-0.6,0.5-1.2,0.7-1.8c1.4-4.4,2.8-8.8,4.2-13.2c0.5-1.7,1-3.3,1-5.3c-1,0.4-1.8,0.7-2.6,1
			c-12.3,5.6-24.6,11.1-36.9,16.8c-4.5,2.1-9.3,3.5-13.2,6.8c-9.6,8-18.2,17-25.7,27c-2.5,3.4-2.4,3.4,1.4,5.1
			c1.1,0.5,2.1,1.2,3.2,1.7c2.1,0.9,2.8,0.4,3.6-1.7c1-2.9,1-6.2,2.9-9.2c0.9,1.4,1.7,2.6,2.5,3.8c0.5,0.8,1,1.8,2.1,1.6
			c1.2-0.3,1.7-1.1,2-2.4c1-5.2,3.4-10.1,3.6-16c4.5,4.7,3.8,10.9,6.9,15.9c5-7.5,6.2-15.9,8-24.3c1.6,7.8,3.2,15.5,5,23.8
			c4.1-5,5.7-10.5,6.7-16.2c1.1-5.6,1.1-11.4,1.7-17.6c4,9.3,5.8,18.3,5,27.9c4.6-10.9,10.1-21.2,11.5-33.1c1.1,3.1,1.7,6.2,2.4,9.2
			c0.3,1,0,2.7,1.3,2.7C515.9,254.8,516.5,253.3,517.1,252.2z"/>
		<path class="st1" d="M479.4,389.4c-0.1-4.1-0.3-7.9-0.4-12.1c-4,2.8-7.6,5.3-11.6,8.1c-0.1-2.1-0.2-3.9-0.3-5.6
			c-0.1-2.7-0.1-2.8-2.7-1.8c-2.8,1.1-5.6,2.1-8.7,0.6c-0.6-0.3-1.4-0.2-2.2,0.4c1.7,2.3,3.3,4.6,5.2,6.7
			c15.9,16.6,36.4,18.4,54.8,4.7c0.7-0.5,1.6-0.8,1.5-1.9c-0.4-4.9-0.9-9.7-1.3-15c-2.9,4.8-4.9,9.6-9,13.5
			c-0.6-7-1.2-13.7-1.7-20.7c-1.1,1.7-1.2,1.8-1.3,3c-0.7,5.8-3.2,10.9-6.5,15.7c-0.8,1.2-1.8,2.4-3.5,2.9c0.3-4.6,0.5-8.9,0.8-13.7
			C488.1,379.4,485.6,385.8,479.4,389.4z"/>
		<path class="st1" d="M281.1,204c10.9-3.6,21.9-6.9,32.8-10.4c3.5-1.1,4-3.1,1.5-5.6c-6-6-11.9-12.1-18.1-18
			c-16.5-15.5-36.1-24.8-58.5-29.7c2.6,2.8,5.6,4.3,8.6,5.9c11.5,6.3,21.8,14,30.9,23.5c0.9,1,2.2,2.2,1.8,3.3
			c-0.5,1.4-2.3,0.6-3.5,0.5c-12.6-1.2-25.2-2.4-37.8-3.5c-0.7-0.1-1.5,0-2.2,0c-0.1,0.3-0.2,0.6-0.3,1c15.9,2.3,29.4,9.7,42.1,18.8
			c-9.4-2.8-18.7-5.7-28-8.8c-2.4-0.8-4.4-0.9-6.9,1.1c5.3,1.4,9.6,3.9,13.8,6.6c6.6,4.2,12.6,9.4,18.8,14.3
			C277.5,204.3,278.9,204.8,281.1,204z"/>
		<path class="st1" d="M303.3,245.5c6.5-3.2,12.9-6.9,20-8.8c1.5-0.4,2.5-1,2.1-2.6c-0.5-1.8-1.8-0.7-2.7-0.5
			c-6.6,1.4-13.2,2.9-19.8,4.5c-2.4,0.6-3.6,0.4-4-2.3c-0.5-2.7-1.9-3.9-4.9-2.8c-3.3,1.2-6.6,2.4-10,3c-3.8,0.7-4.8,2.7-4.8,6.3
			c-0.1,10,2.3,19.5,5.8,31.2c2.2,7.6,6,17.1,10.3,26.4c2.4,5.2,4.9,10.5,8.3,15.2c3.4,4.5,5.6,5.1,10.6,2.8
			c0.6-0.3,1.2-0.7,1.8-0.8c2.2-0.5,2.4-1.7,1.6-3.6c-2.1-4.8-3.8-9.8-6-14.5c-6.6-14.1-10.2-28.9-12.2-44.3
			C298.8,250.7,299.4,247.4,303.3,245.5z"/>
		<path class="st1" d="M167.5,327.2c-3.9-1.7-4.8-3.5-4.3-7.7c0.8-6.9-0.5-8.1-6.8-5.2c-11.1,5.1-21.6,11.4-31.9,18
			c-1.3,0.8-2.3,1.9-2.4,3.1c6.9-2.1,13.9-4.1,20.8-6.3c2.6-0.9,4.9-0.8,7.6,0.3c-6.3,7.8-13.7,14.5-15.9,25
			c7-4.6,12-11.3,19.7-14.8c-0.8,6-1.2,11.7-2.5,17.3c-6.9,29.5-6,59.1-1.4,88.7c0.3,1.8,1,3.3,2.7,4.5c0-1.3,0-2.3,0-3.4
			c-0.3-17-0.1-34,1.9-51c2.6-21.7,8.4-42.6,14.7-63.4C170.8,329.6,170.1,328.3,167.5,327.2z"/>
		<path class="st1" d="M299.8,322.4c-1.2-3.7-3.1-6.4-5.1-9c-6-7.9-10.4-16.6-13.6-25.9c-4.7-13.4-8-27.2-10.8-41.1
			c-0.8-4-0.1-4.6-5.6-3.1c-0.4,0.1-0.8,0.3-1.2,0.4c-10.1,3.7-11.2,5.6-8.4,16c5.5,20.1,15.5,37.8,29.4,53.3
			C288.5,317.4,293.6,320.2,299.8,322.4z"/>
		<path class="st1" d="M278.3,313.7c-14.3-13.7-24.6-29.9-30.1-49c-0.7-2.4-1.3-4.8-2.1-7.2c-0.6-1.8-1.9-2.9-3.8-1.9
			c-3.6,1.9-7,4-9.5,7.3c-1,1.3-1.1,2.4-0.1,3.8c2.7,3.9,4.9,8.2,7.1,12.5c9.6,19,24.7,32,43.9,40.6
			C282.3,317.4,280.3,315.6,278.3,313.7z"/>
		<path class="st1" d="M258,311.1c0.9-0.7,1.2-1.1,0.2-2c-3-2.6-5.5-6-9-8c-4-2.3-7-5.5-9.7-9.1c-4.6-5.8-7.9-12.5-11.8-18.8
			c-2.7-4.4-2.7-4.4-6.5-1.2c-1.4,1.1-2.7,2.2-4.1,3.3c-0.8,0.6-1.5,1.3-0.9,2.5c0.7,1.2,1.3,2.5,2,3.7
			c9.1,13.6,21.6,23.1,36.5,29.6C255.8,311.7,256.9,312.1,258,311.1z"/>
		<path class="st1" d="M262.3,214.3c2.8-1.4,5.7-2.8,8.5-4.1c3.8-1.8,3.9-1.9,0.8-5c-7-6.9-15.3-11.5-24.5-14.6
			c-2.1-0.7-4.4-0.7-6.6-0.7c-0.3,0.8,0.1,1.3,0.5,1.6c7,6.8,13.5,14.2,18.8,22.5C260.5,215.1,261.3,214.8,262.3,214.3z"/>
		<path class="st1" d="M210.7,285.1c-0.7-0.9-1.6-0.6-2.4-0.2c-1.7,0.8-3.1,2-4.3,3.5c-1.9,2.6-1.8,4.4,0.9,6.3
			c6.5,4.7,13.6,8.3,21.4,10.4c2.1,0.6,4.2,0.9,6.6,0.4c-0.1-0.4-0.1-0.5-0.2-0.6C224.8,298.9,217,292.8,210.7,285.1z"/>
		<path class="st1" d="M149,353.3c0.7-0.9,1-1.9,0.5-3.1c-0.8-2.3-2.6-2.4-4.5-0.4c-3.1,3.3-5,7.5-7.4,11.3
			c-3.5,5.8-5.7,12.3-8.6,18.5c-1.7,3.7-3.7,7.3-3.8,11.5c0,0.7-1.6,1.6-0.2,2.1c1.2,0.5,2.1-1.1,2.2-1.8c0.4-2.4,1.4-4.4,2.7-6.2
			c4.6-6.6,7.3-14.2,12-20.8C144.6,360.9,146.4,356.8,149,353.3z"/>
		<path class="st1" d="M255.6,217.9c2.1-1.3,1.5-2.7,0.3-4.3c-4.4-5.8-11.1-7.6-18.1-10.6c3.4,6.4,7.9,11.1,11.4,16.3
			C251.2,222.2,253.7,219.2,255.6,217.9z"/>
		<path class="st1" d="M143.5,333.5c-0.9-1.2-1.8,0-2.6,0.4c-8.5,4-14.8,10.8-21.8,16.7c-1.1,1-2.1,2.2-2.3,3.8
			c0.8,0.1,1.2-0.4,1.7-0.7c8.8-4.9,15.9-12.1,23.8-18.2C143,335.1,144.5,334.8,143.5,333.5z"/>
		<path class="st1" d="M239.9,227c0.4,0.8,0.9,1.2,1.8,0.7c1-0.6,2.2-1,3.2-1.6c3.1-1.9,3.1-2.8,0.4-5.4c-0.6-0.6-1.3-1.2-1.7-1.9
			c-1.6-3-3.7-3.8-6.6-2.7c-3.6,1.3,0.5,2.9-0.3,4.3C237.7,222.5,238.8,224.8,239.9,227z"/>
		<path class="st1" d="M348.8,361.7c-2.9-4.2-5-8.9-9.4-11.8c-1.2-0.8-2.8-1.5-3.9-0.5c-1.2,1.1-0.3,2.7,0.4,3.9
			C338.8,358.1,343.6,360.2,348.8,361.7z"/>
		<path class="st1" d="M242.4,532.6c0.4-0.4,0.8-0.7,1.2-1.1c0.4-0.4,0.8-0.7,1.3-1c1.3,0.5,2.6,0.9,3.9,1.4
			c1.3,0.4,2.6,0.9,3.9,1.4c2.7,1,5.1,1.9,7.3,2.8c2.2,0.9,4.2,1.7,6.1,2.5c0.6,0.3,1.2,0.2,1.7-0.2c0.5-0.4,0.8-1,1.1-1.8
			c0.2-0.8-0.1-1.3-0.8-1.7c-2.1-0.6-4.4-1.4-6.9-2.2c-2.5-0.8-5.2-1.8-8.2-2.8c-0.9-0.3-1.7-0.6-2.5-0.9c-0.8-0.3-1.6-0.6-2.4-0.9
			c1.9-1.7,3.6-3.2,5.3-4.4c1.7-1.2,3.3-2.3,4.9-3.2c0.6-0.4,1-0.8,1-1.3c0-0.5-0.3-1.2-0.8-1.9c-0.5-0.8-1.2-1-1.9-0.9
			c-3,0.7-6,1.4-8.8,2.1c-2.8,0.7-5.6,1.3-8.3,2c-2.7,0.6-5.3,1.3-7.9,1.8c-2.5,0.6-5,1.1-7.4,1.6c-0.9-1.5-1.5-2.8-1.9-3.9
			c-0.4-1.1-0.5-2-0.2-2.9c0.8-1.7,2.3-3,4.6-3.9c2.3-0.8,4.7-1.2,7.3-1.2c1.3,0,2.4,0.1,3.5,0.1c1.1,0.1,2,0.2,2.8,0.5
			c0.8,0.1,1.5-0.2,1.9-1.1c0.5-0.9,0.7-1.8,0.6-2.7c0-1-0.4-1.6-1.1-1.8c-1.3-0.3-2.7-0.4-4.1-0.5c-1.4-0.1-3-0.1-4.7,0
			c-3.3,0.2-6.3,1-9,2.2c-2.8,1.2-4.7,2.9-5.7,5.3c-0.7,1.8-0.7,3.6-0.1,5.4c0.3,0.9,0.6,1.8,1,2.6c0.4,0.9,0.8,1.7,1.3,2.5
			c0,0,0.1,0.1,0.1,0.2c-4.6,1.2-8.6,2.4-12,3.6c-3.4,1.2-6.2,2.5-8.5,3.8c-4.5,2.6-7.3,5-8.3,7.4c-0.9,2.3-0.5,4.3,1.2,5.9
			c1.8,1.6,4.4,2.6,8,2.9c3.6,0.4,7.6-0.1,12.1-1.4c3.3-1,6.2-2.3,8.7-3.9c2.5-1.6,4.3-3.7,5.2-6.4c0.9-2.7,0.4-5.9-1.4-9.8
			c3-0.7,6.5-1.5,10.4-2.4c3.9-0.9,8.4-2,13.3-3.1c-1,0.9-2,1.8-3,2.7c-1,0.9-1.9,1.7-2.8,2.5c-1-0.4-2-0.8-3-1.1
			c-1-0.4-1.9-0.7-2.8-1.1c-0.5-0.1-1,0.1-1.4,0.7c-0.4,0.5-0.6,1-0.7,1.6c0,0.5,0.2,0.9,0.6,1.2c0.7,0.2,1.5,0.5,2.2,0.7
			c0.7,0.2,1.4,0.5,2.2,0.7c-0.8,0.8-1.7,1.6-2.6,2.5c-0.9,0.9-1.8,1.8-2.8,2.8c-2.7,2.8-5.5,5.7-8.4,8.8c-2.9,3.1-5.9,6.3-9,9.7
			c-0.5,0.7-0.6,1.2-0.3,1.7c0.2,0.5,0.7,1,1.5,1.4c0.8,0.4,1.5,0.6,2,0.6c0.5,0,0.8-0.2,1-0.6c1.5-2.6,4.1-6,7.7-10.2
			c1.8-2.1,3.8-4.3,5.9-6.5C237.7,537.1,239.9,534.8,242.4,532.6z M222,535.9c-1.6,2.3-4.1,4.1-7.5,5.3c-3.4,1.2-6.7,1.9-10,2.1
			c-3.4,0.2-5.8-0.2-7.2-1c-1.5-0.8-1.3-2.2,0.7-4.2c3.3-2.8,7.2-5,11.7-6.7c2.3-0.9,4.5-1.7,6.5-2.3c2-0.6,3.9-1.2,5.6-1.6
			C223.6,530.9,223.7,533.7,222,535.9z"/>
		<path class="st1" d="M136.3,476.6c-2.7,1.5-3.7,4.9-2.2,7.6s4.9,3.7,7.6,2.2c2.7-1.5,3.7-4.9,2.2-7.6
			C142.4,476.1,139,475.1,136.3,476.6z"/>
		<path class="st1" d="M511,435.9c-2.7,1.5-3.7,4.9-2.2,7.6s4.9,3.7,7.6,2.2c2.7-1.5,3.7-4.9,2.2-7.6
			C517.1,435.4,513.7,434.4,511,435.9z"/>
		<path class="st1" d="M82.1,211.2c-2.7,1.4-3.8,4.8-2.3,7.5c1.4,2.7,4.8,3.8,7.5,2.3c2.7-1.4,3.8-4.8,2.3-7.5
			C88.2,210.8,84.8,209.8,82.1,211.2z"/>
		<path class="st1" d="M464.3,125.2c-2.7,1.4-3.8,4.8-2.3,7.5c1.4,2.7,4.8,3.8,7.5,2.3c2.7-1.4,3.8-4.8,2.3-7.5
			C470.4,124.8,467.1,123.8,464.3,125.2z"/>
		<path class="st1" d="M120.8,193c1.5-1.6,3.4-3,5.6-4.1l0-0.1c-0.3-1.5-0.8-2.8-1.5-4c-0.7-1.1-1.6-2-2.7-2.5
			c-0.9-0.5-1.9-0.6-3-0.4c-1.1,0.2-2.3,0.7-3.6,1.7c-1.3,1-2.6,2.5-3.9,4.5c-1.4,2-2.8,4.5-4.2,7.6c-2.2-2.3-4.4-5-6.6-7.9
			c-1.9-2.5-3.9-5.5-6-8.9c-2.1-3.4-4-7.3-5.8-11.5c-0.6-1.3-1.3-2.2-2.1-2.7c-0.8-0.5-1.7-0.7-2.6-0.6c-0.9,0.1-1.7,0.3-2.5,0.8
			c-0.8,0.5-1.5,0.9-2.1,1.5c-0.4,0.4-0.3,1.4,0.2,3.1c0.5,1.7,1.3,3.9,2.5,6.4c1.2,2.5,2.6,5.2,4.2,8.2c1.7,3,3.4,5.9,5.3,8.7
			c1.9,2.8,3.8,5.5,5.8,7.8c2,2.4,3.8,4.2,5.6,5.5c0.1,0.1,0.1,0.3,0.1,0.7c0,0.4-0.1,0.9-0.3,1.5c-0.2,0.9-0.4,1.5-0.4,1.9
			c0,0.3,0.2,0.7,0.5,1.1c0.4,0.5,1,0.9,1.6,1.2c0.6,0.4,1.2,0.6,1.9,0.9c0.6,0.2,1.3,0.4,1.8,0.4c0.6,0,1.1,0,1.4-0.2
			c0.5-0.2,0.9-0.8,1.3-1.8c0.4-1,0.8-2.2,1.2-3.6c0.5-1.4,1-3,1.7-4.8c0.7-1.8,1.5-3.5,2.6-5.3C117.9,196.2,119.2,194.6,120.8,193z
			"/>
		<path class="st1" d="M105.7,149.4c-0.7,2.3-0.8,4.7-0.5,7.2c0.3,2.5,1,4.9,2,7.3c1,2.4,2.3,4.6,3.9,6.8c1.6,2.2,3.4,4.1,5.4,5.7
			c1.6,1.4,3.2,2.6,5,3.6c1.7,1,3.5,1.7,5.2,2.1c1.8,0.5,3.5,0.6,5.2,0.5c1.7-0.1,3.3-0.6,4.9-1.4l0.1,0c2.1-1.2,3.7-2.8,4.9-4.9
			c1.3-2.4,1.9-5.3,1.9-8.6c-0.1-3.3-0.7-6.7-1.8-10.2c-1.1-3.5-2.7-6.9-4.7-10.2c-2-3.3-4.4-6.2-7-8.7c-2.4-2.3-4.8-3.9-7.1-5
			c-2.3-1.1-4.5-1.7-6.6-1.8c-2.1-0.1-4,0.2-5.7,1c-1.7,0.8-3.2,1.9-4.5,3.3c-1.3,1.7-2.3,3.6-2.8,5.9c-0.6,2.3-0.6,4.8-0.2,7.6
			L105.7,149.4z M110.2,144.5c0.2-0.8,0.6-1.6,1.1-2.5c0.5-0.9,1.2-1.6,2.2-2c0.9-0.4,2.1-0.4,3.5-0.1c1.4,0.4,3.1,1.4,5.1,3.2
			c2,1.8,3.8,3.8,5.4,6.1c1.6,2.3,2.9,4.7,3.9,7.1c1,2.4,1.7,4.7,2.1,6.9c0.4,2.2,0.4,4.1,0,5.6c-0.5,1.8-1.3,2.8-2.6,3.1
			c-1.2,0.3-2.6,0.1-4.1-0.7c-1.5-0.8-3.1-2-4.7-3.6c-1.6-1.6-3-3.5-4.2-5.6c-1.2-2.1-2.1-4.3-2.8-6.6c-0.6-2.3-0.7-4.5-0.3-6.5
			l-0.1-0.1c0.1-0.5,0-1-0.2-1.4c-0.3-0.4-0.7-0.7-1.2-1c-0.5-0.3-1-0.5-1.7-0.6c-0.6-0.1-1.2-0.2-1.7-0.3c-0.1,0.7-0.2,0.9-0.2,0.5
			C109.8,145.9,109.9,145.3,110.2,144.5z"/>
		<path class="st1" d="M134.3,134.6c0.6,1.7,1.5,3,2.6,3.9c1.2,0.9,2.6,1.4,4.4,1.6c1.8,0.1,3.9-0.1,6.5-0.8c0.9-0.3,2-0.6,3.2-1.2
			c1.2-0.5,2.5-1,3.6-1.5c1.2-0.5,2.2-0.8,3.1-1.2c0.9-0.3,1.5-0.3,1.7-0.1c0.6,0.6,0.9,1.8,0.8,3.5c0,1.7-0.3,3.4-0.9,5.1
			c-0.6,1.7-1.3,3.2-2.3,4.4c-1,1.2-2.1,1.7-3.4,1.5c-0.9-0.1-1.5-0.6-1.8-1.4c-0.3-0.8-0.5-1.6-0.6-2.3c-0.1-0.8-0.4-1.4-0.6-1.9
			c-0.3-0.5-0.8-0.6-1.7-0.4c-1.4,0.5-2.6,1.1-3.4,2c-0.8,0.8-1.4,1.7-1.7,2.7c-0.3,1-0.3,2,0,3.1c0.2,1.1,0.7,2,1.4,2.9
			c0.6,0.8,1.4,1.5,2.3,2.1c0.9,0.6,2,1,3.2,1.2c1.2,0.2,2.5,0.2,4,0c1.5-0.2,3-0.8,4.6-1.6c2.4-1.3,4.3-2.8,5.8-4.6
			c1.4-1.7,2.5-3.4,3.2-5.4c0.7-1.9,1-3.8,1.1-5.7c0-1.9-0.2-3.7-0.8-5.4c-0.6-1.7-1.4-3.1-2.5-4.4c-1.1-1.2-2.5-2.1-4.2-2.6
			c-1.7-0.5-3.6-0.6-5.7-0.1l-0.1,0c-1.2,0.2-2.3,0.6-3.4,1.1c-1.1,0.5-2.2,1-3.2,1.4c-1,0.4-1.9,0.7-2.7,0.9c-0.8,0.2-1.5,0-2-0.4
			c-0.6-0.5-1-1.3-1.2-2.5c-0.3-1.2-0.4-3-0.3-5.4c0.1-1.7,0.3-3.6,0.8-5.8c0.5-2.2,1.3-4.5,2.5-6.9c0,0,0.1,0.2,0.5,0.6
			c0.3,0.4,0.7,1,1.1,1.9c0.4,0.8,0.7,1.9,1,3.1c0.3,1.2,0.3,2.5,0.2,4c-0.1,0.8-0.1,1.4-0.1,1.9c0,0.5,0.1,0.9,0.3,1.2
			c0.2,0.3,0.4,0.6,0.8,0.7c0.3,0.2,0.8,0.3,1.3,0.4c1.8,0.4,3.2,0.3,4.2-0.3c1-0.6,1.6-1.5,1.9-2.7c0.3-1.2,0.4-2.5,0.2-4
			c-0.2-1.5-0.6-3-1.1-4.5c-0.5-1.5-1.1-2.9-1.8-4.2c-0.7-1.3-1.3-2.2-1.9-2.8c-2.2-2.4-4.5-3.6-7.1-3.6c-2.6-0.1-4.9,0.9-7,2.9
			c-2.2,2.1-3.9,5.1-5.1,9.1c-1.2,4-1.6,8.9-1,14.7C133.3,130.9,133.7,132.9,134.3,134.6z"/>
		<path class="st1" d="M182.9,105c0.4,3.4,1,6.7,1.7,9.7c0.7,3.1,1.6,5.7,2.6,7.8c0.9,1.8,1.9,3.2,3.1,4.1c1.2,0.9,2.5,1.2,4,0.9
			c0.8-0.2,1.4-0.3,1.8-0.4c0.4-0.1,0.7-0.3,0.8-0.6c0.1-0.3,0.1-0.8-0.1-1.3c-0.2-0.6-0.4-1.4-0.8-2.5c-0.3-1.1-0.7-2.5-1.2-4.3
			c-0.5-1.7-0.9-3.9-1.4-6.4c-0.2-1.3-0.5-2.8-0.8-4.7c-0.3-1.9-0.5-3.7-0.8-5.4c-0.2-1.7-0.4-3.2-0.6-4.4c-0.1-1.2-0.2-1.8-0.1-1.8
			c0.3,0.1,0.7,0.7,1.2,1.7c0.5,1,1.1,2.1,1.8,3.5c0.7,1.4,1.5,2.8,2.3,4.2c0.9,1.4,1.8,2.7,2.9,3.8c1.1,1.1,2.2,1.8,3.4,2.3
			c1.2,0.4,2.4,0.3,3.8-0.4c0.6-0.3,0.9-0.6,1-0.9c0.1-0.3,0.1-0.9,0-1.9c-0.1-1.2-0.1-2.8,0-4.6c0.1-1.9,0.2-3.9,0.4-6
			c0.2-2.1,0.4-4.2,0.7-6.3c0.3-2.1,0.5-4,0.8-5.7c0.3-1.7,0.5-3.1,0.7-4.2c0.2-1.1,0.3-1.7,0.4-1.7c0,0,0,0.7,0.1,2.1
			c0.1,1.4,0.2,3.2,0.4,5.4c0.2,2.2,0.4,4.6,0.6,7.2c0.3,2.6,0.5,5.1,0.8,7.5c0.3,2.4,0.6,4.5,1,6.3c0.3,1.9,0.7,3.1,1,3.8
			c0.5,0.9,1.2,1.5,2.3,1.7c1.1,0.2,2.9-0.2,5.6-1.1l-1.4-9.4c-0.6-4.3-1.1-8.5-1.5-12.5c-0.4-4-0.8-7.7-1.2-11.2
			c-0.4-3.4-0.9-6.4-1.4-9.1c-0.5-2.6-1.2-4.7-2.2-6.2c-0.8-1.3-1.8-2.1-3-2.4c-1.2-0.3-2.7,0-4.5,0.9c-1.4,0.7-2.5,1.6-3.2,2.7
			c-0.3,0.6-0.7,1.7-1.2,3.3c-0.5,1.6-0.9,3.6-1.4,6.1c-0.4,2.5-0.8,5.3-1.2,8.5c-0.4,3.2-0.6,6.7-0.7,10.5c0,0-0.3-0.5-0.7-1.4
			c-0.5-0.9-1.1-2.1-1.8-3.5c-0.7-1.4-1.6-2.9-2.5-4.5c-0.9-1.6-1.8-3.1-2.7-4.5c-0.9-1.4-1.7-2.6-2.5-3.6c-0.8-1-1.4-1.5-1.9-1.7
			l0.1-0.1c-1.1-0.3-2-0.5-2.7-0.5c-0.7,0-1.5,0.4-2.2,1.2c-0.3,0.3-0.5,1.4-0.7,3.3c-0.2,1.9-0.3,4.2-0.3,7c0,2.8,0,5.9,0.2,9.4
			C182.2,98.1,182.5,101.6,182.9,105z"/>
		<path class="st1" d="M228.3,109c0.8,0.9,2,1.6,3.6,2l-0.1,0.2c1.1,0.3,1.8,0.3,2.1,0.2c0.3-0.1,0.6-0.7,0.7-1.6
			c0.1-0.9,0.3-2.4,0.5-4.4c0.2-2,0.7-4.6,1.5-8c0.1-0.5,0.2-1,0.4-1.6c0.2-0.6,0.6-1.2,1.4-1.9c0.8-0.7,2.1-1.5,4-2.3
			c1.9-0.8,4.6-1.8,8.1-2.8c0,0.1-0.1,0.5-0.2,1.2c-0.2,1-0.4,2.1-0.8,3.6c-0.4,1.4-0.8,3-1.4,4.7c-0.6,1.7-1.2,3.2-2,4.5
			c-0.4,0.7-0.7,1.1-0.8,1.4c-0.1,0.3-0.2,0.6-0.1,1c0.1,0.7,0.4,1.4,0.9,2c0.4,0.7,1.1,1.1,1.9,1.4c1.3,0.4,2.5,0.4,3.5-0.1
			c1.5-0.7,2.8-2.2,3.8-4.4c1.1-2.2,1.9-4.9,2.6-7.9c0.7-3.1,1.2-6.3,1.6-9.9c0.4-3.5,0.6-6.9,0.7-10.2c0.1-3.3,0.1-6.2,0-8.9
			c-0.1-2.7-0.2-4.7-0.5-6.1c-0.7-4.4-1.7-7.4-3.1-9.1c-1.4-1.7-3-2.3-4.8-1.9c-1.9,0.4-3.8,1.7-5.9,3.9s-4.2,4.9-6.2,8.1
			c-2.1,3.3-4,6.9-5.8,10.8c-1.8,4-3.4,7.9-4.6,11.9c-1.3,3.9-2.2,7.7-2.8,11.2c-0.6,3.5-0.6,6.5-0.1,9
			C226.9,106.7,227.5,108.1,228.3,109z M243.4,76.4c0.8-1.9,1.6-3.8,2.5-5.7c0.9-1.9,1.8-3.8,2.8-5.6c1-1.8,2-3.5,3-4.9l0,0.1
			c0.3,1.6,0.5,3.1,0.6,4.6c0.1,1.4,0.1,2.9,0.1,4.3c0,1.4-0.1,2.9-0.2,4.5c-0.1,1.5-0.3,3.2-0.4,5.1c-0.1,0-0.4,0.1-1,0.2
			c-0.6,0.1-1.4,0.3-2.4,0.5c-1,0.2-2.1,0.5-3.3,0.9c-1.2,0.4-2.5,0.8-3.8,1.3C242,80,242.7,78.2,243.4,76.4z"/>
		<path class="st1" d="M263.8,58.4c0.5,0.6,1,1.1,1.5,1.5c0.3,0.2,0.5,0.4,0.7,0.4s0.4,0.1,0.7,0c0.3-0.1,0.8-0.2,1.3-0.4
			c0.6-0.2,1.4-0.5,2.4-1c-0.4,1.3-0.9,3.1-1.5,5.4c-0.6,2.3-1.1,4.6-1.7,7c-0.5,2.4-1,4.6-1.5,6.6c-0.4,2-0.8,3.5-0.9,4.3
			c-0.8,4.1-1.3,7.4-1.6,9.8c-0.3,2.4-0.3,4.3,0.1,5.8c0.3,1.4,1,2.5,2.1,3.1c1,0.7,2.5,1.3,4.4,1.8l-0.1,0.1
			c0.9,0.3,1.6,0.4,1.9,0.4c0.3,0,0.5-0.3,0.6-0.9c0.1-0.6,0.1-1.4,0.1-2.6c0-1.2,0.1-2.8,0.3-4.9c0.1-1.4,0.7-2.3,1.8-2.7
			c1-0.3,2.3-0.4,3.8,0c1.5,0.3,3.1,0.8,4.9,1.6c1.7,0.8,3.3,1.5,4.8,2.3c1.5,0.8,2.7,1.5,3.7,2.1c1,0.6,1.5,0.9,1.6,0.9
			c0.4-0.1,0.8-0.2,1.3-0.4c0,0.6,0.2,1.2,0.5,1.7c0.3,0.6,0.6,0.9,1,0.8c2.2-0.7,4.4-1.4,6.6-2c1.9-0.5,3.8-1,5.9-1.5
			c2-0.5,3.8-0.8,5.4-0.9c1.7-0.1,3.1-0.2,4.3-0.1c1.2,0.1,2.2,0.1,3,0.2c0.9,0.1,1.7,0.3,2.3,0.5c0.3,0,0.7-0.3,1.1-0.9
			c0.4-0.6,0.6-1.3,0.6-2.2c0-0.5-0.2-1.1-0.6-1.6c-0.3-0.6-0.9-1.1-1.7-1.6c-0.8-0.5-1.9-0.9-3.2-1.3c-1.4-0.4-3-0.7-5.1-0.8
			c0.2-1.6,0.6-4,1.4-7c0.7-3,1.7-6.4,2.8-10.1c1.1-3.7,2.4-7.5,3.7-11.5c1.4-4,2.7-7.8,4.1-11.4c2.5,0.1,4.6,0.3,6.1,0.6
			c0.8,0.1,1.6,0.3,2.2,0.4c0.3,0,0.6-0.4,1.1-1.2c0.5-0.8,0.6-1.6,0.5-2.6c-0.1-0.7-0.3-1.3-0.8-2c-0.4-0.6-1.2-1.2-2.2-1.6
			c-1-0.5-2.4-0.8-4.1-1c-1.7-0.2-3.8-0.2-6.3,0c-3.5,0.3-6.4,0.9-8.7,1.7c-2.2,0.8-4,1.7-5.2,2.7c-1.3,1-2.1,2.1-2.6,3.2
			c-0.4,1.1-0.7,2.1-0.6,3c0,0.9,0.2,1.6,0.5,2.2c0.3,0.6,0.7,0.8,1,0.8l0,0.1c0.1,0,0.4-0.2,1.1-0.5c0.7-0.3,1.4-0.7,2.2-1.1
			c0.8-0.4,1.5-0.8,2.2-1c0.7-0.3,1.1-0.4,1.2-0.3c-0.1,0-0.3,0.5-0.6,1.5c-0.4,1.1-0.8,2.4-1.4,4.1c-0.6,1.7-1.1,3.5-1.8,5.5
			c-0.6,2-1.2,4-1.9,5.9c-0.6,1.9-1.2,3.6-1.6,5.2c-0.5,1.5-0.8,2.6-1,3.3c-0.4,1.6-0.8,3.2-1.1,4.7c-0.3,1.6-0.5,2.9-0.6,4.1
			c-0.2,1.4-0.4,2.8-0.5,4.1c-1.3,0.1-2.6,0.5-3.9,1.1c-0.7,0.3-1.3,0.7-1.9,1.2c-0.1-0.3-0.3-0.5-0.5-0.8c-0.6-0.9-1.6-1.8-3-2.7
			c-1.4-0.9-3.2-1.9-5.4-2.7c-2.2-0.9-4.8-1.7-7.8-2.4c0.2-0.1,0.6-0.3,1.2-0.6c0.5-0.3,1.2-0.8,2.1-1.4c0.9-0.6,2.2-1.4,3.8-2.6
			c4.7-3.3,8-6.4,9.9-9.4c1.9-3,2.9-5.7,2.8-8.2c-0.1-2.4-0.9-4.5-2.5-6.4c-1.6-1.8-3.7-3.3-6.2-4.5c-2.5-1.2-5.4-2-8.6-2.3
			c-3.2-0.4-6.4-0.3-9.6,0.3c-1.9,0.3-3.7,0.8-5.5,1.5c-1.8,0.6-3.5,1.5-5.2,2.5c-0.6,0.4-0.9,0.8-0.9,1.5c-0.1,0.6,0,1.3,0.3,2
			C263,57.1,263.3,57.8,263.8,58.4z M275.1,75.9c0.1-0.7,0.3-1.6,0.6-2.7c0.3-1.1,0.5-2.3,0.8-3.5c0.3-1.3,0.6-2.5,0.9-3.6
			c0.3-1.1,0.5-2.1,0.7-2.8c0.2-0.8,0.3-1.2,0.3-1.2l0.1-0.1c0.3-1.3,0.6-2.2,0.8-2.9c0.2-0.7,0.4-1.1,0.8-1.3
			c0.3-0.2,0.8-0.3,1.3-0.3c0.6,0,1.4,0.1,2.4,0.3c3.5,0.5,5.8,1.4,6.9,2.8c1,1.4,1.2,2.9,0.5,4.6c-0.7,1.7-2.2,3.5-4.3,5.3
			c-2.1,1.8-4.6,3.4-7.5,4.7c-1.4,0.6-2.4,1.1-3.1,1.4c-0.6,0.3-1.1,0.4-1.3,0.5C275,77,275,76.7,275.1,75.9z"/>
		<path class="st1" d="M331.7,57.6c-1.5,1.8-2.6,3.5-3.3,5.1c-0.8,1.6-1,3.2-0.9,4.6c0.2,1.5,0.9,2.8,2,4.2c1.2,1.3,2.9,2.7,5.2,4
			c0.8,0.4,1.8,0.9,3.1,1.4c1.2,0.5,2.5,1,3.6,1.5c1.2,0.5,2.2,1,3.1,1.4c0.9,0.4,1.3,0.8,1.3,1.1c0,0.9-0.6,1.9-1.9,3.1
			c-1.2,1.2-2.6,2.2-4.2,3c-1.6,0.8-3.2,1.3-4.7,1.5s-2.7-0.2-3.4-1.3c-0.5-0.7-0.6-1.5-0.3-2.2c0.4-0.7,0.8-1.4,1.2-2.1
			c0.4-0.7,0.7-1.3,0.9-1.8c0.2-0.5-0.1-1-1-1.5c-1.4-0.7-2.6-1-3.8-1c-1.2,0-2.2,0.3-3.1,0.8c-0.9,0.5-1.6,1.2-2.2,2.2
			c-0.6,0.9-0.9,1.9-1.1,3c-0.1,1-0.1,2.1,0.2,3.1c0.2,1.1,0.7,2.1,1.4,3.1c0.7,1,1.7,1.9,2.8,2.8c1.2,0.9,2.7,1.6,4.5,2.1
			c2.6,0.8,5,1,7.4,0.8c2.2-0.2,4.2-0.7,6-1.6c1.8-0.9,3.4-2,4.8-3.3c1.4-1.3,2.4-2.8,3.2-4.4c0.8-1.6,1.2-3.2,1.3-4.9
			c0.1-1.7-0.3-3.3-1.1-4.8c-0.8-1.6-2.1-2.9-4-4.1l-0.1-0.1c-1-0.7-2.1-1.2-3.2-1.6c-1.1-0.4-2.2-0.8-3.2-1.2
			c-1-0.4-1.8-0.8-2.5-1.3c-0.7-0.4-1.1-1-1.1-1.7c-0.1-0.7,0.2-1.6,0.9-2.7s1.9-2.4,3.6-4.1c1.2-1.1,2.8-2.3,4.7-3.6
			c1.9-1.2,4.1-2.3,6.6-3.1c0-0.1,0,0.2-0.1,0.7c0,0.5-0.2,1.2-0.5,2.1c-0.3,0.9-0.8,1.8-1.5,2.9c-0.7,1-1.5,2-2.7,3
			c-0.6,0.5-1.1,0.9-1.4,1.3c-0.4,0.3-0.6,0.7-0.7,1.1c-0.1,0.4-0.1,0.7,0,1c0.1,0.3,0.3,0.7,0.6,1.2c1,1.6,2.1,2.5,3.2,2.8
			c1.1,0.2,2.2,0.1,3.2-0.5c1.1-0.6,2-1.5,3-2.8c0.9-1.2,1.7-2.6,2.4-4c0.7-1.4,1.3-2.8,1.7-4.2c0.4-1.4,0.6-2.5,0.7-3.3
			c0.1-3.2-0.7-5.7-2.5-7.6c-1.8-1.8-4.1-2.8-7.1-2.9c-3-0.1-6.3,0.9-10,2.9C339,49.8,335.3,53.1,331.7,57.6z"/>
		<path class="st1" d="M356.5,81.9c-0.9,4-1,7.6-0.2,10.9c0.8,3.3,2.6,5.8,5.5,7.5c1.9,1.1,3.9,1.8,5.9,2c2.3,0.2,4.5,0,6.7-0.8
			c2.2-0.8,4.1-1.8,5.8-3.1c1.7-1.3,3.1-2.8,4.1-4.3c1-1.6,1.6-3.1,1.6-4.5c0-1.3-0.4-2.4-1.3-3.3s-2.4-1.6-4.5-1.9
			c-0.3-0.1-0.5,0.2-0.8,0.7c-0.3,0.5-0.7,1.1-1.2,1.9c-0.5,0.8-1,1.6-1.7,2.4c-0.7,0.9-1.4,1.6-2.2,2.3c-0.8,0.7-1.8,1.1-2.9,1.5
			c-1.1,0.3-2.3,0.3-3.6,0c-1-0.2-1.6-0.9-1.8-2.1c-0.3-1.2-0.3-2.6,0.1-4.3c0.3-1.7,0.9-3.7,1.8-5.8c0.9-2.1,2.1-4.2,3.5-6.4
			c1.4-2.1,3.1-4.2,5.1-6.1c1.9-2,4.1-3.6,6.5-5.1c0.7-0.5,1.6-0.9,2.6-1.3c1-0.4,1.9-0.7,2.8-0.8c0.9-0.2,1.6-0.2,2.1-0.1
			c0.5,0.1,0.7,0.4,0.6,0.8c-0.1,0.5-0.4,1.2-0.9,2.3c-0.5,1.1-1.1,2.2-1.7,3.4c-0.7,1.2-1.4,2.3-2.3,3.4c-0.8,1.1-1.6,1.9-2.5,2.4
			c-0.6,0.4-1,0.7-1,0.9c0,0.1,0.1,0.4,0.3,0.8c0.2,0.4,0.6,0.9,1.1,1.3c0.5,0.5,1.1,0.9,1.7,1.2c0.7,0.4,1.5,0.5,2.3,0.4
			c0.8-0.1,1.8-0.5,2.7-1.1c1-0.6,2-1.7,3.1-3.2c1.1-1.6,2-3.1,2.7-4.6c0.7-1.5,1.2-2.9,1.6-4.3c0.8-3.6,0.5-6.6-1-9
			c-1.5-2.4-3.7-4-6.6-4.7c-2.7-0.6-5.9-0.3-9.4,0.9c-3.6,1.2-7.3,3.6-11.1,7.3c-3.5,3.3-6.4,6.9-8.7,10.9
			C359,74.1,357.4,78,356.5,81.9z"/>
		<path class="st1" d="M393.5,80.5c-1.6,2.2-2.9,4.4-4,6.8c-0.9,1.9-1.6,3.8-2,5.8c-0.5,1.9-0.6,3.8-0.6,5.6
			c0.1,1.8,0.4,3.5,0.9,5.1s1.5,3,2.7,4.3l0,0.1c1.7,1.7,3.7,2.8,6.1,3.3c2.7,0.6,5.6,0.4,8.8-0.6c3.2-1,6.2-2.5,9.3-4.6
			c3-2.1,5.8-4.5,8.5-7.4c2.6-2.9,4.8-5.9,6.4-9.1c1.5-2.9,2.4-5.7,2.8-8.2c0.4-2.5,0.3-4.8-0.1-6.8c-0.5-2-1.3-3.8-2.5-5.2
			c-1.2-1.5-2.7-2.6-4.5-3.3c-2-0.8-4.1-1.2-6.4-1.1c-2.3,0.1-4.8,0.7-7.3,1.9l0.9,2.4c-2.4,0-4.7,0.5-7,1.5c-2.3,1-4.4,2.3-6.4,4
			C396.9,76.4,395.1,78.3,393.5,80.5z M397.2,95.7c0.3-1.7,1-3.5,2.2-5.5c1.1-2,2.5-3.8,4.2-5.6c1.7-1.8,3.5-3.3,5.5-4.5
			c2-1.2,4.1-1.9,6.2-2.1l0-0.1c0.5,0,0.9-0.2,1.2-0.6c0.3-0.4,0.5-0.8,0.6-1.4c0.1-0.5,0.1-1.1,0.1-1.8c0-0.6-0.1-1.2-0.2-1.8
			c-0.7,0.1-0.9,0-0.6-0.1c0.3-0.1,0.9-0.2,1.7-0.2c0.8,0,1.7,0.1,2.7,0.4c1,0.2,1.8,0.7,2.5,1.5c0.7,0.8,1,1.9,1,3.4
			c0,1.4-0.5,3.4-1.7,5.8s-2.6,4.7-4.4,6.9c-1.8,2.2-3.7,4.1-5.7,5.8c-2,1.7-4,3-6,4c-2,1-3.8,1.5-5.4,1.6c-1.8,0-3.1-0.5-3.7-1.6
			C397,98.8,396.9,97.4,397.2,95.7z"/>
		<path class="st1" d="M431.4,101.8c0.3,1.7,1.1,3.8,2.3,6.1c0.5,0.8,1.1,1.7,1.9,2.8c0.8,1.1,1.6,2.2,2.3,3.2c0.7,1,1.3,2,1.9,2.8
			c0.5,0.8,0.7,1.3,0.5,1.6c-0.5,0.7-1.6,1.3-3.2,1.6c-1.6,0.4-3.4,0.5-5.2,0.3c-1.8-0.1-3.4-0.5-4.8-1.2c-1.4-0.6-2.2-1.6-2.2-2.9
			c-0.1-0.9,0.2-1.6,0.9-2c0.7-0.4,1.4-0.8,2.1-1.1c0.7-0.3,1.3-0.7,1.7-1c0.4-0.4,0.4-0.9,0-1.8c-0.8-1.3-1.7-2.2-2.7-2.8
			c-1-0.6-2-0.9-3-1c-1,0-2,0.2-3,0.7c-1,0.5-1.8,1.2-2.5,2c-0.7,0.8-1.2,1.7-1.5,2.8c-0.4,1-0.5,2.2-0.4,3.4c0.1,1.2,0.4,2.5,1,3.9
			c0.5,1.4,1.4,2.7,2.7,4.1c1.8,2,3.7,3.5,5.9,4.6c1.9,1,3.9,1.6,6,1.8c2,0.2,4,0.1,5.8-0.3c1.9-0.4,3.5-1.1,5-2
			c1.5-1,2.7-2.1,3.6-3.5c0.9-1.4,1.4-2.9,1.6-4.7c0.1-1.8-0.3-3.6-1.2-5.5l0-0.1c-0.5-1.1-1.1-2.1-1.9-3.1c-0.7-1-1.4-1.9-2.1-2.7
			c-0.6-0.9-1.1-1.7-1.5-2.4c-0.3-0.7-0.4-1.4,0-2.1c0.3-0.7,1-1.3,2.2-1.8c1.1-0.5,2.9-1.1,5.2-1.6c1.6-0.3,3.6-0.5,5.9-0.6
			c2.3-0.1,4.7,0.2,7.2,0.8c0,0-0.1,0.2-0.4,0.6c-0.3,0.4-0.8,0.9-1.6,1.5c-0.7,0.6-1.6,1.1-2.7,1.7c-1.1,0.5-2.4,0.9-3.8,1.1
			c-0.8,0.1-1.4,0.2-1.9,0.3s-0.9,0.3-1.1,0.6c-0.3,0.3-0.4,0.6-0.5,0.9c-0.1,0.4-0.1,0.8-0.1,1.4c0,1.9,0.5,3.2,1.3,4
			c0.8,0.8,1.8,1.2,3,1.2c1.2,0,2.5-0.2,4-0.8c1.4-0.6,2.8-1.3,4.2-2.1c1.3-0.8,2.5-1.7,3.6-2.7c1.1-1,1.8-1.8,2.3-2.5
			c1.8-2.7,2.4-5.2,1.9-7.7c-0.5-2.5-2-4.5-4.5-6.1c-2.5-1.6-5.9-2.6-10-2.8c-4.2-0.3-9,0.6-14.5,2.5c-2.2,0.8-4,1.6-5.5,2.6
			c-1.5,1-2.6,2.1-3.2,3.5C431.3,98.5,431.1,100,431.4,101.8z"/>
		<path class="st1" d="M326.3,533c-0.6-0.1-1.3-0.2-2.1-0.3c-0.8-0.1-1.7-0.1-2.6-0.2c-0.9,0-1.8-0.1-2.7-0.1c-0.9,0-1.7,0-2.4,0
			c0.7-0.8,1.5-1.5,2.2-2.2c0.7-0.7,1.5-1.4,2.3-2c0.6-0.5,0.8-1,0.7-1.6c-0.1-0.6-0.4-1.2-0.8-1.7c-0.4-0.5-0.9-0.9-1.5-1.1
			c-0.6-0.2-1.1-0.1-1.6,0.3c-0.9,0.8-1.9,1.8-3.1,3.2c-1.2,1.4-2.5,3.1-3.9,5c-1.9,0.1-3.7,0.2-5.5,0.3c-1.8,0.1-3.6,0.4-5.3,0.9
			c-0.6,0.2-1,0.5-1.1,0.9c-0.1,0.5-0.1,0.9,0.1,1.3c0.2,0.4,0.5,0.8,0.9,1c0.4,0.2,0.8,0.2,1.3,0c1.1-0.4,2.3-0.6,3.7-0.8
			c1.3-0.2,2.6-0.4,3.9-0.4c-1.3,2-2.7,4.2-4.1,6.5c-1.4,2.3-2.7,4.7-3.9,7.2c0,0,0,0,0,0.1c-0.1,0-0.1-0.1-0.2-0.1
			c-0.3-0.1-0.5-0.1-0.7,0c-0.6,0.5-1.4,1-2.3,1.6c-0.9,0.6-1.9,1.2-2.9,1.8c-1,0.6-2.1,1.1-3.2,1.6c-1.1,0.5-2.1,0.9-3.1,1.3
			c-1,0.3-1.8,0.5-2.6,0.6c-0.7,0.1-1.3,0-1.6-0.3c-0.2-0.2-0.4-0.4-0.4-0.7c0-0.3,0-0.6,0-0.9c0-0.3,0.1-0.6,0.3-0.9
			c0.1-0.3,0.2-0.5,0.4-0.6c0.7,0.2,1.5,0.2,2.4,0c0.9-0.2,1.8-0.6,2.6-1c0.9-0.5,1.7-1.1,2.5-1.7s1.5-1.4,2-2.2
			c0.9-1.3,1.3-2.4,1.4-3.4c0-1-0.3-1.8-0.9-2.3c-0.6-0.5-1.5-0.8-2.6-0.7c-1.1,0-2.4,0.5-3.8,1.3c-1,0.6-2.1,1.4-3.1,2.3
			c-1,0.9-1.9,1.8-2.7,2.8c-0.2-0.1-0.5-0.1-0.7,0c-0.7,0.4-1.5,0.9-2.4,1.4c-0.9,0.5-2,1-3.1,1.5c-1.1,0.5-2.2,0.9-3.3,1.4
			c-1.1,0.4-2.2,0.8-3.2,1c-1,0.3-1.9,0.4-2.6,0.4c-0.8,0-1.3-0.1-1.6-0.5c-0.2-0.2-0.3-0.4-0.3-0.7c0-0.3,0-0.6,0.1-0.9
			c0.1-0.3,0.2-0.6,0.3-0.9c0.1-0.3,0.3-0.5,0.4-0.6c0.7,0.3,1.5,0.3,2.4,0.2c0.9-0.1,1.8-0.4,2.7-0.8c0.9-0.4,1.8-0.9,2.6-1.5
			c0.8-0.6,1.6-1.3,2.2-2c1-1.2,1.5-2.3,1.6-3.3c0.1-1-0.1-1.8-0.7-2.3c-0.6-0.6-1.4-0.9-2.6-0.9c-1.1,0-2.4,0.3-3.9,0.9
			c-1.1,0.5-2.2,1.2-3.3,2c-1,0.8-2,1.6-2.9,2.5c-0.1-0.1-0.2-0.1-0.3-0.2c-0.2-0.1-0.4,0-0.7,0.1c-0.8,0.5-1.6,0.8-2.3,1.1
			c-0.8,0.3-1.5,0.5-2,0.6c-0.6,0.1-1.1,0.2-1.4,0.1c-0.4,0-0.5-0.2-0.5-0.4c0.1-0.6,0.4-1.3,1-2c0.6-0.7,1.2-1.4,1.7-2.2
			c0.6-0.7,1-1.4,1.2-2.1c0.3-0.7,0.1-1.3-0.5-1.9c-0.7-0.7-1.5-0.9-2.6-0.8c-1.1,0.1-2.3,0.4-3.6,1c-1.3,0.6-2.6,1.3-4.1,2.2
			c-1.4,0.9-2.7,1.8-4,2.7c-1.3,0.9-2.4,1.8-3.5,2.6c-1.1,0.8-1.9,1.4-2.5,1.8c0.1-0.2,0.5-0.5,1-0.9c0.5-0.5,1.1-1,1.7-1.6
			c0.7-0.6,1.4-1.3,2.2-2c0.8-0.7,1.6-1.4,2.3-2c0.8-0.6,1.5-1.2,2.2-1.7c0.7-0.5,1.3-0.8,1.8-1c0.4-0.2,0.6-0.5,0.6-1
			c0-0.5-0.1-1-0.4-1.5c-0.3-0.5-0.6-0.9-1.1-1.2c-0.5-0.3-1-0.3-1.5,0c-0.6,0.3-1.4,0.9-2.6,1.9c-1.2,1-2.5,2.2-3.8,3.5
			c-1.4,1.3-2.7,2.7-3.9,4.1c-1.2,1.4-2.2,2.6-2.9,3.5c-0.3,0.5-0.5,1.1-0.4,1.7c0.1,0.6,0.4,1.1,0.8,1.4c0.4,0.4,0.9,0.6,1.6,0.6
			c0.6,0.1,1.3-0.2,2-0.7c1.1-0.8,2.4-1.8,3.8-2.8c1.4-1.1,2.8-2.1,4.3-3.1c1.4-1,2.8-1.8,4-2.6c1.3-0.7,2.3-1.2,3.2-1.3
			c-1.7,1.7-2.7,3.3-2.9,4.6c-0.2,1.3,0.1,2.3,1.1,2.9c0.9,0.6,2.3,0.8,4.2,0.5c1.5-0.2,3.2-0.8,5-1.7c-0.2,0.3-0.5,0.6-0.7,0.9
			c-0.7,1.1-1.2,2.1-1.5,3.1c-0.3,1-0.3,1.9-0.1,2.8c0.2,0.9,0.8,1.6,1.7,2.2c0.8,0.5,1.7,0.8,2.8,0.9c1.1,0.1,2.2-0.1,3.5-0.3
			c1.2-0.3,2.5-0.6,3.8-1.1c1.3-0.5,2.6-1.1,3.8-1.7c1.2-0.6,2.4-1.3,3.6-1.9c0.3-0.2,0.6-0.4,0.9-0.6c-0.6,1.1-1,2.1-1.2,3.1
			c-0.2,1-0.2,2,0.1,2.8c0.3,0.9,0.9,1.5,1.8,2.1c0.8,0.5,1.8,0.7,2.9,0.7c1.1,0,2.2-0.2,3.4-0.6c1.2-0.4,2.4-0.9,3.7-1.5
			c1.3-0.6,2.5-1.3,3.7-2c1.2-0.7,2.3-1.5,3.4-2.2c0.6-0.4,1.2-0.9,1.7-1.2c-0.7,1.5-1.4,3-2,4.4c-1.1,2.5-1.9,5.1-2.6,7.5
			c-0.2,0.8-0.1,1.4,0.4,1.8c0.5,0.4,1,0.7,1.7,0.7c0.7,0.1,1.3,0,1.9-0.3c0.6-0.3,1-0.7,1-1.2c0.1-0.6,0.3-1.4,0.5-2.6
			c0.3-1.2,0.7-2.5,1.2-4.1c0.5-1.6,1.2-3.3,2-5.2c0.8-1.9,1.7-3.8,2.7-5.9c1-2,2.2-4.1,3.5-6.2c1.3-2.1,2.7-4.1,4.2-6
			c0.8,0,1.7,0,2.7,0c1,0.1,2,0.1,3,0.2c1,0.1,1.9,0.2,2.8,0.3c0.9,0.1,1.6,0.3,2.1,0.4c0.6,0.2,1.1,0.1,1.5-0.2
			c0.4-0.3,0.8-0.6,1-1.1c0.2-0.5,0.3-0.9,0.2-1.4C327,533.5,326.7,533.2,326.3,533z M286.7,549.1c0.7-0.8,1.4-1.5,2.2-2.2
			c0.4-0.4,0.9-0.7,1.3-1c0.4-0.3,0.7-0.4,1-0.5c0.2-0.1,0.3,0,0.4,0.2c0,0.2-0.1,0.5-0.4,1c-0.9,1.4-1.9,2.5-3,3.2
			c-1.1,0.7-2,1-2.7,1C285.5,550.4,286,549.9,286.7,549.1z M268.4,546.5c0.8-0.7,1.6-1.4,2.4-2c0.5-0.4,0.9-0.7,1.4-0.9
			c0.4-0.2,0.8-0.4,1-0.4c0.2,0,0.3,0,0.4,0.2c0,0.2-0.2,0.5-0.5,0.9c-1,1.4-2.1,2.3-3.3,2.9c-1.2,0.6-2.1,0.8-2.8,0.8
			C267.1,547.7,267.6,547.2,268.4,546.5z"/>
		<path class="st1" d="M414,533.1c-0.9-2.5-1.5-5.5-1.8-8.9c-0.4-3.4-0.4-7.3-0.1-11.6c0.3-4.3,1.1-8.8,2.5-13.7
			c0.2-0.7,0.1-1.3-0.2-1.8c-0.4-0.5-0.8-0.8-1.3-1c-0.5-0.2-1-0.2-1.5,0c-0.5,0.2-0.8,0.5-0.9,1c-0.1,0.6-0.3,1.5-0.5,2.7
			c-0.2,1.2-0.4,2.5-0.7,4c-0.2,1.5-0.5,3-0.7,4.6c-0.2,1.6-0.5,3.1-0.7,4.5c-0.2,1.4-0.4,2.6-0.6,3.7c-0.2,1.1-0.3,1.8-0.4,2.2
			c-0.4-0.3-0.9-0.5-1.5-0.6c-0.6-0.1-1.2-0.1-1.7,0c-0.6,0.1-1.1,0.4-1.7,0.7c-0.5,0.4-1,0.9-1.4,1.5c-0.6,1-1.2,2.3-1.7,3.7
			c-0.5,1.5-0.9,3-1.2,4.6c0,0.2-0.1,0.5-0.1,0.7c-0.1,0.1-0.2,0.2-0.3,0.2c-0.4,0.3-1,0.6-1.5,0.9c-1.1,0.6-2.2,1-3.3,1.1
			c-0.7-3-1.7-4.8-3.1-5.5c-1.3-0.7-2.6-0.6-3.8,0.2c-1.2,0.8-1.9,1.9-2.2,3.3c-0.2,1.5,0.4,2.8,1.9,4.1c-1-0.5-1.9-0.5-2.7,0
			c-0.6,0.6-1.4,1.2-2.4,1.8c-1,0.6-2,0.9-3,0.9c-0.6-2.7-1.4-4.6-2.5-5.7c-1.1-1.1-2.2-1.7-3.4-1.7c-1.1,0.1-2.1,0.7-2.9,1.7
			c-0.1,0.2-0.2,0.3-0.3,0.5c0-0.3-0.1-0.6-0.2-0.9c-0.2-0.4-0.5-0.6-0.9-0.6c-1.9,0.2-3.8,0.4-5.7,0.9c-1.9,0.4-3.5,0.9-4.7,1.4
			c0.8-2.6,1.6-5.1,2.5-7.7c0.9-2.5,1.6-4.8,2.3-6.8c0.1-0.5,0-0.9-0.4-1.3c-0.4-0.4-0.9-0.6-1.4-0.8c3.2-0.8,6.2-1.4,9.2-1.8
			c3-0.4,6-0.6,9.3-0.6c0.6,0,1.2-0.2,1.6-0.7c0.4-0.5,0.6-1,0.7-1.6c0.1-0.6,0-1.1-0.2-1.5c-0.2-0.5-0.6-0.7-1.2-0.6
			c-1.8,0.2-3.7,0.5-5.8,0.7c-2.1,0.3-4.3,0.6-6.5,0.9c-2.3,0.4-4.5,0.8-6.8,1.3c-2.3,0.5-4.5,1.2-6.6,1.9c-2.1,0.8-4,1.7-5.9,2.7
			c-1.8,1.1-3.4,2.3-4.7,3.7c-1.3,1.4-2.4,3-3.1,4.9c-0.7,1.8-1.1,3.9-1,6.2c0.1,0.5,0.3,0.9,0.8,1c0.5,0.1,1,0.1,1.5,0
			c0.5-0.1,1-0.3,1.4-0.6s0.6-0.7,0.6-1c-0.3-2.2-0.1-4.1,0.7-5.7c0.7-1.6,1.8-2.9,3.1-4c1.4-1.1,3-2,4.8-2.8
			c1.8-0.7,3.8-1.4,5.7-1.9c-0.2,0.2-0.4,0.7-0.7,1.5c-0.3,0.9-0.7,1.9-1,3.1c-0.4,1.2-0.8,2.5-1.2,4c-0.4,1.4-0.8,2.8-1.2,4.1
			c-0.4,1.3-0.7,2.5-1,3.5c-0.3,1-0.5,1.7-0.7,2.1c-1.8,1.2-3.5,2.5-5.1,3.9c-1.6,1.5-3,3-4.3,4.7c-1.3,1.7-2.4,3.5-3.3,5.3
			c-0.9,1.8-1.7,3.7-2.2,5.6c-0.6,2.2-1,4.2-1,5.9c0,1.7,0.2,3.1,0.7,4.2c0.5,1.1,1.1,1.8,1.9,2.3c0.8,0.4,1.7,0.4,2.8,0.1
			c1-0.3,2.1-1.1,3.2-2.3c1.1-1.2,2.1-2.8,3.1-4.8c0.8-1.7,1.6-3.6,2.3-5.6c0.7-2,1.4-4,2-6c0.6-2,1.2-4,1.8-6
			c0.6-2,1.2-3.9,1.8-5.7c0.5-0.4,1.2-0.7,2.1-1c0.9-0.3,1.8-0.6,2.8-0.8c1-0.2,2.1-0.4,3.3-0.6c1.1-0.1,2.2-0.2,3.3-0.3
			c0.3,0,0.6-0.2,0.8-0.5c0,0.4,0,0.9,0,1.3c0.2,1.5,1,2.8,2.3,4c-0.6-0.4-1.1-0.5-1.7-0.5c-0.6,0.1-1,0.4-1.3,0.9
			c-0.3,0.6-0.5,1.2-0.8,1.8c-0.2,0.6-0.4,1.3-0.6,2.1c-0.3,1.5-0.4,3.1-0.3,4.9c0.3,2.1,1,3.5,2.1,4.3c1.2,0.8,2.4,1,3.6,0.6
			c1.7-0.6,3-1.7,4.1-3.4c0.5-0.8,0.9-1.7,1.2-2.5c0.3-0.9,0.6-1.8,0.8-2.7c0.4-1.8,0.5-3.3,0.5-4.4c0.9-0.1,1.9-0.6,3.2-1.4
			c-0.1,0.7-0.2,1.3-0.3,2c-0.1,0.7-0.1,1.3,0,2c0.2,1.8,0.9,3.1,2,3.8c1.1,0.7,2.3,0.8,3.5,0.4c1.7-0.6,3.1-1.7,4.1-3.2
			c1-1.5,1.7-3.1,2.1-4.8c0.4-1.6,0.6-3,0.5-4c0.8-0.1,1.9-0.4,3.1-1c0.5-0.2,1-0.5,1.5-0.8c0,0.3,0,0.5-0.1,0.8
			c-0.1,1.6,0,3,0.2,4.3c0.2,1.3,0.6,2.3,1.2,3.1c0.6,0.8,1.3,1.2,2.2,1.3c0.8,0,1.5-0.2,2.1-0.8c0.6-0.6,1.2-1.3,1.7-2.3
			c0.5-0.9,1-2,1.4-3.3c0.4-1.3,0.8-2.5,1.1-3.8c0.3-1.3,0.6-2.6,0.8-3.8c0.2-1.3,0.5-2.4,0.7-3.5c0.2,1.9,0.5,3.9,0.9,5.8
			c0.4,1.9,0.8,3.6,1.3,5.2c0.5,1.5,1,2.8,1.4,3.9c0.5,1,0.8,1.7,1.1,2c0.3,0.4,0.8,0.5,1.3,0.4c0.5-0.1,1-0.4,1.4-0.8
			c0.4-0.4,0.7-0.8,1-1.3c0.2-0.5,0.2-0.9-0.1-1.1C415.8,537.4,414.8,535.6,414,533.1z M349.3,542.1c-0.3,1-0.7,2.2-1.1,3.4
			c-0.4,1.3-0.9,2.7-1.4,4.2c-0.5,1.5-1.1,3.1-1.7,4.6c-1,2.7-2,4.7-2.9,5.9c-0.9,1.2-1.6,1.8-2.1,1.7c-0.5-0.1-0.8-0.8-0.8-2.1
			c0-1.3,0.3-3.2,1-5.7c0.6-2.4,1.8-4.9,3.5-7.4c1.7-2.5,3.8-4.9,6.4-7.1C349.9,540.2,349.6,541,349.3,542.1z M371.1,533.1
			c0.3-0.3,0.6-0.3,0.9,0.1c0.3,0.3,0.7,0.8,1,1.5c0.3,0.6,0.5,1.2,0.6,1.9c-0.5-0.1-1-0.4-1.5-0.8c-0.2-0.2-0.4-0.5-0.6-0.8
			s-0.3-0.5-0.4-0.8C370.9,533.7,370.9,533.3,371.1,533.1z M373.1,545c-0.6,1.9-1.4,3.1-2.3,3.7c-0.6,0.3-1.1,0-1.3-0.9
			c-0.1-0.9-0.1-2,0.1-3.3c0.3-1.4,0.7-2.6,1.3-3.7c0.2-0.4,0.3-0.7,0.3-1c0-0.3-0.1-0.5-0.2-0.6c0.2,0.1,0.5,0.3,0.7,0.4
			c0.2,0.1,0.5,0.2,0.8,0.3c0.6,0.2,1.1,0.2,1.6,0.2C373.9,541.4,373.7,543,373.1,545z M386.8,529.2c0.3-0.2,0.5-0.3,0.8,0
			c0.3,0.2,0.6,0.6,0.8,1.1c0.2,0.5,0.4,1.1,0.4,1.6c-0.6-0.1-1.1-0.3-1.4-0.6c-0.4-0.3-0.6-0.7-0.8-1.1
			C386.6,529.8,386.6,529.5,386.8,529.2z M388.2,539.5c-0.6,1.7-1.4,2.8-2.4,3.5c-0.7,0.2-1.1,0-1.2-0.7c-0.2-0.8-0.1-1.8,0.2-3
			c0.2-1.2,0.7-2.3,1.3-3.4c0.2-0.3,0.3-0.6,0.3-0.9c0-0.2-0.1-0.4-0.2-0.6c0.3,0.2,0.8,0.4,1.4,0.5c0.3,0.1,0.6,0.1,0.8,0.1
			c0.2,0,0.5,0,0.7,0C389.1,536.4,388.8,537.8,388.2,539.5z M406,522.4c0,0.3-0.1,0.9-0.2,1.7c-0.1,0.8-0.3,1.7-0.5,2.7
			c-0.2,1-0.4,2-0.7,3.2c-0.3,1.1-0.5,2.1-0.8,3.1c-0.3,1-0.5,1.8-0.8,2.5c-0.3,0.7-0.5,1.2-0.8,1.5c-0.3,0.3-0.5,0.3-0.7-0.2
			c-0.2-0.5-0.2-1.3-0.3-2.3c0-1,0-2.2,0.2-3.5c0.1-1.3,0.4-2.6,0.6-3.8c0.3-1.2,0.6-2.3,1-3.3c0.4-1,0.9-1.6,1.4-2
			c0.4-0.3,0.7-0.3,1-0.2C405.9,521.9,406,522.1,406,522.4z"/>
		<path class="st1" d="M463.5,485.2c-0.4,0-0.7,0-1.1,0.2c-0.3,0.2-0.5,0.5-0.6,0.9c-0.1,1.2-0.4,2.8-0.7,4.6
			c-0.3,1.9-0.7,3.9-1.2,6.2c-0.5,2.2-1,4.5-1.7,6.7c-0.6,2.3-1.4,4.4-2.2,6.3c-0.8,1.9-1.8,3.6-2.8,5c-1,1.4-2.2,2.3-3.4,2.7
			c-1.1,0.4-2.2,0.3-3.3-0.2c-1.1-0.5-2.1-1.3-3-2.5c-1-1.2-1.8-2.6-2.6-4.3c-0.8-1.7-1.5-3.6-2.1-5.7c-0.6-2.1-1-4.3-1.3-6.6
			c-0.3-2.3-0.4-4.6-0.3-7c0.1-4.9,0.7-9.1,1.6-12.6c0.9-3.5,2-6.2,3.2-8.1c1.2-1.9,2.4-3,3.7-3.3c1.3-0.3,2.3,0.3,3.1,1.8
			c0.8,1.5,1.3,3.9,1.5,7.2c0.2,3.3-0.2,7.7-1.2,13c-0.1,0.7,0,1.2,0.5,1.5c0.4,0.4,0.9,0.6,1.5,0.6c0.6,0.1,1.1-0.1,1.6-0.3
			c0.5-0.3,0.9-0.7,1-1.4c0.8-4.5,1.1-8.5,0.9-11.8c-0.2-3.4-0.7-6.1-1.5-8.3c-0.8-2.2-1.8-3.8-3.1-4.8c-1.3-1-2.7-1.5-4.1-1.4
			c-1.5,0.1-3,0.8-4.5,2c-1.5,1.2-2.9,3-4.1,5.4c-1.2,2.3-2.3,5.3-3.1,8.7c-0.8,3.5-1.3,7.5-1.5,12c-0.1,4.3,0.2,8.4,0.8,12.1
			c0.7,3.7,1.6,6.9,2.9,9.7c1.2,2.8,2.7,5,4.4,6.7c1.6,1.7,3.4,2.7,5.2,3.1c1.8,0.3,3.7,0,5.6-1.2c1.9-1.1,3.7-3.1,5.4-6
			c1.7-2.9,3.2-6.7,4.6-11.5c1.4-4.8,2.5-10.7,3.3-17.7c0.1-0.5,0-1-0.3-1.2C464.2,485.4,463.9,485.3,463.5,485.2z"/>
		<path class="st1" d="M502.9,478.5c-0.4-0.4-0.8-0.4-1.3-0.1c-1.6,0.7-3.4,1.2-5.2,1.5c-1.9,0.3-3.8,0.6-5.7,0.7
			c-1.9,0.1-3.9,0.2-5.8,0.1c-1.9-0.1-3.8-0.2-5.5-0.4c1.7-1.3,3.1-2.7,4.3-4.3c1.2-1.6,2.1-3.2,2.8-4.9c0.7-1.7,1.2-3.5,1.4-5.3
			c0.3-1.8,0.4-3.6,0.2-5.3c-0.1-1.7-0.4-3.4-0.7-5c-0.4-1.6-0.9-3-1.5-4.3c-0.9-1.9-2.1-3.5-3.5-4.9c-1.5-1.4-3.1-2.4-4.9-3
			c-1.8-0.6-3.6-0.8-5.5-0.5c-1.9,0.3-3.8,1.1-5.6,2.6c-1.3,1.1-2.5,2.4-3.5,3.8c-1,1.4-1.8,3-2.5,4.6c-0.7,1.6-1.2,3.3-1.6,5
			c-0.4,1.7-0.6,3.3-0.8,5c-0.1,1.6-0.1,3.1,0,4.5c0.1,1.4,0.3,2.7,0.6,3.7c0.2,0.7,0.6,1.1,1.2,1.3c0.6,0.2,1.2,0.2,1.8,0
			c0.6-0.2,1.1-0.5,1.6-0.9c0.4-0.5,0.5-1,0.4-1.6c-0.2-0.8-0.4-1.7-0.5-2.8c-0.1-1.1-0.2-2.4-0.1-3.7c0-1.3,0.2-2.8,0.4-4.3
			c0.2-1.5,0.6-3,1-4.4c0.3,0.5,0.7,1.5,1.3,3.1c0.6,1.5,1.2,3.4,2,5.6c0.7,2.2,1.5,4.6,2.3,7.2c0.8,2.6,1.5,5.3,2.1,8
			c-1.2-0.2-2.1-0.5-2.9-0.8c-0.6-0.2-1-0.2-1.4,0.2c-0.3,0.3-0.5,0.8-0.6,1.3c0,0.5,0.1,1,0.3,1.6c0.3,0.5,0.7,0.9,1.3,1
			c0.7,0.2,1.4,0.3,2.1,0.5c0.7,0.2,1.4,0.3,2.1,0.4c0.3,1.7,0.6,3.4,0.8,5c0.2,1.6,0.4,3.1,0.4,4.5c0.1,1.4,0,2.7-0.1,3.9
			c-0.1,1.2-0.4,2.2-0.7,3c-0.3,0.6-0.1,1.1,0.4,1.5c0.6,0.4,1.2,0.6,2,0.7s1.5-0.1,2.3-0.5c0.7-0.4,1.1-1,1.2-2
			c0.1-0.9,0.1-2,0-3.3c-0.1-1.3-0.2-2.7-0.4-4.1c-0.2-1.4-0.4-2.8-0.7-4.3c-0.3-1.4-0.5-2.7-0.8-3.8c2.5,0.3,5.1,0.5,7.8,0.6
			c2.6,0.1,5.1,0,7.5-0.1c2.4-0.1,4.5-0.3,6.3-0.6c1.9-0.3,3.3-0.6,4.3-1c0.5-0.2,0.8-0.6,0.9-1.3c0.1-0.6,0-1.2-0.2-1.9
			C503.6,479.4,503.3,478.9,502.9,478.5z M476,479.4c-0.1-0.7-0.3-1.6-0.7-2.9c-0.3-1.3-0.7-2.8-1.1-4.4c-0.4-1.6-0.9-3.4-1.4-5.2
			c-0.5-1.8-1-3.6-1.5-5.3c-0.5-1.7-0.9-3.3-1.4-4.7c-0.4-1.4-0.8-2.6-1.1-3.4c-0.1-0.3-0.3-0.6-0.5-0.8c-0.2-0.2-0.5-0.3-0.8-0.4
			c-0.3-0.1-0.6-0.1-0.9,0c-0.3,0-0.5,0.1-0.8,0.2c1.3-2.7,2.7-4.6,4.1-5.6c1.4-1.1,2.8-1.5,4.2-1.2c1.4,0.2,2.7,1,3.9,2.3
			c1.2,1.3,2.2,2.9,3.1,4.9c0.8,2,1.4,4.1,1.8,6.5c0.4,2.4,0.4,4.8,0.1,7.3c-0.3,2.4-1,4.8-2.1,7C479.6,475.7,478,477.7,476,479.4z"
			/>
		<path class="st1" d="M548.7,175.5C514.4,110.8,457,63.3,387.1,41.8c-70-21.5-144.1-14.5-208.8,19.7
			C113.6,95.8,66.1,153.2,44.6,223.2S30.1,367.3,64.3,432c23.1,43.7,56.9,79.6,97.9,104.9c0,0-0.1,0.1-0.1,0.1
			c-0.2,0.2-0.5,0.3-0.6,0.5c-0.2,0.2-0.3,0.3-0.5,0.5c-0.4,0.5-0.5,0.9-0.4,1.3c0.1,0.4,0.4,0.8,0.8,1c0.7,0.5,1.4,0.7,2.1,0.6
			c0.7-0.1,1.4-0.3,2-0.6c0.4-0.2,0.8-0.5,1.1-0.8c18.5,10.9,38.3,19.7,59.3,26.2c26.6,8.2,53.8,12.2,80.9,12.2
			c44.1,0,87.8-10.8,127.9-32c64.7-34.2,112.2-91.6,133.7-161.6C589.9,314.3,582.9,240.2,548.7,175.5z M565.5,383.4
			c-21.3,69.2-68.2,125.9-132.2,159.8C369.3,577,296,584,226.8,562.7c-20.6-6.3-40-14.9-58.1-25.6c0,0,0,0,0-0.1
			c0.6-0.9,1.1-2,1.5-3c0.4-1.1,0.6-2.2,0.8-3.3c0.2-1.1,0.3-2.2,0.3-3.3c0-1.1,0-2.2,0-3.2l0-0.1c1.9-0.2,3.8-0.7,5.5-1.5
			c1.7-0.8,3.1-1.8,4.2-3.2c0.4-0.6,0.8-1.2,1.2-1.9c0.4-0.7,0.6-1.5,0.8-2.3c0.1-0.5,0-0.9-0.2-1.2c-0.2-0.3-0.4-0.6-0.7-0.8
			c-0.6-0.4-1.2-0.6-1.9-0.6c-0.8,0-1.5,0.3-2,0.7c-0.5,0.5-0.7,0.9-0.8,1.4c0,0.7-0.1,1.4-0.3,2.1c-0.2,0.6-0.5,1.2-0.9,1.7
			c-0.6,0.7-1.3,1.3-2.2,1.8c-0.9,0.5-1.8,0.9-2.8,1.1c0-0.9-0.1-1.8-0.2-2.7c-0.1-0.9-0.1-1.8-0.2-2.7c-0.1-1.3-0.2-2.7-0.3-4
			c-0.1-1.3-0.2-2.6-0.2-3.8l2.6-0.8c1.5-0.5,3.1-1.1,4.8-1.7c1.6-0.6,3.2-1.3,4.8-2.1c1.5-0.8,3-1.7,4.4-2.7c1.4-1,2.7-2.1,3.8-3.4
			c0.1-0.1,0.2-0.3,0.3-0.4c0.1-0.2,0.2-0.3,0.3-0.5c0.5-0.7,0.9-1.5,1.3-2.5c0.4-0.9,0.6-1.9,0.7-2.9c0.1-1-0.1-1.9-0.5-2.9
			c-0.4-0.9-1.1-1.8-2.3-2.5c-1.5-1-3.1-1.5-4.8-1.6c-1.7-0.1-3.4,0.1-4.9,0.7s-3.1,1.3-4.5,2.3s-2.5,2-3.4,3.1
			c-0.2,0.3-0.5,0.6-0.7,0.9c-0.2,0.3-0.4,0.6-0.6,0.9c-1.1,1.7-2,3.3-2.5,5c-0.6,1.7-1,3.4-1.2,5.2c-1.4,0.5-2.8,1-4.2,1.5
			c-1.4,0.5-2.6,1.1-3.9,1.7c-1.2,0.6-2.3,1.3-3.4,2c-1,0.7-1.9,1.6-2.6,2.5c-0.9,1.1-1.4,2.2-1.7,3.2c-0.3,1-0.3,2,0,2.9
			c0.2,0.9,0.7,1.8,1.4,2.6c0.7,0.8,1.5,1.5,2.5,2.2c1.6,1.1,3.5,1.9,5.7,2.5c2.2,0.6,4.4,0.9,6.8,0.9l0,0.2c0,2.1-0.1,3.9-0.3,5.3
			c-0.2,1.4-0.6,2.6-1.3,3.5c-0.5,0.6-1.1,1.1-1.8,1.7c-41.1-25.1-74.9-60.8-98-104.4c-33.9-64-40.8-137.3-19.5-206.4
			c21.3-69.2,68.2-125.9,132.2-159.8c39.6-21,82.8-31.6,126.4-31.6c26.8,0,53.7,4,80,12.1C455.3,66.1,512.1,113,545.9,177
			S586.7,314.2,565.5,383.4z M170.7,501.3c0-0.1,0-0.2,0-0.3c0-0.1,0-0.2,0.1-0.3c0-0.1,0.1-0.2,0.1-0.3c0.2-1.2,0.6-2.4,1-3.5
			c0.4-1.1,1-2.2,1.7-3.2c0.2-0.2,0.3-0.5,0.5-0.7c0.1-0.2,0.3-0.4,0.5-0.7c0.8-1,1.8-2,2.9-2.8c1.2-0.9,2.4-1.6,3.6-2.1
			c1.2-0.6,2.5-0.9,3.6-1c1.2-0.1,2.2,0.1,3.1,0.7c0.6,0.4,0.8,0.9,0.8,1.7c0,0.8-0.5,1.9-1.4,3.3c-0.2,0.2-0.3,0.5-0.5,0.7
			c-0.2,0.3-0.4,0.5-0.6,0.8c-0.7,0.9-1.6,1.7-2.7,2.4c-1.1,0.7-2.3,1.4-3.7,2c-1.4,0.6-2.8,1.2-4.3,1.7
			C173.9,500.4,172.3,500.9,170.7,501.3L170.7,501.3z M168.4,521.9c-0.9,0.1-1.8,0.1-2.7,0c-0.9,0-1.7-0.1-2.6-0.3
			c-0.8-0.2-1.6-0.4-2.3-0.6c-0.7-0.3-1.3-0.6-1.9-0.9c-0.5-0.3-0.8-0.6-1.1-1c-0.3-0.4-0.5-0.7-0.6-1.2c-0.1-0.4-0.1-0.9,0.1-1.3
			c0.1-0.5,0.4-1,0.8-1.5c1.1-1.4,2.5-2.6,4.1-3.5s3.3-1.8,5.2-2.4c0,1.2,0.1,2.3,0.2,3.4c0.1,1.1,0.2,2.3,0.3,3.4
			c0.1,1,0.2,1.9,0.3,2.9C168.4,519.9,168.4,520.9,168.4,521.9z"/>
		<path class="st1" d="M347.2,343.1c1.7-0.1,2.4-0.6,1.7-2.4c-0.8-2-1.5-4-3.5-5.3c-2.3-1.5-3.8-3.9-5.2-6.2
			c-1.6-2.7-3.3-5.4-4.9-8.1c-1.1-1.9-2.4-2.3-4.6-1.6c-14.6,4.6-29.2,9-43.9,13.4c-2.7,0.8-5.4,1.7-8,3c-8.9,4.5-17.6,9.2-26,14.5
			c-3.4,2.2-6.9,4.3-9.4,7.9c18-6.7,36-13.5,54-20.2c-1.8,2-4,3.4-6.1,4.8c-12.6,8.4-25.3,16.7-36.7,26.7c-2.3,2-4.6,4.1-6.5,7.5
			c15.3-9.7,29.2-20.2,45.6-26.6c-10.4,9.5-21.6,18-29.8,29.8c8.8-5.8,17.5-11.6,26.3-17.5c-2.1,4.7-5.8,8.6-6.6,14.7
			c7.2-6.3,13.2-12.7,21.5-16.8c-2,3.3-3.9,6.3-5.6,9.3c-1.8,3.1-3.9,6.1-3.9,10c5.5-4.9,8.3-12.3,15.2-16.8
			c-1.7,5.4-3.3,10.1-4.8,14.8c2.2-1.4,3.6-3.2,4.7-5.2c4.1-7,8.4-13.7,14.2-19.5c8.1-8.1,8.1-8.2,1.2-17.7
			c-0.8-1.1-1.4-2.2-1.4-4.1c3.4,3.1,6.3,6,9.7,8.1C338.4,342.1,342.5,343.5,347.2,343.1z"/>
	</g>
	<path d="M463.5,219.3c-6.9-13.2-26.2-35.4-73.7-21c-6.1,1.8-13.4,12.1-13.2,18.5c0.4,11.2,7.1,23.1,23.5,27.4
		c23.2,6.2,42.5,13.7,61.8-9.6C465.5,230.3,466.1,224.2,463.5,219.3"/>
	<path class="st1" d="M422.7,211.3c4.7,10.2,0.3,22.4-9.9,27.1c-10.2,4.7-22.4,0.3-27.1-9.9c-4.7-10.2-0.3-22.4,9.9-27.1
		C405.8,196.6,418,201,422.7,211.3"/>
</g>
<g id="Layer_2" class="st2">
	<path class="st3" d="M162.4,354c-0.6-1.2,0.7-1.5,1.2-2c2.6-2.6,5.2-5.2,8-7.6c2-1.8,4.2-3.5,6.4-5.1c0.6-0.4,1.4-0.6,2.1-0.8
		c0.2-0.1,0.5,0.2,0.8,0.4c-0.2,0.2-0.3,0.5-0.5,0.7c-3.3,2.5-6.8,4.8-10,7.4C167.6,349.1,165,351.6,162.4,354L162.4,354z"/>
	<path class="st3" d="M175.9,355.1c1-1.6,2-3.3,3-4.9c1.8-2.8,3.6-5.5,5.4-8.3c0.9-1.4,1.7-2.8,2.6-4.2c0.2-0.3,0.6-0.6,1-0.9
		c0.2,0.2,0.4,0.3,0.6,0.5c-4.1,6-8.1,12-12.2,18C176.2,355.2,176.1,355.1,175.9,355.1"/>
	<path class="st3" d="M163.6,357.8c1.9-2.4,3.7-4.8,5.5-7.3c0.5-0.7,1-1.4,1.4-2.1c0.8-1.5,2.1-2.5,3.7-3.2
		c-3.4,4.3-6.8,8.7-10.2,13C163.9,358,163.7,357.9,163.6,357.8"/>
	<path class="st3" d="M321,336.6c-0.7-0.5-1.3-1.1-2-1.5c-1.4-0.9-2.9-1.6-4.3-2.5c-1.4-0.9-2.6-2.1-3.9-3c-1-0.7-2-1.2-3.1-1.7
		c-3.2-1.4-6.4-2.8-9.7-4.1c-3.8-1.4-7.6-2.6-11.5-4c-1.7-0.6-3.5-1.2-5.2-1.8c-0.1,0-0.2-0.2-0.2-0.5c14.5,4,28.7,8.7,40.3,18.6
		C321.2,336.4,321.1,336.5,321,336.6"/>
	<path class="st3" d="M332.4,330.4c-0.4-0.1-0.8-0.1-1-0.3c-1-0.8-1.9-1.8-2.9-2.6c-1.5-1.2-3.2-2.3-4.7-3.4
		c-1.2-0.9-2.5-1.7-3.7-2.5c-0.3-0.2-0.6-0.3-0.9-0.4c-3.8-2.1-7.6-4.2-11.4-6.3c-0.1,0-0.1-0.1-0.1-0.2
		C311,314.9,329.8,326,332.4,330.4"/>
	<path class="st3" d="M317.3,324.2c2-0.6,10.7,5.4,14.7,10.1c-0.5-0.2-1.1-0.2-1.4-0.5c-2.5-2.6-5.4-4.5-8.4-6.4
		c-1.4-0.9-2.9-1.7-4.4-2.6C317.6,324.8,317.5,324.5,317.3,324.2"/>
</g>
</svg>
