<?xml version="1.0" encoding="utf-8"?>
<!-- Generator: Adobe Illustrator 22.0.0, SVG Export Plug-In . SVG Version: 6.00 Build 0)  -->
<svg version="1.1" id="Layer_1" xmlns="http://www.w3.org/2000/svg" xmlns:xlink="http://www.w3.org/1999/xlink" x="0px" y="0px"
	 viewBox="0 0 612 612" style="enable-background:new 0 0 612 612;" xml:space="preserve">
<path d="M515.5,573.2c0-9.5,0-19.1,0-28.8c-9.7,0-19.2,0-28.8,0c0,4.8,0,9.5,0,14.4c-9.7,0-19.2,0-28.9,0c0-4.8,0-9.5,0-14.4
	c-4.9,0-9.7,0-14.5,0c0-4.8,0-9.4,0-14.3c9.5,0,19,0,28.6,0c0-4.9,0-9.7,0-14.6c-9.5,0-19,0-28.7,0c0-4.8,0-9.5,0-14.2
	c-4.8,0-9.4,0-14.2,0c0,4.6,0,9.3,0,14c-5,0-9.7,0-14.7,0c0-14.4,0-28.7,0-43.3c-14.4,0-28.7,0-43.2,0c0-4.9,0-9.6,0-14.4l-0.1,0.1
	c9.6,0,19.2,0,29,0c0-5,0-9.8,0-14.6c4.8,0,9.4,0,14.2,0c0,4.9,0,9.6,0,14.5c5,0,9.8,0,14.6,0c0,9.6,0,19.2,0,28.8
	c4.8,0,9.5,0,14.1,0c0-9.6,0-19.1,0-28.7c-4.8,0-9.5,0-14.1,0c0-4.8,0-9.7,0-14.7c4.9,0,9.6,0,14.3,0c0-4.8,0-9.4,0-14
	c4.9,0,9.7,0,14.6,0c0,4.8,0,9.4,0,14c33.8,0,67.5,0,101.2,0c0-4.8,0-9.5,0-14.1l-0.1,0.1c4.8,0,9.5,0,14.3,0c0,24.1,0,48.3,0,72.4
	c-9.6,0-19.2,0-28.9,0c0-5,0-9.7,0-14.5c-4.8,0-9.4,0-14.3,0c0,4.9,0,9.7,0,14.6c-4.9,0-9.7,0-14.4,0c0,4.8,0,9.4,0,14.3
	c9.6,0,19.2,0,28.7,0c0,4.9,0,9.7,0,14.6c-4.7,0-9.4,0-14,0c0,4.9,0,9.5,0,14.3c4.7,0,9.3,0,14.1,0c0,4.9,0,9.7,0,14.6
	c9.8,0,19.3,0,28.9,0c0,4.7,0,9.5,0,14.2C554,573.2,534.7,573.2,515.5,573.2z M501.1,501.1c0-14.5,0-28.9,0-43.3
	c-14.5,0-28.9,0-43.3,0c0,14.5,0,28.8,0,43.3C472.3,501.1,486.6,501.1,501.1,501.1z M529.9,471.9c0-4.7,0-9.4,0-14.1
	c-4.8,0-9.6,0-14.3,0c0,4.8,0,9.4,0,14.1C520.4,471.9,525.1,471.9,529.9,471.9z M558.9,457.8c-4.9,0-9.7,0-14.4,0c0,4.7,0,9.4,0,14
	c4.9,0,9.7,0,14.4,0C558.9,467.1,558.9,462.5,558.9,457.8z M515.4,168.9c0,4.7,0,9.4,0,14.2c4.9,0,9.7,0,14.5,0c0,9.7,0,19.2,0,28.9
	c-9.5,0-19,0-28.7,0c0,5,0,9.7,0,14.6c-4.9,0-9.7,0-14.6,0c0-4.8,0-9.5,0-14.5c-5,0-9.7,0-14.6,0c0-4.8,0-9.4,0-14.2
	c9.6,0,19.3,0,29.2,0c0-9.8,0-19.4,0-29c-4.8,0-9.7,0-14.7,0c0,4.9,0,9.6,0,14.2c-9.7,0-19.1,0-28.7,0c0-4.7,0-9.4,0-14.2
	c4.8,0,9.4,0,14,0c0-4.9,0-9.7,0-14.6c-4.7,0-9.4,0-14.2,0c0-9.7,0-19.2,0-28.8c-4.9,0-9.7,0-14.6,0c0,4.9,0,9.6,0,14.4
	c-4.8,0-9.5,0-14.3,0c0-4.9,0-9.7,0-14.4c-4.9,0-9.7,0-14.4,0c0,14.5,0,28.9,0,43.4c4.9,0,9.7,0,14.5,0c0-4.8,0-9.6,0-14.5
	c4.7,0,9.3,0,14.1,0c0,4.7,0,9.5,0,14.5c-4.7,0-9.4,0-14.2,0c0,4.8,0,9.5,0.1,14.3l-0.1-0.1c4.7,0,9.3,0,14.2,0c0,4.9,0,9.7,0,14.6
	c5,0,9.7,0,14.6,0c0,9.7,0,19.1,0,28.8c4.8,0,9.4,0,14.3,0c0,4.9,0,9.6,0,14.4c4.8,0,9.6,0,14.5,0c0,4.8,0,9.6,0,14.6
	c-4.8,0-9.7,0-14.5,0c0,4.7,0,9.3,0,14.2c19.5,0,38.9,0,58.2,0l-0.1,0.1c0-9.5,0-19.1,0-28.9c4.9,0,9.6,0,14.3,0
	c0-9.5,0-19.1,0-28.8c4.8,0,9.6,0,14.6,0c0,9.6,0,19.2,0,28.8c4.8,0,9.5,0,14.3,0c0-14.4,0-28.8,0-43.1c-4.7,0-9.3,0-14.2,0
	c0-9.7,0-19.3,0-28.9c-4.8,0-9.7,0-14.7,0c0-5,0-9.7,0-14.5c-14.5,0-28.7,0-43.1,0c0,4.9,0,9.7,0,14.5
	C505.9,168.9,510.5,168.9,515.4,168.9z M544.4,385.3c0-4.8,0-9.4,0-14.2c-4.8,0-9.4,0-14.2,0c0-9.7,0-19.2,0-29c-5,0-9.9,0-14.7,0
	c0,4.7,0,9.3,0,14.1c-4.7,0-9.3,0-14.1,0c0-4.6,0-9.2,0-14.1c4.7,0,9.4,0,14.2,0c0-4.9,0-9.8,0-14.7c-4.7,0-9.3,0-14.2,0
	c0-4.7,0-9.4,0-14.1c-4.9,0-9.7,0-14.5,0c0,19.1,0,38.2,0,57.6c9.5,0,19,0,28.6,0c0,4.8,0,9.5,0,14.2c-14.4,0-28.7,0-43.3,0
	c0-4.6,0-9.3,0-14.2c-4.9,0-9.6,0-14.4,0c0,14.3,0,28.6,0,43.1c14.5,0,28.9,0,43.5,0c0,5,0,9.7,0,14.7c19.4,0,38.6,0,57.8,0
	l-0.1,0.1c0-4.9,0-9.8,0.1-14.7c-14.4,0-28.8,0-43.4,0c0-4.7,0-9.3,0-14.1c14.4,0,28.7,0,43.3,0c0,4.7,0,9.4,0,14.2
	c4.8,0,9.5,0,14.3,0c0-9.6,0-19.3,0-28.9C563.7,385.3,554.1,385.3,544.4,385.3z M125.4,226.7c-4.7,0-9.4,0-14.4,0
	c0-5.1,0-9.8,0-14.7c-4.9,0-9.7,0-14.4,0c0-9.7,0-19.2,0-28.7c4.9,0,9.6,0,14.5,0c0,4.9,0,9.6,0,14.4c9.7,0,19.2,0,28.8,0
	c0-4.9,0-9.6,0-14.5c-4.9,0-9.6,0-14.6,0c0-4.9,0-9.6,0-14.2l0.1,0.1c-9.6,0-19.2,0-29,0c0-5,0-9.8,0-14.7c-19.4,0-38.5,0-57.7,0
	c0,4.9,0,9.8,0,14.6c4.8,0,9.6,0,14.6,0c0,4.7,0,9.4,0,14.3c4.9,0,9.6,0,14.3,0c0-4.7,0-9.3,0-14.1c4.8,0,9.6,0,14.5,0
	c0,4.6,0,9.2,0,14.1c-4.9,0-9.7,0-14.5,0c0,4.8,0,9.6,0,14.6c4.9,0,9.7,0,14.7,0c0,9.8,0,19.4,0,29l-0.1-0.1c4.7,0,9.4,0,14.4,0
	c0,4.9,0,9.6,0,14.3c4.9,0,9.7,0,14.4,0c0,4.9,0,9.7,0,14.6c-9.6,0-19.2,0-28.7,0c0,14.4,0,28.6,0,42.9c9.6,0,19.1,0,28.8,0
	c0-9.6,0-19.1,0-28.7c4.9,0,9.6,0,14.2,0c0-4.7,0-9.4,0-14.4c5,0,9.8,0,14.5,0c0-4.9,0-9.7,0-14.6c-4.9,0-9.6,0-14.6,0
	C125.4,236,125.4,231.3,125.4,226.7L125.4,226.7z M38.8,38.8c33.7,0,67.3,0,101.1,0c0,33.7,0,67.4,0,101.3c-33.7,0-67.4,0-101.1,0
	C38.8,106.3,38.8,72.5,38.8,38.8z M125.3,53.5c-24,0-47.9,0-71.8,0c0,24,0,47.9,0,71.8c24,0,47.8,0,71.8,0
	C125.3,101.4,125.3,77.5,125.3,53.5z M573.2,140c-33.7,0-67.3,0-101.1,0c0-33.7,0-67.4,0-101.3c33.7,0,67.4,0,101.1,0
	C573.2,72.5,573.2,106.3,573.2,140z M558.9,53.5c-24.2,0-48.2,0-72.2,0c0,24,0,47.9,0,71.8c24.1,0,48.1,0,72.2,0
	C558.9,101.3,558.9,77.5,558.9,53.5z M38.8,472c33.7,0,67.3,0,101.3,0c0,33.8,0,67.6,0,101.3c-33.8,0-67.5,0-101.3,0
	C38.8,539.5,38.8,505.7,38.8,472z M125.3,558.9c0-24.2,0-48.2,0-72.2c-24,0-47.9,0-71.8,0c0,24.1,0,48.1,0,72.2
	C77.4,558.9,101.3,558.9,125.3,558.9z M125.4,342.2c-4.7,0-9.5,0-14.2,0c0,4.7,0,9.3,0,14.1c-4.8,0-9.6,0-14.5,0c0-4.6,0-9.2,0-14.1
	c4.9,0,9.7,0,14.5,0c0-9.6,0-19.2,0-28.7c-5.1,0-9.8,0-14.7,0c0,4.7,0,9.3,0,14c-4.8,0-9.4,0-14.3,0c0-4.8,0-9.4,0-14.2
	c-4.9,0-9.7,0-14.6,0c0-4.9,0-9.7,0-14.5c-4.8,0-9.4,0-14.2,0c0,4.9,0,9.6,0,14.5c-5,0-9.8,0-14.6,0c0,14.4,0,28.8,0,43.1
	c9.5,0,19.1,0,28.9,0c0-4.8,0-9.6,0-14.3c-4.7,0-9.3,0-14.1,0c0-4.8,0-9.6,0-14.5c4.6,0,9.2,0,14.1,0c0,4.9,0,9.7,0,14.5
	c4.8,0,9.6,0,14.5,0c0,9.6,0,19.1,0,28.8c-4.7,0-9.5,0-14.5,0c0,4.9,0,9.6,0,14.3l-0.1-0.1c9.5,0,19.1,0,28.9,0c0,4.9,0,9.7,0,14.6
	c4.9,0,9.7,0,14.6,0c0,4.8,0,9.4,0,14.3c4.9,0,9.6,0,14.4,0l-0.1,0.1c0-4.7,0-9.4,0-14.4c5.1,0,9.8,0,14.6,0c0-4.9,0-9.7,0-14.6
	c-9.6,0-19.1,0-28.6,0c0-4.9,0-9.5,0-14.3c9.6,0,19.1,0,28.6,0c0-4.9,0-9.7,0-14.7c-4.9,0-9.7,0-14.6,0
	C125.3,351.5,125.3,346.8,125.4,342.2C125.3,342.1,125.4,342.2,125.4,342.2z M197.8,573.2c0-9.6,0-19.3,0-28.9c-9.5,0-19.1,0-28.8,0
	c0-4.7,0-9.3,0-14.1c9.5,0,19,0,28.7,0c0,4.7,0,9.4,0,14.2c4.7,0,9.4,0,14.1,0c0-9.8,0-19.3,0-29c-4.8,0-9.4,0-14.2,0
	c0-4.9,0-9.5,0-14.2l0.1,0.1c-4.8,0-9.6,0-14.7,0c0-5,0-9.8,0-14.7l0.1,0.1c-4.7,0-9.4,0-14.3,0c0,9.7,0,19.2,0,28.9
	c-5,0-9.7,0-14.6,0c0,19.4,0,38.5,0,57.7C168.8,573.2,183.3,573.2,197.8,573.2z M573.2,284.4c-4.7,0-9.3,0-14.3,0c0-5,0-9.8,0-14.7
	l0.1,0.1c-9.6,0-19.3,0-28.9,0l0.1-0.1c0,4.9,0,9.8-0.1,14.7c4.7,0,9.3,0,14.1,0c0,4.7,0,9.3,0,14.2c-4.7,0-9.4,0-14.1,0
	c0,4.9,0,9.8,0,14.7c4.7,0,9.4,0,14.4,0c0,14.5,0,28.8,0,43c4.9,0,9.7,0,14.6,0c0-14.4,0-28.6,0-43c4.9,0,9.5,0,14.2,0
	C573.2,303.7,573.2,294.1,573.2,284.4z M82.3,226.7c-9.5,0-19.1,0-28.8,0c0-9.6,0-19.1,0-28.9c-5,0-9.9,0-14.7,0c0,24,0,48,0,72
	c9.6,0,19.2,0,28.9,0c0-9.7,0-19.2,0-29c5,0,9.7,0,14.6,0C82.3,236,82.3,231.3,82.3,226.7L82.3,226.7z M269.8,573.2
	c0-4.8,0-9.5,0-14.3c-9.6,0-19.2,0-29,0c0-14.6,0-29,0-43.3c-4.8,0-9.5,0-14.2,0c0,19.3,0,38.5,0,57.6
	C241.1,573.2,255.4,573.2,269.8,573.2z M428.8,573.2c0-9.6,0-19.2,0-28.7c-9.8,0-19.3,0-28.9,0c0,9.7,0,19.2,0,28.7
	C409.6,573.2,419.2,573.2,428.8,573.2z M38.8,400c9.6,0,19.3,0,28.9,0c0-4.9,0-9.8-0.1-14.7c0,0,0.1,0.1,0.1,0.1
	c-4.7,0-9.4,0-14.3,0c0-4.9,0-9.5,0-14.3c-5,0-9.8,0-14.6,0C38.8,380.7,38.8,390.3,38.8,400z M371.1,573.2c0-4.8,0-9.5,0-14.3
	c-4.8,0-9.7,0-14.7,0c0,4.9,0,9.6,0,14.3C361.3,573.2,366.2,573.2,371.1,573.2z M573.2,154.3c-4.7,0-9.4,0-14.3,0
	c0,5.1,0,9.9,0,14.7c4.8,0,9.5,0,14.3,0C573.2,164,573.2,159.2,573.2,154.3z M38.8,443.1c4.8,0,9.7,0,14.7,0c0-4.9,0-9.6,0-14.3
	c-4.9,0-9.8,0-14.7,0C38.8,433.6,38.8,438.3,38.8,443.1z M298.7,573.2c0-4.7,0-9.4,0-14.3c-4.9,0-9.6,0-14.3,0c0,4.8,0,9.5,0,14.3
	C289.2,573.2,293.9,573.2,298.7,573.2z M573.2,255.6c-4.8,0-9.5,0-14.3,0c0,4.8,0,9.5,0.1,14.3c0,0-0.1-0.1-0.1-0.1
	c4.8,0,9.5,0,14.3,0C573.2,265.1,573.2,260.3,573.2,255.6z M183.1,443.1c0-9.6,0-19.1,0-28.9c9.7,0,19.2,0,28.8,0
	c0-4.8,0-9.4,0-14.1c9.7,0,19.2,0,28.9,0c0,4.7,0,9.4,0,14.1c9.5,0,19.1,0,28.8,0c0,4.8,0,9.6,0,14.6c-9.6,0-19.2,0-28.8,0
	c0,4.8,0,9.5,0.1,14.3l-0.1-0.1c9.6,0,19.2,0,29,0c0,5,0,9.8,0,14.6c4.9,0,9.6,0,14.6,0c0-14.5,0-28.9,0-43.3c4.8,0,9.5,0,14.3,0
	c0,4.9,0,9.7,0,14.5c14.6,0,29,0,43.5,0c0-4.8,0-9.7,0-14.8c4.9,0,9.5,0,14.1,0c0-4.8,0-9.4,0-14.2c-9.6,0-19.1,0-28.8,0
	c0-5,0-9.8,0-14.6l0.1,0.1c-4.7,0-9.4,0-14.4,0c0,5,0,9.8,0,14.5c-4.9,0-9.7,0-14.6,0c0-4.9,0-9.6,0-14.5c-4.9,0-9.6,0-14.2,0
	l0.1-0.1c0,4.8,0,9.6,0,14.5c-4.9,0-9.7,0-14.7,0c0-4.8,0-9.7,0-14.5l0.1,0.1c-9.6,0-19.2,0-29,0c0-4.9,0-9.6,0-14.2
	c-14.4,0-28.6,0-43.1,0c0,9.6,0,19.1,0,28.6c-9.7,0-19.2,0-29,0c0-4.9,0-9.7,0-14.4c-4.9,0-9.7,0-14.6,0c0,14.5,0,28.9,0,43.4
	c-4.9,0-9.5,0-14.2,0l0.1-0.1c0,4.8,0,9.5,0,14.3l-0.1-0.1c4.7,0,9.4,0,14.4,0c0,9.8,0,19.3,0,28.8c4.9,0,9.7,0,14.6,0
	c0-9.6,0-19.1,0-28.8C173.8,443.1,178.5,443.1,183.1,443.1L183.1,443.1z M125.4,284.5c9.8,0,19.3,0,29,0c0,4.8,0,9.4,0,14
	c4.9,0,9.7,0,14.7,0c0-4.8,0-9.4,0-14.2c9.7,0,19.2,0,28.8,0c0-4.9,0-9.7,0-14.6c4.9,0,9.6,0,14.2,0l-0.1,0.1c0-9.6,0-19.1,0-28.9
	c4.9,0,9.7,0,14.6,0c0-4.8,0-9.4,0-14.1c4.8,0,9.4,0,14.3,0c0,14.3,0,28.7,0,43l-0.1-0.1c4.9,0,9.8-0.1,14.7-0.1
	c0,0-0.1,0.1-0.1,0.1c0-9.6,0-19.2,0-28.7c4.9,0,9.5,0,14.3,0c0,4.9,0,9.6,0,14.4c4.9,0,9.7,0,14.6,0c0-4.9,0-9.6,0-14.5
	c4.9,0,9.5,0,14.2,0l-0.1,0.1c0-9.5,0-19.1,0-28.8c-4.7,0-9.4,0-14.2,0c0,4.8,0,9.5,0,14.4c-4.9,0-9.7,0-14.7,0c0-4.7,0-9.5,0-14.4
	c-4.8,0-9.4,0-14.2,0c0-9.7,0-19.2,0-28.9c-5.1,0-9.9,0-14.8,0l0.1-0.1c0,4.8,0,9.6,0,14.7c-4.9,0-9.6,0-14.3,0l0.1-0.1
	c0,4.7,0,9.4,0,14.4c-5.1,0-9.8,0-14.7,0c0,4.9,0,9.7,0,14.6c-9.7,0-19.2,0-28.9,0c0,14.5,0,28.7,0,43.1c-19.4,0-38.5,0-57.7,0
	C125.4,274.6,125.4,279.5,125.4,284.5z M385.3,428.8c4.8,0,9.6,0,14.6,0c0-4.9,0-9.6,0-14.5c4.8,0,9.4,0,14.2,0c0,4.7,0,9.5,0,14.4
	c5,0,9.7,0,14.7,0c0-4.8,0-9.5,0-14.4c4.8,0,9.4,0,14.1,0c0-4.8,0-9.4,0-14.3c-4.6,0-9.3,0-14,0c0-4.9,0-9.6,0-14.6
	c4.6,0,9.3,0,14.2,0c0-4.9,0-9.6,0-14.4c-4.7,0-9.3,0-14.2,0c0-4.9,0-9.8,0-14.6c-4.9,0-9.8,0-14.7,0c0,4.8,0,9.6,0,14.7
	c-9.7,0-19.3,0-28.9,0l0.1-0.1c0,4.7,0,9.4,0,14.4c-4.9,0-9.6,0-14.2,0c0,4.9,0,9.7,0,14.6c4.7,0,9.4,0,14.2,0
	C385.4,409.8,385.4,419.3,385.3,428.8L385.3,428.8z M342.2,284.4c9.6,0,19.3,0,28.9,0.1c0-4.8,0-9.6,0-14.6c4.7,0,9.3,0,14.2,0
	c0-4.9,0-9.6,0-14.3l0.1,0.1c-14.3,0-28.6,0-43.1,0c0-4.9,0-9.6,0-14.6c-5,0-9.7,0-14.7,0c0-4.8,0-9.5,0-14.2c-4.8,0-9.4,0-14.2,0
	c0,4.6,0,9.3,0,14.2c-5,0-9.9,0-14.7,0l0.1-0.1c0,4.8,0,9.7,0,14.8c9.7,0,19.3,0,28.9,0c0,4.8,0,9.4,0,14.2c4.9,0,9.7,0,14.6,0
	C342.2,274.9,342.2,279.7,342.2,284.4L342.2,284.4z M140.1,313.3c0,4.7,0,9.4,0,14.3c-5,0-9.8,0-14.7,0c0,5,0,9.8,0,14.5
	c0,0-0.1-0.1-0.1-0.1c0.8,0,1.5,0.1,2.3,0.1c13,0,26.1,0,39.1,0c0.7,0,1.4,0,2.3,0c0,4.8,0,9.5,0,14.1c4.9,0,9.5,0,14.3,0
	c0-4.7,0-9.3,0-14.1c4.9,0,9.7,0,14.5,0c0-5,0-9.8,0-14.6l0.1,0.1c-4.8,0-9.6,0-14.7,0c0-4.9,0-9.6,0-14.3l0.1,0.1
	c-4.7,0-9.4,0-14.4,0c0,4.9,0,9.5,0,14.1c-4.9,0-9.7,0-14.6,0c0-4.7,0-9.4,0-14.1C149.4,313.3,144.7,313.3,140.1,313.3L140.1,313.3z
	 M327.5,342.2c0-9.6,0-19.3,0-28.9l0.1,0.1c-14.3,0-28.7,0-43,0c0,4.9,0,9.5,0,14.3c4.7,0,9.3,0,14.1,0c0,4.9,0,9.7,0,14.5
	C308.5,342.2,318,342.2,327.5,342.2L327.5,342.2z M342.2,443.1c4.7,0,9.4,0,14.3,0c0,5,0,9.8,0,14.6c5,0,9.8,0,14.6,0l-0.1,0.1
	c0-4.8,0-9.6,0-14.6c4.8,0,9.4,0,14.2,0c0-4.9,0-9.6,0-14.3l0.1,0.1c-14.4,0-28.8,0-43.2-0.1C342.2,433.6,342.2,438.3,342.2,443.1
	L342.2,443.1z M255.5,327.5c4.7,0,9.4,0,14.2,0c0-19.3,0-38.5,0-57.8c-4.8,0-9.4,0-14.1,0c0,0,0.1-0.1,0.1-0.1
	c0,0.2-0.1,0.4-0.1,0.6C255.6,289.4,255.6,308.5,255.5,327.5C255.6,327.6,255.5,327.5,255.5,327.5z M327.5,313.3
	c9.5,0,19.1,0,28.8,0c0-4.8,0-9.6,0-14.5c-4.6,0-9.2,0-14.1,0c0-4.9,0-9.6,0-14.3l0.1,0.1c-4.8,0-9.7,0-14.6,0
	C327.6,294.2,327.6,303.8,327.5,313.3L327.5,313.3z M269.8,385.3c4.9,0,9.8,0,14.7,0l-0.1,0.1c0-14.3,0-28.7,0-43c-5,0-9.7,0-14.6,0
	C269.8,356.8,269.8,371.1,269.8,385.3L269.8,385.3z M385.3,371.1c0-9.5,0-19.1,0-28.8c-4.7,0-9.3,0-14.2,0c0,4.6,0,9.2,0,14.1
	c-5,0-9.9,0-14.7,0l0.1-0.1c0,4.8,0,9.7,0,14.6C366.3,371.1,375.8,371.1,385.3,371.1L385.3,371.1z M356.4,356.5c0-9.5,0-19.1,0-28.8
	c-4.7,0-9.3,0-14.2,0c0,4.7,0,9.5,0,14.5c-5,0-9.9,0-14.7,0l0.1-0.1c0,4.7,0,9.4,0,14.3C337.4,356.4,346.9,356.4,356.4,356.5
	L356.4,356.5z M241,269.8c-9.6,0-19.3,0-28.9,0l0.1-0.1c0,4.8,0,9.7,0,14.5c9.7,0,19.2,0,28.8,0C240.9,279.4,240.9,274.6,241,269.8
	L241,269.8z M255.6,327.6c-4.8,0-9.7,0-14.5,0c0,9.7,0,19.2,0,28.7c4.9,0,9.7,0,14.5,0C255.5,346.6,255.5,337.1,255.6,327.6
	C255.5,327.5,255.6,327.6,255.6,327.6z M125.4,414.2c0,4.8,0,9.6,0,14.6c4.9,0,9.8,0,14.6,0l-0.1,0.1c0-4.8,0-9.7,0-14.6
	C135,414.2,130.2,414.2,125.4,414.2L125.4,414.2z M140,313.3c0-4.8,0-9.7,0-14.5c-5,0-9.7,0-14.5,0c0,4.9,0,9.7,0,14.5
	C130.5,313.3,135.3,313.3,140,313.3C140.1,313.3,140,313.3,140,313.3z M183.1,313.3c4.9,0,9.8,0,14.7,0l-0.1,0.1c0-4.8,0-9.7,0-14.5
	c-5,0-9.7,0-14.6,0C183.2,303.8,183.2,308.5,183.1,313.3L183.1,313.3z M327.5,385.3c4.8,0,9.7,0,14.5,0c0-4.8,0-9.5,0-14.1
	c-4.9,0-9.7,0-14.5,0C327.6,376,327.6,380.7,327.5,385.3C327.6,385.4,327.5,385.3,327.5,385.3z M197.8,313.3c0,4.8,0,9.5,0,14.3
	c0,0-0.1-0.1-0.1-0.1c4.7,0,9.4,0,14.1,0c0-4.9,0-9.5,0-14.2C207.1,313.3,202.4,313.3,197.8,313.3L197.8,313.3z M298.5,284.6
	c-4.8,0-9.4,0-14,0c0,4.7,0,9.3,0,14c4.7,0,9.3,0,14,0C298.5,293.8,298.5,289.2,298.5,284.6z M226.7,67.7c9.5,0,19.1,0,28.8,0
	c0,4.8,0,9.6,0,14.6c4.9,0,9.6,0,14.3,0l-0.1-0.1c0,4.7,0,9.4,0,14.1c5,0,9.8,0,14.7,0c0-4.8,0-9.5,0-14.1l-0.1,0.1
	c4.7,0,9.4,0,14.3,0c0,4.9,0,9.5,0,14.3c9.7,0,19.2,0,28.8,0c0,9.7,0,19.3,0,28.8l0.1-0.1c-4.7,0-9.4,0-14.1,0c0,9.8,0,19.3,0,29
	c4.7,0,9.3,0,14.1,0c0,4.9,0,9.7,0,14.5c5,0,9.8,0,14.6,0c0,4.7,0,9.4,0,14.1c-9.8,0-19.3,0-29,0c0-4.8,0-9.4,0-14.2
	c-9.7,0-19.3,0-28.8,0l0.1,0.1c0-4.8,0-9.7,0-14.7c-5.1,0-9.8,0-14.7,0c0-14.4,0-28.6,0-42.9c-4.8,0-9.4,0-14.2,0
	c0,19.3,0,38.4,0,57.6c-5,0-9.8,0-14.6,0l0.1,0.1c0-14.5,0-28.9,0-43.6c-5,0-9.6,0-14.3,0l0.1,0.1c0-4.8,0-9.5,0-14.3l-0.1,0.1
	c4.7,0,9.4,0,14.1,0c0-9.8,0-19.3,0-28.9c-4.8,0-9.5,0-14.1,0l0.1,0.1C226.7,77.4,226.7,72.5,226.7,67.7L226.7,67.7z M298.6,111.3
	c-4.8,0-9.4,0-14,0c0,9.6,0,19.1,0,28.6c4.8,0,9.4,0,14,0C298.6,130.3,298.6,120.8,298.6,111.3z M356.5,53.4c0,14.3,0,28.6,0,43
	c4.9,0,9.6,0,14.5,0c0-9.5,0-19,0-28.6c9.7,0,19.2,0,28.8,0c0,4.7,0,9.5,0,14.4c-4.8,0-9.5,0-14.4,0c0,19.3,0,38.4,0,57.7
	c-4.8,0-9.5,0-14.3,0c0-9.5,0-19,0-28.6c-4.9,0-9.7,0-14.7,0c0,14.3,0,28.7,0,43c9.5,0,19.1,0,28.9,0c0,4.9,0,9.8,0,14.6l-0.1-0.1
	c4.8,0,9.7,0,14.7,0c0-24.2,0-48.3,0-72.3c4.8,0,9.4,0,14.2,0c0,4.9,0,9.6,0,14.4c14.6,0,29,0,43.4,0c0-4.9,0-9.6,0-14.5
	c-9.6,0-19.1,0-28.9,0c0-9.7,0-19.2,0-28.9c-4.9,0-9.7,0-14.6,0c0-9.7,0-19.2,0-28.7c-4.9,0-9.5,0-14.3,0c0,4.9,0,9.6,0,14.4
	c-4.9,0-9.7,0-14.7,0c0-4.9,0-9.7,0-14.4c-4.8,0-9.4,0-14.2,0c0,4.9,0,9.6,0,14.6C366,53.4,361.2,53.4,356.5,53.4L356.5,53.4z
	 M385.3,168.9c0,4.7,0,9.3,0,14.2c4.9,0,9.7,0,14.6,0c0,5,0,9.7,0,14.6c4.8,0,9.4,0,14.2,0c0-4.8,0-9.5,0-14.5c5,0,9.9,0,14.7,0
	l-0.1-0.1c0,14.5,0,28.9,0,43.6c4.9,0,9.5,0,14.3,0c0,4.9,0,9.5,0,14.2c-4.7,0-9.4,0-14.3,0c0,5,0,9.8,0,14.6c-14.5,0-29,0-43.6-0.1
	l0.1,0.1c0-4.8,0-9.7,0-14.7c-9.8,0-19.3,0-28.8,0c0-19.3,0-38.5,0-57.8c4.9,0,9.6,0,14.5,0c0-4.8,0-9.4,0-14.1
	C376,168.9,380.7,168.9,385.3,168.9L385.3,168.9z M385.2,226.6c0-4.9,0-9.6,0-14.4c-4.7,0-9.4,0-14,0c0,4.9,0,9.7,0,14.4
	C376,226.6,380.5,226.6,385.2,226.6z M226.7,197.8c-19.2,0-38.4,0-57.8,0c0-9.7,0-19.3,0-28.9l-0.1,0.1c4.7,0,9.3,0,14.2,0
	c0-19.3,0-38.4,0-57.7c4.9,0,9.7,0,14.7,0c0-5,0-9.9,0-14.7l-0.1,0.1c4.7,0,9.4,0,14.3,0c0-4.9,0-9.5,0-14.2c5,0,9.8,0,14.6,0
	l-0.1-0.1c0,9.6,0,19.3,0,28.9l0.1-0.1c-4.8,0-9.7,0-14.6,0c0,5,0,9.6,0,14.3c-4.7,0-9.4,0-14.2,0c0,9.7,0,19.2,0,28.7
	c4.8,0,9.4,0,14.1,0c0-9.7,0-19.2,0-28.8c4.9,0,9.8,0,14.7,0.1l-0.1-0.1c0,14.5,0,28.9,0,43.6c5,0,9.6,0,14.3,0l-0.1-0.1
	c0,4.8,0,9.5,0,14.3l0.1-0.1c-4.7,0-9.4,0-14.3,0C226.6,188.2,226.6,193,226.7,197.8L226.7,197.8z M212,169.1c-4.8,0-9.4,0-14,0
	c0,4.8,0,9.4,0,14c4.7,0,9.3,0,14,0C212,178.4,212,173.8,212,169.1z M197.8,96.6c0-9.6,0-19.1,0-28.9c9.7,0,19.3,0,28.9,0
	c0,0-0.1,0.1-0.1,0.1c0-4.7,0-9.4,0-14.4c4.9,0,9.6,0,14.2,0c0-4.9,0-9.7,0-14.4c-9.6,0-19.1,0-28.8,0c0,4.9,0,9.6,0,14.4
	c-4.8,0-9.4,0-14.3,0c0-4.9,0-9.7,0-14.4c-4.9,0-9.7,0-14.6,0c0,4.9,0,9.6,0,14.6c-4.9,0-9.6,0-14.2,0l0.1-0.1c0,4.7,0,9.4,0,14.4
	c-5.1,0-9.8,0-14.6,0c0,14.6,0,28.9,0,43.3c4.9,0,9.6,0,14.6,0c0-4.9,0-9.6,0-14.5C178.7,96.5,188.3,96.5,197.8,96.6L197.8,96.6z
	 M269.8,82.2c4.9,0,9.8,0,14.7,0l-0.1,0.1c0-4.8,0-9.6,0-14.7c9.7,0,19.3,0,28.9,0l-0.1,0.1c0-4.7,0-9.3,0-14.3
	c14.5,0,28.8,0,43.2,0c0,0-0.1,0.1-0.1,0.1c0-4.8,0-9.7,0-14.5c-24.1,0-48,0-72,0c0,4.9,0,9.6,0,14.5c-4.9,0-9.7,0-14.5,0
	C269.8,63.2,269.8,72.8,269.8,82.2L269.8,82.2z M125.4,226.7c14.5,0,28.9,0,43.4,0c0-5,0-9.7,0-14.5c-14.5,0-28.9,0-43.4,0
	C125.4,217.1,125.4,221.9,125.4,226.7C125.4,226.7,125.4,226.7,125.4,226.7z M443.2,53.3c4.9,0,9.7,0,14.4,0c0-4.9,0-9.7,0-14.5
	c-4.8,0-9.5,0-14.4,0C443.2,43.7,443.2,48.5,443.2,53.3z M154.4,255.4c4.9,0,9.6,0,14.4,0c0-4.9,0-9.7,0-14.4c-4.9,0-9.6,0-14.4,0
	C154.4,246,154.4,250.7,154.4,255.4z M168.9,53.4c0-4.8,0-9.7,0-14.5c-5,0-9.7,0-14.5,0c0,4.9,0,9.7,0,14.5
	C159.4,53.4,164.2,53.4,168.9,53.4C168.9,53.4,168.9,53.4,168.9,53.4z M168.9,168.9c0-4.8,0-9.7,0-14.5c-5,0-9.7,0-14.5,0
	c0,4.9,0,9.7,0,14.5C159.4,168.9,164.2,168.9,168.9,168.9C168.9,168.9,168.9,168.9,168.9,168.9z M125.4,168.9c4.8,0,9.7,0,14.5,0
	c0-5,0-9.7,0-14.5c-4.9,0-9.7,0-14.5,0C125.4,159.4,125.4,164.2,125.4,168.9C125.4,168.9,125.4,168.9,125.4,168.9z M154.4,139.9
	c4.9,0,9.7,0,14.4,0c0-4.9,0-9.6,0-14.4c-4.8,0-9.5,0-14.4,0C154.4,130.4,154.4,135.2,154.4,139.9z M284.5,544.3
	c9.8,0,19.3,0,28.9,0l-0.1,0.1c0-4.7,0-9.4,0-14.1c14.6,0,28.8,0,43.2,0c0,4.7,0,9.3,0,14.1c4.9,0,9.7,0,14.5,0c0,5,0,9.8,0,14.6
	c4.7,0,9.4,0,14.1,0c0-14.7,0-29.1,0-43.6c-9.6,0-19.1,0-28.8,0c0-4.8,0-9.4,0-14.1c-4.9,0-9.5,0-14.3,0c0,4.7,0,9.3,0,14
	c-4.9,0-9.7,0-14.7,0c0-4.8,0-9.4,0-14.2c-4.8,0-9.4,0-14.2,0c0-4.9,0-9.7,0-14.7c-9.7,0-19.2,0-29,0c0-5,0-9.7,0-14.5
	c-14.6,0-28.9,0-43.3,0c0,9.8,0,19.4,0,29.2c4.9,0,9.7,0,14.5,0c0-4.8,0-9.6,0-14.5c4.7,0,9.3,0,14.1,0c0,4.7,0,9.5,0,14.5
	c-4.7,0-9.4,0-14.2,0c0,4.7,0,9.4,0,14.4c14.6,0,28.8,0,43.1,0c0,4.9,0,9.7,0,14.6c-9.6,0-19.1,0-28.8,0c0,9.8,0,19.3,0,28.9
	c4.9,0,9.8,0,14.7,0C284.5,554.2,284.5,549.3,284.5,544.3z M183.1,486.6c4.9,0,9.8,0,14.7,0.1c0-4.8,0-9.6,0-14.5
	c4.7,0,9.3,0,14.1,0c0,4.7,0,9.5,0,14.5c-4.7,0-9.4,0-14.2,0c0,4.9,0,9.8,0.1,14.7l-0.1-0.1c9.6,0,19.2,0,28.9,0
	c0-14.7,0-29.1,0-43.5l0.1,0.1c-4.8,0-9.6,0-14.6,0c0-9.7,0-19.2,0-28.8c-4.8,0-9.4,0-14.2,0c0,4.6,0,9.2,0,14.2
	c-5.1,0-9.9,0-14.8,0l0.1-0.1C183.2,457.6,183.2,472.1,183.1,486.6L183.1,486.6z M342.2,443.1c-4.8,0-9.7,0-14.5,0
	c0,9.7,0,19.2,0,28.7c4.9,0,9.7,0,14.5,0C342.2,462.1,342.2,452.6,342.2,443.1C342.2,443.1,342.2,443.1,342.2,443.1z M298.8,457.6
	c4.9,0,9.6,0,14.4,0c0-4.9,0-9.6,0-14.5c-4.8,0-9.5,0-14.4,0C298.8,448.1,298.8,452.9,298.8,457.6z M385.5,501.1c4.9,0,9.7,0,14.4,0
	c0-4.9,0-9.6,0-14.4c-4.8,0-9.5,0-14.4,0C385.5,491.6,385.5,496.4,385.5,501.1z M241,443.1c-4.7,0-9.3,0-14.2,0c0,4.9,0,9.8,0,14.6
	l-0.1-0.1c4.7,0,9.4,0,14.3,0C240.9,452.7,240.9,447.9,241,443.1L241,443.1z M140.1,443.1c-9.5,0-19.1,0-28.8,0c0-4.8,0-9.4,0-14.2
	c-5,0-9.9,0-14.7,0l0.1-0.1c0,9.6,0,19.2,0,28.8c14.6,0,29,0,43.5,0C140,452.7,140,447.9,140.1,443.1L140.1,443.1z M82.3,428.9
	c-4.9,0-9.8,0-14.7,0c0,0,0.1-0.1,0.1-0.1c0,9.6,0,19.2,0,28.8c5,0,9.7,0,14.6,0C82.2,447.9,82.2,438.4,82.3,428.9L82.3,428.9z
	 M96.5,428.9c0-4.8,0-9.6,0-14.6c-4.8,0-9.5,0-14.2,0l0.1-0.1c0,4.9,0,9.8,0,14.7c0,0-0.1-0.1-0.1-0.1
	C87,428.8,91.8,428.8,96.5,428.9L96.5,428.9z M67.7,428.8C67.7,428.8,67.6,428.9,67.7,428.8c-0.1-4.8-0.1-9.7-0.1-14.6
	c0,0,0.1,0.1,0.1,0.1c-4.7,0-9.4,0-14.3,0c0,5,0,9.8,0,14.6C58.1,428.8,62.9,428.8,67.7,428.8z M530.1,327.6c0-5,0-9.6,0-14.3
	c-4.8,0-9.7,0-14.7,0c0,5,0,9.6,0,14.3C520.3,327.6,525.1,327.6,530.1,327.6z M313.3,544.3c0,4.8,0,9.7,0,14.5c9.7,0,19.2,0,28.7,0
	c0-4.9,0-9.7,0-14.5C332.4,544.4,322.8,544.4,313.3,544.3C313.3,544.4,313.3,544.3,313.3,544.3z M67.7,414.2
	C67.7,414.2,67.6,414.2,67.7,414.2c4.8-0.1,9.7-0.1,14.6-0.1c0,0-0.1,0.1-0.1,0.1c0-4.7,0-9.4,0-14.3c-5,0-9.8,0-14.6,0
	C67.6,404.7,67.7,409.5,67.7,414.2z M544.3,255.6c5.1,0,9.9,0,14.7,0c0-4.9,0-9.8,0-14.7c-4.9,0-9.8,0-14.7,0
	C544.3,245.7,544.3,250.6,544.3,255.6z M443.1,356.5c0,5,0,9.8,0,14.6c4.9,0,9.8,0,14.7,0c0-4.8,0-9.7,0-14.7c4.9,0,9.5,0,14.1,0
	c0-14.5,0-28.7,0-43c-9.7,0-19.2,0-28.8,0l0.1-0.1c0,4.7,0,9.4,0,14.3c5,0,9.7,0,14.5,0c0,5,0,9.7,0,14.5c-9.7,0-19.2,0-28.8,0
	c0,4.8,0,9.5,0,14.3C433.5,356.5,438.2,356.5,443.1,356.5z M472.1,486.5c4.9,0,9.6,0,14.4,0c0-4.9,0-9.6,0-14.5c-4.8,0-9.5,0-14.4,0
	C472.1,477,472.1,481.8,472.1,486.5z M428.9,269.8C428.9,269.8,428.8,269.8,428.9,269.8c9.5-0.1,19.1-0.1,28.9-0.1
	c0-4.8,0-9.5,0-14.2c4.9,0,9.5,0,14.2,0c0-4.9,0-9.8,0-14.7c-9.6,0-19.3,0-28.9,0c0,4.8,0,9.7,0,14.6c-4.9,0-9.6,0-14.2,0
	C428.8,260.3,428.8,265.1,428.9,269.8z M400,298.7c-5.1,0-9.9,0-14.7,0c0,4.8,0,9.7,0,14.7c-4.8,0-9.5,0-14.1,0c0,4.8,0,9.5,0,14.2
	c9.7,0,19.2,0,28.8,0C400,318,400,308.4,400,298.7z M428.9,327.5c-9.8,0-19.4,0-28.9,0c0,9.6,0,19.2,0,28.9c5,0,9.6,0,14.3,0
	c0-4.7,0-9.4,0-14.2c5,0,9.8,0,14.6,0C428.9,337.4,428.9,332.5,428.9,327.5z M428.9,269.8c-9.6,0-19.2,0-28.8,0c0,5,0,9.7,0,14.5
	c9.6,0,19.1,0,28.7,0C428.8,279.4,428.8,274.6,428.9,269.8C428.8,269.8,428.9,269.8,428.9,269.8z M443.1,313.3c0-4.8,0-9.7,0-14.5
	c-9.7,0-19.2,0-28.7,0c0,4.9,0,9.7,0,14.5C424,313.3,433.6,313.3,443.1,313.3C443.1,313.3,443.1,313.3,443.1,313.3z M501.1,298.5
	c0-4.8,0-9.4,0-14c-9.8,0-19.3,0-29,0c0,4.7,0,9.3,0,14C481.8,298.5,491.5,298.5,501.1,298.5z M515.6,284.4c0,4.9,0,9.5,0,14.3
	c4.9,0,9.7,0,14.5,0c0-4.8,0-9.5,0-14.3C525.3,284.4,520.5,284.4,515.6,284.4z M385.4,284.4c-5,0-9.6,0-14.3,0c0,4.7,0,9.4,0,14.3
	c5,0,9.6,0,14.3,0C385.4,294,385.4,289.3,385.4,284.4z M67.8,111c14.5,0,28.9,0,43.3,0c0-14.5,0-28.8,0-43.3c-14.4,0-28.8,0-43.3,0
	C67.8,82.3,67.8,96.7,67.8,111z M544.2,111c0-14.5,0-28.9,0-43.3c-14.4,0-28.6,0-42.9,0c0,14.4,0,28.8,0,43.3
	C515.7,111,530,111,544.2,111z M67.8,501.4c0,14.4,0,28.7,0,42.9c14.5,0,28.8,0,43.3,0c0-14.3,0-28.5,0-42.9
	C96.5,501.4,82.1,501.4,67.8,501.4z M226.8,414.2c0,5,0,9.8,0,14.7c4.8,0,9.5,0,14.1,0c0-4.9,0-9.8,0-14.7
	C236.2,414.2,231.5,414.2,226.8,414.2z M284.5,168.9c-4.8,0-9.7,0-14.5,0c0,9.7,0,19.3,0,28.7c9.7,0,19.2,0,28.6,0
	c0-4.9,0-9.6,0-14.5c-4.7,0-9.4,0-14.2,0C284.4,178.2,284.4,173.6,284.5,168.9C284.4,168.9,284.5,168.9,284.5,168.9z M356.5,168.9
	c0-5.1,0-9.9,0-14.7c-4.7,0-9.4,0-14.3,0c0,5.1,0,9.9,0,14.7C346.9,168.9,351.6,168.9,356.5,168.9z M327.4,211.9c0-4.8,0-9.4,0-14
	c-4.7,0-9.3,0-14,0c0,4.7,0,9.3,0,14C318.2,211.9,322.8,211.9,327.4,211.9z M327.6,125.4c0,4.8,0,9.7,0,14.5c5,0,9.7,0,14.5,0
	c0-4.9,0-9.7,0-14.5C337.1,125.4,332.3,125.4,327.6,125.4C327.5,125.4,327.6,125.4,327.6,125.4z M313.3,67.6c0,4.8,0,9.7,0,14.5
	c4.8,0,9.5,0,14.1,0c0-4.9,0-9.7,0-14.5C322.6,67.7,317.9,67.7,313.3,67.6C313.3,67.7,313.3,67.6,313.3,67.6z"/>
</svg>
