<?xml version="1.0" encoding="utf-8"?>
<!-- Generator: Adobe Illustrator 22.0.0, SVG Export Plug-In . SVG Version: 6.00 Build 0)  -->
<svg version="1.1" id="Layer_1" xmlns="http://www.w3.org/2000/svg" xmlns:xlink="http://www.w3.org/1999/xlink" x="0px" y="0px"
	 viewBox="0 0 1920 1080" style="enable-background:new 0 0 1920 1080;" xml:space="preserve">
<style type="text/css">
	.st0{fill:#282A32;}
	.st1{fill:url(#SVGID_1_);stroke:url(#SVGID_2_);stroke-miterlimit:10;}
</style>
<rect class="st0" width="1920" height="1080.1"/>
<g id="Jorge_Canelon_1_">
</g>
<linearGradient id="SVGID_1_" gradientUnits="userSpaceOnUse" x1="962.2412" y1="1194.9541" x2="1487.3971" y2="212.2457">
	<stop  offset="9.914436e-08" style="stop-color:#FFBB5A"/>
	<stop  offset="0.8347" style="stop-color:#282A32"/>
</linearGradient>
<linearGradient id="SVGID_2_" gradientUnits="userSpaceOnUse" x1="544.2014" y1="633.892" x2="1920.5" y2="633.892">
	<stop  offset="0.1713" style="stop-color:#282A32"/>
	<stop  offset="1" style="stop-color:#FFBB5A"/>
</linearGradient>
<path class="st1" d="M1500.4,783.7c-1.4,1.2-2.8,2.2-4.1,3.5c-4.2,4.4-7.2,2.2-8.9-2.1c-6-15-11.8-30.2-17.8-45.7
	c-3.5,1.7-6.3,0.1-9-4.8c-6.8-12-13.6-14.4-27.4-12.4c-4.2,0.6-8.7-0.8-13-1.5c-2.7-0.4-5.3-1.2-9.9-2.2c5.9,5.2,10.3,9,14.5,12.7
	c-6.2,11.7-10.8,22.9-23.7,27.5c-11,4-21.6,8.9-32.5,15.1c5.3,0.8,10.6,1.7,15.9,2.2c7.7,0.8,8,2.2,5.7,9.4
	c-4.8,15.2-16.6,24.9-27.6,34.8c-13.1,11.8-17.1,24.9-11.9,41.7c4.1,13.4-0.1,23.4-12,31c-4.9,3.1-7,6.4-6.3,12.1
	c0.8,7.1-1.4,13-6.5,18.5c-4.5,4.9-7,11.6-10.4,17.5c-6.8,11.7-17.1,18.1-30.3,20.3c-2.1,0.3-4.2,0.6-6.2,1
	c-8.5,1.8-13.3-1.5-16-9.4c-2.3-6.8-6.2-13.1-8.9-19.8c-1.5-3.8-2.3-8-3.3-12c-2.1-8.6-3.5-17.4-6.4-25.7c-2.4-7-3.2-13.4-1.1-20.6
	c4.8-16.3,3.4-31.4-9.1-44.6c-2.7-2.8-3.8-8.5-3.3-12.6c0.6-6.2-0.6-9.6-7-10.8c-2.2-0.4-5.1-1.3-6.1-2.9
	c-4.5-7.3-10.3-5.6-17.2-4.2c-10.4,2.1-21.2,3-31.9,3.4c-3.7,0.1-8.7-1.9-11.2-4.7c-8.4-9.4-16.7-19-23.3-29.6
	c-3-4.8-2.8-12.2-2.3-18.2c1.4-17.2,6.6-32.9,21.6-43.7c2-1.4,3-4.2,4.3-6.4c4.4-7.6,8.6-15.4,13.3-22.7c1-1.5,4.8-2.9,6.1-2.2
	c6.4,3.3,11.8,1.3,17-2.1c11.3-7.4,24.3-5.7,36.7-6.9c1.2-0.1,3.3,1.7,3.8,3c3.9,9.9,13.3,14.3,20.6,20.6c6.2,5.4,13.7,5.1,20.4,0.2
	c5.2-3.8,9.7-4.2,15.1-0.4c5.5,4,11.6,5.7,18.6,3.6c3.2-0.9,6.8-0.4,10.2-0.4c5.3-0.1,14.3-6.7,15.1-11.7c0.3-1.9-0.3-4.5-1.5-5.7
	c-0.8-0.8-3.6,1-5.4,0.8c-2.5-0.2-5-0.9-7.4-1.9c-1.1-0.5-1.9-3-2.6-2.9c-7,1.1-14.4,1.4-20.8,4.1c-4.9,2.1-8,1.8-12.2-0.9
	c-9.6-6.3-12.4-16.2-15.6-26.2c-1-3.1-4.3-5.8-7-8.1c-3.6-3-7.6-5.4-11.6-7.9c-1.7-1-3.7-1.5-5.5-2.3c-0.4,0.8-0.9,1.6-1.3,2.4
	c7.6,6.5,15.2,12.9,22.3,19c-4.6,5.7-9.1,11.3-14.5,17.9c-1.9-1.2-4.4-2.9-8.5-5.5c3.8-0.6,5.6-0.4,6.7-1.2c2.3-1.7,5.4-3.8,5.9-6.2
	c0.4-1.8-2.3-4.8-4.3-6.5c-4.7-4.1-10.5-7.2-14.5-11.8c-4.2-4.8-8-5.6-13.7-3.2c-3.4,1.4-7.4,1.2-11.6,1.8c-2,2.8-4.9,6.7-7.7,10.7
	c-3.1,4.4-5.7,9.3-9.3,13.2c-3.2,3.5-7.3,6.7-11.6,8.4c-3.6,1.4-8.2,5-12.4-0.9c-1.7-2.3-6.7-2.2-11.1-3.5c0.8-3.5,1.8-6.7,2.3-9.9
	c0.5-3.3,1.2-6.7,0.8-9.9c-1.1-7.7,0.8-10.2,8.5-9.8c2.9,0.1,5.9,1.2,8.6,0.8c3.6-0.6,10-2.5,9.9-3.6c-0.2-5.1-1.6-10.4-3.9-15
	c-1.6-3.2-5.5-5.3-10.2-9.6c7.1-2.5,12.2-4.4,17.4-6.1c1-0.3,2.4,0,3-0.7c6.1-6.6,12-13.3,18.1-19.9c1.7-1.9,3.7-4.4,5.9-4.8
	c7-1.3,9.7-4.2,7-11.5c-2.9-7.7,3.7-10.2,9.6-15.6c0.9,5.3,1.7,8.9,2,12.5c1.3,12.6,9.2,16.5,20.3,10.5c2.9-1.5,7-0.7,11.8-1.1
	c3.7-6.7,8.2-14.9,12.7-23.1c0.6,0.2,1.2,0.5,1.8,0.7c-1.1-2.6-2.2-5.2-4.1-9.8c8-2.5,15.6-4.8,23.1-7.1c-0.2-0.9-0.4-1.9-0.5-2.8
	c-4.5,0.7-9.2,1-13.6,2.4c-5.8,1.9-11.9-1.3-12.9-7.4c-1.5-9.5-0.3-18.2,6.3-25.8c2-2.3,3.7-5.3,4.5-8.2c0.4-1.6-1-4.8-2.3-5.3
	c-1.5-0.5-4.7,0.6-5.6,2c-5.5,8.8-10.3,17.9-15.7,26.7c-3.2,5.2-3.3,9.7,1,14.3c3.8,4.1,2.3,7.8-0.7,11.9c-2.3,3-2.8,7.3-4.7,10.7
	c-2.9,5.5-6.3,10.7-9.7,16.4c-11.3-6.7-6.2-19.5-14.2-27c-3.1,1.6-6.5,3.3-9.8,5.2c-5.2,3-8.4,1-10.5-4c-6-14.7,1.3-35.1,14.6-43.3
	c11.5-7,15.5-19.2,19-31.3c0.5-1.6-2.8-4.3-4.8-7c7.1-11.6,17.2-20.3,31.5-23.7c1.7-0.4,3.4-1.4,4.9-2.4c13.1-8.8,24.8-6.1,32.7,7.3
	c1,1.6,3.6,2.8,5.6,3.3c12.8,2.7,21.4,11.7,30.1,20.3c2,2,3.4,8,2.5,8.7c-4,2.9-8.9,6.1-13.4,6.1c-5.1,0-10.2-3.4-14.7-5
	c1.4,5.5,2.6,11,4.2,16.5c0.6,2.2,2,4.3,3,6.4c1.2-2,2.4-4.1,4-6.9c3.1,0.7,7.6,1.6,12.3,2.6c1.5-4,2.6-7.4,4.1-10.7
	c0.8-1.8,2.3-4.5,3.7-4.7c9.5-1,7.6-7.1,6.9-13.2c-0.3-2.8,0.9-5.8,1.5-8.7c2.9,1,5.8,1.9,7.9,2.6c-0.6,5.2-1.1,8.8-1.5,12.4
	c10.3-7.5,17-18.4,32.8-14.8c0.4-0.5,2.1-2.4,3.9-4.4c5,0,10.2,0,16.1,0c-0.2-2.6,0-5.3-0.9-7.6c-0.7-2.1-2.6-3.7-4-5.5
	c0.5-0.6,1-1.2,1.6-1.8c11.3,6.5,22.6,12.9,33.9,19.4c0.9-0.2,1.7-0.3,2.6-0.5c-13.1-22.8,1.3-39.3,9.1-59c3.9,5.3,6.5,8.3,8.6,11.7
	c1,1.6,1.8,4.2,1.1,5.8c-5.2,12.8-2.3,25.9-1.1,38.8c1.2,12.4-0.6,17-11.5,22.6c9.3,4,14.8-0.2,16.1-12.7c0.5-5.4,0.2-11,8.1-11.8
	c-1.6-0.6-3.5-1-4.8-2c-1.8-1.5-4.1-3.5-4.4-5.5c-0.9-5.7-1.1-11.5-1.1-17.3c0-3,0.9-6.1,1.8-9c1.1-3.3,2.6-6.5,4.1-10.5
	c1.4,2.4,2.7,4.7,3.6,6.1c4.2-0.7,9.5-3.2,11.7-1.6c5.5,4.2,12.5,8.2,12.6,16.9c0,2.7,0.5,5.4,2.1,7.9c1.2-6.8,2.8-13.3-2.4-19.9
	c-3.1-4-5.8-10-5-14.4c0.5-2.9,7.5-4.9,11.9-6.8c2.6-1.1,5.6-1.2,9.2-1.9c-3.3-14,5-20.6,15.8-26.4c5.7-3.1,13.4-5.5,13.6-14.8
	c0-1.9,4.5-3.7,6.4-5.1c2.5,4.5,3.9,10.3,7.1,11.7c2.6,1.1,7.6-2.9,11.5-4.7c0-6.5,7.8-20.6,12.1-20c5.4,0.8,10.4,4.2,15.5,6.4
	c-0.3,0.7-0.5,1.4-0.8,2c-2-0.3-4-0.5-5.7-0.7c1.5,3.3,3,6.7,4.6,10.1c3.6-0.4,8.3-2.3,11.8-1c5,1.9,11.1,5.1,13.2,9.5
	c3.2,6.6,0.7,13.9-5.1,19.3c-7.5,7-14.8,14.1-22.2,21.1c0.5,0.7,1,1.4,1.4,2.1c2.6-1.6,5.4-2.9,7.7-4.8c5.3-4.4,10.3-5.6,17.2-2.8
	c8.5,3.4,17.1,5.7,24.3,12.1c4.6,4.1,8.8-0.3,11.8-4.2c1.5-2,2.2-4.6,3.3-6.8c14.9,1.1,19.3,7.1,20,21.3c0.3,5,2.7,9.9,4.2,14.8
	c1-0.1,2.1-0.2,3.1-0.3c1.5-4,3.1-8,4.9-12.7c6.1,8,14.7,2.7,22.2,5.5c0.8-1.6,1.5-2.7,1.9-3.8c3.5-11.6,11.5-14.6,22.4-9
	c3.6,1.8,8.1,1.9,12.2,2.8c1.5,0.3,3.4,0.4,4.4,1.4c4.8,4.7,9.4,9.7,14.9,15.4c4.3-0.7,9.9-2.1,15.6-2.5c8.3-0.5,10.7,2.1,10.9,10.4
	c0.2,7.2,2.7,7.9,9.4,6.6c8.5-1.7,18.1-5.5,25.4,3.8c1.4,1.7,4.2,2.3,6.2,3.3c1-1.2,1.6-1.7,1.6-2c-1.7-8.5,2.6-11.3,9.9-9.3
	c7.7,2,15.7,4.2,22.3,8.3c7.5,4.7,13.4,11.8,20.4,17.4c2.3,1.8,5.4,3.1,8.3,3.6c11.2,1.9,14,8.3,7.3,17.2c-1.1,1.4-1.3,3.4-2.1,5
	c-2.5,5-7.9,6-12.5,2.8c-3.6-2.6-7.2-5.3-11.2-6.9c-6.9-2.7-11.7,1.5-10.9,9.1c0.3,2.3,1.1,4.6,1.3,7c0.4,5.1-0.9,7.3-7.3,8.1
	c-6.1,0.8-11.8,5.8-17.2,9.5c-2.7,1.9-4.1,5.6-6.9,7.5c-1.8,1.3-6,1.9-7.1,0.9c-4.1-4.2-7.3-2.4-11.1,0.2c-1.9,1.3-4.1,2.3-6.3,2.9
	c-6.4,1.7-9.1,7.4-6.5,14c0.4,1.1,0.6,2.7,0.2,3.7c-3.6,7.7-1.1,18.6-12,22.6c-0.9,0.3-1.2,2.7-1.6,4.2c-1.6,7.1-6.4,10.9-12.8,13.5
	c-7-16.8-3.1-35.5,8.5-47.3c7-7,13-15,19.2-22.7c1.5-1.9,1.7-4.7,1.4-7.6c-1.5,1.8-3.1,3.5-4.5,5.3c-7.4,9.5-7.6,9.5-14-0.6
	c-7.2,0.7-11.5,4.7-13.8,11.7c-3.5,10.6-5.8,11.1-16.1,7.1c-3.5-1.3-7.9-0.2-11.9-0.1c-2.2,0.1-4.5,0.1-6.6,0.5
	c-5.4,1.2-11.6,1.3-15.9,4.2c-6.2,4.1-11.2,10.2-16.6,15.7c-6.3,6.5-5,10.2,3.1,13.9c3.4,1.5,8.1,5.5,8.1,8.3
	c0,9.6-0.3,19.7-3.5,28.5c-3.1,8.4-9.7,15.5-15.3,22.8c-3.8,4.9-7.6,10.2-15.6,8.7c-1.6-0.3-4.1,3.3-5.8,5.4c-2,2.3-3.2,5.7-5.6,7.3
	c-5.4,3.5-3.8,6.5-0.7,10.2c1.5,1.8,3.8,3.9,3.8,5.7c-0.2,4.2,0,10.2-6.2,9.8c-2.4-0.1-5.8-4.6-6.5-7.6c-2.6-11.7-8-16.9-17.9-14.5
	c-3.3,0.8-6,4-9,6.1c0.4,0.7,0.9,1.5,1.3,2.2c2.9,0.4,5.8,0.9,10.7,1.6c-3.8,4-6.4,6.9-9.5,10.2c9.9,12.9,7.7,25.5,0.8,39.8
	c-7.5,15.5-23,16.1-35.2,23.6c0.2,1.8,1,3.7,0.6,5.3c-0.4,1.5-1.7,3.6-3,3.9c-1.7,0.4-4-0.4-5.5-1.4c-0.6-0.4,0.2-2.9,0.2-4.4
	c0-1.6,0.3-4.2-0.4-4.5c-1.5-0.6-4-0.7-5,0.2c-3.5,3.1-6,6.9-2.3,11.6c2.3,2.9,5,5.4,7.4,8.2c6.6,7.6,5.9,14.9-2.3,20.9
	c-3.8,2.7-7.9,5-11.9,7.4c-3.3-4-5.8-7.9-9.1-10.7c-2-1.7-5.5-1.8-8.3-2.6c-0.9,3-3.2,6.7-2.3,8.9c2.1,4.9,6,9,8.8,13.7
	c2.2,3.6,4.6,7.4,5.4,11.4c2,9.7,6,17.9,16.1,24.8c-2.9,1.1-5.1,1.9-6.3,2.3c3.6,9.9,10.3,11.2,17.7,11.9c6.5,0.6,12.9,2.2,19.4,2.4
	c13.2,0.3,26.4-0.1,39.5-0.2c4.7-0.1,9.5-0.6,14.2-0.4c1.9,0.1,3.7,1.7,5.6,2.6c-2,2.2-5.4,6.5-5.9,6.2c-6.6-4.1-11.2,3.7-17.1,2.5
	c-3.1-0.6-7.6,2.9-8.9-3.1c-0.1-0.4-3.5-0.7-3.9-0.1c-3.7,5.6-8,2-12.3,1.3c-12.4-2-24.9-3.7-37.3-5.7c-3.3-0.5-7.5-0.6-9.8-2.6
	c-12.6-10.9-28.7-18.4-35.8-35c-2.2-5.3-4.9-10.4-7.3-15.5c0.6-0.8,1.3-1.5,1.9-2.3c5.8,3.7,11.6,7.3,17.4,11
	c0.6-0.2,1.1-0.4,1.7-0.6c-3.2-5.9-6.6-11.7-9.3-17.8c-1.4-3-1.7-6.6-2-10c-0.5-5.2,0-10.5-1.1-15.5c-0.8-3.8-2.2-8.9-8.6-5.4
	c-0.6,0.3-5.2-4-4.9-5.5c1.6-7.9-4.4-10.8-9.2-11c-6.7-0.3-13.6,2.2-20.2,4.1c-2.4,0.7-4.2,3.1-6.4,4.5
	c-9.9,5.7-16.7,13.1-15.8,25.6c0.2,2.6-1.7,5.4-2.7,8.1L1500.4,783.7z M1354.9,645.3c-0.7-2.4-0.8-3-1-3.5
	c-1.3-4.2-18.5-14.1-22.5-12.7c-6.8,2.4-12.4,3.2-13.8-6.3c-0.2-1.1-2.5-1.8-3.9-2.7c-3.4,5.5-9.4,10.9-9.7,16.6
	c-0.4,7.2,7.2,4.7,12.3,4.6c4.4-0.1,8.9,0.2,13.1,1.4c5.2,1.4,10,4.7,15.2,5.6C1347.9,648.9,1351.6,646.4,1354.9,645.3z
	 M1331.9,711.4c-0.8,0.4-1.6,0.8-2.4,1.2c-0.1,19.2,19.1,51.7,33.6,55.1C1352.4,748.3,1342.1,729.9,1331.9,711.4z M1396.7,621.3
	c-0.2-1.1-0.5-2.3-0.7-3.4c-4.6,1.2-9.7,1.6-13.8,3.6c-5,2.4-8.3,6.2-3.4,12.4c2.3,2.9,3,7.1,4.3,10.7c1,2.7,0.9,6.5,2.7,7.8
	c2.5,1.8,6.3,1.8,9.6,2.5c0.2-3,1.3-6.3,0.5-9.1c-0.8-2.8-3.4-5.2-5.4-7.7c-3.9-4.9-2.8-9.1,1.5-13
	C1393.6,623.9,1395.2,622.6,1396.7,621.3z M1406.8,718.3c-3.5-2.3-6.7-4.1-9.5-6.3c-3.3-2.6-6-5.9-9.4-8.3c-1.3-0.9-3.7-0.2-5.6-0.2
	c0.4,1.9,0.3,4,1.3,5.5c1.6,2.3,4.3,3.9,5.8,6.3C1394.6,723.7,1398,724.4,1406.8,718.3z M1430,628c0-0.8-0.1-1.7-0.1-2.5
	c-3.2,0-6.4,0-9.7,0c0.6,2.9,1.2,5.8,2.3,10.8C1426.4,632,1428.2,630,1430,628z M696.9,438.8c-7.1,3.1-14.7,5.4-21.2,9.5
	c-4,2.5-6.4,3.6-10.1,0.4c-1.7-1.4-4.2-2.2-6.4-2.6c-8.1-1.6-16.4-2.2-24.2-4.6c-10.6-3.2-20.9-7.8-31.3-11.7
	c-7.4-2.8-14.8-1.3-20.7,3c-7.5,5.5-13.7,12.6-20.9,18.6c-5.3,4.4-5.6,7.6-0.5,12.7c4.3,4.3,8.1,9.2,12.5,14.2
	c-1.8,0.3-2.4,0.6-2.7,0.4c-6.9-4.4-11.6,0.2-15.7,4.4c-1.4,1.4-1.2,5.3-0.4,7.6c2.2,6.3,8,5.8,13.3,5.9c1.6,0,3.1-0.6,4.7-0.5
	c1.6,0.1,3.3,0.7,4.9,1.1c0.4,0.8,0.8,1.5,1.1,2.3c-3.4,2.7-6.5,6.7-10.3,7.7c-8,2.1-8.5,8.8-8.7,14.2c-0.1,5.1,2.4,10.9,9,12.4
	c1.7,0.4,4.4,1,4.7,2c2.4,8.9,9,9.9,17.2,9.1c-1.8,7.7-5.7,12.7-11.9,16.4c-11.6,7-23.1,14.4-34.6,21.6c0.4,0.7,0.8,1.4,1.2,2.1
	c12.7-5.7,25.4-11.4,38.1-17.1c3.2-2,6.1-5.4,9.5-8.3c6.7-5.7,13-11.3,14.1-21c0.3-2.9,3.3-5.4,5.1-8.1c0.5,0.4,1,0.7,1.5,1.1
	c-3.6,9.3-7.1,18.5-10.7,27.8c1,0.5,2,1.1,3,1.6c3.1-4.8,7.8-9.2,8.8-14.4c2-9.9,8.8-16.2,18.8-14.9c4.4,0.6,8.9,1.4,13.3,1.6
	c12.2,0.5,19.3,7.6,25.5,17.3c4.5,7.1,11.1,12.9,16.4,19.6c5,6.3,9.7,12.7,14.2,19.3c2.6,3.8,3.7,8.7,6.9,11.9
	c8.2,8.2,12.3,17.4,10.3,29.1c-1.1,6.5-1.4,13.1-1.7,19.7c-0.1,2.6-0.3,5.8,1,7.6c6,8.6,12.5,16.8,18.9,25.1
	c5.9,7.6,14,14.4,17.2,23c4.2,11.3,13.7,16.5,20.9,24.7c-0.6-5-1.9-9.7-4.6-13.6c-3.5-5.2-8.3-9.5-12.1-14.5c-1.6-2.1-2-5.1-2.9-7.7
	c11.4,11,21.5,22,31.4,33.1c1.2,1.3,2,3.3,2.1,5c0.7,11.2,8.5,15.9,17.1,20.7c12.4,6.9,27.8,5.5,39,15.2c0.5,0.4,1.6,0.4,2.3,0.2
	c8.2-2.8,10.9,4.2,15,8.5c5.1,5.4,9.9,11,15.1,16.3c0.9,0.9,3,0.8,4.5,0.9c19.5,0.5,16.9,6.2,9.7,20.4c-0.8,1.6-2.1,3-3.2,4.5
	c-6.2,7.8-6.7,17.8-1.7,26.3c4.7,7.9,9.6,15.8,13.3,24.2c3.7,8.3,8.6,14.9,17,18.8c6.8,3.1,9.2,8.3,8,16.1
	c-3.6,23.8-5.7,47.8-12.1,71.3c-5.2,19.3-7,39.8-8.7,59.8c-1.4,16.4,2.7,31.4,19.2,40c6.7,3.5,12.6,6.5,18.6-1
	c1.5-1.8,4.8-2.1,6-2.5c-4.1-4.1-9.3-7.9-12.5-12.8c-6.6-10.2-2.9-19.5,4.4-27.7c2.7-3.1,4.7-6.1,1.1-9.5c-4.2-3.9-1.8-5.9,0.8-9.6
	c3.8-5.3,12-9.9,6.8-17.2c3.8-4.1,6.9-7.7,10.2-11c1.2-1.2,2.8-2.4,4.4-2.8c13.4-3.1,13.4-3,12.7-16.3c-0.1-1.2,0.3-2.5,0.4-3.2
	c7.4-0.8,14.1-1.6,21.6-2.4c-2.8-9.6,2.5-16,8.4-22.3c1.3-1.4,2.4-3.5,2.7-5.4c2.4-16.2,3.8-17.6,19.5-20.7c2.8-0.6,6.6-2.1,7.6-4.3
	c4-8.5,8.3-17.2,9.9-26.2c1.4-7.7,3.8-13.3,9.5-18.7c8-7.5,6.7-17.5-2.3-23.3c-4.1-2.7-8.9-4.4-13.4-6.4c-10.3-4.4-20.8-8.5-31-13.2
	c-2.8-1.3-4.9-4.3-7-6.8c-3.1-3.9-5-9.9-8.9-11.7c-12.1-5.5-25.6-8.3-32.3-21.8c-11.5,0.1-21.1-5.4-31.5-8.8
	c-6.2-2-16.1,4.2-23.2,8.7c-7.2,4.6-17.9,7.1-25.1,2.3c-2.2-1.5-4.2-4.7-4.6-7.3c-1-5.8-0.9-11.8-1.2-18.1c-8.3-2.1-19.4,3-24.7-8.7
	c3-1.5,5.7-2.5,8-4.1c1.5-1,2.3-3,3.4-4.5c-1.7-0.9-3.2-2.1-5-2.5c-6-1.4-7.6,3.9-11,6.9c-3.6,3.2-8.5,6.5-13,6.7
	c-2.6,0.1-6.7-5.4-7.8-9.1c-1.9-6.4-2.8-13.3-2.6-19.9c0.4-14.3,9.2-20.6,23.2-17.9c2.4,0.5,5.3,0,7.6-0.9
	c10.7-4.4,21.9,1.8,24.9,13.2c0.7,2.8,3.9,4.9,6.1,7.5c11-11.6-0.7-18.2-3.4-26.7c4.6-4.3,8.7-9.6,14-12.7c6.9-4.1,9.5-10,11.5-17
	c1-3.5,3.8-6.4,5.4-9.8c3.5-7.1,13.2-8.5,15.1-17.8c0.6-3,8.2-7,12-6.6c10.6,1.3,16.8-0.2,22-7.9c-7-7.7-13.9-15.2-21-23.1
	c3.4-2.2,7.2-4.4,11.4,1.6c1,1.5,5.4,2.3,6.9,1.4c4.7-3,8.9-7,13.2-10.6c-0.2,5.1-2.5,8.7-3.3,12.6c-0.4,2.3,0.9,6.6,2.6,7.3
	c6.5,2.8,13.4,4.6,20.2,6.7c2.2-10.9,0.2-14.9-7.7-20.6c-2.3-1.7-3.6-6-3.7-9.2c-0.4-9.4-3.1-17-10.7-23.4
	c-5-4.2-8.4-10.5-11.5-16.4c-4-7.7-7-16-11.1-25.8c-2.2,4.2-3.2,7-5,9.4c-1.8,2.4-4.2,4.2-6.3,6.3c-1.8-2.3-4.8-4.3-5.2-6.8
	c-1.2-7.8-5.2-13-11.3-18c-6.2-5.1-13-4-19.2-3c-1.7,0.3-2.2,8.2-3.1,12.6c-0.4,1.8-0.2,3.7-0.6,5.5c-1.8,6.5-1,12.1,3,17.9
	c1.6,2.3,1.5,8.2-0.3,9.8c-8.3,7.5-8.9,15.9-6,25.8c0.4,1.4-1.3,4.7-2.7,5.2c-1.6,0.6-5.2-0.3-5.8-1.6c-1.9-3.6-2.5-7.9-3.9-11.8
	c-1.4-3.8-2.4-9.2-5.3-10.8c-9.2-5.2-19.1-9.3-28.8-13.4c-6.9-2.9-13.3-14.7-12.2-22c2.4-15,12.9-23.5,21.8-30.3
	c5.9,1.7,10.5,4.6,13.8,3.7c4.2-1.2,7.6-2.8,11.6,0c1,0.6,3.8,0.3,4-0.2c0.5-1.4,0.7-3.6-0.1-4.7c-2.1-3-4.7-5.6-7.2-8.4
	c-4.2-4.8-5.5-9.2,0.2-14.2c2.1-1.9,3.6-5.3,3.8-8.2c0.4-5.9-0.3-11.9-0.2-17.8c0-1.7,1-4.2,2.3-4.9c3.4-1.8,7.3-2.7,12.3-4.4
	c-1.7,3.7-2.9,6.4-3.3,7.2c5.9,3.4,10.9,6.4,17.7,10.3c-5.1,0.7-8.1,1.1-12.1,1.7c0.6,3.1,1.1,5.8,1.6,8.4c2.3-0.8,4.5-1.9,6.8-2.5
	c2.2-0.5,4.6-1.1,6.6-0.6c1.1,0.3,2.5,3.4,2.1,4.6c-2,5.3-4.3,10.6-7.3,15.2c-1,1.6-4.7,1.6-7.3,2.1c-9.2,1.5-3.2,9.1-5.2,13.5
	c-0.5,1,1.9,3.3,2.5,4.2c2.7-2.8,4.5-6.2,6.2-6.2c2.9,0.1,6.8,1.6,8.5,3.8c7.4,9.5,17.3,13.8,28.7,15.6c0.6-2.4,0.4-5.1,1.7-6.5
	c6.8-7.9,6.9-13.2,0.1-20.8c-2.5-2.8-4.4-6.1-6.6-9.1c0.5-0.3,1-0.7,1.5-1c3.6,3.3,7.1,6.6,10.5,9.7c11.7-9.6,13.9-15.4,0.9-25.2
	c-3.1-2.4-6.3-4.9-8.8-7.9c-1.8-2.1-2.8-4.9-3.7-7.5c-2.2-6.4-0.4-14.1-7.2-18.9c-6-4.2-12-8.5-17.3-13.4c-4.5-4.2-8.8-9-11.9-14.4
	c-4.9-8.6-34.7-14-42-7c-0.6,0.5-1,1.2-1.7,1.7c-8.8,6.5-7.8,16.6-7.7,25.3c0.1,10.5,8.2,16.5,19.4,17.4c2.3,0.2,4.6,0.8,6.2,1.1
	c-3.3,2-7.6,3.2-8.9,5.8c-2.8,5.8-4,12.3-5.8,18.5c-2.3-2.3-3.4-4.7-3.2-7c0.6-6.1-1.4-10-7.7-11.7c-2.5-0.7-5.8-2.6-6.6-4.8
	c-2.7-7-4.9-14.2-6.4-21.6c-0.6-3.2,0.3-7.2,1.8-10.2c3.2-6.6,7.2-12.8,11.7-20.4c-4.5,0-6.6,0.2-8.7,0c-11.5-1-12.7,0-13.8,11.9
	c-0.2,2.4,0.1,4.8-0.2,7.1c-1,6.9-1.7,13.8-3.6,20.5c-1.8,6.5-0.6,11.2,5.1,15c1.9,1.3,3.4,3.2,5.1,4.8c-0.4,0.8-0.8,1.7-1.2,2.5
	c-7-4.7-14.1-15.1-20.6-0.9c1.7,2.1,3.4,4,5,5.9c-7.4,9.2-12.7,9.8-20.7,2.3c-9-8.5-12.3-8.4-21.7,0.2c-5.7,5.2-12.1,7.3-19.4,2.6
	c2.6-6.5-0.7-9.1-6.5-10.5c-5.6-1.4-11-3.4-16.5-5.1c-3.5-1.1-7.1-1.9-12.6-3.4c-0.3-0.3-2.1-2.2-4.2-4.4c-1.5,2.9-2.4,4.7-3.6,7
	c-3.6-4.3-6.6-7.9-9.1-10.8C702,436.3,699.5,437.7,696.9,438.8z M976.6,232c-11.4,1.7-15.8,6.1-17.9,17.4c-0.4,2.5-1.3,5.2-2.8,7.1
	c-4.7,6-9.7,11.7-14.8,17.4c-5.9,6.6-5.6,9,1.8,13.9c5.4,3.5,5.2,12.6-0.3,15.9c-7.3,4.4-14.8,8.6-21.7,13.5
	c-1.8,1.3-3.4,5.8-2.5,7.3c3,5.1,7.3,9.6,11.8,15.3c-1.5,0.9-4,2.4-6.7,4c0.9,11.9,9,19.2,20.5,16.9c10.8-2.2,21.9,1.9,25.5,9.6
	c6.6,14.1,8.7,30.3,12.7,45.6c0.1,0.2-0.2,0.5-0.2,0.7c-1.9,5.4,0.4,7.7,5.7,8.6c2.5,0.4,4.7,2.3,5,2.4c-2.9,5.3-5.4,8.6-6.6,12.5
	c-0.6,1.9,0.7,6.1,2.1,6.6c2.5,0.9,5.7-0.2,10.5-0.6c-13.3,15.6-7.1,31.5-2,48.3c5.4,17.6,12.9,31.9,32.2,39.6
	c1.6-5.3,2.9-10.5,4.5-15.6c3.1-9.6,6-19.2,9.6-28.7c0.6-1.7,3.6-3.2,5.7-3.6c10.7-2.1,16.8-9.6,20.7-18.6c2.6-6,6.1-8.4,12.2-8.7
	c12.8-0.6,19.3-9.7,25.6-18.1c-3.4-3.5-6.2-6.3-9-9.1c0.4-0.4,0.8-0.8,1.2-1.2c3.4,1.4,6.9,2.8,12,4.8c-0.8-7.9-1.4-14.1-2-20.7
	c1.1-0.8,2.9-2.1,5.3-3.7c-2.4-3.5-4.6-6.6-6.7-9.8c7.8-2,14.2-14.5,11.8-23.1c2.3,0,4.6,0,8.9,0c-2.1-3.2-3.2-5.6-4.9-7.5
	c-3.4-3.6-5.6-6.5-2.6-12.2c3.5-6.7,9-14.5-0.6-21.6c-1.1-0.8-0.2-4.7,0.3-7c1.6-7.6,6.5-14.6,0.5-23c-2.7-3.8-2.4-9.5,2.1-14.3
	c3.8-4.1,5.7-10,8.1-15.2c0.5-1.1-0.6-2.8-1-4.3c0.9,0.7,1.8,1.5,2.7,2.2c1.5-2.7,3.1-5.3,4.5-8c1.9-3.6,3-7.8,5.5-10.8
	c4-4.9,3.3-8.2-1.5-11.7c-6.4-4.7-9.8-4.5-15.1,2.7c-4.2,5.7-8,7.2-12.4,0.5c-1.9,2.1-3.6,4-5.9,6.6c0-2.6-0.3-4.1,0-5.5
	c1-4.6,2-9.4-3.6-11.4c-6.1-2.2-5.9,4.3-8.2,7.1c-0.6,0.7-1.3,1.2-2.5,2.1c-0.3-2.8-0.5-4.7-0.8-7.6c-9.2,0.7-17.8,1.4-27,2.1
	c2.2-1.5,4.4-3.9,6.9-4.4c4.8-1,9.9-1.4,14.8-1c8.3,0.8,13.9-3.9,19.4-8.6c3.6-3.1,3-6.8-0.8-10.1c-5.1-4.4-9.9-9.1-14.9-13.6
	c-2.7,0.5-6.2,1.1-9.7,1.7c-0.1-0.6-0.3-1.3-0.4-1.9c3.5-1.4,6.9-2.8,12.5-5c-9.5-3.8-16.7-7.3-24.2-9.4c-8.6-2.4-16.7-0.6-24.7,4.2
	c-8.6,5.2-18.1,9.1-27.6,12.5c-6.1,2.2-7.4,4.3-3,9.1c6.3,6.9,8.8,14.3,2.5,24c-2.8-3.4-5.1-6.7-8-9.4c-2.2-2.1-5.2-5-7.7-4.9
	c-2.5,0.1-4.8,3.5-5.7,4.2C988.7,229.9,982.7,231.1,976.6,232z M891.5,269.9c-6.9,4.4-13.6,10.5-21.2,11.8
	c-11.5,2.1-17.3-4.1-21.8-15.8c-1.4-3.5-5.7-6.6-9.3-8.3c-4.7-2.1-5.8,2.5-7,5.9c-1.6,4.6-4.1,9.1-4.5,13.8
	c-0.4,5.3,0.7,10.9,1.9,16.1c1.1,4.9,4,9.5,4.7,14.4c1.8,13.1,7.3,17.5,20,16.2c3.4-0.4,7.1,2.2,10.6,3.4c0,0.8,0.1,1.5,0.1,2.3
	c-6,1.3-9.5,3.7-5.9,9.9c0.5,0.9-0.8,4.1-1.8,4.4c-5.3,1.5-10.8,3-16.3,3.4c-2.9,0.2-5.8-2.4-8.8-3.1c-2.3-0.5-4.8,0.1-7.1,0.2
	c0.3,2.3,0.3,4.7,1,6.8c1.5,4.5,3.4,8.8,5.1,13.2c-0.9,0.4-1.8,0.8-2.7,1.3c-2.1-3.6-4.4-7.2-6.3-10.9c-2.8-5.7-7.5-7.2-12.8-3.8
	c-1.9,1.2-3.8,2.6-4.8,3.4c-3.3-1.3-5.7-2.3-8.2-3.3c0.3,2.9-0.2,6.4,1.2,8.6c4,6.3,8.6,12.3,13.6,17.9c1,1.1,4.9,0.5,7-0.4
	c1.9-0.8,3.3-2.9,5.2-4.7c0.8,1,1.5,1.6,1.6,2.2c1.4,6.2,5,11.2,11.3,8.9c6.1-2.2,3.3-8.3,1.6-13c-1.3-3.7-2.1-7.6-3.4-12.4
	c8.8,2.9,7.8,9,7,14.2c-0.8,5.5,1.4,9.1,6,10.6c6.7,2.2,13.7,3.9,20.7,4.6c5.1,0.5,10.6-0.6,15.7-1.9c5.4-1.3,8.9-4.3,6.4-10.9
	c-3.6-9.9-11.3-12.6-22.2-7.4c-8.6,4.1-13.5,1.5-15.4-9.1c3.1-0.4,6.1-1.1,9.1-1.1c4.7,0,9.9,1.7,14,0.3c7.7-2.6,12,0,14.8,6.9
	c8.2-9.9,8.3-11.9,2.3-21.4c2.3-4.3,4.4-8,7.2-13c0.9-0.4,5.7-1.3,6.2-3.2c1.6-6.5,2.8-13.5,2.1-20.2c-0.7-6.8,0.7-10.1,7.7-11.6
	c2.2-0.5,4.4-2.2,5.9-4c2.5-2.9,4.5-6.2,6.5-9.5c5.8-9.5,11.5-19.1,17.7-29.2c-3.5-0.4-5.8-0.7-8.2-1c1.2-1.7,2.5-2.5,3.9-2.6
	c8.7-0.9,12.9-7.7,17.3-13.7c1.6-2.2,1.4-6.6,0.4-9.5c-1.3-3.6-4.1-6.7-6.6-9.8c-1.2-1.6-3-3.1-4.8-3.7c-6.9-2-14-3.4-20.9-5.5
	c-11.9-3.7-22.6,1.2-33.9,3.5c-9.9,2-17.5,4.9-19.2,14.8c-3.8,0.8-6.9,0.8-9,2.2c-4.9,3.3-9.4,7.1-13.8,11c-2.9,2.6-5.8,5.5-7.4,8.9
	c-0.6,1.3,2.5,4.2,3.6,6.6c1,2.3,1,5.1,2.3,7.2c2.5,4.3,4.6,10.4,8.4,12c14.6,6.3,22.3,3.8,33.6-9.3
	C891.7,266.2,892.4,269.3,891.5,269.9z M1770.9,860.3c-4.6-6-9.4-11.9-13.7-18c-8.8-12.4-23.6-12.1-36-16.7
	c-1.3-0.5-3.4,1.4-5.2,1.6c-1.8,0.2-4.6,0.2-5.4-0.9c-3.6-5-7.7-4.4-12.4-2.2c2,8.7,4.9,16.1,15.8,15.7c1.3-0.1,2.5,0.7,3.8,0.9
	c5.3,0.8,6.2,4,4.7,8.6c-0.9,2.7-1.8,5.5-3,9.3c2.2-0.7,2.9-1,3.6-1.2c3.4-1,6.9-2,10.3-3c1,4.3,2.4,8.5,2.8,12.8
	c0.4,4-0.1,8.2-0.7,12.3c-0.3,1.9-1.1,4.9-2.3,5.3c-5.8,2.1-16.7-7.3-15.6-13.2c1-5.1-0.2-7.7-6-6.8c-1.8,0.3-3.8,0.6-5.4,0
	c-10.5-3.8-12-3.2-17.9,9.9c-0.5,1.2-1.2,2.2-1.6,2.9c-3-1.4-6.6-4.3-7.9-3.5c-6.2,3.6-13.9,7.2-16.9,13
	c-4.1,7.8-9.1,11.7-17.1,12.6c-9.2,1-14.9,5.9-15.3,15c-0.3,6,1.7,12.1,2.8,18.1c1.1,6.1,3.3,12.1,3.3,18.2
	c-0.1,12,2.2,14.3,13.4,10.7c1.7-0.6,3.7-0.4,5.4-1c5.6-1.9,11.3-3.5,16.5-6.1c14.5-7.2,31.7-10.4,42.1,7.7
	c8.7-1.6,13.3,3.8,17.2,10.4c6.4,10.8,14.9,13.2,25.8,7.7c2.1-1,4.4-2.2,6.6-2.1c4.5,0.2,5.7-2,6.7-5.9c1.5-6.3,2.4-13.3,5.8-18.7
	c10.3-16.5,9.3-32.4-4.1-46.2c-4.9-5-10.4-9.5-14.2-15.2c-5.5-8.2-9.7-17.4-14.7-26c-2.6-4.5-3.9-8.3,1.1-12.3
	c4.9-3.9,8.4-3.3,12.8,1c3.7,3.5,8.7,5.6,13.1,8.3C1769.7,862.2,1770.3,861.3,1770.9,860.3z M796.6,420.7
	c-0.7-5.9-0.3-11.9-0.8-17.8c-0.2-2.3-0.7-5.3-2.3-6.7c-1.2-1.1-5.4-0.9-6.2,0.2c-2.9,4-4.9,8.6-7,12.4c-3.5-0.3-8,0.2-11.9-1.1
	c-8.1-2.5-14.5-7.8-19.6-14.7c-1.8-2.4-4.2-5.6-6.7-6c-7.5-1.1-15.2-1-22.1-1.3c-1.9,10.4-3.8,19.3-5.2,28.3c-0.3,1.8,0.7,4,1.7,5.6
	c2,3.3,4.4,6.4,5.9,8.5c13.6,3.8,8.6-13.4,17.8-14.1c1.4,4,3.9,7.8,3.9,11.6c0,9.3,1.4,10.9,11.1,10c2.6-0.3,5.3,0.6,7.9,1
	c-0.1,0.8-0.1,1.6-0.2,2.4c-6.4,0.5-12.9,1-19.3,1.5c5.4,4.8,11.7,6.8,16.6,10.6c6.2,4.9,11.5,7.2,17.7,0.6c0.9-1,2.8-1.4,4.2-1.4
	c7.5,0.3,15,0.9,23.4,1.5c1.9-3.8,4.3-8.7,7.5-15.2C801,436.5,797.6,429.4,796.6,420.7z M1619,829.8c7.1,5,17.3,5.7,26.6,8.5
	c0-1.7,0.4-3.1-0.1-3.5c-6-5.1-3.7-10.5,0.2-15.1c3.1-3.5,5.1-6.3,2.7-11.1c-0.6-1.2,0.4-4.3,1.6-5.1c5.2-3.4,10.7-6.2,18.2-10.4
	c2,4.2,6.7,9.8,5.5,13.1c-1.4,3.9-8,5.9-12.4,8.7c-2.5,1.5-5.7,2.3-7.6,4.4c-5.2,5.7-3.9,15.6,2.9,24.3c0.4-2.7,0.7-5,1-7.3
	c3.9,2.4,7.5,4.7,11,6.9c0.7-0.8,1.3-1.6,2-2.4c-3.7-6.6-7.5-13.2-11.7-20.6c1.9-0.4,3.9-1.5,5.5-1c6.6,2.2,9.3-1.4,10.8-6.8
	c2.1-7.5,4.1-15,6-22.5c0.3-1,0.8-2.4,0.4-3c-5.4-8.8-3.9-22.6-18.4-24.1c0.8-2.9,1.9-4.9,1.8-6.8c-0.2-2.3-1.1-4.8-2.5-6.7
	c-0.5-0.6-4.3-0.2-4.8,0.8c-1.8,3.6-4.9,8.2-3.9,11.3c2.4,7.6-1.2,12.6-4.7,18.1c-3.4,5.3-6.8,10.5-9.9,15.9
	c-6.8,11.6-14.9,15.2-27.2,11.9c-0.9-0.2-2,0.3-5.6,0.8C1610.9,816.4,1613.1,825.6,1619,829.8z M1275.2,308.6
	c-5.4-7.7-11.9-14.7-18.6-22.9c-2.6,8.5-8.3,5.5-13.2,5.2c-4.9-0.3-9.2-1.2-6.5,6.8c1.4,4-0.6,9.2-1,12.4c3.2,7.8,6,14.8,8.9,21.8
	c3.1,7.4,4.7,15.9,14.1,19.4c3.9-10.7,7.7-20.8,11.4-30.9c1,0,2,0.1,2.9,0.1c0.9,4.9,1.7,9.9,2.8,16.1c1.2,1,3.9,3.2,6.4,5.4
	c2.2-3.3,4.5-6.7,6.8-10C1284.6,324.2,1280.4,316,1275.2,308.6z M1747.8,637.8c4.8-1.5,9.8-3.2,13.7-6.1c3.9-3,6.4-7.9,9.8-11.7
	c5.7-6.2,11.9-11.9,17.3-18.3c2.2-2.6,4.6-6.8-2-9.8c-2.2,13.1-10.1,21.4-20.8,27.4c-1.5,0.9-2.3,3.1-3.9,3.9
	c-4.6,2.2-9.3,5.1-14.2,5.8c-5.7,0.8-9.3-6-7.3-10.7c2.9-6.6,6.4-13.7,6.4-20.6c0-7.9-3.4-15.8-5.4-23.7c-0.8,0-1.6,0-2.5,0
	c-0.7,3.3-1.9,6.6-2.1,9.9c-0.6,9.4,0.1,19-1.2,28.3c-1.5,10.4,2.2,22.9-10.2,29.3c0.4,1.6,0.6,2.6,1,3.6
	c4.4,12.9-1.3,22.8-14.5,25.9c-4.8,1.1-9.6,2.5-14,4.6c-8.2,4.1-9.5,13.6-2.9,20.2c8.4-9.5,20.1-12.1,31.5-15.7
	c3.3-1,6.5-5.3,7.8-8.8c2.7-6.9,4-14.3,6-21.7c-0.7-0.1-2.4-0.2-4.9-0.5C1735.8,640.4,1742.1,639.7,1747.8,637.8z M1431,357
	c-6.7,2.6-14.9,2.8-15.7,12.7c-0.1,1.2-2.4,2.9-3.9,3c-4.8,0.5-5.9,3.2-6,7.5c-0.1,2.8-0.9,5.7-2,8.2c-2.9,6.6-6.2,13-9.3,19.5
	c-3.8,7.9-2.6,16.9,4.9,22.6c3.4,2.6,9.2,2.1,14,3c0.4-0.9,0.7-1.7,1.1-2.6c-1.2-1.9-2.7-3.6-3.5-5.6c-1.4-3.3-4.3-7.4-3.4-10.1
	c3.2-10.2,5.4-21.9,12.1-29.4c9.6-10.8,22.5-18.7,34.4-27.3c7.2-5.1,7.8-7.7,2.3-11.9C1446.6,350.6,1438.9,354,1431,357z
	 M1192.8,595c7.8-2.4,9.1-9.5,5.9-16.8c-3.9-8.8-14.6-14.9-11.4-27c0.4-1.4-2.4-3.6-3.7-5.5c0.8-2.5,1.6-5.2,2.6-8.4
	c-6.9,3.5-13,6.7-19.7,10.1c0.5,2.2,1.8,4.8,1.5,7.2c-0.5,3.3-1.3,8.1-3.6,9.4c-8.7,4.9-10.2,11.9-9,21c0.8,6.2,4.3,7.7,8.4,4.5
	c3.6-2.8,5.9-7.5,7.9-11.7c1.9-4.2,3.5-7.7,9.4-5.2c-2,8-4,16-6.5,25.7C1181.6,597,1187.4,596.6,1192.8,595z M1415.7,287.1
	c2.1,0.5,4.3,0.3,6.5,0.4c-0.2-2.1-0.1-4.4-0.8-6.3c-0.9-2.3-2.5-4.3-4.9-8c8.4,3.2,21.7,0,25.3-5.7c1.9-3,1.8-7.3,2.1-11.1
	c0.1-0.8-2.8-2.7-3.1-2.4c-2.9,2.1-5.7,4.4-8.1,7c-0.8,0.9-0.6,2.9-0.5,2.6c-5.1,1-9.2,1.7-14.5,2.7c0.4-8,0.7-16,1.1-23.9
	c-0.5-0.2-1-0.5-1.5-0.7c-4.3,5.7-8.6,11.5-13.2,17.6c0.2,0.1-1.1-0.7-2.5-1.6c-4.5,9.6,1.1,14,8.1,17.8c-5.5,0-10.9,0-17.9,0
	c-0.7-3.2-1.9-8.2-3.3-14.1c-7.3,7.8-20.4,0.7-26.6,13.7c12.9-0.8,15.6,16.3,29.9,14.5c-1.2-2.9-2.1-5.3-3.9-9.9
	C1398.2,282.5,1406.9,284.9,1415.7,287.1z M1548.9,271.7c0,3.9-0.7,9-3.2,11.5c-8.3,8.6-1.1,11.2,4.6,15c1.9,1.2,3.1,3.5,4.8,5.1
	c3.5,3.1,6.9,6.4,10.8,8.7c4.7,2.8,8.8,0.5,9.6-4.4c1.2-7.5,5.4-16.1-4.1-21.9c-1.4-0.8-2.9-3.2-2.6-4.7c1.4-9.4-5.8-14.9-9.4-22.1
	C1554.6,262.1,1548.8,264.1,1548.9,271.7z M776.4,367.2c-0.7,0.5-1.3,1-2,1.5c-1.6-1.4-3.1-2.9-4.7-4.3c-3.2-2.9-6.1-6.5-9.8-8.4
	c-1.7-0.8-6.2,1.1-7.4,3c-2.2,3.4-3.8,7.8-3.8,11.7c0,2.6,3.1,5.5,5.5,7.4c1.2,0.9,3.9-0.2,6-0.4c0.1,7.3,4.6,10.8,10.2,8.5
	c4.8-2,9.7-3.9,14.7-5.5c7.3-2.4,11.5-13,6.9-17.5c-4.7-4.5-9.3-9-14-13.4c-1.3,1.4-3.2,3.5-5.3,5.8
	C774,359.7,775.2,363.4,776.4,367.2z M1364.9,899c0.2,1.3-1.6,2.8-1.8,4.3c-0.6,4.5-1.7,9.2-1,13.6c1.1,6.7,5.8,8.9,10.7,4.3
	c4.5-4.2,7.4-10.4,9.8-16.2c2.5-6,3.3-12.6,5.2-18.8c2.4-7.5,2.5-14.7-3.1-21.7C1380.5,877.6,1361.8,881.9,1364.9,899z
	 M1121.1,504.5c1.5,0.3,3.4,0,4.8-0.7c4-2.2,7.7-4.9,11.7-7.3c7.6-4.5,4.5-10.2,2.4-16.4c-2.1-6-5.7-5-10.5-4.5
	c-5.8,0.7-11.8-0.2-17.6,0c-2,0.1-4.8,0.6-5.9,2c-1.4,1.8-2.5,4.9-2.1,7.1c1.2,5.7,3.3,11.1,5,16.6
	C1113.1,502.5,1117.1,503.7,1121.1,504.5z M1862.9,990.3c-2.3,0.4-4.6,0.7-6.9,1.4c-1.3,0.4-2.6,1.3-3.6,2.2
	c-2.5,2.5-4.8,5.3-7.3,7.8c-4.9,4.9-9.9,9.7-14.7,14.4c8.2,10.8,14.3,9.7,20.2-0.8c3.9-7,10.1-12.8,14.9-19.5
	c4.5-6.3,8.5-13,11.5-17.7c-7.7-6.6-14.1-12.1-20.5-17.6c2.5,7.9,10.3,14.4,2,21.9C1860.3,985.6,1861.6,988,1862.9,990.3z
	 M1274.6,276.8c-3.1-0.7-8.9-0.6-9.4,0.6c-1.5,4.3-4.1,9.5,1.1,13.6c1.6,1.3,4.3,2.2,4.7,3.8c2.7,10.7,12.1,6.1,18.1,7.1
	c2.6,0.4,6.8-6.7,9.8-10.8c1.2-1.7,0.9-4.4,1.5-7.6C1291.3,281,1283,278.6,1274.6,276.8z M805.9,412.8c4,4.9,8.4,9.6,12.8,14.5
	c1.3-2,2.4-3.8,3.7-5.4c4.2-4.8,6.5-23.1,2.7-27.5c-1.7-1.9-5.6-3.2-8.1-2.7c-7.1,1.5-8.6,5.2-5.7,13.3
	C807.4,406.5,800.2,405.9,805.9,412.8z M1740,379.3c2.1-0.4,5.7-0.6,6.1-1.7c1.2-3.5,2.8-8.6,1.2-10.9c-3.9-5.5-12.3-6.2-15.8-2.9
	c-2.7-1.5-5.4-3-8-4.4c-6.5,8.7-6.3,15.2-0.5,22.8C1729.7,381,1734.9,380.2,1740,379.3z M741.5,369.2c4.4-11,15.4-20.1,10-34.2
	c-5.2,2.6-11.2,4.3-15.4,8c-4.1,3.7-6.6,9.4-9.5,14.3c-3,5.1-0.6,8.2,4.6,7.1c4.1-0.8,7.7-4.1,11.8-6.4
	C742.5,361.4,742,365.3,741.5,369.2z M794,314.4c-0.1,8.8,4.1,10.6,9.3,11.3c1,3.2,1.7,5.4,2.4,7.7c3.1-1.3,6.7-2,9.1-4.2
	c1.3-1.2,1.1-5,0.3-7.2c-3.9-10.8-12.8-17.2-21.7-23.4C786.4,304.8,794.1,309.6,794,314.4z M1588.4,325.1c3.4-1.1,7.2-3.5,8.8-6.4
	c1.1-2.1-0.2-6.7-2-9c-2.9-3.8-7-6.6-12.2-11.2c-3.7,10.5-6.9,19.5-10.2,28.7C1579.6,326.4,1584.2,326.5,1588.4,325.1z M914.9,742.9
	c-0.6-1-0.9-2.4-1.8-2.9c-9.5-4.8-18.9-9.8-28.7-13.9c-1.8-0.8-5,1.9-9,3.6c14.2,5.6,26.1,10.2,38,14.9
	C913.9,744,914.4,743.5,914.9,742.9z M1748.1,990.2c0.4,3.4,0.3,6.6,1.3,9.3c1,2.5,2.9,5.7,5.1,6.4c1.8,0.6,6.2-1.2,6.9-3
	c1.7-4.3,1.8-9.2,2.6-13.8C1757.3,989.6,1752.7,989.9,1748.1,990.2z M1686.5,808.7c-9.9,12.9-12.6,26.7-7.6,29.9
	c2.9-2.3,5.6-4.4,7.6-6.1C1686.5,824.7,1686.5,817.7,1686.5,808.7z M830.4,331.4c1-4,3.6-8.5,2.5-11.9c-1.1-3.2-5.9-5.1-10.9-9
	c0,6.3,0,9.7,0,13.1c-0.1,6,2.6,8.8,8.7,7.6L830.4,331.4z M769.7,339c4.8-1.5,6.4-6.4,4.3-11.1c-6.5,0.7-12.6,1.3-20.3,2
	C759,334.9,762.5,341.3,769.7,339z M963.1,755.8c-2.9-7.5-9.1-11.3-17.5-9.9c-2,0.3-3.8,1.6-5.8,2.5c20,4.4,23.5,7.7,21.4,24
	C968,766.4,964.9,760.6,963.1,755.8z M1753,372.1c3.7,3.9,6.9,8.6,11.3,11.5c1.7,1.1,6-1.9,9.2-3c-1.7-2.1-3-4.9-5.2-6
	c-4.1-2.1-8.7-3.1-13.2-4.5C1754.4,370.7,1753.7,371.4,1753,372.1z M1731,399c4.3,2.5,10,2.7,15.1,3.8c0.5-1.1,0.9-2.2,1.4-3.3
	c-4.5-4-9-8-15.6-13.9C1731.4,391.5,1729.5,398.1,1731,399z M1500.4,783.7c0.4,4.1,0.5,8.2,1.2,12.2c0.3,1.4,2.3,3.6,3.2,3.5
	c1.7-0.3,3.9-1.7,4.7-3.2c2.4-4.7-3.5-12.1-9.3-12.2C1500.2,783.9,1500.4,783.7,1500.4,783.7z M934.5,749.7
	c-10-8.6-14.4-8.4-17.6,1.1C922.7,750.4,927.7,750.1,934.5,749.7z M1888.8,429.7c1.4-0.2,2.7-2.6,3.5-4.2c0.2-0.4-1.4-2.6-2.1-2.6
	c-5.1,0.3-11.2-1.5-13.7,7C1881.1,429.8,1885,430.2,1888.8,429.7z M1660.8,719.5c-2.4,2.8-5.5,5.3-6.9,8.5c-0.7,1.5,1.8,4.4,2.9,6.7
	c0.8,0,1.6-0.1,2.4-0.1c1.6-4.2,3.3-8.4,4.9-12.7C1663.1,721.1,1661.9,720.3,1660.8,719.5z M761.4,322.7c4.8,0,9.6,0,16.7,0
	c-3-3.1-4.9-6.4-6.4-6.2c-3.7,0.4-7.3,2.4-10.9,3.8C761,321.1,761.2,321.9,761.4,322.7z M793.1,331.4c-4,12.2-2.6,14.9,6.3,13.6
	C797.2,340.2,795.2,335.8,793.1,331.4z M963.7,1056.3c5.2-1.1,9.2-2,13.2-2.9C969.6,1047,966.9,1047.7,963.7,1056.3z M820.7,294.6
	c-0.5-2.8-0.1-6.4-1.7-8c-1.5-1.5-5.2-0.9-10-1.5c4.1,4.9,6.5,7.8,8.9,10.7C818.8,295.4,819.8,295,820.7,294.6z M830.7,331.2
	c-1.2,1.8-2.4,3.6-4.1,6.1c2.6,0.6,4.2,1.4,5.6,1.1c2-0.4,3.8-1.5,5.7-2.4c-1.4-1.4-2.8-2.9-4.4-4.1c-0.7-0.5-2-0.4-3-0.5
	C830.4,331.4,830.7,331.2,830.7,331.2z"/>
</svg>
