<?xml version="1.0" encoding="utf-8"?>
<!-- Generator: Adobe Illustrator 28.4.1, SVG Export Plug-In . SVG Version: 6.00 Build 0)  -->
<svg version="1.1" id="Layer_1" xmlns="http://www.w3.org/2000/svg" xmlns:xlink="http://www.w3.org/1999/xlink" x="0px" y="0px"
	 viewBox="0 0 512 512" style="enable-background:new 0 0 512 512;" xml:space="preserve">
<style type="text/css">
	.st0{fill:#145681;}
</style>
<g>
	<path class="st0" d="M260.5,269.7c-1.7,0-3.8,0.6-6,1.7c-14.6,6.6-25.5,9.9-32.3,9.9c-6.6,0-12.6-2.8-17.8-8.4
		c-5.3-5.7-9.3-12.4-12-19.8c-2.7-7.5-4.8-16.7-6.2-27.4c-1.5-10.7-2.3-19.3-2.7-25.6c-0.3-6.3-0.5-12.8-0.5-19.1
		c0-5.3,0.2-7.5,0.4-8.3l0.1,0.1c5.6,3,12.1,4.5,19.4,4.5c11.7,0,26.7-6.6,44.6-19.7c17.8-13,33.5-28,46.8-44.6
		c13.6-17,20.2-30.2,20.2-40.4c0-9.1-6-13.7-17.8-13.7c-29.5,0-69.2,19.4-117.8,57.6c0.6-3.6,1-6.7,1-9.4c0-9.4-2.7-17.7-8.1-24.6
		c-5.3-6.8-12.5-12.1-21.2-15.6c-8.6-3.5-17.5-6-26.4-7.4c-8.9-1.5-19-2.2-29.8-2.2c-10.9,0-23.2,1.7-36.7,5.1
		c-6.8,1.9-12.6,4.8-17.1,8.5c-4.6,3.9-7,8.9-7,15c0,6.2,4.6,11.9,13.8,17.2c8.8,5.1,18.6,9.2,29.1,12.2c10.3,3,19.9,7.3,28.6,12.9
		c8.4,5.4,12.7,11.8,12.7,19.1c0,4.4,2.9,4.9,4.1,4.9c3.7,0,4.1-6.2,4.1-10.9c0-6.8-2.8-13.1-8.3-19c-5.4-5.7-12.1-10.2-19.9-13.3
		c-7.7-3-15.4-5.9-23-8.3c-7.5-2.5-13.9-5.3-19.1-8.5c-4.9-3-7.3-6.5-7.3-10.4c0.4-10.7,17.5-16.1,50.9-16.1c14.6,0,28.8,2.4,42,7.1
		c7.3,2.6,13.2,6.8,17.5,12.3c4.3,5.5,6.5,12.3,6.5,20c0,7.8-1.7,16.8-5.2,26.8c-35.8,30.4-68.5,63.7-97.3,98.9
		c-29.4,36-43.7,59.4-43.7,71.5c0,4,1.8,8.7,10.1,8.7c6.3,0,18.1-8.4,35.9-25.7c17.4-16.9,36.2-38.4,55.8-64
		c19.4-25.3,34.5-48.7,45-69.6c2.1,0.2,3.2,0.9,3.2,1.9l0,0.2c0.6,4.1,0.9,12.7,0.9,25.6c0,13,0.4,25.3,1.3,36.6
		c0.8,11.4,2.5,23.3,5,35.6c2.5,12.4,7.2,22.4,13.9,29.7c6.8,7.4,15.5,11.2,25.8,11.2c10.2,0,24.5-4.8,42.5-14.2
		c3.6-1.7,5.4-3.7,5.4-6.1C264,271.4,263.6,269.7,260.5,269.7z M183.7,160.5c-1.1-1.6-1.8-3.7-2-6.2c-0.2-2.7-0.4-5-0.6-6.9
		c-0.4-3.2-1.8-3.8-3-3.8h-8.2c1.8-3.8,3.4-7.8,4.8-12C225.8,90,264.7,69,290.4,69c3.1,0,4.5,1.4,4.5,4.5c0,6.8-5.5,18.1-16.4,33.4
		c-11,15.5-24.2,29.8-39.2,42.8c-14.9,12.8-27.1,19.3-36.4,19.3c-4.6,0-8.7-1-12.1-3C187.3,164,184.9,162.1,183.7,160.5z M153,149.9
		c-8.9,19.3-21.9,40.8-38.6,63.8c-18.1,24.9-35.2,45.7-50.7,61.7c-19.2,19.7-26.9,23.8-29.9,23.8c-0.2,0-0.4,0-0.4-1
		c0-12.2,12.4-33.6,36.9-63.6C93.9,205.6,121.7,177.1,153,149.9z"/>
	<path class="st0" d="M434.6,385.1c-0.2,0-0.7,0-5.3,1c-2.8,0.6-7.9,0.9-15.1,0.9h-14.5c13.5-10.6,24.7-22.4,33.4-35.2
		c9.3-13.7,14-25.9,14-36.3c0-10.5-3.8-18.7-11.3-24.4c-7.4-5.7-18.8-8.6-33.9-8.6c0,0,0,0,0,0l-7.8,0.5
		c20.9-10.3,41.5-24.2,61.2-41.5c21.9-19.2,32.6-33.8,32.6-44.5c0-7.8-6.3-11.8-18.7-11.8c-26,0-60,16.6-101.1,49.4
		c0.6-3.2,0.9-5.6,0.9-7.4c0-26.6-25.3-40.1-75.2-40.1c-19,0-37.6,2.7-55.3,7.9c-8.7,2.8-15.8,6.6-21.1,11.5
		c-5.4,5-8.2,10.8-8.2,17.3c0,6.4,2.2,12.1,6.6,16.9c4.3,4.7,10,8.4,17.1,11c6.9,2.5,13.9,4.6,20.7,6.2c6.8,1.6,14.1,3.1,21.7,4.4
		c7.5,1.3,13.1,2.7,16.7,4.2c3.4,1.4,6.1,3.4,7.8,5.8c1.3,1.9,2.2,3.2,2.7,3.9c0.7,0.9,1.8,1.4,3.1,1.4c1.2,0,2.6-0.7,2.6-4.3
		c0-8.1-3.1-14.5-9.3-19c-6-4.4-13.3-7.3-21.8-8.8c-8.4-1.5-16.9-2.8-25.3-4.1c-8.3-1.2-15.4-3.5-21.1-6.6
		c-5.5-3.1-8.2-7.2-8.2-12.8c0-5.6,2.5-10.1,7.7-13.8c5.3-3.8,12.2-6.4,20.7-8c8.6-1.6,16-2.6,22-3.1c6-0.5,14.8-0.8,26.1-0.8
		c11.2,0,22.1,1.4,32.2,4c6.2,1.8,11,4.7,14.2,8.6c3.2,3.9,4.8,9.2,4.8,15.9c0,6.8-3.1,17.8-9.2,32.7
		c-35.4,31.9-67.5,67.2-95.5,105.1c-28.5,38.6-42.4,64.8-42.4,80.1c0,7.1,3.7,10.9,10.6,10.9c10.7,0,26.3-12.3,47.6-37.6
		c20.9-24.7,41.1-53.1,60.2-84.4c19-31.2,32.9-57.8,41.2-79.3c41.1-35.1,73.8-53,97.3-53.2c6.8,0,7.6,2.6,7.6,4.5
		c0,7.8-11.4,21.2-33.8,40.1c-22.6,19-46.1,34.4-69.7,45.8c-6.1,2.8-8.8,5.1-8.8,7.5c0,3.4,2.1,3.8,3,3.8c0.6,0,1.4-0.3,3.6-1.6
		c1.5-0.9,6.1-2.5,13.9-4.7c7.7-2.3,15.2-3.4,22.4-3.4c18,0,26.8,8.1,26.8,24.9c0,10.6-3.8,22.7-11.1,36c-7.4,13.2-17.3,25-29.5,35
		c-30.1-1-57.6-1.6-81.8-1.6c-6.5,0-11.6,1.2-15.2,3.6c-3.8,2.5-5.7,6.1-5.7,10.5c0,4.5,3.3,8.9,9.9,13.1c6.4,4.1,15.2,6.1,26,6.1
		c22.6,0,45.9-7.5,69.4-22.3c14.5,0.4,29.9,0.6,46,0.6c0.1,0,0.1,0,0.2,0c6.1-0.3,7.4-3.5,7.4-6.2
		C440.2,387.1,438.2,385.1,434.6,385.1z M221.2,442.2c-4.2,0-6.1-1.9-6.1-6.1c0-11.4,12.1-33.4,36-65.4
		c22.8-30.5,49.2-60.4,78.6-88.8c-15.5,31.7-35.9,66.1-60.7,102.5C236.6,432.2,225.1,442.2,221.2,442.2z M370.9,396.1
		c-16.1,10-33,15-50.2,15c-6.9,0-13.1-1.2-18.4-3.5c-4.9-2.2-7.5-4.5-7.5-6.6c0-2.3,3-6.1,23-6.1L370.9,396.1z"/>
</g>
</svg>
