<?xml version="1.0" encoding="utf-8"?>
<!-- Generator: Adobe Illustrator 28.4.1, SVG Export Plug-In . SVG Version: 6.00 Build 0)  -->
<svg version="1.1" id="Layer_1" xmlns="http://www.w3.org/2000/svg" xmlns:xlink="http://www.w3.org/1999/xlink" x="0px" y="0px"
	 viewBox="0 0 960 270" style="enable-background:new 0 0 960 270;" xml:space="preserve">
<style type="text/css">
	.st0{fill:#FFFFFF;}
</style>
<g>
	<path class="st0" d="M121.7,170.7c-0.3,0-0.9,0-6.5,3c-3.6,1.9-6.9,2.9-9.9,2.9c-6.4,0-12.5-2.5-18.2-7.4c-2.3-2.1-4.8-4.2-7.4-6.3
		c-5.9-5.1-13-8-21.1-8.5c2.4-3.1,7.8-10.3,15.9-21.2c8.8-11.9,15.7-20.7,20.4-26.4c12.9-4,23.8-8.6,32.2-13.7
		c8.7-5.2,12.9-9.4,12.9-12.6c0-2.5-2.6-3.8-7.6-3.8c-11.5,0-25.6,9.1-42.1,27.1c-17,5-33,7.6-47.5,7.6c-4.4,0-9.1-0.3-14.1-1
		c-1.1,0-2.2,0.4-3.4,1.2c-1.3,0.8-1.9,1.6-1.9,2.5c0,2,3.7,2.3,6.5,2.3c18.8,0,37.5-2.3,55.5-7c-4.5,5.1-10.4,12.5-17.5,21.9
		c-2.5,3.2-5.7,7.3-9.6,12.4c-3.8,5-6.6,8.7-8.3,10.9c-8.5,1.5-17,5.9-25.1,13.2c-8.3,7.5-12.3,13.3-12.3,18c0,1.9,0.9,4.2,5.1,4.2
		c4.9,0,10.6-2.9,16.9-8.6c6.1-5.6,13.3-13.6,21.3-23.8c6,0.5,11.7,3.4,16.9,8.6c2.3,2.2,4.6,4.4,7,6.6c2.4,2.2,5.5,4.1,9.2,5.6
		c3.7,1.5,7.9,2.3,12.5,2.3s9.3-1,14-3c4.9-2.1,7.3-4,7.3-5.9C122.9,171.2,122.5,170.7,121.7,170.7z M130,80.2
		c1.9,0,4.1,0.2,4.1,1.4c0,1.3-1.8,3.8-10.2,8.6c-6.5,3.6-14.5,7.1-23.9,10.4C112.2,87.1,122.3,80.2,130,80.2z M47.2,158.5
		c-6.5,8.5-12.1,15.1-16.7,19.7c-4.7,4.7-8.6,7.1-11.7,7.1c-1.7,0-2-0.8-2-1.4c0-3,3.6-7.7,10.6-13.9
		C34,164.2,40.6,160.3,47.2,158.5z"/>
	<path class="st0" d="M146.8,147.1c1.2,0,2.4-0.8,3.9-2.5c1.5-1.7,2.2-3,2.2-4.2c0-1.1-0.3-2-0.9-2.7c-0.6-0.7-1.4-1-2.4-1
		c-1,0-2.3,0.9-3.9,2.8c-1.6,1.9-2.3,3.2-2.3,4.1c0,0.9,0.3,1.7,0.8,2.4C144.7,146.8,145.6,147.1,146.8,147.1z"/>
	<path class="st0" d="M275.5,156.7v-0.5c0-0.9-0.5-1.5-1.3-1.5c-0.7,0-1.3,0.3-2.1,0.8l-6.6,5.2c-4.3,3.5-9.2,7.1-14.4,10.6
		c-5.2,3.4-8.7,5.2-10.5,5.2c-0.8,0-1.7-0.3-1.7-2.2c0-0.3,0.3-1.4,2.4-4.3c0.5-0.7,1.2-1.5,1.9-2.4c0.7-0.9,1.2-1.4,1.5-1.7
		c0.4-0.4,0.6-0.9,0.6-1.4c0-1.5-0.9-2.3-2.4-2.3c-1.1,0-2.3,0.6-3.5,1.8c-4.7,4.3-7.9,7.1-9.7,8.2c-1.8,1.5-3.2,2.2-4.3,2.2
		c-1,0-1.2-0.4-1.2-1c0-2.8,2.8-7.1,8.4-12.8c5.6-5.7,10.4-8.6,14.3-8.7c3,0.2,3,1.3,3,1.7c0,1.8-1.5,4-4.3,6.3
		c-0.8,0.7-1.1,1.2-1.1,1.8c0,0.3,0.1,1.1,1.3,1.1c2.1,0,4.4-1.3,7.2-4.1c2.8-2.8,4.1-4.8,4.1-6.3c0-1.5-0.5-2.6-1.5-3.3
		c-1-0.7-2.1-1.1-3.5-1.1c-5.5,0-11.3,1.8-17.1,5.4c-0.9,0.5-1.7,1.1-2.5,1.6c-0.4,0.1-0.7,0.3-1.1,0.6l-1.7,1.5
		c-0.9,0.7-1.8,1.4-2.6,2.1c-4.2,3.3-9.1,7-14.5,10.9c-3.6,2.5-5.3,3.1-6,3.1c-0.2,0-1,0-1-2.1c0-4,2.4-9.9,7.2-17.7
		c4.8-7.8,10.2-15.5,16-22.7c21.2-26,23.6-31,23.6-32.5c0-0.7-0.3-1.9-2.6-1.9c-1.6,0-3.5,1.4-5.9,4.4c-20.6,29.3-32,45.7-34.9,49.9
		c-0.7-0.7-1.3-1.1-2-1.1c-5,0-11.8,3.8-20.1,11.2c-0.5,0.4-0.9,0.8-1.3,1.2c-5.3,4.1-10.6,7.9-15.9,11c-3.7,2.3-7.2,3.5-10.5,3.5
		c-4,0-4.5-1.9-4.5-3.3c0-3.2,2.4-7.4,7.1-12.4c4.7-5,8.6-7.6,11.7-7.7c1,0,1,0.3,1,0.5c0,0.2-0.2,0.9-2.2,2.7c-1,1-1.4,1.6-1.4,2.1
		c0,1.1,0.9,1.8,2.8,2.1c1.5,0,3.2-1.1,5-3.4c2.4-3,2.6-4.1,2.6-4.7c0-1-0.3-1.7-0.9-2.3c-0.6-0.5-1.9-0.9-4.1-1.1
		c-6.8,0-13.3,2.9-19.1,8.6c-1.1,1.1-2.1,2.1-3,3.2c-4.8,3.7-10,7.4-15.4,11.1c-4.9,3.3-6.4,3.7-6.9,3.7c-0.3,0-0.9,0-0.9-1.4
		c0-2.2,2.1-5.9,6.2-11c5.7-7.2,6.4-9.2,6.4-10c0-0.9-0.4-2.3-2.8-2.3c-2.3,0-5.6,3.6-10.4,11.2c-4.6,7.5-6.9,12.5-6.9,15.2
		c0,1.7,0.8,3.8,4.5,3.8c1.7,0,5.4-2,11.5-6.1c3.5-2.4,6.9-4.8,10.2-7.1c-0.8,2-1.2,3.9-1.2,5.7c0,5.1,2.2,7.7,6.5,7.7
		c5.2,0,11.7-2.5,19.4-7.3c0.6-0.4,1.2-0.8,1.8-1.2c-1.2,2-1.8,3.7-1.8,5.3c0,1.4,0.7,3.1,4.1,3.1c3.5,0,10.2-4,20.3-12.4
		c-1.2,3.8-1.7,6.5-1.7,8.2c0,2.8,1.8,3.2,2.8,3.2c2.8,0,8.8-3.4,18.1-10.2c-1.4,2.4-2.1,4.4-2.1,6.2c0,2.8,1.4,4.3,4.1,4.3
		c2.5,0,5.5-1.3,8.8-3.8c3-2.3,4.3-3.1,4.7-3.4c0,0.2-0.1,0.5-0.4,1.1c-0.3,0.7-0.5,1.5-0.5,2.2c0,3.4,1.7,5.1,4.9,5.1
		c2.6,0,7.7-2.6,15.6-7.9c7.8-5.2,15.3-10.8,22.2-16.7L275.5,156.7z M192.6,161.4c6.1-5.7,11-8.6,14.7-8.6l-4,6.1
		c-1.5,2.3-4.6,5.4-9.2,9.2c-4.5,3.8-7.9,5.7-10.1,5.7c-0.6,0-0.6-0.2-0.6-0.5C183.4,171.8,185,168.5,192.6,161.4z"/>
	<path class="st0" d="M276.6,172.5c-1,0-2.3,0.9-3.9,2.8c-1.6,1.9-2.3,3.2-2.3,4.1c0,0.9,0.3,1.7,0.8,2.4c0.6,0.7,1.4,1.1,2.6,1.1
		c1.2,0,2.4-0.8,3.9-2.5c1.5-1.7,2.2-3,2.2-4.2c0-1.1-0.3-2-0.9-2.7C278.4,172.8,277.6,172.5,276.6,172.5z"/>
	<path class="st0" d="M422.3,170.9c-0.8,0-1.6,0.2-2.6,0.7c-6.4,2.9-11.1,4.3-14.1,4.3c-2.9,0-5.5-1.2-7.8-3.7
		c-2.3-2.5-4.1-5.4-5.2-8.6c-1.2-3.3-2.1-7.3-2.7-11.9c-0.6-4.6-1-8.4-1.2-11.2c-0.1-2.8-0.2-5.6-0.2-8.3c0-2.3,0.1-3.2,0.2-3.6l0,0
		c2.4,1.3,5.3,2,8.4,2c5.1,0,11.6-2.9,19.4-8.6c7.7-5.6,14.6-12.2,20.4-19.4c5.9-7.4,8.8-13.2,8.8-17.6c0-4-2.6-6-7.7-6
		c-12.9,0-30.1,8.4-51.3,25.1c0.3-1.6,0.4-2.9,0.4-4.1c0-4.1-1.2-7.7-3.5-10.7c-2.3-3-5.4-5.3-9.2-6.8c-3.7-1.5-7.6-2.6-11.5-3.2
		c-3.9-0.6-8.3-1-13-1c-4.7,0-10.1,0.7-16,2.2c-3,0.8-5.5,2.1-7.4,3.7c-2,1.7-3,3.9-3,6.5c0,2.7,2,5.2,6,7.5c3.8,2.2,8.1,4,12.7,5.3
		c4.5,1.3,8.7,3.2,12.4,5.6c3.7,2.3,5.5,5.1,5.5,8.3c0,1.9,1.3,2.1,1.8,2.1c1.6,0,1.8-2.7,1.8-4.7c0-2.9-1.2-5.7-3.6-8.3
		c-2.4-2.5-5.3-4.4-8.6-5.8c-3.3-1.3-6.7-2.5-10-3.6c-3.3-1.1-6.1-2.3-8.3-3.7c-2.1-1.3-3.2-2.8-3.2-4.5c0.2-4.7,7.6-7,22.2-7
		c6.4,0,12.5,1,18.3,3.1c3.2,1.1,5.7,3,7.6,5.4c1.9,2.4,2.8,5.3,2.8,8.7c0,3.4-0.8,7.3-2.2,11.7c-15.6,13.2-29.8,27.7-42.4,43.1
		c-12.8,15.7-19,25.8-19,31.1c0,1.7,0.8,3.8,4.4,3.8c2.8,0,7.9-3.7,15.6-11.2c7.6-7.4,15.8-16.7,24.3-27.8c8.4-11,15-21.2,19.6-30.3
		c0.9,0.1,1.4,0.4,1.4,0.8l0,0.1c0.3,1.8,0.4,5.5,0.4,11.1c0,5.6,0.2,11,0.5,15.9c0.4,4.9,1.1,10.2,2.2,15.5
		c1.1,5.4,3.1,9.7,6.1,12.9c3,3.2,6.7,4.9,11.2,4.9c4.4,0,10.7-2.1,18.5-6.2c1.6-0.7,2.3-1.6,2.3-2.6
		C423.8,171.6,423.7,170.9,422.3,170.9z M388.9,123.3c-0.5-0.7-0.8-1.6-0.9-2.7c-0.1-1.2-0.2-2.2-0.3-3c-0.2-1.4-0.8-1.7-1.3-1.7
		h-3.6c0.8-1.7,1.5-3.4,2.1-5.2c22.2-18.1,39.2-27.3,50.4-27.3c1.4,0,2,0.6,2,2c0,3-2.4,7.9-7.1,14.5c-4.8,6.7-10.5,13-17.1,18.6
		c-6.5,5.6-11.8,8.4-15.9,8.4c-2,0-3.8-0.4-5.3-1.3C390.4,124.9,389.4,124.1,388.9,123.3z M375.5,118.7c-3.9,8.4-9.5,17.7-16.8,27.8
		c-7.9,10.9-15.3,19.9-22.1,26.9c-8.3,8.6-11.7,10.4-13,10.4c-0.1,0-0.2,0-0.2-0.5c0-5.3,5.4-14.6,16.1-27.7
		C349.8,143,361.9,130.6,375.5,118.7z"/>
	<path class="st0" d="M513.2,146.1L513.2,146.1l0.2,0c3.8-1.4,7.6-3,11.2-4.9c3.8-2,5.7-3.9,5.7-5.6c0-1.5-0.8-2.3-2.1-2.3
		c-1.3,0-2.3,0.6-3.2,1.7c-0.7,1-2.3,2.3-4.5,4c-2.3,1.7-4.2,2.8-5.7,3.3c-1.8,0.6-2.7,1.4-2.7,2.3
		C511.9,145.9,512.9,146.1,513.2,146.1z"/>
	<path class="st0" d="M559.6,157.9c-7,5.6-13,8.5-18,8.5c-0.3,0-0.6,0-0.8,0c3.1-5,4.7-10.1,4.7-15.2c0-3.5-1-6.2-3-8.1
		c-2-1.9-4.5-2.9-7.4-2.9c-2.9,0-5.5,1-7.6,2.9c-2.2,1.9-3.3,4.4-3.3,7.5c0,2.9,0.5,5.6,1.6,8.2c-1.3,1.3-2.4,2.5-3.4,3.7
		c-4.1,3.1-8.5,6.2-13.1,9.3c-4.9,3.3-6.4,3.7-6.9,3.7c-0.3,0-0.9,0-0.9-1.4c0-2.1,2.1-5.9,6.2-11c5.7-7.2,6.4-9.2,6.4-10
		c0-0.9-0.4-2.3-2.8-2.3c-1.5,0-3.4,1.5-5.9,4.6c-0.1,0.1-0.3,0.1-0.4,0.2l-3.5,2.8c-6.8,5.6-13.6,10.5-20.3,14.6
		c-3.7,2.3-7.2,3.5-10.5,3.5c-4,0-4.5-1.9-4.5-3.3c0-3.2,2.4-7.4,7.1-12.4c4.7-5,8.6-7.6,11.7-7.7c1,0,1,0.3,1,0.5
		c0,0.2-0.2,0.9-2.2,2.7c-1,1-1.4,1.6-1.4,2.1c0,1.1,0.9,1.8,2.8,2.1c1.5,0,3.2-1.1,5-3.4c2.4-3,2.6-4.1,2.6-4.7
		c0-1-0.3-1.7-0.9-2.3c-0.6-0.5-1.9-0.9-4.1-1.1c-6.8,0-13.3,2.9-19.1,8.6c-1,1-1.9,1.9-2.7,2.9c-5.7,4.1-10.7,6.1-14.9,6.1
		c-0.3,0-0.6,0-0.8,0c3.1-5,4.7-10.1,4.7-15.2c0-3.5-1-6.2-3-8.1c-2-1.9-4.5-2.9-7.4-2.9c-2.9,0-5.5,1-7.6,2.9
		c-2.2,1.9-3.3,4.4-3.3,7.5c0,2.9,0.5,5.6,1.6,8.2c-6.5,6.5-9.6,11.6-9.6,15.6c0,5.2,3.1,6.3,5.7,6.3c2.3,0,4.9-1,7.9-2.9
		c2.9-1.8,5.6-4.2,8-7.2c0.4,0.1,0.8,0.1,1.4,0.1c3.9,0,8.2-1.3,12.9-4c-1.1,2.3-1.7,4.5-1.7,6.7c0,5.1,2.2,7.7,6.5,7.7
		c5.2,0,11.7-2.5,19.4-7.3c4.6-2.9,9.2-6.2,13.7-9.7c-3.8,6.3-5.6,10.6-5.6,13.1c0,1.7,0.8,3.8,4.5,3.8c1.7,0,5.4-2,11.5-6.1
		c2.5-1.7,5-3.4,7.4-5.1c-0.8,1.7-1.2,3.3-1.2,4.7c0,4.1,2,6.3,5.7,6.3c2.3,0,4.9-1,7.9-2.9c2.9-1.8,5.6-4.2,8-7.2
		c0.4,0.1,0.8,0.1,1.4,0.1c6.6,0,14.4-3.8,23.4-11.3l0.7-0.6l-3.5-1L559.6,157.9z M528.1,163.2c1.7,2.7,3.7,4.8,5.9,6
		c-3.4,4.4-6.1,6.6-8.3,6.6c-2.7,0-3.1-1.3-3.1-2.2C522.7,170.7,524.5,167.2,528.1,163.2z M534.2,156.2l0-0.3c0-1.2-0.9-1.3-1.1-1.3
		c-0.5,0-1.2,0.2-2,0.8c-0.7-2.3-1.1-4.6-1.1-6.8c0-3,1.4-4.4,4.3-4.4c1.4,0,2.9,0.8,4.4,2.2c1.5,1.5,2.3,3.8,2.3,7
		c0,3.1-1.3,6.9-3.9,11.4c-1.9-1.4-3.6-3.6-4.8-6.4C534.3,156.7,534.3,156.5,534.2,156.2z M443.7,144.1c1.4,0,2.9,0.8,4.4,2.2
		c1.5,1.5,2.3,3.8,2.3,7c0,3.1-1.3,6.9-3.9,11.4c-2-1.5-3.7-3.7-5-6.7c-1.4-3.1-2.1-6.4-2.1-9.6
		C439.4,145.5,440.8,144.1,443.7,144.1z M443.5,169.2c-3.4,4.4-6.1,6.6-8.3,6.6c-2.7,0-3.1-1.3-3.1-2.2c0-2.8,1.8-6.3,5.4-10.4
		C439.3,165.9,441.3,167.9,443.5,169.2z"/>
	<path class="st0" d="M675.2,168.5c-0.1,0-0.3,0-2.3,0.4c-1.2,0.3-3.5,0.4-6.6,0.4H660c5.9-4.6,10.7-9.8,14.5-15.3
		c4-6,6.1-11.3,6.1-15.8c0-4.6-1.7-8.1-4.9-10.6c-3.2-2.5-8.2-3.7-14.7-3.7c0,0,0,0,0,0l-3.4,0.2c9.1-4.5,18-10.5,26.6-18.1
		c9.5-8.4,14.2-14.7,14.2-19.4c0-3.4-2.7-5.1-8.1-5.1c-11.3,0-26.1,7.2-44,21.5c0.3-1.4,0.4-2.4,0.4-3.2c0-11.6-11-17.4-32.7-17.4
		c-8.3,0-16.4,1.2-24.1,3.4c-3.8,1.2-6.9,2.9-9.2,5c-2.4,2.2-3.6,4.7-3.6,7.5c0,2.8,1,5.3,2.9,7.4c1.9,2.1,4.4,3.7,7.4,4.8
		c3,1.1,6,2,9,2.7c3,0.7,6.2,1.3,9.5,1.9c3.3,0.6,5.7,1.2,7.3,1.8c1.5,0.6,2.6,1.5,3.4,2.5c0.6,0.8,1,1.4,1.2,1.7
		c0.3,0.4,0.8,0.6,1.3,0.6c0.5,0,1.1-0.3,1.1-1.9c0-3.5-1.4-6.3-4-8.3c-2.6-1.9-5.8-3.2-9.5-3.8c-3.7-0.6-7.4-1.2-11-1.8
		c-3.6-0.5-6.7-1.5-9.2-2.9c-2.4-1.3-3.6-3.2-3.6-5.6c0-2.4,1.1-4.4,3.3-6c2.3-1.6,5.3-2.8,9-3.5c3.7-0.7,7-1.1,9.6-1.4
		c2.6-0.2,6.5-0.3,11.4-0.3c4.9,0,9.6,0.6,14,1.8c2.7,0.8,4.8,2,6.2,3.7c1.4,1.7,2.1,4,2.1,6.9c0,3-1.4,7.8-4,14.3
		c-15.4,13.9-29.4,29.3-41.6,45.8c-12.4,16.8-18.5,28.2-18.5,34.9c0,3.1,1.6,4.7,4.6,4.7c4.7,0,11.4-5.4,20.7-16.4
		c9.1-10.8,17.9-23.1,26.2-36.7c8.3-13.6,14.3-25.2,18-34.5c17.9-15.3,32.1-23.1,42.3-23.2c3,0,3.3,1.1,3.3,2
		c0,3.4-4.9,9.2-14.7,17.4c-9.9,8.3-20.1,15-30.3,19.9c-2.7,1.2-3.8,2.2-3.8,3.3c0,1.5,0.9,1.7,1.3,1.7c0.2,0,0.6-0.1,1.6-0.7
		c0.6-0.4,2.7-1.1,6-2.1c3.4-1,6.6-1.5,9.8-1.5c7.8,0,11.7,3.5,11.7,10.8c0,4.6-1.6,9.9-4.9,15.7c-3.2,5.7-7.5,10.9-12.8,15.2
		c-13.1-0.5-25.1-0.7-35.6-0.7c-2.8,0-5,0.5-6.6,1.6c-1.6,1.1-2.5,2.6-2.5,4.6c0,2,1.5,3.9,4.3,5.7c2.8,1.8,6.6,2.7,11.3,2.7
		c9.8,0,20-3.3,30.2-9.7c6.3,0.2,13,0.3,20,0.3c0,0,0,0,0.1,0c2.7-0.1,3.2-1.5,3.2-2.7C677.6,169.5,676.7,168.5,675.2,168.5z
		 M582.3,193.4c-1.8,0-2.6-0.8-2.6-2.6c0-5,5.3-14.5,15.7-28.5c9.9-13.3,21.4-26.3,34.2-38.6c-6.7,13.8-15.6,28.8-26.4,44.6
		C589,189,584,193.4,582.3,193.4z M647.4,173.3c-7,4.3-14.4,6.5-21.8,6.5c-3,0-5.7-0.5-8-1.5c-2.1-0.9-3.3-1.9-3.3-2.9
		c0-1,1.3-2.6,10-2.6L647.4,173.3z"/>
	<path class="st0" d="M856.3,147.1c1.2,0,2.4-0.8,3.9-2.5c1.5-1.7,2.2-3,2.2-4.2c0-1.1-0.3-2-0.9-2.7c-0.6-0.7-1.4-1-2.4-1
		c-1,0-2.3,0.9-3.9,2.8c-1.6,1.9-2.3,3.2-2.3,4.1c0,0.9,0.3,1.7,0.8,2.4C854.2,146.8,855.1,147.1,856.3,147.1z"/>
	<path class="st0" d="M945.2,116.3c-1.3-0.5-4.6-0.7-10.2-0.7c-5.5,0-10.3,0.1-14.4,0.3c-1.3,0-3.9,0-8,0.1c-4,0.1-6.9,0.2-8.8,0.3
		c-1.8,0.1-5.4,0.4-11.3,1c-5.6,0.5-15.3,2-28.7,4.3c-2.1,0.4-3.1,1.3-3.1,2.7c0,1.3,1.1,2.3,3.1,3c1.9,0.6,3.5,0.9,4.9,0.9
		c1.6,0,2.4-0.4,2.4-1.3c0-1.5,0.5-1.5,0.7-1.6l2.7-0.5c5.2-1.2,12.6-2.3,22.1-3.2c-0.7,1.1-2.4,3.4-6.3,8
		c-4.1,4.8-8.5,9.9-13.1,15.4c-3.3,3.9-6.4,8-9.4,12.3l-0.9,0.7c-5.7,4.6-12,9.2-18.8,13.8c-4.9,3.3-6.4,3.7-6.9,3.7
		c-0.3,0-0.9,0-0.9-1.4c0-2.2,2.1-5.9,6.2-11c5.7-7.2,6.4-9.2,6.4-10c0-0.9-0.4-2.3-2.8-2.3c-1.6,0-3.6,1.6-6.1,5l-2.8,2.2
		c-5.2,4.2-10.7,8.3-16.6,12.4l-1.6,1.1c-4.2,2.8-6,3.3-6.8,3.3c-0.6,0-1-0.2-1-1.1c0-1.9,1.6-4.4,4.9-7.5c4.6-4.4,5.2-5.8,5.2-6.5
		c0-0.9-0.4-2.3-1.1-4.3c-0.9-2.4-1.1-3.2-1.1-3.4c0-0.4,0.2-0.7,0.5-1c0.5-0.4,0.9-1,1.1-1.6c0.2-0.6,0.3-0.9,0.4-1
		c0.1-0.1,0.3-0.4,1-1.1c0.5-0.6,1-1.1,1.3-1.5c0.3-0.4,0.7-1,1-1.6c0.4-0.7,0.5-1.3,0.5-1.8c0-0.6-0.3-1.2-0.9-1.7
		c-0.6-0.5-1.3-0.8-2-0.8c-0.5,0-1.4,0.2-3.9,2.3c-1.8,1.5-2.9,2.7-3.4,3.6c-0.5,0.9-0.7,2.5-0.7,4.9v1.1c-1,1.5-4.3,4.5-9.8,8.9
		l0,0c-3.8,3-8.2,6.2-12.9,9.7c-3.6,2.5-5.3,3.1-6,3.1c-0.2,0-1,0-1-2.1c0-4,2.4-9.9,7.2-17.7c4.8-7.8,10.2-15.5,16-22.7
		c21.2-26,23.6-31,23.6-32.5c0-0.7-0.3-1.9-2.6-1.9c-1.6,0-3.5,1.4-5.9,4.4c-20.3,28.9-32,45.7-34.9,49.9c-0.7-0.7-1.3-1.1-2-1.1
		c-5,0-11.8,3.8-20.1,11.2c-0.9,0.8-1.8,1.7-2.7,2.5c-3.8,2.9-7.9,5.7-12.2,8.6c-4.8,3.3-6.3,3.7-6.8,3.7c-0.5,0-0.9-0.1-0.9-1.2
		c0-0.6,0.7-2.4,5.2-8.2c1.3-1.6,2.7-3.4,4.2-5.3c1.5-1.9,2.5-3.2,3.1-3.9c0.6-0.8,0.9-1.6,0.9-2.5c0-0.9-0.3-2.3-2.5-2.3
		c-1.5,0-3.5,1.3-6,4c-2.4,2.5-6.5,6.1-12.2,10.7c-7,5.7-9.8,6.9-10.9,6.8c0-1,1.2-3.5,6.9-10.1c7.2-8.2,7.2-8.4,7.2-8.7
		c0-0.4-0.2-0.8-0.8-1.3c-0.5-0.5-1.1-0.8-1.7-0.8c-1.8,0-4.4,2.1-7.9,6.2l-2.3,1.8c-4.3,3.5-9.2,7.1-14.4,10.6
		c-5.2,3.4-8.7,5.2-10.5,5.2c-0.8,0-1.7-0.3-1.7-2.2c0-0.3,0.3-1.4,2.4-4.3c0.5-0.7,1.2-1.5,1.9-2.4c0.7-0.9,1.2-1.4,1.5-1.7
		c0.4-0.4,0.6-0.9,0.6-1.4c0-1.5-0.9-2.3-2.4-2.3c-1.1,0-2.3,0.6-3.5,1.8c-4.7,4.3-7.9,7.1-9.7,8.2c-1.8,1.5-3.2,2.2-4.3,2.2
		c-1,0-1.2-0.4-1.2-1c0-2.8,2.8-7.1,8.4-12.8c5.6-5.7,10.4-8.6,14.3-8.7c3,0.2,3,1.3,3,1.7c0,1.8-1.5,4-4.3,6.3
		c-0.8,0.7-1.1,1.2-1.1,1.8c0,0.3,0.1,1.1,1.3,1.1c2.1,0,4.4-1.3,7.2-4.1c2.8-2.8,4.1-4.8,4.1-6.3c0-1.5-0.5-2.6-1.5-3.3
		c-1-0.7-2.1-1.1-3.5-1.1c-5.5,0-11.3,1.8-17.1,5.4c-5.8,3.6-10.4,7.6-13.9,11.9c-3.5,4.5-5.2,7.9-5.2,10.6c0,2.8,1.4,4.3,4.1,4.3
		c2.5,0,5.5-1.3,8.8-3.8c3-2.3,4.3-3.1,4.7-3.4c0,0.2-0.1,0.5-0.4,1.1c-0.3,0.7-0.4,1.5-0.4,2.2c0,3.4,1.7,5.1,4.9,5.1
		c2.6,0,7.7-2.6,15.6-7.9c2.7-1.8,5.3-3.6,7.9-5.5c-3.7,5.4-4.2,7.2-4.2,8.1c0,2.6,1.5,3,2.4,3c2,0,5.5-1.7,10.7-5.1
		c7.6-5,8.2-5.6,8.4-5.8c0.2-0.2,0.4-0.3,0.5-0.4c-0.2,0.4-0.7,1.3-2,3.4c-1.4,2.3-2.1,4.1-2.1,5.6c0,1.8,0.8,4.1,4.5,4.1
		c1.7,0,5.4-2,11.5-6.1c1.2-0.8,2.3-1.6,3.4-2.3c-1.2,2-1.8,3.8-1.8,5.3c0,1.4,0.7,3.1,4.1,3.1c3.5,0,10.2-4,20.3-12.4
		c-1.2,3.8-1.7,6.5-1.7,8.2c0,2.8,1.8,3.2,2.8,3.2c3.5,0,12.1-5.4,26.2-16.3l0,0l0.1-0.1c2.6-2,5.4-4.3,8.5-6.7l0.2-0.1v-0.2
		c0.7-0.6,1.3-1.1,1.7-1.6c0.4,0.3,0.8,0.7,1.3,1.3c0.6,0.7,0.9,1.3,0.9,1.7c0,0.1-0.1,0.7-3,3.2c-2.1,1.8-4.3,4-6.5,6.5
		c-2.3,2.5-3.4,5.1-3.4,7.7c0,2.7,1.4,4.2,3.9,4.2c3.2,0,8.1-2.4,14.9-7.3c3.8-2.7,7.7-5.6,11.6-8.6c-3.9,6.5-5.8,10.9-5.8,13.5
		c0,1.7,0.8,3.8,4.5,3.8c1.7,0,5.4-2,11.5-6.1c5-3.3,9.7-6.7,14.2-10c-2.9,5-4.3,9-4.3,12.1c0,1.8,0.8,4.1,4.5,4.1
		c1.7,0,5.4-2,11.5-6.1c6-4,11.6-8.1,16.8-12c7.7-5.9,7.7-6.1,7.5-6.6l0-0.3c0-0.8-0.4-1.3-1.2-1.3c-0.6,0-1.2,0.3-2,0.8l-3,2.5
		c-5.7,4.6-12.1,9.2-19,13.8c-4.8,3.3-6.4,3.7-6.9,3.7c-0.3,0-1.1,0-1.1-1.7c0-3.6,3-9.3,8.8-17c5.9-7.7,11.8-15,17.7-21.5
		c9-10,9-11.2,9-11.7l-0.6-2.3c7.7-0.6,15.5-0.9,23.2-0.9l19.5,1l0,0c2.4,0,3.6-0.6,3.6-1.9C947.3,117.9,946.6,116.8,945.2,116.3z
		 M766.7,173.7c-0.6,0-0.6-0.2-0.6-0.5c0-1.5,1.6-4.8,9.1-11.9c6.1-5.7,11-8.6,14.7-8.6l-4,6.1c-1.5,2.3-4.6,5.4-9.2,9.2
		C772.2,171.8,768.8,173.7,766.7,173.7z"/>
</g>
</svg>
