<?xml version="1.0" encoding="utf-8"?>
<!-- Generator: Adobe Illustrator 28.4.1, SVG Export Plug-In . SVG Version: 6.00 Build 0)  -->
<svg version="1.1" id="Layer_1" xmlns="http://www.w3.org/2000/svg" xmlns:xlink="http://www.w3.org/1999/xlink" x="0px" y="0px"
	 viewBox="0 0 1463.75 597.45" style="enable-background:new 0 0 1463.75 597.45;" xml:space="preserve">
<style type="text/css">
	.st0{clip-path:url(#SVGID_00000018206316844963183970000015064851892560463749_);}
	.st1{fill:#F5DF1A;}
	.st2{fill:#7F9BC3;}
	.st3{fill:#F4A040;}
	.st4{fill:#B9ADD5;}
	.st5{fill:#AB54A5;}
	.st6{fill:#D55264;}
	.st7{fill:#829373;}
	.st8{fill:#C556A2;}
	.st9{fill:#FFFFFF;}
	.st10{fill:#F77223;}
	.st11{fill:#00A850;}
	.st12{fill:url(#SVGID_00000085943648889896515480000009738722015384721592_);}
</style>
<g>
	<g>
		<g>
			<defs>
				<path id="SVGID_1_" d="M399.39,278.46c2.92,3.95,2.71,12.24,1.11,19.08c-1.16,4.87-4.83,16.3-14.38,20.64
					c0.71,7.55-1.89,14.73-7.57,20.81c-7.58,8.15-19.97,13.32-30.87,12.71c-0.15,0.21-0.31,0.41-0.47,0.62
					c-7.93,9.86-21.09,15.97-34.37,15.97c-3.68,0-7.32-0.46-10.83-1.38c-14.02-3.75-23.44-14.53-25.84-29.59l-0.02-186.87
					c0-0.26,0.06-0.52,0.18-0.76l0.1-0.21c8.3-11.55,19.39-17.79,29.82-16.82c7.03,0.61,12.41,4.37,14.39,5.95
					c3.92,3.17,7.03,7.55,8.69,12.22c5.93-1.4,14.01-0.01,21.6,3.79c8.08,4.08,13.82,9.94,15.89,16.2
					c18.21,6.7,23.41,23.32,22.18,37.3c2.57,0.95,5.09,3.11,7.38,6.33c5.71,8.12,9.09,22,5.33,31.96c3.4,2.89,5.15,7.49,4.94,13.12
					C406.46,265.38,403.98,272.46,399.39,278.46z M270.96,149.71c-0.04-0.09-0.19-0.37-0.25-0.45
					c-8.16-11.32-19.25-17.52-29.68-16.59c-7.04,0.61-12.41,4.37-14.4,5.96c-3.92,3.16-7.02,7.54-8.69,12.21
					c-5.93-1.4-14.01-0.01-21.6,3.79c-8.08,4.07-13.81,9.94-15.89,16.19c-18.21,6.7-23.41,23.32-22.18,37.3
					c-2.57,0.95-5.09,3.11-7.38,6.34c-5.7,8.11-9.08,22-5.32,31.95c-3.4,2.89-5.15,7.49-4.95,13.11c0.18,5.85,2.66,12.94,7.25,18.93
					c-2.92,3.95-2.71,12.24-1.11,19.08c1.16,4.86,4.82,16.3,14.38,20.64c-0.71,7.55,1.89,14.73,7.57,20.81
					c7.58,8.15,19.98,13.33,30.87,12.71c0.16,0.21,0.32,0.42,0.49,0.64c7.91,9.84,21.07,15.95,34.35,15.95
					c3.68,0,7.32-0.46,10.84-1.38c14.01-3.75,23.43-14.53,25.85-29.86v-186.6C271.13,150.2,271.08,149.94,270.96,149.71z"/>
			</defs>
			<clipPath id="SVGID_00000026856150553941373600000012987871529719361924_">
				<use xlink:href="#SVGID_1_"  style="overflow:visible;"/>
			</clipPath>
			<g style="clip-path:url(#SVGID_00000026856150553941373600000012987871529719361924_);">
				<g>
					<polygon class="st1" points="396.73,162.76 427.22,162.76 442.47,189.17 427.22,215.57 396.73,215.57 381.49,189.17 					"/>
					<polygon class="st2" points="351.03,136.36 381.52,136.36 396.76,162.76 381.52,189.17 351.03,189.17 335.78,162.76 					"/>
					<polygon class="st1" points="305.24,162.76 335.73,162.76 350.97,189.17 335.73,215.57 305.24,215.57 289.99,189.17 					"/>
					<polygon class="st3" points="305.24,109.95 335.73,109.95 350.97,136.36 335.73,162.76 305.24,162.76 289.99,136.36 					"/>
					<polygon class="st4" points="396.73,215.57 427.22,215.57 442.47,241.98 427.22,268.38 396.73,268.38 381.49,241.98 					"/>
					<polygon class="st5" points="351.03,189.17 381.52,189.17 396.76,215.57 381.52,241.98 351.03,241.98 335.78,215.57 					"/>
					<polygon class="st6" points="259.49,136.36 289.98,136.36 305.23,162.76 289.98,189.17 259.49,189.17 244.25,162.76 					"/>
					<polygon class="st2" points="259.49,189.17 289.98,189.17 305.23,215.57 289.98,241.98 259.49,241.98 244.25,215.57 					"/>
					<polygon class="st6" points="305.24,215.57 335.73,215.57 350.97,241.98 335.73,268.38 305.24,268.38 289.99,241.98 					"/>
					<polygon class="st6" points="396.73,268.38 427.22,268.38 442.47,294.79 427.22,321.19 396.73,321.19 381.49,294.79 					"/>
					<polygon class="st7" points="351.03,241.98 381.52,241.98 396.76,268.38 381.52,294.79 351.03,294.79 335.78,268.38 					"/>
					<polygon class="st7" points="351.03,347.6 381.52,347.6 396.76,374 381.52,400.41 351.03,400.41 335.78,374 					"/>
					<polygon class="st4" points="259.49,241.98 289.98,241.98 305.23,268.38 289.98,294.79 259.49,294.79 244.25,268.38 					"/>
					<polygon class="st1" points="259.49,294.79 289.98,294.79 305.23,321.19 289.98,347.6 259.49,347.6 244.25,321.19 					"/>
					<polygon class="st5" points="259.49,347.6 289.98,347.6 305.23,374 289.98,400.41 259.49,400.41 244.25,374 					"/>
					<polygon class="st2" points="305.24,268.38 335.73,268.38 350.97,294.79 335.73,321.19 305.24,321.19 289.99,294.79 					"/>
					<polygon class="st3" points="396.73,321.19 427.22,321.19 442.47,347.6 427.22,374 396.73,374 381.49,347.6 					"/>
					<polygon class="st8" points="351.03,294.79 381.52,294.79 396.76,321.19 381.52,347.6 351.03,347.6 335.78,321.19 					"/>
					<polygon class="st3" points="305.24,321.19 335.73,321.19 350.97,347.6 335.73,374 305.24,374 289.99,347.6 					"/>
				</g>
				<g>
					<polygon class="st1" points="150.98,162.76 120.49,162.76 105.25,189.17 120.49,215.57 150.98,215.57 166.23,189.17 					"/>
					<polygon class="st2" points="196.68,136.36 166.19,136.36 150.95,162.76 166.19,189.17 196.68,189.17 211.93,162.76 					"/>
					<polygon class="st1" points="242.48,162.76 211.99,162.76 196.74,189.17 211.99,215.57 242.48,215.57 257.72,189.17 					"/>
					<polygon class="st3" points="242.48,109.95 211.99,109.95 196.74,136.36 211.99,162.76 242.48,162.76 257.72,136.36 					"/>
					<polygon class="st4" points="150.98,215.57 120.49,215.57 105.25,241.98 120.49,268.38 150.98,268.38 166.23,241.98 					"/>
					<polygon class="st5" points="196.68,189.17 166.19,189.17 150.95,215.57 166.19,241.98 196.68,241.98 211.93,215.57 					"/>
					<polygon class="st6" points="288.22,136.36 257.73,136.36 242.49,162.76 257.73,189.17 288.22,189.17 303.46,162.76 					"/>
					<polygon class="st2" points="288.22,189.17 257.73,189.17 242.49,215.57 257.73,241.98 288.22,241.98 303.46,215.57 					"/>
					<polygon class="st6" points="242.48,215.57 211.99,215.57 196.74,241.98 211.99,268.38 242.48,268.38 257.72,241.98 					"/>
					<polygon class="st6" points="150.98,268.38 120.49,268.38 105.25,294.79 120.49,321.19 150.98,321.19 166.23,294.79 					"/>
					<polygon class="st7" points="196.68,241.98 166.19,241.98 150.95,268.38 166.19,294.79 196.68,294.79 211.93,268.38 					"/>
					<polygon class="st7" points="196.68,347.6 166.19,347.6 150.95,374 166.19,400.41 196.68,400.41 211.93,374 					"/>
					<polygon class="st4" points="288.22,241.98 257.73,241.98 242.49,268.38 257.73,294.79 288.22,294.79 303.46,268.38 					"/>
					<polygon class="st1" points="288.22,294.79 257.73,294.79 242.49,321.19 257.73,347.6 288.22,347.6 303.46,321.19 					"/>
					<polygon class="st5" points="288.22,347.6 257.73,347.6 242.49,374 257.73,400.41 288.22,400.41 303.46,374 					"/>
					<polygon class="st2" points="242.48,268.38 211.99,268.38 196.74,294.79 211.99,321.19 242.48,321.19 257.72,294.79 					"/>
					<polygon class="st3" points="150.98,321.19 120.49,321.19 105.25,347.6 120.49,374 150.98,374 166.23,347.6 					"/>
					<polygon class="st8" points="196.68,294.79 166.19,294.79 150.95,321.19 166.19,347.6 196.68,347.6 211.93,321.19 					"/>
					<polygon class="st3" points="242.48,321.19 211.99,321.19 196.74,347.6 211.99,374 242.48,374 257.72,347.6 					"/>
				</g>
			</g>
		</g>
	</g>
	<path class="st9" d="M312.83,368.29c-3.68,0-7.32-0.46-10.83-1.38c-14.02-3.75-23.44-14.53-25.84-29.59l-0.02-186.87
		c0-0.26,0.06-0.52,0.18-0.76l0.1-0.21c8.3-11.55,19.39-17.79,29.82-16.82c7.03,0.61,12.41,4.37,14.39,5.95
		c3.92,3.17,7.03,7.55,8.69,12.22c5.93-1.4,14.01-0.01,21.6,3.79c8.08,4.08,13.82,9.94,15.89,16.2c18.21,6.7,23.41,23.32,22.18,37.3
		c2.57,0.95,5.09,3.11,7.38,6.33c5.71,8.12,9.09,22,5.33,31.96c3.4,2.89,5.15,7.49,4.94,13.12c-0.17,5.84-2.66,12.92-7.25,18.92
		c2.92,3.95,2.71,12.24,1.11,19.08c-1.16,4.87-4.83,16.3-14.38,20.64c0.71,7.55-1.89,14.73-7.57,20.81
		c-7.58,8.15-19.97,13.32-30.87,12.71c-0.15,0.21-0.31,0.41-0.47,0.62C339.27,362.18,326.11,368.29,312.83,368.29z M280.88,219.42
		l-0.03,117.54c2.13,13.02,10.09,22.12,22.39,25.36c14.49,3.82,31.05-1.49,40.26-12.94c9.39-11.68,9.62-27.73,0.66-45.19
		c-0.21-0.4-0.24-0.87-0.1-1.3c0.14-0.43,0.45-0.78,0.85-0.99l1.15-0.59c0.4-0.21,0.87-0.25,1.3-0.12c0.43,0.14,0.79,0.44,1,0.84
		c8.54,16.62,9.37,32.45,2.46,44.95c8.71-0.48,18.34-4.85,24.27-11.21c3.57-3.82,7.52-10.17,6.11-18.73l-0.1-0.56
		c-0.15-0.83,0.35-1.65,1.16-1.91l0.54-0.17c5.98-2,10.89-8.72,13.09-17.99c1.46-6.25,1.25-11.7,0.21-14.22
		c-2.29,2.25-4.93,4.22-7.91,5.75c-7.59,3.92-19.95,6.39-36.15-3.61c-6.63,9.22-15.66,13.5-24.4,11.48
		c-4.35-1.01-8.11-3.53-10.68-7.04c-1,3.52-2.6,6.07-4.83,7.76c-0.36,0.27-0.81,0.38-1.26,0.32s-0.85-0.3-1.12-0.66l-0.81-1.09
		c-0.56-0.74-0.41-1.81,0.33-2.37c2.58-1.95,3.99-6.46,4.17-13.4c0.02-0.88,0.72-1.6,1.61-1.64l1.32-0.07
		c0.89-0.12,1.67,0.62,1.77,1.51c0.67,6,4.81,10.73,10.55,12.05c7.37,1.71,15.1-2.55,20.65-11.38l0.38-0.6
		c0.24-0.38,0.63-0.64,1.07-0.74c0.44-0.09,0.9-0.01,1.28,0.24l0.58,0.37c15.26,10.19,26.56,8.14,33.36,4.62
		c10.07-5.18,15.63-16.16,15.92-24.33c0.15-4.73-1.42-8.34-4.4-10.15l-0.49-0.27c-0.8-0.45-1.1-1.46-0.67-2.27l0.3-0.58
		c4.14-8.27,1.05-21.47-4.19-28.93c-1.38-1.94-2.82-3.36-4.18-4.15c-0.23,1.13-0.49,2.24-0.8,3.33
		c-4.34,15.37-17.59,30.88-37.41,30.88c-2.89,0-5.91-0.33-8.99-0.99c-1.18,1.91-2.54,3.33-3.88,4.39c-1.85,1.47-4,2.51-6.42,3.1
		c3.51,0.85,7.45,1.67,11.94,2.48c0.45,0.08,0.84,0.34,1.1,0.71c0.26,0.38,0.35,0.84,0.26,1.29l-0.23,1.25
		c-0.07,0.45-0.32,0.85-0.69,1.12c-0.37,0.26-0.84,0.36-1.28,0.28c-19.25-3.48-33.98-7.93-43.24-18.33
		C291.16,236.25,285.01,228.22,280.88,219.42z M280.88,204.62c4.28,20.7,20.09,36.34,33.01,42.13c8.38,3.74,15.81,3.81,20.38,0.18
		c5.44-4.27,7.02-13.39,4.57-26.38c-0.17-0.91,0.42-1.79,1.33-1.98l1.31-0.27c0.45-0.09,0.91,0,1.29,0.25s0.64,0.65,0.72,1.1
		c1.88,10.05,1.32,17.15-0.34,22.14c21,4.08,35.29-10.82,39.76-26.73c0.39-1.42,1.14-5.49,1.2-5.99
		c1.61-12.81-2.8-28.46-19.99-34.16l-0.29-0.09c-0.56-0.17-0.99-0.61-1.14-1.17l-0.1-0.37c-1.35-5.38-6.5-10.75-13.79-14.41
		c-6.53-3.28-13.49-4.57-18.28-3.45c1.77,13.08-8.83,27.03-25.55,33.95c0.06,2.88-0.54,5.84-1.79,8.82
		c-0.17,0.41-0.51,0.74-0.92,0.91c-0.42,0.17-0.88,0.17-1.3-0.01l-1.2-0.49c-0.43-0.17-0.77-0.5-0.95-0.91
		c-0.18-0.42-0.18-0.9-0.01-1.32c2.53-6.1,1.75-11.46-2.45-16.88c-0.28-0.36-0.4-0.81-0.34-1.26s0.3-0.86,0.66-1.13l1.04-0.81
		c0.36-0.29,0.81-0.44,1.27-0.36c0.45,0.05,0.87,0.29,1.15,0.66c1.97,2.59,3.35,5.25,4.12,7.94c14.12-6.25,23.3-18.37,21.56-28.79
		c-0.66-3.83-3.15-9.38-8.14-13.43c-1.63-1.32-6.06-4.45-11.85-4.95c-8.56-0.69-17.84,4.52-24.92,14.04v53.22H280.88z
		 M322.21,342.75c-0.82,0-1.54-0.6-1.67-1.43l-0.2-1.33c-0.07-0.45,0.04-0.9,0.31-1.26c0.27-0.36,0.67-0.6,1.12-0.67
		c6.53-0.94,10.73-4.35,13.23-10.76c0.17-0.43,0.5-0.77,0.92-0.95c0.43-0.18,0.9-0.18,1.32,0l1.2,0.49c0.42,0.16,0.76,0.49,0.94,0.9
		s0.19,0.88,0.02,1.3c-3.12,7.95-8.83,12.56-16.96,13.7C322.37,342.74,322.29,342.75,322.21,342.75z M324.51,321.13
		c-0.23,0-0.47-0.05-0.69-0.15c-0.41-0.18-0.74-0.52-0.9-0.95c-2.33-6.13-6.59-9.49-13.38-10.55c-0.92-0.15-1.55-1.01-1.41-1.93
		l0.2-1.35c0.07-0.45,0.31-0.85,0.67-1.12c0.36-0.27,0.82-0.37,1.27-0.31c8.43,1.32,14.17,5.89,17.08,13.57
		c0.16,0.42,0.14,0.89-0.04,1.3c-0.19,0.41-0.53,0.73-0.95,0.89l-1.22,0.47C324.93,321.09,324.72,321.13,324.51,321.13z
		 M377.37,316.32c-0.68,0-1.33-0.42-1.58-1.09c-2.34-6.16-6.6-9.52-13.38-10.58c-0.44-0.07-0.84-0.31-1.11-0.68
		c-0.26-0.36-0.37-0.82-0.3-1.26l0.2-1.31c0.07-0.45,0.31-0.85,0.67-1.11c0.36-0.27,0.81-0.38,1.26-0.31
		c8.42,1.32,14.17,5.88,17.08,13.57c0.33,0.87-0.1,1.84-0.97,2.18l-1.28,0.49C377.76,316.29,377.56,316.32,377.37,316.32z
		 M370.49,272.21c-0.83,0-1.55-0.61-1.67-1.45l-0.2-1.35c-0.07-0.45,0.04-0.9,0.31-1.26c0.27-0.36,0.67-0.6,1.12-0.67
		c6.52-0.94,10.73-4.35,13.23-10.73c0.34-0.86,1.3-1.29,2.16-0.97l1.28,0.48c0.42,0.16,0.76,0.49,0.94,0.9s0.19,0.88,0.03,1.3
		c-3.11,7.93-8.81,12.55-16.95,13.73C370.65,272.2,370.57,272.21,370.49,272.21z M365.61,202.93c-0.68,0-1.33-0.42-1.58-1.09
		c-2.35-6.16-6.6-9.52-13.38-10.58c-0.44-0.07-0.84-0.31-1.11-0.67s-0.38-0.82-0.31-1.26l0.1-0.65c0-0.02,0.01-0.05,0.01-0.07
		l0.14-0.68c0.18-0.89,1.02-1.48,1.92-1.34c8.39,1.32,14.13,5.89,17.07,13.57c0.16,0.42,0.15,0.89-0.04,1.31
		c-0.19,0.41-0.53,0.73-0.96,0.89l-1.29,0.47C366,202.89,365.8,202.93,365.61,202.93z M234.44,368.29
		c-13.28,0-26.44-6.11-34.35-15.95c-0.17-0.22-0.33-0.43-0.49-0.64c-10.89,0.61-23.28-4.57-30.87-12.71
		c-5.68-6.09-8.28-13.26-7.57-20.81c-9.56-4.34-13.23-15.78-14.38-20.64c-1.6-6.84-1.81-15.13,1.11-19.08
		c-4.6-6-7.08-13.08-7.25-18.93c-0.2-5.62,1.55-10.22,4.95-13.11c-3.76-9.96-0.38-23.84,5.32-31.95c2.29-3.23,4.81-5.39,7.38-6.34
		c-1.23-13.98,3.97-30.6,22.18-37.3c2.07-6.26,7.81-12.12,15.89-16.19c7.6-3.8,15.68-5.19,21.6-3.79c1.67-4.67,4.77-9.05,8.69-12.21
		c1.99-1.59,7.36-5.35,14.4-5.96c10.43-0.93,21.51,5.27,29.68,16.59c0.05,0.08,0.21,0.36,0.25,0.45c0.11,0.23,0.17,0.49,0.17,0.75
		v186.6c-2.43,15.33-11.84,26.11-25.85,29.86C241.76,367.83,238.12,368.29,234.44,368.29z M200.43,301.11c0.27,0,0.54,0.07,0.79,0.2
		l1.15,0.59c0.41,0.2,0.71,0.56,0.85,0.99s0.1,0.9-0.1,1.3c-8.96,17.46-8.72,33.51,0.66,45.19c9.21,11.45,25.77,16.79,40.26,12.94
		c12.3-3.24,20.25-12.34,22.41-25.63l-0.05-117.27c-4.14,8.81-10.33,16.88-17.95,23.3c-9.1,10.22-23.82,14.67-43.07,18.16
		c-0.45,0.07-0.91-0.03-1.28-0.29s-0.62-0.67-0.69-1.12l-0.22-1.25c-0.09-0.45,0-0.91,0.26-1.29s0.65-0.63,1.1-0.71
		c4.49-0.81,8.43-1.62,11.94-2.48c-2.42-0.59-4.57-1.63-6.43-3.1c-1.34-1.06-2.7-2.47-3.88-4.38c-3.08,0.66-6.1,0.99-8.99,0.99
		c-19.82,0-33.07-15.51-37.41-30.88c-0.31-1.1-0.57-2.21-0.8-3.34c-1.36,0.79-2.8,2.21-4.19,4.16c-5.24,7.46-8.32,20.65-4.17,28.96
		l0.29,0.54c0.43,0.81,0.13,1.82-0.67,2.27l-0.54,0.3c-2.94,1.78-4.5,5.39-4.36,10.13c0.29,8.17,5.85,19.15,15.92,24.33
		c6.8,3.51,18.11,5.56,33.35-4.61l0.59-0.38c0.79-0.51,1.83-0.29,2.34,0.5l0.37,0.58c5.56,8.85,13.28,13.11,20.66,11.4
		c5.75-1.32,9.89-6.05,10.55-12.05c0.1-0.89,0.95-1.61,1.77-1.5l1.32,0.07c0.89,0.04,1.58,0.76,1.61,1.64
		c0.19,6.94,1.59,11.45,4.17,13.4c0.74,0.56,0.89,1.62,0.34,2.37l-0.81,1.09c-0.27,0.36-0.67,0.6-1.12,0.66
		c-0.44,0.05-0.9-0.05-1.26-0.32c-2.23-1.68-3.83-4.24-4.83-7.75c-2.57,3.5-6.33,6.02-10.68,7.03c-8.74,2.02-17.77-2.26-24.4-11.48
		c-16.2,9.98-28.56,7.52-36.15,3.61c-2.98-1.53-5.62-3.5-7.91-5.75c-1.05,2.52-1.26,7.97,0.21,14.22
		c2.2,9.26,7.11,15.99,13.12,17.99l0.52,0.17c0.81,0.26,1.31,1.08,1.16,1.91l-0.1,0.58c-1.41,8.53,2.54,14.88,6.11,18.71
		c5.93,6.36,15.55,10.73,24.27,11.21c-6.91-12.5-6.08-28.32,2.46-44.95c0.21-0.4,0.57-0.7,1-0.84
		C200.09,301.14,200.26,301.11,200.43,301.11z M205.44,218.28c0.12,0,0.23,0.01,0.35,0.04l1.31,0.27c0.91,0.18,1.5,1.06,1.33,1.98
		c-2.45,12.99-0.87,22.11,4.57,26.37c4.58,3.64,12.01,3.57,20.39-0.18c12.92-5.78,28.73-21.42,33.01-42.13v-53.21
		c-7.09-9.52-16.38-14.75-24.93-14.04c-5.78,0.5-10.21,3.63-11.85,4.95c-4.99,4.05-7.47,9.59-8.14,13.44
		c-1.74,10.42,7.44,22.53,21.56,28.78c0.77-2.69,2.15-5.35,4.12-7.94c0.28-0.36,0.69-0.6,1.15-0.66c0.45-0.07,0.91,0.08,1.27,0.36
		l1.03,0.81c0.36,0.27,0.6,0.68,0.66,1.13c0.06,0.45-0.06,0.9-0.34,1.26c-4.2,5.42-4.98,10.78-2.45,16.88
		c0.18,0.42,0.17,0.9-0.01,1.32c-0.18,0.42-0.52,0.75-0.95,0.91l-1.2,0.49c-0.42,0.18-0.88,0.17-1.3,0.01
		c-0.42-0.17-0.75-0.5-0.92-0.91c-1.25-2.98-1.85-5.94-1.79-8.82c-16.83-6.97-27.45-21.04-25.56-33.96
		c-4.78-1.11-11.75,0.18-18.27,3.45c-7.29,3.66-12.44,9.04-13.79,14.38l-0.11,0.4c-0.15,0.57-0.59,1.01-1.15,1.18l-0.34,0.1
		c-17.14,5.69-21.55,21.34-19.95,34.08c0.06,0.57,0.81,4.64,1.21,6.06c4.47,15.9,18.77,30.79,39.76,26.72
		c-1.66-5-2.22-12.09-0.34-22.14c0.08-0.45,0.35-0.84,0.72-1.1C204.78,218.37,205.11,218.28,205.44,218.28z M225.06,342.75
		c-0.08,0-0.16-0.01-0.24-0.02c-8.13-1.14-13.83-5.75-16.96-13.7c-0.17-0.42-0.16-0.89,0.03-1.3c0.18-0.41,0.52-0.74,0.94-0.9
		l1.2-0.49c0.42-0.18,0.9-0.18,1.32,0c0.42,0.18,0.75,0.52,0.92,0.95c2.5,6.41,6.7,9.82,13.23,10.76c0.45,0.07,0.85,0.3,1.12,0.67
		c0.27,0.36,0.38,0.82,0.32,1.26l-0.21,1.34C226.6,342.15,225.88,342.75,225.06,342.75z M222.76,321.13c-0.21,0-0.42-0.04-0.62-0.12
		l-1.23-0.47c-0.42-0.16-0.77-0.48-0.95-0.89c-0.19-0.41-0.2-0.88-0.04-1.3c2.9-7.69,8.65-12.25,17.08-13.57
		c0.45-0.07,0.9,0.04,1.26,0.31s0.61,0.67,0.67,1.11l0.1,0.68l0,0l0.1,0.67c0.14,0.92-0.49,1.78-1.41,1.93
		c-6.8,1.07-11.05,4.42-13.38,10.55c-0.16,0.42-0.48,0.76-0.9,0.95C223.22,321.08,222.99,321.13,222.76,321.13z M169.9,316.32
		c-0.2,0-0.39-0.03-0.59-0.11l-1.28-0.49c-0.87-0.34-1.3-1.31-0.97-2.18c2.91-7.69,8.65-12.26,17.08-13.57
		c0.44-0.07,0.9,0.04,1.26,0.31s0.61,0.67,0.67,1.11l0.2,1.31c0.14,0.92-0.49,1.79-1.41,1.94c-6.79,1.06-11.04,4.43-13.38,10.58
		C171.23,315.91,170.59,316.32,169.9,316.32z M176.78,272.21c-0.08,0-0.16-0.01-0.24-0.02c-8.14-1.18-13.84-5.8-16.95-13.73
		c-0.17-0.42-0.16-0.89,0.03-1.3c0.18-0.41,0.52-0.74,0.94-0.9l1.28-0.48c0.86-0.32,1.83,0.11,2.16,0.97
		c2.5,6.39,6.71,9.79,13.23,10.73c0.45,0.07,0.85,0.3,1.12,0.67c0.27,0.36,0.38,0.82,0.32,1.26l-0.21,1.36
		C178.33,271.61,177.61,272.21,176.78,272.21z M181.66,202.93c-0.19,0-0.39-0.03-0.58-0.1l-1.29-0.47
		c-0.43-0.16-0.77-0.48-0.96-0.89s-0.2-0.88-0.04-1.31c2.94-7.69,8.69-12.25,17.07-13.57c0.9-0.13,1.75,0.45,1.92,1.34l0.14,0.68
		c0,0.02,0.01,0.04,0.01,0.07l0.1,0.65c0.07,0.44-0.04,0.9-0.3,1.26c-0.26,0.36-0.66,0.61-1.11,0.68
		c-6.78,1.06-11.04,4.42-13.38,10.58C182.99,202.51,182.34,202.93,181.66,202.93z M334.92,385.64v-11.52c0-1.33-1.08-2.41-2.41-2.41
		H214.76c-1.33,0-2.41,1.08-2.41,2.41v11.52c0,1.33,1.08,2.41,2.41,2.41h117.75C333.84,388.05,334.92,386.97,334.92,385.64z
		 M334.92,409.53v-11.52c0-1.33-1.08-2.41-2.41-2.41H214.76c-1.33,0-2.41,1.08-2.41,2.41v11.52c0,1.33,1.08,2.41,2.41,2.41h117.75
		C333.84,411.95,334.92,410.87,334.92,409.53z M334.92,432.59v-11.52c0-1.33-1.08-2.41-2.41-2.41H214.76
		c-1.33,0-2.41,1.08-2.41,2.41v11.52c0,1.33,1.08,2.41,2.41,2.41h117.75C333.84,435,334.92,433.92,334.92,432.59z M314.5,455.25
		c1.48-1.48,2.39-3.52,2.39-5.78s-0.92-4.3-2.39-5.78c-1.48-1.48-3.52-2.39-5.78-2.39h-35.08h-35.09c-2.26,0-4.3,0.92-5.78,2.39
		c-1.48,1.48-2.39,3.52-2.39,5.78s0.92,4.3,2.39,5.78c1.48,1.48,3.52,2.39,5.78,2.39c0,0-8.17,0,5.02,0
		c13.19,0,14.03,14.19,30.07,14.19c16.04,0,17.04-14.19,30.07-14.19s5.02,0,5.02,0C310.98,457.64,313.02,456.73,314.5,455.25z
		 M281.71,107.38V77.56c0-4.46-3.61-8.07-8.07-8.07l0,0c-4.46,0-8.07,3.61-8.07,8.07v29.82c0,4.46,3.61,8.07,8.07,8.07l0,0
		C278.09,115.45,281.71,111.84,281.71,107.38z M381.78,155.52l21.09-21.09c3.15-3.15,3.15-8.26,0-11.42l0,0
		c-3.15-3.15-8.26-3.15-11.42,0l-21.09,21.09c-3.15,3.15-3.15,8.26,0,11.42l0,0C373.51,158.67,378.62,158.67,381.78,155.52z
		 M165.49,348.97l-21.09,21.09c-3.15,3.15-3.15,8.26,0,11.42l0,0c3.15,3.15,8.26,3.15,11.42,0l21.09-21.09
		c3.15-3.15,3.15-8.26,0-11.42l0,0C173.75,345.82,168.64,345.82,165.49,348.97z M176.91,144.1l-21.09-21.09
		c-3.15-3.15-8.26-3.15-11.42,0l0,0c-3.15,3.15-3.15,8.26,0,11.42l21.09,21.09c3.15,3.15,8.26,3.15,11.42,0l0,0
		C180.06,152.37,180.06,147.25,176.91,144.1z M370.36,360.39l21.09,21.09c3.15,3.15,8.26,3.15,11.42,0l0,0
		c3.15-3.15,3.15-8.26,0-11.42l-21.09-21.09c-3.15-3.15-8.26-3.15-11.42,0l0,0C367.21,352.12,367.21,357.24,370.36,360.39z
		 M128.77,244.17H98.95c-4.46,0-8.07,3.61-8.07,8.07l0,0c0,4.46,3.61,8.07,8.07,8.07h29.82c4.46,0,8.07-3.61,8.07-8.07l0,0
		C136.84,247.79,133.23,244.17,128.77,244.17z M418.5,260.32h29.82c4.46,0,8.07-3.61,8.07-8.07l0,0c0-4.46-3.61-8.07-8.07-8.07
		H418.5c-4.46,0-8.07,3.61-8.07,8.07l0,0C410.43,256.7,414.04,260.32,418.5,260.32z"/>
	<g>
		<path class="st2" d="M514.79,241.96c3.09,13.68,12.21,21.77,29.12,21.77c18.82,0,26.03-9.41,26.03-20.59
			c0-11.62-5.15-18.82-27.8-24.41c-21.77-5.44-31.18-12.5-31.18-27.35c0-13.53,9.85-26.18,31.91-26.18
			c22.65,0,32.21,13.82,33.53,26.32h-8.24c-2.35-11.03-9.56-18.97-25.74-18.97c-14.85,0-22.94,6.91-22.94,18.38
			c0,11.32,6.77,15.74,25.74,20.44c28.97,7.21,33.24,18.82,33.24,31.18c0,15.15-11.03,28.24-34.85,28.24
			c-25.74,0-35.15-15-37.06-28.83H514.79z"/>
		<path class="st2" d="M639.94,233.73c0.15,18.97,9.71,30.74,23.82,30.74c13.82,0,18.53-7.79,21.18-13.82h7.5
			c-3.09,9.71-10.88,20.74-28.97,20.74c-22.35,0-31.03-19.27-31.03-37.94c0-21.03,10.44-39.12,31.91-39.12
			c22.65,0,29.85,19.56,29.85,33.38c0,2.06,0,4.12-0.15,6.03L639.94,233.73L639.94,233.73z M686.56,227.26
			c-0.15-14.56-8.09-26.03-22.5-26.03c-15.15,0-22.06,10.59-23.68,26.03H686.56z"/>
		<path class="st2" d="M751.85,216.08c0-12.35-0.15-17.65-0.15-20h7.21c0.15,2.35,0.29,7.06,0.29,16.47
			c4.27-11.03,13.68-17.65,25.59-18.24v7.94c-15.29,1.03-25.59,11.62-25.59,29.12v38.24h-7.35V216.08z"/>
		<path class="st2" d="M842.15,196.08c11.91,33.68,20.15,56.62,22.94,66.03h0.15c1.62-5.44,9.85-27.35,24.12-66.03h7.79
			l-27.79,73.53h-8.82l-26.18-73.53L842.15,196.08L842.15,196.08z"/>
		<path class="st2" d="M951.7,161.22h7.35v14.27h-7.35V161.22z M951.7,196.08h7.35v73.53h-7.35V196.08z"/>
		<path class="st2" d="M1077,247.99c-3.53,12.94-12.06,23.38-28.53,23.38c-18.38,0-31.47-13.68-31.47-38.24
			c0-20.15,10.74-38.83,32.35-38.83c18.68,0,26.32,13.24,27.65,23.53h-7.5c-2.21-8.53-7.79-16.62-20.29-16.62
			c-15.59,0-24.41,13.24-24.41,31.62c0,17.5,8.24,31.62,23.68,31.62c10.74,0,17.21-5.44,21.03-16.47h7.49V247.99z"/>
		<path class="st2" d="M1135.67,161.22h7.35v14.27h-7.35V161.22z M1135.67,196.08h7.35v73.53h-7.35V196.08z"/>
		<path class="st2" d="M1266.41,232.7c0,20.44-11.32,38.68-33.24,38.68c-19.85,0-32.21-16.32-32.21-38.53
			c0-21.03,11.62-38.53,32.94-38.53C1253.47,194.31,1266.41,209.61,1266.41,232.7z M1208.76,232.84c0,17.5,9.41,31.62,25,31.62
			c15.88,0,24.85-13.09,24.85-31.62c0-17.35-8.82-31.62-25.15-31.62C1216.7,201.23,1208.76,215.2,1208.76,232.84z"/>
		<path class="st2" d="M1325.82,249.32c2.5,9.56,9.26,15.29,20.88,15.29c13.09,0,18.38-6.03,18.38-14.27c0-8.38-3.53-12.5-20-16.47
			c-18.97-4.56-23.68-10.29-23.68-20c0-10.15,7.65-19.56,24.27-19.56s24.56,10.15,25.74,20.59h-7.35
			c-1.32-6.18-6.18-13.82-18.68-13.82c-12.79,0-16.47,6.32-16.47,12.21c0,6.76,3.53,10.15,18.09,13.68
			c20.74,5,25.88,11.76,25.88,22.79c0,13.38-10.88,21.62-26.33,21.62c-16.76,0-26.18-8.82-28.24-22.06L1325.82,249.32
			L1325.82,249.32z"/>
	</g>
	<g>
		<path class="st10" d="M574.87,373.22h-49.63v29.51h54.66l-2.33,15.91h-71.01V316.27h70.56v15.91h-51.88v25.13h49.63L574.87,373.22
			L574.87,373.22z"/>
		<path class="st10" d="M658.93,310.38v87.15c0,7,0,14.02,0.15,21.11h-17.69c-0.4-2.19-0.75-6.76-0.86-8.91
			c-3.7,6.64-10.64,10.68-22.38,10.68c-19.35,0-31.51-15.59-31.51-39.14c0-23.42,13-40.5,34.37-40.5c11.79,0,17.71,4.39,19.52,8.09
			v-38.49L658.93,310.38L658.93,310.38z M605.59,380.78c0,16.02,6.77,24.7,17.63,24.7c15.6,0,18.02-12.43,18.02-25.3
			c0-14.32-2.41-24.44-17.31-24.44C612.08,355.73,605.59,365.03,605.59,380.78z"/>
		<path class="st10" d="M740.85,396.51c0,7.36,0.04,16.1,0.15,22.13h-18c-0.3-2.03-0.44-6.29-0.55-9.66
			c-4.25,7.9-11.18,11.44-21.65,11.44c-14.6,0-25.31-8.4-25.31-28.14v-49.72h18.36v45.97c0,8.94,2.78,16.64,13.08,16.64
			c11.08,0,15.53-6,15.53-22.4v-40.22h18.4v53.96H740.85z"/>
		<path class="st11" d="M858.4,387.95c-4.26,18.51-18.16,32.08-42.98,32.08c-31.83,0-47.21-23.06-47.21-52.12
			c0-27.98,15.71-53.12,48.08-53.12c26.19,0,39.36,15.24,42.04,32.35h-19.2c-2.66-9.01-8.8-17.06-23.49-17.06
			c-19.74,0-27.53,17.83-27.53,37.17c0,18.26,7.03,37.5,28.13,37.5c14.9,0,20.27-9.46,22.86-16.79h19.3V387.95z"/>
		<path class="st11" d="M869.95,363.21c0-8.59-0.04-15.06-0.15-20.65h18.04c0.25,1.85,0.5,8.87,0.5,14.09
			c3.57-9.23,12-15.69,24.82-15.86v17.75c-15.39-0.11-24.82,5.36-24.82,25.68v34.44h-18.4v-55.45H869.95z"/>
		<path class="st11" d="M935.67,384.39c0.04,11.52,5.83,21.39,17.13,21.39c9.87,0,12.84-4.42,14.99-9.35h18.44
			c-2.8,9.46-11.06,23.98-33.93,23.98c-24.68,0-35.17-18.98-35.17-38.81c0-23.45,11.96-40.82,35.96-40.82
			c25.6,0,34.2,19.17,34.2,37.23c0,2.49,0,4.25-0.25,6.38L935.67,384.39L935.67,384.39z M968.79,372.69
			c-0.15-10.09-4.61-18.42-15.8-18.42c-11.2,0-15.87,7.75-16.88,18.42H968.79z"/>
		<path class="st11" d="M1060.41,400.01c0,7.14,0.59,16.67,1.04,18.63h-17.59c-0.59-1.57-1.04-5.45-1.12-8.28
			c-2.72,4.54-8.2,10.06-22.1,10.06c-18.21,0-25.92-11.93-25.92-23.66c0-17.22,13.72-25.14,36.13-25.14c4.24,0,8.92,0,11.57,0v-5.27
			c0-5.84-2.01-12.13-13.28-12.13c-10.18,0-12.19,4.63-13.3,10.28h-17.57c1.1-12.5,8.83-23.84,31.54-23.73
			c19.78,0.1,30.6,7.93,30.6,25.77V400.01z M1042.47,383.18c-1.98,0-6.61,0-9.84,0c-13.52,0-19.38,3.98-19.38,12.46
			c0,6.32,4.07,11.33,12.25,11.33c15.04,0,16.97-10.33,16.97-21.64V383.18z"/>
		<path class="st11" d="M1068.25,342.56h12.21v-21.22h18.4v21.22h15.54v14.12h-15.54v39.91c0,6.32,1.78,9.08,8.26,9.08
			c1.39,0,3.67-0.04,5.41-0.37v12.95c-3.86,1.35-9.18,1.44-13.22,1.44c-13.83,0-18.85-7.33-18.85-20.42v-42.59h-12.21
			L1068.25,342.56L1068.25,342.56z"/>
		<path class="st11" d="M1123.96,310.38h18.4v17.99h-18.4V310.38z M1123.96,342.56h18.4v76.08h-18.4V342.56z"/>
		<path class="st11" d="M1171.02,342.56c8.25,27.57,14.78,50.35,16.55,59.61h0.15c2.04-11.18,9.71-34.07,17.95-59.61h18.43
			l-27.25,76.08h-19.57l-26.04-76.08H1171.02z"/>
		<path class="st11" d="M1300.4,380.45c0,22.65-13.37,39.97-37.19,39.97c-22.99,0-36.57-16.84-36.57-39.61
			c0-23.14,13.77-40.03,37.51-40.03C1286.13,340.78,1300.4,356.59,1300.4,380.45z M1245.39,380.6c0,15.33,6.98,25.18,18.32,25.18
			c11.52,0,17.96-9.65,17.96-25.08c0-16.32-6.5-25.29-18.25-25.29C1252.13,355.42,1245.39,364.08,1245.39,380.6z"/>
		<path class="st11" d="M1326.03,396.14c1.79,6.82,7.15,10.73,15.83,10.73c8.92,0,12.28-3.48,12.28-8.86
			c0-5.64-3.34-8.02-15.46-10.97c-23.76-5.83-27.98-13.16-27.98-23.76c0-11.04,7.9-22.49,29.71-22.49
			c21.92,0,29.8,12.18,30.57,22.59h-17.57c-0.81-3.52-3.31-9.35-13.82-9.35c-8.21,0-10.77,3.77-10.77,7.72
			c0,4.42,2.62,6.58,15.51,9.61c24.61,5.76,28.54,14.13,28.54,25.33c0,12.85-9.92,23.73-31.68,23.73
			c-21.96,0-31.54-10.75-33.3-24.28H1326.03z"/>
	</g>
	<path class="st2" d="M1367.04,299.96H512.39c-3.22,0-5.84-2.61-5.84-5.84l0,0c0-3.22,2.61-5.84,5.84-5.84h854.65
		c3.22,0,5.84,2.61,5.84,5.84l0,0C1372.88,297.35,1370.26,299.96,1367.04,299.96z"/>
	
		<radialGradient id="SVGID_00000010295019659359921710000008564542904881029026_" cx="273.63" cy="-1426.8221" r="165.9644" gradientTransform="matrix(1 0 0 -0.1364 0 312.5115)" gradientUnits="userSpaceOnUse">
		<stop  offset="0" style="stop-color:#D0D0D0"/>
		<stop  offset="0" style="stop-color:#D0D0D0"/>
		<stop  offset="0" style="stop-color:#D0D0D0"/>
		<stop  offset="0.3073" style="stop-color:#DADADA;stop-opacity:0.6927"/>
		<stop  offset="0.8275" style="stop-color:#F5F5F5;stop-opacity:0.1725"/>
		<stop  offset="1" style="stop-color:#FFFFFF;stop-opacity:0"/>
	</radialGradient>
	
		<ellipse style="fill:url(#SVGID_00000010295019659359921710000008564542904881029026_);" cx="273.63" cy="507.13" rx="182.76" ry="20.83"/>
</g>
</svg>
