<?xml version="1.0" encoding="utf-8"?>
<!-- Generator: Adobe Illustrator 28.4.1, SVG Export Plug-In . SVG Version: 6.00 Build 0)  -->
<svg version="1.1" id="Layer_1" xmlns="http://www.w3.org/2000/svg" xmlns:xlink="http://www.w3.org/1999/xlink" x="0px" y="0px"
	 viewBox="0 0 512 512" style="enable-background:new 0 0 512 512;" xml:space="preserve">
<g>
	<path d="M209.5,124.5c-8.1,7.3-13.9,15.8-17.6,25.5c-3.7,9.7-7.4,29.9-11.3,60.5c-3.9,30.7-10.1,54.8-18.7,72.5
		c-8.6,17.6-22.1,32.4-40.5,44.1c-18.5,11.8-38.7,17.7-60.8,17.7c-15.7,0-28.4-3.9-38.2-11.7c-9.8-7.8-14.7-17.7-14.7-29.8
		c0-4.6,1.4-8.3,4.3-11.2c2.8-2.9,8.6-6.8,17.4-11.8c8.8-4.9,14.7-7.4,17.8-7.4c2.1,0,3.9,0.7,5.4,2.1c1.5,1.4,2.2,3.1,2.2,5.1
		c0,1.2-0.6,5.8-1.8,13.7c-1.2,7.9-1.8,12.6-1.8,14.1c0,14.7,6.2,22,18.5,22c13.9,0,25.7-8.2,35.2-24.5
		c9.5-16.3,16.4-41.9,20.6-76.6c4.3-34.7,10.7-59.3,19.3-73.6c8.6-14.3,18.7-24.5,30.3-30.4c11.5-6,19.5-9,24-9
		C202.1,115.8,205.6,118.7,209.5,124.5z M174.7,76.4c26,0,46.8,6.3,62.2,19c15.4,12.7,23.1,29.5,23.1,50.6
		c0,19.5-5.7,35.1-17.1,46.9c-11.4,11.8-21.3,17.7-29.5,17.7c-3.1,0-6.6-1.4-10.5-4.1c-3.9-2.7-5.8-5.2-5.8-7.4
		c0-1.2,2.9-5.7,8.7-13.3c13.6-16.8,20.4-33.4,20.4-50c0-13.9-4.7-25-14.1-33.2c-9.4-8.2-22.1-12.3-38.1-12.3
		c-24.2,0-46.1,7.4-65.7,22.1c-19.6,14.7-29.4,30.9-29.4,48.4c0,11.6,5.3,19.6,15.9,23.9c4.2,1.9,6.3,4.4,6.3,7.6
		c0,3.3-4.6,7.2-13.9,11.7c-9.3,4.4-15.7,6.7-19.4,6.7c-5.6,0-10.8-3.7-15.7-11c-4.9-7.3-7.4-15.3-7.4-24c0-23.2,12.5-45.5,37.4-67
		C106.9,87.1,137.8,76.4,174.7,76.4z"/>
	<path d="M504.4,299.6c-8.4,9.8-24.4,20.7-48.2,33c-4.9,32.8-15.9,58.2-32.8,76.2c-16.9,18-35.9,26.9-57,26.9c-10.1,0-18-2.3-23.8-7
		c-5.7-4.7-8.6-11.2-8.6-19.4c0-23,22.3-45.2,66.9-66.8c4.7-16.6,9.2-31.6,13.6-45c-7.8,11.2-19.1,21.2-33.9,29.8
		c-14.8,8.6-28.6,13-41.3,13c-20.7,0-38-9-51.7-26.9c-13.8-18-20.6-40.7-20.6-68.2c0-29,7.8-56.5,23.3-82.5
		c15.5-26,36-46.8,61.3-62.4c25.3-15.6,49.8-23.4,73.5-23.4c21.2,0,38.5,6,51.7,18.1c13.3,12.1,19.9,27.8,19.9,47
		c0,20.7-7.5,39-22.4,54.8c-14.9,15.8-32.1,23.7-51.5,23.7c-11.4,0-20.8-2.8-28.2-8.3c-7.5-5.6-11.2-12.4-11.2-20.5
		c0-4.9,1.4-9.3,4.3-13.1c2.9-3.8,6.3-5.7,10.1-5.7c3.7,0,5.6,2.2,5.6,6.5c0,3.8,1.4,6.8,4.3,8.9c2.8,2.1,6.1,3.1,9.8,3.1
		c9.9,0,19.3-6.8,28.4-20.3c9.1-13.5,13.6-28,13.6-43.4c0-10.9-3.5-19.7-10.6-26.6c-7-6.8-16.1-10.3-27.2-10.3
		c-16.7,0-32.8,7.4-48.4,22.2c-15.6,14.8-28.3,34.3-38.1,58.4c-9.8,24.1-14.7,47-14.7,68.8c0,20,4.3,35.9,12.9,47.7
		c8.6,11.8,20.1,17.7,34.4,17.7c24.2,0,47.3-17.1,69.4-51.3l34.8-5c4.3-0.6,6.5,0.4,6.5,3.1c0,1.2-1.7,6.5-5,15.9
		c-3.3,9.4-7.9,25-13.7,47c19.2-11.1,34-23.4,44.5-36.8V299.6z M396.7,361c-32.1,16-48.1,31.8-48.1,47.4c0,8.3,3.9,12.4,11.8,12.4
		C375.9,420.8,388,400.9,396.7,361z"/>
</g>
</svg>
