<?xml version="1.0" encoding="utf-8"?>
<!-- Generator: Adobe Illustrator 28.4.1, SVG Export Plug-In . SVG Version: 6.00 Build 0)  -->
<svg version="1.1" id="Layer_1" xmlns="http://www.w3.org/2000/svg" xmlns:xlink="http://www.w3.org/1999/xlink" x="0px" y="0px"
	 viewBox="0 0 512 219.2" style="enable-background:new 0 0 512 219.2;" xml:space="preserve">
<style type="text/css">
	.st0{fill:#FFFFFF;}
</style>
<g>
	<path d="M332.1,35c2-1.7,3.9-3.3,5.8-4.9c1.8-1.5,2.5-1.5,4.3-0.1c3,2.3,5.9,4.6,8.9,7c0.9,0.7,1.4,0.7,2.3,0
		c2.8-2.4,5.7-4.7,8.6-7.1c1.7-1.4,2.5-1.3,4.1,0.2c1.8,1.7,3.6,3.4,5.6,5.3c0.4-1,0.7-1.9,1.1-2.8c0.7-1.7,1.4-2.2,3.2-1.6
		c12.3,3.7,24.6,7.4,36.9,11.1c1.3,0.4,1.8,1.2,1.9,2.4c0.8,10.3,1.5,20.6,2.3,30.9c0.6,8,1.3,16.1,1.9,24.1
		c0.8,9.9,1.5,19.8,2.3,29.7c1,13.1,2,26.1,3,39.2c0.1,1,0.1,1.9,0.2,2.9c0,1.7-0.6,2.4-2.3,2.4c-7.6,0-15.2,0-22.8,0
		c-1.7,0-2.2-0.6-2.4-2.5c-0.7-7.8-1.3-15.7-2-23.5c-1.2-14.8-2.5-29.5-3.7-44.3c-0.2-2.2-0.4-4.4-0.9-6.9c-1.4,1.7-3,3.3-4.2,5.2
		c-2.2,3.2-3,6.8-2.5,10.6c1.3,10.6,2.7,21.2,4,31.7c1.1,8.8,2.2,17.7,3.3,26.5c0.6,4.9,1.3,9.9,1.9,14.8c0.3,2.7-0.3,3.4-2.9,3.4
		c-10.5,0-21,0-31.5,0c-2.3,0-2.8-0.4-3.1-2.7c-0.7-4.9-1.5-9.8-2.2-14.6c0-0.3-0.2-0.6-0.6-0.9c-0.2,0.7-0.4,1.4-0.5,2.1
		c-1.2,4.6-2.4,9.2-3.6,13.9c-0.4,1.6-1.2,2.3-2.9,2.3c-10.6,0-21.2,0-31.9,0c-2.5,0-3.2-0.7-2.9-3.1c1.2-9.6,2.4-19.3,3.6-28.9
		c1.3-10.6,2.7-21.3,4.1-31.9c0.5-3.8,0.9-7.6,1.5-11.4c0.8-5.4-0.5-10.1-4.2-14.1c-0.8-0.9-1.6-1.8-2.7-3.1
		c-0.3,2.9-0.5,5.3-0.7,7.7c-1.5,18.3-3.1,36.6-4.6,54.9c-0.3,4.2-0.7,8.4-1,12.5c-0.1,1.7-0.8,2.3-2.4,2.3c-7.5,0-15,0-22.5,0
		c-2,0-2.7-0.8-2.5-2.9c1.1-13.9,2.2-27.7,3.2-41.6c1.3-17.5,2.7-35,4-52.5c0.8-10.5,1.7-21.1,2.4-31.6c0.1-1.8,0.9-2.7,2.6-3.2
		c11.8-3.5,23.6-7.1,35.3-10.7c2.9-0.9,3.2-0.7,4.4,2.1C331.5,34,331.8,34.4,332.1,35z M375.7,34.6c-0.2,0.7-0.4,1.1-0.6,1.5
		c-9,25.2-18,50.4-26.9,75.5c-0.4,1-0.4,2.2-0.3,3.2c0.8,5.8,1.7,11.5,2.6,17.3c2.6,17.2,5.2,34.4,7.8,51.6c0.2,1.3,0.7,1.8,2.1,1.8
		c9-0.1,18,0,27.1,0c0.6,0,1.2-0.1,1.9-0.1c0-0.6,0-1-0.1-1.4c-1.6-12.8-3.3-25.7-4.9-38.5c-1.4-10.7-2.8-21.4-4.1-32
		c-0.7-5.9,0.7-11.2,4.6-15.7c1.6-1.8,3.2-3.7,4.8-5.6c0.7-0.9,1.5-1.5,2.7-1.1c1.2,0.4,1.3,1.4,1.4,2.4c0.6,6.5,1.1,13,1.7,19.5
		c1.5,18.6,3.1,37.2,4.6,55.8c0.1,1.4,0.6,1.6,1.8,1.6c5.8-0.1,11.6,0,17.4,0c0.5,0,1-0.1,1.5-0.1c0-0.7,0-1.1,0-1.6
		c-0.8-9.9-1.5-19.9-2.3-29.8c-0.7-9.6-1.5-19.3-2.2-28.9c-1-12.6-2-25.3-2.9-37.9c-0.7-8.5-1.3-16.9-1.9-25.4
		c-0.1-1.1-0.6-1.6-1.6-1.9c-7-2.1-13.9-4.2-20.9-6.3C384.6,37.3,380.2,36,375.7,34.6z M282.8,170.4c0.5,0.1,0.8,0.2,1.1,0.2
		c6.1,0,12.2,0,18.3,0c1.3,0,1.3-0.7,1.4-1.6c0.8-9.8,1.6-19.6,2.5-29.3c1.3-15.4,2.6-30.9,3.9-46.3c0.1-0.7,0.7-1.9,1.3-2
		c0.7-0.2,1.9,0.2,2.4,0.8c1.5,1.4,2.6,3,4,4.5c5,5.3,6.5,11.5,5.4,18.7c-1.6,10.6-2.8,21.2-4.1,31.9c-1.3,10-2.6,20-3.8,30
		c-0.4,2.8-0.7,5.5-1,8.4c0.5,0.1,0.8,0.1,1,0.1c9.6,0,19.2,0,28.8,0c1.1,0,1.3-0.6,1.5-1.4c1.9-7.3,3.8-14.6,5.7-21.9
		c0.2-0.6,0.2-1.3,0.2-1.9c-2.2-14.9-4.5-29.8-6.8-44.7c-0.2-1.6-0.4-3.2,0.2-4.8c2.1-5.6,4-11.2,6-16.8c0.6-1.5,0.6-2.9-0.1-4.4
		c-6.6-15.8-13-31.7-19.6-47.5c-1-2.5-2.1-5.1-3.1-7.5c-0.4,0.1-0.5,0-0.7,0.1c-11.4,3.4-22.9,6.9-34.3,10.4
		c-0.4,0.1-0.8,0.8-0.9,1.3c-0.4,4.4-0.7,8.8-1.1,13.2c-1.1,14.1-2.1,28.2-3.2,42.4c-1.6,20.8-3.2,41.7-4.8,62.5
		C283.1,166.5,282.9,168.4,282.8,170.4z M363.9,32.9c-3.3,2.7-6.4,5.2-9.5,7.8c-1.8,1.5-2.4,1.5-4.1,0.1c-3-2.4-6-4.7-9-7.1
		c-0.8-0.7-1.4-0.7-2.2,0c-1.4,1.3-2.9,2.5-4.4,3.7c-1,0.8-1.2,1.4-0.7,2.6c6.2,15.1,12.4,30.2,18.6,45.3c0.2,0.5,0.4,0.9,0.8,1.7
		c0.3-0.8,0.6-1.4,0.8-1.9c2.9-8.2,5.8-16.4,8.7-24.6c2.4-6.7,4.8-13.4,7.1-20.1c0.2-0.5,0.2-1.4-0.1-1.7
		C368,36.7,366,34.9,363.9,32.9z"/>
	<path d="M112.6,188.7c-4.1,0-7.8,0.2-11.5-0.1c-4.4-0.3-8.6-1.5-12.1-4.4c-1.9-1.6-1.7-3.2,0.5-4.3c17.3-7.8,31.6-19.4,43.3-34.2
		c4.6-5.8,8.6-12,12.8-18c2.9-4.1,3.8-8.8,4.9-13.5c2.4-10.3,3-20.7-0.3-31c-1.5-4.8-3.6-9.5-5.5-14.2c-1.5-3.8-3-7.6-2.9-11.8
		c0-5.7,2.4-10.5,6.1-14.5c2.4-2.7,3.4-5.4,3.2-9c-0.3-5.2-0.1-10.5-0.1-15.8c0-0.6-0.2-1.3,0.1-1.7c0.3-0.5,0.9-1.1,1.4-1.2
		c0.5,0,1.3,0.5,1.5,1c0.3,0.6,0.2,1.3,0.2,2c0,6.5,0,13.1,0,19.6c0,1.1,0.3,1.7,1.2,2.3c6.9,4.6,13.9,9.2,20.8,13.9
		c0.8,0.5,1.3,0.6,2.1,0c7.1-4.8,14.2-9.5,21.3-14.3c0.5-0.3,0.8-1.2,0.8-1.8c0.1-6.6,0-13.3,0-19.9c0-1.2-0.3-2.7,1.6-2.9
		c1.3-0.1,1.8,0.8,1.8,2.9c0,6.5,0,13.1,0,19.6c0,0.8,0.4,1.9,0.9,2.5c2.8,3.4,5.5,6.8,7,10.9c2.2,6,0.8,11.7-1.5,17.3
		c-2.2,5.5-4.4,11-6.2,16.7c-2.8,8.8-2.3,17.7-0.5,26.6c3,14.8,9.1,28.4,16.3,41.6c7.1,13.1,15.2,25.5,23.7,37.7
		c0.2,0.2,0.4,0.4,0.4,0.7c0.1,0.8,0.4,1.8,0.1,2.5c-0.4,1-1.5,1-2.5,0.7c-4.3-1.3-8.6-2.7-13-3.8c-15.1-3.8-29.8-2.1-43.9,4.3
		c-7.5,3.4-15.2,6.5-23.5,7.8c-6.5,1.1-13,1.1-19.5,0.3c-10.4-1.2-20.3-4.3-30.1-7.9c-2-0.8-2.4-2-1.2-3.9
		C111.1,190.9,111.7,190,112.6,188.7z M152.3,42.1c-1.9,2.8-3.8,5.3-5.4,8.1c-2.1,3.7-2.5,7.8-1.1,11.9c1.1,3.4,2.4,6.7,3.9,9.9
		c5.7,12.4,7.5,25.3,5,38.8c-2.2,11.9-6.5,23.1-11.7,33.9c-7.2,15-16,29.1-25.3,42.8c-1.2,1.7-2.4,3.5-3.7,5.3
		c0.8,0.3,1.5,0.6,2.1,0.8c5,1.5,10,3.2,15.1,4.5c10.6,2.7,21.2,3.6,32,1.3c7.1-1.5,13.7-4.4,20.4-7.2c6.9-2.9,14-5.3,21.5-6.2
		c10.8-1.2,21.4,0.5,31.7,3.6c0.6,0.2,1.3,0.4,2.2,0.6c-0.4-0.7-0.6-1-0.8-1.3c-9.2-13.2-17.7-26.8-24.9-41.2
		c-5.5-11-10.2-22.4-12.7-34.5c-2.4-11.5-2.4-23,1.7-34.2c1.6-4.3,3.5-8.5,5.3-12.8c1.7-4.2,2.9-8.4,1.5-13
		c-1.1-3.8-3.5-6.9-5.9-9.9c-0.8-1-1.4-0.9-2.3-0.3c-7.2,4.8-14.4,9.6-21.6,14.4c-1.3,0.9-2.4,1-3.8,0c-3.2-2.2-6.5-4.4-9.8-6.6
		C161.3,48.2,157,45.3,152.3,42.1z M92.4,182.5c0.6,0.4,0.9,0.6,1.2,0.8c0.9,0.4,1.7,0.8,2.7,1.1c6,1.8,12.1,1.5,18.1,0.8
		c0.5-0.1,1.1-0.6,1.5-1c8.4-12.3,16.1-24.9,22.8-38.2c0.6-1.1,1.1-2.3,1.6-3.5C127.3,159.3,112,173.3,92.4,182.5z"/>
	<path class="st0" d="M363.9,32.9c2.1,2,4.1,3.9,6,5.9c0.3,0.3,0.3,1.2,0.1,1.7c-2.3,6.7-4.7,13.4-7.1,20.1
		c-2.9,8.2-5.8,16.4-8.7,24.6c-0.2,0.5-0.4,1.1-0.8,1.9c-0.4-0.8-0.6-1.2-0.8-1.7C346.4,70.2,340.2,55,334,40
		c-0.5-1.2-0.3-1.9,0.7-2.6c1.5-1.1,3-2.4,4.4-3.7c0.8-0.7,1.3-0.7,2.2,0c3,2.4,6,4.7,9,7.1c1.8,1.4,2.4,1.4,4.1-0.1
		C357.4,38.1,360.6,35.6,363.9,32.9z M364.1,46.8c0-0.8,0-1.7,0-2.5c0-1.7-0.4-2-2-1.6c-1.6,0.4-3.3,0.9-4.9,1.4
		c-1.4,0.4-2.8,1.2-4.3,0.2c-0.3-0.2-1-0.2-1.2,0c-1.4,1-2.7,0.2-4-0.1c-1.8-0.5-3.6-1-5.4-1.5c-1.2-0.3-1.9,0-1.9,1.3
		c0,1.9,0,3.7,0,5.6c0,1.3,0.5,1.7,1.8,1.4c2.2-0.5,4.4-1,6.7-1.5c0.8-0.2,1.5-0.5,2.3,0.3c0.4,0.4,1.6,0.1,2.4,0
		c0.7-0.1,1.4-0.4,2-0.3c2.3,0.4,4.6,1,6.8,1.5c1.2,0.3,1.8-0.1,1.8-1.4C364,48.6,364.1,47.7,364.1,46.8z"/>
	<path d="M358.4,120.9c0,1.7-1.1,2.8-2.7,2.9c-1.7,0.1-3-1.2-3-2.8c0-1.6,1.2-2.8,2.8-2.9C357.2,118,358.4,119.2,358.4,120.9z"/>
	<path d="M358.4,107.6c0,1.7-1.2,2.9-2.9,2.9c-1.6,0-2.8-1.2-2.9-2.8c0-1.6,1.3-3,2.9-2.9C357.2,104.7,358.4,105.9,358.4,107.6z"/>
	<path d="M364.1,46.8c0,0.9,0,1.8,0,2.7c0.1,1.3-0.5,1.7-1.8,1.4c-2.3-0.5-4.5-1.1-6.8-1.5c-0.6-0.1-1.3,0.3-2,0.3
		c-0.8,0.1-2,0.4-2.4,0c-0.8-0.8-1.5-0.5-2.3-0.3c-2.2,0.5-4.5,1-6.7,1.5c-1.3,0.3-1.8-0.2-1.8-1.4c0-1.9,0-3.7,0-5.6
		c0-1.3,0.7-1.7,1.9-1.3c1.8,0.5,3.6,1.1,5.4,1.5c1.3,0.3,2.6,1.2,4,0.1c0.3-0.2,0.9-0.2,1.2,0c1.5,1,2.9,0.2,4.3-0.2
		c1.6-0.4,3.3-0.9,4.9-1.4c1.6-0.4,2-0.2,2,1.6C364.1,45.1,364.1,45.9,364.1,46.8z"/>
</g>
</svg>
