<?xml version="1.0" encoding="utf-8"?>
<!-- Generator: Adobe Illustrator 28.4.1, SVG Export Plug-In . SVG Version: 6.00 Build 0)  -->
<svg version="1.1" id="Layer_1" xmlns="http://www.w3.org/2000/svg" xmlns:xlink="http://www.w3.org/1999/xlink" x="0px" y="0px"
	 viewBox="0 0 512 219.2" style="enable-background:new 0 0 512 219.2;" xml:space="preserve">
<g>
	<g>
		<g>
			<path d="M301,196.1c-37.4,0-67.9-30.5-67.9-67.9c0-14,4.2-27.5,12.3-38.9c0.5-0.7,1.4-0.8,2.1-0.4c0.7,0.5,0.8,1.4,0.4,2.1
				c-7.7,10.9-11.7,23.8-11.7,37.2c0,35.8,29.1,64.9,64.9,64.9c35.8,0,64.9-29.1,64.9-64.9c0-35.8-29.1-64.9-64.9-64.9
				c-13.6,0-26.6,4.1-37.6,12c-0.7,0.5-1.6,0.3-2.1-0.3c-0.5-0.7-0.3-1.6,0.3-2.1c11.5-8.2,25.1-12.5,39.3-12.5
				c37.4,0,67.9,30.5,67.9,67.9C368.8,165.7,338.4,196.1,301,196.1z"/>
		</g>
		<g>
			<path d="M315.4,51.9l16.7-19.1c0.7-0.8,0.8-1.9,0.2-2.8l-9.8-15c-0.4-0.7-1.2-1-1.9-1h-39.2c-0.8,0-1.5,0.4-1.9,1l-9.8,14.9
				l-0.2,0.4c-0.4,0.8-0.2,1.8,0.4,2.5l16.7,19.1c-11.5,2.2-22.3,6.8-31.8,13.9c-1,0.7-1.2,2.1-0.5,3.1c0.7,1,2.1,1.2,3.1,0.5
				C270,60,285.1,55,301,55c40.4,0,73.3,32.9,73.3,73.3c0,40.4-32.9,73.3-73.3,73.3c-40.4,0-73.3-32.9-73.3-73.3
				c0-15.3,4.7-30,13.5-42.4c0.7-1,0.5-2.4-0.5-3.1s-2.4-0.5-3.1,0.5c-9.4,13.2-14.4,28.8-14.4,45c0,42.9,34.9,77.7,77.7,77.7
				c42.9,0,77.7-34.9,77.7-77.7C378.7,90.3,351.4,58.7,315.4,51.9z M310,51c-0.8-0.1-1.7-0.2-2.5-0.2l5-17.2h12.8L310,51z M326.1,29
				H315l5.5-8.4L326.1,29z M316.3,18.6l-5.5,8.4l-5.5-8.4H316.3z M306.5,29h-11.1l5.5-8.4L306.5,29z M296.7,18.6l-5.5,8.4l-5.5-8.4
				H296.7z M281.4,20.5l5.5,8.4h-11.1L281.4,20.5z M276.6,33.6h12.8l5,17.2c-0.8,0.1-1.7,0.2-2.5,0.3L276.6,33.6z M299.2,50.6l-5-17
				h13.4l-5,17c-0.6,0-1.2,0-1.8,0C300.4,50.5,299.8,50.6,299.2,50.6z"/>
			<path d="M301,183.9c30.7,0,55.7-25,55.7-55.7c0-30.7-25-55.7-55.7-55.7c-10.9,0-21.4,3.1-30.5,9.1c-1,0.7-1.3,2.1-0.6,3.1
				c0.7,1,2.1,1.3,3.1,0.6c8.3-5.5,18-8.4,28.1-8.4c28.2,0,51.2,23,51.2,51.2c0,28.2-23,51.2-51.2,51.2s-51.2-23-51.2-51.2
				c0-9.2,2.5-18.3,7.2-26.2c0.6-1.1,0.3-2.4-0.8-3.1c-1.1-0.6-2.4-0.3-3.1,0.8c-5.1,8.6-7.8,18.4-7.8,28.5
				C245.3,159,270.2,183.9,301,183.9z"/>
		</g>
	</g>
	<g>
		<g>
			<path d="M209.1,196.1c-37.4,0-67.9-30.5-67.9-67.9c0-37.4,30.5-67.9,67.9-67.9s67.9,30.5,67.9,67.9c0,13.8-4.1,27-11.9,38.4
				c-0.5,0.7-1.4,0.9-2.1,0.4c-0.7-0.5-0.9-1.4-0.4-2.1c7.4-10.8,11.3-23.5,11.3-36.7c0-35.8-29.1-64.9-64.9-64.9
				c-35.8,0-64.9,29.1-64.9,64.9c0,35.8,29.1,64.9,64.9,64.9c14,0,27.3-4.4,38.5-12.7c0.7-0.5,1.6-0.3,2.1,0.3
				c0.5,0.7,0.3,1.6-0.3,2.1C237.6,191.6,223.7,196.1,209.1,196.1z"/>
		</g>
		<g>
			<path d="M223.5,51.9l16.7-19.1c0.7-0.8,0.8-1.9,0.2-2.8l-9.8-15c-0.4-0.7-1.2-1-1.9-1h-39.2c-0.8,0-1.5,0.4-1.9,1l-9.8,14.9
				l-0.2,0.4c-0.4,0.8-0.2,1.8,0.4,2.5l16.7,19.1c-36,6.8-63.3,38.5-63.3,76.4c0,42.9,34.9,77.7,77.7,77.7c17.3,0,33.6-5.5,47.3-16
				c1-0.8,1.2-2.2,0.4-3.1c-0.7-1-2.1-1.2-3.1-0.4c-12.9,9.9-28.3,15.1-44.6,15.1c-40.4,0-73.3-32.9-73.3-73.3
				c0-40.4,32.9-73.3,73.3-73.3s73.3,32.9,73.3,73.3c0,15-4.5,29.5-13.1,41.8c-0.7,1-0.5,2.4,0.6,3.1c1,0.7,2.4,0.5,3.1-0.6
				c9.1-13.1,13.9-28.4,13.9-44.3C286.8,90.3,259.5,58.7,223.5,51.9z M218.1,51c-0.8-0.1-1.7-0.2-2.5-0.3l5-17.2h12.8L218.1,51z
				 M234.2,29h-11l5.5-8.4L234.2,29z M224.4,18.6l-5.5,8.4l-5.5-8.4H224.4z M214.6,29h-11l5.5-8.4L214.6,29z M204.8,18.6l-5.5,8.4
				l-5.5-8.4H204.8z M189.5,20.5L195,29h-11.1L189.5,20.5z M184.7,33.6h12.8l5,17.2c-0.9,0.1-1.7,0.2-2.6,0.3L184.7,33.6z
				 M207.3,50.5l-5-17h13.4l-5,17c-0.6,0-1.2,0-1.8,0C208.5,50.5,207.9,50.5,207.3,50.5z"/>
			<path d="M209.1,72.6c-30.7,0-55.7,25-55.7,55.7c0,30.7,25,55.7,55.7,55.7c11,0,21.6-3.2,30.7-9.2c1-0.7,1.3-2.1,0.6-3.1
				c-0.7-1-2.1-1.3-3.1-0.6c-8.4,5.5-18.1,8.5-28.2,8.5c-28.2,0-51.2-23-51.2-51.2c0-28.2,23-51.2,51.2-51.2s51.2,23,51.2,51.2
				c0,8.9-2.3,17.6-6.6,25.2c-0.6,1.1-0.2,2.4,0.8,3c1.1,0.6,2.4,0.2,3-0.8c4.7-8.3,7.2-17.8,7.2-27.4
				C264.7,97.5,239.8,72.6,209.1,72.6z"/>
		</g>
	</g>
</g>
</svg>
