<?xml version="1.0" encoding="utf-8"?>
<!-- Generator: Adobe Illustrator 28.4.1, SVG Export Plug-In . SVG Version: 6.00 Build 0)  -->
<svg version="1.1" id="Layer_1" xmlns="http://www.w3.org/2000/svg" xmlns:xlink="http://www.w3.org/1999/xlink" x="0px" y="0px"
	 viewBox="0 0 512 219.2" style="enable-background:new 0 0 512 219.2;" xml:space="preserve">
<style type="text/css">
	.st0{fill:none;stroke:#000000;stroke-width:1.069;stroke-linecap:round;stroke-miterlimit:10;}
</style>
<g>
	<g>
		<path class="st0" d="M52.6,130.1c6.4-13.2,21.8-20.3,36.5-20.6c14.7-0.2,28.9,5.3,42.1,11.7c25.5,12.3,49.1,28.3,75.2,39.1
			s56.1,16.1,82.6,6.2"/>
		<path class="st0" d="M43.7,138c-5.8,1.6-11.3,4.6-15.8,8.6c-2.1,1.9-4.1,4.4-3.6,7.1c0.6,2.9,3.9,4.6,6.9,4.2c2.9-0.3,5.5-2,8-3.7
			c0,2.8,0.1,5.7,1.5,8.1c1.4,2.4,4.4,4.2,7,3c2.4-1.1,3.2-4,3.6-6.6c0.9-7.2,0-14.6-2.8-21.4c-2.3-0.9-5.2-0.3-6.9,1.5"/>
		<path class="st0" d="M124.2,153.5c-5.9-1.5-12.1-1.6-18-0.3c-2.7,0.6-5.7,1.8-6.6,4.4c-0.9,2.8,1.2,5.9,3.9,7.1
			c2.7,1.2,5.8,1,8.8,0.7c-1.3,2.4-2.7,5-2.7,7.8c0,2.8,1.8,5.8,4.6,6.1c2.6,0.2,4.8-1.9,6.4-3.9c4.4-5.8,7.2-12.7,8.1-19.9
			c-1.6-1.9-4.4-2.8-6.7-2.1"/>
		<path class="st0" d="M106.8,65.4c3.2-5.1,5.3-11,5.9-17c0.3-2.8,0.1-6-2.1-7.7c-2.4-1.8-6-0.7-8,1.5c-2,2.2-2.7,5.2-3.4,8.1
			c-1.9-2-3.9-4.2-6.6-5.1c-2.6-0.9-6.1-0.1-7.2,2.5c-1.1,2.4,0.3,5.1,1.8,7.3c4.1,6,9.8,10.8,16.4,14c2.3-0.9,4-3.3,4.1-5.8"/>
		<path class="st0" d="M256.2,121.5c4.7-3.8,8.5-8.7,11-14.2c1.2-2.5,2-5.7,0.4-7.9c-1.7-2.4-5.4-2.6-8-1.1
			c-2.6,1.5-4.2,4.1-5.8,6.6c-1.2-2.5-2.4-5.2-4.6-6.9c-2.2-1.7-5.7-2-7.6,0.1c-1.8,1.9-1.4,4.9-0.6,7.5c2,7,5.9,13.4,11.1,18.4
			c2.5-0.1,4.8-1.8,5.7-4.2"/>
		<path class="st0" d="M201.3,158.1c-17.3-6.2-46.4-10.9-64.4-7.2"/>
		<path class="st0" d="M150.6,131c-22.2-8.5-39.5-28.6-44.7-51.7"/>
		<path class="st0" d="M235.8,169.8c-11.6-3.2-22.6-10.8-27-22c-4.4-11.2-0.4-25.9,10.5-31.2"/>
		<path class="st0" d="M239.7,146c-0.2,0-0.4,0-0.6,0C239.3,146,239.5,146,239.7,146"/>
		<path class="st0" d="M247.5,162.5c-0.3-0.3-0.6-0.6-1-1"/>
		<path class="st0" d="M230,155.8c0.6,0,1.3,0,1.9,0"/>
		<path class="st0" d="M248.5,152.8c0-0.3,0-0.6,0-1"/>
		<path class="st0" d="M71.9,93.7c0.3,0,0.6,0,1,0"/>
		<path class="st0" d="M61.2,102.4c-1,0.3-1.9,0.6-2.9,1"/>
		<path class="st0" d="M54.4,84.9c0.3-0.3,0.6-0.6,1-1"/>
		<path class="st0" d="M60.2,92.7c0.3-0.3,0.6-0.6,1-1"/>
		<path class="st0" d="M71.9,79.1c0,0.3,0,0.6,0,1"/>
		<path class="st0" d="M79.6,90.7c0.3,0,0.6,0,1,0"/>
	</g>
	<g>
		<path class="st0" d="M459.4,130.1c-6.4-13.2-21.8-20.3-36.5-20.6c-14.7-0.2-28.9,5.3-42.1,11.7c-25.5,12.3-49.1,28.3-75.2,39.1
			s-56.1,16.1-82.6,6.2"/>
		<path class="st0" d="M468.3,138c5.8,1.6,11.3,4.6,15.8,8.6c2.1,1.9,4.1,4.4,3.6,7.1c-0.6,2.9-3.9,4.6-6.9,4.2
			c-2.9-0.3-5.5-2-8-3.7c0,2.8-0.1,5.7-1.5,8.1c-1.4,2.4-4.4,4.2-7,3c-2.4-1.1-3.2-4-3.6-6.6c-0.9-7.2,0-14.6,2.8-21.4
			c2.3-0.9,5.2-0.3,6.9,1.5"/>
		<path class="st0" d="M387.8,153.5c5.9-1.5,12.1-1.6,18-0.3c2.7,0.6,5.7,1.8,6.6,4.4c0.9,2.8-1.2,5.9-3.9,7.1
			c-2.7,1.2-5.8,1-8.8,0.7c1.3,2.4,2.7,5,2.7,7.8c0,2.8-1.8,5.8-4.6,6.1c-2.6,0.2-4.8-1.9-6.4-3.9c-4.4-5.8-7.2-12.7-8.1-19.9
			c1.6-1.9,4.4-2.8,6.7-2.1"/>
		<path class="st0" d="M405.2,65.4c-3.2-5.1-5.3-11-5.9-17c-0.3-2.8-0.1-6,2.1-7.7c2.4-1.8,6-0.7,8,1.5c2,2.2,2.7,5.2,3.4,8.1
			c1.9-2,3.9-4.2,6.6-5.1c2.6-0.9,6.1-0.1,7.2,2.5c1.1,2.4-0.3,5.1-1.8,7.3c-4.1,6-9.8,10.8-16.4,14c-2.3-0.9-4-3.3-4.1-5.8"/>
		<path class="st0" d="M310.7,158.1c17.3-6.2,46.4-10.9,64.4-7.2"/>
		<path class="st0" d="M361.4,131c22.2-8.5,39.5-28.6,44.7-51.7"/>
		<path class="st0" d="M276.2,169.8c11.6-3.2,22.6-10.8,27-22c4.4-11.2,0.4-25.9-10.5-31.2"/>
		<path class="st0" d="M272.3,146c0.2,0,0.4,0,0.6,0C272.7,146,272.5,146,272.3,146"/>
		<path class="st0" d="M264.5,162.5c0.3-0.3,0.6-0.6,1-1"/>
		<path class="st0" d="M282,155.8c-0.6,0-1.3,0-1.9,0"/>
		<path class="st0" d="M263.5,152.8c0-0.3,0-0.6,0-1"/>
		<path class="st0" d="M440.1,93.7c-0.3,0-0.6,0-1,0"/>
		<path class="st0" d="M450.8,102.4c1,0.3,1.9,0.6,2.9,1"/>
		<path class="st0" d="M457.6,84.9c-0.3-0.3-0.6-0.6-1-1"/>
		<path class="st0" d="M451.8,92.7c-0.3-0.3-0.6-0.6-1-1"/>
		<path class="st0" d="M440.1,79.1c0,0.3,0,0.6,0,1"/>
		<path class="st0" d="M432.4,90.7c-0.3,0-0.6,0-1,0"/>
	</g>
</g>
</svg>
