<?xml version="1.0" encoding="utf-8"?>
<!-- Generator: Adobe Illustrator 28.4.1, SVG Export Plug-In . SVG Version: 6.00 Build 0)  -->
<svg version="1.1" id="Layer_1" xmlns="http://www.w3.org/2000/svg" xmlns:xlink="http://www.w3.org/1999/xlink" x="0px" y="0px"
	 viewBox="0 0 512 219.2" style="enable-background:new 0 0 512 219.2;" xml:space="preserve">
<style type="text/css">
	.st0{fill:#C1C1C1;}
</style>
<g>
	<g>
		<g>
			<path class="st0" d="M403.7,144.3c-0.7,0-1.3-0.1-1.9-0.4l-67.1-31.1c-1.7-0.8-2.1-2.3-1.1-3.5c1.1-1.2,3.3-1.5,4.9-0.8
				l67.1,31.1c1.7,0.8,2.1,2.3,1.1,3.5C406,143.9,404.9,144.3,403.7,144.3z"/>
		</g>
		<g>
			<path class="st0" d="M108.3,144.3c-1.2,0-2.3-0.4-3-1.2c-1.1-1.2-0.6-2.8,1.1-3.5l67.1-31.1c1.7-0.8,3.9-0.4,4.9,0.8
				c1.1,1.2,0.6,2.8-1.1,3.5l-67.1,31.1C109.6,144.2,108.9,144.3,108.3,144.3z"/>
		</g>
		<g>
			<path class="st0" d="M349.9,94.8c-0.7,0-1.3-0.1-1.9-0.4l-92.4-42.8l-92.1,41.3c-1.7,0.7-3.9,0.4-4.9-0.8c-1-1.2-0.5-2.8,1.1-3.5
				l94-42.2c1.2-0.5,2.7-0.5,3.8,0l94.3,43.7c1.7,0.8,2.1,2.3,1.1,3.5C352.2,94.4,351.1,94.8,349.9,94.8z"/>
		</g>
		<g>
			<path class="st0" d="M255.7,115.5c-1,0-1.8-0.6-1.8-1.3V80c0-0.7,0.8-1.3,1.8-1.3c1,0,1.8,0.6,1.8,1.3v34.2
				C257.4,114.9,256.6,115.5,255.7,115.5z"/>
		</g>
		<g>
			<path class="st0" d="M278.6,98.4h-45.9c-1,0-1.8-0.6-1.8-1.3c0-0.7,0.8-1.3,1.8-1.3h45.9c1,0,1.8,0.6,1.8,1.3
				S279.6,98.4,278.6,98.4z"/>
		</g>
		<g>
			<path class="st0" d="M148.1,187.7c-1,0-1.8-0.6-1.8-1.3v-37.1c0-0.7,0.8-1.3,1.8-1.3s1.8,0.6,1.8,1.3v37.1
				C149.9,187.2,149.1,187.7,148.1,187.7z"/>
		</g>
		<g>
			<path class="st0" d="M163.7,176h-31c-1,0-1.8-0.6-1.8-1.3s0.8-1.3,1.8-1.3h31c1,0,1.8,0.6,1.8,1.3
				C165.5,175.5,164.7,176,163.7,176z"/>
		</g>
		<g>
			<path class="st0" d="M163.7,164.3h-31c-1,0-1.8-0.6-1.8-1.3s0.8-1.3,1.8-1.3h31c1,0,1.8,0.6,1.8,1.3S164.7,164.3,163.7,164.3z"/>
		</g>
		<g>
			<path class="st0" d="M365.4,187.7c-1,0-1.8-0.6-1.8-1.3v-37.1c0-0.7,0.8-1.3,1.8-1.3s1.8,0.6,1.8,1.3v37.1
				C367.2,187.2,366.4,187.7,365.4,187.7z"/>
		</g>
		<g>
			<path class="st0" d="M381,176h-31c-1,0-1.8-0.6-1.8-1.3s0.8-1.3,1.8-1.3h31c1,0,1.8,0.6,1.8,1.3C382.8,175.5,382,176,381,176z"/>
		</g>
		<g>
			<path class="st0" d="M381,164.3h-31c-1,0-1.8-0.6-1.8-1.3s0.8-1.3,1.8-1.3h31c1,0,1.8,0.6,1.8,1.3S382,164.3,381,164.3z"/>
		</g>
	</g>
	<g>
		<g>
			<path d="M255.7,55c-1.7,0-3-1-3-2.1V12.3c0-1.2,1.3-2.1,3-2.1s3,1,3,2.1v40.6C258.7,54,257.3,55,255.7,55z"/>
		</g>
		<g>
			<path d="M272.5,24.6h-33.8c-1.7,0-3-1-3-2.1c0-1.2,1.3-2.1,3-2.1h33.8c1.7,0,3,1,3,2.1S274.2,24.6,272.5,24.6z"/>
		</g>
	</g>
	<g>
		<path d="M404.5,145l-67.1-31.1c-0.1-0.1-0.3-0.1-0.4-0.1V92.7l11.3,5.2c0.5,0.2,1.1,0.3,1.6,0.3c1,0,1.9-0.3,2.5-1
			c0.9-1,0.5-2.3-0.9-3l-94.3-43.7c-1-0.5-2.2-0.5-3.2,0l-94,42.2c-1.4,0.6-1.8,2-0.9,3c0.9,1,2.7,1.3,4.1,0.7l11-4.9v22.2
			c-0.2,0.1-0.4,0.1-0.5,0.2L106.6,145c-1.4,0.6-1.8,2-0.9,3c0.6,0.6,1.5,1,2.5,1c0.6,0,1.1-0.1,1.6-0.3l4.2-1.9v60.3
			c0,1.2,1.3,2.1,3,2.1h60.2h0.7H334h60.9c1.7,0,3-1,3-2.1V147l3.3,1.5c0.5,0.2,1.1,0.3,1.6,0.3c1,0,1.9-0.3,2.5-1
			C406.3,146.9,405.9,145.6,404.5,145z M255.6,55L331,89.9v114.8h-41.4v-45.2c0-13.9-15.2-25.3-34-25.3c-18.7,0-34,11.3-34,25.3
			v45.2h-41.4v-116L255.6,55z M227.7,159.6c0-10.8,11-19.8,25-20.9v66.1h-25V159.6z M258.7,138.7c14,1.1,25,10.1,25,20.9v45.2h-25
			V138.7z M120,143.9l54.3-25.1v86h-54.2v-60.6C120.1,144.1,120,144,120,143.9z M391.9,204.8H337v-85.9l54.9,25.4V204.8z"/>
		<path d="M132.7,188.9h31c1.7,0,3-1,3-2.1v-25.4c0-8-8.3-14.6-18.5-14.6s-18.5,6.5-18.5,14.6v25.4
			C129.7,187.9,131,188.9,132.7,188.9z M148.2,151c6.9,0,12.5,4.6,12.5,10.3v23.3h-25v-23.3C135.7,155.6,141.3,151,148.2,151z"/>
		<path d="M350,188.9h31c1.7,0,3-1,3-2.1v-25.4c0-8-8.3-14.6-18.5-14.6s-18.5,6.5-18.5,14.6v25.4C347,187.9,348.3,188.9,350,188.9z
			 M365.5,151c6.9,0,12.5,4.6,12.5,10.3v23.3h-25v-23.3C353,155.6,358.6,151,365.5,151z"/>
		<path d="M255.7,115.9c14.7,0,26.7-8.5,26.7-19s-12-19-26.7-19s-26.7,8.5-26.7,19S241,115.9,255.7,115.9z M255.7,82.2
			c11.4,0,20.6,6.6,20.6,14.7s-9.3,14.7-20.6,14.7c-11.4,0-20.6-6.6-20.6-14.7S244.3,82.2,255.7,82.2z"/>
	</g>
</g>
</svg>
