<?xml version="1.0" encoding="utf-8"?>
<!-- Generator: Adobe Illustrator 22.0.0, SVG Export Plug-In . SVG Version: 6.00 Build 0)  -->
<svg version="1.1" id="Layer_1" xmlns="http://www.w3.org/2000/svg" xmlns:xlink="http://www.w3.org/1999/xlink" x="0px" y="0px"
	 viewBox="0 0 1000 772.7" style="enable-background:new 0 0 1000 772.7;" xml:space="preserve">
<style type="text/css">
	.st0{fill-rule:evenodd;clip-rule:evenodd;fill:#EC2127;}
	.st1{fill-rule:evenodd;clip-rule:evenodd;fill:#164A7B;}
	.st2{fill:#164A7B;}
</style>
<g>
	<path class="st0" d="M871.2,355.5l34.9,0c-2,3.9-11.7,25.6-13.6,29.5h-8.7c-4.4,0.1-9.5,0.7-14,6.6l-33.8,46
		c-4.1,5.6-8.9,11.7-17.6,11.7h-40.3l13.2-29.5l14.5,0c3.7,0,6.3-1.4,8-4.1l35.6-48.4C855.7,359.7,862.1,355.5,871.2,355.5
		 M737.8,396.7c9.9,0,16.8,1.1,19.6-5.1c3.9-7.3-3.1-12.3-9.4-12.3c-8.1,0-13.8,4.4-18,11.7c-9.3,19.4-18.5,38.8-27.8,58.1h-10.4
		l0,0h-6.4h-10.5l32.2-67.4c10.3-21.5,18-26,41.6-26c8.9,0,20.2,0.8,26.4,3.6c13.4,7.9,17.2,26.1,9.9,36.5l-11.2,17.7l0,35.6h-10.8
		l0,0h-6H746l0.1-25.1h-20.3L737.8,396.7z M689.3,355.7h10.5l-32.2,67.4c-10.3,21.5-18,26-41.6,26c-5.3,0-17.2-1-23.4-3.9
		c-12.4-7.3-15.9-22.3-11.1-34.2l26.5-55.3h10.8l0,0h5.1h10.9l-27.6,57.5c-3.9,7.3,3.1,12.3,9.4,12.3c8.1,0,13.8-4.4,18-11.7
		c9.3-19.4,18.5-38.8,27.8-58.1h10.4l0,0H689.3z M535,380.2c12.7,0,19.7,10.2,15.5,22.6c-4.2,12.5-18,22.6-30.7,22.6
		c-12.7,0-19.7-10.2-15.5-22.6C508.5,390.3,522.3,380.2,535,380.2L535,380.2z M543.2,355.8c26.5,0,40.9,21.1,32.2,47
		c-8.7,25.9-37.4,47-63.9,47c-26.5,0-40.9-21.1-32.2-47C488.1,376.9,516.8,355.8,543.2,355.8L543.2,355.8z M429.5,384.1l-31.5,65
		h13.1l8.5,0h13.1c10.4-21.8,20.9-43.5,31.7-65h15.8c1.9-3.9,11.9-24.5,13.9-28.4l0,0l-71.6,0l-5.7,11.7l-2.5,5l-5.7,11.7H429.5"/>
	<path class="st1" d="M407.5,355.7l-28.5,0.1l-45.3,93.3H361C376.1,417.6,391.2,386.6,407.5,355.7L407.5,355.7z M363.6,355.7H327
		c-23.5,0-30.2,2.3-40.5,23.8l-16,33.4c-7.3,19.8-0.9,36.3,13.7,36.2h37.6l9.9-26.2h-28.4c-7.8,0-7.3-6.2-5.9-9.2
		c3.9-8.2,7.7-16.3,11.5-24.1c4.2-7.3,9.9-11.7,18-11.7H354L363.6,355.7L363.6,355.7z M218.5,449.1h26.8l27.5-57.5
		c4.8-11.9-1-36.2-20.6-35.9c-4.5,0.1-9.5,0-14.8,0c-23.5,0-30.2,2.3-40.5,23.8l-33.3,69.6h27.3c9.3-19.4,18.5-38.8,27.8-58.1
		c4.2-7.3,9.9-11.7,18-11.7c6.4,0,13.3,5,9.4,12.3l-4.6,9.1h-17.3l-11,23.3l17.2,0L218.5,449.1L218.5,449.1z M181,391.8
		c11.2-29.9-2.2-35.9-23.4-36.1c-4.5,0-9.5,0-14.9,0c-23.5,0-30.2,2.3-40.5,23.8l-33.3,69.6h29.2l12-25.2H138l11.1-23.3h-27.8
		l4.6-9.7c4.2-7.3,9.9-11.7,18-11.7c6.4,0,13.3,5,9.5,12.5H181L181,391.8z"/>
	<g>
		<path class="st2" d="M580.8,483.9c-1.7,7.3-3.6,14.5-5.6,21.7c-4.2,14.3-8.7,28.4-15,41.4c-3.1,6.5-6.4,12.8-10.3,18.6
			c-3.9,5.8-8.2,11.1-13.1,15.4c-4.9,4.3-10.2,7.6-15.8,9.7c-4.8,1.8-9.8,2.5-15,2.5l-22.8-12.7c-8.4-4.5-17-8.7-25.5-13.1
			c-8.6-4.3-17.2-8.3-25.9-12.5c-8.7-4-17.5-8-26.3-11.8c-8.9-3.6-17.8-7.3-26.8-10.7c-9-3.3-18-6.9-27.1-9.9l-13.7-4.7
			c-4.6-1.5-9.2-2.8-13.9-4.2c-4.6-1.4-9.3-2.7-14-3.9l-14-3.7c-9.5-2.1-18.9-4.4-28.4-6.2c-4.8-1-9.5-1.9-14.3-2.6
			c-4.8-0.7-9.6-1.6-14.5-2.1c-4.9-0.5-9.7-1.2-14.5-1.6c-4.9-0.4-9.7-0.8-14.6-1.1c-4.9-0.2-9.8-0.4-14.7-0.6
			c-4.9,0-9.8-0.1-14.7,0c-4.9,0.2-9.8,0.2-14.7,0.7l-7.4,0.6c-2.4,0.2-4.9,0.6-7.3,0.8c-9.8,1.2-19.5,2.9-29.2,5.1
			c-4.8,1.1-9.6,2.4-14.4,3.8c-4.7,1.5-9.4,3.1-14,4.9c-4,1.6-7.9,3.2-11.7,5c0.2-0.2,0.4-0.4,0.6-0.6c5.3-4.8,12-9.1,18.9-12.9
			c6.9-3.8,14-7.5,21.3-10.9c3.6-1.7,7.3-3.3,11-4.9l5.6-2.4l2.8-1.2l1.4-0.6l0.7-0.3l0.4-0.2l0.2-0.1l0.2-0.1c0,0,0.3-0.1,0.4-0.3
			c1-0.3,0.8-1.5,0.8-1.5l0.1-14.9l-1.6-0.2l-1.4,14.3l-0.1,0l-0.7,0.2l-1.4,0.5l-2.9,1l-5.8,2c-3.8,1.3-7.6,2.7-11.4,4.2
			c-7.6,2.9-15.1,6-22.4,9.6c-7.3,3.6-14.5,7.5-21,12.6c-3.2,2.6-6.3,5.5-8.4,9.2c-0.7,1.3-1.3,2.8-1.6,4.3l-0.1,0.1l0.1,0
			c-0.1,0.6-0.2,1.2-0.2,1.9c0,2.2,0.7,4.5,1.9,6.3l0.5,0.7l0.8-0.3c4.5-1.8,8.7-3.8,13.1-5.6c4.4-1.8,8.8-3.4,13.2-4.9
			c8.9-3,18.1-5.3,27.3-7.2c9.2-1.8,18.6-3.1,28-3.9c9.4-0.9,18.8-1.1,28.3-1.2c4.7,0,9.4,0.2,14.1,0.3c4.7,0.2,9.4,0.6,14.1,0.9
			c4.7,0.4,9.4,0.9,14.1,1.4c4.7,0.5,9.4,1.2,14,1.8c4.7,0.6,9.3,1.5,14,2.3c4.7,0.7,9.3,1.7,13.9,2.6c9.3,1.8,18.4,4.1,27.6,6.3
			l13.7,3.7c4.6,1.2,9.1,2.5,13.6,3.9l13.6,4.1l13.5,4.5c9,2.8,17.8,6.3,26.7,9.5c8.9,3.3,17.6,6.9,26.4,10.3
			c8.7,3.7,17.4,7.3,26.1,11.1c8.6,3.9,17.3,7.7,25.8,11.8c8.5,4.1,17.1,8.2,25.5,12.4l25.3,12.9l0.3,0.1l0.3,0
			c7.6,0.1,15.4-1.2,22.4-4.2c7.1-2.9,13.5-7.5,18.8-12.8c5.4-5.4,9.9-11.6,13.8-18.1c3.9-6.5,7.1-13.4,9.9-20.4
			c5.6-14,9.4-28.7,12.5-43.4c3.1-14.7,5.2-29.6,7-44.6l-1.6-0.2C584.3,469.2,582.6,476.6,580.8,483.9z"/>
		<path class="st2" d="M161.2,323.8l2.7-8.3c0.5-1.4,0.8-2.8,1.2-4.2l1.2-4.2c0.7-2.8,1.7-5.6,2.3-8.4l2-8.4c0.7-2.8,1.4-5.6,2-8.4
			c0.7-3.1,1.3-6.2,1.9-9.3c3.1-1.3,6.1-2.6,9.1-3.9c4.7-2.2,9.3-4.4,13.8-6.6l13.2-6.7c0.6-0.3,1.1-0.6,1.7-0.8
			c0.4,0.6,0.8,1.2,1.2,1.8c2.8,4.2,5.7,8.4,8.8,12.5l4.6,6.2l4.8,6c3.2,4,6.5,7.9,9.9,11.8c1.7,1.9,3.5,3.8,5.2,5.7
			c1.7,1.9,3.6,3.7,5.4,5.5c1.8,1.8,3.7,3.6,5.6,5.4c1.9,1.8,3.7,3.6,5.7,5.2l6,5c2,1.6,4,3.3,6.2,4.7c2.1,1.5,4.2,3,6.5,4.4
			c2.2,1.4,4.4,2.7,6.8,3.9l1.1-1.1c-3.6-3.6-7-7.2-10.3-10.9c-3.3-3.7-6.6-7.6-9.7-11.4c-6.3-7.7-12.4-15.7-18.2-23.9
			c-11.7-16.3-22.5-33.2-32.9-50.3l-0.7-1.2l-1.3,0.6c-18.3,8.6-35.3,19.5-53.3,28l-0.7,0.3l-0.1,0.8l-3.2,34l-2.9,34.1l1.6,0.2
			C159.3,329.3,160.2,326.6,161.2,323.8z"/>
		<path class="st2" d="M692.9,211.7c3.3-1.7,6.6-3.4,9.8-5c6.5-3.3,13-6.5,19.3-9.7c6.3-3.2,12.6-6.1,18.7-9.3c3-1.5,6-3,8.9-4.5
			c3.1-1.5,5.8-2.7,8.6-4c2.7-1.3,5.6-2.3,8.4-3.4c2.8-1.1,5.6-1.9,8.3-2.9c2.8-0.9,5.5-1.7,8.2-2.5c2.7-0.7,5.4-1.4,8.1-2
			c10.6-2.2,20.7-3.6,29.7-4.2c9-0.6,17-0.7,23.6-0.5c3.3,0.1,6.2,0.3,8.8,0.3c2.6,0.2,4.8,0.3,6.5,0.4c3.6,0.3,5.5,0.5,5.5,0.5
			l0.4-1.6c0,0-1.9-0.4-5.3-1.2c-3.5-0.7-8.6-1.8-15.3-2.8c-13.2-2-32.4-3.6-55.2-0.6c-11.4,1.5-23.5,4.4-35.9,9
			c-12.3,4.7-24.8,10.5-37.8,16.3c-26,11.8-53.4,24.9-80.8,38.1c-13.7,6.6-27.3,13.5-40.7,20.1c-13.4,6.7-26.6,13.2-39.4,19.6
			c-25.5,12.7-49.3,24.5-69.8,34.7c-20.4,10.1-37.4,18.8-49.3,24.7c-11.9,6-18.7,9.4-18.7,9.4l0.7,1.4c0,0,1.8-0.6,5.2-1.8
			c3.4-1.2,8.4-2.8,14.7-5.2c6.3-2.3,13.9-5.1,22.6-8.5c8.7-3.4,18.4-7.1,29-11.5c5.3-2.2,10.8-4.4,16.5-6.7
			c5.7-2.3,11.5-4.9,17.5-7.5c12-5.2,24.7-10.5,37.7-16.5c6.5-3,13.1-5.9,19.8-9c6.7-3,13.4-6.1,20.2-9.4c6.7-3.2,13.5-6.5,20.4-9.8
			c3.4-1.6,6.8-3.2,10.2-4.9l10.3-4.8c13.6-6.7,27.2-13.4,40.6-20C686.3,214.9,689.6,213.3,692.9,211.7z"/>
		<path class="st2" d="M905.6,177c-6.4-3.1-13-5.6-19.7-7.8l-0.5,1.5c3.3,1.2,6.5,2.5,9.7,3.9c2.4,1,4.8,2.2,7.2,3.3l-58,37.2
			l-59.6,38.4c-3,0.5-5.9,1.2-8.8,1.8c-2.9,0.7-5.7,1.6-8.6,2.4c-2.9,0.7-5.6,1.9-8.4,2.8c-2.7,1-5.6,1.9-8.3,3.1
			c-2.7,1.1-5.4,2.3-8,3.6l-4,1.9l-3.9,2.1c-2.6,1.4-5.1,2.8-7.6,4.4l-3.8,2.3l-3.7,2.5l-3.7,2.5l-3.6,2.7c-2.4,1.7-4.7,3.6-7,5.5
			c-2.3,1.8-4.5,3.9-6.7,5.9c-2.2,2-4.2,4.3-6.3,6.5c-2.1,2.2-4.1,4.4-5.9,6.8c-1.9,2.4-3.7,4.7-5.4,7.3c-0.8,1.3-1.7,2.6-2.5,3.9
			c-0.8,1.3-1.6,2.6-2.3,4c-1.5,2.7-2.8,5.5-3.9,8.4l1.1,1.2c4.3-3.8,8.6-7.6,13.1-11.2c2.3-1.8,4.4-3.7,6.7-5.4
			c2.3-1.8,4.5-3.6,6.8-5.2c4.6-3.4,9.2-6.8,13.9-10c4.7-3.3,9.5-6.4,14.3-9.5c9.6-6.2,19.4-12.2,29.3-18
			c9.9-5.8,19.9-11.3,29.9-17.1l0.1,0l0,0l118-80l1.2-0.8L905.6,177z"/>
	</g>
</g>
<g>
	<path class="st2" d="M122.6,630.6h-4.1v-3.5h4.1V630.6z M122.1,673.6v-37.9h-2.9v37.9H122.1z"/>
	<path class="st2" d="M157.6,670.7v2.8h-23.4v-46.4h2.9v28.2v15.3H157.6z"/>
	<path class="st2" d="M191.9,640.3v33.3H189v-3.8v-2c-0.8,1.2-1.8,2.3-3.1,3.5c-2.7,2.4-5.8,3.5-9.2,3.5c-4.2,0-7.6-1.7-10.3-5.2
		c-2.4-3.2-3.7-7-3.7-11.3c0-1.1,0.1-2.3,0.3-3.4c0.8-4.8,2.8-8.7,6.2-11.6c3.1-2.8,6.9-4,11.3-3.7
		C183.5,639.5,187.3,639.8,191.9,640.3z M189,657.8v-14.9c-5-0.4-8-0.6-9.1-0.6c-3.4-0.2-6.4,0.9-9.1,3.3c-1.6,1.4-2.8,3.4-3.8,5.9
		c-0.9,2.3-1.3,4.6-1.3,7c0,2.9,0.6,5.5,1.9,7.6c2.3,3.9,5.3,5.9,8.8,5.9c2.8,0,5.5-1.1,8-3.3C187.4,665.9,188.9,662.3,189,657.8z"
		/>
	<path class="st2" d="M279.1,655.4v18.2h-3v-18.4c-0.1-3.7-0.6-6.6-1.7-8.9c-1.4-3.1-4.2-4.6-8.2-4.6c-2.6,0-5.2,1.1-7.7,3.3
		c-1.9,1.6-3,4-3.5,7c0,0.8,0.1,1.9,0.1,3.3v18.2h-3v-18.4c-0.1-3.7-0.6-6.6-1.7-8.9c-1.4-3.1-4.2-4.6-8.2-4.6
		c-2.6,0-5.2,1.1-7.7,3.3c-1.3,1.2-2.3,2.6-2.8,4.3v24.3h-2.9v-33.7h2.9v3.8c2.9-3.3,6.4-4.9,10.3-4.9c0.7,0,1.3,0.1,2,0.2
		c5.1,0.7,8.4,3.2,9.9,7.4c0.8-1.5,1.9-2.8,3.3-4c2.7-2.4,5.7-3.5,8.9-3.5c0.7,0,1.3,0.1,2,0.2c4.5,0.6,7.5,2.4,9.1,5.5
		C278.4,647,279.1,650.7,279.1,655.4z"/>
	<path class="st2" d="M315.7,640.3v33.3h-2.9v-3.8v-2c-0.8,1.2-1.8,2.3-3.1,3.5c-2.7,2.4-5.8,3.5-9.2,3.5c-4.2,0-7.6-1.7-10.3-5.2
		c-2.4-3.2-3.7-7-3.7-11.3c0-1.1,0.1-2.3,0.3-3.4c0.8-4.8,2.8-8.7,6.2-11.6c3.1-2.8,6.9-4,11.3-3.7
		C307.4,639.5,311.2,639.8,315.7,640.3z M312.8,657.8v-14.9c-5-0.4-8-0.6-9.1-0.6c-3.4-0.2-6.4,0.9-9.1,3.3
		c-1.6,1.4-2.8,3.4-3.8,5.9c-0.9,2.3-1.3,4.6-1.3,7c0,2.9,0.6,5.5,1.9,7.6c2.3,3.9,5.3,5.9,8.8,5.9c2.8,0,5.5-1.1,8-3.3
		C311.2,665.9,312.8,662.3,312.8,657.8z"/>
	<path class="st2" d="M354.5,655.5v18.1h-3v-18.1c0-3.7-0.6-6.5-1.7-8.4c-0.9-1.6-1.9-2.7-3-3.4c-1.1-0.7-2.7-1.2-4.8-1.6
		c-0.4-0.1-0.9-0.1-1.3-0.1c-2.8,0-5.5,1.1-8,3.3c-3.1,2.7-4.6,6-4.6,10v18.4h-2.9V640h2.9v6c1.4-2.1,3.2-3.8,5.4-5.1
		c2.2-1.3,4.5-1.9,6.9-1.9c0.7,0,1.4,0,2,0.1c2.6,0.4,4.6,1.1,6,2c1.4,0.9,2.7,2.3,3.8,4.2C353.8,647.7,354.5,651.1,354.5,655.5z"/>
	<path class="st2" d="M364.2,656.8v0.3c0,0.5,0.1,1,0.2,1.6c0.7,4.6,2.2,7.8,4.4,9.8c2.5,2.2,5.4,3.3,8.7,3.3
		c2.4,0.1,4.5-0.1,6.4-0.6c0.7-0.2,2.3-0.6,4.8-1.3c0,0.9,0,1.6,0,2.2s0,0.8,0,0.7c-2.5,0.7-5,1.3-7.6,1.6c-1,0.1-2.1,0.2-3,0.2
		c-4.5,0-8.1-1.2-11-3.7c-3.3-2.9-5.3-7.1-5.9-12.6V657c0-0.5,0-0.9,0-1.3c0-0.3,0-0.5,0.1-0.8c0.4-4.8,2.4-8.8,6-11.9
		c2.7-2.4,5.8-3.6,9.2-3.6c0.7,0,1.3,0.1,2,0.2c3.8,0.6,6.8,2.7,9.1,6.3c2,3.2,2.9,6.9,2.8,10.9H364.2z M364.3,653.9h23
		c-0.2-2.1-0.8-4-1.8-5.6c-2.3-4-5.2-6-8.8-6c-2.8,0-5.4,1.1-7.9,3.3C366.3,647.8,364.8,650.6,364.3,653.9z"/>
	<path class="st2" d="M410.4,639.9v3c-1.5,0.5-3,1.4-4.2,2.4c-2.6,2.2-4.2,5.5-4.9,9.8c-0.2,1.4-0.3,2.3-0.3,2.6v15.8H398v-33.6h2.9
		v7.5c1-1.7,2.2-3.2,3.6-4.4C406.2,641.6,408.1,640.6,410.4,639.9z"/>
	<path class="st2" d="M444.9,640.3v33.3H442v-3.8v-2c-0.8,1.2-1.8,2.3-3.1,3.5c-2.7,2.4-5.8,3.5-9.2,3.5c-4.2,0-7.6-1.7-10.3-5.2
		c-2.4-3.2-3.7-7-3.7-11.3c0-1.1,0.1-2.3,0.3-3.4c0.8-4.8,2.8-8.7,6.2-11.6c3.1-2.8,6.9-4,11.3-3.7
		C436.6,639.5,440.3,639.8,444.9,640.3z M442,657.8v-14.9c-5-0.4-8-0.6-9.1-0.6c-3.4-0.2-6.4,0.9-9.1,3.3c-1.6,1.4-2.8,3.4-3.8,5.9
		c-0.9,2.3-1.3,4.6-1.3,7c0,2.9,0.6,5.5,1.9,7.6c2.3,3.9,5.3,5.9,8.8,5.9c2.8,0,5.5-1.1,8-3.3C440.4,665.9,441.9,662.3,442,657.8z"
		/>
	<path class="st2" d="M487,637.4c0,0.6,0,1.4,0,2.6h7.6v2.9H487v30.8H484v-30.8h-4.9v-2.9h4.9c0-1.2,0-2.1,0-2.7
		c0.1-4,0.4-6.9,0.9-8.9c0.6-2.5,1.6-4.4,3-5.6c1.7-1.5,4-2.3,6.9-2.6v2.6c-1.9,0.2-3.4,0.8-4.6,1.8
		C488.2,626.3,487.1,630.6,487,637.4z"/>
	<path class="st2" d="M530.3,640.2v33.4h-2.9v-3.8v-2c-0.8,1.2-1.9,2.4-3.1,3.5c-2.7,2.4-5.8,3.5-9.2,3.5c-4.2,0-7.6-1.7-10.3-5.2
		c-2.4-3.2-3.7-7-3.7-11.3c0-1.2,0.1-2.3,0.3-3.4c0.8-4.8,2.8-8.7,6.2-11.7c3.1-2.8,6.9-4,11.3-3.7
		C522,639.5,525.8,639.8,530.3,640.2z M527.4,657.7v-14.9c-5-0.4-8-0.6-9.1-0.6c-3.4-0.2-6.4,0.8-9.1,3.2c-1.6,1.4-2.8,3.4-3.8,5.9
		c-0.9,2.3-1.3,4.6-1.3,7c0,2.9,0.6,5.4,1.9,7.6c2.3,4,5.3,5.9,8.8,5.9c2.8,0,5.5-1.1,8-3.3C525.8,665.9,527.4,662.3,527.4,657.7z
		 M522.8,628.3l-9.4,4.7l1.3,2.5l9.4-4.7L522.8,628.3z"/>
	<path class="st2" d="M564.8,672c0,0.6,0.1,0.8,0.1,0.7c-2.5,0.7-5,1.3-7.6,1.6c-1.1,0.1-2.1,0.2-3.1,0.2c-4.5,0-8.1-1.2-10.9-3.7
		c-3.4-3-5.4-7.2-6-12.6c0-0.6-0.1-1-0.1-1.2c0-0.5,0-1,0-1.3c0-0.4,0.1-0.7,0.1-0.9c0.2-5.1,2-9.1,5.3-12c2.5-2.2,6.4-3.3,11.6-3.3
		c1.9,0,4.6,0.2,8.2,0.5v2.9c-3.9-0.4-6.8-0.6-8.8-0.6c-4.1,0-7.2,1-9.3,2.9c-2.4,2.2-3.7,5.6-4,10c0,0.3,0,1,0,1.9
		c0,0.5,0.1,1,0.2,1.6c0.7,4.6,2.2,7.8,4.4,9.8c2.5,2.2,5.4,3.3,8.7,3.3c2.4,0.1,4.5-0.1,6.4-0.6c0.7-0.2,2.3-0.6,4.8-1.3
		C564.8,670.7,564.8,671.4,564.8,672z"/>
	<path class="st2" d="M575.2,634.3h-2.9v-2.9h2.9V634.3z M575.2,639.9v33.7h-2.9v-33.7H575.2z"/>
	<path class="st2" d="M586.6,620.2h2.9v53.5h-2.9V620.2z"/>
	<path class="st2" d="M654.6,620.4v53.2h-2.8v-3.8v-2c-0.8,1.2-1.9,2.3-3.2,3.5c-2.7,2.4-5.8,3.5-9.2,3.5c-4.2,0-7.6-1.7-10.3-5.2
		c-2.4-3.2-3.7-7-3.7-11.3c0-1.1,0.1-2.3,0.3-3.4c0.8-4.8,2.8-8.7,6.2-11.6c2.8-2.5,6.6-3.7,11.3-3.7c2,0,4.8,0.2,8.5,0.5v-19.6
		H654.6z M651.7,642.8c-5-0.4-8.1-0.6-9.2-0.6c-3.3-0.2-6.4,0.9-9.1,3.3c-1.6,1.4-2.9,3.4-3.8,5.9c-0.9,2.3-1.3,4.6-1.3,7
		c0,2.9,0.6,5.5,1.9,7.6c2.3,3.9,5.2,5.9,8.8,5.9c2.8,0,5.4-1.1,8-3.3c3.1-2.7,4.6-6.3,4.6-10.8
		C651.8,648.9,651.8,643.9,651.7,642.8z"/>
	<path class="st2" d="M664.2,656.8v0.3c0,0.5,0.1,1,0.2,1.6c0.7,4.6,2.2,7.8,4.4,9.8c2.5,2.2,5.4,3.3,8.7,3.3
		c2.4,0.1,4.5-0.1,6.4-0.6c0.7-0.2,2.3-0.6,4.8-1.3c0,0.9,0,1.6,0,2.2s0,0.8,0,0.7c-2.5,0.7-5,1.3-7.6,1.6c-1,0.1-2.1,0.2-3,0.2
		c-4.5,0-8.1-1.2-11-3.7c-3.3-2.9-5.3-7.1-5.9-12.6V657c0-0.5,0-0.9,0-1.3c0-0.3,0-0.5,0.1-0.8c0.4-4.8,2.4-8.8,6-11.9
		c2.7-2.4,5.8-3.6,9.2-3.6c0.7,0,1.3,0.1,2,0.2c3.8,0.6,6.8,2.7,9.1,6.3c2,3.2,2.9,6.9,2.8,10.9H664.2z M664.3,653.9h23
		c-0.2-2.1-0.8-4-1.8-5.6c-2.3-4-5.2-6-8.8-6c-2.8,0-5.4,1.1-7.9,3.3C666.3,647.8,664.8,650.6,664.3,653.9z"/>
	<path class="st2" d="M722,640.1h3.1l10.6,29.2l10.2-29.2h3.1l-11.8,33.5h-3L722,640.1z"/>
	<path class="st2" d="M759.2,634.3h-2.9v-2.9h2.9V634.3z M759.2,639.9v33.7h-2.9v-33.7H759.2z"/>
	<path class="st2" d="M796.9,640.3v33.3H794v-3.8v-2c-0.8,1.2-1.8,2.3-3.1,3.5c-2.7,2.4-5.8,3.5-9.2,3.5c-4.2,0-7.6-1.7-10.3-5.2
		c-2.4-3.2-3.7-7-3.7-11.3c0-1.1,0.1-2.3,0.3-3.4c0.8-4.8,2.8-8.7,6.2-11.6c3.1-2.8,6.9-4,11.3-3.7
		C788.5,639.5,792.3,639.8,796.9,640.3z M794,657.8v-14.9c-5-0.4-8-0.6-9.1-0.6c-3.4-0.2-6.4,0.9-9.1,3.3c-1.6,1.4-2.8,3.4-3.8,5.9
		c-0.9,2.3-1.3,4.6-1.3,7c0,2.9,0.6,5.5,1.9,7.6c2.3,3.9,5.3,5.9,8.8,5.9c2.8,0,5.5-1.1,8-3.3C792.4,665.9,793.9,662.3,794,657.8z"
		/>
	<path class="st2" d="M806.9,639.9h2.9v36.3c0,3.8-0.3,6.8-0.8,8.9c-0.6,2.5-1.6,4.4-3.1,5.6c-1.7,1.5-4,2.3-6.9,2.6v-2.7
		c1.9-0.1,3.4-0.7,4.6-1.8c2.2-1.9,3.3-6.1,3.3-12.8C806.9,656.2,806.9,644.2,806.9,639.9z M809.8,631.4v2.9h-2.9v-2.9H809.8z"/>
	<path class="st2" d="M848.1,640.3v33.3h-2.9v-3.8v-2c-0.8,1.2-1.8,2.3-3.1,3.5c-2.7,2.4-5.8,3.5-9.2,3.5c-4.2,0-7.6-1.7-10.3-5.2
		c-2.4-3.2-3.7-7-3.7-11.3c0-1.1,0.1-2.3,0.3-3.4c0.8-4.8,2.8-8.7,6.2-11.6c3.1-2.8,6.9-4,11.3-3.7
		C839.8,639.5,843.6,639.8,848.1,640.3z M845.2,657.8v-14.9c-5-0.4-8-0.6-9.1-0.6c-3.4-0.2-6.4,0.9-9.1,3.3
		c-1.6,1.4-2.8,3.4-3.8,5.9c-0.9,2.3-1.3,4.6-1.3,7c0,2.9,0.6,5.5,1.9,7.6c2.3,3.9,5.3,5.9,8.8,5.9c2.8,0,5.5-1.1,8-3.3
		C843.6,665.9,845.2,662.3,845.2,657.8z"/>
	<path class="st2" d="M869.3,639.9v3c-1.6,0.5-3,1.4-4.2,2.4c-2.6,2.2-4.2,5.5-4.9,9.8c-0.2,1.4-0.3,2.3-0.3,2.6v15.8h-2.9v-33.6
		h2.9v7.5c1-1.7,2.2-3.2,3.6-4.4C865.1,641.6,867,640.6,869.3,639.9z"/>
	<path class="st2" d="M877.4,670.1h4.1v3.5h-4.1V670.1z M878.1,627.1v37.8h2.9v-37.8H878.1z"/>
</g>
</svg>
