<?xml version="1.0" encoding="utf-8"?>
<!-- Generator: Adobe Illustrator 22.0.0, SVG Export Plug-In . SVG Version: 6.00 Build 0)  -->
<svg version="1.1" id="Layer_1" xmlns="http://www.w3.org/2000/svg" xmlns:xlink="http://www.w3.org/1999/xlink" x="0px" y="0px"
	 viewBox="0 0 1000 592.7" style="enable-background:new 0 0 1000 592.7;" xml:space="preserve">
<style type="text/css">
	.st0{fill-rule:evenodd;clip-rule:evenodd;fill:#EC2127;}
	.st1{fill-rule:evenodd;clip-rule:evenodd;fill:#164A7B;}
	.st2{fill:#164A7B;}
</style>
<g>
	<path class="st0" d="M871.2,223.5l34.9,0c-2,3.9-11.7,25.6-13.6,29.5h-8.7c-4.4,0.1-9.5,0.7-14,6.6l-33.8,46
		c-4.1,5.6-8.9,11.7-17.6,11.7h-40.3l13.2-29.5l14.5,0c3.7,0,6.3-1.4,8-4.1l35.6-48.4C855.7,227.7,862.1,223.5,871.2,223.5
		 M737.8,264.7c9.9,0,16.8,1.1,19.6-5.1c3.9-7.3-3.1-12.3-9.4-12.3c-8.1,0-13.8,4.4-18,11.7c-9.3,19.4-18.5,38.8-27.8,58.1h-10.4
		l0,0h-6.4h-10.5l32.2-67.4c10.3-21.5,18-26,41.6-26c8.9,0,20.2,0.8,26.4,3.6c13.4,7.9,17.2,26.1,9.9,36.5l-11.2,17.7l0,35.6h-10.8
		l0,0h-6H746l0.1-25.1h-20.3L737.8,264.7z M689.3,223.7h10.5l-32.2,67.4c-10.3,21.5-18,26-41.6,26c-5.3,0-17.2-1-23.4-3.9
		c-12.4-7.3-15.9-22.3-11.1-34.2l26.5-55.3h10.8l0,0h5.1h10.9l-27.6,57.5c-3.9,7.3,3.1,12.3,9.4,12.3c8.1,0,13.8-4.4,18-11.7
		c9.3-19.4,18.5-38.8,27.8-58.1h10.4l0,0H689.3z M535,248.2c12.7,0,19.7,10.2,15.5,22.6c-4.2,12.5-18,22.6-30.7,22.6
		c-12.7,0-19.7-10.2-15.5-22.6C508.5,258.3,522.3,248.2,535,248.2L535,248.2z M543.2,223.8c26.5,0,40.9,21.1,32.2,47
		c-8.7,25.9-37.4,47-63.9,47c-26.5,0-40.9-21.1-32.2-47C488.1,244.9,516.8,223.8,543.2,223.8L543.2,223.8z M429.5,252.1l-31.5,65
		h13.1l8.5,0h13.1c10.4-21.8,20.9-43.5,31.7-65h15.8c1.9-3.9,11.9-24.5,13.9-28.4l0,0l-71.6,0l-5.7,11.7l-2.5,5l-5.7,11.7H429.5"/>
	<path class="st1" d="M407.5,223.7l-28.5,0.1l-45.3,93.3H361C376.1,285.6,391.2,254.6,407.5,223.7L407.5,223.7z M363.6,223.7H327
		c-23.5,0-30.2,2.3-40.5,23.8l-16,33.4c-7.3,19.8-0.9,36.3,13.7,36.2h37.6l9.9-26.2h-28.4c-7.8,0-7.3-6.2-5.9-9.2
		c3.9-8.2,7.7-16.3,11.5-24.1c4.2-7.3,9.9-11.7,18-11.7H354L363.6,223.7L363.6,223.7z M218.5,317.1h26.8l27.5-57.5
		c4.8-11.9-1-36.2-20.6-35.9c-4.5,0.1-9.5,0-14.8,0c-23.5,0-30.2,2.3-40.5,23.8l-33.3,69.6h27.3c9.3-19.4,18.5-38.8,27.8-58.1
		c4.2-7.3,9.9-11.7,18-11.7c6.4,0,13.3,5,9.4,12.3l-4.6,9.1h-17.3l-11,23.3l17.2,0L218.5,317.1L218.5,317.1z M181,259.8
		c11.2-29.9-2.2-35.9-23.4-36.1c-4.5,0-9.5,0-14.9,0c-23.5,0-30.2,2.3-40.5,23.8l-33.3,69.6h29.2l12-25.2H138l11.1-23.3h-27.8
		l4.6-9.7c4.2-7.3,9.9-11.7,18-11.7c6.4,0,13.3,5,9.5,12.5H181L181,259.8z"/>
	<g>
		<path class="st2" d="M580.8,351.9c-1.7,7.3-3.6,14.5-5.6,21.7c-4.2,14.3-8.7,28.4-15,41.4c-3.1,6.5-6.4,12.8-10.3,18.6
			c-3.9,5.8-8.2,11.1-13.1,15.4c-4.9,4.3-10.2,7.6-15.8,9.7c-4.8,1.8-9.8,2.5-15,2.5l-22.8-12.7c-8.4-4.5-17-8.7-25.5-13.1
			c-8.6-4.3-17.2-8.3-25.9-12.5c-8.7-4-17.5-8-26.3-11.8c-8.9-3.6-17.8-7.3-26.8-10.7c-9-3.3-18-6.9-27.1-9.9l-13.7-4.7
			c-4.6-1.5-9.2-2.8-13.9-4.2c-4.6-1.4-9.3-2.7-14-3.9l-14-3.7c-9.5-2.1-18.9-4.4-28.4-6.2c-4.8-1-9.5-1.9-14.3-2.6
			c-4.8-0.7-9.6-1.6-14.5-2.1c-4.9-0.5-9.7-1.2-14.5-1.6c-4.9-0.4-9.7-0.8-14.6-1.1c-4.9-0.2-9.8-0.4-14.7-0.6
			c-4.9,0-9.8-0.1-14.7,0c-4.9,0.2-9.8,0.2-14.7,0.7l-7.4,0.6c-2.4,0.2-4.9,0.6-7.3,0.8c-9.8,1.2-19.5,2.9-29.2,5.1
			c-4.8,1.1-9.6,2.4-14.4,3.8c-4.7,1.5-9.4,3.1-14,4.9c-4,1.6-7.9,3.2-11.7,5c0.2-0.2,0.4-0.4,0.6-0.6c5.3-4.8,12-9.1,18.9-12.9
			c6.9-3.8,14-7.5,21.3-10.9c3.6-1.7,7.3-3.3,11-4.9l5.6-2.4l2.8-1.2l1.4-0.6l0.7-0.3l0.4-0.2l0.2-0.1l0.2-0.1c0,0,0.3-0.1,0.4-0.3
			c1-0.3,0.8-1.5,0.8-1.5l0.1-14.9l-1.6-0.2l-1.4,14.3l-0.1,0l-0.7,0.2l-1.4,0.5l-2.9,1l-5.8,2c-3.8,1.3-7.6,2.7-11.4,4.2
			c-7.6,2.9-15.1,6-22.4,9.6c-7.3,3.6-14.5,7.5-21,12.6c-3.2,2.6-6.3,5.5-8.4,9.2c-0.7,1.3-1.3,2.8-1.6,4.3l-0.1,0.1l0.1,0
			c-0.1,0.6-0.2,1.2-0.2,1.9c0,2.2,0.7,4.5,1.9,6.3l0.5,0.7l0.8-0.3c4.5-1.8,8.7-3.8,13.1-5.6c4.4-1.8,8.8-3.4,13.2-4.9
			c8.9-3,18.1-5.3,27.3-7.2c9.2-1.8,18.6-3.1,28-3.9c9.4-0.9,18.8-1.1,28.3-1.2c4.7,0,9.4,0.2,14.1,0.3c4.7,0.2,9.4,0.6,14.1,0.9
			c4.7,0.4,9.4,0.9,14.1,1.4c4.7,0.5,9.4,1.2,14,1.8c4.7,0.6,9.3,1.5,14,2.3c4.7,0.7,9.3,1.7,13.9,2.6c9.3,1.8,18.4,4.1,27.6,6.3
			l13.7,3.7c4.6,1.2,9.1,2.5,13.6,3.9l13.6,4.1l13.5,4.5c9,2.8,17.8,6.3,26.7,9.5c8.9,3.3,17.6,6.9,26.4,10.3
			c8.7,3.7,17.4,7.3,26.1,11.1c8.6,3.9,17.3,7.7,25.8,11.8c8.5,4.1,17.1,8.2,25.5,12.4l25.3,12.9l0.3,0.1l0.3,0
			c7.6,0.1,15.4-1.2,22.4-4.2c7.1-2.9,13.5-7.5,18.8-12.8c5.4-5.4,9.9-11.6,13.8-18.1c3.9-6.5,7.1-13.4,9.9-20.4
			c5.6-14,9.4-28.7,12.5-43.4c3.1-14.7,5.2-29.6,7-44.6l-1.6-0.2C584.3,337.2,582.6,344.6,580.8,351.9z"/>
		<path class="st2" d="M161.2,191.8l2.7-8.3c0.5-1.4,0.8-2.8,1.2-4.2l1.2-4.2c0.7-2.8,1.7-5.6,2.3-8.4l2-8.4c0.7-2.8,1.4-5.6,2-8.4
			c0.7-3.1,1.3-6.2,1.9-9.3c3.1-1.3,6.1-2.6,9.1-3.9c4.7-2.2,9.3-4.4,13.8-6.6l13.2-6.7c0.6-0.3,1.1-0.6,1.7-0.8
			c0.4,0.6,0.8,1.2,1.2,1.8c2.8,4.2,5.7,8.4,8.8,12.5l4.6,6.2l4.8,6c3.2,4,6.5,7.9,9.9,11.8c1.7,1.9,3.5,3.8,5.2,5.7
			c1.7,1.9,3.6,3.7,5.4,5.5c1.8,1.8,3.7,3.6,5.6,5.4c1.9,1.8,3.7,3.6,5.7,5.2l6,5c2,1.6,4,3.3,6.2,4.7c2.1,1.5,4.2,3,6.5,4.4
			c2.2,1.4,4.4,2.7,6.8,3.9l1.1-1.1c-3.6-3.6-7-7.2-10.3-10.9c-3.3-3.7-6.6-7.6-9.7-11.4c-6.3-7.7-12.4-15.7-18.2-23.9
			c-11.7-16.3-22.5-33.2-32.9-50.3l-0.7-1.2l-1.3,0.6c-18.3,8.6-35.3,19.5-53.3,28l-0.7,0.3l-0.1,0.8l-3.2,34l-2.9,34.1l1.6,0.2
			C159.3,197.3,160.2,194.6,161.2,191.8z"/>
		<path class="st2" d="M692.9,79.7c3.3-1.7,6.6-3.4,9.8-5c6.5-3.3,13-6.5,19.3-9.7c6.3-3.2,12.6-6.1,18.7-9.3c3-1.5,6-3,8.9-4.5
			c3.1-1.5,5.8-2.7,8.6-4c2.7-1.3,5.6-2.3,8.4-3.4c2.8-1.1,5.6-1.9,8.3-2.9c2.8-0.9,5.5-1.7,8.2-2.5c2.7-0.7,5.4-1.4,8.1-2
			c10.6-2.2,20.7-3.6,29.7-4.2c9-0.6,17-0.7,23.6-0.5c3.3,0.1,6.2,0.3,8.8,0.3c2.6,0.2,4.8,0.3,6.5,0.4c3.6,0.3,5.5,0.5,5.5,0.5
			l0.4-1.6c0,0-1.9-0.4-5.3-1.2c-3.5-0.7-8.6-1.8-15.3-2.8c-13.2-2-32.4-3.6-55.2-0.6c-11.4,1.5-23.5,4.4-35.9,9
			c-12.3,4.7-24.8,10.5-37.8,16.3c-26,11.8-53.4,24.9-80.8,38.1c-13.7,6.6-27.3,13.5-40.7,20.1c-13.4,6.7-26.6,13.2-39.4,19.6
			c-25.5,12.7-49.3,24.5-69.8,34.7c-20.4,10.1-37.4,18.8-49.3,24.7c-11.9,6-18.7,9.4-18.7,9.4l0.7,1.4c0,0,1.8-0.6,5.2-1.8
			c3.4-1.2,8.4-2.8,14.7-5.2c6.3-2.3,13.9-5.1,22.6-8.5c8.7-3.4,18.4-7.1,29-11.5c5.3-2.2,10.8-4.4,16.5-6.7
			c5.7-2.3,11.5-4.9,17.5-7.5c12-5.2,24.7-10.5,37.7-16.5c6.5-3,13.1-5.9,19.8-9c6.7-3,13.4-6.1,20.2-9.4c6.7-3.2,13.5-6.5,20.4-9.8
			c3.4-1.6,6.8-3.2,10.2-4.9l10.3-4.8c13.6-6.7,27.2-13.4,40.6-20C686.3,82.9,689.6,81.3,692.9,79.7z"/>
		<path class="st2" d="M905.6,45c-6.4-3.1-13-5.6-19.7-7.8l-0.5,1.5c3.3,1.2,6.5,2.5,9.7,3.9c2.4,1,4.8,2.2,7.2,3.3l-58,37.2
			l-59.6,38.4c-3,0.5-5.9,1.2-8.8,1.8c-2.9,0.7-5.7,1.6-8.6,2.4c-2.9,0.7-5.6,1.9-8.4,2.8c-2.7,1-5.6,1.9-8.3,3.1
			c-2.7,1.1-5.4,2.3-8,3.6l-4,1.9l-3.9,2.1c-2.6,1.4-5.1,2.8-7.6,4.4l-3.8,2.3l-3.7,2.5l-3.7,2.5l-3.6,2.7c-2.4,1.7-4.7,3.6-7,5.5
			c-2.3,1.8-4.5,3.9-6.7,5.9c-2.2,2-4.2,4.3-6.3,6.5c-2.1,2.2-4.1,4.4-5.9,6.8c-1.9,2.4-3.7,4.7-5.4,7.3c-0.8,1.3-1.7,2.6-2.5,3.9
			c-0.8,1.3-1.6,2.6-2.3,4c-1.5,2.7-2.8,5.5-3.9,8.4l1.1,1.2c4.3-3.8,8.6-7.6,13.1-11.2c2.3-1.8,4.4-3.7,6.7-5.4
			c2.3-1.8,4.5-3.6,6.8-5.2c4.6-3.4,9.2-6.8,13.9-10c4.7-3.3,9.5-6.4,14.3-9.5c9.6-6.2,19.4-12.2,29.3-18
			c9.9-5.8,19.9-11.3,29.9-17.1l0.1,0l0,0l118-80l1.2-0.8L905.6,45z"/>
	</g>
</g>
<g>
	<path class="st2" d="M299.7,516.9c-1.9-0.3-3.8-0.5-5.5-0.5c-4.6,0-8.7,0.9-12.2,2.7c-3.5,1.8-6.4,4.1-8.8,7
		c-2.3,2.9-4.1,6.2-5.3,9.8c-1.2,3.6-1.8,7.4-1.8,11.1c0,4.5,1,8.1,3,10.7c2,2.7,5,4,8.9,4c2.1,0,4.1-0.4,5.9-1.3
		c1.8-0.8,3.4-1.9,4.8-3.1c1.1-1,2.1-2,3-3.1c-0.1,0.6-0.1,1-0.1,1.5c0,1.4,0.1,2.8,0.3,4.2l0.1,0.7l0.7,0.1
		c0.3,0.1,0.8,0.1,1.4,0.1c0.6,0,1,0,1.4,0c0.4,0,0.9,0,1.5,0c0.6,0,1.1-0.1,1.4-0.1l1-0.2l-0.2-1c-0.1-0.5-0.2-1-0.2-1.5
		c0-0.4,0-1,0-1.8c0-1.9,0.2-3.9,0.6-5.9c0.4-2.1,0.9-4.7,1.4-7.8l4.3-24.2l-0.8-0.3C303.2,517.6,301.6,517.2,299.7,516.9z
		 M292.5,523.1c1.7,0,3.2,0.1,4.4,0.3l-1.7,9c-0.6,3-1.4,5.9-2.4,8.6c-1,2.7-2.3,5.2-3.7,7.2c-1.4,2-3,3.7-4.7,4.9
		c-1.7,1.2-3.3,1.8-5.1,1.8c-1.8,0-3.2-0.7-4.1-2.2c-1-1.6-1.5-3.8-1.5-6.7c0-3.3,0.5-6.4,1.5-9.1c1-2.8,2.3-5.2,4-7.3
		c1.7-2,3.7-3.7,6-4.8C287.5,523.7,289.9,523.1,292.5,523.1z"/>
	<path class="st2" d="M338.2,516.4c-2.1,0-4.1,0.4-6,1.3c-1.8,0.8-3.4,1.9-4.8,3.1c-1.1,1-2.2,2.1-3.1,3.2c0.1-0.8,0.1-1.6,0.1-2.4
		c0-0.8,0-1.4,0-2c0-0.6-0.1-1.1-0.2-1.6l-0.2-0.6l-0.6-0.1c-0.3-0.1-0.8-0.1-1.4-0.1c-0.6,0-1,0-1.4,0c-0.4,0-0.9,0-1.5,0
		c-0.6,0-1.1,0.1-1.5,0.1l-1,0.2l0.2,1c0.1,0.6,0.2,1,0.2,1.5c0,0.4,0,1,0,1.8c0,1.9-0.2,3.9-0.6,5.9c-0.4,2.1-0.9,4.7-1.4,7.8
		l-4.4,25.1l1,0.2c0.3,0.1,0.8,0.1,1.4,0.1c0.6,0,1,0,1.4,0c0.4,0,0.9,0,1.5,0c0.6,0,1.1-0.1,1.4-0.1l0.7-0.1l2.6-15
		c0.5-2.9,1.3-5.8,2.3-8.5c1-2.7,2.3-5.1,3.7-7.2c1.4-2,2.9-3.7,4.6-4.9c1.6-1.1,3.2-1.7,5-1.7c1.7,0,3.1,0.5,4.1,1.4
		c1,0.9,1.5,2.5,1.5,4.8c0,0.7-0.1,1.6-0.2,2.6c-0.1,1-0.2,2-0.4,2.9l-4.5,25.4l1,0.2c0.3,0.1,0.8,0.1,1.4,0.1c0.6,0,1,0,1.4,0
		c0.4,0,0.9,0,1.5,0c0.6,0,1.1-0.1,1.4-0.1l0.7-0.1l4.7-26.8c0.2-0.9,0.3-1.9,0.4-3c0.1-1.1,0.2-2,0.2-2.9c0-3.7-1-6.6-3-8.6
		C344.5,517.4,341.7,516.4,338.2,516.4z"/>
	<path class="st2" d="M955.8,551.8l-0.6,0.1l-0.2,0.6c-0.2,0.6-0.3,1.2-0.5,1.8c-0.1,0.6-0.3,1.2-0.4,1.8c-0.2,1.1-0.3,2.3-0.3,3.6
		v0.8l0.8,0.2c0.5,0.1,1,0.2,1.7,0.2c0.6,0,1.1,0,1.7,0c1.1,0,2.2-0.1,3.3-0.3l0.6-0.1l0.2-0.6c0.2-0.6,0.3-1.2,0.5-1.8
		c0.1-0.6,0.3-1.2,0.4-1.8c0.2-1.1,0.3-2.3,0.3-3.6V552l-0.8-0.1C960.4,551.5,957.8,551.5,955.8,551.8z"/>
	<path class="st2" d="M847.1,560.8c0.6,0,1.1-0.1,1.4-0.1l1-0.2l-0.2-1c-0.1-0.5-0.2-1-0.2-1.5c0-0.4,0-1,0-1.8
		c0-1.9,0.2-3.9,0.6-5.9c0.4-2.1,0.9-4.7,1.4-7.8l4.3-24.2l-0.8-0.3c-1.2-0.5-2.8-0.8-4.7-1.1c-1.9-0.3-3.8-0.5-5.5-0.5
		c-4.6,0-8.7,0.9-12.2,2.7c-3.5,1.8-6.4,4.1-8.8,7c-2.3,2.9-4.1,6.2-5.3,9.8c-1.2,3.6-1.8,7.4-1.8,11.1c0,4.5,1,8.1,3,10.7
		c2,2.7,5,4,8.9,4c2.1,0,4.1-0.4,5.9-1.3c1.8-0.8,3.4-1.9,4.8-3.1c1.1-1,2.1-2,3-3.1c-0.1,0.6-0.1,1-0.1,1.5c0,1.4,0.1,2.8,0.2,4.2
		l0.1,0.7l0.7,0.1c0.3,0.1,0.8,0.1,1.4,0.1c0.6,0,1,0,1.4,0C846,560.9,846.5,560.8,847.1,560.8L847.1,560.8z M842.8,523.1
		c1.7,0,3.2,0.1,4.4,0.3l-1.7,9c-0.6,3-1.4,5.9-2.4,8.6c-1,2.7-2.3,5.2-3.7,7.2c-1.4,2-2.9,3.7-4.7,4.9c-1.7,1.2-3.3,1.8-5.1,1.8
		c-1.8,0-3.2-0.7-4.1-2.2c-1-1.6-1.5-3.8-1.5-6.7c0-3.3,0.5-6.4,1.5-9.1c1-2.8,2.3-5.2,4-7.3c1.7-2,3.7-3.7,6-4.8
		C837.7,523.7,840.2,523.1,842.8,523.1z"/>
	<path class="st2" d="M455.9,516.9c-1.9-0.3-3.8-0.5-5.5-0.5c-4.6,0-8.7,0.9-12.2,2.7c-3.5,1.8-6.4,4.1-8.8,7
		c-2.3,2.9-4.1,6.2-5.3,9.8c-1.2,3.6-1.8,7.4-1.8,11.1c0,4.5,1,8.1,3,10.7c2,2.7,5,4,8.9,4c2.1,0,4.1-0.4,5.9-1.3
		c1.8-0.8,3.4-1.9,4.8-3.1c1.1-1,2.1-2,3-3.1c-0.1,0.6-0.1,1-0.1,1.5c0,1.4,0.1,2.8,0.2,4.2l0.1,0.7l0.7,0.1
		c0.3,0.1,0.8,0.1,1.4,0.1c0.6,0,1,0,1.4,0c0.4,0,0.9,0,1.5,0c0.6,0,1.1-0.1,1.4-0.1l1-0.2l-0.2-1c-0.1-0.5-0.2-1-0.2-1.5
		c0-0.4,0-1,0-1.8c0-1.9,0.2-3.9,0.6-5.9c0.4-2.1,0.9-4.7,1.4-7.8l4.3-24.2l-0.8-0.3C459.5,517.6,457.9,517.2,455.9,516.9z
		 M448.8,523.1c1.7,0,3.2,0.1,4.4,0.3l-1.7,9c-0.6,3-1.4,5.9-2.4,8.6c-1,2.7-2.3,5.2-3.7,7.2c-1.4,2-2.9,3.7-4.7,4.9
		c-1.7,1.2-3.3,1.8-5.1,1.8c-1.8,0-3.2-0.7-4.1-2.2c-1-1.6-1.5-3.8-1.5-6.7c0-3.3,0.5-6.4,1.5-9.1c1-2.8,2.3-5.2,4-7.3
		c1.7-2,3.7-3.7,6-4.8C443.8,523.7,446.2,523.1,448.8,523.1z"/>
	<path class="st2" d="M954.1,518.5v-0.7l-0.6-0.3c-0.4-0.1-0.8-0.2-1.4-0.3c-0.5,0-1,0-1.4,0c-1.7,0-3.2,0.2-4.5,0.6
		c-1.3,0.4-2.6,1-3.7,1.6c-1.1,0.7-2.1,1.5-3.1,2.4c-0.2,0.2-0.4,0.4-0.6,0.5c0-0.3,0-0.7,0-1.1c0-0.8,0-1.4,0-1.8
		c0-0.5-0.1-1-0.2-1.5l-0.2-0.6l-0.6-0.1c-0.3-0.1-0.8-0.1-1.4-0.1c-0.6,0-1,0-1.4,0c-0.4,0-0.9,0-1.5,0c-0.6,0-1.1,0.1-1.5,0.1
		l-1,0.2l0.2,1c0.1,0.6,0.2,1,0.2,1.5c0,0.4,0,1,0,1.8c0,1.9-0.2,3.9-0.6,5.9c-0.4,2.1-0.9,4.7-1.4,7.8l-4.4,25.1l1,0.2
		c0.3,0.1,0.8,0.1,1.4,0.1c0.6,0,1,0,1.4,0c0.4,0,0.9,0,1.5,0c0.6,0,1.1-0.1,1.4-0.1l0.7-0.1l3.7-21.1c0.5-2.8,1.3-5.2,2.2-7.2
		c0.9-1.9,2-3.5,3.2-4.7c1.2-1.2,2.5-2,3.8-2.5c1.4-0.5,2.7-0.8,4.1-0.8c0.4,0,0.8,0,1.2,0.1c0.5,0.1,0.6,0.1,0.6,0.1l0.8,0.4
		l0.5-0.8c0.6-1,1-2,1.2-3C954,520.1,954.1,519.3,954.1,518.5z"/>
	<path class="st2" d="M511.7,523.3c0.4-0.9,0.6-1.8,0.7-2.6c0.1-0.8,0.1-1.6,0.1-2.3v-1h-10.6l0.4-2.2c0.4-2.1,0.8-3.8,1.4-5.1
		c0.5-1.3,1.2-2.3,1.9-3c0.7-0.7,1.4-1.2,2.3-1.4c0.9-0.3,2-0.4,3.2-0.4c0.8,0,1.4,0.1,2,0.2c0.6,0.1,1.1,0.3,1.6,0.5l0.9,0.4
		l0.4-0.9c0.3-0.7,0.6-1.4,0.9-2c0.3-0.7,0.6-1.5,0.9-2.7l0.2-0.8l-0.8-0.3c-0.7-0.3-1.5-0.5-2.5-0.7c-1-0.2-2.1-0.3-3.3-0.3
		c-4.8,0-8.5,1.4-11.1,4.1c-2.5,2.7-4.2,6.7-5.2,11.9l-0.5,2.8H488l-0.3,0.6c-0.4,0.9-0.6,1.8-0.7,2.6c-0.1,0.8-0.1,1.6-0.1,2.3v1
		h6.5l-7,39.9c-0.4,2.2-0.8,4-1.4,5.3c-0.5,1.3-1.1,2.3-1.8,2.9c-0.7,0.6-1.4,1.1-2.3,1.3c-1,0.2-2.1,0.4-3.3,0.4
		c-0.8,0-1.5-0.1-2.1-0.2c-0.6-0.1-1.1-0.3-1.6-0.5l-0.9-0.4l-0.4,0.9c-0.3,0.8-0.6,1.4-0.9,2c-0.3,0.6-0.5,1.5-0.8,2.6l-0.2,0.8
		l0.8,0.3c0.7,0.3,1.5,0.5,2.5,0.7c1,0.2,2.1,0.3,3.3,0.3c4.8,0,8.5-1.3,11.1-3.9c2.5-2.5,4.3-6.6,5.2-12.2l7.1-40.5h10.6
		L511.7,523.3z"/>
	<path class="st2" d="M422.9,524.1c0.6-1,1-2,1.2-3c0.2-0.9,0.3-1.8,0.3-2.6v-0.7l-0.6-0.3c-0.4-0.1-0.8-0.2-1.4-0.3h0
		c-0.5,0-1,0-1.4,0c-1.7,0-3.2,0.2-4.5,0.6c-1.3,0.4-2.6,1-3.7,1.6c-1.1,0.7-2.1,1.5-3.1,2.4c-0.2,0.2-0.4,0.4-0.6,0.5
		c0-0.3,0-0.7,0-1.1c0-0.8,0-1.4,0-1.8c0-0.5-0.1-1-0.2-1.5l-0.2-0.6l-0.6-0.1c-0.3-0.1-0.8-0.1-1.4-0.1c-0.6,0-1,0-1.4,0
		c-0.4,0-0.9,0-1.5,0c-0.6,0-1.1,0.1-1.5,0.1l-1,0.2l0.2,1c0.1,0.6,0.2,1,0.2,1.5c0,0.4,0,1,0,1.8c0,1.9-0.2,3.9-0.6,5.9
		c-0.4,2.1-0.9,4.7-1.4,7.8l-4.4,25.1l1,0.2c0.3,0.1,0.8,0.1,1.4,0.1c0.6,0,1,0,1.4,0c0.4,0,0.9,0,1.5,0c0.6,0,1.1-0.1,1.4-0.1
		l0.7-0.1l3.7-21.1c0.5-2.8,1.3-5.2,2.2-7.2c0.9-1.9,2-3.5,3.2-4.7c1.2-1.2,2.5-2,3.8-2.5c1.4-0.5,2.7-0.8,4.1-0.8
		c0.4,0,0.8,0,1.2,0.1c0.5,0.1,0.6,0.1,0.6,0.1l0.8,0.4L422.9,524.1z"/>
	<path class="st2" d="M88.8,516.4c-1.7-0.1-3.4,0-5,0.2l-0.6,0.1l-0.2,0.6c-0.2,0.6-0.3,1.2-0.5,1.8c-0.1,0.6-0.3,1.2-0.4,1.8
		c-0.2,1.1-0.3,2.3-0.3,3.6v0.8l0.8,0.2c0.9,0.2,2,0.3,3.3,0.3c1.2,0,2.3-0.1,3.3-0.3l0.6-0.1l0.2-0.6c0.2-0.6,0.3-1.2,0.5-1.8
		c0.1-0.6,0.3-1.2,0.4-1.8c0.2-1.1,0.3-2.3,0.3-3.6v-0.8l-0.8-0.2C89.9,516.6,89.4,516.5,88.8,516.4z"/>
	<path class="st2" d="M116.1,500.6l-1-0.1c-0.4-0.1-0.8-0.1-1.3-0.1c-0.9-0.1-2.1-0.1-3.3,0c-0.6,0-1,0.1-1.4,0.1l-0.7,0.1
		l-10.5,60.1H129l0.3-0.6c0.3-0.9,0.6-1.8,0.7-2.7c0.1-0.9,0.2-1.8,0.3-2.7l0.1-1.1h-23.5L116.1,500.6z"/>
	<path class="st2" d="M85.4,533.1L85.4,533.1c-0.9-0.1-1.9-0.1-2.8,0c-0.5,0-0.9,0.1-1.4,0.1l-0.7,0.1l-7.9,43.4l1.1,0.1
		c0.6,0.1,1.1,0.1,1.6,0.1c0.5,0,1,0,1.6,0c0.5,0,1,0,1.4,0c0.5,0,0.9-0.1,1.4-0.1l0.7-0.1l7.3-43.4l-1-0.1
		C86.3,533.2,85.8,533.2,85.4,533.1z"/>
	<path class="st2" d="M249.2,516.4c-3.2,0-6.1,0.8-8.8,2.5c-2,1.2-3.8,2.8-5.4,4.8c-0.5-1.8-1.3-3.3-2.5-4.6
		c-1.7-1.8-4.2-2.7-7.4-2.7c-3.2,0-6.1,0.8-8.7,2.5c-1.5,1-2.9,2.1-4.1,3.3c0-0.3,0-0.6,0-1c0-0.8,0-1.4,0-1.8c0-0.5-0.1-1-0.2-1.5
		l-0.2-0.6l-0.6-0.1c-0.3-0.1-0.8-0.1-1.4-0.1c-0.6,0-1,0-1.4,0c-0.4,0-0.9,0-1.5,0c-0.6,0-1.1,0.1-1.5,0.1l-1,0.2l0.2,1
		c0.1,0.6,0.2,1,0.2,1.5c0,0.4,0,1,0,1.8c0,1.9-0.2,3.9-0.6,5.9c-0.4,2.1-0.9,4.7-1.4,7.8l-4.4,25.1l1,0.2c0.3,0.1,0.8,0.1,1.4,0.1
		c0.6,0,1,0,1.4,0c0.4,0,0.9,0,1.5,0c0.6,0,1.1-0.1,1.4-0.1l0.7-0.1l3.5-20.2c0.5-3.1,1.3-5.8,2.3-8c1-2.2,2.1-4,3.2-5.3
		c1.1-1.3,2.4-2.3,3.7-2.9c1.3-0.6,2.6-0.9,3.9-0.9c1.8,0,3.2,0.5,3.9,1.4c0.8,1,1.2,2.6,1.2,4.9c0,0.7-0.1,1.6-0.2,2.5
		c-0.1,1-0.2,2-0.4,2.9l-4.5,25.4l1,0.2c0.3,0.1,0.8,0.1,1.4,0.1c0.6,0,1,0,1.4,0c0.4,0,0.9,0,1.5,0c0.6,0,1.1-0.1,1.4-0.1l0.7-0.1
		l3.5-20.2c0.5-3.1,1.3-5.8,2.3-8c1-2.2,2.1-4,3.2-5.3c1.1-1.3,2.4-2.3,3.7-2.9c1.3-0.6,2.6-0.9,3.9-0.9c1.8,0,3.2,0.5,3.9,1.4
		c0.8,1,1.2,2.6,1.2,4.9c0,0.7-0.1,1.6-0.2,2.5c-0.1,1-0.2,2-0.4,2.9l-4.5,25.4l1,0.2c0.3,0.1,0.8,0.1,1.4,0.1c0.6,0,1,0,1.4,0
		c0.4,0,0.9,0,1.5,0c0.6,0,1.1-0.1,1.4-0.1l0.7-0.1l4.7-26.8c0.2-0.9,0.3-1.9,0.4-3c0.1-1.1,0.2-2,0.2-2.9
		C259.6,518.4,253.9,516.4,249.2,516.4z"/>
	<path class="st2" d="M169.5,516.9c-1.9-0.3-3.8-0.5-5.5-0.5c-4.6,0-8.7,0.9-12.2,2.7c-3.5,1.8-6.4,4.1-8.8,7
		c-2.3,2.9-4.1,6.2-5.3,9.8c-1.2,3.6-1.8,7.4-1.8,11.1c0,4.5,1,8.1,3,10.7c2,2.7,5,4,8.9,4c2.1,0,4.1-0.4,5.9-1.3
		c1.8-0.8,3.4-1.9,4.8-3.1c1.1-1,2.1-2,3-3.1c-0.1,0.6-0.1,1-0.1,1.5c0,1.4,0.1,2.8,0.3,4.2l0.1,0.7l0.7,0.1
		c0.3,0.1,0.8,0.1,1.4,0.1c0.6,0,1,0,1.4,0c0.4,0,0.9,0,1.5,0c0.6,0,1.1-0.1,1.4-0.1l1-0.2l-0.2-1c-0.1-0.5-0.2-1-0.2-1.5
		c0-0.4,0-1,0-1.8c0-1.9,0.2-3.9,0.6-5.9c0.4-2.1,0.9-4.7,1.4-7.8l4.3-24.2l-0.8-0.3C173,517.6,171.4,517.2,169.5,516.9z
		 M162.3,523.1c1.7,0,3.2,0.1,4.4,0.3l-1.7,9c-0.6,3-1.4,5.9-2.4,8.6c-1,2.7-2.3,5.2-3.7,7.2c-1.4,2-3,3.7-4.7,4.9
		c-1.7,1.2-3.3,1.8-5.1,1.8c-1.8,0-3.2-0.7-4.1-2.2c-1-1.6-1.5-3.8-1.5-6.7c0-3.3,0.5-6.4,1.5-9.1c1-2.8,2.3-5.2,4-7.3
		c1.7-2,3.7-3.7,6-4.8C157.3,523.7,159.8,523.1,162.3,523.1z"/>
	<path class="st2" d="M971.3,500.4c-0.6-0.1-1.1-0.1-1.6-0.1l0,0c-1.1-0.1-2.1-0.1-3,0c-0.5,0-0.9,0.1-1.4,0.1l-0.7,0.1l-7.3,43.4
		l1,0.1c0.4,0.1,0.8,0.1,1.2,0.1c0.4,0,0.9,0,1.4,0c0.5,0,1,0,1.4,0c0.5,0,0.9-0.1,1.4-0.1l0.7-0.1l7.9-43.4L971.3,500.4z"/>
	<path class="st2" d="M389.3,519.3c-2-1.9-4.9-2.9-8.8-2.9c-3.6,0-6.9,0.8-9.8,2.5c-2.9,1.7-5.5,3.8-7.6,6.4
		c-2.1,2.6-3.7,5.6-4.9,8.9c-1.2,3.3-1.8,6.7-1.8,10.1c0,2.3,0.3,4.5,0.8,6.5c0.6,2.1,1.6,4,2.9,5.6c1.4,1.6,3.2,2.9,5.4,3.8
		c2.2,0.9,4.9,1.4,8.1,1.4c1.2,0,2.4-0.1,3.8-0.3c1.3-0.2,2.6-0.4,3.9-0.6c1.3-0.2,2.5-0.5,3.6-0.9c1.1-0.3,2.1-0.7,2.9-1l0.6-0.3
		V558c0-0.7-0.1-1.5-0.2-2.4c-0.1-0.9-0.4-1.7-0.7-2.4l-0.4-0.8l-0.9,0.3c-0.6,0.2-1.4,0.5-2.3,0.7c-0.9,0.3-1.8,0.5-2.9,0.8
		c-1,0.2-2,0.4-3.2,0.6c-1.1,0.2-2.1,0.2-3.1,0.2c-3.8,0-6.6-1-8.2-3c-1.7-2-2.6-4.9-2.6-8.5v-0.3l5.1-0.8c3.2-0.5,6.2-1.1,8.9-1.9
		c2.8-0.8,5.3-1.8,7.3-3c2.1-1.2,3.8-2.8,5-4.6c1.2-1.8,1.9-4,1.9-6.6C392.3,523.6,391.3,521.3,389.3,519.3L389.3,519.3z
		 M365.2,536.6c0.4-1.4,1-2.8,1.7-4.2c1-1.8,2.1-3.5,3.4-4.8c1.3-1.4,2.8-2.5,4.3-3.3c1.5-0.8,3.2-1.2,5-1.2c1.7,0,3,0.4,3.9,1.1
		c0.8,0.7,1.2,1.6,1.2,2.8c0,2.4-1.3,4.3-4,5.7c-2.9,1.5-7.1,2.7-12.5,3.5L365.2,536.6z"/>
	<path class="st2" d="M786.8,517.4l-0.8,0.1v1.2c0,0.2,0,0.8-0.3,2.1c-0.2,1-0.6,2.1-1.2,3.1l-13.9,26.7l-5.5-33l-0.7-0.1
		c-0.5-0.1-1-0.2-1.5-0.2c-0.4,0-0.9,0-1.6,0c-1,0-2,0.1-3,0.3l-1,0.2l7.9,42.9l0.6,0.2c0.5,0.1,1,0.2,1.6,0.2c0.6,0,1.1,0,1.5,0
		c0.9,0,1.9-0.1,2.8-0.3l0.5-0.1l19.4-35.2c0.9-1.6,1.5-2.9,1.8-3.8c0.3-1,0.5-1.9,0.5-2.9v-1.2l-0.8-0.1
		C791.2,517.1,789,517,786.8,517.4z"/>
	<path class="st2" d="M730.6,519.3c-2-1.9-4.9-2.9-8.8-2.9c-3.6,0-6.9,0.8-9.8,2.5c-2.9,1.7-5.5,3.8-7.6,6.4
		c-2.1,2.6-3.7,5.6-4.9,8.9c-1.2,3.3-1.8,6.7-1.8,10.1c0,2.3,0.3,4.5,0.8,6.5c0.6,2.1,1.6,4,2.9,5.6c1.4,1.6,3.2,2.9,5.4,3.8
		c2.2,0.9,4.9,1.4,8.1,1.4c1.2,0,2.4-0.1,3.8-0.3c1.3-0.2,2.6-0.4,3.9-0.6c1.3-0.2,2.5-0.5,3.6-0.9c1.1-0.3,2.1-0.7,2.9-1l0.6-0.3
		V558c0-0.7-0.1-1.5-0.2-2.4c-0.1-0.9-0.4-1.7-0.7-2.4l-0.4-0.8l-0.9,0.3c-0.6,0.2-1.4,0.5-2.3,0.7c-0.9,0.3-1.8,0.5-2.9,0.8
		c-1,0.2-2,0.4-3.2,0.6c-1.1,0.2-2.1,0.2-3.1,0.2c-3.8,0-6.5-1-8.2-3c-1.7-2-2.6-4.9-2.6-8.5v-0.3l5.1-0.8c3.2-0.5,6.2-1.1,8.9-1.9
		c2.8-0.8,5.3-1.8,7.3-3c2.1-1.2,3.8-2.8,5-4.6c1.2-1.8,1.9-4,1.9-6.6C733.6,523.6,732.6,521.3,730.6,519.3L730.6,519.3z
		 M706.5,536.6c0.4-1.4,1-2.8,1.7-4.2c1-1.8,2.1-3.5,3.4-4.8c1.3-1.4,2.8-2.5,4.3-3.3c1.5-0.8,3.2-1.2,5-1.2c1.7,0,3,0.4,3.9,1.1
		c0.8,0.7,1.2,1.6,1.2,2.8c0,2.4-1.3,4.3-4,5.7c-2.9,1.5-7.1,2.7-12.5,3.5L706.5,536.6z"/>
	<path class="st2" d="M695,499.2l-0.7-0.1c-0.3-0.1-0.8-0.1-1.4-0.1h-1.3c-0.4,0-0.9,0-1.5,0c-0.7,0-1.2,0.1-1.5,0.1l-0.9,0.1
		l0.1,0.9c0.1,0.6,0.1,1,0.1,1.4v1.7c0,1.9-0.2,4-0.6,6.2l-1.3,7.1c-0.4-0.1-0.9-0.1-1.4-0.1c-0.9-0.1-1.7-0.1-2.4-0.1
		c-4.6,0-8.7,0.9-12.2,2.7c-3.5,1.8-6.4,4.1-8.8,7c-2.3,2.9-4.1,6.2-5.3,9.8c-1.2,3.6-1.8,7.4-1.8,11.1c0,4.5,1,8.1,3,10.7
		c2,2.7,5,4,8.9,4c2.1,0,4.1-0.4,5.9-1.3c1.8-0.8,3.4-1.9,4.8-3.1c1.1-1,2.1-2,3-3.1c0,0.3-0.1,0.6-0.1,0.8
		c-0.1,0.6-0.1,1.2-0.1,1.6c0,0.8,0,1.4,0,1.8c0,0.5,0.1,1,0.2,1.5l0.2,0.6l0.6,0.1c0.3,0.1,0.8,0.1,1.4,0.1c0.6,0,1,0,1.4,0
		c0.4,0,0.9,0,1.5,0c0.6,0,1.1-0.1,1.4-0.1l1-0.2l-0.2-1c-0.1-0.5-0.2-1-0.2-1.5c0-0.4,0-1,0-1.8c0-1.9,0.2-3.9,0.6-5.9
		c0.4-2.1,0.9-4.7,1.4-7.8l4.9-27.8c0.2-0.9,0.3-1.9,0.5-3l0.5-3.2c0.2-1.1,0.3-2.1,0.4-3.1c0.1-1,0.1-1.8,0.1-2.5v-1.3
		c0-0.5,0-1-0.1-1.7L695,499.2z M680.4,523.1c1.7,0,3.2,0.1,4.4,0.3l-1.7,9c-0.6,3-1.4,5.9-2.4,8.6c-1,2.7-2.3,5.2-3.7,7.2
		c-1.4,2-2.9,3.7-4.7,4.9c-1.7,1.2-3.3,1.8-5.1,1.8c-1.8,0-3.2-0.7-4.1-2.2c-1-1.6-1.5-3.8-1.5-6.7c0-3.3,0.5-6.4,1.5-9.1
		c1-2.8,2.3-5.2,4-7.3c1.7-2,3.7-3.7,6-4.8C675.4,523.7,677.8,523.1,680.4,523.1z"/>
	<path class="st2" d="M875.6,500.3c-0.7,0-1.2,0-1.7,0c-0.5,0-1.1,0-1.8,0c-0.7,0-1.3,0.1-1.9,0.1l-0.7,0.1l-0.2,0.7
		c-0.1,0.4-0.2,1-0.4,1.7c-0.1,0.6-0.3,1.2-0.4,1.6c-0.1,0.5-0.2,1.1-0.3,1.9c-0.1,0.7-0.2,1.3-0.2,1.8l-0.1,1l1,0.1
		c0.5,0.1,1.1,0.1,1.9,0.1c0.7,0,1.3,0,1.8,0c0.4,0,1,0,1.7,0c0.7,0,1.2-0.1,1.7-0.1l0.7-0.1l0.2-0.7c0.1-0.5,0.2-1.1,0.4-1.8
		c0.2-0.7,0.3-1.3,0.4-1.8c0.1-0.5,0.2-1.1,0.3-1.8c0.1-0.6,0.1-1.2,0.2-1.6l0.1-1l-1-0.1C876.9,500.4,876.3,500.4,875.6,500.3z"/>
	<path class="st2" d="M798.7,518.1c-0.2,0.8-0.4,1.6-0.5,2.4c-0.1,0.8-0.2,1.6-0.2,2.4v1h4.8l-6.4,36.6l1,0.2
		c0.3,0.1,0.8,0.1,1.4,0.1c0.6,0,1,0,1.3,0c0.4,0,0.9,0,1.5,0c0.6,0,1.1-0.1,1.5-0.1l0.7-0.1l7.5-43.2h-12.3L798.7,518.1z"/>
	<path class="st2" d="M864.1,518.1c-0.2,0.8-0.4,1.6-0.5,2.4c-0.1,0.8-0.2,1.6-0.2,2.4v1h4.8l-7.4,42.3c-0.5,2.8-1.4,4.8-2.6,5.9
		c-1.3,1.1-2.8,1.6-4.6,1.6c-0.7,0-1.5-0.1-2.5-0.2c-0.9-0.1-1.6-0.3-2.2-0.5l-0.8-0.3l-0.4,0.7c-0.4,0.6-0.7,1.4-1,2.4
		c-0.3,1-0.5,1.8-0.6,2.4l-0.1,0.8l0.7,0.3c1.8,0.8,4.2,1.1,7,1.1c4.4,0,7.7-1.3,10-3.9c2.1-2.5,3.6-6.1,4.5-10.7l8.6-48.5h-12.3
		L864.1,518.1z"/>
	<path class="st2" d="M810.2,500.3c-0.7,0-1.2,0-1.7,0c-0.5,0-1.1,0-1.8,0c-0.7,0-1.3,0.1-1.9,0.1l-0.7,0.1l-0.2,0.7
		c-0.1,0.4-0.2,1-0.4,1.7c-0.1,0.6-0.3,1.2-0.4,1.6c-0.1,0.5-0.2,1.1-0.3,1.9c-0.1,0.7-0.2,1.3-0.2,1.8l-0.1,1l1,0.1
		c0.5,0.1,1.1,0.1,1.9,0.1c0.7,0,1.3,0,1.8,0c0.4,0,1,0,1.7,0c0.7,0,1.2-0.1,1.7-0.1l0.7-0.1l0.2-0.7c0.1-0.5,0.2-1.1,0.4-1.8
		c0.2-0.7,0.3-1.3,0.4-1.8c0.1-0.5,0.2-1.1,0.3-1.8c0.1-0.6,0.1-1.2,0.2-1.6l0.1-1l-1-0.1C811.5,500.4,810.9,500.4,810.2,500.3z"/>
	<path class="st2" d="M606.1,500.3c-0.7,0-1.2,0-1.7,0c-0.5,0-1.1,0-1.8,0c-0.7,0-1.3,0.1-1.9,0.1l-0.7,0.1l-0.2,0.7
		c-0.1,0.4-0.2,1-0.4,1.7c-0.1,0.6-0.3,1.2-0.4,1.6c-0.1,0.5-0.2,1.1-0.3,1.9c-0.1,0.7-0.2,1.3-0.2,1.8l-0.1,1l1,0.1
		c0.5,0.1,1.1,0.1,1.9,0.1c0.7,0,1.3,0,1.8,0c0.4,0,1,0,1.7,0c0.7,0,1.2-0.1,1.7-0.1l0.7-0.1l0.2-0.7c0.1-0.5,0.2-1.1,0.4-1.8
		c0.2-0.7,0.3-1.3,0.4-1.8c0.1-0.5,0.2-1.1,0.3-1.8c0.1-0.6,0.1-1.2,0.2-1.6l0.1-1l-1-0.1C607.3,500.4,606.8,500.4,606.1,500.3z"/>
	<path class="st2" d="M628.7,499.2l-0.7-0.1c-0.3-0.1-0.8-0.1-1.4-0.1h-1.3c-0.4,0-0.9,0-1.5,0c-0.7,0-1.2,0.1-1.5,0.1l-0.9,0.1
		l0.1,0.9c0.1,0.6,0.1,1,0.1,1.4v1.7c0,1.9-0.2,3.9-0.6,6.1c-0.4,2.2-0.8,4.9-1.4,7.9l-6,33.9c-0.2,1-0.3,1.9-0.3,2.7
		c0,1.4,0.3,2.7,0.8,3.7c0.5,1,1.2,1.8,2.1,2.4c0.8,0.6,1.8,0.9,2.8,1.2c1,0.2,2,0.3,3,0.3c0.9,0,1.8-0.1,3-0.2
		c1.1-0.1,2.2-0.4,3-0.7l0.6-0.2l0.1-0.7c0.1-0.7,0-1.5,0-2.3c-0.1-0.9-0.3-1.6-0.5-2.3l-0.3-0.9l-0.9,0.3c-0.3,0.1-0.8,0.2-1.5,0.3
		c-1,0.2-2,0.2-3,0.1c-0.3,0-0.5-0.1-0.8-0.3c-0.2-0.1-0.4-0.4-0.6-0.7c-0.1-0.2-0.3-0.7-0.3-1.6c0-0.5,0.1-1.2,0.2-1.9l6.3-35.4
		c0.2-0.9,0.3-1.9,0.5-3c0.2-1.1,0.4-2.2,0.5-3.3c0.1-1.1,0.3-2.1,0.4-3.1c0.1-1,0.2-1.9,0.2-2.5v-1.3c0-0.5,0-1-0.1-1.7
		L628.7,499.2z"/>
	<path class="st2" d="M584.5,517c-1.6-0.4-3.3-0.6-5.1-0.6c-4,0-7.7,0.8-10.8,2.5c-3.1,1.6-5.8,3.8-7.9,6.4
		c-2.1,2.6-3.8,5.6-4.9,8.9c-1.1,3.3-1.7,6.7-1.7,10.1c0,5.4,1.5,9.7,4.4,12.7c2.9,3.1,7.5,4.6,13.6,4.6c0.6,0,1.4,0,2.3-0.1
		c0.9-0.1,1.8-0.2,2.8-0.4c1-0.2,1.9-0.4,2.9-0.6c1-0.2,1.9-0.5,2.7-0.9l0.6-0.3v-0.7c0-0.7-0.1-1.5-0.3-2.4
		c-0.2-0.9-0.4-1.7-0.7-2.4l-0.4-0.8l-0.9,0.3c-1.3,0.4-2.6,0.8-4.1,1.1c-1.5,0.3-2.9,0.4-4.4,0.4c-3.6,0-6.3-0.9-8.2-2.7
		c-1.8-1.8-2.7-4.7-2.7-8.6c0-2.3,0.4-4.7,1.1-7.2c0.7-2.4,1.8-4.6,3.1-6.6c1.4-2,3.1-3.6,5.2-4.9c2-1.2,4.5-1.9,7.3-1.9
		c1.4,0,2.7,0.2,4,0.5c1.3,0.3,2.5,0.6,3.4,1l0.7,0.3l0.4-0.6c0.4-0.6,0.8-1.4,1.1-2.5c0.3-1,0.5-1.9,0.6-2.7l0.1-0.8l-0.7-0.3
		C587.3,517.7,586,517.3,584.5,517z"/>
	<path class="st2" d="M543.3,516.9c-1.9-0.3-3.8-0.5-5.5-0.5c-4.6,0-8.7,0.9-12.2,2.7c-3.5,1.8-6.4,4.1-8.8,7
		c-2.3,2.9-4.1,6.2-5.3,9.8c-1.2,3.6-1.8,7.4-1.8,11.1c0,4.5,1,8.1,3,10.7c2,2.7,5,4,8.9,4c2.1,0,4.1-0.4,5.9-1.3
		c1.8-0.8,3.4-1.9,4.8-3.1c1.1-1,2.1-2,3-3.1c-0.1,0.6-0.1,1-0.1,1.5c0,1.4,0.1,2.8,0.2,4.2l0.1,0.7l0.7,0.1
		c0.3,0.1,0.8,0.1,1.4,0.1c0.6,0,1,0,1.4,0c0.4,0,0.9,0,1.5,0c0.6,0,1.1-0.1,1.4-0.1l1-0.2l-0.2-1c-0.1-0.5-0.2-1-0.2-1.5
		c0-0.4,0-1,0-1.8c0-1.9,0.2-3.9,0.6-5.9c0.4-2.1,0.9-4.7,1.4-7.8l4.3-24.2L548,518C546.8,517.6,545.2,517.2,543.3,516.9z
		 M536.1,523.1c1.7,0,3.2,0.1,4.4,0.3l-1.7,9c-0.6,3-1.4,5.9-2.4,8.6c-1,2.7-2.3,5.2-3.7,7.2c-1.4,2-2.9,3.7-4.7,4.9
		c-1.7,1.2-3.3,1.8-5.1,1.8c-1.8,0-3.2-0.7-4.1-2.2c-1-1.6-1.5-3.8-1.5-6.7c0-3.3,0.5-6.4,1.5-9.1c1-2.8,2.3-5.2,4-7.3
		c1.7-2,3.7-3.7,6-4.8C531.1,523.7,533.5,523.1,536.1,523.1z"/>
	<path class="st2" d="M546.1,500c-0.7,0-1.3,0-2,0h-1.8c-0.7,0-1.3,0.1-2,0.2l-0.4,0.1l-8.8,12.2l1.6,0.3c1,0.2,2,0.3,2.9,0.3
		c1.2,0,2.4-0.1,3.4-0.3l0.4-0.1l10.6-12.3l-1.9-0.2C547.4,500.1,546.7,500,546.1,500z"/>
	<path class="st2" d="M915.1,516.9c-1.9-0.3-3.8-0.5-5.5-0.5c-4.6,0-8.7,0.9-12.2,2.7c-3.5,1.8-6.4,4.1-8.8,7
		c-2.3,2.9-4.1,6.2-5.3,9.8c-1.2,3.6-1.8,7.4-1.8,11.1c0,4.5,1,8.1,3,10.7c2,2.7,5,4,8.9,4c2.1,0,4.1-0.4,5.9-1.3
		c1.8-0.8,3.4-1.9,4.8-3.1c1.1-1,2.1-2,3-3.1c-0.1,0.6-0.1,1-0.1,1.5c0,1.4,0.1,2.8,0.2,4.2l0.1,0.7l0.7,0.1
		c0.3,0.1,0.8,0.1,1.4,0.1c0.6,0,1,0,1.4,0c0.4,0,0.9,0,1.5,0c0.6,0,1.1-0.1,1.4-0.1l1-0.2l-0.2-1c-0.1-0.5-0.2-1-0.2-1.5
		c0-0.4,0-1,0-1.8c0-1.9,0.2-3.9,0.6-5.9c0.4-2.1,0.9-4.7,1.4-7.8l4.3-24.2l-0.8-0.3C918.6,517.6,917,517.2,915.1,516.9z M908,523.1
		c1.7,0,3.2,0.1,4.4,0.3l-1.7,9c-0.6,3-1.4,5.9-2.4,8.6c-1,2.7-2.3,5.2-3.7,7.2c-1.4,2-2.9,3.7-4.7,4.9c-1.7,1.2-3.3,1.8-5.1,1.8
		c-1.8,0-3.2-0.7-4.1-2.2c-1-1.6-1.5-3.8-1.5-6.7c0-3.3,0.5-6.4,1.5-9.1c1-2.8,2.3-5.2,4-7.3c1.7-2,3.7-3.7,6-4.8
		C902.9,523.7,905.4,523.1,908,523.1z"/>
	<path class="st2" d="M594.6,518.1c-0.2,0.8-0.4,1.6-0.5,2.4c-0.1,0.8-0.2,1.6-0.2,2.4v1h4.8l-6.4,36.6l1,0.2
		c0.3,0.1,0.8,0.1,1.4,0.1c0.6,0,1,0,1.3,0c0.4,0,0.9,0,1.5,0c0.6,0,1.1-0.1,1.5-0.1l0.7-0.1l7.5-43.2h-12.3L594.6,518.1z"/>
</g>
</svg>
