<?xml version="1.0" encoding="utf-8"?>
<!-- Generator: Adobe Illustrator 22.0.0, SVG Export Plug-In . SVG Version: 6.00 Build 0)  -->
<svg version="1.1" id="Layer_1" xmlns="http://www.w3.org/2000/svg" xmlns:xlink="http://www.w3.org/1999/xlink" x="0px" y="0px"
	 viewBox="0 0 612 166" style="enable-background:new 0 0 612 166;" xml:space="preserve">
<style type="text/css">
	.st0{fill:url(#SVGID_1_);}
	.st1{fill:#D42027;}
</style>
<g>
	<path d="M137.5,90.5c-3.1,1.5-6.3,2.3-8.8,2.3c-8.3,0-9.9-4.7-9.9-12.8V44.1h20.8v-7.7h-20.8V17.9l-8.5,0.9v17.7h-13v7.7h13V80
		c0,14.1,6,20.9,18.5,20.9c3.6,0,7.6-1.1,12.1-3.2l1.1-0.5l-3.1-7.3L137.5,90.5z"/>
	<path d="M175.9,63.8l-2.2-0.4c-7.4-1.3-16.5-2.9-16.7-9.8c-0.1-2.1,0.7-3.9,2.1-5.4c2.8-2.9,8.5-4.6,15-4.5c6.7,0,12.4,1,18.2,6.1
		l0.9,0.8l5.4-5.8l-0.9-0.9c-6-5.6-14-8.5-23.6-8.5c-8.9-0.1-16.5,2.4-21,6.9c-3.1,3.1-4.6,6.9-4.6,11.5
		c0.1,13.6,13.8,15.9,24.8,17.7c11.1,1.8,19,3.6,18.8,10.8c-0.4,9.4-12.5,10.4-17.7,10.4c-9.1,0-17-3.7-21.3-9.8l-0.8-1.2l-6.4,5.7
		l0.6,0.9c5.2,8,15.6,12.8,27.8,12.8c6.1,0,25.9-1.3,26.4-18.3C201.3,68.1,186.6,65.6,175.9,63.8z"/>
	<path d="M257.3,71.6c0,12-8.4,20.8-20.1,20.9c-6.4,0.1-11.7-1.8-15.2-5.2c-3.5-3.4-5.2-8.3-5.2-14.6V36.4h-8.6v36.5
		c0,17.1,11.3,28.2,28.9,28.2c8.5-0.1,15.7-3.4,20.4-9.1v8.1h8.5V36.4h-8.6V71.6z"/>
	<path d="M308.8,35.6c-10.4,0-19.5,4.4-25.1,12.1V36.5h-8.5v89.1h8.4V89.3c5.5,7.6,14,11.9,23.9,11.9c19.3,0,32.3-13.2,32.3-32.9
		C339.8,49.4,327.3,36.3,308.8,35.6z M307.5,92.8c-13.3,0-23.4-10.5-23.4-24.4c0-14.1,9.8-24.4,23.4-24.4c11.4,0,23.7,6.4,23.7,24.3
		C331.1,86.4,318.9,92.8,307.5,92.8z"/>
	<path d="M389.1,39.6c-4.3-2.6-9-3.9-13.8-3.8c-8.1,0-14.9,3.1-19.1,8.4l-0.2-7.7h-8.2v63.6h8.6V63.2c0-10.6,8.3-19,18.8-19.1
		c3.6,0,6.8,0.9,9.7,2.6l1.2,0.7l4-7.2L389.1,39.6z"/>
	<path d="M444.7,36.5v10.2c-5.4-7-13.9-11-23.7-11c-18.4,0-32.3,14-32.3,32.5c0,18.7,13.9,32.8,32.3,32.8c9.6,0,17.8-3.9,23.7-11.2
		v10.2h8.6V36.5H444.7z M421,44.1c16.6,0,24.2,12.6,24.2,24.2c0,11.7-7.6,24.2-24.2,24.2c-13.7,0-23.7-10.2-23.7-24.3
		C397.4,54.3,407.3,44.1,421,44.1z"/>
</g>
<g>
	<path d="M516.3,71.3c-2.4-2.2-5.1-3-8.2-3c-3.9,0-6.1,1.2-6.1,3.3c0,2.2,2,3.4,6.2,3.6c6.3,0.4,14.3,1.8,14.3,10.7
		c0,5.9-4.8,10.9-14.3,10.9c-5.3,0-10.5-0.9-15.4-5.9l4.1-5.9c2.4,2.6,7.8,4.6,11.5,4.7c3.1,0.1,6-1.6,6-4c0-2.3-1.9-3.2-6.6-3.5
		c-6.3-0.5-13.8-2.8-13.8-10.3c0-7.7,8-10.4,14.1-10.4c5.2,0,9.1,1,13,4.4L516.3,71.3z"/>
	<path d="M532.6,91.5c0,6.4-9.7,6.4-9.7,0C522.9,85.1,532.6,85.1,532.6,91.5z"/>
	<path d="M562.9,62.5h7.9v33.3H563l-0.4-4.9c-1.9,3.9-7.1,5.8-10.8,5.9c-9.9,0.1-17.2-6-17.2-17.7c0-11.5,7.6-17.5,17.4-17.4
		c4.5,0,8.7,2.1,10.6,5.4L562.9,62.5z M542.9,79.1c0,6.3,4.4,10.1,9.9,10.1c13,0,13-20.2,0-20.2C547.3,69,542.9,72.7,542.9,79.1z"/>
	<path d="M582.7,91.5c0,6.4-9.7,6.4-9.7,0C573,85.1,582.7,85.1,582.7,91.5z"/>
</g>
<g>
	<path d="M110.1,135h19.2v2.3h-19.2v12.9h20.7v2.4h-23.2v-32.8h22.6v2.4h-20.2V135z"/>
	<path d="M137.4,119.8v32.8h-2.3v-32.8H137.4z"/>
	<path d="M141.6,141c0-6.9,5.2-12,11.8-12c6.5,0,12.3,4,11.4,13h-20.9c0.5,5.4,4.6,8.6,9.4,8.6c3,0,6.6-1.2,8.3-3.5l1.6,1.3
		c-2.2,3-6.3,4.5-10,4.5C146.8,153,141.6,148.4,141.6,141z M162.7,140.1c0-5.7-3.8-8.9-9.4-8.9c-4.8,0-8.9,3.2-9.4,8.9H162.7z"/>
	<path d="M188.8,149.4c-2.3,2.3-5.4,3.5-8.4,3.5c-6.5,0-11.9-4.5-11.9-11.8s5.2-11.8,11.9-11.8c3,0,6.1,1.2,8.4,3.5l-1.5,1.5
		c-1.9-1.9-4.5-2.8-6.9-2.8c-5.2,0-9.7,3.4-9.7,9.7s4.4,9.7,9.7,9.7c2.5,0,5-1,6.9-2.9L188.8,149.4z"/>
	<path d="M197.9,122.5v7h7.9v1.9h-7.9v14.1c0,3.1,0.7,5.3,4.3,5.3c1.1,0,2.4-0.4,3.6-0.9l0.8,1.9c-1.5,0.7-2.9,1.2-4.4,1.2
		c-4.9,0-6.5-2.9-6.5-7.5v-14.1h-4.9v-1.9h4.9v-6.7L197.9,122.5z"/>
	<path d="M212.3,129.5l0.1,4.1c1.5-3.1,4.7-4.4,7.7-4.4c1.7,0,3.4,0.4,5,1.4l-1,1.9c-1.2-0.8-2.6-1.1-3.9-1.1
		c-4.3,0-7.6,3.5-7.6,7.7v13.5h-2.3v-23.2H212.3z"/>
	<path d="M226.6,141.1c0-7.4,5.2-12,11.8-12c6.5,0,11.8,4.7,11.8,12c0,7.4-5.2,11.9-11.8,11.9C231.8,153,226.6,148.5,226.6,141.1z
		 M247.9,141.1c0-6-4.3-9.9-9.5-9.9s-9.5,3.9-9.5,9.9c0,6,4.3,9.6,9.5,9.6S247.9,147.1,247.9,141.1z"/>
	<path d="M288.8,152.6v-13.9c0-4.5-3-7.6-7.4-7.6s-7.5,3.3-7.5,7.7v13.7h-2.3v-13.7c0-4.5-3-7.7-7.5-7.7c-4.4,0-7.4,3.2-7.4,7.7
		v13.7h-2.3v-23.2h2.2l0,3.8c1.6-3,4.5-4.3,7.5-4.3c3.5,0,7.2,1.6,8.6,5.7c1.4-3.8,5-5.7,8.6-5.7c5.7,0,9.7,4,9.7,9.7v13.9H288.8z"
		/>
	<path d="M295.4,141c0-6.9,5.2-12,11.8-12c6.5,0,12.3,4,11.4,13h-20.9c0.5,5.4,4.6,8.6,9.4,8.6c3,0,6.6-1.2,8.3-3.5l1.6,1.3
		c-2.2,3-6.3,4.5-10,4.5C300.6,153,295.4,148.4,295.4,141z M316.5,140.1c0-5.7-3.8-8.9-9.4-8.9c-4.8,0-8.9,3.2-9.4,8.9H316.5z"/>
	<path d="M342.6,149.4c-2.3,2.3-5.4,3.5-8.4,3.5c-6.5,0-11.9-4.5-11.9-11.8s5.2-11.8,11.9-11.8c3,0,6.1,1.2,8.4,3.5l-1.5,1.5
		c-1.9-1.9-4.5-2.8-6.9-2.8c-5.2,0-9.7,3.4-9.7,9.7s4.4,9.7,9.7,9.7c2.5,0,5-1,6.9-2.9L342.6,149.4z"/>
	<path d="M368.7,129.5c0,7.7,0,15.4,0,23.2h-2.3v-4.9c-2.2,3.6-5.7,5.3-9.5,5.3c-6.5,0-11.8-4.9-11.8-12c0-7.1,5.3-11.9,11.8-11.9
		c3.7,0,7.5,1.7,9.5,5.3v-5.1H368.7z M356.9,131.4c-5.2,0-9.5,3.8-9.5,9.7s4.2,9.7,9.5,9.7C369.8,150.8,369.8,131.4,356.9,131.4z
		 M357.7,125.3l4.3-5.8v0h-3l-3.5,5.6v0.2H357.7z"/>
	<path d="M376.3,129.5v4.1c1.8-3.2,5-4.5,8.2-4.5c6.2,0,10.5,3.8,10.5,10.2v13.4h-2.3v-13.3c0-5.2-3.2-8.1-8.2-8
		c-4.8,0-8.1,3.7-8.1,8.4v12.9H374v-23.2H376.3z"/>
	<path d="M403.1,121.9c0,2.4-3.7,2.4-3.7,0C399.4,119.5,403.1,119.5,403.1,121.9z M400.1,129.4v23.2h2.3v-23.2H400.1z"/>
	<path d="M427,149.4c-2.3,2.3-5.4,3.5-8.4,3.5c-6.5,0-11.9-4.5-11.9-11.8s5.2-11.8,11.9-11.8c3,0,6.1,1.2,8.4,3.5l-1.5,1.5
		c-1.9-1.9-4.5-2.8-6.9-2.8c-5.2,0-9.7,3.4-9.7,9.7s4.4,9.7,9.7,9.7c2.5,0,5-1,6.9-2.9L427,149.4z"/>
	<path d="M453.1,129.5c0,7.7,0,15.4,0,23.2h-2.3v-4.9c-2.2,3.6-5.7,5.3-9.5,5.3c-6.5,0-11.8-4.9-11.8-12c0-7.1,5.3-11.9,11.8-11.9
		c3.7,0,7.5,1.7,9.5,5.3v-5.1H453.1z M431.9,141c0,5.8,4.2,9.7,9.5,9.7c12.9,0,12.9-19.4,0-19.4C436.1,131.4,431.9,135.2,431.9,141z
		"/>
</g>
<g>
	<linearGradient id="SVGID_1_" gradientUnits="userSpaceOnUse" x1="62.4205" y1="21.06" x2="62.4205" y2="127.4471">
		<stop  offset="0" style="stop-color:#BCBEC0"/>
		<stop  offset="1" style="stop-color:#000000"/>
	</linearGradient>
	<path class="st0" d="M97.2,21.1v66.6c0,26.3-14.4,39.8-34.3,39.8c-19,0-35.2-13-35.2-39.8v-51h14.8v51c0,16,8.2,24.6,20.5,24.6
		c12.4,0,19.4-9.3,19.4-24.6V21.1H97.2z"/>
</g>
<rect x="292.2" y="104.3" class="st1" width="292.8" height="6.8"/>
</svg>
