<?xml version="1.0" encoding="utf-8"?>
<!-- Generator: Adobe Illustrator 26.5.0, SVG Export Plug-In . SVG Version: 6.00 Build 0)  -->
<svg version="1.1" id="Layer_1" xmlns="http://www.w3.org/2000/svg" xmlns:xlink="http://www.w3.org/1999/xlink" x="0px" y="0px"
	 viewBox="0 0 1080 1080" style="enable-background:new 0 0 1080 1080;" xml:space="preserve">
<style type="text/css">
	.st0{fill:#FFFFFF;}
	.st1{fill:#C02727;}
	.st2{fill:#1F4F6E;}
	.st3{fill:url(#SVGID_1_);}
	.st4{fill:url(#SVGID_00000156557271327736949750000004418310937912363949_);}
	.st5{fill:url(#SVGID_00000059305061157425058160000016004798449132867968_);}
	.st6{fill:url(#SVGID_00000017475690877984003580000002769398420137097912_);}
	.st7{fill:url(#SVGID_00000071538505962746858940000005936385071769177494_);}
</style>
<g>
	<path class="st0" d="M865.3,989.6c5.7-3.1,11.3-6.2,16.8-9.4C876.5,983.3,871,986.5,865.3,989.6z"/>
	<path class="st1" d="M626.5,1023.4c-303.5,0-549.6-223.7-549.6-499.7c0-271.1,237.5-491.6,533.7-499.3c-5.1-0.1-10.3-0.4-15.5-0.4
		C291.6,24,45.5,255.1,45.5,540.1s246.1,516.1,549.6,516.1c156.5,0,297.6-61.5,397.7-160.1C895.6,975.2,767.3,1023.4,626.5,1023.4z"
		/>
	<g>
		<path class="st2" d="M773.3,94.4l0.8,266.6H558.9c0,23.5,0,43.6,0,61.4h158.3c29.7,4.2,53.2,27.9,57,57.8l0,89.2l0.3,135.6
			c35.7-21,70.4-67.2,70.4-135.6v-4.3v-86.9V225.9C845,164.4,807.5,108.5,773.3,94.4z"/>
		
			<linearGradient id="SVGID_1_" gradientUnits="userSpaceOnUse" x1="845.0128" y1="864.9481" x2="943.9291" y2="766.0317" gradientTransform="matrix(0.7071 -0.7071 0.7071 0.7071 -432.7948 578.4579)">
			<stop  offset="0.3597" style="stop-color:#1F4F6E;stop-opacity:0"/>
			<stop  offset="0.487" style="stop-color:#1B3D54;stop-opacity:0.1591"/>
			<stop  offset="0.7136" style="stop-color:#14202B;stop-opacity:0.4421"/>
			<stop  offset="0.8924" style="stop-color:#100E11;stop-opacity:0.6655"/>
			<stop  offset="1" style="stop-color:#0F0708;stop-opacity:0.8"/>
		</linearGradient>
		<path class="st3" d="M778.7,421.7h-71c37.1,0,67.2,30.1,67.2,67.2l0,142.6v0.9l2.9,0c37.1,0,67.2-30.1,67.2-67.2l0-86.9
			C839.9,446.3,812.2,421.7,778.7,421.7z"/>
		<path class="st1" d="M467.7,571.5c0,43-35.2,78.2-78.2,78.2h-85.2c-43,0-78.2-35.2-78.2-78.2V564h-61.8v9.2
			c0,72.2,59.1,131.2,131.2,131.2h112.1c72.2,0,131.2-59.1,131.2-131.2L467.7,571.5z"/>
		<path class="st1" d="M539.1,94.4c-45.7,25.9-70.9,82.3-71,176l-0.4,301.1c0,110.8-60,133-60,133c72.2,0,131.2-59.1,131.2-131.2
			L539.1,94.4z"/>
		
			<linearGradient id="SVGID_00000155124254633687418990000003539760807339883939_" gradientUnits="userSpaceOnUse" x1="164.3092" y1="634.2711" x2="467.6918" y2="634.2711">
			<stop  offset="0.3597" style="stop-color:#C02727;stop-opacity:0"/>
			<stop  offset="0.4828" style="stop-color:#941F1F;stop-opacity:0.1538"/>
			<stop  offset="0.6588" style="stop-color:#5B1515;stop-opacity:0.3737"/>
			<stop  offset="0.8101" style="stop-color:#320D0E;stop-opacity:0.5627"/>
			<stop  offset="0.9287" style="stop-color:#18090A;stop-opacity:0.7109"/>
			<stop  offset="1" style="stop-color:#0F0708;stop-opacity:0.8"/>
		</linearGradient>
		<path style="fill:url(#SVGID_00000155124254633687418990000003539760807339883939_);" d="M467.7,571.5c0,43-35.2,78.2-78.2,78.2
			h-85.2c-43,0-78.2-35.2-78.2-78.2V564h-61.8v9.2c0,72.2,59.1,131.2,131.2,131.2h112.1C407.7,704.5,467.7,682.3,467.7,571.5z"/>
	</g>
	<path class="st2" d="M936,834l-9.2-9.2c10.2,10.2,11.2,26.2,3,37.5l-28,28c-8.4,8.4-20.6,10.5-31,6.5l-0.3,0.3l0.9,0.9
		c11.3,11.3,29.7,11.3,41,0l26.5-26.5C947.2,860.1,946.3,844.2,936,834z"/>
	<path class="st2" d="M901.8,890.3l28-28c8.2-11.3,7.3-27.3-3-37.5l-12.5-12.5c11.3,11.3,11.3,29.7,0,41l-43.5,43.5
		C881.2,900.9,893.4,898.7,901.8,890.3z"/>
	
		<linearGradient id="SVGID_00000014633106863877563140000008697742779482494396_" gradientUnits="userSpaceOnUse" x1="883.1261" y1="885.4032" x2="925.8544" y2="842.6749">
		<stop  offset="0.3597" style="stop-color:#1F4F6E;stop-opacity:0"/>
		<stop  offset="0.487" style="stop-color:#1B3D54;stop-opacity:0.1591"/>
		<stop  offset="0.7136" style="stop-color:#14202B;stop-opacity:0.4421"/>
		<stop  offset="0.8924" style="stop-color:#100E11;stop-opacity:0.6655"/>
		<stop  offset="1" style="stop-color:#0F0708;stop-opacity:0.8"/>
	</linearGradient>
	<path style="fill:url(#SVGID_00000014633106863877563140000008697742779482494396_);" d="M936,834l-9.2-9.2l-12.5-12.5
		c11.3,11.3,11.3,29.7,0,41l-43.5,43.5l-0.3,0.3l0.9,0.9c11.3,11.3,29.7,11.3,41,0l26.5-26.5C947.2,860.1,946.3,844.2,936,834z"/>
	<path class="st2" d="M958.6,810.8l-46.1-46.1c-7.2-7.2-17.2-9.8-26.5-7.9c-5.3,1.1-10.4,3.7-14.5,7.9l-2.3,2.3l45.2,45.2L936,834
		c10.2,10.2,11.2,26.2,3,37.5l13.5-13.5l6.1-6.1C969.9,840.6,969.9,822.2,958.6,810.8z"/>
	<path class="st1" d="M871.1,835.4l-9.2-9.2c10.2,10.2,11.2,26.2,3,37.5l-28,28c-8.4,8.4-20.6,10.5-31,6.5l-0.3,0.3l0.9,0.9
		c11.3,11.3,29.7,11.3,41,0l26.5-26.5C882.3,861.6,881.4,845.7,871.1,835.4z"/>
	<path class="st1" d="M836.9,891.8l28-28c8.2-11.3,7.3-27.3-3-37.5l-12.5-12.5c11.3,11.3,11.3,29.7,0,41l-43.5,43.5
		C816.3,902.3,828.5,900.2,836.9,891.8z"/>
	
		<linearGradient id="SVGID_00000029724234430376268560000008120592452143544240_" gradientUnits="userSpaceOnUse" x1="818.2446" y1="886.8708" x2="860.9729" y2="844.1425">
		<stop  offset="0.3597" style="stop-color:#1F4F6E;stop-opacity:0"/>
		<stop  offset="0.487" style="stop-color:#1B3D54;stop-opacity:0.1591"/>
		<stop  offset="0.7136" style="stop-color:#14202B;stop-opacity:0.4421"/>
		<stop  offset="0.8924" style="stop-color:#100E11;stop-opacity:0.6655"/>
		<stop  offset="1" style="stop-color:#0F0708;stop-opacity:0.8"/>
	</linearGradient>
	<path style="fill:url(#SVGID_00000029724234430376268560000008120592452143544240_);" d="M871.1,835.4l-9.2-9.2l-12.5-12.5
		c11.3,11.3,11.3,29.7,0,41l-43.5,43.5l-0.3,0.3l0.9,0.9c11.3,11.3,29.7,11.3,41,0l26.5-26.5C882.3,861.6,881.4,845.7,871.1,835.4z"
		/>
	<path class="st1" d="M893.7,812.3l-46.1-46.1c-7.2-7.2-17.2-9.8-26.5-7.9c-5.3,1.1-10.4,3.7-14.5,7.9l-2.3,2.3l45.2,45.2l21.7,21.7
		c10.2,10.2,11.2,26.2,3,37.5l13.5-13.5l6.1-6.1C905,842,905,823.7,893.7,812.3z"/>
	<path class="st1" d="M1002.2,835.4l-9.2-9.2c10.2,10.2,11.2,26.2,3,37.5l-28,28c-8.4,8.4-20.6,10.5-31,6.5l-0.3,0.3l0.9,0.9
		c11.3,11.3,29.7,11.3,41,0l26.5-26.5C1013.4,861.6,1012.5,845.7,1002.2,835.4z"/>
	<path class="st1" d="M968,891.8l28-28c8.2-11.3,7.3-27.3-3-37.5l-12.5-12.5c11.3,11.3,11.3,29.7,0,41L937,898.3
		C947.4,902.3,959.6,900.2,968,891.8z"/>
	
		<linearGradient id="SVGID_00000112611664919286927190000000608695331567746987_" gradientUnits="userSpaceOnUse" x1="949.3386" y1="886.8708" x2="992.0668" y2="844.1425">
		<stop  offset="0.3597" style="stop-color:#1F4F6E;stop-opacity:0"/>
		<stop  offset="0.487" style="stop-color:#1B3D54;stop-opacity:0.1591"/>
		<stop  offset="0.7136" style="stop-color:#14202B;stop-opacity:0.4421"/>
		<stop  offset="0.8924" style="stop-color:#100E11;stop-opacity:0.6655"/>
		<stop  offset="1" style="stop-color:#0F0708;stop-opacity:0.8"/>
	</linearGradient>
	<path style="fill:url(#SVGID_00000112611664919286927190000000608695331567746987_);" d="M1002.2,835.4l-9.2-9.2l-12.5-12.5
		c11.3,11.3,11.3,29.7,0,41L937,898.3l-0.3,0.3l0.9,0.9c11.3,11.3,29.7,11.3,41,0l26.5-26.5C1013.4,861.6,1012.5,845.7,1002.2,835.4
		z"/>
	<path class="st1" d="M1024.8,812.3l-46.1-46.1c-7.2-7.2-17.2-9.8-26.5-7.9c-5.3,1.1-10.4,3.7-14.5,7.9l-2.3,2.3l45.2,45.2
		l21.7,21.7c10.2,10.2,11.2,26.2,3,37.5l13.5-13.5l6.1-6.1C1036.1,842,1036.1,823.7,1024.8,812.3z"/>
	<g>
		<path class="st2" d="M508.3,765.1l-0.4,10.8c-7.1-0.5-13.9-0.8-20.2-0.8c-0.1,6.3-0.1,13.4-0.1,21.2c0,12.1,0.2,23.5,0.6,34.2h-15
			c0.5-10.7,0.7-22.1,0.7-34.2c0-7.6-0.1-14.7-0.2-21.2c-5,0-11.9,0.3-20.7,0.8l0.4-10.9H508.3z"/>
		<path class="st2" d="M581.8,796.6c0,10.3-3.4,18.8-10.1,25.6c-6.7,6.8-15,10.2-24.9,10.2c-9.4,0-17.3-3.1-23.7-9.3
			c-6.4-6.2-9.5-14.1-9.5-23.7c0-10.3,3.4-18.8,10.1-25.6c6.7-6.8,15-10.2,24.9-10.2c9.4,0,17.3,3.1,23.7,9.3
			C578.6,779.1,581.8,787,581.8,796.6z M567,798.1c0-7-1.9-12.7-5.7-17c-3.8-4.4-8.5-6.5-14.1-6.5c-5.2,0-9.6,2.2-13.3,6.6
			c-3.6,4.4-5.5,9.9-5.5,16.6c0,7,1.9,12.6,5.8,17c3.8,4.4,8.5,6.6,14.1,6.6c5.2,0,9.6-2.2,13.3-6.6S567,804.7,567,798.1z"/>
		<path class="st2" d="M642.5,765.1l-0.4,10.8c-7.1-0.5-13.9-0.8-20.2-0.8c-0.1,6.3-0.1,13.4-0.1,21.2c0,12.1,0.2,23.5,0.6,34.2h-15
			c0.5-10.7,0.7-22.1,0.7-34.2c0-7.6-0.1-14.7-0.2-21.2c-5,0-11.9,0.3-20.7,0.8l0.4-10.9H642.5z"/>
		<path class="st2" d="M710,830.6h-17.1c0-2.2-1.6-8.5-4.9-18.8h-24.8c-3.4,10.2-5,16.4-5,18.8H642c0-1.3,4.2-12,12.5-32.2
			c8.3-20.1,12.5-31.2,12.5-33.3h20.3c0,1.9,3.8,12.8,11.3,32.8C706.2,817.9,710,828.7,710,830.6z M685.2,802.1
			c-6.1-17.3-9.2-26.7-9.2-28.1h-0.9c0,1.3-3.2,10.7-9.5,28.1H685.2z"/>
		<path class="st2" d="M763.2,819.6l-0.4,11h-44.5c0.4-9.1,0.6-20.5,0.6-34.2c0-12.6-0.2-23-0.6-31.2h15.1c-0.4,7.6-0.6,18-0.6,31.2
			c0,10.1-0.2,18.1-0.7,24C741.9,820.3,752.3,820.1,763.2,819.6z"/>
		<path class="st2" d="M454.1,886.7l-0.3,8.7h-35.3c0.3-7.2,0.5-16.2,0.5-27.1c0-10-0.2-18.2-0.5-24.7h11.9
			c-0.3,6-0.5,14.3-0.5,24.7c0,8-0.2,14.3-0.6,19C437.1,887.3,445.4,887.1,454.1,886.7z"/>
		<path class="st2" d="M511.9,868.5c0,8.2-2.7,14.9-8,20.3c-5.3,5.4-11.9,8-19.7,8c-7.5,0-13.7-2.5-18.8-7.4
			c-5-4.9-7.6-11.2-7.6-18.8c0-8.2,2.7-14.9,8-20.3c5.3-5.4,11.9-8,19.7-8c7.5,0,13.7,2.5,18.8,7.4
			C509.4,854.6,511.9,860.9,511.9,868.5z M500.2,869.6c0-5.5-1.5-10.1-4.5-13.5c-3-3.5-6.8-5.2-11.2-5.2c-4.1,0-7.6,1.7-10.5,5.2
			c-2.9,3.5-4.3,7.9-4.3,13.2c0,5.5,1.5,10,4.6,13.5c3,3.5,6.8,5.2,11.2,5.2c4.1,0,7.6-1.7,10.5-5.2
			C498.7,879.3,500.2,874.9,500.2,869.6z"/>
		<path class="st2" d="M565.8,894c-6.7,1.6-12.4,2.4-16.9,2.4c-9.7,0-17.1-2.5-22.1-7.5c-5-5-7.5-11.1-7.5-18.2
			c0-7.5,2.7-14.1,8.2-19.6c5.5-5.6,13.1-8.3,22.8-8.3c4.6,0,8.6,0.4,12.1,1.2l-1.4,9.4c-4.4-1.1-8.4-1.6-12-1.6
			c-6,0-10.4,1.7-13.4,5.2c-2.9,3.4-4.4,7.6-4.4,12.6c0,5.1,1.6,9.5,4.9,13.3c3.3,3.8,7.8,5.7,13.6,5.7c1.6,0,3.5-0.2,5.6-0.5
			c-0.4-2.9-0.6-5.8-0.6-8.7c0-2.9-0.3-6.1-0.9-9.7h12c-0.2,4.1-0.3,8.2-0.3,12.4C565.5,884.9,565.6,889,565.8,894z"/>
		<path class="st2" d="M588.2,895.4h-12c0.4-8.2,0.6-17.3,0.6-27.1c0-9.7-0.2-17.9-0.6-24.7h12c-0.4,6.7-0.6,14.9-0.6,24.7
			C587.6,878.3,587.8,887.3,588.2,895.4z"/>
		<path class="st2" d="M636.5,881.2c0,10.4-8,15.6-23.9,15.6c-5.4,0-10.4-0.6-15.1-1.8l2.1-8.9c4.6,1.5,8.9,2.2,13,2.2
			c4.5,0,7.8-0.4,9.8-1.2c2-0.8,3-2.2,3-4.1c0-2-0.9-3.7-2.8-5.1c-1.6-1.2-4.9-2.8-9.8-4.8c-4.5-1.8-7.8-3.8-10-5.9
			c-2.7-2.7-4.1-6-4.1-9.9c0-4.6,1.8-8.1,5.4-10.7c3.6-2.6,8.8-3.9,15.6-3.9c5.5,0,10.2,0.4,14,1.3l-1.6,8.8c-3.8-1.3-8-2-12.4-2
			c-6.7,0-10,1.7-10,5c0,1.8,0.8,3.2,2.3,4.3c1.4,1,4.3,2.3,8.9,4c4.8,1.8,8.5,3.9,10.9,6.1C634.9,873.3,636.5,876.9,636.5,881.2z"
			/>
		<path class="st2" d="M684.6,843.5l-0.3,8.6c-5.7-0.4-11-0.6-16-0.6c-0.1,5-0.1,10.6-0.1,16.8c0,9.6,0.2,18.6,0.5,27.1h-11.9
			c0.4-8.4,0.6-17.5,0.6-27.1c0-6.1-0.1-11.6-0.2-16.8c-4,0-9.5,0.2-16.4,0.6l0.3-8.6H684.6z"/>
		<path class="st2" d="M703.6,895.4h-12c0.4-8.2,0.6-17.3,0.6-27.1c0-9.7-0.2-17.9-0.6-24.7h12c-0.4,6.7-0.6,14.9-0.6,24.7
			C703.1,878.3,703.3,887.3,703.6,895.4z"/>
		<path class="st2" d="M755.4,885.9l-0.7,9.2c-4,0.9-8,1.4-11.9,1.4c-9.7,0-17.1-2.5-22.2-7.6c-5.1-5-7.6-11.1-7.6-18.4
			c0-7.5,2.7-14,8.1-19.5s12.8-8.3,22.2-8.3c3.5,0,6.7,0.4,9.8,1.1l-1.5,9.2c-3.3-1-6.5-1.5-9.6-1.5c-5.7,0-10,1.7-12.8,5.1
			c-2.8,3.4-4.2,7.6-4.2,12.5c0,5,1.7,9.3,5,13c3.3,3.7,8,5.5,14,5.5C747.5,887.7,751.3,887.1,755.4,885.9z"/>
		<path class="st2" d="M800,881.2c0,10.4-8,15.6-23.9,15.6c-5.4,0-10.4-0.6-15.1-1.8l2.1-8.9c4.6,1.5,8.9,2.2,13,2.2
			c4.5,0,7.8-0.4,9.8-1.2c2-0.8,3-2.2,3-4.1c0-2-0.9-3.7-2.8-5.1c-1.6-1.2-4.9-2.8-9.8-4.8c-4.5-1.8-7.8-3.8-10-5.9
			c-2.7-2.7-4.1-6-4.1-9.9c0-4.6,1.8-8.1,5.4-10.7c3.6-2.6,8.8-3.9,15.6-3.9c5.5,0,10.2,0.4,14,1.3l-1.6,8.8c-3.8-1.3-8-2-12.4-2
			c-6.7,0-10,1.7-10,5c0,1.8,0.8,3.2,2.3,4.3c1.4,1,4.3,2.3,8.9,4c4.8,1.8,8.5,3.9,10.9,6.1C798.4,873.3,800,876.9,800,881.2z"/>
	</g>
</g>
</svg>
