<?xml version="1.0" encoding="utf-8"?>
<!-- Generator: Adobe Illustrator 26.5.0, SVG Export Plug-In . SVG Version: 6.00 Build 0)  -->
<svg version="1.1" id="Layer_1" xmlns="http://www.w3.org/2000/svg" xmlns:xlink="http://www.w3.org/1999/xlink" x="0px" y="0px"
	 viewBox="0 0 1080 1080" style="enable-background:new 0 0 1080 1080;" xml:space="preserve">
<style type="text/css">
	.st0{fill:#C02727;}
	.st1{fill:#1F4F6E;stroke:#1F4F6E;stroke-width:4;stroke-miterlimit:10;}
	.st2{fill:#1F4F6E;}
	.st3{fill:url(#SVGID_1_);}
	.st4{fill:url(#SVGID_00000096059802634343916760000004187657474320537516_);}
</style>
<g>
	<path class="st0" d="M566.7,980.7c-271.1,0-490.9-219.8-490.9-490.9c0-146.6,64.3-278.1,166.1-368.1
		C109.6,215.4,23.3,369.6,23.3,544c0,285.6,231.5,517.1,517.1,517.1s517.1-231.5,517.1-517.1c0-9.2-0.3-18.4-0.7-27.5
		C1043,775.2,828.8,980.7,566.7,980.7z"/>
	<g>
		<path class="st1" d="M355.1,78.3c6.2,1.6,11.5,6,15.9,13.4l2.2,3.6c4.4,7.3,5.8,14,4.3,20.3c-1.5,6.2-6,11.6-13.3,16l-23,13.8
			l16.4,27.4c1,1.6,1.3,3.1,0.9,4.5c-0.4,1.4-1.3,2.6-2.9,3.6c-1.6,1-3.1,1.3-4.5,0.9c-1.4-0.4-2.6-1.3-3.6-2.9l-42.8-71.3
			c-1-1.6-1.3-3.1-0.9-4.5c0.4-1.4,1.3-2.6,2.9-3.6l28.1-16.9C342.1,78.2,348.9,76.8,355.1,78.3z M361,97.7
			c-2.7-4.5-5.6-7.1-8.7-7.9c-3.1-0.8-6.9,0.2-11.5,2.9l-23,13.8l17.3,28.8l23-13.8c4.6-2.7,7.2-5.6,8-8.7c0.8-3.1-0.2-6.9-3-11.4
			L361,97.7z"/>
		<path class="st1" d="M477.3,119.1c0.8,2.1,0.1,4.1-1.9,5.9c-0.7,0.6-1.5,1.1-2.4,1.5c-2.1,0.8-4.1,0.1-5.9-1.9l-13.3-14.7
			l-41,14.7l-0.7,19.7c-0.1,2.7-1.2,4.5-3.3,5.2c-0.9,0.3-1.8,0.4-2.7,0.4c-2.8,0-4.6-1.1-5.3-3.3c-0.3-1-0.5-1.9-0.4-2.8l3.7-88.4
			c0.3-3.4,1.8-5.6,4.6-6.6l0.3-0.1c3-0.9,5.4-0.1,7.4,2.3l59.5,65.8C476.4,117.3,476.9,118.1,477.3,119.1z M413.2,111.9l32.1-11.5
			l-30.8-34L413.2,111.9z"/>
		<path class="st1" d="M565.6,120.4c0.1,1.3-0.3,2.6-1.4,3.8c-1.1,1.2-2.2,1.8-3.2,1.9c-1.1,0.1-2.4-0.3-3.8-1.3l-11.8-10.1
			c-3.2,1.4-7.3,2.4-12.4,2.9l-16.7,1.8c-10.7,1.2-18.8-0.5-24.4-5c-5.6-4.5-9-12.1-10.2-22.7l-3.5-32.1c-1.2-10.7,0.5-18.8,5-24.4
			c4.5-5.6,12.1-9,22.7-10l16.7-1.8c10.7-1.2,18.8,0.5,24.4,5c5.6,4.5,9,12.1,10.2,22.7l3.5,32c1.3,11.7-0.9,20.4-6.5,26.2l9.6,8.1
			C564.9,118.2,565.5,119.2,565.6,120.4z M534.6,105.7l-4-3.5c-1.1-0.9-1.8-2-1.9-3.2c-0.1-1.2,0.3-2.4,1.3-3.7
			c1-1.2,2.1-1.9,3.3-2.1c1-0.1,2.3,0.4,3.8,1.4l8.2,6.8c1.9-1.6,3.1-3.8,3.7-6.5c0.6-2.7,0.6-6.3,0.2-10.6l-3.5-32
			c-0.6-5-1.6-8.8-3.1-11.5c-1.5-2.6-3.7-4.4-6.6-5.3c-2.9-0.9-6.9-1.1-11.9-0.5l-16.7,1.8c-5,0.5-8.9,1.4-11.5,3
			c-2.6,1.5-4.4,3.7-5.3,6.6c-0.9,2.9-1.1,6.9-0.5,11.9l3.5,32.1c0.6,5.1,1.6,9,3.1,11.6c1.5,2.6,3.7,4.4,6.6,5.3
			c2.9,0.9,6.9,1.1,12,0.5l16.7-1.8L534.6,105.7z"/>
		<path class="st1" d="M588.1,107.9c-4.3-5.7-5.8-13.9-4.3-24.5l8-57.1c0.5-3.9,2.8-5.6,6.6-5c3.9,0.5,5.6,2.8,5,6.6l-8,57.1
			c-0.7,5.1-0.7,9.1,0.2,12c0.8,2.9,2.5,5.1,5.1,6.7c2.6,1.6,6.4,2.7,11.5,3.4l16.6,2.3c5.1,0.7,9.1,0.7,12-0.2
			c2.9-0.8,5.1-2.5,6.7-5.1c1.6-2.6,2.7-6.4,3.4-11.5l8-57.1c0.5-3.9,2.8-5.6,6.6-5c3.9,0.5,5.6,2.8,5,6.6l-8,57.1
			c-1.5,10.6-5.1,18.1-10.8,22.4c-5.7,4.3-13.9,5.8-24.5,4.3l-16.6-2.3C599.9,117.2,592.4,113.6,588.1,107.9z"/>
		<path class="st1" d="M735.8,143.6c0.6,1.3,0.5,2.9-0.1,4.6c-0.7,1.7-1.7,2.9-3,3.5c-1.3,0.6-2.9,0.5-4.6-0.1l-46.8-18.1
			c-1.7-0.7-2.9-1.7-3.5-3c-0.6-1.3-0.5-2.9,0.1-4.6l30-77.5c0.7-1.7,1.7-2.9,3-3.5c1.3-0.6,2.9-0.5,4.6,0.1l46.8,18.1
			c1.7,0.7,2.9,1.7,3.5,3c0.6,1.3,0.5,2.9-0.1,4.6c-0.7,1.7-1.7,2.9-3,3.5c-1.3,0.6-2.9,0.5-4.6-0.1l-41.4-16l-10.6,27.4l26,10.1
			c1.7,0.7,2.9,1.7,3.5,3c0.6,1.3,0.5,2.9-0.1,4.6c-0.7,1.7-1.7,2.9-3,3.5c-1.3,0.6-2.9,0.5-4.6-0.1l-26-10.1l-10.9,28.2l41.4,16
			C734,141.3,735.2,142.3,735.8,143.6z"/>
		<path class="st1" d="M767.9,168l42-64.7l-22.8-14.8c-3.3-2.1-3.9-4.8-1.7-8.1c2.1-3.3,4.8-3.9,8.1-1.7l55.4,36
			c3.3,2.1,3.9,4.8,1.7,8.1c-2.1,3.3-4.8,3.9-8.1,1.7l-22.8-14.8l-42,64.7c-1,1.6-2.2,2.5-3.7,2.8c-1.4,0.3-2.9-0.1-4.5-1.1
			C766.3,174,765.7,171.3,767.9,168z"/>
		<path class="st1" d="M859.8,240c0,1.5-0.6,2.8-2,4.2c-1.3,1.3-2.7,2-4.1,2c-1.5,0-2.8-0.6-4.2-2l-35.7-35.3c-1.3-1.3-2-2.7-2-4.1
			c0-1.5,0.6-2.8,2-4.2l58.5-59.1c1.3-1.3,2.7-2,4.1-2c1.5,0,2.8,0.6,4.2,2l35.7,35.3c1.3,1.3,2,2.7,2,4.1c0,1.5-0.6,2.8-2,4.2
			c-1.3,1.3-2.7,2-4.1,2c-1.5,0-2.8-0.6-4.2-2l-31.5-31.2l-20.7,20.9l19.8,19.6c1.3,1.3,2,2.7,2,4.1c0,1.5-0.6,2.8-2,4.2
			c-1.3,1.3-2.7,2-4.1,2c-1.5,0-2.8-0.6-4.2-2l-19.8-19.6l-21.3,21.5l31.5,31.2C859.1,237.2,859.8,238.6,859.8,240z"/>
		<path class="st1" d="M934.1,283.9c-5.6-0.4-10.7-3-15.2-7.9l-15.3,32.1c-0.5,1-1.2,1.8-2.1,2.4c-1.7,1.1-3.6,1.2-5.8,0.1
			c-1.3-0.6-2.2-1.3-2.7-2.1c-1-1.6-1-3.4-0.1-5.7l17.8-37.3l0.4-0.7l-10.8-16.3l-26.6,17.6c-1.6,1-3,1.4-4.5,1.1
			c-1.4-0.3-2.6-1.2-3.7-2.8c-1-1.6-1.4-3-1.1-4.5c0.3-1.4,1.2-2.6,2.8-3.7l69.3-45.9c1.6-1,3-1.4,4.5-1.1c1.4,0.3,2.6,1.2,3.7,2.8
			l18.1,27.3c4.7,7.2,6.5,13.9,5.2,20.1c-1.3,6.3-5.5,11.8-12.6,16.5l-3.5,2.3C945.6,282.5,939.7,284.3,934.1,283.9z M948.8,266.3
			c4.4-2.9,6.9-5.9,7.5-9c0.7-3.1-0.5-6.9-3.4-11.3l-14.8-22.4l-28,18.5l14.8,22.4c2.9,4.4,6,7,9.1,7.6c3.1,0.6,6.9-0.5,11.3-3.5
			L948.8,266.3z"/>
		<path class="st1" d="M912.9,327c3-6.5,9.5-11.7,19.6-15.4l30.3-11.3c10.1-3.7,18.4-4.1,24.9-1c6.6,3,11.6,9.6,15.3,19.6l5.8,15.7
			c3.7,10.1,4.1,18.4,1.1,24.9c-3,6.5-9.5,11.7-19.6,15.4l-30.2,11.2c-10.1,3.7-18.4,4.1-24.9,1.1c-6.5-3-11.7-9.5-15.4-19.6
			l-5.8-15.7C910.3,341.8,909.9,333.5,912.9,327z M930.9,363.5c1.8,4.8,3.7,8.3,5.8,10.5c2.1,2.2,4.6,3.3,7.6,3.5
			c3,0.2,6.9-0.6,11.7-2.4l30.2-11.2c4.7-1.8,8.2-3.7,10.4-5.8c2.2-2.1,3.4-4.7,3.5-7.7s-0.6-6.9-2.4-11.7l-5.8-15.7
			c-1.7-4.8-3.6-8.2-5.7-10.4c-2.1-2.2-4.7-3.4-7.7-3.5c-3-0.2-6.9,0.6-11.7,2.4l-30.3,11.3c-4.8,1.8-8.3,3.7-10.5,5.8
			c-2.2,2.1-3.3,4.6-3.5,7.6c-0.2,3,0.6,6.9,2.4,11.7L930.9,363.5z"/>
		<path class="st1" d="M939.2,417.3c2.7-4.8,7.3-8.1,13.9-10c1.9-0.4,3.5-0.2,4.7,0.7c1.2,0.9,1.9,2.3,2.1,4.3
			c0.2,1.9-0.1,3.3-0.8,4.3c-0.8,1-2.2,1.8-4.2,2.4c-3.1,1-5.1,2.7-6,5.1c-0.9,2.4-1.1,6-0.6,10.8l2.3,20c0.5,4.1,1.3,7.2,2.5,9.2
			c1.2,2.1,2.9,3.4,5.2,4.1c2.3,0.7,5.4,0.8,9.4,0.3c5.9-0.7,9.9-2.3,11.9-4.7c2-2.5,2.6-6.6,1.9-12.5l-2-17.2
			c-1-8.7,0.4-15.4,4.2-20.2c3.8-4.8,10.1-7.6,18.9-8.6c8.7-1,15.4,0.4,20.1,4.1c4.7,3.7,7.6,10,8.6,18.7l1.9,16.5
			c1.7,14.6-3.5,23.8-15.4,27.4c-1.9,0.5-3.5,0.3-4.6-0.6c-1.2-0.9-1.9-2.4-2.1-4.4c-0.2-1.9,0.1-3.3,0.9-4.3c0.8-1,2.2-1.8,4.1-2.3
			c2.6-1.1,4.3-2.7,5.1-4.8c0.8-2.2,0.9-5.4,0.4-9.6l-1.9-16.5c-0.4-3.8-1.2-6.6-2.2-8.5c-1.1-1.9-2.6-3.1-4.7-3.7
			c-2.1-0.6-5-0.6-8.7-0.2c-3.8,0.4-6.6,1.2-8.5,2.2c-1.9,1.1-3.2,2.6-3.8,4.7c-0.7,2.1-0.8,5-0.3,8.8l2,17.2
			c1.1,9.2-0.4,16.2-4.3,21.2c-3.9,5-10.5,8-19.8,9c-9.2,1.1-16.2-0.4-21.1-4.3c-4.9-3.9-7.9-10.5-9-19.7l-2.3-20
			C935.6,428.4,936.5,422,939.2,417.3z"/>
	</g>
	<g>
		<path class="st2" d="M780.1,256.9l0.7,256.3H574.1c0,22.6,0,41.9,0,59h152.1c28.6,4.1,51.1,26.8,54.8,55.5l0,85.8l0.3,130.4
			c34.3-20.2,67.7-64.6,67.7-130.4v-4.1v-83.5V383.2C849.1,324.1,813,270.4,780.1,256.9z"/>
		
			<linearGradient id="SVGID_1_" gradientUnits="userSpaceOnUse" x1="748.5535" y1="970.9338" x2="843.6346" y2="875.8525" gradientTransform="matrix(0.7071 -0.7071 0.7071 0.7071 -432.7948 578.4579)">
			<stop  offset="0.3597" style="stop-color:#1F4F6E;stop-opacity:0"/>
			<stop  offset="0.487" style="stop-color:#1B3D54;stop-opacity:0.1591"/>
			<stop  offset="0.7136" style="stop-color:#14202B;stop-opacity:0.4421"/>
			<stop  offset="0.8924" style="stop-color:#100E11;stop-opacity:0.6655"/>
			<stop  offset="1" style="stop-color:#0F0708;stop-opacity:0.8"/>
		</linearGradient>
		<path class="st3" d="M785.4,571.5h-68.3c35.7,0,64.6,28.9,64.6,64.6l0,137v0.9l2.8,0c35.7,0,64.6-28.9,64.6-64.6l0-83.5
			C844.1,595.1,817.5,571.5,785.4,571.5z"/>
		<path class="st0" d="M486.4,715.5c0,41.3-33.8,75.2-75.2,75.2h-81.9c-41.3,0-75.2-33.8-75.2-75.2v-7.2h-59.4v8.9
			c0,69.4,56.8,126.2,126.2,126.2h107.8c69.4,0,126.2-56.8,126.2-126.2L486.4,715.5z"/>
		<path class="st0" d="M555.1,256.9c-43.9,24.9-68.1,79.1-68.3,169.2l-0.4,289.4c0,106.5-57.7,127.8-57.7,127.8
			c69.4,0,126.2-56.8,126.2-126.2L555.1,256.9z"/>
		
			<linearGradient id="SVGID_00000131362813323166364220000011544421693748503213_" gradientUnits="userSpaceOnUse" x1="194.7743" y1="775.8039" x2="486.3943" y2="775.8039">
			<stop  offset="0.3597" style="stop-color:#C02727;stop-opacity:0"/>
			<stop  offset="0.4828" style="stop-color:#941F1F;stop-opacity:0.1538"/>
			<stop  offset="0.6588" style="stop-color:#5B1515;stop-opacity:0.3737"/>
			<stop  offset="0.8101" style="stop-color:#320D0E;stop-opacity:0.5627"/>
			<stop  offset="0.9287" style="stop-color:#18090A;stop-opacity:0.7109"/>
			<stop  offset="1" style="stop-color:#0F0708;stop-opacity:0.8"/>
		</linearGradient>
		<path style="fill:url(#SVGID_00000131362813323166364220000011544421693748503213_);" d="M486.4,715.5c0,41.3-33.8,75.2-75.2,75.2
			h-81.9c-41.3,0-75.2-33.8-75.2-75.2v-7.2h-59.4v8.9c0,69.4,56.8,126.2,126.2,126.2h107.8C428.7,843.3,486.4,822,486.4,715.5z"/>
	</g>
</g>
</svg>
