<?xml version="1.0" encoding="utf-8"?>
<!-- Generator: Adobe Illustrator 26.5.0, SVG Export Plug-In . SVG Version: 6.00 Build 0)  -->
<svg version="1.1" id="Layer_1" xmlns="http://www.w3.org/2000/svg" xmlns:xlink="http://www.w3.org/1999/xlink" x="0px" y="0px"
	 viewBox="0 0 1080 1080" style="enable-background:new 0 0 1080 1080;" xml:space="preserve">
<path d="M779.2,300.7c0,47,0,94.1,0,141.1l0.1-0.1c-18.6,0-37.2,0-56,0c0,9.3,0,18.4,0,27.7c9,0,18,0,27.4,0c0,9.6,0,18.9,0,28.6
	c9.7,0,19,0,28.6,0c0,9.4,0,18.3,0,27.7c18.8,0,37.4,0,56.1,0c0,9.7,0,19,0,28.5c-28.1,0-56,0-84.4,0c0-9.3,0-18.6,0-28.1
	c-37.6,0-74.8,0-112.4,0c0,9.2,0,18.5,0,28c-9.4,0-18.5,0-27.8,0c0-9.2,0-18.4,0-28.1c-9.6,0-18.9,0-28.6,0c0-28.4,0-56.3,0-84.2
	l-0.1,0.1c37.4,0,74.9,0,112.3,0c0-37.8,0-75.1,0-112.7c-9.2,0-18.2,0-27.6,0c0-9.6,0-18.9,0-28c-9.7,0-19,0-28.6,0
	c0,9.5,0,18.7,0,27.9c-9.3,0-18.4,0-27.7,0c0-9.5,0-18.7,0-28c-18.8,0-37.4,0-55.9,0c0,9.5,0,18.8,0,28.4c9.2,0,18.2,0,27.2,0
	c0,9.3,0,18.4,0,27.6c-18.8,0-37.5,0-56.1,0l0.1,0.1c0-18.7,0-37.4,0-56.5c-19.1,0-37.6,0-56.4,0c0-18.9,0-37.3,0-56
	c-9.4,0-18.4,0-27.5,0c0,0,0.1,0.1,0.1,0.1c-0.1-9.3-0.2-18.7-0.3-28c9.2,0,18.4,0,27.9,0c0-9.7,0-19,0-28.5c9.7,0,19.1,0,28.4,0
	c0,9.4,0,18.9,0,28.5c9.5,0,18.7,0,27.8,0c0,9.2,0,18.4,0,27.5c19,0,37.5,0,56.1,0c0-18.9,0-37.4,0-56c9.4,0,18.9,0,28.7,0
	c0,19.1,0,37.6,0,56.2c9.5,0,18.6,0,27.7,0c0,9.4,0,18.9,0,28.3c9.7,0,19,0,28.2,0c0-9.5,0-18.8,0-28.2c-9.6,0-19,0-28.3,0
	c0-28,0-56.1,0-84.1c9.5,0,19.1,0,28.6,0c0,18.7,0,37.3,0,56c9.4,0,18.4,0,27.4,0c0-18.8,0-37.3,0-55.9c-9.3,0-18.4,0-27.5,0
	c0-9.4,0-18.9,0-28.5c-9.8,0-19.2,0-28.5,0c0-9.2,0-18.4,0-27.9c19.1,0,37.6,0,56.4,0c0-9.7,0-19.1,0-28.4l-0.1,0.1
	c9.4,0,18.9,0,28.6,0c0-19.1,0-37.7,0-56.3c9.2,0,18.5,0,27.8,0c0,9.4,0,18.9,0,28.6c9.9,0,19.2,0,28.6,0l-0.1-0.1
	c0,9.2,0,18.4,0,27.9c-9.7,0-19,0-28.4,0c0,9.7,0,19.1,0,28.4c-9.2,0-18.4,0-27.6,0c0,9.4,0,18.5,0,27.4c9.3,0,18.3,0,27.5,0
	c0-9.4,0-18.5,0-27.5c9.4,0,18.9,0,28.7,0c0,9.5,0,18.6,0,28c9.4,0,18.4,0,27.6,0c0,9.7,0,19.1,0,28.4l0.1-0.1
	c-18.7,0-37.4,0-56.2,0c0,9.6,0,18.8,0,27.9c-9.2,0-18.4,0-27.8,0c0,19,0,37.6,0,56.2c-9.4,0-18.9,0-28.3,0c0,9.7,0,19,0,28.4
	c9.6,0,19,0,28.3,0c0,18.7,0,37.3,0,56.1c9.4,0,18.4,0,27.8,0c0-9.5,0-18.8,0-28.2c9.7,0,19.1,0,28.4,0L779.2,300.7z M610.7,497.7
	c9.3,0,18.3,0,27.3,0c0-9.5,0-18.8,0-28.1c-9.2,0-18.2,0-27.3,0C610.7,479.1,610.7,488.3,610.7,497.7z M723.2,413
	c9.3,0,18.4,0,27.3,0c0-9.3,0-18.3,0-27.3c-9.2,0-18.2,0-27.3,0C723.2,394.8,723.2,403.8,723.2,413z"/>
<path d="M216.8,779.2c-18.6,0-37.2,0-56.2,0c0,9.3,0,18.3,0,27.7c-9.7,0-19,0-28.5,0c0,9.6,0,18.8,0,28.3c-9.3,0-18.3,0-27.8,0
	c0-18.5,0-37,0-55.9c-19.1,0-37.7,0-56.4,0c0-18.7,0-37.4,0-56.3c-9.8,0-19.1,0-28.4,0c0-28.2,0-56.5,0-84.8c9.4,0,18.9,0,28.7,0
	c0,19.1,0,37.6,0,56.4c9.4,0,18.3,0,27.7,0c0,18.8,0,37.3,0,55.8c9.7,0,19,0,28.5,0c0-28,0-55.7,0-83.8c9.3,0,18.3,0,27.6,0
	c0-9.8,0-19.1,0-28.5c28.2,0,56.4,0,84.5,0c0-9.4,0-18.5,0-27.9c-9.6,0-18.8,0-28,0c0-9.6,0-18.8,0-28.4c9.5,0,18.8,0,28.2,0
	c0-9.5,0-18.6,0-27.7c9.2,0,18.4,0,27.5,0c0-9.7,0-19,0-28.4c-9.4,0-18.5,0-27.5,0c0.1-9.2,0.1-18.5,0.2-27.7c9.2,0,18.4,0,27.5,0
	c0-19.1,0-37.6,0-56.1c-28,0-55.7,0-83.5,0c0,9.3,0,18.3,0,27.7c18.8,0,37.3,0,56.2,0c0,9.8,0,19.1,0,28.5c-9.5,0-19,0-28.7,0
	c0,9.5,0,18.6,0,27.6c-9.2,0-18.4,0-27.9,0c0,9.7,0,19,0,28.6c-37.6,0-74.9,0-112.3,0c0,9.4,0,18.5,0,27.6c-9.5,0-19,0-28.6-0.1
	c0-18.8,0-37.5,0-56.2c28.2,0,56.4,0,84.8,0c0-9.5,0-18.4,0-27.8c9.3,0,18.4,0,27.4,0c0-18.9,0-37.5,0-56c-9.2,0-18.2,0-27.5,0
	c0,9.2,0,18.3,0,27.3c-18.9,0-37.5,0-56,0c0-9.2,0-18.2,0-27.5c9.2,0,18.3,0,27.3,0c0-28.4,0-56.5,0-84.8c-9.2,0-18.2,0-27.5,0
	c0-9.3,0-18.4,0-27.7c-9.8,0-19.1,0-28.5,0c0-9.5,0-19,0-28.5c9.4,0,18.8,0,28.2,0c0-9.5,0-18.5,0-27.8c-9.6,0-18.9,0-28.2,0
	c0-9.5,0-19,0-28.5c37.4,0,74.9,0,112.3,0c0,9.7,0,18.9,0,28.6c-18.7,0-37.3,0-55.8,0c0,9.5,0,18.5,0,27.8c9.5,0,18.7,0,28.3,0
	c0,9.6,0,18.9,0,28.3c19,0,37.6,0,56.2,0c0,18.7,0,37.4,0,56.2c9.5,0,18.6,0,27.7,0c0,9.2,0,18.4,0,27.5c9.7,0,19,0,28.4,0
	c0-9.4,0-18.5,0-27.5c18.8,0,37.6,0.1,56.4,0.1l-0.1-0.1c0,18.7,0,37.4,0,56.4c9.6,0,18.8,0,27.9,0l-0.1-0.1
	c0,9.3,0.1,18.6,0.1,27.9c-9.2,0-18.4,0-27.7,0c0,37.8,0,75.1,0,112.5c-9.4,0-18.9,0-28.3,0c0,9.7,0,19,0,28.2c9.5,0,18.8,0,28.2,0
	c0-9.6,0-19,0-28.3c9.3,0,18.6,0.1,27.8,0.1l-0.1-0.1c0,28.3,0.1,56.6,0.1,84.9c-18.7,0-37.3,0-56.4,0c0,9.4,0,18.5,0,27.8
	c-9.5,0-18.6,0-27.7,0c0-9.2,0-18.4,0-27.6c-18.9,0-37.5,0-56.1,0c0,9.4,0,18.4,0,27.5c-9.4,0-18.9,0-28.3,0c0,9.7,0,19,0,28.4
	c9.6,0,19,0,28.3,0c0,9.2,0,18.4,0,27.8c19,0,37.6,0,56.2,0c0,9.5-0.1,19.1-0.1,28.6L216.8,779.2z M104.5,357.2c0,9.6,0,18.9,0,28
	c9.3,0,18.3,0,27.3,0c0-9.5,0-18.7,0-28C122.7,357.2,113.7,357.2,104.5,357.2z"/>
<path d="M779.2,779.2c18.8,0,37.6,0.1,56.4,0.1c0,0-0.1-0.1-0.1-0.1c0,9.2,0,18.4,0,27.5c19.1,0,37.6,0,56.4,0c0-9.4,0-18.4,0-27.5
	l-0.1,0.1c18.7,0,37.3,0,56.4,0c0,9.4,0,18.5,0,27.4c28.4,0,56.4,0,84.6,0c0-9.4,0-18.5,0-27.5c9.3,0,18.5,0,27.8,0.1
	c0,37.5,0,75,0,112.5c-18.7,0-37.4,0-56.3,0c0-9.8,0-19.2,0-28.5c9.4,0,18.9,0,28.3,0c0-9.4,0-18.5,0-27.4c-9.5,0-18.8,0-28.2,0
	c0,9.4,0,18.5,0,27.5c-9.2,0-18.4,0-28,0c0,19.2,0,38,0,57c-9.6,0-18.8,0-28.1,0c0,18.8,0,37.3,0,56.3c9.5,0,18.8,0,28.5,0
	c0,9.4,0,18.5,0,27.8c9.4,0,18.3,0,27.6,0c0,9.6,0,18.8,0,28.4c19,0,37.6,0,56.2,0c0,9.2,0,18.5,0,27.8c-28,0-56,0-84,0
	c0-9.2,0-18.4,0-27.9c-28.5,0-56.5,0-84.8,0c0-9.7,0-19,0-28.4c9.4,0,18.9,0,28.3,0c0-18.9,0-37.5,0-55.9c-9.5,0-18.8,0-28.2,0
	c0,18.9,0,37.4,0,56c-46.3,0-92.6,0-138.9,0c-0.7,0-1.4,0.3-1.9,0.4c0,9.4,0,18.6,0,28.2c9.5,0,18.8,0,28.3,0c0,9.5,0,18.6,0,27.7
	c-47,0-94,0-141,0c0-27.9,0-55.8,0-84.1c9.7,0,19,0,28.6,0c0-9.7,0-18.9,0-28.4c9.5,0,18.6,0,27.7,0l-0.1-0.1c0,9.4,0,18.9,0,28.3
	c19.1,0,37.6,0,56.5,0c0-18.8,0-37.3,0-56.1c9.7,0,19.1,0,28.4,0c0,18.7,0,37.3,0,56.1c9.4,0,18.5,0,27.4,0c0-18.8,0-37.3,0-56
	c-9.4,0-18.5,0-27.6,0c0-9.5,0-19,0-28.5c0,0-0.1,0.1-0.1,0.1c9.2,0,18.4,0,27.7,0c0-19.1,0-37.7,0-56.6c-9.3,0-18.3,0-27.6,0
	C779.2,816.4,779.2,797.8,779.2,779.2z M920.1,835.8c-28.3,0-56.4,0-84.3,0c0,28.3,0,56.3,0,84.3c28.2,0,56.2,0,84.3,0
	C920.1,891.9,920.1,864,920.1,835.8z"/>
<path d="M413.2,976.5c0-28.1,0-56.2,0-84.5c-9.2,0-18.2,0-27.6,0c0,9.3,0,18.5,0,28c-9.6,0-18.8,0-28.4,0c0-18.7,0-37.5,0-56.5
	c46.8,0,93.5,0,140.6,0c0,9.2,0,18.5,0,28.4c28.3,0,56.3,0,84.2,0l-0.1-0.1c0,9.4,0,18.9,0,28.7c-9.4,0-18.5,0-27.4,0
	c0,9.4,0,18.4,0,27.6c18.9,0,37.4,0,56,0c0,9.4,0,18.9,0,28.7c-28.6,0-56.6,0-84.8,0c0,9.5,0,18.6,0,27.7c-9.2,0-18.4,0-27.5,0
	c0,9.7,0,19,0,28.4c9.4,0,18.5,0,27.5,0c0,9.3,0,18.5-0.1,27.8c-56.2,0-112.5,0-168.8,0c0-9.3,0-18.5-0.1-27.8c9.4,0,18.9,0,28.3,0
	c0-9.7,0-19,0-28.2c-9.5,0-18.8,0-28.2,0c0,9.6,0,19,0,28.3c-9.3,0-18.6-0.1-27.8-0.1l0.1,0.1c0-9.4,0-18.9,0-28.3
	c-9.8,0-19.1,0-28.6,0c0,9.6,0,18.9,0,28.3l0.1-0.1c-9.2,0-18.4,0-27.8,0c0,9.6,0,18.7,0,27.8c-9.5,0-19,0-28.5,0
	c0-37.3,0-74.7,0-112.3c18.8,0,37.3,0,56.1,0c0,9.3,0,18.5,0,28c9.6,0,18.8,0,28.5,0c0-9.2,0-18.5,0-28c9.4,0,18.3,0,27.7,0
	c0,9.2,0,18.5,0,28.2c19.1,0,37.8,0,56.5,0c0,18.7,0,37.4,0,56c9.7,0,19,0,28.6,0c0-9.5,0-18.7,0-28.3c9.3,0,18.3,0,27.4,0
	c0-9.4,0-18.5,0-27.7C450.4,976.5,431.8,976.5,413.2,976.5z M469.7,947.7c9.6,0,18.9,0,28,0c0-9.3,0-18.3,0-27.3c-9.5,0-18.7,0-28,0
	C469.7,929.6,469.7,938.5,469.7,947.7z"/>
<path d="M835.6,779.3c0-18.6,0-37.2,0-56.1c9.1,0,18.1,0,27.6,0c0-9.7,0-18.9,0-28.7c9.8,0,19.2,0,28.7,0c0,9.4,0,18.9,0,28.3
	c9.7,0,19,0,28.4,0c0-9.6,0-18.9,0-28.3c9.2,0,18.4,0,27.6,0c0-9.4,0-18.5,0-27.4c-9.3,0-18.3,0-27.5,0c0,9.4,0,18.5,0,27.5
	c-9.5,0-19.1,0-28.6,0c0-37.3,0-74.7,0-112.4c9.6,0,18.9,0,28.4,0c0-9.4,0-18.3,0-27.7c-9.2,0-18.5,0-28.2,0c0-9.8,0-19.3,0-28.7
	l-0.1,0.1c18.8,0,37.6-0.1,56.4-0.1c0,9.4,0,18.9,0,28.5c9.8,0,19.2,0,28.5,0c0,9.2,0,18.4,0,27.9c-9.8,0-19.1,0-28.5,0
	c0,9.7,0,19.1,0,28.4c-9.2,0-18.4,0-27.6,0c0,9.4,0,18.5,0,27.4c9.3,0,18.3,0,27.5,0c0-9.4,0-18.5,0-27.5c18.7,0,37.4,0,56,0
	c0-18.9,0-37.4,0-56.1c-9.3,0-18.4,0-27.5,0c0-9.5,0-19.1,0-28.6c9.2,0,18.4,0,27.5,0c0-9.4,0-18.5,0-27.6c-9.4,0-18.4,0-27.5,0
	c0-9.5,0.1-19.1,0.1-28.6c0,0-0.1,0.1-0.1,0.1c18.8,0,37.6,0,56.4,0l-0.1-0.1c0,9.4,0,18.9,0,28.6c9.6,0,18.7,0,27.8,0
	c0,18.8,0,37.5,0,56.2c-9.2,0-18.4,0-27.8,0c0,28.2,0,55.9,0,84c-18.8,0-37.3,0-55.9,0c0,9.7,0,19,0,28.5c9.2,0,18.2,0,27.5,0
	c0,9.3,0,18.4,0,27.7c19,0,37.6,0,56.2,0c0,18.8,0,37.5,0,56.2c-9.3,0-18.5,0-27.8,0.1c0-9.2,0-18.4,0-27.5c-9.7,0-19,0-28.4,0
	c0,9.4,0,18.5,0,27.5c-37.4,0-74.9,0-112.6,0c0,9.8,0,19.1,0,28.5l0.1-0.1c-18.8,0-37.6,0-56.4,0L835.6,779.3z"/>
<path d="M891.8,498.1c0-9.3,0-18.7,0-28.4c-18.8,0-37.3,0-56.2,0c0-18.9,0-37.4,0-56.3c-9.7,0-18.9,0-28.4,0c0-9.3,0-18.3,0-27.6
	c9.3,0,18.6,0,28.3,0c0-9.8,0-19.3,0-28.7c9.2,0,18.4,0,28,0c0-9.5,0-18.5,0-27.8c9.6,0,18.8,0,28.4,0c0-18.8,0-37.3,0-56.2
	c9.8,0,19.1,0,28.5,0c0,9.2,0,18.4,0,27.9c9.5,0,18.6,0,27.6,0c0,18.7,0,37.3,0,55.9c9.9,0,19.2,0,28.4,0c0-18.7,0-37.2,0-55.7
	c-9.6,0-19.1,0-28.5,0c0-9.3,0-18.5,0-27.9c-9.5,0-18.6,0-27.6,0c0-9.4,0-18.9,0-28.3c28.3,0,56,0,84.2,0c0,9.5,0,18.8,0,28.2
	c9.7,0,19.1,0,28.4,0c0,18.7,0,37.4,0,56.3c9.5,0,18.6,0,27.7,0c0,28,0,56,0,84c-9.3,0-18.5,0-27.8,0.1c0-18.7,0-37.4,0-56
	c-9.7,0-19,0-28.4,0c0,18.9,0,37.4,0,56c-9.2,0-18.4,0-27.9,0c0,19,0,37.6,0,56.2l0.1-0.1c-9.4,0-18.9,0-28.7,0c0-19,0-37.5,0-56
	c-9.4,0-18.3,0-27.7,0c0,28.2,0,56.3,0,84.5c-9.8,0-19.1,0-28.5,0L891.8,498.1z M920.1,357.3c-9.6,0-18.8,0-28,0
	c0,9.5,0,18.8,0,28.1c9.5,0,18.7,0,28,0C920.1,375.9,920.1,366.7,920.1,357.3z M863.4,441.5c9.6,0,18.8,0,28,0c0-9.5,0-18.8,0-28.1
	c-9.5,0-18.7,0-28,0C863.4,422.8,863.4,432,863.4,441.5z"/>
<path d="M273.1,188.3c0-9.1,0-18.2,0-27.7c-9.6,0-18.9,0-28.4,0c0-28.4,0-56.3,0-84.5c9.2,0,18.5,0,28.2,0c0,9.2,0,18.5,0,28.1
	c9.4,0,18.3,0,27.7,0c0,9.3,0,18.3,0,27.6c9.7,0,19,0,28.5,0c0-18.5,0-36.9,0-55.8c18.8,0,37.3,0,56.4,0c0-19.1,0-37.8,0-56.5
	c65.5,0,131,0,196.5,0c0,9.4,0,18.9,0,28.6c-9.5,0-18.4,0-27.5,0c0,9.3,0,18.4,0,27.8c9.3,0,18.3,0,27.3,0c0,9.6,0,18.8,0,28.1
	c-18.7,0-37.3,0-56.2,0c0-18.8,0-37.3,0-55.8c-9.4,0-18.3,0-27.7,0c0,9.2,0,18.3,0,27.6c-9.8,0-19.1,0-28.5,0c0-9.2,0-18.4,0-27.6
	c-18.9,0-37.5,0-55.9,0c0,9.3,0,18.3,0,27.5c18.9,0,37.4,0,56,0c0,9.4,0,18.9,0,28.7c-9.6,0-18.6,0-27.6,0c0,9.4,0,18.3,0,27.7
	c18.7,0,37.3,0,56.1,0c0,9.8,0,19.1,0,28.5c-28.3,0-56.6,0-84.9,0c0-18.7,0-37.4,0-56c-18.9,0-37.5,0-56.1,0c0,18.9,0,37.4,0,56
	c-18.7,0-37.4,0-56.2,0c0,9.5,0,18.6,0,27.7c-9.3,0-18.6-0.1-27.9-0.1L273.1,188.3z"/>
<path d="M216.8,19.5c0,65.6,0,131.2,0,197.2c-65.9,0-131.6,0-197.2,0c0-65.8,0-131.5,0-197.2C85.2,19.5,151,19.5,216.8,19.5z
	 M188,188.1c0-46.8,0-93.4,0-139.8c-46.8,0-93.3,0-139.8,0c0,46.7,0,93.2,0,139.8C94.8,188.1,141.3,188.1,188,188.1z"/>
<path d="M1060.5,216.8c-65.6,0-131.2,0-197.2,0c0-65.9,0-131.6,0-197.2c65.8,0,131.5,0,197.2,0C1060.5,85.2,1060.5,151,1060.5,216.8
	z M1032.5,188.1c0-46.8,0-93.4,0-139.8c-47,0-93.8,0-140.5,0c0,46.7,0,93.2,0,139.8C938.8,188.1,985.5,188.1,1032.5,188.1z"/>
<path d="M19.5,863.2c65.6,0,131.2,0,197.2,0c0,65.9,0,131.6,0,197.2c-65.8,0-131.5,0-197.2,0C19.5,994.8,19.5,929,19.5,863.2z
	 M188.1,892c-46.8,0-93.4,0-139.8,0c0,47,0,93.8,0,140.5c46.7,0,93.2,0,139.8,0C188.1,985.7,188.1,939,188.1,892z"/>
<path d="M694.6,75.7c-18.6,0-37.1,0-56.1,0c0-9.1,0-18.1,0-27.5c-9.4,0-18.4,0-28,0c0-9.8,0-19.2,0-28.7c28,0,56,0,84,0
	c0,18.8,0,37.5-0.1,56.3L694.6,75.7z"/>
<path d="M835.5,19.5c0,18.6,0,37.1,0,56c-9.4,0-18.7,0-28.4,0c0-9,0-18,0-27.5c-9.6,0-18.7,0-27.9,0c0,0,0.1,0.1,0.1,0.1
	c0-9.5,0-19-0.1-28.6C798,19.5,816.8,19.5,835.5,19.5z"/>
<path d="M300.8,19.5c0,9.3,0,18.7,0,28.3c-18.7,0-37.2,0-56.2,0c0-9.4,0-18.8,0-28.3C263.2,19.5,282,19.5,300.8,19.5z"/>
<path d="M19.5,779.2c9.5,0,19,0,28.6-0.1c0,9.1,0,18.2,0,27.8c-9.7,0-19.1,0-28.6,0C19.5,797.8,19.5,788.5,19.5,779.2z"/>
<path d="M19.5,385.5c9.3,0,18.7,0,28.2,0c0,9.2,0,18.2,0,27.8c-9.4,0-18.8,0-28.2,0C19.5,404,19.5,394.8,19.5,385.5z"/>
<path d="M1060.5,273c-9.3,0-18.5,0-27.8,0.1c0-9.3,0-18.7,0-28.6c9.4,0,18.6,0,27.8,0C1060.5,254,1060.5,263.5,1060.5,273z"/>
<path d="M329.2,1060.5c-9.5,0-19,0-28.5,0c0-9.3,0-18.5,0.1-27.8l-0.1,0.1c9.5,0,19.1,0,28.6,0l-0.1-0.1
	C329.2,1042,329.2,1051.2,329.2,1060.5z"/>
<path d="M1060.5,469.5c-9.3,0-18.5,0-27.8-0.1c0,0,0.1,0.1,0.1,0.1c0-9.3-0.1-18.6-0.1-27.9c9.3,0,18.5,0,27.8,0.1
	C1060.5,451,1060.5,460.2,1060.5,469.5z"/>
<path d="M835.5,1060.5c0-9.1,0-18.2,0-27.5c9.2,0,18.2,0,27.8,0c0,9.2,0,18.3,0,27.5C854,1060.5,844.8,1060.5,835.5,1060.5z"/>
<path d="M582.1,441.7c-9.1,0-18.2,0-27.7,0c0-9.5,0-18.8,0-28.2c-9.6,0-18.8,0-28.4,0c0,9.2,0,18.5,0,28c-9.4,0-18.5,0-27.8,0
	c0-9.3,0-18.5,0-28c-18.8,0-37.3,0-56.4,0c0,9.4,0,18.8,0,28.3l0.1-0.1c-18.6,0-37.2,0-56.3,0c0,9.5,0,18.7,0,27.9l0.1-0.1
	c-9.5,0-19.1,0.1-28.6,0.1c0-18.8,0-37.6,0-56.3c18.7,0,37.4,0,56,0c0-9.5,0-18.5,0-27.8c-9.2,0-18.2,0-27.5,0c0-9.6,0-18.8,0-28.1
	c-9.7,0-19,0-28.4,0c0,18.9,0,37.5,0,56.1c-9.2,0-18.4,0-27.9,0c0,9.7,0,19,0,28.4c-9.7,0-19.1,0-28.4,0l0.1,0.1
	c0-18.7,0-37.4,0-56.4c-9.6,0-18.8,0-27.9,0l0.1,0.1c0-9.4,0-18.9,0-28.7c-9.8,0-19.1,0-28.3,0c0-9.4,0-18.3,0-27.3
	c18.7,0,37.3,0,56.2,0c0,9.3,0,18.3,0,27.3c9.6,0,18.8,0,28.4,0c0-9.2,0-18.3,0-27.3c28.2,0,56,0,84,0c0,9.2,0,18.2,0,27.5
	c9.6,0,18.9,0,28.5,0c0,9.7,0,19,0,28.2c18.9,0,37.3,0,56.2,0c0-9.5,0-18.8,0-28.2c9.5,0,18.6,0,27.7,0l-0.1-0.1
	c0,9.4,0,18.9,0,28.7c19.1,0,37.6,0,56.2,0c0,19,0,37.6,0,56.2L582.1,441.7z"/>
<path d="M413.2,666.7c0,9.1,0,18.2,0,27.7c9.6,0,18.9,0,28.4,0c0,9.6,0,18.8,0,28.4c18.8,0,37.3,0,56.1,0c0,18.9,0,37.4,0,56.4
	c-9.4,0-18.8,0-28.3,0l0.1,0.1c0-9.4,0-18.9,0-28.6c-19.2,0-37.8,0-56.4,0l0.1,0.1c0-9.2,0-18.4,0-27.5c-9.6,0-18.6,0-27.9,0
	c0,9.4,0,18.4,0,27.5l0.1-0.1c-9.4,0-18.7,0-28.5,0c0,18.8,0,37.4,0,56.2c-9.3,0-18.3,0-27.7,0c0,9.6,0,18.8,0,28.5
	c-9.7,0-19,0-28.5,0c0,9.4,0,18.3,0,27.7c9.2,0,18.5,0,28,0c0,19.2,0,38,0,57c-9.3,0-18.5,0-28.1,0c0-9.2,0-18.5,0-28.2
	c-9.4,0-18.5,0-27.8,0c0-9.6,0-18.8,0-28.4c-9.6,0-18.8,0-28.6,0c0-9.6,0-18.8,0-28l-0.1,0.1c9.4,0,18.9,0,28.7,0
	c0-19.1,0-37.6,0-56.4c18.9,0,37.3,0,56.2,0c0-18.8,0-37.3,0-56.3c9.4,0,18.5,0,27.8,0c0-9.6,0-18.8,0-28.4c9.6,0,18.9,0,28.4,0
	c0-9.5,0-18.6,0-27.7l-0.1,0.1c9.3,0,18.6,0,27.8,0L413.2,666.7z"/>
<path d="M779.3,779.3c-9.4,0-18.7,0-28.5,0c0-9.6,0-18.9,0-28.3c-9.4,0-18.3,0-27.7,0c0,9.2,0,18.5,0,28.3c-9.8,0-19.3,0-28.7,0
	c0-9.4,0-18.7,0-28.5c-9.2,0-18.3,0-27.6,0c0-9.4,0-18.3,0-27.7c-9.6,0-18.8,0-28.4,0c0-9.7,0-19,0-28.5c9.3,0,18.5,0,28.1,0
	c0-37.6,0-74.8,0-112.6c9.6,0,18.8,0,28,0l-0.1-0.1c0,37.3,0,74.7,0,112.3c9.5,0,18.8,0,28.5,0c0-9,0-18.1,0-27.4
	c9.3,0,18.3,0,27.6,0c0-9.5,0-18.8,0-28.6c9.8,0,19.3,0,28.7,0l-0.1-0.1c0,9.4,0,18.9,0,28.6c9.7,0,18.8,0,27.9,0l-0.1-0.1
	c0,9.1,0,18.2,0,27.7c-9.2,0-18.2,0-27.5,0c0,9.7,0,18.9,0,28.5c9,0,18,0,27.2,0c0,9.3,0,18.3,0,27.7c-8.9,0-17.9,0-27.4,0
	C779.3,760.4,779.3,769.9,779.3,779.3z"/>
<path d="M666.8,806.9c0,9.3,0,18.7,0,28.4c9.2,0,18.2,0,27.5,0c0,9.4,0,18.4,0,27.9c-18.7,0-37.4,0-56.1,0c0-9.1,0-18.2,0-27.6
	c-28,0-55.8,0-83.8,0c0,9,0,18,0,27.2c-9.6,0-18.9,0-28.4,0c0-37.3,0-74.6,0-112c28.1,0,56,0,84.4,0c0,9.3,0,18.6,0,28.2
	c9.4,0,18.3,0,27.7,0c0,9.3,0,18.4,0,27.9C647.9,806.9,657.4,806.9,666.8,806.9z M581.8,806.9c0-9.4,0-18.4,0-27.4
	c-9.3,0-18.3,0-27.2,0c0,9.3,0,18.3,0,27.4C563.7,806.9,572.6,806.9,581.8,806.9z"/>
<path d="M385.4,469.6c9.1,0,18.2,0,27.6,0c0,18.7,0,37.2,0,56.1c-9,0-18.1,0-27.5,0c0,47.3,0,94.2,0,141.1l0.1-0.1
	c-18.8,0-37.6,0.1-56.4,0.1c0-9.4,0-18.9,0-28.7c9.6,0,18.6,0,27.6,0c0-9.4,0-18.3,0-27.7c-9.2,0-18.3,0-27.6,0c0-9.8,0-19.1,0-28.5
	c9.2,0,18.4,0,27.6,0c0-9.4,0-18.5,0-27.4c-9.3,0-18.3,0-27.5,0c0,9.4,0,18.5,0,27.5c-9.5,0-19.1-0.1-28.6-0.1l0.1,0.1
	c0-18.7,0-37.4,0-56.4c18.9,0,37.5,0,56.1,0c0-9.5,0-18.6,0-27.7c9.4,0,18.9,0,28.6,0c0-9.8,0-19.1,0-28.5L385.4,469.6z"/>
<path d="M806.9,160.6c9.4,0,18.7,0,28.4,0c0,27.9,0,55.7,0,83.9c9.4,0,18.5,0,27.7,0c0,18.8,0,37.3,0,56.1c-9,0-18.1,0-27.5,0
	c0,19.1,0,37.8,0,56.5c-9.3,0-18.7,0-28.4,0c0-18.8,0-37.3,0-56.4c-9.6,0-18.8,0-27.9,0l0.1,0.1c0-9.3-0.1-18.6-0.1-27.9
	c9.2,0,18.4,0,27.9,0c0-37.8,0-75.1,0-112.5L806.9,160.6z"/>
<path d="M469.5,554.3c28.1,0,56.2,0,84.7,0c0,18.9,0,37.5,0,56.2l0.1-0.1c-9.5,0-19,0-28.5,0c0-9.4,0-18.8,0-28.1
	c-9.7,0-18.7,0-27.6,0c0,9.5,0,18.7,0,28c9.4,0,18.6,0,27.7,0c-0.1,9.3-0.2,18.7-0.2,28l0.1-0.1c-9.1,0-18.2,0-27.7,0
	c0,18.8,0,37.3,0,56.1c-9.7,0-18.9,0-28.6,0c0-46.8,0-93.4,0-140.1L469.5,554.3z"/>
<path d="M779.3,638.3c0-9.1,0-18.2,0-27.7c-9.6,0-18.9,0-28.3,0c0-9.6,0-18.8,0-28.3c37.2,0,74.5,0,112,0c0,9.2,0,18.5,0,28.1
	c-9,0-18,0-27.3,0c0,18.8,0,37.3,0,56.3c-9.8,0-19.3,0-28.7,0l0.1,0.1c0-9.4,0-18.9,0-28.6c-9.7,0-18.8,0-27.9,0L779.3,638.3z"/>
<path d="M469.4,779.2c0,18.6,0,37.2,0,56.1c-28,0-55.7,0-83.7,0c0-9.3,0-18.5,0-28.1c9,0,18,0,27.6,0c0-9.6,0-18.8,0-28l-0.1,0.1
	c18.8,0,37.6,0,56.4,0L469.4,779.2z"/>
<path d="M413.3,666.8c0-28.1,0-56.2,0-84.5c9.4,0,18.7,0,28.2,0c0,28,0,56,0,84.4c-9.4,0-18.9,0-28.3,0
	C413.2,666.7,413.3,666.8,413.3,666.8z"/>
<path d="M554.2,638.2c0,9.4,0,18.7,0,28.5c9.3,0,18.4,0,27.6,0c0,9.4,0,18.3,0,27.5c-18.5,0-37,0-56,0c0-18.6,0-37.3,0-56l-0.1,0.1
	c9.5,0,19.1,0,28.6,0L554.2,638.2z"/>
<path d="M244.6,835.4c-18.6,0-37.2,0-56,0c0-9.4,0-18.7,0-28.3c9.2,0,18.5,0,28.3,0c0-9.6,0-18.8,0-27.9l-0.1,0.1
	c9.2,0,18.4,0,27.8,0c0,19,0,37.6,0,56.2L244.6,835.4z"/>
<path d="M638.3,863.2c0,9.5,0,19.1,0,28.6c-18.8,0-37.6-0.1-56.4-0.1l0.1,0.1c0-9.4,0-18.7,0-28.6
	C600.9,863.2,619.6,863.2,638.3,863.2z"/>
<path d="M469.6,554.2c-9.1,0-18.2,0-27.6,0c0-18.7,0-37.2,0-56c9,0,18,0,27.4,0c0,18.7,0,37.4,0,56.1
	C469.5,554.3,469.6,554.2,469.6,554.2z"/>
<path d="M610.4,610.5c0,9.1,0,18.2,0,27.7c-18.9,0-37.6,0-56.2,0l0.1,0.1c0-9.3,0-18.6,0-27.9l-0.1,0.1c18.8,0,37.6,0,56.4,0
	L610.4,610.5z"/>
<path d="M525.9,497.8c0-9.4,0-18.6,0-28c9.3,0,18.6,0,28.1,0c0,9.3,0,18.6,0,28C544.7,497.8,535.5,497.8,525.9,497.8z"/>
<path d="M694.5,582.1c0-9.1,0-18.2,0-27.5c9.4,0,18.7,0,28.2,0c0,9,0,18,0,27.4c-9.5,0-18.9,0-28.3,0
	C694.4,582,694.5,582.1,694.5,582.1z"/>
<path d="M413.3,779.2c-9.1,0-18.2,0-27.8,0c0-9.6,0-19.1,0-28.5l-0.1,0.1c9.3,0,18.6,0,27.9,0l-0.1-0.1c0,9.5,0,19.1,0,28.6
	L413.3,779.2z"/>
<path d="M891.8,525.7c-9.3,0-18.7,0-28.3,0c0-9.2,0-18.2,0-27.6c9.4,0,18.9,0,28.3,0l-0.1-0.1c0,9.3,0,18.6,0,27.9L891.8,525.7z"/>
<path d="M610.5,610.6c0-9.3,0-18.7,0-28.3c9.2,0,18.2,0,27.5,0c0,9.2,0,18.5,0,28.2c-9.2,0-18.4,0-27.6,0
	C610.4,610.5,610.5,610.6,610.5,610.6z"/>
<path d="M779.2,441.8c9.1,0,18.2,0,27.5,0c0,9.2,0,18.2,0,27.5c-9,0-18,0-27.4,0c0-9.2,0-18.4,0-27.6
	C779.3,441.7,779.2,441.8,779.2,441.8z"/>
<path d="M441.7,441.8c9.1,0,18.2,0,27.5,0c0,9.2,0,18.2,0,27.5c-9,0-18,0-27.4,0c0-9.2,0-18.4,0-27.6
	C441.8,441.7,441.7,441.8,441.7,441.8z"/>
<path d="M694.6,779.2c0,9.1,0,18.2,0,27.9c-9.5,0-18.7,0-27.9,0c0-9.1,0-18.2,0-27.9C676.2,779.2,685.4,779.2,694.6,779.2z"/>
<path d="M750.8,863.2c-9.1,0-18.2,0-27.5,0c0-18.7,0-37.2,0-55.9c9,0,18,0,27.4,0c0,18.7,0,37.4,0,56L750.8,863.2z"/>
<path d="M750.7,863.3c9.3,0,18.7,0,28.4,0c0,9.6,0,19.1,0,28.7c0,0,0.1-0.1,0.1-0.1c-9.3,0-18.7,0-28.4,0c0-9.8,0-19.2,0-28.7
	C750.8,863.2,750.7,863.3,750.7,863.3z"/>
<path d="M638.2,920.3c0-9.5,0-19.1,0-28.6c9.3,0,18.7,0,28.3,0c0,9.5,0,18.8,0,28.6C657.1,920.3,647.6,920.3,638.2,920.3z"/>
<path d="M525.7,1032.8c0-9.5,0-19.1,0-28.6c9.3,0,18.7,0,28.3,0c0,9.5,0,18.8,0,28.6C544.6,1032.8,535.1,1032.8,525.7,1032.8z"/>
<path d="M610.3,1004.5c0,9.5,0,18.6,0,28c-9.4,0-18.5,0-28,0c0-9.2,0-18.5,0-28C591.5,1004.5,600.8,1004.5,610.3,1004.5z"/>
<path d="M694.5,948.1c0-9.1,0-18.2,0-27.5c9.4,0,18.7,0,28.2,0c0,9,0,18,0,27.4c-9.5,0-18.9,0-28.3,0
	C694.4,948,694.5,948.1,694.5,948.1z"/>
<path d="M610.4,948.1c0-9.1,0-18.2,0-27.9c9.5,0,18.7,0,27.9,0c0,9.1,0,18.2,0,27.9C628.8,948.1,619.6,948.1,610.4,948.1z"/>
<path d="M273.1,244.4c0,9.3,0,18.7,0,28.4c9.2,0,18.2,0,27.5,0c0,9.4,0,18.4,0,27.8c-28,0-55.9,0-83.8,0l0.1,0.1
	c0-9.3,0-18.6,0-27.9l-0.1,0.1c9.1,0,18.2,0,27.7,0c0-9.5,0-18.8,0-28.6C254.2,244.4,263.6,244.4,273.1,244.4z"/>
<path d="M216.7,300.7c0,9.4,0,18.7,0,28.6c-18.9,0-37.6,0-56.3,0c0-18.6,0-37.2,0-56.2c9.5,0,18.7,0,27.9,0l-0.1-0.1
	c0,9.2,0,18.4,0,27.9c9.9,0,19.3,0,28.6,0L216.7,300.7z"/>
<path d="M273.1,216.7c-9.3,0-18.7,0-28.3,0c0-9.4,0-18.7,0-28.4c9.4,0,18.9,0,28.3,0c0,0-0.1-0.1-0.1-0.1c0,9.5,0,19.1,0,28.6
	L273.1,216.7z"/>
<path d="M188.3,273.1c0-9.3,0-18.7,0-28.3c9.4,0,18.7,0,28.4,0c0,9.4,0,18.9,0,28.3c0,0,0.1-0.1,0.1-0.1c-9.5,0-19.1,0-28.6,0
	L188.3,273.1z"/>
<path d="M300.8,216.7c0,9.1,0,18.2,0,27.9c-9.5,0-18.7,0-27.9,0c0-9.3,0.1-18.6,0.1-27.9c0,0-0.1,0.1-0.1,0.1
	C282.2,216.8,291.5,216.7,300.8,216.7z"/>
<path d="M582.1,188.3c-9.3,0-18.6,0-27.9,0c0-18.6,0-37.2,0-56c9.3,0,18.3,0,27.9,0C582.1,150.9,582.1,169.6,582.1,188.3z"/>
<path d="M525.7,216.8c0-9.5,0-19.1,0-28.6c9.5,0,19.1,0,28.6,0c0,9.4,0,18.7,0,28.6C544.6,216.8,535.1,216.8,525.7,216.8z"/>
<path d="M638.3,131.9c0,9.5,0,19.1,0,28.6c-9.1,0-18.2,0-27.5,0c0-9.5,0-18.8,0-28.6C619.9,131.9,629.1,131.9,638.3,131.9z"/>
<path d="M525.8,188.3c-9.3,0-18.6,0-27.9,0c0-9.3,0-18.6,0-27.9c9.1,0,18.2,0,27.9,0C525.8,169.9,525.8,179.1,525.8,188.3z"/>
<path d="M47.9,581.9c18.6,0,37.2,0,56.1,0c0,9.5,0,18.8,0,28.4c9.4,0,18.4,0,28,0c0,9.6,0,18.7,0,27.9c-18.6,0-37.2,0-56.1,0
	c0-9.2,0-18.3,0-27.7c-9.4,0-18.4,0-28,0C47.9,600.8,47.9,591.4,47.9,581.9z"/>
<path d="M1004.2,750.7c9.5,0,19.1,0,28.6,0c0,9.5,0,19.1,0,28.6c-9.4,0-18.7,0-28.6,0C1004.2,769.6,1004.2,760.1,1004.2,750.7z"/>
<path d="M1004.2,413.2c9.5,0,19.1,0,28.6,0c0,9.5,0,19.1,0,28.6c-9.4,0-18.7,0-28.6,0C1004.2,432.1,1004.2,422.6,1004.2,413.2z"/>
<path d="M356.9,216.8c0-18.8,0-37.6,0-56.4c18.8,0,37.6,0,56.4,0c0,9.3,0,18.6,0,27.9c-9.1,0-18.2,0-27.7,0c0,9.4,0,18.7,0,28.5
	C375.8,216.8,366.4,216.8,356.9,216.8z"/>
<path d="M300.7,216.8c0-9.5,0-19.1,0-28.6c9.4,0,18.7,0,28.6,0c0,9.7,0,19.2,0,28.6C319.8,216.8,310.2,216.8,300.7,216.8z"/>
<path d="M413.2,188.2c9.4,0,18.7,0,28.6,0c0,9.7,0,19.2,0,28.6c-9.4,0-18.7,0-28.6,0C413.2,207.1,413.2,197.6,413.2,188.2z"/>
<path d="M413.3,273c0-9.3,0-18.6,0-28.4c9.6,0,19.1,0,28.6,0c0,0-0.1-0.1-0.1-0.1c0,9.3,0,18.7,0,28.4c-9.8,0-19.2,0-28.6,0
	L413.3,273z"/>
<path d="M216.8,385.6c-9.5,0-19.1,0-28.6,0c0-9.3,0-18.7,0-28.3c9.5,0,18.8,0,28.6,0C216.8,366.7,216.8,376.1,216.8,385.6z"/>
<path d="M413.2,272.9c0,9.1,0,18.2,0,27.5c-9.2,0-18.2,0-27.5,0c0-9,0-18,0-27.4c9.2,0,18.4,0,27.6,0
	C413.3,273,413.2,272.9,413.2,272.9z"/>
<path d="M329.2,216.7c9.3,0,18.6,0,27.9,0c0,9.1,0,18.2,0,27.5c-9.3,0-18.3,0-27.9,0C329.2,235.1,329.2,225.9,329.2,216.7z"/>
<path d="M638.1,385.7c0,9.1,0,18.1,0,27.3c-9.1,0-18.1,0-27.4,0c0-9,0-18.1,0-27.3C619.8,385.7,628.7,385.7,638.1,385.7z"/>
<path d="M722.9,273.1c0-9.5,0-19.1,0-28.6c9.1,0,18.2,0,27.8,0c0-18.9,0-37.6,0-56.2c9.4,0,18.7,0,28.6,0c0,28.5,0,56.7,0,84.9
	C760.5,273.1,741.7,273.1,722.9,273.1z"/>
<path d="M216.7,750.8c0-9.3,0-18.6,0-27.9c27.8,0,55.7,0,83.8,0c0,9.3,0,18.3,0,27.9C272.6,750.8,244.6,750.8,216.7,750.8z"/>
<path d="M160.4,723.1c0-9.5,0-19.1,0-28.6c18.8,0,37.6,0,56.4,0c0,9.5,0,19.1,0,28.6C198,723.1,179.2,723.1,160.4,723.1z"/>
<path d="M300.7,666.7c9.5,0,19.1,0,28.6,0c0,9.1,0,18.2,0,27.5c-9.5,0-18.8,0-28.6,0C300.7,685.1,300.7,675.9,300.7,666.7z"/>
<path d="M216.8,525.7c0,9.5,0,19.1,0,28.6c-9.4,0-18.7,0-28.6,0c0-9.7,0-19.2,0-28.6C197.7,525.7,207.3,525.7,216.8,525.7z"/>
<path d="M357.1,469.4c0,9.5,0,19.1,0,28.6c-18.6,0-37.2,0-56.4,0c0-9.7,0-19.2,0-28.6C319.5,469.4,338.3,469.4,357.1,469.4z"/>
<path d="M891.5,891.6c-9.5,0-18.6,0-28,0c0-9.4,0-18.5,0-28c9.2,0,18.5,0,28,0C891.5,872.7,891.5,882,891.5,891.6z"/>
<path d="M976.6,497.9c0,9.3,0,18.6,0,27.9c-9.5,0-19.1,0-28.6,0c0-9.1,0-18.2,0-27.9C957.7,497.9,967.1,497.9,976.6,497.9z"/>
<path d="M160.2,160.3c-28.2,0-56.1,0-84.3,0c0-28.1,0-56,0-84.3c28,0,56,0,84.3,0C160.2,104,160.2,132,160.2,160.3z"/>
<path d="M920.5,75.9c28,0,55.7,0,83.5,0c0,28.1,0,56.1,0,84.3c-27.7,0-55.5,0-83.5,0C920.5,132.3,920.5,104.2,920.5,75.9z"/>
<path d="M160.3,920.5c0,27.9,0,55.6,0,83.5c-28.1,0-56,0-84.3,0c0-27.7,0-55.5,0-83.5C104,920.5,132,920.5,160.3,920.5z"/>
</svg>
