<?xml version="1.0" encoding="utf-8"?>
<!-- Generator: Adobe Illustrator 28.4.1, SVG Export Plug-In . SVG Version: 6.00 Build 0)  -->
<svg version="1.1" id="Layer_1" xmlns="http://www.w3.org/2000/svg" xmlns:xlink="http://www.w3.org/1999/xlink" x="0px" y="0px"
	 viewBox="0 0 1080 1920" style="enable-background:new 0 0 1080 1920;" xml:space="preserve">
<style type="text/css">
	.st0{fill:#00262F;}
	.st1{fill:#6C4859;}
	.st2{fill:#EF9448;}
	.st3{fill:#7ABCD5;}
	.st4{fill:#EB553D;}
</style>
<rect x="-420" y="420" transform="matrix(-1.836970e-16 1 -1 -1.836970e-16 1500 420)" class="st0" width="1920" height="1080"/>
<g>
	<rect x="0" y="0" class="st1" width="119.9" height="60"/>
	<rect x="0" y="60" class="st2" width="119.9" height="60"/>
	<rect x="0" y="119.9" class="st3" width="119.9" height="60"/>
	<rect x="0" y="179.9" class="st4" width="119.9" height="60"/>
</g>
<g>
	
		<rect x="960.1" y="1860" transform="matrix(-1 9.808514e-09 -9.808514e-09 -1 2040.1006 3780.0452)" class="st1" width="119.9" height="60"/>
	
		<rect x="960.1" y="1800.1" transform="matrix(-1 1.961703e-08 -1.961703e-08 -1 2040.1006 3660.1355)" class="st2" width="119.9" height="60"/>
	
		<rect x="960.1" y="1740.1" transform="matrix(-1 1.961703e-08 -1.961703e-08 -1 2040.1006 3540.2258)" class="st3" width="119.9" height="60"/>
	
		<rect x="960.1" y="1680.2" transform="matrix(-1 1.961703e-08 -1.961703e-08 -1 2040.1006 3420.3162)" class="st4" width="119.9" height="60"/>
</g>
</svg>
