<?xml version="1.0" encoding="utf-8"?>
<!-- Generator: Adobe Illustrator 28.4.1, SVG Export Plug-In . SVG Version: 6.00 Build 0)  -->
<svg version="1.1" id="Layer_1" xmlns="http://www.w3.org/2000/svg" xmlns:xlink="http://www.w3.org/1999/xlink" x="0px" y="0px"
	 viewBox="0 0 960 540" style="enable-background:new 0 0 960 540;" xml:space="preserve">
<style type="text/css">
	.st0{fill:url(#SVGID_1_);}
	.st1{fill:url(#SVGID_00000044153506530147074770000010616074572567417508_);}
	.st2{clip-path:url(#SVGID_00000161610078891174356340000014132902741359769218_);}
	.st3{clip-path:url(#SVGID_00000170241652895510191360000011497357362192419496_);}
	.st4{clip-path:url(#SVGID_00000111187782154954853940000010142792330918474652_);}
	.st5{fill:url(#SVGID_00000006704750937641482560000014957187376821034152_);}
	.st6{fill:url(#SVGID_00000165948405623923848810000010119109296836075161_);}
</style>
<g>
	<linearGradient id="SVGID_1_" gradientUnits="userSpaceOnUse" x1="231.2029" y1="376.1256" x2="131.1151" y2="290.0037">
		<stop  offset="0" style="stop-color:#EC1C24"/>
		<stop  offset="9.423184e-02" style="stop-color:#D61A21"/>
		<stop  offset="0.27" style="stop-color:#B3171B"/>
		<stop  offset="0.4484" style="stop-color:#981417"/>
		<stop  offset="0.6284" style="stop-color:#841214"/>
		<stop  offset="0.811" style="stop-color:#791113"/>
		<stop  offset="1" style="stop-color:#751112"/>
	</linearGradient>
	<path class="st0" d="M88,364.7c0,24.9,78.7,29.4,78.7,29.4V203H88V364.7z"/>
	
		<linearGradient id="SVGID_00000044877791458437010400000009730633303824040112_" gradientUnits="userSpaceOnUse" x1="751.4939" y1="375.9091" x2="821.6538" y2="314.8215">
		<stop  offset="0" style="stop-color:#EC1C24"/>
		<stop  offset="4.863507e-02" style="stop-color:#E11B22"/>
		<stop  offset="0.2492" style="stop-color:#BB171D"/>
		<stop  offset="0.4479" style="stop-color:#9C1518"/>
		<stop  offset="0.6417" style="stop-color:#861315"/>
		<stop  offset="0.8284" style="stop-color:#791113"/>
		<stop  offset="1" style="stop-color:#751112"/>
	</linearGradient>
	<path style="fill:url(#SVGID_00000044877791458437010400000009730633303824040112_);" d="M871.6,364.7c0,27.1-78.7,38.3-78.7,38.3
		V239.2h78.7V364.7z"/>
	<g>
		<g>
			<defs>
				
					<rect id="SVGID_00000078040450874249371220000015526499883428688042_" x="614.5" y="212.8" transform="matrix(-1.836970e-16 1 -1 -1.836970e-16 1119.6024 -580.0583)" width="470.8" height="113.9"/>
			</defs>
			<clipPath id="SVGID_00000040534091956465416560000014264857347510186653_">
				<use xlink:href="#SVGID_00000078040450874249371220000015526499883428688042_"  style="overflow:visible;"/>
			</clipPath>
			<g style="clip-path:url(#SVGID_00000040534091956465416560000014264857347510186653_);">
				<image style="overflow:visible;" width="113" height="418" xlink:href="AA146D4F.png"  transform="matrix(1 0 0 1 734 61)">
				</image>
			</g>
		</g>
		<g>
			<defs>
				
					<rect id="SVGID_00000166657491392132453210000017097415344801025706_" x="-125.6" y="212.8" transform="matrix(-1.836970e-16 1 -1 -1.836970e-16 379.5375 160.0066)" width="470.8" height="113.9"/>
			</defs>
			<clipPath id="SVGID_00000160879528852027323730000015917586912686376884_">
				<use xlink:href="#SVGID_00000166657491392132453210000017097415344801025706_"  style="overflow:visible;"/>
			</clipPath>
			<g style="clip-path:url(#SVGID_00000160879528852027323730000015917586912686376884_);">
				<image style="overflow:visible;" width="113" height="418" xlink:href="AA146D4D.png"  transform="matrix(1 0 0 1 113 61)">
				</image>
			</g>
		</g>
	</g>
	<g>
		<defs>
			<rect id="SVGID_00000140734325929112882840000016354335174166462092_" x="166.7" y="295.8" width="626.2" height="196.1"/>
		</defs>
		<clipPath id="SVGID_00000096761054045468119840000003915900607800635024_">
			<use xlink:href="#SVGID_00000140734325929112882840000016354335174166462092_"  style="overflow:visible;"/>
		</clipPath>
		<g style="clip-path:url(#SVGID_00000096761054045468119840000003915900607800635024_);">
			<image style="overflow:visible;" width="782" height="89" xlink:href="AA146D53.png"  transform="matrix(1 0 0 1 95 300)">
			</image>
		</g>
	</g>
	
		<linearGradient id="SVGID_00000168816391826325093130000011193342727678244483_" gradientUnits="userSpaceOnUse" x1="50.6039" y1="220.9043" x2="985.0804" y2="220.9043">
		<stop  offset="8.470880e-03" style="stop-color:#A71E22"/>
		<stop  offset="2.287558e-02" style="stop-color:#B41F22"/>
		<stop  offset="8.809710e-02" style="stop-color:#ED2524"/>
		<stop  offset="0.1602" style="stop-color:#CF2224"/>
		<stop  offset="0.2406" style="stop-color:#B21F24"/>
		<stop  offset="0.2821" style="stop-color:#B01F24"/>
		<stop  offset="0.5032" style="stop-color:#A71E22"/>
		<stop  offset="0.7099" style="stop-color:#B21F24"/>
		<stop  offset="0.7383" style="stop-color:#B71F24"/>
		<stop  offset="0.7741" style="stop-color:#C71E24"/>
		<stop  offset="0.8135" style="stop-color:#E01D24"/>
		<stop  offset="0.8285" style="stop-color:#EC1C24"/>
		<stop  offset="0.8613" style="stop-color:#D81C23"/>
		<stop  offset="0.9287" style="stop-color:#A31D20"/>
		<stop  offset="0.9335" style="stop-color:#9F1D20"/>
	</linearGradient>
	<path style="fill:url(#SVGID_00000168816391826325093130000011193342727678244483_);" d="M871.6,364.7c0,0-2.7-12-34.8-13.9
		c-131.6-8-540.9-9.3-714.1,0.4C90.7,353,88,364.7,88,364.7V130.1c0-19.3,11.7-30.1,48.9-34.9c89.6-13.2,745.9-46.8,734.7,34.9
		C871.6,130.1,871.6,364.7,871.6,364.7z"/>
	<g>
		<g>
			
				<linearGradient id="SVGID_00000088831083839508470410000007171308845194731191_" gradientUnits="userSpaceOnUse" x1="405.5043" y1="499.9574" x2="545.8053" y2="247.1069">
				<stop  offset="0" style="stop-color:#CA3440"/>
				<stop  offset="2.514315e-02" style="stop-color:#E1727B"/>
				<stop  offset="4.447436e-02" style="stop-color:#F09BA3"/>
				<stop  offset="5.440410e-02" style="stop-color:#F6ABB2"/>
				<stop  offset="0.1425" style="stop-color:#EC5A60"/>
				<stop  offset="0.262" style="stop-color:#E44A53"/>
				<stop  offset="0.4721" style="stop-color:#D32436"/>
				<stop  offset="0.715" style="stop-color:#CD4250"/>
				<stop  offset="0.7357" style="stop-color:#C73E4B"/>
				<stop  offset="0.8817" style="stop-color:#9E2429"/>
				<stop  offset="0.9569" style="stop-color:#8E1A1C"/>
			</linearGradient>
			<path style="fill:url(#SVGID_00000088831083839508470410000007171308845194731191_);" d="M793.3,404.6l-0.8-3.2
				c0.2,0,24.2-3.3,47.8-12.3c29.8-11.7,45-32.6-3.9-37.7c-169.3-10.1-470.2-8.7-669.5-2.3c-16.4,0.6-31.2,1.3-44,2.1
				c-20,1.1-30.2,5.8-30.3,14c-1.7,17.1,59.9,28.7,74.2,27.4l0,3.2c-0.7,0-18.2-0.1-40.1-5.5c-54.7-14.2-48.2-40.2-4.2-42.3
				c12.8-0.7,27.7-1.4,44.2-2.1c199.9-6.4,500.5-7.8,670.3,2.3c53.9,5.5,38.9,30.9,5.5,43.7C818.1,401.2,794.3,404.4,793.3,404.6z"
				/>
		</g>
	</g>
</g>
</svg>
