<?xml version="1.0" encoding="utf-8"?>
<!-- Generator: Adobe Illustrator 28.4.1, SVG Export Plug-In . SVG Version: 6.00 Build 0)  -->
<svg version="1.1" id="Layer_1" xmlns="http://www.w3.org/2000/svg" xmlns:xlink="http://www.w3.org/1999/xlink" x="0px" y="0px"
	 viewBox="0 0 701.4 671.8" style="enable-background:new 0 0 701.4 671.8;" xml:space="preserve">
<style type="text/css">
	.st0{fill:url(#SVGID_1_);}
	.st1{fill:url(#SVGID_00000082329361727096139910000000059578328189085871_);}
	.st2{fill:url(#SVGID_00000135671644186673852410000015394492213037075620_);}
	.st3{fill:url(#SVGID_00000031186500351032548590000009764409383644284069_);}
	.st4{fill:url(#SVGID_00000002357470415484877580000015810785685699600564_);}
	.st5{fill:url(#SVGID_00000024690121050341524530000006388375326121661835_);}
	.st6{fill:url(#SVGID_00000047754869680644769700000017496670885230261157_);}
	.st7{fill:url(#SVGID_00000124126962130898973950000000522922150512931233_);}
	.st8{fill:url(#SVGID_00000106857677522475754280000001425567978900493707_);}
</style>
<g>
	
		<linearGradient id="SVGID_1_" gradientUnits="userSpaceOnUse" x1="307.9254" y1="634.0958" x2="343.5681" y2="634.0958" gradientTransform="matrix(0.8876 0.4608 -0.4608 0.8876 214.7844 -89.7126)">
		<stop  offset="0" style="stop-color:#742E15"/>
		<stop  offset="0.17" style="stop-color:#AA802C"/>
		<stop  offset="0.319" style="stop-color:#FFEC8F"/>
		<stop  offset="0.4294" style="stop-color:#D19B31"/>
		<stop  offset="0.5521" style="stop-color:#D19B31"/>
		<stop  offset="0.6933" style="stop-color:#FFFFFF"/>
		<stop  offset="0.7914" style="stop-color:#FFEC8F"/>
		<stop  offset="1" style="stop-color:#D19B31"/>
	</linearGradient>
	<path class="st0" d="M245.4,586.9l-11.7-6.1l-11.7-6.1c-3.6,6.3-29.2,46.1-29.2,46.1c2.8,15.3-3.2,44.8-3.2,44.8
		s20.7-21.8,34.8-28.4C224.5,637.2,242.3,593.5,245.4,586.9z"/>
	<path d="M234.4,581.1l-0.9-0.5l-0.9-0.5c0,0-10.3,20.5-17,33.4c-1,2-2.4,4.6-3.9,7.4c-1-0.1-2,0.4-2.5,1.3c-0.5,0.9-0.3,2,0.3,2.7
		c-8,15.1-18.7,35-18.7,35c-0.3,1.8-1,5.5-1,5.5s2.6-2.7,3.9-4c0,0,9.9-20.4,17.5-35.7c1,0.1,1.9-0.4,2.4-1.3c0.5-0.9,0.3-2-0.3-2.8
		c1.4-2.9,2.7-5.5,3.8-7.5C223.8,601.5,234.4,581.1,234.4,581.1z"/>
	
		<linearGradient id="SVGID_00000178202313273154879840000014694994221824377524_" gradientUnits="userSpaceOnUse" x1="298.5715" y1="400.61" x2="353.0242" y2="400.61" gradientTransform="matrix(0.8876 0.4608 -0.4608 0.8876 214.7844 -89.7126)">
		<stop  offset="0" style="stop-color:#000000"/>
		<stop  offset="0.4969" style="stop-color:#000000"/>
		<stop  offset="0.599" style="stop-color:#404042"/>
		<stop  offset="0.7117" style="stop-color:#8A8C8F"/>
		<stop  offset="0.7315" style="stop-color:#808284"/>
		<stop  offset="0.8113" style="stop-color:#5C5D5F"/>
		<stop  offset="0.8853" style="stop-color:#424343"/>
		<stop  offset="0.9505" style="stop-color:#333333"/>
		<stop  offset="1" style="stop-color:#2D2D2D"/>
	</linearGradient>
	<path style="fill:url(#SVGID_00000178202313273154879840000014694994221824377524_);" d="M253.3,493.4c0,0-25.8,56.4-27.8,58.5
		c-2,2.1-7.8,7-10,14.4c0,0,2.1,4.8,19.4,12.6c16.3,9.6,21.5,8.6,21.5,8.6c4.7-6.1,5.5-13.6,6-16.5c0.5-2.9,31.8-56.4,31.8-56.4
		s0.5-0.6,2.2-1.7c0,0,10.1-18.8,11.7-21.4c1.7-2.6,4.2-4.5,6.5-8.3c2.3-3.9,42.7-81.7,57.6-109.7c14.8-28,54.6-108.1,54.6-108.1
		L404,252.9l-23.2-11.4c0,0-42.7,78.6-57,106.9c-14.4,28.2-54.8,106.1-56.6,110.2c-1.8,4.1-1.9,7.2-3,10.1
		c-1.2,2.9-10.7,21.9-10.7,21.9S253.4,491.6,253.3,493.4z"/>
	
		<linearGradient id="SVGID_00000083085780891846489490000003369121215034185100_" gradientUnits="userSpaceOnUse" x1="294.2393" y1="84.0078" x2="357.3546" y2="84.0078" gradientTransform="matrix(0.8876 0.4608 -0.4608 0.8876 214.7844 -89.7126)">
		<stop  offset="0" style="stop-color:#000000"/>
		<stop  offset="0.4969" style="stop-color:#000000"/>
		<stop  offset="0.599" style="stop-color:#404042"/>
		<stop  offset="0.7117" style="stop-color:#8A8C8F"/>
		<stop  offset="0.7315" style="stop-color:#808284"/>
		<stop  offset="0.8113" style="stop-color:#5C5D5F"/>
		<stop  offset="0.8853" style="stop-color:#424343"/>
		<stop  offset="0.9505" style="stop-color:#333333"/>
		<stop  offset="1" style="stop-color:#2D2D2D"/>
	</linearGradient>
	<path style="fill:url(#SVGID_00000083085780891846489490000003369121215034185100_);" d="M538.9,60.1l8.7-27.1
		c-2.9-6.6-20.9-16.2-20.9-16.2s-18.3-9.2-25.3-7.8l-17.1,22.7c0,0-73.3,138.8-85.8,164C386,220.8,378,239.7,378,239.7
		c3.6,2.2,26,13.2,26,13.2s21.9,12,25.7,13.7c0,0,10.9-17.4,24.3-42C467.5,199.9,538.9,60.1,538.9,60.1z"/>
	
		<linearGradient id="SVGID_00000154383900744189674020000017172006287488016011_" gradientUnits="userSpaceOnUse" x1="294.937" y1="-17.9433" x2="356.6558" y2="-17.9433" gradientTransform="matrix(0.8876 0.4608 -0.4608 0.8876 214.7844 -89.7126)">
		<stop  offset="0" style="stop-color:#625315"/>
		<stop  offset="0.2454" style="stop-color:#D4B624"/>
		<stop  offset="0.589" style="stop-color:#D4B624"/>
		<stop  offset="0.6073" style="stop-color:#D9BE35"/>
		<stop  offset="0.6632" style="stop-color:#E6D666"/>
		<stop  offset="0.706" style="stop-color:#EFE584"/>
		<stop  offset="0.7301" style="stop-color:#F2EA8F"/>
		<stop  offset="0.7477" style="stop-color:#F1E88B"/>
		<stop  offset="0.7662" style="stop-color:#EDE17E"/>
		<stop  offset="0.785" style="stop-color:#E7D769"/>
		<stop  offset="0.8039" style="stop-color:#DEC84C"/>
		<stop  offset="0.8221" style="stop-color:#D4B629"/>
		<stop  offset="1" style="stop-color:#625315"/>
	</linearGradient>
	<path style="fill:url(#SVGID_00000154383900744189674020000017172006287488016011_);" d="M539.2,59c0,0-9.6-10.4-25-18.4
		c-15.4-8-29.4-9.8-29.4-9.8l-1.9,3.3c5.3-0.4,29.6,10,29.6,10s22.5,13.9,25.2,18.4L539.2,59z"/>
	
		<linearGradient id="SVGID_00000116926404568575762960000010197675952567131822_" gradientUnits="userSpaceOnUse" x1="310.6575" y1="68.0375" x2="340.9368" y2="68.0375" gradientTransform="matrix(0.8876 0.4608 -0.4608 0.8876 214.7844 -89.7126)">
		<stop  offset="0.2945" style="stop-color:#77641F"/>
		<stop  offset="0.4233" style="stop-color:#D4B624"/>
		<stop  offset="0.4504" style="stop-color:#D9BE35"/>
		<stop  offset="0.5331" style="stop-color:#E6D666"/>
		<stop  offset="0.5963" style="stop-color:#EFE584"/>
		<stop  offset="0.6319" style="stop-color:#F2EA8F"/>
		<stop  offset="0.7134" style="stop-color:#E4D15C"/>
		<stop  offset="0.7975" style="stop-color:#D4B624"/>
		<stop  offset="0.839" style="stop-color:#C6A923"/>
		<stop  offset="0.9418" style="stop-color:#A88C21"/>
		<stop  offset="1" style="stop-color:#9D8120"/>
	</linearGradient>
	<path style="fill:url(#SVGID_00000116926404568575762960000010197675952567131822_);" d="M527.2,48.4c0,0-9.1-6.8-12.8-8.3
		c-3.3-2.1-14.1-5.7-14.1-5.7s-5.1,16.6-14.9,40.3c-9.8,23.7-43.5,95.9-43.5,95.9l-5.8,2c-6.9,14.4-5.5,28.8-5.5,28.8
		s12.5-7.1,20.4-21l-1.7-5.9c0,0,39.7-69.1,53.4-90.7C516.6,62.2,527.2,48.4,527.2,48.4z"/>
	
		<linearGradient id="SVGID_00000062878928471047107950000016346743019009381253_" gradientUnits="userSpaceOnUse" x1="294.4391" y1="174.1423" x2="357.1505" y2="174.1423" gradientTransform="matrix(0.8876 0.4608 -0.4608 0.8876 214.7844 -89.7126)">
		<stop  offset="0" style="stop-color:#625315"/>
		<stop  offset="0.2454" style="stop-color:#D4B624"/>
		<stop  offset="0.589" style="stop-color:#D4B624"/>
		<stop  offset="0.6073" style="stop-color:#D9BE35"/>
		<stop  offset="0.6632" style="stop-color:#E6D666"/>
		<stop  offset="0.706" style="stop-color:#EFE584"/>
		<stop  offset="0.7301" style="stop-color:#F2EA8F"/>
		<stop  offset="0.7477" style="stop-color:#F1E88B"/>
		<stop  offset="0.7662" style="stop-color:#EDE17E"/>
		<stop  offset="0.785" style="stop-color:#E7D769"/>
		<stop  offset="0.8039" style="stop-color:#DEC84C"/>
		<stop  offset="0.8221" style="stop-color:#D4B629"/>
		<stop  offset="1" style="stop-color:#625315"/>
	</linearGradient>
	<path style="fill:url(#SVGID_00000062878928471047107950000016346743019009381253_);" d="M397.5,197.4c0,0,32.7,14.1,55.5,29.1
		l-3.6,6.6c0,0-35.7-20.4-55.5-28.5L397.5,197.4z"/>
	
		<linearGradient id="SVGID_00000123421771939191874310000003347527864696152504_" gradientUnits="userSpaceOnUse" x1="294.8197" y1="187.6114" x2="356.7655" y2="187.6114" gradientTransform="matrix(0.8876 0.4608 -0.4608 0.8876 214.7844 -89.7126)">
		<stop  offset="0" style="stop-color:#625315"/>
		<stop  offset="0.2454" style="stop-color:#D4B624"/>
		<stop  offset="0.589" style="stop-color:#D4B624"/>
		<stop  offset="0.6073" style="stop-color:#D9BE35"/>
		<stop  offset="0.6632" style="stop-color:#E6D666"/>
		<stop  offset="0.706" style="stop-color:#EFE584"/>
		<stop  offset="0.7301" style="stop-color:#F2EA8F"/>
		<stop  offset="0.7477" style="stop-color:#F1E88B"/>
		<stop  offset="0.7662" style="stop-color:#EDE17E"/>
		<stop  offset="0.785" style="stop-color:#E7D769"/>
		<stop  offset="0.8039" style="stop-color:#DEC84C"/>
		<stop  offset="0.8221" style="stop-color:#D4B629"/>
		<stop  offset="1" style="stop-color:#625315"/>
	</linearGradient>
	<path style="fill:url(#SVGID_00000123421771939191874310000003347527864696152504_);" d="M391.8,209.2c0,0,33.9,16.4,54.9,28.8
		l-3.8,6.6c0,0-44.3-24-54.5-28L391.8,209.2z"/>
	
		<linearGradient id="SVGID_00000014618969394049656440000017845133241545114253_" gradientUnits="userSpaceOnUse" x1="302.8094" y1="584.8469" x2="348.7877" y2="584.8469" gradientTransform="matrix(0.8876 0.4608 -0.4608 0.8876 214.7844 -89.7126)">
		<stop  offset="0" style="stop-color:#D4B624"/>
		<stop  offset="3.346923e-02" style="stop-color:#C6A923"/>
		<stop  offset="0.1166" style="stop-color:#A88C21"/>
		<stop  offset="0.1636" style="stop-color:#9D8120"/>
		<stop  offset="0.478" style="stop-color:#F2EA8F"/>
		<stop  offset="0.5338" style="stop-color:#EFE68B"/>
		<stop  offset="0.5921" style="stop-color:#E5DA7E"/>
		<stop  offset="0.6515" style="stop-color:#D5C669"/>
		<stop  offset="0.7117" style="stop-color:#BFAB4C"/>
		<stop  offset="0.7719" style="stop-color:#A28727"/>
		<stop  offset="0.7818" style="stop-color:#9D8120"/>
		<stop  offset="1" style="stop-color:#D4B624"/>
	</linearGradient>
	<path style="fill:url(#SVGID_00000014618969394049656440000017845133241545114253_);" d="M234.8,578.9c0,0-16.2-7.8-19.4-12.6
		c0,0-0.8,4,4.9,8.2c5.7,4.2,12.8,7.6,12.8,7.6s6.8,3.9,13.6,6.1c6.7,2.2,9.5-0.7,9.5-0.7C250.5,587.6,234.8,578.9,234.8,578.9z"/>
	
		<linearGradient id="SVGID_00000033330347749482078760000008455128654764562622_" gradientUnits="userSpaceOnUse" x1="301.6866" y1="500.4751" x2="349.9092" y2="500.4751" gradientTransform="matrix(0.8876 0.4608 -0.4608 0.8876 214.7844 -89.7126)">
		<stop  offset="0" style="stop-color:#D4B624"/>
		<stop  offset="3.346923e-02" style="stop-color:#C6A923"/>
		<stop  offset="0.1166" style="stop-color:#A88C21"/>
		<stop  offset="0.1636" style="stop-color:#9D8120"/>
		<stop  offset="0.478" style="stop-color:#F2EA8F"/>
		<stop  offset="0.5338" style="stop-color:#EFE68B"/>
		<stop  offset="0.5921" style="stop-color:#E5DA7E"/>
		<stop  offset="0.6515" style="stop-color:#D5C669"/>
		<stop  offset="0.7117" style="stop-color:#BFAB4C"/>
		<stop  offset="0.7719" style="stop-color:#A28727"/>
		<stop  offset="0.7818" style="stop-color:#9D8120"/>
		<stop  offset="1" style="stop-color:#D4B624"/>
	</linearGradient>
	<path style="fill:url(#SVGID_00000033330347749482078760000008455128654764562622_);" d="M274,503.4c0,0-17.8-9.4-20.6-12.7
		l-1.1,4.8c0,0,10.2,7.5,19.5,12.1c9.1,5,21.1,9,21.1,9l3.3-3.7C292,512.5,274,503.4,274,503.4z"/>
</g>
</svg>
