<?xml version="1.0" encoding="utf-8"?>
<!-- Generator: Adobe Illustrator 28.4.1, SVG Export Plug-In . SVG Version: 6.00 Build 0)  -->
<svg version="1.1" id="Layer_1" xmlns="http://www.w3.org/2000/svg" xmlns:xlink="http://www.w3.org/1999/xlink" x="0px" y="0px"
	 viewBox="0 0 1920 505" style="enable-background:new 0 0 1920 505;" xml:space="preserve">
<style type="text/css">
	.st0{fill:#FFFFFF;}
</style>
<g>
	<path class="st0" d="M986.9,127.3c0.1-9.3,4.6-12.9,9.7-16.2c16.7-10.9,35.9-14.9,54.8-19.8c32.4-8.3,65.3-9,98.4-8.2
		c4.4,0.1,9.1,0.3,12.9,2c4.2,1.9,9.4,5,10.6,8.8c1,3.2-2,9.3-5.1,11.9c-6.9,5.7-14.8,10.5-22.7,14.9c-11.8,6.4-24.1,12.1-36.1,18.2
		c-3.7,1.9-7.3,3.9-10.6,6.3c-9.1,6.7-9.8,13.1-2.4,21.3c2.9,3.3,6.2,6.2,9.4,9.3c7.3,6.9,15.7,8.6,25,4.5
		c35.8-15.6,73.5-24.2,111.7-31.5c2.4-0.5,4.9-0.6,7.3-0.9c0.2,0.8,0.4,1.6,0.7,2.5c-2.5,1.1-4.9,2.7-7.6,3.1
		c-34.1,5.3-67.3,13.6-99.3,26.9c-2,0.9-4.2,1.5-6.1,2.5c-7.7,3.9-8.3,8.2-1.5,13.6c9.5,7.5,20.1,13.8,28.7,22.1
		c12.2,11.8,22.9,25.1,34.3,37.7c2.3,2.5,5.1,4.6,7.6,7c2.1-3,4.9-5.6,6.2-8.9c2.7-7.1,4.4-14.3,14.4-14.1c9.8,0.3,14.2,3,17.5,14
		c1.9,6.2,5.2,10.7,11.6,11.2c10.2,0.8,20.8,2.4,30.7,0.7c15.2-2.8,19.3-11.2,22-26.8c5.1-29.6,16.1-56.6,41.8-74.9
		c2.6-1.9,5.8-3.2,8.9-4.2c8.4-2.8,16.8,2.3,15.9,10.9c-0.9,8.4-3.8,17.1-7.9,24.6c-9.3,17.1-22.4,31.2-37.6,43.5
		c-4.8,3.9-11,7.9-8,15.6c3,8,9,12.8,17.9,13.8c19.2,2.1,34.7-6.9,49.9-16.4c10.3-6.4,20.1-13.5,30.2-20.1
		c8.4-5.4,20.7-3.1,24.9,5.8c10.8,23.2,41.8,27,63.4,11.8c1.3-0.9,2.5-2.1,3.9-3.1c6.2-4.5,8-3.3,9.5,4.1c1.2,5.9,3.8,11.4,5.9,17.1
		c4.7-2.9,9.4-5.9,14.1-8.8c4.4-2.8,8.5-6.2,13.3-8.2c11.7-5,20.9-3.4,28.9,6.6c12.6,15.6,26.5,19.2,46.2,10.1
		c11.9-5.5,22.8-14,33-22.5c8.8-7.3,22.4-5.8,27,4.7c6.9,15.7,17.2,21.5,35,18.6c6.9-1.1,13.7-4,20.1-6.9c6.5-2.9,8.6-8.2,7.3-15.6
		c-2.9-16.5,8.1-30.1,25.1-31.6c3.6-0.3,7.4-0.7,10.7,0.4c2.1,0.7,4.2,3.9,4.7,6.3c0.2,1.1-3.3,3.9-5.5,4.2c-5.6,1-11.6,0.2-17,1.7
		c-7.5,2.1-9.5,7.6-5.1,14c5.5,7.9,11.4,15.6,18,22.5c2.3,2.4,7.8,3.8,11.1,2.8c12-3.6,23.6-8.6,35.5-12.7c2.7-0.9,5.9-0.6,8.9-0.8
		c-1.7,2.8-2.8,6.9-5.3,8.1c-11.1,5.3-22.3,10.6-34,14.3c-8.9,2.9-15.4,7-20.1,15.4c-2.6,4.7-7.7,8.5-12.5,11.3
		c-2.3,1.3-7.5,0.6-9.5-1.2c-1.9-1.8-2.8-6.7-1.8-9.3c1.7-4.8,4.9-9.1,8-13.2c3.3-4.5,6.5-8.8,1.8-13.9c-4.2-4.6-8.8-2.2-13.5,0
		c-9.8,4.6-19.6,10.1-30,12.6c-7.9,1.9-16.9,0.4-25.2-1c-6.5-1.1-11.2,0.2-15.7,4.6c-2.1,2.1-4.4,4.3-6.9,5.9
		c-8.2,5-15.1,2.3-18-6.7c-3.7-11.6-4.9-12.1-16.1-6.4c-11.1,5.6-22.2,10.5-35.2,10.4c-11.6-0.1-20.7-4.5-28.2-13
		c-10.9-12.5-17.9-13.5-31.1-3.8c-5.1,3.7-9.4,8.5-14,12.8c-7.9,7.4-14.6,5.6-17.8-4.6c-0.6-1.8-1.2-3.7-1.6-5.5
		c-1.5-7-5.3-9.1-12-6.3c-13.3,5.6-27.1,7.7-41,3.4c-5.9-1.8-11.2-5.7-16.4-9.1c-5.4-3.5-9.9-3.5-14.8,1c-4,3.7-8.6,7-13.3,9.6
		c-6.3,3.5-12.9,4.4-19.2-0.6c-5.1-4-10.2-2.2-15.3,0.4c-13.7,7.1-27.7,13.2-43.8,12.4c-8.5-0.5-15.7-2.7-21.1-9.3
		c-4.8-5.8-9.8-7-16.4-2.6c-15.4,10.1-32.1,12-49.8,7.5c-2.7-0.7-6.5-0.9-8.7,0.4c-8,4.7-15.8,9.7-23,15.5c-1.9,1.5-2.2,6-2.2,9.1
		c1,49.8-24.1,83.8-65.5,107.3c-19.1,10.8-40.3,17-62.4,15.7c-47.4-2.8-88.9-34.7-100.1-73.6c-5.8-20.1-2.9-39.2,6.2-57.5
		c13.8-27.8,34.1-50.1,59.2-67.8c11.6-8.2,17.2-17,16.6-32c-1-27.5,0.6-55.1,1-82.7c0.2-13.3-3.7-17.1-16.5-13.6
		c-16.4,4.5-32.5,10-48.5,15.8c-4.4,1.6-7.8,5.8-11.6,9C992,122.5,990.2,124.3,986.9,127.3z M1073.2,281.4
		c-0.9-4.8-2.3-8.8-2.4-12.9c-0.4-11,0.1-22.1-0.5-33.1c-0.2-3.5-1.7-8.4-4.2-9.8c-2.3-1.2-7.6,0.4-10.1,2.6
		c-13.4,11.8-27.2,23.3-39.3,36.5c-28,30.4-27.9,68.2-9.6,97.2c31.3,49.6,104.4,73.4,158,30.3c16.1-12.9,30.4-27.6,36.2-48.1
		c9.7-33.6,0-63.4-20.2-90.5c-16.1-21.6-38.2-36.2-60-51.2c-7.4-5.1-14.3-5.9-22.1-1.2c-9.4,5.6-20.2,9.5-19.2,23.8
		c1,14.3,1.2,28.6,1.7,42.9C1081.6,273.3,1080.8,278.3,1073.2,281.4z M1118,89.5c0,0.4,0,0.8,0,1.2c-7.7,0-15.4-0.4-23.1,0.1
		c-6.9,0.4-13.9,2.6-14.4,10.7c-0.8,13.9-0.8,28-0.6,42c0.1,6.4,4.1,6.3,8.4,3c3.9-3,7.5-6.6,11.8-8.9c17.2-9.1,34.7-17.6,51.8-27
		c3.5-1.9,5.6-6.6,8.3-10c-3.7-2.8-7.1-7.2-11.1-8C1138.9,90.8,1128.4,90.5,1118,89.5z M1366.7,181.9c-2-3.5-3-8.3-5.3-9
		c-3.3-1-8.5-0.4-11.3,1.7c-15.8,11.5-24.8,27.6-29.1,46.4c-0.6,2.8,0.9,6,1.5,9c3.2-0.8,7.4-0.7,9.4-2.7c9.6-9.8,19-19.8,27.8-30.4
		C1362.9,193,1364.2,187.3,1366.7,181.9z M1428.8,234.1c-8.5,6.4-15.1,11-21.1,16.1c-1.2,1.1-1.4,4.9-0.4,6.6c1,1.6,5.1,3.4,5.9,2.8
		c6.7-5.3,13-11,19-17C1432.8,242,1430.7,238.7,1428.8,234.1z M1078.2,187c1.8,6.1,0.5,13.6,8.5,12.8c4.3-0.4,8-5.9,12-9.1
		c-4.9-4.6-9.8-9.3-14.7-13.9C1082.1,180.2,1080.2,183.6,1078.2,187z M1233.8,271.1c-4.4-2.9-6.8-5.4-9.8-6.2
		c-1.1-0.3-4.9,4.3-4.6,4.7c1.7,2.6,4,5.3,6.7,6.6C1227.1,276.8,1229.9,273.9,1233.8,271.1z M1680.7,271.5c-4.1-3.1-6.4-5.7-9.3-6.6
		c-1.2-0.4-3.6,2.8-5.4,4.3c2.3,2.5,4.3,5.5,7,7.2C1673.9,276.9,1676.8,274,1680.7,271.5z M555.8,242.6c1,5.8,1.3,10.7,2.7,15.2
		c1,3.4,2.5,7.7,5.2,9.2c1.8,1,6.5-1.6,8.9-3.8c8.2-7.6,16.7-14.2,28.6-14.9c7.3-0.4,13,2.2,17.3,7.7c15.6,20,32.2,19.4,53.5,8.7
		c12.7-6.4,24.4-15,37.1-21.4c7.7-3.9,16.3-6.4,24.8-7.8c7.4-1.2,10.7,4.9,6.3,11.1c-3.3,4.6-8.3,8-12.1,12.2
		c-1.7,1.9-4,5.5-3.3,6.7c1.3,2.1,4.6,4,7.2,4.3c20,1.8,37.2-5.8,52.9-17.2c2.4-1.8,3.6-6,4.1-9.4c2.4-15.4,3.8-30.9,6.6-46.3
		c1.6-8.7-3.2-11.8-11.3-14.9c2.8-2.1,4.5-4.3,6.4-4.7c9.5-1.8,14.3-8.4,18.6-16.1c3.1-5.5,6.4-10.9,10.2-16
		c3.7-5.1,10-6.9,14.6-3.6c3.1,2.2,3.3,8.4,4.7,12.9c0.2,0.7-0.3,1.6-0.4,2.4c-1.8,13.9,0.1,15.9,14.2,15.9c5.7,0,11.4,0.7,17.2,1.1
		c0.2,1.3,0.3,2.6,0.5,3.9c-3.5,1.2-6.9,3.3-10.4,3.4c-25.8,0.5-25.8-3.7-36.9,24c-4,9.9-9.7,19.1-14.7,28.6
		c-7.9,14.8-0.9,31,15.7,35.7c21,5.9,43.2-11,45-32.5c1.5-17.4,3.5-35.3,8.9-51.7c5.1-15.4,13.9-30,27.1-40.8c2.3-1.9,5-3.4,7.8-4.6
		c11.8-4.9,19.6,0,18,12.6c-1,8.3-3.5,16.9-7.5,24.1c-9,16.4-19.3,32-29.1,47.9c-3.2,5.1-6.7,10.1-9.6,15.4c-3,5.4-0.2,7.1,5,6.4
		c1.1-0.1,2.1-0.7,3.1-1c13.4-3.9,18.1-1.9,24.6,10.5c8.2,15.5,16.4,19.5,33,14.1c9.5-3.1,18.4-8.1,27.6-12.4
		c3.3-1.5,6.4-3.4,9.6-5.1c0.5,0.6,1,1.2,1.6,1.8c-1,1.6-1.7,3.8-3.2,4.8c-16.4,12-33.7,21.7-54.9,21.9c-9.6,0.1-16.3-3.7-21-11.9
		c-1.3-2.4-2.4-5.2-4.3-7c-3.7-3.4-8.4-9.1-11.7-8.5c-4.7,0.8-9.1,6.1-12.6,10.3c-2.3,2.8-2.6,7.1-4.3,10.5
		c-0.8,1.5-2.8,3.1-4.3,3.2c-1.3,0-3.1-2-3.8-3.5c-4.9-9.7-6.1-10.2-15.4-4.9c-12.2,7.1-25.2,11.7-39.2,8.2c-5.5-1.4-11-5-14.9-9.2
		c-8.3-8.9-9-9.8-20.1-4.2c-19,9.6-38.8,15.4-60.2,15c-8.8-0.2-17.3-1.5-23.3-9.8c-1.5-2.1-8-2.5-11.4-1.2
		c-8.5,3.1-16.2,8.2-24.6,11.3c-18.4,6.8-34.8,4.6-48.5-11.2c-9.7-11.2-17.8-11.4-29.4-2.4c-4.5,3.5-8.5,7.9-12.6,11.9
		c-8.6,8.5-15.4,7.1-19.6-4.1c-3.3-9-6.8-10.1-15.6-5c-12.9,7.6-26,14.2-41.5,14.1c-10.6,0-19.5-3.4-26.4-11.3
		c-11.9-13.8-20.1-18.4-39.9,0.4c-2.8,2.7-5.3,5.7-8.2,8.2c-7,5.9-13.5,4-16.3-4.7c-0.4-1.3-1-2.6-1.3-3.9
		c-2.4-9.6-5.3-10.8-14.7-7.2c-11.5,4.4-22.9,9.9-34.8,12.2c-11.4,2.2-23.5,2-35.1,0.9c-10.9-1-14.9-9.2-10.7-19.2
		c7.1-16.6,21.8-22.6,37.8-22.8c6.4-0.1,9,4.8,5.4,10.2c-2.9,4.5-7.7,7.7-11.2,11.8c-2.1,2.5-3.4,5.8-5,8.7c3.1,1.3,6.1,3.6,9.2,3.8
		c22.2,1.1,40.4-8.6,57.3-21.8c2.4-1.9,5.5-2.9,8.2-4.3c0.9,3,1.9,6.1,2.7,9.1c0.3,1-0.2,2.3,0.2,3.3c1.6,3.6,2.6,8.9,5.3,10.2
		c2.3,1,7.3-2,10.2-4.4c8.3-7,16.7-14.3,28.2-13.3c5.5,0.5,12.9,2.6,15.9,6.7c16.9,22.9,38.1,18.7,58.6,7.2
		c7.8-4.4,14.4-10.8,21.7-16.2C550.9,245.2,552.6,244.5,555.8,242.6z M921.9,159.9c-2.1-3.6-3.4-8.9-6.5-10.2
		c-3.1-1.3-8.2,0.8-11.8,2.6c-2.7,1.4-4.6,4.6-6.6,7.2c-8.4,10.4-11.8,22.8-14.1,35.6c-1.3,7-2.5,14.1-2.8,21.2
		c-0.1,2.8,2.2,5.7,3.5,8.6c2.2-1.3,4.9-2.2,6.7-4c2.9-2.9,5.4-6.2,7.7-9.6C908.5,195.6,919,180.1,921.9,159.9z M800.6,208.9
		c0.3,0.1,0.6,0.1,0.9,0.2c-0.1,1.4-0.6,2.9-0.2,4.1c0.8,2.9,2,5.7,3,8.6c2.5-1.9,6-3.3,7.3-5.9c3.4-6.6,6.5-13.4,8.3-20.6
		c0.8-3.4-0.5-9.7-2.9-11.2c-5.1-3.1-9.8,0.8-11.7,5.7C803.1,196,802.2,202.6,800.6,208.9z M829,160.9c-1.4-1.8-3.5-4.3-5.6-6.9
		c-3.3,3.9-7,7.5-9.6,11.8c-0.6,1,2.8,6.1,4.9,6.4C825.7,173.4,827.1,167.7,829,160.9z M319.3,255.9c5.8,2.2,9.8-0.5,12.4-5.6
		c0.3-0.6-1.9-3.7-2.8-3.7c-5.1,0.3-9.8,1.8-10,8.2C318.8,255.1,319,255.4,319.3,255.9z M727.7,250.7c-4-2.4-6.2-4.4-7-4
		c-3.1,1.6-5.7,4.1-8.5,6.2c1,1.2,2.5,3.7,3,3.6C718.7,255.2,721.9,253.4,727.7,250.7z M350.8,119.1c-0.9,2-1.5,4.4-2.9,6.1
		c-37.6,44-76,87.3-121.9,123.2c-6.1,4.7-13.2,8.2-18.8,13.4c-3,2.7-6.4,8.6-5.4,11.5c7,18.8,14.3,37.6,28.8,52.3
		c21.6,21.8,48.2,28.4,77.9,24.7c10.8-1.4,21.4-3.7,33.1-3.8c-1.8,1.5-3.3,3.8-5.4,4.4c-31.4,10-62.8,13.5-94.1-0.4
		c-21.3-9.5-32.7-27.8-42.1-47.8c-2.7-5.7-4.8-11.7-7.5-17.4c-4-8.4-7.8-9.9-16.5-6.9c-8.6,3-16.9,6.5-25.7,8.9
		c-8.1,2.2-11,7.4-10.9,15.1c0.1,22.9,0.1,45.8,0,68.7c0,3-0.1,6.2-1.3,8.8c-1,2.1-3.6,3.4-5.6,5.1c-0.9-2.1-2.5-4.2-2.6-6.3
		c-0.6-14.3-1-28.6-1.2-43c-0.2-11-0.4-22.1,0-33.1c0.3-8.4-4-11.4-11.4-13.3c-9.7-2.5-19.4-5.6-28.5-9.8
		c-9.4-4.3-10.2-9.1-4.4-17.7c9-13.4,19.6-25.3,34.5-32.4c7.2-3.4,9.6-8.7,9.5-16.5c-0.3-31.7-0.1-63.4-0.1-95.2
		c0-5.7,0.7-10.9,8.6-14c0.8,5.4,2,10,2,14.7c0.2,30.6,0.3,61.2,0.1,91.8c-0.1,8.1,2,13.2,11,14.1c16.3,1.7,27.6,11.2,36.8,24
		c7.6,10.6,12.1,12.1,22.3,3.8c24.7-20.2,49.6-40.4,72.5-62.5c21.4-20.6,40.2-43.8,60.3-65.8c2-2.3,4.6-4.1,6.9-6.1
		C349.6,118.2,350.2,118.6,350.8,119.1z M147.9,282.1c10.7-4.4,19.8-7.4,28.1-11.9c2.1-1.1,3.9-7.5,2.6-9.7
		c-6.5-11.4-15.4-20.7-28.7-24.4c-6.2-1.7-10,1-10.3,7c-0.5,9.6-0.8,19.3,0.3,28.9C140.4,275.3,144.8,278.3,147.9,282.1z
		 M128.6,258.2C128.6,258.2,128.6,258.2,128.6,258.2c0-4.4,0.2-8.8-0.1-13.2c-0.4-7.2-4.8-10.7-10.8-7c-8,4.9-15.6,11-22.2,17.7
		c-4.8,4.9-2.9,11,2.9,14.7c4.6,2.9,9.5,5.5,14.7,7.3c11.7,4.2,15.4,1.4,15.5-11.3C128.7,263.7,128.6,261,128.6,258.2z
		 M1531.1,226.8c5.1,3.9,40.4,2.1,46.7-2.3C1570.9,218.9,1537.1,220.6,1531.1,226.8z"/>
</g>
</svg>
