<?xml version="1.0" encoding="utf-8"?>
<!-- Generator: Adobe Illustrator 28.0.0, SVG Export Plug-In . SVG Version: 6.00 Build 0)  -->
<svg version="1.1" id="Layer_1" xmlns="http://www.w3.org/2000/svg" xmlns:xlink="http://www.w3.org/1999/xlink" x="0px" y="0px"
	 viewBox="0 0 404.5 300" style="enable-background:new 0 0 404.5 300;" xml:space="preserve">
<style type="text/css">
	.st0{fill:#47722C;}
	.st1{fill:#8CE096;}
	.st2{fill:#ABC71B;}
</style>
<g>
	<path class="st0" d="M92.8,216.9c-12.5,0-23.8-2.9-33.9-8.8c-10.1-5.9-18-13.9-23.9-24c-5.9-10.1-8.8-21.5-8.8-34.2
		c0-12.7,2.7-24.1,8.1-34.1c5.4-10,12.7-18,22.1-23.9c9.3-5.9,19.9-8.8,31.6-8.8c9.5,0,18.2,2,26.3,5.9c8,3.9,14.8,9.3,20.3,16V39.9
		c0-3.7,1.2-6.7,3.5-8.9c2.3-2.2,5.3-3.4,8.8-3.4c3.7,0,6.7,1.1,8.9,3.4c2.2,2.3,3.4,5.2,3.4,8.9v110c0,12.7-2.9,24.1-8.8,34.2
		c-5.9,10.1-13.8,18.1-23.8,24C116.6,214,105.4,216.9,92.8,216.9z M92.8,195.2c8.2,0,15.5-2,21.9-5.9c6.4-3.9,11.5-9.4,15.2-16.3
		c3.7-6.9,5.5-14.6,5.5-23.2c0-8.7-1.9-16.4-5.5-23.2c-3.7-6.8-8.8-12.1-15.2-16c-6.4-3.9-13.7-5.9-21.9-5.9c-8,0-15.3,2-21.8,5.9
		c-6.5,3.9-11.7,9.3-15.4,16c-3.8,6.8-5.7,14.5-5.7,23.2c0,8.5,1.9,16.2,5.7,23.2c3.8,6.9,8.9,12.3,15.4,16.3
		C77.5,193.3,84.8,195.2,92.8,195.2z"/>
	<path class="st1" d="M202.4,216.9c-13,0-24.5-2.9-34.5-8.6c-10-5.7-17.8-13.6-23.5-23.6c-5.7-10-8.6-21.6-8.6-34.6
		c0-13.2,2.9-24.8,8.6-34.8c5.7-10,13.5-17.9,23.5-23.6c10-5.7,21.5-8.6,34.5-8.6c12.9,0,24.3,2.9,34.2,8.6
		c10,5.7,17.8,13.6,23.5,23.6c5.7,10,8.6,21.7,8.6,34.8c0,13-2.8,24.6-8.4,34.6c-5.6,10.1-13.4,17.9-23.4,23.6
		C226.9,214.1,215.4,216.9,202.4,216.9z M202.4,195.2c8.4,0,15.8-1.9,22.2-5.8c6.4-3.9,11.5-9.2,15.1-15.9
		c3.6-6.8,5.4-14.6,5.4-23.4c0-8.8-1.8-16.7-5.4-23.5c-3.6-6.8-8.6-12.2-15.1-16c-6.4-3.9-13.8-5.8-22.2-5.8
		c-8.4,0-15.8,1.9-22.2,5.8c-6.4,3.9-11.5,9.2-15.2,16c-3.7,6.8-5.5,14.7-5.5,23.5c0,8.8,1.8,16.6,5.5,23.4
		c3.7,6.8,8.8,12.1,15.2,15.9C186.6,193.3,194,195.2,202.4,195.2z"/>
	<path class="st2" d="M257.6,272.4c-3.5,0-6.5-1.2-8.8-3.5c-2.3-2.3-3.5-5.3-3.5-8.8v-110c0.2-12.7,3.1-24.1,8.9-34.2
		c5.8-10.1,13.7-18.1,23.6-24c10-5.9,21.2-8.8,33.8-8.8c12.7,0,24,2.9,34,8.8c10,5.9,17.9,13.9,23.8,24c5.9,10.1,8.8,21.5,8.8,34.2
		c0,12.7-2.7,24.1-8.1,34.1c-5.4,10.1-12.7,18-22.1,23.9c-9.3,5.9-19.9,8.8-31.6,8.8c-9.5,0-18.2-2-26.2-5.9
		c-8-3.9-14.8-9.3-20.4-16v65.1c0,3.5-1.1,6.5-3.4,8.8C264.3,271.2,261.3,272.4,257.6,272.4z M311.7,195.2c8.2,0,15.5-2,21.9-5.9
		c6.4-3.9,11.5-9.3,15.3-16.2c3.8-6.8,5.7-14.5,5.7-23c0-8.7-1.9-16.4-5.7-23.3c-3.8-6.8-8.9-12.2-15.3-16.2
		c-6.4-3.9-13.7-5.9-21.9-5.9c-8,0-15.3,2-21.8,5.9c-6.5,3.9-11.6,9.3-15.3,16.2c-3.7,6.8-5.5,14.6-5.5,23.3c0,8.5,1.8,16.2,5.5,23
		c3.7,6.8,8.8,12.2,15.3,16.2C296.4,193.3,303.6,195.2,311.7,195.2z"/>
</g>
</svg>
