<?xml version="1.0" encoding="utf-8"?>
<!-- Generator: Adobe Illustrator 28.4.1, SVG Export Plug-In . SVG Version: 6.00 Build 0)  -->
<svg version="1.1" id="Layer_1" xmlns="http://www.w3.org/2000/svg" xmlns:xlink="http://www.w3.org/1999/xlink" x="0px" y="0px"
	 viewBox="0 0 512 512" style="enable-background:new 0 0 512 512;" xml:space="preserve">
<style type="text/css">
	.st0{fill:#5F6D70;}
</style>
<g>
	<g>
		<circle class="st0" cx="151.5" cy="328" r="3.4"/>
		<path class="st0" d="M151.7,296.5c-1.7,4-23.4,55.5-23.6,55.9c-3.7,0-8.4,0-12.5,0c1.1-2.4,29.2-65.9,29.7-67.1
			c3.6,0,9.1,0,12.7,0c0.6,1.4,25.6,58,29,65.8c0.2,0.4,0.3,0.8,0.6,1.4c-1.7,0-9.5,0-12.8,0C174.1,350.9,152.9,299.5,151.7,296.5z"
			/>
	</g>
	<g>
		<path class="st0" d="M129.7,395.5h-2.5l-1.4-3.9h-6.2l-1.4,3.9h-2.5l5.6-14.8h2.9L129.7,395.5z M120.2,389.7h4.9l-2.4-6.9
			L120.2,389.7z"/>
		<path class="st0" d="M146.8,380.8c1.6,0,2.8,0.4,3.8,1.2c0.9,0.8,1.4,1.9,1.4,3.2c0,1.4-0.5,2.5-1.4,3.2c-0.9,0.8-2.2,1.1-3.8,1.1
			l-0.2,0.1h-3.4v5.9h-2.4v-14.8H146.8z M146.6,387.7c1,0,1.7-0.2,2.2-0.6c0.5-0.4,0.7-1,0.7-1.8c0-0.8-0.2-1.4-0.7-1.8
			c-0.5-0.4-1.2-0.6-2.2-0.6h-3.5v4.8H146.6z M148,388.1l4.8,7.4h-2.8l-4.1-6.5L148,388.1z"/>
		<path class="st0" d="M176.4,391.6c-0.3,0.9-0.7,1.7-1.3,2.3c-0.6,0.6-1.3,1.1-2.1,1.4c-0.8,0.3-1.7,0.5-2.7,0.5
			c-1.4,0-2.6-0.3-3.7-0.9c-1-0.6-1.8-1.5-2.4-2.6c-0.6-1.1-0.8-2.5-0.8-4.1s0.3-2.9,0.8-4.1c0.6-1.1,1.4-2,2.4-2.6
			c1-0.6,2.3-0.9,3.7-0.9c1,0,1.8,0.1,2.6,0.4c0.8,0.3,1.4,0.7,2,1.2c0.6,0.5,1,1.2,1.3,2l-2.3,1c-0.3-0.9-0.7-1.5-1.3-1.9
			c-0.6-0.4-1.3-0.6-2.2-0.6c-0.9,0-1.7,0.2-2.4,0.6c-0.7,0.4-1.2,1.1-1.6,1.9c-0.4,0.8-0.6,1.8-0.6,3c0,1.2,0.2,2.2,0.5,3
			c0.4,0.8,0.9,1.5,1.5,1.9c0.7,0.4,1.5,0.6,2.4,0.6c0.9,0,1.7-0.2,2.4-0.7c0.7-0.5,1.1-1.2,1.4-2.1L176.4,391.6z"/>
		<path class="st0" d="M190.4,380.8v14.8H188v-14.8H190.4z M198.9,387v2.1h-9.7V387H198.9z M200.1,380.8v14.8h-2.4v-14.8H200.1z"/>
		<path class="st0" d="M215.3,380.8v14.8h-2.4v-14.8H215.3z"/>
		<path class="st0" d="M239.2,380.8v2.1h-5.1v12.7h-2.4v-12.7h-5.1v-2.1H239.2z"/>
		<path class="st0" d="M250.5,395.5v-14.8h10.7v2.1h-8.3v4.2h6.5v2h-6.5v4.4h8.6v2.1H250.5z"/>
		<path class="st0" d="M285.2,391.6c-0.3,0.9-0.7,1.7-1.3,2.3c-0.6,0.6-1.3,1.1-2.1,1.4c-0.8,0.3-1.7,0.5-2.7,0.5
			c-1.4,0-2.6-0.3-3.7-0.9c-1-0.6-1.8-1.5-2.4-2.6s-0.8-2.5-0.8-4.1s0.3-2.9,0.8-4.1c0.6-1.1,1.4-2,2.4-2.6c1-0.6,2.3-0.9,3.7-0.9
			c1,0,1.8,0.1,2.6,0.4c0.8,0.3,1.4,0.7,2,1.2c0.6,0.5,1,1.2,1.3,2l-2.3,1c-0.3-0.9-0.7-1.5-1.3-1.9s-1.3-0.6-2.2-0.6
			s-1.7,0.2-2.4,0.6s-1.2,1.1-1.6,1.9c-0.4,0.8-0.6,1.8-0.6,3c0,1.2,0.2,2.2,0.5,3c0.4,0.8,0.9,1.5,1.5,1.9c0.7,0.4,1.5,0.6,2.4,0.6
			c0.9,0,1.7-0.2,2.4-0.7c0.7-0.5,1.1-1.2,1.4-2.1L285.2,391.6z"/>
		<path class="st0" d="M307.7,380.8v2.1h-5.1v12.7h-2.4v-12.7h-5.1v-2.1H307.7z"/>
		<path class="st0" d="M330.9,380.8v9.1c0,2-0.5,3.4-1.5,4.4c-1,1-2.5,1.5-4.5,1.5c-1.9,0-3.4-0.5-4.5-1.5c-1-1-1.6-2.5-1.6-4.4
			v-9.1h2.4v8.8c0,1.4,0.3,2.4,0.9,3.1c0.6,0.7,1.5,1,2.7,1c1.2,0,2.2-0.3,2.8-1c0.6-0.7,0.9-1.7,0.9-3.1v-8.8H330.9z"/>
		<path class="st0" d="M349.5,380.8c1.6,0,2.8,0.4,3.8,1.2s1.4,1.9,1.4,3.2c0,1.4-0.5,2.5-1.4,3.2c-0.9,0.8-2.2,1.1-3.8,1.1
			l-0.2,0.1h-3.4v5.9h-2.4v-14.8H349.5z M349.3,387.7c1,0,1.7-0.2,2.2-0.6c0.5-0.4,0.7-1,0.7-1.8c0-0.8-0.2-1.4-0.7-1.8
			c-0.5-0.4-1.2-0.6-2.2-0.6h-3.5v4.8H349.3z M350.7,388.1l4.8,7.4h-2.8l-4.1-6.5L350.7,388.1z"/>
		<path class="st0" d="M367,395.5v-14.8h10.7v2.1h-8.3v4.2h6.5v2h-6.5v4.4h8.6v2.1H367z"/>
	</g>
	<path class="st0" d="M226.7,108.2c6,0,21.7,0,32.7,0c0,0,0.5,1.7,0.6,1.9c2.7,8.2,5.6,16.4,8.3,24.7c3.9,11.9,7.8,23.8,11.5,35.8
		c3.5,11.6,4.9,23.6,5.2,35.7c0.1,6.2,0.2,12.4,0.3,18.6c0,0.5,0,0.9,0,1.5c-1.2,0-2.2,0-3.2,0c-7.5,0-26.6,0-26.6,0
		c-0.7-1.2-1.7-2.8-2.1-3.5c-4.2-6.8-7.8-13.8-11-21c-5.8-13-9.9-26.6-12.6-40.6c-2.2-11.6-2.9-23.2-3-35
		C226.7,120.3,226.7,114.3,226.7,108.2z"/>
	<path class="st0" d="M311.3,226.3c-0.7-0.5-14.2-21.2-19-31.9c-4.3-9.4-6.7-19.4-6.8-29.8c-0.3-18.4-0.2-38-0.2-56.4
		c0.6,0,16.6,0,25.1,0c8.7,39.2,17.3,78.5,26.1,118C335.4,226.3,311.8,226.3,311.3,226.3z"/>
	<path class="st0" d="M225.9,205.6c-1.9,9.9-11.2,18.6-21.2,20.2c-2,0.3-4.1,0.5-6.2,0.5c-7.2,0-22.7,0-23.4-0.1
		c0.7-4.1,21.2-110.5,22.7-118.1h6.3c0.5,1.6,9.3,29.6,13.4,42.6c2.6,8.3,5.3,16.6,7.3,25C227.3,185.6,227.9,195.6,225.9,205.6z"/>
	<path class="st0" d="M106.3,352.3c-3.9,0-7.6,0-11.6,0c0-17.6,0-35.1,0-52.6c-0.1,0-0.2,0-0.4-0.1c-1.1,2.6-2.1,5.1-3.2,7.7
		c-5.8,14.5-17.7,44-18.2,45.1c-2.8,0-8.1,0-10.7,0c-0.3-0.7-12.3-30.8-18.3-45.8c-0.9-2.3-1.9-4.5-3.1-6.7c0,17.5,0,34.9,0,52.4
		c-4,0-7.9,0-11.8,0c0-22.3,0-44.6,0-67c0.2,0,12.2,0,17.4,0c0.2,0.4,21.1,51.6,21.3,52c1.3-3.3,21.1-51.5,21.3-51.9
		c5.5-0.1,11.6,0,17.3,0C106.3,307.7,106.3,329.9,106.3,352.3z"/>
	<path class="st0" d="M359.5,322.6c0.5-0.1,0.8-0.2,1-0.2c9.2-1.7,15.2-8.1,15.8-16.9c0.3-5.4-1.1-10.3-5.1-14.2
		c-4.2-4.1-9.4-5.8-15.1-5.9c-12.5-0.1-25,0-37.5,0c-0.3,0-0.6,0.1-0.9,0.1c0,2.8,0,5.6,0,8.4c0,9.8,0,19.6,0,29.4
		c0,9.7,0,19.4,0,29.1c4,0,7.9,0,12,0c0-9.7,0-19.4,0-29.1c5.6,0,9.5,0,15.9,0c0.3,0.1,0.7,0.4,0.9,0.7c1.9,2.8,3.8,5.6,5.7,8.3
		c4.3,6.3,8.6,12.7,12.9,19c0.5,0.8,1.1,1.1,2.1,1.1c1.5-0.1,3.1,0,4.7,0c2.5,0,5,0,7.7,0C372.8,342.3,366.2,332.5,359.5,322.6z
		 M352.1,314.8c-10.2,0-7.4,0-18.7,0c-1.3,0-2.4,1.3-3.6,2.5c0-7.9,0-15.5,0-23.4c0.3,0,0.6-0.1,0.8-0.1c7.4,0,14.8,0,22.2,0
		c2.7,0,5.3,0.5,7.5,2.3c3.3,2.6,4.1,6.1,3.5,9.9c-0.5,3.6-2.5,6.3-6,7.4C356.1,314.1,354.1,314.6,352.1,314.8z"/>
	<path class="st0" d="M401.7,285.4c0,22.4,0,44.6,0,66.9c-3.9,0-7.7,0-11.6,0c0-22.3,0-44.6,0-66.9
		C394,285.4,397.8,285.4,401.7,285.4z"/>
	<path class="st0" d="M306,293.8c0-2.9,0-5.6,0-8.5c-17.1,0-34.1,0-51.2,0c0,12.5,0,25,0,37.5c0,22.4,0,7.1,0,29.4c0,0,0,0,0,0
		c17.1,0,34.1,0,51.2,0c0,0,0,0,0,0c0-2.8,0-5.6,0-8.4c0,0,0,0,0,0c0,0-0.1,0-0.1,0c-0.2,0-0.3,0-0.4,0c-11.6,0-23.3,0-34.9,0
		c-1.3,0-2.4,1.3-3.6,2.5c0-7.9,0-15.5,0-23.4c11.5,0,23,0,34.3,0c0-2.9,0-5.7,0-8.6c-11.5,0-22.9,0-34.4,0c0-6.9,0-13.7,0-20.6
		C280,293.8,293,293.8,306,293.8z"/>
	<path class="st0" d="M241.6,285.4C241.6,285.4,241.6,285.4,241.6,285.4c-17.1,0-16.9,0-34,0c0,0,0,0,0,0c-8.6,0-17.2,0-25.9,0
		c0,2.8,0,5.6,0,8.5c8.6,0,17.2,0,25.9,0c0,9.7,0,2.3,0,20.9c0,0,0,0,0,0c0,12.5,0,24.9,0,37.3c4,0,7.9,0,12,0c0-20.2,0-40.4,0-60.7
		c1.2,1.2,2.2,2.5,3.5,2.5c11.6,0,6.3,0,17.9,0c0.1,0,0.2,0,0.3,0c0.8,0,1.6,0,2.4,0c0.5,0,1,0,1.5,0c0-3,0-5.7,0-8.4
		C244.1,285.4,242.9,285.4,241.6,285.4z"/>
	<g>
		<circle class="st0" cx="446.8" cy="328" r="3.4"/>
		<path class="st0" d="M447,296.5c-1.7,4-23.4,55.5-23.6,55.9c-3.7,0-8.4,0-12.5,0c1.1-2.4,29.2-65.9,29.7-67.1c3.6,0,9.1,0,12.7,0
			c0.6,1.4,25.6,58,29,65.8c0.2,0.4,0.3,0.8,0.6,1.4c-1.7,0-9.5,0-12.8,0C469.4,350.9,448.2,299.5,447,296.5z"/>
	</g>
</g>
</svg>
