<?xml version="1.0" encoding="utf-8"?>
<!-- Generator: Adobe Illustrator 22.0.0, SVG Export Plug-In . SVG Version: 6.00 Build 0)  -->
<svg version="1.1" id="Layer_1" xmlns="http://www.w3.org/2000/svg" xmlns:xlink="http://www.w3.org/1999/xlink" x="0px" y="0px"
	 viewBox="0 0 1920 1080" style="enable-background:new 0 0 1920 1080;" xml:space="preserve">
<style type="text/css">
	.st0{fill:url(#SVGID_1_);}
	.st1{fill:#010101;}
</style>
<linearGradient id="SVGID_1_" gradientUnits="userSpaceOnUse" x1="1294.4758" y1="-264.8817" x2="684.9396" y2="633.3274" gradientTransform="matrix(1 0 0 1 0 312)">
	<stop  offset="0" style="stop-color:#F3F4F5"/>
	<stop  offset="1" style="stop-color:#B5C6E2"/>
</linearGradient>
<rect class="st0" width="1920" height="1080"/>
<path class="st1" d="M1598.5,825.3c0.2-3.1,1.7-4.2,3.5-4.9c2.4-0.9,4.9-0.3,7.1,1.6c6.5,5.6,12.6,12,18.7,19.5
	c-9-1.6-18.1-2-26.6-9.4C1599.5,830.6,1598.4,828.3,1598.5,825.3z M2105.2,949.5c-5.5-10-12.7-14.3-20.3-16.6
	c-12.6-3.7-25.2-1.7-37.8,0.2c-8,1.2-15.9,2.6-24,1.7c-3.7-0.4-7.2-1.5-10.5-3.2c-1.3-3.2-2.9-6-5-8.4c-0.8-0.9-1.7-1.3-2.5-0.6
	c-0.8,0.6-0.9,1.7-0.9,2.9c-4.9-4.8-9.2-11.3-13-19.6c-3.3-7.4-3.9-15.4-1.6-24.1c2.9-11.2,8.2-18.3,13.8-25c2-2.4,4.1-4.6,6.2-7
	c-0.4-0.6-0.5-0.8-0.6-0.8c-1.2,0.2-2.4,0.4-3.5,0.5c-7.1,0.9-14.1,0.3-20.4-6.3c-5.5-5.7-6.7-14.3-3.2-23.8
	c1.6-4.5,3.9-7.8,6.2-11.3c6.7-10.1,12.9-20.8,17.3-34.3c1.8-5.5,3.3-11.2,3.7-17.6c0.5-8.4-1.9-13.4-6.7-14.7
	c-4.9-1.3-8.3,3.1-11.2,9c-5,10.1-8.2,22.1-12.1,33.4c-3.1,9-6.1,18.1-10.8,24.9c-4,5.8-8.5,9.2-13.6,5.5c-1.5-1.1-2.6-2.6-3.4-4.4
	c-0.1-1.7-0.5-3.5-1.5-4.6c-0.7-3.3-1-7-1.2-10.8c-0.2-4.7-0.1-9.5-0.1-14.2c-0.2,0-0.5-0.1-0.7-0.1c-0.2,1.2-0.3,2.4-0.5,3.5
	c-1.7,9.8-3,19.9-6.7,28.2c-3.7,8.2-8.2,9.1-12.7,2.4c-2.5-3.8-4.6-8.3-6.4-13.3c-6.2-17.5-10.2-36.6-13.9-56
	c-3.8-20.4-8.1-40.5-15.2-58.3c-2.7-6.7-5.9-12.6-10-16.6c-5.2-5-9.3-1.9-11.1,8.1c-1.1,6.5-0.7,12.9,0.1,19.2
	c3,22.4,9.7,41.5,17.5,59.4c5.3,12,10.8,23.8,15.2,36.9c4.9,14.5,9.4,29.4,10.5,46.7c0.4,5.7,0.4,11.4-1,16.7
	c-2.5,9.9-8.8,12.4-15.4,6.2c-4.5-4.3-8.3-10.3-11.8-16.9c-4.5-8.4-9.4-15.9-15.7-20c-3.8-2.5-7.9-3.8-11,2.1
	c-1.6,2.9-2.3,6.1-2.5,9.5c-12.3-1.3-24.2,0.6-35.8,4.8c-14,5.1-27.9-9.8-29.6-32.1c-0.8-9.9,1.5-18.1,5.2-25.4
	c2.9-5.8,4.8-12.1,4.6-20c-0.3-11.1-6.3-20.9-13.8-21.8c-7.1-0.9-11.7,4.9-15.6,12.2c-4.1,7.9-6.4,17.4-8.3,27.3
	c-1.2,6.4-3,12.5-4,19c-0.5,3-3.6,2.5-3.1,4.8c1,4.7-1.2,5.5-2.9,6c-2,0.7-3.2-2.4-4-4.9c-2-6.3-3.4-12.9-4-19.6
	c-2.1-19.9-2.9-39.7-3-59.5c-0.1-20.3,1.4-40.4,0.2-60.9c-0.5-8.4-1.2-16.9-4.2-24.8c-1.6-4.2-3.9-6.8-7-6.8c-3.2,0-4.9,2.9-5.8,7
	c-0.8,3.3-1,6.9-1,10.5c-0.1,16.8,2,33.6,3.9,50.4c2.5,22.3,5.4,44.7,8,67c0.9,7.4,1.1,14.9,0.7,22.3c-0.3,4.9-1.8,9.4-4.6,10.9
	c-3.5,1.8-5.8-3.5-8-7.2c-0.2-0.3-0.3-0.7-0.5-0.9c-0.7-0.8-0.8-3-2-2.5c-1.1,0.5-0.5,2.2-0.6,3.5c-0.2,3.8-0.2,7.6-1.4,10.9
	c-1.8,5.3-3.8,5.6-6.9,1.3c-0.3-0.4-1.1-0.6-1.4-0.3c-1.6,2.2-2.8-0.1-4-1.5c-5.5-6.4-9.8-14.4-13.4-23.1
	c-4.9-11.7-7.1-24.7-10.5-37.1c-4.3-16-9.9-31-19.8-41.5c-9.4-9.9-20.8-9.7-27,0.4c-6.6,10.9-6.1,26.2,1.4,40.2
	c3.8,7.2,8.7,12.6,13.6,17.9c9.6,10.4,20.1,18.7,29.4,29.7c8.7,10.4,12.7,23.6,13.4,39c0.2,4.9-0.8,9.2-2.7,12.9
	c-1.1,2-2.1,3-4.1,1.9c-3.3-1.8-9.2,2-10.9,6.4c-1.3,3.5-4.3,3.3-6-0.4c-0.9-1.9-1.8-1.6-1.9-0.2c-0.5,4.5-2.9,3-4.8,3
	c-2.2-0.1-4.7-1.9-6.7-1.7c-7,1-13.7-2.4-20.6-4.4c-1.8-0.5-3.5-2.7-6-0.5c6.7,4,12.9,8.3,18.7,13.8c9.7,9.1,18.8,19.2,24,34.9
	c4.7,14.4,1.9,19.1-5.7,25.1c-3.6,2.9-8,2.8-12.2,2.5c-19.2-1.5-38.4-3.4-57.4-1.7c-7.3,0.7-14.6,1.9-21.1,6.6
	c-4.5,3.3-7.8,8-7.6,16.5c0.2,10.3,4.6,18,12.5,21c8.1,3.2,16.1,2.8,24,0.9c13.4-3.2,26.1-9.1,38.7-15.6c9.9-5.1,20.3-7.2,31.2-6
	c2.7,0.3,5.3,3.6,7.4,3.4c6.6-0.7,16.8,12.7,16.6,25c-0.3,14.7-5.4,25.3-10.8,35.5c-5.5,10.3-12.2,18.9-19.2,27.1
	c-10.6,12.5-20,26.7-27.3,43.7c-4.2,9.6-7.9,19.7-7.7,32.2c0.1,7.8,2.8,13.8,7.6,17.4c4.8,3.5,9.3,2.7,13.7,0.2
	c7.3-4.2,12.6-12,17.7-20.3c9-14.9,14.7-33.1,20.9-50.8c2.9-8.2,5.9-16.4,9.1-24.3c3.1-7.8,6.7-15.1,9.9-22.8
	c3.2-7.7,8-13.1,12.4-19.1c2.2-3.1,5.5-3.5,8.3-5.2c10.5-6.3,19.7-0.3,29.4,8.9c64.6,61-12.5,14.8-11.7,23.6
	c0.7,8.4-3.1,12.7-7.2,16.4c-2.4,2.1-5,3.7-7.4,5.5c0.1,0.4,0.2,0.7,0.3,1.1c0.7-0.2,1.4-0.5,2.1-0.7c6.1-1.2,12.1-3.1,18.5-0.7
	c6.3,2.4,9.3,8.7,8.1,17.7c-0.7,5.1-1.9,9.9-3.6,14.4c-5.9,15.6-13.8,28.7-22.1,41.4c-8.7,13.3-17.1,27-22.6,44.1
	c-2.1,6.5-3.5,13.3-3.4,20.9c0.1,9.5,4,14.4,10.2,13.2c4-0.8,7.2-3.8,10.1-7.4c10.2-12.8,16.7-29.8,22-48
	c3.5-12.3,6.8-24.8,11.3-36.2c5.1-12.7,10.5-24.8,19-32.9c2.8-2.7,5.8-4.8,9.3-4.9c6.6,0,11.3,8.3,11.5,20.3c0.2,8.3-1,16-2.6,23.7
	c-2.1,9.7-3.3,19.8-2.2,30.6c0.7,6.5,2.2,13,7,15.4c5,2.6,8.7-0.7,11.5-6c1.3-2.4,2.3-5.1,3.2-7.9c2.5-7.9,3-16.8,3-25.7
	c0.1-6.1,0.5-12.1,1.7-17.7c1.9-9.3,5.9-12.6,12.6-10.7c0.6,0.2,1.3,0.4,1.9,0.7c-0.4,1.2-0.8,2.4-1.3,3.6c-1.8,5.3-4.7,10-3.7,17.2
	c0.4,2.7,0.3,5.6,2.3,7.1c2.2,1.7,3.7-0.1,5-1.9c3.8-5.1,4.8-12.4,5.9-19.7v-0.1c1.6,1.7,3.2,3.7,4.7,5.7
	c12.6,17.2,23.8,36.3,34.8,55.8c1,1.8,1.9,4.1,3.7,5.3c13.8,43.5,28.2,42.6,21.2,10.2c-0.7-3.5,2.6-29.8,5.2-31.2
	c13.2-6.8,42.7,55.8,52.9,72.7c0.7,1.1,1.2,3.1,2.4,2.6c1.1-0.5,1-2.4,1.1-3.8c0.3-3,0.4-6,1.3-8.6c1.7-4.8,4.5-6.6,8.1-5.7
	c2.4,0.6,6.1,0.2,5.8,6.8c0,0.8,0.7,1.2,1.2,1.1c2.1-0.4,2.7,2.1,3.5,4.1c2,4.8,3,10.1,3.9,15.4c1.2,6.6,1.9,13.4,4,19.7
	c0.7,2.1,1.6,4.7,3.4,4.3c1.8-0.4,1.8-3.1,2-5.3c0.1-0.5,0-1.1,0-1.7c-0.2-4.4-4.3-23.9-5.9-28.2c-0.5-1.2-0.8-2.8-0.2-3.8
	c1.4-2.2,2.5-3.9-0.9-5c-0.3-0.1-0.5-1.3-0.7-2c-3.5-13.9,0.7-25.4,10-27.5c3.2-0.7,6.2-0.4,9.4,1.6c4.3,2.7,7.5,0.3,8.8-5.9
	c0.9-4.4,0.4-8.9-0.8-13.5c-0.7-2.8-3.5-6.3,0.2-8.3c0.1-0.1,0.1-1.3,0-1.5c-3.5-4.4-0.1-5.7,1.2-7.3c2.4-2.8,5.5-3,8.6-2.3
	c5.1,1.1,9.3,5.4,13.4,10c5.7,6.4,11,13.8,17.4,18.5c3.2,2.3,4.9,1.1,5.3-3.9c0.2-2.4-0.3-4.6-1.4-6.6c-1.5-2.9-2.7-5.8-2.9-9.5
	c-0.1-2.3-1.1-4-2.5-2.1c-1.3,1.7-2.2,0.5-3.4-0.6c-5.7-5.9-11.8-10.3-18-14.5c-2.3-1.6-4.6-3.2-6.7-5.4c-4.6-4.7-4.8-9.9-0.7-14.1
	c1-1,2.1-1.8,3.2-2.7c0.9-0.8,1.3-1.7,1.1-3.6c-0.9-8.4-28.4-9.6-22.7-8.5c3.1,0.6,35.2,0.7,38.2,0.4c1.4-0.1-26,0.8-25.7-1.5
	c0.3-2.6-1.4-4.1-2.6-4.5c-4.3-1.4-7.3-8.7-12.1-7.8c-0.4,0.1-0.9-0.7-1.4-1.2c-4.5-4.7-6.5-14.1-4.7-21.3c0.2-0.6,0.2-1.4,0.1-2.1
	c-1.2-9.2,2.2-16,8.3-16.4c1.6-0.1,3.3-0.1,4.9-0.6c1.5-0.5,2.9-1.7,2.7-4.5c-0.2-2.7-1.7-3.8-3.3-4.5c-2.4-0.9-4.6,0.1-6.8,0
	c-3.8-0.2-5.5-2.9-5.3-8.4c0.2-5.7-0.3-9-2.4-14.5c-0.1-0.3-0.2-0.8-0.2-1.1c0.9-3.6-0.5-7.4-0.1-11.1c0.3-3.2,0.6-6.3,3.6-6.3
	c1.2,0,2.1-1,1.4-3.4c-2-6.3,2.3-5.3,3.8-7.1c1.4-1.7,3.7-3,4.6,2.3c0.2,1.4,1.1,2.3,2.2,1.9c0.7-0.3,1-1.4,0.7-2.2
	c-1.8-5.4,1-4.7,3-5.4c4.5-1.6,9-3.6,12.5-7.7c9.6,3,19,7.1,28.6,9.7c9,2.4,18,3.9,26.9-1.6C2109.4,972,2111,959.9,2105.2,949.5z
	 M2042.3,922.6c3.8,0.8,6.1-2.2,8.1-6c0.8-1.6,3-2.8,2.1-5s-2.8-0.2-3.9-0.5c-3,0.2-5.5,1.2-7.8,2.7c-1.4,0.9-2.7,2.2-2.2,5
	C2039,921.6,2040.7,922.3,2042.3,922.6z"/>
<path class="st1" d="M-64.2-61.6c0.5-2.3,2.2-3,3.9-3.4c2.4-0.5,4.6,0.3,6.5,2c5.4,4.9,10.3,10.5,15,16.9
	c-8.2-2.2-16.7-3.4-23.6-9.9C-64-57.4-64.7-59.4-64.2-61.6z M393.5,85.3c-3.9-8.2-10.1-12.3-16.9-14.8c-11.3-4.1-23.3-3.9-35.4-3.7
	c-7.6,0.1-15.2,0.4-22.6-1.2c-3.4-0.7-6.5-1.9-9.4-3.5c-0.8-2.6-2-4.9-3.6-6.9c-0.6-0.8-1.4-1.2-2.3-0.7c-0.8,0.4-1.1,1.2-1.2,2.1
	c-4-4.1-7.2-9.6-9.7-16.4c-2.2-6-1.7-12.2,1.5-18.6c4.1-8.3,10-13.2,16-17.7c2.2-1.6,4.4-3.1,6.7-4.7c-0.3-0.5-0.4-0.7-0.4-0.7
	c-1.1,0-2.3,0.1-3.4,0.1c-6.8,0-13.2-1.2-18.3-6.9c-4.4-5-4.5-11.6-0.1-18.5c2.1-3.3,4.7-5.6,7.2-8c7.5-7,14.6-14.6,20.5-24.5
	c2.4-4,4.5-8.2,5.6-13.1c1.5-6.4-0.1-10.5-4.4-11.9c-4.4-1.5-8.1,1.6-11.6,5.8c-5.9,7.2-10.5,16.1-15.5,24.3c-4,6.6-8,13.2-13.2,18
	c-4.4,4-9.1,6.2-13.4,2.8c-1.2-1-2.1-2.2-2.6-3.7c0.1-1.3-0.1-2.7-0.8-3.7c-0.3-2.6-0.1-5.5,0.2-8.4c0.4-3.6,1.1-7.3,1.7-10.9
	c-0.2-0.1-0.4-0.1-0.6-0.2c-0.3,0.9-0.5,1.8-0.9,2.7c-2.8,7.3-5.3,14.9-9.8,20.9c-4.5,5.9-8.8,6.2-12.2,0.6
	c-1.9-3.2-3.3-6.8-4.3-10.8c-3.6-14-5-29-5.9-44.2c-1-16-2.5-31.8-6.9-46.1c-1.7-5.4-3.9-10.2-7.2-13.7c-4.2-4.4-8.5-2.4-11.4,5
	c-1.9,4.8-2.3,9.8-2.3,14.7c0,17.4,3.8,32.7,8.9,47.2c3.4,9.7,7.1,19.3,9.6,29.8c2.8,11.6,5.1,23.5,4,36.8c-0.4,4.4-1.1,8.8-3,12.6
	c-3.6,7.3-9.8,8.6-15.1,3.1c-3.7-3.8-6.5-8.7-8.9-14.1c-3.1-6.9-6.8-13.1-12.2-16.9c-3.2-2.3-6.9-3.7-10.6,0.5
	c-1.8,2.1-2.9,4.5-3.5,7c-11.3-2.2-22.7-2-34,0C128-22.7,117-35.6,118.1-52.8c0.5-7.6,3.6-13.7,8-18.9c3.5-4.1,6-8.8,6.8-14.8
	c1.1-8.5-3.3-16.6-10.1-18.1c-6.5-1.4-11.6,2.5-16.1,7.7c-4.9,5.7-8.2,12.7-11.2,20c-2,4.7-4.3,9.2-6.1,14.1
	c-0.8,2.3-3.6,1.5-3.5,3.4c0.3,3.7-1.8,4.1-3.4,4.3c-2,0.3-2.7-2.2-3.1-4.2c-1.1-5-1.5-10.2-1.3-15.4c0.6-15.4,2.2-30.7,4.6-45.9
	c2.5-15.6,6.4-30.8,7.8-46.6c0.6-6.5,1-13-0.8-19.4c-0.9-3.3-2.8-5.6-5.7-5.9c-3-0.4-5,1.7-6.3,4.8c-1.1,2.5-1.8,5.2-2.2,7.9
	c-2.2,12.9-2.3,25.9-2.7,39c-0.5,17.3-0.5,34.7-0.9,52.1c-0.1,5.8-0.8,11.5-2.2,17.1c-0.9,3.7-2.9,7-5.7,7.8c-3.5,1-4.9-3.3-6.6-6.3
	c-0.1-0.2-0.2-0.6-0.3-0.8c-0.5-0.7-0.4-2.4-1.5-2.1c-1,0.3-0.7,1.7-1,2.6c-0.7,2.9-1.2,5.8-2.6,8.2c-2.3,3.8-4.3,3.9-6.6,0.3
	c-0.2-0.3-1-0.6-1.2-0.4c-1.8,1.5-2.6-0.3-3.6-1.5c-4.3-5.5-7.3-12-9.7-19.1c-3.1-9.5-3.6-19.6-5.2-29.5c-2-12.7-5.3-24.7-13.3-33.8
	c-7.5-8.5-18.2-9.5-25.3-2.4c-7.6,7.6-9,19.4-3.8,30.9c2.7,5.9,6.6,10.5,10.5,15.1c7.6,9,16.4,16.3,23.7,25.8
	c6.9,8.8,8.9,19.4,7.6,31.2c-0.4,3.8-1.9,7-4.2,9.6c-1.2,1.4-2.3,2.1-4.1,1c-2.9-1.7-8.9,0.6-10.9,3.8c-1.6,2.5-4.4,2.1-5.6-1
	c-0.6-1.5-1.5-1.4-1.8-0.4c-1,3.4-3.1,2-4.8,1.8c-2.1-0.3-4.2-2-6-2c-6.6,0-12.5-3.2-18.7-5.5c-1.6-0.6-3-2.5-5.5-1
	c5.8,3.8,11,7.7,15.7,12.4c7.9,7.9,15.2,16.6,18,29.2c2.9,11.6-0.3,15-8.1,18.8c-3.8,1.8-7.8,1.3-11.7,0.6
	C-40.3,18.6-58,15.2-76,14.6c-6.9-0.3-13.9-0.1-20.6,2.9c-4.6,2-8.3,5.3-9.2,11.8c-1.1,7.9,2,14.2,9,17.4c7.2,3.3,14.7,3.8,22.3,3.2
	c12.9-1,25.5-4.3,38.1-8c9.9-2.9,19.8-3.4,29.9-1.4C-4,41-2,43.8,0,43.9C6.3,44,14.1,55.4,12.3,64.7c-2.1,11.1-8.2,18.7-14.6,26
	s-13.8,13.2-21.3,18.7c-11.5,8.4-22,18.4-31,30.7c-5.1,6.9-9.8,14.2-11.3,23.9c-0.9,6,0.8,10.9,5,14.1c4.1,3.2,8.4,3,12.8,1.6
	c7.4-2.4,13.3-7.9,19.1-13.8c10.3-10.5,17.9-23.8,25.9-36.7c3.7-6,7.5-11.9,11.5-17.6c3.9-5.6,8.2-10.8,12.1-16.4
	c4-5.6,9.1-9.2,13.9-13.3c2.5-2.1,5.6-2.1,8.4-3.1c10.6-3.7,18.4,1.8,26.4,9.8c52.7,53.3-13.5,10-13.9,16.8
	c-0.4,6.5-4.5,9.4-8.7,11.8c-2.5,1.4-5.1,2.3-7.6,3.5c0.1,0.3,0.1,0.6,0.2,0.8c0.7-0.1,1.4-0.2,2.1-0.3c5.8-0.3,11.7-1.2,17.4,1.4
	c5.6,2.5,7.6,7.6,5.4,14.4c-1.3,3.9-3,7.4-5.2,10.6C51.4,158.9,42.4,168.2,33,177c-9.8,9.3-19.3,18.9-26.7,31.5
	c-2.8,4.7-5,9.8-5.8,15.6c-1.1,7.3,2,11.4,7.9,11.2c3.9-0.2,7.2-2.2,10.3-4.6c11.2-8.7,19.3-21,26.5-34.5c4.8-9,9.4-18.3,15.1-26.5
	c6.3-9.2,12.9-17.9,21.9-23.2c2.9-1.7,6-3.1,9.3-2.8c6.2,0.6,9.5,7.5,8.2,16.7c-0.9,6.3-2.9,12.2-5.4,17.8
	c-3.1,7.2-5.6,14.8-5.8,23.2c-0.2,5.1,0.4,10.1,4.6,12.5c4.3,2.5,8.2,0.3,11.5-3.4c1.5-1.7,2.8-3.7,4-5.7c3.4-5.8,4.9-12.5,6.1-19.4
	c0.8-4.7,2-9.2,3.8-13.4c2.9-6.9,7.1-9.1,13.1-6.9c0.6,0.2,1.1,0.4,1.7,0.7c-0.5,0.9-1.1,1.7-1.6,2.6c-2.4,3.9-5.7,7.2-5.7,12.8
	c0,2.1-0.4,4.3,1.2,5.7c1.8,1.5,3.5,0.3,5-1c4.2-3.5,6.1-9,8-14.5v-0.1c1.3,1.5,2.5,3.1,3.7,4.9c9.6,14.5,17.7,30.2,25.5,46.2
	c0.7,1.5,1.2,3.4,2.8,4.5c7.5,34.7,21,35.5,18.5,10c-0.3-2.7,6.1-22.5,8.8-23.3c13.2-3.8,32.9,47.1,40.3,61.1
	c0.5,0.9,0.7,2.5,1.9,2.2c1.1-0.2,1.2-1.7,1.5-2.8c0.6-2.3,1.1-4.5,2.3-6.5c2.1-3.5,5.1-4.6,8.3-3.6c2.2,0.7,5.6,0.8,4.6,5.8
	c-0.1,0.6,0.5,1,1,1c2-0.1,2.2,1.9,2.8,3.5c1.3,3.9,1.5,8,1.7,12.2c0.3,5.2,0.1,10.4,1.3,15.4c0.4,1.7,0.9,3.7,2.7,3.6
	c1.7-0.1,2-2.2,2.5-3.9c0.1-0.4,0.1-0.9,0.2-1.3c0.4-3.4-1-18.7-2-22.2c-0.3-1-0.4-2.3,0.3-2.9c1.6-1.5,2.8-2.8-0.2-3.9
	c-0.2-0.1-0.3-1-0.4-1.6c-1.6-11,3.8-19.4,12.8-20c3-0.2,5.9,0.3,8.6,2.2c3.7,2.5,7,1,9-3.6c1.4-3.3,1.5-6.8,1-10.4
	c-0.3-2.2-2.5-5.1,1.2-6.3c0.1,0,0.3-1,0.2-1.1c-2.7-3.8,0.6-4.4,2-5.4c2.6-1.9,5.5-1.7,8.4-0.9c4.6,1.4,8,5.1,11.3,9
	c4.5,5.5,8.5,11.7,14,15.9c2.7,2.1,4.5,1.4,5.5-2.5c0.5-1.8,0.3-3.6-0.4-5.2c-1-2.4-1.8-4.7-1.5-7.6c0.2-1.8-0.5-3.2-2.1-1.8
	c-1.4,1.2-2.2,0.2-3.1-0.8c-4.6-5.1-9.7-9.1-15-12.9c-1.9-1.4-3.9-2.9-5.6-4.8c-3.7-4-3.2-8,1.1-10.9c1.1-0.7,2.2-1.2,3.3-1.8
	c0.9-0.5,1.5-1.1,1.5-2.6c0.2-6.5-8.9-6.6-8.3-8.4c0.6-2-0.8-3.3-1.9-3.7c-3.9-1.5-5.7-7.4-10.3-7.2c-0.4,0-0.8-0.7-1.1-1.1
	c-3.6-4.1-4.3-11.4-1.7-16.8c0.2-0.5,0.4-1,0.4-1.6c0-7.2,4.1-12,9.8-11.7c1.5,0.1,3.1,0.2,4.6,0s2.9-1,3-3.1s-1.1-3.1-2.6-3.8
	c-2.1-1-4.3-0.4-6.4-0.7c-3.6-0.5-4.8-2.8-3.9-7c0.9-4.3,0.8-6.9-0.4-11.3c-0.1-0.3-0.1-0.7,0-0.9c1.3-2.6,0.5-5.7,1.3-8.5
	c0.7-2.4,1.4-4.8,4.2-4.4c1.1,0.1,2.1-0.6,1.7-2.5c-1.1-5,2.8-3.8,4.5-5.1c1.6-1.1,3.8-1.9,4,2.2c0,1.1,0.8,1.9,1.8,1.7
	c0.7-0.1,1.1-1,1-1.6c-1-4.3,1.5-3.5,3.5-3.8c4.4-0.8,8.8-1.9,12.6-4.6c8.5,3.3,16.8,7.4,25.5,10.3c8.1,2.7,16.4,4.9,25.3,1.5
	C394.6,103,397.6,93.9,393.5,85.3z M338.1,58.3c3.4,1,6-1.1,8.3-3.8c1-1.1,3.1-1.9,2.6-3.6c-0.5-1.8-2.6-0.4-3.6-0.8
	c-2.8-0.1-5.3,0.3-7.7,1.3c-1.4,0.6-2.8,1.4-2.7,3.6C335.2,57.2,336.7,57.9,338.1,58.3z"/>
<g id="Jorge_Canelon_1_">
</g>
<image style="overflow:visible;" width="537" height="1172" xlink:href="G:\Clientes-SDD\Overtime\Alonso-Arias-Vcard\Overtime-Tarjeta-Digital-Demo-Alonso-Arias\01.png"  transform="matrix(0.7401 0 0 0.7401 1570.3912 -16)">
</image>
</svg>
