<svg xmlns="http://www.w3.org/2000/svg" viewBox="0 0 485.6 186.86" id="HkVHCg1I5M">
    <defs>
        <style>
            @-webkit-keyframes HkwZBRlk89M_Animation{0%{opacity: 0;}63.33%{opacity: 0;}70%{opacity: 1;}93.33%{opacity: 1;}100%{opacity: 0;}}@keyframes HkwZBRlk89M_Animation{0%{opacity: 0;}63.33%{opacity: 0;}70%{opacity: 1;}93.33%{opacity: 1;}100%{opacity: 0;}}@-webkit-keyframes B1OeB0gyU5M_Animation{0%{opacity: 0;}26.67%{opacity: 0;}33.33%{opacity: 1;}63.33%{opacity: 1;}70%{opacity: 0;}100%{opacity: 0;}}@keyframes B1OeB0gyU5M_Animation{0%{opacity: 0;}26.67%{opacity: 0;}33.33%{opacity: 1;}63.33%{opacity: 1;}70%{opacity: 0;}100%{opacity: 0;}}@-webkit-keyframes SkHHAl1U9M_Animation{26.67%{opacity: 1;}33.33%{opacity: 0;}93.33%{opacity: 0;}100%{opacity: 1;}0%{opacity: 1;}}@keyframes SkHHAl1U9M_Animation{26.67%{opacity: 1;}33.33%{opacity: 0;}93.33%{opacity: 0;}100%{opacity: 1;}0%{opacity: 1;}}#HkVHCg1I5M *{-webkit-animation-duration: 3s;animation-duration: 3s;-webkit-animation-iteration-count: infinite;animation-iteration-count: infinite;-webkit-animation-timing-function: cubic-bezier(0, 0, 1, 1);animation-timing-function: cubic-bezier(0, 0, 1, 1);transform-box: fill-box;-webkit-transform-origin: 50% 50%;transform-origin: 50% 50%;}#rJ8SAgJL5z{fill: #aa6527;-webkit-transform:  translate(-32.24px, -275.9px);transform:  translate(-32.24px, -275.9px);}#SJwHRxJIqf{fill: #2b3990;-webkit-transform:  translate(-32.24px, -275.9px);transform:  translate(-32.24px, -275.9px);}#H1OB0ey8qf{fill: #2b3990;-webkit-transform:  translate(-32.24px, -275.9px);transform:  translate(-32.24px, -275.9px);}#HytHAlkU9f{fill: #2b3990;-webkit-transform:  translate(-32.24px, -275.9px);transform:  translate(-32.24px, -275.9px);}#H1cHCg1Uqz{fill: #2b3990;-webkit-transform:  translate(-32.24px, -275.9px);transform:  translate(-32.24px, -275.9px);}#SysBAg1I5f{fill: #2b3990;-webkit-transform:  translate(-32.24px, -275.9px);transform:  translate(-32.24px, -275.9px);}#SJnBAx1Lqz{fill: #2b3990;-webkit-transform:  translate(-32.24px, -275.9px);transform:  translate(-32.24px, -275.9px);}#S1aS0xy89f{fill: #2b3990;-webkit-transform:  translate(-32.24px, -275.9px);transform:  translate(-32.24px, -275.9px);}#BkRHAey89M{fill: #1b75bc;-webkit-transform:  translate(-32.24px, -275.9px);transform:  translate(-32.24px, -275.9px);}#SyJeBAx1IcG{fill: #2b3990;-webkit-transform:  translate(-32.24px, -275.9px);transform:  translate(-32.24px, -275.9px);}#B1glHRek85z{fill: #fff;-webkit-transform:  translate(-32.24px, -275.9px);transform:  translate(-32.24px, -275.9px);}#SJblSRxJLcG{fill: #aa6527;-webkit-transform:  translate(-32.24px, -275.9px);transform:  translate(-32.24px, -275.9px);}#ByfxS0gJ8qM{fill: #aa6527;-webkit-transform:  translate(-32.24px, -275.9px);transform:  translate(-32.24px, -275.9px);}#BymlrRxyU9M{fill: #aa6527;-webkit-transform:  translate(-32.24px, -275.9px);transform:  translate(-32.24px, -275.9px);}#By4eBRl185f{fill: #aa6527;-webkit-transform:  translate(-32.24px, -275.9px);transform:  translate(-32.24px, -275.9px);}#B1rlB0ly8qz{fill: #aa6527;-webkit-transform:  translate(-32.24px, -275.9px);transform:  translate(-32.24px, -275.9px);}#HJIxB0l1Icz{fill: #aa6527;-webkit-transform:  translate(-32.24px, -275.9px);transform:  translate(-32.24px, -275.9px);}#ByDeHCx189G{fill: #aa6527;-webkit-transform:  translate(-32.24px, -275.9px);transform:  translate(-32.24px, -275.9px);}#ByKlBRgk8cG{fill: #07864a;-webkit-transform:  translate(-32.24px, -275.9px);transform:  translate(-32.24px, -275.9px);}#B1ceBAgJUcf{fill: #aa6527;-webkit-transform:  translate(-32.24px, -275.9px);transform:  translate(-32.24px, -275.9px);}#B1sxSClJLqG{fill: #aa6527;-webkit-transform:  translate(-32.24px, -275.9px);transform:  translate(-32.24px, -275.9px);}#ry2xBCl1L9z{fill: #aa6527;-webkit-transform:  translate(-32.24px, -275.9px);transform:  translate(-32.24px, -275.9px);}#Hk6xB0x1Lcz{fill: #aa6527;-webkit-transform:  translate(-32.24px, -275.9px);transform:  translate(-32.24px, -275.9px);}#SkAxrRgy89z{fill: #aa6527;-webkit-transform:  translate(-32.24px, -275.9px);transform:  translate(-32.24px, -275.9px);}#HJk-S0ekI9f{fill: #aa6527;-webkit-transform:  translate(-32.24px, -275.9px);transform:  translate(-32.24px, -275.9px);}#HklWSAeyI5z{fill: #aa6527;-webkit-transform:  translate(-32.24px, -275.9px);transform:  translate(-32.24px, -275.9px);}#Hk-br0g1I9M{fill: #07864a;-webkit-transform:  translate(-32.24px, -275.9px);transform:  translate(-32.24px, -275.9px);}#S1zZSClJ8qG{fill: #fff;-webkit-transform:  translate(-32.24px, -275.9px);transform:  translate(-32.24px, -275.9px);}#H1QZrCx1Iqf{fill: #07864a;-webkit-transform:  translate(-32.24px, -275.9px);transform:  translate(-32.24px, -275.9px);}#S1EZBReJLcG{fill: #07864a;-webkit-transform:  translate(-32.24px, -275.9px);transform:  translate(-32.24px, -275.9px);}#BkrbB0ly89M{fill: #1b75bc;-webkit-transform:  translate(-32.24px, -275.9px);transform:  translate(-32.24px, -275.9px);}#BkL-HAe1U9f{fill: #aa6527;-webkit-transform:  translate(-32.24px, -275.9px);transform:  translate(-32.24px, -275.9px);}#H1uZB0gkUcG{fill: #ed1c24;-webkit-transform:  translate(-32.24px, -275.9px);transform:  translate(-32.24px, -275.9px);}#BJtZSClJIqf{fill: #902478;-webkit-transform:  translate(-32.24px, -275.9px);transform:  translate(-32.24px, -275.9px);}#BkcbrAl189z{fill: #902478;-webkit-transform:  translate(-32.24px, -275.9px);transform:  translate(-32.24px, -275.9px);}#SyibrAxyL5M{fill: #902478;-webkit-transform:  translate(-32.24px, -275.9px);transform:  translate(-32.24px, -275.9px);}#HJ2-rCekLqf{fill: #902478;-webkit-transform:  translate(-32.24px, -275.9px);transform:  translate(-32.24px, -275.9px);}#Hk6ZHCeJ8cz{fill: #902478;-webkit-transform:  translate(-32.24px, -275.9px);transform:  translate(-32.24px, -275.9px);}#SJ0bBRg1U9G{fill: #902478;-webkit-transform:  translate(-32.24px, -275.9px);transform:  translate(-32.24px, -275.9px);}#Bk1frRlk8cz{fill: #902478;-webkit-transform:  translate(-32.24px, -275.9px);transform:  translate(-32.24px, -275.9px);}#rklzSRg1U5f{fill: #1b75bc;-webkit-transform:  translate(-32.24px, -275.9px);transform:  translate(-32.24px, -275.9px);}#S1ZGSClyI9M{fill: #ed1c24;-webkit-transform:  translate(-32.24px, -275.9px);transform:  translate(-32.24px, -275.9px);}#HkzMBRg1Icz{fill: #ed1c24;-webkit-transform:  translate(-32.24px, -275.9px);transform:  translate(-32.24px, -275.9px);}#SkXGBRxJIcz{fill: #ed1c24;-webkit-transform:  translate(-32.24px, -275.9px);transform:  translate(-32.24px, -275.9px);}#Hy4zSAgyLcz{fill: #ed1c24;-webkit-transform:  translate(-32.24px, -275.9px);transform:  translate(-32.24px, -275.9px);}#HkHzBCxJ8cG{fill: #902478;-webkit-transform:  translate(-32.24px, -275.9px);transform:  translate(-32.24px, -275.9px);}#SkHHAl1U9M{-webkit-animation-name: SkHHAl1U9M_Animation;animation-name: SkHHAl1U9M_Animation;-webkit-transform-origin: undefined;transform-origin: undefined;}#B1OeB0gyU5M{-webkit-animation-name: B1OeB0gyU5M_Animation;animation-name: B1OeB0gyU5M_Animation;-webkit-transform-origin: undefined;transform-origin: undefined;}#HkwZBRlk89M{-webkit-animation-name: HkwZBRlk89M_Animation;animation-name: HkwZBRlk89M_Animation;-webkit-transform-origin: undefined;transform-origin: undefined;}
        </style>
    </defs>
    <title>
        overtime-svg-all01
    </title>
    <g id="SkHHAl1U9M" data-name="Layer 3">
        <path d="M50.74,278.54c22.45-9.05,56.52,23,76.1,71.52s17.24,95.24-5.22,104.3-56.53-23-76.1-71.52S28.28,287.6,50.74,278.54ZM64.91,375C78,407.52,100.82,429,115.85,422.89s16.59-37.31,3.49-69.81S83.43,299.16,68.4,305.22,51.81,342.53,64.91,375Z" id="rJ8SAgJL5z"/>
        <path d="M196.77,400.75c.71,1.73.63,4.06-.23,7a44.44,44.44,0,0,1-3.76,8.8,10.08,10.08,0,0,0-1.07,1.69c-.3.61-.61,1.17-.92,1.68a27.72,27.72,0,0,1-2.75,4.68c-1,1.37-2,2.73-3.07,4.05-.82,1.44-1.61,2.86-2.37,4.29a18.71,18.71,0,0,1-3.3,4.29c-.2.41-.45.92-.76,1.53a3.09,3.09,0,0,1-.92,1.23,19,19,0,0,1-2.6,3.14c-.92.87-1.9,1.74-2.91,2.6a34.59,34.59,0,0,0-2.91,2.76,12,12,0,0,0-2.3,3.6,9.27,9.27,0,0,1-4.6.92,10.32,10.32,0,0,1-4.29-1.23,15.52,15.52,0,0,1-3.67-2.75,12.24,12.24,0,0,1-2.61-3.83,20,20,0,0,1-1.15-5.36,38.73,38.73,0,0,1,0-5.9q.24-3,.69-6c.31-2,.51-3.85.62-5.59a2.76,2.76,0,0,0-1-1.68,2.71,2.71,0,0,1-1-1.69,7.51,7.51,0,0,1,.38-1.83c.15-.41.28-.79.38-1.15a7.8,7.8,0,0,0,.23-1.15,14.51,14.51,0,0,0,.08-1.69,6.42,6.42,0,0,1,2.91-.38,41.17,41.17,0,0,1,4.13.38c1.43.21,2.78.46,4.06.77a9.28,9.28,0,0,1,2.84,1.07,23.48,23.48,0,0,1,.61,6.67,70,70,0,0,1-.69,7.27q-.54,3.68-1.15,7.28a40.49,40.49,0,0,0-.61,6.81,40,40,0,0,0,9-8.65q3.75-5,7.2-10.65t7.5-11.64A62.3,62.3,0,0,1,196.77,400.75Z" id="SJwHRxJIqf"/>
        <path d="M236.45,417a62.68,62.68,0,0,1-12.1,16.62,44.31,44.31,0,0,1-18.07,10.8,28.66,28.66,0,0,0,11.41,1.46,70.12,70.12,0,0,0,12.41-1.92,97.84,97.84,0,0,0,11.79-3.68q5.6-2.13,9.57-3.82a16.28,16.28,0,0,1-4.29,4,47.31,47.31,0,0,1-6,3.37q-3.21,1.53-6.59,2.76c-2.24.81-4.28,1.53-6.12,2.14-.21.1-.31.21-.31.31a.13.13,0,0,0,.15.15,13.07,13.07,0,0,1-4.74,1.61,49.91,49.91,0,0,1-6.36.69q-3.3.15-6.36,0a20.29,20.29,0,0,1-4.59-.62,16.42,16.42,0,0,1-8.89-5.2q-3.52-4-4.74-10.88a15.09,15.09,0,0,1,2.83-7.35,33.26,33.26,0,0,1,6.2-6.74c2-1.74,4.37-3.62,7-5.67a20.55,20.55,0,0,1,7.58-4,4.59,4.59,0,0,1,2,.15,5.66,5.66,0,0,0,2.3.16c1.84-.1,3.58-.18,5.21-.23a19,19,0,0,1,4.6.38,8.79,8.79,0,0,1,3.67,1.68A8.34,8.34,0,0,1,236.45,417Zm-22.21-2.91c-1,.51-2.2,1.18-3.52,2s-2.63,1.69-3.91,2.61a28.49,28.49,0,0,0-3.44,2.91,9.24,9.24,0,0,0-2.15,3.06,14.49,14.49,0,0,1,3.14-2.83q1.92-1.31,3.91-2.53a42.42,42.42,0,0,0,3.6-2.45A8,8,0,0,0,214.24,414.07Zm-9,21.6a19.25,19.25,0,0,0,7.35-4.06q3.21-2.83,6.12-5.44t6-5.28a10.81,10.81,0,0,0,3.67-6.66A98,98,0,0,0,214,423.42a33.67,33.67,0,0,0-10,12.71,1.73,1.73,0,0,1,.77-.15C205.05,436,205.21,435.88,205.21,435.67Z" id="H1OB0ey8qf"/>
        <path d="M258.06,419.28a3.14,3.14,0,0,1,2.22,1,5.77,5.77,0,0,0,1.92,1.45c2.14-1.84,4-3.52,5.44-5.05a21.77,21.77,0,0,1,4.74-3.76,16.57,16.57,0,0,1,6.21-1.91,39,39,0,0,1,10,.46,2.12,2.12,0,0,1-.08,2,4.94,4.94,0,0,1-1.61,1.61,13,13,0,0,1-2.22,1.15,5.53,5.53,0,0,1-1.91.46,33.6,33.6,0,0,0-8,6,46.74,46.74,0,0,0-5.36,6.74q-2.29,3.53-4.44,7.28a84.61,84.61,0,0,1-5.06,7.73,8.4,8.4,0,0,1-.92,3.52,11.74,11.74,0,0,1-2,2.61,6.44,6.44,0,0,1-4.82-2.45,10.79,10.79,0,0,1-2-5.29,23.81,23.81,0,0,1,.23-6.74,40.83,40.83,0,0,1,4.6-13A11.59,11.59,0,0,1,258.06,419.28Z" id="HytHAlkU9f"/>
        <path d="M326.81,391.86q10-1.22,21-3.06a148.94,148.94,0,0,1,22.67-2,23,23,0,0,1-7.88,1.76c-3.32.25-6.82.51-10.5.76a108.24,108.24,0,0,0-10.87,1.31A24.36,24.36,0,0,0,332,394q6.42-1.08,11.64-1.92t12.1-1.91a28.06,28.06,0,0,1-7.89,2.45,50.31,50.31,0,0,0-7.89,1.84c-1.22.41-2.6.84-4.13,1.3s-3,.92-4.52,1.38-2.79.89-3.91,1.3a12,12,0,0,0-2.14.92,6.06,6.06,0,0,0-2.07,2.3,18.82,18.82,0,0,0-1.46,3.52c-.41,1.33-.79,2.7-1.15,4.13s-.74,2.76-1.14,4c-1,2.65-1.95,5.26-2.76,7.81a23.34,23.34,0,0,1-3.68,7,29.9,29.9,0,0,1-1.45,6q-1,2.76-1.92,5.51T308,445.32a29.86,29.86,0,0,0-.92,6.28,7.67,7.67,0,0,0-1.3,2.68c-.26,1-.49,2-.69,3a24.72,24.72,0,0,1-.77,2.91,7.4,7.4,0,0,1-1.38,2.45c-.41.2-.71.18-.92-.08a7,7,0,0,1-.53-.76,1,1,0,0,0-.46-.46c-.16-.05-.28.12-.39.53a13.9,13.9,0,0,1-4.67-8.34A31.68,31.68,0,0,1,296,443a72.44,72.44,0,0,1,2.83-11.18q1.92-5.67,3.45-10.57c.31-1.12.74-2.58,1.3-4.36s1.12-3.65,1.69-5.59,1.15-3.76,1.76-5.44a28,28,0,0,1,1.68-3.91,3.88,3.88,0,0,0-1.83.16,21,21,0,0,0-2.23.76c-.76.31-1.55.64-2.37,1a9.16,9.16,0,0,1-2.14.69,9.63,9.63,0,0,0-5.9-.77,23,23,0,0,0-4.83,1.76,42.59,42.59,0,0,1-4.36,1.92,5.56,5.56,0,0,1-4.52-.46,93.31,93.31,0,0,1,14.78-8.58,86.54,86.54,0,0,1,17.23-5.82,29.33,29.33,0,0,0,2.61-6.21,55.52,55.52,0,0,0,1.22-5.59q.47-2.74,1.07-5.66a34.18,34.18,0,0,1,2.15-6.44,9.36,9.36,0,0,1,7.27-1.22,9.77,9.77,0,0,1,5.59,3.52,26.24,26.24,0,0,1-1.53,11.33A83.47,83.47,0,0,1,326.81,391.86ZM309.5,413.77q-2,5.66-3.83,11.33t-3.37,11.64a66.9,66.9,0,0,0,4.6-11.26A64.31,64.31,0,0,0,309.5,413.77Z" id="H1cHCg1Uqz"/>
        <path d="M359.94,417.29a15.59,15.59,0,0,1,.38,5.28,36,36,0,0,1-1,6.05,50.49,50.49,0,0,1-1.91,6.05q-1.16,3-2.22,5.44c-.72,1.43-1.48,3-2.3,4.83a51.29,51.29,0,0,1-2.6,5,24.78,24.78,0,0,1-2.91,4,5.13,5.13,0,0,1-3.37,1.84,5.79,5.79,0,0,1-1.84-2.3c-.41-.92-.82-1.94-1.22-3.07v-.3a17.87,17.87,0,0,1-.62-2.76c-.1-.3,0-.59.39-.84a.73.73,0,0,0,.38-.84c.3-1.43.69-3.27,1.15-5.52s1-4.59,1.53-7,1.09-4.83,1.61-7.13,1-4.26,1.53-5.89q1.53-5.06,5-6.36T359.94,417.29Zm-6.74-25a18.83,18.83,0,0,0,4.21.84,14.75,14.75,0,0,1,2.83.39,5.07,5.07,0,0,1,2.23,1.22,13,13,0,0,1,2.22,3.22,3.83,3.83,0,0,1-1.08,1.61,11.48,11.48,0,0,1-1.6,1.22,18,18,0,0,0-1.69,1.23,4.77,4.77,0,0,0-1.3,1.61,9.71,9.71,0,0,1-4.37-.77,4,4,0,0,1-2-2.22,7.87,7.87,0,0,1-.3-3.6A38.31,38.31,0,0,1,353.2,392.32Z" id="SysBAg1I5f"/>
        <path d="M449.63,449.15a5.84,5.84,0,0,1-3.06-4.44,37.21,37.21,0,0,1-.61-7q0-3.75-.23-7.35a8.79,8.79,0,0,0-2.07-5.6,48.1,48.1,0,0,0-13.33,3.76,61.79,61.79,0,0,0-10.72,6.28,79.49,79.49,0,0,0-9.19,7.89q-4.29,4.29-8.58,8.42a8.78,8.78,0,0,1-5.51-3.6,8.5,8.5,0,0,1-1.68-5.9,26.57,26.57,0,0,1,2.52-9.57q2.07-4.21,3.91-9.11-4.29,2.3-8.66,5.13a52.6,52.6,0,0,0-8.11,6.51,54.61,54.61,0,0,0-6.82,8.12,40.76,40.76,0,0,0-4.9,9.65,25.73,25.73,0,0,1,.3,2.91q0,.77-.15,2.91c-1.12-.41-1.66-.39-1.61.07a4.64,4.64,0,0,1-.23,1.76,21.08,21.08,0,0,1-4.82-12.1,44.93,44.93,0,0,1,1.07-13.78A61.91,61.91,0,0,1,371.82,421,60.54,60.54,0,0,1,378,410.7a11.35,11.35,0,0,0,.23-2.53,9.35,9.35,0,0,1,.23-2.37,11.82,11.82,0,0,1,2.22-1.76,3.37,3.37,0,0,0,1.45-2.53,9.88,9.88,0,0,1,5.21,1.76,10.52,10.52,0,0,1,3.45,3.91,8.61,8.61,0,0,1,.84,5,9,9,0,0,1-2.6,5.13,7.64,7.64,0,0,0,2.45-1.15l2.45-1.68a16.52,16.52,0,0,1,2.6-1.46,6.09,6.09,0,0,1,3.07-.46,7.86,7.86,0,0,1,4,1.3,14.47,14.47,0,0,1,3.83,3.45,15.88,15.88,0,0,1,2.6,5,12.81,12.81,0,0,1,.31,6.28,49.37,49.37,0,0,1,10.49-7.19,59.16,59.16,0,0,1,12.79-5.06,7.28,7.28,0,0,0,1.61-.92,2.75,2.75,0,0,1,1.61-.61,16.15,16.15,0,0,1,6.74,1.07,13.83,13.83,0,0,1,5.28,3.75,18,18,0,0,1,3.45,6.13,22.62,22.62,0,0,1,1.07,8,9.81,9.81,0,0,0-1.76,3.37,23.61,23.61,0,0,0-.77,3.83c-.15,1.33-.3,2.68-.46,4.06A34.06,34.06,0,0,1,449.63,449.15Z" id="SJnBAx1Lqz"/>
        <path d="M502.83,417a62.68,62.68,0,0,1-12.1,16.62,44.29,44.29,0,0,1-18.08,10.8,28.74,28.74,0,0,0,11.42,1.46,70,70,0,0,0,12.4-1.92,97.44,97.44,0,0,0,11.8-3.68q5.58-2.13,9.57-3.82a16.28,16.28,0,0,1-4.29,4,48.75,48.75,0,0,1-6,3.37c-2.15,1-4.34,1.94-6.59,2.76s-4.29,1.53-6.12,2.14c-.21.1-.31.21-.31.31a.13.13,0,0,0,.15.15,13.06,13.06,0,0,1-4.75,1.61,49.55,49.55,0,0,1-6.35.69q-3.3.15-6.36,0a20.4,20.4,0,0,1-4.6-.62,16.43,16.43,0,0,1-8.88-5.2q-3.52-4-4.75-10.88a15.21,15.21,0,0,1,2.84-7.35,33.26,33.26,0,0,1,6.2-6.74c2-1.74,4.36-3.62,7-5.67a20.55,20.55,0,0,1,7.58-4,4.6,4.6,0,0,1,2,.15,5.66,5.66,0,0,0,2.3.16c1.84-.1,3.57-.18,5.21-.23a18.9,18.9,0,0,1,4.59.38,8.84,8.84,0,0,1,3.68,1.68A8.34,8.34,0,0,1,502.83,417Zm-22.21-2.91c-1,.51-2.2,1.18-3.52,2s-2.63,1.69-3.91,2.61a27,27,0,0,0-3.44,2.91,9.24,9.24,0,0,0-2.15,3.06,14.25,14.25,0,0,1,3.14-2.83q1.92-1.31,3.91-2.53t3.6-2.45A8,8,0,0,0,480.62,414.07Zm-9,21.6a19.22,19.22,0,0,0,7.36-4.06q3.21-2.83,6.12-5.44t6-5.28a10.81,10.81,0,0,0,3.67-6.66,97.47,97.47,0,0,0-14.32,9.19,33.67,33.67,0,0,0-10,12.71,1.72,1.72,0,0,1,.76-.15C471.43,436,471.58,435.88,471.58,435.67Z" id="S1aS0xy89f"/>
        <path d="M180.08,345.86Z" id="BkRHAey89M"/>
        <path d="M184.73,343.86c-.23-.37-.39-.62-.55-.86a21.84,21.84,0,0,1,2.47-27.77q5.22-5.24,10.45-10.44c-47,15.37-93.44,42.32-114.15,71.61,30.6-14.7,82.94-15.85,125.08-9.25Z" id="SyJeBAx1IcG"/>
        <path d="M193.53,340.16c-.85-2.17-1.43-4.35-.57-6.68.33-.92.61-1.46.95-1.65s50.67-49.78,50.88-50.59,1.27-1,2.05-1.15a7.82,7.82,0,0,1,7.85,2.46c1.31,1.34,2.16,1.31,3.4-.06,1.85-2,3.91-3.9,5.82-5.89.87-.9,1.52-.91,2.53-.12,2.29,1.79,3.8,4.32,6.14,6.06,1,.76,1.64.83,2.52-.08,1.64-1.69,3.35-3.3,5-4.94l46.68,46.67c-.68.73-1.34,1.48-2,2.19q-12,12-23.95,23.95-17.4,17.4-34.78,34.83c-1.26,1.26-2.07,1.31-3.27,0-1.74-1.92-3.69-3.63-5.45-5.53-1-1.11-1.8-1.24-2.85,0-1.21,1.36-2.6,2.56-3.83,3.9-1,1.1-1.85,1.17-2.91,0-1.69-1.8-3.48-3.51-5.23-5.25-.47-.47-.95-.94-1.67-.42-2.81,2-5.78,2-8.87.75Z" id="B1glHRek85z"/>
        <path d="M193.53,340.16c-.85-2.17-1.43-4.35-.57-6.68.77-2.1,1.23-2.24,2.83-.65L234,371c2,2,2,2,3.93,0l46.28-46.28c1.78-1.79,1.78-1.79,0-3.55Q265.12,302.11,246,283c-.52-.52-1.46-1-1.25-1.77s1.27-1,2.05-1.15a7.82,7.82,0,0,1,7.85,2.46c1.31,1.34,2.16,1.31,3.4-.06,1.85-2,3.91-3.9,5.82-5.89.87-.9,1.52-.91,2.53-.12,2.29,1.79,3.8,4.32,6.14,6.06,1,.76,1.64.83,2.52-.08,1.64-1.69,3.35-3.3,5-4.94l46.68,46.67c-.68.73-1.34,1.48-2,2.19q-12,12-23.95,23.95-17.4,17.4-34.78,34.83c-1.26,1.26-2.07,1.31-3.27,0-1.74-1.92-3.69-3.63-5.45-5.53-1-1.11-1.8-1.24-2.85,0-1.21,1.36-2.6,2.56-3.83,3.9-1,1.1-1.85,1.17-2.91,0-1.69-1.8-3.48-3.51-5.23-5.25-.47-.47-.95-.94-1.67-.42-2.81,2-5.78,2-8.87.75Zm82,8.15,25.2-25.2c1.66-1.66,1.66-1.67,0-3.33q-16.47-16.47-32.94-32.93c-2.71-2.71-2.14-2.85-4.95-.06-1.94,1.94-1.94,1.95,0,3.86Q276,303.81,289.16,317c4,4,4,8.54.15,12.44-5.89,5.92-11.82,11.81-17.73,17.71q-12.1,12.09-24.22,24.18c-.94.94-1.08,1.57-.1,2.61,1.14,1.21,1.85.88,2.86-.14Q262.79,361,275.56,348.31Zm15,2c8.49-8.48,17-17,25.48-25.43,1.15-1.13,1.25-1.9,0-3-1.53-1.38-2.93-2.9-4.38-4.35L282,287.85c-.82-.82-1.52-1.69-2.74-.42s-.22,1.76.48,2.46l30.2,30.2c2,2,2,2.05,0,4.1l-46.67,46.67c-.67.67-1.33,1.33-2,2-.29.29-.7.64-.5,1.05a6.49,6.49,0,0,0,2.64,2.75c.85.5,1.32-.53,1.82-1Q277.89,363,290.54,350.32Z" id="SJblSRxJLcG"/>
        <path d="M231.86,289.63a15.4,15.4,0,0,1-1.79-6.27,1.84,1.84,0,0,1,2.85-1.54c3.34,1.7,6.63,3.52,9.88,5.4a1.89,1.89,0,0,1,.62,2.77,1.87,1.87,0,0,1-2.56.87c-1.24-.54-2.42-1.19-3.6-1.85-.86-.48-1.42-.74-2,.51S233.11,290.93,231.86,289.63Z" id="ByfxS0gJ8qM"/>
        <path d="M216.87,304.68c-.75-1.89-1.77-4-1.83-6.3a2,2,0,0,1,3-1.52c3.29,1.69,6.52,3.49,9.72,5.35a2.06,2.06,0,0,1-1.93,3.62c-1.18-.51-2.31-1.15-3.44-1.77-.87-.48-1.48-.69-2.09.49S218,305.87,216.87,304.68Z" id="BymlrRxyU9M"/>
        <path d="M201.89,319.65c-.67-2-1.9-4-1.76-6.46a1.89,1.89,0,0,1,2.83-1.42c3.34,1.7,6.63,3.51,9.88,5.38a1.91,1.91,0,0,1,.64,2.78,1.88,1.88,0,0,1-2.58.84,30.8,30.8,0,0,1-3.75-1.92c-.83-.47-1.22-.49-1.69.52C204.82,320.76,203.11,320.92,201.89,319.65Z" id="By4eBRl185f"/>
        <path d="M224.42,297.26c-.79-1.92-1.88-4-1.84-6.44a1.91,1.91,0,0,1,2.92-1.5c3.29,1.68,6.53,3.48,9.74,5.31a1.88,1.88,0,0,1,.72,2.75,1.94,1.94,0,0,1-2.7.93,37.11,37.11,0,0,1-3.59-1.88c-.86-.5-1.32-.59-1.81.52C227.26,298.3,225.61,298.46,224.42,297.26Z" id="B1rlB0ly8qz"/>
        <path d="M220.6,313a2.18,2.18,0,0,1-2.63.21c-1.15-.58-2.29-1.2-3.42-1.82-.67-.37-1.22-.71-1.54.43-.26.92-1.11,1.14-2,1.1a1.87,1.87,0,0,1-1.89-1.31c-.52-1.56-1.06-3.11-1.49-4.7a2,2,0,0,1,.69-2.38,2.27,2.27,0,0,1,2.5-.08c3.09,1.7,6.2,3.36,9.24,5.14A2.08,2.08,0,0,1,220.6,313Z" id="HJIxB0l1Icz"/>
        <path d="M205.5,324.66c.8,1,1.08,1.82.47,2.76a2,2,0,0,1-2.61.81c-1.28-.55-2.51-1.25-3.75-1.9-.66-.34-1.23-.73-1.57.4a1.7,1.7,0,0,1-2,1.08,1.93,1.93,0,0,1-1.91-1.29,44,44,0,0,1-1.48-4.87c-.37-1.84.88-3.12,2.51-2.49C198.87,320.61,202.15,322.93,205.5,324.66Z" id="ByDeHCx189G"/>
    </g>
    <g id="B1OeB0gyU5M" data-name="Layer 1">
        <path d="M50.74,278.54c22.45-9.05,56.52,23,76.1,71.52s17.24,95.24-5.22,104.3-56.53-23-76.1-71.52S28.28,287.6,50.74,278.54ZM64.91,375C78,407.52,100.82,429,115.85,422.89s16.59-37.31,3.49-69.81S83.43,299.16,68.4,305.22,51.81,342.53,64.91,375Z" id="ByKlBRgk8cG"/>
        <path d="M196.77,400.75c.71,1.73.63,4.06-.23,7a44.44,44.44,0,0,1-3.76,8.8,10.08,10.08,0,0,0-1.07,1.69c-.3.61-.61,1.17-.92,1.68a27.72,27.72,0,0,1-2.75,4.68c-1,1.37-2,2.73-3.07,4.05-.82,1.44-1.61,2.86-2.37,4.29a18.71,18.71,0,0,1-3.3,4.29c-.2.41-.45.92-.76,1.53a3.09,3.09,0,0,1-.92,1.23,19,19,0,0,1-2.6,3.14c-.92.87-1.9,1.74-2.91,2.6a34.59,34.59,0,0,0-2.91,2.76,12,12,0,0,0-2.3,3.6,9.27,9.27,0,0,1-4.6.92,10.32,10.32,0,0,1-4.29-1.23,15.52,15.52,0,0,1-3.67-2.75,12.24,12.24,0,0,1-2.61-3.83,20,20,0,0,1-1.15-5.36,38.73,38.73,0,0,1,0-5.9q.24-3,.69-6c.31-2,.51-3.85.62-5.59a2.76,2.76,0,0,0-1-1.68,2.71,2.71,0,0,1-1-1.69,7.51,7.51,0,0,1,.38-1.83c.15-.41.28-.79.38-1.15a7.8,7.8,0,0,0,.23-1.15,14.51,14.51,0,0,0,.08-1.69,6.42,6.42,0,0,1,2.91-.38,41.17,41.17,0,0,1,4.13.38c1.43.21,2.78.46,4.06.77a9.28,9.28,0,0,1,2.84,1.07,23.48,23.48,0,0,1,.61,6.67,70,70,0,0,1-.69,7.27q-.54,3.68-1.15,7.28a40.49,40.49,0,0,0-.61,6.81,40,40,0,0,0,9-8.65q3.75-5,7.2-10.65t7.5-11.64A62.3,62.3,0,0,1,196.77,400.75Z" id="B1ceBAgJUcf"/>
        <path d="M236.45,417a62.68,62.68,0,0,1-12.1,16.62,44.31,44.31,0,0,1-18.07,10.8,28.66,28.66,0,0,0,11.41,1.46,70.12,70.12,0,0,0,12.41-1.92,97.84,97.84,0,0,0,11.79-3.68q5.6-2.13,9.57-3.82a16.28,16.28,0,0,1-4.29,4,47.31,47.31,0,0,1-6,3.37q-3.21,1.53-6.59,2.76c-2.24.81-4.28,1.53-6.12,2.14-.21.1-.31.21-.31.31a.13.13,0,0,0,.15.15,13.07,13.07,0,0,1-4.74,1.61,49.91,49.91,0,0,1-6.36.69q-3.3.15-6.36,0a20.29,20.29,0,0,1-4.59-.62,16.42,16.42,0,0,1-8.89-5.2q-3.52-4-4.74-10.88a15.09,15.09,0,0,1,2.83-7.35,33.26,33.26,0,0,1,6.2-6.74c2-1.74,4.37-3.62,7-5.67a20.55,20.55,0,0,1,7.58-4,4.59,4.59,0,0,1,2,.15,5.66,5.66,0,0,0,2.3.16c1.84-.1,3.58-.18,5.21-.23a19,19,0,0,1,4.6.38,8.79,8.79,0,0,1,3.67,1.68A8.34,8.34,0,0,1,236.45,417Zm-22.21-2.91c-1,.51-2.2,1.18-3.52,2s-2.63,1.69-3.91,2.61a28.49,28.49,0,0,0-3.44,2.91,9.24,9.24,0,0,0-2.15,3.06,14.49,14.49,0,0,1,3.14-2.83q1.92-1.31,3.91-2.53a42.42,42.42,0,0,0,3.6-2.45A8,8,0,0,0,214.24,414.07Zm-9,21.6a19.25,19.25,0,0,0,7.35-4.06q3.21-2.83,6.12-5.44t6-5.28a10.81,10.81,0,0,0,3.67-6.66A98,98,0,0,0,214,423.42a33.67,33.67,0,0,0-10,12.71,1.73,1.73,0,0,1,.77-.15C205.05,436,205.21,435.88,205.21,435.67Z" id="B1sxSClJLqG"/>
        <path d="M258.06,419.28a3.14,3.14,0,0,1,2.22,1,5.77,5.77,0,0,0,1.92,1.45c2.14-1.84,4-3.52,5.44-5.05a21.77,21.77,0,0,1,4.74-3.76,16.57,16.57,0,0,1,6.21-1.91,39,39,0,0,1,10,.46,2.12,2.12,0,0,1-.08,2,4.94,4.94,0,0,1-1.61,1.61,13,13,0,0,1-2.22,1.15,5.53,5.53,0,0,1-1.91.46,33.6,33.6,0,0,0-8,6,46.74,46.74,0,0,0-5.36,6.74q-2.29,3.53-4.44,7.28a84.61,84.61,0,0,1-5.06,7.73,8.4,8.4,0,0,1-.92,3.52,11.74,11.74,0,0,1-2,2.61,6.44,6.44,0,0,1-4.82-2.45,10.79,10.79,0,0,1-2-5.29,23.81,23.81,0,0,1,.23-6.74,40.83,40.83,0,0,1,4.6-13A11.59,11.59,0,0,1,258.06,419.28Z" id="ry2xBCl1L9z"/>
        <path d="M326.81,391.86q10-1.22,21-3.06a148.94,148.94,0,0,1,22.67-2,23,23,0,0,1-7.88,1.76c-3.32.25-6.82.51-10.5.76a108.24,108.24,0,0,0-10.87,1.31A24.36,24.36,0,0,0,332,394q6.42-1.08,11.64-1.92t12.1-1.91a28.06,28.06,0,0,1-7.89,2.45,50.31,50.31,0,0,0-7.89,1.84c-1.22.41-2.6.84-4.13,1.3s-3,.92-4.52,1.38-2.79.89-3.91,1.3a12,12,0,0,0-2.14.92,6.06,6.06,0,0,0-2.07,2.3,18.82,18.82,0,0,0-1.46,3.52c-.41,1.33-.79,2.7-1.15,4.13s-.74,2.76-1.14,4c-1,2.65-1.95,5.26-2.76,7.81a23.34,23.34,0,0,1-3.68,7,29.9,29.9,0,0,1-1.45,6q-1,2.76-1.92,5.51T308,445.32a29.86,29.86,0,0,0-.92,6.28,7.67,7.67,0,0,0-1.3,2.68c-.26,1-.49,2-.69,3a24.72,24.72,0,0,1-.77,2.91,7.4,7.4,0,0,1-1.38,2.45c-.41.2-.71.18-.92-.08a7,7,0,0,1-.53-.76,1,1,0,0,0-.46-.46c-.16-.05-.28.12-.39.53a13.9,13.9,0,0,1-4.67-8.34A31.68,31.68,0,0,1,296,443a72.44,72.44,0,0,1,2.83-11.18q1.92-5.67,3.45-10.57c.31-1.12.74-2.58,1.3-4.36s1.12-3.65,1.69-5.59,1.15-3.76,1.76-5.44a28,28,0,0,1,1.68-3.91,3.88,3.88,0,0,0-1.83.16,21,21,0,0,0-2.23.76c-.76.31-1.55.64-2.37,1a9.16,9.16,0,0,1-2.14.69,9.63,9.63,0,0,0-5.9-.77,23,23,0,0,0-4.83,1.76,42.59,42.59,0,0,1-4.36,1.92,5.56,5.56,0,0,1-4.52-.46,93.31,93.31,0,0,1,14.78-8.58,86.54,86.54,0,0,1,17.23-5.82,29.33,29.33,0,0,0,2.61-6.21,55.52,55.52,0,0,0,1.22-5.59q.47-2.74,1.07-5.66a34.18,34.18,0,0,1,2.15-6.44,9.36,9.36,0,0,1,7.27-1.22,9.77,9.77,0,0,1,5.59,3.52,26.24,26.24,0,0,1-1.53,11.33A83.47,83.47,0,0,1,326.81,391.86ZM309.5,413.77q-2,5.66-3.83,11.33t-3.37,11.64a66.9,66.9,0,0,0,4.6-11.26A64.31,64.31,0,0,0,309.5,413.77Z" id="Hk6xB0x1Lcz"/>
        <path d="M359.94,417.29a15.59,15.59,0,0,1,.38,5.28,36,36,0,0,1-1,6.05,50.49,50.49,0,0,1-1.91,6.05q-1.16,3-2.22,5.44c-.72,1.43-1.48,3-2.3,4.83a51.29,51.29,0,0,1-2.6,5,24.78,24.78,0,0,1-2.91,4,5.13,5.13,0,0,1-3.37,1.84,5.79,5.79,0,0,1-1.84-2.3c-.41-.92-.82-1.94-1.22-3.07v-.3a17.87,17.87,0,0,1-.62-2.76c-.1-.3,0-.59.39-.84a.73.73,0,0,0,.38-.84c.3-1.43.69-3.27,1.15-5.52s1-4.59,1.53-7,1.09-4.83,1.61-7.13,1-4.26,1.53-5.89q1.53-5.06,5-6.36T359.94,417.29Zm-6.74-25a18.83,18.83,0,0,0,4.21.84,14.75,14.75,0,0,1,2.83.39,5.07,5.07,0,0,1,2.23,1.22,13,13,0,0,1,2.22,3.22,3.83,3.83,0,0,1-1.08,1.61,11.48,11.48,0,0,1-1.6,1.22,18,18,0,0,0-1.69,1.23,4.77,4.77,0,0,0-1.3,1.61,9.71,9.71,0,0,1-4.37-.77,4,4,0,0,1-2-2.22,7.87,7.87,0,0,1-.3-3.6A38.31,38.31,0,0,1,353.2,392.32Z" id="SkAxrRgy89z"/>
        <path d="M449.63,449.15a5.84,5.84,0,0,1-3.06-4.44,37.21,37.21,0,0,1-.61-7q0-3.75-.23-7.35a8.79,8.79,0,0,0-2.07-5.6,48.1,48.1,0,0,0-13.33,3.76,61.79,61.79,0,0,0-10.72,6.28,79.49,79.49,0,0,0-9.19,7.89q-4.29,4.29-8.58,8.42a8.78,8.78,0,0,1-5.51-3.6,8.5,8.5,0,0,1-1.68-5.9,26.57,26.57,0,0,1,2.52-9.57q2.07-4.21,3.91-9.11-4.29,2.3-8.66,5.13a52.6,52.6,0,0,0-8.11,6.51,54.61,54.61,0,0,0-6.82,8.12,40.76,40.76,0,0,0-4.9,9.65,25.73,25.73,0,0,1,.3,2.91q0,.77-.15,2.91c-1.12-.41-1.66-.39-1.61.07a4.64,4.64,0,0,1-.23,1.76,21.08,21.08,0,0,1-4.82-12.1,44.93,44.93,0,0,1,1.07-13.78A61.91,61.91,0,0,1,371.82,421,60.54,60.54,0,0,1,378,410.7a11.35,11.35,0,0,0,.23-2.53,9.35,9.35,0,0,1,.23-2.37,11.82,11.82,0,0,1,2.22-1.76,3.37,3.37,0,0,0,1.45-2.53,9.88,9.88,0,0,1,5.21,1.76,10.52,10.52,0,0,1,3.45,3.91,8.61,8.61,0,0,1,.84,5,9,9,0,0,1-2.6,5.13,7.64,7.64,0,0,0,2.45-1.15l2.45-1.68a16.52,16.52,0,0,1,2.6-1.46,6.09,6.09,0,0,1,3.07-.46,7.86,7.86,0,0,1,4,1.3,14.47,14.47,0,0,1,3.83,3.45,15.88,15.88,0,0,1,2.6,5,12.81,12.81,0,0,1,.31,6.28,49.37,49.37,0,0,1,10.49-7.19,59.16,59.16,0,0,1,12.79-5.06,7.28,7.28,0,0,0,1.61-.92,2.75,2.75,0,0,1,1.61-.61,16.15,16.15,0,0,1,6.74,1.07,13.83,13.83,0,0,1,5.28,3.75,18,18,0,0,1,3.45,6.13,22.62,22.62,0,0,1,1.07,8,9.81,9.81,0,0,0-1.76,3.37,23.61,23.61,0,0,0-.77,3.83c-.15,1.33-.3,2.68-.46,4.06A34.06,34.06,0,0,1,449.63,449.15Z" id="HJk-S0ekI9f"/>
        <path d="M502.83,417a62.68,62.68,0,0,1-12.1,16.62,44.29,44.29,0,0,1-18.08,10.8,28.74,28.74,0,0,0,11.42,1.46,70,70,0,0,0,12.4-1.92,97.44,97.44,0,0,0,11.8-3.68q5.58-2.13,9.57-3.82a16.28,16.28,0,0,1-4.29,4,48.75,48.75,0,0,1-6,3.37c-2.15,1-4.34,1.94-6.59,2.76s-4.29,1.53-6.12,2.14c-.21.1-.31.21-.31.31a.13.13,0,0,0,.15.15,13.06,13.06,0,0,1-4.75,1.61,49.55,49.55,0,0,1-6.35.69q-3.3.15-6.36,0a20.4,20.4,0,0,1-4.6-.62,16.43,16.43,0,0,1-8.88-5.2q-3.52-4-4.75-10.88a15.21,15.21,0,0,1,2.84-7.35,33.26,33.26,0,0,1,6.2-6.74c2-1.74,4.36-3.62,7-5.67a20.55,20.55,0,0,1,7.58-4,4.6,4.6,0,0,1,2,.15,5.66,5.66,0,0,0,2.3.16c1.84-.1,3.57-.18,5.21-.23a18.9,18.9,0,0,1,4.59.38,8.84,8.84,0,0,1,3.68,1.68A8.34,8.34,0,0,1,502.83,417Zm-22.21-2.91c-1,.51-2.2,1.18-3.52,2s-2.63,1.69-3.91,2.61a27,27,0,0,0-3.44,2.91,9.24,9.24,0,0,0-2.15,3.06,14.25,14.25,0,0,1,3.14-2.83q1.92-1.31,3.91-2.53t3.6-2.45A8,8,0,0,0,480.62,414.07Zm-9,21.6a19.22,19.22,0,0,0,7.36-4.06q3.21-2.83,6.12-5.44t6-5.28a10.81,10.81,0,0,0,3.67-6.66,97.47,97.47,0,0,0-14.32,9.19,33.67,33.67,0,0,0-10,12.71,1.72,1.72,0,0,1,.76-.15C471.43,436,471.58,435.88,471.58,435.67Z" id="HklWSAeyI5z"/>
        <path d="M194.29,339.76c-.19-.29-.31-.49-.43-.68a17.23,17.23,0,0,1,1.94-21.91q17.61-17.69,35.31-35.29A16.59,16.59,0,0,1,242.86,277a17.38,17.38,0,0,1,10.75,3.49l15.62,15.62a1.17,1.17,0,0,0-.2.95q0,13.34,0,26.65c0,6.12,0,12.24.06,18.36,0,.81-23,24.43-25.27,26.16a16.9,16.9,0,0,1-14.8,3,17.52,17.52,0,0,1-5.95-2.74C225.82,371.29,189.38,334.84,194.29,339.76Zm24.11-35.11L201.07,322a12,12,0,0,0-1.86,2.28A10.23,10.23,0,0,0,201,336.91q12.35,12.4,24.76,24.75a9.81,9.81,0,0,0,4.33,2.72,10.16,10.16,0,0,0,10.6-2.76q9.58-9.62,19.2-19.18c.58-.58.5-.95,0-1.48-2-1.94-4-3.91-5.93-5.9a50.72,50.72,0,0,1-4.79-4.94,17.21,17.21,0,0,1,1.48-22.89c3.07-3.19,6.24-6.28,9.38-9.4.55-.54.57-.93,0-1.48-3.11-3.07-6.17-6.2-9.29-9.25a10.12,10.12,0,0,0-9.15-3,11.2,11.2,0,0,0-6.14,3.52C229.74,293.34,224.06,299,218.4,304.65Zm43.36.94-.66.66c-1.88,1.87-3.74,3.76-5.63,5.62a10.53,10.53,0,0,0-.08,15.25c1.91,1.91,3.83,3.83,5.75,5.73.2.2.35.5.67.52C261.79,324.12,261.78,314.88,261.76,305.59Z" id="Hk-br0g1I9M"/>
        <path d="M243.86,368.25m-25.46-63.6L201.07,322a12,12,0,0,0-1.86,2.28A10.23,10.23,0,0,0,201,336.91q12.35,12.4,24.76,24.75a9.81,9.81,0,0,0,4.33,2.72,10.16,10.16,0,0,0,10.6-2.76q9.58-9.62,19.2-19.18c.58-.58.5-.95,0-1.48-2-1.94-4-3.91-5.93-5.9a50.72,50.72,0,0,1-4.79-4.94,17.21,17.21,0,0,1,1.48-22.89c3.07-3.19,6.24-6.28,9.38-9.4.55-.54.57-.93,0-1.48-3.11-3.07-6.17-6.2-9.29-9.25a10.12,10.12,0,0,0-9.15-3,11.2,11.2,0,0,0-6.14,3.52C229.74,293.34,224.06,299,218.4,304.65Zm43.36.94-.66.66c-1.88,1.87-3.74,3.76-5.63,5.62a10.53,10.53,0,0,0-.08,15.25c1.91,1.91,3.83,3.83,5.75,5.73.2.2.35.5.67.52C261.79,324.12,261.78,314.88,261.76,305.59Z" id="S1zZSClJ8qG"/>
        <path d="M230.79,331.89l-11.59-11.6c-.78-.78-.78-.87,0-1.64,1.11-1.14,2.26-2.23,3.36-3.37.54-.56,1-.53,1.5,0,2.81,2.84,5.65,5.65,8.47,8.47L247,338.25c1.16,1.16,1.16,1.16,0,2.34-1,1-2,2-3,3-.54.58-.92.56-1.47,0C238.61,339.69,234.7,335.8,230.79,331.89Z" id="H1QZrCx1Iqf"/>
        <path d="M225.82,337l11.42,11.42c1,1,1,1,0,1.92s-2,2.06-3.07,3.07c-.88.87-.92.88-1.82,0-1.83-1.8-3.64-3.63-5.45-5.45l-17.28-17.28c-1.21-1.21-1.21-1.22,0-2.43,1-1,2-2,2.95-3,.54-.57,1-.59,1.55,0,3.88,3.93,7.8,7.82,11.7,11.72Z" id="S1EZBReJLcG"/>
        <path d="M180.08,345.86Z" id="BkrbB0ly89M"/>
        <path d="M184.73,343.86c-.23-.37-.39-.62-.55-.86a21.84,21.84,0,0,1,2.47-27.77q5.22-5.24,10.45-10.44c-47,15.37-93.44,42.32-114.15,71.61,30.6-14.7,82.94-15.85,125.08-9.25Z" id="BkL-HAe1U9f"/>
    </g>
    <g id="HkwZBRlk89M" data-name="Layer 4">
        <path d="M50.74,278.54c22.45-9.05,56.52,23,76.1,71.52s17.24,95.24-5.22,104.3-56.53-23-76.1-71.52S28.28,287.6,50.74,278.54ZM64.91,375C78,407.52,100.82,429,115.85,422.89s16.59-37.31,3.49-69.81S83.43,299.16,68.4,305.22,51.81,342.53,64.91,375Z" id="H1uZB0gkUcG"/>
        <path d="M196.77,400.75c.71,1.73.63,4.06-.23,7a44.44,44.44,0,0,1-3.76,8.8,10.08,10.08,0,0,0-1.07,1.69c-.3.61-.61,1.17-.92,1.68a27.72,27.72,0,0,1-2.75,4.68c-1,1.37-2,2.73-3.07,4.05-.82,1.44-1.61,2.86-2.37,4.29a18.71,18.71,0,0,1-3.3,4.29c-.2.41-.45.92-.76,1.53a3.09,3.09,0,0,1-.92,1.23,19,19,0,0,1-2.6,3.14c-.92.87-1.9,1.74-2.91,2.6a34.59,34.59,0,0,0-2.91,2.76,12,12,0,0,0-2.3,3.6,9.27,9.27,0,0,1-4.6.92,10.32,10.32,0,0,1-4.29-1.23,15.52,15.52,0,0,1-3.67-2.75,12.24,12.24,0,0,1-2.61-3.83,20,20,0,0,1-1.15-5.36,38.73,38.73,0,0,1,0-5.9q.24-3,.69-6c.31-2,.51-3.85.62-5.59a2.76,2.76,0,0,0-1-1.68,2.71,2.71,0,0,1-1-1.69,7.51,7.51,0,0,1,.38-1.83c.15-.41.28-.79.38-1.15a7.8,7.8,0,0,0,.23-1.15,14.51,14.51,0,0,0,.08-1.69,6.42,6.42,0,0,1,2.91-.38,41.17,41.17,0,0,1,4.13.38c1.43.21,2.78.46,4.06.77a9.28,9.28,0,0,1,2.84,1.07,23.48,23.48,0,0,1,.61,6.67,70,70,0,0,1-.69,7.27q-.54,3.68-1.15,7.28a40.49,40.49,0,0,0-.61,6.81,40,40,0,0,0,9-8.65q3.75-5,7.2-10.65t7.5-11.64A62.3,62.3,0,0,1,196.77,400.75Z" id="BJtZSClJIqf"/>
        <path d="M236.45,417a62.68,62.68,0,0,1-12.1,16.62,44.31,44.31,0,0,1-18.07,10.8,28.66,28.66,0,0,0,11.41,1.46,70.12,70.12,0,0,0,12.41-1.92,97.84,97.84,0,0,0,11.79-3.68q5.6-2.13,9.57-3.82a16.28,16.28,0,0,1-4.29,4,47.31,47.31,0,0,1-6,3.37q-3.21,1.53-6.59,2.76c-2.24.81-4.28,1.53-6.12,2.14-.21.1-.31.21-.31.31a.13.13,0,0,0,.15.15,13.07,13.07,0,0,1-4.74,1.61,49.91,49.91,0,0,1-6.36.69q-3.3.15-6.36,0a20.29,20.29,0,0,1-4.59-.62,16.42,16.42,0,0,1-8.89-5.2q-3.52-4-4.74-10.88a15.09,15.09,0,0,1,2.83-7.35,33.26,33.26,0,0,1,6.2-6.74c2-1.74,4.37-3.62,7-5.67a20.55,20.55,0,0,1,7.58-4,4.59,4.59,0,0,1,2,.15,5.66,5.66,0,0,0,2.3.16c1.84-.1,3.58-.18,5.21-.23a19,19,0,0,1,4.6.38,8.79,8.79,0,0,1,3.67,1.68A8.34,8.34,0,0,1,236.45,417Zm-22.21-2.91c-1,.51-2.2,1.18-3.52,2s-2.63,1.69-3.91,2.61a28.49,28.49,0,0,0-3.44,2.91,9.24,9.24,0,0,0-2.15,3.06,14.49,14.49,0,0,1,3.14-2.83q1.92-1.31,3.91-2.53a42.42,42.42,0,0,0,3.6-2.45A8,8,0,0,0,214.24,414.07Zm-9,21.6a19.25,19.25,0,0,0,7.35-4.06q3.21-2.83,6.12-5.44t6-5.28a10.81,10.81,0,0,0,3.67-6.66A98,98,0,0,0,214,423.42a33.67,33.67,0,0,0-10,12.71,1.73,1.73,0,0,1,.77-.15C205.05,436,205.21,435.88,205.21,435.67Z" id="BkcbrAl189z"/>
        <path d="M258.06,419.28a3.14,3.14,0,0,1,2.22,1,5.77,5.77,0,0,0,1.92,1.45c2.14-1.84,4-3.52,5.44-5.05a21.77,21.77,0,0,1,4.74-3.76,16.57,16.57,0,0,1,6.21-1.91,39,39,0,0,1,10,.46,2.12,2.12,0,0,1-.08,2,4.94,4.94,0,0,1-1.61,1.61,13,13,0,0,1-2.22,1.15,5.53,5.53,0,0,1-1.91.46,33.6,33.6,0,0,0-8,6,46.74,46.74,0,0,0-5.36,6.74q-2.29,3.53-4.44,7.28a84.61,84.61,0,0,1-5.06,7.73,8.4,8.4,0,0,1-.92,3.52,11.74,11.74,0,0,1-2,2.61,6.44,6.44,0,0,1-4.82-2.45,10.79,10.79,0,0,1-2-5.29,23.81,23.81,0,0,1,.23-6.74,40.83,40.83,0,0,1,4.6-13A11.59,11.59,0,0,1,258.06,419.28Z" id="SyibrAxyL5M"/>
        <path d="M326.81,391.86q10-1.22,21-3.06a148.94,148.94,0,0,1,22.67-2,23,23,0,0,1-7.88,1.76c-3.32.25-6.82.51-10.5.76a108.24,108.24,0,0,0-10.87,1.31A24.36,24.36,0,0,0,332,394q6.42-1.08,11.64-1.92t12.1-1.91a28.06,28.06,0,0,1-7.89,2.45,50.31,50.31,0,0,0-7.89,1.84c-1.22.41-2.6.84-4.13,1.3s-3,.92-4.52,1.38-2.79.89-3.91,1.3a12,12,0,0,0-2.14.92,6.06,6.06,0,0,0-2.07,2.3,18.82,18.82,0,0,0-1.46,3.52c-.41,1.33-.79,2.7-1.15,4.13s-.74,2.76-1.14,4c-1,2.65-1.95,5.26-2.76,7.81a23.34,23.34,0,0,1-3.68,7,29.9,29.9,0,0,1-1.45,6q-1,2.76-1.92,5.51T308,445.32a29.86,29.86,0,0,0-.92,6.28,7.67,7.67,0,0,0-1.3,2.68c-.26,1-.49,2-.69,3a24.72,24.72,0,0,1-.77,2.91,7.4,7.4,0,0,1-1.38,2.45c-.41.2-.71.18-.92-.08a7,7,0,0,1-.53-.76,1,1,0,0,0-.46-.46c-.16-.05-.28.12-.39.53a13.9,13.9,0,0,1-4.67-8.34A31.68,31.68,0,0,1,296,443a72.44,72.44,0,0,1,2.83-11.18q1.92-5.67,3.45-10.57c.31-1.12.74-2.58,1.3-4.36s1.12-3.65,1.69-5.59,1.15-3.76,1.76-5.44a28,28,0,0,1,1.68-3.91,3.88,3.88,0,0,0-1.83.16,21,21,0,0,0-2.23.76c-.76.31-1.55.64-2.37,1a9.16,9.16,0,0,1-2.14.69,9.63,9.63,0,0,0-5.9-.77,23,23,0,0,0-4.83,1.76,42.59,42.59,0,0,1-4.36,1.92,5.56,5.56,0,0,1-4.52-.46,93.31,93.31,0,0,1,14.78-8.58,86.54,86.54,0,0,1,17.23-5.82,29.33,29.33,0,0,0,2.61-6.21,55.52,55.52,0,0,0,1.22-5.59q.47-2.74,1.07-5.66a34.18,34.18,0,0,1,2.15-6.44,9.36,9.36,0,0,1,7.27-1.22,9.77,9.77,0,0,1,5.59,3.52,26.24,26.24,0,0,1-1.53,11.33A83.47,83.47,0,0,1,326.81,391.86ZM309.5,413.77q-2,5.66-3.83,11.33t-3.37,11.64a66.9,66.9,0,0,0,4.6-11.26A64.31,64.31,0,0,0,309.5,413.77Z" id="HJ2-rCekLqf"/>
        <path d="M359.94,417.29a15.59,15.59,0,0,1,.38,5.28,36,36,0,0,1-1,6.05,50.49,50.49,0,0,1-1.91,6.05q-1.16,3-2.22,5.44c-.72,1.43-1.48,3-2.3,4.83a51.29,51.29,0,0,1-2.6,5,24.78,24.78,0,0,1-2.91,4,5.13,5.13,0,0,1-3.37,1.84,5.79,5.79,0,0,1-1.84-2.3c-.41-.92-.82-1.94-1.22-3.07v-.3a17.87,17.87,0,0,1-.62-2.76c-.1-.3,0-.59.39-.84a.73.73,0,0,0,.38-.84c.3-1.43.69-3.27,1.15-5.52s1-4.59,1.53-7,1.09-4.83,1.61-7.13,1-4.26,1.53-5.89q1.53-5.06,5-6.36T359.94,417.29Zm-6.74-25a18.83,18.83,0,0,0,4.21.84,14.75,14.75,0,0,1,2.83.39,5.07,5.07,0,0,1,2.23,1.22,13,13,0,0,1,2.22,3.22,3.83,3.83,0,0,1-1.08,1.61,11.48,11.48,0,0,1-1.6,1.22,18,18,0,0,0-1.69,1.23,4.77,4.77,0,0,0-1.3,1.61,9.71,9.71,0,0,1-4.37-.77,4,4,0,0,1-2-2.22,7.87,7.87,0,0,1-.3-3.6A38.31,38.31,0,0,1,353.2,392.32Z" id="Hk6ZHCeJ8cz"/>
        <path d="M449.63,449.15a5.84,5.84,0,0,1-3.06-4.44,37.21,37.21,0,0,1-.61-7q0-3.75-.23-7.35a8.79,8.79,0,0,0-2.07-5.6,48.1,48.1,0,0,0-13.33,3.76,61.79,61.79,0,0,0-10.72,6.28,79.49,79.49,0,0,0-9.19,7.89q-4.29,4.29-8.58,8.42a8.78,8.78,0,0,1-5.51-3.6,8.5,8.5,0,0,1-1.68-5.9,26.57,26.57,0,0,1,2.52-9.57q2.07-4.21,3.91-9.11-4.29,2.3-8.66,5.13a52.6,52.6,0,0,0-8.11,6.51,54.61,54.61,0,0,0-6.82,8.12,40.76,40.76,0,0,0-4.9,9.65,25.73,25.73,0,0,1,.3,2.91q0,.77-.15,2.91c-1.12-.41-1.66-.39-1.61.07a4.64,4.64,0,0,1-.23,1.76,21.08,21.08,0,0,1-4.82-12.1,44.93,44.93,0,0,1,1.07-13.78A61.91,61.91,0,0,1,371.82,421,60.54,60.54,0,0,1,378,410.7a11.35,11.35,0,0,0,.23-2.53,9.35,9.35,0,0,1,.23-2.37,11.82,11.82,0,0,1,2.22-1.76,3.37,3.37,0,0,0,1.45-2.53,9.88,9.88,0,0,1,5.21,1.76,10.52,10.52,0,0,1,3.45,3.91,8.61,8.61,0,0,1,.84,5,9,9,0,0,1-2.6,5.13,7.64,7.64,0,0,0,2.45-1.15l2.45-1.68a16.52,16.52,0,0,1,2.6-1.46,6.09,6.09,0,0,1,3.07-.46,7.86,7.86,0,0,1,4,1.3,14.47,14.47,0,0,1,3.83,3.45,15.88,15.88,0,0,1,2.6,5,12.81,12.81,0,0,1,.31,6.28,49.37,49.37,0,0,1,10.49-7.19,59.16,59.16,0,0,1,12.79-5.06,7.28,7.28,0,0,0,1.61-.92,2.75,2.75,0,0,1,1.61-.61,16.15,16.15,0,0,1,6.74,1.07,13.83,13.83,0,0,1,5.28,3.75,18,18,0,0,1,3.45,6.13,22.62,22.62,0,0,1,1.07,8,9.81,9.81,0,0,0-1.76,3.37,23.61,23.61,0,0,0-.77,3.83c-.15,1.33-.3,2.68-.46,4.06A34.06,34.06,0,0,1,449.63,449.15Z" id="SJ0bBRg1U9G"/>
        <path d="M502.83,417a62.68,62.68,0,0,1-12.1,16.62,44.29,44.29,0,0,1-18.08,10.8,28.74,28.74,0,0,0,11.42,1.46,70,70,0,0,0,12.4-1.92,97.44,97.44,0,0,0,11.8-3.68q5.58-2.13,9.57-3.82a16.28,16.28,0,0,1-4.29,4,48.75,48.75,0,0,1-6,3.37c-2.15,1-4.34,1.94-6.59,2.76s-4.29,1.53-6.12,2.14c-.21.1-.31.21-.31.31a.13.13,0,0,0,.15.15,13.06,13.06,0,0,1-4.75,1.61,49.55,49.55,0,0,1-6.35.69q-3.3.15-6.36,0a20.4,20.4,0,0,1-4.6-.62,16.43,16.43,0,0,1-8.88-5.2q-3.52-4-4.75-10.88a15.21,15.21,0,0,1,2.84-7.35,33.26,33.26,0,0,1,6.2-6.74c2-1.74,4.36-3.62,7-5.67a20.55,20.55,0,0,1,7.58-4,4.6,4.6,0,0,1,2,.15,5.66,5.66,0,0,0,2.3.16c1.84-.1,3.57-.18,5.21-.23a18.9,18.9,0,0,1,4.59.38,8.84,8.84,0,0,1,3.68,1.68A8.34,8.34,0,0,1,502.83,417Zm-22.21-2.91c-1,.51-2.2,1.18-3.52,2s-2.63,1.69-3.91,2.61a27,27,0,0,0-3.44,2.91,9.24,9.24,0,0,0-2.15,3.06,14.25,14.25,0,0,1,3.14-2.83q1.92-1.31,3.91-2.53t3.6-2.45A8,8,0,0,0,480.62,414.07Zm-9,21.6a19.22,19.22,0,0,0,7.36-4.06q3.21-2.83,6.12-5.44t6-5.28a10.81,10.81,0,0,0,3.67-6.66,97.47,97.47,0,0,0-14.32,9.19,33.67,33.67,0,0,0-10,12.71,1.72,1.72,0,0,1,.76-.15C471.43,436,471.58,435.88,471.58,435.67Z" id="Bk1frRlk8cz"/>
        <path d="M180.08,345.86Z" id="rklzSRg1U5f"/>
        <path d="M192.1,340.2a15.11,15.11,0,0,1-4.27-2.13,40.43,40.43,0,0,1-5.84-5.33,1.94,1.94,0,0,1-.47-1q-4.52-20.55,8.2-37.3a42.41,42.41,0,0,1,15.42-12.51,43.38,43.38,0,0,1,15.44-4.25,45.26,45.26,0,0,1,22.95,4.11c3.8,1.73,6.21,4.76,8.3,8.15a12.28,12.28,0,0,1,2,7.45c0,.31.12.75-.27.86s-.48-.31-.63-.55a1,1,0,0,0-1.51-.39,44.57,44.57,0,0,1-6.06,2.06c-.76.21-.84.54-.55,1.2a51.7,51.7,0,0,1,3.2,10.54,1.55,1.55,0,0,1-.31,1.4,34.32,34.32,0,0,1-2.69,3c-.16.16-.3.45-.55.39s-.26-.44-.28-.68a55.77,55.77,0,0,0-1-6.15,54.1,54.1,0,0,0-2.26-7.58,1,1,0,0,0-1.33-.78,71.66,71.66,0,0,1-12.65,1.18c-.76,0-.95.27-.95,1,0,5.38-.05,10.75.07,16.12a1.57,1.57,0,0,1-1.16,1.76c-1.69.79-3.38,1.6-5,2.46a5.34,5.34,0,0,1-2.48.57c-3.95,0-7.89,0-11.84,0-1.12,0-1.16,0-1.12,1.15a32.1,32.1,0,0,0,.53,4.59,1.08,1.08,0,0,1-.7,1.4,24.14,24.14,0,0,0-2.55,1.26c-.57.31-.79.13-.91-.46a54.38,54.38,0,0,1-.86-7c-.05-.7-.24-1-1-1-3.53,0-7.06,0-10.6,0-.76,0-1,.19-.93,1a36.22,36.22,0,0,0,4.33,14.47A1.75,1.75,0,0,1,192.1,340.2Zm21.07-20.48h0c2.7,0,5.4,0,8.1,0,.36,0,.84.13.84-.5,0-2.37,0-4.73,0-7.1,0-3.2-.06-6.4,0-9.59,0-.52-.13-.68-.63-.7a94.48,94.48,0,0,1-12.45-1.4,1,1,0,0,0-1.34.8,60.41,60.41,0,0,0-2,6.73,67.08,67.08,0,0,0-1.38,11c0,.74.33.75.86.75C207.82,319.71,210.5,319.72,213.17,319.72Zm-19.56,0c1.72,0,3.44,0,5.16,0,.83,0,1.16-.19,1.15-1.08a26.29,26.29,0,0,1,.21-3.19,55.67,55.67,0,0,1,3.78-15.23c.26-.62.17-.88-.5-1.06A36.69,36.69,0,0,1,197.3,297a.72.72,0,0,0-1,.26,37.29,37.29,0,0,0-9,21.57c-.06.64.15.91.83.9C190,319.7,191.8,319.72,193.61,319.72ZM226,291.2c0,1.89,0,3.79,0,5.69,0,.74.23,1,1,1,3.62-.18,7.2-.66,10.78-1.17.61-.09.8-.26.43-.9A41.62,41.62,0,0,0,230,285.69a4,4,0,0,0-3-1.19c-.68,0-1,.21-.94.91C226,287.34,226,289.27,226,291.2Zm-5.62,6.64a5.43,5.43,0,0,1,.81,0c.77.17.9-.13.88-.88-.06-2.46,0-4.92,0-7.37,0-1.34,0-2.67,0-4,0-.38.07-1-.48-1-1.1,0-2.29-.15-3.21.69a41.32,41.32,0,0,0-8.18,10.37c-.33.59-.3.89.45,1C213.93,297.16,217.19,297.64,220.38,297.84ZM236,286.28a6.55,6.55,0,0,0,.34.56,49.58,49.58,0,0,1,5.87,8.37.86.86,0,0,0,1.13.41l5.15-1.4c.71-.19.71-.42.16-.88a39.39,39.39,0,0,0-6.38-4.37A31.66,31.66,0,0,0,236,286.28Zm-24,.39a1.4,1.4,0,0,0-.31,0,38,38,0,0,0-11.6,6.82c-.5.42-.19.55.2.68,1.69.56,3.43,1,5.15,1.41a.66.66,0,0,0,.85-.42A49.11,49.11,0,0,1,212,286.67Z" id="S1ZGSClyI9M"/>
        <path d="M195,354.08c.88.18,1.76.41,2.65.54a24.47,24.47,0,0,0,8.32-.22,2.26,2.26,0,0,1,1.54.2,25.65,25.65,0,0,0,4.42,1.88c-.64-.92-1.12-1.64-1.62-2.34-.35-.48-.33-.76.3-1a22,22,0,0,0,2.5-.93.82.82,0,0,1,1.19.34,52.18,52.18,0,0,0,4.08,5.06c1,1.07,2.2.81,3.38.89.29,0,.35-.25.35-.52,0-.47,0-.94,0-1.42,0-.32-.11-.65.45-.64s.39-.46.46-.75c1-3.93,2-7.87,3-11.81.36-1.41.36-1.36,1.78-1.28a75.13,75.13,0,0,1,11.28,1.42c.64.13.76-.31.93-.71a54,54,0,0,0,3.5-11.19c.45-2.27.66-4.57.89-6.88.08-.83-.21-1.08-1-1.08-3.68,0-7.36,0-11,0-1.27,0-1.29,0-1-1.24a16.74,16.74,0,0,0,.41-1.73c.12-.8.54-1,1.34-1,3.41,0,6.82,0,10.24,0,.68,0,1.19-.05,1.08-.94-.06-.44.2-.64.63-.66,1-.06,2-.12,3-.2.63-.05.91.25.86.83-.07.83.33,1,1.06,1q5.31,0,10.6,0c.79,0,1-.3.9-1a47.71,47.71,0,0,0-.86-5.44,1.18,1.18,0,0,1,.45-1.39,30.11,30.11,0,0,0,4.32-4.35c.51-.6.67-.43.89.2a43.92,43.92,0,0,1,.45,26.2,44.13,44.13,0,0,1-70.61,21.46c-.44-.36-.85-.78-1.28-1.17Zm60.25-30.4h0c-1.75,0-3.5,0-5.25,0-.71,0-1,.19-1,.95a48.66,48.66,0,0,1-.78,6.8A56.9,56.9,0,0,1,244.3,344c-.22.51-.25.77.39.95a55.12,55.12,0,0,1,5.7,2,1.15,1.15,0,0,0,1.48-.34,41.83,41.83,0,0,0,3.92-5.17,36.86,36.86,0,0,0,5.69-16.87c.07-.7-.18-.91-.82-.9C258.85,323.7,257,323.68,255.22,323.68ZM226,352.31c0,1.51,0,3,0,4.54,0,1.85-.36,1.8,1.86,1.7a4,4,0,0,0,3.18-1.39,59.67,59.67,0,0,0,6.21-8.77c.52-.91.5-.92-.53-1.1-3.24-.55-6.51-.91-9.78-1.26-.68-.07-1,.11-1,.85C226,348.69,226,350.5,226,352.31Zm11.11,4.13a35.65,35.65,0,0,0,10.48-5.85c.47-.37.16-.5-.18-.65a33.22,33.22,0,0,0-4.48-1.4,1,1,0,0,0-1.16.57c-.63,1.08-1.25,2.16-1.92,3.2C239,353.65,238.1,355,237.11,356.44Z" id="HkzMBRg1Icz"/>
        <path d="M183.83,338.08a27.37,27.37,0,0,0,2.72,2.14,17,17,0,0,0,10.71,3.2,8,8,0,0,0,5.87-2.57c.76-.88.72-1-.26-1.57-1.23-.72-2.45-1.45-3.67-2.19-.23-.14-.63-.21-.58-.57s.38-.34.61-.46l7.43-3.65q10.64-5.22,21.26-10.44c.28-.14.6-.48.88-.25s0,.61-.06.92q-3.59,14.14-7.18,28.29c-.31,1.24-.32,1.24-1.38.57-1.3-.83-2.62-1.63-3.88-2.52a1.53,1.53,0,0,0-1.79-.12,36,36,0,0,1-10,3.29,18.2,18.2,0,0,1-20.65-12.82A1.42,1.42,0,0,1,183.83,338.08Z" id="SkXGBRxJIcz"/>
        <path d="M251.83,286.22a19.53,19.53,0,0,1,6.54,3.66c4,3.34,5.78,7.76,6.5,12.78a3.65,3.65,0,0,1-1.2,3.29,31.94,31.94,0,0,1-13.19,9,4.12,4.12,0,0,1-1.6.35c.14-.56.58-.85.89-1.22A27.56,27.56,0,0,0,256,299.35a16.6,16.6,0,0,0-.86-8.66A12.2,12.2,0,0,0,251.83,286.22Z" id="Hy4zSAgyLcz"/>
        <path d="M173.86,321.73a50.67,50.67,0,0,1,.76-8.68C135.87,328.87,100.33,351.81,83,376.4c28.68-13.77,76.44-15.65,117-10.4A50.56,50.56,0,0,1,173.86,321.73Z" id="HkHzBCxJ8cG"/>
    </g>
</svg>