<?xml version="1.0" encoding="utf-8"?>
<!-- Generator: Adobe Illustrator 22.0.0, SVG Export Plug-In . SVG Version: 6.00 Build 0)  -->
<svg version="1.1" id="Layer_1" xmlns="http://www.w3.org/2000/svg" xmlns:xlink="http://www.w3.org/1999/xlink" x="0px" y="0px"
	 viewBox="0 0 359.1 201.2" style="enable-background:new 0 0 359.1 201.2;" xml:space="preserve">
<style type="text/css">
	.st0{fill:url(#SVGID_1_);}
</style>
<path d="M79.9,84.9c0,0.4-0.1,0.5-0.3,0.5H55.1c-0.4,0-0.5-0.2-0.5-0.6v-1.4c0-0.5,0.2-0.7,0.5-0.7h7.3c0.6,0,0.8-0.3,0.7-1
	c-0.3-1.1-1.5-4.8-3.7-11.1c-2.1-6.3-3.3-9.6-3.5-10.1c-0.3-0.7-0.7-1.1-1.1-1.1H29c-0.3,0.1-0.6,0.3-0.8,0.6
	c-0.5,1-1.3,3.2-2.6,6.7c-1.2,3.5-2,5.9-2.2,7.2c-0.6,2.8-0.9,4.5-0.9,5.1c0,2.3,0.3,3.5,0.9,3.5h8.1c0.4,0,0.6,0.2,0.6,0.7v1.5
	c0,0.4-0.2,0.5-0.5,0.5H10.1c-0.4,0-0.5-0.2-0.5-0.5v-1.5c0-0.4,0.1-0.5,0.4-0.5h4.6c0.8,0,1.8-1.7,3.2-5c1.3-3.3,5.3-13,11.9-28.9
	c4.2-10,9.3-22.2,15.4-36.5c0.4-1.1,0.8-1.7,1.2-1.9c1-0.3,2.3-0.7,3.8-1.3C50.3,9,50.6,9.2,51,9.7c0.3,0.5,0.2,1-0.4,1.6
	c-1.1,1.1-1.6,2.2-1.6,3.2c0,1.1,0.2,2.4,0.7,4c1.9,5.3,5.4,15.3,10.4,29.9s8.5,24,10.4,28.3c1.9,4,3.2,6,4,6h5
	c0.3,0,0.4,0.2,0.4,0.7C79.9,83.4,79.9,84.9,79.9,84.9z M53.6,54.6c-1.5-4.2-3-8.8-4.7-13.9c-1.7-5-3.4-10.3-5.2-15.7
	c-0.1-0.5-0.2-0.7-0.4-0.9c-0.1,0.1-0.3,0.4-0.5,0.9c-4.4,10.9-7.6,18.6-9.6,23.1c-1.9,4.5-2.9,6.9-2.9,7c0,0.2,0.2,0.3,0.5,0.3
	h22.5C53.6,55.4,53.7,55.2,53.6,54.6z M128.8,79.4c0,0.3-0.5,1.2-1.4,2.7c-0.2,0.6-0.7,1.5-1.5,2.8c-0.2,0.3-0.5,0.5-0.7,0.5H84.3
	c-0.3,0-0.5-0.1-0.5-0.4v-1.4c0-0.3,0.1-0.4,0.4-0.4h6.4c0.5,0,0.8-0.3,0.8-0.9c0-0.3,0-2-0.1-5.2s-0.1-10.3,0-21.3
	s0.2-16.8,0.2-17.3c0-6.1-0.6-9.2-1.7-9.2h-4.9c-0.4,0-0.6-0.2-0.6-0.5v-1.2c0-0.3,0.2-0.5,0.5-0.5H108c0.3,0,0.4,0.1,0.4,0.3v1.5
	c0,0.3-0.1,0.4-0.3,0.4h-8.6c-0.4,0-0.7,0.2-0.8,0.6c-0.1,0.4-0.2,7.4-0.4,21C98.1,63.7,98,71,98,72.7c0,6.6,0.8,9.9,2.3,9.9
	c9.3,0,14.6-0.1,15.9-0.2c4.5-0.4,8.1-1.4,10.8-3.1c0.7-0.4,1.1-0.6,1.2-0.6C128.7,79,128.8,79.2,128.8,79.4z M177.1,79.4
	c0,0.3-0.5,1.2-1.4,2.7c-0.2,0.6-0.7,1.5-1.5,2.8c-0.2,0.3-0.5,0.5-0.7,0.5h-40.9c-0.3,0-0.5-0.1-0.5-0.4v-1.4
	c0-0.3,0.1-0.4,0.4-0.4h6.4c0.5,0,0.8-0.3,0.8-0.9c0-0.3,0-2-0.1-5.2s-0.1-10.3,0-21.3s0.2-16.8,0.2-17.3c0-6.1-0.6-9.2-1.7-9.2
	h-4.9c-0.4,0-0.6-0.2-0.6-0.5v-1.2c0-0.3,0.2-0.5,0.5-0.5h23.2c0.3,0,0.4,0.1,0.4,0.3v1.5c0,0.3-0.1,0.4-0.3,0.4h-8.6
	c-0.4,0-0.7,0.2-0.8,0.6s-0.2,7.4-0.4,21c-0.2,12.8-0.3,20.1-0.3,21.8c0,6.6,0.8,9.9,2.3,9.9c9.3,0,14.6-0.1,15.9-0.2
	c4.5-0.4,8.1-1.4,10.8-3.1c0.7-0.4,1.1-0.6,1.2-0.6C177,79,177.1,79.2,177.1,79.4z M239.7,28.8c0,0.3-0.1,0.5-0.3,0.5H237
	c-2.2,0-3.4,0-3.7,0.1c-0.1,0.5-0.2,1.2-0.2,1.9c-0.1,1.8-0.2,4.7-0.3,8.6c0,5.5,0,12.9,0.2,22.1c0.3,16.5-6.5,24.7-20.4,24.7
	c-6,0-10.8-0.6-14.6-1.9c-3.7-1.3-6.4-3.6-8-6.8c-1.3-2.7-2.1-6.7-2.3-12.2c-0.1-3.5-0.2-12.3-0.2-26.5c0-6.7-0.6-10.1-1.7-10.1H180
	c-0.3,0-0.5-0.1-0.5-0.4v-1.3c0-0.3,0.2-0.5,0.5-0.5h21.1c0.3,0,0.5,0.1,0.5,0.3v1.3c0,0.4-0.1,0.6-0.3,0.6h-6
	c-0.3,0-0.5,0.2-0.6,0.7c-0.2,1.2-0.3,10.6-0.3,28.3c0,6.2,0.2,10.3,0.5,12.5c0.7,4.1,2.6,7.2,5.7,9.3c3.2,2.1,7.4,3.2,12.8,3.2
	c5.4,0,9.7-1.6,12.9-4.9c2.5-2.5,3.7-7.3,3.7-14.6c0-9.6-0.1-16.7-0.3-21.4c-0.3-8.8-1.3-13.2-2.8-13.2h-5.2c-0.2,0-0.4,0-0.4-0.1
	c-0.1-0.1-0.1-0.2-0.1-0.3v-1.4c0-0.3,0.2-0.4,0.5-0.4h17.5c0.3,0,0.4,0.1,0.4,0.4v1.5H239.7z M302.8,85c0,0.3-0.1,0.5-0.3,0.5h-14
	c-0.3,0-0.7-0.2-1.1-0.5c-1.1-0.9-3.1-3.4-6-7.2c-1.5-2.1-3.1-4.2-4.6-6.3c-1.7-2.6-4.1-6.6-7.1-12c-0.2-0.5-0.4-0.7-0.7-0.7
	c-1.3,0-3.7-0.2-7.1-0.5c-0.5-0.1-0.7,0-0.7,0.4c0,0.5,0,2.4,0,5.4c0,3.1,0,6.3,0,9.7c0,6.3,0.6,9.4,1.9,9.4h7.6
	c0.3,0,0.4,0.1,0.4,0.4V85c0,0.3-0.1,0.4-0.3,0.4H248c-0.3,0-0.4,0-0.5-0.1s-0.1-0.2-0.1-0.3v-1.3c0-0.3,0-0.4,0.1-0.5
	s0.2-0.1,0.3-0.1h5.6c0.5,0,0.7-0.4,0.7-1.3V58.9V41.1c-0.1-7.9-0.6-11.8-1.5-11.8h-5.5c-0.3,0-0.4-0.1-0.4-0.3v-1.6
	c0-0.2,0.1-0.3,0.3-0.3h12.8c0.4,0,2-0.1,4.9-0.2s4.5-0.2,4.8-0.2c1.9,0,3.7,0.1,5.5,0.4c4,0.6,7.1,2.1,9.5,4.4
	c2.8,2.7,4.2,6,4.2,10.1c0,4.6-1.4,8.5-4.1,11.4c-1.7,1.8-4.5,3.4-8.3,4.7c-0.2,0.1-0.3,0.3-0.3,0.5c1.3,3.3,4.2,7.5,8.7,12.7
	c2.4,2.7,4.1,4.6,5.2,5.8c1.9,2,3.6,3.5,4.9,4.5c1.8,1.3,4.1,2,6.9,2c0.5,0,0.7,0.1,0.7,0.3V85H302.8z M282,43.9
	c0-3.8-1.3-6.9-3.8-9.3c-3.5-3.3-8.6-5-15.3-5c-1,0-1.5,0.2-1.6,0.6c0,8.2-0.1,13.3-0.2,15.4v9.8c0,0.3,0.2,0.5,0.6,0.6
	c0.7,0.1,2.5,0.2,5.5,0.2c1.2,0,2.6-0.1,4.1-0.3s2.2-0.3,2.1-0.3C279.1,54,282,50.1,282,43.9z M351.5,79.3c-0.8,1.6-1.8,3.5-2.9,5.6
	c-0.2,0.3-0.5,0.5-0.9,0.5h-40.6c-0.3,0-0.4-0.2-0.4-0.5v-1.3c0-0.3,0.1-0.4,0.3-0.4h6.4c0.6,0,0.9-0.3,0.9-0.9
	c0-0.3,0-4.7-0.1-13.2c-0.1-8.6-0.1-13-0.1-13.2c0-0.3,0-3.2,0-8.9c0-5.6,0-8.6,0-9c0-5.8-0.6-8.7-1.7-8.7h-5.2
	c-0.3,0-0.4-0.1-0.4-0.4v-1.4c0-0.3,0.2-0.4,0.5-0.4h38.5c0.5,0,1.2,0,2.1-0.1s1.3-0.1,1.3-0.1c0.4,0,0.5,0.1,0.4,0.4
	c-0.4,1.6-0.9,3.4-1.5,5.5c-0.2,0.7-0.5,1-0.7,1l-0.6-0.6c-1.1-1-2.7-1.8-5-2.2c-3.2-0.6-10-0.9-20.4-1c-0.3,0-0.6,0.2-0.7,0.5
	s-0.2,7.4-0.2,21.3c0,0.6,0.2,0.9,0.7,0.9h21c0.4,0,0.6-0.2,0.7-0.6c0.1-0.4,0.2-1.3,0.3-2.8c0.2-1.4,0.3-2.2,0.3-2.3
	c0-0.5,0.2-0.8,0.5-0.8h0.6c0.3,0,0.5,0.2,0.5,0.7c0,0.1-0.1,1.3-0.2,3.6s-0.2,3.6-0.2,4.1c0,0.4,0,1.9,0.1,4.5s0.1,4,0.1,4.1
	c0,0.6-0.2,0.9-0.5,0.9h-0.7c-0.3,0-0.5-0.2-0.5-0.6c-0.1-1.8-0.3-4-0.4-6.5c-0.1-0.6-0.4-0.9-0.8-0.9c-0.3,0-3.8-0.1-10.6-0.2
	c-6.8-0.1-10.3-0.2-10.4-0.2c-0.4,0-0.6,0.3-0.6,0.8v16.2c0,6.9,0.7,10.3,2.2,10.3c13.4,0,22.3-1,26.7-3.1c1.1-0.6,1.7-1,1.9-1.1
	C351.5,78.8,351.6,79,351.5,79.3z M57.4,173.6c0,5.6-2,10.1-6,13.6c-4.5,3.9-10.6,5.9-18.4,5.9c-0.9,0-3.6-0.1-8.2-0.3
	c-4.6-0.2-8.1-0.3-10.3-0.3H6.3c-0.3,0-0.4-0.1-0.4-0.4v-1.9c0-0.4,0.1-0.5,0.4-0.5h7.4c0.9,0,1.3-0.6,1.3-1.9c0-0.4-0.1-5.8-0.2-16
	c-0.1-10.3-0.2-15.9-0.2-16.9v-21.5c-0.3-6.6-1-9.9-2.1-9.9H4.4c-0.3,0-0.4-0.2-0.4-0.6v-1.7c0-0.3,0.2-0.5,0.5-0.5h15.9
	c0.5,0,2.4-0.1,5.7-0.2s5.3-0.2,5.8-0.2h5.2c1.7,0.1,4,0.5,6.9,1.2c2.7,1.1,5,2.7,6.9,4.9c2.2,2.6,3.3,5.8,3.3,9.6
	c0,2.8-0.5,5.3-1.5,7.3c-0.4,0.9-1.4,2.2-2.9,4.1c-2,2.6-4.7,4.8-8.1,6.7c-0.7,0.4-0.7,0.7-0.1,0.9c3.9,1.2,7.5,3.2,10.6,6.1
	C55.7,164.4,57.4,168.5,57.4,173.6z M46.1,140.5c0-4.6-1.6-8.6-4.8-11.9c-3.2-3.3-7.5-5-12.9-5c-2.4,0-4,0.1-4.7,0.3
	c-0.5,0.1-0.8,0.5-0.9,1.1c-0.1,0.7-0.1,9.9-0.1,27.6c0,0.7,0.2,1,0.6,1c-0.1,0,0.6,0,2.2-0.1c1.5,0,3.1-0.1,4.6-0.1
	c0.7,0,2,0.1,4.1,0.3c2.4,0.2,3.7,0.4,3.8,0.4c0.3,0,0.7-0.1,1.3-0.4c2.1-1.1,3.7-2.8,4.9-5.1C45.4,146,46.1,143.3,46.1,140.5z
	 M48.4,175c0-4.9-1.6-9-4.9-12.3c-4.6-4.6-10.7-6.9-18.4-6.9c-0.9,0-1.6,0.1-2,0.3c-0.2,0.1-0.4,0.4-0.4,1.1v23.4
	c0.2,5.5,0.8,8.4,1.8,8.8c1.9,0.8,4.8,1.2,8.5,1.2c4.6,0,8.2-1.2,10.8-3.5C46.8,184.4,48.4,180.3,48.4,175z M121.7,192
	c0,0.3-0.1,0.5-0.3,0.5h-14c-0.3,0-0.7-0.2-1.1-0.5c-1.1-0.9-3.1-3.4-6-7.2c-1.5-2.1-3.1-4.2-4.6-6.3c-1.7-2.6-4.1-6.6-7.1-12
	c-0.2-0.5-0.4-0.7-0.7-0.7c-1.3,0-3.7-0.2-7.1-0.5c-0.5-0.1-0.7,0-0.7,0.4c0,0.5,0,2.4,0,5.4c0,3.1,0,6.3,0,9.7
	c0,6.3,0.6,9.4,1.9,9.4h7.6c0.3,0,0.4,0.1,0.4,0.4v1.4c0,0.3-0.1,0.4-0.3,0.4H66.9c-0.3,0-0.4,0-0.5-0.1c-0.1-0.1-0.1-0.2-0.1-0.3
	v-1.3c0-0.3,0-0.4,0.1-0.5c0.1-0.1,0.2-0.1,0.3-0.1h5.6c0.5,0,0.7-0.4,0.7-1.3v-22.9v-17.8c-0.1-7.9-0.6-11.8-1.5-11.8H66
	c-0.3,0-0.4-0.1-0.4-0.3v-1.6c0-0.2,0.1-0.3,0.3-0.3h12.8c0.4,0,2-0.1,4.9-0.2s4.5-0.2,4.8-0.2c1.9,0,3.7,0.1,5.5,0.4
	c4,0.6,7.1,2.1,9.5,4.4c2.8,2.7,4.2,6,4.2,10.1c0,4.6-1.4,8.5-4.1,11.4c-1.7,1.8-4.5,3.4-8.3,4.7c-0.2,0.1-0.3,0.3-0.3,0.5
	c1.3,3.3,4.2,7.5,8.7,12.7c2.4,2.7,4.1,4.6,5.2,5.8c1.9,2,3.6,3.5,4.9,4.5c1.8,1.3,4.1,2,6.9,2c0.5,0,0.7,0.1,0.7,0.3v1.5H121.7z
	 M100.8,150.9c0-3.8-1.3-6.9-3.8-9.3c-3.5-3.3-8.6-5-15.3-5c-1,0-1.5,0.2-1.6,0.6c0,8.2-0.1,13.3-0.2,15.4v9.8
	c0,0.3,0.2,0.5,0.6,0.6c0.7,0.1,2.5,0.2,5.5,0.2c1.2,0,2.6-0.1,4.1-0.3s2.2-0.3,2.1-0.3C98,161,100.8,157.1,100.8,150.9z
	 M147.8,192.1c0,0.2-0.1,0.3-0.3,0.3h-20.8c-0.3,0-0.4,0-0.5-0.1c-0.1-0.1-0.1-0.2-0.1-0.3v-1.3c0-0.3,0-0.4,0.1-0.5
	c0.1-0.1,0.2-0.1,0.3-0.1h5.8c0.4,0,0.6-0.4,0.6-1.2l-0.1-44.4c0-5.4-0.5-8.1-1.5-8.1h-5.5c-0.4,0-0.6-0.1-0.6-0.4v-1.5
	c0-0.2,0.1-0.3,0.4-0.3h20.8c0.3,0,0.4,0.1,0.4,0.3v1.6c0,0.2-0.2,0.3-0.5,0.3h-6.1c-0.5,0-0.8,0.3-0.8,0.9
	c-0.1,26-0.1,39.4-0.1,40.3c0,4.2,0,6.7,0,7.3c0.2,3.6,0.8,5.3,1.7,5.3h6.1c0.2,0,0.3,0.1,0.3,0.3v1.6H147.8z M207.5,162.8
	c0,11.9-4,20.5-11.9,25.8c-2.9,1.9-6.1,3.2-9.8,3.8c-2.2,0.3-5.5,0.5-9.8,0.5c-2,0-4.7-0.1-7.9-0.2c-3.3-0.1-6-0.2-8.1-0.2h-4.8
	c-0.3,0-0.4-0.1-0.4-0.4c0-0.1,0-0.3,0-0.6c0-0.3,0-0.6,0-0.8c0-0.3,0.2-0.4,0.5-0.4h6c0.5,0,0.7-0.4,0.7-1.3c0-0.4,0-4.2-0.1-11.3
	s-0.1-11-0.1-11.6v-10.6c0.1-6.2,0.1-9.7,0-10.3c-0.2-5.8-0.7-8.7-1.6-8.7h-6.1c-0.3,0-0.5-0.1-0.5-0.4v-1.4c0-0.3,0.2-0.4,0.6-0.4
	h26.6c4.4,0,7.9,0.6,10.5,1.7c1.7,0.7,3,1.4,3.8,1.8c1.8,1.1,3.6,2.4,5.3,4.1C205.1,146.6,207.5,153.6,207.5,162.8z M201.5,168.6
	c0-8.6-2.2-15.7-6.7-21.3c-3.2-3.9-6.6-6.6-10.4-8.2c-3.9-1.6-7.8-2.4-11.6-2.4c-1.6,0-2.7,0.1-3.4,0.2c-0.6,0.1-0.9,0.7-0.9,1.7
	c0,0.4,0,4,0,10.6c0,6.6,0,10.4,0,11.3v17.4c0,7.4,0.5,11.3,1.4,11.4c2.3,0.4,6.1,0.6,11.6,0.6c6,0,10.6-1.6,13.9-4.7
	C199.4,181.5,201.5,175.9,201.5,168.6z M268.1,192.1c0,0.3-0.1,0.4-0.3,0.4H248c-0.3,0-0.4-0.2-0.4-0.5v-1.2c0-0.4,0.1-0.6,0.4-0.6
	h5.9c0.5,0,0.6-0.3,0.6-0.8c-0.3-0.9-1.2-3.9-3-9c-1.7-5.1-2.7-7.8-2.8-8.1c-0.2-0.6-0.5-0.9-0.9-0.9H227c-0.3,0.1-0.5,0.2-0.6,0.5
	c-0.4,0.8-1.1,2.6-2.1,5.4s-1.6,4.8-1.8,5.8c-0.5,2.3-0.7,3.7-0.7,4.1c0,1.9,0.2,2.8,0.7,2.8h6.5c0.3,0,0.5,0.2,0.5,0.6v1.2
	c0,0.3-0.1,0.4-0.4,0.4h-17.4c-0.3,0-0.4-0.1-0.4-0.4v-1.4c0-0.3,0.1-0.4,0.3-0.4h3.7c0.6,0,1.5-1.3,2.6-4s4.3-10.5,9.6-23.3
	c3.4-8.1,7.5-17.9,12.4-29.5c0.3-0.9,0.6-1.4,0.9-1.5c0.8-0.2,1.8-0.6,3.1-1.1c0.2-0.1,0.4,0.1,0.7,0.5c0.3,0.4,0.1,0.8-0.3,1.3
	c-0.9,0.9-1.3,1.7-1.3,2.6c0,0.9,0.2,1.9,0.6,3.2c1.5,4.3,4.3,12.3,8.4,24.1c4,11.8,6.8,19.4,8.4,22.9c1.5,3.2,2.6,4.9,3.3,4.9h4
	c0.2,0,0.3,0.2,0.3,0.6L268.1,192.1L268.1,192.1z M246.8,167.6c-1.2-3.4-2.4-7.1-3.8-11.2c-1.3-4.1-2.7-8.3-4.2-12.7
	c-0.1-0.4-0.2-0.6-0.3-0.7c-0.1,0.1-0.3,0.3-0.4,0.7c-3.6,8.8-6.2,15-7.7,18.6c-1.6,3.7-2.3,5.6-2.3,5.7c0,0.2,0.1,0.3,0.4,0.3h18.2
	C246.9,168.2,246.9,168,246.8,167.6z M316.9,186.4c0,0.3-0.5,1.2-1.4,2.7c-0.2,0.6-0.7,1.5-1.5,2.8c-0.2,0.3-0.5,0.5-0.7,0.5h-41
	c-0.3,0-0.5-0.1-0.5-0.4v-1.4c0-0.3,0.1-0.4,0.4-0.4h6.4c0.5,0,0.8-0.3,0.8-0.9c0-0.3,0-2-0.1-5.2s-0.1-10.3,0-21.3
	s0.2-16.8,0.2-17.3c0-6.1-0.6-9.2-1.7-9.2h-4.9c-0.4,0-0.6-0.2-0.6-0.5v-1.2c0-0.3,0.2-0.5,0.5-0.5H296c0.3,0,0.4,0.1,0.4,0.3v1.5
	c0,0.3-0.1,0.4-0.3,0.4h-8.6c-0.4,0-0.7,0.2-0.8,0.6c-0.1,0.4-0.2,7.4-0.4,21c-0.2,12.8-0.3,20.1-0.3,21.8c0,6.6,0.8,9.9,2.3,9.9
	c9.3,0,14.6-0.1,15.9-0.2c4.5-0.4,8.1-1.4,10.8-3.1c0.7-0.4,1.1-0.6,1.2-0.6C316.7,186,316.9,186.2,316.9,186.4z M356.1,176.4
	c0,4.8-1.5,8.7-4.6,11.7c-3.2,3.2-7.9,4.8-14.1,4.8c-7.2,0-12.3-1.3-15.3-4c-0.3-0.3-0.5-0.9-0.5-1.8c0-0.2,0-1.9,0-5
	c0-3.2,0-4.8,0-5.1c0-0.4,0.2-0.6,0.6-0.6h1.8c0.3,0,0.5,0.2,0.6,0.6c0.1,0.4,0.1,1.3,0.3,2.7c0.2,3.1,1.3,5.6,3.4,7.6
	c1,0.9,2.4,1.7,4.3,2.3c1.9,0.6,3.5,0.9,5,0.9c5.7,0,9.6-1.9,11.5-5.7c0.9-1.8,1.3-4,1.3-6.6c0-2.3-0.8-4.4-2.4-6.1
	c-1.8-1.9-5-3.7-9.6-5.3c-5.2-1.8-8.8-3.7-11-5.5c-2.9-2.4-4.3-6.2-4.3-11.4c0-4.9,2-9,5.9-12.3c3-2.6,7-3.9,11.9-3.9
	c3.2,0,6.2,0.5,9,1.6c1.8,0.7,3.1,1.4,3.9,2.1c0.4,0.3,0.6,0.7,0.7,1.2c0.3,2.2,0.5,5.1,0.5,8.8c0,0.6-0.1,0.9-0.3,0.9h-2.1
	c-0.2,0-0.3-0.2-0.4-0.5c-0.2-0.8-0.4-1.9-0.6-3.3c-0.4-2-1.4-3.4-3-4.3c-2.9-1.7-6.2-2.5-10-2.5c-3.4,0-5.9,0.7-7.6,2.2
	c-1.7,1.5-2.6,4.2-2.6,8c0,2.3,0.8,4.4,2.4,6.1c0.8,0.9,2.3,1.8,4.5,2.8c1.9,0.7,3.7,1.5,5.6,2.3c3.7,1.6,5.9,2.6,6.5,3
	c2.1,1.2,4,2.6,5.5,4.3C355,168.9,356.1,172.2,356.1,176.4z"/>
<linearGradient id="SVGID_1_" gradientUnits="userSpaceOnUse" x1="2.5292" y1="10.1383" x2="354.6293" y2="10.1383" gradientTransform="matrix(1 0 0 -1 0 110)">
	<stop  offset="0" style="stop-color:#2484C6"/>
	<stop  offset="1" style="stop-color:#FFFFC6"/>
</linearGradient>
<path class="st0" d="M78.4,83.7c0,0.4-0.1,0.5-0.3,0.5H53.6c-0.4,0-0.5-0.2-0.5-0.6v-1.4c0-0.5,0.2-0.7,0.5-0.7h7.3
	c0.6,0,0.8-0.3,0.7-1c-0.3-1.1-1.5-4.8-3.7-11.1c-2.1-6.3-3.3-9.6-3.5-10.1c-0.3-0.7-0.7-1.1-1.1-1.1H27.5c-0.3,0.1-0.6,0.3-0.8,0.6
	c-0.5,1-1.3,3.2-2.6,6.7c-1.2,3.5-2,5.9-2.2,7.2c-0.6,2.8-0.9,4.5-0.9,5.1c0,2.3,0.3,3.5,0.9,3.5H30c0.4,0,0.6,0.2,0.6,0.7v1.5
	c0,0.4-0.2,0.5-0.5,0.5H8.6c-0.4,0-0.5-0.2-0.5-0.5V82c0-0.4,0.1-0.5,0.4-0.5h4.6c0.8,0,1.8-1.7,3.2-5c1.3-3.3,5.3-13,11.9-28.9
	c4.2-10,9.3-22.2,15.4-36.5c0.4-1.1,0.8-1.7,1.2-1.9c1-0.3,2.3-0.7,3.8-1.3c0.2-0.1,0.5,0.1,0.9,0.6c0.3,0.5,0.2,1-0.4,1.6
	c-1.1,1.1-1.6,2.2-1.6,3.2c0,1.1,0.2,2.4,0.7,4c1.9,5.3,5.4,15.3,10.4,29.9s8.5,24,10.4,28.3c1.9,4,3.2,6,4,6h5
	c0.3,0,0.4,0.2,0.4,0.7C78.4,82.2,78.4,83.7,78.4,83.7z M52.1,53.4c-1.5-4.2-3-8.8-4.7-13.9c-1.7-5-3.4-10.3-5.2-15.7
	c-0.1-0.5-0.2-0.7-0.4-0.9c-0.1,0.1-0.3,0.4-0.5,0.9c-4.4,10.9-7.6,18.6-9.6,23.1c-1.9,4.5-2.9,6.9-2.9,7c0,0.2,0.2,0.3,0.5,0.3
	h22.5C52.1,54.2,52.2,54,52.1,53.4z M127.3,78.2c0,0.3-0.5,1.2-1.4,2.7c-0.2,0.6-0.7,1.5-1.5,2.8c-0.2,0.3-0.5,0.5-0.7,0.5H82.8
	c-0.3,0-0.5-0.1-0.5-0.4v-1.4c0-0.3,0.1-0.4,0.4-0.4h6.4c0.5,0,0.8-0.3,0.8-0.9c0-0.3,0-2-0.1-5.2s-0.1-10.3,0-21.3S90,37.8,90,37.3
	c0-6.1-0.6-9.2-1.7-9.2h-4.9c-0.4,0-0.6-0.2-0.6-0.5v-1.2c0-0.3,0.2-0.5,0.5-0.5h23.2c0.3,0,0.4,0.1,0.4,0.3v1.5
	c0,0.3-0.1,0.4-0.3,0.4H98c-0.4,0-0.7,0.2-0.8,0.6c-0.1,0.4-0.2,7.4-0.4,21c-0.2,12.8-0.3,20.1-0.3,21.8c0,6.6,0.8,9.9,2.3,9.9
	c9.3,0,14.6-0.1,15.9-0.2c4.5-0.4,8.1-1.4,10.8-3.1c0.7-0.4,1.1-0.6,1.2-0.6C127.2,77.8,127.3,78,127.3,78.2z M175.6,78.2
	c0,0.3-0.5,1.2-1.4,2.7c-0.2,0.6-0.7,1.5-1.5,2.8c-0.2,0.3-0.5,0.5-0.7,0.5h-40.9c-0.3,0-0.5-0.1-0.5-0.4v-1.4
	c0-0.3,0.1-0.4,0.4-0.4h6.4c0.5,0,0.8-0.3,0.8-0.9c0-0.3,0-2-0.1-5.2s-0.1-10.3,0-21.3s0.2-16.8,0.2-17.3c0-6.1-0.6-9.2-1.7-9.2
	h-4.9c-0.4,0-0.6-0.2-0.6-0.5v-1.2c0-0.3,0.2-0.5,0.5-0.5h23.2c0.3,0,0.4,0.1,0.4,0.3v1.5c0,0.3-0.1,0.4-0.3,0.4h-8.6
	c-0.4,0-0.7,0.2-0.8,0.6s-0.2,7.4-0.4,21c-0.2,12.8-0.3,20.1-0.3,21.8c0,6.6,0.8,9.9,2.3,9.9c9.3,0,14.6-0.1,15.9-0.2
	c4.5-0.4,8.1-1.4,10.8-3.1c0.7-0.4,1.1-0.6,1.2-0.6C175.5,77.8,175.6,78,175.6,78.2z M238.2,27.6c0,0.3-0.1,0.5-0.3,0.5h-2.4
	c-2.2,0-3.4,0-3.7,0.1c-0.1,0.5-0.2,1.2-0.2,1.9c-0.1,1.8-0.2,4.7-0.3,8.6c0,5.5,0,12.9,0.2,22.1c0.3,16.5-6.5,24.7-20.4,24.7
	c-6,0-10.8-0.6-14.6-1.9c-3.7-1.3-6.4-3.6-8-6.8c-1.3-2.7-2.1-6.7-2.3-12.2c-0.1-3.5-0.2-12.3-0.2-26.5c0-6.7-0.6-10.1-1.7-10.1
	h-5.8c-0.3,0-0.5-0.1-0.5-0.4v-1.3c0-0.3,0.2-0.5,0.5-0.5h21.1c0.3,0,0.5,0.1,0.5,0.3v1.3c0,0.4-0.1,0.6-0.3,0.6h-6
	c-0.3,0-0.5,0.2-0.6,0.7c-0.2,1.2-0.3,10.6-0.3,28.3c0,6.2,0.2,10.3,0.5,12.5c0.7,4.1,2.6,7.2,5.7,9.3c3.2,2.1,7.4,3.2,12.8,3.2
	c5.4,0,9.7-1.6,12.9-4.9c2.5-2.5,3.7-7.3,3.7-14.6c0-9.6-0.1-16.7-0.3-21.4c-0.3-8.8-1.3-13.2-2.8-13.2h-5.2c-0.2,0-0.4,0-0.4-0.1
	c-0.1-0.1-0.1-0.2-0.1-0.3v-1.4c0-0.3,0.2-0.4,0.5-0.4h17.5c0.3,0,0.4,0.1,0.4,0.4v1.5H238.2z M301.3,83.8c0,0.3-0.1,0.5-0.3,0.5
	h-14c-0.3,0-0.7-0.2-1.1-0.5c-1.1-0.9-3.1-3.4-6-7.2c-1.5-2.1-3.1-4.2-4.6-6.3c-1.7-2.6-4.1-6.6-7.1-12c-0.2-0.5-0.4-0.7-0.7-0.7
	c-1.3,0-3.7-0.2-7.1-0.5c-0.5-0.1-0.7,0-0.7,0.4c0,0.5,0,2.4,0,5.4c0,3.1,0,6.3,0,9.7c0,6.3,0.6,9.4,1.9,9.4h7.6
	c0.3,0,0.4,0.1,0.4,0.4v1.4c0,0.3-0.1,0.4-0.3,0.4h-22.8c-0.3,0-0.4,0-0.5-0.1s-0.1-0.2-0.1-0.3v-1.3c0-0.3,0-0.4,0.1-0.5
	s0.2-0.1,0.3-0.1h5.6c0.5,0,0.7-0.4,0.7-1.3V57.7V39.9c-0.1-7.9-0.6-11.8-1.5-11.8h-5.5c-0.3,0-0.4-0.1-0.4-0.3v-1.6
	c0-0.2,0.1-0.3,0.3-0.3h12.8c0.4,0,2-0.1,4.9-0.2s4.5-0.2,4.8-0.2c1.9,0,3.7,0.1,5.5,0.4c4,0.6,7.1,2.1,9.5,4.4
	c2.8,2.7,4.2,6,4.2,10.1c0,4.6-1.4,8.5-4.1,11.4c-1.7,1.8-4.5,3.4-8.3,4.7c-0.2,0.1-0.3,0.3-0.3,0.5c1.3,3.3,4.2,7.5,8.7,12.7
	c2.4,2.7,4.1,4.6,5.2,5.8c1.9,2,3.6,3.5,4.9,4.5c1.8,1.3,4.1,2,6.9,2c0.5,0,0.7,0.1,0.7,0.3v1.5H301.3z M280.5,42.7
	c0-3.8-1.3-6.9-3.8-9.3c-3.5-3.3-8.6-5-15.3-5c-1,0-1.5,0.2-1.6,0.6c0,8.2-0.1,13.3-0.2,15.4v9.8c0,0.3,0.2,0.5,0.6,0.6
	c0.7,0.1,2.5,0.2,5.5,0.2c1.2,0,2.6-0.1,4.1-0.3s2.2-0.3,2.1-0.3C277.6,52.8,280.5,48.9,280.5,42.7z M350,78.1
	c-0.8,1.6-1.8,3.5-2.9,5.6c-0.2,0.3-0.5,0.5-0.9,0.5h-40.6c-0.3,0-0.4-0.2-0.4-0.5v-1.3c0-0.3,0.1-0.4,0.3-0.4h6.4
	c0.6,0,0.9-0.3,0.9-0.9c0-0.3,0-4.7-0.1-13.2c-0.1-8.6-0.1-13-0.1-13.2c0-0.3,0-3.2,0-8.9c0-5.6,0-8.6,0-9c0-5.8-0.6-8.7-1.7-8.7
	h-5.2c-0.3,0-0.4-0.1-0.4-0.4v-1.4c0-0.3,0.2-0.4,0.5-0.4h38.5c0.5,0,1.2,0,2.1-0.1s1.3-0.1,1.3-0.1c0.4,0,0.5,0.1,0.4,0.4
	c-0.4,1.6-0.9,3.4-1.5,5.5c-0.2,0.7-0.5,1-0.7,1l-0.6-0.6c-1.1-1-2.7-1.8-5-2.2c-3.2-0.6-10-0.9-20.4-1c-0.3,0-0.6,0.2-0.7,0.5
	s-0.2,7.4-0.2,21.3c0,0.6,0.2,0.9,0.7,0.9h21c0.4,0,0.6-0.2,0.7-0.6c0.1-0.4,0.2-1.3,0.3-2.8c0.2-1.4,0.3-2.2,0.3-2.3
	c0-0.5,0.2-0.8,0.5-0.8h0.6c0.3,0,0.5,0.2,0.5,0.7c0,0.1-0.1,1.3-0.2,3.6s-0.2,3.6-0.2,4.1c0,0.4,0,1.9,0.1,4.5s0.1,4,0.1,4.1
	c0,0.6-0.2,0.9-0.5,0.9h-0.7c-0.3,0-0.5-0.2-0.5-0.6c-0.1-1.8-0.3-4-0.4-6.5c-0.1-0.6-0.4-0.9-0.8-0.9c-0.3,0-3.8-0.1-10.6-0.2
	c-6.8-0.1-10.3-0.2-10.4-0.2c-0.4,0-0.6,0.3-0.6,0.8v16.2c0,6.9,0.7,10.3,2.2,10.3c13.4,0,22.3-1,26.7-3.1c1.1-0.6,1.7-1,1.9-1.1
	C350,77.6,350.1,77.8,350,78.1z M55.9,172.3c0,5.6-2,10.1-6,13.6c-4.5,3.9-10.6,5.9-18.4,5.9c-0.9,0-3.6-0.1-8.2-0.3
	c-4.6-0.2-8.1-0.3-10.3-0.3H4.8c-0.3,0-0.4-0.1-0.4-0.4v-1.9c0-0.4,0.1-0.5,0.4-0.5h7.4c0.9,0,1.3-0.6,1.3-1.9c0-0.4-0.1-5.8-0.2-16
	c-0.1-10.3-0.2-15.9-0.2-16.9v-21.5c-0.3-6.6-1-9.9-2.1-9.9H2.9c-0.3,0-0.4-0.2-0.4-0.6v-1.7c0-0.3,0.2-0.5,0.5-0.5h15.9
	c0.5,0,2.4-0.1,5.7-0.2s5.3-0.2,5.8-0.2h5.2c1.7,0.1,4,0.5,6.9,1.2c2.7,1.1,5,2.7,6.9,4.9c2.2,2.6,3.3,5.8,3.3,9.6
	c0,2.8-0.5,5.3-1.5,7.3c-0.4,0.9-1.4,2.2-2.9,4.1c-2,2.6-4.7,4.8-8.1,6.7c-0.7,0.4-0.7,0.7-0.1,0.9c3.9,1.2,7.5,3.2,10.6,6.1
	C54.2,163.1,55.9,167.2,55.9,172.3z M44.6,139.2c0-4.6-1.6-8.6-4.8-11.9c-3.2-3.3-7.5-5-12.9-5c-2.4,0-4,0.1-4.7,0.3
	c-0.5,0.1-0.8,0.5-0.9,1.1c-0.1,0.7-0.1,9.9-0.1,27.6c0,0.7,0.2,1,0.6,1c-0.1,0,0.6,0,2.2-0.1c1.5,0,3.1-0.1,4.6-0.1
	c0.7,0,2,0.1,4.1,0.3c2.4,0.2,3.7,0.4,3.8,0.4c0.3,0,0.7-0.1,1.3-0.4c2.1-1.1,3.7-2.8,4.9-5.1C43.9,144.7,44.6,142,44.6,139.2z
	 M46.9,173.7c0-4.9-1.6-9-4.9-12.3c-4.6-4.6-10.7-6.9-18.4-6.9c-0.9,0-1.6,0.1-2,0.3c-0.2,0.1-0.4,0.4-0.4,1.1v23.4
	c0.2,5.5,0.8,8.4,1.8,8.8c1.9,0.8,4.8,1.2,8.5,1.2c4.6,0,8.2-1.2,10.8-3.5C45.3,183.1,46.9,179,46.9,173.7z M120.2,190.7
	c0,0.3-0.1,0.5-0.3,0.5h-14c-0.3,0-0.7-0.2-1.1-0.5c-1.1-0.9-3.1-3.4-6-7.2c-1.5-2.1-3.1-4.2-4.6-6.3c-1.7-2.6-4.1-6.6-7.1-12
	c-0.2-0.5-0.4-0.7-0.7-0.7c-1.3,0-3.7-0.2-7.1-0.5c-0.5-0.1-0.7,0-0.7,0.4c0,0.5,0,2.4,0,5.4c0,3.1,0,6.3,0,9.7
	c0,6.3,0.6,9.4,1.9,9.4h7.6c0.3,0,0.4,0.1,0.4,0.4v1.4c0,0.3-0.1,0.4-0.3,0.4H65.4c-0.3,0-0.4,0-0.5-0.1c-0.1-0.1-0.1-0.2-0.1-0.3
	v-1.3c0-0.3,0-0.4,0.1-0.5c0.1-0.1,0.2-0.1,0.3-0.1h5.6c0.5,0,0.7-0.4,0.7-1.3v-22.9v-17.8c-0.1-7.9-0.6-11.8-1.5-11.8h-5.5
	c-0.3,0-0.4-0.1-0.4-0.3v-1.6c0-0.2,0.1-0.3,0.3-0.3h12.8c0.4,0,2-0.1,4.9-0.2c2.9-0.1,4.5-0.2,4.8-0.2c1.9,0,3.7,0.1,5.5,0.4
	c4,0.6,7.1,2.1,9.5,4.4c2.8,2.7,4.2,6,4.2,10.1c0,4.6-1.4,8.5-4.1,11.4c-1.7,1.8-4.5,3.4-8.3,4.7c-0.2,0.1-0.3,0.3-0.3,0.5
	c1.3,3.3,4.2,7.5,8.7,12.7c2.4,2.7,4.1,4.6,5.2,5.8c1.9,2,3.6,3.5,4.9,4.5c1.8,1.3,4.1,2,6.9,2c0.5,0,0.7,0.1,0.7,0.3v1.5H120.2z
	 M99.3,149.6c0-3.8-1.3-6.9-3.8-9.3c-3.5-3.3-8.6-5-15.3-5c-1,0-1.5,0.2-1.6,0.6c0,8.2-0.1,13.3-0.2,15.4v9.8c0,0.3,0.2,0.5,0.6,0.6
	c0.7,0.1,2.5,0.2,5.5,0.2c1.2,0,2.6-0.1,4.1-0.3c1.5-0.2,2.2-0.3,2.1-0.3C96.5,159.7,99.3,155.8,99.3,149.6z M146.3,190.8
	c0,0.2-0.1,0.3-0.3,0.3h-20.8c-0.3,0-0.4,0-0.5-0.1c-0.1-0.1-0.1-0.2-0.1-0.3v-1.3c0-0.3,0-0.4,0.1-0.5c0.1-0.1,0.2-0.1,0.3-0.1h5.8
	c0.4,0,0.6-0.4,0.6-1.2l-0.1-44.4c0-5.4-0.5-8.1-1.5-8.1h-5.5c-0.4,0-0.6-0.1-0.6-0.4v-1.5c0-0.2,0.1-0.3,0.4-0.3h20.8
	c0.3,0,0.4,0.1,0.4,0.3v1.6c0,0.2-0.2,0.3-0.5,0.3h-6.1c-0.5,0-0.8,0.3-0.8,0.9c-0.1,26-0.1,39.4-0.1,40.3c0,4.2,0,6.7,0,7.3
	c0.2,3.6,0.8,5.3,1.7,5.3h6.1c0.2,0,0.3,0.1,0.3,0.3v1.6H146.3z M206,161.5c0,11.9-4,20.5-11.9,25.8c-2.9,1.9-6.1,3.2-9.8,3.8
	c-2.2,0.3-5.5,0.5-9.8,0.5c-2,0-4.7-0.1-7.9-0.2c-3.3-0.1-6-0.2-8.1-0.2h-4.8c-0.3,0-0.4-0.1-0.4-0.4c0-0.1,0-0.3,0-0.6s0-0.6,0-0.8
	c0-0.3,0.2-0.4,0.5-0.4h6c0.5,0,0.7-0.4,0.7-1.3c0-0.4,0-4.2-0.1-11.3s-0.1-11-0.1-11.6v-10.6c0.1-6.2,0.1-9.7,0-10.3
	c-0.2-5.8-0.7-8.7-1.6-8.7h-6.1c-0.3,0-0.5-0.1-0.5-0.4v-1.4c0-0.3,0.2-0.4,0.6-0.4h26.6c4.4,0,7.9,0.6,10.5,1.7
	c1.7,0.7,3,1.4,3.8,1.8c1.8,1.1,3.6,2.4,5.3,4.1C203.6,145.3,206,152.3,206,161.5z M200,167.3c0-8.6-2.2-15.7-6.7-21.3
	c-3.2-3.9-6.6-6.6-10.4-8.2c-3.9-1.6-7.8-2.4-11.6-2.4c-1.6,0-2.7,0.1-3.4,0.2c-0.6,0.1-0.9,0.7-0.9,1.7c0,0.4,0,4,0,10.6
	c0,6.6,0,10.4,0,11.3v17.4c0,7.4,0.5,11.3,1.4,11.4c2.3,0.4,6.1,0.6,11.6,0.6c6,0,10.6-1.6,13.9-4.7
	C197.9,180.2,200,174.6,200,167.3z M266.6,190.8c0,0.3-0.1,0.4-0.3,0.4h-19.8c-0.3,0-0.4-0.2-0.4-0.5v-1.2c0-0.4,0.1-0.6,0.4-0.6
	h5.9c0.5,0,0.6-0.3,0.6-0.8c-0.3-0.9-1.2-3.9-3-9c-1.7-5.1-2.7-7.8-2.8-8.1c-0.2-0.6-0.5-0.9-0.9-0.9h-20.8
	c-0.3,0.1-0.5,0.2-0.6,0.5c-0.4,0.8-1.1,2.6-2.1,5.4s-1.6,4.8-1.8,5.8c-0.5,2.3-0.7,3.7-0.7,4.1c0,1.9,0.2,2.8,0.7,2.8h6.5
	c0.3,0,0.5,0.2,0.5,0.6v1.2c0,0.3-0.1,0.4-0.4,0.4h-17.4c-0.3,0-0.4-0.1-0.4-0.4v-1.4c0-0.3,0.1-0.4,0.3-0.4h3.7
	c0.6,0,1.5-1.3,2.6-4s4.3-10.5,9.6-23.3c3.4-8.1,7.5-17.9,12.4-29.5c0.3-0.9,0.6-1.4,0.9-1.5c0.8-0.2,1.8-0.6,3.1-1.1
	c0.2-0.1,0.4,0.1,0.7,0.5c0.3,0.4,0.1,0.8-0.3,1.3c-0.9,0.9-1.3,1.7-1.3,2.6s0.2,1.9,0.6,3.2c1.5,4.3,4.3,12.3,8.4,24.1
	c4,11.8,6.8,19.4,8.4,22.9c1.5,3.2,2.6,4.9,3.3,4.9h4c0.2,0,0.3,0.2,0.3,0.6L266.6,190.8L266.6,190.8z M245.3,166.3
	c-1.2-3.4-2.4-7.1-3.8-11.2c-1.3-4.1-2.7-8.3-4.2-12.7c-0.1-0.4-0.2-0.6-0.3-0.7c-0.1,0.1-0.3,0.3-0.4,0.7c-3.6,8.8-6.2,15-7.7,18.6
	c-1.6,3.7-2.3,5.6-2.3,5.7c0,0.2,0.1,0.3,0.4,0.3h18.2C245.4,166.9,245.4,166.7,245.3,166.3z M315.4,185.1c0,0.3-0.5,1.2-1.4,2.7
	c-0.2,0.6-0.7,1.5-1.5,2.8c-0.2,0.3-0.5,0.5-0.7,0.5h-41c-0.3,0-0.5-0.1-0.5-0.4v-1.4c0-0.3,0.1-0.4,0.4-0.4h6.4
	c0.5,0,0.8-0.3,0.8-0.9c0-0.3,0-2-0.1-5.2s-0.1-10.3,0-21.3s0.2-16.8,0.2-17.3c0-6.1-0.6-9.2-1.7-9.2h-4.9c-0.4,0-0.6-0.2-0.6-0.5
	v-1.2c0-0.3,0.2-0.5,0.5-0.5h23.2c0.3,0,0.4,0.1,0.4,0.3v1.5c0,0.3-0.1,0.4-0.3,0.4H286c-0.4,0-0.7,0.2-0.8,0.6
	c-0.1,0.4-0.2,7.4-0.4,21c-0.2,12.8-0.3,20.1-0.3,21.8c0,6.6,0.8,9.9,2.3,9.9c9.3,0,14.6-0.1,15.9-0.2c4.5-0.4,8.1-1.4,10.8-3.1
	c0.7-0.4,1.1-0.6,1.2-0.6C315.2,184.7,315.4,184.9,315.4,185.1z M354.6,175.1c0,4.8-1.5,8.7-4.6,11.7c-3.2,3.2-7.9,4.8-14.1,4.8
	c-7.2,0-12.3-1.3-15.3-4c-0.3-0.3-0.5-0.9-0.5-1.8c0-0.2,0-1.9,0-5c0-3.2,0-4.8,0-5.1c0-0.4,0.2-0.6,0.6-0.6h1.8
	c0.3,0,0.5,0.2,0.6,0.6c0.1,0.4,0.1,1.3,0.3,2.7c0.2,3.1,1.3,5.6,3.4,7.6c1,0.9,2.4,1.7,4.3,2.3c1.9,0.6,3.5,0.9,5,0.9
	c5.7,0,9.6-1.9,11.5-5.7c0.9-1.8,1.3-4,1.3-6.6c0-2.3-0.8-4.4-2.4-6.1c-1.8-1.9-5-3.7-9.6-5.3c-5.2-1.8-8.8-3.7-11-5.5
	c-2.9-2.4-4.3-6.2-4.3-11.4c0-4.9,2-9,5.9-12.3c3-2.6,7-3.9,11.9-3.9c3.2,0,6.2,0.5,9,1.6c1.8,0.7,3.1,1.4,3.9,2.1
	c0.4,0.3,0.6,0.7,0.7,1.2c0.3,2.2,0.5,5.1,0.5,8.8c0,0.6-0.1,0.9-0.3,0.9h-2.1c-0.2,0-0.3-0.2-0.4-0.5c-0.2-0.8-0.4-1.9-0.6-3.3
	c-0.4-2-1.4-3.4-3-4.3c-2.9-1.7-6.2-2.5-10-2.5c-3.4,0-5.9,0.7-7.6,2.2c-1.7,1.5-2.6,4.2-2.6,8c0,2.3,0.8,4.4,2.4,6.1
	c0.8,0.9,2.3,1.8,4.5,2.8c1.9,0.7,3.7,1.5,5.6,2.3c3.7,1.6,5.9,2.6,6.5,3c2.1,1.2,4,2.6,5.5,4.3
	C353.5,167.6,354.6,170.9,354.6,175.1z"/>
</svg>
