<?xml version="1.0" encoding="utf-8"?>
<!-- Generator: Adobe Illustrator 22.0.0, SVG Export Plug-In . SVG Version: 6.00 Build 0)  -->
<svg version="1.1"
	 id="svg2" xmlns:cc="http://creativecommons.org/ns#" xmlns:dc="http://purl.org/dc/elements/1.1/" xmlns:rdf="http://www.w3.org/1999/02/22-rdf-syntax-ns#"
	 xmlns="http://www.w3.org/2000/svg" xmlns:xlink="http://www.w3.org/1999/xlink" x="0px" y="0px" viewBox="0 0 756 540"
	 style="enable-background:new 0 0 756 540;" xml:space="preserve">
<style type="text/css">
	.st0{fill:url(#path14_1_);}
</style>
<linearGradient id="path14_1_" gradientUnits="userSpaceOnUse" x1="378.0187" y1="540.05" x2="378.0187" y2="-4.999584e-02">
	<stop  offset="0" style="stop-color:#2484C6"/>
	<stop  offset="1" style="stop-color:#FFFFC6"/>
</linearGradient>
<path id="path14" class="st0" d="M670,0c47.5,0,86,38.5,86,86v367.9c0,47.6-38.5,86.1-86,86.1H86C38.6,540,0,501.5,0,454V86
	C0,38.5,38.6,0,86.1,0L670,0"/>
<g>
	<path d="M15.2,170.2c5.8-0.9,12.6-1.5,20.2-1.5c13.6,0,23.3,3.2,29.8,9.2c6.5,6,10.4,14.5,10.4,26.4c0,12-3.7,21.8-10.6,28.6
		c-6.9,6.9-18.2,10.6-32.5,10.6c-6.8,0-12.4-0.3-17.2-0.9V170.2z M24.7,235.2c2.4,0.4,5.9,0.5,9.6,0.5c20.3,0,31.3-11.3,31.3-31.2
		c0.1-17.3-9.7-28.3-29.8-28.3c-4.9,0-8.6,0.4-11.1,1V235.2z"/>
	<path d="M93.3,218c0.2,13,8.5,18.3,18.1,18.3c6.9,0,11-1.2,14.6-2.7l1.6,6.9c-3.4,1.5-9.2,3.3-17.6,3.3c-16.2,0-26-10.7-26-26.6
		c0-15.9,9.4-28.5,24.8-28.5c17.2,0,21.8,15.2,21.8,24.9c0,2-0.2,3.5-0.3,4.5H93.3z M121.4,211.2c0.1-6.1-2.5-15.6-13.3-15.6
		c-9.7,0-14,8.9-14.7,15.6H121.4z"/>
	<path d="M141.2,232.9c2.8,1.9,7.9,3.8,12.6,3.8c7,0,10.2-3.5,10.2-7.9c0-4.6-2.7-7.1-9.8-9.7c-9.5-3.4-14-8.6-14-14.9
		c0-8.5,6.9-15.5,18.2-15.5c5.3,0,10,1.5,13,3.3l-2.4,7c-2.1-1.3-5.9-3.1-10.8-3.1c-5.7,0-8.8,3.3-8.8,7.2c0,4.4,3.2,6.3,10,8.9
		c9.2,3.5,13.8,8.1,13.8,15.9c0,9.3-7.2,15.8-19.7,15.8c-5.8,0-11.1-1.4-14.8-3.6L141.2,232.9z"/>
	<path d="M223.3,240.7c-2.5,1.3-8.1,3.1-15.2,3.1c-15.9,0-26.3-10.8-26.3-26.9c0-16.2,11.1-28,28.4-28c5.7,0,10.7,1.4,13.3,2.7
		l-2.2,7.4c-2.3-1.3-5.9-2.5-11.1-2.5c-12.1,0-18.6,8.9-18.6,20c0,12.2,7.9,19.7,18.3,19.7c5.5,0,9.1-1.4,11.8-2.6L223.3,240.7z"/>
	<path d="M281.7,215.9c0,19.5-13.5,28-26.3,28c-14.3,0-25.3-10.5-25.3-27.2c0-17.7,11.6-28,26.2-28
		C271.4,188.7,281.7,199.7,281.7,215.9z M239.8,216.4c0,11.6,6.7,20.3,16,20.3c9.2,0,16-8.6,16-20.5c0-8.9-4.5-20.3-15.8-20.3
		S239.8,206.4,239.8,216.4z"/>
	<path d="M293.8,204.2c0-5.5-0.1-9.9-0.4-14.3h8.5l0.5,8.7h0.2c2.6-5,8.7-9.9,17.4-9.9c7.3,0,18.6,4.4,18.6,22.5v31.5h-9.6v-30.4
		c0-8.5-3.2-15.6-12.2-15.6c-6.3,0-11.2,4.5-12.9,9.8c-0.4,1.2-0.7,2.8-0.7,4.5v31.7h-9.6V204.2z"/>
	<path d="M365.4,174.8v15.2h13.7v7.3h-13.7v28.5c0,6.5,1.9,10.2,7.2,10.2c2.5,0,4.4-0.3,5.6-0.7l0.4,7.2c-1.9,0.8-4.8,1.3-8.5,1.3
		c-4.5,0-8.1-1.4-10.4-4c-2.7-2.8-3.7-7.5-3.7-13.7v-28.8h-8.2v-7.3h8.2v-12.6L365.4,174.8z"/>
	<path d="M400.6,175.1c0.1,3.3-2.3,5.9-6.1,5.9c-3.4,0-5.8-2.6-5.8-5.9c0-3.4,2.5-6,6-6C398.4,169.1,400.6,171.7,400.6,175.1z
		 M390,242.7v-52.8h9.6v52.8H390z"/>
	<path d="M415.5,204.2c0-5.5-0.1-9.9-0.4-14.3h8.5l0.5,8.7h0.2c2.6-5,8.7-9.9,17.4-9.9c7.3,0,18.6,4.4,18.6,22.5v31.5h-9.6v-30.4
		c0-8.5-3.2-15.6-12.2-15.6c-6.3,0-11.2,4.5-12.9,9.8c-0.4,1.2-0.7,2.8-0.7,4.5v31.7h-9.6V204.2z"/>
	<path d="M520.1,228.3c0,5.5,0.1,10.2,0.4,14.4h-8.5l-0.5-8.6h-0.2c-2.5,4.3-8.1,9.8-17.4,9.8c-8.3,0-18.2-4.6-18.2-23.1v-30.9h9.6
		v29.2c0,10,3.1,16.8,11.8,16.8c6.4,0,10.9-4.5,12.6-8.7c0.5-1.4,0.9-3.2,0.9-4.9v-32.4h9.6V228.3z"/>
	<path d="M565.3,242.7l-0.8-6.7h-0.3c-2.9,4.1-8.6,7.9-16.1,7.9c-10.7,0-16.1-7.5-16.1-15.2c0-12.8,11.3-19.7,31.7-19.6V208
		c0-4.4-1.2-12.2-12-12.2c-4.9,0-10,1.5-13.7,3.9l-2.2-6.3c4.4-2.8,10.7-4.7,17.3-4.7c16.1,0,20.1,11,20.1,21.6V230
		c0,4.6,0.2,9,0.9,12.6H565.3z M563.9,215.8c-10.5-0.2-22.4,1.6-22.4,11.9c0,6.2,4.1,9.2,9.1,9.2c6.9,0,11.2-4.4,12.8-8.8
		c0.3-1,0.5-2.1,0.5-3.1V215.8z"/>
	<path d="M634.2,165.3v63.8c0,4.7,0.1,10,0.4,13.6H626l-0.4-9.2h-0.2c-2.9,5.9-9.4,10.4-18,10.4c-12.8,0-22.6-10.8-22.6-26.8
		c-0.1-17.6,10.8-28.3,23.7-28.3c8.1,0,13.5,3.8,15.9,8.1h0.2v-31.5H634.2z M624.6,211.4c0-1.2-0.1-2.8-0.4-4
		c-1.4-6.1-6.7-11.1-13.8-11.1c-9.9,0-15.8,8.7-15.8,20.4c0,10.7,5.2,19.5,15.6,19.5c6.4,0,12.3-4.3,14.1-11.4
		c0.3-1.3,0.4-2.6,0.4-4.1V211.4z"/>
	<path d="M697.9,215.9c0,19.5-13.5,28-26.3,28c-14.3,0-25.3-10.5-25.3-27.2c0-17.7,11.6-28,26.2-28
		C687.6,188.7,697.9,199.7,697.9,215.9z M656,216.4c0,11.6,6.7,20.3,16,20.3c9.2,0,16-8.6,16-20.5c0-8.9-4.5-20.3-15.8-20.3
		C660.9,195.9,656,206.4,656,216.4z"/>
	<path d="M708.7,232.9c2.8,1.9,7.9,3.8,12.6,3.8c7,0,10.2-3.5,10.2-7.9c0-4.6-2.7-7.1-9.8-9.7c-9.5-3.4-14-8.6-14-14.9
		c0-8.5,6.9-15.5,18.2-15.5c5.3,0,10,1.5,13,3.3l-2.4,7c-2.1-1.3-5.9-3.1-10.8-3.1c-5.7,0-8.8,3.3-8.8,7.2c0,4.4,3.2,6.3,10,8.9
		c9.2,3.5,13.8,8.1,13.8,15.9c0,9.3-7.2,15.8-19.7,15.8c-5.8,0-11.1-1.4-14.8-3.6L708.7,232.9z"/>
	<path d="M80.5,301c5.8-0.9,12.6-1.5,20.2-1.5c13.6,0,23.3,3.2,29.8,9.2c6.5,6,10.4,14.5,10.4,26.4c0,12-3.7,21.8-10.6,28.6
		c-6.9,6.9-18.2,10.6-32.5,10.6c-6.8,0-12.4-0.3-17.2-0.9V301z M89.9,366c2.4,0.4,5.9,0.5,9.6,0.5c20.3,0,31.3-11.3,31.3-31.2
		c0.1-17.3-9.7-28.3-29.8-28.3c-4.9,0-8.6,0.4-11.1,1V366z"/>
	<path d="M163.4,305.9c0.1,3.3-2.3,5.9-6.1,5.9c-3.4,0-5.8-2.6-5.8-5.9c0-3.4,2.5-6,6-6C161.1,299.9,163.4,302.5,163.4,305.9z
		 M152.7,373.5v-52.8h9.6v52.8H152.7z"/>
	<path d="M177,363.7c2.8,1.9,7.9,3.8,12.6,3.8c7,0,10.2-3.5,10.2-7.9c0-4.6-2.7-7.1-9.8-9.7c-9.5-3.4-14-8.6-14-14.9
		c0-8.5,6.9-15.5,18.2-15.5c5.3,0,10,1.5,13,3.3l-2.4,7c-2.1-1.3-5.9-3.1-10.8-3.1c-5.7,0-8.8,3.3-8.8,7.2c0,4.4,3.2,6.3,10,8.9
		c9.2,3.5,13.8,8.1,13.8,15.9c0,9.3-7.2,15.8-19.7,15.8c-5.8,0-11.1-1.4-14.8-3.6L177,363.7z"/>
	<path d="M259.1,371.6c-2.5,1.3-8.1,3.1-15.2,3.1c-15.9,0-26.3-10.8-26.3-26.9c0-16.2,11.1-28,28.3-28c5.7,0,10.7,1.4,13.3,2.7
		l-2.2,7.4c-2.3-1.3-5.9-2.5-11.1-2.5c-12.1,0-18.6,8.9-18.6,20c0,12.2,7.9,19.7,18.3,19.7c5.5,0,9-1.4,11.8-2.6L259.1,371.6z"/>
	<path d="M317.4,346.7c0,19.5-13.5,28-26.3,28c-14.3,0-25.3-10.5-25.3-27.2c0-17.7,11.6-28,26.2-28
		C307.1,319.6,317.4,330.6,317.4,346.7z M275.5,347.3c0,11.6,6.7,20.3,16,20.3c9.2,0,16-8.6,16-20.5c0-8.9-4.5-20.3-15.8-20.3
		S275.5,337.2,275.5,347.3z"/>
	<path d="M329.5,335c0-5.5-0.1-9.9-0.4-14.3h8.5l0.5,8.7h0.2c2.6-5,8.7-9.9,17.4-9.9c7.3,0,18.6,4.4,18.6,22.5v31.5h-9.6v-30.4
		c0-8.5-3.2-15.6-12.2-15.6c-6.3,0-11.2,4.5-12.9,9.8c-0.4,1.2-0.7,2.8-0.7,4.5v31.7h-9.6V335z"/>
	<path d="M401.1,305.6v15.2h13.7v7.3h-13.7v28.5c0,6.5,1.9,10.2,7.2,10.2c2.5,0,4.4-0.3,5.6-0.7l0.4,7.2c-1.9,0.8-4.8,1.3-8.5,1.3
		c-4.5,0-8.1-1.4-10.4-4c-2.7-2.8-3.7-7.5-3.7-13.7v-28.8h-8.2v-7.3h8.2v-12.6L401.1,305.6z"/>
	<path d="M436.4,305.9c0.1,3.3-2.3,5.9-6.1,5.9c-3.4,0-5.8-2.6-5.8-5.9c0-3.4,2.5-6,6-6C434.1,299.9,436.4,302.5,436.4,305.9z
		 M425.7,373.5v-52.8h9.6v52.8H425.7z"/>
	<path d="M451.2,335c0-5.5-0.1-9.9-0.4-14.3h8.5l0.5,8.7h0.2c2.6-5,8.7-9.9,17.4-9.9c7.3,0,18.6,4.4,18.6,22.5v31.5h-9.6v-30.4
		c0-8.5-3.2-15.6-12.2-15.6c-6.3,0-11.2,4.5-12.9,9.8c-0.4,1.2-0.7,2.8-0.7,4.5v31.7h-9.6V335z"/>
	<path d="M555.9,359.1c0,5.5,0.1,10.2,0.4,14.4h-8.5l-0.5-8.6H547c-2.5,4.3-8.1,9.8-17.4,9.8c-8.3,0-18.2-4.6-18.2-23.1v-30.9h9.6
		V350c0,10,3.1,16.8,11.8,16.8c6.4,0,10.9-4.5,12.6-8.7c0.5-1.4,0.9-3.2,0.9-4.9v-32.4h9.6V359.1z"/>
	<path d="M577.1,348.9c0.2,13,8.5,18.3,18.1,18.3c6.9,0,11-1.2,14.6-2.7l1.6,6.9c-3.4,1.5-9.2,3.3-17.6,3.3
		c-16.2,0-25.9-10.7-25.9-26.6c0-15.9,9.4-28.5,24.8-28.5c17.2,0,21.8,15.2,21.8,24.9c0,2-0.2,3.5-0.3,4.5H577.1z M605.3,342
		c0.1-6.1-2.5-15.6-13.3-15.6c-9.7,0-14,8.9-14.7,15.6H605.3z"/>
	<path d="M672,296.1v63.8c0,4.7,0.1,10,0.4,13.6h-8.6l-0.4-9.2h-0.2c-2.9,5.9-9.4,10.4-18,10.4c-12.8,0-22.6-10.8-22.6-26.8
		c-0.1-17.6,10.8-28.3,23.7-28.3c8.1,0,13.5,3.8,15.9,8.1h0.2v-31.5H672z M662.4,342.2c0-1.2-0.1-2.8-0.4-4
		c-1.4-6.1-6.7-11.1-13.8-11.1c-9.9,0-15.8,8.7-15.8,20.4c0,10.7,5.2,19.5,15.6,19.5c6.4,0,12.3-4.3,14.1-11.4
		c0.3-1.3,0.4-2.6,0.4-4.1V342.2z"/>
</g>
</svg>
