<?xml version="1.0" encoding="utf-8"?>
<!-- Generator: Adobe Illustrator 28.4.1, SVG Export Plug-In . SVG Version: 6.00 Build 0)  -->
<svg version="1.1" id="Layer_1" xmlns="http://www.w3.org/2000/svg" xmlns:xlink="http://www.w3.org/1999/xlink" x="0px" y="0px"
	 viewBox="0 0 1920 505" style="enable-background:new 0 0 1920 505;" xml:space="preserve">
<style type="text/css">
	.st0{fill:#FFFFFF;}
</style>
<path class="st0" d="M275.5,396.3c-0.9,2.5-1.7,4.9-2.7,7.4c-2.7,6.6-5.1,13.2-8.2,19.6c-1.6,3.4-3.9,6.7-6.5,9.5
	c-4.2,4.3-8.9,4.1-13.5,0.2c-4-3.4-6.9-7.7-9.4-12.3c-8.7-16.2-13.8-33.7-18.6-51.2c-7.1-26-12.2-52.5-17-79
	c-2.9-16.2-5.5-32.4-8.1-48.7c-1.2-7.5-2.1-15-2.8-22.5c-0.9-8.8,2.5-15.9,9.5-21.3c12.4-9.6,24.8-19.3,37.3-28.8
	c19.1-14.3,38.3-28.5,57.6-42.6c13.1-9.5,26.4-18.6,39.5-28c10.6-7.6,21.2-15.1,31.6-23c6.1-4.7,11.7-10,17.5-15.1
	c0.6-0.5,0.9-1.4,1.7-2.8c-2.5,0.4-4.3,0.4-5.8,0.9c-2.9,1.1-5.8,2.2-8.5,3.8c-8.6,5.2-17.4,10.3-25.6,16
	c-16.9,11.8-33.5,24-50.2,36.1c-15.6,11.3-31,22.8-46.5,34.3c-14.1,10.4-28.1,20.9-42.1,31.3c-4.7,3.4-9.5,6.6-14.3,9.9
	c-2.7,1.9-5.5,1.9-8.3,0.2c-1.4-0.8-2.8-1.6-4.7-2.6c-1.1,1.8-2.3,3.2-3,4.9c-1.3,3-2.6,6.1-3.2,9.3c-0.7,3.7-2.3,6.8-4.7,9.2
	C156,222,145.3,233,134.2,243.5c-14.3,13.6-29,26.7-43.6,40c-1.1,1-2.2,1.9-3.4,2.9c-1.1-1.3-1.9-2.2-0.8-3.9
	c5.9-8.7,11.5-17.5,17.3-26.2c2.7-4,5.5-7.9,8.1-12c1.9-2.9,3.5-5.9,5.5-8.8c2-2.9,4.2-5.7,6.2-8.6c4.6-6.6,9-13.2,13.6-19.7
	c3.3-4.7,6.7-9.3,10-14c3.3-4.8,6.4-9.8,9.7-14.6c5.2-7.7,10.6-15.3,15.9-22.9c1.6-2.3,3-4.6,4.7-6.9c2.1-2.8,4.4-5.5,6.4-8.3
	c4.9-7,9.7-14.1,14.5-21.2c5.5-8,11-16,16.4-24.1c2-3,1.8-4-0.9-6.5c-3.1-2.9-4.4-3.1-7.3-1c-1.5,1.1-3,2.4-4.3,3.9
	c-7.6,8.9-15.1,17.8-22.6,26.8c-2.1,2.6-4,5.4-5.9,8.2c-2.3,3.2-4.4,6.6-6.7,9.8c-3.7,5-7.6,9.8-11.1,14.9
	c-6.1,8.7-11.9,17.6-17.8,26.4c-9.9,14.8-19.9,29.5-29.7,44.3c-6.8,10.4-13.2,21-19.8,31.5c-10.2,16.2-19.8,32.7-28.4,49.7
	c-1.6,3.2-2.8,6.5-4.1,9.8c-1.2,3-0.1,5.5,2.1,7.6c3.7,3.5,8.5,3.9,12.5,0.7c4.5-3.6,9-7.3,13-11.4c15.9-16.5,31.8-33.2,47.5-50
	c10.8-11.6,21.9-23,34.2-33c2.5-2,5.1-3.9,8.4-5c1,5.3,2,10.3,2.8,15.4c1.3,7.9,2.4,15.8,3.6,23.7c3.9,26.4,9,52.5,15,78.5
	c4.5,19.6,9.8,39,17,57.8c4,10.4,8.6,20.4,15.1,29.4c3.7,5.2,8.2,9.8,14.1,12.6c5,2.3,10.1,2.8,14.6-0.9c2.8-2.4,5.4-5.1,7.5-8.1
	c6.4-9.4,10.1-20,12.8-31c0.2-0.9-0.1-1.9-0.1-2.9C275.9,396.4,275.7,396.4,275.5,396.3z M740.5,187.5c-7,1.1-14,2.1-21.1,3.2
	c-18.9,2.7-37.9,5.3-56.8,8.1c-18.9,2.7-38,4-57.1,4.6c-7.2,0.2-14.5-0.8-21.7-1.4c-1.7-0.1-3.1-0.9-3.1-3.1c2.5,0,4.8-0.1,7.1,0
	c15,0.4,29.9,0.2,44.8-1.7c14.8-1.9,29.7-3.6,44.5-5.7c15-2.2,29.9-4.5,44.8-7.2c12.1-2.2,21.2-9.6,28.4-19.3
	c3.2-4.3,6-8.8,9.2-13.1c3.1-4.3,6.6-8,12.2-9c3-0.5,5.2,0.7,5.1,3.8c-0.1,3.2-0.6,6.5-1.7,9.5c-2.5,7-7.1,12.9-11.5,18.9
	c-0.5,0.7-0.9,1.4-1.6,2.6c1.4,0.1,2.4,0.3,3.3,0.3c5.5,0,11-0.2,16.5-0.1c3.2,0.1,5.6-0.8,7.8-3.3c5-5.7,11.1-10.2,17.6-14.1
	c3.1-1.9,6.4-3.4,10.1-2.9c1.8,0.2,3.8,0.9,5.3,1.9c2.4,1.6,2.8,2.9,1.6,5.7c-1.6,3.9-3.4,7.8-5.4,12.1c1.7,0.1,3.3,0.1,4.8,0.2
	c9.6,0.5,19.3,0.7,28.8,1.8c5.4,0.6,10.6,2.7,15.8,4.3c1.2,0.4,2.3,1.2,3.4,1.8c-0.1,0.3-0.1,0.6-0.2,0.9c-1.4-0.3-2.9-0.5-4.3-0.8
	c-1.7-0.3-3.4-0.8-5.2-1.1c-5.4-0.9-10.8-2.1-16.2-2.4c-9.2-0.6-18.4-0.7-27.5-1.1c-2-0.1-2.8,1.2-3.8,2.5
	c-4.9,6.3-9.7,12.7-14.9,18.8c-9.9,11.7-20.4,22.7-32.5,32.1c-4.3,3.4-8.5,6.9-12.8,10.4c-1.1,0.9-2.2,2-3,3.2
	c-5.8,8.8-9.7,18.6-13.9,28.4c2.2,1,3.2-0.6,4.4-1.4c10.5-6.7,20.9-13.5,31.6-19.9c5.8-3.5,12.2-6,19-7.3c4-0.7,7.5,0.2,10,3.3
	c2.1,2.5,3.8,5.3,5.4,8.1c1.9,3.5,3.4,7.2,5.4,10.7c1.1,2,2.6,3.9,4.3,5.6c2.3,2.4,5,3.1,8.5,2.5c10.1-1.9,19.3-5.8,28.3-10.3
	c8.1-4.1,15.8-8.8,23.7-13.2c1.1-0.6,2.2-1.1,3.7-1.1c-0.8,0.7-1.6,1.5-2.5,2.1c-12.8,8.6-25.9,16.8-40.3,22.4
	c-5.4,2.1-11,3.5-16.6,4.7c-6.2,1.3-11.7-0.6-16.5-4.7c-3.8-3.2-6.9-6.9-9.2-11.3c-1.8-3.6-3.7-7.1-5.5-10.6c-2.4-4.7-3.4-5.2-8.3-3
	c-3.1,1.4-6.2,2.9-9,4.9c-9.5,6.9-18.7,14.1-28.1,21.1c-3,2.2-5.9,4.5-8.9,6.6c-2.8,2-5,1.9-8.1-0.3c-2.2-1.5-2.2-3.8-1.9-6.2
	c1.1-12.5,6.6-23.3,12.3-34c11.3-21.4,24.4-41.6,40.7-59.7c0.3-0.3,0.6-0.7,0.8-1.1c0.1-0.2,0-0.5,0-1.5c-2.7,0.2-5.4,0.5-8.1,0.7
	c-11.9,0.8-20.6,6.8-28.2,15.8c-29.5,34.9-53,73.5-73,114.4c-9.1,18.5-15.8,38-20.8,58c-0.6,2.4-1.2,4.9-1.9,7.3
	c-0.4,1.4-0.6,2.9-2.7,3.5c-0.1-1.2-0.5-2.1-0.3-3c2.6-16.7,6.3-33.1,11.5-49.2c7.4-22.6,17.9-43.7,30.1-64.1c1.9-3.1,4-6.1,6-9.1
	c-0.2-0.2-0.4-0.5-0.6-0.7c-1.3,0.8-2.6,1.5-3.9,2.4c-13.2,9.8-27.8,16.9-43.5,21.9c-8.6,2.7-17.4,3.9-26.3,1.5
	c-1.9-0.5-3.7-1-5.5-1.8c-8.5-3.7-11.4-12.6-7-20.7c0.5-0.8,0.8-1.7,0.7-3.1c-1.1,0.6-2.2,1.2-3.2,1.8c-11.9,7.6-24,14.7-37.6,19
	c-5.6,1.8-11.4,3.2-17.4,2.9c-4.3-0.2-9-3.3-10.6-7.5c-1.7-4.5-3.3-9-5-13.5c-1.3-3.4-2.9-4.6-6.4-4c-2.7,0.5-5.5,1.4-7.9,2.8
	c-6.6,3.7-12.5,8.5-17.8,13.9c-3,3.1-6.1,6.1-9.1,9.1c-2.9,2.9-6.2,4.2-10.1,2.3c-3.8-1.9-6.3-4.8-6-9.4c0.4-5.5,1.8-10.8,4.6-15.6
	c0.4-0.6,0.8-1.3,1.1-1.9c0.1-0.1,0-0.3-0.1-1.1c-1.1,0.5-2.1,0.7-2.9,1.3c-9.9,6.8-20.3,12.8-31.4,17.4c-7.6,3.2-15.5,5.7-23.9,6.2
	c-7.6,0.4-11.4-4.5-13.3-9.5c-1.2-3.3-2.2-6.7-3.4-10c-2-5.4-5.1-7-10.4-4.7c-4.4,1.9-8.8,4.4-12.5,7.4c-5.3,4.2-10,9.2-15,13.9
	c-1.6,1.5-3.2,3-5,4.5c-3.7,3.1-6.4,3.4-10.1,1.2c-3.9-2.3-5.6-6.2-4.8-10.5c0.9-5.1,2.1-10,5.2-14.9c-2.6-0.1-4,1.2-5.5,2.2
	c-13.4,9.5-28,16.6-43.8,21.4c-8.1,2.4-16.3,3-24.6,0.9c-6.5-1.7-11.7-4.7-13.7-11.8c-1.4-4.8,0.9-8.8,2.8-12.7
	c4.7-9.5,12.7-15.1,22.8-17.7c4-1,8.2-1.2,12.1,1.2c3.7,2.3,4.3,6.5,0.9,9.2c-3.5,2.7-7.3,5.1-11.2,7.1c-4.2,2.1-8.7,3.7-13.1,5.5
	c-1.3,5.8,2.1,12.1,7.6,13.7c2.2,0.7,4.7,0.8,7,0.8c9.7-0.3,19-2.6,27.8-6.8c7.3-3.5,14.4-7.5,21.6-11.4c2.6-1.4,5.1-3,7.7-4.4
	c2.5-1.3,4.6-2.9,6.6-5c1.8-2,4.4-3.4,7-4.6c2.6-1.2,5.1,0.6,5.2,3.5c0.2,4-1.5,7.4-3.4,10.8c-2.2,3.9-4.4,7.7-6.5,11.7
	c-0.9,1.6-1.8,3.5,0.1,5.9c1.2-0.7,2.7-1.2,3.9-2.2c5-3.9,10-7.9,15-11.9c5.5-4.3,11.3-8.2,17.9-10.5c2.2-0.8,4.6-1.4,6.9-1.7
	c5.6-0.9,10.4,1.7,12.8,6.7c1.1,2.4,1.9,5,2.8,7.5c0.7,1.8,1.2,3.7,2.1,5.3c2.5,4.7,6.7,6.6,12,5.5c2.5-0.5,4.9-1.2,7.2-2.1
	c14.6-5.6,28.2-13.1,41.4-21.4c1.5-0.9,2.6-2.4,4-3.5c1.9-1.4,3.8-2.9,6-3.7c3.4-1.3,6.6,1.5,5.5,4.9c-1.3,4-3.2,7.9-5.1,11.8
	c-1.9,4-4,7.9-5.9,11.9c-0.3,0.7-0.2,1.6-0.3,2.4c2.1,1.4,3.3,0,4.6-0.9c3.3-2.5,6.5-5.2,9.8-7.7c5.1-3.8,10.2-7.7,15.4-11.2
	c4.5-3,9.5-4.8,14.9-5.6c6.2-0.9,10.8,1.6,13.2,7.3c1.6,3.7,3,7.4,4.2,11.2c1.7,5.4,7.3,8.1,12.8,6.5c4.8-1.4,9.7-2.8,14.2-5.1
	c10.9-5.4,21.5-11.3,32.2-17.1c1.9-1,3.3-2.9,4.9-4.4c6.4-6.2,13.8-10.2,23.1-9.6c0.4,0,0.9,0,1.3,0.1c3.8,0.4,6.6,2.2,7.2,4.9
	c0.8,3.4-0.8,5.9-3.5,7.5c-5.4,3.1-11,5.8-16.5,8.6c-0.5,0.3-1.1,0.3-1.7,0.5c-5.8,2.1-6.2,3.2-3.6,8.6c2.5,5.2,6.3,7.9,12.3,7.7
	c8.8-0.2,17.3-2.2,25.5-5.4c9.2-3.5,17.8-8.1,26.1-13.3c0.5-0.3,1-0.7,1.5-1c3.7-2.1,8-3.7,11-6.5c3-2.9,4.7-7.1,7.2-10.6
	c12.1-16.9,24.2-33.6,36.4-50.5c0.4-0.6,0.8-1.2,1.1-1.7C740.8,188.1,740.6,187.8,740.5,187.5z M755.1,239.7
	c13.8-6.1,52.7-47.2,56.3-58.4c-4-0.8-8,0.1-11.9,0.3c-0.6,0-1.3,0.7-1.7,1.3c-4.9,5.5-9.9,11-14.7,16.7
	c-9.6,11.5-17.9,23.9-25.8,36.5C756.6,237.2,755.9,238.5,755.1,239.7z M280.9,259.4c0.3,0.4,0.5,0.8,0.8,1.2c4-1.8,8.1-3.3,11.8-5.5
	c2.2-1.3,3.8-3.6,5.4-5.7c1.2-1.6,1.1-3.3-1.2-4.6C290.5,247.8,285.9,253.8,280.9,259.4z M619.8,258.5c0.2,0.4,0.5,0.8,0.7,1.2
	c4.9-1.8,10-3,14-6.7c1.3-1.2,2.2-2.8,3-4.3c0.3-0.7,0.1-2.1-0.4-2.8c-0.3-0.4-1.7-0.4-2.4-0.1c-1.1,0.4-2.2,0.9-3.1,1.7
	C627.6,251.1,623.7,254.8,619.8,258.5z M803.8,177.3c3.3,0,6,0.2,8.6-0.1c1-0.1,2.4-0.8,2.8-1.7c1.6-3.7,2.9-7.6,4.6-11.8
	C816.5,164.9,807.2,172.9,803.8,177.3z M745,180.2c5.8-4.3,8.9-10.7,14-15.9c-2.7-1-3.9,0.6-5.1,1.7C750,169.6,745,177.1,745,180.2z
	 M1584.6,277.2c1.6-1,3-1.6,4.3-2.6c5.1-4,10.2-8.2,15.3-12.1c6.3-4.8,12.7-9.2,20.6-11.1c1.2-0.3,2.3-0.5,3.5-0.6
	c6.1-0.7,10.7,1.8,13.3,7.5c1.1,2.6,1.8,5.3,2.8,8c1.5,4.1,3.5,7.8,7.9,9.6c1.8,0.7,3.3,0.8,5.1,0.3c8.7-2.1,16.8-5.9,24.7-9.9
	c6.2-3.1,12.3-6.5,18.4-9.9c1.8-1,3.2-2.6,4.9-3.8c2.1-1.6,4.3-3.2,6.6-4.4c2.5-1.4,5.2-0.8,7.7,0.3c0.5,0.2,1.4,0.7,1.4,0.9
	c-0.5,4.5,4.7,4.2,6,7.4c0.5,1.2,2.9,1.6,4.6,2.2c1.7,0.5,3.4,0.8,5.1,1.1c1.3,0.2,2.6,0.5,4,0.5c6.8-0.1,13.4-1.2,19.9-3
	c2.8-0.8,5.7-1.4,8.5-2c3-0.7,6-1.3,9-2.1c1.6-0.4,2.7-1.2,3.4-3c3.7-9.8,10.6-16.6,20-21c4.6-2.2,10.8-0.8,14.4,3.2
	c-1.7,1-3.3,2-4.9,2.9c-5,2.9-10.1,5.6-15,8.7c-3.5,2.2-6.5,5.1-8.4,9c-0.9,1.8-0.8,3.3-0.1,5.1c1.9,4.7,4.5,8.9,8.1,12.6
	c3.5,3.6,6.8,7.3,10.5,11.2c18.8-11.9,38.1-21.9,58.6-30.5c0.6,2.7-1.1,2.9-2.3,3.5c-8.9,4.4-18,8.5-26.7,13.1
	c-8,4.2-15.7,9-23.5,13.6c-1.5,0.9-2.8,2.1-3.8,2.8c1.5,4,2.8,7.6,4.1,11.1c1.2,3.3,0.9,6.7,0.2,10.1c-0.4,2-0.5,4.2-1.2,6.1
	c-3.3,8.7-9.2,14.5-18.6,16.8c-3.6,0.9-7.2,1.5-10.9,1.6c-3.5,0.1-6.7-0.6-10-1.7c-7.1-2.3-8.5-8.2-5.3-14.2c2-3.7,4.8-7.2,8.1-9.9
	c6.8-5.5,14.1-10.4,21.2-15.5c1.7-1.2,3.4-2.3,5.2-3.6c-1.2-3.6-3.9-5.8-6-8.3c-4.9-5.7-9.5-11.7-12.7-18.6c-0.5-1.2-1-2.4-1.5-3.6
	c-8.8,2.2-17.5,4.8-26.4,6.5c-9,1.6-18.2,2.3-27.6,3.4c-3,5.6-7,10.7-12.6,14.6c-4.3,3.1-9,3.7-14,2.8c-5.3-1-7.9-7-5.5-12.6
	c0.7-1.8,1.4-3.6,2.3-5.2c0.9-1.6,2-3.1,3.6-5.4c-1.8,0.5-2.7,0.5-3.3,0.9c-7.3,4.8-14.9,9.3-22.9,12.8c-9.3,4.1-18.8,7.8-29.2,7.8
	c-4.6,0-8.1-2-10.1-6c-1.4-2.8-2.3-5.9-3.4-8.9c-0.7-2-1.2-4.2-2.1-6.1c-1.9-3.8-5.6-5.3-9.8-3.4c-4.5,2-9.1,4.5-12.9,7.6
	c-6.8,5.7-13.1,12-19.7,18c-2,1.9-4.3,3.1-7.2,2.5c-5.2-1-9-5.8-8.1-11c0.6-3.6,1.8-7.1,2.8-10.7c0.3-1.1,0.6-2.1,0.3-3.7
	c-1,0.8-2.1,1.4-3.1,2.3c-9.4,8-19.7,14.7-31.1,19.7c-10.5,4.6-21.3,4.8-32.2,1.4c-10.1-3.2-17.4-9.3-20.2-20
	c-0.4-1.7-1-3.4-1.7-5.7c-1.6,1.3-3,2.2-4.1,3.4c-3.2,3.5-6.2,7.2-9.6,10.5c-3.6,3.5-7.3,6.9-11.4,9.9c-5,3.7-10.7,5-16.9,3.6
	c-5.2-1.2-7.1-3.7-7.3-9c-0.3-5.7,1.1-10.7,4.5-15.7c-1,0.3-2,0.5-2.9,1c-16,8.5-32.9,15-50.1,20.5c-8.4,2.7-16.8,5-25.6,5.4
	c-3.7,0.2-7.7-0.5-11.3-1.7c-5.9-1.9-8.2-6.9-8.9-12.7c-0.6-5,0.5-9.7,2.2-14.3c0.3-0.8,0.6-1.7,1.2-3.2c-1.7,0.4-2.8,0.7-4,1.1
	c-8.7,2.4-17.3,5.2-26.1,6.9c-7.1,1.4-14.4,1.5-21.7,2c-2.2,0.1-3.6,0.7-4.6,2.7c-2.5,4.9-6.6,8.4-10.6,11.9
	c-4.4,3.7-9.5,4.6-15,3.4c-4.2-0.9-6.7-5-5.8-9.1c1.9-8.9,6.5-16.1,13.1-22.2c3-2.7,6.4-4.3,10.6-3.4c2,0.4,3.8,0.9,3.8,3.5
	c0,0.4,0,1.1,0.3,1.3c3,2.2,5.8,5.4,9.3,6.4c6.4,1.8,13,2.5,19.7,0.6c4.3-1.3,9-1.3,13.4-2.1c2.6-0.5,5.1-1.3,7.7-2
	c2.4-0.6,4.8-1.4,7.3-1.9c2.4-0.5,3.7-1.6,4.9-3.9c14.4-28.1,34.1-52,58.1-72.3c7.3-6.2,15.3-11.9,24.7-14.7
	c2.8-0.8,5.8-1.1,8.7-0.9c6,0.3,11.8,6.9,7.9,13.8c-1.7,3.1-3.7,6.1-6,8.8c-8.7,10.2-18.4,19.4-28.6,27.9
	c-12.9,10.8-26.1,21-40.7,29.4c-7.4,4.2-13.5,10.1-17.8,17.7c-2.2,3.8-3.4,7.8-3.3,12.3c0.2,5.5,2.9,8.6,8.4,9
	c2.4,0.2,4.8,0.2,7.1-0.1c17-2,33.3-6.8,49.1-13.2c8.1-3.3,16.2-6.6,24.2-10.2c4.4-2,8.7-4.4,12.9-6.9c6.8-4,14-6.8,21.6-8.8
	c5-1.3,9.9-1.4,14.9-1.9c0.9-0.1,1.8-0.2,2.7-0.1c6.3,0.3,7.6,2,6.8,8.3c-0.6,4.4-1.1,8.8-1.2,13.2c-0.1,2.3,0.6,4.6,1.3,6.9
	c2.1,7.5,8.1,10.1,15,11.2c12.4,1.9,23.9-0.9,34.6-7c9.8-5.6,19.3-11.6,28.9-17.5c1-0.6,1.9-1.5,2.5-2.5c2-3.2,5.1-4.9,8.4-6.3
	c2.9-1.2,5.3,0.5,5.5,3.6c0.3,3.8-1.5,6.9-3.2,10c-2.1,3.9-4.4,7.7-6.5,11.7C1583.9,272.3,1583.1,274.3,1584.6,277.2z M1363.3,242.3
	c0.4,0.3,0.7,0.6,1.1,0.9c32.5-18.7,62.2-40.6,82.5-74.1c-9,1.2-16,5.1-22.7,9.4c-20.5,13.3-37.8,30-52.2,49.7
	C1368.7,232.5,1366.1,237.5,1363.3,242.3z M1452,278.9c1.7-0.5,3.5-0.7,5-1.5c3.2-1.8,6.7-3.4,9.4-5.9c6.2-5.6,12.1-11.6,18.1-17.6
	c1-1,1.7-2.4,2.5-3.6c1.1-1.6,0.7-2.9-0.9-3.7c-1.4-0.7-3.1-1.3-4.6-1.2c-2.3,0.2-4.6,0.9-6.8,1.8c-9.2,3.7-17,9.5-23.4,17.1
	c-1.8,2.1-3.1,4.7-4.2,7.3C1445.5,276,1447.3,278.6,1452,278.9z M1770.9,319.2c7.9,1.1,15.3-0.5,22.4-3.6c5.1-2.2,9.1-5.6,11.7-10.5
	c2.7-5.1,1.9-11.9-2-16.6c-6.9,3.8-13.3,8.3-19.2,13.5c-3.8,3.3-7.2,7-10.6,10.7C1771.7,314.3,1770.4,316.4,1770.9,319.2z
	 M1716.7,256.2c-2.1,1.3-4,1.9-5.2,3.2c-3.5,3.3-6,7.3-7.2,12c-0.6,2.5-0.4,4.9,1.5,6.5c1.9,1.5,4.3,1,6.3,0.1
	c5.2-2.4,8.6-6.6,10.8-11.8c0.6-1.5,0.4-2.8-1.1-3.3C1718.8,261.8,1717,260,1716.7,256.2z M1288,264.5c-3.3-2.9-5.8-5.2-8.4-7.6
	c-5.6,3.2-8.7,8.5-10.7,14.4c-0.7,2.1-0.6,4.4,1.3,6.1c1.8,1.6,3.9,1.6,5.8,0.7C1282.2,275.4,1286.1,270.5,1288,264.5z
	 M1630.6,227.8c-0.9,1.3-1.7,2.6-2.6,3.8c-2.2,3-4.3,3.1-6.9,0.5c-1.1-1.1-2.2-2.4-3.4-3.5c-2.7-2.3-4.6-2.4-7.6-0.6
	c-2.7,1.6-3.7,3.2-2.9,4.8c0.8,1.5,2.8,1.8,5.5,0.3c2-1.1,3.3-0.6,4.7,0.7c1.5,1.4,3,2.9,4.5,4.3c1.4,1.3,3.1,2,4.8,0.7
	c3.4-2.6,5.5-6,5.2-10.4C1631.4,228.2,1631,228,1630.6,227.8z M1190.3,166.9c-10.8-0.7-21.8-0.1-32.6-0.1c0.2-0.2,0.9-1.3,1.7-2.1
	c10.8-10.7,22-21,32.2-32.3c8.4-9.3,15.8-19.5,23-29.8c3.3-4.7,6.3-11.6,1-15.7c-4.1-3.2-11.5-5.1-16.3-3.7
	c-8.3,2.4-16.6,6.6-23.4,12c-30.2,24.1-53.6,54.5-75.9,85.6c-8.5,11.8-16.4,24-24.6,36c0.1-3.3,1.4-6,2.7-8.7
	c19-38.2,38-76.5,57-114.7c2.8-5.6,4.7-10.9-4.3-13.8c-1.4,2.3-2.9,4.6-4.3,7.1c-22.2,41.9-45,83.4-66.4,125.8
	c-10.3,20.4-22.8,37.4-44.5,46.4c-4.3,1.8-8.2,4.7-12.1,7.3c-21.6,14.6-40.9,31.3-50.3,56.5c-12.4,33.1,0.7,60.7,34.5,70.7
	c11.8,3.5,24.8,5.2,37.1,4.8c50.7-1.7,94.4-21.8,133.3-53.5c33.2-27.1,58.8-59.8,71.6-101.2c3-9.9,4.3-20.5,5-30.9
	C1236.5,184.9,1217.7,168.7,1190.3,166.9z M1201,95.3c-19.8,33.8-49.6,57.4-80.7,79.7C1142.6,143.8,1166.7,114.4,1201,95.3z
	 M1223.4,204.1c-1.2,22.1-7.7,42.9-18.9,61.8c-36.7,61.8-89.2,103.4-160,120.2c-16.1,3.8-32.6,5.1-49.2,2.4
	c-25.6-4.1-38.5-22.5-33.6-48c5.1-26.7,21.4-45.5,42.3-61.1c9-6.7,18.8-12.3,29.7-17.3c-2.5,6.4-5.1,12.8-7.6,19.2
	c-5.8,14.8-11.8,29.6-17.3,44.5c-0.8,2.2,0.1,6.9,1.5,7.5c2.5,1,7,0.9,8.7-0.7c3.9-3.7,7-8.5,9.7-13.2c9.9-17.9,20-35.6,28.8-54
	c6-12.4,15.3-19.4,28-23.1c21.8-6.4,44.2-4.7,66.5-4.9c2,0,4,0,6.1-0.8c-12.8-5.1-26-8.1-39.9-7.1c-13.5,1-27,2.4-41.6,3.8
	c11.7-17.3,22.9-33.9,34.4-51c6.1,7.9,13,5.9,20.7,3.4c14.6-4.7,29.3-9.8,44.3-12.5c9.2-1.7,19.4-0.5,28.6,1.6
	C1218.5,177.9,1224.2,188,1223.4,204.1z"/>
</svg>
