<?xml version="1.0" encoding="utf-8"?>
<!-- Generator: Adobe Illustrator 26.5.0, SVG Export Plug-In . SVG Version: 6.00 Build 0)  -->
<svg version="1.1" id="Layer_1" xmlns="http://www.w3.org/2000/svg" xmlns:xlink="http://www.w3.org/1999/xlink" x="0px" y="0px"
	 viewBox="0 0 1200 500" style="enable-background:new 0 0 1200 500;" xml:space="preserve">
<style type="text/css">
	.st0{fill:#FFFFFF;}
	.st1{fill:#F05A28;}
	.st2{fill:#F19C31;}
	.st3{fill:url(#SVGID_1_);}
	.st4{fill:#E55E38;}
	.st5{fill:#3E3E3E;}
	.st6{fill:#2D2E2D;}
	.st7{fill:#D7D7D7;}
	.st8{fill:#959595;}
	.st9{fill:none;}
</style>
<g>
	<path class="st0" d="M910.2,491.6c-55.7,0-110.2-19.4-153.4-54.6c-38.4-31.4-67-74.8-80.5-122.3l-2.2-7.6H657
		c-9.5,0-18.1-5.2-22.6-13.5l-1.4-2.6l-2.5-1.5c-5.1-3-8.2-8.4-8.2-14.3v-59c0-5.8,3.1-11.3,8.2-14.3l2.5-1.5l1.4-2.6
		c4.5-8.3,13.1-13.5,22.6-13.5h18.6l2.3-7.3c14.3-46.3,43.2-88.4,81.2-118.7c43.4-34.5,95.6-52.8,151-52.8
		c55.4,0,107.7,18.2,151.1,52.8c38,30.3,66.9,72.4,81.2,118.7l2.3,7.3h17.7c9.5,0,18.1,5.2,22.6,13.5l1.4,2.6l2.5,1.5
		c5.1,3,8.2,8.4,8.2,14.3v59c0,5.8-3.2,11.3-8.2,14.3l-2.5,1.5l-1.4,2.6c-4.5,8.3-13.1,13.5-22.6,13.5h-16.2l-2.2,7.6
		c-13.5,47.5-42.1,91-80.5,122.3C1020.4,472.2,965.9,491.6,910.2,491.6z"/>
	<g>
		<path d="M657,201.3h49.4v-8.6H657c-8.9,0-16.2,6.7-17.2,15.4h-1.1c-4.5,0-8.2,3.7-8.2,8.2v59c0,4.5,3.7,8.2,8.2,8.2h1.1
			c1,8.6,8.3,15.4,17.2,15.4h45.1v-8.6H657c-4.1,0-7.5-2.9-8.4-6.7h3.6c4.5,0,8.2-3.7,8.2-8.2v-59c0-4.5-3.7-8.2-8.2-8.2h-3.6
			C649.5,204.2,652.9,201.3,657,201.3z"/>
		<path d="M1180.7,208h-1.1c-1-8.6-8.3-15.4-17.2-15.4h-45.1v8.6h45.1c4.1,0,7.5,2.9,8.4,6.7h-3.6c-4.5,0-8.2,3.7-8.2,8.2v59
			c0,4.5,3.7,8.2,8.2,8.2h3.6c-0.9,3.8-4.3,6.7-8.4,6.7H1113v8.6h49.4c8.9,0,16.2-6.7,17.2-15.4h1.1c4.5,0,8.2-3.7,8.2-8.2v-59
			C1188.8,211.6,1185.2,208,1180.7,208z"/>
		<g>
			<circle class="st1" cx="910.2" cy="248.5" r="234.7"/>
		</g>
		<path class="st0" d="M714.4,248.5c0-108.1,87.7-195.8,195.8-195.8c108.1,0,195.8,87.7,195.8,195.8c0,108.1-87.7,195.8-195.8,195.8
			C802.1,444.3,714.4,356.7,714.4,248.5z M903,305.9h-21.6v121.7c7.1,1.1,14.3,1.9,21.6,2.2V305.9z M806.1,397
			c6.9,4.8,14.1,9.2,21.6,13.1V305.9h-21.6V397z M865.4,305.9h-21.6v111.4c7,2.8,14.2,5.1,21.6,7V305.9z M1069.6,335
			c5-9.2,9.3-19,12.7-29.1h-12.7V335z M978.3,305.9h-21.6v118c7.4-2,14.6-4.4,21.6-7.2V305.9z M1053.6,305.9h-21.6v77
			c7.9-7.2,15.1-15,21.6-23.4V305.9z M790.1,305.9h-21.6v55.7c6.5,8.2,13.8,15.8,21.6,22.7V305.9z M919,429.7
			c7.3-0.4,14.6-1.1,21.6-2.3V305.9H919V429.7z M752.5,305.9h-14.4c3.8,11.2,8.6,22,14.4,32.1V305.9z M1015.9,305.9h-21.6v103.3
			c7.5-4,14.8-8.5,21.6-13.4V305.9z"/>
		<path d="M909.6,19.4c-126.6,0-229.1,102.6-229.1,229.1s102.6,229.1,229.1,229.1s229.1-102.6,229.1-229.1S1036.2,19.4,909.6,19.4z
			 M909.7,450.4c-111.5,0-201.9-90.4-201.9-201.9c0-111.5,90.4-201.9,201.9-201.9c111.5,0,201.9,90.4,201.9,201.9
			C1111.6,360,1021.2,450.4,909.7,450.4z M821,219.3h23V238h-23v38.8h16.4c3.3,0,5-1.7,5-5v-13h20.8v35.4h-77.7V280h3.9
			c2.7,0,4.1-1.3,4.1-4v-90.8c0-2.6-1.4-4-4.1-4h-3.9V167l77.7,0v34.3H844V189c0-3.2-1.8-4.7-5.5-4.7H821V219.3z M947.5,166.8v38.1
			h-26v-6.5c0-4.4-0.9-7.7-2.7-9.9c-1.8-2.2-4.3-3.3-7.5-3.3c-3.7,0-6.6,1.1-8.5,3.3c-2,2.2-2.9,5.5-2.9,9.9v64.8
			c0,8.7,3.3,13.1,9.8,13.1c6.4,0,9.7-4.4,9.8-13.1v-10h28.1c0,7.2-0.5,13.5-1.6,19c-1.1,5.4-3,10-5.8,13.7
			c-2.8,3.7-6.6,6.4-11.6,8.2c-4.9,1.8-11.2,2.7-18.9,2.7c-7.7,0-14.1-0.9-19.2-2.7c-5.1-1.8-9.2-4.6-12.2-8.2
			c-3-3.7-5.2-8.2-6.5-13.7c-1.3-5.4-1.9-11.8-1.9-19v-44.8c0-14.4,2.8-25.3,8.4-32.6c5.6-7.3,14.3-11,26-11c4.4,0,8.1,0.4,10.9,1.2
			c2.8,0.8,5,1.7,6.5,2.7c1.5,1,2.9,2.3,4,3.9v-5.8H947.5z M990.3,251.5L990,276c0,2.6,1.1,4,3.4,4h4.6v14.2h-43.5V280h4.6
			c2.3,0,3.4-1.3,3.4-4v-90.8c0-2.6-1.1-4-3.3-4h-4.6V167h50c11.4,0,19.4,3.1,24.1,9.2c4.7,6.1,7.1,16.1,7.1,30.1v6.1
			c0,13.9-2.4,23.9-7.1,30c-4.7,6.1-12.7,9.2-24.1,9.2H990.3z M990.4,232.8h1.7c5.9,0,10.1-1.6,12.6-4.8c2.5-3.2,3.7-8.4,3.7-15.7
			v-5.2c0-7.3-1.2-12.5-3.7-15.7c-2.5-3.2-6.7-4.8-12.6-4.8h-1.3L990.4,232.8z"/>
		<g>
			<path class="st2" d="M941.1,111.5c-2.7-7.4-7.6-13.9-13.3-19.3c1.6,2.6,2.6,11.7-1.1,16.9c0.3-16.3-32.1-27.2-5.1-53.5
				c-8.6,2.3-16.8,6.8-22.6,13.6c-5.8,6.8-8.9,16-7.7,24.8c0.4,3.1,1.4,6.3,0.3,9.2c-0.3,0.7-0.7,1.4-1.5,1.6
				c-1.2,0.3-2.2-0.9-2.7-2c-1.3-3-1.6-6.5-0.8-9.7c-5.6,5.7-9.3,13.2-10.4,21.1s0.3,16.1,4.1,23.2c2.3,4.4,10,12,16.7,14.3
				l22.9,1.5c13.8-3.5,19.3-10.9,21.9-18.4C944.4,127.2,943.8,118.9,941.1,111.5z"/>
			<linearGradient id="SVGID_1_" gradientUnits="userSpaceOnUse" x1="908.7906" y1="69.0209" x2="908.7906" y2="144.5218">
				<stop  offset="0" style="stop-color:#F57E20"/>
				<stop  offset="1" style="stop-color:#F04C23"/>
			</linearGradient>
			<path class="st3" d="M890.4,146.3c-2.6-3.1-4.4-7-4.8-11.5c0-0.4-0.1-0.8-0.1-1.3c-0.1-1.3,0-2.6,0.1-3.9
				c0.7-5.9,3.4-11.5,7.1-16.2c-0.6,3-1,6.2,0.3,8.9c1.4,2.7,5.2,4.3,7.5,2.4c1.6-1.3,1.8-3.8,1.2-5.8c-0.6-2-1.8-3.7-2.7-5.6
				c-2.4-4.9-2.6-10.7-1.1-15.9c1.5-5.2,3.5-10.4,7.3-14.3c-4.5,19.3,15.7,19.6,14.2,38.4c-0.1,1.6-0.7,5.3-0.2,7.1
				c0.3,0.9,1.2,1.6,2.1,1.7c4.1,0.6,4.8-5.3,4.8-8.1c0-1.1,0-2.3-0.2-3.4c-0.1-0.4-0.1-1.2-0.4-1.5c3.7,2.9,5.4,7.6,6,12.1
				c0.7,5,0.7,10.3-1.8,14.9c-1.8,3.3-4.6,5.9-7.9,7.6c-4.3,2.2-9.2,3-14,2.7C901.1,154.2,894.6,151.3,890.4,146.3z"/>
		</g>
		<path class="st0" d="M714.5,138.5c-0.4-0.2-0.6-0.6-0.8-1c-0.1-0.4,0-0.9,0.2-1.2l5.9-9.7c0.2-0.4,0.6-0.6,1-0.7
			c0.4-0.1,0.8,0,1.2,0.2c0.4,0.2,0.6,0.6,0.7,1c0.1,0.4,0.1,0.8-0.2,1.2l-5,8.3l4.5,2.7l3.1-5.1c0.2-0.4,0.6-0.6,1-0.7
			c0.4-0.1,0.8,0,1.2,0.2c0.4,0.2,0.6,0.6,0.8,1c0.1,0.4,0,0.8-0.2,1.2l-3.1,5.1l4,2.4l5-8.3c0.2-0.4,0.6-0.6,1-0.7
			c0.4-0.1,0.8,0,1.2,0.2c0.4,0.2,0.6,0.6,0.8,1c0.1,0.4,0.1,0.8-0.2,1.2l-5.9,9.7c-0.2,0.4-0.6,0.6-1,0.8c-0.4,0.1-0.9,0-1.3-0.2
			L714.5,138.5z M737.9,125.8c0.7,0.1,1.5,0.1,2.3-0.2c0.8-0.3,1.5-0.9,2.2-1.7c0.3-0.4,0.6-0.9,0.8-1.4c0.2-0.5,0.3-1,0.4-1.5
			c0-0.5,0-0.9-0.2-1.4c-0.2-0.4-0.5-0.8-0.9-1.1c-0.4-0.3-0.9-0.5-1.3-0.5c-0.5,0-0.9,0-1.3,0.2c-0.4,0.2-0.9,0.4-1.3,0.8
			c-0.4,0.3-0.8,0.7-1.1,1.2c-0.6,0.8-1.3,1.5-1.9,2.1c-0.7,0.6-1.4,0.9-2.1,1.2c-0.7,0.2-1.5,0.3-2.3,0.1c-0.8-0.1-1.6-0.5-2.4-1.1
			c-0.7-0.5-1.3-1.2-1.7-1.8c-0.4-0.7-0.6-1.4-0.6-2.2c0-0.8,0.1-1.6,0.4-2.5c0.3-0.9,0.8-1.7,1.4-2.6c0,0,0.2-0.2,0.5-0.6
			c0.3-0.4,0.7-0.7,1.3-1.1c0.6-0.4,1.2-0.7,2-1c0.8-0.3,1.6-0.4,2.6-0.3c0.1,0,0.3,0.1,0.5,0.1c0.2,0.1,0.3,0.1,0.5,0.2
			c0.3,0.2,0.5,0.6,0.6,1c0.1,0.5,0,0.9-0.3,1.3c-0.2,0.2-0.3,0.4-0.6,0.5c-0.2,0.1-0.5,0.2-0.7,0.2l0,0c-0.3,0-0.7,0-1,0.1
			s-0.6,0.1-0.9,0.2c-0.3,0.1-0.6,0.3-0.9,0.5c-0.3,0.2-0.6,0.5-0.8,0.8c-0.8,1-1.1,1.9-1.1,2.7c0.1,0.7,0.3,1.3,0.8,1.7
			c0.3,0.3,0.7,0.4,1,0.4c0.3,0,0.7,0,1-0.2c0.3-0.2,0.7-0.4,1-0.7c0.3-0.3,0.6-0.7,0.9-1.1c0.6-0.8,1.3-1.5,2.1-2.1
			c0.8-0.6,1.6-1,2.5-1.3c0.9-0.2,1.7-0.3,2.6-0.1c0.9,0.2,1.8,0.5,2.6,1.2c0.9,0.7,1.5,1.4,1.9,2.2c0.4,0.8,0.6,1.7,0.6,2.6
			c0,0.9-0.2,1.8-0.5,2.7c-0.4,0.9-0.9,1.8-1.5,2.7c-0.1,0.2-0.4,0.5-0.8,0.9c-0.4,0.4-1,0.9-1.7,1.3c-0.7,0.4-1.5,0.7-2.5,1
			c-1,0.2-2.1,0.2-3.3-0.1c-0.3,0-0.6-0.2-0.8-0.4c-0.2-0.2-0.4-0.4-0.5-0.7c-0.1-0.3-0.2-0.5-0.2-0.8c0-0.3,0.1-0.6,0.3-0.8
			c0.3-0.4,0.6-0.6,1.1-0.7C737,125.6,737.5,125.6,737.9,125.8z M742,107.3c-0.7-0.7-1.3-1.4-1.7-2.3c-0.4-0.9-0.6-1.8-0.7-2.7
			c-0.1-0.9,0.1-1.9,0.4-2.8c0.3-0.9,0.8-1.8,1.5-2.5c0.5-0.6,1-1,1.7-1.4c0.6-0.4,1.3-0.6,1.9-0.8c0.7-0.2,1.4-0.2,2.1-0.2
			c0.7,0,1.4,0.1,2,0.4c0.2,0,0.3,0.1,0.4,0.2c0.1,0.1,0.3,0.2,0.3,0.2c0.3,0.3,0.5,0.6,0.5,1.1c0.1,0.4-0.1,0.8-0.4,1.2
			c-0.5,0.5-1,0.7-1.7,0.5c-0.8-0.3-1.5-0.3-2.3-0.1c-0.8,0.2-1.5,0.6-2.1,1.2c-0.4,0.4-0.6,0.9-0.8,1.4c-0.2,0.5-0.2,1-0.2,1.5
			c0,0.5,0.1,1,0.4,1.5c0.2,0.5,0.5,0.9,0.9,1.3l4.8,4.4c0.4,0.4,0.9,0.6,1.4,0.8c0.5,0.2,1,0.2,1.5,0.2c0.5,0,1-0.2,1.5-0.4
			c0.5-0.2,0.9-0.5,1.3-0.9c0.6-0.6,0.9-1.4,1-2.2c0.1-0.8,0-1.6-0.4-2.3c-0.1-0.3-0.1-0.6-0.1-0.9c0.1-0.3,0.2-0.6,0.4-0.8
			c0.3-0.4,0.7-0.6,1.2-0.5c0.4,0,0.8,0.2,1.1,0.4c0.2,0.2,0.3,0.3,0.4,0.5c0.3,0.6,0.6,1.3,0.7,2c0.1,0.7,0.1,1.4,0,2.1
			c-0.1,0.7-0.3,1.4-0.6,2.1c-0.3,0.7-0.7,1.3-1.2,1.9c-0.7,0.7-1.4,1.3-2.3,1.7c-0.9,0.4-1.8,0.6-2.7,0.7c-0.9,0-1.9-0.1-2.8-0.4
			c-0.9-0.3-1.7-0.8-2.5-1.5L742,107.3z M752,89c-0.3-0.3-0.5-0.7-0.4-1.2c0-0.5,0.2-0.8,0.5-1.1c0.3-0.3,0.7-0.4,1.2-0.4
			c0.5,0,0.8,0.2,1.1,0.5l7.9,8.5c0.4,0.4,0.8,0.7,1.3,0.9c0.5,0.2,1,0.3,1.5,0.3c0.5,0,1-0.1,1.5-0.2c0.5-0.2,1-0.5,1.3-0.8
			c0.4-0.4,0.7-0.8,0.9-1.3c0.2-0.5,0.3-1,0.4-1.5c0-0.5-0.1-1-0.2-1.5c-0.2-0.5-0.5-1-0.8-1.3l-7.9-8.5c-0.3-0.3-0.5-0.7-0.4-1.2
			c0-0.5,0.2-0.8,0.5-1.1c0.3-0.3,0.7-0.4,1.2-0.4c0.5,0,0.8,0.2,1.1,0.5l7.9,8.5c0.7,0.7,1.2,1.6,1.5,2.5c0.3,0.9,0.5,1.8,0.4,2.8
			c0,0.9-0.2,1.8-0.6,2.7c-0.4,0.9-0.9,1.7-1.7,2.4c-0.7,0.7-1.6,1.2-2.5,1.5c-0.9,0.3-1.8,0.5-2.8,0.4c-0.9,0-1.8-0.2-2.7-0.6
			c-0.9-0.4-1.7-0.9-2.3-1.7L752,89z M767.6,75.1c-0.3-0.4-0.4-0.8-0.3-1.2c0.1-0.4,0.3-0.8,0.6-1.1l9-6.9c0.4-0.3,0.8-0.4,1.2-0.3
			c0.4,0.1,0.8,0.3,1.1,0.6c0.3,0.3,0.4,0.7,0.3,1.2c-0.1,0.4-0.3,0.8-0.6,1.1l-7.7,5.9l3.2,4.2l4.8-3.7c0.4-0.3,0.8-0.4,1.2-0.3
			c0.4,0.1,0.8,0.3,1.1,0.6c0.3,0.4,0.4,0.8,0.3,1.2c-0.1,0.4-0.3,0.8-0.6,1.1l-4.8,3.6l2.9,3.7L787,79c0.4-0.3,0.8-0.4,1.2-0.3
			c0.4,0.1,0.8,0.3,1.1,0.6c0.3,0.4,0.4,0.8,0.3,1.2c-0.1,0.4-0.3,0.8-0.6,1.1l-9,6.9c-0.4,0.3-0.8,0.4-1.2,0.3
			c-0.5-0.1-0.8-0.3-1.1-0.6L767.6,75.1z M784.6,62.3c-0.2-0.4-0.3-0.8-0.2-1.2c0.1-0.4,0.4-0.8,0.7-1c0.4-0.2,0.8-0.3,1.2-0.2
			c0.4,0.1,0.8,0.4,1,0.7l7.8,12.8l8.3-5.1c0.4-0.2,0.8-0.3,1.2-0.2c0.4,0.1,0.8,0.3,1,0.7c0.2,0.4,0.3,0.8,0.2,1.2
			c-0.1,0.4-0.3,0.8-0.7,1l-9.7,5.9c-0.4,0.2-0.8,0.3-1.3,0.2c-0.4-0.1-0.8-0.4-1-0.7L784.6,62.3z M807,48.5c0-0.7,0.3-1.3,0.9-1.6
			c0.3-0.2,0.6-0.2,1-0.1c0.3,0.1,0.6,0.2,0.8,0.4l14,11.8c0.2,0.2,0.3,0.3,0.4,0.5c0.2,0.3,0.2,0.7,0.1,1.2c-0.1,0.4-0.4,0.8-0.8,1
			c-0.7,0.3-1.3,0.3-1.8-0.2l-3.7-3.1l-6.8,3.4c0,0.8,0.1,1.6,0.2,2.4c0.1,0.8,0.1,1.6,0.2,2.4c0,0.4-0.1,0.7-0.2,1
			c-0.2,0.3-0.4,0.5-0.7,0.6c-0.4,0.2-0.9,0.2-1.3,0.1c-0.4-0.2-0.7-0.4-0.9-0.8c0-0.1-0.1-0.2-0.1-0.3c0-0.1-0.1-0.2-0.1-0.3
			L807,48.5z M810.5,52.1c0,0.5,0,1,0.1,1.5c0,0.5,0.1,1,0.1,1.5c0,0.5,0,1,0.1,1.5c0,0.5,0.1,1,0.1,1.6l4.3-2.2L810.5,52.1z
			 M834.3,42.7c-0.3-1-0.4-1.9-0.3-2.9c0.1-1,0.3-1.9,0.8-2.7c0.4-0.8,1-1.6,1.7-2.2c0.7-0.6,1.6-1.1,2.5-1.4
			c0.7-0.2,1.4-0.4,2.1-0.4c0.7,0,1.4,0.1,2.1,0.3c0.7,0.2,1.3,0.5,1.9,0.8c0.6,0.4,1.1,0.8,1.6,1.3c0.1,0.1,0.2,0.2,0.3,0.4
			c0.1,0.1,0.1,0.3,0.2,0.4c0.1,0.4,0.1,0.8-0.1,1.2c-0.2,0.4-0.5,0.7-1,0.9c-0.6,0.2-1.2,0.1-1.7-0.5c-0.5-0.6-1.2-1-2-1.3
			c-0.8-0.2-1.6-0.2-2.4,0c-0.5,0.2-1,0.4-1.4,0.8c-0.4,0.4-0.7,0.8-1,1.2c-0.2,0.5-0.4,1-0.4,1.5c0,0.5,0,1.1,0.2,1.6l2,6.2
			c0.2,0.5,0.4,1,0.8,1.4c0.4,0.4,0.8,0.7,1.2,0.9c0.5,0.2,1,0.4,1.5,0.4c0.5,0,1.1,0,1.6-0.2c0.8-0.3,1.5-0.7,2-1.4
			c0.5-0.7,0.8-1.4,0.8-2.2c0-0.3,0.2-0.6,0.4-0.9c0.2-0.3,0.5-0.4,0.7-0.5c0.5-0.2,0.9-0.1,1.3,0.1c0.4,0.2,0.6,0.5,0.8,0.9
			c0.1,0.2,0.1,0.4,0.1,0.6c0,0.7-0.2,1.4-0.4,2.1c-0.3,0.7-0.6,1.3-1,1.9c-0.4,0.6-0.9,1.1-1.5,1.5c-0.6,0.4-1.3,0.8-2,1
			c-1,0.3-1.9,0.4-2.9,0.3c-1-0.1-1.9-0.3-2.7-0.8c-0.8-0.4-1.6-1-2.2-1.7c-0.6-0.7-1.1-1.5-1.4-2.5L834.3,42.7z M852.9,36.8
			c-0.2-1-0.2-1.9-0.1-2.9c0.2-1,0.5-1.8,1-2.6c0.5-0.8,1.1-1.5,1.9-2c0.8-0.6,1.7-1,2.6-1.2c1-0.2,1.9-0.3,2.9-0.1
			c1,0.2,1.8,0.5,2.6,1c0.8,0.5,1.5,1.1,2.1,1.9c0.6,0.8,1,1.7,1.2,2.6l1.5,6.3c0.2,1,0.2,1.9,0.1,2.9c-0.2,0.9-0.5,1.8-1,2.6
			c-0.5,0.8-1.1,1.5-1.9,2.1c-0.8,0.6-1.7,1-2.6,1.2c-1,0.2-1.9,0.2-2.9,0.1c-1-0.2-1.8-0.5-2.6-1c-0.8-0.5-1.5-1.1-2.1-1.9
			c-0.6-0.8-1-1.6-1.2-2.6L852.9,36.8z M857.6,42.4c0.1,0.5,0.3,1,0.7,1.4c0.3,0.4,0.7,0.8,1.1,1c0.4,0.3,0.9,0.4,1.5,0.5
			c0.5,0.1,1,0.1,1.6,0c0.5-0.1,1-0.3,1.5-0.7c0.4-0.3,0.8-0.7,1-1.1c0.3-0.4,0.5-0.9,0.5-1.4c0.1-0.5,0.1-1.1,0-1.6l-1.5-6.3
			c-0.1-0.5-0.3-1-0.7-1.4c-0.3-0.4-0.7-0.8-1.1-1c-0.4-0.3-0.9-0.4-1.4-0.5c-0.5-0.1-1.1-0.1-1.6,0c-0.5,0.1-1,0.3-1.5,0.7
			c-0.4,0.3-0.8,0.7-1,1.1c-0.3,0.4-0.5,0.9-0.5,1.4c-0.1,0.5-0.1,1.1,0,1.6L857.6,42.4z M877.2,39.9c0.4,0.6,1,1.1,1.8,1.5
			c0.8,0.4,1.7,0.5,2.7,0.4c0.5-0.1,1.1-0.2,1.6-0.4c0.5-0.2,0.9-0.5,1.3-0.8c0.4-0.3,0.6-0.7,0.8-1.1c0.2-0.4,0.3-0.9,0.2-1.4
			c-0.1-0.5-0.3-1-0.5-1.3c-0.3-0.4-0.7-0.6-1.1-0.8c-0.4-0.2-0.9-0.3-1.4-0.4c-0.5-0.1-1.1-0.1-1.6,0c-1,0.1-2,0.2-2.8,0
			c-0.9-0.1-1.7-0.3-2.3-0.7c-0.7-0.4-1.2-0.9-1.7-1.5c-0.4-0.7-0.7-1.5-0.9-2.5c-0.1-0.9-0.1-1.7,0.2-2.5c0.2-0.8,0.6-1.4,1.2-2
			c0.5-0.6,1.2-1.1,2.1-1.4c0.8-0.4,1.8-0.6,2.8-0.8c0,0,0.3,0,0.7,0c0.5,0,1,0,1.7,0.2c0.7,0.1,1.4,0.4,2.1,0.7
			c0.7,0.3,1.4,0.9,2,1.6c0.1,0.1,0.2,0.3,0.2,0.4c0.1,0.2,0.1,0.3,0.2,0.5c0.1,0.4-0.1,0.8-0.3,1.2c-0.3,0.4-0.6,0.6-1.2,0.7
			c-0.3,0-0.5,0-0.8-0.1c-0.3-0.1-0.5-0.2-0.7-0.4l0,0c-0.3-0.2-0.5-0.4-0.8-0.7c-0.2-0.2-0.5-0.4-0.8-0.5c-0.3-0.1-0.6-0.2-0.9-0.3
			c-0.3-0.1-0.7-0.1-1.2,0c-1.3,0.2-2.2,0.5-2.7,1.1c-0.5,0.6-0.7,1.2-0.6,1.7c0.1,0.4,0.2,0.8,0.4,1c0.2,0.3,0.5,0.5,0.9,0.6
			c0.4,0.1,0.8,0.2,1.2,0.2c0.5,0,0.9,0,1.4-0.1c1-0.1,2-0.1,3,0c1,0.2,1.8,0.5,2.6,0.9c0.8,0.4,1.4,1,1.9,1.8
			c0.5,0.7,0.8,1.7,1,2.7c0.1,1.1,0.1,2.1-0.2,2.9c-0.3,0.9-0.8,1.6-1.4,2.3c-0.6,0.6-1.4,1.1-2.3,1.5c-0.9,0.4-1.9,0.7-3,0.8
			c-0.2,0-0.6,0-1.2,0.1c-0.6,0-1.3-0.1-2.1-0.3c-0.8-0.2-1.6-0.6-2.4-1.1c-0.8-0.5-1.6-1.3-2.2-2.4c-0.2-0.2-0.3-0.5-0.3-0.8
			c0-0.3,0-0.6,0.1-0.9c0.1-0.3,0.3-0.5,0.5-0.7c0.2-0.2,0.5-0.3,0.8-0.4c0.5-0.1,0.9,0,1.2,0.3C876.7,39.2,876.9,39.5,877.2,39.9z
			 M892.9,26.7c-0.5,0-0.9-0.1-1.2-0.4c-0.3-0.3-0.5-0.7-0.5-1.1s0.1-0.9,0.4-1.2c0.3-0.3,0.7-0.5,1.1-0.5l11.3-0.5
			c0.5,0,0.9,0.1,1.2,0.4c0.3,0.3,0.5,0.7,0.5,1.1c0,0.4-0.1,0.8-0.4,1.2c-0.3,0.3-0.7,0.5-1.1,0.5l-4,0.2l0.7,15
			c0,0.5-0.1,0.9-0.4,1.2c-0.3,0.3-0.7,0.5-1.1,0.5c-0.4,0-0.8-0.1-1.2-0.4c-0.3-0.3-0.5-0.7-0.6-1.1l-0.7-15L892.9,26.7z
			 M918.1,23.9c0.3-0.6,0.9-1,1.5-0.9c0.3,0,0.6,0.1,0.9,0.3c0.3,0.2,0.4,0.5,0.6,0.7l6.4,17.1c0.1,0.2,0.1,0.5,0.1,0.6
			c0,0.4-0.2,0.7-0.5,1.1c-0.3,0.3-0.7,0.5-1.2,0.5c-0.7,0-1.2-0.4-1.5-1.1l-1.7-4.5l-7.6-0.4c-0.4,0.7-0.7,1.5-1,2.2
			c-0.3,0.7-0.7,1.5-1,2.2c-0.2,0.3-0.4,0.6-0.7,0.7c-0.3,0.1-0.6,0.2-0.9,0.2c-0.5,0-0.9-0.2-1.2-0.6c-0.3-0.4-0.4-0.7-0.4-1.1
			c0-0.1,0-0.2,0-0.3c0-0.1,0.1-0.2,0.1-0.3L918.1,23.9z M919.4,28.8c-0.2,0.5-0.5,0.9-0.7,1.4c-0.2,0.4-0.4,0.9-0.6,1.3
			c-0.2,0.4-0.4,0.9-0.7,1.3c-0.2,0.5-0.5,0.9-0.7,1.4l4.8,0.2L919.4,28.8z M934.2,25.8c0.1-0.5,0.3-0.8,0.6-1.1
			c0.4-0.3,0.8-0.4,1.2-0.3l5.6,0.8c1,0.1,1.9,0.5,2.7,1c0.8,0.5,1.5,1.1,2.1,1.9c0.6,0.7,1,1.6,1.2,2.5c0.3,0.9,0.3,1.9,0.2,2.9
			c-0.2,1.3-0.7,2.5-1.4,3.5c-0.7,1-1.7,1.7-2.9,2.2c0.4,0.7,0.9,1.4,1.3,2.2c0.5,0.7,0.9,1.4,1.4,2.1c0.2,0.4,0.3,0.7,0.2,1.1
			c-0.1,0.5-0.3,0.8-0.6,1.1c-0.4,0.3-0.8,0.4-1.2,0.3c-0.5-0.1-0.8-0.3-1.1-0.7l-3.1-5.1l0,0c-0.1-0.1-0.2-0.3-0.3-0.4
			c-0.1-0.1-0.2-0.2-0.4-0.2l-4-0.6l-0.5,3.8c-0.1,0.5-0.3,0.8-0.6,1.1c-0.4,0.3-0.8,0.4-1.2,0.3c-0.5-0.1-0.8-0.3-1.1-0.6
			c-0.3-0.4-0.4-0.8-0.3-1.2L934.2,25.8z M937.2,27.9l-1.1,7.8l4,0.6c0.5,0.1,1.1,0.1,1.6-0.1c0.5-0.1,1-0.3,1.4-0.6
			c0.4-0.3,0.8-0.7,1-1.1c0.3-0.4,0.5-0.9,0.5-1.5c0.1-0.5,0-1.1-0.1-1.6c-0.1-0.5-0.4-1-0.7-1.4c-0.3-0.4-0.7-0.7-1.1-1
			c-0.5-0.3-1-0.5-1.5-0.5L937.2,27.9z M955,29.1c0.1-0.4,0.4-0.8,0.7-1c0.4-0.2,0.8-0.3,1.3-0.2l5.5,1.3c1,0.2,1.8,0.6,2.6,1.2
			c0.8,0.6,1.4,1.3,1.9,2c0.5,0.8,0.8,1.6,1,2.6c0.2,0.9,0.1,1.9-0.1,2.9c-0.3,1.3-0.9,2.4-1.7,3.3c-0.8,0.9-1.9,1.5-3,1.9
			c0.4,0.7,0.7,1.5,1.1,2.3c0.4,0.8,0.8,1.5,1.1,2.2c0.2,0.4,0.2,0.8,0.1,1.1c-0.1,0.4-0.4,0.8-0.7,1c-0.4,0.2-0.8,0.3-1.3,0.2
			s-0.8-0.4-1.1-0.8l-2.7-5.4l0,0c-0.1-0.1-0.2-0.3-0.3-0.4c-0.1-0.1-0.2-0.2-0.4-0.2l-4-1l-0.9,3.7c-0.1,0.4-0.4,0.8-0.7,1
			c-0.4,0.2-0.8,0.3-1.2,0.2c-0.4-0.1-0.8-0.4-1-0.7c-0.2-0.4-0.3-0.8-0.2-1.3L955,29.1z M957.8,31.5l-1.8,7.6l3.9,0.9
			c0.5,0.1,1,0.2,1.6,0.1c0.5-0.1,1-0.3,1.5-0.5c0.4-0.3,0.8-0.6,1.1-1c0.3-0.4,0.5-0.9,0.7-1.4c0.1-0.5,0.1-1,0.1-1.6
			c-0.1-0.5-0.3-1-0.5-1.4c-0.3-0.4-0.6-0.8-1-1.1c-0.4-0.3-0.9-0.5-1.5-0.7L957.8,31.5z M975.1,34.4c0.1-0.4,0.4-0.8,0.8-1
			c0.4-0.2,0.8-0.2,1.3-0.1c0.4,0.1,0.7,0.4,1,0.8c0.2,0.4,0.3,0.8,0.1,1.3l-5,15.9c-0.1,0.4-0.4,0.8-0.8,1
			c-0.4,0.2-0.8,0.2-1.3,0.1c-0.4-0.1-0.7-0.4-1-0.8c-0.2-0.4-0.3-0.8-0.1-1.3L975.1,34.4z M982,41.8c0.4-0.9,0.9-1.7,1.6-2.4
			c0.7-0.7,1.4-1.2,2.3-1.6c0.9-0.4,1.8-0.6,2.7-0.6c1,0,1.9,0.1,2.9,0.5c0.7,0.3,1.3,0.6,1.9,1.1c0.6,0.4,1,0.9,1.4,1.5
			c0.4,0.6,0.7,1.2,0.9,1.8c0.2,0.7,0.4,1.3,0.4,2c0,0.2,0,0.3,0,0.5c0,0.2-0.1,0.3-0.1,0.4c-0.1,0.4-0.4,0.7-0.8,0.9
			c-0.4,0.2-0.8,0.2-1.3,0c-0.6-0.2-1-0.7-1-1.5c0-0.8-0.2-1.5-0.7-2.2c-0.5-0.7-1.1-1.2-1.9-1.5c-0.5-0.2-1.1-0.3-1.6-0.3
			c-0.5,0-1,0.1-1.5,0.3c-0.5,0.2-0.9,0.5-1.3,0.9c-0.4,0.4-0.7,0.8-0.9,1.3l-2.3,6.1c-0.2,0.5-0.3,1-0.2,1.6c0,0.5,0.2,1,0.4,1.5
			c0.2,0.5,0.5,0.9,0.9,1.3c0.4,0.4,0.8,0.7,1.3,0.9c0.8,0.3,1.6,0.4,2.4,0.1c0.8-0.2,1.5-0.6,2.1-1.2c0.2-0.2,0.5-0.3,0.9-0.4
			c0.3-0.1,0.6,0,0.9,0c0.5,0.2,0.8,0.5,0.9,0.9c0.1,0.4,0.2,0.8,0,1.2c-0.1,0.2-0.2,0.4-0.3,0.5c-0.5,0.5-1,1-1.7,1.4
			c-0.6,0.4-1.3,0.6-2,0.8c-0.7,0.2-1.4,0.2-2.1,0.2c-0.7,0-1.5-0.2-2.2-0.5c-0.9-0.4-1.7-0.9-2.4-1.6c-0.7-0.7-1.2-1.5-1.6-2.3
			c-0.4-0.9-0.6-1.8-0.6-2.7c0-1,0.1-1.9,0.5-2.8L982,41.8z M1002.6,44.7c0.2-0.4,0.5-0.7,0.9-0.8c0.4-0.1,0.9-0.1,1.3,0.1l10.2,5
			c0.4,0.2,0.7,0.5,0.8,0.9c0.1,0.4,0.1,0.8-0.1,1.3c-0.2,0.4-0.5,0.7-0.9,0.8c-0.4,0.1-0.8,0.1-1.2-0.1l-8.7-4.3l-2.3,4.7l5.4,2.7
			c0.4,0.2,0.7,0.5,0.8,0.9c0.1,0.4,0.1,0.8-0.1,1.2c-0.2,0.4-0.5,0.7-0.9,0.8c-0.4,0.2-0.8,0.1-1.2-0.1l-5.4-2.7l-2.1,4.2l8.7,4.3
			c0.4,0.2,0.7,0.5,0.8,0.9c0.1,0.4,0.1,0.8-0.1,1.2c-0.2,0.4-0.5,0.7-0.9,0.8c-0.4,0.1-0.8,0.1-1.2-0.1l-10.2-5
			c-0.4-0.2-0.7-0.5-0.8-0.9c-0.1-0.4-0.1-0.8,0.1-1.3L1002.6,44.7z M1018.3,58.9c0.5-0.9,1.2-1.6,2-2.1c0.8-0.6,1.6-0.9,2.5-1.1
			c0.9-0.2,1.8-0.3,2.8-0.1c1,0.1,1.9,0.5,2.7,1c0.9,0.5,1.6,1.2,2.1,2c0.6,0.8,0.9,1.7,1.2,2.6c0.2,0.9,0.3,1.8,0.1,2.8
			c-0.1,1-0.5,1.9-1,2.7l-5.8,9.5c-0.2,0.4-0.6,0.6-1,0.8c-0.4,0.1-0.8,0-1.2-0.2c-0.4-0.2-0.6-0.6-0.7-1c-0.1-0.4,0-0.9,0.2-1.3
			l5.8-9.5c0.3-0.5,0.5-1,0.5-1.5c0.1-0.5,0.1-1-0.1-1.5c-0.1-0.5-0.3-1-0.7-1.4c-0.3-0.4-0.7-0.8-1.2-1.1c-0.5-0.3-1-0.5-1.5-0.6
			c-0.5-0.1-1-0.1-1.5,0.1c-0.5,0.1-1,0.3-1.4,0.6c-0.4,0.3-0.8,0.7-1.1,1.2l-5.8,9.5c-0.2,0.4-0.6,0.6-1,0.8
			c-0.4,0.1-0.8,0-1.2-0.2c-0.4-0.2-0.6-0.6-0.7-1c-0.1-0.4,0-0.9,0.2-1.3L1018.3,58.9z M1033.7,77.7c-0.1,0.7-0.1,1.5,0.2,2.3
			c0.3,0.8,0.8,1.6,1.7,2.2c0.4,0.3,0.9,0.6,1.4,0.8c0.5,0.2,1,0.3,1.5,0.4c0.5,0,0.9,0,1.4-0.2c0.4-0.2,0.8-0.5,1.1-0.9
			c0.3-0.4,0.5-0.9,0.6-1.3c0-0.5,0-0.9-0.2-1.3c-0.2-0.4-0.4-0.9-0.8-1.3c-0.3-0.4-0.7-0.8-1.2-1.1c-0.8-0.6-1.5-1.3-2-2
			c-0.5-0.7-0.9-1.4-1.2-2.1c-0.2-0.7-0.3-1.5-0.1-2.3c0.1-0.8,0.5-1.6,1.1-2.4c0.5-0.7,1.2-1.3,1.9-1.6c0.7-0.4,1.4-0.6,2.2-0.6
			c0.8,0,1.6,0.1,2.5,0.4c0.9,0.3,1.7,0.8,2.5,1.4c0,0,0.2,0.2,0.6,0.5s0.7,0.7,1.1,1.3c0.4,0.6,0.7,1.2,1,2
			c0.3,0.8,0.4,1.6,0.3,2.6c0,0.1-0.1,0.3-0.1,0.5c-0.1,0.2-0.1,0.3-0.3,0.5c-0.2,0.3-0.6,0.5-1,0.6c-0.5,0.1-0.9,0-1.3-0.3
			c-0.2-0.2-0.4-0.4-0.5-0.6c-0.1-0.2-0.2-0.5-0.2-0.7l0,0c0-0.3,0-0.7-0.1-1s-0.1-0.6-0.2-0.9c-0.1-0.3-0.2-0.6-0.4-0.9
			c-0.2-0.3-0.5-0.6-0.8-0.8c-1-0.8-1.9-1.1-2.7-1.1c-0.7,0.1-1.3,0.3-1.7,0.8c-0.3,0.3-0.4,0.7-0.4,1c0,0.3,0,0.7,0.2,1
			c0.2,0.3,0.4,0.7,0.7,1c0.3,0.3,0.7,0.7,1.1,1c0.8,0.6,1.5,1.3,2.1,2.1c0.6,0.8,1,1.6,1.2,2.5c0.2,0.9,0.3,1.7,0.1,2.6
			c-0.2,0.9-0.6,1.8-1.2,2.6c-0.7,0.9-1.4,1.5-2.2,1.9c-0.8,0.4-1.7,0.6-2.6,0.6c-0.9,0-1.8-0.2-2.7-0.5c-0.9-0.4-1.8-0.9-2.7-1.5
			c-0.2-0.1-0.5-0.4-0.9-0.8c-0.4-0.4-0.9-1-1.3-1.7c-0.4-0.7-0.7-1.5-0.9-2.5c-0.2-1-0.2-2.1,0.1-3.3c0-0.3,0.2-0.6,0.4-0.8
			c0.2-0.2,0.4-0.4,0.7-0.5c0.3-0.1,0.5-0.2,0.8-0.2c0.3,0,0.6,0.1,0.8,0.3c0.4,0.3,0.6,0.6,0.7,1.1
			C1033.8,76.8,1033.8,77.3,1033.7,77.7z M1055.7,78.5c0.3-0.3,0.7-0.5,1.1-0.5c0.5,0,0.8,0.1,1.2,0.4l8.4,7.7
			c0.3,0.3,0.5,0.7,0.5,1.1c0,0.4-0.1,0.8-0.4,1.2c-0.3,0.3-0.7,0.5-1.1,0.5c-0.4,0-0.8-0.1-1.2-0.4l-7.2-6.6l-3.6,3.9l4.4,4.1
			c0.3,0.3,0.5,0.7,0.5,1.1c0,0.4-0.1,0.8-0.4,1.2c-0.3,0.3-0.7,0.5-1.1,0.5c-0.4,0-0.8-0.1-1.2-0.4l-4.4-4.1l-3.2,3.5l7.2,6.6
			c0.3,0.3,0.5,0.7,0.5,1.1c0,0.4-0.1,0.8-0.4,1.2c-0.3,0.3-0.7,0.5-1.1,0.5c-0.4,0-0.8-0.1-1.2-0.4l-8.4-7.7
			c-0.3-0.3-0.5-0.7-0.5-1.1c0-0.5,0.1-0.8,0.4-1.2L1055.7,78.5z M1078.9,101.6c0.4-0.3,0.8-0.4,1.2-0.4c0.5,0,0.8,0.2,1.1,0.6
			l3.6,4.4c0.6,0.8,1.1,1.7,1.4,2.6c0.3,0.9,0.4,1.9,0.3,2.8c-0.1,0.9-0.4,1.8-0.8,2.7c-0.4,0.8-1,1.6-1.8,2.2l-4.2,3.4
			c-0.8,0.6-1.6,1.1-2.5,1.3c-0.9,0.3-1.8,0.3-2.8,0.2c-0.9-0.1-1.8-0.4-2.7-0.8c-0.9-0.5-1.6-1.1-2.2-1.8l-3.6-4.4
			c-0.3-0.4-0.4-0.8-0.4-1.2c0-0.5,0.2-0.8,0.6-1.1L1078.9,101.6z M1079.7,105.2l-10.3,8.4l2.6,3.1c0.4,0.4,0.8,0.8,1.2,1
			c0.5,0.2,1,0.4,1.5,0.5c0.5,0.1,1,0,1.5-0.1c0.5-0.1,1-0.4,1.4-0.7l4.2-3.4c0.4-0.3,0.8-0.7,1-1.2c0.2-0.5,0.4-0.9,0.4-1.5
			c0-0.5,0-1-0.2-1.5c-0.2-0.5-0.4-1-0.8-1.4L1079.7,105.2z M1091.8,118c0.4-0.3,0.8-0.3,1.2-0.2c0.4,0.1,0.8,0.3,1,0.7l6.3,9.4
			c0.3,0.4,0.3,0.8,0.2,1.2c-0.1,0.4-0.3,0.8-0.7,1c-0.4,0.2-0.8,0.3-1.2,0.2c-0.4-0.1-0.8-0.3-1-0.7l-5.4-8.1l-4.4,2.9l3.3,5
			c0.3,0.4,0.3,0.8,0.3,1.2c-0.1,0.4-0.3,0.8-0.7,1c-0.4,0.3-0.8,0.3-1.2,0.3c-0.4-0.1-0.8-0.3-1-0.7l-3.3-5l-3.9,2.6l5.4,8.1
			c0.3,0.4,0.3,0.8,0.3,1.2c-0.1,0.4-0.3,0.8-0.7,1c-0.4,0.3-0.8,0.3-1.2,0.3c-0.4-0.1-0.8-0.3-1-0.7l-6.3-9.4
			c-0.3-0.4-0.3-0.8-0.2-1.2c0.1-0.4,0.3-0.8,0.7-1L1091.8,118z M806.9,427.3c0.2-0.4,0.6-0.7,1.1-0.9c0.5-0.1,0.9-0.1,1.4,0.1
			l5.4,2.9c0.9,0.5,1.7,1.2,2.4,2c0.6,0.8,1.1,1.7,1.4,2.6c0.3,1,0.4,1.9,0.3,3c-0.1,1-0.4,2-0.9,3c-0.5,1-1.2,1.7-2,2.4
			c-0.8,0.6-1.7,1.1-2.7,1.4c-1,0.3-2,0.4-3,0.3c-1-0.1-2-0.4-3-0.9l-3.8-2.1l-2,3.6c-0.2,0.4-0.6,0.7-1,0.9s-0.9,0.1-1.3-0.1
			c-0.4-0.2-0.7-0.6-0.9-1.1c-0.1-0.5-0.1-0.9,0.1-1.4L806.9,427.3z M809.2,430.6l-4,7.5l3.8,2.1c0.5,0.3,1.1,0.5,1.6,0.5
			c0.6,0.1,1.1,0,1.6-0.1c0.5-0.2,1-0.4,1.5-0.8c0.4-0.3,0.8-0.8,1.1-1.3c0.3-0.5,0.4-1.1,0.5-1.6c0-0.6,0-1.1-0.2-1.6
			c-0.2-0.5-0.4-1-0.8-1.5c-0.4-0.4-0.8-0.8-1.3-1.1L809.2,430.6z M828.7,437.3c0.6-0.5,1.2-0.6,1.9-0.3c0.3,0.1,0.6,0.4,0.8,0.7
			c0.2,0.3,0.3,0.6,0.3,0.9l0,19.7c0,0.3,0,0.5-0.1,0.7c-0.2,0.4-0.5,0.7-0.9,0.9c-0.4,0.2-0.9,0.2-1.4,0c-0.7-0.3-1.1-0.8-1.1-1.6
			l0-5.2l-7.5-3.2c-0.6,0.6-1.3,1.2-1.9,1.8c-0.6,0.6-1.2,1.2-1.8,1.8c-0.3,0.3-0.6,0.4-0.9,0.5c-0.3,0-0.6,0-1-0.1
			c-0.5-0.2-0.8-0.5-1-1c-0.1-0.5-0.1-0.9,0-1.3c0-0.1,0.1-0.2,0.2-0.3c0.1-0.1,0.1-0.2,0.2-0.3L828.7,437.3z M828.2,442.7
			c-0.4,0.4-0.8,0.8-1.2,1.1c-0.4,0.4-0.8,0.7-1.1,1.1c-0.4,0.4-0.8,0.7-1.2,1.1s-0.8,0.8-1.2,1.2l4.8,2L828.2,442.7z M842.7,443.9
			c0.1-0.5,0.4-0.8,0.9-1.1c0.4-0.2,0.9-0.3,1.4-0.1l5.8,1.8c1,0.3,1.9,0.8,2.7,1.5c0.8,0.7,1.4,1.4,1.9,2.3
			c0.5,0.9,0.8,1.8,0.9,2.8c0.1,1,0,2-0.3,3.1c-0.4,1.4-1.1,2.5-2.1,3.4c-1,0.9-2.1,1.5-3.4,1.8c0.3,0.8,0.7,1.7,1.1,2.5
			c0.4,0.9,0.7,1.7,1.1,2.5c0.2,0.4,0.2,0.8,0.1,1.2c-0.1,0.5-0.4,0.8-0.9,1.1c-0.4,0.2-0.9,0.3-1.4,0.1c-0.5-0.1-0.8-0.5-1.1-0.9
			l-2.5-5.9l0,0c-0.1-0.2-0.2-0.3-0.3-0.4c-0.1-0.1-0.2-0.2-0.4-0.2l-4.2-1.3l-1.2,4c-0.1,0.5-0.4,0.8-0.9,1.1
			c-0.4,0.2-0.9,0.3-1.3,0.1c-0.5-0.1-0.8-0.4-1.1-0.9c-0.2-0.4-0.3-0.9-0.1-1.4L842.7,443.9z M845.6,446.6l-2.5,8.1l4.2,1.3
			c0.6,0.2,1.1,0.2,1.7,0.2c0.6-0.1,1.1-0.2,1.6-0.5c0.5-0.3,0.9-0.6,1.3-1c0.4-0.4,0.6-0.9,0.8-1.5c0.2-0.6,0.2-1.1,0.2-1.7
			c-0.1-0.6-0.2-1.1-0.5-1.6c-0.3-0.5-0.6-0.9-1-1.3c-0.4-0.4-0.9-0.6-1.5-0.8L845.6,446.6z M862.7,449.7c0.1-0.5,0.3-0.9,0.8-1.1
			c0.4-0.3,0.8-0.4,1.3-0.3l6,1.2c1.1,0.2,2,0.6,2.9,1.2c0.9,0.6,1.6,1.3,2.1,2.1c0.6,0.8,1,1.7,1.2,2.7c0.2,1,0.2,2,0,3.1
			c-0.3,1.4-0.8,2.6-1.7,3.6c-0.9,1-1.9,1.7-3.2,2.2c0.4,0.8,0.9,1.6,1.3,2.4c0.5,0.8,0.9,1.6,1.3,2.3c0.2,0.4,0.3,0.8,0.2,1.2
			c-0.1,0.5-0.3,0.9-0.8,1.2c-0.4,0.3-0.9,0.4-1.3,0.3c-0.5-0.1-0.9-0.4-1.2-0.8l-3.1-5.7l0,0c-0.1-0.2-0.2-0.3-0.3-0.4
			c-0.1-0.1-0.3-0.2-0.4-0.2l-4.3-0.8l-0.8,4.1c-0.1,0.5-0.3,0.9-0.8,1.1c-0.4,0.3-0.8,0.4-1.3,0.3c-0.5-0.1-0.9-0.3-1.1-0.8
			c-0.3-0.4-0.4-0.9-0.3-1.3L862.7,449.7z M865.8,452.1l-1.6,8.3l4.3,0.8c0.6,0.1,1.1,0.1,1.7,0c0.6-0.1,1.1-0.3,1.5-0.6
			c0.5-0.3,0.9-0.7,1.2-1.1c0.3-0.5,0.5-1,0.7-1.6c0.1-0.6,0.1-1.1,0-1.7c-0.1-0.6-0.3-1-0.6-1.5c-0.3-0.4-0.7-0.8-1.2-1.2
			c-0.5-0.3-1-0.5-1.6-0.7L865.8,452.1z M883.3,453.3c0.1-0.5,0.3-0.9,0.7-1.2c0.4-0.3,0.8-0.4,1.3-0.4c0.5,0.1,0.9,0.3,1.2,0.7
			c0.3,0.4,0.4,0.8,0.4,1.3l-2.2,17.8c-0.1,0.5-0.3,0.9-0.7,1.2c-0.4,0.3-0.8,0.4-1.3,0.4c-0.5-0.1-0.9-0.3-1.2-0.7
			c-0.3-0.4-0.4-0.8-0.4-1.3L883.3,453.3z M892,454.3c0-0.5,0.2-0.9,0.6-1.2c0.4-0.3,0.8-0.5,1.3-0.5c0.5,0,0.9,0.2,1.2,0.6
			c0.3,0.4,0.5,0.8,0.5,1.3l-0.8,16.1l10.5,0.5c0.5,0,0.9,0.2,1.2,0.6c0.3,0.4,0.5,0.8,0.4,1.3c0,0.5-0.2,0.9-0.6,1.2
			c-0.3,0.3-0.8,0.5-1.3,0.5l-12.2-0.6c-0.5,0-0.9-0.2-1.2-0.6c-0.3-0.4-0.5-0.8-0.5-1.3L892,454.3z M911.7,455
			c0-0.5,0.1-0.9,0.5-1.3c0.3-0.4,0.7-0.6,1.2-0.6c0.5,0,0.9,0.1,1.3,0.5c0.4,0.3,0.6,0.7,0.6,1.2L916,471l10.5-0.5
			c0.5,0,0.9,0.1,1.3,0.4c0.3,0.3,0.5,0.7,0.6,1.2c0,0.5-0.1,0.9-0.4,1.3c-0.3,0.4-0.7,0.6-1.2,0.6l-12.2,0.6
			c-0.5,0-0.9-0.1-1.3-0.5c-0.4-0.3-0.6-0.7-0.6-1.2L911.7,455z M931.4,454c-0.1-0.5,0-0.9,0.3-1.3c0.3-0.4,0.7-0.6,1.2-0.7
			l12.1-1.8c0.5-0.1,0.9,0,1.3,0.3c0.4,0.3,0.6,0.7,0.7,1.2c0.1,0.5,0,0.9-0.3,1.3c-0.3,0.4-0.7,0.6-1.2,0.7l-10.4,1.5l0.8,5.6
			l6.4-0.9c0.5-0.1,0.9,0,1.3,0.3c0.4,0.3,0.6,0.7,0.7,1.2c0.1,0.5,0,0.9-0.3,1.3c-0.3,0.4-0.7,0.6-1.2,0.7l-6.4,0.9l0.7,5l10.4-1.5
			c0.5-0.1,0.9,0,1.3,0.3c0.4,0.3,0.6,0.7,0.7,1.2c0.1,0.5,0,0.9-0.3,1.3c-0.3,0.4-0.7,0.6-1.2,0.7l-12.1,1.8
			c-0.5,0.1-0.9,0-1.3-0.3c-0.4-0.3-0.6-0.7-0.7-1.2L931.4,454z M951.9,450.7c-0.1-0.5-0.1-0.9,0.2-1.3c0.2-0.4,0.6-0.7,1.1-0.8
			l5.9-1.5c1-0.3,2.1-0.3,3.1-0.2c1,0.2,2,0.5,2.8,1c0.9,0.5,1.6,1.2,2.2,2c0.6,0.8,1.1,1.7,1.3,2.8c0.4,1.4,0.4,2.7,0,4
			c-0.3,1.3-1,2.4-2,3.3c0.7,0.5,1.5,1.1,2.2,1.6c0.8,0.5,1.5,1.1,2.2,1.5c0.4,0.3,0.6,0.6,0.7,1c0.1,0.5,0.1,0.9-0.2,1.4
			c-0.2,0.4-0.6,0.7-1.1,0.8c-0.5,0.1-1,0-1.4-0.2l-5.2-3.8l0,0c-0.2-0.1-0.3-0.2-0.5-0.2c-0.2,0-0.3-0.1-0.5,0l-4.3,1.1l1,4
			c0.1,0.5,0.1,0.9-0.2,1.3c-0.2,0.4-0.6,0.7-1.1,0.8c-0.5,0.1-0.9,0.1-1.3-0.2c-0.4-0.2-0.7-0.6-0.8-1.1L951.9,450.7z M955.7,451.5
			l2.1,8.2l4.2-1.1c0.6-0.1,1.1-0.4,1.5-0.7c0.5-0.3,0.8-0.7,1.1-1.2c0.3-0.5,0.5-1,0.6-1.5c0.1-0.6,0.1-1.1-0.1-1.7
			c-0.1-0.6-0.4-1.1-0.7-1.5c-0.3-0.4-0.8-0.8-1.2-1.1c-0.5-0.3-1-0.4-1.6-0.5c-0.6-0.1-1.1-0.1-1.7,0.1L955.7,451.5z M973.6,450.4
			c-0.4-1-0.5-2-0.5-3.1c0.1-1,0.3-2,0.7-2.9c0.4-0.9,1-1.7,1.8-2.4c0.8-0.7,1.6-1.3,2.7-1.6c1-0.4,2-0.5,3.1-0.5
			c1,0.1,2,0.3,2.9,0.7c0.9,0.4,1.7,1,2.5,1.8c0.7,0.8,1.3,1.6,1.6,2.6l2.4,6.5c0.4,1,0.5,2,0.5,3.1c-0.1,1-0.3,2-0.7,2.9
			c-0.4,0.9-1,1.7-1.8,2.5c-0.8,0.7-1.6,1.3-2.6,1.6c-1,0.4-2,0.5-3.1,0.5c-1-0.1-2-0.3-2.9-0.7c-0.9-0.4-1.7-1-2.5-1.7
			c-0.7-0.7-1.3-1.6-1.6-2.6L973.6,450.4z M979.4,455.8c0.2,0.5,0.5,1,0.9,1.4c0.4,0.4,0.8,0.7,1.4,1c0.5,0.2,1,0.4,1.6,0.4
			c0.6,0,1.1-0.1,1.7-0.3c0.6-0.2,1.1-0.5,1.5-0.9c0.4-0.4,0.7-0.8,1-1.3c0.2-0.5,0.4-1,0.4-1.6c0-0.6-0.1-1.1-0.3-1.7l-2.4-6.6
			c-0.2-0.5-0.5-1-0.9-1.4c-0.4-0.4-0.8-0.7-1.4-1c-0.5-0.2-1-0.4-1.6-0.4c-0.6,0-1.1,0.1-1.7,0.3c-0.6,0.2-1.1,0.5-1.5,0.9
			c-0.4,0.4-0.7,0.8-1,1.3c-0.2,0.5-0.4,1-0.4,1.6c0,0.6,0.1,1.1,0.3,1.7L979.4,455.8z M1000.2,449c0.6,0.5,1.4,0.8,2.3,0.9
			c0.9,0.1,1.9-0.1,2.9-0.5c0.5-0.3,1-0.6,1.4-0.9c0.4-0.4,0.8-0.8,1.1-1.2c0.3-0.4,0.4-0.9,0.5-1.4s0-1-0.3-1.5
			c-0.3-0.5-0.6-0.9-1-1.2c-0.4-0.3-0.9-0.4-1.4-0.5c-0.5-0.1-1,0-1.6,0.1c-0.6,0.1-1.1,0.3-1.7,0.6c-1,0.5-1.9,0.8-2.9,1
			c-0.9,0.2-1.8,0.2-2.6,0.1c-0.8-0.1-1.6-0.5-2.2-1c-0.7-0.5-1.3-1.3-1.7-2.2c-0.4-0.9-0.7-1.7-0.7-2.6c0-0.9,0.1-1.7,0.5-2.4
			c0.4-0.8,0.9-1.5,1.6-2.2c0.7-0.7,1.6-1.2,2.6-1.8c0,0,0.3-0.1,0.7-0.3c0.5-0.2,1.1-0.3,1.8-0.4c0.7-0.1,1.5-0.1,2.4,0
			c0.9,0.1,1.7,0.4,2.6,1c0.1,0.1,0.2,0.2,0.4,0.3s0.3,0.3,0.3,0.5c0.2,0.4,0.2,0.8,0.1,1.3c-0.1,0.5-0.4,0.9-0.9,1.1
			c-0.3,0.1-0.5,0.2-0.8,0.2c-0.3,0-0.5,0-0.8-0.1l0,0c-0.3-0.1-0.7-0.3-1-0.4c-0.3-0.1-0.7-0.2-1-0.3c-0.3-0.1-0.7-0.1-1.1,0
			c-0.4,0.1-0.8,0.2-1.2,0.4c-1.3,0.6-2,1.3-2.3,2c-0.3,0.8-0.3,1.4,0,2c0.2,0.4,0.5,0.7,0.8,0.9c0.3,0.2,0.7,0.3,1.1,0.3
			c0.4,0,0.8,0,1.3-0.2c0.5-0.1,1-0.3,1.4-0.6c1-0.5,2-0.8,3.1-1c1-0.2,2-0.2,3,0c0.9,0.2,1.8,0.6,2.6,1.2c0.8,0.6,1.4,1.4,1.9,2.4
			c0.5,1.1,0.8,2.1,0.8,3.1c0,1-0.2,1.9-0.7,2.8c-0.4,0.9-1,1.6-1.8,2.4c-0.8,0.7-1.7,1.3-2.8,1.8c-0.2,0.1-0.6,0.3-1.2,0.5
			c-0.6,0.2-1.4,0.4-2.2,0.4c-0.9,0.1-1.8,0-2.9-0.3c-1-0.3-2.1-0.8-3.1-1.7c-0.3-0.2-0.5-0.4-0.6-0.7c-0.1-0.3-0.2-0.6-0.2-0.9
			c0-0.3,0.1-0.6,0.2-0.9c0.2-0.3,0.4-0.5,0.7-0.6c0.4-0.2,0.9-0.3,1.4-0.1C999.5,448.5,999.9,448.7,1000.2,449z"/>
	</g>
</g>
<g>
	<path class="st0" d="M578.7,179.5h-34.2c-6.7-22.8-16.8-44.5-30-64.5c-14.5-22-32.3-41.4-53.1-57.7c-20.9-16.5-44.2-29.3-69.3-38.1
		c-25.9-9.1-53-13.7-80.7-13.7c-41.9,0-83.2,10.8-119.5,31.4c-32.1,18.2-60.1,43.9-81,74.4c-5.4-2.3-15.1-6.3-16.5-6.8l-7.7-3.1
		l9.6,34c-7.4,14.1-13.5,28.9-18,44.2h-34c-22.4,0-40.7,18.3-40.7,40.7v56.5c0,22.4,18.3,40.7,40.7,40.7h34.2
		c9,30.3,23.6,58.3,43.5,83.1c20.4,25.4,45.1,46.1,73.6,61.6c1.3,2,2.7,3.8,4.3,5.4c6.3,6.4,14.7,9.1,23.6,7.6
		c28,10.9,57.6,16.4,87.9,16.4c27.7,0,54.8-4.6,80.7-13.7c25-8.8,48.3-21.6,69.3-38.1c20.7-16.3,38.6-35.7,53.1-57.7
		c13.2-20,23.2-41.7,30-64.5h34.2c22.4,0,40.7-18.3,40.7-40.7v-56.5C619.4,197.7,601.2,179.5,578.7,179.5z M551.4,209.7h27.3
		c5.7,0,10.4,4.7,10.4,10.4v56.5c0,5.7-4.7,10.4-10.4,10.4h-27.3c2-12.7,3.1-25.7,3.1-38.7S553.4,222.5,551.4,209.7z M71.6,287.1
		H44.3c-5.7,0-10.4-4.7-10.4-10.4v-56.5c0-5.7,4.7-10.4,10.4-10.4h27.3c-2,12.7-3.1,25.7-3.1,38.7C68.5,261.4,69.6,274.4,71.6,287.1
		z"/>
	<g>
		<g>
			<path class="st4" d="M578.7,306.5h-70.3c-16.4,0-29.8-13.4-29.8-29.8v-56.5c0-16.4,13.4-29.8,29.8-29.8h70.3
				c16.4,0,29.8,13.4,29.8,29.8v56.5C608.5,293.1,595.2,306.5,578.7,306.5z M508.5,198.9c-11.7,0-21.3,9.6-21.3,21.3v56.5
				c0,11.7,9.6,21.3,21.3,21.3h70.3c11.7,0,21.3-9.6,21.3-21.3v-56.5c0-11.7-9.6-21.3-21.3-21.3L508.5,198.9L508.5,198.9z"/>
		</g>
		<g>
			<path class="st4" d="M114.5,306.5H44.3c-16.4,0-29.8-13.4-29.8-29.8v-56.5c0-16.4,13.4-29.8,29.8-29.8h70.3
				c16.4,0,29.8,13.4,29.8,29.8v56.5C144.4,293.1,131,306.5,114.5,306.5z M44.3,198.9c-11.7,0-21.3,9.6-21.3,21.3v56.5
				c0,11.7,9.6,21.3,21.3,21.3h70.3c11.7,0,21.3-9.6,21.3-21.3v-56.5c0-11.7-9.6-21.3-21.3-21.3L44.3,198.9L44.3,198.9z"/>
		</g>
		<g>
			<circle class="st5" cx="311.5" cy="248.4" r="232.1"/>
		</g>
		<g>
			<circle class="st6" cx="311.5" cy="247.4" r="205.5"/>
		</g>
		<g>
			<g>
				<path class="st7" d="M233,191.7c0,2.5-2,4.5-4.5,4.5h-5.1c-1,0-1.9-0.8-2-1.8l-0.6-4.1h-0.5c-2.5,5-4.3,6.9-9.3,6.9
					c-5.4,0-8.4-3.4-8.4-9.9v-37.2c0-4.1,1.5-7.5,4.4-10.4l12.5-12.3c0.9-0.9,1.4-2,1.4-3.3v-22.5c0-1-0.8-2-1.8-2h-1
					c-3.3,0-3.1,3.4-3.1,3.4v9.5c0,2.5-2,4.5-4.5,4.5h-3.4c-2.5,0-4.5-2-4.5-4.5v-9c0-8.8,5.9-14.4,15.3-14.4
					c9.3,0,15.2,5.6,15.2,14.4L233,191.7L233,191.7z M220.7,140.5l-4.6,4.9c-0.9,0.9-1.3,1.9-1.3,3.1v33.6c0,1.9,1.3,2.9,3,2.9
					c1.6,0,2.9-1.5,2.9-3.5L220.7,140.5L220.7,140.5z"/>
			</g>
			<g>
				<path class="st7" d="M242.8,166.4h3.3c2.5,0,4.5,2,4.5,4.5v10.5c0,4.5,1.4,5.3,3,5.3c1.5,0,2.9-0.8,2.9-5.3v-18.8
					c0-13.9-18.2-23.8-18.2-37.4v-21.7c0-8.8,5.9-14.4,15.3-14.4c9.3,0,15.2,5.6,15.2,14.4V123c0,2.5-2,4.5-4.5,4.5H261
					c-2.5,0-4.5-2-4.5-4.5v-18.2c0-4.5-1.4-5.3-2.9-5.3c-1.6,0-3,0.8-3,5.3V122c0,8.6,18.2,20.5,18.2,33.3v27.4
					c0,8.9-5.9,14.4-15.2,14.4c-9.4,0-15.3-5.5-15.3-14.4v-11.9C238.3,168.4,240.3,166.4,242.8,166.4z"/>
			</g>
			<g>
				<path class="st7" d="M304.1,191.7c0,2.5-2,4.5-4.5,4.5h-5.1c-1,0-1.9-0.8-2-1.8l-0.6-4.1h-0.5c-2.5,5-4.3,6.9-9.3,6.9
					c-5.4,0-8.4-3.4-8.4-9.9v-37.2c0-4.1,1.5-7.5,4.4-10.4l12.5-12.3c0.9-0.9,1.4-2,1.4-3.3v-22.5c0-1-0.8-2-1.8-2h-1
					c-3.3,0-3.1,3.4-3.1,3.4v9.5c0,2.5-2,4.5-4.5,4.5h-3.4c-2.5,0-4.5-2-4.5-4.5v-9c0-8.8,5.9-14.4,15.3-14.4
					c9.3,0,15.2,5.6,15.2,14.4v88.2L304.1,191.7L304.1,191.7z M291.9,140.5l-4.6,4.9c-0.9,0.9-1.3,1.9-1.3,3.1v33.6
					c0,1.9,1.3,2.9,3,2.9c1.6,0,2.9-1.5,2.9-3.5V140.5z"/>
			</g>
			<g>
				<path class="st7" d="M339.8,73.8v118c0,2.5-2,4.5-4.5,4.5h-4.9c-1,0-1.8-0.6-2-1.6l-0.6-3.5h-0.5c-1.9,3.1-5.1,6.1-8.8,6.1
					c-4.8,0-9.1-3-9.1-10v-57.8c0-7.1,4.4-10.1,9.1-10.1c3.9,0,6.8,3.1,8.5,6.5h0.5v-52c0-2.5,2-4.5,4.5-4.5h3.3
					C337.8,69.3,339.8,71.3,339.8,73.8z M321.7,179.7c0,4.5,1.4,5.3,3,5.3c1.5,0,2.9-0.8,2.9-5.3v-42.8c0-4.5-1.4-5.3-2.9-5.3
					c-1.6,0-3,0.8-3,5.3V179.7z"/>
			</g>
			<g>
				<path class="st7" d="M375.4,182.8c0,8.9-5.9,14.4-15.1,14.4c-9.4,0-15.3-5.5-15.3-14.4v-79.3c0-8.8,5.9-14.4,15.3-14.4
					c9.3,0,15.1,5.6,15.1,14.4V182.8z M363.1,103.9c0-3.9-1.1-4.3-2.9-4.3c-1.9,0-3,0.4-3,4.3v78.6c0,3.9,1.1,4.1,3,4.1
					c1.8,0,2.9-0.2,2.9-4.1V103.9z"/>
			</g>
			<g>
				<path class="st7" d="M385,166.4h3.3c2.5,0,4.5,2,4.5,4.5v10.5c0,4.5,1.4,5.3,3,5.3c1.5,0,2.9-0.8,2.9-5.3v-18.8
					c0-13.9-18.2-23.8-18.2-37.4v-21.7c0-8.8,5.9-14.4,15.3-14.4c9.3,0,15.2,5.6,15.2,14.4V123c0,2.5-2,4.5-4.5,4.5h-3.3
					c-2.5,0-4.5-2-4.5-4.5v-18.2c0-4.5-1.4-5.3-2.9-5.3c-1.6,0-3,0.8-3,5.3V122c0,8.6,18.2,20.5,18.2,33.3v27.4
					c0,8.9-5.9,14.4-15.2,14.4c-9.4,0-15.3-5.5-15.3-14.4v-11.9C380.5,168.4,382.5,166.4,385,166.4z"/>
			</g>
		</g>
		<g>
			<g>
				<path class="st7" d="M463.3,181.9c-0.2,2.6-0.7,5.2-1.3,7.6c-0.6,2.4-1.5,4.6-2.6,6.5c0.6,0.7,1.4,1.5,2.2,2.4
					c0.9,0.9,1.7,1.8,2.6,2.7s1.7,1.8,2.6,2.7s1.6,1.6,2.2,2.3h-10.7l-1.1-1.2c-0.3-0.3-0.6-0.6-0.8-0.8c-0.2-0.2-0.4-0.3-0.6-0.5
					s-0.3-0.4-0.5-0.6c-0.2-0.2-0.4-0.5-0.7-0.9c-1.8,1.6-3.9,2.9-6.2,3.9c-2.3,1-4.9,1.5-7.7,1.5c-3.1,0-5.7-0.4-7.8-1.3
					c-2.1-0.9-3.8-2-5.1-3.3c-1.3-1.4-2.3-2.9-2.9-4.6c-0.6-1.7-0.9-3.4-0.9-5s0.3-3.1,0.9-4.5s1.4-2.7,2.4-3.9s2.2-2.4,3.5-3.5
					s2.7-2.2,4.2-3.3c-1.6-2.5-2.9-4.9-3.7-7c-0.9-2.1-1.3-4-1.3-5.8c0-1.4,0.3-2.7,0.8-4c0.6-1.3,1.4-2.5,2.5-3.5s2.4-1.9,4-2.5
					s3.4-1,5.4-1c2.2,0,4,0.3,5.7,1c1.6,0.7,2.9,1.6,4,2.6c1.1,1.1,1.8,2.3,2.4,3.6c0.5,1.3,0.8,2.6,0.8,3.9c0,1.4-0.3,2.8-0.8,4
					c-0.5,1.3-1.3,2.5-2.2,3.6c-0.9,1.1-2,2.2-3.2,3.3s-2.5,2.1-3.8,3.1c0.6,0.8,1.1,1.5,1.7,2.2c0.5,0.7,1.1,1.4,1.7,2.1
					c0.6,0.7,1.3,1.6,2,2.5s1.6,1.9,2.6,3.1c0.4-1.1,0.7-2.2,0.9-3.4c0.2-1.2,0.4-2.6,0.5-4.1L463.3,181.9L463.3,181.9z
					 M440.8,199.9c1.7,0,3.2-0.3,4.7-1s2.8-1.6,4-2.7c-2-2.3-3.8-4.3-5.4-6.2s-3.1-3.8-4.7-5.9c-0.9,0.7-1.8,1.4-2.6,2.1
					c-0.8,0.7-1.6,1.5-2.2,2.3c-0.7,0.8-1.2,1.6-1.6,2.3c-0.4,0.8-0.6,1.6-0.6,2.3c0,1.1,0.2,2.1,0.7,2.9c0.5,0.8,1.1,1.5,1.9,2.1
					c0.8,0.5,1.7,0.9,2.7,1.2C438.7,199.8,439.7,199.9,440.8,199.9z M438.3,165.2c0,1,0.3,2.1,0.8,3.5c0.5,1.3,1.3,2.9,2.5,4.8
					c1.8-1.4,3.2-2.7,4.3-4c1.1-1.3,1.7-2.6,1.7-4c0-1.3-0.5-2.3-1.4-2.9c-0.9-0.6-2-1-3.3-1c-1.1,0-2.2,0.3-3.1,1
					C438.7,163.2,438.3,164.1,438.3,165.2z"/>
			</g>
		</g>
		<g>
			<g>
				<path class="st7" d="M245.2,354.9v-127c0-2.7,2.2-4.9,4.9-4.9h5.3c1.1,0,1.9,0.7,2.2,1.8l0.8,3.7h0.5c2.1-3.4,5.5-6.7,10.5-6.7
					c5.2,0,8.9,4.1,8.9,14.4v67.6c0,9.2-3,14.2-10,14.2c-4.2,0-7.5-3.4-9.3-7h-0.5v43.9c0,2.7-2.2,4.9-4.9,4.9H250
					C247.4,359.8,245.2,357.6,245.2,354.9z M265.1,241c0-4.9-1.5-5.7-3.1-5.7c-1.8,0-3.3,0.8-3.3,5.7v57.7c0,4.9,1.5,5.7,3.3,5.7
					c1.6,0,3.1-0.8,3.1-5.7V241z"/>
			</g>
			<g>
				<path class="st7" d="M317.2,333.9c0,2.7-2.2,4.9-4.9,4.9h-5.6c-1.1,0-2.1-0.8-2.2-1.9l-0.7-4.5h-0.5c-2.7,5.5-4.7,7.5-10.1,7.5
					c-5.9,0-9.2-3.7-9.2-10.8v-29.7c0-4.5,1.6-8.2,4.8-11.4l13.7-13.4c1-1,1.5-2.2,1.5-3.6v-35.6c0-1.1-0.8-2.2-1.9-2.2H301
					c-3.6,0-3.4,3.7-3.4,3.7v10.4c0,2.7-2.2,4.9-4.9,4.9H289c-2.7,0-4.9-2.2-4.9-4.9v-9.8c0-9.6,6.4-15.7,16.7-15.7
					c10.1,0,16.6,6.2,16.6,15.7v96.4H317.2z M303.8,288.9l-5.1,5.3c-1,1-1.4,2.1-1.4,3.4v25.7c0,2.1,1.4,3.1,3.3,3.1
					c1.8,0,3.1-1.6,3.1-3.8v-33.7H303.8z"/>
			</g>
			<g>
				<path class="st7" d="M347.7,295.1h3.6c2.7,0,4.9,2.2,4.9,4.9v24.2c0,9.7-6.4,15.7-16.6,15.7c-10.3,0-16.7-6-16.7-15.7v-86.6
					c0-9.6,6.4-15.7,16.7-15.7c10.1,0,16.6,6.2,16.6,15.7v29.6c0,2.7-2.2,4.9-4.9,4.9h-14.9V324c0,4.2,1.2,4.5,3.3,4.5
					c1.9,0,3.1-0.3,3.1-4.5v-24C342.8,297.3,345,295.1,347.7,295.1z M342.8,238c0-4.2-1.2-4.6-3.1-4.6c-2.1,0-3.3,0.4-3.3,4.6v23.1
					h6.4V238z"/>
			</g>
			<g>
				<path class="st7" d="M371.1,338.8h-3.6c-2.7,0-4.9-2.2-4.9-4.9V205c0-2.7,2.2-4.9,4.9-4.9h3.6c2.7,0,4.9,2.2,4.9,4.9v128.9
					C376,336.7,373.8,338.8,371.1,338.8z"/>
			</g>
			<g>
				<path class="st7" d="M391.8,338.8h-3.6c-2.7,0-4.9-2.2-4.9-4.9V205c0-2.7,2.2-4.9,4.9-4.9h3.6c2.7,0,4.9,2.2,4.9,4.9v128.9
					C396.7,336.7,394.5,338.8,391.8,338.8z"/>
			</g>
			<g>
				<path class="st7" d="M436.2,333.9c0,2.7-2.2,4.9-4.9,4.9h-5.6c-1.1,0-2.1-0.8-2.2-1.9l-0.7-4.5h-0.5c-2.7,5.5-4.7,7.5-10.1,7.5
					c-5.9,0-9.2-3.7-9.2-10.8v-29.7c0-4.5,1.6-8.2,4.8-11.4l13.7-13.4c1-1,1.5-2.2,1.5-3.6v-35.6c0-1.1-0.8-2.2-1.9-2.2H420
					c-3.6,0-3.4,3.7-3.4,3.7v10.4c0,2.7-2.2,4.9-4.9,4.9H408c-2.7,0-4.9-2.2-4.9-4.9v-9.8c0-9.6,6.4-15.7,16.7-15.7
					c10.1,0,16.6,6.2,16.6,15.7v96.4H436.2z M422.8,288.9l-5.1,5.3c-1,1-1.4,2.1-1.4,3.4v25.7c0,2.1,1.4,3.1,3.3,3.1
					c1.8,0,3.1-1.6,3.1-3.8v-33.7H422.8z"/>
			</g>
			<g>
				<path class="st7" d="M446.9,306.3h3.6c2.7,0,4.9,2.2,4.9,4.9v11.5c0,4.9,1.5,5.7,3.3,5.7c1.6,0,3.1-0.8,3.1-5.7v-9.6
					c0-15.2-19.8-26-19.8-40.9v-34.6c0-9.6,6.4-15.7,16.7-15.7c10.1,0,16.6,6.2,16.6,15.7V248c0,2.7-2.2,4.9-4.9,4.9h-3.6
					c-2.7,0-4.9-2.2-4.9-4.9v-8.9c0-4.9-1.5-5.7-3.1-5.7c-1.8,0-3.3,0.8-3.3,5.7v29.7c0,9.4,19.8,22.4,19.8,36.4v19
					c0,9.7-6.4,15.7-16.6,15.7c-10.3,0-16.7-6-16.7-15.7v-13C442,308.5,444.2,306.3,446.9,306.3z"/>
			</g>
		</g>
		<path class="st8" d="M204.9,423h213.3c0,0-0.1,0-0.1,0.1l-7.2,4.2l0,0H212.2L204.9,423z"/>
		<polygon class="st8" points="169,395.3 454,395.3 454,395.3 449.5,399.6 173.5,399.6 		"/>
		<path class="st8" d="M144.9,367.7h333.2c0,0,0,0.1-0.1,0.1l-3.1,4.2H148.1L144.9,367.7z"/>
		<path id="SVGID_3_" class="st9" d="M517,247.4c0,113.5-92,205.5-205.5,205.5S106,360.9,106,247.4S198,41.9,311.5,41.9
			S517,133.9,517,247.4z"/>
		<g>
			<g>
				<path class="st4" d="M205.9,322.9c-0.5-2-1-3.9-1.5-5.8c-1.8-7-3.7-14-5.7-21c-14.1-48.9-47.8-148-94.8-174l1.8,6.5L165.1,337
					l41.4-11.9C206.3,324.4,206.1,323.6,205.9,322.9z"/>
			</g>
			<g>
				<path class="st4" d="M241.9,445.7c-1.9-6.8-10.8-12.7-15.8-15.5c0,0,2.5-9.7-1.2-32.2c-1.3-8.1-5-15.9-11.5-27.9
					c0,0-7.6-10.9-9.5-17.4c-0.7-2.5-0.3-4.5,2.2-5.2c6.4-1.9,8.9-5.1,6.9-12.3c-1-3.5-2.5-5.9-4.2-9L166,338.6
					c3.3,6.8,15.8,33.3,25.4,66.3c3.7,12.8,6.9,26.5,9,40.4c0,0,0.1,0.6,0.4,1.7c0.8,2.8,2.9,8.5,6.9,12.7c4,4.1,10,6.6,18.7,3.2
					C240.4,457.5,243.5,451.3,241.9,445.7z"/>
			</g>
			<g>
				<path class="st4" d="M200.4,295.6c5.1,17.5,7.7,29,7.7,29l14.4-4.1c0,0-0.3-1.2-0.9-3.3c-6.9-24-52-172-118.3-197.5
					C151.6,144.7,185.9,245.3,200.4,295.6z"/>
			</g>
		</g>
	</g>
</g>
</svg>
