<?xml version="1.0" encoding="utf-8"?>
<!-- Generator: Adobe Illustrator 22.0.0, SVG Export Plug-In . SVG Version: 6.00 Build 0)  -->
<svg version="1.1" id="Icon" xmlns="http://www.w3.org/2000/svg" xmlns:xlink="http://www.w3.org/1999/xlink" x="0px" y="0px"
	 viewBox="0 0 70 70" style="enable-background:new 0 0 70 70;" xml:space="preserve">
<style type="text/css">
	.st0{fill:url(#SVGID_1_);}
	.st1{fill:#FFFFFF;}
</style>
<g>
	
		<linearGradient id="SVGID_1_" gradientUnits="userSpaceOnUse" x1="-527.8098" y1="876.2635" x2="-527.8098" y2="885.9263" gradientTransform="matrix(7.2338 0 0 7.2338 3853.0701 -6338.7148)">
		<stop  offset="0" style="stop-color:#4B71B8"/>
		<stop  offset="1" style="stop-color:#293F7E"/>
	</linearGradient>
	<path class="st0" d="M70,61.2c0,4.9-4,8.7-8.7,8.7H8.7c-4.9,0-8.7-4-8.7-8.7V8.7C0,3.8,4,0,8.7,0h52.6C66.2,0,70,4,70,8.7V61.2z"/>
	<path class="st1" d="M57.8,13.6c0,0-5.4,0-9,0c-5.4,0-11.2,2.2-11.2,9.9c0,2.6,0,5.3,0,8.2h-6.2v9.8h6.4V70h11.6V41.4h7.8l0.7-9.6
		h-8.6c0,0,0-4.3,0-5.6c0-3,3.2-2.9,3.3-2.9c1.4,0,4.6,0,5.3,0L57.8,13.6L57.8,13.6L57.8,13.6z"/>
</g>
</svg>
