<?xml version="1.0" encoding="utf-8"?>
<!-- Generator: Adobe Illustrator 22.0.0, SVG Export Plug-In . SVG Version: 6.00 Build 0)  -->
<svg version="1.1" id="Layer_1" xmlns="http://www.w3.org/2000/svg" xmlns:xlink="http://www.w3.org/1999/xlink" x="0px" y="0px"
	 viewBox="0 0 210 132" style="enable-background:new 0 0 210 132;" xml:space="preserve">
<style type="text/css">
	.st0{fill:#EC2127;}
	.st1{fill:#164A7B;}
</style>
<g>
	<g>
		<path class="st0" d="M185,48.1h7.9c-0.5,0.9-2.7,5.9-3.1,6.8h-2c-1,0-2.2,0.2-3.2,1.5L177,66.9c-0.9,1.3-2,2.7-4,2.7h-9.2l3.1-6.8
			h3.3c0.8,0,1.4-0.3,1.8-0.9l8.1-11C181.5,49,182.9,48,185,48.1 M154.7,57.6c2.3,0,3.9,0.2,4.5-1.2c0.9-1.7-0.7-2.8-2.2-2.8
			c-1.9,0-3.2,1-4.1,2.7c-2.1,4.4-4.2,8.8-6.4,13.2h-2.4l0,0h-1.5h-2.4l7.4-15.3c2.4-4.9,4.1-5.9,9.5-5.9c2,0,4.6,0.2,6.1,0.8
			c3.1,1.8,3.9,5.9,2.3,8.3l-2.6,4v8.1h-2.5l0,0h-1.4h-2.5l0-5.7H152L154.7,57.6z M143.6,48.1h2.4l-7.3,15.3
			c-2.3,4.9-4.1,5.9-9.5,5.9c-1.2,0-3.9-0.2-5.3-0.9c-2.8-1.7-3.6-5.1-2.5-7.8l6-12.6h2.5l0,0h1.2h2.5l-6.3,13.1
			c-0.9,1.7,0.7,2.8,2.1,2.8c1.8,0,3.1-1,4.1-2.7c2.1-4.4,4.2-8.8,6.3-13.2h2.4l0,0L143.6,48.1L143.6,48.1z M84.5,54.7l-7.2,14.8
			h2.9h2h3c2.4-5,4.8-10.1,7.3-15h3.4c0.4-0.9,2.7-5.5,3.1-6.4l0,0H83l-1.3,2.6l-0.6,1.1l-1.3,2.6h4.6 M110.3,48.2
			c-6,0-12.5,4.8-14.5,10.7c-2,5.9,1.3,10.7,7.3,10.7c6,0,12.6-4.8,14.5-10.7S116.4,48.2,110.3,48.2z M112,58.9
			c-1,2.8-4.1,5.1-7,5.1c-2.9,0-4.5-2.3-3.5-5.1c1-2.8,4.1-5.1,7-5.1C111.4,53.7,113,56.1,112,58.9z"/>
		<path class="st1" d="M79.4,48.1l-6.5,0L62.7,69.3h6.2C72.3,62.1,75.7,55.1,79.4,48.1L79.4,48.1z M69.5,48.1h-8.4
			c-5.3,0-6.8,0.5-9.2,5.4l-3.6,7.6c-1.7,4.5-0.2,8.2,3.1,8.2H60l2.2-5.9h-6.5c-1.8,0-1.7-1.4-1.3-2.1c0.9-1.9,1.8-3.7,2.6-5.5
			c1-1.7,2.3-2.7,4.1-2.7h6.2L69.5,48.1L69.5,48.1z M36.5,69.3h6l6.2-13c1.1-2.7-0.2-8.2-4.6-8.1c-1,0-2.1,0-3.3,0
			c-5.3,0-6.8,0.5-9.1,5.4l-7.5,15.7h6.2c2.1-4.4,4.2-8.8,6.3-13.1c0.9-1.6,2.2-2.6,4.1-2.6c1.4,0,3,1.1,2.1,2.8l-1,2.1h-3.9
			l-2.5,5.2h3.9L36.5,69.3L36.5,69.3z M28,56.3c2.5-6.8-0.5-8.1-5.3-8.2c-1,0-2.2,0-3.4,0c-5.3,0-6.8,0.5-9.2,5.4L2.6,69.3h6.5
			l2.7-5.7h6.4l2.5-5.2h-6.4l1.1-2.2c1-1.7,2.3-2.7,4.1-2.7c1.5,0,3.1,1.2,2.2,2.9L28,56.3L28,56.3z"/>
		<g>
			<path class="st1" d="M119.4,77.3c-0.4,1.7-0.8,3.3-1.3,5c-1,3.3-2,6.5-3.4,9.5c-0.7,1.5-1.5,2.9-2.4,4.2c-0.9,1.3-1.9,2.5-3,3.5
				c-1.1,1-2.3,1.7-3.6,2.2c-1.1,0.4-2.2,0.6-3.4,0.6l-5.2-2.9c-1.9-1-3.9-2-5.8-3c-2-1-3.9-1.9-5.9-2.9c-2-0.9-4-1.8-6-2.7
				c-2-0.8-4.1-1.7-6.1-2.4c-2.1-0.8-4.1-1.6-6.2-2.3L63.9,85c-1.1-0.3-2.1-0.6-3.2-1c-1.1-0.3-2.1-0.6-3.2-0.9l-3.2-0.8
				c-2.2-0.5-4.3-1-6.5-1.4c-1.1-0.2-2.2-0.4-3.3-0.6c-1.1-0.2-2.2-0.4-3.3-0.5s-2.2-0.3-3.3-0.4c-1.1-0.1-2.2-0.2-3.3-0.3
				c-1.1,0-2.2-0.1-3.4-0.1c-1.1,0-2.2,0-3.4,0c-1.1,0-2.2,0-3.4,0.2l-1.7,0.1c-0.5,0-1.1,0.1-1.7,0.2c-2.2,0.3-4.5,0.7-6.7,1.2
				c-1.1,0.3-2.2,0.5-3.3,0.9c-1.1,0.3-2.1,0.7-3.2,1.1c-0.9,0.4-1.8,0.7-2.7,1.1c0,0,0,0,0,0c1.2-1.1,2.8-2.2,4.5-3.1
				c1.6-0.9,3.2-1.7,4.9-2.5c0.8-0.4,1.7-0.8,2.5-1.1l1.3-0.5l0.6-0.3l0.3-0.1l0.2-0.1l0.1,0l0,0l0,0c0,0,0.1,0,0.1-0.1
				c0.2-0.1,0.2-0.3,0.2-0.3l0-3.4l-0.4,0l-0.3,3.3h0l-0.2,0l-0.3,0.1l-0.7,0.2l-1.3,0.5c-0.9,0.3-1.7,0.6-2.6,1
				c-1.7,0.7-3.5,1.4-5.1,2.2c-1.7,0.8-3.3,1.7-4.8,2.9c-0.7,0.6-1.4,1.3-1.9,2.1c-0.2,0.3-0.3,0.6-0.4,1l0,0h0.1c0,0.1,0,0.3,0,0.4
				c0,0.5,0.2,1,0.4,1.4l0.1,0.2l0.2-0.1c1-0.4,2-0.9,3-1.3c1-0.4,2-0.8,3-1.1c2-0.7,4.1-1.2,6.2-1.6c2.1-0.4,4.2-0.7,6.4-0.9
				c2.1-0.2,4.3-0.3,6.5-0.3c1.1,0,2.1,0,3.2,0.1c1.1,0,2.1,0.1,3.2,0.2c1.1,0.1,2.1,0.2,3.2,0.3c1.1,0.1,2.1,0.3,3.2,0.4
				c1.1,0.1,2.1,0.3,3.2,0.5c1.1,0.2,2.1,0.4,3.2,0.6c2.1,0.4,4.2,0.9,6.3,1.4l3.1,0.8c1.1,0.3,2.1,0.6,3.1,0.9l3.1,0.9l3.1,1
				c2.1,0.6,4.1,1.4,6.1,2.2c2,0.8,4,1.6,6,2.4c2,0.8,4,1.7,6,2.5c2,0.9,4,1.8,5.9,2.7c1.9,0.9,3.9,1.9,5.8,2.8l5.8,2.9l0.1,0h0.1
				c1.7,0,3.5-0.3,5.1-1c1.6-0.7,3.1-1.7,4.3-2.9c1.2-1.2,2.3-2.6,3.2-4.1c0.9-1.5,1.6-3.1,2.3-4.7c1.3-3.2,2.1-6.6,2.9-9.9
				c0.7-3.4,1.2-6.8,1.6-10.2l-0.4,0C120.2,73.9,119.8,75.6,119.4,77.3z"/>
			<path class="st1" d="M23.4,40.9L24,39c0.1-0.3,0.2-0.6,0.3-1l0.3-1c0.2-0.6,0.4-1.3,0.5-1.9l0.5-1.9c0.2-0.6,0.3-1.3,0.5-1.9
				c0.2-0.7,0.3-1.4,0.4-2.1c0.7-0.3,1.4-0.6,2.1-0.9c1.1-0.5,2.1-1,3.1-1.5l3-1.5c0.1-0.1,0.3-0.1,0.4-0.2c0.1,0.1,0.2,0.3,0.3,0.4
				c0.6,1,1.3,1.9,2,2.8l1,1.4l1.1,1.4c0.7,0.9,1.5,1.8,2.3,2.7c0.4,0.4,0.8,0.9,1.2,1.3c0.4,0.4,0.8,0.8,1.2,1.3
				c0.4,0.4,0.8,0.8,1.3,1.2c0.4,0.4,0.8,0.8,1.3,1.2l1.4,1.1c0.5,0.4,0.9,0.8,1.4,1.1c0.5,0.3,1,0.7,1.5,1c0.5,0.3,1,0.6,1.5,0.9
				l0.3-0.3c-0.8-0.8-1.6-1.6-2.3-2.5c-0.8-0.8-1.5-1.7-2.2-2.6c-1.4-1.8-2.8-3.6-4.1-5.4c-2.7-3.7-5.1-7.6-7.5-11.4l-0.2-0.3
				l-0.3,0.1c-4.2,2-8,4.4-12.1,6.4L23.8,27l0,0.2l-0.7,7.7l-0.7,7.8l0.4,0C23,42.1,23.2,41.5,23.4,40.9z"/>
			<path class="st1" d="M144.4,15.4c0.8-0.4,1.5-0.8,2.2-1.1c1.5-0.8,3-1.5,4.4-2.2s2.9-1.4,4.3-2.1c0.7-0.3,1.4-0.7,2-1
				c0.7-0.3,1.3-0.6,2-0.9c0.6-0.3,1.3-0.5,1.9-0.8c0.6-0.3,1.3-0.4,1.9-0.7c0.6-0.2,1.3-0.4,1.9-0.6c0.6-0.2,1.2-0.3,1.8-0.5
				c2.4-0.5,4.7-0.8,6.8-1c2-0.1,3.9-0.2,5.4-0.1c0.8,0,1.4,0.1,2,0.1c0.6,0,1.1,0.1,1.5,0.1c0.8,0.1,1.3,0.1,1.3,0.1l0.1-0.4
				c0,0-0.4-0.1-1.2-0.3c-0.8-0.2-2-0.4-3.5-0.6c-3-0.5-7.4-0.8-12.6-0.1c-2.6,0.3-5.3,1-8.2,2c-2.8,1.1-5.6,2.4-8.6,3.7
				c-5.9,2.7-12.2,5.7-18.4,8.7c-3.1,1.5-6.2,3.1-9.3,4.6c-3,1.5-6.1,3-9,4.5c-5.8,2.9-11.2,5.6-15.9,7.9C92.6,37,88.7,39,86,40.3
				c-2.7,1.4-4.3,2.1-4.3,2.1l0.2,0.3c0,0,0.4-0.1,1.2-0.4s1.9-0.6,3.3-1.2c1.4-0.5,3.2-1.2,5.1-1.9s4.2-1.6,6.6-2.6
				c1.2-0.5,2.5-1,3.8-1.5s2.6-1.1,4-1.7c2.7-1.2,5.6-2.4,8.6-3.8c1.5-0.7,3-1.3,4.5-2c1.5-0.7,3-1.4,4.6-2.1
				c1.5-0.7,3.1-1.5,4.6-2.2c0.8-0.4,1.5-0.7,2.3-1.1l2.3-1.1c3.1-1.5,6.2-3,9.2-4.6C142.9,16.1,143.7,15.7,144.4,15.4z"/>
			<path class="st1" d="M192.8,7.4c-1.5-0.7-3-1.3-4.5-1.8L188.2,6c0.8,0.3,1.5,0.6,2.2,0.9c0.5,0.2,1.1,0.5,1.6,0.8l-13.2,8.5
				l-13.6,8.7c-0.7,0.1-1.3,0.3-2,0.4c-0.7,0.2-1.3,0.4-2,0.5c-0.7,0.2-1.3,0.4-1.9,0.6c-0.6,0.2-1.3,0.4-1.9,0.7
				c-0.6,0.3-1.2,0.5-1.8,0.8l-0.9,0.4l-0.9,0.5c-0.6,0.3-1.2,0.6-1.7,1l-0.9,0.5l-0.8,0.6l-0.8,0.6l-0.8,0.6
				c-0.5,0.4-1.1,0.8-1.6,1.3c-0.5,0.4-1,0.9-1.5,1.3c-0.5,0.5-1,1-1.4,1.5s-0.9,1-1.3,1.5c-0.4,0.5-0.8,1.1-1.2,1.7
				c-0.2,0.3-0.4,0.6-0.6,0.9c-0.2,0.3-0.4,0.6-0.5,0.9c-0.3,0.6-0.6,1.3-0.9,1.9l0.3,0.3c1-0.9,2-1.7,3-2.5c0.5-0.4,1-0.8,1.5-1.2
				c0.5-0.4,1-0.8,1.5-1.2c1-0.8,2.1-1.5,3.2-2.3c1.1-0.8,2.2-1.5,3.3-2.2c2.2-1.4,4.4-2.8,6.7-4.1c2.3-1.3,4.5-2.6,6.8-3.9h0l0,0
				l26.9-18.2l0.3-0.2L192.8,7.4z"/>
		</g>
	</g>
	<g>
		<path class="st1" d="M55,114.8c-0.4-0.1-0.9-0.1-1.3-0.1c-1,0-2,0.2-2.8,0.6c-0.8,0.4-1.5,0.9-2,1.6c-0.5,0.7-0.9,1.4-1.2,2.2
			c-0.3,0.8-0.4,1.7-0.4,2.5c0,1,0.2,1.8,0.7,2.4c0.5,0.6,1.1,0.9,2,0.9c0.5,0,0.9-0.1,1.3-0.3c0.4-0.2,0.8-0.4,1.1-0.7
			c0.3-0.2,0.5-0.5,0.7-0.7c0,0.1,0,0.2,0,0.3c0,0.3,0,0.6,0.1,1l0,0.2l0.2,0c0.1,0,0.2,0,0.3,0s0.2,0,0.3,0c0.1,0,0.2,0,0.3,0
			s0.3,0,0.3,0l0.2,0l-0.1-0.3c0-0.1,0-0.1,0-0.2v-0.4c0-0.4,0-0.9,0.1-1.3c0.1-0.5,0.2-1.1,0.3-1.8l1-5.5l-0.2-0.1
			C55.8,115,55.4,114.9,55,114.8z M53.3,116.3c0.4,0,0.7,0,1,0.1l-0.4,2c-0.1,0.7-0.3,1.3-0.5,2c-0.2,0.6-0.5,1.2-0.8,1.6
			c-0.3,0.5-0.7,0.8-1.1,1.1s-0.8,0.4-1.2,0.4c-0.4,0-0.7-0.2-0.9-0.5c-0.2-0.4-0.3-0.9-0.3-1.5c0-0.8,0.1-1.5,0.3-2.1
			c0.2-0.6,0.5-1.2,0.9-1.7c0.4-0.5,0.8-0.8,1.4-1.1C52.2,116.4,52.7,116.3,53.3,116.3z"/>
		<path class="st1" d="M63.7,114.8c-0.5,0-0.9,0.1-1.4,0.3c-0.4,0.2-0.8,0.4-1.1,0.7c-0.3,0.2-0.5,0.5-0.7,0.7c0-0.2,0-0.5,0-0.5
			s0-0.3,0-0.4s0-0.3,0-0.4l0-0.1l-0.1,0c-0.1,0-0.2,0-0.3,0s-0.2,0-0.3,0c-0.1,0-0.2,0-0.3,0s-0.2,0-0.3,0l-0.2,0l0,0.2
			c0,0.1,0,0.2,0,0.3c0,0.1,0,0.3,0,0.3s-0.1,0.9-0.2,1.3c-0.1,0.5-0.2,1.1-0.3,1.8l-1,5.7l0.2,0c0.1,0,0.2,0,0.3-0.1h0.3h0.3
			c0.1,0.1,0.3,0.1,0.3,0.1l0.2,0l0.6-3.4c0.1-0.7,0.3-1.3,0.5-1.9c0.2-0.6,0.5-1.2,0.8-1.6c0.3-0.5,0.7-0.8,1-1.1
			c0.4-0.3,0.7-0.4,1.1-0.4c0.4,0,0.7,0.1,0.9,0.3c0.2,0.2,0.3,0.6,0.3,1.1c0,0.2,0,0.4,0,0.6c0,0.2,0,0.5-0.1,0.7l-1,5.8l0.2,0
			c0.1,0,0.2,0,0.3,0.2h0.3h0.3c0.1-0.2,0.3-0.2,0.3-0.2l0.2,0l1.1-6.1c0-0.2,0.1-0.4,0.1-0.7s0-0.5,0-0.7c0-0.8-0.2-1.5-0.7-2
			C65.1,115,64.5,114.8,63.7,114.8z"/>
		<path class="st1" d="M204.2,122.7l-0.1,0l0,0.1c0,0.1-0.1,0.3-0.1,0.4c0,0.1-0.1,0.3-0.1,0.4c0,0.3-0.1,0.5-0.1,0.8v0.2l0.2,0
			c0.1,0,0.2,0,0.4,0c0.1,0,0.3,0,0.4,0c0.3,0,0.5,0,0.8-0.1l0.1,0l0-0.1c0-0.1,0.1-0.3,0.1-0.4c0-0.1,0.1-0.3,0.1-0.4
			c0-0.3,0.1-0.5,0.1-0.8v-0.2l-0.2,0C205.3,122.7,204.7,122.7,204.2,122.7z"/>
		<path class="st1" d="M179.6,124.8c0.1,0,0.3,0,0.3,0l0.2,0l-0.1-0.3c0-0.1,0-0.1,0-0.2v-0.4c0-0.4,0-0.9,0.1-1.3
			c0.1-0.5,0.2-1.1,0.3-1.8l1-5.5l-0.2-0.1c-0.3-0.1-0.6-0.2-1.1-0.3c-0.4-0.1-0.9-0.1-1.3-0.1c-1,0-2,0.2-2.8,0.6s-1.5,0.9-2,1.6
			c-0.5,0.7-0.9,1.4-1.2,2.2s-0.4,1.7-0.4,2.5c0,1,0.2,1.8,0.7,2.4c0.5,0.6,1.1,0.9,2,0.9c0.5,0,0.9-0.1,1.3-0.3
			c0.4-0.2,0.8-0.4,1.1-0.7c0.3-0.2,0.5-0.5,0.7-0.7c0,0.1,0,0.2,0,0.3c0,0.3,0,0.6,0,1l0,0.2l0.2,0c0.1,0,0.2,0,0.3,0s0.2,0,0.3,0
			C179.3,124.8,179.4,124.8,179.6,124.8L179.6,124.8z M178.5,116.3c0.4,0,0.7,0,1,0.1l-0.4,2c-0.1,0.7-0.3,1.3-0.5,2
			c-0.2,0.6-0.5,1.2-0.8,1.6c-0.3,0.5-0.7,0.8-1.1,1.1c-0.4,0.3-0.8,0.4-1.2,0.4c-0.4,0-0.7-0.2-0.9-0.5c-0.2-0.4-0.3-0.9-0.3-1.5
			c0-0.8,0.1-1.5,0.3-2.1c0.2-0.6,0.5-1.2,0.9-1.7c0.4-0.5,0.8-0.8,1.4-1.1C177.4,116.4,177.9,116.3,178.5,116.3z"/>
		<path class="st1" d="M90.5,114.8c-0.4-0.1-0.9-0.1-1.3-0.1c-1,0-2,0.2-2.8,0.6c-0.8,0.4-1.5,0.9-2,1.6c-0.5,0.7-0.9,1.4-1.2,2.2
			c-0.3,0.8-0.4,1.7-0.4,2.5c0,1,0.2,1.8,0.7,2.4c0.5,0.6,1.1,0.9,2,0.9c0.5,0,0.9-0.1,1.3-0.3c0.4-0.2,0.8-0.4,1.1-0.7
			c0.3-0.2,0.5-0.5,0.7-0.7c0,0.1,0,0.2,0,0.3c0,0.3,0,0.6,0,1l0,0.2l0.2,0c0.1,0,0.2,0,0.3,0s0.2,0,0.3,0c0.1,0,0.2,0,0.3,0
			s0.3,0,0.3,0l0.2,0l-0.1-0.3c0-0.1,0-0.1,0-0.2v-0.4c0-0.4,0-0.9,0.1-1.3c0.1-0.5,0.2-1.1,0.3-1.8l1-5.5l-0.2-0.1
			C91.4,115,91,114.9,90.5,114.8z M88.9,116.3c0.4,0,0.7,0,1,0.1l-0.4,2c-0.1,0.7-0.3,1.3-0.5,2c-0.2,0.6-0.5,1.2-0.8,1.6
			c-0.3,0.5-0.7,0.8-1.1,1.1c-0.4,0.3-0.8,0.4-1.2,0.4c-0.4,0-0.7-0.2-0.9-0.5c-0.2-0.4-0.3-0.9-0.3-1.5c0-0.8,0.1-1.5,0.3-2.1
			c0.2-0.6,0.5-1.2,0.9-1.7c0.4-0.5,0.8-0.8,1.4-1.1C87.7,116.4,88.3,116.3,88.9,116.3z"/>
		<path class="st1" d="M203.9,115.3v-0.2l-0.2-0.1c-0.1,0-0.2,0-0.3-0.2h-0.3c-0.4,0.2-0.7,0.2-1,0.3c-0.3,0.1-0.6,0.2-0.8,0.4
			c-0.3,0.2-0.5,0.3-0.7,0.5c0,0-0.1,0.1,0,0.1v-0.3v-0.4c-0.1-0.1-0.2-0.2-0.2-0.3l0-0.1l-0.1,0c-0.1,0-0.3,0.1-0.3,0.1
			s-0.2,0-0.3,0s-0.2,0-0.3,0c-0.1,0-0.3,0-0.3,0l-0.2,0l0,0.2c0,0.1,0,0.2,0,0.3c0,0.1,0,0.2,0,0.4c0,0.4,0,0.9-0.1,1.3
			c-0.1,0.5-0.2,1.1-0.3,1.7l-1,5.6l0.2,0c0.1,0,0.2,0,0.3,0s0.2,0,0.3,0s0.2,0,0.3,0s0.3,0,0.3,0l0.2,0l0.9-4.7
			c0.1-0.6,0.3-1.2,0.5-1.6c0.2-0.4,0.5-0.8,0.7-1.1c0.3-0.3,0.6-0.4,0.9-0.6c0.3-0.1,0.6-0.2,0.9-0.2c0.1,0,0.2,0,0.3,0
			c0.1,0,0.1,0,0.1,0l0.2,0.1l0.1-0.2c0.1-0.2,0.2-0.4,0.3-0.7C203.9,115.7,203.9,115.5,203.9,115.3z"/>
		<path class="st1" d="M103.2,116.3c0.1-0.2,0.1-0.4,0.2-0.6c0-0.2,0-0.5,0-0.5v-0.4h-2.4l0.1-0.3c0.1-0.5,0.2-0.9,0.3-1.2
			c0.1-0.3,0.3-0.5,0.4-0.7s0.3-0.3,0.5-0.3c0.2-0.1,0.5-0.1,0.7-0.1c0.2,0,0.3,0,0.5,0c0.1,0,0.3,0.1,0.4,0.1l0.2,0.1l0.1-0.2
			c0.1-0.2,0.1-0.3,0.2-0.5c0.1-0.2,0.1-0.3,0.2-0.6l0-0.2l-0.2-0.1c-0.2-0.1-0.3-0.1-0.6-0.2c-0.2,0-0.5-0.1-0.8-0.1
			c-1.1,0-1.9,0.3-2.5,0.9c-0.6,0.6-1,1.5-1.2,2.7l-0.1,0.6h-1.5l-0.1,0.1c-0.1,0.2-0.1,0.4-0.2,0.6c0,0.2-0.1,0.5-0.1,0.5v0.1H99
			l-1.6,9.2c-0.1,0.5-0.2,0.9-0.3,1.2c-0.1,0.3-0.3,0.5-0.4,0.7c-0.2,0.1-0.3,0.3-0.5,0.3c-0.2,0-0.5,0.1-0.8,0.1
			c-0.2,0-0.3,0-0.5,0c-0.1,0-0.3-0.1-0.4-0.1l-0.2-0.1l-0.1,0.2c-0.1,0.2-0.1,0.3-0.2,0.5c-0.1,0.1-0.1,0.3-0.2,0.6l0,0.2l0.2,0.1
			c0.2,0.1,0.3,0.1,0.6,0.2s0.5,0.1,0.8,0.1c1.1,0,1.9-0.3,2.5-0.9c0.6-0.6,1-1.5,1.2-2.8l1.6-9h2.4L103.2,116.3z"/>
		<path class="st1" d="M83,116.6c0.1-0.2,0.2-0.4,0.3-0.7c0-0.2,0.1-0.4,0.1-0.6v-0.2l-0.1-0.1c-0.1,0-0.2,0-0.3-0.2l0,0h-0.3
			c-0.4,0.2-0.7,0.2-1,0.3c-0.3,0.1-0.6,0.2-0.8,0.4c-0.3,0.2-0.5,0.3-0.7,0.5c0,0-0.1,0.1-0.1,0.1v-0.3v-0.4
			c-0.1-0.1-0.1-0.2-0.1-0.3l0-0.1l-0.1,0c-0.1,0-0.3,0.1-0.3,0.1s-0.3,0-0.4,0s-0.2,0-0.3,0c-0.1,0-0.3,0-0.3,0l-0.2,0l0,0.2
			c0,0.1,0,0.2,0,0.3c0,0.1,0,0.2,0,0.4c0,0.4,0,0.9-0.1,1.3c-0.1,0.5-0.2,1.1-0.3,1.7l-1,5.6l0.2,0c0.1,0,0.2,0,0.3,0
			c0.1,0,0.2,0,0.3,0s0.2,0,0.3,0c0.1,0,0.3,0,0.3,0l0.2,0l0.9-4.7c0.1-0.6,0.3-1.2,0.5-1.6c0.2-0.4,0.5-0.8,0.7-1.1
			c0.3-0.3,0.6-0.4,0.9-0.6c0.3-0.1,0.6-0.2,0.9-0.2c0.1,0,0.2,0,0.3,0c0.1,0,0.1,0,0.1,0l0.2,0.1L83,116.6z"/>
		<path class="st1" d="M7,114.8c-0.4,0-0.7,0-1.1,0l-0.1,0l0,0.1c0,0.1-0.1,0.3-0.1,0.4c0,0.1-0.1,0.3-0.1,0.4
			c0,0.2-0.1,0.5-0.1,0.8v0.2l0.2,0c0.2,0,0.4,0.1,0.7,0.1c0.3,0,0.5,0,0.7-0.1l0.1,0l0-0.1c0-0.1,0.1-0.3,0.1-0.4
			c0-0.1,0.1-0.3,0.1-0.4c0-0.2,0.1-0.5,0.1-0.8v-0.2l-0.2,0C7.2,114.9,7.1,114.8,7,114.8z"/>
		<path class="st1" d="M13.1,111.3l-0.2,0c-0.1,0-0.2,0-0.3,0c-0.2,0-0.5,0-0.7,0c-0.1,0-0.2,0-0.3,0l-0.2,0l-2.4,13.5h7l0.1-0.1
			c0.1-0.2,0.1-0.4,0.2-0.6c0-0.2,0-0.4,0.1-0.6l0-0.2h-5.3L13.1,111.3z"/>
		<path class="st1" d="M6.2,118.5L6.2,118.5c-0.2,0-0.4,0-0.6,0c-0.1,0-0.2,0-0.3,0l-0.2,0l-1.8,9.9l0.3,0c0.1,0,0.3,0,0.4,0
			c0.1,0,0.2,0,0.4,0c0.1,0,0.2,0,0.3,0c0.1,0,0.2,0,0.3,0l0.2,0l1.7-9.9l-0.2,0C6.4,118.5,6.2,118.5,6.2,118.5z"/>
		<path class="st1" d="M43.4,114.8c-0.7,0-1.4,0.2-2,0.6c-0.5,0.3-0.9,0.6-1.2,1.1c-0.1-0.4-0.3-0.8-0.6-1c-0.4-0.4-1-0.6-1.7-0.6
			s-1.4,0.2-2,0.6c-0.3,0.2-0.9,0.8-0.9,0.8s0,0,0-0.1c0-0.2,0-0.3,0-0.4c0-0.1,0-0.2,0-0.3l0-0.1l-0.1,0c-0.1,0-0.2,0-0.3,0
			c-0.1,0-0.2,0-0.3,0c-0.1,0-0.2,0-0.3,0s-0.2,0-0.3,0l-0.2,0l0,0.2c0,0.1,0,0.2,0,0.3c0,0.1,0,0.3,0,0.3s-0.2,0.9-0.2,1.3
			c-0.1,0.5-0.2,1.1-0.3,1.8l-1,5.7l0.2,0c0.1,0,0.2,0,0.3,0h0.3h0.3c0.1,0.1,0.3,0,0.3,0l0.2,0l0.8-4.6c0.1-0.7,0.3-1.3,0.5-1.8
			c0.2-0.5,0.5-0.9,0.7-1.2c0.3-0.3,0.5-0.5,0.8-0.7c0.3-0.1,0.6-0.2,0.9-0.2c0.4,0,0.7,0.1,0.9,0.3c0.2,0.2,0.3,0.6,0.3,1.1
			c0,0.2,0,0.4,0,0.6c0,0.2,0,0.5-0.1,0.7l-1,5.8l0.2,0c0.1,0,0.3,0.2,0.3,0.2h0.3h0.3c0.1-0.2,0.3-0.2,0.3-0.2l0.2,0l0.8-4.6
			c0.1-0.7,0.3-1.3,0.5-1.8c0.2-0.5,0.5-0.9,0.7-1.2c0.3-0.3,0.5-0.5,0.8-0.7c0.3-0.1,0.6-0.2,0.9-0.2c0.4,0,0.7,0.1,0.9,0.3
			c0.2,0.2,0.3,0.6,0.3,1.1c0,0.2,0,0.4,0,0.6c0,0.2,0,0.5-0.1,0.7l-1,5.8l0.2,0c0.1,0,0.2,0,0.3,0h0.3H44c0.1,0,0.3,0,0.3,0l0.2,0
			l1.1-6.1c0-0.2,0.1-0.4,0.1-0.7c0-0.3,0-0.5,0-0.7C45.8,115.2,44.5,114.8,43.4,114.8z"/>
		<path class="st1" d="M25.2,114.8c-0.4-0.1-0.9-0.1-1.3-0.1c-1,0-2,0.2-2.8,0.6c-0.8,0.4-1.5,0.9-2,1.6c-0.5,0.7-0.9,1.4-1.2,2.2
			s-0.4,1.7-0.4,2.5c0,1,0.2,1.8,0.7,2.4c0.5,0.6,1.1,0.9,2,0.9c0.5,0,0.9-0.1,1.3-0.3c0.4-0.2,0.8-0.4,1.1-0.7
			c0.3-0.2,0.5-0.5,0.7-0.7c0,0.1,0,0.2,0,0.3c0,0.3,0,0.6,0.1,1l0,0.2l0.2,0c0.1,0,0.2,0,0.3,0c0.1,0,0.2,0,0.3,0
			c0.1,0,0.2,0,0.3,0s0.3,0,0.3,0l0.2,0l-0.1-0.3c0-0.1,0-0.1,0-0.2v-0.4c0-0.4,0-0.9,0.1-1.3c0.1-0.5,0.2-1.1,0.3-1.8l1-5.5
			l-0.2-0.1C26,115,25.6,114.9,25.2,114.8z M23.7,116.3c0.4,0,0.7,0,1,0.1l-0.4,2c-0.1,0.7-0.3,1.3-0.5,2c-0.2,0.6-0.5,1.2-0.8,1.6
			c-0.3,0.5-0.7,0.8-1.1,1.1s-0.8,0.4-1.2,0.4c-0.4,0-0.7-0.2-0.9-0.5c-0.2-0.4-0.3-0.9-0.3-1.5c0-0.8,0.1-1.5,0.3-2.1
			c0.2-0.6,0.5-1.2,0.9-1.7c0.4-0.5,0.8-0.8,1.4-1.1S23.1,116.3,23.7,116.3z"/>
		<path class="st1" d="M207.8,111.2c-0.1,0-0.3,0-0.4,0l0,0c-0.3,0-0.5,0-0.7,0c-0.1,0-0.2,0-0.3,0l-0.2,0l-1.7,9.9l0.2,0
			c0.1,0,0.2,0,0.3,0s0.2,0,0.3,0s0.2,0,0.3,0c0.1,0,0.2,0,0.3,0l0.2,0l1.8-9.9L207.8,111.2z"/>
		<path class="st1" d="M75.3,115.3c-0.5-0.4-1.1-0.7-2-0.7c-0.8,0-1.6,0.2-2.3,0.6c-0.7,0.4-1.3,0.9-1.8,1.5
			c-0.5,0.6-0.9,1.3-1.1,2.1c-0.3,0.8-0.4,1.6-0.4,2.3c0,0.5,0.1,1,0.2,1.5c0.1,0.5,0.4,0.9,0.7,1.3c0.3,0.4,0.7,0.7,1.3,0.9
			c0.5,0.2,1.1,0.3,1.9,0.3c0.3,0,0.6,0,0.9-0.1c0.3,0,0.6-0.1,0.9-0.1c0.3,0,0.6-0.1,0.8-0.2c0.3-0.1,0.5-0.2,0.7-0.2l0.1-0.1v-0.1
			c0-0.2,0-0.3,0-0.6s-0.1-0.4-0.2-0.6l-0.1-0.2l-0.2,0.1c-0.1,0-0.3,0.1-0.5,0.2c-0.2,0.1-0.4,0.1-0.7,0.2c-0.2,0-0.5,0.1-0.7,0.1
			c-0.3,0-0.5,0-0.7,0c-0.9,0-1.5-0.2-1.9-0.7c-0.4-0.5-0.6-1.1-0.6-2v-0.1l1.2-0.2c0.7-0.1,1.4-0.3,2.1-0.4
			c0.7-0.2,1.2-0.4,1.7-0.7c0.5-0.3,0.9-0.7,1.2-1.1c0.3-0.4,0.4-0.9,0.4-1.5C76,116.3,75.8,115.8,75.3,115.3L75.3,115.3z
			 M69.8,119.4c0.1-0.3,0.2-0.6,0.4-1c0.2-0.4,0.5-0.8,0.8-1.1c0.3-0.3,0.6-0.6,1-0.8c0.3-0.2,0.7-0.3,1.1-0.3
			c0.4,0,0.7,0.1,0.9,0.3c0.2,0.2,0.3,0.4,0.3,0.6c0,0.5-0.3,1-0.9,1.3c-0.7,0.3-1.6,0.6-2.8,0.8L69.8,119.4z"/>
		<path class="st1" d="M165.9,115l-0.2,0v0.3c0,0,0,0.2-0.1,0.5c0,0.2-0.1,0.5-0.3,0.7l-3.2,6.1l-1.3-7.5l-0.2,0c-0.1,0-0.2,0-0.3,0
			c-0.1,0-0.2,0-0.4,0c-0.2,0-0.5,0-0.7,0.1l-0.2,0l1.8,9.8l0.1,0c0.1,0,0.2,0,0.4,0c0.1,0,0.3,0,0.3,0c0.2,0,0.4,0,0.6-0.1l0.1,0
			l4.5-8c0.2-0.4,0.3-0.7,0.4-0.9c0.1-0.2,0.1-0.4,0.1-0.7v-0.3l-0.2,0C166.9,115,166.4,114.9,165.9,115z"/>
		<path class="st1" d="M153.2,115.3c-0.5-0.4-1.1-0.7-2-0.7c-0.8,0-1.6,0.2-2.3,0.6c-0.7,0.4-1.3,0.9-1.8,1.5
			c-0.5,0.6-0.9,1.3-1.1,2.1c-0.3,0.8-0.4,1.6-0.4,2.3c0,0.5,0.1,1,0.2,1.5c0.1,0.5,0.4,0.9,0.7,1.3c0.3,0.4,0.7,0.7,1.3,0.9
			c0.5,0.2,1.1,0.3,1.9,0.3c0.3,0,0.6,0,0.9-0.1c0.3,0,0.6-0.1,0.9-0.1c0.3,0,0.6-0.1,0.8-0.2c0.3-0.1,0.5-0.2,0.7-0.2l0.1-0.1v-0.1
			c0-0.2,0-0.3,0-0.6c0-0.2-0.1-0.4-0.2-0.6l-0.1-0.2l-0.2,0.1c-0.1,0-0.3,0.1-0.5,0.2c-0.2,0.1-0.4,0.1-0.7,0.2
			c-0.2,0-0.5,0.1-0.7,0.1c-0.3,0-0.5,0-0.7,0c-0.9,0-1.5-0.2-1.9-0.7c-0.4-0.5-0.6-1.1-0.6-2v-0.1l1.2-0.2c0.7-0.1,1.4-0.3,2.1-0.4
			c0.7-0.2,1.2-0.4,1.7-0.7c0.5-0.3,0.9-0.7,1.2-1.1c0.3-0.4,0.4-0.9,0.4-1.5C153.8,116.3,153.6,115.8,153.2,115.3L153.2,115.3z
			 M147.5,119.4c0.1-0.3,0.2-0.6,0.4-1c0.2-0.4,0.5-0.8,0.8-1.1c0.3-0.3,0.6-0.6,1-0.8s0.7-0.3,1.1-0.3c0.4,0,0.7,0.1,0.9,0.3
			c0.2,0.2,0.3,0.4,0.3,0.6c0,0.5-0.3,1-0.9,1.3c-0.7,0.3-1.6,0.6-2.8,0.8L147.5,119.4z"/>
		<path class="st1" d="M144.9,110.7l-0.2,0c-0.1,0-0.2,0-0.3,0H144c-0.1,0-0.2,0-0.3,0c-0.2,0-0.3,0-0.3,0l-0.2,0l0,0.2
			c0,0.1,0,0.2,0,0.3v0.4c0,0.4,0,0.9-0.1,1.4l-0.3,1.6c-0.1,0-0.2,0-0.3,0c-0.2,0-0.4,0-0.5,0c-1,0-1.9,0.2-2.6,0.6
			c-0.8,0.4-1.4,0.9-1.9,1.6c-0.5,0.7-0.9,1.4-1.1,2.2s-0.4,1.7-0.4,2.5c0,1,0.2,1.9,0.7,2.5c0.4,0.6,1.1,0.9,1.9,0.9
			c0.5,0,0.9-0.1,1.3-0.3c0.4-0.2,0.7-0.4,1-0.7c0.2-0.2,0.5-0.5,0.7-0.7c0,0.1,0,0.1,0,0.2c0,0.1,0,0.3,0,0.4c0,0.2,0,0.3,0,0.4
			c0,0.1,0,0.2,0,0.3l0,0.1l0.1,0c0.1,0,0.2,0,0.3,0c0.1,0,0.5,0,0.5,0c0.1,0,0.2,0,0.3,0c0.1,0,0.2,0,0.3,0l0.2,0l0-0.2
			c0-0.1,0-0.3,0-0.4v-0.3c0-0.4,0-0.9,0.1-1.4c0.1-0.5,0.2-1.1,0.3-1.8l1.1-6.4c0-0.2,0.1-0.4,0.1-0.7l0.1-0.7
			c0-0.3,0.1-0.5,0.1-0.7c0-0.2,0-0.4,0-0.6v-0.3c0-0.1,0-0.2,0-0.4L144.9,110.7z M141.6,116.3c0.4,0,0.7,0,1,0.1l-0.4,2
			c-0.1,0.7-0.3,1.3-0.5,2c-0.2,0.6-0.5,1.2-0.8,1.6c-0.3,0.5-0.7,0.8-1.1,1.1c-0.4,0.3-0.8,0.4-1.2,0.4s-0.7-0.2-0.9-0.5
			c-0.2-0.4-0.3-0.9-0.3-1.5c0-0.8,0.1-1.5,0.3-2.1c0.2-0.6,0.5-1.2,0.9-1.7c0.4-0.5,0.8-0.8,1.4-1.1S141,116.3,141.6,116.3z"/>
		<path class="st1" d="M186,111.1c-0.2,0-0.3,0-0.4,0c-0.1,0-0.2,0-0.4,0c-0.2,0-0.3,0-0.4,0l-0.2,0l0,0.2c0,0.1,0,0.2-0.1,0.4
			c0,0.1-0.1,0.3-0.1,0.4c0,0.1,0,0.2-0.1,0.4c0,0.2,0,0.3,0,0.4l0,0.2l0.2,0c0.1,0,0.2,0,0.4,0c0.2,0,0.3,0,0.4,0
			c0.1,0,0.2,0,0.4,0c0.2,0,0.3,0,0.4,0l0.2,0l0-0.2c0-0.1,0-0.2,0.1-0.4c0-0.2,0.1-0.3,0.1-0.4c0-0.1,0-0.2,0.1-0.4
			c0-0.1,0-0.3,0-0.4l0-0.2l-0.2,0C186.3,111.2,186.1,111.2,186,111.1z"/>
		<path class="st1" d="M168.6,115.2c0,0.2-0.1,0.4-0.1,0.5c0,0.2,0,0.4,0,0.5v0.1h1.1l-1.5,8.4l0.2,0c0.1,0,0.2,0,0.3,0
			c0.1,0,0.2,0,0.3,0c0.1,0,0.2,0,0.3,0s0.2,0,0.3,0l0.2,0l1.7-9.7h-2.8L168.6,115.2z"/>
		<path class="st1" d="M183.4,115.2c0,0.2-0.1,0.4-0.1,0.5c0,0.2,0,0.4-0.1,0.5v0.4h1.1l-1.7,9.5c-0.1,0.6-0.3,1.1-0.6,1.3
			c-0.3,0.3-0.6,0.4-1,0.4c-0.2,0-0.3,0-0.6,0c-0.2,0-0.4-0.1-0.5-0.1l-0.2-0.1l-0.1,0.2c-0.1,0.1-0.2,0.3-0.2,0.5
			c-0.1,0.2-0.1,0.4-0.1,0.5l0,0.2l0.2,0.1c0.4,0.2,1,0.3,1.6,0.3c1,0,1.8-0.3,2.3-0.9c0.5-0.6,0.8-1.4,1-2.4l2-11h-2.8L183.4,115.2
			z"/>
		<path class="st1" d="M171.1,111.1c-0.2,0-0.3,0-0.4,0c-0.1,0-0.2,0-0.4,0s-0.3,0-0.4,0l-0.2,0l0,0.2c0,0.1,0,0.2-0.1,0.4
			c0,0.1-0.1,0.3-0.1,0.4c0,0.1,0,0.2-0.1,0.4c0,0.2,0,0.3,0,0.4l0,0.2l0.2,0c0.1,0,0.2,0,0.4,0c0.2,0,0.3,0,0.4,0
			c0.1,0,0.2,0,0.4,0s0.3,0,0.4,0l0.2,0l0-0.2c0-0.1,0-0.2,0.1-0.4c0-0.2,0.1-0.3,0.1-0.4s0-0.2,0.1-0.4c0-0.1,0-0.3,0-0.4l0-0.2
			l-0.2,0C171.4,111.2,171.3,111.2,171.1,111.1z"/>
		<path class="st1" d="M124.7,111.1c-0.2,0-0.3,0-0.4,0s-0.2,0-0.4,0c-0.2,0-0.3,0-0.4,0l-0.2,0l0,0.2c0,0.1,0,0.2-0.1,0.4
			c0,0.1-0.1,0.3-0.1,0.4c0,0.1,0,0.2-0.1,0.4c0,0.2,0,0.3,0,0.4l0,0.2l0.2,0c0.1,0,0.2,0,0.4,0c0.2,0,0.3,0,0.4,0
			c0.1,0,0.2,0,0.4,0c0.2,0,0.3,0,0.4,0l0.2,0l0-0.2c0-0.1,0-0.2,0.1-0.4s0.1-0.3,0.1-0.4c0-0.1,0-0.2,0.1-0.4c0-0.1,0-0.3,0-0.4
			l0-0.2l-0.2,0C124.9,111.2,124.8,111.2,124.7,111.1z"/>
		<path class="st1" d="M129.7,110.7l-0.2,0c-0.1,0-0.2,0-0.3,0h-0.3c-0.1,0-0.2,0-0.3,0c-0.2,0-0.3,0-0.3,0l-0.2,0l0,0.2
			c0,0.1,0,0.2,0,0.3v0.4c0,0.4,0,0.9-0.1,1.4c-0.1,0.5-0.2,1.1-0.3,1.8l-1.3,7.7c0,0.2-0.1,0.4-0.1,0.6c0,0.3,0.1,0.6,0.2,0.8
			c0.1,0.2,0.3,0.4,0.5,0.5c0.2,0.1,0.4,0.2,0.6,0.3c0.2,0,0.4,0.1,0.7,0.1c0.2,0,0.4,0,0.7,0c0.2,0,0.5-0.1,0.7-0.2l0.1,0l0-0.2
			c0-0.2,0-0.3,0-0.5c0-0.2-0.1-0.4-0.1-0.5l-0.1-0.2l-0.2,0.1c-0.1,0-0.2,0-0.3,0.1c-0.2,0-0.4,0-0.7,0c-0.1,0-0.1,0-0.2-0.1
			c0,0-0.1-0.1-0.1-0.2c0,0-0.1-0.2-0.1-0.4c0-0.1,0-0.3,0-0.4l1.4-8.1c0-0.2,0.1-0.4,0.1-0.7c0-0.3,0.1-0.5,0.1-0.8
			c0-0.3,0.1-0.5,0.1-0.7c0-0.2,0-0.4,0-0.6v-0.3c0-0.1,0-0.2,0-0.4L129.7,110.7z"/>
		<path class="st1" d="M119.7,114.9c-0.4-0.1-0.8-0.1-1.2-0.1c-0.9,0-1.8,0.2-2.5,0.6c-0.7,0.4-1.3,0.9-1.8,1.5
			c-0.5,0.6-0.9,1.3-1.1,2c-0.3,0.8-0.4,1.5-0.4,2.3c0,1.2,0.3,2.2,1,2.9c0.7,0.7,1.7,1,3.1,1c0.1,0,0.3,0,0.5,0
			c0.2,0,0.4,0,0.6-0.1c0.2,0,0.4-0.1,0.7-0.1c0.2,0,0.4-0.1,0.6-0.2l0.1-0.1v-0.2c0-0.2,0-0.3-0.1-0.5c0-0.2-0.1-0.4-0.2-0.5
			l-0.1-0.2l-0.2,0.1c-0.3,0.1-0.6,0.2-0.9,0.3c-0.3,0.1-0.7,0.1-1,0.1c-0.8,0-1.4-0.2-1.9-0.6c-0.4-0.4-0.6-1.1-0.6-2
			c0-0.5,0.1-1.1,0.3-1.6c0.2-0.5,0.4-1,0.7-1.5c0.3-0.5,0.7-0.8,1.2-1.1c0.5-0.3,1-0.4,1.7-0.4c0.3,0,0.6,0,0.9,0.1
			c0.3,0.1,0.6,0.1,0.8,0.2l0.2,0.1l0.1-0.1c0.1-0.1,0.2-0.3,0.3-0.6c0.1-0.2,0.1-0.4,0.1-0.6l0-0.2l-0.2-0.1
			C120.4,115.1,120.1,115,119.7,114.9z"/>
		<path class="st1" d="M110.3,114.8c-0.4-0.1-0.9-0.1-1.3-0.1c-1,0-2,0.2-2.8,0.6c-0.8,0.4-1.5,0.9-2,1.6c-0.5,0.7-0.9,1.4-1.2,2.2
			s-0.4,1.7-0.4,2.5c0,1,0.2,1.8,0.7,2.4c0.5,0.6,1.1,0.9,2,0.9c0.5,0,0.9-0.1,1.3-0.3c0.4-0.2,0.8-0.4,1.1-0.7
			c0.3-0.2,0.5-0.5,0.7-0.7c0,0.1,0,0.2,0,0.3c0,0.3,0,0.6,0,1l0,0.2l0.2,0c0.1,0,0.2,0,0.3,0c0.1,0,0.2,0,0.3,0c0.1,0,0.2,0,0.3,0
			c0.1,0,0.3,0,0.3,0l0.2,0l-0.1-0.3c0-0.1,0-0.1,0-0.2v-0.4c0-0.4,0-0.9,0.1-1.3c0.1-0.5,0.2-1.1,0.3-1.8l1-5.5l-0.2-0.1
			C111.1,115,110.8,114.9,110.3,114.8z M108.7,116.3c0.4,0,0.7,0,1,0.1l-0.4,2c-0.1,0.7-0.3,1.3-0.5,2c-0.2,0.6-0.5,1.2-0.8,1.6
			c-0.3,0.5-0.7,0.8-1.1,1.1c-0.4,0.3-0.8,0.4-1.2,0.4s-0.7-0.2-0.9-0.5c-0.2-0.4-0.3-0.9-0.3-1.5c0-0.8,0.1-1.5,0.3-2.1
			c0.2-0.6,0.5-1.2,0.9-1.7c0.4-0.5,0.8-0.8,1.4-1.1C107.6,116.4,108.1,116.3,108.7,116.3z"/>
		<path class="st1" d="M111,110.9c-0.2,0-0.3,0-0.5,0h-0.4c-0.2,0-0.3,0-0.5,0l-0.1,0l-2,2.8l0.4,0.1c0.2,0,0.5,0.1,0.7,0.1
			c0.3,0,0.5,0,0.8-0.1l0.1,0l2.4-2.8l-0.4,0C111.3,110.9,111.1,110.9,111,110.9z"/>
		<path class="st1" d="M195,114.8c-0.4-0.1-0.9-0.1-1.3-0.1c-1,0-2,0.2-2.8,0.6s-1.5,0.9-2,1.6c-0.5,0.7-0.9,1.4-1.2,2.2
			s-0.4,1.7-0.4,2.5c0,1,0.2,1.8,0.7,2.4c0.5,0.6,1.1,0.9,2,0.9c0.5,0,0.9-0.1,1.3-0.3c0.4-0.2,0.8-0.4,1.1-0.7
			c0.3-0.2,0.5-0.5,0.7-0.7c0,0.1,0,0.2,0,0.3c0,0.3,0,0.6,0,1l0,0.2l0.2,0c0.1,0,0.2,0,0.3,0s0.2,0,0.3,0c0.1,0,0.2,0,0.3,0
			c0.1,0,0.3,0,0.3,0l0.2,0l-0.1-0.3c0-0.1,0-0.1,0-0.2v-0.4c0-0.4,0-0.9,0.1-1.3c0.1-0.5,0.2-1.1,0.3-1.8l1-5.5l-0.2-0.1
			C195.8,115,195.4,114.9,195,114.8z M193.4,116.3c0.4,0,0.7,0,1,0.1l-0.4,2c-0.1,0.7-0.3,1.3-0.5,2c-0.2,0.6-0.5,1.2-0.8,1.6
			c-0.3,0.5-0.7,0.8-1.1,1.1c-0.4,0.3-0.8,0.4-1.2,0.4c-0.4,0-0.7-0.2-0.9-0.5c-0.2-0.4-0.3-0.9-0.3-1.5c0-0.8,0.1-1.5,0.3-2.1
			c0.2-0.6,0.5-1.2,0.9-1.7c0.4-0.5,0.8-0.8,1.4-1.1C192.2,116.4,192.8,116.3,193.4,116.3z"/>
		<path class="st1" d="M122.1,115.2c0,0.2-0.1,0.4-0.1,0.5c0,0.2,0,0.4,0,0.5v0.1h1.1l-1.5,8.4l0.2,0c0.1,0,0.2,0,0.3,0
			c0.1,0,0.2,0,0.3,0c0.1,0,0.2,0,0.3,0s0.2,0,0.3,0l0.2,0l1.7-9.7h-2.8L122.1,115.2z"/>
	</g>
</g>
</svg>
