<?xml version="1.0" encoding="utf-8"?>
<!-- Generator: Adobe Illustrator 22.0.0, SVG Export Plug-In . SVG Version: 6.00 Build 0)  -->
<svg version="1.1" id="Layer_1" xmlns="http://www.w3.org/2000/svg" xmlns:xlink="http://www.w3.org/1999/xlink" x="0px" y="0px"
	 viewBox="0 0 280.1 447.6" style="enable-background:new 0 0 280.1 447.6;" xml:space="preserve">
<style type="text/css">
	.st0{fill:#00BFF2;}
	.st1{fill:#2C0005;}
	.st2{fill:#FFCB31;}
	.st3{fill:#391400;}
	.st4{fill:#FFFFFF;}
	.st5{fill:none;stroke:#FFFFFF;stroke-width:0.537;stroke-miterlimit:10;}
	.st6{fill:#2B388F;}
	.st7{fill:#1B75BB;}
	.st8{fill:#949C38;}
	.st9{fill:#F05A28;}
	.st10{fill:#BE1E2D;}
</style>
<g>
	<path class="st0" d="M107.9,42.3l14.9-22C111.4,18.6,84,19,73,20.3l15.8,23l15.5-1C105.5,42.3,106.7,42.3,107.9,42.3"/>
	<path class="st1" d="M222.3,288.7L222.1,183h-4.5c-17.6,17.5-54.9,41.2-93,41.2c-38.1,0-67.4-23.6-85-41h-4.5l0.1,105.6l0,29.7
		l0,6.1l0,6.3l0,35l187-0.2l0-35l0-6.3L222.3,288.7L222.3,288.7z"/>
	<rect x="35.4" y="329" class="st2" width="187" height="36.9"/>
	<path class="st3" d="M63,340.2l-1.7,1.3c-0.9-1.2-2.1-2.2-3.4-2.8c-1.3-0.6-2.7-1-4.3-1c-1.7,0-3.3,0.4-4.8,1.3
		c-1.5,0.8-2.6,2-3.4,3.4c-0.8,1.4-1.2,3-1.2,4.8c0,2.7,0.9,4.9,2.7,6.7c1.8,1.8,4.1,2.7,6.8,2.7c3,0,5.5-1.2,7.6-3.6l1.7,1.3
		c-1.1,1.4-2.4,2.5-4,3.2c-1.6,0.8-3.4,1.1-5.4,1.1c-3.8,0-6.7-1.3-8.9-3.8c-1.8-2.2-2.7-4.7-2.7-7.8c0-3.2,1.1-5.9,3.3-8.1
		c2.2-2.2,5-3.3,8.3-3.3c2,0,3.8,0.4,5.4,1.2C60.6,337.6,61.9,338.8,63,340.2"/>
	<path class="st3" d="M77.5,335.6c3.3,0,6,1.1,8.2,3.3c2.2,2.2,3.3,4.9,3.3,8.2c0,3.2-1.1,5.9-3.3,8.1c-2.2,2.2-4.9,3.3-8,3.3
		c-3.2,0-5.9-1.1-8.1-3.3c-2.2-2.2-3.3-4.9-3.3-8.1c0-2.1,0.5-4,1.5-5.8c1-1.8,2.4-3.2,4.1-4.2C73.6,336.1,75.5,335.6,77.5,335.6
		 M77.6,337.7c-1.6,0-3.1,0.4-4.5,1.3c-1.4,0.8-2.5,2-3.3,3.4c-0.8,1.4-1.2,3-1.2,4.8c0,2.6,0.9,4.8,2.6,6.6
		c1.8,1.8,3.9,2.7,6.4,2.7c1.7,0,3.2-0.4,4.6-1.2c1.4-0.8,2.5-2,3.3-3.4c0.8-1.4,1.2-3,1.2-4.8c0-1.7-0.4-3.3-1.2-4.7
		c-0.8-1.4-1.9-2.5-3.4-3.4C80.8,338.2,79.2,337.7,77.6,337.7"/>
	<path class="st3" d="M91.1,354l1.8-1.1c1.3,2.4,2.8,3.6,4.5,3.6c0.7,0,1.4-0.2,2-0.5c0.6-0.3,1.1-0.8,1.4-1.4
		c0.3-0.6,0.5-1.2,0.5-1.8c0-0.7-0.2-1.4-0.7-2.2c-0.7-1-1.9-2.1-3.7-3.5c-1.8-1.4-2.9-2.4-3.3-3c-0.7-1-1.1-2.1-1.1-3.3
		c0-1,0.2-1.8,0.7-2.6c0.4-0.8,1.1-1.4,1.9-1.9c0.8-0.4,1.7-0.7,2.7-0.7c1,0,2,0.3,2.8,0.8c0.9,0.5,1.8,1.4,2.8,2.8l-1.7,1.3
		c-0.8-1.1-1.5-1.8-2.1-2.1c-0.6-0.4-1.2-0.5-1.9-0.5c-0.9,0-1.6,0.3-2.1,0.8c-0.5,0.6-0.8,1.2-0.8,2c0,0.5,0.1,0.9,0.3,1.4
		c0.2,0.4,0.5,0.9,1.1,1.5c0.3,0.3,1.2,1,2.8,2.2c1.9,1.4,3.1,2.7,3.8,3.7c0.7,1.1,1,2.2,1,3.3c0,1.6-0.6,3-1.8,4.1
		c-1.2,1.2-2.6,1.8-4.3,1.8c-1.3,0-2.5-0.4-3.6-1.1C92.9,356.8,92,355.6,91.1,354"/>
	<polygon class="st3" points="106.1,338.3 106.1,336.2 117.8,336.2 117.8,338.3 113,338.3 113,358 110.8,358 110.8,338.3 	"/>
	<path class="st3" d="M127.3,336.2l10,21.9H135l-3.4-7.2h-9.3L119,358h-2.4l10.2-21.9H127.3z M127,340.8l-3.7,7.9h7.3L127,340.8z"/>
	<path class="st3" d="M149,336.2h4.3c2.4,0,4,0.1,4.9,0.3c1.3,0.3,2.3,0.9,3.1,1.9c0.8,1,1.2,2.2,1.2,3.6c0,1.2-0.3,2.2-0.8,3.1
		c-0.6,0.9-1.3,1.6-2.4,2c-1,0.5-2.4,0.7-4.2,0.7l7.7,10.2h-2.7l-7.7-10.2h-1.2V358H149V336.2z M151.2,338.3v7.4l3.7,0
		c1.4,0,2.5-0.1,3.2-0.4c0.7-0.3,1.2-0.7,1.6-1.3c0.4-0.6,0.6-1.3,0.6-2c0-0.7-0.2-1.4-0.6-2c-0.4-0.6-0.9-1-1.5-1.3
		c-0.6-0.3-1.7-0.4-3.2-0.4H151.2z"/>
	<rect x="166.7" y="336.2" class="st3" width="2.1" height="21.9"/>
	<path class="st3" d="M193.8,340.2l-1.7,1.3c-0.9-1.2-2.1-2.2-3.4-2.8c-1.3-0.6-2.7-1-4.3-1c-1.7,0-3.3,0.4-4.8,1.3
		c-1.4,0.8-2.6,2-3.4,3.4c-0.8,1.4-1.2,3-1.2,4.8c0,2.7,0.9,4.9,2.7,6.7c1.8,1.8,4.1,2.7,6.8,2.7c3,0,5.5-1.2,7.6-3.6l1.7,1.3
		c-1.1,1.4-2.4,2.5-4,3.2c-1.6,0.8-3.4,1.1-5.4,1.1c-3.8,0-6.7-1.3-8.9-3.8c-1.8-2.2-2.7-4.7-2.7-7.8c0-3.2,1.1-5.9,3.3-8.1
		c2.2-2.2,5-3.3,8.3-3.3c2,0,3.8,0.4,5.4,1.2C191.5,337.6,192.8,338.8,193.8,340.2"/>
	<path class="st3" d="M206.9,336.2l10,21.9h-2.3l-3.4-7.2H202l-3.3,7.2h-2.4l10.1-21.9H206.9z M206.6,340.8l-3.7,7.9h7.4
		L206.6,340.8z"/>
	<path class="st4" d="M44.4,263.2h10.5c6,0,10.1,0.3,12.2,0.8c3,0.8,5.5,2.3,7.4,4.6c1.9,2.3,2.9,5.3,2.9,8.8c0,3.6-0.9,6.5-2.8,8.8
		c-1.9,2.3-4.4,3.9-7.7,4.7c-2.4,0.6-6.8,0.9-13.4,0.9h-3.8v24.9h-5.3V263.2z M49.6,268.5v18.2l8.9,0.1c3.6,0,6.2-0.3,7.9-1
		c1.7-0.7,3-1.8,3.9-3.2c1-1.5,1.4-3.1,1.4-5c0-1.8-0.5-3.4-1.4-4.9c-1-1.5-2.2-2.5-3.8-3.2c-1.6-0.6-4.1-0.9-7.7-0.9H49.6z"/>
	<path class="st5" d="M44.4,263.2h10.5c6,0,10.1,0.3,12.2,0.8c3,0.8,5.5,2.3,7.4,4.6c1.9,2.3,2.9,5.3,2.9,8.8c0,3.6-0.9,6.5-2.8,8.8
		c-1.9,2.3-4.4,3.9-7.7,4.7c-2.4,0.6-6.8,0.9-13.4,0.9h-3.8v24.9h-5.3V263.2z M49.6,268.5v18.2l8.9,0.1c3.6,0,6.2-0.3,7.9-1
		c1.7-0.7,3-1.8,3.9-3.2c1-1.5,1.4-3.1,1.4-5c0-1.8-0.5-3.4-1.4-4.9c-1-1.5-2.2-2.5-3.8-3.2c-1.6-0.6-4.1-0.9-7.7-0.9H49.6z"/>
	<polygon class="st4" points="78.9,263.2 85,263.2 98.4,285.3 111.7,263.2 117.8,263.2 101.1,291.2 101.1,316.8 95.9,316.8 
		95.9,291.2 	"/>
	<polygon class="st5" points="78.9,263.2 85,263.2 98.4,285.3 111.7,263.2 117.8,263.2 101.1,291.2 101.1,316.8 95.9,316.8 
		95.9,291.2 	"/>
	<polygon class="st4" points="116.5,316.8 124.1,263.2 124.9,263.2 146.3,307.1 167.5,263.2 168.3,263.2 175.9,316.8 170.7,316.8 
		165.5,278.5 146.9,316.8 145.6,316.8 126.8,278.2 121.6,316.8 	"/>
	<polygon class="st5" points="116.5,316.8 124.1,263.2 124.9,263.2 146.3,307.1 167.5,263.2 168.3,263.2 175.9,316.8 170.7,316.8 
		165.5,278.5 146.9,316.8 145.6,316.8 126.8,278.2 121.6,316.8 	"/>
	<polygon class="st4" points="183.5,263.2 213.7,263.2 213.7,268.5 188.8,268.5 188.8,285.2 213.5,285.2 213.5,290.5 188.8,290.5 
		188.8,311.5 213.5,311.5 213.5,316.8 183.5,316.8 	"/>
	<polygon class="st5" points="183.5,263.2 213.7,263.2 213.7,268.5 188.8,268.5 188.8,285.2 213.5,285.2 213.5,290.5 188.8,290.5 
		188.8,311.5 213.5,311.5 213.5,316.8 183.5,316.8 	"/>
	<path class="st6" d="M131.9,244.8l0,0.2L131.9,244.8C131.9,244.8,131.9,244.8,131.9,244.8"/>
	<path d="M131.9,245l-0.1-0.2c0,0,0,0,0.1,0L131.9,245z"/>
	<path class="st0" d="M72.3,139.3l1,1.9l2.2,4.3c0.2-0.3,0.5-0.6,0.7-1c0.3-0.3,0.6-0.7,0.9-1L72.3,139.3z"/>
	<path class="st7" d="M79,141.6c-0.7,0.6-1.3,1.3-1.9,1.9l-4.8-4.2L79,141.6z"/>
	<path class="st0" d="M69.1,159.5l-6.8-4.4l7.5,1.7C69.5,157.7,69.3,158.6,69.1,159.5"/>
	<path class="st7" d="M62.3,155.1l8.4-1.1c-0.4,0.9-0.7,1.9-1,2.8L62.3,155.1z"/>
	<path class="st0" d="M68.7,176.4l-8-2.5l7.7-0.3C68.4,174.5,68.5,175.4,68.7,176.4"/>
	<path class="st7" d="M68.4,173.6l-7.7,0.3l7.7-3.2C68.3,171.6,68.3,172.6,68.4,173.6"/>
	<path class="st0" d="M72.3,187.8c0.4,0.9,0.8,1.9,1.3,2.8l-9.1-0.2L72.3,187.8z"/>
	<path class="st7" d="M71.2,184.8c0.3,1,0.7,2,1.1,3l-7.8,2.6L71.2,184.8z"/>
	<path class="st0" d="M82.3,200.1c0.8,0.7,1.7,1.3,2.6,1.9l-8.2,3.8L82.3,200.1z"/>
	<path class="st7" d="M79.8,197.9c0.8,0.8,1.7,1.5,2.5,2.2l-5.6,5.7L79.8,197.9z"/>
	<path class="st0" d="M97.4,207.9c1.1,0.2,2.3,0.4,3.4,0.5l-5.6,7.1L97.4,207.9z"/>
	<path class="st7" d="M94,207c1.1,0.3,2.3,0.6,3.5,0.8l-2.2,7.6L94,207z"/>
	<path class="st7" d="M113.2,208.3c1.3,0,2.6,0,3.8-0.1l0.6,8.4L113.2,208.3z"/>
	<path class="st0" d="M84,135l-1.2-6.2l3.3,4.9C85.4,134.1,84.7,134.5,84,135"/>
	<path class="st7" d="M82.8,128.8l5.5,3.6c-0.8,0.4-1.5,0.8-2.3,1.2L82.8,128.8z"/>
	<path class="st0" d="M94.7,130.4l1.5-5.3l0.6,4.9C96.2,130.2,95.4,130.3,94.7,130.4"/>
	<path class="st7" d="M96.3,125.1l2.9,4.8c-0.8,0-1.5,0.1-2.3,0.2L96.3,125.1z"/>
	<path class="st6" d="M59.3,181.2L59.3,181.2L59.3,181.2z"/>
	<path class="st6" d="M66.9,196.1C66.9,196.1,66.9,196.1,66.9,196.1C66.9,196.2,66.9,196.1,66.9,196.1"/>
	<path class="st6" d="M80.5,207.7C80.5,207.7,80.5,207.7,80.5,207.7C80.5,207.7,80.5,207.7,80.5,207.7"/>
	<path class="st6" d="M97.6,213.3C97.6,213.3,97.6,213.3,97.6,213.3C97.6,213.3,97.6,213.3,97.6,213.3"/>
	<path d="M119.8,208.2L119.8,208.2C119.8,208.2,119.8,208.2,119.8,208.2"/>
	<path class="st0" d="M117,208.2l0.6,8.4l3.1-8.8C119.5,208,118.3,208.2,117,208.2"/>
	<path class="st7" d="M145.1,207.1l-7.9-6.3c1.2-0.4,2.4-1,3.6-1.5L145.1,207.1z"/>
	<path class="st6" d="M122.4,203.3c0,0,0,0.1,0.1,0.2l0,0L122.4,203.3z"/>
	<path class="st6" d="M122.4,203.3L122.4,203.3L122.4,203.3z"/>
	<polygon points="122.4,203.4 122.4,203.3 122.4,203.3 122.5,203.4 	"/>
	<path class="st6" d="M149.7,231.2c0.1,0,0.2-0.1,0.3-0.1l-0.1,0.4L149.7,231.2z"/>
	<path class="st0" d="M144.2,197.5l0.9,9.6l-4.3-7.9C142,198.7,143.1,198.1,144.2,197.5"/>
	<path class="st0" d="M161,181.4c1-1.1,2-2.2,2.9-3.3l5.9,10.4L161,181.4z"/>
	<path class="st7" d="M157.6,184.7c1.2-1,2.3-2.1,3.4-3.2l8.8,7L157.6,184.7z"/>
	<path class="st0" d="M171.3,159.2c0.6-1.5,1.1-3.1,1.6-4.7l11.1,8.9L171.3,159.2z"/>
	<path class="st7" d="M169.1,163.9c0.8-1.5,1.5-3.1,2.1-4.7l12.7,4.3L169.1,163.9z"/>
	<path class="st0" d="M185.7,135.7l-13.4,0.7c-0.1-1.6-0.4-3.3-0.7-4.9L185.7,135.7z"/>
	<path class="st7" d="M172.5,141.4c0-1.7,0-3.3-0.2-5l13.4-0.7L172.5,141.4z"/>
	<path class="st0" d="M164.3,109.8l14.5,0.3l-12.4,4.1C165.8,112.7,165.1,111.2,164.3,109.8"/>
	<path class="st7" d="M166.4,114.2l12.4-4.1l-10.7,8.9C167.7,117.3,167.1,115.7,166.4,114.2"/>
	<path class="st0" d="M148.5,90.9l13.2-4.2l-9.6,7.5C150.9,93.1,149.7,92,148.5,90.9"/>
	<path class="st7" d="M152.1,94.3l9.6-7.5l-6.2,11.3C154.4,96.8,153.3,95.5,152.1,94.3"/>
	<path class="st6" d="M148.4,191.8C148.4,191.8,148.4,191.8,148.4,191.8C148.4,191.8,148.4,191.8,148.4,191.8"/>
	<path class="st6" d="M167.9,172.5C167.9,172.5,167.9,172.5,167.9,172.5C168,172.5,167.9,172.5,167.9,172.5"/>
	<path class="st6" d="M177.7,146.7C177.7,146.7,177.8,146.7,177.7,146.7C177.8,146.7,177.8,146.7,177.7,146.7"/>
	<path class="st6" d="M194.1,133.5c-0.2-0.6-1.5-5.5-6.2-8.8C190.7,126.4,193.1,129.1,194.1,133.5"/>
	<path class="st6" d="M176.3,121.8L176.3,121.8L176.3,121.8z"/>
	<path class="st6" d="M163.9,100.5C163.9,100.5,163.9,100.5,163.9,100.5C163.9,100.5,163.9,100.5,163.9,100.5"/>
	<path class="st6" d="M142.3,85.3C142.3,85.3,142.3,85.2,142.3,85.3C142.4,85.2,142.3,85.2,142.3,85.3"/>
	<path class="st2" d="M114,76.7C114,76.7,114,76.7,114,76.7C114,76.6,114,76.7,114,76.7"/>
	<path class="st2" d="M204.7,99.4c0,0-15.9-33.9-58.6-49.4c-0.8-0.3-1.7-0.6-2.5-0.9c-0.8-0.3-1.8-0.5-3.1-0.9
		c-11.3-3.6-40.2-10.6-73-1.3c0.5-0.1,2.5,1.8,2.8,2.2c3,2.8,5.2,6.3,7.6,9.7c0.3,0.4,2.7,4.2,3,4.2c14.1-2.8,32.3-3.4,53.1,3.3
		c0.1-0.2,0.2-0.3,0.3-0.5c8.9,3.3,19.6,8.2,29.2,15.5c1.5,1.1,2.7,2.4,4.1,3.6c10.7,9.4,19.9,22.1,24.1,39.4c0,0,2.2,5.7,2.8,13.7
		c0.1,2.1-0.4,3.9-0.5,6.4c-0.6,29.7-17.1,52.8-43.6,65.8c-10.7,5.2-16,7.2-31.9,10c-23.8,4.2-46.6-9.8-57.4-28.9
		c-1.4-2.5-7.8,1-8.9-2.1c-0.7-2,5.7-9.8,5.1-12.1c0,0-2.3-17.4,5.1-30.7c1-1.7,4.6-7.4,5.9-8.9c2.7-3.2,3.6-4.1,8.4-3.7l-11.7-9.7
		c0,0-6.2,5.4-7.7,6.3c-0.9,0.5-2.6,1.8-3.4,2.4c-6.6,5.1-11.8,13.6-14.9,29.4c-6,30.7,2.4,89.5,101.5,74.2
		C140.6,236.4,264.2,198.9,204.7,99.4"/>
	<path class="st0" d="M99.6,79.1l5.5-11.7L104.9,79C103.1,78.9,101.3,79,99.6,79.1"/>
	<path class="st7" d="M104.9,79l0.2-11.5l5.3,11.9C108.6,79.1,106.7,79,104.9,79"/>
	<path class="st0" d="M125.5,81.5l9.6-8.9l-4.7,10.6C128.8,82.6,127.1,82,125.5,81.5"/>
	<path class="st7" d="M130.4,83.3l4.7-10.6l0.3,12.9C133.8,84.7,132.1,83.9,130.4,83.3"/>
	<path class="st8" d="M53,106.9l8.9,10.6l-0.1,0l2.4,7.5c-1.5,1.2-3,2.4-4.3,3.7l-3.9-12.4L53,106.9z"/>
	<path class="st1" d="M53,106.9l9.4,4.9l12.6,6.7c-1.9,0.9-3.8,1.8-5.6,2.9l-7.5-4L53,106.9z"/>
	<path class="st8" d="M81.7,99.9l2.6,10.1l0,0l-0.9,6.1c-1.5,0.4-3,0.9-4.4,1.5l1.6-10.1L81.7,99.9z"/>
	<path class="st1" d="M81.7,99.9l5,6.2l6.7,8.4c-1.7,0.1-3.3,0.2-5,0.5l-4-5L81.7,99.9z"/>
	<path class="st0" d="M209,175.1l18,21.1c5.4-10.1,9.8-21.3,12-32.2l-28.6,6.9C210.1,172.3,209.6,173.7,209,175.1"/>
	<path class="st0" d="M238.4,117.2L214.5,134c0.1,0.8,0.2,1.6,0.2,2.4c0.1-0.3,0.1-0.7,0.1-1.1l26.4,13.2
		C241.8,138.1,240.8,127.6,238.4,117.2"/>
	<path class="st0" d="M45.7,151.6c0.4-1.1,0.9-2.1,1.4-3.1l-5.4-6.4l-6-7.1c-4,6.5-6.9,13.4-8.7,20.3l10.2-2L45.7,151.6z"/>
	<path class="st0" d="M42.5,173l-10.2-5.5l-6.2-3.4c-0.7,6.2-0.6,12.4,0.3,18.5c0,0,0.4,2.4,0.6,3.4l0.4-0.2c0,0,0,0.1,0,0.1
		l15.3-9.9C42.6,175,42.6,174,42.5,173"/>
	<path class="st0" d="M46.2,220l-1.6,0.4c0.1,0,1,1,1.1,1.2c0.4,0.4,0.7,0.8,1.1,1.2c2.2,2.2,4.5,4.3,6.9,6.3
		c1.5,1.3,3.1,2.6,4.6,3.9c0.8,0.7,1.7,1.5,2.6,2.2c0.7,0.6,1.3,1.1,2,1.7l0.2-1.1l3.3-16.8c-1.1-0.9-2.2-1.8-3.3-2.7L46.2,220z"/>
	<path class="st0" d="M47.9,195.5l-17.3-2.2l-1.6-0.2c2.3,7.1,5.8,14,10.4,20.4l1.2-1.8l8.9-12.9C48.9,197.7,48.4,196.6,47.9,195.5"
		/>
	<path class="st0" d="M90.6,231.8c-1.3-0.4-3-0.8-4.2-1.7l-15.1,9.7l-2.1,1.3c7.9,5.2,17.1,9.6,27.8,12.5l-1.7-6.2L90.6,231.8z"/>
	<path class="st0" d="M117.3,235.6c-1.2,0.1-3-0.1-4.2-0.1l-9.3,13.1l-3.9,5.3c10.6,2.2,22.7,3.1,36.2,2.2l-7.9-8.4L117.3,235.6z"/>
	<path class="st0" d="M187.8,206.3l8.2,26.1c9.5-7.4,17.6-15.8,24.3-24.8l-29.9-3.9C189.5,204.6,188.6,205.5,187.8,206.3"/>
	<path class="st0" d="M154.8,227.1l-0.1,0.4l-0.2,1.6l-0.9,6l-2.6,16.5l-0.4,2.6c11.8-3.4,23.3-8.2,34.1-14.6l-25.8-14.2
		C157.5,226,156.1,226.6,154.8,227.1"/>
	<path class="st0" d="M209.7,63c-8.1-8.6-17.3-16.1-27.3-22.3l-4.8,26.6c1,0.8,2.1,1.9,3,2.7L209.7,63z"/>
	<path class="st0" d="M205.3,101.1l29.7,3.5c-3.6-10-8.6-19.7-15.3-28.9L204,98.5C204.4,99.4,204.9,100.2,205.3,101.1"/>
	<path class="st0" d="M138.5,23.2l5.6,26.1c1,0.4,2.2,0.8,3.2,1.2l24.4-14.8C161.5,30.5,150.4,26.2,138.5,23.2"/>
	<path class="st8" d="M214.7,146.6c0.1-1.6,0.1-3.1,0.1-4.7c0-1.6,0-3.1-0.1-4.7c0-0.4,0-0.9-0.1-1.3c0-0.4,0-0.8-0.1-1.2
		c0-0.1,0-0.6-0.1-0.7l26.7,13.6l21,10.8l-32.1-4L214.7,146.6z"/>
	<path class="st1" d="M213.3,159.4l16.1-4.5l0.6-0.3l32.1,4l-22.8,5.6l-28.8,7.1C211.6,167.5,212.6,163.2,213.3,159.4"/>
	<path class="st9" d="M233.2,154.9l-54.7-6.2c0,0,14.8,0.3,16.1-13.2l21.5,10.8l15.4,7.7L233.2,154.9z"/>
	<path class="st10" d="M214.8,159.7l-24.3,6.2c0,0,0,0,0,0c0.8-4.5-0.4-7.9-2.3-10.5c-3.3-4.5-8.9-6.3-9.6-6.6c0,0-0.1,0-0.1,0
		l54.7,6.2L214.8,159.7z"/>
	<path class="st8" d="M172.6,44.7l-15.6,10c-3.7-1.8-7.5-3.4-11.4-4.8l24.2-15.6L189.1,22L172.5,45L172.6,44.7z"/>
	<path class="st1" d="M169.2,61.6l3.3-16.6L189,22.2l-4.2,20.7l-5.3,26.4C176.3,66.6,172.9,64,169.2,61.6"/>
	<path class="st9" d="M143.5,85c0,0,6.6-11.5-6-18.1l20.1-12.7l15.6-9.9L143.5,85z"/>
	<path class="st10" d="M173.1,44.3l-3.5,16.9l-4.4,21.4c0,0,0,0-0.1,0c-4-2.5-7.8-2.9-11.1-2.5c-5.8,0.8-10,4.4-10.5,4.9
		c0,0-0.1,0-0.1,0L173.1,44.3L173.1,44.3z"/>
	<path class="st8" d="M129.1,29.3l-10.3,14.1c-4.2-0.5-8.4-0.9-12.5-1l16.2-22.1l12.8-17.5l-6,26.6L129.1,29.3z"/>
	<path class="st1" d="M132.8,46l-3.7-16.6l6-26.6l4.6,20.7l5.8,26.3C141.5,48.4,137.2,47.1,132.8,46"/>
	<path class="st9" d="M118,75.8c0,0,1.5-12.5-12.9-14.7l13.8-18.5l10.4-13.9L118,75.8z"/>
	<path class="st10" d="M129.4,28.9l3.4,16.5l4.4,21.5c0,0,0,0-0.1,0c-4.7-1.1-8.4-0.3-11.3,1.1c-5.1,2.5-7.5,7.2-7.8,7.8
		c0,0,0,0.1,0,0.1l11.3-47.1L129.4,28.9z"/>
	<path class="st8" d="M207.5,73.3l-19.1,4.4c-2.8-2.9-5.8-5.7-8.9-8.3l29.8-6.9L233,57l-25.6,16.3L207.5,73.3z"/>
	<path class="st1" d="M197.2,88l10.2-14.6L233,57l-12.8,18.3L204,98.6C202,95,199.7,91.5,197.2,88"/>
	<path class="st9" d="M163.2,101.6c0,0,11.2-8.7,2-19l24.4-5.5l18.8-4.2L163.2,101.6z"/>
	<path class="st10" d="M208.3,73l-10.2,14.5l-13.2,18.8c0,0,0,0,0-0.1c-2.7-3.6-6.2-5.3-9.5-5.9c-5.8-1.1-11.3,0.9-12,1.2
		c-0.1,0-0.1,0-0.1,0l45.2-28.7L208.3,73z"/>
	<path class="st1" d="M212.6,121.9l15.2-10.8l29.8-7.5l-19.1,13.5l-24,17C214.1,130,213.5,125.9,212.6,121.9"/>
	<path class="st8" d="M228,111l-19.2-1.8c-1.4-3.6-3-7.1-4.8-10.6l29.8,2.8l23.8,2.2l-29.8,7.5L228,111z"/>
	<path class="st9" d="M176.3,123.9c0,0,13-5.2,8.5-17.6l25.3,2.7l19.2,1.8L176.3,123.9z"/>
	<path class="st10" d="M229.2,110.9l-15.3,10.7l-19.6,13.7c0,0,0,0,0-0.1c-1.1-4.3-3.6-7-6.4-8.6c-4.9-2.9-10.8-2.7-11.6-2.6
		c-0.1,0-0.1,0-0.1,0l53.1-13.2L229.2,110.9z"/>
	<path class="st8" d="M205.5,182.3c1.9-3.7,3.7-7.4,5.1-11.3l19.1,22.5l14.9,17.5l-27.4-14.9L205.5,182.3z"/>
	<path class="st1" d="M198.3,193.9l19.2,2.5l-0.3-0.3l27.4,14.9l-23.7-3.2l-30.5-4.1C193.2,200.6,195.9,197.3,198.3,193.9"/>
	<path class="st9" d="M219,197.1l-49-24.3c0,0,13.8,5.3,20.3-7l16.2,17.7l12.2,13.3L219,197.1z"/>
	<path class="st10" d="M199.9,195.3l-25.4-2.4c0,0,0,0,0.1-0.1c2.5-3.9,2.7-7.5,2-10.5c-1.4-5.3-5.9-8.9-6.5-9.4c0,0-0.1,0-0.1,0
		l49,24.3L199.9,195.3z"/>
	<path class="st8" d="M180.8,212.1c3.3-2.6,6.4-5.3,9.3-8.1l7.8,26.6l5.8,20L185.5,228L180.8,212.1z"/>
	<path class="st1" d="M169.9,219.6l15.7,8.7l-0.1-0.4l18.3,22.7l-19.4-10.8l-25.8-14.4C162.5,223.8,166.2,221.8,169.9,219.6"/>
	<path class="st9" d="M187.3,230.2L151.9,192c0,0,11.7,9.8,22.6,0.8l6.9,21.5l5.7,15.5L187.3,230.2z"/>
	<path class="st10" d="M171,222.5l-22.9-11.3c0,0,0,0,0,0c3.9-2.7,5.6-5.5,6.1-8.5c0.9-5.3-1.8-10-2.2-10.6c0,0,0-0.1,0-0.1
		l35.3,38.2L171,222.5z"/>
	<path class="st8" d="M43,136.1l-0.7-0.7l0.1,0l-16.9-7.8l8.8,9.1l6.5,6.6l5.8,6c0.8-2.2,1.7-4.4,2.8-6.5L43,136.1z"/>
	<path class="st1" d="M45.2,129l-6-0.4l-13.6-1l16.9,7.8l0.8,0.1l10.1,0.7c1.5-2.2,3-4.2,4.7-6.2L45.2,129z"/>
	<path class="st9" d="M77.9,135.4c0,0-5.2-4.3-9.2,1.5L64,124.5l-2.6-7.5L77.9,135.4z"/>
	<path class="st10" d="M61.5,117l7.6,3.8l10.7,5.3c0,0,0,0,0,0c-1.9,1.3-2.7,2.8-2.9,4.2c-0.5,2.5,0.8,4.8,0.9,5.1c0,0,0,0,0,0
		L61.5,117L61.5,117z"/>
	<path class="st9" d="M89.3,127.6c0,0-1.8-4.7-7.1-3.3l1.2-8.6l0.9-6.1L89.3,127.6z"/>
	<path class="st10" d="M84.4,109.6l4,4.9l5.7,7c0,0,0,0,0,0c-1.8,0.4-2.9,1.2-3.6,2.1c-1.2,1.7-1.2,3.6-1.2,3.9c0,0,0,0,0,0
		L84.4,109.6L84.4,109.6z"/>
	<path class="st8" d="M155.4,226.9l-7.2,47.7l-11.3-42.2C136.9,232.4,146.3,230.7,155.4,226.9"/>
	<path class="st1" d="M117.2,235.6l31,39.1l-11-40.9C137.2,233.8,121.6,235.8,117.2,235.6"/>
	<path class="st9" d="M129.9,206l12,45.3l6.2-40C148.1,211.2,135.3,216.2,129.9,206"/>
	<path class="st10" d="M118.5,220.1c0,0,14.8-0.7,11.4-14.2l12,45.3L118.5,220.1z"/>
	<path class="st1" d="M98.9,233.7c-2.8-0.5-5.6-1.1-8.3-1.8l5.2,17.3l1.9,6.5l1.6,5.4l0.7-4.8l1.8-13L98.9,233.7z"/>
	<path class="st8" d="M107,235.4l-5.2,8.4l0-0.1l-1.8,12.6l-0.7,4.7l2.7-4.3l3.8-6.2l9.4-15.1C112.4,235.6,109.7,235.6,107,235.4"/>
	<path class="st8" d="M79.3,226.9l-8,5.3l-5.2,7.4l-5.5,7.9l8.6-5.7l2.1-1.4l15.6-10.3C84.3,229.1,81.8,228.1,79.3,226.9"/>
	<path class="st1" d="M72.6,223.1c-2.2-1.4-4.3-2.9-6.3-4.4l-3.3,17.1l-0.2,1.2l-2.1,10.5l5.5-7.9l5.2-7.4l-0.6,0.4L72.6,223.1z"/>
	<path class="st9" d="M75.6,195.1c0,0-7,5.6-1.3,12.2l-16.7,3.9l-10,2.3L75.6,195.1z"/>
	<path class="st10" d="M47.6,213.5l5.5-8l9.1-13.4c0,0,0,0,0,0c1.7,2.3,3.8,3.4,5.9,3.8c3.6,0.7,7-0.6,7.5-0.8c0,0,0.1,0,0.1,0
		L47.6,213.5L47.6,213.5z"/>
	<path class="st8" d="M58,210.9l-10,2.3l0,0l-4.5,3l-11,7.2l12.4-2.9l1.6-0.4l16.9-3.9C61.4,214.5,59.6,212.7,58,210.9"/>
	<path class="st1" d="M49.4,198.6l-8.9,13.1l-1.2,1.8l-6.8,9.9l11-7.2l4.5-3l5.5-8C51.9,203,50.6,200.8,49.4,198.6"/>
	<path class="st8" d="M45.6,189.8l-10.4-1.1l0.1,0l-6.1,1.4l-12.6,3l12.9,1.4l1.6,0.2l17.3,1.9C47.3,194.3,46.4,192.1,45.6,189.8"/>
	<path class="st1" d="M42.6,175.3l-15.2,10.3l-0.4,0.3L16.6,193l12.6-3l6.1-1.4l8.4-5.7C43.1,180.4,42.8,177.9,42.6,175.3"/>
	<path class="st8" d="M42.8,165.5l-8.3-4.3l-0.8-0.4l-19.6-2.6l11.8,6.1l6.3,3.3l10.3,5.4C42.5,170.4,42.5,168,42.8,165.5"/>
	<path class="st1" d="M37.5,152.9l-10.2,2.3l-13.2,3l19.6,2.6l-0.5-0.3l1.7-0.4l9-2c0.5-2.4,1.2-4.8,2.1-7.1L37.5,152.9z"/>
	<path class="st9" d="M117,220.4l-9.7,16.1l-5.3,8.9l4.5-32.5C106.4,212.9,107.4,219.6,117,220.4"/>
	<path class="st10" d="M93.3,218.1c3,0.5,6.2,1.1,8.8-0.6c1.5-1,3.6-2.8,4.2-4.5c0,0,0-0.1,0-0.1l-4.5,32.5l0-0.1l-2.9-9.7
		l-4.6-14.3C94.4,221.3,93.3,218.1,93.3,218.1"/>
	<path class="st9" d="M92.7,217.9L79,227l-8,5.3l-0.6,0.4l18.5-26.5C88.9,206.2,84.7,213.7,92.7,217.9"/>
	<path class="st10" d="M75.3,207.9c2.5,1.6,4.9,1.9,7,1.6c3.7-0.5,6.3-2.9,6.6-3.2c0,0,0,0,0,0l-18.5,26.5l1.8-9.5L75.3,207.9
		C75.3,207.9,75.3,207.9,75.3,207.9"/>
	<path class="st9" d="M33.7,160.8l-1.4-0.2l0.5,0.3l0.8,0.4l8.3,4.2l15.1,8c0.9-8.3,9.6-8.5,9.6-8.5L33.7,160.8z"/>
	<path class="st10" d="M66.5,165c-0.5-0.2-3.9-1.3-6-4.1c-1.2-1.6-1.9-3.7-1.3-6.4l0,0l-16.3,3.8l-9,2.1l-1.7,0.4l1.4,0.2L66.5,165
		C66.5,165.1,66.5,165.1,66.5,165"/>
	<path class="st9" d="M67.9,181.1c0,0-8.7,2.9-6.1,10.9l-17-1.9L34.4,189L67.9,181.1z"/>
	<path class="st10" d="M34.5,188.9l8.4-5.7l13.8-9.4l0,0c0.7,2.7,2.2,4.4,3.9,5.5c3.1,1.9,6.8,1.8,7.3,1.7c0,0,0.1,0,0.1,0
		L34.5,188.9L34.5,188.9z"/>
	<path class="st9" d="M42.7,135.6l-0.8-0.4l0.7,0.7l6.3,6.5l10.4,10.7c3.7-7.2,12-4.3,12-4.3L42.7,135.6z"/>
	<path class="st10" d="M71.2,148.9c-0.4-0.3-3.1-2.3-3.9-5.4c-0.4-1.6-0.4-3.5,0.8-5.7l0.5-0.7l-15.9-1l-9.8-0.7l-0.8,0l-0.1,0
		l0.8,0.4L71.2,148.9C71.3,148.9,71.3,148.9,71.2,148.9"/>
</g>
<g>
	<path d="M37.7,425.3v-4l5.1-4.9c12.2-11.6,17.7-17.7,17.7-24.9c0-4.8-2.3-9.3-9.5-9.3c-4.3,0-7.9,2.2-10.1,4l-2.1-4.5
		c3.3-2.8,8-4.8,13.5-4.8c10.3,0,14.6,7,14.6,13.9c0,8.8-6.4,15.9-16.4,25.6l-3.8,3.5v0.1h21.4v5.4H37.7z"/>
	<path d="M89.3,383.6h-0.1l-8.3,4.5l-1.2-4.9l10.4-5.6h5.5v47.7h-6.2V383.6z"/>
	<path d="M114.5,417.9c1.8,1.2,6.1,3,10.6,3c8.3,0,10.9-5.3,10.8-9.2c-0.1-6.7-6.1-9.5-12.3-9.5h-3.6v-4.8h3.6
		c4.7,0,10.6-2.4,10.6-8.1c0-3.8-2.4-7.2-8.4-7.2c-3.8,0-7.5,1.7-9.5,3.2l-1.7-4.7c2.5-1.8,7.3-3.7,12.5-3.7
		c9.4,0,13.6,5.6,13.6,11.4c0,4.9-2.9,9.1-8.8,11.2v0.1c5.9,1.2,10.6,5.6,10.6,12.2c0,7.6-5.9,14.3-17.4,14.3
		c-5.4,0-10-1.7-12.4-3.2L114.5,417.9z"/>
	<path d="M179,383.1h-18.2l-1.8,12.2c1.1-0.1,2.1-0.3,3.9-0.3c3.7,0,7.3,0.8,10.3,2.6c3.7,2.1,6.8,6.2,6.8,12.2
		c0,9.3-7.4,16.3-17.7,16.3c-5.2,0-9.6-1.5-11.9-2.9l1.6-4.9c2,1.2,5.9,2.6,10.2,2.6c6.1,0,11.3-4,11.3-10.3
		c-0.1-6.2-4.2-10.6-13.7-10.6c-2.7,0-4.8,0.3-6.6,0.5l3.1-22.9H179V383.1z"/>
	<path d="M187.6,413.2c0-6,3.6-10.3,9.5-12.8l-0.1-0.2c-5.3-2.5-7.6-6.6-7.6-10.7c0-7.6,6.4-12.7,14.7-12.7
		c9.2,0,13.9,5.8,13.9,11.7c0,4-2,8.4-7.8,11.1v0.2c5.9,2.3,9.6,6.5,9.6,12.3c0,8.3-7.1,13.9-16.2,13.9
		C193.6,426.1,187.6,420.2,187.6,413.2z M213.2,412.9c0-5.8-4-8.6-10.5-10.4c-5.6,1.6-8.6,5.3-8.6,9.8c-0.2,4.8,3.4,9.1,9.5,9.1
		C209.5,421.4,213.2,417.8,213.2,412.9z M195.5,389.1c0,4.8,3.6,7.3,9.1,8.8c4.1-1.4,7.3-4.3,7.3-8.7c0-3.8-2.3-7.8-8.1-7.8
		C198.4,381.4,195.5,385,195.5,389.1z"/>
</g>
</svg>
