<?xml version="1.0" encoding="utf-8"?>
<!-- Generator: Adobe Illustrator 22.0.0, SVG Export Plug-In . SVG Version: 6.00 Build 0)  -->
<svg version="1.1" id="Icon" xmlns="http://www.w3.org/2000/svg" xmlns:xlink="http://www.w3.org/1999/xlink" x="0px" y="0px"
	 viewBox="0 0 70 70" style="enable-background:new 0 0 70 70;" xml:space="preserve">
<style type="text/css">
	.st0{fill:#8DBE41;}
	.st1{fill:#D7B460;}
	.st2{fill:url(#SVGID_1_);}
	.st3{fill:#7CB545;}
	.st4{fill:#FEFEFE;}
</style>
<path class="st0" d="M-491.3-369.3c0.3-0.1,0.5-0.2,0.8-0.2c-0.1,0.2-0.2,0.4-0.3,0.7C-491-369-491.2-369.2-491.3-369.3z"/>
<g>
	<path class="st1" d="M56.5,55.3c1.7-0.5,3.1-1.5,4.4-2.6c2.6-2.4,4.1-5.5,5.1-8.8c0.7-2.2,1.1-4.5,1.7-6.7c0.1-0.4,0.2-0.9,0.5-1.3
		c0.4-0.7,1.1-0.7,1.5,0c0.3,0.5,0.4,1,0.4,1.5c0.1,1.6-0.2,3.2-0.3,4.8c-0.3,2.6-0.8,5.1-1.6,7.5c-0.8,2.4-2.2,4.4-3.9,6.3
		c-2.3,2.5-5.1,4.5-7.8,6.5c-1.8,1.4-3.4,2.9-4.4,5c-0.3,0.6-0.5,1.3-0.7,2C51.2,69.9,51,70,50.7,70c-2.5-0.1-5-0.1-7.5-0.2
		c-0.2,0-0.4,0-0.4-0.3c0.5-4.8,1.5-9.3,4.2-13.3c1.4-2.1,3.2-3.6,5.6-4.5c2.1-0.7,3.9-2.1,5.6-3.6c0.8-0.8,1.6-1.7,2.5-2.4
		c0,0,0.1-0.1,0.1-0.1c0.6-0.5,1.3-0.6,1.8-0.3c0.4,0.3,0.6,0.9,0.3,1.7c-0.3,1-0.8,1.8-1.4,2.6c-1.4,2-3,3.7-4.8,5.3
		C56.6,55.1,56.5,55.1,56.5,55.3c0,0-0.1,0-0.1,0c0,0,0,0,0,0C56.4,55.4,56.5,55.3,56.5,55.3z"/>
	<path class="st1" d="M25.4,55.3c-1-1-2-1.9-2.9-2.9c-1.2-1.3-2.3-2.7-3.2-4.3c-0.3-0.5-0.5-1-0.5-1.6c-0.1-0.4,0-0.9,0.4-1.1
		c0.4-0.3,0.8-0.3,1.3-0.1c0.5,0.3,0.9,0.7,1.4,1.1c1.2,1.2,2.4,2.5,3.9,3.5c1.1,0.8,2.3,1.5,3.5,1.9c2.7,0.9,4.6,2.8,6,5.2
		c2,3.3,3,6.9,3.5,10.6c0.1,0.6,0.1,1.2,0.2,1.8c0.1,0.4-0.1,0.5-0.5,0.5c-1,0-2.1,0-3.1,0.1c-1.4,0-2.8,0.1-4.3,0.1
		c-0.2,0-0.5,0-0.5-0.3c-0.7-3.1-2.6-5.2-5-7c-1.8-1.4-3.8-2.7-5.5-4.2c-2.4-2.2-4.6-4.5-5.9-7.5c-1-2.4-1.6-4.9-1.9-7.5
		c-0.3-1.7-0.4-3.4-0.5-5.1c0-0.8,0-1.5,0.4-2.2c0.2-0.4,0.4-0.6,0.8-0.6c0.4,0,0.6,0.3,0.7,0.6c0.6,1.1,0.7,2.4,1,3.6
		c0.7,3.1,1.5,6.1,3,8.9c1.7,3,4,5.3,7.2,6.7c0.1,0,0.2,0.1,0.3,0.1C25.2,55.3,25.2,55.3,25.4,55.3z"/>
	<linearGradient id="SVGID_1_" gradientUnits="userSpaceOnUse" x1="34.0029" y1="0.2485" x2="34.0029" y2="68.6643">
		<stop  offset="0" style="stop-color:#509F00"/>
		<stop  offset="0.8632" style="stop-color:#1E3F1C"/>
	</linearGradient>
	<path class="st2" d="M68,0C68,0,68,0,68,0c-0.2,0-0.4,0.1-0.6,0.1c-1.2,0.6-2.5,1.2-3.7,1.8c-4.6,2.5-9,5.4-12.7,9.2
		c-1.5,1.5-2.8,3-3.9,4.8c-1.6,2.2-2.7,4.7-3.2,7.3c-0.1,0.4-0.3,1.6-0.3,1.6c-0.4,4.3,0.8,8.1,3.3,11.5c0.2,0.3,0.3,0.1,0.5,0
		c1-1.1,1.9-2.2,2.8-3.4c0.9-1.2,1.8-2.5,2.5-3.8c0.8-1.5,1.6-2.9,2.1-4.5c0.8-1.6,1.2-3.3,1.7-5.2c0.1,0.4,0,0.7,0,1
		c-0.2,1.2-0.4,2.4-0.6,3.7c-0.5,1.8-1,3.6-1.8,5.2c-1.3,2.7-3.1,5-5,7.3c-1.7,1.9-3.2,4-4.5,6.2c-1.3,2.4-2.3,4.8-2.9,7.4
		c-0.2,0.6-0.3,1.3-0.5,2c-0.4-0.5-0.3-1-0.4-1.5c-0.6-2.5-1.2-5-1.9-7.5c-0.4-1.3-0.7-2.6-1.1-3.8c-0.1-0.4-0.2-0.9-0.1-1.3
		c0.6-2.5,0.6-5,0.1-7.5c-0.3-1.7-0.9-3.3-1.8-4.8c0-0.1,0-0.1-0.1-0.2c-2-3.3-5-5.4-8.5-6.9c-4.1-1.7-8.4-2.2-12.8-1.9
		c-4.1,0.3-8,1.3-11.7,3.3c-1,0.5-2,1.1-2.9,1.8c0.1,0.2,0.3,0.1,0.4,0.1c2.2,0.3,4.4,0.9,6.3,1.9c1.7,0.9,3.1,2.1,4.5,3.4
		c0.1,0.1,1.1,1.2,1.3,1.5c1.5,1.9,3,3.7,4.6,5.6c3.8,4.6,8.8,6.6,14.7,6.2c0.7,0,0.7,0,0.5-0.7c-0.8-2.5-2.2-4.7-3.9-6.8
		c-1.6-2-3.6-3.7-5.6-5.3c-0.3-0.2-2.9-2.1-3.5-2.4c-0.9-0.6-1.8-1.1-2.7-1.7c0.3-0.1,0.4,0,0.6,0.1c1.9,0.8,3.7,1.7,5.5,2.6
		c0.7,0.5,1.5,0.9,2.2,1.4c2.3,1.5,4.3,3.4,6.1,5.5c1.3,1.5,2.4,3,3.3,4.7c2.5,4.6,3.9,9.5,4.7,14.6c0.9,5.4,1.2,10.9,1.3,16.3
		c0,0.3,0,0.5,0.4,0.5c0.3,0,0.6,0,0.6-0.5c0.2-3,0.4-6,0.7-9c0.4-3.7,1-7.4,2.1-11c0.9-3,2.1-5.8,4-8.3c0.5-0.7,1-1.4,1.7-2
		c1.8-1.5,3.9-2.5,6.1-3.4c1.7-0.7,3.5-1.5,5-2.5c3-2,4.6-4.9,5.4-8.3c0,0,0,0,0,0c0.2-0.7,0.3-1.5,0.4-2.2c0.3-2.1,0.1-8.4,0.1-8.6
		c-0.1-3.4-0.1-6.7,0.4-10.1C67.6,2.6,67.8,1.3,68,0z"/>
	<path class="st3" d="M11.7,28.1c0.1,0,0.2,0.1,0.2,0.2C11.8,28.2,11.7,28.1,11.7,28.1z"/>
	<path class="st4" d="M56.5,55.3c0,0-0.1,0.1-0.1,0.1c0,0,0,0,0,0C56.4,55.3,56.5,55.3,56.5,55.3C56.5,55.3,56.5,55.3,56.5,55.3z"/>
</g>
</svg>
