<?xml version="1.0" encoding="utf-8"?>
<!-- Generator: Adobe Illustrator 22.0.0, SVG Export Plug-In . SVG Version: 6.00 Build 0)  -->
<svg version="1.1" id="Icon" xmlns="http://www.w3.org/2000/svg" xmlns:xlink="http://www.w3.org/1999/xlink" x="0px" y="0px"
	 viewBox="0 0 70 70" style="enable-background:new 0 0 70 70;" xml:space="preserve">
<style type="text/css">
	.st0{fill:url(#SVGID_1_);}
	.st1{fill:#FFFFFF;}
	.st2{fill:url(#path42_2_);}
</style>
<g>
	
		<linearGradient id="SVGID_1_" gradientUnits="userSpaceOnUse" x1="-760.485" y1="-494.0299" x2="-760.485" y2="-503.6928" gradientTransform="matrix(7.2338 0 0 -7.2338 5536.1963 -3573.7134)">
		<stop  offset="0" style="stop-color:#4B71B8"/>
		<stop  offset="1" style="stop-color:#293F7E"/>
	</linearGradient>
	<path class="st0" d="M70,61.2c0,4.9-4,8.7-8.7,8.7H8.7c-4.9,0-8.7-4-8.7-8.7V8.7C0,3.8,4,0,8.7,0h52.6C66.2,0,70,4,70,8.7V61.2z"/>
	<path class="st1" d="M57.8,13.6c0,0-5.4,0-9,0c-5.4,0-11.2,2.2-11.2,9.9c0,2.6,0,5.3,0,8.2h-6.2v9.8h6.4V70h11.6V41.4h7.8l0.7-9.6
		h-8.6c0,0,0-4.3,0-5.6c0-3,3.2-2.9,3.3-2.9c1.4,0,4.6,0,5.3,0L57.8,13.6L57.8,13.6L57.8,13.6z"/>
</g>
<g>
	<g id="g24_1_">
		<g id="g26_1_">
			<g id="g32_1_">
				<g id="g34_1_">
					
						<linearGradient id="path42_2_" gradientUnits="userSpaceOnUse" x1="-608.7482" y1="966.6177" x2="-538.7934" y2="966.6177" gradientTransform="matrix(0 -730.0437 -730.0437 0 705708.25 -444342.8125)">
						<stop  offset="0" style="stop-color:#25CF43"/>
						<stop  offset="1" style="stop-color:#61FD7D"/>
					</linearGradient>
					<path id="path42_1_" class="st2" d="M15.9,0c-1.6,0.1-3.6,0.2-4.5,0.4C10,0.7,8.7,1.1,7.6,1.7C6.3,2.3,5.2,3.2,4.2,4.2
						S2.4,6.3,1.7,7.6c-0.6,1.1-1,2.4-1.3,3.8c-0.2,0.9-0.3,3-0.4,4.5c0,0.7,0,1.5,0,1.9v34.5c0,0.4,0,1.2,0,1.9
						c0.1,1.6,0.2,3.6,0.4,4.5c0.3,1.4,0.7,2.7,1.3,3.8c0.7,1.3,1.5,2.4,2.5,3.4s2.2,1.8,3.4,2.5c1.1,0.6,2.4,1,3.8,1.3
						c0.9,0.2,3,0.3,4.5,0.4c0.6,0,1.5,0,1.9,0h34.5c0.4,0,1.2,0,1.9,0c1.6-0.1,3.6-0.2,4.5-0.4c1.4-0.3,2.7-0.7,3.8-1.3
						c1.3-0.7,2.4-1.5,3.4-2.5s1.8-2.2,2.5-3.4c0.6-1.1,1-2.4,1.3-3.8c0.2-0.9,0.3-3,0.4-4.5c0-0.6,0-1.5,0-1.9V17.8
						c0-0.4,0-1.2,0-1.9c-0.1-1.6-0.2-3.6-0.4-4.5C69.4,10,69,8.7,68.4,7.6c-0.7-1.3-1.5-2.4-2.5-3.4s-2.2-1.8-3.4-2.5
						c-1.1-0.6-2.4-1-3.8-1.3c-0.9-0.2-3-0.3-4.5-0.4c-0.6,0-1.5,0-1.8,0H17.8C17.4,0,16.6,0,15.9,0"/>
				</g>
			</g>
		</g>
	</g>
	<path id="path54_1_" class="st1" d="M47.1,39.6c-0.6-0.3-3.7-1.8-4.3-2s-1-0.3-1.4,0.3s-1.6,2-2,2.4s-0.7,0.5-1.3,0.2s-2.6-1-5-3.1
		c-1.9-1.6-3.1-3.7-3.5-4.3s0-1,0.3-1.3s0.6-0.7,0.9-1.1s0.4-0.6,0.6-1s0.1-0.8-0.1-1.1c-0.2-0.3-1.3-3.4-1.8-4.6s-1-1.1-1.4-1.1
		s-0.8,0-1.2,0c-0.4,0-1.1,0.2-1.7,0.8c-0.6,0.6-2.2,2.1-2.2,5.2s2.2,6,2.6,6.5c0.3,0.4,4.4,6.7,10.7,9.4c1.5,0.6,2.7,1,3.6,1.3
		c1.5,0.5,2.8,0.4,3.9,0.3c1.2-0.2,3.7-1.5,4.2-3s0.5-2.7,0.4-3C48.2,40.1,47.7,39.9,47.1,39.6 M35.7,55.2L35.7,55.2
		c-3.7,0-7.4-1-10.6-2.9l-0.8-0.4L16.5,54l2.1-7.7l-0.5-0.8c-2.1-3.3-3.2-7.1-3.2-11c0-11.4,9.3-20.7,20.8-20.7
		c5.5,0,10.7,2.2,14.7,6.1c3.9,3.9,6.1,9.1,6.1,14.7C56.5,45.9,47.2,55.2,35.7,55.2 M53.4,16.8c-4.7-4.7-11-7.3-17.7-7.3
		c-13.8,0-25,11.2-25,25c0,4.4,1.1,8.7,3.3,12.5l-3.5,12.9l13.2-3.5c3.6,2,7.7,3,11.9,3l0,0l0,0c13.8,0,25-11.2,25-25
		C60.7,27.7,58.1,21.5,53.4,16.8"/>
</g>
</svg>
