<?xml version="1.0" encoding="utf-8"?>
<!-- Generator: Adobe Illustrator 28.4.1, SVG Export Plug-In . SVG Version: 6.00 Build 0)  -->
<svg version="1.1" id="Layer_1" xmlns="http://www.w3.org/2000/svg" xmlns:xlink="http://www.w3.org/1999/xlink" x="0px" y="0px"
	 viewBox="0 0 48 48" style="enable-background:new 0 0 48 48;" xml:space="preserve">
<style type="text/css">
	.st0{fill:#F7E200;}
</style>
<g>
	<path class="st0" d="M16.1,3.8c0.2-0.2,0.4-0.5,0.5-0.5c0.5-0.2,0.9-0.6,1.4-0.5c0.5,0.1,0.5,0.9,1.1,1c0,0,0,0.3-0.1,0.3
		c-0.1,0-0.2,0-0.3,0c-0.3-0.1-0.4,0.3-0.7,0.3c-0.6,0.1,0.1,0.4-0.1,0.5C17.7,5,17.5,5,17.3,5.3c0,0.1-0.1,0.2-0.1,0.2
		c0.1,0.3,0.4,0.6,0.3,1c0,0,0.3,0.1,0.4,0.2c0.4,0.3,1,0.1,1.3,0.7c0,0.1,0.6-0.4,0.8,0c0.3-0.3,0.9-0.1,1.1-0.3
		c0.3-0.4,0.6-0.5,0.9-0.8C22.1,6.2,22.2,6,22.2,6c-0.5-0.4-0.2-0.8,0-1.3c0.1-0.5,0.2-1.1-0.4-1.4c-0.1,0-0.1-0.2,0-0.4
		C21.7,2.7,22,2.7,22,2.8c0.2,0.3,0.5,0.3,0.9,0.3c1.3-0.1,2,0.7,2.6,1.7c0.7,1.2,0.8,2.4,0,3.7c-0.9,1.4-1.4,3-2.3,4.4
		c-0.4,0.6-0.4,1.4-0.9,2c-0.4,0.6-0.7,1.3-1,1.9c-0.3,0.6-0.5,1.2-0.8,1.8c-0.3,0.6-0.7,1.2-1.1,1.9c-0.3,0.6-0.6,1.3-0.9,2
		c-0.4,0.9-0.4,2.3,0.2,3.4c0.4,0.8,0.7,1.7,1.3,2.5c0.2,0.3,0.4,0.8,0.4,1.2c0,0.5,0.4,1,0.3,1.5c0,0.4,0.5,0.6,0.7,0.9
		c0.8,1.1,1.5,2.2,1.9,3.4c0.2,0.4,0.8,0.7,0.6,1.3c0.8,0.5,0.6,1.6,1.3,2.2c1.4,2.7,0.3,5.1-2.3,6.2c-0.4,0.2-1-0.2-1.4,0.3
		c-0.4-0.1-0.8-0.2-1.2-0.4c-0.3-0.2-0.5-0.2-0.8-0.1c-1.2,0.3-1.8,0.3-2.8,0c-0.4-0.1-0.7-0.3-0.6-0.8c0.1-0.5-0.2-0.5-0.5-0.7
		c-0.3-0.2-0.7-0.5-0.6-1c0-0.1,0-0.2-0.1-0.2c-0.2-0.4-0.8-0.5-1-0.8c-0.2-0.3,0.1-0.8-0.1-1.2c-0.2-0.4-0.6-0.8-1-1
		c-0.2-0.1-0.3-0.1-0.3-0.3c0-0.2,0.5-0.3,0.2-0.5c-0.1-0.1-0.3-0.1-0.5-0.2c-0.6-0.5-0.7-1.2-1-1.8c-1.1-1.8-2.1-3.6-3.1-5.4
		c-0.9-1.5-1.7-3.1-2.6-4.5C4.9,25,4.9,23.4,5.6,22c0.3-0.6,0.6-1.3,1-1.8c0.5-0.6,0.8-1.3,1.1-2c1.3-2.2,2.5-4.4,3.7-6.6
		c0.9-1.6,2-3.1,2.8-4.9c0.1-0.3,0.6-0.4,0.5-0.7c-0.4-0.6,0.2-0.3,0.3-0.4c0.4-0.5,0.4-0.5,0.6-0.5c0.3,0,0.6,0,1,0
		c0.3-0.1,0.5-0.6,0.3-0.8C16.6,4.2,16.3,4,16.1,3.8z M24.3,5.7c-0.1-0.2-0.1-0.2-0.3-0.2c-0.1,0-0.2,0-0.2,0
		c-0.1,0.1,0.1,0.2,0.2,0.3c0.1,0,0.2,0-0.4-0.3c0.1-0.1,0.3,0.1,0.2-0.1c0-0.1-0.1-0.1-0.2-0.1c-0.1,0-0.2,0.1-0.3,0.1
		C23.3,5.5,23.4,5.5,24.3,5.7z M15.6,9.1c-0.3,0.3-0.4,0.5-0.5,0.6c-0.2,0.2-0.4,0.3-0.3,0.6c0,0.1,0.1,0.1,0.2,0.1
		c0.3,0,0.4-0.2,0.5-0.5C15.6,9.8,15.6,9.6,15.6,9.1z M21.2,42.8c0-0.1,0.1-0.2,0.1-0.4c0-0.2,0.5-0.4,0.1-0.4
		c-0.2-0.1-0.4-0.4-0.6-0.2c-0.2,0.2,0,0.4,0.2,0.5C21.1,42.5,21,42.7,21.2,42.8z M16.3,7.2c-0.1,0-0.1,0.1-0.2,0.1
		c-0.2,0.1-0.4,0.3-0.3,0.5c0,0.1,0.2,0.1,0.3,0.1c0.3-0.1,0.2-0.3,0.2-0.5C16.4,7.4,16.3,7.3,16.3,7.2z M24.6,5.1
		c0-0.1-0.1-0.2-0.1-0.2c-0.1,0-0.3-0.1-0.4,0.1c0,0,0.1,0.2,0.1,0.2C24.4,5.2,24.5,5.3,24.6,5.1z M23.3,4.8c0,0.1,0.1,0.1,0.1,0.2
		c0,0,0.1-0.1,0.1-0.1C23.5,4.8,23.4,4.7,23.3,4.8C23.4,4.7,23.3,4.7,23.3,4.8z M8.7,28.8c-0.1,0.5-0.1,1.1,0.6,1.1
		c0.5,0,0.8,0.4,1.2,1.2c0.2,0.3,0.6,0.3,0.6,0.1c0-0.7,1,0.1,0.6-0.8c-0.3-0.6,0-0.8,0.2-1.2c0.2-0.6-0.2-1-0.4-1.1
		c-0.4-0.2-0.2,0.4-0.2,0.6c0,0.1-0.2,0.1-0.2,0.1c0.1-0.8-0.6-1.4-0.3-2.3c0.2-0.6-0.4-1.3-0.7-0.9C9.3,26.2,9.1,26.1,9,25
		c-0.1-1.6-1.3-0.6-1.8-1.3C7.1,23.5,7,23.4,7,23.6c-0.1,0.3-0.1,0.6-0.1,0.9c0,0.5-0.3,0.4-0.5,0.4c-0.7,0.2-0.7,0.4-0.4,1
		c0.2,0.4,0.4,0.8,0.7,1.3C7,25.5,7,25.5,8.3,27.6c0-0.1,0-0.1,0-0.2c-0.1,0-0.2,0.1-0.3,0.1C8,27.6,8,27.8,8.1,27.8
		C8.2,27.8,8.8,28.2,8.7,28.8z M13.1,28.8c-0.1,0.3-0.1,0.6,0.4,0.6c0.4,0,0.6,0.2,0.9,0.7c0.1,0.2,0.4,0.2,0.4,0.1
		c0-0.4,0.8,0,0.5-0.5c-0.2-0.3,0-0.4,0.1-0.7c0.2-0.3-0.1-0.6-0.3-0.6c-0.3-0.1-0.1,0.2-0.2,0.3c0,0-0.1,0.1-0.2,0.1
		c0.1-0.5-0.5-0.8-0.2-1.3c0.1-0.3-0.3-0.7-0.5-0.5c-0.5,0.4-0.6,0.4-0.7-0.3c-0.1-0.9-1-0.3-1.4-0.7c-0.1-0.1-0.2-0.1-0.2,0
		c0,0.2-0.1,0.3-0.1,0.5c0,0.3-0.2,0.2-0.4,0.2c-0.5,0.1-0.5,0.2-0.3,0.5c0.2,0.2,0.3,0.4,0.5,0.7c0.2-1,0.2-1,1.2,0.2
		c0,0,0-0.1,0-0.1c-0.1,0-0.1,0-0.2,0.1c-0.1,0-0.1,0.1,0.1,0.2C12.7,28.3,13.2,28.5,13.1,28.8z M14.1,32.5
		c-0.1,0.3-0.1,0.6,0.4,0.6c0.4,0,0.6,0.2,0.9,0.7c0.1,0.2,0.4,0.2,0.4,0.1c0-0.4,0.8,0,0.5-0.5c-0.2-0.3,0-0.4,0.1-0.7
		c0.2-0.3-0.1-0.6-0.3-0.6c-0.3-0.1-0.1,0.2-0.2,0.3c0,0-0.1,0.1-0.2,0.1c0.1-0.5-0.5-0.8-0.2-1.3c0.1-0.3-0.3-0.7-0.5-0.5
		c-0.5,0.4-0.6,0.4-0.7-0.3c-0.1-0.9-1-0.3-1.4-0.7c-0.1-0.1-0.2-0.1-0.2,0c0,0.2-0.1,0.3-0.1,0.5c0,0.3-0.2,0.2-0.4,0.2
		c-0.5,0.1-0.5,0.2-0.3,0.5c0.2,0.2,0.3,0.4,0.5,0.7c0.2-1,0.2-1,1.2,0.2c0,0,0-0.1,0-0.1c-0.1,0-0.1,0-0.2,0.1
		c-0.1,0-0.1,0.1,0.1,0.2C13.7,31.9,14.2,32.1,14.1,32.5z"/>
	<path class="st0" d="M19.7,4.7c-0.3,0-0.5-0.3-0.3-0.4c0.3-0.1,0.3-1,1-0.5c0,0,0.1-0.2,0.1-0.3c0.1-0.1,0.2-0.2,0.3,0
		c0,0,0,0.1,0,0.1c0,0.2,0.1,0.6-0.2,0.5C20.1,4.1,20.4,5,19.7,4.7z"/>
	<path class="st0" d="M33,44.2c0.2,0.2,0.4,0.5,0.5,0.5c0.5,0.2,0.9,0.6,1.4,0.5c0.5-0.1,0.5-0.9,1.1-1c0,0,0-0.3-0.1-0.3
		c-0.1,0-0.2,0-0.3,0c-0.3,0.1-0.4-0.3-0.7-0.3c-0.6-0.1,0.1-0.4-0.1-0.5c-0.2-0.1-0.5-0.1-0.7-0.4c0-0.1-0.1-0.2-0.1-0.2
		c0.1-0.3,0.4-0.6,0.3-1c0,0,0.3-0.1,0.4-0.2c0.4-0.3,1-0.1,1.3-0.7c0-0.1,0.6,0.4,0.8,0c0.3,0.3,0.9,0.1,1.1,0.3
		c0.3,0.4,0.6,0.5,0.9,0.8c0.1,0.1,0.2,0.3,0.1,0.4c-0.5,0.4-0.2,0.8,0,1.3c0.1,0.5,0.2,1.1-0.4,1.4c-0.1,0-0.1,0.2,0,0.4
		c0.1,0.2,0.3,0.2,0.3,0.1c0.2-0.3,0.5-0.3,0.9-0.3c1.3,0.1,2-0.7,2.6-1.7c0.7-1.2,0.8-2.4,0-3.7c-0.9-1.4-1.4-3-2.3-4.4
		c-0.4-0.6-0.4-1.4-0.9-2c-0.4-0.6-0.7-1.3-1-1.9c-0.3-0.6-0.5-1.2-0.8-1.8c-0.3-0.6-0.7-1.2-1.1-1.9c-0.3-0.6-0.6-1.3-0.9-2
		c-0.4-0.9-0.4-2.3,0.2-3.4c0.4-0.8,0.7-1.7,1.3-2.5c0.2-0.3,0.4-0.8,0.4-1.2c0-0.5,0.4-1,0.3-1.5c0-0.4,0.5-0.6,0.7-0.9
		c0.8-1.1,1.5-2.2,1.9-3.4c0.2-0.4,0.8-0.7,0.6-1.3c0.8-0.5,0.6-1.6,1.3-2.2C43.7,6.5,42.6,4.1,40,3c-0.4-0.2-1,0.2-1.4-0.3
		c-0.4,0.1-0.8,0.2-1.2,0.4c-0.3,0.2-0.5,0.2-0.8,0.1c-1.2-0.3-1.8-0.3-2.8,0c-0.4,0.1-0.7,0.3-0.6,0.8c0.1,0.5-0.2,0.5-0.5,0.7
		c-0.3,0.2-0.7,0.5-0.6,1c0,0.1,0,0.2-0.1,0.2c-0.2,0.4-0.8,0.5-1,0.8C31,7.1,31.2,7.6,31.1,8c-0.2,0.4-0.6,0.8-1,1
		c-0.2,0.1-0.3,0.1-0.3,0.3c0,0.2,0.5,0.3,0.2,0.5c-0.1,0.1-0.3,0.1-0.5,0.2c-0.6,0.5-0.7,1.2-1,1.8c-1.1,1.8-2.1,3.6-3.1,5.4
		c-0.9,1.5-1.7,3.1-2.6,4.5c-0.8,1.3-0.9,2.8-0.2,4.2c0.3,0.6,0.6,1.3,1,1.8c0.5,0.6,0.8,1.3,1.1,2c1.3,2.2,2.5,4.4,3.7,6.6
		c0.9,1.6,2,3.1,2.8,4.9c0.1,0.3,0.6,0.4,0.5,0.7c-0.4,0.6,0.2,0.3,0.3,0.4c0.4,0.5,0.4,0.5,0.6,0.5c0.3,0,0.6,0,1,0
		c0.3,0.1,0.5,0.6,0.3,0.8C33.5,43.8,33.2,44,33,44.2z M41.2,42.3c-0.1,0.2-0.1,0.2-0.3,0.2c-0.1,0-0.2,0-0.2,0
		c-0.1-0.1,0.1-0.2,0.2-0.3c0.1,0,0.2,0-0.4,0.3c0.1,0.1,0.3-0.1,0.2,0.1c0,0.1-0.1,0.1-0.2,0.1c-0.1,0-0.2-0.1-0.3-0.1
		C40.2,42.5,40.3,42.5,41.2,42.3z M32.5,38.9c-0.3-0.3-0.4-0.5-0.5-0.6c-0.2-0.2-0.4-0.3-0.3-0.6c0-0.1,0.1-0.1,0.2-0.1
		c0.3,0,0.4,0.2,0.5,0.5C32.5,38.2,32.5,38.4,32.5,38.9z M38.1,5.2c0,0.1,0.1,0.2,0.1,0.4c0,0.2,0.5,0.4,0.1,0.4
		C38.1,6,38,6.4,37.7,6.2c-0.2-0.2,0-0.4,0.2-0.5C38,5.5,37.9,5.3,38.1,5.2z M33.2,40.8c-0.1,0-0.1-0.1-0.2-0.1
		c-0.2-0.1-0.4-0.3-0.3-0.5c0-0.1,0.2-0.1,0.3-0.1c0.3,0.1,0.2,0.3,0.2,0.5C33.3,40.6,33.2,40.7,33.2,40.8z M41.5,42.9
		c0,0.1-0.1,0.2-0.1,0.2c-0.1,0-0.3,0.1-0.4-0.1c0,0,0.1-0.2,0.1-0.2C41.2,42.8,41.4,42.7,41.5,42.9z M40.2,43.2
		c0-0.1,0.1-0.1,0.1-0.2c0,0,0.1,0.1,0.1,0.1C40.4,43.2,40.3,43.3,40.2,43.2C40.3,43.3,40.2,43.3,40.2,43.2z M35.4,11.8
		c-0.1-0.5-0.1-1.1,0.6-1.1c0.5,0,0.8-0.4,1.2-1.2c0.2-0.3,0.6-0.3,0.6-0.1c0,0.7,1-0.1,0.6,0.8c-0.3,0.6,0,0.8,0.2,1.2
		c0.2,0.6-0.2,1-0.4,1.1c-0.4,0.2-0.2-0.4-0.2-0.6c0-0.1-0.2-0.1-0.2-0.1c0.1,0.8-0.6,1.4-0.3,2.3c0.2,0.6-0.4,1.3-0.7,0.9
		c-0.7-0.7-0.8-0.6-0.9,0.5c-0.1,1.6-1.3,0.6-1.8,1.3c-0.1,0.2-0.2,0.2-0.2,0.1c-0.1-0.3-0.1-0.6-0.1-0.9c0-0.5-0.3-0.4-0.5-0.4
		c-0.7-0.2-0.7-0.4-0.4-1c0.2-0.4,0.4-0.8,0.7-1.3c0.3,1.8,0.3,1.8,1.6-0.4c0,0.1,0,0.1,0,0.2c-0.1,0-0.2-0.1-0.3-0.1
		c-0.1-0.1-0.1-0.2,0.1-0.3C34.9,12.8,35.5,12.4,35.4,11.8z M39.9,6.6C39.8,6.3,39.8,6,40.3,6c0.4,0,0.6-0.2,0.9-0.7
		c0.1-0.2,0.4-0.2,0.4-0.1c0,0.4,0.8,0,0.5,0.5c-0.2,0.3,0,0.4,0.1,0.7C42.5,6.7,42.2,7,42,7c-0.3,0.1-0.1-0.2-0.2-0.3
		c0,0-0.1-0.1-0.2-0.1c0.1,0.5-0.5,0.8-0.2,1.3c0.1,0.3-0.3,0.7-0.5,0.5c-0.5-0.4-0.6-0.4-0.7,0.3c-0.1,0.9-1,0.3-1.4,0.7
		c-0.1,0.1-0.2,0.1-0.2,0c0-0.2-0.1-0.3-0.1-0.5c0-0.3-0.2-0.2-0.4-0.2c-0.5-0.1-0.5-0.2-0.3-0.5C38,8,38.1,7.8,38.4,7.5
		c0.2,1,0.2,1,1.2-0.2c0,0,0,0.1,0,0.1c-0.1,0-0.1,0-0.2-0.1c-0.1,0-0.1-0.1,0.1-0.2C39.5,7.1,40,7,39.9,6.6z M35.7,7.3
		c0.2-0.2,0.5-0.4,0.7,0.1c0.2,0.4,0.5,0.4,1,0.6c0.2,0,0.3,0.3,0.2,0.4C37.3,8.5,38,9.1,37.5,9c-0.4,0-0.4,0.2-0.6,0.4
		c-0.2,0.3-0.6,0.1-0.7,0c-0.2-0.2,0.1-0.2,0.2-0.3c0,0,0-0.1,0-0.2c-0.4,0.2-0.9-0.1-1.3,0.3c-0.2,0.3-0.8,0.1-0.7-0.3
		c0.2-0.7,0-0.7-0.6-0.5c-0.9,0.3-0.7-0.8-1.2-0.9c-0.1,0-0.2-0.1-0.1-0.2c0.1-0.1,0.3-0.2,0.4-0.3c0.2-0.1,0.1-0.3,0-0.5
		c-0.1-0.5,0-0.6,0.4-0.5c0.3,0.1,0.5,0.1,0.9,0.2c-0.8,0.6-0.8,0.6,0.7,1c0,0-0.1,0-0.1,0.1c0-0.1,0-0.2,0-0.2c0-0.1,0.1-0.1,0.2,0
		C35,7.1,35.4,7.5,35.7,7.3z"/>
	<path class="st0" d="M37.3,41.4c0.5,0,1,0.6,0.6,0.7c-0.7,0.3-0.7,1.7-2,0.8c-0.1-0.1-0.1,0.4-0.2,0.6c-0.1,0.3-0.4,0.3-0.6,0
		c0-0.1,0-0.2,0-0.2c0.1-0.3-0.3-1,0.4-0.9C36.6,42.5,36,40.8,37.3,41.4z"/>
</g>
</svg>
