<?xml version="1.0" encoding="utf-8"?>
<!-- Generator: Adobe Illustrator 22.0.0, SVG Export Plug-In . SVG Version: 6.00 Build 0)  -->
<svg version="1.1" id="Layer_1" xmlns="http://www.w3.org/2000/svg" xmlns:xlink="http://www.w3.org/1999/xlink" x="0px" y="0px"
	 viewBox="0 0 48 48" style="enable-background:new 0 0 48 48;" xml:space="preserve">
<style type="text/css">
	.st0{fill:#E01837;}
</style>
<g>
	<g>
		<g>
			<path class="st0" d="M20.2,13.8c0.1,0,5.5,0,5.5,0c0,0,4.7,6,6.9,8.9c0.1,0.1,0.1,0.1,0.2,0.2c0,0,0,0,0.1,0c0-3,0-6,0-9
				c1.8,0,3.7,0,5.5,0c0,6.1,0,12.2,0,18.3c-0.1,0-0.2,0-0.2,0c-1.5,0-4.5,0-4.7,0c-0.1-0.1-5.1-6.5-7.6-9.6c0,0-0.1-0.1-0.1-0.2
				c0,3.3,0,6.5,0,9.7c-1.9,0-3.7,0-5.5,0C20.2,26,20.2,15.2,20.2,13.8z M18.1,27.2c-0.1,2.1-1.3,3.4-3.1,4.2
				c-1.1,0.5-2.3,0.6-3.6,0.6c-3.1,0-6.2,0-9.4,0c-0.1,0-0.2,0-0.3,0c0-6.1,0-12.2,0-18.3c0.1,0,0.1,0,0.2,0c3.1,0,6.3,0,9.4,0
				c1.3,0,2.6,0.2,3.7,0.9c1.1,0.7,1.7,1.6,1.9,2.9c0.1,0.6,0.1,1.3,0,1.9c-0.2,0.9-0.7,1.6-1.4,2.1c-0.3,0.3-0.7,0.4-1.1,0.6
				c0,0-0.1,0.1-0.2,0.1c0.3,0.1,0.6,0.2,0.9,0.3c0.9,0.4,1.6,0.9,2.2,1.7C18,25.3,18.2,26.2,18.1,27.2z M7.4,20.9
				c0.8,0,2.3,0,2.7,0c0.7-0.1,1.3-0.6,1.3-1.4c0-0.4-0.1-0.9-0.5-1.2c-0.3-0.2-0.6-0.4-1-0.4c-0.4,0-1.6,0-2.7,0
				C7.4,19.3,7.4,20.2,7.4,20.9z M12.5,26.5c0-1.5-1.8-1.5-2.3-1.5c-1,0-1.7,0-2.8,0c0,1,0,1.9,0,2.9c1.4,0,1.7,0,2.8,0
				C10.5,27.9,12.5,27.9,12.5,26.5z M46.4,32.1c0-5.4,0-10.7,0-16.1c-0.1,0.1-0.1,0.1-0.2,0.2c-1.8,1.7-3.5,3.5-5.3,5.2
				c-0.1,0.1-0.2,0.3-0.2,0.4c0,3.3,0,6.7,0,10c0,0.1,0,0.2,0,0.3C42.7,32.1,44.5,32.1,46.4,32.1z M46.2,13.8c-1.8,0-3.6,0-5.5,0
				c0,1.8,0,3.7,0,5.6C42.6,17.4,44.5,15.6,46.2,13.8z"/>
		</g>
	</g>
</g>
</svg>
