<?xml version="1.0" encoding="utf-8"?>
<!-- Generator: Adobe Illustrator 22.0.0, SVG Export Plug-In . SVG Version: 6.00 Build 0)  -->
<svg version="1.1" id="Layer_1" xmlns="http://www.w3.org/2000/svg" xmlns:xlink="http://www.w3.org/1999/xlink" x="0px" y="0px"
	 viewBox="0 0 216 360" style="enable-background:new 0 0 216 360;" xml:space="preserve">
<path d="M205.3,179.8c0-46.6,0-93.2,0-139.8c0-3,0.1-6.1-0.8-9c-4.1-14-16-23.6-30.6-23.6c-44.1-0.1-88.2-0.1-132.2,0
	c-2.1,0-4.2,0.1-6.3,0.6c-14.6,3.6-25,16.9-24.9,32.9c0.3,52.1,0.1,104.3,0.1,156.4c0,41.2,0.2,82.4-0.1,123.5
	c-0.1,16.2,15,31.9,32.2,31.7c43.5-0.5,87.1-0.2,130.7-0.2c2.8,0,5.5-0.1,8.2-0.8c12.6-3.1,24-16.6,23.8-31.3
	C205,273.6,205.3,226.7,205.3,179.8z M93.3,34.7c4.9,0,9.8,0,14.7,0c4.8,0,9.5,0,14.3,0c2.4,0,4.7,0.6,4.8,3.5
	c0.1,3.2-2.2,3.9-4.8,4c-9.6,0.1-19.3,0.1-28.9,0c-2.6,0-5-0.9-4.9-3.9C88.6,35.4,90.9,34.7,93.3,34.7z M107.9,343.3
	c-11.1,0-19.9-8.8-19.9-19.8c0.1-10.9,9.1-19.6,20.1-19.5c11,0.1,19.2,8.6,19.1,19.8C127.2,335,119,343.3,107.9,343.3z M189.8,288.8
	c0,6.5,0,6.6-6.6,6.6c-50.1,0-100.3,0-150.4,0c-6.4,0-6.5-0.1-6.5-6.8c0-36.3,0-72.6,0-108.9c0-36.4,0-72.8,0-109.3
	c0-5.8,0-5.8,5.9-5.8c50.3,0,100.5,0,150.8,0c6.8,0,6.8,0,6.8,6.7C189.8,144,189.8,216.4,189.8,288.8z"/>
</svg>
