<?xml version="1.0" encoding="utf-8"?>
<!-- Generator: Adobe Illustrator 28.4.1, SVG Export Plug-In . SVG Version: 6.00 Build 0)  -->
<svg version="1.1" id="Layer_1" xmlns="http://www.w3.org/2000/svg" xmlns:xlink="http://www.w3.org/1999/xlink" x="0px" y="0px"
	 viewBox="0 0 611.3 612" style="enable-background:new 0 0 611.3 612;" xml:space="preserve">
<style type="text/css">
	.st0{fill:#FFFFFF;}
</style>
<path class="st0" d="M611.6,139c-0.5-13.6-1.6-31.2-3.2-39.2c-2.5-12.2-6.2-23.7-11.1-33.3c-5.7-11.3-13.1-21.4-21.8-30.1
	c-8.7-8.7-18.8-16.1-30.1-21.8c-9.5-4.9-21-8.6-33.1-11.1c-8.1-1.6-25.8-2.7-39.5-3.2C467.3,0.1,460.1,0,456.7,0H155.3
	c-3.3,0-10.6,0.1-16.2,0.3c-13.6,0.5-31.2,1.6-39.2,3.2C87.7,5.9,76.2,9.7,66.6,14.6c-11.3,5.7-21.4,13.1-30.1,21.8
	c-8.7,8.6-16.1,18.7-21.8,30c-4.9,9.5-8.6,21-11.1,33.1C2,107.6,0.9,125.3,0.4,139C0.2,144.7,0,151.9,0,155.3v301.4
	c0,3.3,0.1,10.6,0.3,16.2c0.5,13.6,1.6,31.2,3.2,39.2c2.5,12.2,6.2,23.7,11.1,33.3c5.7,11.3,13.1,21.4,21.8,30.1
	c8.7,8.7,18.8,16.1,30.1,21.8c9.5,4.9,21,8.6,33.1,11.1c8.1,1.6,25.8,2.7,39.5,3.2c5.6,0.2,12.9,0.3,16.2,0.3h301.4
	c3.3,0,10.6-0.1,16.2-0.3c13.6-0.5,31.2-1.6,39.2-3.2c12.2-2.5,23.7-6.2,33.3-11.1c11.3-5.7,21.4-13.1,30.1-21.8
	c8.7-8.7,16.1-18.8,21.8-30.1c4.9-9.5,8.6-21,11.1-33.1c1.6-8.1,2.7-25.8,3.2-39.5c0.2-5.6,0.3-12.9,0.3-16.2V155.2
	C611.9,151.9,611.8,144.6,611.6,139z M126.4,591c-10.4-0.6-18.8-1.4-22.9-2.2c-10.8-2.2-20.5-5.4-27.9-9.3l-0.1-0.1l-0.1,0
	c-9.2-4.6-17.6-10.7-25-18.1c-7.3-7.4-13.4-15.8-18.1-25c-3.9-7.6-7.1-17.3-9.3-28.1c-1.1-5.5-2.2-20-2.8-36
	c-0.2-5.3-0.3-12.4-0.3-15.5V155.3c0-2.7,0.2-9.1,0.4-15.6c0.6-16.1,1.7-30.6,2.8-36.3c2.2-10.8,5.4-20.5,9.3-27.9l0.1-0.1l0-0.1
	c4.7-9.2,10.7-17.6,18-24.8l0.1-0.1c7.4-7.3,15.8-13.4,25-18.1c7.9-4,17.6-7.2,28.1-9.3c3.9-0.8,12.3-1.6,22.6-2.2V591z"/>
<g>
	<path d="M205.5,386.1c0.1-8,0.1-15.7,0.3-23.3c0.2-7.7,0.8-15.3,0.8-23c0-4.3,1.6-7.3,4.9-9.5c6.7-4.5,13.4-9.2,20.4-13.1
		c17.9-10.1,36.6-18.6,55.4-26.7c11.5-5,23.3-9.4,34.9-14.3c5.4-2.3,10.4-5.5,12.8-11.2c1.7-3.9,1.7-8.1,1.4-12.4
		c-0.6-7.3-4.6-12.4-9.3-17.3c-9.8-10.3-16.9-22.2-23.2-34.8c-1.9-3.7-4.2-7-7.6-9.5c-1-0.8-1.9-2.2-2.1-3.4
		c-1-5.4-2.1-10.9-2.6-16.4c-0.6-7.2-1.1-14.5-0.9-21.8c0.1-3.9,1.4-7.8,2.7-11.6c1-2.8,3.4-4.5,6.3-5.4c3.3-1,4.7-3.4,5.3-6.9
		c1.4-9-0.5-18,0-26.9c0.4-6.6,0.6-13.2,2.7-19.5c3.1-9.4,8.9-16.9,16.5-23c10.5-8.4,22.6-12.8,35.8-14.7c9.7-1.4,19.4-1.7,29.1,0.2
		c9.7,2,18.5,6.3,26.3,12.5c8.3,6.5,15.4,14.1,19.9,23.6c1.6,3.4,2,7.5,2.7,11.3c2.1,11.9,0.6,24,1.1,36c0,1.1,0.6,2.6,1.4,3
		c8.5,4.3,11.4,11.9,12.1,20.6c0.5,6.3,0.6,12.8-0.1,19c-0.6,5.6-2.5,11.1-4.1,16.5c-0.5,1.6-2.2,2.8-3.2,4.3
		c-1.6,2.2-3.6,4.3-4.6,6.8c-6.6,16.3-16.4,30.5-28.2,43.4c-6.2,6.8-7.1,19.7-1.5,27.2c2.6,3.5,6.7,4.6,10.4,6.2
		c11.7,5.1,23.7,9.9,35.3,15.3c11.5,5.3,22.9,10.8,34.1,16.9c14.7,8,29,16.6,40.9,28.6c3.4,3.4,4.7,7.8,5.8,12.4
		c1.7,7.5,0.9,15,0.8,22.5c-0.1,4.6-1.1,9.2-1.7,13.8c0,0.1,0,0.2-0.1,0.2c-0.9,4.5-0.9,4.5-5.5,4.5c-107.6,0-215.1,0-322.7,0
		C207.1,386.1,206.1,386.1,205.5,386.1z"/>
	<polygon points="437.5,439.2 437.5,402.3 306.2,402.3 306.2,439.2 240.6,439.2 371.9,570.5 503.2,439.2 	"/>
</g>
</svg>
