<?xml version="1.0" encoding="utf-8"?>
<!-- Generator: Adobe Illustrator 22.0.0, SVG Export Plug-In . SVG Version: 6.00 Build 0)  -->
<svg version="1.1" id="Layer_1" xmlns="http://www.w3.org/2000/svg" xmlns:xlink="http://www.w3.org/1999/xlink" x="0px" y="0px"
	 viewBox="0 0 48 48" style="enable-background:new 0 0 48 48;" xml:space="preserve">
<style type="text/css">
	.st0{fill:#FFFFFF;}
</style>
<path class="st0" d="M18.6,28.5c0,0.9,0,1.8,0,2.6c0,1,0,1-1,1c-1.9,0-3.9,0-5.8,0c-4,0-7.6-2.4-9.1-6.1c-2-4.8,0-10.1,4.5-12.5
	c0.3-0.2,0.5-0.3,0.6-0.7c1.2-3.6,4.5-6,8.3-5.9c0.4,0,0.8,0,1.2,0.1c0.3,0.1,0.4,0,0.6-0.3c2.2-3,5-4.7,8.7-5.2
	c4.6-0.5,8.5,1,11.4,4.6c1.6,2,2.5,4.3,2.8,6.8c0,0.3,0.2,0.5,0.5,0.7c2.6,1.5,4.3,3.8,4.9,6.8c0.6,3.4-0.4,6.5-2.9,8.9
	c-1.9,1.8-4.2,2.7-6.8,2.8c-2.1,0-4.3,0-6.4,0c-0.3,0-0.4-0.1-0.4-0.4c0-1,0-2.1,0-3.2c0.2,0,0.4,0,0.5,0c2.1,0,4.2,0,6.3,0
	c3,0,5.7-2.2,6.2-5.1c0.5-3.1-1.1-6-4-7.1c-0.3-0.1-0.6-0.3-1-0.3c-0.4-0.1-0.4-0.3-0.4-0.6c0.1-1.3,0.1-2.7-0.3-4
	c-1.1-3.8-4.9-6.5-8.9-6.3c-3.5,0.2-6.1,1.9-7.8,5c-0.2,0.4-0.4,0.7-0.6,1.1c-0.1,0.2-0.2,0.3-0.4,0.2c-0.4-0.2-0.8-0.3-1.2-0.5
	c-3-1.2-6,0.4-6.8,3.5c-0.1,0.4-0.1,0.7-0.2,1.1c0,0.3-0.1,0.5-0.5,0.6c-1,0.3-2,0.7-2.8,1.5c-1.9,1.7-2.6,3.9-1.9,6.4
	c0.7,2.5,2.4,4,5,4.5c0.8,0.1,1.6,0.1,2.4,0.1c1.7,0,3.4,0,5.1,0C18.3,28.5,18.4,28.5,18.6,28.5z"/>
<path class="st0" d="M22.2,40.2c0-0.3,0-0.6,0-0.8c0-5.3,0-10.7,0-16c0-0.8,0.2-1.5,1-1.9c1.2-0.6,2.6,0.2,2.6,1.7
	c0,1.6,0,3.2,0,4.7c0,4,0,8,0,12c0,0.1,0,0.2,0,0.5c0.2-0.1,0.3-0.2,0.4-0.3c1.3-1.3,2.5-2.5,3.8-3.7c1-0.9,2.6-0.5,3,0.8
	c0.2,0.7,0,1.3-0.5,1.8c-0.9,0.9-1.8,1.8-2.7,2.7c-1.4,1.4-2.9,2.9-4.3,4.3c-0.5,0.5-1.2,0.8-1.9,0.6c-0.3-0.1-0.6-0.3-0.9-0.5
	c-2.4-2.4-4.8-4.8-7.1-7.1c-1-1-0.6-2.6,0.8-3c0.7-0.2,1.3,0,1.9,0.5c1.2,1.2,2.4,2.4,3.6,3.6c0.1,0.1,0.2,0.2,0.3,0.3
	C22.1,40.2,22.2,40.2,22.2,40.2z"/>
</svg>
