<?xml version="1.0" encoding="utf-8"?>
<!-- Generator: Adobe Illustrator 22.0.0, SVG Export Plug-In . SVG Version: 6.00 Build 0)  -->
<svg version="1.1" id="Layer_1" xmlns="http://www.w3.org/2000/svg" xmlns:xlink="http://www.w3.org/1999/xlink" x="0px" y="0px"
	 viewBox="0 0 360 360" style="enable-background:new 0 0 360 360;" xml:space="preserve">
<path d="M124.9,167.9c-5.7,6.5-11.2,12.6-16.6,18.8c-16.8,18.9-33.5,37.8-50.2,56.7c-1.1,1.3-2.4,4.3-1.8,4.9c2,2.1,3.7-0.1,5.2-1.4
	c25.9-21.8,51.7-43.6,77.5-65.5c2.3-2,3.9-2.2,6.5-0.5c5.7,3.9,11.5,7.8,17.5,11.1c12.3,6.7,24.8,6.7,37.1-0.1
	c6.2-3.5,12.2-7.5,18.1-11.4c1.8-1.2,3-1.3,4.8,0.2c25.6,21.7,51.3,43.4,77,65.1c1.2,1.1,2.6,2.1,4,2.8c0.6,0.3,2.1,0.3,2.3,0
	c0.4-0.7,0.5-1.9,0.2-2.7c-0.5-1.2-1.5-2.2-2.4-3.1c-21.4-24.1-42.7-48.1-64.1-72.2c-0.7-0.8-1.4-1.7-2.2-2.7
	c0.9-0.7,1.6-1.4,2.4-1.9c32.2-21.9,64.5-43.8,96.8-65.6c2.8-1.9,5.7-3.8,8.7-5.4c4.6-2.3,6.2-1.3,6.2,3.9c0,31.6,0,63.3,0,94.9
	c0,24.1-0.4,48.1,0.2,72.2c0.2,9.1-10.1,19.7-19.6,19.6c-48.1-0.3-96.2-0.1-144.3-0.1c-52.2,0-104.3,0-156.5,0.1
	c-5.9,0-10.9-1.8-15.4-5.5c-4.8-4.1-7.1-8.9-7.1-15.5c0.2-54.6,0.1-109.2,0.1-163.8c0-1.1,0-2.2,0.1-3.3c0.4-3,1.8-4.1,4.8-3.2
	c1.7,0.5,3.3,1.3,4.7,2.2c22.1,14.9,44.2,29.9,66.3,44.8c12.3,8.3,24.7,16.4,37,24.7C122.8,166.4,123.6,167,124.9,167.9z
	 M181.5,74.5c-42.8,0-85.6,0-128.5,0c-10.5,0-21.1,0-31.6,0.1c-2.8,0-5.9,0.2-7.4,3.3c-1.1,2.3,0.4,6.6,3.1,8.8c1.9,1.5,3.9,2.9,6,4
	c46.7,25.4,93.3,50.8,140,76c11.7,6.3,24,6.4,35.7,0.2c41.3-22.1,82.4-44.6,123.6-67c6.9-3.8,13.8-7.6,20.7-11.6
	c3-1.8,5.3-4.3,5.6-8.1c0.2-2.8-0.9-4.6-3.5-5c-2.7-0.5-5.4-0.7-8.2-0.7C285.2,74.5,233.4,74.5,181.5,74.5
	C181.5,74.5,181.5,74.5,181.5,74.5z"/>
</svg>
