<?xml version="1.0" encoding="utf-8"?>
<!-- Generator: Adobe Illustrator 22.0.0, SVG Export Plug-In . SVG Version: 6.00 Build 0)  -->
<svg version="1.1" id="Layer_1" xmlns="http://www.w3.org/2000/svg" xmlns:xlink="http://www.w3.org/1999/xlink" x="0px" y="0px"
	 viewBox="0 0 12 12" style="enable-background:new 0 0 12 12;" xml:space="preserve">
<path d="M4.1,6.1C3.9,6.3,3.8,6.5,3.6,6.7C3,7.3,2.5,8,1.9,8.6c0,0-0.1,0.1-0.1,0.2c0.1,0.1,0.1,0,0.2,0C2.9,8,3.7,7.3,4.6,6.5
	c0.1-0.1,0.1-0.1,0.2,0C5,6.6,5.2,6.8,5.4,6.9c0.4,0.2,0.8,0.2,1.2,0c0.2-0.1,0.4-0.3,0.6-0.4c0.1,0,0.1,0,0.2,0
	C8.3,7.2,9.1,8,10,8.7c0,0,0.1,0.1,0.1,0.1c0,0,0.1,0,0.1,0c0,0,0-0.1,0-0.1c0,0,0-0.1-0.1-0.1C9.4,7.8,8.7,7,8,6.2
	c0,0,0-0.1-0.1-0.1C7.9,6,8,6,8,6c1.1-0.7,2.2-1.5,3.2-2.2c0.1-0.1,0.2-0.1,0.3-0.2c0.2-0.1,0.2,0,0.2,0.1c0,1.1,0,2.1,0,3.2
	c0,0.8,0,1.6,0,2.4c0,0.3-0.3,0.7-0.7,0.7c-1.6,0-3.2,0-4.8,0c-1.7,0-3.5,0-5.2,0c-0.2,0-0.4-0.1-0.5-0.2C0.3,9.7,0.3,9.5,0.3,9.3
	c0-1.8,0-3.7,0-5.5c0,0,0-0.1,0-0.1c0-0.1,0.1-0.1,0.2-0.1c0.1,0,0.1,0,0.2,0.1c0.7,0.5,1.5,1,2.2,1.5C3.2,5.5,3.6,5.7,4.1,6.1
	C4.1,6,4.1,6,4.1,6.1z M6,2.9c-1.4,0-2.9,0-4.3,0c-0.4,0-0.7,0-1.1,0c-0.1,0-0.2,0-0.2,0.1c0,0.1,0,0.2,0.1,0.3
	c0.1,0.1,0.1,0.1,0.2,0.1C2.3,4.3,3.9,5.2,5.4,6c0.4,0.2,0.8,0.2,1.2,0C8,5.3,9.4,4.5,10.8,3.8c0.2-0.1,0.5-0.3,0.7-0.4
	c0.1-0.1,0.2-0.1,0.2-0.3c0-0.1,0-0.2-0.1-0.2c-0.1,0-0.2,0-0.3,0C9.5,2.9,7.8,2.9,6,2.9C6,2.9,6,2.9,6,2.9z"/>
</svg>
