<?xml version="1.0" encoding="utf-8"?>
<!-- Generator: Adobe Illustrator 28.4.1, SVG Export Plug-In . SVG Version: 6.00 Build 0)  -->
<svg version="1.1" id="Icon" xmlns="http://www.w3.org/2000/svg" xmlns:xlink="http://www.w3.org/1999/xlink" x="0px" y="0px"
	 viewBox="0 0 48 48" style="enable-background:new 0 0 48 48;" xml:space="preserve">
<style type="text/css">
	.st0{fill:url(#SVGID_1_);}
	.st1{fill:url(#SVGID_00000148654561666882463460000018381128516204769924_);}
	.st2{fill:url(#SVGID_00000128467097004338158940000003074121288856263832_);}
	.st3{fill:url(#SVGID_00000145764000968341532720000002717814283262325121_);}
	.st4{fill:#FC0203;}
</style>
<linearGradient id="SVGID_1_" gradientUnits="userSpaceOnUse" x1="-671.5208" y1="384.2162" x2="-671.5208" y2="377.5807" gradientTransform="matrix(7.2338 0 0 -7.2338 4881.647 2779.3433)">
	<stop  offset="0" style="stop-color:#4B71B8"/>
	<stop  offset="1" style="stop-color:#FFFFFF"/>
</linearGradient>
<path class="st0" d="M48,42c0,3.3-2.7,6-6,6H6c-3.3,0-6-2.7-6-6V6c0-3.3,2.7-6,6-6h36c3.3,0,6,2.7,6,6V42z"/>
<g>
	<g>
		
			<radialGradient id="SVGID_00000098912521409050950390000003250539467825128123_" cx="23.9" cy="43.2345" r="4.1821" gradientTransform="matrix(1 0 0 0.5551 0 19.2339)" gradientUnits="userSpaceOnUse">
			<stop  offset="0.3184" style="stop-color:#000000;stop-opacity:0.8"/>
			<stop  offset="0.378" style="stop-color:#070707;stop-opacity:0.73"/>
			<stop  offset="0.4661" style="stop-color:#1B1B1B;stop-opacity:0.6267"/>
			<stop  offset="0.5717" style="stop-color:#3C3C3C;stop-opacity:0.5027"/>
			<stop  offset="0.6911" style="stop-color:#696969;stop-opacity:0.3625"/>
			<stop  offset="0.822" style="stop-color:#A4A4A4;stop-opacity:0.209"/>
			<stop  offset="0.9604" style="stop-color:#EAEAEA;stop-opacity:4.645032e-02"/>
			<stop  offset="1" style="stop-color:#FFFFFF;stop-opacity:0"/>
		</radialGradient>
		<ellipse style="fill:url(#SVGID_00000098912521409050950390000003250539467825128123_);" cx="23.9" cy="43.2" rx="4.3" ry="2.3"/>
		
			<linearGradient id="SVGID_00000047032973655292558220000014125646359458070947_" gradientUnits="userSpaceOnUse" x1="22.4949" y1="33.6912" x2="25.3051" y2="33.6912">
			<stop  offset="0" style="stop-color:#E4E3E1"/>
			<stop  offset="0.1927" style="stop-color:#F2F1EF"/>
			<stop  offset="0.7095" style="stop-color:#878785"/>
			<stop  offset="0.7593" style="stop-color:#8E8E8C"/>
			<stop  offset="0.8328" style="stop-color:#A2A29F"/>
			<stop  offset="0.9205" style="stop-color:#C2C2BF"/>
			<stop  offset="1" style="stop-color:#E5E6E1"/>
		</linearGradient>
		<path style="fill:url(#SVGID_00000047032973655292558220000014125646359458070947_);" d="M22.5,23.6v19.5c0,0.4,0.6,0.8,1.4,0.8
			s1.4-0.3,1.4-0.8V23.6H22.5z"/>
		
			<linearGradient id="SVGID_00000110472370635170730930000005608417546768529567_" gradientUnits="userSpaceOnUse" x1="23.9" y1="33.5323" x2="23.9" y2="23.5625">
			<stop  offset="0" style="stop-color:#E4E3E1;stop-opacity:0"/>
			<stop  offset="0.1845" style="stop-color:#AAA9A8;stop-opacity:9.226325e-02"/>
			<stop  offset="0.3975" style="stop-color:#6E6E6D;stop-opacity:0.1987"/>
			<stop  offset="0.5933" style="stop-color:#3F3E3E;stop-opacity:0.2966"/>
			<stop  offset="0.7651" style="stop-color:#1C1C1C;stop-opacity:0.3826"/>
			<stop  offset="0.9066" style="stop-color:#080807;stop-opacity:0.4533"/>
			<stop  offset="1" style="stop-color:#000000;stop-opacity:0.5"/>
		</linearGradient>
		<path style="fill:url(#SVGID_00000110472370635170730930000005608417546768529567_);" d="M22.5,23.6v9.6c0,0.2,0.6,0.4,1.4,0.4
			s1.4-0.2,1.4-0.4v-9.6H22.5z"/>
	</g>
	<path class="st4" d="M23.9,2.6c-6.1,0-11.2,5-11.2,11.2s5,11.2,11.2,11.2s11.2-5,11.2-11.2S30,2.6,23.9,2.6z M23.9,23.3
		c-5.3,0-9.6-4.3-9.6-9.6c0-5.3,4.3-9.6,9.6-9.6s9.6,4.3,9.6,9.6C33.5,19,29.2,23.3,23.9,23.3z M32.1,16.3h-5.6v5.6h-5.1v-5.6h-5.6
		v-5.1h5.6V5.6h5.1v5.6h5.6V16.3z"/>
</g>
</svg>
