<?xml version="1.0" encoding="utf-8"?>
<!-- Generator: Adobe Illustrator 26.5.0, SVG Export Plug-In . SVG Version: 6.00 Build 0)  -->
<svg version="1.1" id="Layer_1" xmlns="http://www.w3.org/2000/svg" xmlns:xlink="http://www.w3.org/1999/xlink" x="0px" y="0px"
	 viewBox="0 0 540 960" style="enable-background:new 0 0 540 960;" xml:space="preserve">
<style type="text/css">
	.st0{fill:url(#SVGID_1_);}
	.st1{fill:#FFFFFF;}
</style>
<g>
	<g>
		<linearGradient id="SVGID_1_" gradientUnits="userSpaceOnUse" x1="270" y1="946.3263" x2="270" y2="481.4497">
			<stop  offset="1.385225e-07" style="stop-color:#FFFFFF;stop-opacity:0"/>
			<stop  offset="1" style="stop-color:#FFFFFF"/>
		</linearGradient>
		<path class="st0" d="M502.4,824.4c0,12.2-0.4,26.6-3,41c-3.7,20.5-13.2,38.6-27.5,52.5c-14.3,13.9-32.8,22.8-53.4,25.9
			c-14.4,2.1-29.1,2.3-44.2,2.4c-32.5,0.1-66.2,0.1-102.8,0.1c-32.6,0-67.6,0-107.2-0.1c-11.5,0-24.9-0.2-38-1.7
			c-18.4-2.1-34.5-8.1-47.8-17.8c-13.4-9.7-24.1-23.2-31.7-40.1c-8.3-18.3-9.1-37.3-9.1-55.2c-0.3-76.5-0.2-153.3-0.1-211.7
			c0-14.4,0.1-30.8,1.5-47c1.6-18.2,7.1-34.3,16.3-47.8c9.2-13.5,22.2-24.5,38.6-32.7c18-9,37.2-10.3,51.9-10.3
			c15.7-0.1,32.7-0.1,53.6-0.1c11.8,0,23.7,0,35.5,0c7.7,0,15.3,0,23,0v-0.2h12.4c9.9,0,19.8,0,29.7,0c9.9,0,19.8,0,29.7,0
			c18,0,32.7,0,46.1,0.1c13.4,0.1,25.4,0.3,37.6,1.7c18.8,2.2,35.1,8.4,48.6,18.4c13.5,10,24.2,23.9,31.7,41.4
			c7.7,17.8,8.4,36.5,8.4,54.1C502.6,669.9,502.6,744.2,502.4,824.4z M461,597.3c-0.3-12.1-0.5-23.6-3.8-34.2
			c-6.6-21.6-26.6-37.5-48.6-38.9c-14.3-0.9-29-1.3-43.2-1.7c-4.1-0.1-8.2-0.2-12.4-0.4c-4.9-0.2-10-0.2-14.9-0.3
			c-4.6-0.1-9.4-0.1-14.1-0.3c-0.4,0-1.6,0-3.4,0c0.1,39.5,0.1,79,0,118.5c0,2.9,1,3.8,3.8,3.8c12.1-0.1,24.2,0.1,36.3-0.1
			c3.2,0,4.9,0.5,5.3,4.3c1.9,16,4.2,31.9,6.4,47.9c0,0.3-0.1,0.7-0.4,1.5c-1.2,0-2.6,0-3.9,0c-14.4,0-28.8,0.1-43.2-0.1
			c-3.3,0-4.4,1-4.3,4.3c0.4,11,0.1,22.1,0.8,33.1c1,14.3,8.4,24.2,20.3,27c5.5,1.3,11.4,1.1,17.2,1.4c4.3,0.2,8.5,0.3,12.8,0.2
			c2.3,0,3,0.8,3,3c-0.1,13-0.1,26,0,39.1c0,1.9-0.6,2.9-2.7,3.2c-13.8,2.3-27.5,4.5-41.5,3.4c-13.9-1.1-27.5-3.3-39.3-11.5
			c-15.8-11-23.5-27.1-26.7-45.5c-1.1-6.4-1.2-13.1-1.4-19.6c-0.2-11.5-0.1-23,0-34.6c0-2.7-0.8-3.6-3.6-3.6
			c-13.3,0.1-26.5,0-39.8,0c-5.2,0-5.2,0-5.2-5.2c0-14.9,0.1-29.7-0.1-44.6c0-2.8,0.8-3.8,3.7-3.7c13.5,0.1,27,0,40.5,0.1
			c3.2,0,4.4-0.8,4.4-4.2c-0.1-39.4-0.1-78.9,0-118.3c-0.5,0-1,0-1.5,0c-1.4,0-2.3,0-2.7,0c-10,0.1-20.1,0.2-29.9,0.2
			c-10.3,0-20.9,0.1-31.3,0.2c-18.7,0.2-35.2,0.6-50.5,1.2c-13.3,0.5-24.3,1.2-34,5.8c-19.1,9-29.8,23.3-32.6,43.7
			c-1.7,12.1-1.9,25-2,37.4c-0.6,45.8-1,91.1-1.3,134.7c-0.1,21.1,0.4,42.6,0.8,61.2c0.4,16.2,0.8,30.9,1.9,45.6
			c2,26.7,20.3,47,46.6,51.7c7,1.3,14.5,1.6,20.2,1.8c17.7,0.5,33.7,0.8,49,0.9c10.4,0,20.8,0,31.2,0c26.9,0,55.6-0.1,87.7-0.2
			c24-0.1,51.1-0.2,77.9-0.7c11.8-0.2,24.2-0.9,34.8-6.2c19-9.4,29.5-23.9,31.9-44.3c1.7-13.8,1.9-27.8,2-41
			c0.4-45,0.7-90.3,0.6-134.7C462,653.4,461.7,626.8,461,597.3z"/>
	</g>
	<g>
		<path class="st1" d="M502.4,135.6c0-12.2-0.4-26.6-3-41c-3.7-20.5-13.2-38.6-27.5-52.5c-14.3-13.9-32.8-22.8-53.4-25.9
			c-14.4-2.1-29.1-2.3-44.2-2.4c-32.5-0.1-66.2-0.1-102.8-0.1c-32.6,0-67.6,0-107.2,0.1c-11.5,0-24.9,0.2-38,1.7
			c-18.4,2.1-34.5,8.1-47.8,17.8C65.1,43,54.4,56.5,46.8,73.4c-8.3,18.3-9.1,37.3-9.1,55.2c-0.3,76.5-0.2,153.3-0.1,211.7
			c0,14.4,0.1,30.8,1.5,47c1.6,18.2,7.1,34.3,16.3,47.8c9.2,13.5,22.2,24.5,38.6,32.7c18,9,37.2,10.3,51.9,10.3
			c15.7,0.1,32.7,0.1,53.6,0.1c11.8,0,23.7,0,35.5,0c7.7,0,15.3,0,23,0v0.2h12.4c9.9,0,19.8,0,29.7,0c9.9,0,19.8,0,29.7,0
			c18,0,32.7,0,46.1-0.1c13.4-0.1,25.4-0.3,37.6-1.7c18.8-2.2,35.1-8.4,48.6-18.4c13.5-10,24.2-23.9,31.7-41.4
			c7.7-17.8,8.4-36.5,8.4-54.1C502.6,290.1,502.6,215.8,502.4,135.6z M461,362.7c-0.3,12.1-0.5,23.6-3.8,34.2
			c-6.6,21.6-26.6,37.5-48.6,38.9c-14.3,0.9-29,1.3-43.2,1.7c-4.1,0.1-8.2,0.2-12.4,0.4c-4.9,0.2-10,0.2-14.9,0.3
			c-4.6,0.1-9.4,0.1-14.1,0.3c-0.4,0-1.6,0-3.4,0c0.1-39.5,0.1-79,0-118.5c0-2.9,1-3.8,3.8-3.8c12.1,0.1,24.2-0.1,36.3,0.1
			c3.2,0,4.9-0.5,5.3-4.3c1.9-16,4.2-31.9,6.4-47.9c0-0.3-0.1-0.7-0.4-1.5c-1.2,0-2.6,0-3.9,0c-14.4,0-28.8-0.1-43.2,0.1
			c-3.3,0-4.4-1-4.3-4.3c0.4-11,0.1-22.1,0.8-33.1c1-14.3,8.4-24.2,20.3-27c5.5-1.3,11.4-1.1,17.2-1.4c4.3-0.2,8.5-0.3,12.8-0.2
			c2.3,0,3-0.8,3-3c-0.1-13-0.1-26,0-39.1c0-1.9-0.6-2.9-2.7-3.2c-13.8-2.3-27.5-4.5-41.5-3.4c-13.9,1.1-27.5,3.3-39.3,11.5
			c-15.8,11-23.5,27.1-26.7,45.5c-1.1,6.4-1.2,13.1-1.4,19.6c-0.2,11.5-0.1,23,0,34.6c0,2.7-0.8,3.6-3.6,3.6
			c-13.3-0.1-26.5,0-39.8,0c-5.2,0-5.2,0-5.2,5.2c0,14.9,0.1,29.7-0.1,44.6c0,2.8,0.8,3.8,3.7,3.7c13.5-0.1,27,0,40.5-0.1
			c3.2,0,4.4,0.8,4.4,4.2c-0.1,39.4-0.1,78.9,0,118.3c-0.5,0-1,0-1.5,0c-1.4,0-2.3,0-2.7,0c-10-0.1-20.1-0.2-29.9-0.2
			c-10.3,0-20.9-0.1-31.3-0.2c-18.7-0.2-35.2-0.6-50.5-1.2c-13.3-0.5-24.3-1.2-34-5.8c-19.1-9-29.8-23.3-32.6-43.7
			c-1.7-12.1-1.9-25-2-37.4c-0.6-45.8-1-91.1-1.3-134.7c-0.1-21.1,0.4-42.6,0.8-61.2c0.4-16.2,0.8-30.9,1.9-45.6
			c2-26.7,20.3-47,46.6-51.7c7-1.3,14.5-1.6,20.2-1.8c17.7-0.5,33.7-0.8,49-0.9c10.4,0,20.8,0,31.2,0c26.9,0,55.6,0.1,87.7,0.2
			c24,0.1,51.1,0.2,77.9,0.7c11.8,0.2,24.2,0.9,34.8,6.2c19,9.4,29.5,23.9,31.9,44.3c1.7,13.8,1.9,27.8,2,41
			c0.4,45,0.7,90.3,0.6,134.7C462,306.6,461.7,333.2,461,362.7z"/>
	</g>
</g>
</svg>
