<?xml version="1.0" encoding="utf-8"?>
<!-- Generator: Adobe Illustrator 28.4.1, SVG Export Plug-In . SVG Version: 6.00 Build 0)  -->
<svg version="1.1" id="Layer_1" xmlns="http://www.w3.org/2000/svg" xmlns:xlink="http://www.w3.org/1999/xlink" x="0px" y="0px"
	 viewBox="0 0 611.3 612" style="enable-background:new 0 0 611.3 612;" xml:space="preserve">
<style type="text/css">
	.st0{fill:#FFFFFF;}
	.st1{fill:#4285F4;}
	.st2{fill:#34A853;}
	.st3{fill:#FBBC05;}
	.st4{fill:#EA4335;}
</style>
<g id="g24_1_">
	<g id="g26_1_">
		<g id="g32_1_">
			<g id="g34_1_">
				<path id="path42_1_" class="st0" d="M139.1,0.3c-13.6,0.5-31.2,1.6-39.2,3.2C87.7,5.9,76.2,9.7,66.6,14.6
					c-11.3,5.7-21.4,13.1-30.1,21.8c-8.7,8.6-16.1,18.7-21.8,30c-4.9,9.5-8.6,21-11.1,33.1C2,107.6,0.9,125.3,0.4,139
					C0.2,144.7,0,151.9,0,155.3v301.4c0,3.3,0.1,10.6,0.3,16.2c0.5,13.6,1.6,31.2,3.2,39.2c2.5,12.2,6.2,23.7,11.1,33.3
					c5.7,11.3,13.1,21.4,21.8,30.1c8.7,8.7,18.8,16.1,30.1,21.8c9.5,4.9,21,8.6,33.1,11.1c8.1,1.6,25.8,2.7,39.5,3.2
					c5.6,0.2,12.9,0.3,16.2,0.3h301.4c3.3,0,10.6-0.1,16.2-0.3c13.6-0.5,31.2-1.6,39.2-3.2c12.2-2.5,23.7-6.2,33.3-11.1
					c11.3-5.7,21.4-13.1,30.1-21.8c8.7-8.7,16.1-18.8,21.8-30.1c4.9-9.5,8.6-21,11.1-33.1c1.6-8.1,2.7-25.8,3.2-39.5
					c0.2-5.6,0.3-12.9,0.3-16.2V155.2c0-3.3-0.1-10.6-0.3-16.2c-0.5-13.6-1.6-31.2-3.2-39.2c-2.5-12.2-6.2-23.7-11.1-33.3
					c-5.7-11.3-13.1-21.4-21.8-30.1s-18.8-16.1-30.1-21.8c-9.5-4.9-21-8.6-33.1-11.1c-8.1-1.6-25.8-2.7-39.5-3.2
					C467.3,0.1,460.1,0,456.7,0H155.3C152,0,144.7,0.1,139.1,0.3"/>
			</g>
		</g>
	</g>
</g>
<g>
	<path class="st1" d="M536.8,311.3c0-16.7-1.5-32.7-4.3-48.1H311.2v91h126.5c-5.6,29.3-22.2,54.1-47.2,70.7v59.2h76.3
		C511.2,443.2,536.8,382.9,536.8,311.3z"/>
	<path class="st2" d="M311.2,541c63.4,0,116.6-20.9,155.5-56.8L390.5,425c-20.9,14.1-47.6,22.6-79.3,22.6
		c-61.1,0-113-41.2-131.6-96.8h-78.2v60.7C140.1,488.2,219.3,541,311.2,541z"/>
	<path class="st3" d="M179.6,350.6c-4.7-14.1-7.5-29.1-7.5-44.6s2.8-30.6,7.5-44.6v-60.7h-78.2C85.4,232.3,76.2,268,76.2,306
		s9.2,73.7,25.2,105.3l60.9-47.4L179.6,350.6z"/>
	<path class="st4" d="M311.2,164.6c34.6,0,65.4,12,89.9,35l67.3-67.3C427.6,94.3,374.6,71,311.2,71c-91.9,0-171.1,52.8-209.8,129.7
		l78.2,60.7C198.2,205.8,250.1,164.6,311.2,164.6z"/>
</g>
</svg>
