<?xml version="1.0" encoding="utf-8"?>
<!-- Generator: Adobe Illustrator 28.4.1, SVG Export Plug-In . SVG Version: 6.00 Build 0)  -->
<svg version="1.1" id="Layer_1" xmlns="http://www.w3.org/2000/svg" xmlns:xlink="http://www.w3.org/1999/xlink" x="0px" y="0px"
	 viewBox="0 0 96 85" style="enable-background:new 0 0 96 85;" xml:space="preserve">
<style type="text/css">
	.st0{fill:#FFFFFF;}
</style>
<path class="st0" d="M60.6,4.2H35.3c-4.6,0-8.3,3.7-8.3,8.3v60.2c0,4.6,3.7,8.3,8.3,8.3h25.4c4.6,0,8.3-3.7,8.3-8.3V12.5
	C68.9,7.9,65.2,4.2,60.6,4.2z M62.1,71.2c0,2.5-0.4,2.9-3,2.9H36.4c-2.2,0-2.8-0.6-2.8-2.7V13.7c0-2.1,0.6-2.7,2.9-2.7
	c0.7-0.1,1.3-0.1,2-0.1c0.6,1.8,1.4,2.4,3.7,2.4h11.4c2.5,0,3.2-0.3,3.9-2.3c0.2,0,0.3,0,0.5,0c0.4,0,0.8,0,1.2,0c0.4,0,0.7,0,1.1,0
	c1,0.1,1.7,0.8,1.8,1.7V71.2z"/>
<path class="st0" d="M56.4,17.9h-7c-0.9,0-1.4,0.6-1.4,1.4v6.4c0,0.8,0.6,1.4,1.5,1.4h7c0.9,0,1.5-0.6,1.5-1.5v-6.3
	C57.9,18.5,57.3,17.9,56.4,17.9z"/>
</svg>
