<?xml version="1.0" encoding="utf-8"?>
<!-- Generator: Adobe Illustrator 26.5.0, SVG Export Plug-In . SVG Version: 6.00 Build 0)  -->
<svg version="1.1" id="Layer_1" xmlns="http://www.w3.org/2000/svg" xmlns:xlink="http://www.w3.org/1999/xlink" x="0px" y="0px"
	 viewBox="0 0 540 960" style="enable-background:new 0 0 540 960;" xml:space="preserve">
<style type="text/css">
	.st0{fill:url(#SVGID_1_);}
	.st1{fill:#FFFFFF;}
</style>
<g>
	<g>
		<linearGradient id="SVGID_1_" gradientUnits="userSpaceOnUse" x1="270" y1="945.012" x2="270" y2="481.4497">
			<stop  offset="1.385225e-07" style="stop-color:#FFFFFF;stop-opacity:0"/>
			<stop  offset="1" style="stop-color:#FFFFFF"/>
		</linearGradient>
		<path class="st0" d="M496.8,620.3c1.5-1.2,3.1-1.7,5.1-0.8c0,1.6,0.1,3.2,0.1,4.7c0,61.8-0.1,123.5,0.1,185.3
			c0.1,14.6-2.9,28.4-8.1,41.8c-12.5,32.2-33.7,57.1-63.7,74.5c-20.6,12-42.9,18.9-66.8,19.1c-62.1,0.3-124.2,0.1-186.3,0.1
			c-1.7,0-3.4,0.3-5-0.5c-16.7-1.1-32.7-5.1-47.9-11.9c-6.2-2.8-12.1-6.3-18.1-9.7c-5.4-3.1-10.4-6.8-15.2-10.7
			c-9.1-7.3-17.2-15.9-24.2-25.3c-18.2-24.6-28.5-52.2-28.8-82.8C37.6,742.5,38,681.1,38,619.7c0-3.7,0.4-7.4,0.9-11.1
			C41,591,45.8,574.3,54,558.7c14.6-27.6,35.7-49,63.8-63.1c18.1-9,36.8-14.3,57.4-14.2c66.2,0.4,132.3,0.2,198.5,0
			c7.2,0,14.1,1.1,21,2.9c34.7,9.4,62.6,28.8,83,58.4c15.8,23,25.4,48.1,24.2,76.5C499.9,618.6,498.3,619,496.8,620.3z M460.8,661.2
			c0-0.1,0-0.2,0-0.3C460.7,661,460.8,661.1,460.8,661.2z M459.8,618.6c0.1,0.1,0.1,0.2,0.1,0.3
			C459.9,618.8,459.9,618.7,459.8,618.6z M459.7,658.1c0-12.9-0.1-25.7-0.1-38.6v0c0-0.4,0-0.7-0.1-1.1c0-0.4-0.1-0.8-0.1-1.2
			c0-0.4,0-0.8-0.1-1.3c-1.6-12-4.4-23.7-9.8-34.6c-9.3-18.9-23.1-33.5-41.3-44.3c-10.8-6.4-22.5-9.9-34.6-12.5
			c-3.9-0.8-8.2-0.8-12.4-0.8c-59.7,0-119.5-0.3-179.2,0.1c-29.7,0.2-54.6,12-74.5,34c-13.6,15-21.7,32.8-24.7,52.7
			c-0.8,5.5-1.2,11.2-1.2,16.8c0.1,57.3-0.2,114.5,0.2,171.8c0.3,37.9,17.1,67.1,49.2,87.3c15.6,9.8,32.9,14.4,51.3,14.7
			c8.5,0.1,16.9,0.1,25.4,0.1c17.1-0.1,34.2-0.1,51.4-0.1c33.6,0,67.2,0.4,100.7-0.2c31.5-0.5,57.4-13.6,77.3-38
			c15.2-18.7,22.4-40.3,22.4-64.3c0-45.5,0-91,0-136.5C459.6,660.8,459.7,659.4,459.7,658.1c1.1,0.5,1.1,1.3,1.1,2.2
			C460.8,659.4,460.8,658.6,459.7,658.1z M407.3,848c4.4-4.8,5.3-12.5,2.1-17.6c-3.1-6.6-9.4-9.8-17-8.1c-6.4,1.4-11.2,5.7-12,13.6
			c-0.7,7.6,2.7,13,9.8,15.8C395.5,854.4,402.8,852.8,407.3,848z M385.9,726.4c-0.7,4.6-1,9.3-2.1,13.9
			c-4.8,19.3-13.9,36.3-27.3,50.9c-17.5,19-39,30.8-64.3,35.7c-16,3.1-32,2.7-47.9-1.1c-6.4-1.5-12.9-3-18.6-6.5
			c-8.8-3.3-16.9-8-24.5-13.4c-9.1-6.4-16.4-14.5-23.2-23.4c-14.7-19.1-22.1-40.8-23.6-64.4c-0.7-10.9,0.4-22,3.1-32.8
			c3.9-15.4,10.1-29.7,19.8-42.5c14.8-19.5,33.6-33.2,56.8-41c19.2-6.4,38.7-7.6,58.6-3.8c21,4,39.4,13,55.3,27.3
			c13.7,12.3,24.3,26.8,30.8,44.1c4.7,9.6,6.3,20,7.7,30.4C387.5,708.7,387.3,717.5,385.9,726.4z M343.3,704.6
			c-0.8-6.5-1.8-13.1-4.8-19.1c-4.1-10.9-10.7-20-19.3-27.7c-10-8.9-21.6-14.6-34.7-17.1c-12.5-2.4-24.7-1.6-36.8,2.4
			c-14.6,4.9-26.4,13.5-35.7,25.7c-6.1,8-10,17-12.5,26.7c-1.7,6.7-2.4,13.7-1.9,20.6c1,14.8,5.6,28.4,14.8,40.5
			c4.3,5.6,8.9,10.6,14.5,14.7c4.8,3.4,9.9,6.4,15.4,8.4c3.6,2.2,7.7,3.1,11.7,4.1c10,2.4,20,2.6,30.1,0.7
			c15.9-3.1,29.4-10.5,40.4-22.4c8.5-9.2,14.2-19.9,17.2-32c0.7-2.9,0.9-5.8,1.3-8.7C343.9,715.6,344,710.1,343.3,704.6z"/>
	</g>
	<g>
		<path class="st1" d="M496.8,338.4c1.5,1.2,3.1,1.7,5.1,0.8c0-1.6,0.1-3.2,0.1-4.7c0-61.8-0.1-123.5,0.1-185.3
			c0.1-14.6-2.9-28.4-8.1-41.8c-12.5-32.2-33.7-57.1-63.7-74.5c-20.6-12-42.9-18.9-66.8-19.1c-62.1-0.3-124.2-0.1-186.3-0.1
			c-1.7,0-3.4-0.3-5,0.5c-16.7,1.1-32.7,5.1-47.9,11.9c-6.2,2.8-12.1,6.3-18.1,9.7C100.8,39,95.8,42.7,91,46.6
			c-9.1,7.3-17.2,15.9-24.2,25.3c-18.2,24.6-28.5,52.2-28.8,82.8C37.6,216.2,38,277.6,38,339c0,3.7,0.4,7.4,0.9,11.1
			C41,367.6,45.8,384.4,54,400c14.6,27.6,35.7,49,63.8,63.1c18.1,9,36.8,14.3,57.4,14.2c66.2-0.4,132.3-0.2,198.5,0
			c7.2,0,14.1-1.1,21-2.9c34.7-9.4,62.6-28.8,83-58.4c15.8-23,25.4-48.1,24.2-76.5C499.9,340.1,498.3,339.6,496.8,338.4z
			 M460.8,297.5c0,0.1,0,0.2,0,0.3C460.7,297.7,460.8,297.6,460.8,297.5z M459.8,340c0.1-0.1,0.1-0.2,0.1-0.3
			C459.9,339.9,459.9,340,459.8,340z M459.7,300.6c0,12.9-0.1,25.7-0.1,38.6v0c0,0.4,0,0.7-0.1,1.1c0,0.4-0.1,0.8-0.1,1.2
			c0,0.4,0,0.8-0.1,1.3c-1.6,12-4.4,23.7-9.8,34.6c-9.3,18.9-23.1,33.5-41.3,44.3c-10.8,6.4-22.5,9.9-34.6,12.5
			c-3.9,0.8-8.2,0.8-12.4,0.8c-59.7,0-119.5,0.3-179.2-0.1c-29.7-0.2-54.6-12-74.5-34c-13.6-15-21.7-32.8-24.7-52.7
			c-0.8-5.5-1.2-11.2-1.2-16.8c0.1-57.3-0.2-114.5,0.2-171.8c0.3-37.9,17.1-67.1,49.2-87.3c15.6-9.8,32.9-14.4,51.3-14.7
			c8.5-0.1,16.9-0.1,25.4-0.1c17.1,0.1,34.2,0.1,51.4,0.1c33.6,0,67.2-0.4,100.7,0.2c31.5,0.5,57.4,13.6,77.3,38
			c15.2,18.7,22.4,40.3,22.4,64.3c0,45.5,0,91,0,136.5C459.6,297.9,459.7,299.3,459.7,300.6c1.1-0.5,1.1-1.3,1.1-2.2
			C460.8,299.3,460.8,300.1,459.7,300.6z M407.3,110.7c4.4,4.8,5.3,12.5,2.1,17.6c-3.1,6.6-9.4,9.8-17,8.1
			c-6.4-1.4-11.2-5.7-12-13.6c-0.7-7.6,2.7-13,9.8-15.8C395.5,104.3,402.8,105.9,407.3,110.7z M385.9,232.3c-0.7-4.6-1-9.3-2.1-13.9
			c-4.8-19.3-13.9-36.3-27.3-50.9c-17.5-19-39-30.8-64.3-35.7c-16-3.1-32-2.7-47.9,1.1c-6.4,1.5-12.9,3-18.6,6.5
			c-8.8,3.3-16.9,8-24.5,13.4c-9.1,6.4-16.4,14.5-23.2,23.4c-14.7,19.1-22.1,40.8-23.6,64.4c-0.7,10.9,0.4,22,3.1,32.8
			c3.9,15.4,10.1,29.7,19.8,42.5c14.8,19.5,33.6,33.2,56.8,41c19.2,6.4,38.7,7.6,58.6,3.8c21-4,39.4-13,55.3-27.3
			c13.7-12.3,24.3-26.8,30.8-44.1c4.7-9.6,6.3-20,7.7-30.4C387.5,250,387.3,241.2,385.9,232.3z M343.3,254.1
			c-0.8,6.5-1.8,13.1-4.8,19.1c-4.1,10.9-10.7,20-19.3,27.7c-10,8.9-21.6,14.6-34.7,17.1c-12.5,2.4-24.7,1.6-36.8-2.4
			c-14.6-4.9-26.4-13.5-35.7-25.7c-6.1-8-10-17-12.5-26.7c-1.7-6.7-2.4-13.7-1.9-20.6c1-14.8,5.6-28.4,14.8-40.5
			c4.3-5.6,8.9-10.6,14.5-14.7c4.8-3.4,9.9-6.4,15.4-8.4c3.6-2.2,7.7-3.1,11.7-4.1c10-2.4,20-2.6,30.1-0.7
			c15.9,3.1,29.4,10.5,40.4,22.4c8.5,9.2,14.2,19.9,17.2,32c0.7,2.9,0.9,5.8,1.3,8.7C343.9,243.1,344,248.6,343.3,254.1z"/>
	</g>
</g>
</svg>
