<?xml version="1.0" encoding="utf-8"?>
<!-- Generator: Adobe Illustrator 26.5.0, SVG Export Plug-In . SVG Version: 6.00 Build 0)  -->
<svg version="1.1" id="Layer_1" xmlns="http://www.w3.org/2000/svg" xmlns:xlink="http://www.w3.org/1999/xlink" x="0px" y="0px"
	 viewBox="0 0 500 500" style="enable-background:new 0 0 500 500;" xml:space="preserve">
<style type="text/css">
	.st0{fill:#FFFFFF;}
	.st1{fill:#5931EB;}
	.st2{fill:#3BFF0A;}
	.st3{fill:#FFD60A;}
</style>
<g>
	<g>
		<path class="st0" d="M31.3,400.7c-0.1-2-0.1-3.2-0.1-3.8c0-0.2,0-0.4,0-0.6c0-0.3,0.1-0.6,0.1-1.1v-57.1c0-1.5-1-2.5-2.5-2.5
			c-0.7,0-1.3,0.3-1.8,0.8c-0.4,0.5-0.7,1.1-0.7,1.7v57.1c0,0.4,0,0.8,0.1,1.1c0,0.2,0,0.4,0,0.6c0,0.6,0,1.9-0.1,3.8
			c-0.1,1.9-0.3,4.2-0.7,6.8c-0.1,0.6-0.1,1.6,0.7,2.6c0.8,1.1,1.8,1.3,2.5,1.3c1,0,1.9-0.5,2.6-1.3c0.8-1,0.8-2,0.7-2.6
			C31.6,404.9,31.4,402.6,31.3,400.7z"/>
		<path class="st0" d="M68.3,377.2c-1.3-1.6-2.8-2.9-4.7-3.9c-1.9-1-4-1.5-6.5-1.5c-2.5,0-5,0.7-7.3,2c-0.8,0.4-1.5,0.7-2.1,0.9
			c-0.5,0.2-0.9,0.2-1,0.2c-0.1-0.4-0.3-0.7-0.6-1c-0.5-0.5-1.1-0.8-1.8-0.8c-1.5,0-2.5,1-2.5,2.5v33.3c0,1.5,1,2.5,2.5,2.5
			c0.7,0,1.3-0.2,1.7-0.7c0.5-0.5,0.7-1.1,0.7-1.7v-20c0-1.7,0.3-3.4,0.8-4.9c0.5-1.5,1.3-2.8,2.2-3.8c0.9-1,2-1.9,3.3-2.5
			c2.5-1.2,5.6-1.2,8,0c1.2,0.6,2.3,1.4,3.1,2.4c0.9,1.1,1.6,2.4,2.1,3.9c0.5,1.5,0.8,3.2,0.8,5v19.9c0,1.5,1,2.5,2.5,2.5
			s2.5-1,2.5-2.5V389c0-2.1-0.3-4.3-1-6.3C70.6,380.7,69.6,378.8,68.3,377.2z"/>
		<path class="st0" d="M92.9,405.7h-1.2c-0.6,0-1.2-0.1-1.8-0.4c-0.6-0.2-1.1-0.6-1.6-1.1c-0.5-0.5-0.9-1.2-1.3-2
			c-0.3-0.8-0.5-1.8-0.5-3.1v-20.1c0-0.6,0.2-1.2,0.7-1.6c0.5-0.5,1-0.7,1.6-0.7h4.5c1.1,0,1.7-0.4,2-0.8c0.3-0.3,0.6-0.9,0.5-1.9
			c0-1.4-1-2.4-2.5-2.4h-4.4c-0.6,0-1.2-0.2-1.6-0.7c-0.5-0.5-0.7-1-0.7-1.6v-25c0-0.7-0.2-1.3-0.7-1.7c-0.5-0.5-1.1-0.7-1.7-0.7
			c-1.5,0-2.5,1-2.5,2.5v54.6c0,0.8,0,1.5,0.1,2.3l0.4,2.1c0.1,0.8,0.4,1.5,0.8,2.3c1.1,2.1,2.6,3.6,4.4,4.7
			c1.8,1.1,3.7,1.6,5.6,1.6c0.8,0,1.6-0.3,2.2-0.9c0.7-0.6,1.1-1.5,1.1-2.5c0-0.8-0.3-1.6-0.9-2.2C94.9,406.2,94.1,405.7,92.9,405.7
			z"/>
		<path class="st0" d="M135.2,393.2c-0.8,0-1.6,0.2-2.2,0.6c-0.5,0.3-0.9,0.7-1.3,1.3c-0.3,0.6-0.5,1.2-0.5,1.8c0,0.8,0,1,0,1
			L131,399c-0.2,0.7-0.5,1.4-0.9,2c-0.5,0.7-0.9,1.3-1.5,1.8c-0.1,0.1-0.4,0.3-0.8,0.7c-0.4,0.4-1.1,0.8-1.8,1.2
			c-0.8,0.4-1.7,0.8-2.8,1.1c-1.1,0.3-2.3,0.5-3.7,0.5c-1.4,0-2.7-0.2-3.8-0.6c-1.1-0.4-2.1-0.9-2.9-1.4c-0.9-0.5-1.7-1.1-2.4-1.8
			c-0.4-0.4-0.6-0.8-0.7-1.3c-0.1-0.5-0.1-1,0-1.5c0.1-0.5,0.3-0.9,0.6-1.2c0.3-0.4,0.7-0.7,1.2-1l22.7-10.9c1-0.5,1.7-1.3,2-2.3
			c0.3-1,0.2-1.9-0.3-2.9l-0.1-0.2c-0.6-0.9-1.3-1.8-2.1-2.9c-0.9-1.1-2-2.1-3.3-3.1c-1.3-1-2.9-1.8-4.7-2.5c-1.8-0.7-3.9-1-6.2-1
			c-2.6,0-5.1,0.6-7.4,1.7c-2.2,1.1-4.2,2.6-5.8,4.4c-1.6,1.8-2.8,3.9-3.7,6.3c-0.9,2.3-1.3,4.8-1.3,7.4c0,2.6,0.4,5.1,1.3,7.5
			c0.9,2.4,2.1,4.5,3.6,6.3c1.6,1.8,3.5,3.3,5.8,4.4c2.3,1.1,4.8,1.6,7.5,1.6c4.3,0,7.9-1.1,10.9-3.3c2.8-2.1,5.3-4.9,7.4-8.2
			c0.1-0.1,0.2-0.2,0.2-0.3l0.2-0.2l0.1-0.2c0.1-0.2,0.2-0.4,0.3-0.6c0.2-0.4,0.4-0.9,0.4-1.4c0-0.6-0.1-1.1-0.3-1.5
			C138.1,394,136.8,393.2,135.2,393.2z M129.4,382.3c-0.2,0.8-0.7,1.5-1.5,1.9l-15.5,7.4l-0.1,0c-0.3,0.2-0.6,0.3-1,0.4l-0.2,0.1
			c-0.8,0.3-1.6,0.5-2.4,0.5c-0.7,0-1.2-0.2-1.6-0.5c-0.2-0.2-0.5-0.5-0.5-1.4c0-1,0.1-2,0.4-3c0.7-3.3,2.2-5.9,4.5-7.9
			c2.3-2,5-3,8.4-3c1.6,0,3.2,0.3,4.7,0.8c1.5,0.6,2.8,1.3,3.7,2.2C129.5,381.1,129.5,381.8,129.4,382.3z"/>
		<path class="st0" d="M165.2,371c-0.5,0-1,0.1-1.4,0.3c-1.2,0.6-2.3,0.9-3.2,1.2c-2.8,0.7-5.3,2.2-7.6,4.3c-0.6,0.6-1.1,1-1.5,1.5
			c0-0.1-0.1-0.1-0.2-0.2c-0.5-0.5-1.1-0.8-1.8-0.8c-1.5,0-2.5,1-2.5,2.5v29.1c0,1.5,1,2.5,2.5,2.5c0.7,0,1.3-0.3,1.8-0.8
			c0.4-0.5,0.7-1.1,0.7-1.7v-18c0-1.5,0.3-3.1,0.8-4.7c0.5-1.6,1.3-3.1,2.3-4.4c1-1.3,2.1-2.3,3.5-3.2c1.5-0.9,3.1-1.3,5.1-1.1
			c0.3,0,0.6,0.1,0.9,0.1c0.2,0.1,0.4,0.1,0.6,0.1c1.1,0,1.9-0.4,2.6-1.2c0.6-0.6,0.9-1.3,0.9-2.2c0-0.6-0.2-1.2-0.6-1.7
			C167.5,371.5,166.5,371,165.2,371z"/>
		<path class="st0" d="M199.9,384.6h-24.3c-1.5,0-2.5,1-2.5,2.5c0,0.6,0.2,1.2,0.7,1.7c0.5,0.5,1.1,0.8,1.8,0.8h24.4
			c1.5,0,2.5-1,2.5-2.5C202.4,385.6,201.4,384.6,199.9,384.6z"/>
		<path class="st0" d="M256.8,405.9c-0.1-0.2-0.4-0.5-0.8-1.2c-0.3-0.6-0.7-1.4-1.2-2.4l-21.1-65l-0.1-0.2l-0.1-0.2
			c-0.2-0.2-0.4-0.5-0.6-0.7c-0.3-0.3-0.8-0.6-1.6-0.6c-1,0-1.8,0.5-2.3,1.5l0,0.1l-21.2,65.1c-0.4,1.1-0.7,1.9-1.1,2.4
			c-0.4,0.6-0.7,1-0.9,1.3c-0.5,0.6-0.7,1.3-0.7,2.2l0,0.2c0.1,0.9,0.5,1.6,1.1,2.2c0.6,0.6,1.4,0.9,2.2,0.9c1,0,1.9-0.4,2.5-1.1
			c0.6-0.7,0.9-1.6,0.8-2.4c0-1.5,0.2-2.8,0.6-4.1c1-3.2,1.9-6,2.8-8.7c0.4-1.1,0.7-2.2,1.1-3.3l1-2.9c0.3-0.9,0.5-1.7,0.7-2.3
			c0.2-0.6,0.3-1,0.3-1.1c0.2-0.6,0.7-1.2,1.4-1.8c0.7-0.5,1.5-0.8,2.5-0.8h18.3c1,0,1.9,0.3,2.6,0.8c0.7,0.6,1.2,1.2,1.4,1.8
			c0.1,0.2,0.2,0.6,0.4,1.2c0.2,0.6,0.4,1.4,0.7,2.2c0.3,0.9,0.6,1.9,0.9,3c0.4,1.1,0.7,2.2,1.1,3.3c0.8,2.6,1.8,5.5,2.8,8.7
			c0.4,1.2,0.6,2.6,0.6,4c-0.1,0.9,0.2,1.7,0.8,2.4c0.6,0.8,1.5,1.2,2.5,1.2c0.9,0,1.7-0.3,2.3-0.9c0.5-0.5,0.9-1.2,1.1-2l0-0.3
			c0-0.5-0.1-0.9-0.2-1.3C257.2,406.4,257,406.1,256.8,405.9z M221.4,375.5c0.1-0.3,0.3-0.9,0.6-1.7l1-2.9c0.4-1.2,0.8-2.4,1.3-3.9
			c0.4-1.4,0.9-2.8,1.4-4.2c1.1-3.4,2.3-7.1,3.6-11c0.2-0.6,0.4-1.1,0.7-1.7c0.2-0.3,0.5-0.6,0.8-0.9c0.2-0.1,0.3-0.2,0.5-0.2
			c0.3,0,0.4,0.1,0.5,0.2c0.3,0.2,0.5,0.5,0.6,0.9l0,0.1c0.3,0.5,0.5,1,0.7,1.6c1.4,4.1,2.6,7.8,3.7,11.1c0.5,1.4,1,2.8,1.4,4.2
			c0.5,1.4,0.9,2.7,1.3,3.8c0.4,1.2,0.7,2.2,1,3c0.4,1,0.5,1.3,0.5,1.4l0,0.2c0.3,0.9,0.1,1.3-0.1,1.6c-0.3,0.3-0.7,0.7-1.8,0.7h-16
			c-1,0-1.5-0.4-1.7-0.7C221.4,376.9,221.1,376.5,221.4,375.5z"/>
		<path class="st0" d="M294.5,396.4l-0.3-0.2H294c-0.2-0.1-0.4-0.1-0.6-0.1c-1.1,0-2,0.6-2.4,1.6c-1.1,2.7-2.8,4.8-5,6.3
			c-2.2,1.5-4.8,2.3-7.6,2.3c-1.9,0-3.7-0.4-5.4-1.1c-1.6-0.7-3-1.7-4.2-3c-1.2-1.3-2.1-2.8-2.8-4.6c-0.7-1.8-1-3.8-1-5.9
			c0-2.1,0.3-4.2,1-6c0.7-1.8,1.6-3.4,2.8-4.7c1.2-1.3,2.6-2.3,4.2-3c1.6-0.7,3.4-1.1,5.4-1.1c2.5,0,4.8,0.6,6.8,1.8
			c2,1.2,3.7,2.9,4.9,5.2l0.1,0.2c0.7,0.9,1.5,1,2,1c0.5,0,0.8-0.1,1.2-0.2l0.1,0c1.2-0.7,1.6-2,1-3.3l-0.1-0.1
			c-1-1.7-2.2-3.3-3.6-4.7c-1.3-1.2-3-2.3-5-3.3c-2.1-1-4.6-1.5-7.5-1.5c-2.8,0-5.4,0.6-7.7,1.7c-2.3,1.1-4.2,2.6-5.8,4.4
			c-1.6,1.8-2.8,3.9-3.6,6.3c-0.9,2.3-1.3,4.8-1.3,7.4c0,2.6,0.4,5.1,1.3,7.5c0.9,2.4,2.1,4.5,3.7,6.3c1.6,1.8,3.6,3.3,5.9,4.4
			c2.3,1.1,4.8,1.6,7.6,1.6c3.7,0,7.2-1.1,10.3-3.1c3.1-2.1,5.4-5,6.9-8.6C296.1,398.7,296.1,397.3,294.5,396.4z"/>
		<path class="st0" d="M314.3,405.7h-1.2c-0.6,0-1.2-0.1-1.8-0.4c-0.6-0.2-1.1-0.6-1.6-1.1c-0.5-0.5-0.9-1.2-1.3-2
			c-0.3-0.8-0.5-1.8-0.5-3.1v-20.1c0-0.6,0.2-1.2,0.7-1.6c0.5-0.5,1-0.7,1.6-0.7h4.5c1.1,0,1.7-0.4,2-0.8c0.3-0.3,0.6-0.9,0.5-1.9
			c0-1.4-1-2.4-2.5-2.4h-4.4c-0.6,0-1.2-0.2-1.6-0.7c-0.5-0.5-0.7-1-0.7-1.6v-25c0-0.7-0.2-1.3-0.7-1.7c-0.5-0.5-1.1-0.7-1.7-0.7
			c-1.5,0-2.5,1-2.5,2.5v54.6c0,0.8,0,1.5,0.1,2.3l0.4,2.1c0.1,0.8,0.4,1.5,0.8,2.3c1.1,2.1,2.6,3.6,4.4,4.7
			c1.8,1.1,3.7,1.6,5.6,1.6c0.8,0,1.6-0.3,2.2-0.9c0.7-0.6,1.1-1.5,1.1-2.5c0-0.8-0.3-1.6-0.9-2.2
			C316.3,406.2,315.5,405.7,314.3,405.7z"/>
		<path class="st0" d="M327.1,362.2c-2.1,0-3.4,1.3-3.4,3.4c0,0.9,0.3,1.7,0.9,2.3c0.6,0.7,1.5,1.1,2.5,1.1c0.9,0,1.7-0.4,2.4-1.1
			l0,0c0.6-0.7,1-1.5,1-2.4c0-1-0.4-1.8-1-2.4C328.8,362.5,328,362.2,327.1,362.2z"/>
		<path class="st0" d="M325.4,372.5L325.4,372.5c-0.5,0.5-0.8,1.1-0.8,1.8v34.5c0,1.5,1,2.5,2.5,2.5c0.7,0,1.3-0.3,1.8-0.8
			c0.4-0.5,0.7-1.1,0.7-1.7v-34.5c0-0.7-0.2-1.3-0.7-1.7C327.9,371.7,326.4,371.6,325.4,372.5z"/>
		<path class="st0" d="M368.4,372.1c-0.3-0.2-0.7-0.2-1.1-0.2c-0.9,0-1.6,0.4-2.2,1.2l-10.9,26.1c-0.4,1-0.8,1.4-0.9,1.5
			c-0.2,0.2-0.3,0.2-0.3,0.2c-0.1,0-0.3,0-0.6-0.4c-0.4-0.4-0.7-0.9-0.9-1.4l-10.9-25.9c-0.4-0.9-1.2-1.5-2.3-1.5
			c-0.5,0-0.8,0.1-1.2,0.3c-1.1,0.6-1.5,1.8-1.2,3.1l14.7,34.6c0.4,1,1.2,1.6,2.2,1.6c0.4,0,0.7-0.1,1.1-0.2
			c0.4-0.2,0.9-0.5,1.2-1.3l14.6-34.4l0-0.1C370.2,373.9,369.7,372.7,368.4,372.1z"/>
		<path class="st0" d="M408.1,393.2c-0.8,0-1.6,0.2-2.2,0.6c-0.5,0.3-0.9,0.7-1.3,1.3c-0.3,0.6-0.5,1.2-0.5,1.8c0,0.8,0,1,0,1
			l-0.3,1.1c-0.2,0.7-0.5,1.4-0.9,2c-0.5,0.7-0.9,1.3-1.5,1.8c-0.1,0.1-0.4,0.3-0.8,0.7c-0.4,0.4-1.1,0.8-1.8,1.2
			c-0.8,0.4-1.7,0.8-2.8,1.1c-1.1,0.3-2.3,0.5-3.7,0.5c-1.4,0-2.7-0.2-3.8-0.6c-1.1-0.4-2.1-0.9-2.9-1.4c-0.9-0.5-1.7-1.1-2.4-1.8
			c-0.4-0.4-0.6-0.8-0.7-1.3c-0.1-0.5-0.1-1,0-1.5c0.1-0.5,0.3-0.9,0.6-1.2c0.3-0.4,0.7-0.7,1.2-1l22.7-10.9c1-0.5,1.7-1.3,2-2.3
			c0.3-1,0.2-1.9-0.3-2.9l-0.1-0.2c-0.6-0.9-1.3-1.8-2.1-2.9c-0.9-1.1-2-2.1-3.3-3.1c-1.3-1-2.9-1.8-4.7-2.5c-1.8-0.7-3.9-1-6.2-1
			c-2.6,0-5.1,0.6-7.4,1.7c-2.2,1.1-4.2,2.6-5.8,4.4c-1.6,1.8-2.8,3.9-3.7,6.3c-0.9,2.3-1.3,4.8-1.3,7.4c0,2.6,0.4,5.1,1.3,7.5
			c0.9,2.4,2.1,4.5,3.6,6.3c1.6,1.8,3.5,3.3,5.8,4.4c2.3,1.1,4.8,1.6,7.5,1.6c4.3,0,7.9-1.1,10.9-3.3c2.8-2.1,5.3-4.9,7.4-8.2
			c0.1-0.1,0.2-0.2,0.2-0.3l0.2-0.2l0.1-0.2c0.1-0.2,0.2-0.4,0.3-0.6c0.2-0.4,0.4-0.9,0.4-1.4c0-0.6-0.1-1.1-0.3-1.5
			C410.9,394,409.7,393.2,408.1,393.2z M402.2,382.3c-0.2,0.8-0.7,1.5-1.5,1.9l-15.5,7.4l-0.1,0c-0.3,0.2-0.6,0.3-1,0.4l-0.2,0.1
			c-0.8,0.3-1.6,0.5-2.4,0.5c-0.7,0-1.2-0.2-1.6-0.5c-0.2-0.2-0.5-0.5-0.5-1.4c0-1,0.1-2,0.4-3c0.7-3.3,2.2-5.9,4.5-7.9
			c2.3-2,5-3,8.4-3c1.6,0,3.2,0.3,4.7,0.8c1.5,0.6,2.8,1.3,3.7,2.2C402.4,381.1,402.3,381.8,402.2,382.3z"/>
		<path class="st0" d="M425.7,400.7c-0.1-2-0.1-3.2-0.1-3.8c0-0.2,0-0.4,0-0.6c0-0.3,0.1-0.6,0.1-1.1v-57.1c0-1.5-1-2.5-2.5-2.5
			c-0.7,0-1.3,0.3-1.8,0.8c-0.4,0.5-0.7,1.1-0.7,1.7v57.1c0,0.4,0,0.8,0.1,1.1c0,0.2,0,0.4,0,0.6c0,0.6,0,1.9-0.1,3.8
			c-0.1,1.9-0.3,4.2-0.7,6.8c-0.1,0.6-0.1,1.6,0.7,2.6c0.8,1.1,1.8,1.3,2.5,1.3c1,0,1.9-0.5,2.6-1.3c0.8-1,0.8-2,0.7-2.6
			C426,404.9,425.8,402.6,425.7,400.7z"/>
		<path class="st0" d="M474.1,348.9c-0.9-2.6-2.3-4.9-4.1-6.8c-1.8-2-3.9-3.6-6.4-4.8c-2.5-1.2-5.3-1.8-8.4-1.8h-15.5
			c-0.7,0-1.3,0.3-1.8,0.8c-0.4,0.5-0.7,1.1-0.7,1.7v70.7c0,0.6,0.2,1.2,0.7,1.7c0.5,0.5,1.1,0.8,1.8,0.8h15.5
			c2.7,0,5.3-0.5,7.7-1.6c2.4-1,4.6-2.5,6.5-4.4c1.9-1.9,3.4-4.2,4.4-6.8c1.1-2.6,1.6-5.5,1.6-8.6v-33.1
			C475.5,354.2,475,351.5,474.1,348.9z M455.2,406.4h-8c-1.4,0-2.6-0.3-3.7-1c-0.5-0.3-1.2-0.9-1.2-2.6v-56.7c0-0.7,0.1-1.3,0.4-2
			c0.2-0.7,0.6-1.3,1-1.9c0.4-0.5,0.9-1,1.5-1.3c0.6-0.3,1.2-0.5,2-0.5h8c2.2,0,4.2,0.4,6.1,1.2c1.9,0.8,3.5,2,4.8,3.4
			c1.4,1.5,2.4,3.2,3.2,5.2c0.8,2,1.2,4.2,1.2,6.5V390c0,2.3-0.4,4.5-1.2,6.5c-0.8,2-1.8,3.7-3.2,5.2c-1.3,1.5-3,2.6-4.8,3.4
			C459.4,406,457.4,406.4,455.2,406.4z"/>
	</g>
	<path class="st1" d="M265.5,292c-0.5-0.6-1.2-1.7-2.5-3.8c-1.1-1.7-2.3-4.3-3.7-7.8L190.5,68.8l-0.2-0.8l-0.4-0.7
		c-0.6-0.9-1.3-1.7-2-2.5c-1.1-1.1-3.1-2.4-6.2-2.4c-3.7,0-6.9,2-8.6,5.5l-0.2,0.4l-69.2,212.1c-1.5,4.2-2.7,6.5-3.4,7.6
		c-1.2,1.8-2.1,3.2-2.7,4.2c-1.7,2-2.6,4.6-2.6,7.8l0,0.6c0.3,3.1,1.7,5.9,4,7.9c2.3,2.1,5.1,3.3,8.1,3.3c3.6,0,6.8-1.4,9.1-4.2
		c2.2-2.6,3.3-5.6,3-8.8c0-4.7,0.7-8.9,2.1-12.8c3.3-10.3,6.3-19.7,9-28.2c1.2-3.6,2.3-7.2,3.5-10.7l3.2-9.6c1-3,1.8-5.5,2.4-7.6
		c0.5-1.9,0.9-3.1,1.1-3.7c0.6-1.8,2-3.6,4.1-5.3c2-1.6,4.4-2.4,7.3-2.4h59.6c3.1,0,5.6,0.8,7.6,2.4c2.1,1.7,3.5,3.5,4.1,5.3
		c0.2,0.6,0.6,1.9,1.3,3.9c0.7,2,1.4,4.4,2.3,7.3c0.9,3,1.9,6.2,3.1,9.8c1.2,3.5,2.3,7,3.5,10.7c2.7,8.5,5.7,17.9,9.1,28.3
		c1.3,3.8,2,8,2,12.7c-0.3,3.1,0.7,6.1,2.7,8.6c2.3,2.8,5.4,4.3,9.1,4.3c3.3,0,6.2-1.2,8.4-3.4c1.9-1.9,3.2-4.3,3.9-7.2l0.1-0.6
		v-0.6c0-1.6-0.3-3.2-0.8-4.6C267,294.1,266.3,293,265.5,292z M150.6,194.3c0.4-1.1,1.1-2.9,2-5.6l3.2-9.6c1.3-3.8,2.6-8,4.1-12.6
		c1.4-4.5,2.9-9.1,4.5-13.8c3.5-10.9,7.5-23,11.8-35.8c0.7-1.8,1.4-3.6,2.2-5.2c0.6-1,1.4-1.8,2.2-2.5c0.4-0.3,0.6-0.4,0.9-0.4
		c0.7,0,0.8,0.2,0.9,0.2c0.8,0.7,1.4,1.5,1.8,2.4l0.2,0.4c0.9,1.5,1.6,3,2,4.7l0.1,0.3c4.5,13.2,8.5,25.3,11.9,36
		c1.6,4.7,3.1,9.3,4.7,13.8c1.5,4.5,2.9,8.7,4.2,12.5c1.3,3.9,2.4,7.1,3.4,9.8c1.2,3.3,1.5,4.3,1.5,4.5l0.2,0.8
		c0.9,2.6,0.2,3.5-0.2,3.9c-0.8,0.9-2,1.8-4.9,1.8h-52c-2.8,0-3.9-0.9-4.6-1.8C150.4,197.8,149.7,197,150.6,194.3z"/>
	<path class="st1" d="M473.3,106.8c-3.1-8.5-7.7-16.1-13.4-22.6c-5.8-6.6-13-11.9-21.3-15.8c-8.4-3.9-17.8-5.9-27.9-5.9h-50.6
		c-2.6,0-5,1.1-6.8,3.1c-1.6,1.8-2.4,4-2.4,6.4v230.4c0,2.4,0.8,4.6,2.4,6.4c1.8,2,4.2,3.1,6.8,3.1h50.6c8.9,0,17.5-1.8,25.6-5.3
		c8.1-3.5,15.3-8.4,21.5-14.6c6.2-6.2,11.2-13.8,14.8-22.5c3.6-8.7,5.4-18.3,5.4-28.5V133.4C478.1,124.2,476.5,115.3,473.3,106.8z
		 M410.7,293.2h-26.1c-4.4,0-8.1-1-11.4-3c-1.6-1-3.5-2.7-3.5-7.3V98.2c0-2.1,0.4-4,1.1-6c0.8-2,1.8-4,3.2-5.7
		c1.3-1.6,2.8-2.9,4.6-3.9c1.7-0.9,3.6-1.3,6-1.3h26.1c6.9,0,13.4,1.3,19.4,3.9c5.9,2.6,11.1,6.2,15.4,10.8
		c4.3,4.7,7.7,10.3,10.2,16.6c2.4,6.4,3.7,13.4,3.7,20.8v107.8c0,7.4-1.2,14.4-3.7,20.8c-2.4,6.4-5.9,11.9-10.2,16.6
		c-4.3,4.6-9.4,8.3-15.4,10.8C424.2,291.9,417.6,293.2,410.7,293.2z"/>
	<path class="st2" d="M108.9,187.1c0-1.7,0-3.4,0-5.1c0-5.5,0-11.1-0.1-16.7c-0.1-8.4-3.8-15.2-10.4-19.9
		c-6.6-4.6-13.9-6.9-21.8-6.9c-3.5,0-7,0-10.4,0c-4.3,0-8.5,0-12.8,0c-0.1,0-0.2,0-0.2,0c-6.7,0-13.4,1.9-19.7,5.5
		c-8.2,4.7-12.6,12.1-12.7,21.5c-0.2,15.1-0.2,30.3,0,45.2c0.2,11.5,3.4,21.2,9.6,28.7c2.7,3.2,4.6,6.1,5.2,9.9l5.7,34
		c0.9,5.3,1.8,10.5,2.6,15.8c1.5,8.6,6.6,12.9,15.3,12.9l4.9,0c1.5,0,3.1,0,4.6,0c1,0,2.1,0,3.1,0c6.4,0,11-3.4,13.1-9.5
		c0.5-1.5,0.9-3.1,1.2-5c0.8-4.8,1.6-9.6,2.4-14.4c1.7-10.5,3.5-21.3,5.4-31.9c0.5-2.7,1.2-6.9,3.1-8.9c6.3-6.7,9.9-14.3,10.9-22.7
		C108.7,212.5,108.9,187.1,108.9,187.1z M42.8,160.2c3.6-2,7-3,10.4-3c2.2,0,4.2,0,6.3,0c0,0,0,0,0,0l13.6,0l3.5,0
		c4,0,7.8,1.2,11.2,3.6c1.7,1.2,2.4,2.5,2.4,4.8c0.1,5.4,0.1,11,0.1,16.3c0,2.4,0,4.9,0,7.3v13.2c-0.1,4.8-0.3,9.9-0.9,15
		c-0.5,4.4-2.4,8.3-5.9,12c-5.7,6-7.1,13.8-7.9,18.4c-1.9,10.7-3.7,21.5-5.4,32.1l-0.4,2.7c-0.6,3.6-1.2,7.1-1.8,10.7l-6.1,0
		c-0.7-4.3-1.5-8.7-2.2-13l-5.7-34.1c-1.4-8.3-5.4-14.1-9.2-18.6c-3.5-4.3-5.3-9.9-5.4-17.1c-0.2-14.7-0.2-29.7,0-44.6
		C39.5,163,40.3,161.7,42.8,160.2z"/>
	<path class="st2" d="M64.4,135.2c0.4,0,0.9,0,1.3,0c19.5-0.6,34.9-17.1,34.5-36.6c-0.3-20.4-16.3-36.3-36.5-36
		C43.4,62.8,27.7,79,28,99.4c0.1,10,4,19.1,11,25.8C45.8,131.7,54.7,135.2,64.4,135.2z M64.1,81.2c9.7,0,17.2,7.6,17.3,17.6
		c0.2,9.4-7.1,17.3-16.4,17.6c-0.2,0-0.5,0-0.7,0c-10,0-17.6-7.5-17.7-17.3c-0.1-4.8,1.7-9.3,5-12.7c3.2-3.3,7.6-5.2,12.3-5.2
		L64.1,81.2z"/>
	<g>
		<path class="st3" d="M342.5,187.1c0-1.7,0-3.4,0-5.1c0-5.5,0-11.1-0.1-16.7c-0.1-8.4-3.8-15.2-10.4-19.9
			c-6.6-4.6-13.9-6.9-21.8-6.9c-3.5,0-7,0-10.4,0c-4.3,0-8.5,0-12.8,0c-0.1,0-0.2,0-0.2,0c-6.7,0-13.4,1.9-19.7,5.5
			c-8.2,4.7-12.6,12.1-12.7,21.5c-0.2,15.1-0.2,30.3,0,45.2c0.2,11.5,3.4,21.2,9.6,28.7c2.7,3.2,4.6,6.1,5.2,9.9l5.7,34
			c0.9,5.3,1.8,10.5,2.6,15.8c1.5,8.6,6.6,12.9,15.3,12.9l4.9,0c1.5,0,3.1,0,4.6,0c1,0,2.1,0,3.1,0c6.4,0,11-3.4,13.1-9.5
			c0.5-1.5,0.9-3.1,1.2-5c0.8-4.8,1.6-9.6,2.4-14.4c1.7-10.5,3.5-21.3,5.4-31.9c0.5-2.7,1.2-6.9,3.1-8.9c6.3-6.7,9.9-14.3,10.9-22.7
			C342.3,212.5,342.5,187.1,342.5,187.1z M276.4,160.2c3.6-2,7-3,10.4-3c2.2,0,4.2,0,6.3,0c0,0,0,0,0,0l13.6,0l3.5,0
			c4,0,7.8,1.2,11.2,3.6c1.7,1.2,2.4,2.5,2.4,4.8c0.1,5.4,0.1,11,0.1,16.3c0,2.4,0,4.9,0,7.3v13.2c-0.1,4.8-0.3,9.9-0.9,15
			c-0.5,4.4-2.4,8.3-5.9,12c-5.7,6-7.1,13.8-7.9,18.4c-1.9,10.7-3.7,21.5-5.4,32.1l-0.4,2.7c-0.6,3.6-1.2,7.1-1.8,10.7l-6.1,0
			c-0.7-4.3-1.5-8.7-2.2-13l-5.7-34.1c-1.4-8.3-5.4-14.1-9.2-18.6c-3.5-4.3-5.3-9.9-5.4-17.1c-0.2-14.7-0.2-29.7,0-44.6
			C273.1,163,273.9,161.7,276.4,160.2z"/>
		<path class="st3" d="M298,135.2c0.4,0,0.9,0,1.3,0c19.5-0.6,34.9-17.1,34.5-36.6c-0.3-20.4-16.3-36.3-36.5-36
			c-20.3,0.2-36,16.4-35.7,36.8c0.1,10,4,19.1,11,25.8C279.4,131.7,288.4,135.2,298,135.2z M297.8,81.2c9.7,0,17.2,7.6,17.3,17.6
			c0.2,9.4-7.1,17.3-16.4,17.6c-0.2,0-0.5,0-0.7,0c-10,0-17.6-7.5-17.7-17.3c-0.1-4.8,1.7-9.3,5-12.7c3.2-3.3,7.6-5.2,12.3-5.2
			L297.8,81.2z"/>
	</g>
</g>
</svg>
