<?xml version="1.0" encoding="utf-8"?>
<!-- Generator: Adobe Illustrator 26.5.0, SVG Export Plug-In . SVG Version: 6.00 Build 0)  -->
<svg version="1.1" id="Layer_1" xmlns="http://www.w3.org/2000/svg" xmlns:xlink="http://www.w3.org/1999/xlink" x="0px" y="0px"
	 viewBox="0 0 500 500" style="enable-background:new 0 0 500 500;" xml:space="preserve">
<style type="text/css">
	.st0{fill:#FFFFFF;}
</style>
<rect width="500" height="500"/>
<g>
	<path class="st0" d="M266.2,354.8c-0.5-0.6-1.2-1.7-2.5-3.8c-1.1-1.7-2.3-4.3-3.7-7.8l-68.8-211.6l-0.2-0.8l-0.4-0.7
		c-0.6-0.9-1.3-1.7-2-2.5c-1.1-1.1-3.1-2.4-6.2-2.4c-3.7,0-6.9,2-8.6,5.5l-0.2,0.4l-69.2,212.1c-1.5,4.2-2.7,6.5-3.4,7.6
		c-1.2,1.8-2.1,3.2-2.7,4.2c-1.7,2-2.6,4.6-2.6,7.8v0.6c0.3,3.1,1.7,5.9,4,7.9c2.3,2.1,5.1,3.3,8.1,3.3c3.6,0,6.8-1.4,9.1-4.2
		c2.2-2.6,3.3-5.6,3-8.8c0-4.7,0.7-8.9,2.1-12.8c3.3-10.3,6.3-19.7,9-28.2c1.2-3.6,2.3-7.2,3.5-10.7l3.2-9.6c1-3,1.8-5.5,2.4-7.6
		c0.5-1.9,0.9-3.1,1.1-3.7c0.6-1.8,2-3.6,4.1-5.3c2-1.6,4.4-2.4,7.3-2.4h59.6c3.1,0,5.6,0.8,7.6,2.4c2.1,1.7,3.5,3.5,4.1,5.3
		c0.2,0.6,0.6,1.9,1.3,3.9s1.4,4.4,2.3,7.3c0.9,3,1.9,6.2,3.1,9.8c1.2,3.5,2.3,7,3.5,10.7c2.7,8.5,5.7,17.9,9.1,28.3
		c1.3,3.8,2,8,2,12.7c-0.3,3.1,0.7,6.1,2.7,8.6c2.3,2.8,5.4,4.3,9.1,4.3c3.3,0,6.2-1.2,8.4-3.4c1.9-1.9,3.2-4.3,3.9-7.2l0.1-0.6
		v-0.6c0-1.6-0.3-3.2-0.8-4.6C267.7,356.9,267,355.8,266.2,354.8z M151.3,257.1c0.4-1.1,1.1-2.9,2-5.6l3.2-9.6
		c1.3-3.8,2.6-8,4.1-12.6c1.4-4.5,2.9-9.1,4.5-13.8c3.5-10.9,7.5-23,11.8-35.8c0.7-1.8,1.4-3.6,2.2-5.2c0.6-1,1.4-1.8,2.2-2.5
		c0.4-0.3,0.6-0.4,0.9-0.4c0.7,0,0.8,0.2,0.9,0.2c0.8,0.7,1.4,1.5,1.8,2.4l0.2,0.4c0.9,1.5,1.6,3,2,4.7l0.1,0.3
		c4.5,13.2,8.5,25.3,11.9,36c1.6,4.7,3.1,9.3,4.7,13.8c1.5,4.5,2.9,8.7,4.2,12.5c1.3,3.9,2.4,7.1,3.4,9.8c1.2,3.3,1.5,4.3,1.5,4.5
		l0.2,0.8c0.9,2.6,0.2,3.5-0.2,3.9c-0.8,0.9-2,1.8-4.9,1.8h-52c-2.8,0-3.9-0.9-4.6-1.8C151.1,260.6,150.4,259.8,151.3,257.1z"/>
	<path class="st0" d="M474,169.6c-3.1-8.5-7.7-16.1-13.4-22.6c-5.8-6.6-13-11.9-21.3-15.8c-8.4-3.9-17.8-5.9-27.9-5.9h-50.6
		c-2.6,0-5,1.1-6.8,3.1c-1.6,1.8-2.4,4-2.4,6.4v230.4c0,2.4,0.8,4.6,2.4,6.4c1.8,2,4.2,3.1,6.8,3.1h50.6c8.9,0,17.5-1.8,25.6-5.3
		s15.3-8.4,21.5-14.6s11.2-13.8,14.8-22.5c3.6-8.7,5.4-18.3,5.4-28.5V196.2C478.8,187,477.2,178.1,474,169.6z M411.4,356h-26.1
		c-4.4,0-8.1-1-11.4-3c-1.6-1-3.5-2.7-3.5-7.3V161c0-2.1,0.4-4,1.1-6c0.8-2,1.8-4,3.2-5.7c1.3-1.6,2.8-2.9,4.6-3.9
		c1.7-0.9,3.6-1.3,6-1.3h26.1c6.9,0,13.4,1.3,19.4,3.9c5.9,2.6,11.1,6.2,15.4,10.8c4.3,4.7,7.7,10.3,10.2,16.6
		c2.4,6.4,3.7,13.4,3.7,20.8V304c0,7.4-1.2,14.4-3.7,20.8c-2.4,6.4-5.9,11.9-10.2,16.6c-4.3,4.6-9.4,8.3-15.4,10.8
		C424.9,354.7,418.3,356,411.4,356z"/>
	<path class="st0" d="M109.6,249.9c0-1.7,0-3.4,0-5.1c0-5.5,0-11.1-0.1-16.7c-0.1-8.4-3.8-15.2-10.4-19.9
		c-6.6-4.6-13.9-6.9-21.8-6.9c-3.5,0-7,0-10.4,0c-4.3,0-8.5,0-12.8,0c-0.1,0-0.2,0-0.2,0c-6.7,0-13.4,1.9-19.7,5.5
		c-8.2,4.7-12.6,12.1-12.7,21.5c-0.2,15.1-0.2,30.3,0,45.2c0.2,11.5,3.4,21.2,9.6,28.7c2.7,3.2,4.6,6.1,5.2,9.9l5.7,34
		c0.9,5.3,1.8,10.5,2.6,15.8c1.5,8.6,6.6,12.9,15.3,12.9h4.9c1.5,0,3.1,0,4.6,0c1,0,2.1,0,3.1,0c6.4,0,11-3.4,13.1-9.5
		c0.5-1.5,0.9-3.1,1.2-5c0.8-4.8,1.6-9.6,2.4-14.4c1.7-10.5,3.5-21.3,5.4-31.9c0.5-2.7,1.2-6.9,3.1-8.9c6.3-6.7,9.9-14.3,10.9-22.7
		C109.4,275.3,109.6,249.9,109.6,249.9z M43.5,223c3.6-2,7-3,10.4-3c2.2,0,4.2,0,6.3,0l0,0h13.6h3.5c4,0,7.8,1.2,11.2,3.6
		c1.7,1.2,2.4,2.5,2.4,4.8c0.1,5.4,0.1,11,0.1,16.3c0,2.4,0,4.9,0,7.3v13.2c-0.1,4.8-0.3,9.9-0.9,15c-0.5,4.4-2.4,8.3-5.9,12
		c-5.7,6-7.1,13.8-7.9,18.4c-1.9,10.7-3.7,21.5-5.4,32.1l-0.4,2.7c-0.6,3.6-1.2,7.1-1.8,10.7h-6.1c-0.7-4.3-1.5-8.7-2.2-13L54.7,309
		c-1.4-8.3-5.4-14.1-9.2-18.6c-3.5-4.3-5.3-9.9-5.4-17.1c-0.2-14.7-0.2-29.7,0-44.6C40.2,225.8,41,224.5,43.5,223z"/>
	<path class="st0" d="M65.1,198c0.4,0,0.9,0,1.3,0c19.5-0.6,34.9-17.1,34.5-36.6c-0.3-20.4-16.3-36.3-36.5-36
		c-20.3,0.2-36,16.4-35.7,36.8c0.1,10,4,19.1,11,25.8C46.5,194.5,55.4,198,65.1,198z M64.8,144c9.7,0,17.2,7.6,17.3,17.6
		c0.2,9.4-7.1,17.3-16.4,17.6c-0.2,0-0.5,0-0.7,0c-10,0-17.6-7.5-17.7-17.3c-0.1-4.8,1.7-9.3,5-12.7c3.2-3.3,7.6-5.2,12.3-5.2H64.8z
		"/>
	<g>
		<path class="st0" d="M343.2,249.9c0-1.7,0-3.4,0-5.1c0-5.5,0-11.1-0.1-16.7c-0.1-8.4-3.8-15.2-10.4-19.9
			c-6.6-4.6-13.9-6.9-21.8-6.9c-3.5,0-7,0-10.4,0c-4.3,0-8.5,0-12.8,0c-0.1,0-0.2,0-0.2,0c-6.7,0-13.4,1.9-19.7,5.5
			c-8.2,4.7-12.6,12.1-12.7,21.5c-0.2,15.1-0.2,30.3,0,45.2c0.2,11.5,3.4,21.2,9.6,28.7c2.7,3.2,4.6,6.1,5.2,9.9l5.7,34
			c0.9,5.3,1.8,10.5,2.6,15.8c1.5,8.6,6.6,12.9,15.3,12.9h4.9c1.5,0,3.1,0,4.6,0c1,0,2.1,0,3.1,0c6.4,0,11-3.4,13.1-9.5
			c0.5-1.5,0.9-3.1,1.2-5c0.8-4.8,1.6-9.6,2.4-14.4c1.7-10.5,3.5-21.3,5.4-31.9c0.5-2.7,1.2-6.9,3.1-8.9c6.3-6.7,9.9-14.3,10.9-22.7
			C343,275.3,343.2,249.9,343.2,249.9z M277.1,223c3.6-2,7-3,10.4-3c2.2,0,4.2,0,6.3,0l0,0h13.6h3.5c4,0,7.8,1.2,11.2,3.6
			c1.7,1.2,2.4,2.5,2.4,4.8c0.1,5.4,0.1,11,0.1,16.3c0,2.4,0,4.9,0,7.3v13.2c-0.1,4.8-0.3,9.9-0.9,15c-0.5,4.4-2.4,8.3-5.9,12
			c-5.7,6-7.1,13.8-7.9,18.4c-1.9,10.7-3.7,21.5-5.4,32.1l-0.4,2.7c-0.6,3.6-1.2,7.1-1.8,10.7h-6.1c-0.7-4.3-1.5-8.7-2.2-13
			l-5.7-34.1c-1.4-8.3-5.4-14.1-9.2-18.6c-3.5-4.3-5.3-9.9-5.4-17.1c-0.2-14.7-0.2-29.7,0-44.6C273.8,225.8,274.6,224.5,277.1,223z"
			/>
		<path class="st0" d="M298.7,198c0.4,0,0.9,0,1.3,0c19.5-0.6,34.9-17.1,34.5-36.6c-0.3-20.4-16.3-36.3-36.5-36
			c-20.3,0.2-36,16.4-35.7,36.8c0.1,10,4,19.1,11,25.8C280.1,194.5,289.1,198,298.7,198z M298.5,144c9.7,0,17.2,7.6,17.3,17.6
			c0.2,9.4-7.1,17.3-16.4,17.6c-0.2,0-0.5,0-0.7,0c-10,0-17.6-7.5-17.7-17.3c-0.1-4.8,1.7-9.3,5-12.7c3.2-3.3,7.6-5.2,12.3-5.2
			H298.5z"/>
	</g>
</g>
</svg>
