<?xml version="1.0" encoding="utf-8"?>
<!-- Generator: Adobe Illustrator 26.5.0, SVG Export Plug-In . SVG Version: 6.00 Build 0)  -->
<svg version="1.1" id="Layer_1" xmlns="http://www.w3.org/2000/svg" xmlns:xlink="http://www.w3.org/1999/xlink" x="0px" y="0px"
	 viewBox="0 0 500 390" style="enable-background:new 0 0 500 390;" xml:space="preserve">
<style type="text/css">
	.st0{fill:#5931EB;}
	.st1{fill:#3BFF0A;}
	.st2{fill:#FFD60A;}
</style>
<g>
	<g>
		<path d="M31.3,356.7c-0.1-2-0.1-3.2-0.1-3.8c0-0.2,0-0.4,0-0.6c0-0.3,0.1-0.6,0.1-1.1v-57.1c0-1.5-1-2.5-2.5-2.5
			c-0.7,0-1.3,0.3-1.8,0.8c-0.4,0.5-0.7,1.1-0.7,1.7v57.1c0,0.4,0,0.8,0.1,1.1c0,0.2,0,0.4,0,0.6c0,0.6,0,1.9-0.1,3.8
			s-0.3,4.2-0.7,6.8c-0.1,0.6-0.1,1.6,0.7,2.6c0.8,1.1,1.8,1.3,2.5,1.3c1,0,1.9-0.5,2.6-1.3c0.8-1,0.8-2,0.7-2.6
			C31.6,360.9,31.4,358.6,31.3,356.7z"/>
		<path d="M68.3,333.2c-1.3-1.6-2.8-2.9-4.7-3.9c-1.9-1-4-1.5-6.5-1.5s-5,0.7-7.3,2c-0.8,0.4-1.5,0.7-2.1,0.9
			c-0.5,0.2-0.9,0.2-1,0.2c-0.1-0.4-0.3-0.7-0.6-1c-0.5-0.5-1.1-0.8-1.8-0.8c-1.5,0-2.5,1-2.5,2.5v33.3c0,1.5,1,2.5,2.5,2.5
			c0.7,0,1.3-0.2,1.7-0.7c0.5-0.5,0.7-1.1,0.7-1.7v-20c0-1.7,0.3-3.4,0.8-4.9s1.3-2.8,2.2-3.8s2-1.9,3.3-2.5c2.5-1.2,5.6-1.2,8,0
			c1.2,0.6,2.3,1.4,3.1,2.4c0.9,1.1,1.6,2.4,2.1,3.9s0.8,3.2,0.8,5V365c0,1.5,1,2.5,2.5,2.5s2.5-1,2.5-2.5v-20c0-2.1-0.3-4.3-1-6.3
			C70.6,336.7,69.6,334.8,68.3,333.2z"/>
		<path d="M92.9,361.7h-1.2c-0.6,0-1.2-0.1-1.8-0.4c-0.6-0.2-1.1-0.6-1.6-1.1s-0.9-1.2-1.3-2c-0.3-0.8-0.5-1.8-0.5-3.1V335
			c0-0.6,0.2-1.2,0.7-1.6c0.5-0.5,1-0.7,1.6-0.7h4.5c1.1,0,1.7-0.4,2-0.8c0.3-0.3,0.6-0.9,0.5-1.9c0-1.4-1-2.4-2.5-2.4h-4.4
			c-0.6,0-1.2-0.2-1.6-0.7c-0.5-0.5-0.7-1-0.7-1.6v-25c0-0.7-0.2-1.3-0.7-1.7c-0.5-0.5-1.1-0.7-1.7-0.7c-1.5,0-2.5,1-2.5,2.5V355
			c0,0.8,0,1.5,0.1,2.3l0.4,2.1c0.1,0.8,0.4,1.5,0.8,2.3c1.1,2.1,2.6,3.6,4.4,4.7s3.7,1.6,5.6,1.6c0.8,0,1.6-0.3,2.2-0.9
			c0.7-0.6,1.1-1.5,1.1-2.5c0-0.8-0.3-1.6-0.9-2.2C94.9,362.2,94.1,361.7,92.9,361.7z"/>
		<path d="M135.2,349.2c-0.8,0-1.6,0.2-2.2,0.6c-0.5,0.3-0.9,0.7-1.3,1.3c-0.3,0.6-0.5,1.2-0.5,1.8c0,0.8,0,1,0,1L131,355
			c-0.2,0.7-0.5,1.4-0.9,2c-0.5,0.7-0.9,1.3-1.5,1.8c-0.1,0.1-0.4,0.3-0.8,0.7c-0.4,0.4-1.1,0.8-1.8,1.2c-0.8,0.4-1.7,0.8-2.8,1.1
			c-1.1,0.3-2.3,0.5-3.7,0.5c-1.4,0-2.7-0.2-3.8-0.6c-1.1-0.4-2.1-0.9-2.9-1.4c-0.9-0.5-1.7-1.1-2.4-1.8c-0.4-0.4-0.6-0.8-0.7-1.3
			s-0.1-1,0-1.5s0.3-0.9,0.6-1.2c0.3-0.4,0.7-0.7,1.2-1l22.7-10.9c1-0.5,1.7-1.3,2-2.3s0.2-1.9-0.3-2.9l-0.1-0.2
			c-0.6-0.9-1.3-1.8-2.1-2.9c-0.9-1.1-2-2.1-3.3-3.1s-2.9-1.8-4.7-2.5c-1.8-0.7-3.9-1-6.2-1c-2.6,0-5.1,0.6-7.4,1.7
			c-2.2,1.1-4.2,2.6-5.8,4.4c-1.6,1.8-2.8,3.9-3.7,6.3c-0.9,2.3-1.3,4.8-1.3,7.4s0.4,5.1,1.3,7.5s2.1,4.5,3.6,6.3
			c1.6,1.8,3.5,3.3,5.8,4.4s4.8,1.6,7.5,1.6c4.3,0,7.9-1.1,10.9-3.3c2.8-2.1,5.3-4.9,7.4-8.2c0.1-0.1,0.2-0.2,0.2-0.3l0.2-0.2
			l0.1-0.2c0.1-0.2,0.2-0.4,0.3-0.6c0.2-0.4,0.4-0.9,0.4-1.4c0-0.6-0.1-1.1-0.3-1.5C138.1,350,136.8,349.2,135.2,349.2z
			 M129.4,338.3c-0.2,0.8-0.7,1.5-1.5,1.9l-15.5,7.4h-0.1c-0.3,0.2-0.6,0.3-1,0.4l-0.2,0.1c-0.8,0.3-1.6,0.5-2.4,0.5
			c-0.7,0-1.2-0.2-1.6-0.5c-0.2-0.2-0.5-0.5-0.5-1.4c0-1,0.1-2,0.4-3c0.7-3.3,2.2-5.9,4.5-7.9s5-3,8.4-3c1.6,0,3.2,0.3,4.7,0.8
			c1.5,0.6,2.8,1.3,3.7,2.2C129.5,337.1,129.5,337.8,129.4,338.3z"/>
		<path d="M165.2,327c-0.5,0-1,0.1-1.4,0.3c-1.2,0.6-2.3,0.9-3.2,1.2c-2.8,0.7-5.3,2.2-7.6,4.3c-0.6,0.6-1.1,1-1.5,1.5
			c0-0.1-0.1-0.1-0.2-0.2c-0.5-0.5-1.1-0.8-1.8-0.8c-1.5,0-2.5,1-2.5,2.5v29.1c0,1.5,1,2.5,2.5,2.5c0.7,0,1.3-0.3,1.8-0.8
			c0.4-0.5,0.7-1.1,0.7-1.7v-18c0-1.5,0.3-3.1,0.8-4.7s1.3-3.1,2.3-4.4s2.1-2.3,3.5-3.2c1.5-0.9,3.1-1.3,5.1-1.1
			c0.3,0,0.6,0.1,0.9,0.1c0.2,0.1,0.4,0.1,0.6,0.1c1.1,0,1.9-0.4,2.6-1.2c0.6-0.6,0.9-1.3,0.9-2.2c0-0.6-0.2-1.2-0.6-1.7
			C167.5,327.5,166.5,327,165.2,327z"/>
		<path d="M199.9,340.6h-24.3c-1.5,0-2.5,1-2.5,2.5c0,0.6,0.2,1.2,0.7,1.7s1.1,0.8,1.8,0.8H200c1.5,0,2.5-1,2.5-2.5
			C202.4,341.6,201.4,340.6,199.9,340.6z"/>
		<path d="M256.8,361.9c-0.1-0.2-0.4-0.5-0.8-1.2c-0.3-0.6-0.7-1.4-1.2-2.4l-21.1-65l-0.1-0.2l-0.1-0.2c-0.2-0.2-0.4-0.5-0.6-0.7
			c-0.3-0.3-0.8-0.6-1.6-0.6c-1,0-1.8,0.5-2.3,1.5v0.1l-21.2,65.1c-0.4,1.1-0.7,1.9-1.1,2.4c-0.4,0.6-0.7,1-0.9,1.3
			c-0.5,0.6-0.7,1.3-0.7,2.2v0.2c0.1,0.9,0.5,1.6,1.1,2.2s1.4,0.9,2.2,0.9c1,0,1.9-0.4,2.5-1.1s0.9-1.6,0.8-2.4
			c0-1.5,0.2-2.8,0.6-4.1c1-3.2,1.9-6,2.8-8.7c0.4-1.1,0.7-2.2,1.1-3.3l1-2.9c0.3-0.9,0.5-1.7,0.7-2.3c0.2-0.6,0.3-1,0.3-1.1
			c0.2-0.6,0.7-1.2,1.4-1.8c0.7-0.5,1.5-0.8,2.5-0.8h18.3c1,0,1.9,0.3,2.6,0.8c0.7,0.6,1.2,1.2,1.4,1.8c0.1,0.2,0.2,0.6,0.4,1.2
			s0.4,1.4,0.7,2.2c0.3,0.9,0.6,1.9,0.9,3c0.4,1.1,0.7,2.2,1.1,3.3c0.8,2.6,1.8,5.5,2.8,8.7c0.4,1.2,0.6,2.6,0.6,4
			c-0.1,0.9,0.2,1.7,0.8,2.4c0.6,0.8,1.5,1.2,2.5,1.2c0.9,0,1.7-0.3,2.3-0.9c0.5-0.5,0.9-1.2,1.1-2v-0.3c0-0.5-0.1-0.9-0.2-1.3
			C257.2,362.4,257,362.1,256.8,361.9z M221.4,331.5c0.1-0.3,0.3-0.9,0.6-1.7l1-2.9c0.4-1.2,0.8-2.4,1.3-3.9
			c0.4-1.4,0.9-2.8,1.4-4.2c1.1-3.4,2.3-7.1,3.6-11c0.2-0.6,0.4-1.1,0.7-1.7c0.2-0.3,0.5-0.6,0.8-0.9c0.2-0.1,0.3-0.2,0.5-0.2
			c0.3,0,0.4,0.1,0.5,0.2c0.3,0.2,0.5,0.5,0.6,0.9v0.1c0.3,0.5,0.5,1,0.7,1.6c1.4,4.1,2.6,7.8,3.7,11.1c0.5,1.4,1,2.8,1.4,4.2
			c0.5,1.4,0.9,2.7,1.3,3.8c0.4,1.2,0.7,2.2,1,3c0.4,1,0.5,1.3,0.5,1.4v0.2c0.3,0.9,0.1,1.3-0.1,1.6c-0.3,0.3-0.7,0.7-1.8,0.7h-16
			c-1,0-1.5-0.4-1.7-0.7C221.4,332.9,221.1,332.5,221.4,331.5z"/>
		<path d="M294.5,352.4l-0.3-0.2H294c-0.2-0.1-0.4-0.1-0.6-0.1c-1.1,0-2,0.6-2.4,1.6c-1.1,2.7-2.8,4.8-5,6.3s-4.8,2.3-7.6,2.3
			c-1.9,0-3.7-0.4-5.4-1.1c-1.6-0.7-3-1.7-4.2-3s-2.1-2.8-2.8-4.6c-0.7-1.8-1-3.8-1-5.9s0.3-4.2,1-6s1.6-3.4,2.8-4.7
			c1.2-1.3,2.6-2.3,4.2-3s3.4-1.1,5.4-1.1c2.5,0,4.8,0.6,6.8,1.8c2,1.2,3.7,2.9,4.9,5.2l0.1,0.2c0.7,0.9,1.5,1,2,1s0.8-0.1,1.2-0.2
			h0.1c1.2-0.7,1.6-2,1-3.3l-0.1-0.1c-1-1.7-2.2-3.3-3.6-4.7c-1.3-1.2-3-2.3-5-3.3c-2.1-1-4.6-1.5-7.5-1.5c-2.8,0-5.4,0.6-7.7,1.7
			c-2.3,1.1-4.2,2.6-5.8,4.4c-1.6,1.8-2.8,3.9-3.6,6.3c-0.9,2.3-1.3,4.8-1.3,7.4s0.4,5.1,1.3,7.5s2.1,4.5,3.7,6.3s3.6,3.3,5.9,4.4
			s4.8,1.6,7.6,1.6c3.7,0,7.2-1.1,10.3-3.1c3.1-2.1,5.4-5,6.9-8.6C296.1,354.7,296.1,353.3,294.5,352.4z"/>
		<path d="M314.3,361.7h-1.2c-0.6,0-1.2-0.1-1.8-0.4c-0.6-0.2-1.1-0.6-1.6-1.1s-0.9-1.2-1.3-2c-0.3-0.8-0.5-1.8-0.5-3.1V335
			c0-0.6,0.2-1.2,0.7-1.6c0.5-0.5,1-0.7,1.6-0.7h4.5c1.1,0,1.7-0.4,2-0.8c0.3-0.3,0.6-0.9,0.5-1.9c0-1.4-1-2.4-2.5-2.4h-4.4
			c-0.6,0-1.2-0.2-1.6-0.7c-0.5-0.5-0.7-1-0.7-1.6v-25c0-0.7-0.2-1.3-0.7-1.7c-0.5-0.5-1.1-0.7-1.7-0.7c-1.5,0-2.5,1-2.5,2.5V355
			c0,0.8,0,1.5,0.1,2.3l0.4,2.1c0.1,0.8,0.4,1.5,0.8,2.3c1.1,2.1,2.6,3.6,4.4,4.7s3.7,1.6,5.6,1.6c0.8,0,1.6-0.3,2.2-0.9
			c0.7-0.6,1.1-1.5,1.1-2.5c0-0.8-0.3-1.6-0.9-2.2C316.3,362.2,315.5,361.7,314.3,361.7z"/>
		<path d="M327.1,318.2c-2.1,0-3.4,1.3-3.4,3.4c0,0.9,0.3,1.7,0.9,2.3c0.6,0.7,1.5,1.1,2.5,1.1c0.9,0,1.7-0.4,2.4-1.1l0,0
			c0.6-0.7,1-1.5,1-2.4c0-1-0.4-1.8-1-2.4C328.8,318.5,328,318.2,327.1,318.2z"/>
		<path d="M325.4,328.5L325.4,328.5c-0.5,0.5-0.8,1.1-0.8,1.8v34.5c0,1.5,1,2.5,2.5,2.5c0.7,0,1.3-0.3,1.8-0.8
			c0.4-0.5,0.7-1.1,0.7-1.7v-34.5c0-0.7-0.2-1.3-0.7-1.7C327.9,327.7,326.4,327.6,325.4,328.5z"/>
		<path d="M368.4,328.1c-0.3-0.2-0.7-0.2-1.1-0.2c-0.9,0-1.6,0.4-2.2,1.2l-10.9,26.1c-0.4,1-0.8,1.4-0.9,1.5
			c-0.2,0.2-0.3,0.2-0.3,0.2c-0.1,0-0.3,0-0.6-0.4c-0.4-0.4-0.7-0.9-0.9-1.4l-10.9-25.9c-0.4-0.9-1.2-1.5-2.3-1.5
			c-0.5,0-0.8,0.1-1.2,0.3c-1.1,0.6-1.5,1.8-1.2,3.1l14.7,34.6c0.4,1,1.2,1.6,2.2,1.6c0.4,0,0.7-0.1,1.1-0.2
			c0.4-0.2,0.9-0.5,1.2-1.3l14.6-34.4v-0.1C370.2,329.9,369.7,328.7,368.4,328.1z"/>
		<path d="M408.1,349.2c-0.8,0-1.6,0.2-2.2,0.6c-0.5,0.3-0.9,0.7-1.3,1.3c-0.3,0.6-0.5,1.2-0.5,1.8c0,0.8,0,1,0,1l-0.3,1.1
			c-0.2,0.7-0.5,1.4-0.9,2c-0.5,0.7-0.9,1.3-1.5,1.8c-0.1,0.1-0.4,0.3-0.8,0.7c-0.4,0.4-1.1,0.8-1.8,1.2c-0.8,0.4-1.7,0.8-2.8,1.1
			c-1.1,0.3-2.3,0.5-3.7,0.5c-1.4,0-2.7-0.2-3.8-0.6c-1.1-0.4-2.1-0.9-2.9-1.4c-0.9-0.5-1.7-1.1-2.4-1.8c-0.4-0.4-0.6-0.8-0.7-1.3
			s-0.1-1,0-1.5s0.3-0.9,0.6-1.2c0.3-0.4,0.7-0.7,1.2-1l22.7-10.9c1-0.5,1.7-1.3,2-2.3s0.2-1.9-0.3-2.9l-0.1-0.2
			c-0.6-0.9-1.3-1.8-2.1-2.9c-0.9-1.1-2-2.1-3.3-3.1s-2.9-1.8-4.7-2.5c-1.8-0.7-3.9-1-6.2-1c-2.6,0-5.1,0.6-7.4,1.7
			c-2.2,1.1-4.2,2.6-5.8,4.4c-1.6,1.8-2.8,3.9-3.7,6.3c-0.9,2.3-1.3,4.8-1.3,7.4s0.4,5.1,1.3,7.5s2.1,4.5,3.6,6.3
			c1.6,1.8,3.5,3.3,5.8,4.4s4.8,1.6,7.5,1.6c4.3,0,7.9-1.1,10.9-3.3c2.8-2.1,5.3-4.9,7.4-8.2c0.1-0.1,0.2-0.2,0.2-0.3l0.2-0.2
			l0.1-0.2c0.1-0.2,0.2-0.4,0.3-0.6c0.2-0.4,0.4-0.9,0.4-1.4c0-0.6-0.1-1.1-0.3-1.5C410.9,350,409.7,349.2,408.1,349.2z
			 M402.2,338.3c-0.2,0.8-0.7,1.5-1.5,1.9l-15.5,7.4h-0.1c-0.3,0.2-0.6,0.3-1,0.4l-0.2,0.1c-0.8,0.3-1.6,0.5-2.4,0.5
			c-0.7,0-1.2-0.2-1.6-0.5c-0.2-0.2-0.5-0.5-0.5-1.4c0-1,0.1-2,0.4-3c0.7-3.3,2.2-5.9,4.5-7.9s5-3,8.4-3c1.6,0,3.2,0.3,4.7,0.8
			c1.5,0.6,2.8,1.3,3.7,2.2C402.4,337.1,402.3,337.8,402.2,338.3z"/>
		<path d="M425.7,356.7c-0.1-2-0.1-3.2-0.1-3.8c0-0.2,0-0.4,0-0.6c0-0.3,0.1-0.6,0.1-1.1v-57.1c0-1.5-1-2.5-2.5-2.5
			c-0.7,0-1.3,0.3-1.8,0.8c-0.4,0.5-0.7,1.1-0.7,1.7v57.1c0,0.4,0,0.8,0.1,1.1c0,0.2,0,0.4,0,0.6c0,0.6,0,1.9-0.1,3.8
			s-0.3,4.2-0.7,6.8c-0.1,0.6-0.1,1.6,0.7,2.6c0.8,1.1,1.8,1.3,2.5,1.3c1,0,1.9-0.5,2.6-1.3c0.8-1,0.8-2,0.7-2.6
			C426,360.9,425.8,358.6,425.7,356.7z"/>
		<path d="M474.1,304.9c-0.9-2.6-2.3-4.9-4.1-6.8c-1.8-2-3.9-3.6-6.4-4.8c-2.5-1.2-5.3-1.8-8.4-1.8h-15.5c-0.7,0-1.3,0.3-1.8,0.8
			c-0.4,0.5-0.7,1.1-0.7,1.7v70.7c0,0.6,0.2,1.2,0.7,1.7s1.1,0.8,1.8,0.8h15.5c2.7,0,5.3-0.5,7.7-1.6c2.4-1,4.6-2.5,6.5-4.4
			s3.4-4.2,4.4-6.8c1.1-2.6,1.6-5.5,1.6-8.6v-33.1C475.5,310.2,475,307.5,474.1,304.9z M455.2,362.4h-8c-1.4,0-2.6-0.3-3.7-1
			c-0.5-0.3-1.2-0.9-1.2-2.6v-56.7c0-0.7,0.1-1.3,0.4-2c0.2-0.7,0.6-1.3,1-1.9c0.4-0.5,0.9-1,1.5-1.3s1.2-0.5,2-0.5h8
			c2.2,0,4.2,0.4,6.1,1.2c1.9,0.8,3.5,2,4.8,3.4c1.4,1.5,2.4,3.2,3.2,5.2c0.8,2,1.2,4.2,1.2,6.5V346c0,2.3-0.4,4.5-1.2,6.5
			c-0.8,2-1.8,3.7-3.2,5.2c-1.3,1.5-3,2.6-4.8,3.4C459.4,362,457.4,362.4,455.2,362.4z"/>
	</g>
	<path class="st0" d="M265.5,248c-0.5-0.6-1.2-1.7-2.5-3.8c-1.1-1.7-2.3-4.3-3.7-7.8L190.5,24.8l-0.2-0.8l-0.4-0.7
		c-0.6-0.9-1.3-1.7-2-2.5c-1.1-1.1-3.1-2.4-6.2-2.4c-3.7,0-6.9,2-8.6,5.5l-0.2,0.4l-69.2,212.1c-1.5,4.2-2.7,6.5-3.4,7.6
		c-1.2,1.8-2.1,3.2-2.7,4.2c-1.7,2-2.6,4.6-2.6,7.8v0.6c0.3,3.1,1.7,5.9,4,7.9c2.3,2.1,5.1,3.3,8.1,3.3c3.6,0,6.8-1.4,9.1-4.2
		c2.2-2.6,3.3-5.6,3-8.8c0-4.7,0.7-8.9,2.1-12.8c3.3-10.3,6.3-19.7,9-28.2c1.2-3.6,2.3-7.2,3.5-10.7l3.2-9.6c1-3,1.8-5.5,2.4-7.6
		c0.5-1.9,0.9-3.1,1.1-3.7c0.6-1.8,2-3.6,4.1-5.3c2-1.6,4.4-2.4,7.3-2.4h59.6c3.1,0,5.6,0.8,7.6,2.4c2.1,1.7,3.5,3.5,4.1,5.3
		c0.2,0.6,0.6,1.9,1.3,3.9s1.4,4.4,2.3,7.3c0.9,3,1.9,6.2,3.1,9.8c1.2,3.5,2.3,7,3.5,10.7c2.7,8.5,5.7,17.9,9.1,28.3
		c1.3,3.8,2,8,2,12.7c-0.3,3.1,0.7,6.1,2.7,8.6c2.3,2.8,5.4,4.3,9.1,4.3c3.3,0,6.2-1.2,8.4-3.4c1.9-1.9,3.2-4.3,3.9-7.2l0.1-0.6V256
		c0-1.6-0.3-3.2-0.8-4.6C267,250.1,266.3,249,265.5,248z M150.6,150.3c0.4-1.1,1.1-2.9,2-5.6l3.2-9.6c1.3-3.8,2.6-8,4.1-12.6
		c1.4-4.5,2.9-9.1,4.5-13.8c3.5-10.9,7.5-23,11.8-35.8c0.7-1.8,1.4-3.6,2.2-5.2c0.6-1,1.4-1.8,2.2-2.5c0.4-0.3,0.6-0.4,0.9-0.4
		c0.7,0,0.8,0.2,0.9,0.2c0.8,0.7,1.4,1.5,1.8,2.4l0.2,0.4c0.9,1.5,1.6,3,2,4.7l0.1,0.3c4.5,13.2,8.5,25.3,11.9,36
		c1.6,4.7,3.1,9.3,4.7,13.8c1.5,4.5,2.9,8.7,4.2,12.5c1.3,3.9,2.4,7.1,3.4,9.8c1.2,3.3,1.5,4.3,1.5,4.5l0.2,0.8
		c0.9,2.6,0.2,3.5-0.2,3.9c-0.8,0.9-2,1.8-4.9,1.8h-52c-2.8,0-3.9-0.9-4.6-1.8C150.4,153.8,149.7,153,150.6,150.3z"/>
	<path class="st0" d="M473.3,62.8c-3.1-8.5-7.7-16.1-13.4-22.6c-5.8-6.6-13-11.9-21.3-15.8c-8.4-3.9-17.8-5.9-27.9-5.9h-50.6
		c-2.6,0-5,1.1-6.8,3.1c-1.6,1.8-2.4,4-2.4,6.4v230.4c0,2.4,0.8,4.6,2.4,6.4c1.8,2,4.2,3.1,6.8,3.1h50.6c8.9,0,17.5-1.8,25.6-5.3
		s15.3-8.4,21.5-14.6s11.2-13.8,14.8-22.5c3.6-8.7,5.4-18.3,5.4-28.5V89.4C478.1,80.2,476.5,71.3,473.3,62.8z M410.7,249.2h-26.1
		c-4.4,0-8.1-1-11.4-3c-1.6-1-3.5-2.7-3.5-7.3V54.2c0-2.1,0.4-4,1.1-6c0.8-2,1.8-4,3.2-5.7c1.3-1.6,2.8-2.9,4.6-3.9
		c1.7-0.9,3.6-1.3,6-1.3h26.1c6.9,0,13.4,1.3,19.4,3.9c5.9,2.6,11.1,6.2,15.4,10.8c4.3,4.7,7.7,10.3,10.2,16.6
		c2.4,6.4,3.7,13.4,3.7,20.8v107.8c0,7.4-1.2,14.4-3.7,20.8c-2.4,6.4-5.9,11.9-10.2,16.6c-4.3,4.6-9.4,8.3-15.4,10.8
		C424.2,247.9,417.6,249.2,410.7,249.2z"/>
	<path class="st1" d="M108.9,143.1c0-1.7,0-3.4,0-5.1c0-5.5,0-11.1-0.1-16.7c-0.1-8.4-3.8-15.2-10.4-19.9
		c-6.6-4.6-13.9-6.9-21.8-6.9c-3.5,0-7,0-10.4,0c-4.3,0-8.5,0-12.8,0c-0.1,0-0.2,0-0.2,0c-6.7,0-13.4,1.9-19.7,5.5
		c-8.2,4.7-12.6,12.1-12.7,21.5c-0.2,15.1-0.2,30.3,0,45.2c0.2,11.5,3.4,21.2,9.6,28.7c2.7,3.2,4.6,6.1,5.2,9.9l5.7,34
		c0.9,5.3,1.8,10.5,2.6,15.8c1.5,8.6,6.6,12.9,15.3,12.9h4.9c1.5,0,3.1,0,4.6,0c1,0,2.1,0,3.1,0c6.4,0,11-3.4,13.1-9.5
		c0.5-1.5,0.9-3.1,1.2-5c0.8-4.8,1.6-9.6,2.4-14.4c1.7-10.5,3.5-21.3,5.4-31.9c0.5-2.7,1.2-6.9,3.1-8.9c6.3-6.7,9.9-14.3,10.9-22.7
		C108.7,168.5,108.9,143.1,108.9,143.1z M42.8,116.2c3.6-2,7-3,10.4-3c2.2,0,4.2,0,6.3,0l0,0h13.6h3.5c4,0,7.8,1.2,11.2,3.6
		c1.7,1.2,2.4,2.5,2.4,4.8c0.1,5.4,0.1,11,0.1,16.3c0,2.4,0,4.9,0,7.3v13.2c-0.1,4.8-0.3,9.9-0.9,15c-0.5,4.4-2.4,8.3-5.9,12
		c-5.7,6-7.1,13.8-7.9,18.4c-1.9,10.7-3.7,21.5-5.4,32.1l-0.4,2.7c-0.6,3.6-1.2,7.1-1.8,10.7h-6.1c-0.7-4.3-1.5-8.7-2.2-13L54,202.2
		c-1.4-8.3-5.4-14.1-9.2-18.6c-3.5-4.3-5.3-9.9-5.4-17.1c-0.2-14.7-0.2-29.7,0-44.6C39.5,119,40.3,117.7,42.8,116.2z"/>
	<path class="st1" d="M64.4,91.2c0.4,0,0.9,0,1.3,0c19.5-0.6,34.9-17.1,34.5-36.6c-0.3-20.4-16.3-36.3-36.5-36
		C43.4,18.8,27.7,35,28,55.4c0.1,10,4,19.1,11,25.8C45.8,87.7,54.7,91.2,64.4,91.2z M64.1,37.2c9.7,0,17.2,7.6,17.3,17.6
		c0.2,9.4-7.1,17.3-16.4,17.6c-0.2,0-0.5,0-0.7,0c-10,0-17.6-7.5-17.7-17.3c-0.1-4.8,1.7-9.3,5-12.7c3.2-3.3,7.6-5.2,12.3-5.2H64.1z
		"/>
	<g>
		<path class="st2" d="M342.5,143.1c0-1.7,0-3.4,0-5.1c0-5.5,0-11.1-0.1-16.7c-0.1-8.4-3.8-15.2-10.4-19.9
			c-6.6-4.6-13.9-6.9-21.8-6.9c-3.5,0-7,0-10.4,0c-4.3,0-8.5,0-12.8,0c-0.1,0-0.2,0-0.2,0c-6.7,0-13.4,1.9-19.7,5.5
			c-8.2,4.7-12.6,12.1-12.7,21.5c-0.2,15.1-0.2,30.3,0,45.2c0.2,11.5,3.4,21.2,9.6,28.7c2.7,3.2,4.6,6.1,5.2,9.9l5.7,34
			c0.9,5.3,1.8,10.5,2.6,15.8c1.5,8.6,6.6,12.9,15.3,12.9h4.9c1.5,0,3.1,0,4.6,0c1,0,2.1,0,3.1,0c6.4,0,11-3.4,13.1-9.5
			c0.5-1.5,0.9-3.1,1.2-5c0.8-4.8,1.6-9.6,2.4-14.4c1.7-10.5,3.5-21.3,5.4-31.9c0.5-2.7,1.2-6.9,3.1-8.9c6.3-6.7,9.9-14.3,10.9-22.7
			C342.3,168.5,342.5,143.1,342.5,143.1z M276.4,116.2c3.6-2,7-3,10.4-3c2.2,0,4.2,0,6.3,0l0,0h13.6h3.5c4,0,7.8,1.2,11.2,3.6
			c1.7,1.2,2.4,2.5,2.4,4.8c0.1,5.4,0.1,11,0.1,16.3c0,2.4,0,4.9,0,7.3v13.2c-0.1,4.8-0.3,9.9-0.9,15c-0.5,4.4-2.4,8.3-5.9,12
			c-5.7,6-7.1,13.8-7.9,18.4c-1.9,10.7-3.7,21.5-5.4,32.1l-0.4,2.7c-0.6,3.6-1.2,7.1-1.8,10.7h-6.1c-0.7-4.3-1.5-8.7-2.2-13
			l-5.7-34.1c-1.4-8.3-5.4-14.1-9.2-18.6c-3.5-4.3-5.3-9.9-5.4-17.1c-0.2-14.7-0.2-29.7,0-44.6C273.1,119,273.9,117.7,276.4,116.2z"
			/>
		<path class="st2" d="M298,91.2c0.4,0,0.9,0,1.3,0c19.5-0.6,34.9-17.1,34.5-36.6c-0.3-20.4-16.3-36.3-36.5-36
			c-20.3,0.2-36,16.4-35.7,36.8c0.1,10,4,19.1,11,25.8C279.4,87.7,288.4,91.2,298,91.2z M297.8,37.2c9.7,0,17.2,7.6,17.3,17.6
			c0.2,9.4-7.1,17.3-16.4,17.6c-0.2,0-0.5,0-0.7,0c-10,0-17.6-7.5-17.7-17.3c-0.1-4.8,1.7-9.3,5-12.7c3.2-3.3,7.6-5.2,12.3-5.2
			H297.8z"/>
	</g>
</g>
</svg>
