<?xml version="1.0" encoding="utf-8"?>
<!-- Generator: Adobe Illustrator 22.0.0, SVG Export Plug-In . SVG Version: 6.00 Build 0)  -->
<svg version="1.1" id="Icon" xmlns="http://www.w3.org/2000/svg" xmlns:xlink="http://www.w3.org/1999/xlink" x="0px" y="0px"
	 viewBox="0 0 48 48" style="enable-background:new 0 0 48 48;" xml:space="preserve">
<style type="text/css">
	.st0{fill:#017EB4;}
	.st1{fill:#FFFFFF;}
</style>
<path class="st0" d="M47.9,42c0,3.3-2.7,6-6,6h-36c-3.3,0-6-2.7-6-6V6.1c0-3.3,2.7-6,6-6h36c3.3,0,6,2.7,6,6V42z"/>
<g>
	<path class="st1" d="M25.6,21.7c0.7-0.9,1.4-1.7,2.3-2.1c3.3-1.5,8.4-0.5,9.5,4.6c0.2,0.8,0.3,1.7,0.3,2.6c0,3.3,0,6.6,0,9.9
		c0,0.6,0,0.6-0.6,0.6c-1.6,0-3.3,0-4.9,0c-0.4,0-0.5-0.1-0.5-0.5c0-3.1,0-6.2,0-9.3c0-0.6-0.1-1.2-0.3-1.8
		c-0.6-1.9-2.7-2.6-4.3-1.5c-1,0.7-1.5,1.6-1.5,2.8c0,3.2,0,6.5,0,9.7c0,0.4-0.1,0.6-0.5,0.5c-1.7,0-3.4,0-5,0
		c-0.4,0-0.5-0.1-0.5-0.5c0-5.7,0-11.3,0-17c0-0.4,0.1-0.5,0.5-0.5c1.7,0,3.4,0,5.1,0c0.3,0,0.5,0.1,0.5,0.5
		C25.6,20.4,25.6,21,25.6,21.7z"/>
	<path class="st1" d="M16.5,28.4c0,2.8,0,5.6,0,8.4c0,0.5-0.1,0.6-0.6,0.6c-1.7,0-3.3,0-5,0c-0.4,0-0.5-0.1-0.5-0.5
		c0-5.6,0-11.3,0-16.9c0-0.4,0.1-0.5,0.5-0.5c1.7,0,3.4,0,5.1,0c0.4,0,0.5,0.1,0.5,0.5C16.5,22.7,16.5,25.5,16.5,28.4z"/>
	<path class="st1" d="M13.4,10.8c1.8,0,3,1,3.3,2.7c0.3,1.7-0.9,3.3-2.6,3.6c-1.2,0.2-2.4,0-3.3-0.9c-0.9-0.9-1.1-2-0.7-3.1
		c0.3-1.1,1.2-1.8,2.3-2.1C12.8,10.8,13.1,10.8,13.4,10.8z"/>
</g>
</svg>
