<?xml version="1.0" encoding="utf-8"?>
<!-- Generator: Adobe Illustrator 25.1.0, SVG Export Plug-In . SVG Version: 6.00 Build 0)  -->
<svg version="1.1" id="Layer_1" xmlns="http://www.w3.org/2000/svg" xmlns:xlink="http://www.w3.org/1999/xlink" x="0px" y="0px"
	 viewBox="0 0 500 500" style="enable-background:new 0 0 500 500;" xml:space="preserve">
<style type="text/css">
	.st0{fill:#FFFFFF;}
	.st1{fill:#ED3235;}
	.st2{fill:url(#SVGID_1_);}
	.st3{fill:url(#SVGID_2_);}
	.st4{fill:url(#SVGID_3_);}
	.st5{fill:url(#SVGID_4_);}
	.st6{fill:url(#SVGID_5_);}
	.st7{fill:url(#SVGID_6_);}
	.st8{fill:url(#SVGID_7_);}
	.st9{fill:url(#SVGID_8_);}
	.st10{fill:url(#SVGID_9_);}
</style>
<path class="st0" d="M454.5,500h-409C20.5,500,0,479.5,0,454.5v-409C0,20.5,20.5,0,45.5,0h409c25,0,45.5,20.5,45.5,45.5v409
	C500,479.5,479.5,500,454.5,500z"/>
<path class="st1" d="M467.7,400.2H30.1c-11.7,0-21.3-9.6-21.3-21.3V191.9c0-11.7,9.6-21.3,21.3-21.3h437.6
	c11.7,0,21.3,9.6,21.3,21.3V379C489,390.7,479.4,400.2,467.7,400.2z"/>
<g>
	<path d="M69.1,204.3h22.1v53.9h34.5v17.6H69.1V204.3z"/>
	<path d="M126.7,250c0-7.9,2.7-14.4,8-19.5c5.3-5.1,12.5-7.7,21.6-7.7c10.4,0,18.2,3,23.5,9c4.3,4.8,6.4,10.8,6.4,17.9
		c0,8-2.6,14.5-7.9,19.6c-5.3,5.1-12.6,7.6-21.9,7.6c-8.3,0-15.1-2.1-20.2-6.3C129.9,265.3,126.7,258.5,126.7,250z M146.6,249.9
		c0,4.6,0.9,8,2.8,10.2c1.9,2.2,4.2,3.3,7,3.3c2.9,0,5.2-1.1,7-3.3c1.8-2.2,2.8-5.7,2.8-10.5c0-4.5-0.9-7.8-2.8-10
		c-1.9-2.2-4.1-3.3-6.9-3.3c-2.9,0-5.3,1.1-7.2,3.3C147.6,242,146.6,245.4,146.6,249.9z"/>
	<path d="M214.5,204.3V224h10.9v14.5h-10.9v18.3c0,2.2,0.2,3.7,0.6,4.4c0.6,1.1,1.8,1.7,3.4,1.7c1.5,0,3.5-0.4,6.1-1.3l1.5,13.7
		c-4.9,1.1-9.5,1.6-13.8,1.6c-4.9,0-8.6-0.6-10.9-1.9c-2.3-1.3-4.1-3.2-5.2-5.8c-1.1-2.6-1.7-6.8-1.7-12.5v-18.2h-7.3V224h7.3v-9.5
		L214.5,204.3z"/>
	<path d="M287.2,254.8h-39.8c0.4,3.2,1.2,5.6,2.6,7.1c1.9,2.2,4.4,3.4,7.5,3.4c2,0,3.8-0.5,5.6-1.5c1.1-0.6,2.2-1.7,3.5-3.3
		l19.6,1.8c-3,5.2-6.6,8.9-10.8,11.2c-4.2,2.3-10.3,3.4-18.2,3.4c-6.9,0-12.3-1-16.2-2.9c-3.9-1.9-7.2-5-9.8-9.2
		c-2.6-4.2-3.9-9.2-3.9-14.8c0-8.1,2.6-14.6,7.8-19.6c5.2-5,12.3-7.5,21.5-7.5c7.4,0,13.3,1.1,17.6,3.4c4.3,2.2,7.6,5.5,9.8,9.8
		c2.2,4.3,3.4,9.8,3.4,16.6V254.8z M267,245.3c-0.4-3.8-1.4-6.6-3.1-8.2c-1.7-1.7-3.9-2.5-6.6-2.5c-3.2,0-5.7,1.3-7.6,3.8
		c-1.2,1.6-2,3.9-2.3,7H267z"/>
	<path d="M291.3,224h18.6v8.5c1.8-3.7,3.6-6.2,5.5-7.6c1.9-1.4,4.2-2.1,7-2.1c2.9,0,6.1,0.9,9.6,2.7l-6.1,14.1
		c-2.3-1-4.2-1.5-5.6-1.5c-2.6,0-4.6,1.1-6,3.2c-2,3-3.1,8.7-3.1,17v17.4h-19.9V224z"/>
	<path d="M331,224h19.8v51.8H331V224z M340.4,203h17.1l-15.7,14.6h-9.5L340.4,203z"/>
	<path d="M376.4,240.7l-19-2c0.7-3.3,1.7-5.9,3.1-7.8c1.3-1.9,3.3-3.6,5.8-4.9c1.8-1,4.3-1.8,7.5-2.3s6.6-0.8,10.3-0.8
		c5.9,0,10.7,0.3,14.3,1c3.6,0.7,6.6,2.1,9,4.2c1.7,1.5,3,3.5,4,6.2c1,2.7,1.5,5.2,1.5,7.7v22.9c0,2.4,0.2,4.3,0.5,5.7s1,3.1,2,5.3
		h-18.6c-0.7-1.3-1.2-2.3-1.5-3c-0.2-0.7-0.5-1.8-0.7-3.3c-2.6,2.5-5.2,4.3-7.8,5.4c-3.5,1.4-7.6,2.1-12.2,2.1
		c-6.2,0-10.9-1.4-14.1-4.3c-3.2-2.9-4.8-6.4-4.8-10.6c0-3.9,1.2-7.2,3.5-9.7c2.3-2.5,6.6-4.4,12.8-5.7c7.4-1.5,12.3-2.5,14.5-3.1
		c2.2-0.6,4.6-1.4,7-2.4c0-2.4-0.5-4.1-1.5-5.1c-1-1-2.8-1.5-5.3-1.5c-3.3,0-5.7,0.5-7.3,1.6C378.2,237,377.2,238.5,376.4,240.7z
		 M393.6,251.2c-2.7,1-5.6,1.8-8.5,2.6c-4,1.1-6.6,2.1-7.7,3.2c-1.1,1.1-1.7,2.3-1.7,3.7c0,1.6,0.5,2.8,1.6,3.8s2.7,1.5,4.8,1.5
		c2.2,0,4.3-0.5,6.2-1.6c1.9-1.1,3.2-2.4,4-3.9s1.2-3.6,1.2-6V251.2z"/>
	<path d="M24.6,300.7h20.6l26.9,39.5v-39.5H93v71.5H72.2l-26.8-39.2v39.2H24.6V300.7z"/>
	<path d="M119.2,337.1l-19-2c0.7-3.3,1.7-5.9,3.1-7.8c1.3-1.9,3.3-3.6,5.8-4.9c1.8-1,4.3-1.8,7.5-2.3c3.2-0.6,6.6-0.8,10.3-0.8
		c5.9,0,10.7,0.3,14.3,1c3.6,0.7,6.6,2.1,9,4.2c1.7,1.5,3,3.5,4,6.2c1,2.7,1.5,5.2,1.5,7.7v22.9c0,2.4,0.2,4.3,0.5,5.7
		c0.3,1.4,1,3.1,2,5.3h-18.6c-0.7-1.3-1.2-2.3-1.5-3c-0.2-0.7-0.5-1.8-0.7-3.3c-2.6,2.5-5.2,4.3-7.8,5.4c-3.5,1.4-7.6,2.1-12.2,2.1
		c-6.2,0-10.9-1.4-14.1-4.3c-3.2-2.9-4.8-6.4-4.8-10.6c0-3.9,1.2-7.2,3.5-9.7c2.3-2.5,6.6-4.4,12.8-5.7c7.4-1.5,12.3-2.5,14.5-3.1
		c2.2-0.6,4.6-1.4,7-2.4c0-2.4-0.5-4.1-1.5-5.1c-1-1-2.8-1.5-5.3-1.5c-3.3,0-5.7,0.5-7.3,1.6C121.1,333.4,120,334.9,119.2,337.1z
		 M136.5,347.6c-2.7,1-5.6,1.8-8.5,2.6c-4,1.1-6.6,2.1-7.7,3.2c-1.1,1.1-1.7,2.3-1.7,3.7c0,1.6,0.5,2.8,1.6,3.8
		c1.1,1,2.7,1.5,4.8,1.5c2.2,0,4.3-0.5,6.2-1.6c1.9-1.1,3.2-2.4,4-3.9c0.8-1.5,1.2-3.6,1.2-6V347.6z"/>
	<path d="M201.2,351.8l18.9,2.1c-1,3.9-2.7,7.3-5.1,10.2c-2.4,2.9-5.4,5.1-9.1,6.7c-3.7,1.6-8.4,2.4-14.1,2.4
		c-5.5,0-10.1-0.5-13.7-1.5s-6.8-2.7-9.4-5c-2.6-2.3-4.7-5-6.2-8.1c-1.5-3.1-2.2-7.2-2.2-12.3c0-5.3,0.9-9.8,2.7-13.3
		c1.3-2.6,3.2-4.9,5.5-7c2.3-2.1,4.7-3.6,7.1-4.6c3.9-1.6,8.8-2.4,14.9-2.4c8.5,0,14.9,1.5,19.3,4.5c4.4,3,7.5,7.4,9.3,13.3
		l-18.7,2.5c-0.6-2.2-1.7-3.9-3.2-5c-1.5-1.1-3.6-1.7-6.2-1.7c-3.3,0-5.9,1.2-8,3.5c-2,2.4-3,5.9-3,10.7c0,4.3,1,7.5,3,9.7
		c2,2.2,4.6,3.3,7.7,3.3c2.6,0,4.8-0.7,6.6-2C199,356.7,200.3,354.6,201.2,351.8z"/>
	<path d="M224.7,300.7h19.8v13.5h-19.8V300.7z M224.7,320.3h19.8v51.8h-19.8V320.3z"/>
	<path d="M249.6,346.4c0-7.9,2.7-14.4,8-19.5c5.3-5.1,12.5-7.7,21.6-7.7c10.4,0,18.2,3,23.5,9c4.3,4.8,6.4,10.8,6.4,17.9
		c0,8-2.6,14.5-7.9,19.6c-5.3,5.1-12.6,7.6-21.9,7.6c-8.3,0-15.1-2.1-20.2-6.3C252.8,361.7,249.6,354.9,249.6,346.4z M269.5,346.3
		c0,4.6,0.9,8,2.8,10.2c1.9,2.2,4.2,3.3,7,3.3c2.9,0,5.2-1.1,7-3.3s2.8-5.7,2.8-10.5c0-4.5-0.9-7.8-2.8-10c-1.9-2.2-4.1-3.3-6.9-3.3
		c-2.9,0-5.3,1.1-7.2,3.3S269.5,341.8,269.5,346.3z"/>
	<path d="M313.5,320.3h18.5v8.4c2.8-3.4,5.6-5.9,8.4-7.4c2.8-1.5,6.3-2.2,10.3-2.2c5.5,0,9.8,1.6,12.9,4.9c3.1,3.3,4.7,8.3,4.7,15.1
		v32.9h-19.9v-28.5c0-3.2-0.6-5.6-1.8-6.9c-1.2-1.3-2.9-2-5.1-2c-2.4,0-4.4,0.9-5.9,2.7c-1.5,1.8-2.2,5.1-2.2,9.8v24.9h-19.8V320.3z
		"/>
	<path d="M393,337.1l-19-2c0.7-3.3,1.7-5.9,3.1-7.8c1.3-1.9,3.3-3.6,5.8-4.9c1.8-1,4.3-1.8,7.5-2.3c3.2-0.6,6.6-0.8,10.3-0.8
		c5.9,0,10.7,0.3,14.3,1c3.6,0.7,6.6,2.1,9,4.2c1.7,1.5,3,3.5,4,6.2c1,2.7,1.5,5.2,1.5,7.7v22.9c0,2.4,0.2,4.3,0.5,5.7s1,3.1,2,5.3
		h-18.6c-0.7-1.3-1.2-2.3-1.5-3c-0.2-0.7-0.5-1.8-0.7-3.3c-2.6,2.5-5.2,4.3-7.8,5.4c-3.5,1.4-7.6,2.1-12.2,2.1
		c-6.2,0-10.9-1.4-14.1-4.3c-3.2-2.9-4.8-6.4-4.8-10.6c0-3.9,1.2-7.2,3.5-9.7c2.3-2.5,6.6-4.4,12.8-5.7c7.4-1.5,12.3-2.5,14.5-3.1
		c2.2-0.6,4.6-1.4,7-2.4c0-2.4-0.5-4.1-1.5-5.1c-1-1-2.8-1.5-5.3-1.5c-3.3,0-5.7,0.5-7.3,1.6C394.8,333.4,393.7,334.9,393,337.1z
		 M410.2,347.6c-2.7,1-5.6,1.8-8.5,2.6c-4,1.1-6.6,2.1-7.7,3.2c-1.1,1.1-1.7,2.3-1.7,3.7c0,1.6,0.5,2.8,1.6,3.8s2.7,1.5,4.8,1.5
		c2.2,0,4.3-0.5,6.2-1.6c1.9-1.1,3.2-2.4,4-3.9s1.2-3.6,1.2-6V347.6z"/>
	<path d="M437,300.7h19.9v71.5H437V300.7z"/>
</g>
<g>
	<path class="st0" d="M66,200.4h22.1v53.9h34.5v17.6H66V200.4z"/>
	<path class="st0" d="M123.7,246.2c0-7.9,2.7-14.4,8-19.5c5.3-5.1,12.5-7.7,21.6-7.7c10.4,0,18.2,3,23.5,9
		c4.3,4.8,6.4,10.8,6.4,17.9c0,8-2.6,14.5-7.9,19.6c-5.3,5.1-12.6,7.6-21.9,7.6c-8.3,0-15.1-2.1-20.2-6.3
		C126.9,261.5,123.7,254.7,123.7,246.2z M143.6,246.1c0,4.6,0.9,8,2.8,10.2c1.9,2.2,4.2,3.3,7,3.3c2.9,0,5.2-1.1,7-3.3
		c1.8-2.2,2.8-5.7,2.8-10.5c0-4.5-0.9-7.8-2.8-10c-1.9-2.2-4.1-3.3-6.9-3.3c-2.9,0-5.3,1.1-7.2,3.3
		C144.5,238.2,143.6,241.6,143.6,246.1z"/>
	<path class="st0" d="M211.5,200.4v19.7h10.9v14.5h-10.9V253c0,2.2,0.2,3.7,0.6,4.4c0.6,1.1,1.8,1.7,3.4,1.7c1.5,0,3.5-0.4,6.1-1.3
		l1.5,13.7c-4.9,1.1-9.5,1.6-13.8,1.6c-4.9,0-8.6-0.6-10.9-1.9c-2.3-1.3-4.1-3.2-5.2-5.8c-1.1-2.6-1.7-6.8-1.7-12.5v-18.2h-7.3
		v-14.5h7.3v-9.5L211.5,200.4z"/>
	<path class="st0" d="M284.2,251h-39.8c0.4,3.2,1.2,5.6,2.6,7.1c1.9,2.2,4.4,3.4,7.5,3.4c2,0,3.8-0.5,5.6-1.5
		c1.1-0.6,2.2-1.7,3.5-3.3l19.6,1.8c-3,5.2-6.6,8.9-10.8,11.2c-4.2,2.3-10.3,3.4-18.2,3.4c-6.9,0-12.3-1-16.2-2.9
		c-3.9-1.9-7.2-5-9.8-9.2c-2.6-4.2-3.9-9.2-3.9-14.8c0-8.1,2.6-14.6,7.8-19.6c5.2-5,12.3-7.5,21.5-7.5c7.4,0,13.3,1.1,17.6,3.4
		c4.3,2.2,7.6,5.5,9.8,9.8c2.2,4.3,3.4,9.8,3.4,16.6V251z M264,241.5c-0.4-3.8-1.4-6.6-3.1-8.2c-1.7-1.7-3.9-2.5-6.6-2.5
		c-3.2,0-5.7,1.3-7.6,3.8c-1.2,1.6-2,3.9-2.3,7H264z"/>
	<path class="st0" d="M288.3,220.1h18.6v8.5c1.8-3.7,3.6-6.2,5.5-7.6c1.9-1.4,4.2-2.1,7-2.1c2.9,0,6.1,0.9,9.6,2.7l-6.1,14.1
		c-2.3-1-4.2-1.5-5.6-1.5c-2.6,0-4.6,1.1-6,3.2c-2,3-3.1,8.7-3.1,17v17.4h-19.9V220.1z"/>
	<path class="st0" d="M328,220.1h19.8v51.8H328V220.1z M337.3,199.2h17.1l-15.7,14.6h-9.5L337.3,199.2z"/>
	<path class="st0" d="M373.4,236.9l-19-2c0.7-3.3,1.7-5.9,3.1-7.8c1.3-1.9,3.3-3.6,5.8-4.9c1.8-1,4.3-1.8,7.5-2.3s6.6-0.8,10.3-0.8
		c5.9,0,10.7,0.3,14.3,1c3.6,0.7,6.6,2.1,9,4.2c1.7,1.5,3,3.5,4,6.2c1,2.7,1.5,5.2,1.5,7.7v22.9c0,2.4,0.2,4.3,0.5,5.7s1,3.1,2,5.3
		h-18.6c-0.7-1.3-1.2-2.3-1.5-3c-0.2-0.7-0.5-1.8-0.7-3.3c-2.6,2.5-5.2,4.3-7.8,5.4c-3.5,1.4-7.6,2.1-12.2,2.1
		c-6.2,0-10.9-1.4-14.1-4.3c-3.2-2.9-4.8-6.4-4.8-10.6c0-3.9,1.2-7.2,3.5-9.7c2.3-2.5,6.6-4.4,12.8-5.7c7.4-1.5,12.3-2.5,14.5-3.1
		c2.2-0.6,4.6-1.4,7-2.4c0-2.4-0.5-4.1-1.5-5.1c-1-1-2.8-1.5-5.3-1.5c-3.3,0-5.7,0.5-7.3,1.6C375.2,233.2,374.2,234.7,373.4,236.9z
		 M390.6,247.4c-2.7,1-5.6,1.8-8.5,2.6c-4,1.1-6.6,2.1-7.7,3.2c-1.1,1.1-1.7,2.3-1.7,3.7c0,1.6,0.5,2.8,1.6,3.8s2.7,1.5,4.8,1.5
		c2.2,0,4.3-0.5,6.2-1.6c1.9-1.1,3.2-2.4,4-3.9s1.2-3.6,1.2-6V247.4z"/>
	<path class="st0" d="M21.6,296.8h20.6l26.9,39.5v-39.5H90v71.5H69.1l-26.8-39.2v39.2H21.6V296.8z"/>
	<path class="st0" d="M116.2,333.3l-19-2c0.7-3.3,1.7-5.9,3.1-7.8c1.3-1.9,3.3-3.6,5.8-4.9c1.8-1,4.3-1.8,7.5-2.3
		c3.2-0.6,6.6-0.8,10.3-0.8c5.9,0,10.7,0.3,14.3,1c3.6,0.7,6.6,2.1,9,4.2c1.7,1.5,3,3.5,4,6.2c1,2.7,1.5,5.2,1.5,7.7v22.9
		c0,2.4,0.2,4.3,0.5,5.7c0.3,1.4,1,3.1,2,5.3h-18.6c-0.7-1.3-1.2-2.3-1.5-3c-0.2-0.7-0.5-1.8-0.7-3.3c-2.6,2.5-5.2,4.3-7.8,5.4
		c-3.5,1.4-7.6,2.1-12.2,2.1c-6.2,0-10.9-1.4-14.1-4.3c-3.2-2.9-4.8-6.4-4.8-10.6c0-3.9,1.2-7.2,3.5-9.7c2.3-2.5,6.6-4.4,12.8-5.7
		c7.4-1.5,12.3-2.5,14.5-3.1c2.2-0.6,4.6-1.4,7-2.4c0-2.4-0.5-4.1-1.5-5.1c-1-1-2.8-1.5-5.3-1.5c-3.3,0-5.7,0.5-7.3,1.6
		C118,329.5,117,331.1,116.2,333.3z M133.4,343.8c-2.7,1-5.6,1.8-8.5,2.6c-4,1.1-6.6,2.1-7.7,3.2c-1.1,1.1-1.7,2.3-1.7,3.7
		c0,1.6,0.5,2.8,1.6,3.8c1.1,1,2.7,1.5,4.8,1.5c2.2,0,4.3-0.5,6.2-1.6c1.9-1.1,3.2-2.4,4-3.9c0.8-1.5,1.2-3.6,1.2-6V343.8z"/>
	<path class="st0" d="M198.1,348l18.9,2.1c-1,3.9-2.7,7.3-5.1,10.2c-2.4,2.9-5.4,5.1-9.1,6.7c-3.7,1.6-8.4,2.4-14.1,2.4
		c-5.5,0-10.1-0.5-13.7-1.5s-6.8-2.7-9.4-5c-2.6-2.3-4.7-5-6.2-8.1c-1.5-3.1-2.2-7.2-2.2-12.3c0-5.3,0.9-9.8,2.7-13.3
		c1.3-2.6,3.2-4.9,5.5-7c2.3-2.1,4.7-3.6,7.1-4.6c3.9-1.6,8.8-2.4,14.9-2.4c8.5,0,14.9,1.5,19.3,4.5c4.4,3,7.5,7.4,9.3,13.3
		l-18.7,2.5c-0.6-2.2-1.7-3.9-3.2-5c-1.5-1.1-3.6-1.7-6.2-1.7c-3.3,0-5.9,1.2-8,3.5c-2,2.4-3,5.9-3,10.7c0,4.3,1,7.5,3,9.7
		c2,2.2,4.6,3.3,7.7,3.3c2.6,0,4.8-0.7,6.6-2C195.9,352.9,197.3,350.8,198.1,348z"/>
	<path class="st0" d="M221.7,296.8h19.8v13.5h-19.8V296.8z M221.7,316.5h19.8v51.8h-19.8V316.5z"/>
	<path class="st0" d="M246.6,342.6c0-7.9,2.7-14.4,8-19.5c5.3-5.1,12.5-7.7,21.6-7.7c10.4,0,18.2,3,23.5,9
		c4.3,4.8,6.4,10.8,6.4,17.9c0,8-2.6,14.5-7.9,19.6c-5.3,5.1-12.6,7.6-21.9,7.6c-8.3,0-15-2.1-20.2-6.3
		C249.7,357.9,246.6,351.1,246.6,342.6z M266.5,342.5c0,4.6,0.9,8,2.8,10.2c1.9,2.2,4.2,3.3,7,3.3c2.9,0,5.2-1.1,7-3.3
		c1.8-2.2,2.8-5.7,2.8-10.5c0-4.5-0.9-7.8-2.8-10c-1.9-2.2-4.1-3.3-6.9-3.3c-2.9,0-5.3,1.1-7.2,3.3
		C267.4,334.6,266.5,338,266.5,342.5z"/>
	<path class="st0" d="M310.4,316.5h18.5v8.4c2.8-3.4,5.6-5.9,8.4-7.4c2.8-1.5,6.3-2.2,10.3-2.2c5.5,0,9.8,1.6,12.9,4.9
		c3.1,3.3,4.7,8.3,4.7,15.1v32.9h-19.9v-28.5c0-3.2-0.6-5.6-1.8-6.9c-1.2-1.3-2.9-2-5.1-2c-2.4,0-4.4,0.9-5.9,2.7
		c-1.5,1.8-2.2,5.1-2.2,9.8v24.9h-19.8V316.5z"/>
	<path class="st0" d="M389.9,333.3l-19-2c0.7-3.3,1.7-5.9,3.1-7.8c1.3-1.9,3.3-3.6,5.8-4.9c1.8-1,4.3-1.8,7.5-2.3
		c3.2-0.6,6.6-0.8,10.3-0.8c5.9,0,10.7,0.3,14.3,1c3.6,0.7,6.6,2.1,9,4.2c1.7,1.5,3,3.5,4,6.2c1,2.7,1.5,5.2,1.5,7.7v22.9
		c0,2.4,0.2,4.3,0.5,5.7s1,3.1,2,5.3h-18.6c-0.7-1.3-1.2-2.3-1.5-3c-0.2-0.7-0.5-1.8-0.7-3.3c-2.6,2.5-5.2,4.3-7.8,5.4
		c-3.5,1.4-7.6,2.1-12.2,2.1c-6.2,0-10.9-1.4-14.1-4.3c-3.2-2.9-4.8-6.4-4.8-10.6c0-3.9,1.2-7.2,3.5-9.7c2.3-2.5,6.6-4.4,12.8-5.7
		c7.4-1.5,12.3-2.5,14.5-3.1c2.2-0.6,4.6-1.4,7-2.4c0-2.4-0.5-4.1-1.5-5.1c-1-1-2.8-1.5-5.3-1.5c-3.3,0-5.7,0.5-7.3,1.6
		C391.7,329.5,390.7,331.1,389.9,333.3z M407.1,343.8c-2.7,1-5.6,1.8-8.5,2.6c-4,1.1-6.6,2.1-7.7,3.2c-1.1,1.1-1.7,2.3-1.7,3.7
		c0,1.6,0.5,2.8,1.6,3.8s2.7,1.5,4.8,1.5c2.2,0,4.3-0.5,6.2-1.6c1.9-1.1,3.2-2.4,4-3.9s1.2-3.6,1.2-6V343.8z"/>
	<path class="st0" d="M433.9,296.8h19.9v71.5h-19.9V296.8z"/>
</g>
<radialGradient id="SVGID_1_" cx="141.2237" cy="142.8257" r="107.2704" gradientUnits="userSpaceOnUse">
	<stop  offset="0" style="stop-color:#FFFFFF"/>
	<stop  offset="0.2066" style="stop-color:#FDFDFD"/>
	<stop  offset="0.2955" style="stop-color:#F6F6F6"/>
	<stop  offset="0.3618" style="stop-color:#E9E9E9"/>
	<stop  offset="0.4169" style="stop-color:#D7D7D7"/>
	<stop  offset="0.4651" style="stop-color:#C0C0C0"/>
	<stop  offset="0.5084" style="stop-color:#A4A4A4"/>
	<stop  offset="0.5481" style="stop-color:#828282"/>
	<stop  offset="0.5849" style="stop-color:#5A5A5A"/>
	<stop  offset="0.6181" style="stop-color:#2F2F2F"/>
	<stop  offset="0.6486" style="stop-color:#000000"/>
</radialGradient>
<circle class="st2" cx="148.1" cy="154.2" r="51.7"/>
<radialGradient id="SVGID_2_" cx="56.6594" cy="118.0319" r="61.5227" gradientUnits="userSpaceOnUse">
	<stop  offset="0" style="stop-color:#FFFFFF"/>
	<stop  offset="0.2066" style="stop-color:#FDFDFD"/>
	<stop  offset="0.2955" style="stop-color:#F6F6F6"/>
	<stop  offset="0.3618" style="stop-color:#E9E9E9"/>
	<stop  offset="0.4169" style="stop-color:#D7D7D7"/>
	<stop  offset="0.4651" style="stop-color:#C0C0C0"/>
	<stop  offset="0.5084" style="stop-color:#A4A4A4"/>
	<stop  offset="0.5481" style="stop-color:#828282"/>
	<stop  offset="0.5849" style="stop-color:#5A5A5A"/>
	<stop  offset="0.6181" style="stop-color:#2F2F2F"/>
	<stop  offset="0.6486" style="stop-color:#000000"/>
</radialGradient>
<circle class="st3" cx="60.6" cy="124.6" r="29.7"/>
<radialGradient id="SVGID_3_" cx="315.2215" cy="108.1457" r="61.5227" gradientUnits="userSpaceOnUse">
	<stop  offset="0" style="stop-color:#FFFFFF"/>
	<stop  offset="0.2066" style="stop-color:#FDFDFD"/>
	<stop  offset="0.2955" style="stop-color:#F6F6F6"/>
	<stop  offset="0.3618" style="stop-color:#E9E9E9"/>
	<stop  offset="0.4169" style="stop-color:#D7D7D7"/>
	<stop  offset="0.4651" style="stop-color:#C0C0C0"/>
	<stop  offset="0.5084" style="stop-color:#A4A4A4"/>
	<stop  offset="0.5481" style="stop-color:#828282"/>
	<stop  offset="0.5849" style="stop-color:#5A5A5A"/>
	<stop  offset="0.6181" style="stop-color:#2F2F2F"/>
	<stop  offset="0.6486" style="stop-color:#000000"/>
</radialGradient>
<circle class="st4" cx="319.1" cy="114.7" r="29.7"/>
<radialGradient id="SVGID_4_" cx="293.9132" cy="55.1409" r="37.9189" gradientUnits="userSpaceOnUse">
	<stop  offset="0" style="stop-color:#FFFFFF"/>
	<stop  offset="0.2066" style="stop-color:#FDFDFD"/>
	<stop  offset="0.2955" style="stop-color:#F6F6F6"/>
	<stop  offset="0.3618" style="stop-color:#E9E9E9"/>
	<stop  offset="0.4169" style="stop-color:#D7D7D7"/>
	<stop  offset="0.4651" style="stop-color:#C0C0C0"/>
	<stop  offset="0.5084" style="stop-color:#A4A4A4"/>
	<stop  offset="0.5481" style="stop-color:#828282"/>
	<stop  offset="0.5849" style="stop-color:#5A5A5A"/>
	<stop  offset="0.6181" style="stop-color:#2F2F2F"/>
	<stop  offset="0.6486" style="stop-color:#000000"/>
</radialGradient>
<circle class="st5" cx="296.3" cy="59.2" r="18.3"/>
<radialGradient id="SVGID_5_" cx="373.7633" cy="91.7005" r="37.9189" gradientUnits="userSpaceOnUse">
	<stop  offset="0" style="stop-color:#FFFFFF"/>
	<stop  offset="0.2066" style="stop-color:#FDFDFD"/>
	<stop  offset="0.2955" style="stop-color:#F6F6F6"/>
	<stop  offset="0.3618" style="stop-color:#E9E9E9"/>
	<stop  offset="0.4169" style="stop-color:#D7D7D7"/>
	<stop  offset="0.4651" style="stop-color:#C0C0C0"/>
	<stop  offset="0.5084" style="stop-color:#A4A4A4"/>
	<stop  offset="0.5481" style="stop-color:#828282"/>
	<stop  offset="0.5849" style="stop-color:#5A5A5A"/>
	<stop  offset="0.6181" style="stop-color:#2F2F2F"/>
	<stop  offset="0.6486" style="stop-color:#000000"/>
</radialGradient>
<circle class="st6" cx="376.2" cy="95.7" r="18.3"/>
<radialGradient id="SVGID_6_" cx="355.4835" cy="400.8706" r="37.9189" gradientUnits="userSpaceOnUse">
	<stop  offset="0" style="stop-color:#FFFFFF"/>
	<stop  offset="0.2066" style="stop-color:#FDFDFD"/>
	<stop  offset="0.2955" style="stop-color:#F6F6F6"/>
	<stop  offset="0.3618" style="stop-color:#E9E9E9"/>
	<stop  offset="0.4169" style="stop-color:#D7D7D7"/>
	<stop  offset="0.4651" style="stop-color:#C0C0C0"/>
	<stop  offset="0.5084" style="stop-color:#A4A4A4"/>
	<stop  offset="0.5481" style="stop-color:#828282"/>
	<stop  offset="0.5849" style="stop-color:#5A5A5A"/>
	<stop  offset="0.6181" style="stop-color:#2F2F2F"/>
	<stop  offset="0.6486" style="stop-color:#000000"/>
</radialGradient>
<circle class="st7" cx="357.9" cy="404.9" r="18.3"/>
<radialGradient id="SVGID_7_" cx="407.7438" cy="148.114" r="32.3658" gradientUnits="userSpaceOnUse">
	<stop  offset="0" style="stop-color:#FFFFFF"/>
	<stop  offset="0.2066" style="stop-color:#FDFDFD"/>
	<stop  offset="0.2955" style="stop-color:#F6F6F6"/>
	<stop  offset="0.3618" style="stop-color:#E9E9E9"/>
	<stop  offset="0.4169" style="stop-color:#D7D7D7"/>
	<stop  offset="0.4651" style="stop-color:#C0C0C0"/>
	<stop  offset="0.5084" style="stop-color:#A4A4A4"/>
	<stop  offset="0.5481" style="stop-color:#828282"/>
	<stop  offset="0.5849" style="stop-color:#5A5A5A"/>
	<stop  offset="0.6181" style="stop-color:#2F2F2F"/>
	<stop  offset="0.6486" style="stop-color:#000000"/>
</radialGradient>
<circle class="st8" cx="409.8" cy="151.6" r="15.6"/>
<radialGradient id="SVGID_8_" cx="404.9578" cy="413.0969" r="61.5227" gradientUnits="userSpaceOnUse">
	<stop  offset="0" style="stop-color:#FFFFFF"/>
	<stop  offset="0.2066" style="stop-color:#FDFDFD"/>
	<stop  offset="0.2955" style="stop-color:#F6F6F6"/>
	<stop  offset="0.3618" style="stop-color:#E9E9E9"/>
	<stop  offset="0.4169" style="stop-color:#D7D7D7"/>
	<stop  offset="0.4651" style="stop-color:#C0C0C0"/>
	<stop  offset="0.5084" style="stop-color:#A4A4A4"/>
	<stop  offset="0.5481" style="stop-color:#828282"/>
	<stop  offset="0.5849" style="stop-color:#5A5A5A"/>
	<stop  offset="0.6181" style="stop-color:#2F2F2F"/>
	<stop  offset="0.6486" style="stop-color:#000000"/>
</radialGradient>
<circle class="st9" cx="408.9" cy="419.6" r="29.7"/>
<radialGradient id="SVGID_9_" cx="237.0099" cy="102.9287" r="70.3888" gradientUnits="userSpaceOnUse">
	<stop  offset="0" style="stop-color:#FFFFFF"/>
	<stop  offset="0.2066" style="stop-color:#FDFDFD"/>
	<stop  offset="0.2955" style="stop-color:#F6F6F6"/>
	<stop  offset="0.3618" style="stop-color:#E9E9E9"/>
	<stop  offset="0.4169" style="stop-color:#D7D7D7"/>
	<stop  offset="0.4651" style="stop-color:#C0C0C0"/>
	<stop  offset="0.5084" style="stop-color:#A4A4A4"/>
	<stop  offset="0.5481" style="stop-color:#828282"/>
	<stop  offset="0.5849" style="stop-color:#5A5A5A"/>
	<stop  offset="0.6181" style="stop-color:#2F2F2F"/>
	<stop  offset="0.6486" style="stop-color:#000000"/>
</radialGradient>
<circle class="st10" cx="241.5" cy="110.4" r="33.9"/>
</svg>
