<?xml version="1.0" encoding="utf-8"?>
<!-- Generator: Adobe Illustrator 28.4.1, SVG Export Plug-In . SVG Version: 6.00 Build 0)  -->
<svg version="1.1" id="Layer_1" xmlns="http://www.w3.org/2000/svg" xmlns:xlink="http://www.w3.org/1999/xlink" x="0px" y="0px"
	 viewBox="0 0 48 48" style="enable-background:new 0 0 48 48;" xml:space="preserve">
<g>
	<path d="M12.9,23.2c0-2.7-0.1-5-0.2-7.1h4.2l0.3,4.4h0.1c1.3-2.5,4.4-5,8.7-5c3.7,0,9.3,2.2,9.3,11.2v15.7h-4.8V27.2
		c0-4.3-1.6-7.8-6.1-7.8c-3.2,0-5.6,2.2-6.4,4.9c-0.2,0.6-0.3,1.4-0.3,2.2v15.9h-4.8V23.2z M17.4,11.5c-0.1-3.5,1.4-5.7,3.7-5.7
		c1.2,0,2.1,0.5,3.4,1.2C25.3,7.5,26.1,8,26.7,8c0.9,0,1.4-0.5,1.5-2.3h2.6c0.1,3.7-1.2,5.5-3.8,5.5c-1.1,0-2.2-0.5-3.3-1.1
		c-1.1-0.7-1.7-1-2.3-1c-0.9,0-1.3,0.9-1.4,2.5H17.4z"/>
</g>
</svg>
