<?xml version="1.0" encoding="utf-8"?>
<!-- Generator: Adobe Illustrator 25.1.0, SVG Export Plug-In . SVG Version: 6.00 Build 0)  -->
<svg version="1.1" id="Layer_1" xmlns="http://www.w3.org/2000/svg" xmlns:xlink="http://www.w3.org/1999/xlink" x="0px" y="0px"
	 viewBox="0 0 500 500" style="enable-background:new 0 0 500 500;" xml:space="preserve">
<style type="text/css">
	.st0{fill:#FFFFFF;}
</style>
<g>
	<path d="M301.01,229.11c28.14-7.57,55.25-14.87,82.87-22.31c-1.44-5.42-2.79-10.47-4.26-16.03c-8.61,2.27-16.78,4.39-24.93,6.58
		c-25.58,6.86-51.18,13.59-76.69,20.7c-6.5,1.81-12.09-1.11-18.06-2.02c-0.96-0.15-1.88-2.5-2.28-3.98
		c-4.97-18.15-9.83-36.34-14.73-54.51c-0.38-1.42-0.86-2.81-1.45-4.75c-33.93,9.09-67.63,18.11-101.93,27.3
		c2.34,8.82,4.59,17.29,6.84,25.76c2.71,10.14,5.52,20.25,8.05,30.44c0.39,1.57,0.08,4.15-0.96,5.11
		c-8.18,7.52-16.61,14.77-25.43,22.51c-9.96-37.1-19.97-74.38-30.11-112.15c-12.93,3.47-25.4,6.82-38.41,10.31
		c1.59,6.13,3.05,11.88,4.59,17.62c11.93,44.57,23.9,89.13,35.75,133.72c0.6,2.28,0.47,4.88,0.12,7.26
		c-1.74,11.97-3.66,23.91-5.61,36.41C75.94,288.29,57.53,219.64,38.95,150.3c18.12-4.89,36.04-9.72,54.59-14.73
		c-3.94-14.9-7.79-29.46-11.8-44.63c95.01-25.46,189.7-50.83,285-76.37c1.04,3.53,2.07,6.79,2.95,10.09
		c21.03,78.51,42.05,157.02,63.08,235.52c7.25,27.08-5.75,49.95-32.73,57.45c-8.16,2.27-16.36,4.4-24.44,6.56
		c-4.59-12.18-9.07-24.06-13.74-36.45c13.12-3.55,26.55-7.19,40.75-11.03c-1.4-5.31-2.73-10.34-4.22-16
		c-10.15,2.64-19.91,5.16-29.67,7.73c-4.67,1.23-9.28,2.7-13.99,3.76c-1.33,0.3-3.48,0.03-4.26-0.86
		c-4.05-4.57-7.77-9.43-12.06-14.76c18.44-4.98,36.45-9.85,54.88-14.82c-1.45-5.42-2.78-10.36-4.16-15.54
		c-1.14,0.09-2.12,0.01-3.01,0.25c-19.95,5.32-39.88,10.73-59.87,15.92c-1.77,0.46-4.23,0-5.83-0.95
		C314.12,237.71,308.06,233.64,301.01,229.11z M265.37,92.41c0.21-0.07,0.41-0.14,0.62-0.21c3.38,6.59,6.75,13.18,10.15,19.76
		c6.36,12.32,6.32,12.17,19.77,8.51c3.3-0.9,4.08-2.36,3.99-5.53c-0.47-16.81-0.72-33.62-1.08-50.43c-0.02-1.07-0.3-2.14-0.5-3.53
		c-3.6,0.93-6.77,1.95-10.01,2.52c-3.16,0.55-3.92,2.21-3.69,5.19c0.44,5.81,0.53,11.64,0.8,17.46c0.3,6.48,0.63,12.95,1.02,20.76
		c-5.38-10.41-10.09-19.55-14.83-28.67c-4.66-8.98-4.64-8.83-14.33-6.41c-3.19,0.8-4.3,2.08-4.09,5.42
		c0.58,9.47,0.79,18.96,1.19,28.44c0.11,2.67,0.38,5.33,0.58,7.99c-6.47-10.67-11.95-21.47-17.67-32.15
		c-0.75-1.4-2.85-3.2-4.06-3.02c-3.85,0.56-7.57,1.96-11.76,3.16c1.08,2.13,1.83,3.76,2.69,5.32c6.26,11.37,12.57,22.71,18.8,34.1
		c6.48,11.84,6.41,11.73,19.65,8.32c3.41-0.88,4.55-2.19,4.31-5.73C266.2,113.26,265.86,102.83,265.37,92.41z M186.55,149.64
		c-4.96-18.47-9.81-36.52-14.73-54.86c-4.77,1.33-8.85,2.46-13.18,3.66c3.39,12.44,6.62,24.27,9.85,36.11
		c-0.38,0.33-0.76,0.66-1.14,0.99c-0.93-1.38-1.7-2.9-2.8-4.12c-7.51-8.25-15.05-16.48-22.69-24.61c-1.14-1.21-3.09-2.84-4.33-2.59
		c-5.95,1.18-11.79,2.95-17.93,4.57c5.02,18.68,9.84,36.58,14.75,54.85c4.67-1.25,8.61-2.32,13.14-3.53
		c-3.48-12.63-6.81-24.74-10.14-36.85c1.69,0.59,2.64,1.88,3.71,3.05c7.85,8.62,15.68,17.27,23.66,25.77
		c1.07,1.14,3.15,2.37,4.46,2.1C174.82,153.01,180.37,151.3,186.55,149.64z M370.23,155.76c-36.57,9.8-72.46,19.43-108.72,29.15
		c1.53,5.71,2.88,10.75,4.32,16.11c36.54-9.8,72.44-19.43,108.68-29.14C373.03,166.28,371.72,161.33,370.23,155.76z M365.22,136.9
		c-1.58-5.81-2.96-10.86-4.39-16.1c-36.63,9.83-72.51,19.46-108.72,29.18c1.57,5.78,2.91,10.71,4.37,16.07
		C292.77,156.32,328.68,146.7,365.22,136.9z M313.92,99.32c0.99,3.64,1.63,6.92,2.83,9.99c0.47,1.2,2.12,2.6,3.36,2.73
		c9.25,0.92,18.02-0.85,25.55-6.44c5.47-4.05,7.91-9.74,6.58-16.7c-1.33-6.93-5.41-11.31-12.24-12.97c-4.2-1.02-8.56-1.5-12.67-2.79
		c-1.91-0.6-3.39-2.53-5.07-3.86c1.65-1.41,3.14-3.71,4.98-4.05c4.34-0.8,8.85-0.67,13.9-0.96c0.41-3.62,0.84-7.49,1.33-11.89
		c-10.66-1.26-20.42-0.56-28.98,5.74c-5.45,4.01-7.48,9.51-5.81,16.31c1.63,6.67,5.72,10.8,12.25,12.45
		c4.35,1.1,8.88,1.55,13.15,2.87c1.72,0.53,2.96,2.6,4.41,3.97c-1.39,1.46-2.55,3.33-4.23,4.27c-1.66,0.93-3.83,1.18-5.79,1.26
		C323.2,99.44,318.9,99.32,313.92,99.32z M216.31,82.9c-11.09,2.98-21.63,5.8-32.57,8.74c4.94,18.43,9.75,36.38,14.69,54.84
		c10.99-2.94,21.54-5.77,32.55-8.71c-1.12-4.16-2.13-7.92-3.21-11.97c-6.14,1.57-11.71,3-17.72,4.55c-0.95-3.56-1.77-6.69-2.7-10.16
		c5.69-1.6,10.87-3.06,16.32-4.59c-1.18-4.3-2.17-7.89-3.22-11.72c-5.73,1.47-10.83,2.78-16.25,4.18c-0.86-2.94-1.59-5.44-2.45-8.36
		c6.02-1.71,11.68-3.32,17.64-5.01C218.33,90.63,217.42,87.12,216.31,82.9z"/>
	<path d="M299.02,414.4c-19.26-2.65-37.66-5.18-56.56-7.78c0-14.63,0-29.97,0-45.48c21.36,0,42.41,0,63.92,0
		C306.14,379.61,303.71,397.41,299.02,414.4z"/>
	<path d="M242.38,304.46c18.99-2.6,37.39-5.12,56.37-7.72c4.91,16.77,7.16,34.6,7.69,53.19c-21.44,0-42.6,0-64.06,0
		C242.38,334.53,242.38,319.3,242.38,304.46z"/>
	<path d="M175.1,296.74c19.19,2.62,37.6,5.14,56.39,7.7c0,14.66,0,29.9,0,45.53c-21.23,0-42.26,0-63.92,0
		C167.73,331.61,170.41,313.83,175.1,296.74z"/>
	<path d="M167.54,361.04c21.66,0,42.57,0,63.87,0c0,15.37,0,30.59,0,45.59c-18.61,2.56-37.27,5.12-56.51,7.76
		C170.24,397.55,167.78,379.76,167.54,361.04z"/>
	<path d="M163.89,292.74c-2.74,19.06-5.46,37.94-8.25,57.27c-15.44,0-31.65,0-48.48,0c1.16-26.16,9.48-49.47,24.43-70.51
		C142.88,284.13,153.75,288.58,163.89,292.74z"/>
	<path d="M310.05,292.72c10.12-4.15,20.85-8.55,32.2-13.2c15.01,20.79,23.07,44.18,24.51,70.47c-16.69,0-32.9,0-48.52,0
		C315.51,330.92,312.82,312.06,310.05,292.72z"/>
	<path d="M366.83,361.16c-1.36,25.32-8.98,47.89-23.09,68.23c-0.66,0.95-2.89,1.8-3.87,1.4c-10.15-4.11-20.2-8.49-29.61-12.51
		c2.66-18.92,5.31-37.8,8.03-57.12C333.76,361.16,349.99,361.16,366.83,361.16z"/>
	<path d="M107.2,360.84c16.14,0,31.45-0.01,46.76,0.01c0.79,0,1.59,0.21,1.67,0.22c2.71,19.31,5.36,38.18,8.05,57.34
		c-9.92,4.07-20.64,8.47-32.03,13.15C116.75,410.79,108.55,387.45,107.2,360.84z"/>
	<path d="M242.32,484.95c0-22.22,0-44.16,0-66.81c18.01,0.34,35.47,2.67,52.68,7.24C288.59,451.86,264.22,485.25,242.32,484.95z"/>
	<path d="M178.37,425.59c17.57-4.89,34.96-6.95,53.03-7.5c0,22.36,0,44.4,0,67.34c-2.83-0.58-5.58-0.8-8.07-1.73
		c-8.79-3.28-15.87-9.05-21.95-16.04C190.74,455.45,183.65,441.31,178.37,425.59z"/>
	<path d="M295.16,286.74c-17.51,2.42-34.83,4.82-52.73,7.29c0-23.5,0-45.51,0-67.54C265.25,227.91,287.55,259.05,295.16,286.74z"/>
	<path d="M178.93,285.77c8.01-27.46,29.64-57.79,52.63-59.31c0,21.94,0,43.86,0,66.47C213.7,292.67,196.39,290.21,178.93,285.77z"/>
	<path d="M335.67,271.17c-10.36,4.14-19.83,7.93-29.78,11.91c-7.06-19.11-15.64-36.4-29.37-50.79
		C299.67,239.27,318.91,252.08,335.67,271.17z"/>
	<path d="M168.07,283.13c-10.09-4.06-19.58-7.87-29.87-12c16.6-19.08,35.99-31.69,59.12-38.83
		C183.83,246.69,175.05,263.72,168.07,283.13z"/>
	<path d="M306.05,428.01c10.08,4.08,19.53,7.91,29.68,12.02c-16.22,18.6-35.18,31.11-57.87,38.37
		C290.69,463.94,299.4,447.23,306.05,428.01z"/>
	<path d="M196.33,478.52c-22.73-7.15-41.74-19.78-58.05-38.54c10.11-4.1,19.43-7.87,29.39-11.91
		C174.66,446.75,182.92,464.04,196.33,478.52z"/>
	<path class="st0" d="M265.37,92.41c0.49,10.42,0.83,20.85,1.54,31.25c0.24,3.54-0.9,4.86-4.31,5.73
		c-13.24,3.41-13.17,3.53-19.65-8.32c-6.23-11.39-12.54-22.73-18.8-34.1c-0.86-1.57-1.62-3.19-2.69-5.32
		c4.19-1.19,7.91-2.6,11.76-3.16c1.21-0.18,3.31,1.62,4.06,3.02c5.71,10.68,11.19,21.49,17.67,32.15c-0.2-2.66-0.47-5.33-0.58-7.99
		c-0.4-9.48-0.61-18.97-1.19-28.44c-0.2-3.33,0.91-4.62,4.09-5.42c9.69-2.42,9.67-2.57,14.33,6.41c4.74,9.12,9.45,18.26,14.83,28.67
		c-0.38-7.81-0.72-14.29-1.02-20.76c-0.27-5.82-0.37-11.65-0.8-17.46c-0.22-2.98,0.54-4.63,3.69-5.19
		c3.25-0.57,6.41-1.59,10.01-2.52c0.2,1.39,0.48,2.45,0.5,3.53c0.36,16.81,0.61,33.63,1.08,50.43c0.09,3.17-0.69,4.63-3.99,5.53
		c-13.45,3.67-13.42,3.81-19.77-8.51c-3.4-6.58-6.77-13.18-10.15-19.76C265.78,92.26,265.58,92.34,265.37,92.41z"/>
	<path class="st0" d="M186.55,149.64c-6.18,1.66-11.73,3.37-17.4,4.53c-1.31,0.27-3.38-0.95-4.46-2.1
		c-7.98-8.5-15.81-17.15-23.66-25.77c-1.07-1.18-2.02-2.47-3.71-3.05c3.33,12.11,6.67,24.22,10.14,36.85
		c-4.53,1.22-8.48,2.28-13.14,3.53c-4.91-18.27-9.73-36.17-14.75-54.85c6.14-1.63,11.98-3.39,17.93-4.57
		c1.24-0.25,3.19,1.38,4.33,2.59c7.65,8.13,15.18,16.36,22.69,24.61c1.11,1.22,1.88,2.74,2.8,4.12c0.38-0.33,0.76-0.66,1.14-0.99
		c-3.23-11.83-6.45-23.66-9.85-36.11c4.34-1.2,8.41-2.33,13.18-3.66C176.75,113.12,181.6,131.17,186.55,149.64z"/>
	<path class="st0" d="M313.92,99.32c4.98,0,9.28,0.12,13.57-0.05c1.96-0.08,4.14-0.33,5.79-1.26c1.68-0.94,2.84-2.81,4.23-4.27
		c-1.46-1.37-2.7-3.44-4.41-3.97c-4.27-1.32-8.8-1.77-13.15-2.87c-6.54-1.65-10.62-5.79-12.25-12.45
		c-1.67-6.81,0.36-12.3,5.81-16.31c8.56-6.3,18.32-7.01,28.98-5.74c-0.49,4.4-0.93,8.27-1.33,11.89c-5.06,0.28-9.57,0.15-13.9,0.96
		c-1.85,0.34-3.33,2.64-4.98,4.05c1.68,1.33,3.16,3.26,5.07,3.86c4.11,1.29,8.46,1.77,12.67,2.79c6.84,1.66,10.91,6.04,12.24,12.97
		c1.34,6.96-1.11,12.65-6.58,16.7c-7.54,5.58-16.31,7.36-25.55,6.44c-1.23-0.12-2.89-1.53-3.36-2.73
		C315.55,106.24,314.91,102.96,313.92,99.32z"/>
	<path class="st0" d="M216.31,82.9c1.11,4.23,2.02,7.73,3.08,11.76c-5.96,1.69-11.62,3.3-17.64,5.01c0.86,2.92,1.59,5.42,2.45,8.36
		c5.43-1.4,10.52-2.71,16.25-4.18c1.05,3.83,2.04,7.42,3.22,11.72c-5.45,1.53-10.62,2.99-16.32,4.59c0.92,3.48,1.75,6.6,2.7,10.16
		c6.02-1.54,11.59-2.97,17.72-4.55c1.09,4.05,2.1,7.81,3.21,11.97c-11.02,2.95-21.57,5.77-32.55,8.71
		c-4.95-18.46-9.75-36.4-14.69-54.84C194.68,88.7,205.22,85.87,216.31,82.9z"/>
</g>
</svg>
