<?xml version="1.0" encoding="utf-8"?>
<!-- Generator: Adobe Illustrator 25.1.0, SVG Export Plug-In . SVG Version: 6.00 Build 0)  -->
<svg version="1.1" id="Icon" xmlns="http://www.w3.org/2000/svg" xmlns:xlink="http://www.w3.org/1999/xlink" x="0px" y="0px"
	 viewBox="0 0 48 48" style="enable-background:new 0 0 48 48;" xml:space="preserve">
<style type="text/css">
	.st0{fill:url(#SVGID_1_);}
	.st1{fill:#020202;}
	.st2{fill:#FC0101;}
</style>
<linearGradient id="SVGID_1_" gradientUnits="userSpaceOnUse" x1="-1033.4739" y1="22.2632" x2="-1033.4739" y2="15.6415" gradientTransform="matrix(7.2338 0 0 -7.2338 7499.8428 161.1473)">
	<stop  offset="2.663895e-07" style="stop-color:#E6E8F5"/>
	<stop  offset="1" style="stop-color:#AEA4A1"/>
</linearGradient>
<path class="st0" d="M47.9,42c0,3.3-2.7,6-6,6h-36c-3.3,0-6-2.7-6-6V6.1c0-3.3,2.7-6,6-6h36c3.3,0,6,2.7,6,6V42z"/>
<g>
	<path class="st1" d="M3.8,27.3c0.1,2,0.3,3.9,0.9,5.8c0.2,0.7,0.2,0.7,0.9,0.5c2.9-0.9,5.7-0.6,8.5,0.5c2.9,1.2,5.8,2.2,8.8,3.3
		c0.6,0.2,1.2,0.2,1.8-0.1c6.1-3,12.3-6,18.5-9c0.7-0.4,1.2-0.9,1.1-1.7c0-0.7-0.5-1.3-1.2-1.5c-0.5-0.2-0.9-0.1-1.4,0.1
		c-3.8,1.9-7.7,3.6-11.4,5.6c-1.4,0.7-2.6,0.9-4.1,0.3c-1.6-0.6-3.2-1-5-1.2c-1.1-0.1-2.3,0.1-3.4,0.2c-0.5,0-0.9,0-1.4,0.1
		c-0.2,0-0.4-0.1-0.4-0.4c0-0.2,0.2-0.4,0.4-0.4c1.5,0.1,2.9-0.3,4.4-0.3c1.7,0.1,3.4,0.5,5,1c0.6,0.2,1.2,0.4,1.8,0.5
		c1,0.3,1.9-0.3,2.1-1.2c0.2-0.9-0.3-1.8-1.3-2.1c-1.6-0.5-3.3-1-4.9-1.5c-1.5-0.5-3-0.9-4.5-1.3c-1.1-0.3-2.1-0.7-3.2-1
		c-0.6-0.2-1.2-0.2-1.8-0.1c-1.4,0.2-2.8,0.6-4.1,0.8C8,24.6,6.2,25,4.3,25.4c-0.3,0.1-0.4,0.2-0.5,0.5C3.8,26.3,3.8,26.8,3.8,27.3z
		"/>
	<path class="st2" d="M22.9,13.9c-0.3-0.5-0.6-1-1-1.4c-2.7-3.1-7.6-2.2-9.6,1c-1.5,2.4-1.4,4.9-0.2,7.4c0.3,0.6,0.7,1.2,1.1,1.7
		c0.1,0.1,0.2,0.3,0.4,0.2c1.1-0.4,2.1,0,3.2,0.3c2,0.6,3.9,1.2,5.9,1.8c1.7,0.5,3.4,1,5.2,1.6c0.3,0.1,0.6,0.1,0.9-0.1
		c2-1.4,3.8-3,4.9-5.2c1.3-2.5,1.5-5,0-7.6c-2-3.5-7.6-4.4-10.4-0.2C23.1,13.5,23,13.7,22.9,13.9z"/>
	<path class="st1" d="M30.4,29.8c2.2-1.1,4.4-2.1,6.6-3.2c0.7-0.3,1.3-0.6,2-0.9c0.3-0.1,0.3-0.2,0.1-0.5c-0.4-0.7-1.2-1.1-2-0.7
		c-1,0.4-1.9,0.9-2.8,1.4c-1,0.5-2.1,1-3.1,1.5c-0.1,0-0.2,0.1-0.3,0.1c-0.5,0.1-0.7,0.4-0.4,0.9C30.6,28.9,30.5,29.3,30.4,29.8z"/>
	<path class="st1" d="M29.2,26.9c0.3,0.5,0.7,0.3,1.1,0.1c1-0.5,2.1-1,3.1-1.5c0.4-0.2,0.3-0.3,0-0.5c-0.7-0.6-1.6-0.4-2.3,0.3
		c-0.5,0.5-1.1,0.9-1.6,1.3C29.5,26.7,29.3,26.7,29.2,26.9z"/>
</g>
</svg>
