<?xml version="1.0" encoding="utf-8"?>
<!-- Generator: Adobe Illustrator 22.0.0, SVG Export Plug-In . SVG Version: 6.00 Build 0)  -->
<svg version="1.1" id="Layer_1" xmlns="http://www.w3.org/2000/svg" xmlns:xlink="http://www.w3.org/1999/xlink" x="0px" y="0px"
	 viewBox="0 0 612 612" style="enable-background:new 0 0 612 612;" xml:space="preserve">
<style type="text/css">
	.st0{fill:#E2E5E7;}
	.st1{fill:#F15844;}
	.st2{fill:#B1B8BE;}
	.st3{fill:#CBD2D9;}
	.st4{fill:#FFF9F7;}
</style>
<g>
	<path class="st0" d="M132.8,288.5c0-74.3,0-148.6,0-222.9c0-4.9-1.2-9.7,0.6-14.8c3.9-10.9,11.2-18.2,22-22.1c4.7-1.7,9.7-2,14.8-2
		c78.4,0.1,156.8,0,235.3,0.1c1.9,0,4-0.7,5.7,0.7c-1.5,1.5-0.9,3.5-0.9,5.2c0,17.4-0.2,34.7,0,52.1c0.2,16.9-1.2,33.8,0.8,50.6
		c1.7,13.9,9.6,23.2,22.4,28.6c4.3,1.8,9,1.4,13.3,2.7c0,1.8,1.3,2.7,2.4,3.7c3.4,3.5,6.9,6.9,10.4,10.4
		c20.7,20.4,41.1,41.2,61.9,61.4c7.8,7.6,15.5,15.5,23,23.5c0.9,1,2,2.4,3.4,1.7c1.2-0.6,0.5-2.2,0.5-3.3c0-32.5,0-65,0-97.5
		c0.4-0.3,0.7-0.6,1.1-0.9c1.4,1.4,0.8,3.2,0.8,4.8c0,125.9,0,251.8,0,377.7c0,10.2-3.2,19.6-10.6,26.7c-6.7,6.5-15,10.2-24.5,10.2
		c-116.6,0-233.2,0-349.8,0c-16.1,0-31.5-13.7-33.4-29.9c-0.3-2.9,0.7-6,0.7-9c0.1-10.2,0.1-20.4,0.1-30.7c109.8,0,219.6,0,329.5,0
		c7.5,0,14.8-4.9,17-12c1.7-5.4,3.1-11.1,0-16.6c1.2-4.6,1.2-9.3,1.2-14.1c0-54.3,0-108.6,0-162.9c0-15-6.4-21.5-21.3-21.5
		c-106.8,0-213.6,0-320.4,0C136.8,288.6,134.8,288.5,132.8,288.5z"/>
	<path class="st1" d="M132.8,288.5c2,0.1,4,0.2,5.9,0.2c106.8,0,213.6,0,320.4,0c14.9,0,21.3,6.5,21.3,21.5c0,54.3,0,108.6,0,162.9
		c0,4.7,0,9.4-1.2,14.1c-4.6,8.5-12,11.1-21.3,11.1c-106.4-0.1-212.9-0.1-319.3-0.1c-2,0-4,0.1-5.9,0.2c-16.8-0.1-33.5-0.2-50.3-0.2
		c-14.1,0-21-6.9-21-21.1c0-55.8,0-111.6,0-167.5c0-14.2,6.7-20.9,21-20.9C99.3,288.6,116.1,288.5,132.8,288.5z M231.5,397.7
		c0,12.5-0.1,25,0,37.5c0,7.2,3.1,10.5,10.3,10.5c11.7,0.1,23.5,0.2,35.2-0.1c6.9-0.2,13.6-1.8,19.7-5.3c16.1-9.2,23-23.7,23.8-41.6
		c1.2-25.6-15.9-46.5-41.1-49.2c-12.7-1.4-25.6-0.6-38.4-0.3c-6.3,0.1-9.5,4-9.5,10.5C231.5,372.4,231.5,385.1,231.5,397.7z
		 M137.5,396.7c0,1.7,0,3.4,0,5c0,11.4-0.1,22.9,0.1,34.3c0.1,5.6,4,9.4,9,9.7c4.8,0.2,8.6-3,9.2-8.7c0.5-5.3,0.4-10.6,0.3-16
		c0-2.6,0.9-3.4,3.4-3.4c6.1,0.1,12.2-0.1,18.3,0.1c19.8,0.4,34.7-12.9,35.8-31.9c1-19-9.9-35.4-29.8-37.6
		c-11.2-1.3-22.5-0.4-33.8-0.5c-8.8-0.1-12.5,3.7-12.5,12.5C137.5,372.3,137.5,384.5,137.5,396.7z M339.8,396.7
		c0,13-0.1,25.9,0,38.9c0,6.4,3.9,10.2,9.9,10.1c5.2-0.1,8.4-3.7,8.5-9.9c0.1-7.5,0.3-15-0.1-22.4c-0.2-4.4,0.7-6.1,5.6-5.8
		c10.2,0.4,20.4,0.2,30.7,0c4.7-0.1,8.6-3.5,9.3-7.4c0.6-3.8-2.7-8.6-7.1-10.1c-1.9-0.6-3.9-0.8-5.9-0.8c-9.3,0-18.6-0.2-27.9,0.1
		c-4,0.1-4.9-1.2-4.7-4.9c0.3-4.4,0.3-8.9,0-13.3c-0.2-3.3,0.9-4.1,4.1-4c11.9,0.2,23.8,0.1,35.7,0c6.1-0.1,10.4-3.9,10.6-9.2
		c0.2-5.3-3.3-8.9-9.8-9c-16.2-0.2-32.3-0.2-48.5,0c-7.5,0.1-10.3,3.5-10.3,11C339.8,372.3,339.8,384.5,339.8,396.7z"/>
	<path class="st2" d="M549.6,166c-0.4,0.3-0.7,0.6-1.1,0.9c-33.9,0-67.7,0-101.6,0c-4.4-1.3-9-0.9-13.3-2.7
		c-12.8-5.4-20.7-14.7-22.4-28.6c-2-16.8-0.6-33.8-0.8-50.6c-0.2-17.4-0.1-34.7,0-52.1c0-1.8-0.6-3.7,0.9-5.2
		c14.6,14.5,29.2,29,43.8,43.5c30.4,30.4,60.8,60.8,91.2,91.2C547.4,163.4,548.5,164.7,549.6,166z"/>
	<path class="st3" d="M132.8,498.3c2-0.1,4-0.2,5.9-0.2c106.4,0,212.9-0.1,319.3,0.1c9.3,0,16.7-2.6,21.3-11.1
		c3.1,5.5,1.7,11.2,0,16.6c-2.2,7.2-9.5,12-17,12c-109.8,0-219.6,0-329.5,0C132.8,509.9,132.8,504.1,132.8,498.3z"/>
	<path class="st3" d="M446.9,166.9c33.9,0,67.7,0,101.6,0c0,32.5,0,65,0,97.5c0,1.1,0.7,2.8-0.5,3.3c-1.4,0.7-2.5-0.8-3.4-1.7
		c-7.5-8-15.2-15.9-23-23.5c-20.9-20.2-41.2-41-61.9-61.4c-3.5-3.4-6.9-6.9-10.4-10.4C448.2,169.5,446.9,168.6,446.9,166.9z"/>
	<path class="st4" d="M231.5,397.7c0-12.7,0-25.3,0-38c0-6.5,3.2-10.4,9.5-10.5c12.8-0.3,25.7-1,38.4,0.3
		c25.1,2.7,42.3,23.6,41.1,49.2c-0.9,17.9-7.8,32.4-23.8,41.6c-6.1,3.5-12.7,5.2-19.7,5.3c-11.7,0.3-23.5,0.2-35.2,0.1
		c-7.1-0.1-10.2-3.3-10.3-10.5C231.5,422.7,231.5,410.2,231.5,397.7z M250.1,397.4c0,9.1,0,18.3,0,27.4c0,1.5-0.7,3.8,2,3.7
		c9.4-0.1,19,1.2,28.2-1c15.5-3.7,24.6-20.9,20.8-38c-3.3-14.5-12.7-22.5-27.6-23.2c-6.5-0.3-13.1,0.1-19.6-0.2
		c-3-0.1-3.9,0.8-3.9,3.8C250.2,379.1,250.1,388.3,250.1,397.4z"/>
	<path class="st4" d="M137.5,396.7c0-12.2,0-24.4,0-36.6c0-8.8,3.7-12.6,12.5-12.5c11.3,0.1,22.6-0.7,33.8,0.5
		c20,2.2,30.9,18.6,29.8,37.6c-1,19-15.9,32.3-35.8,31.9c-6.1-0.1-12.2,0.1-18.3-0.1c-2.6-0.1-3.5,0.8-3.4,3.4
		c0.1,5.3,0.2,10.7-0.3,16c-0.6,5.7-4.4,9-9.2,8.7c-5.1-0.3-8.9-4-9-9.7c-0.2-11.4-0.1-22.9-0.1-34.3
		C137.5,400.1,137.5,398.4,137.5,396.7z M156.3,382.7c0,4.7,0.1,9.5,0,14.2c-0.1,2.3,0.6,3.3,3,3.3c6.6-0.1,13.1,0.1,19.7-0.1
		c9.9-0.4,16.9-7.5,17-16.8c0-9.9-7-17.3-17.1-17.7c-6.4-0.2-12.8,0.1-19.2-0.1c-2.7-0.1-3.4,1-3.4,3.5
		C156.4,373.5,156.3,378.1,156.3,382.7z"/>
	<path class="st4" d="M339.8,396.7c0-12.2,0-24.4,0-36.6c0-7.5,2.9-10.9,10.3-11c16.2-0.2,32.3-0.2,48.5,0c6.5,0.1,10.1,3.7,9.8,9
		c-0.2,5.3-4.5,9.1-10.6,9.2c-11.9,0.1-23.8,0.1-35.7,0c-3.2,0-4.3,0.8-4.1,4c0.3,4.4,0.3,8.9,0,13.3c-0.3,3.7,0.7,5,4.7,4.9
		c9.3-0.3,18.6-0.1,27.9-0.1c2,0,4,0.2,5.9,0.8c4.4,1.5,7.7,6.3,7.1,10.1c-0.6,3.9-4.5,7.3-9.3,7.4c-10.2,0.2-20.5,0.4-30.7,0
		c-4.9-0.2-5.8,1.4-5.6,5.8c0.4,7.5,0.2,14.9,0.1,22.4c-0.1,6.2-3.3,9.8-8.5,9.9c-6,0.1-9.8-3.7-9.9-10.1
		C339.7,422.6,339.8,409.7,339.8,396.7z"/>
	<path class="st1" d="M250.1,397.4c0-9.1,0.1-18.3-0.1-27.4c-0.1-3,0.8-3.9,3.9-3.8c6.5,0.2,13.1-0.1,19.6,0.2
		c14.9,0.6,24.3,8.6,27.6,23.2c3.8,17.1-5.3,34.3-20.8,38c-9.2,2.2-18.8,0.9-28.2,1c-2.7,0-2-2.2-2-3.7
		C250,415.7,250.1,406.6,250.1,397.4z"/>
	<path class="st1" d="M156.3,382.7c0-4.6,0.1-9.2,0-13.7c-0.1-2.5,0.7-3.5,3.4-3.5c6.4,0.2,12.8-0.1,19.2,0.1
		c10.1,0.3,17.2,7.7,17.1,17.7c0,9.3-7.1,16.4-17,16.8c-6.5,0.2-13.1,0-19.7,0.1c-2.5,0-3.1-1-3-3.3
		C156.4,392.2,156.3,387.4,156.3,382.7z"/>
</g>
</svg>
