<?xml version="1.0" encoding="utf-8"?>
<!-- Generator: Adobe Illustrator 26.5.0, SVG Export Plug-In . SVG Version: 6.00 Build 0)  -->
<svg version="1.1" id="Layer_1" xmlns="http://www.w3.org/2000/svg" xmlns:xlink="http://www.w3.org/1999/xlink" x="0px" y="0px"
	 viewBox="0 0 1080 1080" style="enable-background:new 0 0 1080 1080;" xml:space="preserve">
<style type="text/css">
	.st0{fill:#3BFF0A;}
</style>
<path class="st0" d="M694.5,1004.2c-18.8,0-37.5,0-56.2,0c0-27.9,0-55.9,0-84.2c9.8,0,19.1,0,28.3,0c0-9.6,0-18.8,0-28.4
	c-9.5,0-18.8,0-28.4,0c0-9.5,0-18.6,0-27.7c9.4,0,18.9,0,28.5,0c0-9.8,0-19.1,0-28.5c9.2,0,18.4,0,27.6,0c0-9.7,0-19,0-28.2
	c-9.3,0-18.3,0-27.5,0c0,9.6,0,19,0,28.3c-9.5,0-19.1,0-28.6,0c0-9.4,0-18.9,0-28.3c-19,0-37.5,0-56,0c0,47,0,93.7,0,140.8
	c9.5,0,18.8,0,28.3,0c0,19,0,37.6,0,56.2c-9.5,0-19,0-28.5,0c0-9.2,0-18.4,0-27.8c-9.6,0-18.7,0-27.8,0l0.1,0.1
	c0-18.7,0-37.4,0-56.4c-9.8,0-19.1,0-28.3,0c0-9.7,0-19,0-28.5c9.5,0,18.7,0,28,0c0-9.3,0-18.3,0-27.7c-18.8,0-37.3,0-56.1,0
	c0-9.7,0-19.1,0-28.4c18.7,0,37.4,0,56.5,0c0-28.5,0-56.5,0-84.5c9.3,0,18.3,0,27.7,0c0,9.5,0,18.8,0,28.1c56.4,0,112.5,0,168.9,0
	c0-28.3,0-56.3,0-84.3c9.6,0,18.8,0,28.4,0c0,9.5,0,18.8,0,28.2c9.5,0,18.6,0,27.7,0c0,9.2,0,18.4,0,27.8c28.6,0,56.7,0,84.8,0
	c0,9.4,0,18.9,0,28.7c18.9,0,37.4,0,56.3,0c0,9.4,0,18.4,0,27.6c9.7,0,19.1,0,28.4,0c0,19,0,38.1,0,57.1c-9.4,0-18.9,0-28.7,0
	c0-9.8,0-19.1,0-28.7c-9.4,0-18.3,0-27.7,0c0-9.6,0-18.9,0-28.1c-9.7,0-19,0-28.2,0c0,28.2,0,56.2,0,84.2c28.2,0,56.3,0,84.5,0
	c0-9.4,0-18.5,0-27.6c9.3,0,18.5,0,27.8,0.1c0,28,0,56,0,84c-18.7,0-37.4,0-56.3,0c0-9.5,0-18.4,0-27.5c-18.8,0-37.4,0-56.2,0
	c0,28.1,0,55.9,0,83.8c-18.8,0-37.5,0-56.2,0c0-27.9,0-55.8,0-84.1c-9.7,0-19,0-28.7,0c0-9.7,0-19,0-28.3c-19,0-37.6,0-56.1,0
	c0-28.2,0-56.4,0-84.5c-9.4,0-18.5,0-27.6,0c0,28.4,0,56.4,0,84.5c-9.4,0-18.9,0-28.3,0c0,9.7,0,19,0,28.4c9.6,0,19,0,28.3,0
	c0,9.3-0.1,18.6-0.1,27.9l0.1-0.1c-9.4,0-18.9,0-28.6,0C694.5,967.1,694.5,985.7,694.5,1004.2z M863.7,863.8c0-28.3,0-56.4,0-84.3
	c-28.3,0-56.3,0-84.3,0c0,28.2,0,56.2,0,84.3C807.6,863.8,835.5,863.8,863.7,863.8z"/>
<path class="st0" d="M554.2,1004.2c-47,0-94,0-141,0c0-9.2,0-18.4,0-27.8c-9.6,0-18.7,0-27.8,0l0.1,0.1c0-9.4,0-18.9,0-28.7
	c9.5,0,18.5,0,27.9,0c0-9.4,0-18.3,0-27.3c9.6,0,18.9,0,28.4,0c0,18.7,0,37.2,0,55.8c9.3,0,18.4,0,27.8,0c0-9.5,0-18.8,0-28.1
	c18.9,0,37.3,0,56.2,0c0,9.5,0,18.8,0,28.4c9.8,0,19.1,0,28.5,0l-0.1-0.1C554.2,985.7,554.2,995,554.2,1004.2z"/>
<path class="st0" d="M722.9,948.1c27.8,0,55.7,0,84.1,0c0,18.8,0,37.5,0,56.2c-18.8,0-37.5,0-56.2,0c0-9.2,0-18.3,0-27.9
	c-9.5,0-18.5,0-27.7,0c0-9.7,0-19.1,0-28.4L722.9,948.1z"/>
<path class="st0" d="M976.4,666.7c9.3,0,18.5,0,27.8,0.1c0,28,0,56,0,84c-18.6,0-37.1,0-56,0c0-9.2,0-18.2,0-27.7
	c9.3,0,18.5,0,28.2,0C976.4,704,976.4,685.4,976.4,666.7z"/>
<path class="st0" d="M1004.2,610.5c-18.6,0-37.2,0-56.3,0c0-9.7,0-19.1,0-28.6c18.8,0,37.5,0,56.3,0.1
	C1004.2,591.5,1004.2,601,1004.2,610.5z"/>
<path class="st0" d="M948,1004.2c0-9.1,0-18.2,0-27.5c9.5,0,18.7,0,28.5,0c0,9.2,0,18.3,0,27.5C967,1004.2,957.5,1004.2,948,1004.2z
	"/>
<path class="st0" d="M1004.2,807c-9.3,0-18.5,0-27.8,0.1c0-9.1,0-18.2,0-27.8c9.4,0,18.6,0,27.8,0
	C1004.2,788.5,1004.2,797.8,1004.2,807z"/>
<path class="st0" d="M638.3,835.4c0,9.5,0,19.1,0,28.6c-9.1,0-18.2,0-27.5,0c0-9.5,0-18.8,0-28.6
	C619.9,835.4,629.1,835.4,638.3,835.4z"/>
<path class="st0" d="M891.7,750.8c0-18.6,0-37.2,0-56.4c9.7,0,19.2,0,28.6,0c0,18.6,0,37.2,0,56.4
	C910.6,750.8,901.1,750.8,891.7,750.8z"/>
<path class="st0" d="M947.9,666.8c0-9.3,0-18.7,0-28.3c9.5,0,18.8,0,28.6,0c0,9.4,0,18.9,0,28.3C967,666.8,957.5,666.8,947.9,666.8z
	"/>
<path class="st0" d="M920.2,694.6c0-9.3,0-18.6,0-27.9c9.3,0,18.6,0,27.9,0c0,9.1,0,18.2,0,27.9
	C938.6,694.6,929.4,694.6,920.2,694.6z"/>
<path class="st0" d="M722.9,920.3c0-9.5,0-19.1,0-28.6c9.3,0,18.6,0,27.9,0c0,9.4,0,18.7,0,28.6
	C741.3,920.3,732.1,920.3,722.9,920.3z"/>
<path class="st0" d="M835.4,666.8c0-18.6,0-37.2,0-56.2c18.8,0,37.3,0,56.2,0c0-19.1,0-37.8,0-56.4c18.6,0,37.2,0,56.4,0
	c0,9.5,0,18.7,0,27.9c-9.1,0-18.2,0-27.8,0c0,28.4,0,56.6,0,84.8c-9.4,0-18.7,0-28.5,0c0-9.6,0-18.9,0-28.3c-9.4,0-18.3,0-27.7,0
	c0,9.2,0,18.5,0,28.3C854.3,666.8,844.9,666.8,835.4,666.8z"/>
<path class="st0" d="M441.8,638.2c-9.3,0-18.7,0-28.4,0c0-9.2,0-18.2,0-27.5c-9.3,0-18.3,0-27.5,0c0-9.5,0-18.8,0-28.5
	c8.9,0,17.9,0,27.5,0c0-19.1,0-37.8,0-56.4l-0.1,0.1c9.5,0,19.1,0,28.6,0l-0.1-0.1c0,18.7,0,37.4,0,56.4c9.6,0,18.8,0,27.9,0
	l-0.1-0.1c0,9.4,0,18.9,0,28.7c-9.4,0-18.5,0-27.8,0c0,9.5,0,18.6,0,27.7L441.8,638.2z"/>
<path class="st0" d="M554.2,554.2c0,18.6,0,37.2,0,56.2c18.8,0,37.3,0,56.1,0c0,9.4,0,18.5,0,27.8c-37.5,0-74.9,0-112.3,0l0.1,0.1
	c0-9.2,0-18.4,0-27.9c9.5,0,18.5,0,27.7,0c0-19,0-37.6,0-56.2l-0.1,0.1c9.5,0,19.1,0,28.6,0L554.2,554.2z"/>
<path class="st0" d="M806.9,666.7c9.5,0,19.1,0,28.6,0c0,9.1,0,18.2,0,27.7c9.4,0,18.7,0,28.2,0c0,9.7,0,18.9,0,28.7
	c-19,0-37.9,0-56.8,0C806.9,704.3,806.9,685.5,806.9,666.7z"/>
<path class="st0" d="M666.8,722.9c-18.6,0-37.2,0-56,0c0-9.4,0-18.7,0-28.3c9,0,18,0,27.4,0c0-9.4,0-18.5,0-27.7
	c9.8,0,19.3,0,28.7,0c0,0-0.1-0.1-0.1-0.1c0,18.7-0.1,37.5-0.2,56.2L666.8,722.9z"/>
<path class="st0" d="M666.7,723c9.1,0,18.2,0,27.7,0c0-9.5,0-18.8,0-28.3c9.6,0,18.8,0,28.3,0c0,18.4,0,37,0,55.8
	c-18.4,0-36.9,0-55.9,0c0-9.2,0-18.3,0-27.5C666.8,722.9,666.7,723,666.7,723z"/>
<path class="st0" d="M497.9,638.2c0,9.3,0,18.7,0,28.3c-18.7,0-37.2,0-56.1,0c0-9.4,0-18.9,0-28.3l-0.1,0.1c18.8,0,37.6,0,56.4,0
	L497.9,638.2z"/>
<path class="st0" d="M469.4,779.2c9.5,0,19.1,0,28.6,0c0,18.8,0,37.6,0,56.4c-9.5,0-19.1,0-28.6,0
	C469.4,816.8,469.4,798,469.4,779.2z"/>
<path class="st0" d="M554.2,694.6c9.1,0,18.2,0,27.5,0c0,9.4,0,18.7,0,28.2c-9,0-18,0-27.4,0c0-9.4,0-18.9,0-28.3L554.2,694.6z"/>
<path class="st0" d="M554.3,694.5c-9.3,0-18.7,0-28.3,0c0-9.2,0-18.2,0-27.5c9.2,0,18.5,0,28.2,0c0,9.2,0,18.4,0,27.6
	C554.2,694.6,554.3,694.5,554.3,694.5z"/>
<path class="st0" d="M638.2,554.2c0,9.1,0,18.2,0,27.5c-9.2,0-18.2,0-27.5,0c0-9,0-18,0-27.4c9.2,0,18.4,0,27.6,0
	C638.3,554.3,638.2,554.2,638.2,554.2z"/>
<path class="st0" d="M469.7,920c0-9.5,0-18.6,0-28c9.4,0,18.5,0,28,0c0,9.2,0,18.5,0,28C488.5,920,479.2,920,469.7,920z"/>
<path class="st0" d="M835.3,807.2c0,9.5,0,18.7,0,28.1c-9.4,0-18.6,0-28,0c0-9.3,0-18.6,0-28.1C816.5,807.2,825.8,807.2,835.3,807.2
	z"/>
<path class="st0" d="M385.5,1004.2c-28.2,0-56.5,0-84.8,0c0-18.7,0-37.4,0-56.4c9.8,0,19.1,0,28.3,0c0-9.4,0-18.3,0-27.6
	c-9.5,0-18.8,0-28,0c0-9.7,0-19,0-28.5c9.5,0,18.7,0,28,0c0-18.8,0-37.3,0-56.3c-9.5,0-18.8,0-28.3,0c0-19,0-37.6,0-56.2
	c9.4,0,18.9,0,28.7,0c0,9.6,0,18.6,0,27.9c9.3,0,18.3,0,27.6,0c0,9.5,0,18.8,0,28.5c9.7,0,19,0,28.6,0c0,9.7,0,19,0,28.2
	c9.3,0,18.3,0,27.3,0c0-19,0-37.7,0-56.9c-9.3,0-18.3,0-27.6,0c0-9.5,0-18.6,0-27.7c9.2,0,18.4,0,28,0c0-9.7,0-19,0-28.6
	c9.6,0,18.8,0,28.4,0c0-18.8,0-37.3,0-55.9c18.9,0,37.5,0,56.4,0c0,9.6,0,18.8,0,28.4c9.4,0,18.3,0,27.3,0c0,18.8,0,37.3,0,56.2
	c-9.3,0-18.4,0-27.6,0c0-9.4,0-18.9,0-28.3c-9.7,0-19,0-28.4,0c0,9.6,0,19,0,28.3c-9.2,0-18.4,0-27.5,0c0,18.9,0,37.5,0,56.1
	c9.4,0,18.5,0,27.5,0c0,9.4,0,18.9,0,28.7c-9.6,0-18.6,0-27.9,0c0,9.4,0,18.3,0,27.6c-28.3,0-56.3,0-84.4,0c0,28.4,0,56.4,0,84.7
	c9.6,0,19,0,28.3,0l-0.1-0.1C385.5,985.7,385.5,995,385.5,1004.2z"/>
<path class="st0" d="M273,75.8c0,65.6,0,131.2,0,197.2c-65.9,0-131.6,0-197.2,0c0-65.8,0-131.5,0-197.2
	C141.5,75.8,207.2,75.8,273,75.8z M104.4,244.2c46.8,0,93.3,0,139.8,0c0-46.8,0-93.3,0-139.8c-46.7,0-93.2,0-139.8,0
	C104.4,151.1,104.4,197.5,104.4,244.2z"/>
<path class="st0" d="M75.8,807c65.6,0,131.2,0,197.2,0c0,65.9,0,131.6,0,197.2c-65.8,0-131.5,0-197.2,0
	C75.8,938.5,75.8,872.8,75.8,807z M104.4,976.2c46.8,0,93.3,0,139.8,0c0-47,0-93.8,0-140.5c-46.7,0-93.2,0-139.8,0
	C104.4,882.6,104.4,929.3,104.4,976.2z"/>
<path class="st0" d="M75.8,300.8c18.6,0,37.2,0,56.2,0c0,9.5,0,18.8,0,28.3c9.6,0,18.8,0,28.4,0c0-9.2,0-18.5,0-28
	c9.4,0,18.5,0,27.9,0c0,18.7,0,37.4,0,56l0.1-0.1c-27.9,0-55.9,0-84.1,0c0,9.9,0,19.3,0,28.6l0.1-0.1c-9.5,0-19,0-28.6,0.1
	C75.8,357.2,75.8,329,75.8,300.8z"/>
<path class="st0" d="M385.5,75.8c0,18.6,0,37.2,0,56.1c-18.7,0-37.3,0-56.2,0c0,9.8,0,19.2,0,28.7c-9.3,0-18.7,0-28.3,0
	c0-18.8,0-37.3,0-56.2c18.5,0,37,0,56,0c0-9.8,0-19.2,0-28.6C366.5,75.8,376,75.8,385.5,75.8z"/>
<path class="st0" d="M132.1,694.4c0,18.8-0.1,37.6-0.1,56.3l0.1-0.1c-9.3,0-18.6,0-27.8,0l0.1,0.1c0-9.2,0-18.4,0-27.8
	c-9.9,0-19.2,0-28.6,0c0-9.5,0-19,0-28.5C94.5,694.5,113.3,694.5,132.1,694.4z"/>
<path class="st0" d="M75.8,469.5c18.6,0,37.1,0,56,0c0,9.5,0,18.8,0,28.5c-18.7,0-37.3,0-56,0C75.8,488.5,75.8,479,75.8,469.5z"/>
<path class="st0" d="M104.2,750.7c0,9.3,0,18.7,0,28.6c-9.6,0-19,0-28.4,0c0-9.5,0-19,0-28.5c9.5,0,19,0,28.6,0.1L104.2,750.7z"/>
<path class="st0" d="M75.8,525.8c9.3,0,18.7,0,28.2,0c0,9.5,0,18.7,0,28.5c-9.4,0-18.8,0-28.2,0C75.8,544.8,75.8,535.2,75.8,525.8z"
	/>
<path class="st0" d="M413.3,525.7c-9.1,0-18.2,0-27.7,0c0,9.5,0,18.8,0,28.3c-18.9,0-37.4,0-56.3,0c0-9.5,0-18.9,0-28.3l-0.1,0.1
	c9.2,0,18.4,0,28,0c0-19.1,0-37.6,0-56.4c9.6,0,18.8,0,28.1,0c0-9.3,0-18.3,0-27.8c-9.5,0-18.8,0-28.4,0c0-9.6,0-18.8,0-28.4
	c-9.3,0-18.4,0-27.3,0c0-9.4,0-18.5,0-27.8c18.7,0,37.2,0,55.7,0c0-28.3,0-56.3,0-84.8c-9.5,0-18.8,0-28.5,0c0-28.2,0-56,0-83.7
	c-9.3,0-18.3,0-27.6,0c0,28,0,55.8,0,83.7c-9.8,0-19.1,0-28.5,0l0.1,0.1c0-37.3,0-74.7,0-112.4c9.4,0,18.7,0,28.4,0
	c0-9.6,0-18.8,0-28c9.1,0,18.2,0,27.7,0c0,9.3,0,18.4,0,27.7c9.6,0,18.8,0,28.4,0c0,28.3,0,56.3,0,84.8c9.6,0,18.8,0,28,0
	c0,9.2,0,18.4,0,27.5c19,0,37.5,0,55.9,0c0-18.8,0-37.3,0-55.8c-9.3,0-18.2,0-27.5,0c0,9.5,0,18.8,0,28.3c-9.8,0-19.1,0-28.5,0
	c0-37.3,0-74.7,0-112.3c9.5,0,18.8,0,28.5,0c0,18.5,0,37.1,0,55.8c9.3,0,18.3,0,27.6,0c0-18.5,0-37,0-56c19.1,0,37.8,0,56.5,0
	c0,0-0.1-0.1-0.1-0.1c0,9.2,0,18.4,0,27.9c9.8,0,19.1,0,28.7,0c0,9.7,0,18.9,0,28.4c9.5,0,18.6,0,27.6,0l-0.1-0.1
	c0,9.2,0,18.5,0,27.7c-9.2,0-18.3,0-27.4,0c0,9.9,0,19.2,0,28.4c9.2,0,18.2,0,27.2,0c0-9.6,0-19.1,0-28.5c9.6,0.1,19.2,0.2,28.8,0.2
	c0,0-0.1-0.1-0.1-0.1c0,18.8,0.1,37.6,0.1,56.4c-18.7,0-37.4,0-56,0c0,9.7,0,19,0,28.4c18.9,0,37.4,0,56,0c0,9.3,0,18.6,0,27.9
	c-18.7,0-37.3,0-56.4,0c0,9.6,0,18.9,0,28.3c-9.7,0-19,0-28.4,0c0-46.9,0-93.8,0-140.7c-9.6,0-18.5,0-27.9,0c0,37.5,0,74.7,0,112.4
	c-18.9,0-37.5,0-55.9,0c0,9.7,0,19,0,28.4c23.2,0,46,0,68.9,0c5,0,10-0.1,15-0.2c0,9.3,0,18.6,0,27.9c19,0,37.6,0,56.1,0
	c0,9.4,0,18.9,0,28.3c-28.3,0-56.1,0-84.2,0c0-9.5,0-18.7,0-28c-9.6,0-18.8,0-28.1,0c0,18.8,0,37.3,0,56.1c9.5,0,18.7,0,28.3,0
	c0,9.6,0,18.8,0,28.2c9.4,0,18.5,0,27.9,0c0-9.6,0-18.8,0-28c18.9,0,37.3,0,56.1,0c0,9.5,0,18.8,0,28.2c19,0,37.6,0,56.2,0
	c0,9.3-0.1,18.6-0.1,27.9l0.1-0.1c-18.6,0-37.2,0-56.2,0c0,9.5,0,18.8,0,28.5c-9.6,0-18.8,0-27.9,0l0.1,0.1c0-9.4,0-18.9,0-28.3
	c-9.8,0-19.1,0-28.6,0c0,9.6,0,18.9,0,28.3l0.1-0.1c-9.2,0-18.4,0-27.9,0c0,9.5,0,18.6,0,27.8c-9.7,0-19.1,0-28.4,0l0.1,0.1
	c0-18.7,0-37.4,0-56.4c-9.6,0-18.8,0-27.9,0l0.1,0.1c0-37.4,0-74.9,0-112.3c-9.8,0-19.1,0-28.6,0c0,37.6,0,74.9,0,112.3L413.3,525.7
	z"/>
<path class="st0" d="M300.8,441.7c-18.6,0-37.2,0-56,0c0-9.5,0-18.7,0-28.3c9.3,0,18.5,0,28,0c0-9.3,0-18.3,0-27.8
	c-9.2,0-18.5,0-28,0c0-9.6,0-18.8,0-28.4c9.2,0,18.5,0,28,0c0-9.4,0-18.5,0-27.8c-9.3,0-18.5,0-28,0c0-9.6,0-18.8,0-28.6
	c18.6,0,37.3,0,56,0c0,0-0.1-0.1-0.1-0.1c0,9.4,0,18.9,0,28.7c19.1,0,37.6,0,56.1,0c0,9.4,0,18.3,0,27.7c-18.7,0-37.3,0-56.1,0
	c0,28.5,0,56.6,0,84.7L300.8,441.7z"/>
<path class="st0" d="M329.3,525.7c-9.3,0-18.7,0-28.4,0c0-9.2,0-18.2,0-27.6c-19.1,0-37.7,0-56.4,0c0-9.3,0-18.7,0-28.4
	c18.8,0,37.3,0,56.4,0c0-9.6,0-18.8,0-27.9c0,0-0.1,0.1-0.1,0.1c9.4,0,18.9,0,28.5,0c0,28.3,0,56.2,0,84L329.3,525.7z"/>
<path class="st0" d="M132.1,582c0-18.6,0-37.2,0-56.2c9.6,0,19,0,28.5,0l-0.1-0.1c0,9.4,0,18.7,0,28.6c28.2,0,56.2,0,84.1,0
	c0,0-0.1-0.1-0.1-0.1c0,9.3,0,18.6,0,27.9l0.1-0.1c-37.5,0-75.1,0-112.6,0L132.1,582z"/>
<path class="st0" d="M188.3,441.7c-9.1,0-18.2,0-27.7,0c0-9.4,0-18.7,0-28.2c-9.6,0-18.8,0-28.4,0c0,9.2,0,18.5,0,28
	c-9.4,0-18.5,0-27.9,0c0-18.7,0-37.4,0-56c0,0-0.1,0.1-0.1,0.1c28,0,56.1,0,84.1,0l-0.1-0.1c0,18.8,0,37.6,0,56.3L188.3,441.7z"/>
<path class="st0" d="M244.6,694.4c-18.8,0-37.6,0-56.4,0l0.1,0.1c0-9.2,0-18.4,0-27.9c-9.7,0-18.8,0-27.9,0l0.1,0.1
	c0-9.3,0-18.7,0-28.3c18.7,0,37.2,0,56.1,0c0,9.2,0,18.5,0,28.3c9.6,0,18.7,0,27.9,0l-0.1-0.1c0,9.3,0,18.6,0,27.9L244.6,694.4z"/>
<path class="st0" d="M300.7,582.1c18.6,0,37.2,0,56,0c0,9.4,0,18.6,0,28.3c-8.9,0-18,0-27.5,0c0,9.6,0,18.7,0,27.9
	c0,0,0.1-0.1,0.1-0.1c-18.8,0-37.6,0-56.4,0l0.1,0.1c0-9.3,0-18.6,0-27.9l-0.1,0.1c9.2,0,18.4,0,27.9,0c0-9.9,0-19.3,0-28.6
	L300.7,582.1z"/>
<path class="st0" d="M244.6,666.8c0-9.4,0-18.7,0-28.5c9.6,0,19.1,0,28.5,0c0,0-0.1-0.1-0.1-0.1c0,9.5,0,19.1,0,28.6l0.1-0.1
	c-9.5,0-19.1,0-28.6,0L244.6,666.8z"/>
<path class="st0" d="M188.2,357.1c9.3,0,18.7,0,28.3,0c0,9.4,0,18.7,0,28.4c-9.4,0-18.9,0-28.3,0c0,0,0.1,0.1,0.1,0.1
	c0-9.5,0-19.1,0-28.6L188.2,357.1z"/>
<path class="st0" d="M244.4,525.7c9.4,0,18.7,0,28.5,0c0,9.7,0,19.2,0,28.6l0.1-0.1c-9.5,0-19.1,0-28.6,0c0,0,0.1,0.1,0.1,0.1
	C244.5,544.8,244.5,535.2,244.4,525.7z"/>
<path class="st0" d="M273.1,610.4c-9.4,0-18.7,0-28.5,0c0-9.6,0-19.1,0-28.5c0,0-0.1,0.1-0.1,0.1c9.5,0,19.1,0,28.6,0l-0.1-0.1
	c0,9.5,0,19.1,0,28.6L273.1,610.4z"/>
<path class="st0" d="M132.2,666.5c-9.2,0-18.4,0-27.7,0c0-9.3,0-18.5,0-28c9,0,18,0,27.6,0c0,9.3,0,18.7,0,28.1
	C132.1,666.7,132.2,666.5,132.2,666.5z"/>
<path class="st0" d="M160.6,694.4c-9.5,0-19.1,0.1-28.6,0.1c0.1-9.3,0.1-18.7,0.2-28c0,0-0.1,0.1-0.1,0.1c9.5,0,19,0.1,28.5,0.1
	c0,0-0.1-0.1-0.1-0.1c0,9.3,0,18.6,0,27.9L160.6,694.4z"/>
<path class="st0" d="M132,581.9c0,9.3,0,18.7,0,28.3c-9.2,0-18.2,0-27.5,0c0-9.2,0-18.5,0-28.2c9.2,0,18.4,0,27.6,0
	C132.1,582,132,581.9,132,581.9z"/>
<path class="st0" d="M188.2,441.8c9.3,0,18.7,0,28.3,0c0,9.2,0,18.2,0,27.5c-9.2,0-18.5,0-28.2,0c0-9.2,0-18.4,0-27.6
	C188.3,441.7,188.2,441.8,188.2,441.8z"/>
<path class="st0" d="M160.5,525.8c0-9.1,0-18.2,0-27.5c9.2,0,18.2,0,27.5,0c0,9,0,18,0,27.4c-9.2,0-18.4,0-27.6,0
	C160.4,525.7,160.5,525.8,160.5,525.8z"/>
<path class="st0" d="M244.6,497.9c0,9.3,0,18.6,0,27.9c-9.1,0-18.2,0-27.5,0c0-9.3,0-18.3,0-27.9
	C226.2,497.9,235.4,497.9,244.6,497.9z"/>
<path class="st0" d="M385.6,779.3c-9.3,0-18.7,0-28.4,0c0-9.5,0-18.8,0-28.3c-18.9,0-37.4,0-56.3,0c0,9.5,0,18.9,0,28.3
	c-27.8,0-55.7,0-83.8,0c0-9.5,0-18.8,0-28.5c18.5,0,37.1,0,55.8,0c0-9.3,0-18.3,0-27.6c-9.2,0-18.5,0-28.3,0c0-9.8,0-19.3,0-28.7
	c0,0-0.1,0.1-0.1,0.1c9.4,0,18.9,0,28.6,0c0-9.7,0-18.8,0-27.9l-0.1,0.1c18.7,0,37.4,0,56.4,0c0-9.9,0-19.3,0-28.6
	c0,0-0.1,0.1-0.1,0.1c9.1,0,18.2,0,27.7,0c0,9.5,0,18.8,0,28.3c18.9,0,37.3,0,56,0c0,9.3,0,18.3,0,27.8c-18.5,0-37,0-55.7,0
	c0,9.6,0,18.8,0,28.4c9.2,0,18.5,0,28.3,0C385.6,741.9,385.6,760.6,385.6,779.3z M329,722.8c0-9.6,0-18.9,0-28c-9.5,0-18.8,0-28,0
	c0,9.5,0,18.7,0,28C310.3,722.8,319.5,722.8,329,722.8z"/>
<path class="st0" d="M131.9,750.8c18.6,0,37.2,0,56,0c0,9.4,0,18.7,0,28.2c-18.5,0-37,0-55.9,0c0-9.4,0-18.9,0-28.3
	C132,750.7,131.9,750.8,131.9,750.8z"/>
<path class="st0" d="M188.2,694.4c0,9.3,0,18.7,0,28.3c-9.2,0-18.2,0-27.6,0c0-9.4,0-18.9,0-28.3c0,0-0.1,0.1-0.1,0.1
	c9.3,0,18.6,0,27.9,0L188.2,694.4z"/>
<path class="st0" d="M272.9,554.3c9.1,0,18.2,0,27.8,0c0,9.4,0,18.6,0,27.8l0.1-0.1c-9.3,0-18.6,0-27.9,0l0.1,0.1
	c0-9.3,0-18.6,0-27.9L272.9,554.3z"/>
<path class="st0" d="M132.2,216.5c0-28.2,0-56.1,0-84.3c28.1,0,56,0,84.3,0c0,28,0,56,0,84.3C188.5,216.5,160.5,216.5,132.2,216.5z"
	/>
<path class="st0" d="M216.6,864.3c0,28,0,55.7,0,83.5c-28.1,0-56,0-84.3,0c0-27.7,0-55.5,0-83.5
	C160.2,864.3,188.3,864.3,216.6,864.3z"/>
<path class="st0" d="M835.4,554.2c9.5,0,19.1,0,28.6,0c0,9.1,0,18.2,0,27.5c-9.5,0-18.8,0-28.6,0
	C835.4,572.6,835.4,563.4,835.4,554.2z"/>
<path class="st0" d="M1004.2,273c-65.6,0-131.2,0-197.2,0c0-65.9,0-131.6,0-197.2c65.8,0,131.5,0,197.2,0
	C1004.2,141.5,1004.2,207.2,1004.2,273z M835.8,104.4c0,46.8,0,93.4,0,139.8c47,0,93.8,0,140.5,0c0-46.7,0-93.2,0-139.8
	C929.4,104.4,882.7,104.4,835.8,104.4z"/>
<path class="st0" d="M976.4,329.3c9.3,0,18.5,0,27.8-0.1c0,46.8,0,93.5,0,140.2c-9.2,0-18.4,0-27.7,0c0,19.1,0,37.7,0,56.3
	c-9.4,0-18.9,0-28.7,0c0-19.1,0-37.6,0-56.1c-9.3,0-18.3,0-27.6,0c0,18.7,0,37.2,0,56.2c-9.7,0-19,0-28.4,0c0,9.8,0,19.1,0,28.5
	c-9.3,0-18.6,0-27.9,0c0-18.7,0-37.4,0-56.4c-9.7,0-19,0-28.5,0c0-9.7,0-19.1,0-28.4c9.4,0,18.9,0,28.7,0c0-9.5,0-18.5,0-27.8
	c9.4,0,18.3,0,27.7,0c0-9.6,0-18.8,0-28.1c9.7,0,19,0,28.5,0c0,9.5,0,18.7,0,28c18.8,0,37.3,0,55.9,0c0-9.5,0-18.8,0-28.5
	c-9.6,0-18.8,0-28,0c0-9.4,0-18.3,0-27.7c9.5,0,18.8,0,28.3,0c0-19,0-37.6,0-56.2L976.4,329.3z"/>
<path class="st0" d="M723,75.8c0,9.3,0,18.7,0,28.4c18.8,0,37.3,0,56,0c0,9.4,0,18.4,0,27.9c-37.5,0-74.9,0-112.3,0
	c0-18.8,0-37.5,0.1-56.3C685.5,75.8,704.2,75.8,723,75.8z"/>
<path class="st0" d="M638.2,75.8c0,9.3,0,18.7,0,28.4c-9.2,0-18.3,0-27.7,0c0,9.4,0,18.4,0,27.9c-9.8,0-19.2,0-28.6,0
	c0-9.2,0-18.4,0-27.9c-9.4,0-18.5,0-27.7,0c0-9.7,0-19.1,0-28.4C582.2,75.8,610.2,75.8,638.2,75.8z"/>
<path class="st0" d="M525.8,75.8c0,18.8,0,37.5,0.1,56.3c-18.6,0-37.1,0-56,0c0-9.2,0-18.2,0-27.6c9.2,0,18.4,0,28.2,0
	c0-9.8,0-19.2,0-28.7C507.2,75.8,516.5,75.8,525.8,75.8z"/>
<path class="st0" d="M976.4,525.7c9.3,0,18.5,0,27.8,0.1c0,9.5,0,19,0,28.5c-9.1,0-18.2,0-27.8,0
	C976.4,544.6,976.4,535.1,976.4,525.7z"/>
<path class="st0" d="M722.9,188.3c18.6,0,37.2,0,56.2,0c0,46.9,0,93.7,0,140.7c9.4,0,18.5,0,27.8,0c0-9.3,0-18.5,0-28
	c28.3,0,56.3,0,84.8,0c0,9.4,0,18.8,0,28.3l0.1-0.1c-18.7,0-37.4,0-56,0c0,9.6,0,18.6,0,27.9c9.5,0,18.7,0,28,0
	c0,18.8,0,37.3,0,56.2c-9.6,0-19,0-28.3,0c0-9.2,0-18.4,0-27.8c-19.1,0-37.7,0-56.3,0c0-9.4,0-18.9,0-28.7c-9.7,0-19,0-28.7,0
	c0-18.9,0-37.5,0-55.9c-18.8,0-37.3,0-55.8,0c0,9.5,0,18.8,0,28.4c9.5,0,18.8,0,28.3,0c0,19,0,37.6,0,56.2c-9.5,0-19.1,0-28.6,0
	c0-9.4,0-18.9,0-28.5c-9.6,0-18.7,0-27.8,0c0-18.7,0-37.4,0-56.2c-9.8,0-19.1,0-28.5,0c0-18.8,0.1-37.6,0.1-56.4l-0.1,0.1
	c9.3,0,18.7,0,28.4,0c0,9.4,0,18.7,0,28.2c9.4,0,18.4,0,27.9,0c0-18.7,0-37.4,0-56.1l-0.1,0.1c9.5,0,19,0,28.5,0
	c0,18.7,0,37.3,0,55.9c9.6,0,18.7,0,27.6,0c0-18.7,0-37.2,0-55.7c-9.4,0-18.6,0-27.7,0c0.1-9.6,0.2-19.2,0.2-28.8L722.9,188.3z"/>
<path class="st0" d="M581.9,160.6c18.8,0,37.6-0.1,56.4-0.1c0,9.1,0,18.2,0,27.7c-9.3,0-18.3,0-27.9,0c0,9.8,0,19.3,0,28.7l0.1-0.1
	c-9.5,0-19.1,0-28.6,0l0.1,0.1c0-18.8,0-37.6,0-56.4L581.9,160.6z"/>
<path class="st0" d="M891.7,329.3c9.5,0,19.1,0,28.6,0l-0.1-0.1c0,18.7,0,37.4,0,56c-9.7,0-19,0-28.4,0c0-18.9,0-37.4,0-56
	L891.7,329.3z"/>
<path class="st0" d="M920.3,329.3c0-9.3,0-18.7,0-28.3c18.7,0,37.2,0,56.1,0c0,9.4,0,18.9,0,28.3l0.1-0.1c-18.8,0-37.6,0-56.4,0
	L920.3,329.3z"/>
<path class="st0" d="M638.2,160.6c0-9.4,0-18.7,0-28.6c9.7,0,19.2,0,28.6,0c0,9.4,0,18.7,0,28.6
	C657.1,160.6,647.6,160.6,638.2,160.6z"/>
<path class="st0" d="M694.6,188.3c0-9.1,0-18.2,0-27.5c9.4,0,18.7,0,28.4,0c0,9.2,0,18.4,0,27.5c0,0,0.1-0.1,0.1-0.1
	c-9.5,0-19.1,0-28.6,0L694.6,188.3z"/>
<path class="st0" d="M694.6,216.7c-9.1,0-18.2,0-27.5,0c0-9.4,0-18.7,0-28.4c9.2,0,18.4,0,27.5,0c0,0-0.1-0.1-0.1-0.1
	c0,9.5,0,19.1,0,28.6L694.6,216.7z"/>
<path class="st0" d="M610.4,216.8c9.1,0,18.2,0,27.8,0c0,9.4,0,18.6,0,27.8c0,0,0.1-0.1,0.1-0.1c-9.3,0-18.6,0-27.9,0l0.1,0.1
	c0-9.3,0-18.6,0-27.9L610.4,216.8z"/>
<path class="st0" d="M525.7,131.9c18.8,0,37.6,0,56.4,0c0,9.5-0.1,19.1-0.1,28.6c0,0,0.1-0.1,0.1-0.1c-18.8,0-37.6,0-56.4,0
	c0,0,0.1,0.1,0.1,0.1C525.8,151,525.7,141.5,525.7,131.9z"/>
<path class="st0" d="M806.9,554.2c0,9.1,0,18.2,0,27.7c-9.2,0-18.3,0-27.5,0c0,9.6,0,18.8,0,28.4c9,0,18,0,27.6,0
	c0,19.1,0,37.8,0,56.5c-18.6,0-37.2,0-56.2,0c0-28.3,0-56.3,0-84.6c-9.4,0-18.5,0-27.8,0c0,28.1,0,56,0,84.6c-18.9,0-37.6,0-56.3,0
	c0,0,0.1,0.1,0.1,0.1c0-9.4,0-18.7,0-28.5c-9.6,0-18.9,0-28.5,0c0-9.4,0-18.5,0-27.8c9.3,0,18.5,0,28,0c0-18.8,0-37.3,0-56.5
	c-9.4,0-18.8,0-28.2,0l0.1,0.1c0-9.5,0-19.1,0-28.6l-0.1,0.1c9.4,0,18.9,0,28.5,0c0-9.6,0-18.8,0-27.9c18.8,0,37.6,0,56.4,0
	c0,18.7,0,37.3,0,56.1c9.4,0,18.4,0,27.8,0c0-9.5,0-18.8,0-28.2c9.7,0,19.1,0,28.4,0l-0.1-0.1c0,9.4,0,18.9,0,28.6
	c9.7,0,18.8,0,27.9,0L806.9,554.2z"/>
<path class="st0" d="M947.8,132.2c0,28.3,0,56.2,0,84.3c-27.9,0-55.6,0-83.5,0c0-28,0-56,0-84.3C892,132.2,919.8,132.2,947.8,132.2z
	"/>
<path class="st0" d="M779.3,385.4c0,9.1,0,18.2,0,27.8c18.9,0,37.6,0,56.2,0c0,18.8,0,37.6,0,56.4c-9.4,0-18.7,0-28.6,0
	c0,18.9,0,37.6,0,56.2l0.1-0.1c-9.3,0-18.6,0-27.9,0l0.1,0.1c0-18.7,0-37.4,0-56.2c-9.9,0-19.3,0-28.6,0c0-9.2,0-18.4,0-27.9
	c-9.5,0-18.6,0-27.8,0l0.1,0.1c0-18.8-0.1-37.6-0.1-56.4C741.7,385.4,760.5,385.4,779.3,385.4z"/>
<path class="st0" d="M806.9,525.8c9.4,0,18.7,0,28.6,0c0,9.6,0,19.1,0,28.5c-9.5,0-19.1-0.1-28.6-0.1l0.1,0.1c0-9.5,0-19.1,0-28.6
	L806.9,525.8z"/>
<path class="st0" d="M723.1,469.6c-18.6,0-37.2,0-56.2,0c0,9.6,0,19.1,0,28.5c-9.5,0-19.1,0-28.6,0c0-28.3,0.1-56.6,0.1-84.9
	c0,0-0.1,0.1-0.1,0.1c9.4,0,18.9,0,28.6,0c0-9.7,0-18.8,0-27.9c0,0-0.1,0.1-0.1,0.1c9.3,0,18.6-0.1,27.9-0.1c0,18.6,0,37.2,0,56.4
	c9.6,0,19.1,0,28.5,0l-0.1-0.1C723,451,723,460.3,723.1,469.6z"/>
<path class="st0" d="M666.8,356.9c0,9.5-0.1,19.1-0.1,28.6c0,0,0.1-0.1,0.1-0.1c-9.4,0-18.9,0-28.6,0c0,9.7,0,18.8,0,27.9
	c0,0,0.1-0.1,0.1-0.1c-18.8,0-37.6,0.1-56.4,0.1c0-9.1,0-18.2,0-27.7c9.5,0,18.8,0,28.5,0c0-9.8,0-19.3,0-28.7
	C629.2,356.9,648,356.9,666.8,356.9z"/>
<path class="st0" d="M610.4,300.7c9.3,0,18.6,0,27.9,0c0,9.4,0,18.7,0,28.6c-9.5,0-18.7,0-27.9,0
	C610.4,319.8,610.4,310.2,610.4,300.7z"/>
<path class="st0" d="M722.9,469.4c9.3,0,18.6,0,27.9,0c0,9.4,0,18.7,0,28.6c-9.5,0-18.7,0-27.9,0C722.9,488.5,722.9,479,722.9,469.4
	z"/>
</svg>
