<?xml version="1.0" encoding="utf-8"?>
<!-- Generator: Adobe Illustrator 26.5.0, SVG Export Plug-In . SVG Version: 6.00 Build 0)  -->
<svg version="1.1" id="Layer_1" xmlns="http://www.w3.org/2000/svg" xmlns:xlink="http://www.w3.org/1999/xlink" x="0px" y="0px"
	 viewBox="0 0 96 48" style="enable-background:new 0 0 96 48;" xml:space="preserve">
<g>
	<path d="M10.2,46.9c-2.6,0-4.4-1.7-4.4-4.3c0-7.8,0-15.6,0-23.5c0-2.6,1.7-4.3,4.3-4.3l9.2,0v3.1l-9.2,0c-1,0-1.3,0.4-1.3,1.4
		c0,7.8,0,15.5,0,23.3c0,1,0.3,1.3,1.4,1.3l26,0c0.9,0,1.3-0.4,1.3-1.3c0-7.8,0-15.6,0-23.4c0-0.9-0.4-1.3-1.3-1.3l-9.2,0v-3l0.4,0
		c0.1,0,0.2,0,0.4,0H36c2.7,0,4.4,1.7,4.4,4.4c0,7.7,0,15.5,0,23.2c0,2.7-1.7,4.4-4.5,4.4L10.2,46.9z M21.6,31V6.8l-5.3,5.3L14.2,10
		l9-8.9l9,8.9l-2.1,2l-5.4-5.4V31H21.6z"/>
	<path d="M62.9,29.4c-3.4,3.5-8.6,3.2-11.5,0.1c-2.9-3.1-2.9-8,0.1-11c3-3,8.1-3.3,11.5,0.2c0.8-0.5,1.6-0.9,2.5-1.4
		c3-1.7,6-3.5,9-5.2c0.3-0.2,0.4-0.3,0.3-0.7c-1.3-4.6,1.7-9.3,6.5-10c4.3-0.6,8.2,2.3,8.9,6.6c0.7,4.2-2.2,8.3-6.4,9
		c-2.7,0.4-5-0.3-6.9-2.2c-0.2-0.2-0.3-0.2-0.5-0.1c-3.8,2.2-7.5,4.3-11.3,6.5c-0.3,0.1-0.3,0.3-0.2,0.5c0.4,1.5,0.4,3,0,4.5
		c-0.1,0.3-0.1,0.4,0.2,0.5c3.8,2.1,7.5,4.3,11.3,6.4c0.3,0.2,0.5,0.1,0.7-0.1c2.3-2.1,4.9-2.8,7.9-1.9c2.9,0.9,4.7,3,5.3,6
		c0.9,4.5-2.2,8.7-6.7,9.3c-4.2,0.6-8.1-2.4-8.8-6.6c-0.2-1.2-0.1-2.4,0.2-3.5c0.1-0.2,0.1-0.3-0.1-0.5
		C70.7,33.8,66.9,31.6,62.9,29.4C63,29.4,63,29.4,62.9,29.4z M57.1,28.7c2.5,0.1,4.7-2.2,4.7-4.7c0-2.6-2.2-4.8-4.7-4.8
		c-2.6,0-4.7,2.2-4.7,4.7C52.4,26.6,54.6,28.8,57.1,28.7z M87,9.3c0-2.6-2.1-4.7-4.7-4.7c-2.6,0-4.7,2.1-4.7,4.7
		c0,2.6,2.1,4.7,4.7,4.7C84.9,14,87,12,87,9.3z M87,38.8c0-2.7-2.1-4.8-4.8-4.8c-2.5,0-4.6,2.2-4.6,4.7c0,2.7,2.1,4.8,4.8,4.8
		C84.9,43.5,87,41.4,87,38.8z"/>
</g>
</svg>
