<?xml version="1.0" encoding="utf-8"?>
<!-- Generator: Adobe Illustrator 28.4.1, SVG Export Plug-In . SVG Version: 6.00 Build 0)  -->
<svg version="1.1" id="Layer_1" xmlns="http://www.w3.org/2000/svg" xmlns:xlink="http://www.w3.org/1999/xlink" x="0px" y="0px"
	 viewBox="0 0 96 85" style="enable-background:new 0 0 96 85;" xml:space="preserve">
<style type="text/css">
	.st0{fill:#FFFFFF;}
</style>
<path class="st0" d="M10.2,66.4c-3.2,0-5.4-2.2-5.4-5.3V37.6c0-3.2,2.1-5.3,5.3-5.3h10.2v5.1H10.1c-0.1,0-0.2,0-0.3,0
	c0,0.1,0,0.2,0,0.4v23.3c0,0.1,0,0.2,0,0.3c0.1,0,0.2,0,0.4,0h26c0.2,0,0.2,0,0.3,0c0,0,0-0.1,0-0.3V37.7c0-0.2,0-0.3,0-0.3
	c0,0,0,0,0,0c0,0-0.1,0-0.3,0H26v-5h10c3.2,0,5.4,2.2,5.4,5.4V61c0,3.3-2.2,5.4-5.5,5.4H10.2z M20.6,50.5V27.7L16.3,32l-3.5-3.5
	l10.4-10.3l10.4,10.3l-3.6,3.4l-4.4-4.4v23H20.6z"/>
<path class="st0" d="M82.5,66c-4.3,0-8-3.2-8.7-7.5c-0.2-1.1-0.2-2.3,0.1-3.5c-3.1-1.5-6.1-3.2-9-4.8c-0.6-0.3-1.2-0.7-1.9-1
	c-1.7,1.5-3.8,2.3-6,2.3c-2.4,0-4.8-1-6.4-2.7c-3.3-3.5-3.2-9.1,0.1-12.4c1.7-1.7,4-2.6,6.4-2.6c2.2,0,4.3,0.8,6,2.3
	c0.3-0.2,0.7-0.4,1.1-0.6c0.3-0.1,0.5-0.3,0.8-0.4c1.5-0.8,3-1.7,4.5-2.6c1.4-0.8,2.8-1.7,4.3-2.5c-0.6-2.4-0.2-4.9,1.2-7
	c1.4-2.2,3.7-3.6,6.2-4c0.4-0.1,0.9-0.1,1.3-0.1c4.4,0,8.1,3.2,8.8,7.5c0.8,4.7-2.5,9.4-7.2,10.1c-0.6,0.1-1.1,0.1-1.6,0.1
	c-2.2,0-4.2-0.8-5.9-2.3c-1.7,1-3.5,2-5.2,3c-1.8,1-3.5,2-5.3,3.1c0.3,1.4,0.3,2.8,0,4.2c1.8,1,3.5,2,5.3,3c1.8,1,3.6,2,5.4,3.1
	c1.8-1.6,3.8-2.4,5.9-2.4c0.9,0,1.8,0.1,2.8,0.4c3.2,1,5.3,3.3,6,6.8c0.5,2.4,0,4.8-1.5,6.8c-1.4,2-3.6,3.3-6.1,3.6
	C83.3,65.9,82.9,66,82.5,66z M82.2,53.5c-1.9,0-3.6,1.7-3.6,3.7c0,2.1,1.7,3.8,3.8,3.8c2,0,3.6-1.7,3.6-3.7
	C86,55.2,84.3,53.5,82.2,53.5z M57.1,38.7c-2,0-3.7,1.7-3.7,3.7c0,2.1,1.6,3.8,3.5,3.8h0.3c1.9,0,3.5-1.8,3.5-3.7
	C60.8,40.5,59.1,38.7,57.1,38.7z M82.3,24.1c-2,0-3.7,1.7-3.7,3.7c0,2,1.7,3.7,3.7,3.7c2.1,0,3.7-1.6,3.7-3.7
	C86,25.8,84.3,24.1,82.3,24.1z M74,29.7L74,29.7z"/>
</svg>
