<?xml version="1.0" encoding="utf-8"?>
<!-- Generator: Adobe Illustrator 28.4.1, SVG Export Plug-In . SVG Version: 6.00 Build 0)  -->
<svg version="1.1" id="Layer_1" xmlns="http://www.w3.org/2000/svg" xmlns:xlink="http://www.w3.org/1999/xlink" x="0px" y="0px"
	 viewBox="0 0 96 96" style="enable-background:new 0 0 96 96;" xml:space="preserve">
<path d="M10.2,71.9c-3.2,0-5.4-2.2-5.4-5.3V43.1c0-3.2,2.1-5.3,5.3-5.3h10.2v5.1H10.1c-0.1,0-0.2,0-0.3,0c0,0.1,0,0.2,0,0.4v23.3
	c0,0.1,0,0.2,0,0.3c0.1,0,0.2,0,0.4,0h26c0.2,0,0.2,0,0.3,0c0,0,0-0.1,0-0.3V43.2c0-0.2,0-0.3,0-0.3c0,0,0,0,0,0c0,0-0.1,0-0.3,0H26
	v-5h10c3.2,0,5.4,2.2,5.4,5.4v23.2c0,3.3-2.2,5.4-5.5,5.4H10.2z M20.6,56V33.2l-4.3,4.3L12.8,34l10.4-10.3L33.6,34l-3.6,3.4L25.7,33
	v23H20.6z"/>
<path d="M82.5,71.5c-4.3,0-8-3.2-8.7-7.5c-0.2-1.1-0.2-2.3,0.1-3.5c-3.1-1.5-6.1-3.2-9-4.8c-0.6-0.3-1.2-0.7-1.9-1
	c-1.7,1.5-3.8,2.3-6,2.3c-2.4,0-4.8-1-6.4-2.7c-3.3-3.5-3.2-9.1,0.1-12.4c1.7-1.7,4-2.6,6.4-2.6c2.2,0,4.3,0.8,6,2.3
	c0.3-0.2,0.7-0.4,1.1-0.6c0.3-0.1,0.5-0.3,0.8-0.4c1.5-0.8,3-1.7,4.5-2.6c1.4-0.8,2.8-1.7,4.3-2.5c-0.6-2.4-0.2-4.9,1.2-7
	c1.4-2.2,3.7-3.6,6.2-4c0.4-0.1,0.9-0.1,1.3-0.1c4.4,0,8.1,3.2,8.8,7.5C92,36.6,88.7,41.2,84,42c-0.6,0.1-1.1,0.1-1.6,0.1
	c-2.2,0-4.2-0.8-5.9-2.3c-1.7,1-3.5,2-5.2,3c-1.8,1-3.5,2-5.3,3.1c0.3,1.4,0.3,2.8,0,4.2c1.8,1,3.5,2,5.3,3c1.8,1,3.6,2,5.4,3.1
	c1.8-1.6,3.8-2.4,5.9-2.4c0.9,0,1.8,0.1,2.8,0.4c3.2,1,5.3,3.3,6,6.8c0.5,2.4,0,4.8-1.5,6.8c-1.4,2-3.6,3.3-6.1,3.6
	C83.3,71.4,82.9,71.5,82.5,71.5z M82.2,59c-1.9,0-3.6,1.7-3.6,3.7c0,2.1,1.7,3.8,3.8,3.8c2,0,3.6-1.7,3.6-3.7
	C86,60.7,84.3,59,82.2,59z M57.1,44.2c-2,0-3.7,1.7-3.7,3.7c0,2.1,1.6,3.8,3.5,3.8h0.3c1.9,0,3.5-1.8,3.5-3.7
	C60.8,46,59.1,44.2,57.1,44.2z M82.3,29.6c-2,0-3.7,1.7-3.7,3.7c0,2,1.7,3.7,3.7,3.7c2.1,0,3.7-1.6,3.7-3.7
	C86,31.3,84.3,29.6,82.3,29.6z M74,35.2L74,35.2z"/>
</svg>
