<?xml version="1.0" encoding="utf-8"?>
<!-- Generator: Adobe Illustrator 22.0.0, SVG Export Plug-In . SVG Version: 6.00 Build 0)  -->
<svg version="1.1" id="Layer_1" xmlns="http://www.w3.org/2000/svg" xmlns:xlink="http://www.w3.org/1999/xlink" x="0px" y="0px"
	 viewBox="0 0 611.3 612" style="enable-background:new 0 0 611.3 612;" xml:space="preserve">
<style type="text/css">
	.st0{fill:#3A76EF;}
</style>
<path class="st0" d="M326.8,63.4c92.6,0.9,190.7,78.6,214.9,185.4c20.3,89.6-2.8,167.7-67.9,232.5c-37.5,37.3-83.7,58.6-136.2,65.5
	c-56.6,7.4-109.4-4-158.3-33.5c-1.9-1.1-3.5-1.5-5.8-1c-31,7.4-62,14.6-93,21.9c-3.6,0.8-3.7,0.7-2.9-2.9
	c7.2-30.9,14.4-61.8,21.8-92.6c0.6-2.5,0.2-4.3-1.1-6.4C73.1,390.4,60.5,345,63.2,296.4c4.7-86.5,44.5-153.1,118.1-198.8
	C220.4,73.3,263.8,62.6,326.8,63.4z M50.5,594.8c18.2-4.2,36.4-8.4,54.7-12.5c2.7-0.6,2.9-1.7,2.4-4c-1.7-6.9-3.4-13.8-4.8-20.8
	c-0.6-2.9-1.8-3.3-4.4-2.6c-16.5,3.9-33.1,7.7-49.7,11.5c-4.6,1.1-4.6,1.1-3.5-3.4c3.9-16.7,7.8-33.4,11.7-50c0.4-1.9,0.9-3.4-1.9-4
	c-7.3-1.6-14.6-3.3-21.8-5.1c-2.4-0.6-3.1,0.3-3.6,2.4c-4.2,18.2-8.5,36.4-12.7,54.6c-4.1,18,9.1,34.6,28.2,34.6
	C46.2,595.4,48.4,595.3,50.5,594.8z M165.8,539.3c-12.3,2.9-24.6,5.8-37,8.6c-2.3,0.5-1.8,1.8-1.5,3.2c1.7,7.4,3.5,14.8,5.1,22.2
	c0.4,1.9,1.1,2.5,3.2,1.9c7.5-1.9,15-3.4,22.5-5.4c3.2-0.8,5.7-0.4,8.6,1.1c20.3,10.8,41.7,18.9,63.9,24.7c2.6,0.7,3.4,0,3.9-2.4
	c1.6-7,3.3-14.1,5.2-21.1c0.6-2.4,0.1-3.3-2.3-3.9c-23.9-6.2-46.6-15.6-67.9-28.1c-0.9-0.5-1.8-1.3-3-1.1
	C166.3,539.1,166,539.2,165.8,539.3z M71.6,442.4c-12.6-21.6-22-44.5-28.2-68.7c-0.5-2.1-1.2-2.7-3.4-2.1
	c-7.1,1.9-14.2,3.7-21.4,5.3c-2.6,0.6-2.9,1.4-2.3,3.9c5.8,22.4,14,43.8,24.9,64.3c1.3,2.5,1.8,4.7,1,7.5c-2,7.6-3.5,15.3-5.4,22.9
	c-0.6,2.5,0.2,3.1,2.3,3.6c7.3,1.6,14.6,3.2,21.9,5c2,0.5,2.8,0,3.2-2c2.7-11.9,5.5-23.7,8.2-35.6c0.1-0.5,0.2-1,0.3-1.4
	C72.6,444.1,72,443.3,71.6,442.4z M143.3,85.7c-4.5-6.1-9.1-12.2-13.6-18.3c-1.2-1.6-2-1.8-3.7-0.6c-22.7,17.2-42.6,37.1-59.7,59.8
	c-1.2,1.6-0.9,2.3,0.6,3.4c4.4,3.2,8.7,6.5,13.1,9.7c2.4,1.8,4.9,4.9,7.3,4.8c2.6-0.1,3.8-4.2,5.8-6.5c0.6-0.6,1.1-1.3,1.6-2
	c13.9-17.3,29.7-32.7,47.5-46.1c0.9-0.7,2.2-1.1,2.4-2.5C144.2,86.9,143.8,86.3,143.3,85.7z M544.9,126.6
	c-17.1-22.7-37-42.6-59.7-59.8c-1.7-1.3-2.5-1-3.7,0.6c-4.5,6.2-9,12.3-13.6,18.3c-1.4,1.9-1,2.7,0.6,4c5.2,4,10.3,8,15.2,12.3
	c14.1,12.2,26.7,25.8,38,40.7c0.9,1.2,1.4,3.2,3.8,1.4c6.3-4.9,12.8-9.6,19.1-14.3c0.5-0.4,1.3-0.7,1.2-1.7
	C545.6,127.6,545.3,127.1,544.9,126.6z M593.3,377c-7.4-1.8-14.8-3.6-22.1-5.5c-2-0.5-2.7,0.1-3.2,2c-6.3,24.8-16,48.2-29.1,70.2
	c-1.2,2-0.7,2.8,1.1,3.9c6.4,3.7,12.7,7.4,18.9,11.4c2.2,1.4,3,1.1,4.3-1.1c9-15.3,16.6-31.3,22.7-48c3.7-9.9,6.8-20.1,9.2-29.8
	C596,377.6,594.6,377.4,593.3,377z M376.8,18.3c-1.8,7.4-3.5,14.8-5.5,22.1c-0.5,2-0.1,2.8,1.9,3.3c24.8,6.3,48.2,16,70.2,29.1
	c2,1.2,2.8,0.8,3.9-1.1c3.6-6.3,7.4-12.5,11.2-18.6c1.5-2.3,1.4-3.4-1.2-4.9c-24.1-14-49.6-24.7-76.6-31.5c-0.7-0.2-1.4-0.4-2-0.6
	C377,16,377,17.3,376.8,18.3z M43.3,238.4c6.4-24.8,16.1-48.2,29.1-70.2c1-1.7,1-2.6-0.8-3.7c-6.7-3.9-13.3-7.8-19.8-11.9
	c-1.7-1-2.4-0.7-3.3,0.9c-3,5.6-6.3,11.1-9.2,16.8c-9.9,19.5-17.7,39.8-23,61.1c-0.4,1.4-1.1,2.8,1.2,3.3c7.8,1.9,15.7,3.9,23.3,5.7
	C42.9,241.2,43,239.6,43.3,238.4z M543.9,481.7c-6-4.5-12-8.9-17.9-13.5c-1.8-1.4-2.7-1.1-4,0.7c-15.3,20.4-33.2,38.2-53.6,53.5
	c-1.6,1.2-1.9,2-0.6,3.7c4.6,6,9.1,12.2,13.5,18.4c1.1,1.6,1.9,2,3.7,0.7c22.7-17.1,42.7-36.9,59.8-59.6c0.4-0.6,0.8-1.2,1.2-1.7
	C545.6,482.7,544.7,482.3,543.9,481.7z M595.3,231.9c-7.1-27.6-17.9-53.7-32.4-78.3c-1.1-1.9-2-1.7-3.6-0.7
	c-6.3,3.9-12.5,7.7-19,11.3c-2.5,1.4-2.4,2.5-1.1,4.7c5.1,8.3,9.5,17.1,13.5,26c6.3,14,11.3,28.4,15.2,43.3c0.4,1.3,0.3,2.9,2.6,2.3
	c7.7-2,15.4-3.8,23.2-5.8c0.9-0.2,2-0.3,1.6-2.4C595.4,232.6,595.4,232.2,595.3,231.9z M234.2,17.3c-0.5-1.8-1.7-1.1-2.9-0.8
	c-27.5,7-53.5,17.8-78,32.2c-1.7,1-2.1,1.8-0.9,3.6c3.9,6.3,7.7,12.6,11.3,19c1.3,2.3,2.3,2.7,4.7,1.3c12-7.3,24.6-13.3,37.7-18.4
	c10.3-4.1,20.9-7.4,31.6-10.3c1.1-0.3,2.9-0.1,2.7-1.8C238.2,33.5,236.3,25.4,234.2,17.3z M458.6,559.4c-3.8-6.3-7.7-12.6-11.3-19
	c-1.2-2.1-2.2-2.2-4.2-1c-21.9,13-45.2,22.6-69.9,28.9c-2,0.5-2.4,1.2-1.9,3.2c1.6,5.9,3,11.9,4.5,17.9c1.7,6.8,1.7,6.8,8.4,5
	c25.8-7,50.3-17.4,73.3-31.1c0.9-0.5,2.1-0.7,2.1-2.1C459.3,560.6,459,560,458.6,559.4z M9.7,348.1c0.3,2,0.7,2.6,2.9,2.3
	c7.4-1.2,14.8-2.3,22.2-3.2c2.7-0.3,2.9-1.7,2.6-3.9c-1.1-6.6-1.6-13.2-2.1-19.8c-1.3-18.4-0.6-36.7,2.1-54.9
	c0.4-2.5-0.4-3.4-2.8-3.7c-7.2-0.9-14.4-1.9-21.5-3.2c-2.7-0.5-3.2,0.4-3.5,2.8c-1.7,12.6-2.8,25.2-2.8,31.9
	C6.6,317.6,7.5,332.9,9.7,348.1z M263.8,10.1c-2.5,0.4-2.8,1.2-2.4,3.4c1.2,7.1,2.3,14.3,3.1,21.5c0.3,2.8,1.6,3.2,4.1,2.8
	c24.9-3.6,49.8-3.5,74.7,0c2.2,0.3,3.3-0.2,3.6-2.6c1-7.3,2-14.6,3.2-21.8c0.4-2.4-0.2-3-2.5-3.4c-14.8-2.1-29.8-3-44.7-2.8
	C289.7,7.2,276.7,8.3,263.8,10.1z M601.6,263.9c-0.3-2.3-1-2.7-3.2-2.3c-7,1.2-14,2.3-21.1,3.2c-3.3,0.4-3.8,1.8-3.3,4.7
	c1.7,10.1,2.3,20.4,2.5,30.6c0.4,14.3-0.4,28.5-2.6,42.6c-0.4,2.7-0.1,4.2,3.1,4.6c7.2,0.9,14.3,1.9,21.5,3.2
	c2.3,0.4,2.8-0.3,3.1-2.4c1.8-12.7,2.8-25.4,2.9-38.3C604.6,294.4,603.8,279.1,601.6,263.9z M346,602.3c3.9-0.5,4.5-2,3.9-5.4
	c-1.2-6.3-2.1-12.6-2.9-19c-0.4-3.2-1.5-4.2-4.8-3.6c-9.5,1.7-19.2,2.2-28.8,2.5c-15,0.5-29.9-0.3-44.7-2.6
	c-2.7-0.4-3.9,0.3-4.2,3.1c-0.9,7.2-1.9,14.3-3.1,21.5c-0.4,2.3,0.2,2.8,2.4,3.1c12.7,1.8,25.4,2.8,35,2.9
	C316.6,605.1,331.3,604,346,602.3z"/>
</svg>
