<?xml version="1.0" encoding="UTF-8" standalone="no"?>
<svg id="svg2" xmlns:rdf="http://www.w3.org/1999/02/22-rdf-syntax-ns#" xmlns="http://www.w3.org/2000/svg" xml:space="preserve" height="540" viewBox="0 0 540 540" width="540" version="1.1" xmlns:cc="http://creativecommons.org/ns#" xmlns:dc="http://purl.org/dc/elements/1.1/"><metadata id="metadata8"><rdf:RDF><cc:Work rdf:about=""><dc:format>image/svg+xml</dc:format><dc:type rdf:resource="http://purl.org/dc/dcmitype/StillImage"/><dc:title/></cc:Work></rdf:RDF></metadata><g id="g10" transform="matrix(1.25,0,0,-1.25,0,540)"><g id="g12" transform="scale(.1)"><path id="path14" d="m3632 4320c380.1 0 688.3-308.2 688.3-688.4v-2943c0-380.8-308-689-688-689h-2944c-379.8 0-688 308.2-688 688.4v2944c0 380.2 308.2 688.4 688.4 688.4h2943" fill="#f0ee12"/><path id="path16" d="m2176 674.8c-8.15 0-16.17.231-24.18.61h-.02c-5.1-.391-10.45-.61-15.79-.61-187.5 0-307.8 85.06-424.2 167.3-80.35 56.78-156.2 110.4-245.5 125.2-43.59 7.219-86.98 10.88-128.9 10.88-75.54 0-135.1-11.66-178.6-20.17-26.44-5.172-49.25-9.621-66.58-9.621-18.11 0-37.74 3.922-46.26 33.06-7.42 25.25-12.78 49.7-17.93 73.35-13.29 60.88-22.73 98.31-48.24 102.2-297.4 45.93-382.5 108.6-401.4 153-2.688 6.35-4.215 12.72-4.582 19.02-.961 17.07 11.13 32.15 28 34.9 457.1 75.28 662.1 542.5 670.6 562.3.23.55.48 1.08.73 1.63 27.98 56.69 33.46 105.9 16.34 146.2-31.37 73.93-133.7 106.4-201.4 127.9-16.57 5.24-32.28 10.2-44.67 15.1-135.1 53.42-146.4 108.3-141.1 136.2 9.059 47.62 72.7 80.81 124.2 80.81 14.11 0 26.54-2.5 36.99-7.38 60.79-28.48 115.6-42.91 162.8-42.91 65.32 0 93.83 27.45 97.32 31.05-1.66 30.94-3.72 63.25-5.83 96.59-13.61 216.1-30.48 484.6 37.89 637.9 204.9 459.5 639.5 495.2 767.8 495.2 3.29 0 56.25.57 56.25.57l7.6.03c128.6 0 564.1-35.76 769.1-495.5 68.39-153.4 51.47-422.1 37.84-638.1l-.57-9.39c-1.89-30.07-3.71-59.3-5.24-87.28 3.27-3.33 29.49-28.58 88.71-30.85h.07c45 1.72 96.72 16.07 153.5 42.66 16.64 7.77 35.11 9.41 47.69 9.41 19.21 0 38.68-3.72 54.85-10.47l.98-.4c45.91-16.27 75.99-48.45 76.63-82.07.6-31.67-23.57-79.27-142.2-126.1-12.29-4.83-28-9.82-44.63-15.1-67.8-21.51-170.1-53.97-201.4-127.9-17.14-40.32-11.65-89.5 16.32-146.2.25-.55.53-1.08.74-1.66 8.51-19.82 213.3-486.9 670.6-562.2 16.88-2.79 28.94-17.85 28.01-34.93-.38-6.41-1.94-12.86-4.67-19.13-18.87-44.12-103.9-106.7-401.4-152.6-24.3-3.73-33.72-35.4-48.22-101.8-5.27-24.17-10.61-47.9-17.96-72.87-6.34-21.66-19.84-31.8-42.55-31.8h-3.7c-15.75 0-38.16 2.82-66.56 8.402-50.36 9.852-106.8 18.92-178.7 18.92-41.95 0-85.36-3.66-129-10.88-89.24-14.88-165-68.37-245.2-125.1-116.6-82.46-236.9-167.5-424.5-167.5" fill="#fff"/><path id="path18" d="m2187 3679h-.13c-2.79 0-5.41 0-7.9-.05 0 0-51.8-.52-55.92-.52-133.3 0-585.1-37.13-798.3-515-71.69-160.8-54.5-433.8-40.72-653.3 1.62-25.88 3.35-52.74 4.83-78.69-11.03-6.11-31.17-13.71-62.87-13.71-42.31 0-92.32 13.36-148.6 39.75-14.95 7-32.18 10.5-51.22 10.5-65.94 0-144.8-43.38-157.1-108-8.855-46.56 11.98-114.5 161.7-173.6 13.51-5.34 29.75-10.48 46.9-15.9 61.83-19.64 155.3-49.3 180.7-109 13.13-30.95 7.89-70.79-15.55-118.4-.51-1.08-1.03-2.14-1.49-3.25-8.23-19.14-206-470.1-645.2-542.4-33.77-5.57-57.91-35.7-56.04-69.87.582-10.16 2.989-20.28 7.149-30.1 32.96-77.06 172-133.5 425.2-172.8 8.461-11.45 17.25-51.87 22.64-76.51 5.288-24.3 10.75-49.36 18.53-75.8 7.63-25.99 27.45-57.06 78.41-57.06 20.58 0 44.87 4.75 72.98 10.27 42.18 8.242 99.94 19.52 172.2 19.52 40.1 0 81.66-3.481 123.5-10.42 81.69-13.61 151.1-62.68 231.5-119.5 115.1-81.39 245.5-173.5 443.6-173.5 5.44 0 10.92.16 16.33.559 6.43-.281 14.78-.559 23.66-.559 198.2 0 328.6 92.15 443.6 173.5 80.55 56.89 149.9 105.9 231.6 119.5 41.78 6.937 83.35 10.42 123.5 10.42 68.98 0 123.6-8.77 172.2-18.28 30.5-5.972 55.05-9.011 72.98-9.011l1.88-.032h1.82c37.64 0 64.19 19.89 74.73 55.98 7.63 25.9 13.1 50.31 18.51 75.03 5.36 24.56 14.13 64.81 22.56 76.18 253.2 39.32 392.3 95.7 425.2 172.4 4.23 9.82 6.66 20.02 7.24 30.27 1.9 34.19-22.25 64.28-56 69.83-439.4 72.42-637 523.3-645.3 542.4-.47 1.1-.97 2.2-1.51 3.26-23.46 47.57-28.65 87.38-15.53 118.3 25.35 59.75 118.8 89.41 180.6 109 17.3 5.49 33.56 10.67 46.93 15.94 109.5 43.26 164.5 96.39 163.3 157.9-.95 48.32-38.58 91.43-98.4 112.8l-.18.06c-20.12 8.35-44 12.91-67.39 12.91-15.99 0-39.71-2.18-61.87-12.54-52.1-24.42-98.93-37.69-139.3-39.5-26.77 1.25-44.29 8-54.28 13.5 1.27 22.27 2.69 45.19 4.2 69.14l.56 9.31c13.86 219.6 31.06 492.9-40.7 653.8-213.2 478.1-666 515.3-799.7 515.3zm0-67c121.7-.02 541-32.68 738.6-475.6 65.03-145.8 48.4-410 35.01-622.3-2.12-33.66-4.18-66.28-5.85-97.49l-.73-13.38 8.97-9.97c3.58-4.03 37.42-39.36 112.6-42.28l1.26-.03 1.23.03c49.71 1.87 105.7 17.29 166.6 45.81 8.93 4.2 20.85 6.24 33.46 6.24 14.4 0 29.66-2.7 42.26-8.01l1.89-.76c31.88-11.17 54.44-32.27 54.82-51.31.19-10.83-7.91-49.63-121-94.28-11.04-4.38-25.61-8.99-42.46-14.31-73.57-23.39-184.7-58.62-222.1-146.7-21.08-49.73-15.34-108.3 17.12-174.2 13.37-31.16 223.3-504.3 696-582.1-.13-2.19-.66-4.68-1.94-7.57-8.03-18.87-58.95-84.01-375.7-132.9-49.59-7.65-61.75-63.18-75.85-127.8-5.03-23.1-10.25-46.41-17.36-70.56-2.15-7.301-2.56-7.73-10.41-7.73h-3.7c-14.05 0-35.41 2.922-60.14 7.761-44.9 8.779-106.5 19.54-185.1 19.54-43.87 0-89.11-3.81-134.4-11.33-96.94-16.14-175.8-71.92-259.3-130.9-112.1-79.29-228-161.2-404.9-161.2-7.67 0-15.24.25-22.8.609l-1.99.101-2.01-.179c-4.34-.36-8.71-.531-13.19-.531-176.8 0-292.8 81.92-404.9 161.2-83.5 59.03-162.4 114.8-259.3 131-45.35 7.52-90.56 11.33-134.4 11.33-78.59 0-140.2-11.97-185.1-20.76-24.72-4.86-46.11-9.008-60.13-9.008-11.46 0-11.7.66-14.12 8.937-7.1 24.17-12.31 48.1-17.35 71.18-14.11 64.62-26.32 120.5-75.85 128.1-316.8 48.92-367.7 114.2-375.8 133-1.278 2.92-1.809 5.47-1.922 7.69 472.6 77.87 682.6 550.9 695.9 582.2 32.46 65.9 38.23 124.4 17.13 174.2-37.39 88.14-148.6 123.4-222.1 146.8-16.86 5.3-31.42 9.93-42.47 14.31-95.52 37.72-124.9 75.72-120.5 98.76 5.059 26.56 51.09 53.56 91.25 53.56 9.04 0 16.93-1.44 22.79-4.2 65.25-30.53 124.8-46.07 177-46.07 82.16 0 118.7 38.23 122.6 42.56l8.91 9.95-.73 13.34c-1.67 31.15-3.72 63.76-5.85 97.4-13.37 212.3-30 476.3 35.04 622.2 196.8 441.3 614 475.3 737.2 475.3 3.04 0 56.57.53 56.57.53 2.3.03 4.71.05 7.28.05" fill="#11100e"/></g></g></svg>
