<?xml version="1.0" encoding="utf-8"?>
<!-- Generator: Adobe Illustrator 22.0.0, SVG Export Plug-In . SVG Version: 6.00 Build 0)  -->
<svg version="1.1" id="Layer_1" xmlns="http://www.w3.org/2000/svg" xmlns:xlink="http://www.w3.org/1999/xlink" x="0px" y="0px"
	 viewBox="0 0 611.3 612" style="enable-background:new 0 0 611.3 612;" xml:space="preserve">
<style type="text/css">
	.st0{fill:url(#SVGID_1_);}
	.st1{fill:#C7D9E9;}
	.st2{fill:#A0BBCC;}
	.st3{fill:#FCFDFE;}
</style>
<g>
	
		<linearGradient id="SVGID_1_" gradientUnits="userSpaceOnUse" x1="155.875" y1="48.6687" x2="455.325" y2="567.3313" gradientTransform="matrix(1 0 0 -1 0 614)">
		<stop  offset="0.15" style="stop-color:#1E96C8"/>
		<stop  offset="0.85" style="stop-color:#37AEE2"/>
	</linearGradient>
	<circle class="st0" cx="305.6" cy="306" r="299.4"/>
	<g>
		<path class="st1" d="M227.8,409.8c-6-19.8-12.1-39.7-18.1-59.5c1-0.5,1.9-0.9,2.8-1.5c6.4-4,12.8-8.1,19.2-12.1
			c28.3-17.8,56.6-35.7,84.9-53.5c22.1-14,44.3-27.9,66.4-41.9c2.5-1.6,5.3-2.7,8.3-2.6c1.2,0,2.4,0.3,3,1.5s0,2.4-0.8,3.2
			c-1.6,1.6-3.3,3.1-5,4.6c-7,6.3-13.9,12.7-21,19c-13,11.7-26,23.4-39,35.1c-9,8.1-17.9,16.3-26.9,24.4c-15,13.6-30.1,27-45.2,40.6
			c-1.4,1.3-3.2,2.4-3.7,4.5c-0.8,1.3-1,2.8-1.1,4.2c-0.4,8.8-1.1,17.6-1.7,26.4c-1.1,15.3-2.1,30.6-3.1,45.8
			c-6.2,0.1-7.7-1.1-9.5-7C234.2,430.7,231,420.3,227.8,409.8z"/>
		<path class="st2" d="M246.9,448c1-15.3,2-30.6,3.1-45.8c0.7-8.8,1.4-17.6,1.7-26.4c0.1-1.5,0.3-2.9,1.1-4.2c2,1.4,4,2.8,5.9,4.1
			c12.3,9.2,24.6,18.3,36.9,27.5c0.8,0.6,1.9,1,2.2,2.3c-1.5,2.5-3.8,4.2-5.8,6.1c-5.5,5.5-11.1,11-16.7,16.5
			c-5.2,4.9-10.3,9.8-15.5,14.8C256.2,446.3,252,448.3,246.9,448z"/>
		<path class="st3" d="M431.4,190.3c-16.4,6.1-32.7,12.5-49.1,18.8c-22.4,8.7-44.7,17.3-67.1,26c-0.8,0.3-1.7,0.4-2.5,0.6
			c-13.2,5.8-26.8,10.7-40.3,15.9c-20.7,8-41.4,16-62.1,24c-1.1,0.4-2.2,0.8-3.3,1.2c-14.3,5.5-28.7,11-42.9,16.6
			c-9.6,3.8-19.5,7.1-28.9,11.3c-3.9,1.7-7.3,4-9.9,7.4c-2.9,5.2-2,8.8,3,12c1.6,1,3.4,2,5.3,2.6c25.4,8,50.8,15.9,76.3,23.8
			c1-0.5,1.9-0.9,2.8-1.5c6.4-4,12.8-8.1,19.2-12.1c28.3-17.8,56.6-35.7,84.9-53.5c22.1-14,44.3-27.9,66.4-41.9
			c2.5-1.6,5.3-2.7,8.3-2.6c1.2,0,2.4,0.3,3,1.5s0,2.4-0.8,3.2c-1.6,1.6-3.3,3.1-5,4.6c-7,6.3-13.9,12.7-21,19
			c-13,11.7-26,23.4-39,35.1c-9,8.1-17.9,16.3-26.9,24.4c-15,13.6-30.1,27-45.2,40.6c-1.4,1.3-3.2,2.4-3.7,4.5c2,1.4,4,2.8,5.9,4.1
			c0-0.2,0-0.4,0-0.7c0,0.2,0,0.4,0,0.7c12.3,9.2,24.6,18.3,36.9,27.5c0.8,0.6,1.9,1,2.2,2.3c3.3,0.8,5.3,3.8,8.2,5.2
			c0.4,0.3,0.7,0.7,1.1,1c21.9,16.2,43.8,32.4,65.7,48.5c3.1,2.3,6.7,3.7,10.5,4.4c5.9,1.1,11-1,14.3-6c1.8-2.7,2.9-5.8,3.6-9
			c3.2-14.8,6.3-29.7,9.5-44.5c1.6-7.2,2.7-14.5,4.8-21.7c0.1-0.6,0.1-1.2,0.2-1.7c1.5-7.5,3.1-15,4.6-22.4
			c1.8-8.4,3.5-16.7,5.3-25.1c2.6-12.3,5.3-24.6,7.9-36.9c0.2-0.6,0.5-1.3,0.7-1.9c1.2-6,2.4-12.1,3.7-18.1
			c2.3-10.7,4.7-21.4,7-32.1c1.1-7.2,2.8-14.2,4.4-21.2c0.9-6.3,2.9-12.3,2.8-18.8C451.9,192.6,442.9,186,431.4,190.3z"/>
	</g>
</g>
</svg>
