<?xml version="1.0" encoding="utf-8"?>
<!-- Generator: Adobe Illustrator 22.0.0, SVG Export Plug-In . SVG Version: 6.00 Build 0)  -->
<svg version="1.1" id="Layer_1" xmlns="http://www.w3.org/2000/svg" xmlns:xlink="http://www.w3.org/1999/xlink" x="0px" y="0px"
	 viewBox="0 0 360 360" style="enable-background:new 0 0 360 360;" xml:space="preserve">
<path d="M180.2,318.9c-43.2,0-86.3,0-129.5,0c-3.9,0-3.9,0-3.9-3.8c0-12.8,0-25.7,0.1-38.5c0.1-18.4,5.4-35.3,14.8-50.9
	c16.3-27,33.1-53.7,49.5-80.5c0.9-1.4,1.4-3.2,1.4-4.8c0.1-9.5,0.1-19.1,0-28.6c0-2.2,0.4-3.1,2.8-3.1c11.7,0.1,23.5,0.1,35.2,0.1
	c2,0,2.7,0.6,2.7,2.6c-0.1,6.4,0,12.8,0,19.2c0,2.1,0.5,2.9,2.7,2.9c16.2-0.1,32.4-0.1,48.7,0c2.1,0,2.9-0.6,2.8-2.8
	c-0.1-6.4,0-12.8-0.1-19.2c0-2,0.5-2.8,2.6-2.7c11.8,0.1,23.6,0.1,35.5,0c2.3,0,2.7,0.8,2.7,2.9c-0.1,9.8-0.1,19.6,0,29.4
	c0,1.3,0.4,2.7,1.1,3.8c16.7,26.8,33.6,53.6,50.2,80.5c5.4,8.7,10.3,17.8,12.1,28.1c0.9,5.2,1.7,10.5,1.8,15.8
	c0.3,15.5,0.1,31,0.3,46.5c0,2.7-0.8,3.3-3.4,3.3C266.9,318.9,223.6,318.9,180.2,318.9z M351.2,119.2c-3.4-17.4-9-33.9-17.7-49.4
	c-1.1-2-2.6-3.3-4.8-4.1c-30-10.9-60.9-17.9-92.6-21.5c-31.9-3.6-63.8-4.1-95.8-1.6c-20.9,1.6-41.6,4.4-61.9,9.6
	c-15.9,4.1-31.5,9.1-47.2,13.8c-1.2,0.4-2.5,1.3-3.1,2.3C18.8,84.8,12.5,102.4,9,121c-0.3,1.6,0,2.7,1.7,3.1
	c7.7,1.6,15.3,4.1,23.1,4.8c22.1,2.1,42.2-4.4,61.1-15.3c0.9-0.5,1.8-2.1,1.8-3.2c-0.3-7.8,3.7-13,9.9-16.8
	c9.5-5.7,20.1-7.9,30.8-9.2c30.4-3.6,60.9-3.9,91.3,0.7c9.1,1.4,18,3.7,25.9,8.7c6,3.8,9.5,9.1,9.3,16.4c-0.1,1.9,0.6,2.9,2.4,3.7
	c15.2,6.9,31,11.7,47.8,12.8c12.6,0.8,25-0.7,37.8-3.3C351.6,121.7,351.4,120.4,351.2,119.2z M10,153.4c1.5,9.6,7.4,15.3,16.9,17
	c14.4,2.7,28.6,2.1,42.7-1.6c15-3.9,24-13.5,26.2-29c0.8-5.3,0.8-10.6,1.2-16.8c-14.2,7.7-28.2,12.6-43.4,14.3
	c-15.3,1.8-30.1-0.5-45.6-5.6C8.7,139.6,8.9,146.6,10,153.4z M264,122.2c0,4.4-0.1,8.2,0,12.1c0.6,14.5,8.7,25.8,22.2,30.7
	c15.1,5.5,30.7,6,46.3,3.6c7.4-1.1,13.7-4.2,16.7-11.8c3.2-8.1,2.8-16.5,2.6-25.3C321.4,139.5,292.2,136.5,264,122.2z"/>
</svg>
