<?xml version="1.0" encoding="utf-8"?>
<!-- Generator: Adobe Illustrator 22.0.0, SVG Export Plug-In . SVG Version: 6.00 Build 0)  -->
<svg version="1.1" id="Icon" xmlns="http://www.w3.org/2000/svg" xmlns:xlink="http://www.w3.org/1999/xlink" x="0px" y="0px"
	 viewBox="0 0 48 48" style="enable-background:new 0 0 48 48;" xml:space="preserve">
<style type="text/css">
	.st0{fill:url(#SVGID_1_);}
	.st1{fill:#FFFFFF;}
</style>
<linearGradient id="SVGID_1_" gradientUnits="userSpaceOnUse" x1="-227.7248" y1="471.541" x2="-227.7248" y2="478.1617" gradientTransform="matrix(7.2338 0 0 7.2338 1671.24 -3410.9497)">
	<stop  offset="0" style="stop-color:#164672"/>
	<stop  offset="1" style="stop-color:#0074B5"/>
</linearGradient>
<path class="st0" d="M47.9,42c0,3.3-2.7,6-6,6h-36c-3.3,0-6-2.7-6-6V6.1c0-3.3,2.7-6,6-6h36c3.3,0,6,2.7,6,6V42z"/>
<path class="st1" d="M35.8,24c0-5.6,0-11.3,0-16.9c0-0.4,0-0.7-0.1-1.1c-0.5-1.7-1.9-2.8-3.7-2.9c-5.3,0-10.6,0-16,0
	c-0.3,0-0.5,0-0.8,0.1c-1.8,0.4-3,2-3,4c0,6.3,0,12.6,0,18.9c0,5,0,9.9,0,14.9c0,2,1.8,3.9,3.9,3.8c5.3-0.1,10.5,0,15.8,0
	c0.3,0,0.7,0,1-0.1c1.5-0.4,2.9-2,2.9-3.8C35.7,35.3,35.8,29.6,35.8,24z M22.2,6.5c0.6,0,1.2,0,1.8,0c0.6,0,1.1,0,1.7,0
	c0.3,0,0.6,0.1,0.6,0.4c0,0.4-0.3,0.5-0.6,0.5c-1.2,0-2.3,0-3.5,0c-0.3,0-0.6-0.1-0.6-0.5C21.7,6.5,21.9,6.5,22.2,6.5z M24,43.7
	c-1.3,0-2.4-1.1-2.4-2.4c0-1.3,1.1-2.4,2.4-2.4c1.3,0,2.3,1,2.3,2.4C26.3,42.7,25.3,43.7,24,43.7z M33.9,37.1c0,0.8,0,0.8-0.8,0.8
	c-6.1,0-12.1,0-18.2,0c-0.8,0-0.8,0-0.8-0.8c0-4.4,0-8.8,0-13.1c0-4.4,0-8.8,0-13.2c0-0.7,0-0.7,0.7-0.7c6.1,0,12.1,0,18.2,0
	c0.8,0,0.8,0,0.8,0.8C33.9,19.6,33.9,28.4,33.9,37.1z"/>
</svg>
