<?xml version="1.0" encoding="utf-8"?>
<!-- Generator: Adobe Illustrator 26.5.0, SVG Export Plug-In . SVG Version: 6.00 Build 0)  -->
<svg version="1.1" id="Layer_1" xmlns="http://www.w3.org/2000/svg" xmlns:xlink="http://www.w3.org/1999/xlink" x="0px" y="0px"
	 viewBox="0 0 540 960" style="enable-background:new 0 0 540 960;" xml:space="preserve">
<style type="text/css">
	.st0{fill:url(#SVGID_1_);}
	.st1{fill:#FFFFFF;}
</style>
<g>
	<g>
		<linearGradient id="SVGID_1_" gradientUnits="userSpaceOnUse" x1="270" y1="945.7177" x2="270" y2="481.4497">
			<stop  offset="1.385225e-07" style="stop-color:#FFFFFF;stop-opacity:0"/>
			<stop  offset="1" style="stop-color:#FFFFFF"/>
		</linearGradient>
		<path class="st0" d="M502.1,823.9c0,12.2-0.4,26.6-3,41c-3.7,20.5-13.2,38.6-27.5,52.5c-14.3,13.9-32.8,22.8-53.4,25.8
			c-14.4,2.1-29.1,2.3-44.1,2.4c-32.5,0.1-66.1,0.1-102.7,0.1c-32.5,0-67.6,0-107-0.1c-11.5,0-24.9-0.2-37.9-1.7
			c-18.4-2.1-34.4-8.1-47.8-17.8c-13.4-9.7-24-23.2-31.7-40.1c-8.3-18.3-9-37.3-9.1-55.2c-0.3-76.4-0.2-153.1-0.1-211.4
			c0-14.4,0.1-30.7,1.5-46.9c1.6-18.2,7.1-34.2,16.3-47.7c9.2-13.5,22.2-24.5,38.5-32.7c18-9,37.2-10.2,51.8-10.3
			c15.6-0.1,32.6-0.1,53.5-0.1c11.8,0,23.6,0,35.4,0c7.7,0,15.3,0,23,0v-0.2h12.4c9.9,0,19.8,0,29.7,0c9.9,0,19.8,0,29.7,0
			c18,0,32.6,0,46.1,0.1c13.4,0.1,25.4,0.3,37.6,1.7c18.8,2.2,35.1,8.4,48.5,18.4c13.5,10,24.1,23.9,31.6,41.3
			c7.7,17.7,8.4,36.4,8.4,54C502.3,669.6,502.3,743.8,502.1,823.9z M460.8,597.1c-0.3-12.1-0.5-23.5-3.8-34.2
			c-6.6-21.5-26.6-37.5-48.6-38.8c-14.3-0.9-29-1.3-43.1-1.7c-4.1-0.1-8.2-0.2-12.3-0.4c-4.9-0.2-10-0.2-14.8-0.3
			c-4.6-0.1-9.4-0.1-14.1-0.3c-0.4,0-61.9-0.2-62.4-0.2c-1.4,0-2.3,0-2.7,0c-10,0.1-20.1,0.2-29.8,0.2c-10.3,0-20.9,0.1-31.3,0.2
			c-18.7,0.2-35.2,0.6-50.4,1.2c-13.3,0.5-24.2,1.2-33.9,5.8c-19.1,9-29.8,23.3-32.6,43.7c-1.7,12.1-1.9,24.9-2,37.3
			c-0.6,45.8-1,91-1.3,134.5c-0.1,21.1,0.4,42.6,0.8,61.1c0.4,16.2,0.8,30.8,1.9,45.5c2,26.7,20.3,46.9,46.6,51.7
			c7,1.3,14.5,1.6,20.1,1.8c17.7,0.5,33.7,0.8,49,0.9c10.4,0,20.7,0,31.1,0c26.9,0,55.5-0.1,87.6-0.2c23.9-0.1,51-0.2,77.8-0.7
			c11.8-0.2,24.1-0.9,34.8-6.2c19-9.4,29.4-23.9,31.9-44.2c1.7-13.8,1.9-27.8,2-41c0.4-44.9,0.7-90.2,0.6-134.5
			C461.8,653.1,461.5,626.6,460.8,597.1z M404.5,771.5l0-4c0-1.5-0.5-2.6-0.7-3.1c0-0.1-0.1-0.1-0.1-0.2l-1.7-4.4l-4.7,0.5
			c-18,1.8-34.2,7.7-49.2,17.9c0-11.2,0-22.5,0-33.7l0-20.2c0-2.5,0-5,0-7.6c0-6.5,0-13.3,0-20c0-4,0-8.1,0-12.1
			c0.1-9.8,0.1-19.9-0.5-29.8c-2.1-31.6-16-57.7-41.5-77.6c-13.2-10.3-27.7-16.8-43.3-19.5c-7.7-1.3-15.3-2-22.5-2
			c-35.5,0-64.8,16-87.2,47.5c-8.6,12.1-14.1,26.7-16.5,43.2c-1.6,11.5-1.5,23.2,0.5,34.7c2.2,12.6,7.2,25,15.4,38
			c14.9,23.6,36.8,39.2,65.1,46.2c7.6,1.9,15.5,2.8,23.5,2.8c7.9,0,16-0.9,24.2-2.8c3.5-0.8,7.3-4.4,7.3-8.6c0.1-9,0.1-18.2,0.1-27
			l0-5.2c0-1.5-0.5-2.6-0.7-3.1l0-0.1l-2-5.4l-5.6,1.6c-0.9,0.3-1.9,0.5-2.8,0.8c-1.9,0.6-3.7,1.1-5.5,1.5
			c-5.4,1.2-10.6,1.9-15.6,1.9c-15.9,0-30.3-6.4-42.7-19.2c-4.5-4.6-7.8-9.1-9.9-13.5c-8.1-16.8-8.6-35.1-1.5-51.5
			c6.8-15.8,20.3-27.9,36.8-33.2c6.2-2,12.5-3,18.8-3c25.7,0,47.8,16.1,56.4,41c2.1,6.1,2.8,13,3.2,18.4c0.5,6.9,0.4,14.1,0.4,21
			c0,1.8,0,3.6,0,5.5c0,4.9-0.1,9.9-0.2,14.7c-0.1,5.2-0.2,10.5-0.2,15.8c0,39.1,0,78.9,0.1,117.4l0,26.5c0,0.8,0,1.6,0.1,2.4
			c0,0.3,0,0.7,0.1,1.1l0.3,5.6l5.6,0.3c0.3,0,0.7,0,1,0.1c0.8,0,1.5,0.1,2.4,0.1l1.7,0c2.2,0,4.4,0,6.7,0c2.2,0,4.4,0,6.6,0
			c4.9,0,8.6,0,12.2,0.1l0.2,0c5.6,0,9-3.2,9.4-8.9c1.8-24.8,13.8-41.9,36.7-52.3c2.2-1,4.8-1.7,7.6-2.4c1.9-0.5,3.8-1,5.8-1.7
			c3-1,6.2-4.3,6.2-8.1C404.5,789.3,404.5,780.3,404.5,771.5z"/>
	</g>
	<g>
		<path class="st1" d="M502.1,135.5c0-12.2-0.4-26.6-3-41c-3.7-20.5-13.2-38.6-27.5-52.5c-14.3-13.9-32.8-22.8-53.4-25.8
			c-14.4-2.1-29.1-2.3-44.1-2.4c-32.5-0.1-66.1-0.1-102.7-0.1c-32.5,0-67.6,0-107,0.1c-11.5,0-24.9,0.2-37.9,1.7
			c-18.4,2.1-34.4,8.1-47.8,17.8c-13.4,9.7-24,23.2-31.7,40.1c-8.3,18.3-9,37.3-9.1,55.2c-0.3,76.4-0.2,153.1-0.1,211.4
			c0,14.4,0.1,30.7,1.5,46.9c1.6,18.2,7.1,34.2,16.3,47.7c9.2,13.5,22.2,24.5,38.5,32.7c18,9,37.2,10.2,51.8,10.3
			c15.6,0.1,32.6,0.1,53.5,0.1c11.8,0,23.6,0,35.4,0c7.7,0,15.3,0,23,0v0.2h12.4c9.9,0,19.8,0,29.7,0c9.9,0,19.8,0,29.7,0
			c18,0,32.6,0,46.1-0.1c13.4-0.1,25.4-0.3,37.6-1.7c18.8-2.2,35.1-8.4,48.5-18.4c13.5-10,24.1-23.9,31.6-41.3
			c7.7-17.7,8.4-36.4,8.4-54C502.3,289.8,502.3,215.5,502.1,135.5z M460.8,362.3c-0.3,12.1-0.5,23.5-3.8,34.2
			c-6.6,21.5-26.6,37.5-48.6,38.8c-14.3,0.9-29,1.3-43.1,1.7c-4.1,0.1-8.2,0.2-12.3,0.4c-4.9,0.2-10,0.2-14.8,0.3
			c-4.6,0.1-9.4,0.1-14.1,0.3c-0.4,0-61.9,0.2-62.4,0.2c-1.4,0-2.3,0-2.7,0c-10-0.1-20.1-0.2-29.8-0.2c-10.3,0-20.9-0.1-31.3-0.2
			c-18.7-0.2-35.2-0.6-50.4-1.2c-13.3-0.5-24.2-1.2-33.9-5.8c-19.1-9-29.8-23.3-32.6-43.7c-1.7-12.1-1.9-24.9-2-37.3
			c-0.6-45.8-1-91-1.3-134.5c-0.1-21.1,0.4-42.6,0.8-61.1c0.4-16.2,0.8-30.8,1.9-45.5c2-26.7,20.3-46.9,46.6-51.7
			c7-1.3,14.5-1.6,20.1-1.8c17.7-0.5,33.7-0.8,49-0.9c10.4,0,20.7,0,31.1,0c26.9,0,55.5,0.1,87.6,0.2c23.9,0.1,51,0.2,77.8,0.7
			c11.8,0.2,24.1,0.9,34.8,6.2c19,9.4,29.4,23.9,31.9,44.2c1.7,13.8,1.9,27.8,2,41c0.4,44.9,0.7,90.2,0.6,134.5
			C461.8,306.3,461.5,332.8,460.8,362.3z M404.5,187.9l0,4c0,1.5-0.5,2.6-0.7,3.1c0,0.1-0.1,0.1-0.1,0.2l-1.7,4.4l-4.7-0.5
			c-18-1.8-34.2-7.7-49.2-17.9c0,11.2,0,22.5,0,33.7l0,20.2c0,2.5,0,5,0,7.6c0,6.5,0,13.3,0,20c0,4,0,8.1,0,12.1
			c0.1,9.8,0.1,19.9-0.5,29.8c-2.1,31.6-16,57.7-41.5,77.6c-13.2,10.3-27.7,16.8-43.3,19.5c-7.7,1.3-15.3,2-22.5,2
			c-35.5,0-64.8-16-87.2-47.5c-8.6-12.1-14.1-26.7-16.5-43.2c-1.6-11.5-1.5-23.2,0.5-34.7c2.2-12.6,7.2-25,15.4-38
			c14.9-23.6,36.8-39.2,65.1-46.2c7.6-1.9,15.5-2.8,23.5-2.8c7.9,0,16,0.9,24.2,2.8c3.5,0.8,7.3,4.4,7.3,8.6c0.1,9,0.1,18.2,0.1,27
			l0,5.2c0,1.5-0.5,2.6-0.7,3.1l0,0.1l-2,5.4l-5.6-1.6c-0.9-0.3-1.9-0.5-2.8-0.8c-1.9-0.6-3.7-1.1-5.5-1.5
			c-5.4-1.2-10.6-1.9-15.6-1.9c-15.9,0-30.3,6.4-42.7,19.2c-4.5,4.6-7.8,9.1-9.9,13.5c-8.1,16.8-8.6,35.1-1.5,51.5
			c6.8,15.8,20.3,27.9,36.8,33.2c6.2,2,12.5,3,18.8,3c25.7,0,47.8-16.1,56.4-41c2.1-6.1,2.8-13,3.2-18.4c0.5-6.9,0.4-14.1,0.4-21
			c0-1.8,0-3.6,0-5.5c0-4.9-0.1-9.9-0.2-14.7c-0.1-5.2-0.2-10.5-0.2-15.8c0-39.1,0-78.9,0.1-117.4l0-26.5c0-0.8,0-1.6,0.1-2.4
			c0-0.3,0-0.7,0.1-1.1l0.3-5.6l5.6-0.3c0.3,0,0.7,0,1-0.1c0.8,0,1.5-0.1,2.4-0.1l1.7,0c2.2,0,4.4,0,6.7,0c2.2,0,4.4,0,6.6,0
			c4.9,0,8.6,0,12.2-0.1l0.2,0c5.6,0,9,3.2,9.4,8.9c1.8,24.8,13.8,41.9,36.7,52.3c2.2,1,4.8,1.7,7.6,2.4c1.9,0.5,3.8,1,5.8,1.7
			c3,1,6.2,4.3,6.2,8.1C404.5,170.1,404.5,179.1,404.5,187.9z"/>
	</g>
</g>
</svg>
