<?xml version="1.0" encoding="utf-8"?>
<!-- Generator: Adobe Illustrator 28.4.1, SVG Export Plug-In . SVG Version: 6.00 Build 0)  -->
<svg version="1.1" id="Layer_1" xmlns="http://www.w3.org/2000/svg" xmlns:xlink="http://www.w3.org/1999/xlink" x="0px" y="0px"
	 viewBox="0 0 611.3 612" style="enable-background:new 0 0 611.3 612;" xml:space="preserve">
<style type="text/css">
	.st0{fill:#010101;}
	.st1{fill:#FFFFFF;}
	.st2{fill:#EC1E52;}
	.st3{fill:#6AC9CF;}
</style>
<g>
	<path class="st0" d="M526.8,610.8H86.2c-46.7,0-84.5-37.8-84.5-84.5V85.7C1.7,39,39.5,1.2,86.2,1.2h440.6
		c46.7,0,84.5,37.8,84.5,84.5v440.6C611.3,573,573.5,610.8,526.8,610.8z"/>
	<g>
		<path class="st1" d="M220.4,366.6c0.3,0.3,0.7,0.6,1,0.9c0.1,0.3,0.2,0.6,0.4,0.9c7,8.6,15.7,14.9,26.2,18.6
			c9.8,3.4,19.8,4.5,30,2.5c19-3.6,33.1-14,42.3-30.9c4.9-9,6.8-18.8,6.8-28.9c0-90.9,0-181.8,0-272.6c0-0.7,0-1.3,0-2
			c0-1.9,0.1-2,1.9-2c0.5,0,1,0,1.5,0c14,0,28,0,42.1,0c1.7,0,3.3-0.1,5-0.1c0.1,0,0.2,0.1,0.2,0.2c-0.1,1,0.3,2,0.5,2.9
			c5.5,25.1,18.8,45.1,39.6,60c0.7,0.5,1.3,1.4,2.3,1.1c0,0,0,0,0,0c-0.1,0.5,0.2,0.6,0.5,0.5c0,0,0,0,0,0c0,0.4,0.2,0.5,0.6,0.5
			c0.6,0.5,1.3,1,1.9,1.6c0.1,0.3,0.2,0.5,0.6,0.4c0,0,0,0,0,0c0,1,0.8,1.4,1.4,2c2.6,2.8,5.6,5.2,8.6,7.6
			c11.9,9.4,25.2,15.8,40.1,18.8c0.1,0,0.1,0.1,0.2,0.2c0,0.9-0.1,1.8-0.1,2.7c0,16.5,0,33,0,49.6c0,2.3,0,2.3-2.3,2.3
			c-10.5,0-21-1.2-31.3-3.3c-22.2-4.6-42.8-13.3-61.5-26.2c-0.6-0.4-1.1-1-2.2-1c0,1,0,2,0,2.9c0,46.6,0,93.1,0,139.7
			c0,8.4-0.9,16.7-2.6,24.8c-6,28.6-19.9,52.8-42.1,71.8c-30.2,25.8-65.3,35.5-104.6,29.9c-16.5-2.4-31.9-8.2-46.2-16.9
			c-0.7-0.4-1.3-1.1-2.2-1l0,0c-0.2-0.8-0.9-1-1.5-1.2c-1.1-0.9-2.3-1.9-3.4-2.8c0-0.4-0.2-0.6-0.6-0.5c0,0,0,0,0,0
			c0-0.4-0.2-0.6-0.6-0.4c0,0-0.1,0-0.1,0c0.5-1-0.4-1.4-0.9-1.9c-3.9-4.3-7.4-8.8-10.6-13.6c-12.9-19-20.1-40.1-21.8-63
			c-0.5-7.3-0.5-14.6,0.2-22c0.9-9.5,2.8-18.8,5.9-27.8c7.5-22.2,20-41.1,37.7-56.5c13.1-11.5,28-19.8,44.4-25.3
			c12.2-4.1,24.7-6,37.5-6.5c0.1,0,0.2,0.1,0.2,0.1c0,0.8-0.1,1.7-0.1,2.5c0,16.5,0,33,0,49.6c0,3.2,0,3.2-3,2.4
			c-6.7-1.6-13.4-2.3-20.3-1.6c-17.7,1.8-31.9,9.8-42.4,24.1c-10.1,13.8-13.4,29.3-10.1,46c3.4,17.1,12.8,30.2,27.7,39.3
			c0.7,0.4,1.3,1.1,2.2,0.9c0,0,0,0,0,0C219.5,366.5,220,366.5,220.4,366.6z"/>
		<path class="st2" d="M178.9,424c0.9-0.1,1.5,0.6,2.2,1c14.3,8.6,29.7,14.5,46.2,16.9c39.2,5.6,74.3-4.1,104.6-29.9
			c22.3-19,36.1-43.2,42.1-71.8c1.7-8.2,2.6-16.5,2.6-24.8c0-46.6,0-93.1,0-139.7c0-1,0-1.9,0-2.9c1.1,0,1.6,0.6,2.2,1
			c18.7,12.9,39.2,21.6,61.5,26.2c10.3,2.1,20.7,3.3,31.3,3.3c2.3,0,2.3,0,2.3-2.3c0-16.5,0-33,0-49.6c0-0.9,0.1-1.8,0.1-2.7
			c2.2,0,4.3,0.7,6.4,1c4.1,0.4,8.1,1,12.2,0.9c1.2,0,1.9,0.3,1.8,1.7c-0.1,0.5,0,1,0,1.5c0,21.1,0,42.2,0,63.3c0,0.3,0,0.5,0,0.8
			c0,2.4,0,2.5-2.5,2.4c-30.2-0.4-58.2-8.4-84.1-24c-2.9-1.8-5.7-3.7-8.6-5.6c-0.5-0.3-1-0.9-1.9-0.8c-0.3,0.9-0.1,1.9-0.1,2.9
			c0,45.8,0,91.6,0,137.4c0,20.9-4.4,40.7-13.9,59.4c-9.7,19.1-23.3,34.9-40.8,47.3c-16.1,11.3-33.8,18.6-53.2,21.9
			c-12.4,2.1-24.7,2.4-37.1,0.8c-24.6-3.2-46.6-12.5-65.8-28.3c-2.1-1.7-4.1-3.5-6-5.3C179.7,425.4,178.8,425.1,178.9,424z"/>
		<path class="st3" d="M377.6,53c-1.7,0-3.3,0.1-5,0.1c-14,0-28,0-42.1,0c-0.5,0-1,0-1.5,0c-1.9,0.1-1.9,0.1-1.9,2c0,0.7,0,1.3,0,2
			c0,90.9,0,181.8,0,272.6c0,10.1-1.9,19.9-6.8,28.9c-9.2,17-23.3,27.3-42.3,30.9c-10.2,1.9-20.2,0.9-30-2.5
			c-10.5-3.7-19.1-10-26.2-18.6c-0.2-0.2-0.3-0.6-0.4-0.9c3.9,1.4,7.7,3.1,11.8,4.1c32.3,8.2,65.4-12.6,72-45.3
			c0.9-4.5,1.3-9.1,1.3-13.7c0-91,0-181.9,0-272.9c0-3.7,0-3.7,3.7-3.7c21,0,42.1,0,63.1,0c0.6,0,1.2,0.1,1.8,0
			c1.4-0.2,1.7,0.5,1.7,1.7C376.5,42.8,376.8,47.9,377.6,53z"/>
		<path class="st3" d="M265.3,202.7c-12.8,0.5-25.3,2.4-37.5,6.5c-16.5,5.5-31.3,13.9-44.4,25.3c-17.7,15.5-30.2,34.3-37.7,56.5
			c-3,9-4.9,18.3-5.9,27.8c-0.7,7.3-0.8,14.7-0.2,22c1.7,22.9,8.9,43.9,21.8,63c3.2,4.8,6.7,9.3,10.6,13.6c0.5,0.5,1.3,0.9,0.9,1.9
			c-1.4-0.3-2.3-1.3-3.3-2.1c-23.5-18.3-39.2-41.8-46.7-70.6c-3.5-13.6-4.8-27.5-3.7-41.4c2.2-28.6,12.7-53.8,31.7-75.4
			c19.7-22.4,44.3-36.3,73.6-41.8c12.3-2.3,24.8-2.9,37.3-1.3c3.8,0.5,3.8,0.5,3.8,4.4C265.4,194.9,265.6,198.8,265.3,202.7z"/>
		<path class="st2" d="M219.5,365.9c-0.9,0.2-1.6-0.5-2.2-0.9c-14.9-9.1-24.3-22.2-27.7-39.3c-3.3-16.7,0-32.2,10.1-46
			c10.5-14.3,24.7-22.3,42.4-24.1c6.9-0.7,13.6,0,20.3,1.6c3,0.7,3,0.8,3-2.4c0-16.5,0-33,0-49.6c0-0.8,0.1-1.7,0.1-2.5
			c6.4-0.4,12.7,0.3,19,0.9c1,0.1,1.3,0.6,1.3,1.5c0,0.5,0,1,0,1.5c0,21.8,0,43.6,0,65.3c0,0.9,0.1,1.8-0.2,2.7
			c-0.9,0.4-1.7-0.1-2.5-0.3c-31.7-8.4-64.1,10.4-72.3,42.2c-4.3,16.9-1.5,32.7,8,47.4C219.1,364.6,219.9,365,219.5,365.9z"/>
		<path class="st1" d="M239.5,534.4c-1.8,1.6-3.5,3.3-5.3,4.8c-0.8,0.7-0.6,1.5-0.6,2.3c0,5.6,0,11.2,0,16.8c0,0.5-0.1,1,0,1.5
			c0.2,1.4-0.5,1.6-1.7,1.6c-5.5,0-11-0.1-16.5,0c-1.3,0-1.9-0.4-1.7-1.7c0.1-0.5,0-1,0-1.5c0-25.7,0-51.4,0-77.1c0-0.6,0-1.2,0-1.8
			c-0.1-0.9,0.2-1.4,1.3-1.4c5.8,0,11.7,0,17.5,0c0.9,0,1.2,0.4,1.1,1.2c0,0.6,0,1.2,0,1.8c0,10.9,0,21.9,0,32.8c0,0.8,0,1.6,0,2.6
			c1.1-0.4,1.6-1.1,2.1-1.7c5.5-5.4,10.9-10.8,16.4-16.2c0.6-0.6,1.1-1.4,2.2-1.4c7.5,0,15,0,22.7,0c-0.2,1-0.9,1.3-1.4,1.8
			c-7,6.9-14.1,13.7-21.2,20.6c-2.4,2.3-2.3,1.5-0.5,4.1c8.1,11.7,16.2,23.5,24.3,35.2c0.6,0.8,1.1,1.6,1.7,2.5
			c-0.6,0.5-1.3,0.3-1.9,0.3c-5.6,0-11.2-0.1-16.8,0.1c-1.7,0-2.7-0.5-3.7-1.9c-5.4-7.9-11-15.7-16.5-23.6
			C240.7,535.7,240.4,535,239.5,534.4z"/>
		<path class="st1" d="M453.5,534.3c-1.7,1.6-3.4,3.2-5.2,4.7c-0.8,0.7-0.8,1.5-0.8,2.5c0,5.8,0,11.7,0,17.5c0,2.5,0.3,2.3-2.2,2.3
			c-5.1,0-10.2,0-15.3,0c-2.5,0-2.3,0.3-2.3-2.3c0-19.4,0-38.9,0-58.3c0-6.8,0-13.7,0-20.5c0-2.5-0.2-2.2,2.3-2.2
			c5.1,0,10.2,0,15.3,0c2.4,0,2.2-0.2,2.2,2.1c0,11.2,0,22.4,0,33.5c0,0.8,0,1.6,0,2.5c1,0,1.3-0.7,1.8-1.1
			c5.6-5.5,11.2-11,16.7-16.6c1-1,2.1-1.4,3.5-1.4c7.1,0.1,14.2,0,21.2,0c0.3,1-0.5,1.2-0.9,1.6c-7.1,6.9-14.2,13.8-21.3,20.8
			c-2.4,2.3-2.2,1.6-0.5,4.2c8.3,12.1,16.7,24.2,25,36.2c0.3,0.5,0.8,0.9,0.9,1.5c-0.4,0.6-1.1,0.3-1.6,0.3c-5.8,0-11.5,0-17.3,0
			c-1.5,0-2.4-0.5-3.2-1.7c-5.4-7.9-11-15.7-16.5-23.6C454.8,535.8,454.4,535,453.5,534.3z"/>
		<path class="st1" d="M386.3,561.7c-3.4,0.2-6.7,0.2-10.1,0c-0.4-0.4-0.9-0.4-1.4-0.4c-6.8-1.1-12.7-4.1-17.6-8.8
			c-7.3-7-11-15.5-10.6-25.7c0.5-14,7.5-23.8,19.7-30c2.8-1.4,6-1.9,8.9-3c0,0,0,0,0,0c0.5,0.2,0.9,0.1,1.4-0.1
			c3.3-0.2,6.7-0.1,10,0c0.5,0.4,1.1,0.4,1.6,0.5c15,3.1,26.4,16,27.4,31.1c1.1,16.8-9.9,31.7-26.3,35.7
			C388.4,561.1,387.3,561.1,386.3,561.7z M381.2,544.2c9.2,0,16.6-7.3,16.6-16.4c0-9.4-7.4-16.8-16.8-16.8
			c-9.1,0-16.6,7.4-16.7,16.4C364.3,536.8,371.8,544.3,381.2,544.2z"/>
		<path class="st1" d="M347.8,478c-1.5,4.7-2.9,9.1-4.3,13.5c-0.4,1.3-0.4,3.1-1.5,3.9c-1.1,0.8-2.7,0.2-4.2,0.3
			c-3.6,0-7.2,0-10.8,0c-1.1,0-1.6,0.3-1.5,1.4c0.1,0.6,0,1.2,0,1.8c0,19.8,0,39.7,0,59.5c0,0.3,0,0.7,0,1c0,2.1,0,2-2.1,2
			c-4.3,0-8.5,0-12.8,0c-1.3,0-2.5,0-3.8,0c-1.7,0-1.7,0-1.8-1.9c0-0.4,0-0.8,0-1.3c0-20,0-40,0-60c0-0.2,0-0.3,0-0.5
			c0-2.7,0-2.4-2.4-2.4c-5.3,0-10.7,0-16,0c-1.8,0-1.8,0-1.8-1.7c0-4.6,0-9.2,0-13.8c0-1.7,0-1.8,1.8-1.8c7,0,14,0,21,0
			c12.3,0,24.7,0,37,0C345.8,478,346.7,478,347.8,478z"/>
		<path class="st1" d="M181.5,478c-1.8,5.7-3.5,11.1-5.2,16.5c-0.3,1-0.9,1.2-1.8,1.2c-4.1,0-8.2,0-12.3,0c-3.1,0-2.8-0.4-2.8,2.7
			c0,12.5,0,25,0,37.5c0,7.8,0,15.5,0,23.3c0,2.1,0,2.1-2,2.1c-5.5,0-11,0-16.5,0c-1.9,0-1.9,0-1.9-1.9c0-8.9,0-17.8,0-26.8
			c0-11.3,0-22.5,0-33.8c0-0.3,0-0.7,0-1c0-2.9,0.2-2.6-2.5-2.6c-1.5,0-3,0-4.5,0c-3.8,0-7.7,0-11.5,0c-1.2,0-1.8-0.1-1.8-1.6
			c0.1-4.8,0.1-9.5,0-14.3c0-1,0.2-1.6,1.4-1.4c0.5,0.1,1,0,1.5,0c18.9,0,37.9,0,56.8,0C179.3,478,180.2,478,181.5,478z"/>
		<path class="st1" d="M205.1,533.5c0,8.7,0,17.4,0,26c0,2,0.1,1.9-1.9,1.9c-5.3,0-10.7,0-16,0c-2,0-1.8,0-1.8-1.9
			c0-17.6,0-35.2,0-52.8c0-1.9,0-1.9,1.9-1.9c5.3,0,10.7,0,16,0c1.8,0,1.9,0,1.9,2C205.1,515.6,205.1,524.5,205.1,533.5z"/>
		<path class="st2" d="M420.2,117.2c-1.1,0.3-1.7-0.6-2.3-1.1c-20.8-15-34.1-34.9-39.6-60c-0.2-1-0.6-1.9-0.5-2.9
			c5.9,0,11.8-0.1,17.7-0.1c1.2,0,1.7,0.5,1.6,1.6c0,0.4,0,0.8,0,1.2c-0.4,13.1,2.9,25.4,8.2,37.3c3.5,8,8.2,15.3,13.7,22
			C419.5,115.7,420.3,116.2,420.2,117.2z"/>
		<path class="st3" d="M473.8,148.5c-14.9-3-28.2-9.3-40.1-18.8c-3-2.4-5.9-4.8-8.6-7.6c-0.5-0.6-1.4-1-1.4-2c0.8-0.1,1.4,0.5,2,0.9
			c12.3,6.8,25.3,11,39.3,12.2c2.4,0.2,4.8,0.4,7.2,0.4c1.2,0,1.6,0.5,1.6,1.6C473.8,139.6,473.8,144.1,473.8,148.5z"/>
		<path class="st3" d="M375.3,493.7c-2.9,1.1-6.1,1.6-8.9,3c-12.2,6.3-19.3,16-19.7,30c-0.3,10.2,3.3,18.7,10.6,25.7
			c4.9,4.7,10.8,7.7,17.6,8.8c0.5,0.1,1,0,1.4,0.4c-9.4,0.4-17.6-2.8-24.3-9.3c-10-9.8-13.3-21.7-9-35.1c4.3-13.3,14-21,27.7-23.5
			C372.1,493.5,373.7,493.4,375.3,493.7z"/>
		<path class="st2" d="M386.3,561.7c0.9-0.6,2.1-0.5,3.1-0.8c16.4-4,27.4-18.8,26.3-35.7c-1-15.1-12.4-28-27.4-31.1
			c-0.6-0.1-1.2-0.1-1.6-0.5c7-0.4,13.4,1.7,19.1,5.6c10.1,6.9,15.3,16.7,15.2,28.8c0,10.9-4.7,19.8-13.3,26.6
			c-5.9,4.6-12.6,7-20.2,7.1C387.1,561.8,386.7,561.7,386.3,561.7z"/>
		<path class="st1" d="M185.4,487.7c0-5.4,4.4-9.7,10-9.6c5.5,0.1,9.8,4.4,9.7,9.9c0,5.4-4.5,9.7-10,9.7
			C189.6,497.6,185.4,493.2,185.4,487.7z"/>
		<path class="st2" d="M177.4,422.9c0.7,0.2,1.3,0.4,1.5,1.2C178,424.2,177.7,423.5,177.4,422.9z"/>
		<path class="st3" d="M376.7,493.6c-0.5,0.2-0.9,0.3-1.4,0.1C375.7,493.3,376.2,493.4,376.7,493.6z"/>
		<path class="st2" d="M220.4,366.6c-0.4-0.1-0.9-0.1-0.9-0.7C220.2,365.6,220.3,366.2,220.4,366.6z"/>
		<path class="st2" d="M420.8,117.7c-0.4,0-0.7,0-0.5-0.5C420.6,117.1,420.8,117.3,420.8,117.7z"/>
		<path class="st2" d="M421.3,118.1c-0.3,0-0.6-0.1-0.6-0.5C421.1,117.6,421.3,117.8,421.3,118.1z"/>
		<path class="st3" d="M423.8,120.1c-0.4,0.1-0.5-0.1-0.6-0.4C423.5,119.6,423.8,119.8,423.8,120.1z"/>
		<path class="st3" d="M172.8,419.2c0.4-0.2,0.6,0,0.6,0.4C173,419.7,172.8,419.6,172.8,419.2z"/>
		<path class="st3" d="M173.4,419.6c0.4-0.1,0.6,0.1,0.6,0.5C173.6,420.1,173.4,420,173.4,419.6z"/>
	</g>
</g>
</svg>
