<?xml version="1.0" encoding="utf-8"?>
<!-- Generator: Adobe Illustrator 25.1.0, SVG Export Plug-In . SVG Version: 6.00 Build 0)  -->
<svg version="1.1" id="Layer_1" xmlns="http://www.w3.org/2000/svg" xmlns:xlink="http://www.w3.org/1999/xlink" x="0px" y="0px"
	 viewBox="0 0 500 500" style="enable-background:new 0 0 500 500;" xml:space="preserve">
<style type="text/css">
	.st0{fill:#A4FF9F;}
	.st1{fill:#005F08;}
	.st2{fill:#19B400;}
	.st3{fill:none;stroke:#000000;stroke-width:20;stroke-miterlimit:10;}
	.st4{fill:#FFFFFF;}
	.st5{enable-background:new    ;}
</style>
<path class="st0" d="M454.5,500h-409C20.5,500,0,479.5,0,454.5v-409C0,20.5,20.5,0,45.5,0h409c25,0,45.5,20.5,45.5,45.5v409
	C500,479.5,479.5,500,454.5,500z"/>
<g>
	<path class="st1" d="M157.4,451.8c16.7,2.5,33.3,5.1,50.3,7.6c-3.6-9.4-7-18.7-10.6-28.1c26.8,15.2,55.1,19.5,84.9,12.1
		c23-5.6,42.2-17.6,57.7-35.4c35.5-40.7,35.5-97.8,8.3-137.6c-2.7,2.1-5.4,4.3-8.3,6.6c-6.8-18.2-13.6-36.2-20.5-54.5
		c24.3,4.2,48.4,8.2,72.9,12.4c-4.3,3.5-8.4,6.8-12.4,10c26.9,39.8,35,82.8,22.8,129.3c-9.6,36.3-30.5,65.3-61.5,86.3
		c-65.3,44.2-142,27.8-183.5-8.4C157.4,452.1,157.4,451.9,157.4,451.8z"/>
	<path class="st2" d="M352.1,216.5c-16.7-2.5-33.4-5.1-50.3-7.6c3.5,9.4,7,18.7,10.6,28.1c-27.9-15.6-57.2-19.7-88-11.3
		c-23.5,6.4-42.8,19.5-57.8,38.4c-34.9,44-28.9,100-5,133.6c2.7-2.2,5.4-4.3,8.1-6.6c6.8,18.2,13.7,36.2,20.5,54.5
		c-24.4-4.2-48.6-8.2-72.9-12.4c4.2-3.4,8.4-6.8,12.4-9.9c-27.9-41.8-35.8-86.8-21.1-134.9c11.6-37.7,34.9-66.8,69.1-86.5
		C244.6,163.4,316,184.2,352.1,216.5z"/>
	<g>
		<g>
			<path class="st3" d="M155.6,334.8v-21.2c-13.4-1.7-22.8-6.5-30.4-14.7c-7.1-8-11.7-20.1-11.7-35.4c0-27,16.5-47.5,42.1-51.7
				v-20.9h13v20.5c9.4,0,18,2.7,22.8,5.2l-4.2,14c-4.2-2.5-11.3-5.2-21.7-5.2c-20.7,0-33.5,16.8-33.5,37.2
				c0,23.2,14.3,36.8,32.7,36.8c11.5,0,18.8-2.9,23.9-5.2l3.3,13.2c-4.2,2.3-13,5.6-23.2,6.1v21.2L155.6,334.8L155.6,334.8z"/>
			<path class="st4" d="M155.6,334.8v-21.2c-13.4-1.7-22.8-6.5-30.4-14.7c-7.1-8-11.7-20.1-11.7-35.4c0-27,16.5-47.5,42.1-51.7
				v-20.9h13v20.5c9.4,0,18,2.7,22.8,5.2l-4.2,14c-4.2-2.5-11.3-5.2-21.7-5.2c-20.7,0-33.5,16.8-33.5,37.2
				c0,23.2,14.3,36.8,32.7,36.8c11.5,0,18.8-2.9,23.9-5.2l3.3,13.2c-4.2,2.3-13,5.6-23.2,6.1v21.2L155.6,334.8L155.6,334.8z"/>
		</g>
	</g>
	<g>
		<g>
			<path class="st3" d="M340.9,459.3v-17.7c-10.2-0.2-20.7-3.3-26.8-7.7l4.2-11.7c6.3,4.2,15.4,7.5,25.3,7.5
				c12.5,0,20.9-7.2,20.9-17.2c0-9.6-6.8-15.6-19.8-20.9c-17.8-7-28.9-15.1-28.9-30.3c0-14.5,10.3-25.6,26.5-28.2v-17.7H353v17
				c10.5,0.3,17.7,3.2,22.8,6.1l-4.4,11.6c-3.7-2.1-10.8-5.9-22.1-5.9c-13.5,0-18.6,8.1-18.6,15.1c0,9.1,6.5,13.7,21.8,20
				c18.1,7.3,27.1,16.5,27.1,32.1c0,13.8-9.6,26.8-27.7,29.8v18.2H340.9z"/>
			<path class="st4" d="M340.9,459.3v-17.7c-10.2-0.2-20.7-3.3-26.8-7.7l4.2-11.7c6.3,4.2,15.4,7.5,25.3,7.5
				c12.5,0,20.9-7.2,20.9-17.2c0-9.6-6.8-15.6-19.8-20.9c-17.8-7-28.9-15.1-28.9-30.3c0-14.5,10.3-25.6,26.5-28.2v-17.7H353v17
				c10.5,0.3,17.7,3.2,22.8,6.1l-4.4,11.6c-3.7-2.1-10.8-5.9-22.1-5.9c-13.5,0-18.6,8.1-18.6,15.1c0,9.1,6.5,13.7,21.8,20
				c18.1,7.3,27.1,16.5,27.1,32.1c0,13.8-9.6,26.8-27.7,29.8v18.2H340.9z"/>
		</g>
	</g>
</g>
<g class="st5">
	<path d="M100.8,24.5H80.4V13.5h53.9v10.9h-20.6V85h-13V24.5z"/>
	<path d="M154.2,19c0,3.9-2.9,7-7.4,7c-4.3,0-7.2-3.1-7.2-7c0-4,3-7.1,7.3-7.1C151.3,11.9,154.1,14.9,154.2,19z M140.3,85V33.4h13.1
		V85H140.3z"/>
	<path d="M167.4,50.5c0-6.8-0.2-12.3-0.4-17.2h11.4l0.6,7.9h0.2c3.8-5.8,9.9-9.1,17.7-9.1c11.9,0,21.7,10.2,21.7,26.3
		c0,18.7-11.8,27.7-23.5,27.7c-6.5,0-11.9-2.8-14.5-6.9h-0.2V106h-13V50.5z M180.5,63.4c0,1.3,0.1,2.4,0.4,3.6
		c1.3,5.3,5.9,9.1,11.4,9.1c8.3,0,13.1-6.9,13.1-17.1c0-9.1-4.5-16.5-12.8-16.5c-5.4,0-10.4,3.9-11.7,9.6c-0.3,1.1-0.5,2.2-0.5,3.3
		V63.4z"/>
	<path d="M278.5,58.7c0,19-13.4,27.5-26.5,27.5c-14.6,0-25.9-10.1-25.9-26.6c0-17,11.1-27.3,26.7-27.3
		C268.2,32.2,278.5,43,278.5,58.7z M239.6,59.2c0,10,4.9,17.5,12.8,17.5c7.4,0,12.6-7.3,12.6-17.7c0-8.1-3.6-17.3-12.5-17.3
		C243.3,41.7,239.6,50.6,239.6,59.2z"/>
	<path d="M358.7,9.7v60.7c0,5.3,0.2,11,0.4,14.5h-11.7l-0.5-8.2h-0.2c-3.1,5.7-9.3,9.3-16.9,9.3c-12.3,0-22-10.5-22-26.4
		c-0.1-17.3,10.7-27.6,23.1-27.6c7.1,0,12.2,3,14.5,6.8h0.2V9.7H358.7z M345.7,54.9c0-1.1-0.1-2.3-0.3-3.4
		c-1.2-5.1-5.3-9.2-11.2-9.2c-8.4,0-13,7.4-13,17.1c0,9.4,4.7,16.3,12.9,16.3c5.3,0,10-3.6,11.2-9.2c0.3-1.2,0.4-2.4,0.4-3.8V54.9z"
		/>
	<path d="M382,62.8c0.3,9.3,7.6,13.4,15.9,13.4c6,0,10.4-0.8,14.3-2.3l1.9,9c-4.5,1.8-10.6,3.3-18,3.3c-16.7,0-26.6-10.4-26.6-26.2
		c0-14.3,8.7-27.8,25.2-27.8c16.9,0,22.3,13.8,22.3,25.1c0,2.4-0.2,4.3-0.4,5.5H382z M404.6,53.7c0.1-4.8-2-12.6-10.7-12.6
		c-8.1,0-11.4,7.3-12,12.6H404.6z"/>
	<path d="M131.7,173.5c-3.1,1.6-9.9,3.3-18.4,3.3c-22.7,0-36.5-14.3-36.5-36c0-23.5,16.3-37.7,38.2-37.7c8.6,0,14.7,1.8,17.4,3.2
		l-2.9,10.4c-3.4-1.5-8.1-2.8-14-2.8c-14.5,0-25,9.1-25,26.3c0,15.7,9.2,25.8,24.9,25.8c5.3,0,10.8-1.1,14.2-2.6L131.7,173.5z"/>
	<path d="M181.4,163.2c0,4.7,0.2,9.2,0.7,12.4h-11.8l-0.8-5.7h-0.3c-3.2,4-8.6,6.9-15.3,6.9c-10.4,0-16.2-7.5-16.2-15.4
		c0-13,11.6-19.6,30.6-19.5v-0.8c0-3.4-1.4-9-10.5-9c-5.1,0-10.4,1.6-13.9,3.8l-2.5-8.5c3.8-2.3,10.5-4.6,18.7-4.6
		c16.5,0,21.3,10.5,21.3,21.7V163.2z M168.7,150.4c-9.2-0.2-18,1.8-18,9.6c0,5.1,3.3,7.4,7.4,7.4c5.2,0,9-3.4,10.2-7.1
		c0.3-1,0.4-2,0.4-2.9V150.4z"/>
	<path d="M195.2,139.4c0-5.9-0.1-10.9-0.4-15.4H206l0.5,7.6h0.3c2.5-4,7.2-8.8,15.9-8.8c6.8,0,12.1,3.8,14.3,9.5h0.2
		c1.8-2.9,3.9-5,6.4-6.5c2.9-2,6.1-3.1,10.4-3.1c8.6,0,17.3,5.8,17.3,22.4v30.4h-12.7v-28.5c0-8.6-3-13.7-9.2-13.7
		c-4.5,0-7.7,3.2-9.1,6.9c-0.3,1.3-0.6,2.9-0.6,4.3v30.9h-12.7v-29.9c0-7.2-2.9-12.3-8.9-12.3c-4.9,0-8.2,3.8-9.3,7.4
		c-0.5,1.3-0.7,2.8-0.7,4.2v30.5h-12.7V139.4z"/>
	<path d="M285.1,100.4h13v30.7h0.2c3.2-5,8.8-8.3,16.5-8.3c12.6,0,21.6,10.5,21.5,26.2c0,18.5-11.8,27.8-23.4,27.8
		c-6.7,0-12.6-2.5-16.3-8.9h-0.2l-0.6,7.7h-11.1c0.2-3.5,0.4-9.2,0.4-14.5V100.4z M298.1,154.3c0,1.1,0.1,2.1,0.3,3.1
		c1.4,5.2,5.9,9.1,11.6,9.1c8.2,0,13.1-6.6,13.1-17c0-9.1-4.3-16.5-13-16.5c-5.3,0-10.1,3.8-11.6,9.5c-0.2,1-0.4,2.1-0.4,3.4V154.3z
		"/>
	<path d="M361,109.6c0,3.9-2.9,7-7.4,7c-4.3,0-7.2-3.1-7.2-7c0-4,3-7.1,7.3-7.1C358.1,102.5,360.9,105.6,361,109.6z M347.1,175.6
		V124h13.1v51.6H347.1z"/>
	<path d="M423.3,149.4c0,19-13.4,27.5-26.5,27.5c-14.6,0-25.9-10.1-25.9-26.6c0-17,11.1-27.3,26.7-27.3
		C413,122.9,423.3,133.7,423.3,149.4z M384.4,149.9c0,10,4.9,17.5,12.8,17.5c7.4,0,12.6-7.3,12.6-17.7c0-8.1-3.6-17.3-12.5-17.3
		C388.1,132.4,384.4,141.3,384.4,149.9z"/>
</g>
</svg>
