<?xml version="1.0" encoding="utf-8"?>
<!-- Generator: Adobe Illustrator 28.4.1, SVG Export Plug-In . SVG Version: 6.00 Build 0)  -->
<svg version="1.1" id="Layer_1" xmlns="http://www.w3.org/2000/svg" xmlns:xlink="http://www.w3.org/1999/xlink" x="0px" y="0px"
	 viewBox="0 0 48 48" style="enable-background:new 0 0 48 48;" xml:space="preserve">
<style type="text/css">
	.st0{fill:#F7E200;}
</style>
<g>
	<path class="st0" d="M8.1,17.9c10.6,0,21.2,0,31.7,0c0,0.2,0,0.3,0,0.5c-0.2,2.9-0.5,5.7-0.7,8.6c-0.2,2.5-0.4,5-0.6,7.6
		c-0.2,2.5-0.4,4.9-0.6,7.4c-0.2,2-1.8,3.4-3.8,3.4c-6.6,0-13.2,0-19.8,0c-0.6,0-1.2,0-1.8-0.2c-1.4-0.6-2.2-1.6-2.4-3.1
		c-0.2-1.6-0.3-3.2-0.4-4.9c-0.2-1.8-0.3-3.7-0.5-5.5c-0.1-1.5-0.2-3-0.4-4.5c-0.1-1.8-0.3-3.6-0.5-5.4c-0.1-1.2-0.2-2.4-0.3-3.6
		C8.1,18,8.1,18,8.1,17.9z M17.8,30.3C17.8,30.3,17.8,30.3,17.8,30.3c0-1.1,0-2.1,0-3.2c0-1.8,0-3.7,0-5.5c0-0.5-0.2-0.9-0.6-1.1
		c-0.7-0.4-1.9,0-1.9,1.1c0,5,0,10,0,15c0,0.8,0,1.6,0,2.4c0,0.8,0.7,1.4,1.5,1.2c0.6-0.2,0.9-0.6,0.9-1.3
		C17.8,36.1,17.8,33.2,17.8,30.3z M22.8,30.3c0,2.9,0,5.8,0,8.7c0,1,1,1.6,1.9,1.1c0.5-0.3,0.6-0.7,0.6-1.2c0-4.2,0-8.3,0-12.5
		c0-1.6,0-3.2,0-4.8c0-0.5-0.2-0.9-0.6-1.1c-0.8-0.4-1.9,0.1-1.9,1.1C22.8,24.5,22.8,27.4,22.8,30.3z M30.2,30.3c0,2.9,0,5.8,0,8.7
		c0,1,1,1.6,1.9,1.1c0.5-0.3,0.6-0.7,0.6-1.2c0-3.5,0-7.1,0-10.6c0-2.2,0-4.4,0-6.6c0-0.4-0.1-0.7-0.4-1c-0.4-0.3-0.8-0.5-1.3-0.2
		c-0.5,0.2-0.8,0.6-0.8,1.2C30.2,24.5,30.2,27.4,30.2,30.3z"/>
	<path class="st0" d="M24.1,15.2c-5.6,0-11.2,0-16.8,0c-0.4,0-0.7,0-1.1-0.1c-0.5-0.1-0.9-0.4-0.9-0.9c0-1.1-0.1-2.3,0.1-3.4
		c0.2-1.5,1.4-2.8,3-3C9,7.7,9.7,7.7,10.4,7.7c1.9,0,3.8,0,5.7,0c0.2,0,0.3-0.1,0.4-0.3c0.3-0.8,0.5-1.6,0.8-2.4
		c0.5-1.4,1.9-2.4,3.4-2.4c2.1,0,4.2,0,6.3,0c1.7,0,3.2,1,3.8,2.7c0.2,0.7,0.5,1.4,0.7,2c0.1,0.2,0.1,0.2,0.3,0.2c1.9,0,3.9,0,5.8,0
		c0.7,0,1.3,0,2,0.1c1.7,0.3,3,1.7,3.1,3.4c0,0.9,0,1.8,0,2.7c0,0.7-0.6,1.2-1.3,1.2c-3.3,0-6.6,0-9.9,0
		C29,15.2,26.5,15.2,24.1,15.2C24.1,15.2,24.1,15.2,24.1,15.2z M19.1,7.7c3.3,0,6.5,0,9.8,0c-0.2-0.7-0.4-1.3-0.7-1.9
		c-0.2-0.4-0.6-0.6-1-0.6c-2.1,0-4.3,0-6.4,0c-0.4,0-0.8,0.2-1,0.6C19.5,6.4,19.3,7.1,19.1,7.7z"/>
</g>
</svg>
