<?xml version="1.0" encoding="utf-8"?>
<!-- Generator: Adobe Illustrator 22.0.0, SVG Export Plug-In . SVG Version: 6.00 Build 0)  -->
<svg version="1.1"
	 id="svg2" xmlns:cc="http://creativecommons.org/ns#" xmlns:dc="http://purl.org/dc/elements/1.1/" xmlns:rdf="http://www.w3.org/1999/02/22-rdf-syntax-ns#"
	 xmlns="http://www.w3.org/2000/svg" xmlns:xlink="http://www.w3.org/1999/xlink" x="0px" y="0px" viewBox="0 0 512 512"
	 style="enable-background:new 0 0 512 512;" xml:space="preserve">
<style type="text/css">
	.st0{fill:#43D4FD;}
	.st1{fill:#46BFE2;}
	.st2{fill:#FCFDFD;}
	.st3{fill:#3C545C;}
</style>
<g id="Background" transform="matrix(1.081 0 0 1.081 -20.33 -7.243)">
	<path id="path13" class="st0" d="M492.3,418.4c0,34.2-27.7,61.9-61.9,61.9H80.7c-34.2,0-61.9-27.7-61.9-61.9V68.6
		c0-34.2,27.7-61.9,61.9-61.9h349.7c34.2,0,61.9,27.7,61.9,61.9V418.4z"/>
</g>
<g>
	<path class="st1" d="M409,410.1c-0.5-7.3-0.9-8-8.2-9.2c-4.7-0.7-7.7-2-8.9-7.5c-1.6-7-2.4-6.8-9.6-5.6c-3.1,0.5-5-0.8-6.2-3.6
		c-2.2-5.1-3.6-5.3-7.1-1.2c-2.6,3-4.2,2.8-5.8-0.7c-0.5-1.1-0.8-2.2-1.2-3.3c2.4-2.4,1.5-8.8-1.6-12c-0.1,3.3-216,6.9-216.7,5
		c-1-2.6-8.1,13.1-10.1,13.1c-7,0-13.9,1-20.9,1.2c-7.4,0.3-8.3,1.7-8.6,9.1c-0.1,3.1-1.3,4.4-4.1,5.2c-8.5,2.6-12.5,8.5-12.1,17.4
		c0.1,2.4,1.1,3.9,3.3,5c6.9,3.6,14.1,6.5,21.5,8.7c2.2,0.7,4.9,0.2,6.4,2.2c2.1,2.9,4.8,3.2,7.9,3.1c3.7-0.2,7.3-0.4,10.1,2.9
		c0.6,0.7,1.8,1.1,2.7,1c5.4-0.4,10.6,1,15.9,1.1c31.8,0.6,63.5-1.7,95.3-1c3.3,0.1,6.5-1.3,9.9-1c15.5,1.5,31,1.4,46.5,2.9
		c14.1,1.3,28.2-1.3,42.3-0.9c1.1,0,2.3-0.3,3.4-0.5c11-2.1,21.8-5.9,33.3-4.4c2.4,0.3,3.9-0.9,4.7-2.8c2-4.5,5.3-5.9,10-5.2
		c3.5,0.5,6-1.2,6.7-4.6C408.8,419.7,409.4,414.9,409,410.1z"/>
	<path class="st2" d="M427.1,222.4c-0.7,47.3-22.4,82.8-60.9,109c-5.4,3.7-11.1,6.7-16.9,9.7c-2,1-3.5,0.9-5.5-0.3
		c-20.8-12.9-43.1-8.3-56.6,11.8c-1.3,1.9-2.7,2.7-4.9,2.7c-19.7-0.2-39.3-0.4-59-0.5c-3.4,0-5.6-1.3-7.7-4.3
		c-12.6-18-36.6-22.4-54.8-9.9c-3.4,2.3-6,2.3-9.6,1c-24.4-8.9-45.7-22.4-62.4-42.5c-1-1.2-3-2.5-2.5-4c0.6-1.8,2.9-0.9,4.5-1
		c20.9-2.2,33.4-13.6,38.8-35.7c3.9-15.9,4.7-32.3,5.8-48.5c2.8-40.2,22.6-70.6,55.2-92.7c39.2-26.6,82.4-35.8,128.6-23.2
		c50.6,13.7,86.5,44.4,102.9,95.4C425.7,200,427.3,211.1,427.1,222.4z M276.9,291.8c17.7-0.3,31.5-3.6,44.1-11.1
		c14.3-8.5,24.6-20.3,28.9-36.6c1.6-5.8-1.3-11.1-6.6-12.7c-5.2-1.6-10.7,1-12.4,6.5c-5.8,18.9-19.8,28.1-37.9,32.3
		c-27.5,6.4-51.4-6.5-61.2-32.8c-1.9-5.2-6.7-7.9-11.8-6.7c-5.1,1.2-8.4,5.8-7.7,11.2c0.5,3.8,1.7,7.5,3.4,10.9
		C228.8,279.5,251.7,290,276.9,291.8z M345.6,188.1c0-11.4-8.6-20.3-19.6-20.4c-10.6-0.1-19.4,9-19.5,20
		c-0.1,11.2,8.7,20.4,19.6,20.4C336.8,208,345.6,199,345.6,188.1z M217.1,187.6c-0.1,11.3,8.6,20.5,19.5,20.4
		c10.8-0.1,19.3-8.8,19.5-20c0.1-11.3-8.6-20.5-19.5-20.4C225.8,167.7,217.1,176.6,217.1,187.6z"/>
	<path class="st3" d="M276.9,291.8c-25.1-1.8-48.1-12.3-61.2-39c-1.7-3.4-2.9-7.1-3.4-10.9c-0.7-5.5,2.6-10,7.7-11.2
		c5.1-1.2,9.9,1.5,11.8,6.7c9.8,26.3,33.7,39.2,61.2,32.8c18.1-4.2,32-13.4,37.9-32.3c1.7-5.5,7.1-8,12.4-6.5
		c5.3,1.6,8.2,6.8,6.6,12.7c-4.4,16.3-14.7,28.1-28.9,36.6C308.4,288.2,294.6,291.5,276.9,291.8z"/>
	<path class="st3" d="M345.6,188.1c0,10.9-8.8,20-19.5,20c-10.9,0-19.7-9.1-19.6-20.4c0.1-11,8.9-20,19.5-20
		C337.1,167.7,345.6,176.6,345.6,188.1z"/>
	<path class="st3" d="M217.1,187.6c0.1-11.1,8.7-19.9,19.5-20c10.9,0,19.7,9.1,19.5,20.4c-0.1,11.1-8.7,19.9-19.5,20
		C225.7,208.1,217,199,217.1,187.6z"/>
	<g>
		<polygon class="st3" points="138,141.1 138,141.1 138,141.1 		"/>
		<path class="st3" d="M439.8,176.2C439.8,176.2,439.8,176.2,439.8,176.2C439.8,176.2,439.8,176.2,439.8,176.2
			C439.8,176.2,439.8,176.2,439.8,176.2z"/>
		<path class="st3" d="M440.5,180.6c-0.4-1.4-0.5-2.9-0.7-4.4c-2.5-1.6-2.4-4.6-3.4-7c-25.5-56.7-70.1-88.4-130.5-98.4
			c-42.2-7-81.5,2.8-118.1,24.5c-1.4,0.8-2.8,1.8-4.6,1.9c0,0,0,0,0,0c-4.9,5.3-11.3,8.6-16.6,13.3c-8.2,7.1-15.8,14.7-22.5,23.2
			c-0.5,0.6-1.3,1-1.9,1.5c0,0.3-0.1,0.5-0.3,0.7c-0.7,2.1-1.9,3.8-3.8,5c-0.3,1.8-1,3.4-2.7,4.2c0,0,0,0,0,0
			c-3,6.3-6.2,12.5-9,18.8c-6.8,15.4-9.4,31.8-10.6,48.5c-1.1,14.7-1.7,29.5-5.8,43.9c-3.6,12.4-11.7,18-24.2,18.1
			c-8.7,0.1-14.9,3.8-18.5,11.8c-3.6,7.9-1.6,14.8,3.5,21.3c17.9,23.1,40.8,39.3,67.8,50c4.2,1.7,5.8,2.2,6.2,4
			c-0.9,3.4-1.5,7.1-1.5,10.8c0,20.8,15.6,37.9,35.8,40.2c0.1,0,0.1,0,0.2,0c0.3,0,0.6,0.1,0.8,0.1c0.5,0,1,0.1,1.5,0.1
			c0.1,0,0.1,0,0.2,0c0.6,0,1.3,0,1.9,0c0,0,0.1,0,0.1,0c0.2,0,0.3,0,0.5,0c0.3,0,0.5,0,0.7,0c19.8-0.6,36-15.4,38.8-34.6
			c0.9-2,1.8-3.5,2.6-3.5c17.9,0.3,35.8,0.6,53.8,0.9c0.4,0.1,0.8,0.3,1,0.5c1.4,15.4,11.4,28.3,25.2,33.8c0.6,0.4,1.2,0.6,1.8,0.8
			c0.8,0.3,1.7,0.5,2.6,0.6c3.4,0.9,7,1.5,10.7,1.5c11.4,0,21.7-4.7,29-12.3c0.1,0,0.2-0.1,0.3-0.1c0,0,0.1-0.2,0.4-0.6
			c6.7-7.2,10.9-16.9,10.9-27.6c0-4.9-0.9-9.6-2.4-13.9c0.7-0.9,1.9-1.8,3.4-2.6c15-7.7,28.5-17.6,40.3-29.6
			c1.4-1.4,2.6-3.1,4.5-3.8c0-0.3,0.2-0.5,0.4-0.6c5.2-6.4,10.4-12.9,15.6-19.3c0-0.3,0.1-0.5,0.3-0.7c2.8-6.9,7.2-13,10.2-19.8
			c7.2-16.6,11.1-34,12.2-52C447.5,213.2,445.2,196.8,440.5,180.6z M366.2,331.4c-5.4,3.7-11.1,6.7-16.9,9.7
			c-0.6,0.3-1.2,0.5-1.7,0.6c-7.1-6-16.2-9.6-26.2-9.6c-15.9,0-29.7,9.2-36.3,22.6c-0.8,0.4-1.6,0.6-2.7,0.6
			c-19.7-0.2-39.3-0.4-59-0.5c-1.5,0-2.7-0.3-3.8-0.8c-6.7-13-20.3-21.9-36-21.9c-10.4,0-19.8,3.9-27,10.3c-1.6,0.2-3.3-0.1-5.2-0.8
			c-24.4-8.9-45.7-22.4-62.4-42.5c-1-1.2-3-2.5-2.5-4c0.6-1.8,2.9-0.9,4.5-1c20.9-2.2,33.4-13.6,38.8-35.7
			c3.9-15.9,4.7-32.3,5.8-48.5c2.8-40.2,22.6-70.6,55.2-92.7c39.2-26.6,82.4-35.8,128.6-23.2c50.6,13.7,86.5,44.4,102.9,95.4
			c3.4,10.7,5,21.7,4.8,33C426.4,269.6,404.7,305.2,366.2,331.4z"/>
	</g>
</g>
</svg>
