<?xml version="1.0" encoding="utf-8"?>
<!-- Generator: Adobe Illustrator 26.5.0, SVG Export Plug-In . SVG Version: 6.00 Build 0)  -->
<svg version="1.1" id="Layer_1" xmlns="http://www.w3.org/2000/svg" xmlns:xlink="http://www.w3.org/1999/xlink" x="0px" y="0px"
	 viewBox="0 0 540 960" style="enable-background:new 0 0 540 960;" xml:space="preserve">
<style type="text/css">
	.st0{fill:url(#SVGID_1_);}
	.st1{fill:#FFFFFF;}
</style>
<g>
	<g>
		<linearGradient id="SVGID_1_" gradientUnits="userSpaceOnUse" x1="270" y1="936.0063" x2="270" y2="481.4497">
			<stop  offset="1.385225e-07" style="stop-color:#FFFFFF;stop-opacity:0"/>
			<stop  offset="1" style="stop-color:#FFFFFF"/>
		</linearGradient>
		<path class="st0" d="M483.6,791.6c-14.2,37.2-38,69.9-68.8,94.7c-30.8,24.7-68,41-107.5,47.1c-11,1.7-22.2,2.6-33.2,2.6
			c-15.3,0-30.8-1.7-46.2-4.9c-39.2-8.3-73.8-26-103.1-52.5c-40.8-37.1-65.2-83.3-72.5-137.5c-3.8-28.6-2-57.4,5.3-85.7
			c4.5-17.4,11.3-34.5,20.1-50.9c-5.8-20.1-11.8-40.5-17.6-60.3l-18.4-62.8l15,2.6c0.6,0.1,1.1,0.2,1.6,0.2c1.3,0.2,2.6,0.4,4,0.8
			c10.2,3,20.4,5.9,30.6,8.9c24.2,7.1,49.2,14.4,73.8,21.5c28.4-15.4,58.9-24.4,90.8-26.8c5.7-0.4,11.5-0.6,17.2-0.6
			c26,0,51.5,4.5,75.9,13.3c78.3,28.5,134.1,97.6,145.6,180.3C501.3,719.3,497.1,756.2,483.6,791.6z M105.5,559.3
			c4.3,14.5,8.7,29.6,12.9,44.4c1.3,4.6-0.1,9.3-1.8,12.1c-10.7,17.7-18.3,36.6-22.6,56.3c-3.9,18.1-5.2,36.3-3.8,54
			c3,37.4,16.2,71.1,39.1,100c28.3,35.7,64.9,58.2,108.6,66.9c12.2,2.4,24.7,3.7,37,3.7c66.9,0,126.9-35.2,160.4-94.1
			c18.9-33.3,26.7-68.8,23-105.5c-7.1-69.8-43-121.1-106.7-152.5c-23-11.3-48.5-17.1-75.6-17.1c-5.2,0-10.5,0.2-15.9,0.6
			c-29.2,2.3-56.7,11.2-81.8,26.4c-2.6,1.6-5.4,2.4-8.3,2.4c-1.6,0-3.2-0.2-5-0.8c-22-6.5-44.3-13-66-19.4
			C100.1,540.9,105.5,559.3,105.5,559.3z M156.2,770c-1.5,19.2,3.2,33.8,16.8,44.6c11.7,9.3,25.1,11.6,39.6,8.2
			c2.3-0.5,3.4-1.8,3.9-4.2c5-22.6,10.2-45.1,15.4-67.6c0.6-2.4,0.1-3.8-2.3-4.9c-6.4-3-12.5-6.4-18.8-9.6c-1.8-0.9-2.5-1.7-1.7-3.9
			c5.4-14.9,13.2-28.5,23.5-40.4c15.3-17.6,33.8-30.9,55.7-39.1c2.4-0.9,3.5-0.6,4.6,1.7c3.1,6.4,6.5,12.7,9.7,19.1
			c0.9,1.8,1.8,2.4,3.9,1.9c22.7-5.2,45.5-10.4,68.3-15.5c2.4-0.5,3.6-1.6,4.3-4.2c7.5-28-13.6-56.7-42.6-56.3
			c-66.5,0.9-118,29.8-153.9,85.7c-6.3,9.7-11.2,20.5-15.3,31.4C160.5,734.6,156.5,753.1,156.2,770z"/>
	</g>
	<g>
		<path class="st1" d="M483.6,158.1c-14.2-37.2-38-69.9-68.8-94.7c-30.8-24.7-68-41-107.5-47.1c-11-1.7-22.2-2.6-33.2-2.6
			c-15.3,0-30.8,1.7-46.2,4.9c-39.2,8.3-73.8,26-103.1,52.5c-40.8,37.1-65.2,83.3-72.5,137.5c-3.8,28.6-2,57.4,5.3,85.7
			c4.5,17.4,11.3,34.5,20.1,50.9c-5.8,20.1-11.8,40.5-17.6,60.3l-18.4,62.8l15-2.6c0.6-0.1,1.1-0.2,1.6-0.2c1.3-0.2,2.6-0.4,4-0.8
			c10.2-3,20.4-5.9,30.6-8.9c24.2-7.1,49.2-14.4,73.8-21.5c28.4,15.4,58.9,24.4,90.8,26.8c5.7,0.4,11.5,0.6,17.2,0.6
			c26,0,51.5-4.5,75.9-13.3c78.3-28.5,134.1-97.6,145.6-180.3C501.3,230.4,497.1,193.4,483.6,158.1z M105.5,390.4
			c4.3-14.5,8.7-29.6,12.9-44.4c1.3-4.6-0.1-9.3-1.8-12.1c-10.7-17.7-18.3-36.6-22.6-56.3c-3.9-18.1-5.2-36.3-3.8-54
			c3-37.4,16.2-71.1,39.1-100c28.3-35.7,64.9-58.2,108.6-66.9c12.2-2.4,24.7-3.7,37-3.7c66.9,0,126.9,35.2,160.4,94.1
			c18.9,33.3,26.7,68.8,23,105.5c-7.1,69.8-43,121.1-106.7,152.5c-23,11.3-48.5,17.1-75.6,17.1c-5.2,0-10.5-0.2-15.9-0.6
			c-29.2-2.3-56.7-11.2-81.8-26.4c-2.6-1.6-5.4-2.4-8.3-2.4c-1.6,0-3.2,0.2-5,0.8c-22,6.5-44.3,13-66,19.4
			C100.1,408.8,105.5,390.4,105.5,390.4z M156.2,179.7c-1.5-19.2,3.2-33.8,16.8-44.6c11.7-9.3,25.1-11.6,39.6-8.2
			c2.3,0.5,3.4,1.8,3.9,4.2c5,22.6,10.2,45.1,15.4,67.6c0.6,2.4,0.1,3.8-2.3,4.9c-6.4,3-12.5,6.4-18.8,9.6c-1.8,0.9-2.5,1.7-1.7,3.9
			c5.4,14.9,13.2,28.5,23.5,40.4c15.3,17.6,33.8,30.9,55.7,39.1c2.4,0.9,3.5,0.6,4.6-1.7c3.1-6.4,6.5-12.7,9.7-19.1
			c0.9-1.8,1.8-2.4,3.9-1.9c22.7,5.2,45.5,10.4,68.3,15.5c2.4,0.5,3.6,1.6,4.3,4.2c7.5,28-13.6,56.7-42.6,56.3
			c-66.5-0.9-118-29.8-153.9-85.7c-6.3-9.7-11.2-20.5-15.3-31.4C160.5,215,156.5,196.5,156.2,179.7z"/>
	</g>
</g>
</svg>
