<?xml version="1.0" encoding="utf-8"?>
<!-- Generator: Adobe Illustrator 22.0.0, SVG Export Plug-In . SVG Version: 6.00 Build 0)  -->
<svg version="1.1" id="Layer_1" xmlns="http://www.w3.org/2000/svg" xmlns:xlink="http://www.w3.org/1999/xlink" x="0px" y="0px"
	 viewBox="0 0 360 360" style="enable-background:new 0 0 360 360;" xml:space="preserve">
<path d="M160.8,7.9c13.2,0,26.5,0,39.7,0c1.5,0.4,2.9,0.8,4.5,1c46.9,7.6,84.8,30.1,113.5,67.9c18.8,24.8,29.2,53.4,33.5,84.1
	c0,12.7,0,25.5,0,38.2c-0.4,2.3-0.8,4.5-1.1,6.8c-8.9,52.2-35.5,92.8-80.4,121.2c-21.8,13.9-46,21.1-71.3,25c-13.2,0-26.5,0-39.7,0
	c-1.8-0.4-3.4-0.8-5.2-1.1c-45.6-7.6-82.8-29.4-111.3-66C23.5,260,13.1,231.5,8,200.6c0-13.8,0-27.5,0-41.3
	c0.8-3.7,1.7-7.4,2.3-11.2C19.8,99.1,46,61.3,87.6,34C109.9,19.5,134.6,11.8,160.8,7.9z M134.1,167.9c8.9,0,17.8-0.1,26.6,0
	c5.2,0.1,7.3-2.2,7.1-7.4c-0.1-9.9-0.3-19.9,0-29.7c0.1-5.5-1.9-7.9-7.5-7.8c-15.5,0.3-30.9,0.3-46.5,0c-5.7-0.1-8.3,2.4-9,7.8
	c-1.7,10.1-2.9,20.1-3.7,30.2c-0.4,5,1.1,7,6.2,6.9C116.3,167.8,125.2,167.9,134.1,167.9z M225.4,167.9c9.2,0,18.3-0.1,27.4,0
	c4.7,0.1,6.2-1.8,5.9-6.4c-0.6-10.7-2-21.3-3.9-31.7c-0.8-4.3-2.9-6.8-7.6-6.6c-16.3,0.1-32.5,0.1-48.8,0c-4.5,0-6.4,2-6.4,6.5
	c0.1,10.4,0.1,20.9,0,31.2c-0.1,5.3,2.5,7.1,7.5,7C208.1,167.8,216.7,167.9,225.4,167.9z M134.6,192.1c-9.2,0-18.3,0.1-27.4,0
	c-3.9,0-6.2,0.9-6,5.6c0.6,11.2,2,22.3,4.1,33.2c0.8,4.1,3.2,6,7.5,6c16.3-0.1,32.5-0.1,48.8,0c4.5,0,6.5-2,6.5-6.5
	c-0.1-10.4-0.1-20.9,0-31.2c0.1-5.3-2.4-7.1-7.5-7C151.8,192.2,143.1,192.1,134.6,192.1z M225.8,192.1c-8.7,0-17.3,0.3-25.9-0.1
	c-6-0.3-8.2,2.4-7.9,8.2c0.3,9.7,0.3,19.4,0,28.9c-0.1,5.5,2,7.8,7.6,7.8c15.5-0.3,30.9-0.3,46.5,0c5.9,0.1,8.2-2.5,9-7.9
	c1.7-10.1,2.9-20.1,3.7-30.2c0.4-5-1.3-6.9-6.4-6.8C243.6,192.2,234.7,192.1,225.8,192.1z M167.8,66.1c0-7.6,0-15.3,0-22.9
	c0-10.1-1.3-10.8-10.2-5.6c-21.9,12.7-33.5,33.5-42.4,56.2c-2,5.2,1.8,5.3,5.3,5.3c13.2,0,26.5-0.1,39.7,0.1
	c5.7,0.1,7.6-2.4,7.5-7.9C167.7,83,167.8,74.5,167.8,66.1z M192,65.8c0,8.7,0.1,17.3,0,26c-0.1,5.1,1.8,7.5,7.1,7.4
	c13.2-0.1,26.5-0.3,39.7,0c6.9,0.1,7-2.8,4.8-8c-5.1-12.2-11.2-24.1-19.5-34.4c-7.1-8.8-15.3-16.3-25.7-21.1c-4.7-2.2-6.6-1-6.5,4.2
	C192.2,48.4,192,57.1,192,65.8z M167.8,294.6c0-8.4-0.3-16.8,0.1-25.2c0.3-6.1-1.9-8.8-8.3-8.7c-12.7,0.4-25.5,0.3-38.2,0
	c-6.1-0.1-7.9,1.7-5.3,7.6c5.3,13,11.8,25.3,20.9,36.3c6.9,8.3,14.9,15.4,24.8,19.7c4.2,1.9,6.1,0.9,6.1-3.9
	C167.8,311.9,167.8,303.3,167.8,294.6z M192,294c0,8.7,0.1,17.3,0,26c-0.1,6,2.3,6.6,6.9,4.2c2.3-1.1,4.6-2.3,6.8-3.7
	c19.5-13.1,30.3-32.5,38.8-53.6c2.2-5.5-1.1-6.1-5.3-6c-13.2,0-26.5,0.1-39.7,0c-5.9-0.1-7.5,2.5-7.4,7.9
	C192.2,277.2,192,285.6,192,294z M54,167.9c4.8,0,9.7-0.3,14.5,0c5.5,0.3,7.6-1.9,8.2-7.5c0.9-9.8,2.3-19.7,3.8-29.5
	c0.9-5.7-1.1-8-6.9-7.9c-8.2,0.3-16.3,0.1-24.5,0c-4.5-0.1-7.1,1.8-8.5,6c-3.4,9.7-5.7,19.5-7.5,29.5c-1,6.2,0.8,9.9,7.9,9.3
	C45.3,167.6,49.6,167.9,54,167.9z M305.6,167.9c4.6,0,9.2-0.3,13.8,0c6.1,0.4,8.4-2.3,7.6-8.2c-1.5-10.6-4.1-21-7.8-31.1
	c-1.3-3.4-3.3-5.5-7.3-5.5c-8.9,0.1-17.8,0.1-26.7,0c-5.3,0-6.5,2.9-5.7,7.5c0.9,5.2,1.9,10.6,2.5,15.8
	C284.2,167.9,284.1,167.9,305.6,167.9z M305.3,192.1c-4.8,0-9.7,0.1-14.5,0c-4.7-0.1-6.9,1.7-7.4,6.5c-1,10.3-2.5,20.6-4.1,31.1
	c-0.6,4.8,1,7.3,6.1,7.1c8.7-0.1,17.3-0.1,26,0c3.4,0,6-1,7.3-4.3c4.1-10.7,6.9-21.8,8.3-33.2c0.5-4.7-1.4-7.3-6.4-7.1
	C315.4,192.2,310.4,192.1,305.3,192.1z M54.7,192.1c-4.8,0-9.7,0.3-14.5,0c-6.4-0.4-8.2,2.8-7.3,8.4c1.5,10.3,4.1,20.5,7.5,30.3
	c1.4,4.2,3.9,6.1,8.5,6c8.4-0.1,16.8-0.1,25.2,0c5.6,0.1,7.1-2.7,6.1-7.8c-1-5.2-1.9-10.6-2.5-15.8
	C75.8,192.1,75.8,192.1,54.7,192.1z M110.9,49.6C89.4,60,72.2,75.4,58.6,94.8c-2.5,3.7-0.1,4.3,2.9,4.3c7.1,0,14.3,0,21.4,0
	c3.2,0,5.5-1.3,6.5-4.2C95,79,102,63.8,110.9,49.6z M249.2,49.7c5.1,9.7,10.6,18.8,14.8,28.7c9,21.5,9.2,21.5,32.6,20.8
	c0.8,0,1.5,0,2.3,0c4.1-0.1,4.1-2,2.2-4.8C287.3,75.2,270.4,60,249.2,49.7z M112.1,311.4c-6.5-10.7-12.1-20-16.3-30.1
	c-8.9-21-8.9-21-32-20.5c-0.5,0-1,0-1.5,0c-5.2-0.3-5.9,1.7-2.9,5.7c9.8,13.4,21.4,25.1,35.2,34.6
	C99.6,304.8,104.7,308.5,112.1,311.4z M249.1,310.4c21.1-10.4,38.3-25.5,52-44.7c2.8-3.9,0.6-4.8-2.9-4.8c-6.9,0-13.8,0.1-20.6,0
	c-3.9-0.1-6.1,1.7-7.4,5.2C264.8,281.5,257.8,296.3,249.1,310.4z"/>
</svg>
