<?xml version="1.0" encoding="utf-8"?>
<!-- Generator: Adobe Illustrator 22.0.0, SVG Export Plug-In . SVG Version: 6.00 Build 0)  -->
<svg version="1.1" id="Layer_1" xmlns="http://www.w3.org/2000/svg" xmlns:xlink="http://www.w3.org/1999/xlink" x="0px" y="0px"
	 viewBox="0 0 12 12" style="enable-background:new 0 0 12 12;" xml:space="preserve">
<path d="M5.4,0.3c0.4,0,0.9,0,1.3,0c0,0,0.1,0,0.1,0c1.6,0.3,2.8,1,3.8,2.3c0.6,0.8,1,1.8,1.1,2.8c0,0.4,0,0.8,0,1.3
	c0,0.1,0,0.1,0,0.2c-0.3,1.7-1.2,3.1-2.7,4c-0.7,0.5-1.5,0.7-2.4,0.8c-0.4,0-0.9,0-1.3,0c-0.1,0-0.1,0-0.2,0c-1.5-0.3-2.7-1-3.7-2.2
	c-0.6-0.8-1-1.8-1.2-2.8c0-0.5,0-0.9,0-1.4c0-0.1,0.1-0.2,0.1-0.4c0.3-1.6,1.2-2.9,2.6-3.8C3.7,0.7,4.5,0.4,5.4,0.3z M4.5,5.6
	c0.3,0,0.6,0,0.9,0c0.2,0,0.2-0.1,0.2-0.2c0-0.3,0-0.7,0-1c0-0.2-0.1-0.3-0.2-0.3c-0.5,0-1,0-1.5,0c-0.2,0-0.3,0.1-0.3,0.3
	C3.4,4.7,3.4,5,3.4,5.4c0,0.2,0,0.2,0.2,0.2C3.9,5.6,4.2,5.6,4.5,5.6z M7.5,5.6c0.3,0,0.6,0,0.9,0c0.2,0,0.2-0.1,0.2-0.2
	c0-0.4-0.1-0.7-0.1-1.1c0-0.1-0.1-0.2-0.3-0.2c-0.5,0-1.1,0-1.6,0c-0.1,0-0.2,0.1-0.2,0.2c0,0.3,0,0.7,0,1c0,0.2,0.1,0.2,0.2,0.2
	C6.9,5.6,7.2,5.6,7.5,5.6z M4.5,6.4c-0.3,0-0.6,0-0.9,0c-0.1,0-0.2,0-0.2,0.2c0,0.4,0.1,0.7,0.1,1.1c0,0.1,0.1,0.2,0.2,0.2
	c0.5,0,1.1,0,1.6,0c0.1,0,0.2-0.1,0.2-0.2c0-0.3,0-0.7,0-1c0-0.2-0.1-0.2-0.2-0.2C5.1,6.4,4.8,6.4,4.5,6.4z M7.5,6.4
	c-0.3,0-0.6,0-0.9,0c-0.2,0-0.3,0.1-0.3,0.3c0,0.3,0,0.6,0,1c0,0.2,0.1,0.3,0.3,0.3c0.5,0,1,0,1.5,0c0.2,0,0.3-0.1,0.3-0.3
	c0.1-0.3,0.1-0.7,0.1-1c0-0.2,0-0.2-0.2-0.2C8.1,6.4,7.8,6.4,7.5,6.4z M5.6,2.2c0-0.3,0-0.5,0-0.8c0-0.3,0-0.4-0.3-0.2
	C4.5,1.7,4.1,2.4,3.8,3.1C3.8,3.3,3.9,3.3,4,3.3c0.4,0,0.9,0,1.3,0c0.2,0,0.3-0.1,0.2-0.3C5.6,2.8,5.6,2.5,5.6,2.2z M6.4,2.2
	c0,0.3,0,0.6,0,0.9c0,0.2,0.1,0.2,0.2,0.2c0.4,0,0.9,0,1.3,0c0.2,0,0.2-0.1,0.2-0.3C7.9,2.6,7.7,2.3,7.5,1.9C7.2,1.6,7,1.4,6.6,1.2
	c-0.2-0.1-0.2,0-0.2,0.1C6.4,1.6,6.4,1.9,6.4,2.2z M5.6,9.8c0-0.3,0-0.6,0-0.8c0-0.2-0.1-0.3-0.3-0.3c-0.4,0-0.8,0-1.3,0
	c-0.2,0-0.3,0.1-0.2,0.3c0.2,0.4,0.4,0.8,0.7,1.2c0.2,0.3,0.5,0.5,0.8,0.7c0.1,0.1,0.2,0,0.2-0.1C5.6,10.4,5.6,10.1,5.6,9.8z
	 M6.4,9.8c0,0.3,0,0.6,0,0.9c0,0.2,0.1,0.2,0.2,0.1c0.1,0,0.2-0.1,0.2-0.1c0.6-0.4,1-1.1,1.3-1.8c0.1-0.2,0-0.2-0.2-0.2
	c-0.4,0-0.9,0-1.3,0c-0.2,0-0.2,0.1-0.2,0.3C6.4,9.2,6.4,9.5,6.4,9.8z M1.8,5.6c0.2,0,0.3,0,0.5,0c0.2,0,0.3-0.1,0.3-0.2
	c0-0.3,0.1-0.7,0.1-1c0-0.2,0-0.3-0.2-0.3c-0.3,0-0.5,0-0.8,0c-0.1,0-0.2,0.1-0.3,0.2C1.3,4.6,1.2,5,1.1,5.3c0,0.2,0,0.3,0.3,0.3
	C1.5,5.6,1.7,5.6,1.8,5.6z M10.2,5.6c0.2,0,0.3,0,0.5,0c0.2,0,0.3-0.1,0.3-0.3c0-0.4-0.1-0.7-0.3-1c0-0.1-0.1-0.2-0.2-0.2
	c-0.3,0-0.6,0-0.9,0c-0.2,0-0.2,0.1-0.2,0.2c0,0.2,0.1,0.4,0.1,0.5C9.5,5.6,9.5,5.6,10.2,5.6z M10.2,6.4c-0.2,0-0.3,0-0.5,0
	c-0.2,0-0.2,0.1-0.2,0.2c0,0.3-0.1,0.7-0.1,1c0,0.2,0,0.2,0.2,0.2c0.3,0,0.6,0,0.9,0c0.1,0,0.2,0,0.2-0.1c0.1-0.4,0.2-0.7,0.3-1.1
	c0-0.2,0-0.2-0.2-0.2C10.5,6.4,10.3,6.4,10.2,6.4z M1.8,6.4c-0.2,0-0.3,0-0.5,0c-0.2,0-0.3,0.1-0.2,0.3c0,0.3,0.1,0.7,0.2,1
	c0,0.1,0.1,0.2,0.3,0.2c0.3,0,0.6,0,0.8,0c0.2,0,0.2-0.1,0.2-0.3c0-0.2-0.1-0.4-0.1-0.5C2.5,6.4,2.5,6.4,1.8,6.4z M3.7,1.7
	C3,2,2.4,2.5,2,3.2C1.9,3.3,2,3.3,2.1,3.3c0.2,0,0.5,0,0.7,0c0.1,0,0.2,0,0.2-0.1C3.2,2.6,3.4,2.1,3.7,1.7z M8.3,1.7
	c0.2,0.3,0.4,0.6,0.5,1c0.3,0.7,0.3,0.7,1.1,0.7c0,0,0,0,0.1,0c0.1,0,0.1-0.1,0.1-0.2C9.6,2.5,9,2,8.3,1.7z M3.7,10.4
	c-0.2-0.4-0.4-0.7-0.5-1C2.9,8.7,2.9,8.7,2.1,8.7c0,0,0,0,0,0C1.9,8.7,1.9,8.7,2,8.9C2.3,9.3,2.7,9.7,3.2,10
	C3.3,10.1,3.5,10.3,3.7,10.4z M8.3,10.3C9,10,9.6,9.5,10,8.8c0.1-0.1,0-0.2-0.1-0.2c-0.2,0-0.5,0-0.7,0C9.1,8.7,9,8.7,9,8.9
	C8.8,9.4,8.6,9.9,8.3,10.3z"/>
</svg>
