<?xml version="1.0" encoding="utf-8"?>
<!-- Generator: Adobe Illustrator 22.0.0, SVG Export Plug-In . SVG Version: 6.00 Build 0)  -->
<svg version="1.1" id="Layer_1" xmlns="http://www.w3.org/2000/svg" xmlns:xlink="http://www.w3.org/1999/xlink" x="0px" y="0px"
	 viewBox="0 0 356.6 357.1" style="enable-background:new 0 0 356.6 357.1;" xml:space="preserve">
<style type="text/css">
	.st0{fill:#A4C7D8;}
	.st1{fill:url(#SVGID_1_);}
</style>
<path class="st0" d="M300,357H57c-31.4,0-56.9-25.5-56.9-56.9v-243C0.1,25.7,25.6,0.2,57,0.2h243c31.4,0,56.9,25.5,56.9,56.9v243
	C356.9,331.5,331.4,357,300,357z"/>
<linearGradient id="SVGID_1_" gradientUnits="userSpaceOnUse" x1="106.9556" y1="115.1868" x2="303.5929" y2="300.4811" gradientTransform="matrix(1 0 0 -1 0 361.2722)">
	<stop  offset="9.914437e-08" style="stop-color:#1D1B56"/>
	<stop  offset="0.1367" style="stop-color:#1F406F"/>
	<stop  offset="0.2704" style="stop-color:#1F5D88"/>
	<stop  offset="0.3958" style="stop-color:#1C769D"/>
	<stop  offset="0.5112" style="stop-color:#1489AE"/>
	<stop  offset="0.6128" style="stop-color:#0896BA"/>
	<stop  offset="0.6898" style="stop-color:#039CBF"/>
</linearGradient>
<path class="st1" d="M163.5,43.5c10.4,0,20.8,0,31.2,0c1.2,0.3,2.3,0.6,3.5,0.8c36.8,6,66.6,23.6,89.1,53.3
	c14.8,19.5,22.9,41.9,26.3,66c0,10,0,20,0,30c-0.3,1.8-0.6,3.5-0.9,5.3c-7,41-27.9,72.9-63.1,95.2c-17.1,10.9-36.1,16.6-56,19.6
	c-10.4,0-20.8,0-31.2,0c-1.4-0.3-2.7-0.6-4.1-0.9c-35.8-6-65-23.1-87.4-51.8c-15.2-19.6-23.4-42-27.4-66.2c0-10.8,0-21.6,0-32.4
	c0.6-2.9,1.3-5.8,1.8-8.8c7.5-38.5,28-68.2,60.7-89.6C123.5,52.6,142.9,46.5,163.5,43.5z M142.5,169.1c7,0,14-0.1,20.9,0
	c4.1,0.1,5.7-1.7,5.6-5.8c-0.1-7.8-0.2-15.6,0-23.3c0.1-4.3-1.5-6.2-5.9-6.1c-12.2,0.2-24.3,0.2-36.5,0c-4.5-0.1-6.5,1.9-7.1,6.1
	c-1.3,7.9-2.3,15.8-2.9,23.7c-0.3,3.9,0.9,5.5,4.9,5.4C128.5,169,135.5,169.1,142.5,169.1z M214.2,169.1c7.2,0,14.4-0.1,21.5,0
	c3.7,0.1,4.9-1.4,4.6-5c-0.5-8.4-1.6-16.7-3.1-24.9c-0.6-3.4-2.3-5.3-6-5.2c-12.8,0.1-25.5,0.1-38.3,0c-3.5,0-5,1.6-5,5.1
	c0.1,8.2,0.1,16.4,0,24.5c-0.1,4.2,2,5.6,5.9,5.5C200.6,169,207.4,169.1,214.2,169.1z M142.9,188.1c-7.2,0-14.4,0.1-21.5,0
	c-3.1,0-4.9,0.7-4.7,4.4c0.5,8.8,1.6,17.5,3.2,26.1c0.6,3.2,2.5,4.7,5.9,4.7c12.8-0.1,25.5-0.1,38.3,0c3.5,0,5.1-1.6,5.1-5.1
	c-0.1-8.2-0.1-16.4,0-24.5c0.1-4.2-1.9-5.6-5.9-5.5C156.4,188.2,149.6,188.1,142.9,188.1z M214.5,188.1c-6.8,0-13.6,0.2-20.3-0.1
	c-4.7-0.2-6.4,1.9-6.2,6.4c0.2,7.6,0.2,15.2,0,22.7c-0.1,4.3,1.6,6.1,6,6.1c12.2-0.2,24.3-0.2,36.5,0c4.6,0.1,6.4-2,7.1-6.2
	c1.3-7.9,2.3-15.8,2.9-23.7c0.3-3.9-1-5.4-5-5.3C228.5,188.2,221.5,188.1,214.5,188.1z M169,89.2c0-6,0-12,0-18c0-7.9-1-8.5-8-4.4
	c-17.2,10-26.3,26.3-33.3,44.1c-1.6,4.1,1.4,4.2,4.2,4.2c10.4,0,20.8-0.1,31.2,0.1c4.5,0.1,6-1.9,5.9-6.2
	C168.9,102.4,169,95.8,169,89.2z M188,88.9c0,6.8,0.1,13.6,0,20.4c-0.1,4,1.4,5.9,5.6,5.8c10.4-0.1,20.8-0.2,31.2,0
	c5.4,0.1,5.5-2.2,3.8-6.3c-4-9.6-8.8-18.9-15.3-27c-5.6-6.9-12-12.8-20.2-16.6c-3.7-1.7-5.2-0.8-5.1,3.3
	C188.1,75.3,188,82.1,188,88.9z M169,268.6c0-6.6-0.2-13.2,0.1-19.8c0.2-4.8-1.5-6.9-6.5-6.8c-10,0.3-20,0.2-30,0
	c-4.8-0.1-6.2,1.3-4.2,6c4.2,10.2,9.3,19.9,16.4,28.5c5.4,6.5,11.7,12.1,19.5,15.5c3.3,1.5,4.8,0.7,4.8-3.1
	C169,282.2,169,275.4,169,268.6z M188,268.1c0,6.8,0.1,13.6,0,20.4c-0.1,4.7,1.8,5.2,5.4,3.3c1.8-0.9,3.6-1.8,5.3-2.9
	c15.3-10.3,23.8-25.5,30.5-42.1c1.7-4.3-0.9-4.8-4.2-4.7c-10.4,0-20.8,0.1-31.2,0c-4.6-0.1-5.9,2-5.8,6.2
	C188.1,254.9,188,261.5,188,268.1z M79.6,169.1c3.8,0,7.6-0.2,11.4,0c4.3,0.2,6-1.5,6.4-5.9c0.7-7.7,1.8-15.5,3-23.2
	c0.7-4.5-0.9-6.3-5.4-6.2c-6.4,0.2-12.8,0.1-19.2,0c-3.5-0.1-5.6,1.4-6.7,4.7c-2.7,7.6-4.5,15.3-5.9,23.2c-0.8,4.9,0.6,7.8,6.2,7.3
	C72.8,168.9,76.2,169.1,79.6,169.1z M277.2,169.1c3.6,0,7.2-0.2,10.8,0c4.8,0.3,6.6-1.8,6-6.4c-1.2-8.3-3.2-16.5-6.1-24.4
	c-1-2.7-2.6-4.3-5.7-4.3c-7,0.1-14,0.1-21,0c-4.2,0-5.1,2.3-4.5,5.9c0.7,4.1,1.5,8.3,2,12.4C260.4,169.1,260.3,169.1,277.2,169.1z
	 M276.9,188.1c-3.8,0-7.6,0.1-11.4,0c-3.7-0.1-5.4,1.3-5.8,5.1c-0.8,8.1-2,16.2-3.2,24.4c-0.5,3.8,0.8,5.7,4.8,5.6
	c6.8-0.1,13.6-0.1,20.4,0c2.7,0,4.7-0.8,5.7-3.4c3.2-8.4,5.4-17.1,6.5-26.1c0.4-3.7-1.1-5.7-5-5.6
	C284.9,188.2,280.9,188.1,276.9,188.1z M80.2,188.1c-3.8,0-7.6,0.2-11.4,0c-5-0.3-6.4,2.2-5.7,6.6c1.2,8.1,3.2,16.1,5.9,23.8
	c1.1,3.3,3.1,4.8,6.7,4.7c6.6-0.1,13.2-0.1,19.8,0c4.4,0.1,5.6-2.1,4.8-6.1c-0.8-4.1-1.5-8.3-2-12.4
	C96.7,188.1,96.7,188.1,80.2,188.1z M124.3,76.2c-16.9,8.2-30.4,20.3-41.1,35.5c-2,2.9-0.1,3.4,2.3,3.4c5.6,0,11.2,0,16.8,0
	c2.5,0,4.3-1,5.1-3.3C111.8,99.3,117.3,87.4,124.3,76.2z M232.9,76.3c4,7.6,8.3,14.8,11.6,22.5c7.1,16.9,7.2,16.9,25.6,16.3
	c0.6,0,1.2,0,1.8,0c3.2-0.1,3.2-1.6,1.7-3.8C262.8,96.3,249.5,84.4,232.9,76.3z M125.2,281.8c-5.1-8.4-9.5-15.7-12.8-23.6
	c-7-16.5-7-16.5-25.1-16.1c-0.4,0-0.8,0-1.2,0c-4.1-0.2-4.6,1.3-2.3,4.5c7.7,10.5,16.8,19.7,27.6,27.2
	C115.4,276.6,119.4,279.5,125.2,281.8z M232.8,281c16.6-8.2,30.1-20,40.8-35.1c2.2-3.1,0.5-3.8-2.3-3.8c-5.4,0-10.8,0.1-16.2,0
	c-3.1-0.1-4.8,1.3-5.8,4.1C245.1,258.3,239.6,269.9,232.8,281z"/>
</svg>
