<?xml version="1.0" encoding="utf-8"?>
<!-- Generator: Adobe Illustrator 28.4.1, SVG Export Plug-In . SVG Version: 6.00 Build 0)  -->
<svg version="1.1" id="Layer_1" xmlns="http://www.w3.org/2000/svg" xmlns:xlink="http://www.w3.org/1999/xlink" x="0px" y="0px"
	 viewBox="0 0 611.3 612" style="enable-background:new 0 0 611.3 612;" xml:space="preserve">
<style type="text/css">
	.st0{fill:#CC2120;}
	.st1{fill:#FFFFFF;}
</style>
<g transform="translate(1.4065934065934016 1.4065934065934016) scale(2.81 2.81)">
	<path class="st0" d="M182.3,216.9H34.8c-19.2,0-34.7-15.5-34.7-34.7V34.6c0-19.2,15.5-34.7,34.7-34.7h147.5
		c19.2,0,34.7,15.5,34.7,34.7v147.5C217,201.3,201.5,216.9,182.3,216.9z"/>
	<path class="st1" d="M101.3,89.9c-1.6-1.1-2.7-2.7-3.3-4.9c-0.7-2.2-1-5.2-1-8.8v-5c0-3.7,0.4-6.7,1.1-8.9c0.7-2.3,1.9-3.9,3.5-4.9
		s3.7-1.5,6.3-1.5c2.6,0,4.6,0.5,6.1,1.6c1.5,1.1,2.7,2.7,3.4,4.9c0.7,2.2,1.1,5.2,1.1,8.9v5c0,3.7-0.3,6.6-1,8.9
		c-0.7,2.2-1.8,3.9-3.4,4.9c-1.6,1-3.7,1.5-6.3,1.5C105,91.4,102.9,90.9,101.3,89.9z M110,84.5c0.4-1.1,0.6-3,0.6-5.5V68.2
		c0-2.5-0.2-4.3-0.6-5.4c-0.4-1.1-1.2-1.7-2.3-1.7c-1.1,0-1.8,0.6-2.2,1.7c-0.4,1.1-0.6,3-0.6,5.4V79c0,2.6,0.2,4.4,0.6,5.5
		c0.4,1.1,1.2,1.7,2.3,1.7C108.8,86.2,109.6,85.6,110,84.5z"/>
	<path class="st1" d="M82.4,75.6l-8.8-31.9h7.7l3.1,14.5c0.8,3.6,1.4,6.6,1.7,9.1h0.2c0.3-1.8,0.8-4.8,1.7-9.1l3.2-14.5H99
		l-8.9,31.9v15.3h-7.7L82.4,75.6L82.4,75.6z"/>
	<path class="st1" d="M143.6,56.4v34.5h-6.1l-0.7-4.2h-0.2c-1.7,3.2-4.1,4.8-7.4,4.8c-2.3,0-4-0.7-5.1-2.3c-1.1-1.5-1.6-3.8-1.6-7
		V56.4h7.8v25.3c0,1.5,0.2,2.6,0.5,3.3c0.3,0.7,0.9,1,1.7,1c0.7,0,1.3-0.2,1.9-0.6c0.6-0.4,1.1-0.9,1.4-1.6V56.4L143.6,56.4
		L143.6,56.4z"/>
	<path class="st1" d="M157.4,173.1H59.8c-10.4,0-18.7-8.4-18.7-18.7v-31.7c0-10.4,8.4-18.7,18.7-18.7h97.6
		c10.4,0,18.7,8.4,18.7,18.7v31.7C176.1,164.7,167.7,173.1,157.4,173.1z"/>
	<path class="st0" d="M141.7,148.1v1.7c0,2.2,0.1,3.9,0.2,5c0.1,1.1,0.4,1.9,0.8,2.4c0.4,0.5,1,0.8,1.9,0.8c1.2,0,2-0.5,2.4-1.3
		c0.4-0.9,0.7-2.4,0.7-4.5l6.7,0.4c0,0.3,0.1,0.7,0.1,1.2c0,3.2-0.9,5.6-2.6,7.1c-1.7,1.6-4.2,2.4-7.4,2.4c-3.8,0-6.5-1.2-8-3.6
		s-2.3-6.1-2.3-11.1v-6c0-5.2,0.8-9,2.4-11.3c1.6-2.4,4.3-3.6,8.2-3.6c2.7,0,4.7,0.5,6.1,1.5c1.4,1,2.4,2.5,3,4.6
		c0.6,2.1,0.9,4.9,0.9,8.6v5.9H141.7z M142.6,133.5c-0.4,0.5-0.7,1.3-0.8,2.4c-0.1,1.1-0.2,2.8-0.2,5v2.5h5.7V141
		c0-2.2-0.1-3.9-0.2-5c-0.1-1.1-0.4-2-0.8-2.4c-0.4-0.5-1-0.7-1.8-0.7C143.7,132.8,143,133,142.6,133.5z"/>
	<path class="st0" d="M104.2,128.2v34.5h-6.1l-0.7-4.2h-0.2c-1.7,3.2-4.1,4.8-7.4,4.8c-2.3,0-4-0.7-5.1-2.3c-1.1-1.5-1.6-3.8-1.6-7
		v-25.8H91v25.3c0,1.5,0.2,2.6,0.5,3.3c0.3,0.7,0.9,1,1.7,1c0.7,0,1.3-0.2,1.9-0.6c0.6-0.4,1.1-0.9,1.4-1.6v-27.4L104.2,128.2
		L104.2,128.2z"/>
	<path class="st0" d="M85.5,121.7h-7.7v41h-7.6v-41h-7.7v-6.2h23L85.5,121.7L85.5,121.7z"/>
	<path class="st0" d="M129.9,133.7c-0.5-2.2-1.2-3.8-2.3-4.7c-1.1-1-2.5-1.5-4.3-1.5c-1.4,0-2.8,0.4-4,1.2c-1.2,0.8-2.2,1.9-2.9,3.2
		h-0.1v-18.2h-7.5v49h6.4l0.8-3.3h0.2c0.6,1.2,1.5,2.1,2.7,2.8c1.2,0.7,2.5,1,4,1c2.6,0,4.6-1.2,5.8-3.6c1.2-2.4,1.9-6.2,1.9-11.3
		v-5.5C130.6,138.9,130.4,135.9,129.9,133.7z M122.8,147.8c0,2.5-0.1,4.5-0.3,5.9c-0.2,1.4-0.6,2.4-1,3c-0.5,0.6-1.1,0.9-2,0.9
		c-0.6,0-1.2-0.1-1.8-0.5c-0.5-0.3-1-0.7-1.3-1.3v-19.6c0.3-0.9,0.7-1.7,1.3-2.3c0.6-0.6,1.3-0.9,2.1-0.9c0.8,0,1.4,0.3,1.8,0.9
		c0.4,0.6,0.7,1.7,0.9,3.1c0.2,1.5,0.3,3.5,0.3,6.2L122.8,147.8L122.8,147.8z"/>
</g>
</svg>
