<?xml version="1.0" encoding="utf-8"?>
<!-- Generator: Adobe Illustrator 28.4.1, SVG Export Plug-In . SVG Version: 6.00 Build 0)  -->
<svg version="1.1" id="Layer_1" xmlns="http://www.w3.org/2000/svg" xmlns:xlink="http://www.w3.org/1999/xlink" x="0px" y="0px"
	 viewBox="0 0 150 350" style="enable-background:new 0 0 150 350;" xml:space="preserve">
<style type="text/css">
	/* Colores base (sin cambios) */
	.st0{fill:none;}

	/* Grupo A — estructura negra/gris animada */
	.st1{
		fill:#ff0000;
		opacity:0;
		animation: tower1 2s linear infinite;
	}
	.st2{
		fill:#ff0000;
		opacity:0;
		animation: tower2 2s linear infinite;
	}
	.st3{
		fill:#ff0000;
		opacity:0;
		animation: tower3 2s linear infinite;
	}
	.st4{
		fill:#ff0000;
		opacity:0;
		animation: tower4 2s linear infinite;
	}
	.st5{
		fill:#ff0000;
		opacity:0;
		animation: tower5 2s linear infinite;
	}

	/* Grupo B — detalles amarillos y verdes */
	.st6{
		fill:#FFFF00;
		opacity:0;
		animation: yellowPulse 2s linear infinite;
	}
	.st7{
		fill:#00B900;
		opacity:0;
		animation: greenPulse 2s linear infinite;
	}

	/* === KEYFRAMES GRUPO A (st1..st5) ===
	   Ciclo total: 2s → porcentajes:
	   0s   = 0%
	   0.2s = 10%
	   0.4s = 20%
	   0.6s = 30%
	   0.8s = 40%
	   1.0s = 50%
	   1.5s = 75%
	   2.0s = 100%
	*/

	/* st1: aparece de 0–0.2s, se mantiene hasta 1.5s, se apaga 1.5–2.0s */
	@keyframes tower1 {
		0%   { opacity: 0; }
		10%  { opacity: 1; }
		75%  { opacity: 1; }
		100% { opacity: 0; }
	}

	/* st2: fade-in de 0.2 a 0.4s */
	@keyframes tower2 {
		0%   { opacity: 0; }
		10%  { opacity: 0; }
		20%  { opacity: 1; }
		75%  { opacity: 1; }
		100% { opacity: 0; }
	}

	/* st3: fade-in de 0.4 a 0.6s */
	@keyframes tower3 {
		0%   { opacity: 0; }
		20%  { opacity: 0; }
		30%  { opacity: 1; }
		75%  { opacity: 1; }
		100% { opacity: 0; }
	}

	/* st4: fade-in de 0.6 a 0.8s */
	@keyframes tower4 {
		0%   { opacity: 0; }
		30%  { opacity: 0; }
		40%  { opacity: 1; }
		75%  { opacity: 1; }
		100% { opacity: 0; }
	}

	/* st5: fade-in de 0.8 a 1.0s, luego todo el grupo 1.0–1.5 visible, 1.5–2.0 fade-out */
	@keyframes tower5 {
		0%   { opacity: 0; }
		40%  { opacity: 0; }
		50%  { opacity: 1; }
		75%  { opacity: 1; }
		100% { opacity: 0; }
	}

	/* === KEYFRAMES GRUPO B (st6, st7) ===
	   También ciclo de 2s, coordinado con el grupo A
	*/

	/* st6 (amarillo):
	   0–0.2s → fade in
	   0.2–0.8s → visible
	   0.8–1.0s → fade out
	   1.0–2.0s → oculto
	*/
	@keyframes yellowPulse {
		0%   { opacity: 0; }
		10%  { opacity: 1; }
		40%  { opacity: 1; }
		50%  { opacity: 0; }
		100% { opacity: 0; }
	}

	/* st7 (verde):
	   1.0–1.2s → fade in
	   1.2–1.8s → visible
	   1.8–2.0s → fade out
	*/
	@keyframes greenPulse {
		0%   { opacity: 0; }
		50%  { opacity: 0; }
		60%  { opacity: 1; }
		90%  { opacity: 1; }
		100% { opacity: 0; }
	}
</style>

<g>
	<g>
		<polygon class="st0" points="69,283.7 81,283.7 80.9,284.1 78.9,304.3 78.8,304.8 71.2,304.8 71.1,304.3 69.1,284.1 		"/>
	</g>
	<g>
		<polygon class="st0" points="64.6,241.3 85.4,241.3 85.3,241.5 85.3,241.7 81.8,275.4 81.8,275.6 81.8,275.8 68.2,275.8 
			68.2,275.6 68.2,275.4 64.7,241.7 64.7,241.5 		"/>
	</g>
	<g>
		<polygon class="st0" points="91.3,183.7 91.3,183.9 91.3,184.1 86.4,231.4 86.4,231.6 86.3,231.8 63.7,231.8 63.6,231.6 
			63.6,231.4 58.7,184.1 58.7,183.9 58.7,183.7 		"/>
	</g>
	<g>
		<polygon class="st0" points="98.6,112.7 98.6,112.9 98.6,113.1 92.3,173.9 92.3,174.3 57.7,174.3 57.7,173.9 51.4,113.1 
			51.4,112.9 51.4,112.7 		"/>
	</g>
	<g>
		<polygon class="st1" points="139.7,106.1 103.2,68.6 99.8,101.5 50.2,101.5 46.8,68.6 10.3,106.1 75,3.9 		"/>
	</g>
	<g>
		<polygon class="st2" points="81,283.9 80.9,284.1 78.9,304.3 78.8,304.6 71.2,304.6 71.1,304.3 69.1,284.1 69,283.9 		"/>
		<path class="st2" d="M71.1,304.3l0,0.4h7.6l0-0.4H71.1z M69,283.7l0,0.4h11.9l0-0.4H69z M80.9,284.1H69.1 M78.9,304.3h-7.7"/>
	</g>
	<g>
		<polygon class="st3" points="85.3,241.5 85.3,241.7 81.8,275.4 81.8,275.6 68.2,275.6 68.2,275.4 64.7,241.7 64.7,241.5 		"/>
		<path class="st3" d="M68.2,275.4l0,0.2l0,0.2h13.6l0-0.2l0-0.2H68.2z M64.6,241.3l0,0.2l0,0.2h20.7l0-0.2l0-0.2H64.6z M85.3,241.7
			H64.7 M81.8,275.4H68.2"/>
	</g>
	<g>
		<polygon class="st4" points="91.3,183.9 91.3,184.1 86.4,231.4 86.4,231.6 63.6,231.6 63.6,231.4 58.7,184.1 58.7,183.9 		"/>
		<path class="st4" d="M63.6,231.4l0,0.2l0,0.2h22.7l0-0.2l0-0.2H63.6z M58.7,183.7l0,0.2l0,0.2h32.5l0-0.2l0-0.2H58.7z M91.3,184.1
			H58.7 M86.4,231.4H63.6"/>
	</g>
	<g>
		<polygon class="st5" points="98.6,112.9 98.6,113.1 92.3,173.9 92.3,174.1 57.7,174.1 57.7,173.9 51.4,113.1 51.4,112.9 		"/>
		<path class="st5" d="M57.7,173.9l0,0.4h34.6l0-0.4H57.7z M51.4,112.7l0,0.2l0,0.2h47.2l0-0.2l0-0.2H51.4z M98.6,113.1H51.4
			 M92.3,173.9H57.7"/>
	</g>
	<polygon class="st0" points="92.3,174.1 92.3,174.3 57.7,174.3 57.7,174.1 	"/>
	<g>
		<path class="st6" d="M26,336.4l-0.1,0.4l-0.4,0.4h-0.4l-0.5-0.5l-0.2-0.7l-0.4-0.6l-0.2-0.8l-0.2-0.2l-0.3,0.2l-0.5,0.3l-0.5,0.6
			l-0.8,0.5l-0.5,0.5l-0.9,0.5l-1,0.4l-0.9,0.3l-0.8,0.2L17,338l-0.6-0.2l-0.8-0.1l-1-0.4l-0.9-0.5l-0.5-0.7l-0.4-0.8l-0.1-1.2v-0.8
			l0.2-0.9l0.5-0.9l0.5-0.9l0.7-0.6l0.7-0.5l1-0.2l0.9-0.1l1-0.2l0.9-0.5l1.1-0.6l0.5-0.2l0.6-0.2l0.2-0.6l-0.5-0.8l-0.5-0.7l-1.1-1
			l-1.2-0.3l-0.9-0.1l-0.3,0.1h-0.6l-0.7,0.3l-0.6,0.4l-0.8,0.1h-0.9l-1,0.3h-0.9l-0.7-0.4l-0.5-0.5l-0.1-0.7l0.2-0.6l0.6-0.7
			l0.6-0.8l0.8-0.6l0.9-0.5l0.9-0.8l0.9-0.4l1.6-0.3l1.4-0.1l1,0.3l0.8,0.4l0.9,0.3l1,0.7l0.5,0.5l0.5,0.8l0.4,1l0.3,1l0.4,1.4
			l0.4,1l0.1,0.9l-0.1,1.1l0.3,1.3l0.2,1.3l0.5,2.3l0.3,0.9l0.3,0.8l0.2,1L26,336.4z M22.1,330.4l-0.2-0.3l-0.8-0.2l-0.7,0.1
			l-0.6,0.3l-0.7,0.2l-0.7,0.4l-0.7,0.1l-0.6,0.3l-0.5,0.4l-0.3,0.5l-0.4,0.7l-0.1,0.6l-0.2,0.5v0.7l0.3,0.6l0.8,0.2h0.8l0.9-0.2
			l0.4-0.5l0.6-0.1l1.3-0.9l0.7-0.4l0.5-0.7l0.5-0.6l0.1-0.8L22.1,330.4z"/>
		<path class="st6" d="M42.3,323.2l-0.4,0.1l-0.5-0.1h-0.5l-0.8,0.1l-0.9,0.5l-0.5,0.6l-0.9,0.4l-0.4,0.5l-0.8,0.7l-0.3,0.7
			l-0.2,0.7v0.9l-0.2,0.7l-0.3,0.7l-0.2,0.8l-0.1,0.8v1.8l-0.1,0.8l-0.2,0.8l-0.1,0.8l-0.1,0.9v0.8l-0.4,0.9l-0.5,0.5l-0.8,0.2
			l-0.5,0.1l-0.5-0.1l-0.4-0.5l-0.2-0.5l-0.2-0.6l0.1-0.7l-0.1-0.9v-1.3l-0.1-0.6l0.1-0.7l0.1-0.9v-0.8l0.1-0.9l0.1-0.9l-0.1-1v-0.9
			l-0.1-0.7l-0.1-0.7l-0.5-0.8l-0.4-0.7l-0.2-0.7l-0.1-0.8l0.1-0.7l0.3-0.5l0.5-0.3l0.8-0.3l0.9-0.4l0.8,0.1l1,0.4l0.1,0.6l0.4,0.8
			v1.2l0.3,0.3l0.3,0.1l0.5-0.1l0.6-0.5l0.8-0.5l0.9-0.4l0.7-0.4l0.9-0.1l0.9-0.2h0.5l0.7,0.2l0.2,0.4V323.2z"/>
		<path class="st6" d="M56.7,323.2l-0.4,0.1l-0.5-0.1h-0.5l-0.8,0.1l-0.9,0.5l-0.5,0.6l-0.9,0.4l-0.4,0.5L51,326l-0.3,0.7l-0.2,0.7
			v0.9l-0.2,0.7l-0.3,0.7l-0.2,0.8l-0.1,0.8v1.8l-0.1,0.8l-0.2,0.8l-0.1,0.8l-0.1,0.9v0.8l-0.4,0.9l-0.5,0.5l-0.8,0.2l-0.5,0.1
			l-0.5-0.1l-0.4-0.5l-0.2-0.5l-0.2-0.6l0.1-0.7l-0.1-0.9v-1.3l-0.1-0.6l0.1-0.7l0.1-0.9v-0.8l0.1-0.9l0.1-0.9l-0.1-1v-0.9l-0.1-0.7
			l-0.1-0.7l-0.5-0.8l-0.4-0.7l-0.2-0.7l-0.1-0.8l0.1-0.7l0.3-0.5l0.5-0.3l0.8-0.3l0.9-0.4l0.8,0.1l1,0.4l0.1,0.6l0.4,0.8v1.2
			l0.3,0.3l0.3,0.1l0.5-0.1l0.6-0.5l0.8-0.5l0.9-0.4l0.7-0.4l0.9-0.1l0.9-0.2h0.5l0.7,0.2l0.2,0.4V323.2z"/>
		<path class="st6" d="M72.4,336.4l-0.1,0.4l-0.4,0.4h-0.4l-0.5-0.5l-0.2-0.7l-0.4-0.6l-0.2-0.8l-0.2-0.2l-0.3,0.2l-0.5,0.3
			l-0.5,0.6l-0.8,0.5l-0.5,0.5l-0.9,0.5l-1,0.4l-0.9,0.3l-0.8,0.2l-0.6,0.2l-0.6-0.2l-0.8-0.1l-1-0.4l-0.9-0.5l-0.5-0.7l-0.4-0.8
			l-0.1-1.2v-0.8l0.2-0.9l0.5-0.9l0.5-0.9L61,330l0.7-0.5l1-0.2l0.9-0.1l1-0.2l0.9-0.5l1.1-0.6l0.5-0.2l0.6-0.2l0.2-0.6l-0.5-0.8
			l-0.5-0.7l-1.1-1l-1.2-0.3l-0.9-0.1l-0.3,0.1h-0.6l-0.7,0.3l-0.6,0.4l-0.8,0.1h-0.9l-1,0.3h-0.9l-0.7-0.4l-0.5-0.5l-0.1-0.7
			l0.2-0.6l0.6-0.7l0.6-0.8l0.8-0.6l0.9-0.5l0.9-0.8l0.9-0.4l1.6-0.3l1.4-0.1l1,0.3l0.8,0.4l0.9,0.3l1,0.7l0.5,0.5l0.5,0.8l0.4,1
			l0.3,1l0.4,1.4l0.4,1l0.1,0.9l-0.1,1.1l0.3,1.3l0.2,1.3l0.5,2.3l0.3,0.9l0.3,0.8l0.2,1L72.4,336.4z M68.5,330.4l-0.2-0.3l-0.8-0.2
			l-0.7,0.1l-0.6,0.3l-0.7,0.2l-0.7,0.4l-0.7,0.1l-0.6,0.3l-0.5,0.4l-0.3,0.5l-0.4,0.7l-0.1,0.6l-0.2,0.5v0.7l0.3,0.6l0.8,0.2h0.8
			l0.9-0.2l0.4-0.5l0.6-0.1l1.3-0.9l0.7-0.4l0.5-0.7l0.5-0.6l0.1-0.8L68.5,330.4z"/>
		<path class="st6" d="M88,333.4l-0.1,0.8l-0.3,0.9l-0.4,0.8l-0.6,0.6l-0.7,0.7l-0.7,0.2l-0.7,0.4l-0.6,0.3l-0.9,0.1h-1.8l-0.6-0.5
			l-0.8-0.1l-1.1-0.3l-0.9-0.4l-0.5-0.5l-0.6-0.2l-0.3-0.7l-0.3-0.6v-0.8l0.3-0.8l0.2-0.5l0.4-0.6l0.5-0.1l0.2,0.5l-0.2,0.6
			l-0.1,0.7v0.8l0.4,0.6l0.8,0.3l0.8,0.3l0.7,0.3l1.2,0.1l0.7,0.3l0.9-0.2l0.8-0.2l0.6-0.3l0.8-0.5l0.6-0.5l0.4-0.4l0.1-0.8v-0.9
			l-0.3-0.7l-0.6-0.7l-0.8-0.3l-1-0.5l-0.4-0.3l-1-0.5l-0.7-0.5l-0.8-0.3l-0.5-0.3l-0.8-0.2l-0.5-0.1l-0.7-0.4l-0.7-0.4l-0.4-0.7
			l-0.4-0.6l-0.3-0.8l-0.1-0.9l0.2-0.8l0.1-0.7l0.3-0.8l0.5-0.7l0.5-0.7l0.1-0.3l0.4-0.5h0.5l0.2-0.6l0.6-0.2l0.7-0.3L81,319
			l0.9-0.1l1.1-0.3l1-0.2h0.8l0.8,0.2l0.6,0.3l0.7,0.5l0.4,0.3l0.5,0.7l0.2,0.4v0.8l-0.4,0.6l-0.4,0.4l-0.7,0.3l-1.2,0.1l-0.9-0.1
			l-0.8-0.1l-0.9,0.2l-0.8,0.4l-0.6,0.4l-0.5,0.6l-0.2,0.8l0.3,0.6l0.5,0.5l0.7,0.2l0.5,0.4l0.5,0.5l0.6,0.5l0.5,0.6l0.5,0.1
			l0.5,0.3l0.4,0.5l0.5,0.2l0.5,0.3l0.6,0.5l0.5,0.6l0.1,0.8l0.2,0.9L88,333.4z"/>
		<path class="st6" d="M106.2,320l-0.1,0.4l-0.4,0.3l-0.7,0.2l-0.8,0.1l-0.9,0.2h-0.8l-0.9,0.1l-1.1,0.3l-0.7-0.2l-0.8,0.3l-0.6,0.4
			l-0.3,0.5v0.5l-0.1,0.9l-0.2,0.5v0.7l-0.2,0.8l-0.3,1.1l-0.1,0.9v3.7l0.1,0.9l-0.1,1.1l-0.2,0.8l-0.1,0.7l-0.1,1.1l0.2,2l0.2,0.5
			l0.4,0.8l0.6,0.4l1,0.4l0.6-0.1h1.2l-0.3,0.5l-1,0.4h-1.3l-0.9-0.1l-0.9-0.3l-0.8-0.5l-0.9-0.3l-0.9-0.9l-0.4-0.9l-0.1-1l-0.2-1
			l-0.2-0.7l0.1-1.1v-1.2l-0.1-0.9l0.2-0.8l-0.3-1.1l-0.1-1.3l-0.1-1l0.1-0.9l0.2-1v-3.7l-0.8,0.1l-0.7,0.2l-0.8,0.3l-0.6,0.4
			l-0.5,0.1l-0.4-0.1l-0.2-0.3v-0.3l0.1-0.5l0.3-0.3l0.6-0.3l0.6,0.1l0.8-0.2l0.7-0.1l0.9-0.1l0.1-0.5l-0.1-0.8l0.1-0.9l0.1-1.2
			l-0.1-0.8l-0.1-0.7l-0.2-0.7v-0.6l0.3-0.7l0.8-0.4l0.6-0.6l0.9-0.3l0.7,0.1l0.6,0.3l0.7,0.4l0.2,0.4l0.5,0.5l0.2,0.5l0.4,0.7
			l0.1,0.3l-0.1,0.8l-0.2,0.6l-0.1,0.7l-0.3,0.6l0.1,0.5l0.5,0.3l0.8,0.2l0.8-0.1h2.2l0.6,0.1l1.1,0.1l0.8,0.2l0.4,0.1L106.2,320z"
			/>
		<path class="st6" d="M119.9,323.2l-0.4,0.1l-0.5-0.1h-0.5l-0.8,0.1l-0.9,0.5l-0.5,0.6l-0.9,0.4l-0.4,0.5l-0.8,0.7l-0.3,0.7
			l-0.2,0.7v0.9l-0.2,0.7l-0.3,0.7l-0.2,0.8l-0.1,0.8v1.8l-0.1,0.8l-0.2,0.8l-0.1,0.8l-0.1,0.9v0.8L112,338l-0.5,0.5l-0.8,0.2
			l-0.5,0.1l-0.5-0.1l-0.4-0.5l-0.2-0.5l-0.2-0.6l0.1-0.7l-0.1-0.9v-1.3l-0.1-0.6l0.1-0.7l0.1-0.9v-0.8l0.1-0.9l0.1-0.9l-0.1-1v-0.9
			l-0.1-0.7l-0.1-0.7l-0.5-0.8l-0.4-0.7l-0.2-0.7l-0.1-0.8l0.1-0.7l0.3-0.5l0.5-0.3l0.8-0.3l0.9-0.4l0.8,0.1l1,0.4l0.1,0.6l0.4,0.8
			v1.2l0.3,0.3l0.3,0.1l0.5-0.1l0.6-0.5l0.8-0.5l0.9-0.4l0.7-0.4l0.9-0.1l0.9-0.2h0.5l0.7,0.2l0.2,0.4V323.2z"/>
		<path class="st6" d="M138.3,326l-0.5,0.8l-0.8,0.5l-1,0.4l-1.2,0.4l-1.3,0.1l-1.2,0.3l-0.9,0.4l-1,0.3l-0.8,0.2l-1.3,0.1l-1-0.1
			l-0.7,0.1l-0.6,0.2l-0.3,0.7l0.1,1.2l0.3,0.7l0.7,0.8l1.2,1.3l0.6,0.6l1.2,0.6l0.7,0.3l0.8,0.3h0.9l0.9-0.2l0.7-0.1l0.8-0.3
			l0.8-0.2h0.5l0.1,0.2l-0.3,0.3l-0.5,0.3l-0.9,0.5l-0.9,0.5l-0.9,0.3l-0.9,0.2l-1.3-0.1l-1.3-0.3l-1-0.5l-1.2-0.8l-1.1-0.9
			l-0.8-0.5l-0.6-0.5l-0.5-0.7l-0.3-0.3l-0.7-1.7l-0.6-1.5l-0.4-1.2l-0.1-0.9l0.1-1l0.2-1.1l0.2-0.9l0.3-0.6l0.3-0.7l0.3-0.3
			l0.5-0.5l0.4-0.1l0.7-1l0.8-0.7l0.9-0.5l1-0.2h1.3l1.1-0.1l1.5,0.2l1.2,0.3l3.4,1.7l0.9,0.5l0.8,0.7l0.5,0.6l0.3,1V326z
			 M133,324.4l-0.5-0.5l-0.7-0.4l-0.8-0.3L130,323h-0.9l-0.8,0.2l-0.8,0.3l-0.7,0.5l-0.4,0.2l-0.5,0.5l0.2,0.4l0.4-0.1l0.7,0.1h1.1
			l0.9,0.2h1l1-0.1l0.9-0.2l0.8-0.2L133,324.4z"/>
	</g>
	<g>
		<path class="st7" d="M45.5,340.7l-0.1,0.8l-0.3,0.9l-0.4,0.8l-0.6,0.6l-0.7,0.7l-0.7,0.2L42,345l-0.6,0.3l-0.9,0.1h-1.8l-0.6-0.5
			l-0.8-0.1l-1.1-0.3l-0.9-0.4l-0.5-0.5l-0.6-0.2l-0.3-0.7l-0.3-0.6v-0.8l0.3-0.8l0.2-0.5l0.4-0.6l0.5-0.1l0.2,0.5l-0.2,0.6
			l-0.1,0.7v0.8l0.4,0.6l0.8,0.3l0.8,0.3l0.7,0.3l1.2,0.1l0.7,0.3l0.9-0.2l0.8-0.2l0.6-0.3l0.8-0.5l0.6-0.5l0.4-0.4l0.1-0.8v-0.9
			l-0.3-0.7l-0.6-0.7l-0.8-0.3l-1-0.5l-0.4-0.3l-1-0.5l-0.7-0.5l-0.8-0.3l-0.5-0.3l-0.8-0.2l-0.5-0.1l-0.7-0.4l-0.7-0.4l-0.4-0.7
			l-0.4-0.6l-0.3-0.8l-0.1-0.9l0.2-0.8l0.1-0.7l0.3-0.8l0.5-0.7l0.5-0.7l0.1-0.3l0.4-0.5h0.5l0.2-0.6l0.6-0.2l0.7-0.3l0.8-0.1
			l0.9-0.1l1.1-0.3l1-0.2h0.8l0.8,0.2l0.6,0.3l0.7,0.5l0.4,0.3l0.5,0.7l0.2,0.4v0.8l-0.4,0.6l-0.4,0.4l-0.7,0.3l-1.2,0.1l-0.9-0.1
			l-0.8-0.1l-0.9,0.2l-0.8,0.4l-0.6,0.4l-0.5,0.6l-0.2,0.8l0.3,0.6l0.5,0.5l0.7,0.2l0.5,0.4l0.5,0.5l0.6,0.5l0.5,0.6l0.5,0.1
			l0.5,0.3l0.4,0.5l0.5,0.2l0.5,0.3l0.6,0.5l0.5,0.6l0.1,0.8l0.2,0.9L45.5,340.7z"/>
		<path class="st7" d="M63.4,330.6l-0.1,0.8l-0.3,0.6l-0.8,1.3l-0.8,0.3h-1.1l-0.9-0.3l-0.7-0.1l-1-0.3h-0.9l-0.6,0.2l-1,0.6
			l-0.6,0.6l-0.6,0.8l-0.4,0.8l-0.2,0.7l-0.2,0.5l-0.4,0.3l-0.3,1.2l-0.1,0.9v1.6l0.4,0.9l0.7,0.7l0.7,0.3l1,0.3l0.6,0.3H58l0.9-0.2
			l0.5-0.2l0.4-0.3l0.5,0.1l0.3,0.5l-0.1,0.4l-0.6,0.5l-0.8,0.4l-1,0.4l-0.9,0.3l-0.7,0.1l-1.4,0.1l-1.4-0.1L53,345l-0.8-0.3
			l-0.8-0.5l-0.6-0.2l-0.3-0.8l-0.4-0.7l-0.2-0.8l-0.1-1l-0.3-1.2l-0.2-1.3v-0.9l-0.1-1.2l0.1-0.9l0.2-1l0.4-0.8l0.2-0.6v-1.1
			l0.3-0.8l1.1-1l0.5-0.3l0.4-0.1l1-0.4l0.7-0.2l0.6-0.1l1-0.3l1-0.4l0.8-0.2l0.9-0.2l0.8,0.1l0.9,0.2l0.9,0.3l0.9,0.7l0.7,0.5
			l0.6,0.6L63.4,330.6z"/>
		<path class="st7" d="M79.2,330.4l-0.4,0.1l-0.5-0.1h-0.5l-0.8,0.1l-0.9,0.5l-0.5,0.6l-0.9,0.4l-0.4,0.5l-0.8,0.7l-0.3,0.7
			l-0.2,0.7v0.9l-0.2,0.7l-0.3,0.7l-0.2,0.8l-0.1,0.8v1.8l-0.1,0.8l-0.2,0.8l-0.1,0.8l-0.1,0.9v0.8l-0.4,0.9l-0.5,0.5L70,346
			l-0.5,0.1l-0.5-0.1l-0.4-0.5l-0.2-0.5l-0.2-0.6l0.1-0.7l-0.1-0.9v-1.3l-0.1-0.6l0.1-0.7l0.1-0.9v-0.8l0.1-0.9l0.1-0.9l-0.1-1v-0.9
			l-0.1-0.7l-0.1-0.7l-0.5-0.8l-0.4-0.7l-0.2-0.7l-0.1-0.8l0.1-0.7l0.3-0.5l0.5-0.3l0.8-0.3l0.9-0.4l0.8,0.1l1,0.4l0.1,0.6l0.4,0.8
			v1.2l0.3,0.3l0.3,0.1l0.5-0.1l0.6-0.5l0.8-0.5l0.9-0.4l0.7-0.4l0.9-0.1l0.9-0.2h0.5l0.7,0.2l0.2,0.4V330.4z"/>
		<path class="st7" d="M95.8,337.4l-0.1,1l-0.2,0.9l-0.4,0.7l-0.3,0.8l-0.5,0.8l-0.7,0.5l-0.5,0.7l-0.9,0.5l-0.9,0.3l-1.1,0.1
			l-1.1,0.2l-1,0.1l-1.1-0.2l-0.9-0.2l-0.9-0.3l-0.7-0.3l-0.7-0.7l-0.7-0.8l-0.7-0.4l-0.5-0.8l-0.3-0.8l-0.4-0.8l-0.1-0.9l-0.1-1.1
			l0.1-0.8l0.3-1.1v-1.1l0.3-1.1l0.6-1.8l0.6-0.6l0.1-0.7l0.6-0.5l0.7-0.5l0.7-0.4l1-0.2l0.7,0.1l0.6,0.3l0.3,0.7l0.1,0.6l-0.1,0.8
			l-0.5,0.6l-0.5,0.7l-0.3,0.8l-0.1,0.7l-0.6,0.5l-0.3,1l-0.3,0.7l-0.1,1v0.9l0.2,0.9l0.4,0.7l0.5,0.6l0.6,0.5l0.6,0.6l0.7,0.2
			l0.9,0.1l0.1,0.2l1-0.1l0.9-0.2l1-0.7l0.6-0.6l0.5-0.9l0.2-0.9v-1.2l-0.3-0.7l-0.5-0.9l-0.5-0.7l-0.7-0.6l-0.7-0.5l-0.5-0.4
			l-0.4-0.3l-0.1-0.6l0.2-0.4h0.5l0.5,0.3l0.7,0.3l0.5,0.4l0.9,0.6l0.6,0.5l0.4,0.6l0.5,0.8l0.5,0.7l0.3,0.7L95.8,337.4z"/>
		<path class="st7" d="M105.7,310.4l-0.2,0.5v0.7l-0.1,1l-0.3,0.9l-0.2,1.3l0.2,1l-0.2,0.9l-0.1,1.1l-0.2,2.7l-0.2,0.8l-0.1,0.9
			l0.1,1.3l-0.5,0.9l-0.2,1.3l-0.3,1.4l-0.2,1.5l-0.2,1l-0.4,0.8l0.1,0.6v0.8l-0.2,0.8l-0.1,1l-0.1,0.8l-0.2,1.1v0.9l-0.3,1v2.6
			l0.1,0.8v0.8l0.1,0.8l0.3,0.7l0.8,0.7l0.4,0.5l0.9,0.9l-0.1,0.4h-0.6l-0.7-0.3l-0.8-0.7l-0.8-1.1l-0.5-0.9l-0.1-0.9l-0.1-1.2v-0.9
			l-0.2-1l-0.1-1v-1.1l0.3-1.1l0.1-1.1l0.2-0.8l0.2-0.9l-0.1-0.9l0.1-1v-1.1l0.2-0.9l-0.2-0.9l-0.1-1.2l0.1-1.4l-0.3-1.6l-0.1-1.6
			l0.1-1.3l-0.1-2.9l0.1-1.2l-0.1-1.2l-0.3-1.1l-0.3-1.2L100,312l-0.5-0.8l-0.5-0.8l-0.3-0.9v-1l0.5-0.7l0.8-0.4l0.8-0.3h0.7
			l0.7,0.1l0.8,0.4l0.8,0.7l0.6,0.5l0.6,0.6L105.7,310.4z"/>
		<path class="st7" d="M116,310.4l-0.2,0.5v0.7l-0.1,1l-0.3,0.9l-0.2,1.3l0.2,1l-0.2,0.9l-0.1,1.1l-0.2,2.7l-0.2,0.8l-0.1,0.9
			l0.1,1.3l-0.5,0.9l-0.2,1.3l-0.3,1.4l-0.2,1.5l-0.2,1l-0.4,0.8l0.1,0.6v0.8l-0.2,0.8l-0.1,1l-0.1,0.8l-0.2,1.1v0.9l-0.3,1v2.6
			l0.1,0.8v0.8l0.1,0.8l0.3,0.7l0.8,0.7l0.4,0.5l0.9,0.9l-0.1,0.4h-0.6l-0.7-0.3l-0.8-0.7l-0.8-1.1l-0.5-0.9l-0.1-0.9l-0.1-1.2v-0.9
			l-0.2-1l-0.1-1v-1.1l0.3-1.1l0.1-1.1l0.2-0.8l0.2-0.9l-0.1-0.9l0.1-1v-1.1l0.2-0.9l-0.2-0.9l-0.1-1.2l0.1-1.4l-0.3-1.6l-0.1-1.6
			l0.1-1.3l-0.1-2.9l0.1-1.2l-0.1-1.2l-0.3-1.1l-0.3-1.2l-0.2-1.2l-0.5-0.8l-0.5-0.8l-0.3-0.9v-1l0.5-0.7l0.8-0.4l0.8-0.3h0.7
			l0.7,0.1l0.8,0.4l0.8,0.7l0.6,0.5l0.6,0.6L116,310.4z"/>
	</g>
</g>
</svg>
