<?xml version="1.0" encoding="utf-8"?>
<!-- Generator: Adobe Illustrator 28.4.1, SVG Export Plug-In . SVG Version: 6.00 Build 0)  -->
<svg version="1.1" id="Layer_1" xmlns="http://www.w3.org/2000/svg" xmlns:xlink="http://www.w3.org/1999/xlink" x="0px" y="0px"
	 viewBox="0 0 512 512" style="enable-background:new 0 0 512 512;" xml:space="preserve">
<style type="text/css">
	.st0{fill:url(#SVGID_1_);stroke:#FFFFFF;stroke-miterlimit:10;}
	.st1{fill:url(#SVGID_00000063615685929336576330000003812887690181411245_);stroke:#FFFFFF;stroke-miterlimit:10;}
	.st2{fill:url(#SVGID_00000050654434262193036270000007979301265770256783_);stroke:#FFFFFF;stroke-miterlimit:10;}
	.st3{fill:url(#SVGID_00000064336198977853864180000006891581459199115695_);stroke:#FFFFFF;stroke-miterlimit:10;}
	.st4{fill:url(#SVGID_00000064314475706258201180000002877635370963740087_);stroke:#FFFFFF;stroke-miterlimit:10;}
</style>
<g>
	<linearGradient id="SVGID_1_" gradientUnits="userSpaceOnUse" x1="258.2075" y1="4.9093" x2="264.6071" y2="4.9093">
		<stop  offset="0" style="stop-color:#FFFFFF"/>
		<stop  offset="1" style="stop-color:#FFFFFF;stop-opacity:0.95"/>
	</linearGradient>
	<path class="st0" d="M264.6,4.9h-6.4c1.7,0,3.4,0,5,0L264.6,4.9L264.6,4.9z"/>
	
		<linearGradient id="SVGID_00000054256668732809206660000015881865397617526709_" gradientUnits="userSpaceOnUse" x1="258.2075" y1="4.9093" x2="264.6071" y2="4.9093">
		<stop  offset="0" style="stop-color:#FFFFFF"/>
		<stop  offset="1" style="stop-color:#FFFFFF;stop-opacity:0.95"/>
	</linearGradient>
	<path style="fill:url(#SVGID_00000054256668732809206660000015881865397617526709_);stroke:#FFFFFF;stroke-miterlimit:10;" d="
		M264.6,4.9h-6.4c1.7,0,3.4,0,5,0L264.6,4.9L264.6,4.9z"/>
	
		<linearGradient id="SVGID_00000037671618906997676940000018140290603027270547_" gradientUnits="userSpaceOnUse" x1="263.6706" y1="4.9093" x2="264.6071" y2="4.9093">
		<stop  offset="0" style="stop-color:#FFFFFF"/>
		<stop  offset="1" style="stop-color:#FFFFFF;stop-opacity:0.95"/>
	</linearGradient>
	<path style="fill:url(#SVGID_00000037671618906997676940000018140290603027270547_);stroke:#FFFFFF;stroke-miterlimit:10;" d="
		M264.6,4.9c-0.7,0-0.9,0-0.9,0L264.6,4.9L264.6,4.9z"/>
	
		<linearGradient id="SVGID_00000110433735662394603950000000378239052567336362_" gradientUnits="userSpaceOnUse" x1="90.436" y1="188.1" x2="458.6682" y2="188.1">
		<stop  offset="0" style="stop-color:#000000;stop-opacity:0.4"/>
		<stop  offset="1" style="stop-color:#000000;stop-opacity:5.000000e-02"/>
	</linearGradient>
	<path style="fill:url(#SVGID_00000110433735662394603950000000378239052567336362_);stroke:#FFFFFF;stroke-miterlimit:10;" d="
		M429.7,353.3c-6.5-4.7-12.5-11.6-18-20.7c-5.6-9.1-13-24.3-22.4-45.6l-42.7-96.6l-3.6-8.2l-19.7-44.5l-5.2-11.6L273.5,25L269,14.8
		c4.1,0.8,8,1.9,11.7,3.2c7.5,2.8,14.3,6.7,20.5,11.9c9.5,7.7,16.8,17.7,21.9,29.9s7.6,25.7,7.6,40.4c0,8.7-1,16.9-2.9,24.5
		l23.8,53.9c1.9-0.9,3.6-1.9,5.4-2.9c25.8-15.2,38.6-39.2,38.6-71.9c0-32.2-12.7-58-38.1-77.3c-11.1-8.6-23.3-14.3-36.8-17.2
		c-10.6-2.3-25.9-3.6-45.8-4.1c-3.2-0.1-6.6-0.2-10.1-0.2c0,0-0.1,0-0.3,0h-1.4c-3,0-9.4,0-15,0c-5.5,0-10.2,0-10.2,0H90.4v6.2h7.8
		c11.4,0.7,20.7,2.8,27.9,6.3c7.2,3.5,13.1,8.8,17.7,16c3.2,5.2,5.5,12,6.8,20.3c1.3,8.3,2,20.2,2,35.6V287c0,1.8,0,3.6,0,5.3
		c-0.2,15.2,0.9,48.7-12,62.4c-8,6.4-18.1,9.7-26.7,10.4v6.2h153.9v-6.2c-10.4-0.5-18.7-2-25.1-4.4c-6.4-2.4-12-6.1-16.8-11.1
		c-5.5-5.7-9.3-13-11.4-21.9c-2.1-8.9-3.1-22.4-3.1-40.6v-96.4h71l3.8,8.8l5.8,13.5l4.6,11l27.5,63.3l4.9,11.3
		c5.3,12.4,8,22.2,8,29.5c0,23.6-23.8,35.6-40.8,37v6.2h162.4v-6.2C446.8,363.9,434.3,356.5,429.7,353.3z M211.5,182.1V13.2h23.1
		c3.7,0,7.2,0,10.2,0l-3.7,8.9L220.4,72v30l11.5-28.1l41.7,96.3l3.6,8.3l1.5,3.5H211.5z"/>
	
		<linearGradient id="SVGID_00000102545724795815612100000011237806385892888450_" gradientUnits="userSpaceOnUse" x1="53.3318" y1="314.0959" x2="143.7956" y2="314.0959">
		<stop  offset="0" style="stop-color:#000000;stop-opacity:0.4"/>
		<stop  offset="1" style="stop-color:#000000;stop-opacity:5.000000e-02"/>
	</linearGradient>
	<path style="fill:url(#SVGID_00000102545724795815612100000011237806385892888450_);stroke:#FFFFFF;stroke-miterlimit:10;" d="
		M143.3,258c-9.5,23.1-17.2,40.4-23.1,51.9c-5.8,11.6-11.8,21-17.9,28.3c-7.3,9.1-14.7,15.7-22.3,19.9c-7.6,4.1-16.5,6.4-26.7,7v6.2
		H114v-6.2c8-0.7,17.3-3.6,25.1-9.2c-13.8-13.9-0.7-52.5,4.7-66.8c0-0.7,0-1.4,0-2.1v-30.1L143.3,258z"/>
</g>
<g>
	<path d="M72.9,416.7c0-2,0.8-3.7,2.4-5.1c1.6-1.5,3.8-2.2,6.6-2.2c2.8,0,5.1,0.7,7,2.2c1.9,1.5,2.9,3.7,3,6.6
		c0,0.2-0.1,0.5-0.3,0.7c-0.2,0.2-0.4,0.3-0.6,0.3h-0.5c-0.2,0-0.4-0.1-0.6-0.2c-0.2-0.2-0.3-0.4-0.3-0.6c-0.1-2.3-0.9-4-2.3-5
		s-3.2-1.6-5.2-1.6c-2.2,0-3.9,0.5-5.1,1.5c-1.2,1-1.8,2.2-1.8,3.7s0.4,2.6,1.3,3.5c1.2,1.2,3.4,2.4,6.6,3.6c3.8,1.5,6.4,3,7.6,4.5
		c1,1.2,1.5,2.8,1.5,5c0,2.1-0.9,4-2.6,5.5c-1.7,1.5-4.2,2.3-7.4,2.3c-2.4,0-4.6-0.7-6.8-2c-1.1-0.7-2-1.7-2.7-2.9
		c-0.7-1.3-1.1-2.7-1.2-4.3c0-0.6,0.3-1,0.9-1h0.4c0.5,0,0.8,0.3,0.9,0.9c0.1,1.3,0.4,2.5,1,3.5c0.6,1,1.4,1.7,2.3,2.2
		c1.8,0.9,3.7,1.4,5.8,1.4c2.1,0,3.8-0.6,5.2-1.7c1.3-1.1,2-2.5,2-4.2c0-1.7-0.5-3-1.6-3.9c-0.9-0.7-1.8-1.3-2.9-1.9
		c-1.3-0.6-3.4-1.5-6.3-2.7c-2.2-1-3.8-2.1-4.7-3.3C73.4,420.2,72.9,418.6,72.9,416.7z"/>
	<path d="M99.7,420.4c1.5-1.3,3.3-2,5.7-2c2.3,0,4.2,0.7,5.6,2c1.4,1.3,2.1,3.2,2.1,5.5v7.9c0,2.4-0.7,4.2-2.1,5.5
		c-1.4,1.3-3.3,2-5.6,2s-4.2-0.7-5.7-2c-1.5-1.3-2.2-3.2-2.2-5.5v-7.9C97.6,423.6,98.3,421.7,99.7,420.4z M109.5,422
		c-1.1-0.9-2.4-1.4-4-1.4c-1.6,0-3,0.5-4.1,1.4c-1.1,0.9-1.6,2.2-1.6,4v7.9c0,1.7,0.5,3.1,1.6,4c1.1,0.9,2.5,1.4,4.1,1.4
		c1.6,0,3-0.5,4-1.4c1.1-0.9,1.6-2.2,1.6-4v-7.9C111,424.2,110.5,422.9,109.5,422z"/>
	<path d="M121.3,408.1h0.4c0.6,0,0.9,0.3,0.9,0.9v25.3c0,3.2,1.4,4.9,4.1,4.9h0.7c0.2,0,0.4,0.1,0.6,0.3c0.2,0.2,0.2,0.4,0.2,0.6
		v0.4c0,0.6-0.5,0.9-1.6,0.9c-2.1,0-3.6-0.6-4.7-1.8c-1.1-1.2-1.6-2.9-1.5-5.2V409C120.4,408.4,120.7,408.1,121.3,408.1z"/>
	<path d="M134.7,418.5h0.4c0.6,0,0.9,0.3,0.9,0.9v14.4c0,1.8,0.4,3.1,1.3,4c0.9,0.9,2.2,1.4,3.8,1.4s3-0.7,4.2-2
		c0.3-0.3,0.6-0.5,0.9-0.5c0.6,0,0.9,0.3,0.9,1c0,0.3-0.1,0.5-0.2,0.7c-0.6,0.8-1.5,1.5-2.5,2.1c-1.1,0.5-2.2,0.8-3.5,0.8
		c-2.1,0-3.8-0.7-5.1-2c-1.3-1.3-1.9-3.2-1.9-5.5v-14.4C133.8,418.8,134.1,418.5,134.7,418.5z M148.1,418.5h0.5
		c0.6,0,0.9,0.3,0.9,0.9v16.5c0,1.2,0.1,2,0.3,2.4c0.2,0.4,0.6,0.7,1.2,0.9l0.5,0.1c0.5,0.1,0.7,0.3,0.7,0.6v0.5
		c0,0.5-0.3,0.8-0.9,0.8c-1.5,0-2.5-0.4-3.1-1.3c-0.6-0.9-0.8-2.2-0.8-4v-16.4C147.3,418.8,147.6,418.5,148.1,418.5z"/>
	<path d="M158.6,420.4c1.5-1.3,3.3-2,5.7-2c2.3,0,4.2,0.7,5.6,2c1.4,1.3,2.1,3.2,2.1,5.5c0,0.6-0.3,0.9-0.9,0.9h-0.4
		c-0.6,0-0.9-0.3-0.9-0.9c0-1.7-0.5-3-1.6-4c-1.1-0.9-2.4-1.4-4-1.4c-1.6,0-3,0.5-4.1,1.4c-1.1,0.9-1.6,2.2-1.6,4v7.8
		c0,1.7,0.5,3.1,1.6,4c1.1,0.9,2.4,1.4,4.1,1.4c1.6,0,3-0.4,4-1.3c1-0.9,1.6-2.2,1.6-3.8c0-0.2,0.1-0.5,0.2-0.6
		c0.2-0.2,0.4-0.3,0.6-0.3h0.4c0.3,0,0.5,0.1,0.7,0.3c0.2,0.2,0.2,0.4,0.2,0.6c-0.1,2.3-0.8,4.1-2.2,5.4c-1.4,1.3-3.3,2-5.6,2
		c-2.3,0-4.2-0.7-5.6-2c-1.5-1.3-2.2-3.2-2.2-5.5v-7.9C156.4,423.6,157.1,421.7,158.6,420.4z"/>
	<path d="M178.5,408.4c0.3-0.3,1-0.4,2.1-0.4c1.1,0,1.8,0.1,2.1,0.4c0.3,0.3,0.5,0.9,0.5,1.8v0.6c0,1-0.2,1.7-0.5,2
		c-0.3,0.3-1,0.4-2.1,0.4c-1.1,0-1.8-0.1-2.1-0.4c-0.3-0.3-0.5-0.9-0.5-2v-0.6C178.1,409.3,178.2,408.7,178.5,408.4z M180.3,418.5
		h0.8c0.4,0,0.6,0.1,0.7,0.2c0.1,0.2,0.2,0.4,0.2,0.7v20.9c0,0.3-0.1,0.5-0.3,0.7c-0.2,0.2-0.4,0.2-0.6,0.2h-0.8
		c-0.2,0-0.5-0.1-0.6-0.2c-0.2-0.2-0.3-0.4-0.3-0.7v-20.9c0-0.4,0.1-0.6,0.2-0.7C179.8,418.6,180,418.5,180.3,418.5z M181.5,409.8
		c-0.1-0.1-0.4-0.2-0.8-0.2c-0.4,0-0.7,0-0.8,0.1c-0.1,0.1-0.2,0.3-0.2,0.6v0.5c0,0.3,0.1,0.5,0.2,0.6c0.1,0.1,0.4,0.1,0.8,0.1
		c0.4,0,0.7,0,0.8-0.1c0.1-0.1,0.2-0.3,0.2-0.6v-0.5C181.7,410.1,181.6,409.9,181.5,409.8z"/>
	<path d="M190.8,420.4c1.5-1.3,3.3-2,5.7-2c2.3,0,4.2,0.7,5.6,2c1.4,1.3,2.1,3.2,2.1,5.5v7.9c0,2.4-0.7,4.2-2.1,5.5
		c-1.4,1.3-3.3,2-5.6,2s-4.2-0.7-5.7-2c-1.5-1.3-2.2-3.2-2.2-5.5v-7.9C188.6,423.6,189.3,421.7,190.8,420.4z M200.5,422
		c-1.1-0.9-2.4-1.4-4-1.4c-1.6,0-3,0.5-4.1,1.4c-1.1,0.9-1.6,2.2-1.6,4v7.9c0,1.7,0.5,3.1,1.6,4c1.1,0.9,2.5,1.4,4.1,1.4
		c1.6,0,3-0.5,4-1.4c1.1-0.9,1.6-2.2,1.6-4v-7.9C202.1,424.2,201.6,422.9,200.5,422z"/>
	<path d="M211.9,418.6h0.4c0.2,0,0.5,0.1,0.6,0.2c0.2,0.2,0.3,0.4,0.3,0.7v20.8c0,0.3-0.1,0.5-0.3,0.7c-0.2,0.2-0.4,0.2-0.6,0.2
		h-0.4c-0.2,0-0.5-0.1-0.6-0.2c-0.2-0.2-0.3-0.4-0.3-0.7v-20.8c0-0.3,0.1-0.5,0.3-0.7C211.4,418.7,211.7,418.6,211.9,418.6z
		 M219.6,418.5c2.3,0,4,0.6,5.2,1.8c1.2,1.2,1.8,2.9,1.8,5.2v14.9c0,0.6-0.3,0.9-0.9,0.9h-0.4c-0.6,0-0.9-0.3-0.9-0.9V426
		c0-3.6-1.6-5.4-4.9-5.4c-1.7,0-3.2,0.7-4.4,2c-0.3,0.3-0.6,0.4-0.9,0.4c-0.5,0-0.8-0.3-0.9-0.9c0-0.2,0.1-0.5,0.2-0.7
		c0.6-0.9,1.5-1.6,2.5-2.1C217.2,418.7,218.3,418.5,219.6,418.5z"/>
	<path d="M235.4,420.4c1.5-1.3,3.3-2,5.7-2c2.3,0,4.2,0.7,5.6,2c1.4,1.3,2.1,3.2,2.1,5.5v2.7c0,1.3-0.6,2-1.9,2h-9.8
		c-0.3,0-0.5-0.1-0.7-0.3c-0.2-0.2-0.2-0.4-0.2-0.6v-0.4c0-0.2,0.1-0.5,0.2-0.6c0.2-0.2,0.4-0.3,0.7-0.3h9.5V426c0-1.7-0.5-3-1.6-4
		c-1.1-0.9-2.4-1.4-4-1.4c-1.6,0-3,0.5-4.1,1.4c-1.1,0.9-1.6,2.2-1.6,4v7.8c0,1.7,0.5,3.1,1.6,4c1.1,0.9,2.4,1.4,4,1.4
		c1.6,0,3-0.4,4-1.3c1.1-0.9,1.6-2.2,1.6-3.8c0-0.2,0.1-0.5,0.2-0.6c0.2-0.2,0.4-0.3,0.6-0.3h0.4c0.3,0,0.5,0.1,0.7,0.3
		c0.2,0.2,0.2,0.4,0.2,0.6c0,2.3-0.8,4.1-2.2,5.4c-1.4,1.3-3.3,1.9-5.6,1.9c-2.3,0-4.2-0.7-5.7-2c-1.5-1.3-2.2-3.2-2.2-5.5v-7.9
		C233.2,423.6,234,421.7,235.4,420.4z"/>
	<path d="M255.7,424.5c0-1.7,0.6-3.1,1.7-4.3c1.2-1.2,2.9-1.7,5.2-1.7c2.3,0,4.1,0.6,5.3,1.7c1.2,1.1,1.9,2.8,1.9,5
		c0,0.2-0.1,0.4-0.2,0.6c-0.2,0.2-0.4,0.2-0.6,0.2h-0.4c-0.2,0-0.4-0.1-0.6-0.2c-0.2-0.2-0.2-0.4-0.2-0.6c0-3.1-1.7-4.6-5.1-4.6
		c-1.6,0-2.8,0.4-3.6,1.1c-0.8,0.8-1.2,1.7-1.2,2.9c0,1.2,0.4,2.1,1.2,2.7c0.8,0.7,2.2,1.2,4.4,1.7c2.1,0.4,3.8,1.1,5,2
		c1.2,0.9,1.8,2.3,1.8,4.1c0,1.8-0.7,3.3-2,4.5c-1.3,1.2-3.1,1.8-5.5,1.8s-4.2-0.6-5.7-1.8c-1.5-1.2-2.2-3-2.2-5.3
		c0-0.6,0.3-1,0.9-1h0.4c0.6,0,0.9,0.3,0.9,0.9c0,3.3,2,5,5.9,5c1.8,0,3.1-0.4,3.9-1.2c0.9-0.8,1.3-1.8,1.3-3c0-1.2-0.5-2-1.4-2.6
		c-0.9-0.5-2.5-1-4.7-1.5c-2.3-0.5-3.9-1.3-4.8-2.3C256.2,427.6,255.7,426.2,255.7,424.5z"/>
	<path d="M298.9,409.5h0.5c0.2,0,0.5,0.1,0.6,0.3c0.2,0.2,0.3,0.4,0.3,0.6V439h15.2c0.6,0,0.9,0.3,0.9,0.9v0.4
		c0,0.2-0.1,0.5-0.2,0.6c-0.2,0.2-0.4,0.3-0.6,0.3h-15.6c-1.2,0-1.9-0.7-1.9-2v-28.9c0-0.2,0.1-0.5,0.3-0.6
		C298.5,409.6,298.7,409.5,298.9,409.5z"/>
	<path d="M323.7,420.4c1.5-1.3,3.3-2,5.7-2c2.3,0,4.2,0.7,5.6,2c1.4,1.3,2.1,3.2,2.1,5.5v2.7c0,1.3-0.6,2-1.9,2h-9.8
		c-0.3,0-0.5-0.1-0.7-0.3c-0.2-0.2-0.2-0.4-0.2-0.6v-0.4c0-0.2,0.1-0.5,0.2-0.6c0.2-0.2,0.4-0.3,0.7-0.3h9.5V426c0-1.7-0.5-3-1.6-4
		c-1.1-0.9-2.4-1.4-4-1.4c-1.6,0-3,0.5-4.1,1.4c-1.1,0.9-1.6,2.2-1.6,4v7.8c0,1.7,0.5,3.1,1.6,4c1.1,0.9,2.4,1.4,4,1.4
		c1.6,0,3-0.4,4-1.3c1.1-0.9,1.6-2.2,1.6-3.8c0-0.2,0.1-0.5,0.2-0.6c0.2-0.2,0.4-0.3,0.6-0.3h0.4c0.3,0,0.5,0.1,0.7,0.3
		c0.2,0.2,0.2,0.4,0.2,0.6c0,2.3-0.8,4.1-2.2,5.4c-1.4,1.3-3.3,1.9-5.6,1.9c-2.3,0-4.2-0.7-5.7-2c-1.5-1.3-2.2-3.2-2.2-5.5v-7.9
		C321.5,423.6,322.3,421.7,323.7,420.4z"/>
	<path d="M346,420.5c1.5-1.3,3.4-2,5.7-2c2.3,0,4.2,0.7,5.6,2c1.4,1.3,2.1,3.1,2.1,5.5v18.7c0,2.6-0.7,4.5-2,5.9
		c-1.4,1.3-3.2,2-5.5,2c-2.3,0-4.1-0.6-5.5-1.9c-1.4-1.3-2.1-3.1-2.1-5.4c0-0.5,0.3-0.8,0.9-0.8h0.4c0.6,0,0.9,0.3,0.9,0.8
		c0.1,1.7,0.6,2.9,1.6,3.8c1,0.9,2.3,1.3,3.9,1.3c1.6,0,2.9-0.5,3.9-1.5c1-1,1.5-2.4,1.5-4.4v-5c-1.6,1.2-3.6,1.8-5.8,1.8
		c-2.2,0-4.1-0.6-5.5-2c-1.5-1.3-2.2-3.1-2.2-5.5V426C343.8,423.6,344.5,421.8,346,420.5z M355.7,422c-1.1-0.9-2.4-1.4-4.1-1.4
		c-1.7,0-3,0.5-4.1,1.4c-1.1,0.9-1.6,2.3-1.6,4v7.8c0,1.7,0.6,3.1,1.7,4c1.1,0.9,2.4,1.4,4,1.4c1.5,0,2.8-0.2,3.8-0.7
		c1-0.5,1.6-1.1,1.9-1.7V426C357.3,424.3,356.7,422.9,355.7,422z"/>
	<path d="M369.6,420.4c1.5-1.3,3.3-2,5.7-2c2.3,0,4.2,0.7,5.6,2c1.4,1.3,2.1,3.2,2.1,5.5v10c0,1.2,0.1,2,0.3,2.4
		c0.2,0.4,0.6,0.7,1.2,0.9l0.5,0.1c0.5,0.1,0.7,0.3,0.7,0.6v0.5c0,0.5-0.3,0.8-0.9,0.8c-1.5,0-2.5-0.4-3-1.3c-0.5-0.9-0.8-2.2-0.8-4
		v-9.9c0-1.7-0.5-3-1.6-4c-1.1-0.9-2.4-1.4-4-1.4c-1.6,0-3,0.5-4.1,1.4s-1.6,2.2-1.6,4v7.8c0,1.8,0.4,3.1,1.3,4
		c0.9,0.9,2.2,1.4,3.9,1.4c1.7,0,3.1-0.7,4.2-2c0.2-0.3,0.5-0.4,0.9-0.4s0.6,0.2,0.8,0.7c0.1,0.4,0,0.7-0.1,1c-1.3,2-3.2,3-5.6,3
		c-2.4,0-4.3-0.7-5.5-2c-1.3-1.3-1.9-3.1-1.9-5.5v-7.8C367.4,423.6,368.2,421.7,369.6,420.4z"/>
	<path d="M391.1,408.1h0.4c0.6,0,0.9,0.3,0.9,0.9v25.3c0,3.2,1.4,4.9,4.1,4.9h0.7c0.2,0,0.4,0.1,0.6,0.3c0.2,0.2,0.2,0.4,0.2,0.6
		v0.4c0,0.6-0.5,0.9-1.6,0.9c-2.1,0-3.6-0.6-4.7-1.8c-1.1-1.2-1.6-2.9-1.5-5.2V409C390.2,408.4,390.5,408.1,391.1,408.1z"/>
	<path d="M405.7,420.4c1.5-1.3,3.3-2,5.7-2c2.3,0,4.2,0.7,5.6,2c1.4,1.3,2.1,3.2,2.1,5.5v2.7c0,1.3-0.6,2-1.9,2h-9.8
		c-0.3,0-0.5-0.1-0.7-0.3c-0.2-0.2-0.2-0.4-0.2-0.6v-0.4c0-0.2,0.1-0.5,0.2-0.6c0.2-0.2,0.4-0.3,0.7-0.3h9.5V426c0-1.7-0.5-3-1.6-4
		c-1.1-0.9-2.4-1.4-4-1.4c-1.6,0-3,0.5-4.1,1.4c-1.1,0.9-1.6,2.2-1.6,4v7.8c0,1.7,0.5,3.1,1.6,4c1.1,0.9,2.4,1.4,4,1.4
		c1.6,0,3-0.4,4-1.3c1.1-0.9,1.6-2.2,1.6-3.8c0-0.2,0.1-0.5,0.2-0.6c0.2-0.2,0.4-0.3,0.6-0.3h0.4c0.3,0,0.5,0.1,0.7,0.3
		c0.2,0.2,0.2,0.4,0.2,0.6c0,2.3-0.8,4.1-2.2,5.4c-1.4,1.3-3.3,1.9-5.6,1.9c-2.3,0-4.2-0.7-5.7-2c-1.5-1.3-2.2-3.2-2.2-5.5v-7.9
		C403.5,423.6,404.3,421.7,405.7,420.4z"/>
	<path d="M426,424.5c0-1.7,0.6-3.1,1.7-4.3c1.2-1.2,2.9-1.7,5.2-1.7c2.3,0,4.1,0.6,5.3,1.7c1.2,1.1,1.9,2.8,1.9,5
		c0,0.2-0.1,0.4-0.2,0.6c-0.2,0.2-0.4,0.2-0.6,0.2h-0.4c-0.2,0-0.4-0.1-0.6-0.2s-0.2-0.4-0.2-0.6c0-3.1-1.7-4.6-5.1-4.6
		c-1.6,0-2.8,0.4-3.6,1.1c-0.8,0.8-1.2,1.7-1.2,2.9c0,1.2,0.4,2.1,1.2,2.7c0.8,0.7,2.2,1.2,4.4,1.7c2.2,0.4,3.8,1.1,5,2
		c1.2,0.9,1.8,2.3,1.8,4.1c0,1.8-0.7,3.3-2,4.5c-1.3,1.2-3.1,1.8-5.5,1.8s-4.2-0.6-5.7-1.8c-1.5-1.2-2.2-3-2.2-5.3
		c0-0.6,0.3-1,0.9-1h0.4c0.6,0,0.9,0.3,0.9,0.9c0,3.3,2,5,5.9,5c1.8,0,3.1-0.4,3.9-1.2c0.9-0.8,1.3-1.8,1.3-3c0-1.2-0.5-2-1.4-2.6
		c-0.9-0.5-2.5-1-4.7-1.5c-2.3-0.5-3.9-1.3-4.8-2.3C426.5,427.6,426,426.2,426,424.5z"/>
	<path d="M100.4,464h7c2.1,0,4.1,0.6,5.9,1.7c0.9,0.6,1.7,1.5,2.3,2.6c0.6,1.2,0.9,2.5,0.9,4.1c0,2.4-0.7,4.4-2.1,6
		c-1.4,1.6-3.8,2.4-7.3,2.4h-3c-0.3,0-0.5-0.1-0.7-0.3c-0.2-0.2-0.2-0.4-0.2-0.6v-0.4c0-0.6,0.3-0.9,0.9-0.9h2.5
		c3.3,0,5.4-0.7,6.4-2.1c0.8-1.2,1.2-2.5,1.2-4.2c0-2.1-0.7-3.7-2.1-4.7c-1.4-1-3-1.5-4.9-1.5h-6.5v28.6c0,0.2-0.1,0.5-0.3,0.6
		c-0.2,0.2-0.4,0.3-0.6,0.3h-0.5c-0.2,0-0.5-0.1-0.6-0.3s-0.3-0.4-0.3-0.6V466c0-0.8,0.1-1.3,0.4-1.6C99.1,464.1,99.6,464,100.4,464
		z"/>
	<path d="M120.9,462.9c0.3-0.3,1-0.4,2.1-0.4c1.1,0,1.8,0.1,2.1,0.4c0.3,0.3,0.5,0.9,0.5,1.8v0.6c0,1-0.2,1.7-0.5,2
		c-0.3,0.3-1,0.4-2.1,0.4c-1.1,0-1.8-0.1-2.1-0.4c-0.3-0.3-0.5-0.9-0.5-2v-0.6C120.5,463.8,120.6,463.1,120.9,462.9z M122.7,473h0.8
		c0.4,0,0.6,0.1,0.7,0.2c0.1,0.2,0.2,0.4,0.2,0.7v20.9c0,0.3-0.1,0.5-0.3,0.7c-0.2,0.2-0.4,0.2-0.6,0.2h-0.8c-0.2,0-0.5-0.1-0.6-0.2
		c-0.2-0.2-0.3-0.4-0.3-0.7v-20.9c0-0.4,0.1-0.6,0.2-0.7C122.2,473,122.4,473,122.7,473z M123.9,464.3c-0.1-0.1-0.4-0.2-0.8-0.2
		c-0.4,0-0.7,0-0.8,0.1c-0.1,0.1-0.2,0.3-0.2,0.6v0.5c0,0.3,0.1,0.5,0.2,0.6c0.1,0.1,0.4,0.1,0.8,0.1c0.4,0,0.7,0,0.8-0.1
		c0.1-0.1,0.2-0.3,0.2-0.6v-0.5C124.1,464.6,124,464.4,123.9,464.3z"/>
	<path d="M133.2,474.9c1.5-1.3,3.3-2,5.7-2c2.3,0,4.2,0.7,5.6,2c1.4,1.3,2.1,3.2,2.1,5.5c0,0.6-0.3,0.9-0.9,0.9h-0.4
		c-0.6,0-0.9-0.3-0.9-0.9c0-1.7-0.5-3-1.6-4c-1.1-0.9-2.4-1.4-4-1.4c-1.6,0-3,0.5-4.1,1.4s-1.6,2.2-1.6,4v7.8c0,1.7,0.5,3.1,1.6,4
		s2.4,1.4,4.1,1.4c1.6,0,3-0.4,4-1.3c1-0.9,1.6-2.2,1.6-3.8c0-0.2,0.1-0.5,0.2-0.6s0.4-0.3,0.6-0.3h0.4c0.3,0,0.5,0.1,0.7,0.3
		c0.2,0.2,0.2,0.4,0.2,0.6c-0.1,2.3-0.8,4.1-2.2,5.4c-1.4,1.3-3.3,2-5.6,2s-4.2-0.7-5.6-2c-1.5-1.3-2.2-3.2-2.2-5.5v-7.9
		C131,478.1,131.7,476.2,133.2,474.9z"/>
	<path d="M156.3,474.9c1.5-1.3,3.3-2,5.7-2s4.2,0.7,5.6,2c1.4,1.3,2.1,3.2,2.1,5.5v10c0,1.2,0.1,2,0.3,2.4c0.2,0.4,0.6,0.7,1.2,0.9
		l0.5,0.1c0.5,0.1,0.7,0.3,0.7,0.6v0.5c0,0.5-0.3,0.8-0.9,0.8c-1.5,0-2.5-0.4-3-1.3c-0.5-0.9-0.8-2.2-0.8-4v-9.9c0-1.7-0.5-3-1.6-4
		c-1.1-0.9-2.4-1.4-4-1.4c-1.6,0-3,0.5-4.1,1.4c-1.1,0.9-1.6,2.2-1.6,4v7.8c0,1.8,0.4,3.1,1.3,4c0.9,0.9,2.2,1.4,3.9,1.4
		c1.7,0,3.1-0.7,4.2-2c0.2-0.3,0.5-0.4,0.9-0.4c0.4,0,0.6,0.2,0.8,0.7c0.1,0.4,0,0.7-0.1,1c-1.3,2-3.2,3-5.6,3c-2.4,0-4.3-0.7-5.5-2
		c-1.3-1.3-1.9-3.1-1.9-5.5v-7.8C154.1,478.1,154.8,476.2,156.3,474.9z"/>
	<path d="M191.3,462.5h0.5c0.5,0,0.8,0.3,0.8,0.9v25c0,2.4-0.7,4.2-2.2,5.5c-1.4,1.3-3.3,2-5.7,2c-2.3,0-4.2-0.7-5.7-2
		c-1.5-1.3-2.2-3.1-2.2-5.5v-7.9c0-2.3,0.7-4.1,2.2-5.4c1.5-1.3,3.3-2,5.7-2c1,0,2,0.2,3.1,0.5c1.1,0.4,1.9,0.8,2.5,1.2v-11.4
		C190.5,462.8,190.7,462.5,191.3,462.5z M190.5,477.3c-1.8-1.4-3.5-2.1-5.4-2.1s-3.3,0.5-4.3,1.4c-1.1,0.9-1.6,2.2-1.6,4v7.8
		c0,1.8,0.5,3.1,1.6,4c1.1,0.9,2.4,1.4,4.1,1.4c1.6,0,3-0.5,4-1.4c1.1-0.9,1.6-2.2,1.6-4V477.3z"/>
	<path d="M202.2,474.9c1.5-1.3,3.3-2,5.7-2c2.3,0,4.2,0.7,5.6,2c1.4,1.3,2.1,3.2,2.1,5.5v7.9c0,2.4-0.7,4.2-2.1,5.5
		c-1.4,1.3-3.3,2-5.6,2c-2.3,0-4.2-0.7-5.7-2c-1.5-1.3-2.2-3.2-2.2-5.5v-7.9C200,478.1,200.7,476.2,202.2,474.9z M211.9,476.5
		c-1.1-0.9-2.4-1.4-4-1.4c-1.6,0-3,0.5-4.1,1.4s-1.6,2.2-1.6,4v7.9c0,1.7,0.5,3.1,1.6,4c1.1,0.9,2.5,1.4,4.1,1.4c1.6,0,3-0.5,4-1.4
		c1.1-0.9,1.6-2.2,1.6-4v-7.9C213.5,478.7,213,477.4,211.9,476.5z"/>
	<path d="M249.9,464.8c1.1-0.5,2-0.8,2.9-1c0.8-0.1,1.6-0.2,2.5-0.2s1.6,0.1,2.4,0.2c0.8,0.1,1.7,0.4,2.7,0.9c1,0.4,1.9,1,2.7,1.7
		c0.8,0.7,1.5,1.6,2.1,2.8c0.6,1.2,1,2.6,1.1,4.2c0,0.7-0.3,1-0.9,1h-0.4c-0.5,0-0.8-0.3-0.9-0.8c-0.2-1.3-0.5-2.4-1-3.4
		c-0.5-1-1-1.7-1.7-2.2c-0.6-0.5-1.4-0.9-2.2-1.3c-1.2-0.5-2.3-0.8-3.4-0.8c-1,0-1.9,0.1-2.6,0.2c-0.7,0.1-1.4,0.4-2.3,0.8
		c-0.8,0.4-1.6,0.9-2.2,1.6c-0.6,0.7-1.2,1.6-1.6,2.7c-0.4,1.2-0.7,2.5-0.7,4.1v8.9c0,1.5,0.2,2.9,0.7,4.1c0.5,1.2,1,2.1,1.6,2.7
		c0.6,0.7,1.4,1.2,2.2,1.6c0.9,0.4,1.6,0.7,2.3,0.8c0.7,0.1,1.3,0.2,2,0.2c0.7,0,1.3-0.1,2-0.2c0.7-0.1,1.4-0.3,2.3-0.7
		c0.8-0.4,1.6-0.9,2.2-1.5c0.6-0.6,1.2-1.5,1.6-2.6c0.4-1.1,0.7-2.4,0.7-3.9V482h-7.5c-0.6,0-0.9-0.3-0.9-0.9v-0.4
		c0-0.2,0.1-0.5,0.2-0.6c0.2-0.2,0.4-0.3,0.7-0.3h7.9c1.2,0,1.8,0.7,1.8,2v3c0,1.8-0.3,3.5-0.8,4.9c-0.6,1.4-1.2,2.5-2,3.2
		c-0.8,0.8-1.7,1.4-2.8,1.8c-1.7,0.8-3.5,1.1-5.4,1.1c-1.9,0-3.6-0.3-5-1c-1.4-0.7-2.5-1.4-3.3-2.2c-0.8-0.8-1.5-1.9-2-3.3
		c-0.5-1.4-0.8-3.1-0.8-4.9v-9.2c0-1.9,0.3-3.6,0.8-5c0.6-1.5,1.2-2.6,2-3.3C247.9,466,248.9,465.3,249.9,464.8z"/>
	<path d="M274.2,474.9c1.5-1.3,3.3-2,5.7-2c2.3,0,4.2,0.7,5.6,2c1.4,1.3,2.1,3.2,2.1,5.5v7.9c0,2.4-0.7,4.2-2.1,5.5
		c-1.4,1.3-3.3,2-5.6,2c-2.3,0-4.2-0.7-5.7-2c-1.5-1.3-2.2-3.2-2.2-5.5v-7.9C272,478.1,272.7,476.2,274.2,474.9z M283.9,476.5
		c-1.1-0.9-2.4-1.4-4-1.4c-1.6,0-3,0.5-4.1,1.4c-1.1,0.9-1.6,2.2-1.6,4v7.9c0,1.7,0.5,3.1,1.6,4c1.1,0.9,2.5,1.4,4.1,1.4
		c1.6,0,3-0.5,4-1.4c1.1-0.9,1.6-2.2,1.6-4v-7.9C285.5,478.7,284.9,477.4,283.9,476.5z"/>
	<path d="M295.8,473h0.4c0.6,0,0.9,0.3,0.9,0.9v14.4c0,1.8,0.4,3.1,1.3,4c0.9,0.9,2.2,1.4,3.8,1.4c1.6,0,3-0.7,4.2-2
		c0.3-0.3,0.6-0.5,0.9-0.5c0.6,0,0.9,0.3,0.9,1c0,0.3-0.1,0.5-0.2,0.7c-0.6,0.8-1.5,1.5-2.5,2.1c-1.1,0.5-2.2,0.8-3.5,0.8
		c-2.1,0-3.8-0.7-5.1-2c-1.3-1.3-1.9-3.2-1.9-5.5v-14.4C294.9,473.3,295.2,473,295.8,473z M309.2,473h0.5c0.6,0,0.9,0.3,0.9,0.9
		v16.5c0,1.2,0.1,2,0.3,2.4c0.2,0.4,0.6,0.7,1.2,0.9l0.5,0.1c0.5,0.1,0.7,0.3,0.7,0.6v0.5c0,0.5-0.3,0.8-0.9,0.8
		c-1.5,0-2.5-0.4-3.1-1.3c-0.6-0.9-0.8-2.2-0.8-4V474C308.4,473.3,308.7,473,309.2,473z"/>
	<path d="M325.2,473c0.6,0,0.9,0.3,0.9,0.9v0.3c0,0.2-0.1,0.5-0.2,0.6c-0.2,0.2-0.4,0.3-0.6,0.3c-1.7,0-3.1,0.4-4.1,1.3
		c-1,0.9-1.5,2.2-1.5,4v14.4c0,0.3-0.1,0.5-0.3,0.7c-0.2,0.2-0.4,0.2-0.6,0.2h-0.3c-0.2,0-0.5-0.1-0.6-0.2c-0.2-0.2-0.3-0.4-0.3-0.7
		v-14.4c0-2.5,0.7-4.4,2.1-5.6C320.9,473.6,322.8,473,325.2,473z"/>
	<path d="M330.9,473h12c1.2,0,1.8,0.5,1.8,1.6c0,0.5-0.3,1-0.8,1.7l-11.4,17.3h11.6c0.6,0,0.9,0.3,0.9,0.9v0.4
		c0,0.6-0.3,0.9-0.9,0.9h-12.4c-0.5,0-0.9-0.2-1.2-0.5c-0.3-0.3-0.5-0.7-0.5-1.1c0-0.5,0.3-1,0.8-1.8l11.3-17.2h-11.2
		c-0.6,0-0.9-0.3-0.9-0.9V474C330,473.3,330.3,473,330.9,473z"/>
	<path d="M353.6,474.9c1.5-1.3,3.3-2,5.7-2c2.3,0,4.2,0.7,5.6,2c1.4,1.3,2.1,3.2,2.1,5.5v7.9c0,2.4-0.7,4.2-2.1,5.5
		c-1.4,1.3-3.3,2-5.6,2c-2.3,0-4.2-0.7-5.7-2c-1.5-1.3-2.2-3.2-2.2-5.5v-7.9C351.4,478.1,352.1,476.2,353.6,474.9z M363.3,476.5
		c-1.1-0.9-2.4-1.4-4-1.4c-1.6,0-3,0.5-4.1,1.4c-1.1,0.9-1.6,2.2-1.6,4v7.9c0,1.7,0.5,3.1,1.6,4c1.1,0.9,2.5,1.4,4.1,1.4
		c1.6,0,3-0.5,4-1.4c1.1-0.9,1.6-2.2,1.6-4v-7.9C364.9,478.7,364.4,477.4,363.3,476.5z"/>
	<path d="M374.7,473.1h0.4c0.2,0,0.5,0.1,0.6,0.2c0.2,0.2,0.3,0.4,0.3,0.7v20.8c0,0.3-0.1,0.5-0.3,0.7c-0.2,0.2-0.4,0.2-0.6,0.2
		h-0.4c-0.2,0-0.5-0.1-0.6-0.2c-0.2-0.2-0.3-0.4-0.3-0.7V474c0-0.3,0.1-0.5,0.3-0.7C374.3,473.2,374.5,473.1,374.7,473.1z
		 M382.4,473c2.3,0,4,0.6,5.2,1.8c1.2,1.2,1.8,2.9,1.8,5.2v14.9c0,0.6-0.3,0.9-0.9,0.9h-0.4c-0.6,0-0.9-0.3-0.9-0.9v-14.4
		c0-3.6-1.7-5.4-5-5.4c-1.7,0-3.2,0.7-4.4,2c-0.3,0.3-0.6,0.4-0.9,0.4c-0.5,0-0.8-0.3-0.9-0.9c0-0.2,0.1-0.5,0.2-0.7
		c0.6-0.9,1.5-1.6,2.5-2.1S381.1,473,382.4,473z"/>
	<path d="M398.2,474.9c1.5-1.3,3.4-2,5.7-2c2.3,0,4.2,0.7,5.6,2c1.4,1.3,2.1,3.1,2.1,5.5v18.7c0,2.6-0.7,4.5-2,5.9
		c-1.4,1.3-3.2,2-5.5,2c-2.3,0-4.1-0.6-5.5-1.9s-2.1-3.1-2.1-5.4c0-0.5,0.3-0.8,0.9-0.8h0.4c0.6,0,0.9,0.3,0.9,0.8
		c0.1,1.7,0.6,2.9,1.6,3.8c1,0.9,2.3,1.3,3.9,1.3c1.6,0,2.9-0.5,3.9-1.5s1.5-2.4,1.5-4.4v-5c-1.6,1.2-3.6,1.8-5.8,1.8
		c-2.2,0-4.1-0.6-5.5-2c-1.5-1.3-2.2-3.1-2.2-5.5v-7.9C396.1,478.1,396.8,476.3,398.2,474.9z M408,476.5c-1.1-0.9-2.4-1.4-4.1-1.4
		c-1.7,0-3,0.5-4.1,1.4c-1.1,0.9-1.6,2.3-1.6,4v7.8c0,1.7,0.6,3.1,1.7,4c1.1,0.9,2.4,1.4,4,1.4c1.5,0,2.8-0.2,3.8-0.7
		c1-0.5,1.6-1.1,1.9-1.7v-10.8C409.5,478.8,409,477.4,408,476.5z"/>
</g>
</svg>
