<?xml version="1.0" encoding="utf-8"?>
<!-- Generator: Adobe Illustrator 22.0.0, SVG Export Plug-In . SVG Version: 6.00 Build 0)  -->
<svg version="1.1" id="Layer_1" xmlns="http://www.w3.org/2000/svg" xmlns:xlink="http://www.w3.org/1999/xlink" x="0px" y="0px"
	 viewBox="0 0 792 224" style="enable-background:new 0 0 792 224;" xml:space="preserve">
<style type="text/css">
	.st0{fill:url(#SVGID_1_);}
	.st1{fill:url(#SVGID_2_);}
</style>
<linearGradient id="SVGID_1_" gradientUnits="userSpaceOnUse" x1="16.014" y1="118.9699" x2="204.827" y2="118.9699">
	<stop  offset="7.931549e-07" style="stop-color:#FFE1A0"/>
	<stop  offset="9.670901e-02" style="stop-color:#F2D394"/>
	<stop  offset="0.3122" style="stop-color:#DCB87F"/>
	<stop  offset="0.5326" style="stop-color:#CBA570"/>
	<stop  offset="0.7589" style="stop-color:#C19A67"/>
	<stop  offset="1" style="stop-color:#BE9664"/>
</linearGradient>
<path class="st0" d="M110.8,24.7c51.3,0.2,95.1,42.6,94,94.8c-1.1,51.7-41.9,93.8-95.2,93.8c-48.2,0-93.3-38.8-93.6-93.3
	C15.7,66.6,57.8,25.1,110.8,24.7z M27.8,88.4L27.8,88.4c0.8-2.8,1.6-5.7,2.3-8.6c-0.2,0-0.4,0-0.6-0.1c-12.4,24.5-13.8,49.6-3.2,75
	c9.6,23.1,26.7,38.6,50,47.5c-3.2-2.2-6.7-4.1-7.3-8.5c0,0.2-0.1,0.5-0.1,0.7c-1-2.3-3.3-4-3.1-6.8c0-0.4,0-0.8-0.2-1.2
	c-2-4.6-2.8-9.6-3.8-14.5c-0.2-1.1-1-2.3-1.8-3.1c-0.9-0.9-2.3-1.5-3.3-2.3c-1.3-1-2.8-2-3.6-3.3c-1.7-2.7-3-5.6-4.6-8.3
	c-0.6-1.1-1.2-2.2-2-3.1c-1.5-1.7-1.6-3.2-0.2-4.8c-1.5-1.6-1.4-3.5,0.5-6c0.9-1.1,1.8-2.3,2.3-3.6c0.4-1,0.3-2.2,0.1-3.3
	c-0.4-1.8-1.1-3.5-1.7-5.2c-0.2,0-0.5,0-0.7,0c-0.4,0.8-0.7,1.5-1.1,2.2c-1.1-0.9-2.7-1.6-3.3-2.8c-0.7-1.4-2.2-2.3-2.1-4.3
	c0.1-1.6-0.8-3.4-2.5-4.4c-1.7-1-2.9-2.4-3.4-4.3c-0.3-1.1-0.6-2.2-2.2-1.7c-0.3,0.1-0.9-0.3-1.1-0.7c-1-1.5-2.2-3-2.9-4.7
	c-0.6-1.4-0.8-3-0.8-4.5c0-2,0.4-4,0.7-5.9c0.5-3.8,0.9-7.6,1.4-11.4c0-0.4,0-0.7,0-1.6C28.7,86.5,28.2,87.4,27.8,88.4z M153.4,58
	c0.8-1.1,0-1.6-0.7-2.1c-0.9-0.6-1.5-1.3-1.4-2.4c0-0.3-0.1-0.6-0.3-0.8c-0.3-0.3-0.8-0.4-1.2-0.6c0,0.4-0.1,0.8,0,1.2
	c0.1,0.5,0.4,0.9,0.5,1.4C150.3,56.9,151.1,57.8,153.4,58c0.3,0.9,0.3,2.2,1,2.9c1.2,1.3,0.7,2.3,0,3.4c-1.7-1.3-3.4-2.5-4.8-3.6
	c-0.7,0.7-1.6,1.8-1.8,1.7c-1.4-0.9-2.9-1.9-4-3.2c-0.4-0.4-0.1-1.7,0.2-2.5c0.8-1.9,0.2-4.8-1.4-6c0.1-0.5,0.3-0.9,0.4-1.4
	c0.3-1.5,2.3-3,3.6-2.6c0.8,0.2,1.6,0.3,2.7,0.5c-0.2-0.5-0.3-0.6-0.4-0.7c-0.4-0.3-0.9-0.6-1.4-0.8c-11.3-6.1-23.2-10-36-10.9
	C98.8,33.9,86.7,35.6,75,40c-0.5,0.2-1.1,0.6-1.2,1c-0.1,1.3-0.8,1.7-2,1.6c-1-0.1-2-0.1-2.9,0.1c-0.6,0.2-1.3,0.8-1.6,1.4
	c-0.5,0.9-0.7,2-1.2,3.2c0.8,0.1,1.7,0.1,2.5,0.2c0.5,4.3,2.8,0.2,4.4,0.9c-0.6,0.6-1.1,1-1.5,1.4c0.1,0.1,0.2,0.3,0.3,0.4
	c0.6-0.5,1.3-1,1.7-1.6c0.6-1,4.6-3.5,5.7-3.3c0.2,0,0.4,0.3,1,0.7c-2.8,0.5-5.3,1-4.7,4.5c-0.3,0.3-0.6,0.7-1,1
	c0.1,0.1,0.2,0.1,0.2,0.2c1-0.6,2.1-1.2,3.2-1.8c-0.4-0.5-0.7-0.9-0.9-1.2c1-1.6,2.4-2.5,4.2-2.3c0.8,0.1,1.5,0.9,2.3,1.4
	c2.1,0.1,2.5,2.5,4,3.5c0.2,0.1-0.3,1.2-0.5,2c0.3,0.2,0.8,0.5,1.2,0.9c0.5,0.4,0.9,0.8,1.4,1.3c-2.5,1.9-2.5,1.9-4.3-0.2
	c-0.1,0.5-0.4,1-0.3,1.1c1.3,1.2,1,2.2-0.3,3.1c-0.4-0.2-0.7-0.4-1.1-0.6c-0.1,0.5-0.1,0.8-0.2,1.3c-0.7-0.3-1.3-0.5-1.8-0.9
	c-1.5-1.2-2.9-2.4-4.6-3.9c0.7,0,1.4,0.1,2-0.1c1.2-0.4,2.4-1,3.6-1.6c0.1-0.1,0.2-0.6,0.1-0.8c-0.3-0.8-0.8-1.6-1.2-2.4
	c-0.8,0.1-1.7-0.1-2.3,0.3c-0.8,0.4-1.2,1.4-1.9,2c-0.4,0.3-1,0.5-1.5,0.5c-0.7,0.1-1.5-0.2-2.2,0c-3.2,1.1-6.4,2.4-9.5,3.7
	c-0.7,0.3-1.3,1.1-1.6,1.7c-0.3,0.7-0.3,1.5-0.4,2.2c1.2,1.5,2.6,3,4,4.7c-0.8,1.2-2.1,2.6-0.5,4.8c0.6-0.8,1.1-1.4,1.5-2.2
	c0.6-1.1,0.8-2.3,2.5-2.5c1.7-0.2,2.9-1.2,2.5-3.3c-0.1-0.3,0.4-0.7,0.6-1.1c0.4-0.5,0.8-1,1.1-1.5c0.7-1.3,1.4-2.4,3.1-1.4
	c1.1,0.7,2.1,1.5,3.2,2.3c-0.2,0.1-0.4,0.2-0.6,0.3c0.1,0.8-0.2,2,0.3,2.4c1.7,1.3,2.5-1.1,3.9-1.3c0.4,1.6,0.7,3.2,1.1,4.7
	c0.2,0.7,0.6,1.3,1.1,1.9c0.7,0.8,1.7,1.4,2.1,2.3c0.2,0.5-0.2,1.9-0.6,2c-2.6,0.7-5.1,2.3-8,1.2c-2.3-0.9-4.3,0.1-6.2,1.5
	c1.6-0.1,3.1-0.2,4.5-0.3c0,0.2,0.1,0.5,0.1,0.7c-0.6,0.2-1.3,0.4-1.9,0.6c0.5,1,0.7,2.2,1.4,2.9c1.2,1.1,2.3,0,3.4-1
	c0.2,0.5,0.4,0.9,0.6,1.5c-2.6,0.8-5.1,1.6-7.7,2.4c0-2,1.7-1.6,2.8-2.3c-0.5-0.1-0.8-0.2-1-0.2c-1.5,0.4-2.9,0.9-4.4,1.2
	c-2.3,0.5-2.9,0.9-3.2,3.2c-3.9-0.8-5.5,2.8-7.7,4.3c-0.4,1-0.5,2-1.1,2.6c-0.8,0.8-1.9,1.2-2.9,1.7c-3.2,1.6-5.4,2.2-5,6.7
	c0.1,0.8,0,1.7-0.1,2.5c-0.2,1-0.7,2-1,3c-0.3,0-0.6-0.1-0.8-0.1c-0.2-2.7-0.3-5.3-0.5-7.6c-1.8-0.9-3.2-1.6-4.7-2.4
	c-0.9,1.5-1.5,1.8-2.2,1.1c-2-1.8-4.1-1.4-5.6,1c-2.3,3.5-3,7.3-2.8,11.3c0,0.8,0.7,2.1,1.4,2.4c1,0.3,2.3,0.3,3.1-1.2
	c1.1-2.3,2-2.4,4.3-1.2c-1.1,2.5-2.3,5-3.5,7.7c0.8,0.2,1.6,0.5,2.3,0.6c2.5,0.4,3.2,1.6,2.5,3.9c-0.8,2.5-1.3,4.9,0.6,7.2
	c0.7,0.8,1.2,1.1,2.2,0.7c0.6-0.2,1.5-0.1,2,0.3c0.7,0.4,1.1,1.2,1.8,2c1.3-3.4,4.2-4.1,7.2-4.7c-0.1,0.4-0.5,0.6-0.5,0.8
	c0,0.4,0.3,0.7,0.5,1c0.6-0.3,1.1-0.6,1.8-1c1.4,0.6,2,3.1,4.4,2.6c0.2,0,0.5,0.4,0.8,0.6c0.4,0.2,1,0.5,1.3,0.3
	c1.5-0.8,2.5-0.7,3.7,0.8c1.1,1.4,2.8,2.4,4.2,3.7c0.3,0.2,0.5,0.5,0.6,0.8c1.1,1.7,2.3,2.8,4.6,2.7c2.6-0.1,4.5,1.4,6.1,3.2
	c1.1,1.2,1.6,3,2.4,4.6c0,0,0,0.1,0,0.2c-0.8,1.5,0.4,1.6,1.3,2.1c0.5,0.2,0.7,0.9,1.1,1.4c0.3-0.1,0.9-0.7,1.3-0.6
	c1.5,0.4,2.9,0.9,4.3,1.6c0.5,0.2,0.7,1.2,1.2,1.3c1.7,0.3,3.4,0.4,5,0.7c1.3,0.3,2.6,0.6,3.7,1.3c1.5,0.9,2.8,2.2,4.8,2
	c0.3,0,0.8,0.3,1,0.6c1.2,1.9,0.9,4-0.8,5.6c-1.5,1.4-3.1,2.8-4.6,4.3c-0.3,0.3-0.3,1-0.4,1.6c-0.2,1.1-0.2,2.2-0.4,3.2
	c-0.2,0.9-0.7,1.7-0.8,2.5c-0.3,2.3-2.3,4.4-4.5,4.7c-1.6,0.2-3.1,0.4-4.6,0.9c-1.3,0.4-3.4,0.7-3.1,2.4c0.4,2.2-0.9,3.2-1.9,4.4
	c-1.9,2.3-4,4.7-7.6,3.2c-0.1,0-0.2,0.1-0.3,0.1c0.6,0.7,1.1,1.4,1.7,2.1c-1.5,1.8-3.4,1.1-5.1,1c0.1,0.5,0.1,1.1,0.2,1.7
	c-0.9-0.1-1.5-0.2-2.2-0.4c-0.1,0.1-0.1,0.2-0.2,0.3c0.5,0.4,0.9,0.7,1.4,1.1c-0.3,0.7-0.7,1.5-1.2,2.5c0.6,0.3,1.4,0.7,1.9,1
	c-0.2,1.4-0.3,2.7-0.4,3.5c1.5,0.3,2.9,0.5,4.2,0.7c0,0.1,0,0.2-0.1,0.4c-0.3,0.1-0.6,0.2-1.1,0.3c0.2,0.2,0.3,0.3,0.4,0.3
	c0.5,0.1,0.9,0.3,1.4,0.4c12.1,3.3,24.3,3.9,36.6,1.8c20.7-3.5,38.1-13.3,51.4-29.6c1.6-1.9,2.2-5,2.3-7.6c0.1-2.7,0.1-5.1,1.3-7.6
	c1.2-2.3,2.9-4.3,2.6-7.4c-0.2-2.9-0.3-5.6-2-8.1c-0.6-0.9-1-2.3-1-3.4c0-1.5,0.6-3,0.8-4.5c0.3-2.2-0.9-3.2-3-2.3
	c-1.2,0.5-1.8,0.3-2.3-0.9c-0.3-0.6-1.3-1.3-1.8-1.2c-1.2,0.2-2.3,0.9-3.4,1.4c-1.5,0.7-3,2-4.5,2.1c-2,0.1-3.8,0.4-5.5,1.4
	c-0.7,0.4-2.1,0.6-2.6,0.2c-2.3-2-6.2-2.1-7-5.9c-0.1-0.4-0.6-0.7-1-1c-1.1-0.9-2.3-1.8-3.4-2.8c-0.4-0.4-0.6-1-0.7-1.5
	c-0.2-0.6-0.3-1.3-0.4-1.9c-0.1-0.4-0.2-0.8-0.1-1.1c0.3-1.4,1-2.7,0.9-4.1c-0.1-1.5-0.5-3.1-1.3-4.4c-0.5-0.8-0.6-1.3-0.3-2.2
	c0.8-1.9,1.3-3.9,2.3-5.6c0.8-1.4,1.2-3,2.9-4c1.5-0.8,3-2.1,1.9-4.3c-0.2-0.4-0.1-1,0.2-1.4c1.1-2,2.2-3.9,3.4-5.9
	c1.8,0.4,3.5,0.7,5.3-0.9c1.4-1.2,3.3-2,5-2.8c1.5-0.6,3.2-1,5-1.5c1.4,0.7,2,2.1,1.7,4.2c3.3,0.9,6.6,1.8,10.4,2.8
	c-0.2-1-0.5-1.7-0.5-2.3c0-0.6,0.1-1.3,0.4-1.8c0.2-0.3,0.9-0.2,1.4-0.2c1.4,0.1,2.8,0.3,4.2,0.3c0.9,0,2.1-1.4,1.7-2.3
	c-0.7-1.8-1.5-3.6-2.4-5.3c-0.2-0.3-1.3-0.6-1.4-0.5c-1,1.7-1.9,0.6-2.7-0.1c-1-0.9-1.7-2.1-2.6-3.1c-0.2-0.3-0.7-0.6-1-0.5
	c-0.3,0.1-0.7,0.5-0.9,0.8c-0.2,0.3-0.3,0.7-0.5,1.1c0.8,0.6,1.6,1.2,2.4,1.8c-0.1,0.8-0.1,1.5-0.2,2.3c-0.3,0-0.5,0.1-0.5,0
	c-1.7-1.7-3.3-3.5-5-5.2c-0.3-0.3-0.6-0.6-1-0.7c-2.3-0.9-4.7-1.8-7-2.7c0.2,0.8,0.6,1.6,1.2,2c2.1,1.2,4.2,2.2,6.1,3.2
	c0,0.5-0.2,0.9-0.1,1.3c0.2,0.7,0.5,1.3,0.6,1.7c-1-0.8-1.9-1.8-3-2.4c-1.5-0.8-3.1-1.3-4.6-2.1c-0.9-0.4-1.7-1.2-2.6-1.8
	c-0.9,1.5-1.6,2.9-3.5,2.5c-0.2,0-0.9,1-0.8,1.2c0.7,1.1-0.1,1.5-0.6,2.3c-0.5,0.8-1,2-0.8,2.9c0.3,1.5-0.4,3.4-1.8,3.9
	c-1,0.3-2,0.8-3.2,1.3c-0.6-1.7-2.2-0.7-3.4-0.8c-0.6-1-1.3-1.8-1.5-2.8c-0.5-1.7-0.6-3.5-1-5.6c0.2-0.1,0.9-0.4,1.7-0.5
	c1.5-0.2,3-0.3,4.6-0.4c1-0.1,1.2-0.5,1-1.4c-0.5-2.2-1.9-3.6-4.1-4.1c-0.5-0.1-1-0.4-1.3-0.5c-0.1-1.8,3,0.4,2.3-1.8
	c0.6-0.4,1.3-0.6,1.7-1c0.6-0.9,1.4-2,1.5-3.1c0.1-1.6,0.9-2.5,2.3-3c-2.4-3.7-2.4-3.7-1.8-4.4c0.1,0,0.1,0.1,0.2,0.1
	c1.5,1,1.5,4.6,4.7,2.7c0,0,0.1,0.1,0.1,0.1c0.5-0.1,1-0.2,1.5-0.5c0.7-0.3,1.3-0.8,2.2-1.4c-0.5-0.9-1.2-2.1-1.9-3.4
	c0.7,0.1,1.1,0.1,1.5,0.2c0.1-0.1,0.1-0.2,0.2-0.3c-0.8-0.6-1.6-1.3-2.4-1.9c0.7-0.6,1.3-1.2,1.8-1.7c-0.1-0.2-0.3-0.3-0.4-0.5
	c-0.5,0.3-0.9,0.6-1.4,0.8C155.5,57.1,154.4,57.5,153.4,58z M172.3,70.1c0.6,2,1.1,3.9,1.9,5.6c0.3,0.6,1.5,0.8,2.2,1.2
	c0.4-0.8,1.1-1.5,1.1-2.3C177.4,73.1,174.2,70.2,172.3,70.1z"/>
<linearGradient id="SVGID_2_" gradientUnits="userSpaceOnUse" x1="226.2036" y1="118.6474" x2="777" y2="118.6474">
	<stop  offset="9.914436e-07" style="stop-color:#FFE1A0"/>
	<stop  offset="9.670919e-02" style="stop-color:#F2D394"/>
	<stop  offset="0.3122" style="stop-color:#DCB87F"/>
	<stop  offset="0.5326" style="stop-color:#CBA570"/>
	<stop  offset="0.7589" style="stop-color:#C19A67"/>
	<stop  offset="1" style="stop-color:#BE9664"/>
</linearGradient>
<path class="st1" d="M573,77.9c3,1.7,5.9,2.9,8.3,4.7c4.8,3.5,7.2,8.3,7,14.3c-0.2,7,0,14-0.5,20.9c-0.6,8.2-5.3,13.8-13,16.9
	c-8.8,3.5-18,4-27.2,4.1c-11.2,0.1-22.4,0.1-33.6,0.1c-5.9,0-7.6-1.7-7.6-7.5c0-33.2,0-66.4,0-99.7c0-5.7,1.7-7.4,7.3-7.4
	c15.9,0.2,31.9,0.5,47.8,0.8c1.7,0,3.4,0.5,5.1,0.8c11.3,2.4,16.5,8.4,17.1,19.9c0.3,5.9,0.3,11.9,0,17.8
	C583.3,70.6,578.9,74.9,573,77.9z M530.8,103.8c0,3.2,0,6.3,0,9.5c0,2.8,1.3,5.4,4.1,5.4c7.8,0,15.7-0.3,23.5-1.2
	c3.5-0.4,5.4-3.6,5.5-7.3c0.1-3.9,0.2-7.9,0-11.8c-0.3-5.7-2.7-8.7-8.3-9.1c-6.5-0.6-13.1-0.6-19.7-0.4c-3.2,0.1-5,2.2-5,5.5
	C530.7,97.5,530.7,100.7,530.8,103.8z M530.8,57.5c0,2.6-0.1,5.3,0,7.9c0.1,3.3,2,5.3,5.2,5.4c5.9,0.1,11.9-0.1,17.8-0.6
	c3.8-0.3,6-2.7,6.3-6.5c0.3-3.8,0.5-7.6,0.3-11.4c-0.4-5.8-2.3-7.7-8.2-8c-5.3-0.3-10.5-0.2-15.8-0.2c-3.5,0-5.3,2-5.5,5.4
	C530.7,52.2,530.8,54.8,530.8,57.5z M404.7,82.1c0-10.3-0.8-20.6,0.2-30.8c1-10,7-17.6,16.5-21.5c18.9-7.8,38-7.6,57-0.3
	c10.8,4.2,17.2,12.7,17.6,24.1c0.6,18.9,0.6,37.9,0,56.9c-0.3,10.7-6.5,18.3-16.3,22.3c-19.7,8.1-39.6,8-59.3,0.2
	c-11.1-4.4-16-13.7-16.3-25.3c-0.2-8.6,0-17.1,0-25.7C404.3,82.1,404.5,82.1,404.7,82.1z M472.9,82.3c0-8,0-16.1,0-24.1
	c-0.1-7.1-2.8-11-9.4-12.9c-8.9-2.6-18-2.5-26.9,0.1c-6,1.7-8.7,5.4-8.8,11.6c-0.1,16.7-0.1,33.5,0,50.2c0,5.8,2.6,9,8.3,10.6
	c9.1,2.5,18.3,2.4,27.4,0.4c6.9-1.6,9.4-5.1,9.5-12.1C472.9,98.1,472.9,90.2,472.9,82.3z M226.3,83.5c0,2.5,0,5,0,7.5
	c0.2,7.4-0.3,14.8,0.7,22.1c1.8,13.2,10.9,19.9,23.1,22.9c20.5,5,40.8,3,60.8-2.8c3.4-1,4.5-3.3,4.5-6.5c0-15.4,0-30.8,0-46.3
	c0-4.7-1.8-6.4-6.5-6.4c-7.1-0.1-14.2,0-21.4,0c-10.2,0-11,0.8-10.7,11c0,0.3,0,0.5,0,0.8c0.3,3.9,2.1,5.6,6,5.9c1.3,0.1,2.6,0,4,0
	c4.2,0.1,5.8,1.5,5.9,5.7c0.1,5-0.1,10,0,15c0.1,3.5-1.6,5.4-4.9,6.1c-8.9,1.7-17.8,1.7-26.6-0.6c-8.5-2.2-11.3-6-11.3-14.7
	c0-13.8,0-27.7,0-41.5c0-9.4,3.7-14.8,13.1-16.5c7.4-1.3,15.2-1.4,22.8-1.1c7.2,0.3,14.4,1.7,21.5,2.6c5.2,0.7,7.4-0.9,7.5-5.9
	c0.1-2.2,0-4.5,0-6.7c0-4.8-1.3-6.7-6-7.1c-13.1-1-26.3-2.1-39.4-2.4c-9-0.2-17.7,2.1-25.9,6.2c-10.1,5.1-15.9,13.5-16.7,24.7
	c-0.6,9.3-0.1,18.7-0.1,28C226.5,83.5,226.4,83.5,226.3,83.5z M644.3,24.4c3.3,0,6.6,0.2,9.9-0.1c3.6-0.3,5.2,1.4,6.2,4.6
	c9.5,30.4,19.1,60.8,28.7,91.2c1.4,4.5,2.9,9,4.3,13.6c1.1,3.5,0,5.1-3.6,5.2c-5.3,0.1-10.5,0-15.8,0.1c-2.7,0-4-1.4-4.6-3.9
	c-2.1-7.3-4.4-14.6-6.4-22c-0.8-3-2.3-4.4-5.5-4.4c-9.4,0.1-18.7,0.1-28.1,0c-2.9,0-4.5,1-5.3,4c-2,7.5-4.4,14.9-6.5,22.4
	c-0.8,2.8-2.3,3.9-5.1,3.9c-4.5-0.1-9,0-13.5,0c-5.1,0-6.2-1.5-4.6-6.3c7.7-23.8,15.4-47.6,23.2-71.4c3.5-10.9,7.1-21.8,10.5-32.7
	c0.9-3,2.5-4.4,5.7-4.2C637.2,24.6,640.7,24.4,644.3,24.4z M643.7,48c-0.2,0-0.5,0-0.7,0c-3.8,12.8-7.6,25.6-11.2,38.5
	c-0.7,2.4,0.9,3.7,3.3,3.7c3.7,0,7.4,0,11.1,0c10.1,0,10.1,0,7.2-9.8C650,69.6,646.9,58.8,643.7,48z M325.1,81.2c0,16.5,0,33,0,49.4
	c0,7.1,1,8.1,8.3,8.1c13.4,0,26.9,0,40.3,0c6.3,0,12.7,0.1,19,0c4.4-0.1,5.8-1.6,5.9-6c0-1.6,0-3.2,0-4.7c0-8.2-0.6-8.9-8.7-8.9
	c-10.8,0-21.6,0-32.4,0c-7.2,0-8.1-0.9-8-7.8c0-26.6,0-53.3,0-79.9c0-5.5-1.5-6.9-7.1-7c-3.2,0-6.3,0-9.5,0c-6.6,0-7.9,1.3-7.9,7.8
	C325,48.5,325,64.8,325.1,81.2C325,81.2,325.1,81.2,325.1,81.2z M703.7,81.6c0,16.9,0,33.7,0,50.6c0,5.8,0.8,6.6,6.7,6.6
	c16.1,0,32.1,0,48.2,0c4.5,0,9,0,13.4,0c3.4,0,5.1-1.6,5-5.1c-0.1-2.8,0-5.5,0-8.3c0-5.4-0.8-6.2-6.2-6.2c-12,0-24,0-36,0
	c-6.2,0-7-0.8-7-7.1c0-27.1,0-54.3,0-81.4c0-4.9-1.1-6.1-5.9-6.1c-4,0-7.9,0-11.9,0c-5.4,0-6.4,1-6.4,6.5
	C703.6,47.9,703.6,64.7,703.7,81.6C703.7,81.6,703.7,81.6,703.7,81.6z M296.9,193.2c-6.2-8.4-12.3-16.8-18.5-25.2
	c-0.7-1-1.8-2.3-2.9-2.4c-3.5-0.3-7-0.1-10.5-0.1c0,16,0,31.4,0,46.9c3.5,0,6.6,0,10.2,0c0-10.4,0-20.5,0-31.7c1.5,2,2.3,3,3.1,4
	c6.1,8.4,12.1,16.9,18.3,25.3c0.8,1.1,2.1,2.4,3.2,2.5c3.3,0.3,6.7,0.1,10.3,0.1c0.1-1.7,0.3-2.9,0.3-4c0-13-0.1-26.1,0.1-39.1
	c0-3.1-0.9-4.4-4-4c-0.8,0.1-1.6,0.1-2.4,0c-3.4-0.5-4.6,0.7-4.5,4.3c0.3,8.6,0.1,17.1,0.1,26.9
	C298.4,195.1,297.6,194.2,296.9,193.2z M733.6,165c11.3,0.6,22.2,0.7,33,1.9c7.4,0.8,10.3,5,10.4,12.5c0.1,6.7,0.1,13.4,0,20.1
	c-0.1,6.9-2.7,10.8-9.4,11.6c-11.2,1.2-22.4,1.4-34,2.1C733.6,196.9,733.6,181.5,733.6,165z M745.4,204.6c5.4-0.3,10.7-0.4,15.9-0.8
	c2.6-0.2,3.9-2,3.9-4.6c0-6.4,0-12.9,0-19.3c0-2.7-1.2-4.8-4-5.1c-5.2-0.6-10.5-0.8-15.8-1.1C745.4,184.4,745.4,194.2,745.4,204.6z
	 M271.4,152.1c154.6,2.6,309.2,2.6,464,0C580.8,149.5,426.1,149.5,271.4,152.1z M473.9,212.6c-4.2,0-7.8,0-11.6,0
	c0-15.5,0-30.8,0-46.6c1.5-0.1,3-0.3,4.5-0.3c7.8,0.1,15.6-0.1,23.3,0.4c3,0.2,6.4,1,8.9,2.7c6.3,4.2,4.4,20.1-2.5,23.2
	c-1.4,0.6-2.9,1-4.8,1.7c2.4,3.3,4.6,6.4,6.8,9.4c2.1,2.9,4.2,5.9,6.9,9.6c-4.7,0-8.4,0.2-12.2-0.1c-1-0.1-2.2-1.2-2.9-2.2
	c-3-4.2-5.9-8.4-8.8-12.7c-2.5-3.6-2.5-3.6-7.5-3C473.9,200.5,473.9,206.4,473.9,212.6z M474,186.5c4.4,0,8.4,0.2,12.4,0
	c4-0.2,4.2-3.2,4.2-6.3c0-2.9-0.2-5.8-4-6c-4.1-0.2-8.3-0.1-12.7-0.1C474,178.3,474,182.2,474,186.5z M647.1,189.4
	c0,3.3,0,6.6,0,9.9c0,4.9-2.2,8.5-6.6,10.3c-10.4,4.4-21,4.3-31.5,0.2c-4.1-1.6-6.5-4.9-6.6-9.5c-0.1-7.2-0.2-14.5,0-21.7
	c0.1-5.5,3.3-9.1,8.3-10.9c9.2-3.2,18.6-3.3,27.9-0.1c5.9,2,8.5,6,8.6,12.3C647.1,183.1,647.1,186.3,647.1,189.4z M613.8,189.3
	c0,3,0.1,6.1,0,9.1c-0.1,3.4,1.5,5.4,4.7,5.6c4.2,0.3,8.4,0.2,12.5,0c3.1-0.2,4.7-2.2,4.7-5.3c0-6.2,0-12.4,0-18.5
	c0-3.6-1.9-5.8-5.4-6.1c-3.8-0.3-7.6-0.3-11.3,0c-3.5,0.3-5.4,2.4-5.2,6.1C613.9,183.2,613.8,186.3,613.8,189.3z M560.3,165.6
	c-3.4-0.1-6.9-0.1-10.3,0.4c-12.2,1.8-17.3,6.6-16.6,18.1c0.3,4.7,0,9.5,0.1,14.2c0.1,7,2.9,10.8,9.6,12.6
	c10.5,2.8,20.9,1.9,31.3-0.7c0.8-0.2,2.1-1.2,2.1-1.8c0.1-7.5,0.1-14.9,0.1-22.4c-6.4,0-12.3,0-18.4,0c0,2.4,0,4.5,0,6.9
	c2.5,0.2,4.8,0.3,7.2,0.4c0,3.6,0,6.8,0,11.2c-5.4-0.3-10.6-0.4-15.7-1c-3.1-0.4-4.7-2.5-4.6-5.9c0.1-5,0-10,0-15
	c0-6,1.7-8.1,7.6-8.8c2.5-0.3,5-0.4,7.5-0.3c5.2,0.3,10.4,0.9,16,1.4c0-2.6,0-5.1,0-8.3C570.5,166.4,565.4,165.8,560.3,165.6z
	 M434.5,173.9c0-2.9,0-5.3,0-8c-12.3,0-24.4,0-36.5,0c0,15.7,0,31.1,0,46.6c12.5,0,24.8,0,37.2,0c0-2.7,0-5.1,0-8
	c-8.6,0-16.9,0-25.4,0c0-4.1,0-7.8,0-11.9c7.5,0,14.8,0,22.2,0c0-3,0-5.4,0-8.4c-7.6,0-14.9,0-22.2,0c0-3.6,0-6.7,0-10.3
	C418.1,173.9,426.2,173.9,434.5,173.9z M333.5,166c0,2.7,0,5.1,0,8c4.9,0,9.5,0,14.8,0c0,13.2,0,25.9,0,38.4c4.2,0,7.8,0,11.8,0
	c0-12.9,0-25.5,0-38.6c5,0,9.7,0,14.6,0c0-2.8,0-5.1,0-7.9C360.8,166,347.3,166,333.5,166z M703.2,212.7c6.7,0,6.7,0,6.3-6.6
	c0-0.4-0.2-0.7-0.4-1.6c-7.6,0-15.3,0-23.4,0c0-13.1,0-25.7,0-38.5c-4.1,0-7.8,0-11.7,0c0,15.6,0,30.9,0,46.8
	C684,212.7,693.6,212.7,703.2,212.7z M237.9,212.4c0-15.6,0-31,0-46.9c-2.8,0-5.4,0.2-8,0c-3.1-0.3-3.8,1-3.7,3.9
	c0.1,13.2,0.1,26.4,0.1,39.5c0,1.1,0.2,2.3,0.3,3.5C230.5,212.4,234.1,212.4,237.9,212.4z"/>
</svg>
