<?xml version="1.0" encoding="utf-8"?>
<!-- Generator: Adobe Illustrator 22.0.0, SVG Export Plug-In . SVG Version: 6.00 Build 0)  -->
<svg version="1.1" id="Layer_1" xmlns="http://www.w3.org/2000/svg" xmlns:xlink="http://www.w3.org/1999/xlink" x="0px" y="0px"
	 viewBox="0 0 1920 1080" style="enable-background:new 0 0 1920 1080;" xml:space="preserve">
<style type="text/css">
	.st0{fill:#001449;}
	.st1{fill:#002A64;}
</style>
<rect class="st0" width="1920" height="1080.1"/>
<g id="Jorge_Canelon_1_">
</g>
<g>
	<path class="st1" d="M1137.2,1085.1c3.4-2.6,6.8-5.4,10.2-8.8c13.4-13.1,23-22.4,29.5-29.7c-0.1-1.5,0.1-3.5,0.5-6.2
		c5.9-31.1-33-43.7-45.6-8.7c-12.5,35-50.4,41.7-50.4,41.7c20.4-14.5,0-35.8,0-35.8c-4.8,24.2-80.5,30-80.5,30
		c59.2-24.3,30-88.3,5.8-59.2c-24.2,29.2-52.4,22.4-52.4,22.4s37.9-20.4,13.6-42.7c-24.2-22.3-33.9-109.6-6.8-120.2
		c27.2-10.7,10.7-33.9,5.9-33.9c-4.8,0-5.9,9.7-5.9,9.7c-18.4-18.4-17.5-64-17.5-64c6.8,25.2,51.4,79.6,167.9,64
		c29-3.8,48.4-14.1,60.9-27.9c-23.2-17.8-59.2-22.6-77.4-22.6c-26.2,0-34-3.9-47.6-18.4c-13.5-14.4-42.6-33-61.1-33
		c-18.4,0-38.8-16.4-38.8-16.4s28.1,0,50.5,0c22.2,0,38.8,2.9,50.4,17.5c11.6,14.5,37.8,22.2,78.5,22.2c27.1,0,43.9,6,52.1,10.1
		c-22.3-22.8-64.1-28.5-84-28.5c-26.2,0-34-3.8-47.6-18.4c-13.5-14.6-42.6-33-61.1-33c-18.4,0-38.8-16.5-38.8-16.5s28.1,0,50.5,0
		c22.2,0,38.8,2.9,50.4,17.4c11.6,14.6,37.8,22.3,78.5,22.3c27.6,0,44.4,6.2,52.5,10.2l-0.1-1.9c-22.3-22.9-64.2-28.7-84.3-28.7
		c-26.2,0-34-4-47.6-18.5c-13.5-14.5-42.6-32.9-61.1-32.9c-18.4,0-38.8-16.4-38.8-16.4s28.1,0,50.5,0c22.2,0,38.8,2.9,50.4,17.4
		c11.6,14.5,37.8,22.3,78.5,22.3c14.3,0,25.5,1.6,34.3,3.8c-30.6-22.4-108.1-41.6-154.5-64c-52.4-25.2-59.2-46.5-78.6-83.4
		c-19.4-36.9-7.8-159.1,107.7-158.1c115.4,0.9,109.6,126.1,125.1,153.2c15.5,27.1,29.1-5.9,29.1-5.9c13.5,27.2-20.4,50.4-31.1,37
		c-10.6-13.7-47.5-24.3-49.5,6.7c-1.9,31,46.7,20.4,46.7,20.4c-19.5,21.3-63.2,26.1-74.8-7.8c-11.6-34,22.3-53.3,22.3-53.3
		s-24.3-21.3-49.5,8.8c-25.2,30,5.9,56.2,5.9,56.2c-19.4-4.8-51.5-19.4-42.7-50.4c6.8-24.3,30.3-35.5,40.2-39.2
		c-10.6,3.1-37.6,8.8-49.9-11.2c-15.5-25.2,10.6-47.6,10.6-47.6c-15.5,22.4,11.6,37.9,31.1,30.1c19.4-7.8,30.1-65-24.2-65
		c-54.3,0-66.9,67-61.1,119.3c5.8,52.4,112.6,82.5,180.4,111.6c67.9,29.1,99,83.4,75.7,174.6c-4.7,18.4-13.7,32.4-25.3,43.3
		c1.1,9.8,1.1,13-1.3,1.2c-46.4,41.6-134,33.2-173.2,33.2c-49.4,0-35.9,66.8-2.9,84.3c27.9,14.8,99.5,5.4,120.9,1.9
		c8.8-17.9,26.4-51.7,41-65c20.4-18.4,27.2-41.7,27.2-41.7s13,14.5,13.1,33.5c30.3-31.8,69.6-82.3,67.4-127.8c0,0,16-14.6,2.9-20.4
		c-13.1-5.9-42.2,2.9-32,34.2c0,0-27-56-15.3-110.6c0,0,19.7-3,12.4-20.4c-7.3-17.5-30.5-10.3-30.5,0c0,0-21.2-22.6,2.9-52.4
		c5.4-6.8,10.5-11.5,15.2-14.8v-0.4c-6.3-6.8-16.2-1.5-20.7,5.6c-5-12.4,10.2-16.9,12.3-21.5c-6,1.9-10.2,3-11.1,3.4
		c-0.1,0.1-0.1,0.1-0.2,0.1c-0.2,0-0.2,0,0.2-0.1c5.7-2.4,10-75.5-0.2-71.2c-10.2,4.3-20.4-1.5-20.4-1.5c8.8,0,13.2-21.9,13.2-21.9
		c-30.6,20.4-48.1-7.2-48.1-7.2s7.3,11.6,27.6-27.7c20.4-39.3,45.1-48,45.1-48c-10.2-20.4,3-56.8,3-56.8
		c4.3,29.2,55.3,33.5,81.5,33.5c26.1,0,30.6,4.4,53.8,29c23.3,24.8,65.5,13.1,65.5,13.1c10.2,52.5-20.4,78.6-20.4,78.6l-7.1,12.6
		c3.9,1,7.8,2.1,11.5,3.5c43.6,15.9,84.4,23.2,81.4,1.4c-2.9-21.8-7.3-48,16-69.8c23.3-21.7,37.9-8.7,37.9-8.7s-33.5,2.9-13.1,39.3
		c20.3,36.3-7.3,85.8-48,83c-22-1.6-49.8-18.9-81.5-29.2c0,9.4,0,23.5,0,29.2c0,8.7,16,0,20.3,24.7c3,16.6,13.1,31.2,21.2,38.9
		l2.1,0.3c14.6,10.1,61.1,21.2,70.6,1.5c9.5-19.6,10.9-52.4,10.9-52.4s10.2,11.7,8.8,29.2c0,0,21.9-54.6,43.7-85.9
		c21.8-31.2,32.7-26.8,10.9-55.9c-21.9-29.2-10.9-87.3,23.3-98.2c0,0-20.3,44.4-2.9,46.5c17.4,2.2,8.7-7.9,38.5-27
		c29.9-18.9,68.4,16.1,68.4,16.1s-44.4-13.9-50.9,13.1c-6.6,26.9,29.1,24,41.5,14.6c12.4-9.5,37.1,7.3,40,29.8
		c0,0-22.6-23.2-39.3,0.7c-16.7,24.1,33.5,21.9,44.4,48.9c10.9,26.9-5.8,38.6-5.8,38.6s7.2-24.8-18.9-27.7
		c-26.2-2.9-40,33.5-16.7,42.2c0,0-27.7,18.9-8.7,31.2c18.8,12.5,12.3,45.1-2.2,56.1c0,0,8.7-25.5-10.9-26.3
		c-19.6-0.7-41.4,24.1-27.6,48.8c0,0-38.3,22.4-16,42.6c0,0-17.7,13.3-38.4,7c-3.2,4.3-8,10.7-13.1,17.7
		c-0.6,10.7,1.2,21.9,10.7,24.9c0,0,4.8,15.9-31.4,10.8c-0.3,0.8-0.5,1.7-0.7,2.5c0,0.4-0.2,1-0.4,1.6c5.6,16.2,17.7,44.7,34.4,46.2
		c0,0-5.8,13.5-18.4,9.7c0,0,69.9,114.4,83.4,123.1c13.6,8.7,28.2,5.9,29-17.4c1-23.2,32-39.7,73.8-20.4c0,0-35.9,33,11.6,58.1
		c47.6,25.2,3.9,71.8-0.9,78.6c1.9-2.6,4.9-6.8,4.9-6.8s-1.9-51.4-29.1-40.7c-27.2,10.6,8.8,65-60.2,76.6c0,0,44.7-28.1,10.7-45.6
		c-33.9-17.5-51.4,29.2-51.4,29.2s-5.8-72.8-51.4-66c-45.6,6.8-28.1,28.1-28.1,28.1s-55.3-57.1-52.4-104.7c0,0-23.3,0-16.5,29.1
		c0,0-42.1-17.2-39.8-68.4c-9.7,8.2-18.9,14.8-26.4,19.2c-34.1,19.8-38.1,16.9-65.9,27.8c46.7,4.1,172.6,27.5,111.5,162.2H1137.2z
		 M1804.7,1045.7C1803.1,1048,1803.6,1047.3,1804.7,1045.7L1804.7,1045.7z M1351.1,519.6c-1.8,0.6-3.6,1.1-5.4,1.7
		c0.7,1.7,1.4,3.3,2,4.7C1349.3,523.8,1350.3,521.5,1351.1,519.6z M1358.4,488.5c0-23.2-17.4-20.4-21.8-7.2
		c-1.6,4.7-0.1,12.9,2.4,21.4c5.7-0.8,12.3-1.6,19.4-2C1358.4,497.6,1358.4,493.7,1358.4,488.5z M1410.8,502.8c0-1.9,0-4.2,0-6.9
		c0-18.9-35-10.2-35-10.2c-2.4,6.2-4.6,10.8-6.6,14.4C1382.5,499.6,1397.1,500.3,1410.8,502.8z M1374.4,530.8
		c0,15.8,25.5,8.9,27.6-12.4c-12-2.4-24.3-3.4-37-1.7C1369.8,519.2,1374.4,523.4,1374.4,530.8z"/>
</g>
</svg>
