<svg id="eLwt73Ospoq1" xmlns="http://www.w3.org/2000/svg" xmlns:xlink="http://www.w3.org/1999/xlink" viewBox="0 0 1080 1920" shape-rendering="geometricPrecision" text-rendering="geometricPrecision">
  <defs>
    <radialGradient id="eLwt73Ospoq3-fill" cx="0" cy="0" r="510.8816" spreadMethod="pad" gradientUnits="userSpaceOnUse" gradientTransform="translate(540 480)">
      <stop id="eLwt73Ospoq3-fill-0" offset="0%" stop-color="#f9a64b"/>
      <stop id="eLwt73Ospoq3-fill-1" offset="0%" stop-color="#f9a64a"/>
      <stop id="eLwt73Ospoq3-fill-2" offset="0%" stop-color="#fb9c2f"/>
      <stop id="eLwt73Ospoq3-fill-3" offset="0%" stop-color="#fd941a"/>
      <stop id="eLwt73Ospoq3-fill-4" offset="0%" stop-color="#fe8f0b"/>
      <stop id="eLwt73Ospoq3-fill-5" offset="10.87%" stop-color="#ff8c03"/>
      <stop id="eLwt73Ospoq3-fill-6" offset="15.92%" stop-color="#ff8b00"/>
      <stop id="eLwt73Ospoq3-fill-7" offset="29.14%" stop-color="#c67516"/>
      <stop id="eLwt73Ospoq3-fill-8" offset="44.86%" stop-color="#895e2d"/>
      <stop id="eLwt73Ospoq3-fill-9" offset="58.23%" stop-color="#5d4d3e"/>
      <stop id="eLwt73Ospoq3-fill-10" offset="68.55%" stop-color="#414348"/>
      <stop id="eLwt73Ospoq3-fill-11" offset="74.58%" stop-color="#373f4c"/>
    </radialGradient>
  </defs>

  <!-- Background Rectangle -->
  <rect width="1080" height="1920" fill="#373f4c"/>

  <!-- Moving Rectangle with Animation -->
  <rect width="1080" height="960" fill="url(#eLwt73Ospoq3-fill)">
    <animateTransform attributeName="transform"
                      type="translate"
                      values="0,-600; 200,1000; -300,0; 0,820; 1200,0; 0,-600"
                      dur="20s"
                      repeatCount="indefinite"/>
  </rect>

  <!-- Hexagon Group -->
  <g>
    <!-- Example Hexagon Elements (include more as needed) -->
    <polygon points="1008.8,141.3 1008.8,78.2 954.1,46.6 899.4,78.2 899.4,141.3 954.1,172.9" fill="#373f4c"/>
    <polygon points="531.3,1672.2 531.3,1735.4 586,1767 640.7,1735.4 640.7,1672.2 586,1640.7" fill="#373f4c"/>
	<polygon points="347.3,1034.5 347.3,1097.7 402,1129.3 456.7,1097.7 456.7,1034.5 402,1003" fill="#373f4c"/>
<polygon points="255.3,875.2 255.3,938.3 310,969.9 364.7,938.3 364.7,875.2 310,843.6" fill="#373f4c"/>
<polygon points="715.3,1672.2 715.3,1735.4 770,1767 824.7,1735.4 824.7,1672.2 770,1640.7" fill="#373f4c"/>
<polygon points="347.3,715.8 347.3,778.9 402,810.5 456.7,778.9 456.7,715.8 402,684.2" fill="#373f4c"/>
<polygon points="807.4,1512.9 807.4,1576 862.1,1607.6 916.8,1576 916.8,1512.9 862.1,1481.3" fill="#373f4c"/>
<polygon points="347.3,1672.2 347.3,1735.4 402,1767 456.7,1735.4 456.7,1672.2 402,1640.7" fill="#373f4c"/>
<polygon points="439.3,1512.9 439.3,1576 494,1607.6 548.7,1576 548.7,1512.9 494,1481.3" fill="#373f4c"/>
<polygon points="623.3,1512.9 623.3,1576 678,1607.6 732.7,1576 732.7,1512.9 678,1481.3" fill="#373f4c"/>
<polygon points="531.3,1034.5 531.3,1097.7 586,1129.3 640.7,1097.7 640.7,1034.5 586,1003" fill="#373f4c"/>
<polygon points="899.4,715.8 899.4,778.9 954.1,810.5 1008.8,778.9 1008.8,715.8 954.1,684.2" fill="#373f4c"/>
<polygon points="899.4,397 899.4,460.1 954.1,491.7 1008.8,460.1 1008.8,397 954.1,365.4" fill="#373f4c"/>
<polygon points="899.4,1034.5 899.4,1097.7 954.1,1129.3 1008.8,1097.7 1008.8,1034.5 954.1,1003" fill="#373f4c"/>
<polygon points="439.3,875.2 439.3,938.3 494,969.9 548.7,938.3 548.7,875.2 494,843.6" fill="#373f4c"/>
<polygon points="899.4,1672.2 899.4,1735.4 954.1,1767 1008.8,1735.4 1008.8,1672.2 954.1,1640.7" fill="#373f4c"/>
<polygon points="899.4,1353.5 899.4,1416.6 954.1,1448.2 1008.8,1416.6 1008.8,1353.5 954.1,1321.9" fill="#373f4c"/>
<polygon points="531.3,715.8 531.3,778.9 586,810.5 640.7,778.9 640.7,715.8 586,684.2" fill="#373f4c"/>
<polygon points="255.3,1512.9 255.3,1576 310,1607.6 364.7,1576 364.7,1512.9 310,1481.3" fill="#373f4c"/>
<polygon points="623.3,556.4 623.3,619.5 678,651.1 732.7,619.5 732.7,556.4 678,524.8" fill="#373f4c"/>
<polygon points="531.3,397 531.3,460.1 586,491.7 640.7,460.1 640.7,397 586,365.4" fill="#373f4c"/>
<polygon points="640.7,1416.6 640.7,1353.5 586,1321.9 531.3,1353.5 531.3,1416.6 586,1448.2" fill="#373f4c"/>
<polygon points="732.7,1257.1 732.7,1193.9 678,1162.4 623.3,1193.9 623.3,1257.1 678,1288.7" fill="#373f4c"/>
<polygon points="916.8,1257.1 916.8,1193.9 862.1,1162.4 807.4,1193.9 807.4,1257.1 862.1,1288.7" fill="#373f4c"/>
<polygon points="824.7,1416.6 824.7,1353.5 770,1321.9 715.3,1353.5 715.3,1416.6 770,1448.2" fill="#373f4c"/>
<polygon points="439.3,556.4 439.3,619.5 494,651.1 548.7,619.5 548.7,556.4 494,524.8" fill="#373f4c"/>
<polygon points="715.3,397 715.3,460.1 770,491.7 824.7,460.1 824.7,397 770,365.4" fill="#373f4c"/>
<polygon points="807.4,556.4 807.4,619.5 862.1,651.1 916.8,619.5 916.8,556.4 862.1,524.8" fill="#373f4c"/>
<polygon points="272.6,778.9 272.6,715.8 217.9,684.2 163.2,715.8 163.2,778.9 217.9,810.5" fill="#373f4c"/>
<polygon points="272.6,1416.6 272.6,1353.5 217.9,1321.9 163.2,1353.5 163.2,1416.6 217.9,1448.2" fill="#373f4c"/>
<polygon points="272.6,1097.7 272.6,1034.5 217.9,1003 163.2,1034.5 163.2,1097.7 217.9,1129.3" fill="#373f4c"/>
<polygon points="456.7,1416.6 456.7,1353.5 402,1321.9 347.3,1353.5 347.3,1416.6 402,1448.2" fill="#373f4c"/>
<polygon points="364.7,1257.1 364.7,1193.9 310,1162.4 255.3,1193.9 255.3,1257.1 310,1288.7" fill="#373f4c"/>
<polygon points="347.3,397 347.3,460.1 402,491.7 456.7,460.1 456.7,397 402,365.4" fill="#373f4c"/>
<polygon points="163.2,397 163.2,460.1 217.9,491.7 272.6,460.1 272.6,397 217.9,365.4" fill="#373f4c"/>
<polygon points="548.7,1257.1 548.7,1193.9 494,1162.4 439.3,1193.9 439.3,1257.1 494,1288.7" fill="#373f4c"/>
<polygon points="255.3,556.4 255.3,619.5 310,651.1 364.7,619.5 364.7,556.4 310,524.8" fill="#373f4c"/>
<polygon points="807.4,875.2 807.4,938.3 862.1,969.9 916.8,938.3 916.8,875.2 862.1,843.6" fill="#373f4c"/>
<polygon points="180.6,1257.1 180.6,1193.9 125.9,1162.4 71.2,1193.9 71.2,1257.1 125.9,1288.7" fill="#373f4c"/>
<polygon points="88.6,141.3 88.6,78.2 33.9,46.6 0,66.2 0,153.3 33.9,172.9" fill="#373f4c"/>
<polygon points="88.6,460.1 88.6,397 33.9,365.4 0,385 0,472.1 33.9,491.7" fill="#373f4c"/>
<polygon points="180.6,300.7 180.6,237.6 125.9,206 71.2,237.6 71.2,300.7 125.9,332.3" fill="#373f4c"/>
<polygon points="991.4,237.6 991.4,300.7 1046.1,332.3 1080,312.7 1080,225.6 1046.1,206" fill="#373f4c"/>
<polygon points="88.6,1097.7 88.6,1034.5 33.9,1003 0,1022.5 0,1109.7 33.9,1129.3" fill="#373f4c"/>
<polygon points="180.6,619.5 180.6,556.4 125.9,524.8 71.2,556.4 71.2,619.5 125.9,651.1" fill="#373f4c"/>
<polygon points="180.6,938.3 180.6,875.2 125.9,843.6 71.2,875.2 71.2,938.3 125.9,969.9" fill="#373f4c"/>
<path d="M59,1901.9v-77.3l66.9-38.6l66.9,38.6v77.3L161.4,1920h113L243,1901.9v-77.3l67-38.6l66.9,38.6v77.3L345.5,1920h113l-31.4-18.1v-77.3L494,1786l66.9,38.6v77.3L529.5,1920h113l-31.4-18.1v-77.3L678,1786l66.9,38.6v77.3L713.5,1920h113l-31.4-18.1v-77.3L862,1786l66.9,38.6v77.3L897.5,1920h113l-31.4-18.1v-77.3L1046,1786l33.9,19.6v-203.4l-33.9,19.6-66.9-38.6v-77.3l66.9-38.6l33.9,19.6v-203.5L1046,1303l-66.9-38.6v-77.3l66.9-38.6l33.9,19.6v-203.7L1046,984l-66.9-38.6v-77.3l66.9-38.6l34,19.5v-203.4l-33.9,19.6-66.9-38.6v-77.3l66.9-38.6l33.9,19.6v-203.4l-33.9,19.6-66.9-38.6v-77.3l66.9-38.6l33.9,19.6L1080,0L0,0v52.1L33.9,32.5l66.9,38.6v77.3L33.9,187L0,167.5v203.4l33.9-19.6l66.9,38.6v77.3L33.9,505.8L0,486.2v203.4L33.9,670l66.9,38.6v77.4L33.9,824.6L0,805v203.4l33.9-19.6l66.9,38.6v77.3l-66.9,38.6L0,1123.8v203.5l33.9-19.6l66.9,38.6v77.3l-66.9,38.6L0,1442.7v203.4l33.9-19.6l66.9,38.6v77.3L33.9,1781L0,1761.5v158.5h90.4L59,1901.9Zm225.9-159.4L218,1781.1l-66.9-38.6v-77.3l66.9-38.6l66.9,38.6v77.3ZM703.1,786v-77.3L770,670.1l66.9,38.6v77.3L770,824.6L703.1,786ZM837,1027.5v77.3l-66.9,38.6-66.9-38.6v-77.3l66.9-38.6l66.9,38.6ZM744.9,868.1v77.3L678,984l-66.9-38.6v-77.3L678,829.5l66.9,38.6Zm-92,159.4v77.3L586,1143.4l-66.9-38.6v-77.3L586,988.9l66.9,38.6Zm0-241.5L586,824.6L519.1,786v-77.3L586,670.1l66.9,38.6v77.3Zm-92,82.1v77.3L494,984l-66.9-38.6v-77.3L494,829.5l66.9,38.6Zm-92,159.4v77.3L402,1143.4l-66.9-38.6v-77.3L402,988.9l66.9,38.6Zm0-241.5L402,824.6L335.1,786v-77.3L402,670.1l66.9,38.6v77.3Zm-92,82.1v77.3L310,984l-67-38.6v-77.3l66.9-38.6l67,38.6Zm0,318.8v77.3L310,1302.8l-66.9-38.6v-77.3l66.9-38.6l66.9,38.6Zm-41.8,159.5l66.9-38.6l66.9,38.6v77.3L402,1462.3l-66.9-38.6v-77.3Zm92-82.2v-77.3l66.9-38.6l66.9,38.6v77.3L494,1302.8l-66.9-38.6Zm92,82.2l66.9-38.6l66.9,38.6v77.3L586,1462.3l-66.9-38.6v-77.3Zm92-82.2v-77.3l66.9-38.6l66.9,38.6v77.3L678,1302.8l-66.9-38.6Zm92,82.2l66.9-38.6l66.9,38.6v77.3L770,1462.3l-66.9-38.6v-77.3Zm92-82.2v-77.3l66.9-38.6l66.9,38.6v77.3L862,1302.8l-66.9-38.6Zm0-318.8v-77.3L862,829.5l66.9,38.6v77.3L862.1,984l-67-38.6Zm0-318.8v-77.3L862,510.7l66.9,38.6v77.3L862,665.2l-66.9-38.6ZM837,467.2l-67,38.6-66.9-38.6v-77.3L770,351.3l66.9,38.6v77.3h.1Zm-92.1,82.1v77.3L678,665.2l-66.9-38.6v-77.3L678,510.7l66.9,38.6Zm-92-82.1L586,505.8l-66.9-38.6v-77.3L586,351.3l66.9,38.6v77.3Zm-92,82.1v77.3L494,665.2l-66.9-38.6v-77.3L494,510.7l66.9,38.6Zm-92-82.1L402,505.8l-66.9-38.6v-77.3L402,351.3l66.9,38.6v77.3Zm-92,82.1v77.3L310,665.2l-67-38.6v-77.3l66.9-38.6l67,38.6Zm-92-82.1L218,505.8l-67-38.6v-77.3l66.9-38.6l66.9,38.6v77.3h.1Zm0,241.5v77.3L218,824.6L151,786v-77.3l66.9-38.6l67,38.6Zm0,318.8v77.3L218,1143.4l-66.9-38.6v-77.3L218,988.9l66.9,38.6Zm0,318.9v77.3L218,1462.3l-66.9-38.6v-77.3l66.9-38.6l66.9,38.6ZM243,1583.1v-77.3l66.9-38.6l66.9,38.6v77.3l-66.9,38.6-66.9-38.6Zm225.9,159.4L402,1781.1l-66.9-38.6v-77.3l66.9-38.6l66.9,38.6v77.3Zm-41.8-159.4v-77.3l66.9-38.6l66.9,38.6v77.3L494,1621.7l-66.9-38.6Zm225.8,159.4L586,1781.1l-66.9-38.6v-77.3l66.9-38.6l66.9,38.6v77.3Zm-41.8-159.4v-77.3l66.9-38.6l66.9,38.6v77.3L678,1621.7l-66.9-38.6ZM837,1742.5l-66.9,38.6-66.9-38.6v-77.3l66.9-38.6l66.9,38.6v77.3Zm-41.9-159.4v-77.3l66.9-38.6l66.9,38.6v77.3L862,1621.7l-66.9-38.6Zm225.9,82.1v77.3l-66.9,38.6-66.9-38.6v-77.3l66.9-38.6l66.9,38.6Zm0-318.8v77.3l-66.9,38.6-66.9-38.6v-77.3l66.9-38.6l66.9,38.6Zm0-318.9v77.3l-66.9,38.6-66.9-38.6v-77.3l66.9-38.6l66.9,38.6Zm0-318.8v77.3l-66.9,38.6L887.2,786v-77.3l66.9-38.6l66.9,38.6Zm0-318.8v77.3l-66.9,38.6-66.9-38.6v-77.3l66.9-38.6l66.9,38.6ZM887.2,71.1l66.9-38.6L1021,71.1v77.3L954.1,187l-66.9-38.6v-77.3ZM929,230.5v77.3l-66.9,38.6-66.9-38.6v-77.3l66.9-38.6L929,230.5ZM703.1,71.1L770,32.5l67,38.6v77.3L770,187l-66.9-38.6v-77.3Zm41.8,159.4v77.3L678,346.4l-66.9-38.6v-77.3L678,191.9l66.9,38.6ZM519.1,71.1L586,32.5l66.9,38.6v77.3L586,187l-66.9-38.6v-77.3Zm41.8,159.4v77.3L494,346.4l-66.9-38.6v-77.3L494,191.9l66.9,38.6ZM335.1,71.1L402,32.5l66.9,38.6v77.3L402,187l-66.9-38.6v-77.3Zm41.8,159.4v77.3L310,346.4l-67-38.6v-77.3l66.9-38.6l67,38.6ZM151,71.1l66.9-38.6l66.9,38.6v77.3L217.9,187L151,148.4v-77.3ZM59,307.8v-77.3l66.9-38.6l66.9,38.6v77.3l-66.9,38.6L59,307.8Zm0,318.8v-77.3l66.9-38.6l66.9,38.6v77.3l-66.9,38.6L59,626.6Zm0,318.8v-77.3l66.9-38.6l66.9,38.6v77.3L125.9,984L59,945.4Zm0,318.8v-77.3l66.9-38.6l66.9,38.6v77.3l-66.9,38.6L59,1264.2Zm0,318.9v-77.3l66.9-38.6l66.9,38.6v77.3l-66.9,38.6L59,1583.1Z" fill="#373f4c"/><polygon points="88.6,778.9 88.6,715.8 33.9,684.2 0,703.8 0,790.9 33.9,810.5" fill="#373f4c"/><polygon points="180.6,1576 180.6,1512.9 125.9,1481.3 71.2,1512.9 71.2,1576 125.9,1607.6" fill="#373f4c"/><polygon points="732.7,1894.8 732.7,1831.7 678,1800.1 623.3,1831.7 623.3,1894.8 667,1920 689.1,1920" fill="#373f4c"/><polygon points="916.8,1894.8 916.8,1831.7 862.1,1800.1 807.4,1831.7 807.4,1894.8 851,1920 873.1,1920" fill="#373f4c"/><polygon points="548.7,1894.8 548.7,1831.7 494,1800.1 439.3,1831.7 439.3,1894.8 482.9,1920 505,1920" fill="#373f4c"/><polygon points="364.7,1894.8 364.7,1831.7 310,1800.1 255.3,1831.7 255.3,1894.8 298.9,1920 321,1920" fill="#373f4c"/><polygon points="180.6,1894.8 180.6,1831.7 125.9,1800.1 71.2,1831.7 71.2,1894.8 114.9,1920 137,1920" fill="#373f4c"/><polygon points="991.4,1512.9 991.4,1576 1046.1,1607.6 1080,1588 1080,1500.9 1046.1,1481.3" fill="#373f4c"/><polygon points="991.4,1193.9 991.4,1257.1 1046.1,1288.7 1080,1269.1 1080,1181.9 1046.1,1162.4" fill="#373f4c"/><polygon points="991.4,875.2 991.4,938.3 1046.1,969.9 1080,950.3 1080,863.2 1046.1,843.6" fill="#373f4c"/><polygon points="991.4,556.4 991.4,619.5 1046.1,651.1 1080,631.5 1080,544.4 1046.1,524.8" fill="#373f4c"/><polygon points="991.4,1831.7 991.4,1894.8 1035,1920 1057.1,1920 1080,1906.8 1080,1819.7 1046.1,1800.1" fill="#373f4c"/><polygon points="715.3,715.8 715.3,778.9 770,810.5 824.7,778.9 824.7,715.8 770,684.2" fill="#373f4c"/><polygon points="824.7,1097.7 824.7,1034.5 770,1003 715.3,1034.5 715.3,1097.7 770,1129.3" fill="#373f4c"/><polygon points="824.7,141.3 824.7,78.2 770,46.6 715.3,78.2 715.3,141.3 770,172.9" fill="#373f4c"/><polygon points="456.7,141.3 456.7,78.2 402,46.6 347.3,78.2 347.3,141.3 402,172.9" fill="#373f4c"/><polygon points="623.3,875.2 623.3,938.3 678,969.9 732.7,938.3 732.7,875.2 678,843.6" fill="#373f4c"/><polygon points="163.2,1672.2 163.2,1735.4 217.9,1767 272.6,1735.4 272.6,1672.2 217.9,1640.7" fill="#373f4c"/><polygon points="640.7,141.3 640.7,78.2 586,46.6 531.3,78.2 531.3,141.3 586,172.9" fill="#373f4c"/><polygon points="732.7,300.7 732.7,237.6 678,206 623.3,237.6 623.3,300.7 678,332.3" fill="#373f4c"/><polygon points="548.7,300.7 548.7,237.6 494,206 439.3,237.6 439.3,300.7 494,332.3" fill="#373f4c"/><polygon points="272.6,141.3 272.6,78.2 217.9,46.6 163.2,78.2 163.2,141.3 217.9,172.9" fill="#373f4c"/><polygon points="916.8,300.7 916.8,237.6 862.1,206 807.4,237.6 807.4,300.7 862.1,332.3" fill="#373f4c"/><polygon points="88.6,1416.6 88.6,1353.5 33.9,1321.9 0,1341.5 0,1428.6 33.9,1448.2" fill="#373f4c"/>
<polygon points="88.6,1735.4 88.6,1672.2 33.9,1640.7 0,1660.2 0,1747.4 33.9,1767" fill="#373f4c"/>
<polygon points="364.7,300.7 364.7,237.6 310,206 255.3,237.6 255.3,300.7 310,332.3" fill="#373f4c"/>
    <!-- Add more hexagons here as needed -->
  </g>
</svg>
