<?xml version="1.0" encoding="utf-8"?>
<!-- Generator: Adobe Illustrator 22.0.0, SVG Export Plug-In . SVG Version: 6.00 Build 0)  -->
<svg version="1.1" id="Layer_1" xmlns="http://www.w3.org/2000/svg" xmlns:xlink="http://www.w3.org/1999/xlink" x="0px" y="0px"
	 viewBox="0 0 1920 1080" style="enable-background:new 0 0 1920 1080;" xml:space="preserve">
<style type="text/css">
	.st0{fill:url(#XMLID_5_);}
	.st1{fill:url(#XMLID_80_);}
	.st2{fill:url(#XMLID_101_);}
	.st3{fill:url(#XMLID_113_);}
	.st4{opacity:0.5;fill:url(#XMLID_310_);}
	.st5{opacity:0.5;fill:url(#XMLID_311_);}
	.st6{display:none;opacity:0.2;clip-path:url(#XMLID_317_);}
	.st7{display:inline;fill:#FFFFFF;}
	.st8{opacity:0.2;clip-path:url(#XMLID_317_);fill:url(#XMLID_318_);}
	.st9{clip-path:url(#XMLID_320_);fill:url(#XMLID_321_);}
	.st10{opacity:0.3;clip-path:url(#XMLID_391_);}
	.st11{fill:url(#SVGID_1_);}
	.st12{fill:url(#SVGID_2_);}
	.st13{fill:url(#SVGID_3_);}
	.st14{fill:url(#SVGID_4_);}
	.st15{fill:url(#SVGID_5_);}
	.st16{fill:url(#SVGID_6_);}
	.st17{fill:url(#SVGID_7_);}
	.st18{fill:url(#SVGID_8_);}
	.st19{fill:url(#SVGID_9_);}
	.st20{fill:url(#SVGID_10_);}
	.st21{fill:url(#SVGID_11_);}
	.st22{fill:url(#SVGID_12_);}
	.st23{fill:url(#SVGID_13_);}
	.st24{fill:url(#SVGID_14_);}
	.st25{fill:url(#SVGID_15_);}
	.st26{fill:url(#SVGID_16_);}
	.st27{fill:url(#SVGID_17_);}
	.st28{fill:url(#XMLID_393_);}
	.st29{fill:url(#SVGID_18_);}
	.st30{opacity:0.9;fill:none;stroke:url(#XMLID_449_);stroke-width:0.1264;stroke-miterlimit:10;}
	.st31{fill:url(#XMLID_666_);}
	.st32{fill:url(#SVGID_19_);}
	.st33{fill:#010101;}
</style>
<symbol  id="Nuevo_símbolo_33" viewBox="-6.5 -8.2 13 13">
	
		<radialGradient id="XMLID_5_" cx="18151.3398" cy="10052.5713" r="14.4839" gradientTransform="matrix(8.263829e-02 -0.4922 -0.3851 -6.314702e-02 2370.8647 9568.0313)" gradientUnits="userSpaceOnUse">
		<stop  offset="0" style="stop-color:#FFFFFF"/>
		<stop  offset="3.468906e-02" style="stop-color:#FDFBF1"/>
		<stop  offset="0.1528" style="stop-color:#F8EDC7"/>
		<stop  offset="0.2457" style="stop-color:#F4E5AE"/>
		<stop  offset="0.3011" style="stop-color:#F3E2A4"/>
		<stop  offset="0.3372" style="stop-color:#CABC89"/>
		<stop  offset="0.3854" style="stop-color:#9B9169"/>
		<stop  offset="0.4366" style="stop-color:#726A4D"/>
		<stop  offset="0.49" style="stop-color:#4E4935"/>
		<stop  offset="0.5461" style="stop-color:#322E22"/>
		<stop  offset="0.6058" style="stop-color:#1C1A13"/>
		<stop  offset="0.6709" style="stop-color:#0C0B08"/>
		<stop  offset="0.7453" style="stop-color:#030302"/>
		<stop  offset="0.8501" style="stop-color:#000000"/>
	</radialGradient>
	<path id="XMLID_00000079453593880052044180000011278689808318890145_" class="st0" d="M1.4-5.6C2.5-4.2,4.3-1,0.7,1.1l-2.2-0.3
		c-2.9-3.2,0-5.6,1.5-6.6C0.5-6.2,1.1-6,1.4-5.6z"/>
	
		<linearGradient id="XMLID_80_" gradientUnits="userSpaceOnUse" x1="14582.3701" y1="759.0421" x2="14585.4287" y2="759.0421" gradientTransform="matrix(-0.9878 -0.1554 -0.1554 0.9878 14523.335 1518.4828)">
		<stop  offset="0" style="stop-color:#007893"/>
		<stop  offset="3.921824e-02" style="stop-color:#00627B"/>
		<stop  offset="0.1082" style="stop-color:#004157"/>
		<stop  offset="0.1449" style="stop-color:#003449"/>
		<stop  offset="0.5253" style="stop-color:#002839"/>
		<stop  offset="0.8852" style="stop-color:#003449"/>
		<stop  offset="0.9156" style="stop-color:#004258"/>
		<stop  offset="0.9739" style="stop-color:#00667F"/>
		<stop  offset="1" style="stop-color:#007893"/>
	</linearGradient>
	<path id="XMLID_00000115508483840660051330000006807832990687347886_" class="st1" d="M-1.8,0.4l3,0.5L0.9,2.1
		C0.7,2.9,0,3.4-0.8,3.3h0c-0.8-0.1-1.4-0.9-1.2-1.8L-1.8,0.4z"/>
	
		<radialGradient id="XMLID_101_" cx="14583.8672" cy="755.4088" r="6.5025" fx="14582.2666" fy="755.3533" gradientTransform="matrix(-0.9878 -0.1554 -0.1554 0.9878 14523.335 1518.4828)" gradientUnits="userSpaceOnUse">
		<stop  offset="0" style="stop-color:#FA9500"/>
		<stop  offset="1.353291e-02" style="stop-color:#FB9C01"/>
		<stop  offset="5.056773e-02" style="stop-color:#FCA702"/>
		<stop  offset="0.1026" style="stop-color:#FDAE03"/>
		<stop  offset="0.2473" style="stop-color:#FDB003"/>
		<stop  offset="0.7088" style="stop-color:#5F4201"/>
		<stop  offset="1" style="stop-color:#000000"/>
	</radialGradient>
	<path id="XMLID_00000091729364382075917150000008752788954035262880_" class="st2" d="M-6.4-2.7c0.6-3.5,3.9-6,7.4-5.4
		s6,3.9,5.4,7.4C5.9,2.9,2.5,5.3-1,4.8C-4.6,4.2-7,0.9-6.4-2.7z"/>
</symbol>
<symbol  id="Nuevo_símbolo_7" viewBox="-19.8 -19.9 39.5 39.9">
	
		<radialGradient id="XMLID_113_" cx="5094.3296" cy="3044.6169" r="26.5948" gradientTransform="matrix(0.8697 0.4935 -0.4935 0.8697 -2931.928 -5161.8618)" gradientUnits="userSpaceOnUse">
		<stop  offset="0.1689" style="stop-color:#ED0C05"/>
		<stop  offset="1" style="stop-color:#680000"/>
	</radialGradient>
	<path id="XMLID_00000152945638341929989250000002838621509285453207_" class="st3" d="M16.7,9.3c5.3-9.4,2-21.3-7.3-26.6
		c-9.4-5.3-21.3-2-26.6,7.3c-5.3,9.4-2,21.3,7.3,26.6C-0.5,22,11.4,18.7,16.7,9.3z"/>
	<g id="XMLID_00000147213573253340691420000014415904529002142861_">
		
			<radialGradient id="XMLID_310_" cx="-1427.1283" cy="-3618.7688" r="3.8019" gradientTransform="matrix(0.9656 -0.1718 0.2377 1.5627 2223.8831 5409.9556)" gradientUnits="userSpaceOnUse">
			<stop  offset="0.162" style="stop-color:#FFFFFF"/>
			<stop  offset="1" style="stop-color:#FFFFFF;stop-opacity:0"/>
		</radialGradient>
		<path id="XMLID_00000150072744760668393860000014088693063732134843_" class="st4" d="M-10.6-0.4c-0.5-3.2-2.5-5.5-4.5-5.1
			c-2,0.4-3.3,3.2-2.8,6.4c0.5,3.2,2.5,5.5,4.5,5.1C-11.4,5.6-10.1,2.7-10.6-0.4z"/>
		
			<radialGradient id="XMLID_311_" cx="-3764.1719" cy="-3653.4333" r="2.8422" gradientTransform="matrix(0.8192 -0.3002 0.3713 1.1079 4427.2573 2926.5154)" gradientUnits="userSpaceOnUse">
			<stop  offset="0.1024" style="stop-color:#FFFFFF"/>
			<stop  offset="1" style="stop-color:#FFFFFF;stop-opacity:0"/>
		</radialGradient>
		<path id="XMLID_00000137132390807001828550000015758808377052221319_" class="st5" d="M-10.5,8c-0.6-1.7-2.1-2.8-3.4-2.3
			c-1.3,0.5-1.9,2.3-1.3,4c0.6,1.7,2.1,2.8,3.4,2.3C-10.5,11.6-10,9.8-10.5,8z"/>
		<g id="XMLID_00000055704475051267577570000015933060555225483946_">
			<g id="XMLID_00000181080817096039433460000012469773778905022367_">
				<defs>
					<path id="XMLID_00000120557928858341514420000017873629686742974889_" d="M16.7,9.3c5.3-9.4,2-21.3-7.3-26.6
						c-9.4-5.3-21.3-2-26.6,7.3c-5.3,9.4-2,21.3,7.3,26.6C-0.5,22,11.4,18.7,16.7,9.3z"/>
				</defs>
				
					<radialGradient id="XMLID_312_" cx="5094.3721" cy="3046.4387" r="25.854" gradientTransform="matrix(0.8697 0.4935 -0.4935 0.8697 -2931.928 -5161.8618)" gradientUnits="userSpaceOnUse">
					<stop  offset="0" style="stop-color:#FFFFFF"/>
					<stop  offset="1" style="stop-color:#000000"/>
				</radialGradient>
				
					<use xlink:href="#XMLID_00000120557928858341514420000017873629686742974889_"  style="overflow:visible;opacity:0.36;fill:url(#XMLID_312_);"/>
				<clipPath id="XMLID_317_">
					<use xlink:href="#XMLID_00000120557928858341514420000017873629686742974889_"  style="overflow:visible;opacity:0.36;"/>
				</clipPath>
				<g id="XMLID_00000060709026970560881610000010525571555570252934_" class="st6">
					<path id="XMLID_00000145029918026045971480000006307924536124918416_" class="st7" d="M4.8,17.6l-0.1,0.1l-0.4,0L4,17.9l-0.1,0
						c0.3,0,0.6,0,0.9,0L4.4,18l-0.2,0.1l0,0c0.3,0,0.8,0,1.1-0.1l-0.9,0.1l-0.3,0.1l0,0c0.4-0.1,0.9-0.1,1.2-0.2l0.2,0.1l-1.1,0.2
						c-0.2,0-0.4,0-0.6,0l-0.2,0l-0.1,0.1l0.4,0c-0.4,0-0.9,0.1-1.2,0.1l-0.2,0l-0.1,0l0.2,0c-0.3,0-0.8,0-1.1,0l-0.2,0l-0.1,0
						l0.3,0l-0.5,0l-0.2,0l0.1,0c0.5,0,1.1-0.1,1.6-0.1l-0.6,0.1l-0.2,0l0.1,0c0.6-0.1,1.4-0.2,2-0.2l-1.1,0.2l-0.2,0l0.1,0
						c0.5-0.1,1.3-0.2,1.8-0.3l1.1-0.2l-1.4,0.3c-0.4,0.1-1,0.2-1.5,0.2l-0.3,0l0.1,0l1-0.1c-0.6,0.1-1.5,0.2-2.1,0.2l-0.1,0l0.1,0
						l0.6,0c-0.5,0-1.2,0.1-1.8,0.1l-0.1,0l0.1,0l0.6,0l-0.5,0L0,19c0.5,0,1.2,0,1.8-0.1l-0.5,0l0,0l0,0c0.6-0.1,1.4-0.1,2-0.2
						l-0.8,0.1l0,0l0,0l0.3,0c0.4-0.1,0.9-0.1,1.3-0.2l1.4-0.3l-0.9,0.3c-0.5,0.1-1.1,0.2-1.6,0.3l-0.2,0l0.1,0l1.3-0.2l-0.6,0.1
						c0.1,0,0.2,0,0.3-0.1c0.2,0,0.4-0.1,0.6-0.1l0.1,0l0,0c0.1,0,0.3-0.1,0.4-0.1l0.1,0l0.9-0.3l0.1,0l-0.2,0.1
						C5.9,18.1,6.2,18,6.5,18L6.2,18l-0.1,0l1.1-0.3l0.2-0.1c0.1,0,0.2-0.1,0.4-0.1l-0.1,0l0.2-0.1c0.5-0.2,1-0.5,1.5-0.7
						c-0.4,0.2-1,0.5-1.4,0.7l1-0.5l0.2-0.1l-0.1,0c-0.5,0.2-1.2,0.5-1.7,0.7l-1.1,0.3l1.3-0.5c0.4-0.2,1-0.4,1.4-0.6l0.3-0.1l0,0
						l-0.9,0.4c0.6-0.3,1.4-0.7,2-1l-0.1,0l-0.5,0.3c0.5-0.3,1.1-0.7,1.6-1l-0.1,0l-0.5,0.3l0.4-0.3l-0.1,0c-0.4,0.3-1,0.7-1.4,1
						l0.4-0.3l0,0l0,0c-0.5,0.3-1.2,0.7-1.7,1l0.7-0.4l0,0l0,0l-0.2,0.1c-0.3,0.2-0.7,0.4-1.1,0.6l-1.3,0.5l0.8-0.4
						c0.4-0.2,1-0.5,1.5-0.7l0.1-0.1l-0.1,0l-1.1,0.6c0.5-0.3,1.1-0.6,1.5-0.9l0,0l-0.1,0l-0.6,0.4c0.3-0.2,0.8-0.5,1.1-0.8l0,0
						l-0.1,0l-0.6,0.4l-0.1-0.1l-0.1,0l-0.1,0.1c-0.1,0.2-0.2,0.4-0.3,0.5l-0.1-0.1l-0.1,0c-0.1,0.2-0.3,0.4-0.5,0.6l-0.2-0.1
						l-0.1,0l-0.2,0.1c0,0.1,0.1,0.1,0.1,0.2L6,18L5.7,18c0.2-0.1,0.5-0.3,0.6-0.4l-0.1,0l0,0L6,17.6l-0.4,0.3
						c0-0.1,0.1-0.2,0.1-0.4l0,0l-0.2,0.1l-0.2,0.1c0-0.1-0.1-0.2-0.1-0.3l0,0L4.8,17.6"/>
					<path id="XMLID_00000124155751655263727540000015935357257430676357_" class="st7" d="M-4.9,12.5l0.2,0.3l-0.4,0L-5.2,13l0,0.1
						c0.4,0.1,0.9,0.1,1.2,0.2l-0.5,0.1l-0.1,0.1l0,0.1c0.5,0,1.1,0.1,1.5,0.1l-0.9,0.1L-3.9,14l0.2,0.1c0.4-0.1,0.9-0.1,1.3-0.2
						l0.9,0.4l-1.1,0.3c-0.4-0.1-0.8-0.2-1.2-0.3L-4,14.3l0.1,0.1l0.7,0.2c-0.4,0-1,0-1.4,0l-0.1,0.1l0.1,0.1l0.4,0.1
						c-0.3,0-0.8,0-1.1,0.1L-5.5,15l0,0.1l0.4,0.1l-0.3,0.2l0,0.1l0.1,0c0.3-0.1,0.7-0.3,1-0.4l-0.3,0.2l0,0.1l0.1,0
						c0.4-0.2,0.9-0.4,1.3-0.6l-0.6,0.5l0,0.1l0.1,0c0.3-0.2,0.7-0.5,1-0.7l1.1-0.3l-0.7,0.7c-0.4,0.1-0.8,0.3-1.2,0.4l-0.1,0.1
						l0.1,0l0.8-0.2C-3,15.6-3.6,15.9-4,16.1l0,0.1l0.1,0l0.4-0.1c-0.3,0.1-0.7,0.3-1,0.5l0,0l0.1,0l0.4-0.1l-0.1,0.2l0.1,0
						c0.2-0.2,0.5-0.4,0.8-0.6l-0.1,0.2l0.1,0.1l0,0c0.3-0.3,0.6-0.6,0.8-0.9L-2.6,16l0.1,0.1l0,0l0.2-0.1c0.1-0.2,0.2-0.5,0.2-0.8
						l0.8-0.7l0,0.7c-0.2,0.2-0.6,0.5-0.8,0.7l0,0.1l0.1,0l0.7-0.5c-0.2,0.3-0.4,0.7-0.6,0.9l0.1,0l0.4-0.3
						c-0.1,0.2-0.3,0.7-0.5,0.7h0.1l0.4-0.2l0.3,0.2h0.1l0.1-0.1c0-0.2-0.1-0.4-0.1-0.6l0.3,0.2l0.1,0l0.1-0.1
						c-0.1-0.2-0.3-0.5-0.4-0.8l0.6,0.3l0.1,0l0.1-0.1c-0.2-0.1-0.5-0.3-0.8-0.5l0-0.7l0.8,0.3c0,0.2,0.1,0.5,0.1,0.8l0.2,0l0,0
						l0.2-0.1L0.3,15c0.2,0.2,0.5,0.5,0.7,0.8l0,0l0.2-0.1l-0.1-0.3c0.2,0.2,0.5,0.4,0.7,0.6L2,15.8l0-0.3l0.5,0l0.2-0.1l0-0.1
						c-0.4,0-0.9-0.1-1.2-0.2l0.5-0.1L2.1,15c-0.5-0.1-1.1-0.1-1.6-0.2l1-0.1l0.2-0.1l-0.1-0.1c-0.4,0.1-1,0.1-1.4,0.2l-0.9-0.4
						L0.4,14c0.4,0.1,0.9,0.2,1.3,0.3l0.1-0.1l0-0.1L1,13.8c0.5,0,1.2,0,1.7,0l0.2-0.1l-0.1-0.2l-0.4-0.1c0.4,0,1-0.1,1.5-0.1
						L4,13.2L3.9,13l-0.4,0L4,12.5l0-0.1l-0.2,0c-0.4,0.2-1,0.5-1.4,0.7l0.4-0.3l0-0.2l-0.2,0c-0.5,0.3-1.2,0.7-1.7,0.9l0.7-0.6
						l0-0.2l-0.2,0c-0.4,0.3-0.8,0.7-1.2,1L-0.8,14L0,13.2c0.4-0.2,1-0.4,1.4-0.6l0.1-0.2l-0.2-0.1l-1,0.4c0.5-0.4,1.1-0.9,1.5-1.3
						l-0.2-0.1l-0.5,0.3c0.4-0.4,0.8-0.8,1.2-1.2l-0.2-0.1l-0.5,0.3l0-0.6l-0.2,0c-0.2,0.4-0.4,1-0.6,1.4l0-0.4L0.7,11l0,0
						c-0.2,0.5-0.4,1.1-0.6,1.6l0-0.8l-0.2-0.1l0,0l-0.1,0.2c0,0.3,0,0.8,0,1.2L-1,13.9l-0.1-0.9c0.2-0.3,0.5-0.8,0.6-1.1l-0.1-0.2
						l-0.1,0l-0.5,0.9c0.1-0.5,0.2-1.1,0.2-1.6L-1.2,11l-0.1,0l-0.3,0.6c0-0.4,0-1,0-1.4l-0.1-0.1l-0.1,0L-2,10.7l-0.5-0.3l-0.1,0.1
						l0,0.1c0.2,0.3,0.5,0.8,0.8,1.1l-0.5-0.3l-0.1,0.1c0.3,0.4,0.6,0.9,0.9,1.3l-0.9-0.4l-0.1,0.1l0,0.2c0.3,0.2,0.7,0.4,1,0.6
						l0.2,0.9l-0.9-0.4c-0.1-0.3-0.3-0.7-0.5-1l-0.2-0.1l0,0L-3,12.8l0.3,0.7c-0.3-0.3-0.8-0.7-1.1-1l0,0l-0.1,0.2l0.2,0.3
						c-0.3-0.2-0.7-0.5-1-0.7l0,0L-4.9,12.5"/>
					<path id="XMLID_00000040539461287651354300000006371701632225465277_" class="st7" d="M-16.4,7l0.3,0.3l0,0.2l0.1,0.2l0.1,0.1
						c0.1-0.1,0.3-0.1,0.5-0.2l-0.1,0.2l0.1,0.2l0.1,0.1c0.2-0.1,0.4-0.2,0.6-0.3l-0.2,0.5l0.1,0.2l0.1,0.1c0.1-0.2,0.2-0.5,0.3-0.7
						l0.6,0.2l-0.2,0.7c-0.2,0-0.4,0-0.6,0l0,0.1l0.1,0.2l0.4,0c-0.1,0.1-0.3,0.3-0.4,0.5l0,0.1l0.1,0.2l0.1,0
						c0,0.2-0.1,0.4-0.1,0.5l0.1,0.2l0.1,0.1l0.1,0l0.2,0.4l0.1,0.2l0,0c-0.1-0.3-0.2-0.7-0.3-1.1l0.2,0.4l0.1,0.2l0,0
						c-0.1-0.4-0.2-1-0.2-1.4l0.2,0.9l0.1,0.2l0,0c-0.1-0.4-0.3-1-0.3-1.4l0.2-0.7l0.3,1.2c0,0.3-0.1,0.6-0.1,0.9l0.1,0.2l0.1,0
						l0-0.6c0.1,0.4,0.2,1,0.3,1.4l0.1,0.1l0.1,0l0-0.3c0.1,0.3,0.3,0.8,0.4,1.1l0.1,0.1l0.1,0l-0.1-0.3l0.3,0.4l0,0
						c-0.2-0.4-0.5-0.9-0.6-1.3l0.2,0.4l0.1,0.1l0,0c-0.2-0.5-0.5-1.1-0.7-1.6l0.4,0.8l0.1,0l0,0l0-0.2c-0.2-0.4-0.5-0.8-0.7-1.2
						l-0.2-1.2l0.6,1c0.1,0.4,0.3,0.9,0.4,1.3l0.1,0.2l0,0l-0.3-1c0.2,0.5,0.5,1.1,0.8,1.6l0,0l-0.1-0.6c0.2,0.4,0.5,0.9,0.7,1.2
						l0,0l-0.1-0.5l0.3,0.2l0-0.1l0-0.1c-0.2-0.3-0.5-0.6-0.8-0.9l0.4,0.2l0-0.1l0-0.1c-0.3-0.3-0.7-0.7-1-1.1l0.6,0.3l0-0.1
						l-0.1-0.2c-0.2-0.2-0.6-0.4-0.8-0.5l-0.6-1l0.7,0.3c0.2,0.3,0.5,0.8,0.8,1.1l0.1,0l0,0l0-0.2l-0.5-0.7c0.3,0.3,0.8,0.7,1.1,0.9
						l0,0l0-0.2l-0.3-0.4c0.3,0.2,0.7,0.5,1,0.7l0-0.1l-0.3-0.4l0.3-0.1l0-0.2l-0.1-0.1c-0.3,0-0.7,0-1,0l0.3-0.2l0-0.2
						c-0.4,0-0.8,0-1.2,0l0.5-0.4l0-0.2l-0.2-0.1c-0.2,0.2-0.5,0.4-0.7,0.6L-13.6,8l0.4-0.7c0.3,0,0.7,0.1,1,0.1l0-0.1l0-0.1
						l-0.7-0.2c0.3-0.1,0.8-0.2,1.1-0.3l0-0.1l-0.1-0.2l-0.4,0c0.3-0.1,0.7-0.3,1-0.4l0.1-0.2l-0.2-0.2l-0.4,0l0.1-0.6l-0.1-0.1
						l-0.1,0C-12,5.2-12.2,5.7-12.4,6l0.1-0.5l-0.1-0.3l-0.1,0c-0.2,0.4-0.4,1-0.6,1.5l0.1-1l-0.1-0.2l-0.1,0c0,0.5-0.1,1.1-0.1,1.5
						l-0.4,0.7l-0.1-1.3c0.2-0.3,0.3-0.7,0.5-1l0-0.3l-0.2,0l-0.4,0.7c0.1-0.6,0.2-1.3,0.4-1.8l-0.2,0l-0.2,0.4
						c0.1-0.5,0.2-1.1,0.3-1.6l-0.2,0L-14,3.2l-0.2-0.6l-0.1,0c0,0.5,0.1,1.2,0.1,1.8l-0.2-0.5l-0.2-0.1l0,0
						c0.1,0.6,0.2,1.5,0.4,2.1l-0.4-1l-0.1-0.1l0,0l0,0.2c0.2,0.4,0.4,1,0.6,1.4l0.1,1.3l-0.6-1.1c-0.1-0.5-0.2-1.1-0.3-1.6
						l-0.1-0.2l-0.1,0l0.2,1.2c-0.2-0.6-0.4-1.3-0.6-1.9l-0.1-0.1l0,0l0.1,0.7c-0.1-0.5-0.4-1.1-0.5-1.6l-0.1,0l0,0L-16,4l-0.3-0.2
						l0,0.1l0,0.2c0.2,0.3,0.5,0.8,0.7,1.1l-0.3-0.2l0,0.1c0.3,0.4,0.7,0.9,1,1.3L-15.5,6l0,0.1l0.1,0.2c0.2,0.2,0.5,0.4,0.8,0.5
						l0.6,1.1l-0.6-0.2c-0.2-0.3-0.5-0.8-0.7-1.1l-0.1,0l0,0l0.1,0.3l0.5,0.7c-0.3-0.3-0.7-0.6-0.9-0.9l0,0l0.1,0.3l0,0.4
						c-0.2-0.2,0-0.4-0.9-0.6v0L-16.4,7"/>
					<path id="XMLID_00000156589162539254543710000010105078075882640534_" class="st7" d="M18-6.1l0.2,0.3l-0.1,0.3l0,0.2l0.1,0.1
						c0.1-0.1,0.2-0.2,0.3-0.3l0,0.3l0,0.2l0,0.1c0.1-0.2,0.2-0.4,0.2-0.6l0,0.6l0,0.3l0.1,0.1c0-0.3,0-0.7,0-0.9l0.2,0l0.1,1
						c-0.1,0.1-0.2,0.2-0.2,0.3l0,0.2L19-3.9L19.2-4c-0.1,0.2-0.1,0.6-0.2,0.8l0,0.2L19-2.8l0.1-0.1c-0.1,0.2-0.2,0.5-0.3,0.8l0,0.2
						l0,0.1L19-1.9l0,0.5l0,0.3l0,0c0-0.4,0.1-1,0.1-1.5l0,0.6l0,0.3l0-0.1c0-0.6,0-1.3,0-1.9l0.1,1.1l0,0.2l0-0.1
						c-0.1-0.5-0.1-1.3-0.2-1.8l-0.1-1l0.3,1.4c0,0.4,0.1,1,0.1,1.4l0,0.3l0,0l0-1c0,0.6,0.1,1.4,0.1,2l0,0.1l0,0l0-0.5
						c0,0.5,0,1.2,0,1.7l0,0.1l0,0l0-0.5l0,0.6l0-0.1c0-0.5,0-1.3,0-1.8l0,0.5l0,0.1l0,0c0-0.6-0.1-1.5-0.2-2.1l0.1,0.9l0,0l0,0
						l0-0.3c-0.1-0.4-0.1-0.9-0.2-1.3l-0.3-1.4l0.3,1c0.1,0.5,0.2,1.2,0.2,1.7l0,0.2l0-0.1l-0.2-1.3l0.1,0.6c0-0.3-0.1-0.6-0.1-0.9
						l0-0.1l0,0c0,0,0,0,0,0c0-0.1,0-0.3-0.1-0.4l0-0.1l-0.3-1l0-0.1l0,0.2C19.1-5.6,19-5.9,19-6.2L19-5.9l0,0.1l-0.3-1l-0.1-0.2
						c0-0.1-0.1-0.2-0.1-0.4l0,0l-0.1-0.2c-0.2-0.5-0.4-1-0.7-1.5c0.2,0.4,0.4,1,0.6,1.4L18-8.7l-0.1-0.2l0,0.1
						c0.2,0.5,0.5,1.2,0.7,1.7l0.3,1l-0.5-1.4c-0.1-0.4-0.3-0.9-0.5-1.3l-0.1-0.3l0,0l0.4,0.9c-0.3-0.6-0.6-1.4-0.9-1.9l0,0l0.2,0.5
						c-0.3-0.5-0.6-1.1-0.9-1.6l0,0l0.3,0.5l-0.3-0.5l0,0c0.3,0.5,0.7,1.1,0.9,1.6L17.2-10l0-0.1l0,0c0.3,0.6,0.7,1.3,0.9,1.9
						L17.7-9l0,0l0,0l0.1,0.2c0.2,0.4,0.4,0.9,0.6,1.3l0.5,1.4l-0.4-1c-0.2-0.5-0.4-1.1-0.6-1.6l-0.1-0.2l0,0.1l0.5,1.2
						c-0.2-0.5-0.6-1.2-0.8-1.8l0,0l0,0l0.3,0.7C17.5-9,17.2-9.6,17-10l0,0l0,0l0.3,0.7l-0.2-0.1l0,0.1l0.1,0.1
						c0.2,0.3,0.4,0.6,0.6,0.9l-0.1-0.1l0,0.1c0.2,0.3,0.5,0.7,0.7,1.1l-0.2-0.1l0,0.1l0.1,0.2c0.1,0.1,0.2,0.2,0.3,0.3l0.4,1
						l-0.2,0c-0.1-0.3-0.3-0.7-0.5-1l0,0l0,0l0.1,0.3l0.3,0.7c-0.2-0.2-0.4-0.5-0.6-0.7l0,0l0.1,0.3l0.2,0.3
						c-0.2-0.1-0.4-0.3-0.5-0.5l0,0L18-6.1"/>
					<path id="XMLID_00000089538255340133037620000017883706359385878153_" class="st7" d="M7.1-11.9l0.2,0.3l-0.5,0l-0.1,0.2
						l0.1,0.1c0.4,0,0.9,0.1,1.3,0.2L7.7-11l-0.1,0.2l0.1,0.1c0.4,0,1.1,0,1.5,0l-0.8,0.3l-0.1,0.2L8.6-10c0.3-0.1,0.8-0.3,1.1-0.4
						l0.9,0.4L9.8-9.5C9.4-9.6,8.9-9.7,8.5-9.8L8.5-9.6l0.1,0.2l0.8,0.2C9-9.2,8.4-9.1,7.9-9.1L7.8-8.9L8-8.7l0.5,0.1
						C8-8.6,7.5-8.5,7.1-8.4L7-8.3l0,0.1L7.6-8L7.4-7.6l0.1,0.3l0.2,0c0.3-0.3,0.7-0.7,1-1L8.4-7.9l0.1,0.3l0.2,0
						c0.3-0.4,0.7-0.9,1-1.3L9.3-8l0.1,0.3l0.1,0c0.1-0.4,0.4-1,0.5-1.4l0.8-0.6l-0.1,1.2C10.4-8.3,10-7.9,9.7-7.7l0,0.3l0.2,0.1
						L10.5-8C10.3-7.5,10-6.9,9.7-6.4l0,0.1L10-6.2l0.3-0.4c-0.2,0.4-0.5,1-0.7,1.4l0,0.1l0.2,0l0.3-0.4l0.2,0.7l0.2,0
						c0-0.5,0-1.2,0-1.7l0.1,0.5l0.2,0.1l0,0c0-0.6-0.1-1.4-0.1-2l0.3,1l0.2,0.1l0,0l0-0.2c-0.2-0.4-0.4-1-0.5-1.5L11-9.6l0.6,1.1
						c0,0.5,0,1.1,0,1.5l0.1,0.2l0.1,0l0-1.2c0.2,0.6,0.4,1.4,0.5,2l0.1,0l0-0.7c0.2,0.5,0.4,1.2,0.5,1.7l0.1,0l0-0.7l0.4,0.3l0-0.1
						l0-0.2c-0.3-0.3-0.6-0.8-0.9-1.2l0.5,0.2l0-0.1l0-0.1c-0.3-0.4-0.8-0.9-1.1-1.3l0.8,0.4l0-0.1l-0.1-0.2c-0.3-0.2-0.7-0.4-1-0.6
						l-0.6-1.1l0.9,0.3c0.2,0.3,0.6,0.8,0.8,1.2l0.2,0l0,0l0-0.3l-0.5-0.8c0.4,0.3,0.8,0.7,1.2,1l0,0l0-0.3L13.3-9
						c0.3,0.2,0.7,0.5,0.9,0.7l0-0.2l-0.3-0.5L14.2-9l0-0.2l-0.1-0.1c-0.2,0-0.6,0-0.8,0l0.2-0.2l0-0.2c-0.3,0-0.8,0-1.1,0.1
						l0.5-0.4l0-0.2l-0.1-0.1c-0.2,0.2-0.5,0.4-0.7,0.5l-0.8-0.3l0.6-0.6c0.3,0,0.6,0.1,0.9,0.1l0-0.1l-0.1-0.1L12-11
						c0.3-0.1,0.8-0.2,0.8-0.3v-0.1l-0.1-0.2l-0.2,0c0.2-0.1,0.4-0.3,0.5-0.4l0-0.1l-0.1-0.1l-0.2,0l-0.1-0.5l-0.1-0.1l-0.1,0
						c0,0.3-0.1,0.7-0.1,0.9l0-0.4l-0.1-0.2l-0.1,0c-0.1,0.4-0.2,0.9-0.3,1.2l0-0.8l-0.1-0.2l-0.1,0c0,0.4,0,0.9-0.1,1.3l-0.6,0.6
						l0-1.1c0.1-0.2,0.3-0.5,0.5-0.8l0-0.2l-0.1,0L11.1-12c0.1-0.4,0.1-0.9,0.2-1.4l-0.1,0L11-13.1c0-0.3,0-0.8,0-1.1l-0.1,0
						L10.8-14l-0.2-0.4h-0.1c0.1,0,0.2,0.8,0.3,1.2l-0.2-0.4l-0.1-0.1l0,0c0.1,0.5,0.3,1.1,0.4,1.6l-0.4-0.8L10.4-13l0,0l0,0.2
						c0.2,0.4,0.4,0.8,0.5,1.2l0,1.1l-0.5-1c0-0.4,0-0.9-0.1-1.2L10.1-13L10-13l0,0.9c-0.1-0.5-0.3-1.1-0.4-1.5l-0.1-0.1l-0.1,0
						l0,0.5c-0.1-0.3-0.2-0.8-0.4-1.1l-0.1,0l0,0l0,0.4L8.6-14l0,0.1l0,0.1c0.2,0.3,0.5,0.6,0.8,0.9l-0.4-0.2l0,0.1
						c0.3,0.4,0.7,0.9,1,1.2l-0.8-0.4L9-12.2L9.1-12c0.3,0.2,0.7,0.4,1,0.6l0.5,1l-0.9-0.4c-0.2-0.3-0.5-0.8-0.7-1.1l-0.2-0.1l0,0
						l0,0.2l0.5,0.8c-0.4-0.3-0.9-0.7-1.3-1l0,0l0,0.2l0.3,0.4c-0.3-0.2-0.8-0.6-1.1-0.8l0,0L7.1-11.9"/>
					<path id="XMLID_00000138566826445866808930000010908475266546033025_" class="st7" d="M-4.9-17.7l0,0.2l-0.5,0.1l-0.2,0.1
						l0,0.1c0.3,0,0.8,0,1.1,0.1l-0.5,0.1L-5.3-17l0,0.1c0.4,0,1,0,1.5,0l-1,0.2L-5-16.6l0.1,0.1c0.4-0.1,1-0.2,1.4-0.2l0.7,0.3
						L-4-16.2c-0.3-0.1-0.8-0.1-1.1-0.2l-0.2,0.1l0,0.1l0.7,0.1c-0.5,0-1.1,0.1-1.6,0.1l-0.2,0.1l0,0.1l0.4,0
						c-0.4,0.1-1,0.1-1.4,0.2l-0.2,0.1l0,0.1l0.4,0.1l-0.4,0.3l-0.1,0.2l0.1,0c0.4-0.2,1-0.5,1.5-0.8l-0.5,0.3l-0.1,0.2l0.1,0
						c0.5-0.3,1.3-0.7,1.8-0.9l-0.9,0.6L-5.6-15l0.1,0c0.4-0.3,1-0.7,1.4-1l1.3-0.3l-1,0.8c-0.5,0.2-1.1,0.4-1.5,0.6l-0.2,0.2l0.2,0
						l1-0.4c-0.5,0.3-1.2,0.8-1.7,1.1l0,0.1l0.2,0l0.6-0.3c-0.4,0.3-1,0.7-1.3,1.1l0,0.1l0.2,0l0.5-0.3L-6-12.7l0.2,0
						c0.2-0.4,0.6-1,0.8-1.4l-0.1,0.4l0.1,0.1l0,0C-4.6-14-4.3-14.6-4-15l-0.2,0.7l0.2,0.1l0,0l0.2-0.2c0.1-0.3,0.2-0.8,0.3-1.1
						l1-0.8l-0.1,0.8c-0.3,0.3-0.6,0.7-0.9,1.1l0,0.2l0.1,0l0.7-0.8c-0.2,0.4-0.4,1-0.5,1.5l0.1,0l0.4-0.5c-0.1,0.4-0.1,0.9-0.2,1.3
						l0.1,0l0.3-0.5l0.5,0.3l0.1,0l0.1-0.1c-0.2-0.3-0.4-0.7-0.5-1l0.5,0.2l0.1-0.1l0.1-0.1c-0.2-0.3-0.5-0.7-0.7-1.1l0.7,0.4
						l0.1-0.1l0-0.2c-0.3-0.2-0.6-0.4-0.9-0.6l0.1-0.8l0.8,0.3c0.1,0.3,0.1,0.6,0.2,0.9L-1-15l0,0l0.1-0.2L-1-15.8
						c0.3,0.3,0.6,0.6,0.9,0.9l0,0l0.1-0.2l-0.1-0.3c0.3,0.2,0.6,0.5,0.9,0.7L1-14.9l-0.1-0.4l0.5,0l0.1-0.1l0-0.1
						c-0.4-0.1-0.9-0.1-1.3-0.2l0.5-0.1l0.2-0.1C0.4-15.9-0.3-16-0.7-16l1-0.1l0.2-0.1l-0.1-0.1c-0.4,0.1-1,0.1-1.4,0.2l-0.8-0.3
						l1.2-0.3c0.3,0.1,0.7,0.1,1.1,0.2l0.1-0.1l0-0.1l-0.7-0.2c0.5,0,1.1,0,1.6,0l0.2-0.1l0-0.1l-0.4-0.1c0.4,0,0.9,0,1.2,0l0.1-0.1
						l0-0.1l-0.1-0.1L3-17.6v-0.1l-0.3,0c-0.4,0.1-1,0.2-1.4,0.4l0.4-0.2l0.1-0.1l-0.1,0c-0.5,0.2-1.2,0.4-1.7,0.5l0.8-0.4l0.1-0.1
						l-0.1,0c-0.4,0.2-0.9,0.4-1.3,0.7l-1.2,0.3l1-0.6c0.4-0.1,1-0.2,1.4-0.3l0.2-0.1l-0.1,0l-1,0.2c0.5-0.2,1.2-0.4,1.8-0.6l-0.1,0
						l-0.5,0.1c0.4-0.1,1-0.3,1.4-0.4l-0.1,0l-0.5,0.1l0.3-0.2l-0.1,0c-0.3,0.1-0.8,0.3-1.1,0.5l0.2-0.2l-0.1-0.1l0,0
						c-0.4,0.2-0.9,0.5-1.3,0.8l0.4-0.4l-0.1-0.1l0,0l-0.2,0.1c-0.2,0.2-0.4,0.5-0.5,0.7l-1,0.6l0.2-0.6c0.3-0.2,0.8-0.5,1.1-0.7
						l0-0.1l-0.1,0l-0.9,0.5C-1.4-18-1-18-0.7-18.2l0,0.2h-0.1l-0.6,0c0.3-0.2,0.6-0.5,0.9-0.7l0-0.2h-0.1l-0.6,0.2l-0.2-0.1l-0.1,0
						l-0.1,0c0,0.1-0.1,0.3-0.1,0.5L-2-18.4l-0.1,0c0,0.2,0,0.5,0,0.7l-0.5-0.3l-0.1,0l-0.1,0.1c0.2,0.1,0.4,0.3,0.6,0.4l-0.2,0.7
						L-3.2-17c0-0.2,0.1-0.5,0.1-0.7l-0.1,0l0,0l-0.2,0.1l-0.1,0.5c-0.1-0.2-0.3-0.4-0.5-0.6l0,0l-0.2,0.1l0,0.2
						c-0.1-0.1-0.3-0.3-0.4-0.4l0,0L-4.9-17.7"/>
					<path id="XMLID_00000109019874126212982360000001649754842044590772_" class="st7" d="M12.8,9.5l0.8-1.1l0.1-1l-0.7,1L12.8,9.5
						 M12.6,8.4l0.7-1l-0.8,0.3l-0.9,1L12.6,8.4 M13.9,8.3l0.5,0.5l0.1-1l-0.6-0.5L13.9,8.3 M12.5,7.3l0.8-0.3l-0.7-0.5l-1,0.4
						L12.5,7.3 M14.8,7.4L15.6,7l-0.6-0.4L14.2,7L14.8,7.4 M12.9,6l0.7,0.5l0-1l-0.7-0.6L12.9,6 M15,6.2L15.6,5l-0.8,0.4l-0.6,1.1
						L15,6.2 M14,6.4l0.6-1.1l-0.1-1.1l-0.6,1.2L14,6.4 M9.4,4.1l0-0.3l0.3-0.1l0.6,0.4l-0.1-0.7l0.2-0.3l0.2,0.2l0,0l0.1,1.1
						L11,4.7l0-0.6l0-0.3l0,0.2v0l0.2,1c0.3,0.2,0.9,0.6,1.2,0.8l-0.1-1.2l0.1-0.1c0.1-0.2,0.1-0.1,0.3-0.2l0.8,0.6
						c-0.1-0.5-0.1-1.2-0.2-1.7l-0.7-0.4l-0.1-0.3l0.2-0.1l0.4,0.3l-0.1-0.4l-0.8-0.5l-0.1-0.3l0.2-0.1l0.5,0.3l-0.2-0.7L13,0.8
						c0,0,0,0,0,0l0.3-0.1l0.2,0.8l0.3-0.7L14,0.7L14.1,1l-0.5,1l0.1,0.4l0.3-0.5l0.2-0.1l0,0.3L13.7,3c0.1,0.5,0.1,1.2,0.2,1.7
						l0.6-1.2l0,0c0.1-0.1,0.1-0.1,0.2,0l0.1,1.2c0.2-0.5,0.5-1.1,0.7-1.6l-0.2-0.9l0,0l0.1-0.3L15.7,2l0.1,0.6L16,2.2l-0.2-1l0,0
						l0.1-0.3l0.1,0L16,0.9l0.1,0.7l0.2-0.8l0.2-0.1L16.6,1l-0.2,0.8l0.1-0.3l-0.1,0.1v0l0.2,0.3l-0.5,0.4L16,2.7l0.4-0.2l0.2,0.1
						l0,0L16.4,3l-0.6,0.3c-0.2,0.5-0.5,1.1-0.7,1.6l0.8-0.5L16,4.5c0.1,0.2,0.1,0.2-0.6,1.4c0.4-0.2,0.8-0.5,1.2-0.8l0.4-1l0.2-0.2
						l0,0.3l-0.2,0.6l0.2-0.2l0.4-1.1l0.2-0.2l0,0.3l-0.2,0.7l0.4-0.4L18,4.2l-0.1,0.3l-0.4,0.4l0.2,0.3l0,0.3l-0.1,0.1l-0.3-0.4
						l-0.2,0.2l0.2,0.2l0,0.3l-0.2,0.1l-0.3-0.4c-0.4,0.2-0.8,0.6-1.2,0.8L16,6.7l0,0.1c0,0.1,0,0.2-0.1,0.3L15,7.6
						c0.2,0.2,0.5,0.4,0.7,0.6l0.6-0.5l0.1,0.1l0,0l-0.2,0.3l-0.4,0.3L16,8.5L16.7,8L16.8,8l0,0l-0.2,0.3l-0.4,0.4l0.2,0.2l-0.1,0.2
						l-0.2,0.1l-0.2-0.2l-0.2,0.6l-0.2,0.3l-0.1-0.1l0,0l0.3-0.9l-0.1-0.1l-0.1,0.5l-0.2,0.3l-0.1-0.1l0,0l0.2-0.8
						C15.2,8.4,15,8.2,14.8,8l-0.2,1.1c0,0,0,0,0,0.1c-0.1,0.1-0.1,0.2-0.2,0.2l-0.5-0.5c-0.1,0.4-0.2,1-0.3,1.5l0.4,0.3l-0.1,0.2
						L13.6,11l-0.2-0.2l-0.1,0.3l0.4,0.3l0,0.1l-0.1,0.1l-0.2,0.1l-0.3-0.2l-0.3,0.6l-0.3,0.2c0,0,0,0,0,0l-0.1-0.1l0.2-0.6
						l-0.5,0.5l-0.2,0.1l0.1-0.2l0.8-0.8l0.1-0.3l-0.4,0.4l-0.2,0.1l0.1-0.2l0.7-0.7c0.1-0.4,0.2-1,0.3-1.5l-0.8,1.1l-0.1,0
						c-0.1,0.1-0.1,0-0.2,0l0.1-1c-0.3,0.4-0.9,1-1.3,1.4l-0.2,0.8v0L11,11.4l-0.1-0.1l0.1-0.5l-0.5,0.3L10.2,12v0l0,0.2l-0.1-0.1
						l0.1-0.5l-0.6,0.6l-0.3,0.1L9.4,12l0.6-0.6l-0.6,0.1l-0.2-0.1l0,0l0.2-0.2l1-0.2l0.3-0.3l-0.5,0.1l-0.1-0.1v0l0.2-0.2l0.8-0.2
						c0.3-0.4,0.8-0.9,1.1-1.4l-1.1,0.4c0,0,0,0,0,0c-0.1,0-0.1-0.1,0-0.3L12,7.9c-0.5,0.2-1.1,0.4-1.6,0.5L9.8,9.2L9.5,9.3l0-0.3
						l0.4-0.5L9.5,8.6L8.8,9.5L8.5,9.6l0-0.3l0.5-0.6L8.1,8.9L7.9,8.8l0.2-0.2l1.2-0.2L9.3,8V7.7L9.1,7.6l0.5,0.6l0.2-0.1L9.3,7.8
						V7.5l0.4-0.1l0.6,0.6c0.5-0.2,1.1-0.3,1.6-0.4L11,7.1l0-0.2c0-0.1,0-0.3,0.1-0.4l1.1-0.4c-0.3-0.2-0.8-0.6-1.1-0.8l-0.9,0.3
						l-0.2-0.1l0,0l0.2-0.3l0.5-0.2l-0.3-0.2l-1,0.4L9.2,5.1l0,0l0.2-0.3L10,4.6L9.4,4.1"/>
					<path id="XMLID_00000053521437116233360420000005297742661188767421_" class="st7" d="M-3.4,1.7l0.6-1.1l-0.3-1.2l-0.7,1.1
						L-3.4,1.7 M-4.1,0.2l0.7-1.1l-1.1,0.2l-0.8,1.1L-4.1,0.2 M-2.3,0.5l1.2,0.8l-0.3-1.2l-1.2-0.7L-2.3,0.5 M-4.7-1.1l1.1-0.2
						L-4.7-2l-1.2,0.3L-4.7-1.1 M-1.2-0.3l1.3-0.2l-1.3-0.7L-2.3-1L-1.2-0.3 M-4.4-2.4l1.1,0.7l-0.3-1.2l-1.1-0.8L-4.4-2.4
						 M-1.3-1.7l0.9-1.1l-1.3,0.2l-0.7,1.1L-1.3-1.7 M-2.9-1.8l0.7-1.1l-0.3-1.2l-0.7,1.1L-2.9-1.8 M-8.8-4.7l0-0.3l0.3-0.1l0.7,0.5
						l-0.1-0.7l0.2-0.3l0.2,0.2l0,0l0.1,1.2L-7-4.1l-0.1-0.6L-6.9-5l0.2,0.2l0,0l0.1,1C-6-3.4-5.4-3-5-2.7l-0.3-1.3c0,0,0,0,0-0.1
						C-5.1-4.3-5-4.3-4.9-4.3l1.1,0.8C-3.9-4-4-4.8-4.1-5.3L-5-5.8l-0.1-0.3l0.3-0.1l0.5,0.3l-0.1-0.4l-1-0.6l-0.1-0.3l0.3-0.1
						l0.6,0.4l-0.1-0.9L-4.4-8l0.3,0.2L-4-7l0.5-0.6l0.3,0l0,0.3l-0.7,0.9L-3.8-6l0.4-0.5l0.3,0l0,0.3l-0.6,0.8
						c0.1,0.5,0.3,1.3,0.4,1.8l0.7-1.1l0.1,0c0.2,0,0.2,0,0.4,0.1l0.3,1.3c0.3-0.4,0.7-1,1-1.5l-0.3-1l0,0l0.2-0.3l0.3,0.2l0.2,0.6
						l0.3-0.4l-0.3-1.1l0,0L-0.4-7l0.2,0l0.1,0.1l0.2,0.7l0.5-0.7l0.3,0L1-6.6L0.5-5.9L1.3-6l0.3,0.2l0,0L1.4-5.5L0.2-5.4L0-5.1
						l0.7-0.1l0.3,0.2l0,0L0.7-4.7l-1.1,0.1c-0.3,0.4-0.7,1-1,1.5L0-3.3l0.1,0.1C0.3-3,0.3-3-0.6-1.8C0-1.9,0.8-2.1,1.4-2.2l0.5-0.9
						l0.3-0.1l0.1,0.3L2.1-2.3l0.5-0.1l0.6-1l0.3-0.1l0.1,0.3L3.2-2.5l0.9-0.2l0.3,0.2L4.2-2.2L3.3-2L4-1.5L4-1.2l-0.3,0l-1-0.7
						L2.2-1.8l0.6,0.4l0.1,0.3L2.5-1L1.5-1.7C0.9-1.6,0.1-1.5-0.5-1.4l1.4,0.7l0,0.1c0.1,0.2,0,0.2-0.1,0.4L-0.6,0
						c0.5,0.3,1.2,0.8,1.7,1.1l1.1-0.2l0.3,0.2l0,0L2.3,1.3L1.7,1.5l0.4,0.3l1.2-0.3l0.3,0.2l0,0L3.4,1.9L2.6,2.1l0.8,0.5l0.1,0.3
						L3.2,3L2.4,2.5l0.1,0.8L2.3,3.5L2,3.3l0,0L1.8,2.1L1.4,1.9l0.1,0.6L1.3,2.8L1,2.6l0,0l-0.2-1C0.3,1.2-0.4,0.8-0.9,0.4l0.3,1.3
						l0,0.1C-0.7,2-0.7,2-0.9,2l-1.2-0.8C-2,1.7-1.8,2.4-1.6,3l1,0.6l0.1,0.3l-0.3,0.1l-0.6-0.3L-1.3,4l1.1,0.6l0.1,0.2l0,0.2
						L-0.4,5l-0.7-0.4l0.2,0.8l-0.2,0.2l0,0l-0.3-0.2l-0.2-0.8l-0.4,0.6l-0.3,0L-2.5,5l0.7-0.9l-0.1-0.4l-0.4,0.5l-0.3,0l-0.1-0.3
						l0.6-0.8c-0.2-0.6-0.4-1.3-0.5-1.8l-0.7,1.1l-0.1,0c-0.2,0-0.2,0-0.4-0.1L-4.1,1C-4.3,1.4-4.7,2-5,2.5l0.3,1l0,0l-0.1,0.3
						l-0.3-0.1l-0.2-0.6l-0.2,0.4l0.4,1.1l0,0l-0.1,0.2l-0.5-0.3l-0.4-0.8l-0.4,0.7l-0.1,0.2l0-0.2l0.4-0.7l-0.7,0.1l-0.2-0.2l0,0
						L-7,3.2l1.1-0.2l0.2-0.4l-0.6,0.1l-0.3-0.2l0,0l0.2-0.3l1-0.1c0.3-0.4,0.6-1,0.9-1.5L-5.8,1c0,0,0,0-0.1,0C-6,0.9-6,0.8-6,0.6
						l0.8-1.1c-0.6,0.1-1.3,0.3-1.9,0.4l-0.4,0.9l-0.3,0.1l-0.1-0.3L-7.6,0L-8,0.1l-0.5,1l-0.3,0.1l-0.1-0.3l0.3-0.7l-0.8,0.2
						l-0.3-0.2L-9.5,0l0.8-0.2l-0.6-0.4l-0.1-0.3L-9.1-1l0.9,0.7l0.4-0.1l-0.5-0.4l-0.1-0.3L-8-1.1l0.8,0.6C-6.6-0.7-5.9-0.8-5.3-1
						l-1.2-0.7l0-0.1c-0.1-0.2,0-0.2,0.1-0.4l1.3-0.3c-0.5-0.3-1.1-0.7-1.5-1l-1,0.3L-8-3.2l0,0l0.2-0.3l0.6-0.2l-0.4-0.2l-1.1,0.3
						l-0.3-0.1l0,0L-8.8-4l0.7-0.2L-8.8-4.7"/>
					<path id="XMLID_00000088823479485909382640000006435455726119390614_" class="st7" d="M-17.4-5.1l0.4-1.2l0.1-1l-0.5,1.2
						L-17.4-5.1 M-17.5-6.2l0.5-1.1l-0.5,0.5L-18-5.7L-17.5-6.2 M-16.7-6.5l0.5,0.5l0-1.1l-0.4-0.4L-16.7-6.5 M-17.4-7.3l0.5-0.5
						l-0.3-0.3l-0.5,0.6L-17.4-7.3 M-16-7.5l0.7-0.5l-0.6-0.3l-0.6,0.5L-16-7.5 M-17-8.5l0.3,0.3l0.2-0.9l-0.2-0.3L-17-8.5
						 M-15.8-8.7l0.8-1.1l-0.7,0.5l-0.6,1.1L-15.8-8.7 M-16.5-8.4l0.6-1.1l0.3-1l-0.7,1.1L-16.5-8.4 M-17.3-9.4
						c0.1-0.2,0.2-0.5,0.3-0.7l0,0l0,0l-0.4,0.9l0,0.1l0.2-0.5l0.2-0.3l0.1,0.1l0,0l-0.4,0.8c0.1,0.1,0.1,0.2,0.2,0.3l0.3-1
						c0,0,0,0,0-0.1c0.1-0.1,0.1-0.2,0.2-0.2l0.2,0.3c0.1-0.4,0.3-1,0.5-1.4l-0.1-0.1l0.1-0.2l0.1-0.2l0.1,0.1l0.2-0.3l-0.1-0.1
						l0.1-0.2l0.1-0.2l0.1,0.1l0.4-0.6l0.2-0.3c0,0,0,0,0,0l0,0.1l-0.4,0.6l0.5-0.6l0.2-0.1l-0.1,0.2l-0.7,0.9l-0.2,0.3l0.4-0.5
						l0.2-0.1L-15-12l-0.6,0.8c-0.2,0.4-0.4,1-0.5,1.4l0.7-1.1l0,0c0,0,0,0,0.1,0c0,0,0.1,0,0.1,0l-0.3,1c0.3-0.4,0.7-1,1-1.5
						l0.2-0.7l0,0l0.2-0.2l0.1,0.1l-0.1,0.4l0.3-0.3l0.3-0.8l0,0l0.2-0.2l0.1,0l0,0.1l-0.2,0.5l0.6-0.6l0.2-0.1l-0.1,0.2l-0.6,0.6
						l0.6-0.2l0.1,0.1l0,0l-0.3,0.2l-0.8,0.3l-0.3,0.3l0.3-0.2l0,0.1l0,0l-0.1,0.3l-0.6,0.3c-0.3,0.4-0.7,1-1,1.5l0.8-0.5l0,0
						c0,0.1,0,0.1-0.8,1.4c0.4-0.2,0.9-0.5,1.3-0.7l0.6-0.9l0.2-0.1l0,0.3l-0.4,0.5l0.3-0.1l0.7-0.9l0.2-0.1l0,0.3l-0.4,0.6l0.7-0.3
						l0.2,0.1l-0.2,0.3L-13-9.9l0.3,0.3l0,0.3l-0.2,0.1l-0.5-0.5l-0.3,0.1l0.3,0.3l0,0.3l-0.2,0.1l-0.4-0.4
						c-0.4,0.2-0.9,0.5-1.3,0.7l0.6,0.4l0,0.1c0,0.1,0,0.2-0.1,0.3l-0.8,0.5c0.2,0.2,0.5,0.4,0.8,0.6l0.8-0.4L-14-7v0l-0.2,0.3
						l-0.5,0.3l0.2,0.2l0.6-0.5L-14-6.6v0l0.1,0.3L-14.3-6l0.5,0.4l0.1,0.3l-0.2,0.1l-0.5-0.4l0,0.7l-0.3,0.3l-0.3-0.1v0l0.1-1.1
						L-15-6l0,0.6l-0.4,0.3l-0.4-0.1v0l0.4-0.9c-0.2-0.2-0.4-0.4-0.4-0.6v1.2c0,0-0.1,0-0.1,0.1c-0.1,0.1-0.1,0.2-0.2,0.2l-0.5-0.5
						c0,0.5,0,1.1,0,1.6l0.5,0.3l0,0.3l-0.2,0.1l-0.3-0.2l0,0.4L-16-3l0.1,0.1l0,0.2l-0.2,0.1l-0.4-0.2l0.2,0.8l-0.1,0.3l0,0
						l-0.2-0.1l-0.1-0.8l-0.2,0.7l-0.2,0.1l0-0.3l0.3-1l0-0.4L-17-3l-0.2,0.1l0-0.3l0.3-0.9c0-0.5-0.1-1.1-0.1-1.6l-0.4,1.2l0,0
						c0,0,0,0-0.1,0.1c0,0,0,0-0.1,0c0,0,0,0,0,0l0-1.1c-0.2,0.5-0.4,1.2-0.5,1.7L-18-3l0,0L-18-2.7l-0.1-0.1l0-0.5l-0.1,0.4l0.1,1
						l0,0l0,0.3l-0.1-0.1l-0.1-0.6l-0.1,0.8l-0.1,0.2l0-0.3l0.1-0.8l-0.1,0.3l0.1-0.1v0l-0.1-0.3l0.3-0.5l0.1-0.4l-0.2,0.3l0-0.1v0
						l0-0.3l0.3-0.5c0.2-0.5,0.3-1.2,0.5-1.7L-18.2-5c0,0,0,0,0,0c0-0.3,0-0.1,0-0.3l0.5-1.3c-0.2,0.3-0.5,0.7-0.7,1l-0.3,1
						l-0.1,0.2l0-0.2l0.2-0.6L-18.7-5l-0.2,1.1L-19-3.7l0-0.2l0.2-0.7L-19-4.2l0,0l0.1-0.3l0.2-0.5l0-0.2l0.1-0.3l0.1-0.2l0,0.2
						l0.1-0.2l0-0.1l0.1-0.3l0.1-0.2l0.1,0.2c0.2-0.3,0.4-0.7,0.7-1l-0.2-0.2l0,0c0-0.1,0-0.2,0.1-0.3l0.5-0.7
						c-0.1-0.1-0.2-0.2-0.2-0.3l-0.2,0.6l0.1,0v0l0-0.3l0.1-0.4l0-0.1l-0.3,0.5c0.1-0.2,0.1-0.4,0.2-0.6l0,0l0.1,0
						c0-0.1,0.1-0.2,0.2-0.3c0,0,0.1-0.1,0.1-0.1l0,0L-17.3-9.4"/>
				</g>
				
					<radialGradient id="XMLID_318_" cx="5095.7354" cy="3040.8618" r="25.7092" gradientTransform="matrix(0.8697 0.4935 -0.4935 0.8697 -2931.928 -5161.8618)" gradientUnits="userSpaceOnUse">
					<stop  offset="0" style="stop-color:#FFFFFF"/>
					<stop  offset="7.371488e-02" style="stop-color:#F9F9F9;stop-opacity:0.9073"/>
					<stop  offset="0.1733" style="stop-color:#E8E8E8;stop-opacity:0.7821"/>
					<stop  offset="0.2878" style="stop-color:#CBCBCB;stop-opacity:0.6382"/>
					<stop  offset="0.4134" style="stop-color:#A4A4A4;stop-opacity:0.4804"/>
					<stop  offset="0.548" style="stop-color:#717171;stop-opacity:0.3112"/>
					<stop  offset="0.6879" style="stop-color:#343434;stop-opacity:0.1354"/>
					<stop  offset="0.7956" style="stop-color:#000000;stop-opacity:0"/>
					<stop  offset="1" style="stop-color:#B2A4A4"/>
				</radialGradient>
				<path id="XMLID_00000119837809816491791850000015307354222202164100_" class="st8" d="M16.7,9.3c5.3-9.4,2-21.3-7.3-26.6
					c-9.4-5.3-21.3-2-26.6,7.3c-5.3,9.4-2,21.3,7.3,26.6C-0.5,22,11.4,18.7,16.7,9.3z"/>
				<g id="XMLID_00000066512834084354841970000008920955221248117438_" class="st6">
					<path id="XMLID_00000027588925956323449640000002191014653812969405_" class="st7" d="M-3.5-18.9l0.1-0.1l0.4,0l0.2-0.1l0.1,0
						c-0.3,0-0.6-0.1-0.8-0.1l0.5,0l0.2-0.1l0.1,0c-0.3,0-0.8,0-1.1,0l0.9-0.1l0.3,0l0,0c-0.4,0-0.9,0.1-1.2,0.1l-0.2-0.1l1.1-0.2
						c0.2,0,0.4,0,0.6,0.1l0.2,0l0.1,0l-0.4,0c0.4,0,0.9,0,1.2,0l0.2,0l0.1,0l-0.2,0c0.3,0,0.8,0,1.1,0l0.2,0l0.1,0l-0.3,0l0.5,0
						l0.2,0l-0.1,0c-0.5,0-1.1,0-1.6,0l0.6,0l0.2,0l-0.1,0c-0.6,0-1.4,0.1-2,0.1l1.1-0.1l0.2,0l-0.1,0c-0.5,0.1-1.3,0.1-1.8,0.2
						L-4-19.5l1.4-0.2c0.4,0,1-0.1,1.5-0.1l0.3,0l-0.1,0l-1,0c0.6,0,1.5-0.1,2.1-0.1l0.1,0l-0.1,0l-0.6,0c0.5,0,1.2,0,1.8,0.1l0.1,0
						l-0.1,0l-0.6,0l0.5,0l-0.1,0c-0.5,0-1.2-0.1-1.8,0l0.5,0.1l0,0.1h0c-0.6,0-1.4,0-2.1,0l0.9,0l0,0h0l-0.3-0.1
						c-0.4,0-0.9,0.1-1.3,0.1l-1.4,0.2l0.9-0.2c0.5-0.1,1.2-0.2,1.7-0.2l0.2,0l-0.1,0l-1.3,0.1l0.6-0.1c-0.1,0-0.2,0-0.3,0
						c-0.2,0-0.4,0-0.6,0.1l-0.1,0h0c-0.1,0-0.3,0.1-0.4,0.1l-0.1,0l-0.9,0.2l-0.1,0l0.2,0c-0.3,0.1-0.6,0.1-0.8,0.2l0.3-0.1l0.1,0
						l-1.1,0.3l-0.2,0c-0.1,0-0.2,0.1-0.4,0.1l0.1,0l-0.2,0.1c-0.5,0.2-1,0.4-1.5,0.6c0.4-0.2,1-0.4,1.5-0.6l-1.1,0.4l-0.2,0.1
						l0.1,0c0.5-0.2,1.2-0.5,1.7-0.6l1.1-0.3l-1.4,0.4c-0.4,0.1-1,0.3-1.4,0.5l-0.3,0.1l0,0l1-0.4c-0.6,0.3-1.4,0.6-2,0.9l0.1,0
						l0.5-0.2c-0.5,0.3-1.2,0.6-1.6,0.9l0.1,0l0.5-0.3l-0.4,0.3l0.1,0c0.4-0.3,1-0.6,1.5-0.9l-0.4,0.2l0,0l0,0
						c0.5-0.3,1.3-0.7,1.8-0.9l-0.7,0.4l0,0l0,0l0.2-0.1c0.3-0.2,0.8-0.4,1.1-0.5l1.4-0.4l-0.8,0.3c-0.5,0.2-1.1,0.4-1.5,0.6
						l-0.1,0.1l0.1,0l1.2-0.5c-0.5,0.2-1.1,0.5-1.5,0.8l0,0l0.1,0l0.7-0.3c-0.3,0.2-0.8,0.5-1.1,0.7l0,0l0.1,0l0.6-0.3l0.1,0.1
						l0.1,0l0.1-0.1c0.1-0.2,0.3-0.4,0.4-0.5l0.1,0.1l0.1,0c0.2-0.2,0.4-0.4,0.5-0.5l0.2,0.1l0.1,0l0.2-0.1c0-0.1-0.1-0.1-0.1-0.2
						l0.8-0.3l0.2,0.1c-0.2,0.1-0.5,0.2-0.7,0.4l0.1,0l0,0l0.3-0.1l0.4-0.3c0,0.1-0.1,0.2-0.1,0.4l0,0l0.2-0.1l0.2-0.1
						c0,0.1,0.1,0.2,0.1,0.3l0,0L-3.5-18.9"/>
					<path id="XMLID_00000006696898898243153220000016776182721560418692_" class="st7" d="M5.8-13.1l-0.2-0.3l0.4,0l0.1-0.1l0-0.1
						c-0.4-0.1-0.9-0.2-1.2-0.3l0.5,0l0.1-0.1l0-0.1c-0.5-0.1-1.1-0.2-1.5-0.2l0.9-0.1l0.1-0.1l-0.1-0.1c-0.4,0-0.9,0.1-1.3,0.1
						l-0.9-0.4l1.1-0.2c0.3,0.1,0.8,0.2,1.2,0.4L5-15l-0.1-0.1l-0.7-0.2c0.4,0,1,0.1,1.4,0.1l0.1-0.1l-0.1-0.1l-0.4-0.1
						c0.3,0,0.8,0,1.1,0l0.1-0.1v-0.1l-0.4-0.1L6.4-16l0-0.1l-0.1,0c-0.3,0.1-0.7,0.3-1,0.4L5.6-16l0-0.1l-0.1,0
						c-0.4,0.2-0.9,0.4-1.3,0.5L4.9-16l0-0.1l-0.1,0C4.4-16,4-15.7,3.7-15.5l-1.1,0.2l0.8-0.6c0.4-0.1,0.9-0.2,1.2-0.3l0.1-0.1
						l-0.1-0.1l-0.8,0.2c0.4-0.2,1-0.4,1.4-0.5l0-0.1l-0.1,0l-0.4,0.1c0.3-0.1,0.7-0.3,1.1-0.4l0,0l-0.1,0l-0.4,0.1l0.1-0.2l-0.1,0
						C5-17.3,4.6-17,4.4-16.9l0.1-0.2l-0.1-0.1l0,0c-0.3,0.2-0.6,0.6-0.9,0.8l0.2-0.6l-0.1-0.2h0l-0.2,0.2c-0.1,0.2-0.2,0.6-0.3,0.8
						l-0.8,0.7l0-0.7c0.3-0.2,0.6-0.5,0.9-0.7l0-0.1l-0.1,0l-0.7,0.5c0.2-0.3,0.5-0.6,0.7-0.9l-0.1,0l-0.5,0.2
						c0.2-0.2,0.4-0.5,0.5-0.6l-0.1,0l-0.4,0.2l-0.2-0.2l-0.1,0l-0.1,0c0,0.2,0.1,0.4,0.1,0.6l-0.3-0.2l-0.1,0l-0.1,0.1
						C1.9-17,2-16.6,2.1-16.4l-0.6-0.4l-0.1,0l-0.1,0.1c0.2,0.2,0.5,0.4,0.7,0.5l0,0.7l-0.8-0.4c0-0.2-0.1-0.6-0.1-0.8L1-16.6l0,0
						l-0.2,0.1l0.1,0.5c-0.2-0.2-0.5-0.6-0.7-0.8l0,0l-0.2,0.1l0,0.3c-0.2-0.2-0.4-0.4-0.6-0.6l-0.2,0.1l0,0.3l-0.5,0l-0.2,0.1
						l0,0.1c0.4,0.1,0.8,0.2,1.2,0.2l-0.5,0L-1-16c0.5,0.1,1.1,0.2,1.6,0.3l-1,0.1l-0.2,0.1l0.1,0.1c0.4,0,1-0.1,1.4-0.1l0.8,0.4
						l-1.2,0.2c-0.4-0.1-0.9-0.3-1.3-0.4l-0.1,0.1l0,0.1L0-14.8c-0.5,0-1.2,0-1.7-0.1l-0.2,0.1l0,0.2l0.4,0.1c-0.4,0-1,0-1.5,0
						L-3-14.4l0.1,0.2l0.4,0.1L-3-13.7l0,0.1l0.2,0c0.4-0.2,1-0.5,1.5-0.6L-1.8-14l0,0.2l0.2,0c0.5-0.3,1.2-0.6,1.7-0.8L-0.8-14
						l0,0.2l0.2,0c0.4-0.3,0.9-0.7,1.3-0.9l1.2-0.2L1-14.1c-0.4,0.1-1,0.3-1.4,0.5l-0.1,0.2l0.2,0.1l1-0.3c-0.5,0.3-1.1,0.8-1.6,1.1
						l0.2,0.1l0.5-0.2c-0.4,0.3-0.9,0.8-1.3,1.1l0.2,0.1l0.5-0.3l0,0.6l0.2,0c0.2-0.4,0.5-1,0.7-1.4l0,0.4L0.1-12l0,0
						c0.2-0.5,0.5-1.1,0.7-1.6l0,0.8L1-12.7l0,0l0.2-0.2c0-0.3,0-0.8,0.1-1.2l0.8-0.8l0.1,0.9c-0.2,0.3-0.5,0.8-0.7,1.1l0.1,0.2
						l0.1,0l0.6-0.9C2.1-13,2-12.3,1.9-11.9L2-11.7h0.1l0.3-0.6c0,0.4-0.1,0.9-0.1,1.3L2.5-11l0.1,0l0.3-0.6l0.5,0.3l0.1,0l0.1-0.1
						c-0.2-0.3-0.5-0.8-0.7-1.1l0.5,0.3l0.1,0c-0.2-0.4-0.6-0.9-0.8-1.3l0.8,0.5l0.1-0.1l0-0.2c-0.3-0.2-0.7-0.5-1-0.7l-0.1-0.9
						l0.9,0.4c0.1,0.3,0.3,0.7,0.4,1l0.2,0.1l0,0L4-13.5l-0.3-0.7c0.3,0.3,0.7,0.7,1.1,1l0,0l0.1-0.2l-0.2-0.3
						c0.3,0.2,0.7,0.6,1,0.8l0,0L5.8-13.1"/>
					<path id="XMLID_00000124159196331881973370000003194208833062209205_" class="st7" d="M16.7-6.9l-0.2-0.3l0.1-0.2l0-0.2
						l-0.1-0.1c-0.1,0.1-0.3,0.1-0.5,0.2l0.1-0.2l0-0.2l-0.1-0.1c-0.2,0.1-0.4,0.2-0.6,0.3l0.2-0.5l0-0.2l-0.1-0.1
						c-0.1,0.2-0.2,0.5-0.3,0.6l-0.6-0.3l0.3-0.7c0.2,0,0.4,0,0.6,0l0-0.1l-0.1-0.2l-0.4,0c0.1-0.1,0.3-0.3,0.4-0.5l0-0.1L15.3-10
						l-0.1,0c0.1-0.1,0.1-0.3,0.2-0.5l-0.1-0.2l-0.1-0.1l-0.1,0l-0.1-0.4l-0.1-0.2l0,0c0.1,0.3,0.2,0.7,0.2,1.1l-0.1-0.4L14.7-11
						l0,0c0.1,0.4,0.1,1,0.2,1.4l-0.2-0.9l-0.1-0.2l0,0c0.1,0.4,0.2,1,0.2,1.4l-0.3,0.7l-0.2-1.2c0-0.3,0.1-0.6,0.1-0.9l-0.1-0.2
						l-0.1,0l-0.1,0.6c-0.1-0.4-0.1-1-0.2-1.4l-0.1-0.1l-0.1,0l0,0.3c-0.1-0.4-0.2-0.8-0.3-1.2l-0.1-0.1l-0.1,0l0.1,0.3l-0.3-0.5
						l0,0c0.2,0.4,0.4,0.9,0.6,1.3L13.5-12l-0.1-0.1l0,0c0.2,0.5,0.5,1.2,0.6,1.7l-0.6-0.9l-0.3-0.2l0,0l0.2,0.3
						c0.2,0.4,0.5,0.9,0.7,1.3l0.2,1.2l-0.5-1c-0.1-0.4-0.2-0.9-0.3-1.4l-0.1-0.2l0,0l0.2,1c-0.2-0.5-0.5-1.2-0.7-1.7l0,0l0.1,0.6
						c-0.2-0.4-0.4-0.9-0.6-1.3l0,0l0.1,0.5l-0.3-0.2l0,0.1l0,0.1c0.2,0.3,0.5,0.7,0.7,0.9l-0.3-0.2l0,0.1l0,0.1
						c0.3,0.3,0.6,0.8,0.9,1.1l-0.6-0.4l0,0.1l0.1,0.2c0.2,0.2,0.6,0.4,0.8,0.6l0.5,1.1l-0.7-0.3c-0.2-0.3-0.5-0.8-0.7-1.1l-0.1,0
						l0,0l0,0.2l0.5,0.8c-0.3-0.3-0.8-0.7-1.1-1l0,0l0,0.2l0.3,0.4c-0.3-0.2-0.7-0.5-0.9-0.8l0,0.1l0.3,0.5l-0.3,0.1l0,0.2l0.1,0.1
						c0.3,0,0.7,0.1,1,0.1L12-8.9l0,0.2c0.4,0,0.8,0,1.2,0.1l-0.5,0.3l0,0.2l0.2,0.1c0.2-0.2,0.5-0.3,0.7-0.5l0.7,0.3l-0.5,0.6
						c-0.3-0.1-0.7-0.1-1-0.2l0,0.1l0,0.1l0.7,0.2c-0.3,0.1-0.8,0.2-1.1,0.3l-0.1,0.1l0.1,0.2l0.4,0.1c-0.3,0.1-0.7,0.2-1,0.3
						L11.7-6l0.1,0.2l0.4,0L12-5.2L12-5.1l0.1,0c0.2-0.3,0.5-0.7,0.7-1.1l-0.1,0.5l0.1,0.3l0.1,0c0.2-0.4,0.5-1,0.7-1.4l-0.2,1
						l0.1,0.3l0.1,0c0.1-0.5,0.2-1.1,0.2-1.5l0.5-0.6l0,1.3c-0.2,0.3-0.4,0.7-0.6,1l0,0.3l0.2,0.1l0.4-0.7c-0.1,0.5-0.3,1.3-0.5,1.8
						l0.1,0l0.2-0.4C14.2-4,14-3.4,13.9-2.9l0.1,0l0.2-0.4l0.2,0.6l0.1,0c0-0.5,0-1.2,0-1.8l0.1,0.5l0.1,0.1l0,0
						c-0.1-0.6-0.1-1.5-0.2-2.1l0.3,1L15-4.7l0,0l0-0.2c-0.1-0.4-0.3-1-0.5-1.5l-0.1-1.3L15-6.6c0,0.5,0.1,1.1,0.2,1.6l0.1,0.2
						l0.1,0l-0.1-1.2c0.1,0.6,0.3,1.4,0.5,2L15.8-4l0,0l0-0.7c0.1,0.5,0.3,1.1,0.4,1.6l0.1,0.1l0,0l0-0.7l0.3,0.2l0-0.1l0-0.2
						c-0.2-0.3-0.5-0.8-0.7-1.1l0.3,0.2l0-0.1c-0.3-0.4-0.6-1-0.9-1.4L16-5.9L16-6l-0.1-0.2c-0.2-0.2-0.5-0.4-0.7-0.6l-0.5-1.1
						l0.6,0.3c0.2,0.3,0.5,0.8,0.7,1.2l0.1,0l0,0l0-0.3l-0.4-0.8c0.3,0.3,0.6,0.6,0.9,0.9l0,0l-0.1-0.3l-0.2-0.4
						c0.2,0.2,0.5,0.4,0.7,0.6l0,0L16.7-6.9"/>
					<path id="XMLID_00000135658033938454509520000003980179353800827014_" class="st7" d="M-18.2,4l-0.2-0.3l0.1-0.3l0-0.2l0-0.1
						c-0.1,0.1-0.3,0.2-0.3,0.3l0.1-0.3l0-0.3l0-0.1c-0.1,0.2-0.2,0.4-0.3,0.6l0.1-0.6l0-0.3L-19,2.3c0,0.3-0.1,0.7-0.1,0.9l-0.2,0
						l-0.1-1c0.1-0.1,0.2-0.2,0.2-0.2l0-0.2l-0.1-0.2l-0.2,0.1c0.1-0.2,0.2-0.6,0.3-0.8l0-0.2L-19,0.6l-0.1,0.1
						c0.1-0.2,0.2-0.5,0.3-0.7l0-0.2l0-0.1L-19-0.3l0.1-0.5l0-0.3l0,0c-0.1,0.4-0.2,1-0.2,1.4l0-0.6l0-0.3l0,0
						c0,0.6-0.1,1.3-0.1,1.9l0-1.1l0-0.2l0,0.1c0,0.5,0,1.3,0.1,1.8l0,1l-0.2-1.4c0-0.4,0-1,0-1.4l0-0.3l0,0l0,1c0-0.6,0-1.4,0.1-2
						l0-0.1l0,0l-0.1,0.5c0-0.5,0.1-1.2,0.2-1.7l0-0.1l0,0L-19.5-2l0-0.6l0,0.1c0,0.5-0.1,1.3-0.1,1.8l0-0.5l0-0.1l0,0
						c0,0.6,0,1.5,0.1,2.1l0.1-0.9l0.1,0v0l-0.1,0.3c0,0.4,0,0.9,0.1,1.3l0.2,1.4l-0.2-1c0-0.5,0-1.2,0-1.7l0.1-0.2v0.1l-0.1,1.3
						l-0.1-0.6c0,0.3,0.1,0.6,0.1,0.9l0.1,0.1v0c0,0-0.1,0-0.1,0c0,0.1,0,0.3,0,0.4l0,0.1l0.2,1l0,0.1l0-0.2
						c0.1,0.3,0.1,0.6,0.2,0.8l-0.1-0.3l0-0.1l0.2,1l0,0.2c0,0.1,0.1,0.2,0.1,0.4l0-0.1l0.1,0.2c0.2,0.5,0.3,1.1,0.6,1.6
						c-0.2-0.4-0.4-1-0.5-1.5l0.4,1.1l0.1,0.2l0-0.1c-0.2-0.5-0.4-1.2-0.6-1.7l-0.2-1l0.4,1.4c0.1,0.4,0.3,0.9,0.4,1.3l0.1,0.3l0,0
						L-18.6,6c0.2,0.6,0.5,1.4,0.8,2l0,0L-18,7.5c0.2,0.5,0.5,1.2,0.8,1.7l0,0l-0.2-0.5l0.3,0.5l0,0C-17.4,8.6-17.7,8-18,7.5
						l0.2,0.4l0,0.1l0,0c-0.3-0.6-0.6-1.4-0.8-2l0.4,0.9l0,0l0,0l-0.1-0.3c-0.2-0.4-0.4-0.9-0.5-1.3l-0.4-1.4l0.3,1
						c0.2,0.5,0.4,1.1,0.5,1.6l0.1,0.2l0-0.1l-0.4-1.2c0.2,0.5,0.5,1.3,0.7,1.8l0,0l0,0l-0.3-0.7c0.2,0.4,0.5,1,0.7,1.4l0,0l0,0
						l-0.3-0.7l0.1,0.1l0-0.1l-0.1-0.1c-0.2-0.3-0.4-0.6-0.5-0.9l0.1,0.1l0-0.1c-0.2-0.3-0.4-0.8-0.6-1.1l0.2,0.2l0-0.1l-0.1-0.2
						c-0.1-0.1-0.2-0.2-0.3-0.3l-0.3-1l0.2,0c0.1,0.3,0.3,0.7,0.4,1l0,0l0,0l-0.1-0.3l-0.3-0.7c0.1,0.2,0.5,0.5,0.5,0.7v0l0-0.3
						l-0.1-0.3c0.1,0.2,0.3,0.4,0.5,0.5l0,0L-18.2,4"/>
					<path id="XMLID_00000039102441997302952890000009918984449212615064_" class="st7" d="M-7.7,10.5L-8,10.1l0.4-0.1l0.1-0.2
						l0-0.1c-0.4-0.1-0.9-0.2-1.3-0.2l0.4-0.1l0.1-0.2l-0.1-0.1c-0.4,0-1-0.1-1.5-0.1L-9,8.8l0.1-0.2l-0.2-0.1
						c-0.3,0.1-0.8,0.2-1.1,0.3l-0.9-0.4l0.8-0.5C-9.9,8-9.4,8.1-9,8.2L-9,8.1l-0.1-0.2l-0.8-0.2c0.5,0,1.1-0.1,1.5-0.1l0.1-0.1
						l-0.1-0.2l-0.4-0.1C-8.4,7.1-7.9,7-7.5,7l0.1-0.1l0-0.1L-8,6.5l0.3-0.4l0-0.3l-0.2,0c-0.3,0.3-0.7,0.6-1,0.9l0.2-0.4l0-0.3
						l-0.2,0C-9.3,6.4-9.7,6.9-10,7.3l0.4-0.9l-0.1-0.3l-0.1,0c-0.2,0.4-0.4,1-0.6,1.4l-0.8,0.5l0.2-1.2c0.3-0.2,0.7-0.6,0.9-0.8
						l0-0.3l-0.2-0.1l-0.7,0.6c0.3-0.5,0.6-1.1,0.9-1.5l0-0.1l-0.2-0.1l-0.4,0.3c0.2-0.4,0.5-1,0.7-1.4l0-0.1l-0.2-0.1l-0.4,0.4
						l-0.1-0.7l-0.2,0c0,0.5-0.1,1.2-0.1,1.7L-11,4.3l-0.2-0.1l0,0c0,0.6,0,1.4,0,2.1l-0.3-1L-11.7,5l0,0l-0.1,0.2
						c0.1,0.4,0.3,1,0.4,1.5l-0.2,1.2L-12,6.8c0-0.5,0-1.1,0.1-1.5L-12,5.1l-0.1,0l-0.1,1.2c-0.1-0.6-0.3-1.4-0.4-2l-0.1,0l-0.1,0.7
						c-0.1-0.5-0.3-1.2-0.4-1.7l-0.1,0L-13.3,4l-0.4-0.3l0,0.1l0,0.2c0.2,0.4,0.6,0.9,0.8,1.2l-0.4-0.3l0,0.1l0,0.1
						c0.3,0.4,0.7,0.9,1,1.3l-0.8-0.5l0,0.1l0.1,0.2c0.3,0.2,0.7,0.5,1,0.7l0.5,1.1l-0.8-0.4c-0.2-0.4-0.5-0.8-0.7-1.2l-0.1-0.1l0,0
						l0,0.3l0.5,0.8c-0.3-0.3-0.8-0.8-1.1-1.1l0,0l0,0.3l0.3,0.4c-0.3-0.2-0.6-0.5-0.9-0.8l0,0.2l0.3,0.5l-0.2,0.2l0,0.2l0.1,0.1
						c0.2,0,0.6,0,0.8,0L-14,7.6l0,0.2c0.3,0,0.8,0,1.1,0l-0.5,0.3l0,0.2l0.1,0.1c0.2-0.1,0.5-0.3,0.7-0.5l0.8,0.4l-0.6,0.5
						c-0.3-0.1-0.6-0.1-0.9-0.2l0,0.1l0,0.1l0.6,0.2c-0.3,0.1-0.6,0.2-0.9,0.3l0,0.1l0.1,0.2l0.2,0c-0.2,0.1-0.4,0.2-0.5,0.3l0,0.1
						l0.1,0.2l0.2,0l0,0.3l0.1-0.1h0.1c0.1,0,0.1-0.5,0.2-0.7l0,0.5l0.1,0.3l0.1,0c0.1-0.4,0.2-0.8,0.3-1.2l-0.1,0.8l0.1,0.2l0.1,0
						c0-0.4,0.1-0.9,0.2-1.3l0.6-0.5l-0.1,1.1c-0.2,0.2-0.4,0.5-0.5,0.8l0,0.2l0.1,0l0.3-0.5c-0.1,0.4-0.2,0.9-0.3,1.3l0.1,0
						l0.1-0.3c0,0.3-0.1,0.8-0.1,1.1l0.1,0l0.1-0.3l0.2,0.4l0.1,0c-0.1-0.4-0.1-0.8-0.2-1.2l0.1,0.4l0.1,0.1l0,0
						c-0.1-0.5-0.2-1.1-0.3-1.6l0.3,0.8l0.1,0.1l0,0l0-0.2c-0.1-0.4-0.3-0.9-0.4-1.2l0.1-1.1l0.5,1.1c0,0.4,0,0.9,0,1.3l0.1,0.2
						l0.1,0l0.1-0.9c0.1,0.5,0.2,1.1,0.3,1.5l0.1,0.1l0.1,0l0.1-0.5c0.1,0.4,0.2,0.8,0.3,1.2l0.1,0.1l0.1,0l0.1-0.5l0.4,0.2l0,0
						l0-0.1c-0.2-0.3-0.5-0.7-0.7-1l0.4,0.3l0-0.1c-0.3-0.4-0.7-0.9-0.9-1.3l0.7,0.4l0.1-0.1l-0.1-0.2c-0.3-0.2-0.7-0.5-1-0.7
						l-0.5-1.1l0.9,0.4c0.2,0.3,0.5,0.8,0.7,1.2l0.2,0.1l0,0l0-0.2l-0.5-0.8c0.4,0.3,0.8,0.8,1.2,1.1l0,0l0-0.2l-0.2-0.4
						c0.3,0.3,0.8,0.6,1.1,0.9l0,0L-7.7,10.5"/>
					<path id="XMLID_00000027593553960328526240000015869355764133432214_" class="st7" d="M3.9,17l0-0.2l0.5,0l0.2-0.1l0-0.1
						c-0.3,0-0.8-0.1-1.1-0.1l0.5,0l0.2-0.1l0-0.1c-0.4,0-1-0.1-1.5-0.1l1-0.1L4,15.9l-0.1-0.1c-0.4,0-1,0.1-1.4,0.2l-0.7-0.3
						L3,15.5c0.3,0.1,0.8,0.2,1.1,0.3l0.2-0.1l0-0.1l-0.7-0.2c0.5,0,1.3,0,1.7,0l0.3-0.1v-0.1L5.2,15c0.4,0,0.9-0.1,1.3-0.1l0.1-0.1
						l0-0.1l-0.4-0.1l0.5-0.3l0.1-0.2l-0.1,0c-0.5,0.2-1.1,0.5-1.5,0.7l0.5-0.3l0.1-0.2l-0.1,0c-0.6,0.2-1.3,0.6-1.9,0.8l0.9-0.6
						l0.1-0.2l-0.1,0c-0.4,0.3-1,0.6-1.5,0.9l-1.3,0.2l1-0.7c0.5-0.1,1.1-0.3,1.5-0.5l0.2-0.2L4.4,14l-1.1,0.4
						c0.5-0.3,1.3-0.7,1.8-1l0-0.1L5,13.2l-0.6,0.2c0.4-0.3,1-0.7,1.4-1l0-0.1l-0.2,0l-0.5,0.3l0.1-0.5l-0.2,0
						c-0.3,0.4-0.6,0.9-0.9,1.3l0.1-0.4l-0.1-0.1l0,0c-0.3,0.4-0.7,1-1,1.5l0.2-0.7l-0.1-0.1l0,0L3,13.6c-0.1,0.3-0.2,0.7-0.3,1.1
						l-1,0.7l0.1-0.8c0.3-0.3,0.7-0.7,1-1l0-0.2l-0.1,0l-0.8,0.8c0.2-0.4,0.4-1,0.6-1.5l-0.1,0l-0.4,0.5c0.1-0.4,0.2-0.9,0.3-1.3
						l-0.1,0l-0.4,0.5l-0.4-0.3l-0.1,0L1,12.3c0.1,0.3,0.3,0.7,0.5,1L1,13l-0.1,0l-0.1,0.1c0.2,0.3,0.4,0.8,0.6,1.1l-0.7-0.4l-0.1,0
						l0,0.2c0.2,0.2,0.6,0.4,0.8,0.6l-0.1,0.8l-0.8-0.4c0-0.3-0.1-0.6-0.1-0.9l-0.2-0.1l0,0L0,14.3l0.1,0.6
						c-0.3-0.3-0.6-0.7-0.8-0.9l0,0l-0.1,0.2l0.1,0.3c-0.3-0.2-0.6-0.5-0.8-0.7l-0.1,0.1l0.1,0.4l-0.5,0l-0.2,0.1l0,0.1
						c0.4,0.1,0.9,0.2,1.2,0.3l-0.5,0l-0.2,0.1c0.5,0.1,1.1,0.2,1.6,0.3l-1,0.1l-0.2,0.1l0.1,0.1c0.4,0,1-0.1,1.4-0.1L1,15.6
						l-1.2,0.2c-0.3-0.1-0.8-0.3-1.2-0.3l-0.2,0l0,0.1l0.8,0.3c-0.5,0-1-0.1-1.5-0.1l-0.1,0.1l0,0.1l0.4,0.1c-0.4,0-0.9,0-1.2,0
						L-3.5,16l0,0.1l0.3,0.1l-0.5,0.2l0,0.1l0.1,0c0.4-0.1,0.9-0.2,1.3-0.3l-0.4,0.2l-0.1,0.1l0.1,0c0.5-0.1,1.2-0.3,1.7-0.4
						l-0.8,0.4l-0.1,0.1l0.1,0c0.4-0.2,1-0.4,1.4-0.6l1.2-0.2l-1,0.6c-0.4,0.1-1,0.2-1.4,0.2l-0.2,0.1l0.1,0.1l1-0.1
						c-0.5,0.2-1.2,0.4-1.8,0.5l0.1,0l0.5-0.1c-0.4,0.1-1,0.2-1.4,0.3l0.1,0l0.5,0l-0.3,0.2l0.1,0c0.4-0.1,0.8-0.3,1.2-0.4l-0.2-0.1
						l0.1-0.2h0c0.4,0,0.9-0.2,1.3-0.4L-0.8,17l0.1,0.1l0,0l0.2-0.1c0.2-0.2,0.4-0.4,0.6-0.6l1-0.6l-0.3,0.6C0.5,16.7,0,17-0.3,17.1
						l0,0.1l0.1,0l1-0.4c-0.3,0.2-0.8,0.5-1.1,0.7l0,0l0.1,0l0.6-0.2c-0.3,0.2-0.6,0.4-0.9,0.5l0,0l0.1,0l0.6-0.2l0.2,0.1l0.1,0
						l0.1,0c0-0.1,0.1-0.3,0.2-0.5l0.2,0.2l0.1,0c0-0.2,0.1-0.5,0.1-0.7l0.5,0.3l0.1,0l0.1-0.1c-0.2-0.1-0.4-0.3-0.6-0.4l0.3-0.6
						l0.7,0.3c0,0.2-0.1,0.5-0.2,0.7l0.1,0l0,0l0.2-0.1l0.1-0.5c0.1,0.2,0.3,0.5,0.4,0.7l0,0l0.2-0.1l0.1-0.2
						c0.1,0.1,0.3,0.3,0.4,0.5l0,0L3.9,17"/>
					<path id="XMLID_00000076564566677910901320000006086687955123224758_" class="st7" d="M-12-11.3l-0.8,1l-0.1,1l0.8-1L-12-11.3
						 M-12-10.1l-0.8,1l0.9-0.3l0.9-1L-12-10.1 M-13.2-10.2l-0.5-0.5l-0.2,1l0.6,0.5L-13.2-10.2 M-11.9-9l-0.9,0.3l0.7,0.6l1-0.3
						L-11.9-9 M-14.1-9.3L-15-8.9l0.6,0.4l0.8-0.3L-14.1-9.3 M-12.4-7.8l-0.7-0.6l0,1l0.7,0.6L-12.4-7.8 M-14.4-8.1L-15.2-7l0.8-0.4
						l0.7-1.1L-14.4-8.1 M-13.4-8.2l-0.7,1.1l0,1.1l0.7-1.1L-13.4-8.2 M-9-5.7l0,0.3l-0.3,0.1l-0.6-0.5l0,0.7l0.2,0.3L-9.5-5v0
						l-0.3-1.1l-0.6-0.2v0.6l-0.3,0.3l-0.2-0.2l0,0l0-1c-0.3-0.3-0.8-0.6-1.1-0.9l-0.1,1.2l0,0.1c-0.1,0.1-0.1,0.2-0.2,0.2l-0.7-0.7
						c0,0.5,0,1.2,0.1,1.8l0.7,0.5l0,0.3l-0.3,0.1L-13-4.4l0,0.4l0.8,0.5l0.1,0.3l-0.3,0.1l-0.5-0.3l0.2,0.6l-0.1,0c0,0,0,0,0,0
						l-0.2,0.1l-0.1-0.8l-0.4,0.7l-0.2,0.1l0-0.3l0.5-1l0-0.4l-0.3,0.5l-0.2,0.1l0-0.3l0.5-0.9c0-0.5-0.1-1.2-0.1-1.7l-0.6,1.2l0,0
						c-0.1,0.1-0.1,0.1-0.2,0l0-1.2c-0.3,0.5-0.6,1.1-0.8,1.6l0.1,0.9l0,0l-0.1,0.3L-15.4-4l-0.1-0.6l-0.2,0.4l0.1,1l0,0l-0.1,0.3
						h-0.1l-0.1-0.1l-0.1-0.7l-0.3,0.8l-0.2,0.1l0-0.3l0.3-0.8l-0.4,0.2l-0.1-0.1v0l0.1-0.3l0.7-0.3l0.2-0.4l-0.2,0.2l0.1-0.1v0
						L-15.9-5l0.5-0.3c0.2-0.5,0.5-1.1,0.8-1.6l-0.9,0.4l-0.1-0.1c-0.1-0.2-0.1-0.2,0.7-1.4c-0.4,0.2-0.9,0.5-1.2,0.7l-0.4,0.9
						l-0.2,0.1l0-0.3l0.3-0.6l-0.2,0.2l-0.4,1.1l-0.2,0.1l0-0.3l0.3-0.7l-0.4,0.4l-0.1-0.1l0.1-0.3l0.4-0.4l-0.2-0.3l0-0.3l0.2-0.1
						l0.3,0.4l0.2-0.2l-0.2-0.2l0-0.3l0.2-0.1l0.3,0.4c0.4-0.2,0.7-0.5,1-0.7l-0.8-0.4v-0.1c0-0.1,0.2-0.2,0.3-0.3l1-0.5
						c-0.2-0.2-0.4-0.4-0.6-0.6l-0.6,0.4l-0.1-0.1v0l0.2-0.3l0.4-0.3l-0.1-0.1L-16-10l-0.1-0.1l0,0l0.2-0.3l0.4-0.3l-0.2-0.2
						l0.1-0.2l0.2-0.1l0.2,0.2l0.2-0.6l0.2-0.2l0.1,0.1l0,0l-0.4,0.9l0.1,0.1l0.2-0.5l0.2-0.2l0.1,0.1l0,0l-0.3,0.8
						c0.2,0.2,0.4,0.4,0.6,0.6l0.2-1.1c0,0,0,0,0-0.1c0.1-0.1,0.1-0.1,0.3-0.2l0.5,0.5c0.1-0.4,0.2-1,0.4-1.5l-0.4-0.3l0.1-0.2
						l0.2-0.1l0.2,0.2l0-0.3l-0.5-0.3v-0.1l0.2-0.1l0.3-0.1l0.3,0.2l0.3-0.6l0.2-0.2c0,0,0,0,0,0l0.1,0.1l-0.3,0.6l0.6-0.5l0.2-0.1
						l-0.1,0.2l-0.9,0.7l-0.1,0.3l0.5-0.4l0.2-0.1l-0.1,0.2l-0.7,0.7c-0.1,0.4-0.3,1-0.4,1.4l0.9-1l0.1,0c0.1,0,0.1,0,0.2,0l-0.2,1
						c0.4-0.4,0.8-0.9,1.2-1.3l0.1-0.8v0l0.2-0.2l0.2,0.1l-0.1,0.5l0.3-0.3l0.2-0.8l0,0l0.2-0.2l0.1,0.1l-0.1,0.5l0.7-0.5l0.3,0
						l-0.1,0.2L-9.1-13l0.6-0.1l0.1,0.1l0,0l-0.2,0.2l-1,0.1l-0.3,0.3l0.5-0.1l0.1,0.1l0,0L-9.5-12l-0.9,0.1
						c-0.4,0.4-0.9,0.9-1.2,1.3l1.1-0.3c0,0,0,0,0,0c0.1,0,0.1,0.1,0,0.3l-1,1c0.5-0.1,1.2-0.3,1.7-0.4l0.7-0.8l0.3-0.1l0,0.3
						l-0.4,0.5l0.4-0.1L-8-11l0.3-0.1l0,0.3l-0.5,0.5l0.8-0.1l0.2,0.2L-7.4-10l-0.8,0.1l0.5,0.4l0,0.3l-0.3,0l-0.7-0.6l-0.4,0.1
						l0.4,0.3l0,0.3l-0.3,0l-0.6-0.5c-0.5,0.1-1.2,0.3-1.7,0.4l0.9,0.6l0,0.1c0,0.1,0,0.2-0.1,0.3l-1.1,0.3c0.3,0.3,0.8,0.6,1.1,0.9
						l0.9-0.3l0.2,0.2l0,0l-0.2,0.3l-0.6,0.2l0.3,0.2L-9-6.8l0.2,0.2l0,0l-0.2,0.3l-0.7,0.2L-9-5.7"/>
					<path id="XMLID_00000111162099138155273160000013106038659386041518_" class="st7" d="M3.6-2.4L2.9-1.4l0.2,1.2l0.8-1L3.6-2.4
						 M4.3-0.9l-0.7,1L4.6,0l0.9-1L4.3-0.9 M2.4-1.3L1.3-2.2L1.5-1l1.1,0.8L2.4-1.3 M4.7,0.4L3.6,0.6l1.1,0.8l1.2-0.2L4.7,0.4
						 M1.3-0.6L0-0.4l1.3,0.8l1.1-0.1L1.3-0.6 M4.4,1.7L3.3,0.9l0.2,1.2l1,0.8L4.4,1.7 M1.3,0.8l-0.9,1l1.3-0.1l0.8-1L1.3,0.8
						 M2.9,1L2.1,2l0.2,1.2l0.8-1.1L2.9,1 M8.6,4.3l0,0.3L8.3,4.6L7.6,4.1l0,0.8L7.6,5.1L7.5,5v0L7.3,3.8L6.9,3.5l0,0.6L6.7,4.4
						L6.6,4.2v0l-0.1-1C6,2.8,5.4,2.4,4.9,2.1l0.2,1.3c0,0,0,0,0,0.1C4.9,3.6,4.9,3.6,4.7,3.6L3.6,2.8c0.1,0.6,0.2,1.3,0.3,1.9
						l0.9,0.6l0.1,0.3L4.5,5.5L4,5.2L4,5.6L5,6.3l0,0.3L4.7,6.6L4.1,6.2l0.1,0.9L4,7.3L3.7,7.2L3.6,6.3L3.1,6.8l-0.3,0l0-0.3
						l0.8-0.8L3.5,5.3L3.1,5.7l-0.3,0l0-0.3l0.7-0.8C3.4,4.1,3.2,3.4,3.2,2.8L2.4,3.9l-0.1,0C2.1,4,2.1,3.9,2,3.8L1.7,2.5
						c-0.3,0.4-0.8,1-1.1,1.4l0.2,1l0,0L0.6,5.2L0.4,5L0.2,4.4L0,4.7l0.3,1.1l0,0L0,6.1l-0.2,0l-0.1-0.1l-0.2-0.7L-1,5.8l-0.3,0
						l-0.1-0.3l0.5-0.6l-0.8,0l-0.3-0.2l0,0l0.2-0.2l1.2,0l0.3-0.3l-0.7,0l-0.3-0.2l0,0l0.2-0.2l1.1,0c0.3-0.4,0.8-1,1.1-1.4
						l-1.4,0.1l-0.1-0.1C-0.4,2-0.4,2,0.6,0.9C0,1-0.8,1-1.4,1.1L-2,2l-0.3,0l-0.1-0.3l0.3-0.5l-0.5,0l-0.6,1l-0.3,0.1l-0.1-0.3
						l0.4-0.6l-0.9,0.1l-0.3-0.2l0.2-0.3l0.9-0.1l-0.6-0.5L-4,0l0.3,0l1,0.8l0.5,0l-0.5-0.4l0-0.3l0.3,0l0.9,0.7
						c0.6-0.1,1.5-0.1,2.1-0.2l-1.3-0.8l0-0.1c-0.1-0.2,0-0.2,0.1-0.4L0.7-1C0.3-1.3-0.4-1.8-0.9-2.2L-2-2l-0.3-0.2l0,0l0.2-0.3
						l0.7-0.1l-0.4-0.3l-1.2,0.2l-0.3-0.2l0,0l0.2-0.3l0.8-0.1l-0.8-0.6l-0.1-0.3l0.3,0l0.8,0.6l-0.1-0.8L-2-4.6l0.3,0.2l0,0
						l0.1,1.2l0.4,0.3l-0.1-0.6L-1-3.8l0.3,0.2l0,0l0.1,1.1C-0.1-2.2,0.5-1.7,1-1.3L0.8-2.7l0-0.1C0.9-2.9,1-2.9,1.2-2.9L2.3-2
						C2.2-2.5,2-3.3,1.9-3.9L1-4.5L0.9-4.8l0.3,0l0.6,0.4L1.7-4.9L0.6-5.6L0.5-5.8l0-0.2l0.3,0l0.7,0.4L1.4-6.3l0.2-0.2l0,0l0.3,0.2
						L2-5.5l0.5-0.5l0.3,0l0.1,0.3L2.2-4.9l0.1,0.4L2.7-5L3-5L3-4.6L2.4-3.9C2.5-3.3,2.7-2.6,2.8-2l0.7-1.1l0.1,0
						c0.2,0,0.2,0,0.4,0.1l0.3,1.3c0.3-0.4,0.7-1,1-1.4L5-4.1l0,0l0.2-0.2l0.3,0.2l0.2,0.6l0.2-0.3L5.5-5l0,0l0.2-0.2l0.3,0.2
						l0.2,0.7l0.4-0.7l0.3,0l0.1,0.3L6.5-4.1l0.7-0.1L7.4-4l0,0L7.3-3.7L6.2-3.6L5.9-3.3l0.6,0l0.3,0.2l0,0L6.6-2.9l-1,0.1
						c-0.3,0.4-0.7,1-1,1.4l1.3-0.2c0,0,0,0,0.1,0c0.2,0.1,0.1,0.2,0.1,0.4L5.3-0.1c0.6-0.1,1.3-0.2,1.9-0.3l0.5-0.9l0.3-0.1L8-1
						L7.7-0.5l0.4-0.1l0.5-1L9-1.6L9-1.3L8.7-0.7l0.8-0.2l0.2,0.2L9.6-0.4L8.8-0.2l0.6,0.5l0,0.3l-0.3,0L8.2-0.1L7.8-0.1l0.5,0.4
						l0,0.3L8,0.7L7.3,0C6.7,0.1,5.9,0.2,5.4,0.3l1.2,0.8l0,0.1c0,0.2,0,0.2-0.1,0.3L5.2,1.7c0.4,0.3,1,0.8,1.5,1.1l1-0.2l0.3,0.2
						l0,0L7.7,3L7.1,3.2l0.3,0.3l1.1-0.3l0.2,0.2l0,0L8.6,3.6L7.9,3.8L8.6,4.3"/>
					<path id="XMLID_00000105413084735222665760000003227950170633518013_" class="st7" d="M17.1,5.2l-0.5,1.2l-0.1,1L17,6.2
						L17.1,5.2 M17.1,6.4l-0.6,1.1L17.1,7l0.6-1.2L17.1,6.4 M16.4,6.6l-0.4-0.5l-0.1,1l0.4,0.4L16.4,6.6 M17,7.4l-0.5,0.5l0.3,0.3
						l0.5-0.6L17,7.4 M15.6,7.5L14.8,8l0.5,0.4L16,7.9L15.6,7.5 M16.5,8.6l-0.3-0.3L16,9.2l0.2,0.4L16.5,8.6 M15.3,8.7l-0.8,1.1
						l0.8-0.4l0.7-1.1L15.3,8.7 M16,8.5l-0.7,1.1L15,10.5l0.7-1.1L16,8.5 M16.7,9.5c-0.1,0.2-0.3,0.4-0.4,0.6l0,0l0,0l0.5-0.8l0-0.1
						l-0.2,0.5l-0.2,0.3l0-0.1l0,0l0.4-0.8c0-0.1-0.1-0.3-0.2-0.4l-0.4,1c0,0,0,0,0,0.1C16.1,9.9,16.1,10,16,10l-0.2-0.3
						c-0.2,0.4-0.4,1-0.6,1.4l0.1,0.1l-0.1,0.2l-0.2,0.2L15,11.5l-0.2,0.3l0.1,0.1l-0.1,0.2l-0.2,0.1l0-0.1l-0.4,0.6L14,13
						c0,0,0,0,0,0l0,0l0.4-0.6l-0.5,0.5L13.7,13l0.1-0.2l0.8-0.8l0.2-0.3l-0.4,0.5l-0.2,0.1l0.1-0.2l0.7-0.8
						c0.2-0.4,0.4-0.9,0.6-1.4L14.8,11l0,0c0,0,0,0-0.1,0c0,0,0,0-0.1,0l0.4-1c-0.3,0.4-0.8,1-1.1,1.4l-0.3,0.7l0,0l-0.2,0.2
						l-0.1-0.1l0.2-0.4l-0.3,0.3L12.8,13l0,0l-0.2,0.2l-0.1,0l0-0.1l0.2-0.5l-0.6,0.6l-0.2,0.1l0.1-0.2l0.6-0.6l-0.5,0.2L12,12.6
						l0,0l0.2-0.2l0.8-0.3l0.3-0.3L13,11.9l0-0.1l0,0l0.1-0.3l0.6-0.3c0.3-0.4,0.8-1,1.1-1.4L14,10.3l0,0c0-0.1,0-0.1,0.9-1.3
						c-0.4,0.2-0.9,0.5-1.3,0.6l-0.6,0.8l-0.2,0.1l0-0.2l0.4-0.5l-0.3,0.1l-0.7,0.9l-0.3,0.1l0-0.2l0.5-0.6l-0.7,0.2l-0.1-0.1
						l0.2-0.2l0.7-0.2l-0.3-0.3l0-0.3L12.4,9l0.5,0.5l0.3-0.1L13,9.2L13,8.9l0.2-0.1l0.4,0.4C14,9.1,14.6,8.8,15,8.6l-0.6-0.4l0-0.1
						c0-0.1,0-0.2,0.1-0.3l0.9-0.5c-0.2-0.2-0.5-0.5-0.7-0.7L13.9,7l-0.2-0.1l0,0l0.2-0.3l0.4-0.2l-0.2-0.2l-0.9,0.4l-0.2-0.1l0,0
						l0.2-0.3L13.9,6l-0.5-0.4l0-0.3l0.2-0.1l0.5,0.4l0-0.7l0.3-0.3l0.3,0.1v0l-0.1,1.1L14.7,6l0-0.6l0.1-0.3L15,5.3l0,0l-0.1,0.9
						c0.2,0.2,0.5,0.5,0.7,0.7l0.1-1.2c0,0,0,0,0-0.1c0.1-0.1,0.1-0.2,0.2-0.2L16.4,6c0-0.5,0.1-1.1,0.1-1.6L16,4.1l0-0.3l0.2-0.1
						l0.3,0.2l0-0.4l-0.5-0.4l-0.1-0.1l0-0.2L16,2.7l0.4,0.3l-0.1-0.8l0.1-0.3l0,0L16.6,2l0.1,0.8l0.2-0.7L17,2l0,0.3l-0.4,1l0,0.4
						l0.2-0.5L17.1,3l0,0.3l-0.4,0.9c0,0.5,0,1.1-0.1,1.6l0.5-1.2l0,0c0,0,0,0,0.1-0.1c0,0,0,0,0.1,0c0,0,0,0,0,0l-0.1,1.1
						c0.2-0.5,0.6-1.1,0.8-1.6l0.2-0.9v0l-0.1-0.3l0,0.1l0,0.5l0.1-0.4l0-1v0l0-0.3l0.1,0.1l0,0.6l0.2-0.8l0.1-0.2l0,0.3l-0.2,0.8
						l0.4-0.3l0.3,0.1v0l-0.3,0.3l-0.5,0.5l-0.2,0.4l0.1-0.3l-0.1,0.1v0l0,0.3l-0.3,0.4c-0.2,0.5-0.4,1.1-0.6,1.6l0.6-0.6
						c0,0,0,0,0,0c0.1,0,0,0.1,0,0.3l-0.5,1.2c0.2-0.3,0.5-0.6,0.7-0.9l0.3-1l0.1-0.2l0,0.2l-0.2,0.6l0.1-0.2l0.3-1.1L18.8,4l0,0.2
						l-0.2,0.7l0.2-0.5l0,0l-0.1,0.3l-0.2,0.5l0,0.2l-0.1,0.3l-0.1,0.2l0-0.2l-0.1,0.2l0,0.1l-0.1,0.3l-0.1,0.2L18,6.2
						c-0.2,0.3-0.5,0.7-0.7,0.9l0.2,0.2l0,0c0,0.1,0,0.1-0.1,0.3l-0.5,0.6C16.9,8.4,17,8.6,17,8.7l0.4-0.6l0,0l0,0l-0.1,0.3L17,8.8
						l0,0.1l0.2-0.5c-0.1,0.2-0.2,0.3-0.3,0.5l0,0l0.1,0c-0.1,0.1-0.1,0.2-0.1,0.3c0,0,0,0.1-0.1,0.1l0,0L16.7,9.5"/>
				</g>
			</g>
			<g id="XMLID_00000180345216306954671280000002264583703345628810_">
				<defs>
					<path id="XMLID_00000066516297211380736480000006836464279393057936_" d="M16.7,9.3c5.3-9.4,2-21.3-7.3-26.6
						c-9.4-5.3-21.3-2-26.6,7.3c-5.3,9.4-2,21.3,7.3,26.6C-0.5,22,11.4,18.7,16.7,9.3z"/>
				</defs>
				
					<radialGradient id="XMLID_319_" cx="5094.6895" cy="3046.2354" r="27.746" fx="5090.7051" fy="3046.1189" gradientTransform="matrix(0.8697 0.4935 -0.4935 0.8697 -2931.928 -5161.8618)" gradientUnits="userSpaceOnUse">
					<stop  offset="0" style="stop-color:#FFFFFF"/>
					<stop  offset="0.497" style="stop-color:#9B8254"/>
					<stop  offset="0.7556" style="stop-color:#6A4400"/>
					<stop  offset="0.948" style="stop-color:#FBE2A9"/>
				</radialGradient>
				
					<use xlink:href="#XMLID_00000066516297211380736480000006836464279393057936_"  style="overflow:visible;opacity:0.5;fill:url(#XMLID_319_);"/>
				<clipPath id="XMLID_320_">
					<use xlink:href="#XMLID_00000066516297211380736480000006836464279393057936_"  style="overflow:visible;opacity:0.5;"/>
				</clipPath>
				
					<radialGradient id="XMLID_321_" cx="5098.2773" cy="471.1749" r="6.0349" gradientTransform="matrix(0.8731 0.4875 -0.1414 0.2515 -4393.1973 -2588.0652)" gradientUnits="userSpaceOnUse">
					<stop  offset="0" style="stop-color:#824C00"/>
					<stop  offset="0.5778" style="stop-color:#824C00;stop-opacity:0"/>
					<stop  offset="0.7644" style="stop-color:#824C00;stop-opacity:0.5"/>
					<stop  offset="0.9939" style="stop-color:#824C00;stop-opacity:1.302645e-02"/>
					<stop  offset="1" style="stop-color:#824C00;stop-opacity:0"/>
				</radialGradient>
				<path id="XMLID_00000015351002857306764110000011663122835494271630_" class="st9" d="M-3.5,18.9C-3,18-5,15.9-8,14.2
					c-3-1.7-5.8-2.3-6.3-1.4c-0.5,0.9,1.5,3,4.5,4.7C-6.9,19.1-4.1,19.8-3.5,18.9z"/>
			</g>
		</g>
		<g id="XMLID_00000043423953570342417230000006369642904087536520_">
			<g id="XMLID_00000029016549166237692220000002597460910923939259_">
				<g id="XMLID_00000029026073018434521230000008028214768463630248_">
					<defs>
						<path id="XMLID_00000127024070650537337340000008563108923961237891_" d="M-7.4,19.6l-6.1-3.5l1.3-2.1l0,0c0,0,0,0,0,0
							c0-0.4,1.9,0.1,3.5,1c1.6,0.9,2.8,2,2.5,2.5l-0.1,0.2L-7.4,19.6z"/>
					</defs>
					
						<linearGradient id="XMLID_322_" gradientUnits="userSpaceOnUse" x1="5093.8662" y1="2335.9766" x2="5100.9448" y2="2335.9766" gradientTransform="matrix(0.8697 0.4935 -0.5274 0.9294 -3210.8911 -4670.2373)">
						<stop  offset="4.444440e-03" style="stop-color:#B98100"/>
						<stop  offset="0.2978" style="stop-color:#F1CD83"/>
						<stop  offset="0.5207" style="stop-color:#D0A95D"/>
						<stop  offset="1" style="stop-color:#815000"/>
					</linearGradient>
					
						<use xlink:href="#XMLID_00000127024070650537337340000008563108923961237891_"  style="overflow:visible;fill:url(#XMLID_322_);"/>
					<clipPath id="XMLID_391_">
						<use xlink:href="#XMLID_00000127024070650537337340000008563108923961237891_"  style="overflow:visible;"/>
					</clipPath>
					<g id="XMLID_00000125591011955997135240000011562562806620102833_" class="st10">
						<g>
							<g id="XMLID_36181_">
								
									<linearGradient id="SVGID_1_" gradientUnits="userSpaceOnUse" x1="5100.0278" y1="3061.3267" x2="5100.4087" y2="3061.3267" gradientTransform="matrix(0.8697 0.4935 -0.4935 0.8697 -2931.928 -5161.8618)">
									<stop  offset="4.444440e-03" style="stop-color:#A98D14"/>
									<stop  offset="5.101010e-02" style="stop-color:#A18612"/>
									<stop  offset="0.1732" style="stop-color:#927A0F"/>
									<stop  offset="0.3155" style="stop-color:#89720E"/>
									<stop  offset="0.5244" style="stop-color:#86700D"/>
									<stop  offset="0.6248" style="stop-color:#8B7512"/>
									<stop  offset="0.7504" style="stop-color:#988222"/>
									<stop  offset="0.8888" style="stop-color:#AE983B"/>
									<stop  offset="1" style="stop-color:#C5AE55"/>
								</linearGradient>
								<path class="st11" d="M-5.9,15.9c0,0-0.2,0-0.2,0c0,0,0.1-0.2,0.1-0.2c0,0,0,0.1,0,0.2c-0.3,0.6-0.5,0.4-0.9,1
									c-0.3,0.6-0.1,0.7-0.4,1.3c-0.3,0.6-0.6,0.4-0.9,1c0,0,0.2,0,0.2,0c0,0-0.1,0.2-0.1,0.2c0,0,0-0.1,0-0.2
									c0.3-0.6,0.5-0.4,0.9-1c0.3-0.6,0.1-0.7,0.4-1.3C-6.4,16.4-6.2,16.5-5.9,15.9z"/>
							</g>
							<g id="XMLID_36180_">
								
									<linearGradient id="SVGID_2_" gradientUnits="userSpaceOnUse" x1="5100.4321" y1="3061.3267" x2="5100.813" y2="3061.3267" gradientTransform="matrix(0.8697 0.4935 -0.4935 0.8697 -2931.928 -5161.8618)">
									<stop  offset="4.444440e-03" style="stop-color:#A98D14"/>
									<stop  offset="5.101010e-02" style="stop-color:#A18612"/>
									<stop  offset="0.1732" style="stop-color:#927A0F"/>
									<stop  offset="0.3155" style="stop-color:#89720E"/>
									<stop  offset="0.5244" style="stop-color:#86700D"/>
									<stop  offset="0.6248" style="stop-color:#8B7512"/>
									<stop  offset="0.7504" style="stop-color:#988222"/>
									<stop  offset="0.8888" style="stop-color:#AE983B"/>
									<stop  offset="1" style="stop-color:#C5AE55"/>
								</linearGradient>
								<path class="st12" d="M-5.5,16.1c0,0-0.2,0-0.2,0c0,0,0.1-0.2,0.1-0.2c0,0,0,0.1,0,0.2c-0.3,0.6-0.5,0.4-0.9,1
									c-0.3,0.6-0.1,0.7-0.4,1.3s-0.6,0.4-0.9,1c0,0,0.2,0,0.2,0c0,0-0.1,0.2-0.1,0.2c0,0,0-0.1,0-0.2c0.3-0.6,0.5-0.4,0.9-1
									c0.3-0.6,0.1-0.7,0.4-1.3C-6,16.6-5.8,16.7-5.5,16.1z"/>
							</g>
							<g id="XMLID_36179_">
								
									<linearGradient id="SVGID_3_" gradientUnits="userSpaceOnUse" x1="5093.9663" y1="3061.3267" x2="5094.3472" y2="3061.3267" gradientTransform="matrix(0.8697 0.4935 -0.4935 0.8697 -2931.928 -5161.8618)">
									<stop  offset="4.444440e-03" style="stop-color:#A98D14"/>
									<stop  offset="5.101010e-02" style="stop-color:#A18612"/>
									<stop  offset="0.1732" style="stop-color:#927A0F"/>
									<stop  offset="0.3155" style="stop-color:#89720E"/>
									<stop  offset="0.5244" style="stop-color:#86700D"/>
									<stop  offset="0.6248" style="stop-color:#8B7512"/>
									<stop  offset="0.7504" style="stop-color:#988222"/>
									<stop  offset="0.8888" style="stop-color:#AE983B"/>
									<stop  offset="1" style="stop-color:#C5AE55"/>
								</linearGradient>
								<path class="st13" d="M-11.2,12.9c0,0-0.2,0-0.2,0c0,0,0.1-0.2,0.1-0.2c0,0,0,0.1,0,0.2c-0.3,0.6-0.5,0.4-0.9,1
									c-0.3,0.6-0.1,0.7-0.4,1.3c-0.3,0.6-0.6,0.4-0.9,1c0,0,0.2,0,0.2,0c0,0-0.1,0.2-0.1,0.2s0-0.1,0-0.2c0.3-0.6,0.5-0.4,0.9-1
									c0.3-0.6,0.1-0.7,0.4-1.3C-11.7,13.4-11.5,13.5-11.2,12.9z"/>
							</g>
							<g id="XMLID_36178_">
								
									<linearGradient id="SVGID_4_" gradientUnits="userSpaceOnUse" x1="5094.3701" y1="3061.3267" x2="5094.7515" y2="3061.3267" gradientTransform="matrix(0.8697 0.4935 -0.4935 0.8697 -2931.928 -5161.8618)">
									<stop  offset="4.444440e-03" style="stop-color:#A98D14"/>
									<stop  offset="5.101010e-02" style="stop-color:#A18612"/>
									<stop  offset="0.1732" style="stop-color:#927A0F"/>
									<stop  offset="0.3155" style="stop-color:#89720E"/>
									<stop  offset="0.5244" style="stop-color:#86700D"/>
									<stop  offset="0.6248" style="stop-color:#8B7512"/>
									<stop  offset="0.7504" style="stop-color:#988222"/>
									<stop  offset="0.8888" style="stop-color:#AE983B"/>
									<stop  offset="1" style="stop-color:#C5AE55"/>
								</linearGradient>
								<path class="st14" d="M-10.8,13.1c0,0-0.2,0-0.2,0c0,0,0.1-0.2,0.1-0.2c0,0,0,0.1,0,0.2c-0.3,0.6-0.5,0.4-0.9,1
									c-0.3,0.6-0.1,0.7-0.4,1.3s-0.6,0.4-0.9,1c0,0,0.2,0,0.2,0c0,0-0.1,0.2-0.1,0.2c0,0,0-0.1,0-0.2c0.3-0.6,0.5-0.4,0.9-1
									c0.3-0.6,0.1-0.7,0.4-1.3C-11.3,13.6-11.1,13.7-10.8,13.1z"/>
							</g>
							<g id="XMLID_36177_">
								
									<linearGradient id="SVGID_5_" gradientUnits="userSpaceOnUse" x1="5094.7744" y1="3061.3267" x2="5095.1553" y2="3061.3267" gradientTransform="matrix(0.8697 0.4935 -0.4935 0.8697 -2931.928 -5161.8618)">
									<stop  offset="4.444440e-03" style="stop-color:#A98D14"/>
									<stop  offset="5.101010e-02" style="stop-color:#A18612"/>
									<stop  offset="0.1732" style="stop-color:#927A0F"/>
									<stop  offset="0.3155" style="stop-color:#89720E"/>
									<stop  offset="0.5244" style="stop-color:#86700D"/>
									<stop  offset="0.6248" style="stop-color:#8B7512"/>
									<stop  offset="0.7504" style="stop-color:#988222"/>
									<stop  offset="0.8888" style="stop-color:#AE983B"/>
									<stop  offset="1" style="stop-color:#C5AE55"/>
								</linearGradient>
								<path class="st15" d="M-10.5,13.3c0,0-0.2,0-0.2,0c0,0,0.1-0.2,0.1-0.2c0,0,0,0.1,0,0.2c-0.3,0.6-0.5,0.4-0.9,1
									c-0.3,0.6-0.1,0.7-0.4,1.3c-0.3,0.6-0.6,0.4-0.9,1c0,0,0.2,0,0.2,0c0,0-0.1,0.2-0.1,0.2c0,0,0-0.1,0-0.2
									c0.3-0.6,0.5-0.4,0.9-1c0.3-0.6,0.1-0.7,0.4-1.3C-11,13.8-10.8,13.9-10.5,13.3z"/>
							</g>
							<g id="XMLID_36176_">
								
									<linearGradient id="SVGID_6_" gradientUnits="userSpaceOnUse" x1="5095.1787" y1="3061.3267" x2="5095.5596" y2="3061.3267" gradientTransform="matrix(0.8697 0.4935 -0.4935 0.8697 -2931.928 -5161.8618)">
									<stop  offset="4.444440e-03" style="stop-color:#A98D14"/>
									<stop  offset="5.101010e-02" style="stop-color:#A18612"/>
									<stop  offset="0.1732" style="stop-color:#927A0F"/>
									<stop  offset="0.3155" style="stop-color:#89720E"/>
									<stop  offset="0.5244" style="stop-color:#86700D"/>
									<stop  offset="0.6248" style="stop-color:#8B7512"/>
									<stop  offset="0.7504" style="stop-color:#988222"/>
									<stop  offset="0.8888" style="stop-color:#AE983B"/>
									<stop  offset="1" style="stop-color:#C5AE55"/>
								</linearGradient>
								<path class="st16" d="M-10.1,13.5c0,0-0.2,0-0.2,0c0,0,0.1-0.2,0.1-0.2c0,0,0,0.1,0,0.2c-0.3,0.6-0.5,0.4-0.9,1
									c-0.3,0.6-0.1,0.7-0.4,1.3c-0.3,0.6-0.6,0.4-0.9,1c0,0,0.2,0,0.2,0c0,0-0.1,0.2-0.1,0.2s0-0.1,0-0.2c0.3-0.6,0.5-0.4,0.9-1
									c0.3-0.6,0.1-0.7,0.4-1.3C-10.6,14-10.4,14.1-10.1,13.5z"/>
							</g>
							<g id="XMLID_36175_">
								
									<linearGradient id="SVGID_7_" gradientUnits="userSpaceOnUse" x1="5095.5825" y1="3061.3267" x2="5095.9639" y2="3061.3267" gradientTransform="matrix(0.8697 0.4935 -0.4935 0.8697 -2931.928 -5161.8618)">
									<stop  offset="4.444440e-03" style="stop-color:#A98D14"/>
									<stop  offset="5.101010e-02" style="stop-color:#A18612"/>
									<stop  offset="0.1732" style="stop-color:#927A0F"/>
									<stop  offset="0.3155" style="stop-color:#89720E"/>
									<stop  offset="0.5244" style="stop-color:#86700D"/>
									<stop  offset="0.6248" style="stop-color:#8B7512"/>
									<stop  offset="0.7504" style="stop-color:#988222"/>
									<stop  offset="0.8888" style="stop-color:#AE983B"/>
									<stop  offset="1" style="stop-color:#C5AE55"/>
								</linearGradient>
								<path class="st17" d="M-9.8,13.7c0,0-0.2,0-0.2,0c0,0,0.1-0.2,0.1-0.2c0,0,0,0.1,0,0.2c-0.3,0.6-0.5,0.4-0.9,1
									c-0.3,0.6-0.1,0.7-0.4,1.3c-0.3,0.6-0.6,0.4-0.9,1c0,0,0.2,0,0.2,0c0,0-0.1,0.2-0.1,0.2c0,0,0-0.1,0-0.2
									c0.3-0.6,0.5-0.4,0.9-1c0.3-0.6,0.1-0.7,0.4-1.3C-10.3,14.2-10.1,14.3-9.8,13.7z"/>
							</g>
							<g id="XMLID_36174_">
								
									<linearGradient id="SVGID_8_" gradientUnits="userSpaceOnUse" x1="5095.9868" y1="3061.3267" x2="5096.3677" y2="3061.3267" gradientTransform="matrix(0.8697 0.4935 -0.4935 0.8697 -2931.928 -5161.8618)">
									<stop  offset="4.444440e-03" style="stop-color:#A98D14"/>
									<stop  offset="5.101010e-02" style="stop-color:#A18612"/>
									<stop  offset="0.1732" style="stop-color:#927A0F"/>
									<stop  offset="0.3155" style="stop-color:#89720E"/>
									<stop  offset="0.5244" style="stop-color:#86700D"/>
									<stop  offset="0.6248" style="stop-color:#8B7512"/>
									<stop  offset="0.7504" style="stop-color:#988222"/>
									<stop  offset="0.8888" style="stop-color:#AE983B"/>
									<stop  offset="1" style="stop-color:#C5AE55"/>
								</linearGradient>
								<path class="st18" d="M-9.4,13.9c0,0-0.2,0-0.2,0c0,0,0.1-0.2,0.1-0.2c0,0,0,0.1,0,0.2c-0.3,0.6-0.5,0.4-0.9,1
									c-0.3,0.6-0.1,0.7-0.4,1.3c-0.3,0.6-0.6,0.4-0.9,1c0,0,0.2,0,0.2,0c0,0-0.1,0.2-0.1,0.2c0,0,0-0.1,0-0.2
									c0.3-0.6,0.5-0.4,0.9-1c0.3-0.6,0.1-0.7,0.4-1.3C-9.9,14.4-9.7,14.5-9.4,13.9z"/>
							</g>
							<g id="XMLID_36173_">
								
									<linearGradient id="SVGID_9_" gradientUnits="userSpaceOnUse" x1="5096.3906" y1="3061.3267" x2="5096.772" y2="3061.3267" gradientTransform="matrix(0.8697 0.4935 -0.4935 0.8697 -2931.928 -5161.8618)">
									<stop  offset="4.444440e-03" style="stop-color:#A98D14"/>
									<stop  offset="5.101010e-02" style="stop-color:#A18612"/>
									<stop  offset="0.1732" style="stop-color:#927A0F"/>
									<stop  offset="0.3155" style="stop-color:#89720E"/>
									<stop  offset="0.5244" style="stop-color:#86700D"/>
									<stop  offset="0.6248" style="stop-color:#8B7512"/>
									<stop  offset="0.7504" style="stop-color:#988222"/>
									<stop  offset="0.8888" style="stop-color:#AE983B"/>
									<stop  offset="1" style="stop-color:#C5AE55"/>
								</linearGradient>
								<path class="st19" d="M-9,14.1c0,0-0.2,0-0.2,0c0,0,0.1-0.2,0.1-0.2c0,0,0,0.1,0,0.2c-0.3,0.6-0.5,0.4-0.9,1
									c-0.3,0.6-0.1,0.7-0.4,1.3c-0.3,0.6-0.6,0.4-0.9,1c0,0,0.2,0,0.2,0c0,0-0.1,0.2-0.1,0.2c0,0,0-0.1,0-0.2
									c0.3-0.6,0.5-0.4,0.9-1c0.3-0.6,0.1-0.7,0.4-1.3C-9.6,14.6-9.4,14.7-9,14.1z"/>
							</g>
							<g id="XMLID_36172_">
								
									<linearGradient id="SVGID_10_" gradientUnits="userSpaceOnUse" x1="5096.7949" y1="3061.3267" x2="5097.1758" y2="3061.3267" gradientTransform="matrix(0.8697 0.4935 -0.4935 0.8697 -2931.928 -5161.8618)">
									<stop  offset="4.444440e-03" style="stop-color:#A98D14"/>
									<stop  offset="5.101010e-02" style="stop-color:#A18612"/>
									<stop  offset="0.1732" style="stop-color:#927A0F"/>
									<stop  offset="0.3155" style="stop-color:#89720E"/>
									<stop  offset="0.5244" style="stop-color:#86700D"/>
									<stop  offset="0.6248" style="stop-color:#8B7512"/>
									<stop  offset="0.7504" style="stop-color:#988222"/>
									<stop  offset="0.8888" style="stop-color:#AE983B"/>
									<stop  offset="1" style="stop-color:#C5AE55"/>
								</linearGradient>
								<path class="st20" d="M-8.7,14.3c0,0-0.2,0-0.2,0c0,0,0.1-0.2,0.1-0.2c0,0,0,0.1,0,0.2c-0.3,0.6-0.5,0.4-0.9,1
									c-0.3,0.6-0.1,0.7-0.4,1.3c-0.3,0.6-0.6,0.4-0.9,1c0,0,0.2,0,0.2,0c0,0-0.1,0.2-0.1,0.2c0,0,0-0.1,0-0.2
									c0.3-0.6,0.5-0.4,0.9-1c0.3-0.6,0.1-0.7,0.4-1.3C-9.2,14.8-9,14.9-8.7,14.3z"/>
							</g>
							<g id="XMLID_36171_">
								
									<linearGradient id="SVGID_11_" gradientUnits="userSpaceOnUse" x1="5097.1992" y1="3061.3267" x2="5097.5801" y2="3061.3267" gradientTransform="matrix(0.8697 0.4935 -0.4935 0.8697 -2931.928 -5161.8618)">
									<stop  offset="4.444440e-03" style="stop-color:#A98D14"/>
									<stop  offset="5.101010e-02" style="stop-color:#A18612"/>
									<stop  offset="0.1732" style="stop-color:#927A0F"/>
									<stop  offset="0.3155" style="stop-color:#89720E"/>
									<stop  offset="0.5244" style="stop-color:#86700D"/>
									<stop  offset="0.6248" style="stop-color:#8B7512"/>
									<stop  offset="0.7504" style="stop-color:#988222"/>
									<stop  offset="0.8888" style="stop-color:#AE983B"/>
									<stop  offset="1" style="stop-color:#C5AE55"/>
								</linearGradient>
								<path class="st21" d="M-8.3,14.5c0,0-0.2,0-0.2,0c0,0,0.1-0.2,0.1-0.2s0,0.1,0,0.2c-0.3,0.6-0.5,0.4-0.9,1
									c-0.3,0.6-0.1,0.7-0.4,1.3c-0.3,0.6-0.6,0.4-0.9,1c0,0,0.2,0,0.2,0c0,0-0.1,0.2-0.1,0.2c0,0,0-0.1,0-0.2
									c0.3-0.6,0.5-0.4,0.9-1c0.3-0.6,0.1-0.7,0.4-1.3C-8.8,15-8.7,15.1-8.3,14.5z"/>
							</g>
							<g id="XMLID_36170_">
								
									<linearGradient id="SVGID_12_" gradientUnits="userSpaceOnUse" x1="5097.603" y1="3061.3267" x2="5097.9844" y2="3061.3267" gradientTransform="matrix(0.8697 0.4935 -0.4935 0.8697 -2931.928 -5161.8618)">
									<stop  offset="4.444440e-03" style="stop-color:#A98D14"/>
									<stop  offset="5.101010e-02" style="stop-color:#A18612"/>
									<stop  offset="0.1732" style="stop-color:#927A0F"/>
									<stop  offset="0.3155" style="stop-color:#89720E"/>
									<stop  offset="0.5244" style="stop-color:#86700D"/>
									<stop  offset="0.6248" style="stop-color:#8B7512"/>
									<stop  offset="0.7504" style="stop-color:#988222"/>
									<stop  offset="0.8888" style="stop-color:#AE983B"/>
									<stop  offset="1" style="stop-color:#C5AE55"/>
								</linearGradient>
								<path class="st22" d="M-8,14.7c0,0-0.2,0-0.2,0c0,0,0.1-0.2,0.1-0.2c0,0,0,0.1,0,0.2c-0.3,0.6-0.5,0.4-0.9,1
									c-0.3,0.6-0.1,0.7-0.4,1.3s-0.6,0.4-0.9,1c0,0,0.2,0,0.2,0c0,0-0.1,0.2-0.1,0.2c0,0,0-0.1,0-0.2c0.3-0.6,0.5-0.4,0.9-1
									c0.3-0.6,0.1-0.7,0.4-1.3C-8.5,15.2-8.3,15.3-8,14.7z"/>
							</g>
							<g id="XMLID_36169_">
								
									<linearGradient id="SVGID_13_" gradientUnits="userSpaceOnUse" x1="5098.0073" y1="3061.3267" x2="5098.3882" y2="3061.3267" gradientTransform="matrix(0.8697 0.4935 -0.4935 0.8697 -2931.928 -5161.8618)">
									<stop  offset="4.444440e-03" style="stop-color:#A98D14"/>
									<stop  offset="5.101010e-02" style="stop-color:#A18612"/>
									<stop  offset="0.1732" style="stop-color:#927A0F"/>
									<stop  offset="0.3155" style="stop-color:#89720E"/>
									<stop  offset="0.5244" style="stop-color:#86700D"/>
									<stop  offset="0.6248" style="stop-color:#8B7512"/>
									<stop  offset="0.7504" style="stop-color:#988222"/>
									<stop  offset="0.8888" style="stop-color:#AE983B"/>
									<stop  offset="1" style="stop-color:#C5AE55"/>
								</linearGradient>
								<path class="st23" d="M-7.6,14.9c0,0-0.2,0-0.2,0c0,0,0.1-0.2,0.1-0.2c0,0,0,0.1,0,0.2c-0.3,0.6-0.5,0.4-0.9,1
									c-0.3,0.6-0.1,0.7-0.4,1.3c-0.3,0.6-0.6,0.4-0.9,1c0,0,0.2,0,0.2,0c0,0-0.1,0.2-0.1,0.2s0-0.1,0-0.2c0.3-0.6,0.5-0.4,0.9-1
									c0.3-0.6,0.1-0.7,0.4-1.3C-8.1,15.4-8,15.5-7.6,14.9z"/>
							</g>
							<g id="XMLID_36168_">
								
									<linearGradient id="SVGID_14_" gradientUnits="userSpaceOnUse" x1="5098.4111" y1="3061.3267" x2="5098.7925" y2="3061.3267" gradientTransform="matrix(0.8697 0.4935 -0.4935 0.8697 -2931.928 -5161.8618)">
									<stop  offset="4.444440e-03" style="stop-color:#A98D14"/>
									<stop  offset="5.101010e-02" style="stop-color:#A18612"/>
									<stop  offset="0.1732" style="stop-color:#927A0F"/>
									<stop  offset="0.3155" style="stop-color:#89720E"/>
									<stop  offset="0.5244" style="stop-color:#86700D"/>
									<stop  offset="0.6248" style="stop-color:#8B7512"/>
									<stop  offset="0.7504" style="stop-color:#988222"/>
									<stop  offset="0.8888" style="stop-color:#AE983B"/>
									<stop  offset="1" style="stop-color:#C5AE55"/>
								</linearGradient>
								<path class="st24" d="M-7.3,15.1c0,0-0.2,0-0.2,0c0,0,0.1-0.2,0.1-0.2c0,0,0,0.1,0,0.2c-0.3,0.6-0.5,0.4-0.9,1
									c-0.3,0.6-0.1,0.7-0.4,1.3c-0.3,0.6-0.6,0.4-0.9,1c0,0,0.2,0,0.2,0c0,0-0.1,0.2-0.1,0.2c0,0,0-0.1,0-0.2
									c0.3-0.6,0.5-0.4,0.9-1c0.3-0.6,0.1-0.7,0.4-1.3C-7.8,15.6-7.6,15.7-7.3,15.1z"/>
							</g>
							<g id="XMLID_36167_">
								
									<linearGradient id="SVGID_15_" gradientUnits="userSpaceOnUse" x1="5098.8154" y1="3061.3267" x2="5099.1963" y2="3061.3267" gradientTransform="matrix(0.8697 0.4935 -0.4935 0.8697 -2931.928 -5161.8618)">
									<stop  offset="4.444440e-03" style="stop-color:#A98D14"/>
									<stop  offset="5.101010e-02" style="stop-color:#A18612"/>
									<stop  offset="0.1732" style="stop-color:#927A0F"/>
									<stop  offset="0.3155" style="stop-color:#89720E"/>
									<stop  offset="0.5244" style="stop-color:#86700D"/>
									<stop  offset="0.6248" style="stop-color:#8B7512"/>
									<stop  offset="0.7504" style="stop-color:#988222"/>
									<stop  offset="0.8888" style="stop-color:#AE983B"/>
									<stop  offset="1" style="stop-color:#C5AE55"/>
								</linearGradient>
								<path class="st25" d="M-6.9,15.3c0,0-0.2,0-0.2,0c0,0,0.1-0.2,0.1-0.2s0,0.1,0,0.2c-0.3,0.6-0.5,0.4-0.9,1
									C-8.3,16.8-8,17-8.4,17.5c-0.3,0.6-0.6,0.4-0.9,1c0,0,0.2,0,0.2,0c0,0-0.1,0.2-0.1,0.2s0-0.1,0-0.2c0.3-0.6,0.5-0.4,0.9-1
									c0.3-0.6,0.1-0.7,0.4-1.3C-7.4,15.8-7.3,15.9-6.9,15.3z"/>
							</g>
							<g id="XMLID_36166_">
								
									<linearGradient id="SVGID_16_" gradientUnits="userSpaceOnUse" x1="5099.2197" y1="3061.3264" x2="5099.6006" y2="3061.3264" gradientTransform="matrix(0.8697 0.4935 -0.4935 0.8697 -2931.928 -5161.8618)">
									<stop  offset="4.444440e-03" style="stop-color:#A98D14"/>
									<stop  offset="5.101010e-02" style="stop-color:#A18612"/>
									<stop  offset="0.1732" style="stop-color:#927A0F"/>
									<stop  offset="0.3155" style="stop-color:#89720E"/>
									<stop  offset="0.5244" style="stop-color:#86700D"/>
									<stop  offset="0.6248" style="stop-color:#8B7512"/>
									<stop  offset="0.7504" style="stop-color:#988222"/>
									<stop  offset="0.8888" style="stop-color:#AE983B"/>
									<stop  offset="1" style="stop-color:#C5AE55"/>
								</linearGradient>
								<path class="st26" d="M-6.6,15.5c0,0-0.2,0-0.2,0c0,0,0.1-0.2,0.1-0.2c0,0,0,0.1,0,0.2c-0.3,0.6-0.5,0.4-0.9,1
									C-7.9,17-7.7,17.2-8,17.7c-0.3,0.6-0.6,0.4-0.9,1c0,0,0.2,0,0.2,0c0,0-0.1,0.2-0.1,0.2s0-0.1,0-0.2c0.3-0.6,0.5-0.4,0.9-1
									c0.3-0.6,0.1-0.7,0.4-1.3C-7.1,16-6.9,16.1-6.6,15.5z"/>
							</g>
							<g id="XMLID_36165_">
								
									<linearGradient id="SVGID_17_" gradientUnits="userSpaceOnUse" x1="5099.6235" y1="3061.3267" x2="5100.0049" y2="3061.3267" gradientTransform="matrix(0.8697 0.4935 -0.4935 0.8697 -2931.928 -5161.8618)">
									<stop  offset="4.444440e-03" style="stop-color:#A98D14"/>
									<stop  offset="5.101010e-02" style="stop-color:#A18612"/>
									<stop  offset="0.1732" style="stop-color:#927A0F"/>
									<stop  offset="0.3155" style="stop-color:#89720E"/>
									<stop  offset="0.5244" style="stop-color:#86700D"/>
									<stop  offset="0.6248" style="stop-color:#8B7512"/>
									<stop  offset="0.7504" style="stop-color:#988222"/>
									<stop  offset="0.8888" style="stop-color:#AE983B"/>
									<stop  offset="1" style="stop-color:#C5AE55"/>
								</linearGradient>
								<path class="st27" d="M-6.2,15.7c0,0-0.2,0-0.2,0c0,0,0.1-0.2,0.1-0.2c0,0,0,0.1,0,0.2c-0.3,0.6-0.5,0.4-0.9,1
									c-0.3,0.6-0.1,0.7-0.4,1.3c-0.3,0.6-0.6,0.4-0.9,1c0,0,0.2,0,0.2,0c0,0-0.1,0.2-0.1,0.2c0,0,0-0.1,0-0.2
									c0.3-0.6,0.5-0.4,0.9-1c0.3-0.6,0.1-0.7,0.4-1.3C-6.7,16.2-6.5,16.3-6.2,15.7z"/>
							</g>
						</g>
					</g>
				</g>
				
					<radialGradient id="XMLID_393_" cx="4938.229" cy="1595.3767" r="3.3501" gradientTransform="matrix(0.8286 0.4632 -0.1251 0.2228 -3902.4077 -2625.1243)" gradientUnits="userSpaceOnUse">
					<stop  offset="0" style="stop-color:#754200"/>
					<stop  offset="2.283549e-02" style="stop-color:#7A4704"/>
					<stop  offset="0.2274" style="stop-color:#A06D26"/>
					<stop  offset="0.4304" style="stop-color:#BE8B41"/>
					<stop  offset="0.6291" style="stop-color:#D4A154"/>
					<stop  offset="0.8213" style="stop-color:#E1AE5F"/>
					<stop  offset="1" style="stop-color:#E5B263"/>
				</radialGradient>
				<path id="XMLID_00000032633200659294542440000009055342258716121263_" class="st28" d="M-7.4,19.6C-7.1,19.1-8.3,18-10,17
					c-1.7-0.9-3.2-1.3-3.5-0.9c-0.3,0.5,0.9,1.6,2.5,2.6C-9.2,19.7-7.7,20.1-7.4,19.6z"/>
				<g id="XMLID_00000154399749778810835420000007263720876479833761_">
					
						<radialGradient id="SVGID_18_" cx="-10.4331" cy="17.9004" r="2.5502" gradientTransform="matrix(0.8729 0.488 -0.1314 0.235 1.0251 18.785)" gradientUnits="userSpaceOnUse">
						<stop  offset="0" style="stop-color:#775300"/>
						<stop  offset="0.4497" style="stop-color:#795502"/>
						<stop  offset="0.6117" style="stop-color:#805B08"/>
						<stop  offset="0.7272" style="stop-color:#8B6612"/>
						<stop  offset="0.8205" style="stop-color:#9C7621"/>
						<stop  offset="0.9005" style="stop-color:#B28A34"/>
						<stop  offset="0.9701" style="stop-color:#CDA34B"/>
						<stop  offset="1" style="stop-color:#DBB057"/>
					</radialGradient>
					<path class="st29" d="M-7.9,19.4L-7.9,19.4c0.1,0,0.1,0,0.2,0c-0.1-0.3-0.8-1.1-2.4-2c-1.1-0.6-2.2-1-2.8-1c-0.1,0-0.1,0-0.2,0
						c0.1,0.3,0.8,1.1,2.4,2C-9.6,19-8.5,19.4-7.9,19.4 M-7.9,19.8c-0.7,0-1.8-0.4-3-1.1c-1.7-0.9-2.8-2.1-2.5-2.6
						c0.1-0.1,0.3-0.2,0.5-0.2c0.7,0,1.8,0.4,3,1.1c1.7,0.9,2.8,2.1,2.5,2.6C-7.5,19.7-7.7,19.8-7.9,19.8L-7.9,19.8z"/>
				</g>
				
					<linearGradient id="XMLID_449_" gradientUnits="userSpaceOnUse" x1="5097.7998" y1="-16794.7832" x2="5097.7471" y2="-16794.0254" gradientTransform="matrix(0.8697 0.4935 0.6215 -1.0953 5993.9521 -20892.1934)">
					<stop  offset="0" style="stop-color:#FFFFFF"/>
					<stop  offset="0.1467" style="stop-color:#EEEAD9"/>
					<stop  offset="0.4734" style="stop-color:#C4B678"/>
					<stop  offset="0.8" style="stop-color:#977F12"/>
				</linearGradient>
				<path id="XMLID_00000058563976117609676970000007411864452687102365_" class="st30" d="M-9.1,19.1c0-0.2-0.4-0.6-1-1
					c-0.6-0.4-1.2-0.5-1.3-0.3c-0.1,0.2,0.4,0.7,1.1,1.1C-9.6,19.2-9.1,19.3-9.1,19.1z"/>
				
					<radialGradient id="XMLID_666_" cx="5097.4473" cy="3064.3684" r="1.2901" gradientTransform="matrix(0.8615 0.5077 -0.4615 0.783 -2988.0879 -4968.7744)" gradientUnits="userSpaceOnUse">
					<stop  offset="0.7111" style="stop-color:#694607"/>
					<stop  offset="0.8167" style="stop-color:#B67B11"/>
					<stop  offset="0.8985" style="stop-color:#E5B368"/>
					<stop  offset="0.914" style="stop-color:#DCAB60"/>
					<stop  offset="0.9392" style="stop-color:#C4954C"/>
					<stop  offset="0.9708" style="stop-color:#9D722B"/>
					<stop  offset="1" style="stop-color:#734B07"/>
				</radialGradient>
				<path id="XMLID_00000037681414889979337450000003051838856163177111_" class="st31" d="M-10.4,17.8c-0.6-0.3-1.3-0.2-1.6,0.4
					c-0.3,0.5-0.1,1.2,0.5,1.6c0.6,0.3,1.3,0.2,1.6-0.4C-9.6,18.9-9.8,18.2-10.4,17.8z M-11.4,19.6c-0.5-0.3-0.7-0.9-0.4-1.3
					c0.3-0.4,0.9-0.6,1.4-0.3c0.5,0.3,0.7,0.9,0.4,1.3C-10.3,19.8-10.9,19.9-11.4,19.6z"/>
			</g>
		</g>
	</g>
</symbol>
<linearGradient id="SVGID_19_" gradientUnits="userSpaceOnUse" x1="1294.4758" y1="1656.8817" x2="684.9396" y2="758.6726" gradientTransform="matrix(1 0 0 -1 0 1704)">
	<stop  offset="0" style="stop-color:#F3F4F5"/>
	<stop  offset="1" style="stop-color:#B5C6E2"/>
</linearGradient>
<rect class="st32" width="1920" height="1080"/>
<path class="st33" d="M1598.5,825.3c0.2-3.1,1.7-4.2,3.5-4.9c2.4-0.9,4.9-0.3,7.1,1.6c6.5,5.6,12.6,12,18.7,19.5
	c-9-1.6-18.1-2-26.6-9.4C1599.5,830.6,1598.4,828.3,1598.5,825.3z M2105.2,949.5c-5.5-10-12.7-14.3-20.3-16.6
	c-12.6-3.7-25.2-1.7-37.8,0.2c-8,1.2-15.9,2.6-24,1.7c-3.7-0.4-7.2-1.5-10.5-3.2c-1.3-3.2-2.9-6-5-8.4c-0.8-0.9-1.7-1.3-2.5-0.6
	c-0.8,0.6-0.9,1.7-0.9,2.9c-4.9-4.8-9.2-11.3-13-19.6c-3.3-7.4-3.9-15.4-1.6-24.1c2.9-11.2,8.2-18.3,13.8-25c2-2.4,4.1-4.6,6.2-7
	c-0.4-0.6-0.5-0.8-0.6-0.8c-1.2,0.2-2.4,0.4-3.5,0.5c-7.1,0.9-14.1,0.3-20.4-6.3c-5.5-5.7-6.7-14.3-3.2-23.8
	c1.6-4.5,3.9-7.8,6.2-11.3c6.7-10.1,12.9-20.8,17.3-34.3c1.8-5.5,3.3-11.2,3.7-17.6c0.5-8.4-1.9-13.4-6.7-14.7
	c-4.9-1.3-8.3,3.1-11.2,9c-5,10.1-8.2,22.1-12.1,33.4c-3.1,9-6.1,18.1-10.8,24.9c-4,5.8-8.5,9.2-13.6,5.5c-1.5-1.1-2.6-2.6-3.4-4.4
	c-0.1-1.7-0.5-3.5-1.5-4.6c-0.7-3.3-1-7-1.2-10.8c-0.2-4.7-0.1-9.5-0.1-14.2c-0.2,0-0.5-0.1-0.7-0.1c-0.2,1.2-0.3,2.4-0.5,3.5
	c-1.7,9.8-3,19.9-6.7,28.2c-3.7,8.2-8.2,9.1-12.7,2.4c-2.5-3.8-4.6-8.3-6.4-13.3c-6.2-17.5-10.2-36.6-13.9-56
	c-3.8-20.4-8.1-40.5-15.2-58.3c-2.7-6.7-5.9-12.6-10-16.6c-5.2-5-9.3-1.9-11.1,8.1c-1.1,6.5-0.7,12.9,0.1,19.2
	c3,22.4,9.7,41.5,17.5,59.4c5.3,12,10.8,23.8,15.2,36.9c4.9,14.5,9.4,29.4,10.5,46.7c0.4,5.7,0.4,11.4-1,16.7
	c-2.5,9.9-8.8,12.4-15.4,6.2c-4.5-4.3-8.3-10.3-11.8-16.9c-4.5-8.4-9.4-15.9-15.7-20c-3.8-2.5-7.9-3.8-11,2.1
	c-1.6,2.9-2.3,6.1-2.5,9.5c-12.3-1.3-24.2,0.6-35.8,4.8c-14,5.1-27.9-9.8-29.6-32.1c-0.8-9.9,1.5-18.1,5.2-25.4
	c2.9-5.8,4.8-12.1,4.6-20c-0.3-11.1-6.3-20.9-13.8-21.8c-7.1-0.9-11.7,4.9-15.6,12.2c-4.1,7.9-6.4,17.4-8.3,27.3
	c-1.2,6.4-3,12.5-4,19c-0.5,3-3.6,2.5-3.1,4.8c1,4.7-1.2,5.5-2.9,6c-2,0.7-3.2-2.4-4-4.9c-2-6.3-3.4-12.9-4-19.6
	c-2.1-19.9-2.9-39.7-3-59.5c-0.1-20.3,1.4-40.4,0.2-60.9c-0.5-8.4-1.2-16.9-4.2-24.8c-1.6-4.2-3.9-6.8-7-6.8c-3.2,0-4.9,2.9-5.8,7
	c-0.8,3.3-1,6.9-1,10.5c-0.1,16.8,2,33.6,3.9,50.4c2.5,22.3,5.4,44.7,8,67c0.9,7.4,1.1,14.9,0.7,22.3c-0.3,4.9-1.8,9.4-4.6,10.9
	c-3.5,1.8-5.8-3.5-8-7.2c-0.2-0.3-0.3-0.7-0.5-0.9c-0.7-0.8-0.8-3-2-2.5c-1.1,0.5-0.5,2.2-0.6,3.5c-0.2,3.8-0.2,7.6-1.4,10.9
	c-1.8,5.3-3.8,5.6-6.9,1.3c-0.3-0.4-1.1-0.6-1.4-0.3c-1.6,2.2-2.8-0.1-4-1.5c-5.5-6.4-9.8-14.4-13.4-23.1
	c-4.9-11.7-7.1-24.7-10.5-37.1c-4.3-16-9.9-31-19.8-41.5c-9.4-9.9-20.8-9.7-27,0.4c-6.6,10.9-6.1,26.2,1.4,40.2
	c3.8,7.2,8.7,12.6,13.6,17.9c9.6,10.4,20.1,18.7,29.4,29.7c8.7,10.4,12.7,23.6,13.4,39c0.2,4.9-0.8,9.2-2.7,12.9
	c-1.1,2-2.1,3-4.1,1.9c-3.3-1.8-9.2,2-10.9,6.4c-1.3,3.5-4.3,3.3-6-0.4c-0.9-1.9-1.8-1.6-1.9-0.2c-0.5,4.5-2.9,3-4.8,3
	c-2.2-0.1-4.7-1.9-6.7-1.7c-7,1-13.7-2.4-20.6-4.4c-1.8-0.5-3.5-2.7-6-0.5c6.7,4,12.9,8.3,18.7,13.8c9.7,9.1,18.8,19.2,24,34.9
	c4.7,14.4,1.9,19.1-5.7,25.1c-3.6,2.9-8,2.8-12.2,2.5c-19.2-1.5-38.4-3.4-57.4-1.7c-7.3,0.7-14.6,1.9-21.1,6.6
	c-4.5,3.3-7.8,8-7.6,16.5c0.2,10.3,4.6,18,12.5,21c8.1,3.2,16.1,2.8,24,0.9c13.4-3.2,26.1-9.1,38.7-15.6c9.9-5.1,20.3-7.2,31.2-6
	c2.7,0.3,5.3,3.6,7.4,3.4c6.6-0.7,16.8,12.7,16.6,25c-0.3,14.7-5.4,25.3-10.8,35.5c-5.5,10.3-12.2,18.9-19.2,27.1
	c-10.6,12.5-20,26.7-27.3,43.7c-4.2,9.6-7.9,19.7-7.7,32.2c0.1,7.8,2.8,13.8,7.6,17.4c4.8,3.5,9.3,2.7,13.7,0.2
	c7.3-4.2,12.6-12,17.7-20.3c9-14.9,14.7-33.1,20.9-50.8c2.9-8.2,5.9-16.4,9.1-24.3c3.1-7.8,6.7-15.1,9.9-22.8
	c3.2-7.7,8-13.1,12.4-19.1c2.2-3.1,5.5-3.5,8.3-5.2c10.5-6.3,19.7-0.3,29.4,8.9c64.6,61-12.5,14.8-11.7,23.6
	c0.7,8.4-3.1,12.7-7.2,16.4c-2.4,2.1-5,3.7-7.4,5.5c0.1,0.4,0.2,0.7,0.3,1.1c0.7-0.2,1.4-0.5,2.1-0.7c6.1-1.2,12.1-3.1,18.5-0.7
	c6.3,2.4,9.3,8.7,8.1,17.7c-0.7,5.1-1.9,9.9-3.6,14.4c-5.9,15.6-13.8,28.7-22.1,41.4c-8.7,13.3-17.1,27-22.6,44.1
	c-2.1,6.5-3.5,13.3-3.4,20.9c0.1,9.5,4,14.4,10.2,13.2c4-0.8,7.2-3.8,10.1-7.4c10.2-12.8,16.7-29.8,22-48
	c3.5-12.3,6.8-24.8,11.3-36.2c5.1-12.7,10.5-24.8,19-32.9c2.8-2.7,5.8-4.8,9.3-4.9c6.6,0,11.3,8.3,11.5,20.3c0.2,8.3-1,16-2.6,23.7
	c-2.1,9.7-3.3,19.8-2.2,30.6c0.7,6.5,2.2,13,7,15.4c5,2.6,8.7-0.7,11.5-6c1.3-2.4,2.3-5.1,3.2-7.9c2.5-7.9,3-16.8,3-25.7
	c0.1-6.1,0.5-12.1,1.7-17.7c1.9-9.3,5.9-12.6,12.6-10.7c0.6,0.2,1.3,0.4,1.9,0.7c-0.4,1.2-0.8,2.4-1.3,3.6c-1.8,5.3-4.7,10-3.7,17.2
	c0.4,2.7,0.3,5.6,2.3,7.1c2.2,1.7,3.7-0.1,5-1.9c3.8-5.1,4.8-12.4,5.9-19.7v-0.1c1.6,1.7,3.2,3.7,4.7,5.7
	c12.6,17.2,23.8,36.3,34.8,55.8c1,1.8,1.9,4.1,3.7,5.3c13.8,43.5,28.2,42.6,21.2,10.2c-0.7-3.5,2.6-29.8,5.2-31.2
	c13.2-6.8,42.7,55.8,52.9,72.7c0.7,1.1,1.2,3.1,2.4,2.6c1.1-0.5,1-2.4,1.1-3.8c0.3-3,0.4-6,1.3-8.6c1.7-4.8,4.5-6.6,8.1-5.7
	c2.4,0.6,6.1,0.2,5.8,6.8c0,0.8,0.7,1.2,1.2,1.1c2.1-0.4,2.7,2.1,3.5,4.1c2,4.8,3,10.1,3.9,15.4c1.2,6.6,1.9,13.4,4,19.7
	c0.7,2.1,1.6,4.7,3.4,4.3c1.8-0.4,1.8-3.1,2-5.3c0.1-0.5,0-1.1,0-1.7c-0.2-4.4-4.3-23.9-5.9-28.2c-0.5-1.2-0.8-2.8-0.2-3.8
	c1.4-2.2,2.5-3.9-0.9-5c-0.3-0.1-0.5-1.3-0.7-2c-3.5-13.9,0.7-25.4,10-27.5c3.2-0.7,6.2-0.4,9.4,1.6c4.3,2.7,7.5,0.3,8.8-5.9
	c0.9-4.4,0.4-8.9-0.8-13.5c-0.7-2.8-3.5-6.3,0.2-8.3c0.1-0.1,0.1-1.3,0-1.5c-3.5-4.4-0.1-5.7,1.2-7.3c2.4-2.8,5.5-3,8.6-2.3
	c5.1,1.1,9.3,5.4,13.4,10c5.7,6.4,11,13.8,17.4,18.5c3.2,2.3,4.9,1.1,5.3-3.9c0.2-2.4-0.3-4.6-1.4-6.6c-1.5-2.9-2.7-5.8-2.9-9.5
	c-0.1-2.3-1.1-4-2.5-2.1c-1.3,1.7-2.2,0.5-3.4-0.6c-5.7-5.9-11.8-10.3-18-14.5c-2.3-1.6-4.6-3.2-6.7-5.4c-4.6-4.7-4.8-9.9-0.7-14.1
	c1-1,2.1-1.8,3.2-2.7c0.9-0.8,1.3-1.7,1.1-3.6c-0.9-8.4-28.4-9.6-22.7-8.5c3.1,0.6,35.2,0.7,38.2,0.4c1.4-0.1-26,0.8-25.7-1.5
	c0.3-2.6-1.4-4.1-2.6-4.5c-4.3-1.4-7.3-8.7-12.1-7.8c-0.4,0.1-0.9-0.7-1.4-1.2c-4.5-4.7-6.5-14.1-4.7-21.3c0.2-0.6,0.2-1.4,0.1-2.1
	c-1.2-9.2,2.2-16,8.3-16.4c1.6-0.1,3.3-0.1,4.9-0.6c1.5-0.5,2.9-1.7,2.7-4.5c-0.2-2.7-1.7-3.8-3.3-4.5c-2.4-0.9-4.6,0.1-6.8,0
	c-3.8-0.2-5.5-2.9-5.3-8.4c0.2-5.7-0.3-9-2.4-14.5c-0.1-0.3-0.2-0.8-0.2-1.1c0.9-3.6-0.5-7.4-0.1-11.1c0.3-3.2,0.6-6.3,3.6-6.3
	c1.2,0,2.1-1,1.4-3.4c-2-6.3,2.3-5.3,3.8-7.1c1.4-1.7,3.7-3,4.6,2.3c0.2,1.4,1.1,2.3,2.2,1.9c0.7-0.3,1-1.4,0.7-2.2
	c-1.8-5.4,1-4.7,3-5.4c4.5-1.6,9-3.6,12.5-7.7c9.6,3,19,7.1,28.6,9.7c9,2.4,18,3.9,26.9-1.6C2109.4,972,2111,959.9,2105.2,949.5z
	 M2042.3,922.6c3.8,0.8,6.1-2.2,8.1-6c0.8-1.6,3-2.8,2.1-5s-2.8-0.2-3.9-0.5c-3,0.2-5.5,1.2-7.8,2.7c-1.4,0.9-2.7,2.2-2.2,5
	C2039,921.6,2040.7,922.3,2042.3,922.6z"/>
<path class="st33" d="M-64.2-61.6c0.5-2.3,2.2-3,3.9-3.4c2.4-0.5,4.6,0.3,6.5,2c5.4,4.9,10.3,10.5,15,16.9
	c-8.2-2.2-16.7-3.4-23.6-9.9C-64-57.4-64.7-59.4-64.2-61.6z M393.5,85.3c-3.9-8.2-10.1-12.3-16.9-14.8c-11.3-4.1-23.3-3.9-35.4-3.7
	c-7.6,0.1-15.2,0.4-22.6-1.2c-3.4-0.7-6.5-1.9-9.4-3.5c-0.8-2.6-2-4.9-3.6-6.9c-0.6-0.8-1.4-1.2-2.3-0.7c-0.8,0.4-1.1,1.2-1.2,2.1
	c-4-4.1-7.2-9.6-9.7-16.4c-2.2-6-1.7-12.2,1.5-18.6c4.1-8.3,10-13.2,16-17.7c2.2-1.6,4.4-3.1,6.7-4.7c-0.3-0.5-0.4-0.7-0.4-0.7
	c-1.1,0-2.3,0.1-3.4,0.1c-6.8,0-13.2-1.2-18.3-6.9c-4.4-5-4.5-11.6-0.1-18.5c2.1-3.3,4.7-5.6,7.2-8c7.5-7,14.6-14.6,20.5-24.5
	c2.4-4,4.5-8.2,5.6-13.1c1.5-6.4-0.1-10.5-4.4-11.9c-4.4-1.5-8.1,1.6-11.6,5.8c-5.9,7.2-10.5,16.1-15.5,24.3c-4,6.6-8,13.2-13.2,18
	c-4.4,4-9.1,6.2-13.4,2.8c-1.2-1-2.1-2.2-2.6-3.7c0.1-1.3-0.1-2.7-0.8-3.7c-0.3-2.6-0.1-5.5,0.2-8.4c0.4-3.6,1.1-7.3,1.7-10.9
	c-0.2-0.1-0.4-0.1-0.6-0.2c-0.3,0.9-0.5,1.8-0.9,2.7c-2.8,7.3-5.3,14.9-9.8,20.9c-4.5,5.9-8.8,6.2-12.2,0.6
	c-1.9-3.2-3.3-6.8-4.3-10.8c-3.6-14-5-29-5.9-44.2c-1-16-2.5-31.8-6.9-46.1c-1.7-5.4-3.9-10.2-7.2-13.7c-4.2-4.4-8.5-2.4-11.4,5
	c-1.9,4.8-2.3,9.8-2.3,14.7c0,17.4,3.8,32.7,8.9,47.2c3.4,9.7,7.1,19.3,9.6,29.8c2.8,11.6,5.1,23.5,4,36.8c-0.4,4.4-1.1,8.8-3,12.6
	c-3.6,7.3-9.8,8.6-15.1,3.1c-3.7-3.8-6.5-8.7-8.9-14.1c-3.1-6.9-6.8-13.1-12.2-16.9c-3.2-2.3-6.9-3.7-10.6,0.5
	c-1.8,2.1-2.9,4.5-3.5,7c-11.3-2.2-22.7-2-34,0C128-22.7,117-35.6,118.1-52.8c0.5-7.6,3.6-13.7,8-18.9c3.5-4.1,6-8.8,6.8-14.8
	c1.1-8.5-3.3-16.6-10.1-18.1c-6.5-1.4-11.6,2.5-16.1,7.7c-4.9,5.7-8.2,12.7-11.2,20c-2,4.7-4.3,9.2-6.1,14.1
	c-0.8,2.3-3.6,1.5-3.5,3.4c0.3,3.7-1.8,4.1-3.4,4.3c-2,0.3-2.7-2.2-3.1-4.2c-1.1-5-1.5-10.2-1.3-15.4c0.6-15.4,2.2-30.7,4.6-45.9
	c2.5-15.6,6.4-30.8,7.8-46.6c0.6-6.5,1-13-0.8-19.4c-0.9-3.3-2.8-5.6-5.7-5.9c-3-0.4-5,1.7-6.3,4.8c-1.1,2.5-1.8,5.2-2.2,7.9
	c-2.2,12.9-2.3,25.9-2.7,39c-0.5,17.3-0.5,34.7-0.9,52.1c-0.1,5.8-0.8,11.5-2.2,17.1c-0.9,3.7-2.9,7-5.7,7.8c-3.5,1-4.9-3.3-6.6-6.3
	c-0.1-0.2-0.2-0.6-0.3-0.8c-0.5-0.7-0.4-2.4-1.5-2.1c-1,0.3-0.7,1.7-1,2.6c-0.7,2.9-1.2,5.8-2.6,8.2c-2.3,3.8-4.3,3.9-6.6,0.3
	c-0.2-0.3-1-0.6-1.2-0.4c-1.8,1.5-2.6-0.3-3.6-1.5c-4.3-5.5-7.3-12-9.7-19.1c-3.1-9.5-3.6-19.6-5.2-29.5c-2-12.7-5.3-24.7-13.3-33.8
	c-7.5-8.5-18.2-9.5-25.3-2.4c-7.6,7.6-9,19.4-3.8,30.9c2.7,5.9,6.6,10.5,10.5,15.1c7.6,9,16.4,16.3,23.7,25.8
	c6.9,8.8,8.9,19.4,7.6,31.2c-0.4,3.8-1.9,7-4.2,9.6c-1.2,1.4-2.3,2.1-4.1,1c-2.9-1.7-8.9,0.6-10.9,3.8c-1.6,2.5-4.4,2.1-5.6-1
	c-0.6-1.5-1.5-1.4-1.8-0.4c-1,3.4-3.1,2-4.8,1.8c-2.1-0.3-4.2-2-6-2c-6.6,0-12.5-3.2-18.7-5.5c-1.6-0.6-3-2.5-5.5-1
	c5.8,3.8,11,7.7,15.7,12.4c7.9,7.9,15.2,16.6,18,29.2c2.9,11.6-0.3,15-8.1,18.8c-3.8,1.8-7.8,1.3-11.7,0.6
	C-40.3,18.6-58,15.2-76,14.6c-6.9-0.3-13.9-0.1-20.6,2.9c-4.6,2-8.3,5.3-9.2,11.8c-1.1,7.9,2,14.2,9,17.4c7.2,3.3,14.7,3.8,22.3,3.2
	c12.9-1,25.5-4.3,38.1-8c9.9-2.9,19.8-3.4,29.9-1.4C-4,41-2,43.8,0,43.9C6.3,44,14.1,55.4,12.3,64.7c-2.1,11.1-8.2,18.7-14.6,26
	s-13.8,13.2-21.3,18.7c-11.5,8.4-22,18.4-31,30.7c-5.1,6.9-9.8,14.2-11.3,23.9c-0.9,6,0.8,10.9,5,14.1c4.1,3.2,8.4,3,12.8,1.6
	c7.4-2.4,13.3-7.9,19.1-13.8c10.3-10.5,17.9-23.8,25.9-36.7c3.7-6,7.5-11.9,11.5-17.6c3.9-5.6,8.2-10.8,12.1-16.4
	c4-5.6,9.1-9.2,13.9-13.3c2.5-2.1,5.6-2.1,8.4-3.1c10.6-3.7,18.4,1.8,26.4,9.8c52.7,53.3-13.5,10-13.9,16.8
	c-0.4,6.5-4.5,9.4-8.7,11.8c-2.5,1.4-5.1,2.3-7.6,3.5c0.1,0.3,0.1,0.6,0.2,0.8c0.7-0.1,1.4-0.2,2.1-0.3c5.8-0.3,11.7-1.2,17.4,1.4
	c5.6,2.5,7.6,7.6,5.4,14.4c-1.3,3.9-3,7.4-5.2,10.6C51.4,158.9,42.4,168.2,33,177c-9.8,9.3-19.3,18.9-26.7,31.5
	c-2.8,4.7-5,9.8-5.8,15.6c-1.1,7.3,2,11.4,7.9,11.2c3.9-0.2,7.2-2.2,10.3-4.6c11.2-8.7,19.3-21,26.5-34.5c4.8-9,9.4-18.3,15.1-26.5
	c6.3-9.2,12.9-17.9,21.9-23.2c2.9-1.7,6-3.1,9.3-2.8c6.2,0.6,9.5,7.5,8.2,16.7c-0.9,6.3-2.9,12.2-5.4,17.8
	c-3.1,7.2-5.6,14.8-5.8,23.2c-0.2,5.1,0.4,10.1,4.6,12.5c4.3,2.5,8.2,0.3,11.5-3.4c1.5-1.7,2.8-3.7,4-5.7c3.4-5.8,4.9-12.5,6.1-19.4
	c0.8-4.7,2-9.2,3.8-13.4c2.9-6.9,7.1-9.1,13.1-6.9c0.6,0.2,1.1,0.4,1.7,0.7c-0.5,0.9-1.1,1.7-1.6,2.6c-2.4,3.9-5.7,7.2-5.7,12.8
	c0,2.1-0.4,4.3,1.2,5.7c1.8,1.5,3.5,0.3,5-1c4.2-3.5,6.1-9,8-14.5v-0.1c1.3,1.5,2.5,3.1,3.7,4.9c9.6,14.5,17.7,30.2,25.5,46.2
	c0.7,1.5,1.2,3.4,2.8,4.5c7.5,34.7,21,35.5,18.5,10c-0.3-2.7,6.1-22.5,8.8-23.3c13.2-3.8,32.9,47.1,40.3,61.1
	c0.5,0.9,0.7,2.5,1.9,2.2c1.1-0.2,1.2-1.7,1.5-2.8c0.6-2.3,1.1-4.5,2.3-6.5c2.1-3.5,5.1-4.6,8.3-3.6c2.2,0.7,5.6,0.8,4.6,5.8
	c-0.1,0.6,0.5,1,1,1c2-0.1,2.2,1.9,2.8,3.5c1.3,3.9,1.5,8,1.7,12.2c0.3,5.2,0.1,10.4,1.3,15.4c0.4,1.7,0.9,3.7,2.7,3.6
	c1.7-0.1,2-2.2,2.5-3.9c0.1-0.4,0.1-0.9,0.2-1.3c0.4-3.4-1-18.7-2-22.2c-0.3-1-0.4-2.3,0.3-2.9c1.6-1.5,2.8-2.8-0.2-3.9
	c-0.2-0.1-0.3-1-0.4-1.6c-1.6-11,3.8-19.4,12.8-20c3-0.2,5.9,0.3,8.6,2.2c3.7,2.5,7,1,9-3.6c1.4-3.3,1.5-6.8,1-10.4
	c-0.3-2.2-2.5-5.1,1.2-6.3c0.1,0,0.3-1,0.2-1.1c-2.7-3.8,0.6-4.4,2-5.4c2.6-1.9,5.5-1.7,8.4-0.9c4.6,1.4,8,5.1,11.3,9
	c4.5,5.5,8.5,11.7,14,15.9c2.7,2.1,4.5,1.4,5.5-2.5c0.5-1.8,0.3-3.6-0.4-5.2c-1-2.4-1.8-4.7-1.5-7.6c0.2-1.8-0.5-3.2-2.1-1.8
	c-1.4,1.2-2.2,0.2-3.1-0.8c-4.6-5.1-9.7-9.1-15-12.9c-1.9-1.4-3.9-2.9-5.6-4.8c-3.7-4-3.2-8,1.1-10.9c1.1-0.7,2.2-1.2,3.3-1.8
	c0.9-0.5,1.5-1.1,1.5-2.6c0.2-6.5-8.9-6.6-8.3-8.4c0.6-2-0.8-3.3-1.9-3.7c-3.9-1.5-5.7-7.4-10.3-7.2c-0.4,0-0.8-0.7-1.1-1.1
	c-3.6-4.1-4.3-11.4-1.7-16.8c0.2-0.5,0.4-1,0.4-1.6c0-7.2,4.1-12,9.8-11.7c1.5,0.1,3.1,0.2,4.6,0s2.9-1,3-3.1s-1.1-3.1-2.6-3.8
	c-2.1-1-4.3-0.4-6.4-0.7c-3.6-0.5-4.8-2.8-3.9-7c0.9-4.3,0.8-6.9-0.4-11.3c-0.1-0.3-0.1-0.7,0-0.9c1.3-2.6,0.5-5.7,1.3-8.5
	c0.7-2.4,1.4-4.8,4.2-4.4c1.1,0.1,2.1-0.6,1.7-2.5c-1.1-5,2.8-3.8,4.5-5.1c1.6-1.1,3.8-1.9,4,2.2c0,1.1,0.8,1.9,1.8,1.7
	c0.7-0.1,1.1-1,1-1.6c-1-4.3,1.5-3.5,3.5-3.8c4.4-0.8,8.8-1.9,12.6-4.6c8.5,3.3,16.8,7.4,25.5,10.3c8.1,2.7,16.4,4.9,25.3,1.5
	C394.6,103,397.6,93.9,393.5,85.3z M338.1,58.3c3.4,1,6-1.1,8.3-3.8c1-1.1,3.1-1.9,2.6-3.6c-0.5-1.8-2.6-0.4-3.6-0.8
	c-2.8-0.1-5.3,0.3-7.7,1.3c-1.4,0.6-2.8,1.4-2.7,3.6C335.2,57.2,336.7,57.9,338.1,58.3z"/>
<g id="Jorge_Canelon_1_">
</g>
<use xlink:href="#Nuevo_símbolo_7"  width="39.5" height="39.9" id="XMLID_651_" x="-19.8" y="-19.9" transform="matrix(5.7749 -3.599186e-03 -3.599186e-03 -5.7749 1620.5325 739.5642)" style="overflow:visible;"/>
</svg>
