<?xml version="1.0" encoding="utf-8"?>
<!-- Generator: Adobe Illustrator 28.4.1, SVG Export Plug-In . SVG Version: 6.00 Build 0)  -->
<svg version="1.1" id="Layer_1" xmlns="http://www.w3.org/2000/svg" xmlns:xlink="http://www.w3.org/1999/xlink" x="0px" y="0px"
	 viewBox="0 0 1080 1920" style="enable-background:new 0 0 1080 1920;" xml:space="preserve">
<style type="text/css">
	.st0{fill:#B89E89;}
	.st1{fill:#728276;}
</style>
<g>
	<circle class="st0" cx="867" cy="605.7" r="89"/>
	<path d="M126.7,508.8c67.9,0,135.9,0,206.5,0c-4.8,4.9-7.9,8.9-11.8,11.9c-20.6,15.6-28.4,37.1-28.4,62
		c-0.1,109.2-0.2,218.5-0.1,327.7c0,125,0.1,250,0.4,375c0,8.8,1.4,17.5,2.3,28.1c0.5,9.2,0.3,21.9,0.9,26c0.3,2.4,1.5,4.9,3.6,7.6
		c9.5,12,20.7,19.6,37.2,19.4c67.6-0.5,135.1-0.1,202.7-0.2c48.8,0,97.6,0.5,146.3-0.7c46.3-1.1,92.3-5.8,136.5-20.4
		c21.3-7,41.9-16.4,62.4-25.7c6.9-3.2,12.4-9.5,18.6-14.3c3-2.4,6.1-4.8,11.4-8.9c0.4,7.1,1.7,11.6,0.7,15.5
		c-7.7,29.7-15.7,59.5-24.4,88.9c-1,3.4-6.8,6.7-10.9,7.5c-6.5,1.4-13.4,0.8-20.2,0.8c-231.3,0.1-462.7,0.1-694,0
		c-10.6,0-21.3-1.4-34.2-2.3c2.9-4.6,3.8-7.2,5.6-8.6c18.7-14.4,24.2-34.5,24.3-56.7c0.1-77.3,0-154.6,0-232
		c0-169.7,0.1-339.4-0.4-509.1c0-15-3.7-30.2-6.8-45.1c-2.8-13.2-10.5-23.8-21.1-32.4c-3.5-2.8-5.9-7.1-8.8-10.8
		C125.6,511.1,126.1,509.9,126.7,508.8z"/>
	<path class="st1" d="M295.6,1313.5c4.1-2.5,6.4-3.2,7.5-4.7c18.1-27.1,36.1-54.3,53.9-81.6c10.9-16.7,12.5-35.9,14.5-55
		c6.4-61.9,24.4-120.3,59.2-171.8c26.3-39,62.4-69.4,105.2-89.8c50.1-23.9,101-46,152.1-67.8c13.5-5.8,28.7-7.7,46.1-12.1
		c-2.9,5.6-3.9,8.7-5.8,11c-38.7,45.8-57.7,100.4-70.6,157.7c-3.7,16.5-7.5,32.9-10.9,49.5c-8.1,39.3-32.9,69.5-56.3,100
		c-19.5,25.6-46.3,44.3-75.2,57.4c-29,13.1-60.1,22.3-92.3,23.3c-23.9,0.8-41.1,12.6-56.6,28.4c-9.2,9.4-17.7,19.4-26.6,29.1
		c-12.4,13.5-24.7,27.2-37.6,40.2c-6.6,6.6-7.4,12.6-1.8,19.7C287.8,1340.2,291.2,1321.9,295.6,1313.5z M570,991.5
		c-39.7,20.6-181.5,200.6-182.9,228.7C452.6,1146,512.7,1069.7,570,991.5z"/>
</g>
</svg>
