<?xml version="1.0" encoding="utf-8"?>
<!-- Generator: Adobe Illustrator 28.4.1, SVG Export Plug-In . SVG Version: 6.00 Build 0)  -->
<svg version="1.1" xmlns="http://www.w3.org/2000/svg" xmlns:xlink="http://www.w3.org/1999/xlink" x="0px" y="0px"
	 viewBox="0 0 500 500" style="enable-background:new 0 0 500 500;" xml:space="preserve">
<style type="text/css">
	.st0{fill:#B89E89;}
	.st1{fill:#728276;}
	.st2{fill:#707B6F;}
</style>
<g id="Layer_1">
</g>
<g id="Layer_2">
	<g>
		<circle class="st0" cx="283.7" cy="127.6" r="9.6"/>
		<path class="st1" d="M250.2,79.1c-45.3,0-81.9,36.7-81.9,81.9s36.7,81.9,81.9,81.9s81.9-36.7,81.9-81.9S295.4,79.1,250.2,79.1z
			 M305.5,216.3c-14.8,14.8-34.4,22.9-55.3,22.9s-40.6-8.1-55.3-22.9s-22.9-34.4-22.9-55.3s8.1-40.6,22.9-55.3s34.4-22.9,55.3-22.9
			c20.9,0,40.6,8.1,55.3,22.9c14.8,14.8,22.9,34.4,22.9,55.3C328.4,181.9,320.3,201.6,305.5,216.3z"/>
		<path d="M178.4,325.2c0.3-0.4,0.6-0.7,0.9-1.1c1.9-1.8,2.8-3.9,2.8-6.5c0-13.5,0-27,0-40.5c0-2.4-0.6-4.7-2.5-6.4
			c-0.4-0.4-0.7-0.8-1.3-1.6c5.1,0,9.9,0,14.9,0c0.1,3.1,0.3,6.2,0.5,9.3c1.5-1.6,2.9-3.1,4.4-4.5c3.7-3.7,8.4-5.4,13.5-6
			c4-0.5,8-0.1,11.9,1.2c5.1,1.7,8.8,4.9,11.2,9.7c0.2,0.4,0.5,0.9,0.7,1.3c0,0.1,0.1,0.1,0.2,0.1c1.3-1.6,2.5-3.2,3.8-4.7
			c3.8-4.4,8.8-6.5,14.3-7.4c4.7-0.8,9.4-0.3,14,1.3c6.5,2.2,10.3,7,12.1,13.3c0.7,2.3,1,4.7,1,7.1c0.1,8.7,0.1,17.3,0,26
			c0,3.5,0.7,6.6,3.5,9c0.1,0.1,0.2,0.3,0.4,0.7c-6.4,0-12.7,0-19.1,0c0.1-0.3,0.2-0.5,0.4-0.7c2.4-2.2,3.3-5,3.3-8.2
			c-0.1-8,0-16,0-24.1c0-3.5-0.3-6.9-1.7-10.2c-1.4-3.5-3.9-6.1-7.4-7.1c-6.4-1.9-12.6-1.3-18,3.1c-3.4,2.8-4.9,6.9-5.1,11.1
			c-0.4,7.8-0.2,15.7-0.3,23.6c0,0.6,0.1,1.2,0,1.8c-0.6,3.8,1,6.8,3.2,9.6c0.2,0.3,0.4,0.6,0.7,1c-6.3,0-12.4,0-18.8,0
			c0.4-0.6,0.6-0.9,0.9-1.2c2.2-2.1,3-4.7,3-7.6c0-8.6,0-17.2,0-25.8c0-2.9-0.4-5.7-1.6-8.5c-2.1-4.8-5.8-7.4-10.8-8.2
			c-6.5-1-12.1,0.8-16.5,5.9c-2.2,2.6-3.1,5.7-3.2,9c-0.1,6.9-0.2,13.8-0.2,20.6c0,2.7,0,5.4,0,8.1c0,2.7,1.1,4.8,2.9,6.6
			c0.2,0.2,0.4,0.5,0.8,0.9c-6.4,0-12.5,0-18.7,0C178.5,325.4,178.5,325.3,178.4,325.2z"/>
		<path d="M99.3,269.1c5.9,0,11.5,0,17.3,0c-0.4,0.7-0.8,1.3-1,2c-0.4,1.4-1,2.8-1,4.2c-0.1,9-0.2,18.1-0.1,27.1
			c0.1,4,0.6,8.1,2.8,11.6c0.9,1.4,2,2.8,3.4,3.7c6.8,4.3,16.5,3,21.7-1.5c1.5-1.3,2.5-3.3,3.8-5.1c1.3-1.9,1.4-4.1,1.5-6.3
			c0.1-9.4,0-18.8,0-28.2c0-2.5-0.6-4.7-2.6-6.3c-0.3-0.3-0.5-0.7-0.9-1.3c5.6,0,11,0,16.6,0c-0.3,0.6-0.4,1.1-0.7,1.5
			c-0.9,1.2-1.1,2.5-1.1,3.9c0,13,0,26,0.1,38.9c0,2,0,4.1,0.3,6.1c0.3,2,1.2,3.7,2.7,5.1c0.2,0.2,0.4,0.5,0.7,0.9
			c-0.4,0.1-0.7,0.2-1,0.2c-3.4,0-6.7-0.1-10.1-0.2c-2.4,0-2.9-0.2-3.4-2.5c-0.4-1.8-0.4-3.8-0.5-5.7c0-0.3,0-0.6-0.1-0.9
			c-0.2-0.1-0.3-0.3-0.5-0.4c-0.2,0.4-0.3,0.9-0.6,1.2c-5.9,6.8-13.3,9.7-22.2,9.4c-4.5-0.2-8.7-1.2-12.5-3.7
			c-4.9-3.3-7.5-8.1-8-13.9c-0.4-4.4-0.4-8.9-0.5-13.4c-0.1-6.1,0-12.3,0-18.4c0-2.8-0.7-5.3-3-7.1
			C99.9,269.9,99.8,269.6,99.3,269.1z"/>
		<path d="M89.8,314.8c-0.8,3.7-1.6,7.1-2.4,10.7c-20.3,0-40.5,0-60.8,0c0.1-0.3,0.2-0.5,0.3-0.6c2.5-1.9,3.1-4.6,3.2-7.6
			c0.1-8.2,0.1-16.4,0.1-24.5c0-12.8,0-25.6,0-38.5c0-1.5,0-2.9-0.3-4.4c-0.4-2.2-1.3-4.1-3.2-5.4c-0.2-0.1-0.3-0.4-0.7-0.9
			c7,0,13.7,0,20.7,0c-0.4,0.5-0.6,0.8-1,1.1c-2.5,2-3.6,4.6-3.6,7.8c0,8.3,0.1,16.5,0.1,24.8c0,8.6-0.1,17.2-0.1,25.9
			c0,4.2,0,8.5,0,12.7c0,1.8,0.5,3.5,1.7,4.9c0.4,0.5,1.1,1,1.7,1c9.6,0,19.2,0.7,28.7-1.1c5.1-1,10-2.5,14.5-5.3
			C89,315,89.3,315,89.8,314.8z"/>
		<path class="st2" d="M462.1,268.2c3.8,0,7.7,0,11.7,0c-0.7,1.1-1.3,2.1-1.9,3.1c-0.3,0.6-0.5,1.3-0.5,1.9c0,15.7,0,31.5,0.1,47.2
			c0,1.2,1,2.3,1.5,3.5c0.2,0.4,0.5,0.8,0.9,1.4c-4.2,0-8.1,0-12.2,0c0.6-1,1.1-1.8,1.6-2.7c0.3-0.7,0.7-1.4,0.7-2.1
			c0.1-7,0.1-14,0.1-21c0-0.4-0.1-0.8-0.1-1.3c-10.4,0-20.7,0-31.1,0c-0.1,1.1-0.2,2.1-0.2,3.1c0,6.6,0,13.2,0.2,19.8
			c0,1,0.7,1.9,1.1,2.9c0.2,0.4,0.5,0.8,0.9,1.3c-3.9,0-7.6,0-11.6,0c0.4-0.7,0.8-1.1,1-1.6c0.4-0.9,1-1.7,1-2.6
			c0.1-11.5,0.2-22.9,0.2-34.4c0-4.5-0.1-9-0.1-13.5c0-1.4-0.3-2.6-1.3-3.7c-0.3-0.3-0.5-0.7-0.9-1.3c4,0,7.7,0,11.7,0
			c-0.4,0.6-0.7,1-1,1.5c-0.4,0.9-1,1.7-1,2.6c-0.1,6.5-0.2,12.9-0.2,19.4c0,0.9,0.1,1.8,0.2,3c10.4,0,20.7,0.1,31.1-0.1
			c0.1-0.6,0.2-0.9,0.2-1.3c0.1-6.8,0.1-13.7,0.2-20.5c0-1.2-0.9-1.9-1.4-2.7c-0.3-0.5-0.7-1-1-1.4
			C461.9,268.5,462,268.4,462.1,268.2z"/>
		<path class="st2" d="M377.2,325.4c-4.1,0-8,0-12,0c0.7-1,1.4-1.8,1.9-2.7c0.4-0.7,0.7-1.5,0.7-2.2c0.1-4.2,0-8.4,0.1-12.6
			c0-6.3,0.1-12.5,0.1-18.8c0-5.2,0-10.3,0-15.5c0-1.5-0.2-2.7-1.4-3.7c-0.5-0.4-0.8-1-1.3-1.7c0.7-0.1,1.1-0.3,1.5-0.3
			c7.4,0,14.8-0.1,22.2,0c4,0.1,7.8,0.9,11.2,3.3c5.2,3.6,7.4,10.5,5.6,16.6c-1.4,4.7-4.4,7.9-8.7,10c-1.1,0.6-2.4,0.8-3.7,1.3
			c0.2,0.4,0.4,0.7,0.6,1c3.9,5.9,7.8,11.7,11.6,17.6c1.6,2.5,3.3,4.9,5.6,6.9c0.2,0.2,0.4,0.5,0.7,0.9c-0.5,0.1-0.8,0.1-1.1,0.1
			c-1.6,0-3.3-0.1-4.9,0c-2.2,0.1-3.9-0.8-5.1-2.5c-0.7-1-1.4-2.1-2.1-3.2c-3.5-5.5-7.1-10.9-10.6-16.4c-0.6-0.9-1-1.8-1.7-2.6
			c-0.3-0.4-0.8-0.7-1.3-0.8c-3.1-0.1-6.2-0.1-9.3-0.2c-0.3,0-0.6,0.1-1,0.2c0,0.6-0.1,1.1-0.1,1.6c0,6,0,12,0,18.1
			c0,1.5,0.2,2.8,1.3,3.9C376.5,324.2,376.8,324.8,377.2,325.4z M374.9,296.5c0.4,0.1,0.7,0.2,0.9,0.2c3.7,0,7.5,0,11.2-0.1
			c2.9-0.1,5.5-1.1,7.8-2.9c2.6-2,3.4-4.9,3.9-8c1.1-7.6-3-13.5-10.6-14.5c-4-0.5-8.1-0.2-12.2-0.2c-0.3,0-0.5,0.2-1,0.3
			C374.9,279.7,374.9,288.1,374.9,296.5z"/>
		<path d="M320,268.1c-0.6,0.9-1,1.6-1.5,2.2c-1.5,1.7-1.6,3.8-1.6,5.9c0,10.4,0.1,20.8,0.2,31.1c0,3.5-0.1,6.9,0,10.4
			c0,2.9,1.1,5.3,3.4,7.1c0.2,0.1,0.3,0.4,0.6,0.7c-6.4,0-12.6,0-19.1,0c0.4-0.6,0.7-1.1,1.1-1.6c1.7-1.9,2.4-4.1,2.4-6.6
			c0-13.7,0-27.3,0-41c0-2.4-0.5-4.6-2.2-6.4c-0.4-0.4-0.6-1.1-1.1-1.9C308,268.1,313.9,268.1,320,268.1z"/>
		<path class="st1" d="M303.3,264.1c0.7-1,1.2-2.1,2-3c1.6-1.7,2.1-3.8,2.7-5.9c1.2-4.3,2.7-8.5,5.5-12.1
			c4.4-5.7,10.3-8.8,17.2-10.3c5.4-1.2,10.6-2.7,15.2-5.7c0.1,0,0.2,0,0.4,0c-0.6,1.5-1.2,2.9-1.7,4.3c-2.3,6-5.2,11.8-9.1,17
			c-4.4,5.9-10.5,9.4-17.9,10.3c-2.2,0.3-4.4,0.6-6.5,0.9c-1.4,0.2-2.6,0.8-3.7,2c-1.1,1.2-2.5,2-3.7,3
			C303.6,264.4,303.5,264.3,303.3,264.1z M329.3,242c-0.1-0.1-0.2-0.3-0.3-0.4c-0.4,0.2-0.9,0.3-1.2,0.6
			c-3.7,1.3-14.9,10.6-16.9,13.9c-0.4,0.6-0.8,1.1-1.2,1.7c0.1,0.1,0.3,0.2,0.4,0.3C315.9,252.5,322.2,247.2,329.3,242z"/>
		<path d="M203.5,117.1c7.4,0,14.7,0,22.4,0c-0.5,0.5-0.9,1-1.3,1.3c-2.2,1.7-3.1,4-3.1,6.7c0,11.8,0,23.7,0,35.5
			c0,13.6,0,27.1,0,40.7c0,0.9,0.2,1.9,0.3,3c0.1,1,0,2.4,0.1,2.8c0,0.3,0.2,0.5,0.4,0.8c1,1.3,2.2,2.1,4,2.1c7.3-0.1,14.6,0,22,0
			c5.3,0,10.6,0.1,15.9-0.1c5-0.1,10-0.6,14.8-2.2c2.3-0.8,4.5-1.8,6.8-2.8c0.8-0.3,1.3-1,2-1.6c0.3-0.3,0.7-0.5,1.2-1
			c0,0.8,0.2,1.3,0.1,1.7c-0.8,3.2-1.7,6.4-2.6,9.6c-0.1,0.4-0.7,0.7-1.2,0.8c-0.7,0.1-1.5,0.1-2.2,0.1c-25.1,0-50.2,0-75.2,0
			c-1.2,0-2.3-0.2-3.7-0.3c0.3-0.5,0.4-0.8,0.6-0.9c2-1.6,2.6-3.7,2.6-6.2c0-8.4,0-16.8,0-25.1c0-18.4,0-36.8,0-55.2
			c0-1.6-0.4-3.3-0.7-4.9c-0.3-1.4-1.1-2.6-2.3-3.5c-0.4-0.3-0.6-0.8-1-1.2C203.3,117.4,203.4,117.2,203.5,117.1z"/>
		<path class="st1" d="M221.8,204.4c0.4-0.3,0.7-0.3,0.8-0.5c2-2.9,3.9-5.9,5.8-8.8c1.2-1.8,1.4-3.9,1.6-6c0.7-6.7,2.6-13,6.4-18.6
			c2.9-4.2,6.8-7.5,11.4-9.7c5.4-2.6,11-5,16.5-7.3c1.5-0.6,3.1-0.8,5-1.3c-0.3,0.6-0.4,0.9-0.6,1.2c-4.2,5-6.3,10.9-7.7,17.1
			c-0.4,1.8-0.8,3.6-1.2,5.4c-0.9,4.3-3.6,7.5-6.1,10.8c-2.1,2.8-5,4.8-8.2,6.2c-3.1,1.4-6.5,2.4-10,2.5c-2.6,0.1-4.5,1.4-6.1,3.1
			c-1,1-1.9,2.1-2.9,3.1c-1.3,1.5-2.7,2.9-4.1,4.4c-0.7,0.7-0.8,1.4-0.2,2.1C220.9,207.2,221.3,205.3,221.8,204.4z M251.5,169.4
			c-4.3,2.2-19.7,21.7-19.8,24.8C238.8,186.2,245.3,177.9,251.5,169.4z"/>
	</g>
	<g>
		<path d="M144.5,388.5c-1.6,0-3-0.3-4.4-0.8c-1.3-0.5-2.5-1.3-3.5-2.3c-1-1-1.8-2.2-2.3-3.5s-0.8-2.8-0.8-4.4s0.3-3,0.8-4.4
			s1.3-2.5,2.3-3.5c1-1,2.2-1.8,3.5-2.3c1.3-0.5,2.8-0.8,4.4-0.8c1.1,0,2.1,0.1,3.1,0.4c1,0.3,1.9,0.6,2.7,1.1
			c0.1,0.1,0.2,0.2,0.3,0.4c0.1,0.1,0.1,0.3,0.1,0.4c0,0.3-0.1,0.5-0.3,0.7s-0.4,0.3-0.6,0.3c-0.1,0-0.2,0-0.3,0
			c-0.1,0-0.2-0.1-0.3-0.1c-0.7-0.4-1.4-0.7-2.3-0.9c-0.8-0.2-1.7-0.4-2.6-0.4c-1.8,0-3.3,0.4-4.7,1.2c-1.4,0.8-2.4,1.9-3.2,3.3
			c-0.8,1.4-1.2,2.9-1.2,4.7s0.4,3.3,1.2,4.7c0.8,1.4,1.8,2.5,3.2,3.3c1.4,0.8,2.9,1.2,4.7,1.2c0.9,0,1.8-0.1,2.8-0.4
			s1.7-0.6,2.4-1.1l-0.2,0.6v-7l0.5,0.4h-5.3c-0.3,0-0.5-0.1-0.7-0.3c-0.2-0.2-0.3-0.4-0.3-0.6c0-0.3,0.1-0.5,0.3-0.7
			c0.2-0.2,0.4-0.2,0.7-0.2h5.8c0.3,0,0.5,0.1,0.7,0.3c0.2,0.2,0.3,0.4,0.3,0.7v7.4c0,0.2,0,0.3-0.1,0.5s-0.2,0.3-0.3,0.4
			c-0.9,0.6-1.9,1.1-3,1.5C146.8,388.3,145.6,388.5,144.5,388.5z"/>
		<path d="M162.7,388.5c-1.6,0-3-0.3-4.2-1c-1.2-0.7-2.1-1.6-2.8-2.8s-1-2.6-1-4.2c0-1.7,0.3-3.2,1-4.4c0.7-1.2,1.6-2.2,2.7-2.8
			c1.1-0.7,2.2-1,3.5-1c0.9,0,1.8,0.2,2.6,0.5c0.8,0.3,1.6,0.8,2.3,1.4c0.7,0.6,1.2,1.4,1.6,2.3s0.6,1.9,0.7,3.1
			c0,0.2-0.1,0.5-0.3,0.6c-0.2,0.2-0.4,0.3-0.6,0.3h-12.2l-0.4-1.6h12l-0.4,0.4v-0.6c-0.1-1-0.4-1.8-0.9-2.4
			c-0.5-0.7-1.2-1.2-1.9-1.5c-0.7-0.4-1.5-0.5-2.3-0.5c-0.6,0-1.2,0.1-1.9,0.4c-0.6,0.2-1.2,0.6-1.7,1.1c-0.5,0.5-0.9,1.2-1.3,2
			c-0.3,0.8-0.5,1.8-0.5,2.9c0,1.2,0.2,2.3,0.7,3.3c0.5,1,1.2,1.8,2.1,2.3c0.9,0.6,2,0.9,3.3,0.9c0.7,0,1.3-0.1,1.9-0.3
			s1.1-0.5,1.5-0.8c0.4-0.3,0.8-0.7,1.1-1.1c0.2-0.2,0.4-0.3,0.6-0.3c0.2,0,0.4,0.1,0.6,0.2c0.2,0.2,0.2,0.3,0.2,0.5
			c0,0.2-0.1,0.5-0.3,0.6c-0.6,0.7-1.4,1.4-2.4,1.9C164.9,388.2,163.9,388.5,162.7,388.5z"/>
		<path d="M172,385.7c-0.2-0.2-0.2-0.5-0.2-0.7c0-0.2,0.1-0.4,0.4-0.6c0.2-0.1,0.4-0.2,0.6-0.2s0.4,0.1,0.6,0.3
			c0.5,0.7,1.2,1.3,2,1.7c0.8,0.4,1.7,0.7,2.8,0.7c0.6,0,1.1-0.1,1.7-0.3s1-0.5,1.4-0.9c0.4-0.4,0.5-0.9,0.5-1.5
			c0-0.6-0.2-1.1-0.5-1.5c-0.4-0.4-0.8-0.7-1.4-0.9c-0.6-0.2-1.2-0.4-1.9-0.6c-0.7-0.2-1.4-0.4-2-0.6c-0.6-0.2-1.2-0.5-1.7-0.9
			c-0.5-0.4-0.9-0.8-1.2-1.3c-0.3-0.5-0.4-1.1-0.4-1.9c0-0.9,0.2-1.6,0.7-2.3c0.5-0.7,1.1-1.2,1.9-1.5c0.8-0.4,1.7-0.5,2.7-0.5
			c0.5,0,1.1,0.1,1.7,0.2c0.6,0.1,1.2,0.4,1.7,0.7c0.6,0.3,1.1,0.7,1.5,1.3c0.2,0.2,0.3,0.4,0.3,0.6c0,0.2-0.1,0.5-0.3,0.7
			c-0.2,0.1-0.4,0.2-0.6,0.2c-0.2,0-0.4-0.1-0.5-0.3c-0.5-0.5-1.1-1-1.7-1.2c-0.7-0.3-1.4-0.4-2.2-0.4c-0.6,0-1.1,0.1-1.7,0.3
			c-0.5,0.2-1,0.5-1.3,0.9c-0.3,0.4-0.5,0.9-0.5,1.5c0,0.6,0.2,1.1,0.6,1.4c0.4,0.4,0.9,0.7,1.5,0.9s1.3,0.5,2.1,0.7
			c0.7,0.2,1.3,0.4,1.9,0.6c0.6,0.2,1.1,0.5,1.6,0.8c0.5,0.3,0.8,0.8,1.1,1.3s0.4,1.2,0.4,1.9c0,0.9-0.2,1.7-0.7,2.3
			c-0.5,0.7-1.2,1.2-2,1.5s-1.8,0.5-2.8,0.5c-1.1,0-2.2-0.2-3.2-0.6C173.7,387.4,172.8,386.7,172,385.7z"/>
		<path d="M186.2,372.6h7.1c0.2,0,0.4,0.1,0.6,0.3c0.2,0.2,0.2,0.4,0.2,0.6c0,0.2-0.1,0.4-0.2,0.6c-0.2,0.2-0.4,0.2-0.6,0.2h-7.1
			c-0.2,0-0.5-0.1-0.6-0.3c-0.2-0.2-0.3-0.4-0.3-0.6s0.1-0.4,0.3-0.6C185.8,372.7,186,372.6,186.2,372.6z M189.4,368.3
			c0.3,0,0.5,0.1,0.7,0.3c0.2,0.2,0.3,0.4,0.3,0.6v15.3c0,0.6,0.1,1,0.2,1.3c0.2,0.3,0.4,0.5,0.6,0.6s0.5,0.1,0.7,0.1
			c0.2,0,0.3,0,0.4-0.1c0.1,0,0.3-0.1,0.4-0.1c0.2,0,0.3,0.1,0.5,0.2c0.1,0.1,0.2,0.3,0.2,0.5c0,0.3-0.2,0.5-0.5,0.7
			s-0.7,0.3-1.2,0.3c-0.2,0-0.5,0-0.8,0c-0.4,0-0.7-0.1-1.1-0.3c-0.4-0.2-0.7-0.5-1-1c-0.3-0.5-0.4-1.2-0.4-2.1v-15.4
			c0-0.2,0.1-0.5,0.3-0.6C188.9,368.4,189.1,368.3,189.4,368.3z"/>
		<path d="M198.4,370.2c-0.4,0-0.7-0.1-1-0.3c-0.2-0.2-0.3-0.5-0.3-0.8v-0.3c0-0.4,0.1-0.6,0.4-0.8c0.2-0.2,0.6-0.3,1-0.3
			c0.4,0,0.7,0.1,0.9,0.3c0.2,0.2,0.3,0.5,0.3,0.8v0.3c0,0.4-0.1,0.6-0.3,0.8C199.1,370.2,198.8,370.2,198.4,370.2z M199.3,387.3
			c0,0.2-0.1,0.5-0.3,0.6c-0.2,0.2-0.4,0.3-0.6,0.3c-0.3,0-0.5-0.1-0.7-0.3c-0.2-0.2-0.2-0.4-0.2-0.6v-14c0-0.2,0.1-0.5,0.3-0.6
			c0.2-0.2,0.4-0.3,0.7-0.3s0.5,0.1,0.7,0.3c0.2,0.2,0.3,0.4,0.3,0.6V387.3z"/>
		<path d="M218.6,380.4c0,1.5-0.3,2.9-1,4.2c-0.7,1.2-1.6,2.2-2.7,2.9s-2.5,1.1-4,1.1c-1.4,0-2.8-0.4-3.9-1.1s-2.1-1.7-2.8-2.9
			c-0.7-1.2-1-2.6-1-4.2c0-1.6,0.3-3,1-4.2c0.7-1.2,1.6-2.2,2.8-2.9c1.2-0.7,2.5-1.1,3.9-1.1c1.5,0,2.8,0.4,4,1.1
			c1.2,0.7,2.1,1.7,2.7,2.9S218.6,378.8,218.6,380.4z M216.8,380.4c0-1.2-0.3-2.3-0.8-3.3c-0.5-1-1.2-1.7-2.1-2.3
			c-0.9-0.5-1.9-0.8-3-0.8c-1.1,0-2.1,0.3-3,0.8c-0.9,0.5-1.6,1.3-2.1,2.3c-0.5,1-0.8,2.1-0.8,3.3c0,1.2,0.3,2.3,0.8,3.3
			s1.2,1.7,2.1,2.3c0.9,0.6,1.9,0.8,3,0.8c1.1,0,2.2-0.3,3-0.8c0.9-0.6,1.6-1.3,2.1-2.3C216.6,382.7,216.8,381.6,216.8,380.4z
			 M210.5,371.1c-0.1,0-0.2-0.1-0.3-0.2c-0.1-0.1-0.2-0.2-0.2-0.4c0-0.1,0.1-0.3,0.2-0.4l1.9-2.9c0.1-0.2,0.2-0.3,0.4-0.5
			c0.2-0.1,0.4-0.2,0.6-0.2c0.3,0,0.6,0.1,0.8,0.2c0.2,0.2,0.3,0.4,0.2,0.7c0,0.1,0,0.3-0.1,0.4c-0.1,0.1-0.1,0.2-0.2,0.3l-2.3,2.4
			c-0.1,0.1-0.3,0.3-0.4,0.4C210.9,371.1,210.7,371.1,210.5,371.1z"/>
		<path d="M229.9,372.2c1.3,0,2.4,0.3,3.2,0.8c0.8,0.5,1.4,1.3,1.7,2.2c0.4,0.9,0.5,2,0.5,3.1v9c0,0.2-0.1,0.5-0.3,0.6
			c-0.2,0.2-0.4,0.3-0.6,0.3c-0.3,0-0.5-0.1-0.7-0.3c-0.2-0.2-0.3-0.4-0.3-0.6v-8.9c0-0.8-0.1-1.6-0.4-2.2c-0.3-0.7-0.7-1.2-1.3-1.6
			c-0.6-0.4-1.4-0.6-2.4-0.6c-0.9,0-1.7,0.2-2.5,0.6c-0.8,0.4-1.4,0.9-1.9,1.6c-0.5,0.7-0.7,1.4-0.7,2.2v8.9c0,0.2-0.1,0.5-0.3,0.6
			c-0.2,0.2-0.4,0.3-0.6,0.3c-0.3,0-0.5-0.1-0.7-0.3c-0.2-0.2-0.3-0.4-0.3-0.6v-13.7c0-0.2,0.1-0.5,0.3-0.6c0.2-0.2,0.4-0.3,0.7-0.3
			s0.5,0.1,0.7,0.3c0.2,0.2,0.3,0.4,0.3,0.6v2.6l-0.7,1.1c0-0.7,0.2-1.3,0.6-1.9c0.4-0.6,0.9-1.1,1.5-1.6c0.6-0.5,1.2-0.9,2-1.1
			C228.4,372.3,229.2,372.2,229.9,372.2z"/>
		<path d="M250,366.8c0.2,0,0.5,0.1,0.7,0.3s0.3,0.4,0.3,0.7v19.5c0,0.3-0.1,0.5-0.3,0.7c-0.2,0.2-0.4,0.3-0.7,0.3
			c-0.3,0-0.5-0.1-0.7-0.3c-0.2-0.2-0.2-0.4-0.2-0.7v-19.5c0-0.3,0.1-0.5,0.3-0.7S249.7,366.8,250,366.8z M249.8,376.4h14.5l0,1.8
			h-14.6L249.8,376.4z M264.3,366.8c0.3,0,0.5,0.1,0.7,0.3c0.2,0.2,0.3,0.4,0.3,0.7v19.5c0,0.3-0.1,0.5-0.3,0.7
			c-0.2,0.2-0.4,0.3-0.7,0.3c-0.3,0-0.5-0.1-0.7-0.3c-0.2-0.2-0.3-0.4-0.3-0.7v-19.5c0-0.3,0.1-0.5,0.3-0.7S264,366.8,264.3,366.8z"
			/>
		<path d="M282.2,372.7c0.3,0,0.5,0.1,0.7,0.3c0.2,0.2,0.3,0.4,0.3,0.6v8.6c0,2-0.6,3.6-1.7,4.6c-1.1,1.1-2.7,1.6-4.6,1.6
			s-3.5-0.5-4.6-1.6s-1.7-2.6-1.7-4.6v-8.6c0-0.2,0.1-0.5,0.3-0.6c0.2-0.2,0.4-0.3,0.7-0.3c0.3,0,0.5,0.1,0.7,0.3
			c0.2,0.2,0.3,0.4,0.3,0.6v8.6c0,1.5,0.4,2.6,1.2,3.3c0.8,0.8,1.9,1.1,3.3,1.1c1.4,0,2.5-0.4,3.3-1.1c0.8-0.8,1.2-1.9,1.2-3.3v-8.6
			c0-0.2,0.1-0.5,0.3-0.6C281.7,372.8,281.9,372.7,282.2,372.7z"/>
		<path d="M294.9,372.4c1.3,0,2.3,0.3,3.2,1c0.9,0.7,1.5,1.6,1.8,2.9l-0.4,0.1l0.2-0.5c0.3-0.6,0.7-1.2,1.3-1.7
			c0.6-0.5,1.3-1,2.1-1.3c0.8-0.3,1.6-0.5,2.4-0.5c1.3,0,2.3,0.3,3.1,0.8c0.8,0.5,1.4,1.3,1.7,2.2c0.4,0.9,0.5,2,0.5,3.1v8.6
			c0,0.2-0.1,0.5-0.3,0.6c-0.2,0.2-0.4,0.3-0.7,0.3c-0.3,0-0.5-0.1-0.7-0.3c-0.2-0.2-0.2-0.4-0.2-0.6v-8.6c0-0.8-0.1-1.6-0.4-2.3
			c-0.3-0.7-0.7-1.2-1.3-1.6c-0.6-0.4-1.3-0.6-2.3-0.6c-0.9,0-1.7,0.2-2.4,0.6c-0.8,0.4-1.4,1-1.8,1.6c-0.5,0.7-0.7,1.5-0.7,2.3v8.6
			c0,0.2-0.1,0.5-0.3,0.6c-0.2,0.2-0.4,0.3-0.7,0.3s-0.5-0.1-0.7-0.3c-0.2-0.2-0.3-0.4-0.3-0.6v-8.6c0-0.8-0.1-1.6-0.4-2.2
			c-0.2-0.7-0.6-1.2-1.2-1.6s-1.3-0.6-2.2-0.6c-0.8,0-1.6,0.2-2.4,0.6c-0.7,0.4-1.3,0.9-1.8,1.6c-0.5,0.7-0.7,1.4-0.7,2.2v8.6
			c0,0.2-0.1,0.5-0.3,0.6c-0.2,0.2-0.4,0.3-0.6,0.3c-0.3,0-0.5-0.1-0.7-0.3c-0.2-0.2-0.3-0.4-0.3-0.6v-13.7c0-0.2,0.1-0.5,0.3-0.6
			c0.2-0.2,0.4-0.3,0.7-0.3c0.3,0,0.5,0.1,0.7,0.3c0.2,0.2,0.3,0.4,0.3,0.6v2.8l-0.8,1.1c0.1-0.6,0.3-1.2,0.6-1.8s0.8-1.2,1.3-1.6
			c0.5-0.5,1.2-0.9,1.9-1.2C293.4,372.6,294.1,372.4,294.9,372.4z"/>
		<path d="M328.5,372.6c0.3,0,0.5,0.1,0.7,0.3c0.2,0.2,0.3,0.4,0.3,0.7v13.7c0,0.2-0.1,0.5-0.3,0.6c-0.2,0.2-0.4,0.3-0.6,0.3
			c-0.3,0-0.5-0.1-0.7-0.3c-0.2-0.2-0.2-0.4-0.2-0.6v-3.6l0.5-0.2c0,0.5-0.2,1.1-0.5,1.7c-0.3,0.6-0.7,1.2-1.3,1.6
			c-0.5,0.5-1.2,0.9-1.9,1.2s-1.5,0.5-2.4,0.5c-1.4,0-2.6-0.4-3.7-1.1c-1.1-0.7-1.9-1.7-2.6-2.9c-0.6-1.2-0.9-2.6-0.9-4.2
			c0-1.6,0.3-3,0.9-4.2c0.6-1.2,1.5-2.2,2.6-2.9c1.1-0.7,2.3-1,3.6-1c0.9,0,1.7,0.2,2.5,0.5c0.8,0.3,1.4,0.7,2,1.3
			c0.6,0.5,1,1.1,1.3,1.8c0.3,0.7,0.5,1.4,0.5,2.1l-0.6-0.5v-3.9c0-0.3,0.1-0.5,0.2-0.7C328,372.7,328.3,372.6,328.5,372.6z
			 M322.2,386.8c1.1,0,2-0.3,2.9-0.8c0.8-0.6,1.5-1.3,2-2.3c0.5-1,0.7-2.1,0.7-3.3c0-1.2-0.2-2.3-0.7-3.2c-0.5-1-1.1-1.7-2-2.3
			c-0.8-0.6-1.8-0.8-2.9-0.8c-1.1,0-2,0.3-2.9,0.8c-0.8,0.5-1.5,1.3-2,2.2c-0.5,1-0.7,2.1-0.7,3.3c0,1.2,0.2,2.3,0.7,3.3
			s1.1,1.8,2,2.3C320.2,386.5,321.1,386.8,322.2,386.8z"/>
		<path d="M341.6,372.2c1.3,0,2.4,0.3,3.2,0.8c0.8,0.5,1.4,1.3,1.7,2.2c0.4,0.9,0.5,2,0.5,3.1v9c0,0.2-0.1,0.5-0.3,0.6
			c-0.2,0.2-0.4,0.3-0.6,0.3c-0.3,0-0.5-0.1-0.7-0.3c-0.2-0.2-0.3-0.4-0.3-0.6v-8.9c0-0.8-0.1-1.6-0.4-2.2s-0.7-1.2-1.3-1.6
			c-0.6-0.4-1.4-0.6-2.4-0.6c-0.9,0-1.7,0.2-2.5,0.6c-0.8,0.4-1.4,0.9-1.9,1.6c-0.5,0.7-0.7,1.4-0.7,2.2v8.9c0,0.2-0.1,0.5-0.3,0.6
			c-0.2,0.2-0.4,0.3-0.6,0.3c-0.3,0-0.5-0.1-0.7-0.3c-0.2-0.2-0.3-0.4-0.3-0.6v-13.7c0-0.2,0.1-0.5,0.3-0.6c0.2-0.2,0.4-0.3,0.7-0.3
			c0.3,0,0.5,0.1,0.7,0.3c0.2,0.2,0.3,0.4,0.3,0.6v2.6l-0.7,1.1c0-0.7,0.2-1.3,0.6-1.9c0.4-0.6,0.9-1.1,1.5-1.6s1.2-0.9,2-1.1
			C340.2,372.3,340.9,372.2,341.6,372.2z"/>
		<path d="M364.7,372.6c0.3,0,0.5,0.1,0.7,0.3c0.2,0.2,0.3,0.4,0.3,0.7v13.7c0,0.2-0.1,0.5-0.3,0.6c-0.2,0.2-0.4,0.3-0.6,0.3
			c-0.3,0-0.5-0.1-0.7-0.3c-0.2-0.2-0.2-0.4-0.2-0.6v-3.6l0.5-0.2c0,0.5-0.2,1.1-0.5,1.7c-0.3,0.6-0.7,1.2-1.3,1.6
			c-0.5,0.5-1.2,0.9-1.9,1.2s-1.5,0.5-2.4,0.5c-1.4,0-2.6-0.4-3.7-1.1c-1.1-0.7-1.9-1.7-2.6-2.9c-0.6-1.2-0.9-2.6-0.9-4.2
			c0-1.6,0.3-3,0.9-4.2c0.6-1.2,1.5-2.2,2.6-2.9c1.1-0.7,2.3-1,3.6-1c0.9,0,1.7,0.2,2.5,0.5c0.8,0.3,1.4,0.7,2,1.3
			c0.6,0.5,1,1.1,1.3,1.8c0.3,0.7,0.5,1.4,0.5,2.1l-0.6-0.5v-3.9c0-0.3,0.1-0.5,0.2-0.7C364.2,372.7,364.4,372.6,364.7,372.6z
			 M358.4,386.8c1.1,0,2-0.3,2.9-0.8c0.8-0.6,1.5-1.3,2-2.3c0.5-1,0.7-2.1,0.7-3.3c0-1.2-0.2-2.3-0.7-3.2c-0.5-1-1.1-1.7-2-2.3
			c-0.8-0.6-1.8-0.8-2.9-0.8c-1.1,0-2,0.3-2.9,0.8c-0.8,0.5-1.5,1.3-2,2.2c-0.5,1-0.7,2.1-0.7,3.3c0,1.2,0.2,2.3,0.7,3.3
			s1.1,1.8,2,2.3C356.3,386.5,357.3,386.8,358.4,386.8z"/>
		<path d="M29.8,405c0.2,0.2,0.4,0.4,0.4,0.6c0,0.3,0,0.5-0.2,0.7c-0.1,0.2-0.3,0.3-0.5,0.3c-0.2,0-0.4,0-0.7-0.1
			c-0.8-0.5-1.6-0.9-2.5-1.2c-0.9-0.3-1.8-0.4-2.8-0.4c-1.2,0-2.4,0.2-3.5,0.7c-1.1,0.4-2,1.1-2.8,1.9c-0.8,0.8-1.4,1.8-1.8,2.9
			c-0.4,1.1-0.7,2.4-0.7,3.7c0,1.4,0.2,2.6,0.7,3.8c0.4,1.1,1.1,2.1,1.9,2.9c0.8,0.8,1.7,1.4,2.8,1.9s2.2,0.6,3.4,0.6
			c1,0,1.9-0.1,2.8-0.4c0.9-0.3,1.7-0.7,2.5-1.2c0.2-0.1,0.4-0.2,0.6-0.1s0.4,0.1,0.6,0.4c0.2,0.2,0.2,0.5,0.2,0.7
			c0,0.3-0.2,0.5-0.4,0.6c-0.5,0.3-1.1,0.6-1.8,0.9c-0.7,0.3-1.4,0.5-2.2,0.7c-0.8,0.2-1.5,0.2-2.3,0.2c-1.5,0-2.8-0.3-4.1-0.8
			s-2.4-1.3-3.4-2.2c-1-1-1.8-2.1-2.3-3.5c-0.6-1.3-0.9-2.8-0.9-4.5c0-1.6,0.3-3,0.8-4.4c0.6-1.3,1.3-2.5,2.3-3.5
			c1-1,2.1-1.8,3.4-2.3c1.3-0.5,2.7-0.8,4.2-0.8c1.2,0,2.3,0.2,3.4,0.5C27.9,404,28.9,404.4,29.8,405z"/>
		<path d="M40.7,425.1c-1.6,0-3-0.3-4.2-1c-1.2-0.7-2.1-1.6-2.8-2.8s-1-2.6-1-4.2c0-1.7,0.3-3.2,1-4.4c0.7-1.2,1.6-2.2,2.7-2.8
			c1.1-0.7,2.2-1,3.5-1c0.9,0,1.8,0.2,2.6,0.5c0.8,0.3,1.6,0.8,2.3,1.4c0.7,0.6,1.2,1.4,1.6,2.3s0.6,1.9,0.7,3.1
			c0,0.2-0.1,0.5-0.3,0.6c-0.2,0.2-0.4,0.3-0.6,0.3H33.8l-0.4-1.6h12l-0.4,0.4v-0.6c-0.1-1-0.4-1.8-0.9-2.4
			c-0.5-0.7-1.2-1.2-1.9-1.5c-0.7-0.4-1.5-0.5-2.3-0.5c-0.6,0-1.2,0.1-1.9,0.4c-0.6,0.2-1.2,0.6-1.7,1.1c-0.5,0.5-0.9,1.2-1.3,2
			c-0.3,0.8-0.5,1.8-0.5,2.9c0,1.2,0.2,2.3,0.7,3.3c0.5,1,1.2,1.8,2.1,2.3c0.9,0.6,2,0.9,3.3,0.9c0.7,0,1.3-0.1,1.9-0.3
			s1.1-0.5,1.5-0.8c0.4-0.3,0.8-0.7,1.1-1.1c0.2-0.2,0.4-0.3,0.6-0.3c0.2,0,0.4,0.1,0.6,0.2c0.2,0.2,0.2,0.3,0.2,0.5
			c0,0.2-0.1,0.5-0.3,0.6c-0.6,0.7-1.4,1.4-2.4,1.9C42.9,424.9,41.8,425.1,40.7,425.1z"/>
		<path d="M51.8,424.8c-0.3,0-0.5-0.1-0.7-0.3c-0.2-0.2-0.3-0.4-0.3-0.6v-13.7c0-0.2,0.1-0.5,0.3-0.6c0.2-0.2,0.4-0.3,0.7-0.3
			s0.5,0.1,0.7,0.3c0.2,0.2,0.3,0.4,0.3,0.6v4.6l-0.5,0.1c0.1-0.7,0.2-1.4,0.5-2.1c0.3-0.7,0.7-1.3,1.2-1.9c0.5-0.6,1.1-1.1,1.8-1.4
			c0.7-0.4,1.5-0.5,2.4-0.5c0.4,0,0.7,0.1,1.1,0.2c0.3,0.2,0.5,0.4,0.5,0.7c0,0.3-0.1,0.5-0.2,0.7c-0.2,0.2-0.4,0.2-0.6,0.2
			c-0.2,0-0.4-0.1-0.6-0.2c-0.2-0.1-0.5-0.2-0.8-0.2c-0.6,0-1.1,0.2-1.7,0.5c-0.6,0.3-1.1,0.8-1.6,1.4c-0.5,0.6-0.8,1.2-1.1,1.9
			s-0.4,1.4-0.4,2.1v7.5c0,0.2-0.1,0.5-0.3,0.6C52.3,424.7,52,424.8,51.8,424.8z"/>
		<path d="M69.5,408.9c1,0,1.9,0.1,2.7,0.3s1.5,0.5,2,0.9c0.5,0.4,0.7,0.8,0.7,1.2c0,0.2-0.1,0.4-0.2,0.6c-0.1,0.2-0.3,0.3-0.6,0.3
			c-0.3,0-0.5-0.1-0.6-0.2c-0.2-0.1-0.3-0.3-0.4-0.4c-0.1-0.2-0.4-0.3-0.6-0.4c-0.3-0.1-0.6-0.3-1.1-0.4c-0.5-0.1-1.1-0.1-1.7-0.1
			c-1.1,0-2.2,0.3-3.1,0.9s-1.6,1.3-2.2,2.3c-0.5,1-0.8,2-0.8,3.2c0,1.2,0.3,2.3,0.8,3.3c0.5,1,1.2,1.7,2.1,2.3
			c0.9,0.6,1.9,0.8,3.1,0.8c0.8,0,1.4-0.1,1.9-0.2s0.8-0.3,1.1-0.5c0.4-0.2,0.7-0.4,0.9-0.7c0.2-0.2,0.4-0.3,0.7-0.3
			c0.3,0,0.5,0.1,0.6,0.2c0.1,0.2,0.2,0.4,0.2,0.6c0,0.3-0.2,0.7-0.7,1.1c-0.5,0.4-1.1,0.7-2,1s-1.8,0.4-2.9,0.4
			c-1.5,0-2.8-0.4-4-1.1c-1.2-0.7-2-1.7-2.7-2.9c-0.6-1.2-1-2.6-1-4.2c0-1.5,0.3-2.8,1-4.1c0.7-1.2,1.6-2.2,2.7-2.9
			C66.6,409.2,67.9,408.9,69.5,408.9z"/>
		<path d="M91.3,409.2c0.3,0,0.5,0.1,0.7,0.3c0.2,0.2,0.3,0.4,0.3,0.7v13.7c0,0.2-0.1,0.5-0.3,0.6c-0.2,0.2-0.4,0.3-0.6,0.3
			c-0.3,0-0.5-0.1-0.7-0.3c-0.2-0.2-0.2-0.4-0.2-0.6v-3.6l0.5-0.2c0,0.5-0.2,1.1-0.5,1.7c-0.3,0.6-0.7,1.2-1.3,1.6
			c-0.5,0.5-1.2,0.9-1.9,1.2c-0.7,0.3-1.5,0.5-2.4,0.5c-1.4,0-2.6-0.4-3.7-1.1c-1.1-0.7-1.9-1.7-2.6-2.9c-0.6-1.2-0.9-2.6-0.9-4.2
			c0-1.6,0.3-3,0.9-4.2c0.6-1.2,1.5-2.2,2.6-2.9s2.3-1,3.6-1c0.9,0,1.7,0.2,2.5,0.5c0.8,0.3,1.4,0.7,2,1.3c0.6,0.5,1,1.1,1.3,1.8
			c0.3,0.7,0.5,1.4,0.5,2.1l-0.6-0.5v-3.9c0-0.3,0.1-0.5,0.2-0.7C90.8,409.3,91,409.2,91.3,409.2z M84.9,423.4c1.1,0,2-0.3,2.9-0.8
			c0.8-0.6,1.5-1.3,2-2.3c0.5-1,0.7-2.1,0.7-3.3c0-1.2-0.2-2.3-0.7-3.2c-0.5-1-1.1-1.7-2-2.3c-0.8-0.6-1.8-0.8-2.9-0.8
			c-1.1,0-2,0.3-2.9,0.8c-0.8,0.5-1.5,1.3-2,2.2c-0.5,1-0.7,2.1-0.7,3.3c0,1.2,0.2,2.3,0.7,3.3c0.5,1,1.1,1.8,2,2.3
			C82.9,423.1,83.8,423.4,84.9,423.4z"/>
		<path d="M104.3,408.9c1.3,0,2.4,0.3,3.2,0.8c0.8,0.5,1.4,1.3,1.7,2.2c0.4,0.9,0.5,2,0.5,3.1v9c0,0.2-0.1,0.5-0.3,0.6
			c-0.2,0.2-0.4,0.3-0.6,0.3c-0.3,0-0.5-0.1-0.7-0.3c-0.2-0.2-0.3-0.4-0.3-0.6V415c0-0.8-0.1-1.6-0.4-2.2c-0.3-0.7-0.7-1.2-1.3-1.6
			c-0.6-0.4-1.4-0.6-2.4-0.6c-0.9,0-1.7,0.2-2.5,0.6c-0.8,0.4-1.4,0.9-1.9,1.6c-0.5,0.7-0.7,1.4-0.7,2.2v8.9c0,0.2-0.1,0.5-0.3,0.6
			c-0.2,0.2-0.4,0.3-0.6,0.3c-0.3,0-0.5-0.1-0.7-0.3c-0.2-0.2-0.3-0.4-0.3-0.6v-13.7c0-0.2,0.1-0.5,0.3-0.6c0.2-0.2,0.4-0.3,0.7-0.3
			s0.5,0.1,0.7,0.3c0.2,0.2,0.3,0.4,0.3,0.6v2.6l-0.7,1.1c0-0.7,0.2-1.3,0.6-1.9c0.4-0.6,0.9-1.1,1.5-1.6c0.6-0.5,1.2-0.9,2-1.1
			C102.9,409,103.6,408.9,104.3,408.9z"/>
		<path d="M127.4,409.2c0.3,0,0.5,0.1,0.7,0.3c0.2,0.2,0.3,0.4,0.3,0.7v13.7c0,0.2-0.1,0.5-0.3,0.6c-0.2,0.2-0.4,0.3-0.6,0.3
			c-0.3,0-0.5-0.1-0.7-0.3c-0.2-0.2-0.2-0.4-0.2-0.6v-3.6l0.5-0.2c0,0.5-0.2,1.1-0.5,1.7c-0.3,0.6-0.7,1.2-1.3,1.6
			c-0.5,0.5-1.2,0.9-1.9,1.2c-0.7,0.3-1.5,0.5-2.4,0.5c-1.4,0-2.6-0.4-3.7-1.1c-1.1-0.7-1.9-1.7-2.6-2.9c-0.6-1.2-0.9-2.6-0.9-4.2
			c0-1.6,0.3-3,0.9-4.2c0.6-1.2,1.5-2.2,2.6-2.9s2.3-1,3.6-1c0.9,0,1.7,0.2,2.5,0.5c0.8,0.3,1.4,0.7,2,1.3c0.6,0.5,1,1.1,1.3,1.8
			c0.3,0.7,0.5,1.4,0.5,2.1l-0.6-0.5v-3.9c0-0.3,0.1-0.5,0.2-0.7C126.9,409.3,127.1,409.2,127.4,409.2z M121.1,423.4
			c1.1,0,2-0.3,2.9-0.8c0.8-0.6,1.5-1.3,2-2.3c0.5-1,0.7-2.1,0.7-3.3c0-1.2-0.2-2.3-0.7-3.2c-0.5-1-1.1-1.7-2-2.3
			c-0.8-0.6-1.8-0.8-2.9-0.8c-1.1,0-2,0.3-2.9,0.8c-0.8,0.5-1.5,1.3-2,2.2c-0.5,1-0.7,2.1-0.7,3.3c0,1.2,0.2,2.3,0.7,3.3
			c0.5,1,1.1,1.8,2,2.3C119,423.1,120,423.4,121.1,423.4z"/>
		<path d="M135.6,425.1c0,0.5-0.2,1.1-0.5,1.6c-0.3,0.5-0.7,0.9-1.2,1.3c-0.5,0.3-0.9,0.5-1.4,0.5c-0.2,0-0.3-0.1-0.5-0.2
			c-0.2-0.1-0.2-0.3-0.2-0.5c0-0.3,0.1-0.5,0.3-0.5c0.2,0,0.4-0.1,0.7-0.3c0.3-0.2,0.6-0.4,0.8-0.6c0.2-0.2,0.3-0.5,0.3-0.9
			c0-0.3-0.1-0.5-0.2-0.6c-0.2-0.1-0.3-0.2-0.5-0.2c-0.1,0-0.3,0-0.4,0.1c-0.1,0-0.3,0.1-0.4,0.2c-0.1-0.1-0.2-0.2-0.3-0.3
			s-0.1-0.3-0.1-0.5c0-0.3,0.2-0.6,0.5-0.9c0.3-0.3,0.7-0.4,1.2-0.4c0.5,0,1,0.2,1.4,0.7C135.4,424,135.6,424.5,135.6,425.1z"/>
		<path d="M148.8,403.4h11.2c0.3,0,0.5,0.1,0.7,0.3c0.2,0.2,0.3,0.4,0.3,0.7s-0.1,0.5-0.3,0.6c-0.2,0.2-0.4,0.2-0.7,0.2h-10.5
			l0.3-0.5v8.6l-0.3-0.4h9.1c0.3,0,0.5,0.1,0.7,0.3c0.2,0.2,0.3,0.4,0.3,0.6c0,0.3-0.1,0.5-0.3,0.6s-0.4,0.2-0.7,0.2h-9.1l0.3-0.3
			v8.8l-0.2-0.2h10.3c0.3,0,0.5,0.1,0.7,0.3c0.2,0.2,0.3,0.4,0.3,0.6c0,0.3-0.1,0.5-0.3,0.6c-0.2,0.2-0.4,0.2-0.7,0.2h-11.2
			c-0.3,0-0.5-0.1-0.7-0.3c-0.2-0.2-0.3-0.4-0.3-0.6v-19.5c0-0.2,0.1-0.5,0.3-0.6C148.3,403.5,148.5,403.4,148.8,403.4z"/>
		<path d="M163.9,422.3c-0.2-0.2-0.2-0.5-0.2-0.7c0-0.2,0.1-0.4,0.4-0.6c0.2-0.1,0.4-0.2,0.6-0.2s0.4,0.1,0.6,0.3
			c0.5,0.7,1.2,1.3,2,1.7c0.8,0.4,1.7,0.7,2.8,0.7c0.6,0,1.1-0.1,1.7-0.3s1-0.5,1.4-0.9c0.4-0.4,0.5-0.9,0.5-1.5
			c0-0.6-0.2-1.1-0.5-1.5c-0.4-0.4-0.8-0.7-1.4-0.9c-0.6-0.2-1.2-0.4-1.9-0.6c-0.7-0.2-1.4-0.4-2-0.6c-0.6-0.2-1.2-0.5-1.7-0.9
			c-0.5-0.4-0.9-0.8-1.2-1.3c-0.3-0.5-0.4-1.1-0.4-1.9c0-0.9,0.2-1.6,0.7-2.3c0.5-0.7,1.1-1.2,1.9-1.5c0.8-0.4,1.7-0.5,2.7-0.5
			c0.5,0,1.1,0.1,1.7,0.2c0.6,0.1,1.2,0.4,1.7,0.7c0.6,0.3,1.1,0.7,1.5,1.3c0.2,0.2,0.3,0.4,0.3,0.6c0,0.2-0.1,0.5-0.3,0.7
			c-0.2,0.1-0.4,0.2-0.6,0.2c-0.2,0-0.4-0.1-0.5-0.3c-0.5-0.5-1.1-1-1.7-1.2c-0.7-0.3-1.4-0.4-2.2-0.4c-0.6,0-1.1,0.1-1.7,0.3
			c-0.5,0.2-1,0.5-1.3,0.9c-0.3,0.4-0.5,0.9-0.5,1.5c0,0.6,0.2,1.1,0.6,1.4c0.4,0.4,0.9,0.7,1.5,0.9s1.3,0.5,2.1,0.7
			c0.7,0.2,1.3,0.4,1.9,0.6c0.6,0.2,1.1,0.5,1.6,0.8c0.5,0.3,0.8,0.8,1.1,1.3s0.4,1.2,0.4,1.9c0,0.9-0.2,1.7-0.7,2.3
			c-0.5,0.7-1.2,1.2-2,1.5s-1.8,0.5-2.8,0.5c-1.1,0-2.2-0.2-3.2-0.6C165.6,424.1,164.6,423.3,163.9,422.3z"/>
		<path d="M178.1,409.3h7.1c0.2,0,0.4,0.1,0.6,0.3c0.2,0.2,0.2,0.4,0.2,0.6c0,0.2-0.1,0.4-0.2,0.6c-0.2,0.2-0.4,0.2-0.6,0.2h-7.1
			c-0.2,0-0.5-0.1-0.6-0.3c-0.2-0.2-0.3-0.4-0.3-0.6s0.1-0.4,0.3-0.6C177.6,409.4,177.8,409.3,178.1,409.3z M181.2,405
			c0.3,0,0.5,0.1,0.7,0.3c0.2,0.2,0.3,0.4,0.3,0.6v15.3c0,0.6,0.1,1,0.2,1.3c0.2,0.3,0.4,0.5,0.6,0.6s0.5,0.1,0.7,0.1
			c0.2,0,0.3,0,0.4-0.1c0.1,0,0.3-0.1,0.4-0.1c0.2,0,0.3,0.1,0.5,0.2c0.1,0.1,0.2,0.3,0.2,0.5c0,0.3-0.2,0.5-0.5,0.7
			s-0.7,0.3-1.2,0.3c-0.2,0-0.5,0-0.8,0c-0.4,0-0.7-0.1-1.1-0.3c-0.4-0.2-0.7-0.5-1-1c-0.3-0.5-0.4-1.2-0.4-2.1v-15.4
			c0-0.2,0.1-0.5,0.3-0.6C180.7,405.1,180.9,405,181.2,405z"/>
		<path d="M190.3,424.8c-0.3,0-0.5-0.1-0.7-0.3c-0.2-0.2-0.3-0.4-0.3-0.6v-13.7c0-0.2,0.1-0.5,0.3-0.6c0.2-0.2,0.4-0.3,0.7-0.3
			s0.5,0.1,0.7,0.3c0.2,0.2,0.3,0.4,0.3,0.6v4.6l-0.5,0.1c0.1-0.7,0.2-1.4,0.5-2.1c0.3-0.7,0.7-1.3,1.2-1.9c0.5-0.6,1.1-1.1,1.8-1.4
			c0.7-0.4,1.5-0.5,2.4-0.5c0.4,0,0.7,0.1,1.1,0.2c0.3,0.2,0.5,0.4,0.5,0.7c0,0.3-0.1,0.5-0.2,0.7c-0.2,0.2-0.4,0.2-0.6,0.2
			c-0.2,0-0.4-0.1-0.6-0.2c-0.2-0.1-0.5-0.2-0.8-0.2c-0.6,0-1.1,0.2-1.7,0.5c-0.6,0.3-1.1,0.8-1.6,1.4c-0.5,0.6-0.8,1.2-1.1,1.9
			s-0.4,1.4-0.4,2.1v7.5c0,0.2-0.1,0.5-0.3,0.6C190.8,424.7,190.6,424.8,190.3,424.8z"/>
		<path d="M214,409.2c0.3,0,0.5,0.1,0.7,0.3c0.2,0.2,0.3,0.4,0.3,0.7v13.7c0,0.2-0.1,0.5-0.3,0.6c-0.2,0.2-0.4,0.3-0.6,0.3
			c-0.3,0-0.5-0.1-0.7-0.3c-0.2-0.2-0.2-0.4-0.2-0.6v-3.6l0.5-0.2c0,0.5-0.2,1.1-0.5,1.7c-0.3,0.6-0.7,1.2-1.3,1.6
			c-0.5,0.5-1.2,0.9-1.9,1.2c-0.7,0.3-1.5,0.5-2.4,0.5c-1.4,0-2.6-0.4-3.7-1.1c-1.1-0.7-1.9-1.7-2.6-2.9c-0.6-1.2-0.9-2.6-0.9-4.2
			c0-1.6,0.3-3,0.9-4.2c0.6-1.2,1.5-2.2,2.6-2.9s2.3-1,3.6-1c0.9,0,1.7,0.2,2.5,0.5c0.8,0.3,1.4,0.7,2,1.3c0.6,0.5,1,1.1,1.3,1.8
			c0.3,0.7,0.5,1.4,0.5,2.1L213,414v-3.9c0-0.3,0.1-0.5,0.2-0.7C213.5,409.3,213.7,409.2,214,409.2z M207.6,423.4
			c1.1,0,2-0.3,2.9-0.8c0.8-0.6,1.5-1.3,2-2.3c0.5-1,0.7-2.1,0.7-3.3c0-1.2-0.2-2.3-0.7-3.2c-0.5-1-1.1-1.7-2-2.3
			c-0.8-0.6-1.8-0.8-2.9-0.8c-1.1,0-2,0.3-2.9,0.8c-0.8,0.5-1.5,1.3-2,2.2c-0.5,1-0.7,2.1-0.7,3.3c0,1.2,0.2,2.3,0.7,3.3
			c0.5,1,1.1,1.8,2,2.3C205.6,423.1,206.5,423.4,207.6,423.4z"/>
		<path d="M218.7,409.3h7.1c0.2,0,0.4,0.1,0.6,0.3c0.2,0.2,0.2,0.4,0.2,0.6c0,0.2-0.1,0.4-0.2,0.6c-0.2,0.2-0.4,0.2-0.6,0.2h-7.1
			c-0.2,0-0.5-0.1-0.6-0.3c-0.2-0.2-0.3-0.4-0.3-0.6s0.1-0.4,0.3-0.6C218.2,409.4,218.4,409.3,218.7,409.3z M221.8,405
			c0.3,0,0.5,0.1,0.7,0.3c0.2,0.2,0.3,0.4,0.3,0.6v15.3c0,0.6,0.1,1,0.2,1.3c0.2,0.3,0.4,0.5,0.6,0.6s0.5,0.1,0.7,0.1
			c0.2,0,0.3,0,0.4-0.1c0.1,0,0.3-0.1,0.4-0.1c0.2,0,0.3,0.1,0.5,0.2c0.1,0.1,0.2,0.3,0.2,0.5c0,0.3-0.2,0.5-0.5,0.7
			s-0.7,0.3-1.2,0.3c-0.2,0-0.5,0-0.8,0c-0.4,0-0.7-0.1-1.1-0.3c-0.4-0.2-0.7-0.5-1-1c-0.3-0.5-0.4-1.2-0.4-2.1v-15.4
			c0-0.2,0.1-0.5,0.3-0.6C221.3,405.1,221.5,405,221.8,405z"/>
		<path d="M237.1,425.1c-1.6,0-3-0.3-4.2-1c-1.2-0.7-2.1-1.6-2.8-2.8s-1-2.6-1-4.2c0-1.7,0.3-3.2,1-4.4c0.7-1.2,1.6-2.2,2.7-2.8
			c1.1-0.7,2.2-1,3.5-1c0.9,0,1.8,0.2,2.6,0.5c0.8,0.3,1.6,0.8,2.3,1.4c0.7,0.6,1.2,1.4,1.6,2.3s0.6,1.9,0.7,3.1
			c0,0.2-0.1,0.5-0.3,0.6c-0.2,0.2-0.4,0.3-0.6,0.3h-12.2l-0.4-1.6h12l-0.4,0.4v-0.6c-0.1-1-0.4-1.8-0.9-2.4
			c-0.5-0.7-1.2-1.2-1.9-1.5c-0.7-0.4-1.5-0.5-2.3-0.5c-0.6,0-1.2,0.1-1.9,0.4c-0.6,0.2-1.2,0.6-1.7,1.1c-0.5,0.5-0.9,1.2-1.3,2
			c-0.3,0.8-0.5,1.8-0.5,2.9c0,1.2,0.2,2.3,0.7,3.3c0.5,1,1.2,1.8,2.1,2.3c0.9,0.6,2,0.9,3.3,0.9c0.7,0,1.3-0.1,1.9-0.3
			s1.1-0.5,1.5-0.8c0.4-0.3,0.8-0.7,1.1-1.1c0.2-0.2,0.4-0.3,0.6-0.3c0.2,0,0.4,0.1,0.6,0.2c0.2,0.2,0.2,0.3,0.2,0.5
			c0,0.2-0.1,0.5-0.3,0.6c-0.6,0.7-1.4,1.4-2.4,1.9C239.3,424.9,238.2,425.1,237.1,425.1z M236,408c-0.1,0-0.2-0.1-0.3-0.2
			c-0.1-0.1-0.2-0.2-0.2-0.4c0-0.1,0.1-0.3,0.2-0.4l1.9-2.9c0.1-0.2,0.2-0.3,0.4-0.5c0.2-0.1,0.4-0.2,0.6-0.2c0.3,0,0.6,0.1,0.8,0.2
			c0.2,0.2,0.3,0.4,0.2,0.7c0,0.1,0,0.3-0.1,0.4s-0.1,0.2-0.2,0.3l-2.3,2.4c-0.1,0.1-0.3,0.3-0.4,0.4C236.4,407.9,236.2,408,236,408
			z"/>
		<path d="M253.8,408.9c0.9,0,1.7,0.2,2.5,0.5c0.8,0.3,1.5,0.7,2,1.2c0.6,0.5,1,1,1.4,1.6c0.3,0.6,0.5,1.1,0.5,1.6l-0.5-0.7v-2.8
			c0-0.3,0.1-0.5,0.3-0.7c0.2-0.2,0.4-0.3,0.7-0.3c0.3,0,0.5,0.1,0.7,0.3c0.2,0.2,0.2,0.4,0.2,0.7v13.3c0,1.6-0.3,3-1,4.1
			c-0.7,1.1-1.6,2-2.7,2.5s-2.5,0.9-3.9,0.9c-0.7,0-1.5-0.1-2.2-0.3c-0.8-0.2-1.5-0.4-2-0.7c-0.6-0.3-0.9-0.6-0.9-0.9
			c-0.2-0.2-0.2-0.4-0.2-0.5c0-0.2,0.1-0.3,0.3-0.4c0.2-0.1,0.4-0.2,0.6,0c0.2,0.1,0.6,0.3,1,0.4c0.2,0.1,0.5,0.2,0.8,0.3
			c0.4,0.1,0.8,0.2,1.3,0.3c0.5,0.1,1,0.1,1.5,0.1c1.8,0,3.2-0.5,4.2-1.6c1-1,1.5-2.4,1.5-4.1v-2.9l0.3,0.1
			c-0.2,0.7-0.5,1.3-0.9,1.9s-0.9,1-1.5,1.4c-0.6,0.4-1.2,0.7-1.8,0.9c-0.7,0.2-1.3,0.3-2,0.3c-1.4,0-2.7-0.4-3.8-1.1
			c-1.1-0.7-2-1.7-2.7-2.9c-0.7-1.2-1-2.6-1-4.2c0-1.5,0.3-2.9,1-4.2c0.7-1.2,1.5-2.2,2.7-2.9C251.1,409.2,252.4,408.9,253.8,408.9z
			 M254,410.6c-1.1,0-2.1,0.3-3,0.8c-0.9,0.5-1.6,1.3-2.1,2.3c-0.5,1-0.7,2.1-0.7,3.3s0.2,2.3,0.7,3.3c0.5,1,1.2,1.7,2.1,2.3
			c0.9,0.6,1.9,0.8,3,0.8c1.1,0,2.1-0.3,3-0.8c0.9-0.5,1.6-1.3,2.1-2.3c0.5-1,0.8-2.1,0.8-3.3c0-1.3-0.3-2.4-0.8-3.3
			c-0.5-1-1.2-1.7-2.1-2.2C256.1,410.9,255.1,410.6,254,410.6z"/>
		<path d="M267.2,406.9c-0.4,0-0.7-0.1-1-0.3c-0.2-0.2-0.3-0.5-0.3-0.8v-0.3c0-0.4,0.1-0.6,0.4-0.8c0.2-0.2,0.6-0.3,1-0.3
			c0.4,0,0.7,0.1,0.9,0.3c0.2,0.2,0.3,0.5,0.3,0.8v0.3c0,0.4-0.1,0.6-0.3,0.8C267.9,406.8,267.6,406.9,267.2,406.9z M268.1,423.9
			c0,0.2-0.1,0.5-0.3,0.6c-0.2,0.2-0.4,0.3-0.6,0.3c-0.3,0-0.5-0.1-0.7-0.3c-0.2-0.2-0.2-0.4-0.2-0.6v-14c0-0.2,0.1-0.5,0.3-0.6
			c0.2-0.2,0.4-0.3,0.7-0.3s0.5,0.1,0.7,0.3s0.3,0.4,0.3,0.6V423.9z"/>
		<path d="M279.7,408.9c1,0,1.9,0.1,2.7,0.3c0.8,0.2,1.5,0.5,2,0.9c0.5,0.4,0.7,0.8,0.7,1.2c0,0.2-0.1,0.4-0.2,0.6s-0.3,0.3-0.6,0.3
			c-0.3,0-0.5-0.1-0.6-0.2c-0.2-0.1-0.3-0.3-0.4-0.4s-0.4-0.3-0.6-0.4c-0.3-0.1-0.6-0.3-1.1-0.4c-0.5-0.1-1.1-0.1-1.7-0.1
			c-1.1,0-2.2,0.3-3.1,0.9s-1.6,1.3-2.2,2.3c-0.5,1-0.8,2-0.8,3.2c0,1.2,0.3,2.3,0.8,3.3c0.5,1,1.2,1.7,2.1,2.3
			c0.9,0.6,1.9,0.8,3.1,0.8c0.8,0,1.4-0.1,1.9-0.2c0.5-0.1,0.8-0.3,1.1-0.5c0.4-0.2,0.7-0.4,0.9-0.7s0.4-0.3,0.7-0.3
			c0.3,0,0.5,0.1,0.6,0.2c0.1,0.2,0.2,0.4,0.2,0.6c0,0.3-0.2,0.7-0.7,1.1s-1.1,0.7-2,1s-1.8,0.4-2.9,0.4c-1.5,0-2.8-0.4-4-1.1
			c-1.2-0.7-2-1.7-2.7-2.9c-0.6-1.2-1-2.6-1-4.2c0-1.5,0.3-2.8,1-4.1s1.6-2.2,2.7-2.9C276.8,409.2,278.2,408.9,279.7,408.9z"/>
		<path d="M301.5,409.2c0.3,0,0.5,0.1,0.7,0.3c0.2,0.2,0.3,0.4,0.3,0.7v13.7c0,0.2-0.1,0.5-0.3,0.6c-0.2,0.2-0.4,0.3-0.6,0.3
			c-0.3,0-0.5-0.1-0.7-0.3c-0.2-0.2-0.2-0.4-0.2-0.6v-3.6l0.5-0.2c0,0.5-0.2,1.1-0.5,1.7c-0.3,0.6-0.7,1.2-1.3,1.6
			c-0.5,0.5-1.2,0.9-1.9,1.2s-1.5,0.5-2.4,0.5c-1.4,0-2.6-0.4-3.7-1.1c-1.1-0.7-1.9-1.7-2.6-2.9c-0.6-1.2-0.9-2.6-0.9-4.2
			c0-1.6,0.3-3,0.9-4.2c0.6-1.2,1.5-2.2,2.6-2.9c1.1-0.7,2.3-1,3.6-1c0.9,0,1.7,0.2,2.5,0.5c0.8,0.3,1.4,0.7,2,1.3
			c0.6,0.5,1,1.1,1.3,1.8c0.3,0.7,0.5,1.4,0.5,2.1l-0.6-0.5v-3.9c0-0.3,0.1-0.5,0.2-0.7C301,409.3,301.2,409.2,301.5,409.2z
			 M295.1,423.4c1.1,0,2-0.3,2.9-0.8c0.8-0.6,1.5-1.3,2-2.3c0.5-1,0.7-2.1,0.7-3.3c0-1.2-0.2-2.3-0.7-3.2c-0.5-1-1.1-1.7-2-2.3
			c-0.8-0.6-1.8-0.8-2.9-0.8c-1.1,0-2,0.3-2.9,0.8c-0.8,0.5-1.5,1.3-2,2.2c-0.5,1-0.7,2.1-0.7,3.3c0,1.2,0.2,2.3,0.7,3.3
			s1.1,1.8,2,2.3C293.1,423.1,294.1,423.4,295.1,423.4z"/>
		<path d="M328.3,409.2c0.3,0,0.5,0.1,0.7,0.3c0.2,0.2,0.3,0.4,0.3,0.7v13.7c0,0.2-0.1,0.5-0.3,0.6c-0.2,0.2-0.4,0.3-0.6,0.3
			c-0.3,0-0.5-0.1-0.7-0.3c-0.2-0.2-0.2-0.4-0.2-0.6v-3.6l0.5-0.2c0,0.5-0.2,1.1-0.5,1.7c-0.3,0.6-0.7,1.2-1.3,1.6
			c-0.5,0.5-1.2,0.9-1.9,1.2s-1.5,0.5-2.4,0.5c-1.4,0-2.6-0.4-3.7-1.1c-1.1-0.7-1.9-1.7-2.6-2.9c-0.6-1.2-0.9-2.6-0.9-4.2
			c0-1.6,0.3-3,0.9-4.2c0.6-1.2,1.5-2.2,2.6-2.9c1.1-0.7,2.3-1,3.6-1c0.9,0,1.7,0.2,2.5,0.5c0.8,0.3,1.4,0.7,2,1.3
			c0.6,0.5,1,1.1,1.3,1.8c0.3,0.7,0.5,1.4,0.5,2.1l-0.6-0.5v-3.9c0-0.3,0.1-0.5,0.2-0.7C327.8,409.3,328,409.2,328.3,409.2z
			 M322,423.4c1.1,0,2-0.3,2.9-0.8c0.8-0.6,1.5-1.3,2-2.3c0.5-1,0.7-2.1,0.7-3.3c0-1.2-0.2-2.3-0.7-3.2c-0.5-1-1.1-1.7-2-2.3
			c-0.8-0.6-1.8-0.8-2.9-0.8c-1.1,0-2,0.3-2.9,0.8c-0.8,0.5-1.5,1.3-2,2.2c-0.5,1-0.7,2.1-0.7,3.3c0,1.2,0.2,2.3,0.7,3.3
			s1.1,1.8,2,2.3C319.9,423.1,320.9,423.4,322,423.4z"/>
		<path d="M341.4,409.3h7.1c0.2,0,0.4,0.1,0.6,0.3c0.2,0.2,0.2,0.4,0.2,0.6c0,0.2-0.1,0.4-0.2,0.6s-0.4,0.2-0.6,0.2h-7.1
			c-0.2,0-0.5-0.1-0.6-0.3c-0.2-0.2-0.3-0.4-0.3-0.6s0.1-0.4,0.3-0.6S341.1,409.3,341.4,409.3z M344.5,405c0.3,0,0.5,0.1,0.7,0.3
			c0.2,0.2,0.3,0.4,0.3,0.6v15.3c0,0.6,0.1,1,0.2,1.3c0.2,0.3,0.4,0.5,0.6,0.6s0.5,0.1,0.7,0.1c0.2,0,0.3,0,0.4-0.1
			c0.1,0,0.3-0.1,0.4-0.1c0.2,0,0.3,0.1,0.5,0.2c0.1,0.1,0.2,0.3,0.2,0.5c0,0.3-0.2,0.5-0.5,0.7c-0.3,0.2-0.7,0.3-1.2,0.3
			c-0.2,0-0.5,0-0.8,0c-0.4,0-0.7-0.1-1.1-0.3s-0.7-0.5-1-1c-0.3-0.5-0.4-1.2-0.4-2.1v-15.4c0-0.2,0.1-0.5,0.3-0.6
			C344,405.1,344.3,405,344.5,405z"/>
		<path d="M364.4,409.3c0.3,0,0.5,0.1,0.7,0.3c0.2,0.2,0.3,0.4,0.3,0.6v8.6c0,2-0.6,3.6-1.7,4.6c-1.1,1.1-2.7,1.6-4.6,1.6
			s-3.5-0.5-4.6-1.6s-1.7-2.6-1.7-4.6v-8.6c0-0.2,0.1-0.5,0.3-0.6c0.2-0.2,0.4-0.3,0.7-0.3c0.3,0,0.5,0.1,0.7,0.3
			c0.2,0.2,0.3,0.4,0.3,0.6v8.6c0,1.5,0.4,2.6,1.2,3.3c0.8,0.8,1.9,1.1,3.3,1.1c1.4,0,2.5-0.4,3.3-1.1c0.8-0.8,1.2-1.9,1.2-3.3v-8.6
			c0-0.2,0.1-0.5,0.3-0.6C363.9,409.4,364.1,409.3,364.4,409.3z"/>
		<path d="M385.5,409.1c1.3,0,2.3,0.3,3.2,1c0.9,0.7,1.5,1.6,1.8,2.9l-0.4,0.1l0.2-0.5c0.3-0.6,0.7-1.2,1.3-1.7
			c0.6-0.5,1.3-1,2.1-1.3c0.8-0.3,1.6-0.5,2.4-0.5c1.3,0,2.3,0.3,3.1,0.8c0.8,0.5,1.4,1.3,1.7,2.2c0.4,0.9,0.5,2,0.5,3.1v8.6
			c0,0.2-0.1,0.5-0.3,0.6c-0.2,0.2-0.4,0.3-0.7,0.3c-0.3,0-0.5-0.1-0.7-0.3c-0.2-0.2-0.2-0.4-0.2-0.6v-8.6c0-0.8-0.1-1.6-0.4-2.3
			c-0.3-0.7-0.7-1.2-1.3-1.6c-0.6-0.4-1.3-0.6-2.3-0.6c-0.9,0-1.7,0.2-2.4,0.6c-0.8,0.4-1.4,1-1.8,1.6c-0.5,0.7-0.7,1.5-0.7,2.3v8.6
			c0,0.2-0.1,0.5-0.3,0.6c-0.2,0.2-0.4,0.3-0.7,0.3s-0.5-0.1-0.7-0.3c-0.2-0.2-0.3-0.4-0.3-0.6v-8.6c0-0.8-0.1-1.6-0.4-2.2
			c-0.2-0.7-0.6-1.2-1.2-1.6s-1.3-0.6-2.2-0.6c-0.8,0-1.6,0.2-2.4,0.6c-0.7,0.4-1.3,0.9-1.8,1.6c-0.5,0.7-0.7,1.4-0.7,2.2v8.6
			c0,0.2-0.1,0.5-0.3,0.6c-0.2,0.2-0.4,0.3-0.6,0.3c-0.3,0-0.5-0.1-0.7-0.3c-0.2-0.2-0.3-0.4-0.3-0.6v-13.7c0-0.2,0.1-0.5,0.3-0.6
			c0.2-0.2,0.4-0.3,0.7-0.3c0.3,0,0.5,0.1,0.7,0.3c0.2,0.2,0.3,0.4,0.3,0.6v2.8l-0.8,1.1c0.1-0.6,0.3-1.2,0.6-1.8s0.8-1.2,1.3-1.6
			c0.5-0.5,1.2-0.9,1.9-1.2C384,409.2,384.7,409.1,385.5,409.1z"/>
		<path d="M413.4,425.1c-1.6,0-3-0.3-4.2-1s-2.1-1.6-2.8-2.8s-1-2.6-1-4.2c0-1.7,0.3-3.2,1-4.4c0.7-1.2,1.6-2.2,2.7-2.8
			c1.1-0.7,2.2-1,3.5-1c0.9,0,1.8,0.2,2.6,0.5c0.8,0.3,1.6,0.8,2.3,1.4c0.7,0.6,1.2,1.4,1.6,2.3c0.4,0.9,0.6,1.9,0.7,3.1
			c0,0.2-0.1,0.5-0.3,0.6c-0.2,0.2-0.4,0.3-0.6,0.3h-12.2l-0.4-1.6h12l-0.4,0.4v-0.6c-0.1-1-0.4-1.8-0.9-2.4
			c-0.5-0.7-1.2-1.2-1.9-1.5s-1.5-0.5-2.3-0.5c-0.6,0-1.2,0.1-1.9,0.4c-0.6,0.2-1.2,0.6-1.7,1.1c-0.5,0.5-0.9,1.2-1.3,2
			c-0.3,0.8-0.5,1.8-0.5,2.9c0,1.2,0.2,2.3,0.7,3.3c0.5,1,1.2,1.8,2.1,2.3c0.9,0.6,2,0.9,3.3,0.9c0.7,0,1.3-0.1,1.9-0.3
			c0.6-0.2,1.1-0.5,1.5-0.8c0.4-0.3,0.8-0.7,1.1-1.1c0.2-0.2,0.4-0.3,0.6-0.3c0.2,0,0.4,0.1,0.6,0.2c0.2,0.2,0.2,0.3,0.2,0.5
			c0,0.2-0.1,0.5-0.3,0.6c-0.6,0.7-1.4,1.4-2.4,1.9S414.5,425.1,413.4,425.1z"/>
		<path d="M436.3,402.2c0.3,0,0.5,0.1,0.7,0.3s0.3,0.4,0.3,0.6v20.8c0,0.2-0.1,0.5-0.3,0.6c-0.2,0.2-0.4,0.3-0.6,0.3
			c-0.3,0-0.5-0.1-0.7-0.3c-0.2-0.2-0.2-0.4-0.2-0.6v-3.6l0.5-0.4c0,0.6-0.2,1.2-0.5,1.8c-0.3,0.6-0.7,1.2-1.3,1.7
			c-0.6,0.5-1.2,0.9-2,1.3c-0.7,0.3-1.5,0.5-2.4,0.5c-1.4,0-2.6-0.4-3.7-1.1c-1.1-0.7-1.9-1.7-2.6-2.9c-0.6-1.2-0.9-2.6-0.9-4.2
			c0-1.5,0.3-2.9,0.9-4.2c0.6-1.2,1.5-2.2,2.6-2.9c1.1-0.7,2.3-1.1,3.6-1.1c0.9,0,1.7,0.2,2.4,0.5c0.8,0.3,1.4,0.7,2,1.3
			s1,1.1,1.4,1.8c0.3,0.7,0.5,1.4,0.5,2.1l-0.6-0.5v-10.9c0-0.2,0.1-0.5,0.2-0.6C435.8,402.3,436.1,402.2,436.3,402.2z M430,423.4
			c1.1,0,2.1-0.3,2.9-0.8c0.8-0.6,1.5-1.3,2-2.3c0.5-1,0.7-2.1,0.7-3.3c0-1.2-0.2-2.3-0.7-3.3c-0.5-1-1.1-1.7-2-2.3
			c-0.8-0.5-1.8-0.8-2.9-0.8c-1.1,0-2,0.3-2.9,0.8c-0.8,0.5-1.5,1.3-2,2.3c-0.5,1-0.7,2.1-0.7,3.3s0.2,2.3,0.7,3.3
			c0.5,1,1.1,1.7,2,2.3C428,423.1,428.9,423.4,430,423.4z"/>
		<path d="M442.9,406.9c-0.4,0-0.7-0.1-1-0.3c-0.2-0.2-0.3-0.5-0.3-0.8v-0.3c0-0.4,0.1-0.6,0.4-0.8c0.2-0.2,0.6-0.3,1-0.3
			c0.4,0,0.7,0.1,0.9,0.3c0.2,0.2,0.3,0.5,0.3,0.8v0.3c0,0.4-0.1,0.6-0.3,0.8C443.6,406.8,443.3,406.9,442.9,406.9z M443.8,423.9
			c0,0.2-0.1,0.5-0.3,0.6c-0.2,0.2-0.4,0.3-0.6,0.3c-0.3,0-0.5-0.1-0.7-0.3c-0.2-0.2-0.2-0.4-0.2-0.6v-14c0-0.2,0.1-0.5,0.3-0.6
			c0.2-0.2,0.4-0.3,0.7-0.3s0.5,0.1,0.7,0.3s0.3,0.4,0.3,0.6V423.9z"/>
		<path d="M461.4,402.2c0.3,0,0.5,0.1,0.7,0.3s0.3,0.4,0.3,0.6v20.8c0,0.2-0.1,0.5-0.3,0.6c-0.2,0.2-0.4,0.3-0.6,0.3
			c-0.3,0-0.5-0.1-0.7-0.3c-0.2-0.2-0.2-0.4-0.2-0.6v-3.6l0.5-0.4c0,0.6-0.2,1.2-0.5,1.8c-0.3,0.6-0.7,1.2-1.3,1.7
			c-0.6,0.5-1.2,0.9-2,1.3c-0.7,0.3-1.5,0.5-2.4,0.5c-1.4,0-2.6-0.4-3.7-1.1c-1.1-0.7-1.9-1.7-2.6-2.9c-0.6-1.2-0.9-2.6-0.9-4.2
			c0-1.5,0.3-2.9,0.9-4.2c0.6-1.2,1.5-2.2,2.6-2.9c1.1-0.7,2.3-1.1,3.6-1.1c0.9,0,1.7,0.2,2.4,0.5c0.8,0.3,1.4,0.7,2,1.3
			s1,1.1,1.4,1.8c0.3,0.7,0.5,1.4,0.5,2.1l-0.6-0.5v-10.9c0-0.2,0.1-0.5,0.2-0.6C460.9,402.3,461.1,402.2,461.4,402.2z M455,423.4
			c1.1,0,2.1-0.3,2.9-0.8c0.8-0.6,1.5-1.3,2-2.3c0.5-1,0.7-2.1,0.7-3.3c0-1.2-0.2-2.3-0.7-3.3c-0.5-1-1.1-1.7-2-2.3
			c-0.8-0.5-1.8-0.8-2.9-0.8c-1.1,0-2,0.3-2.9,0.8c-0.8,0.5-1.5,1.3-2,2.3c-0.5,1-0.7,2.1-0.7,3.3s0.2,2.3,0.7,3.3
			c0.5,1,1.1,1.7,2,2.3C453,423.1,454,423.4,455,423.4z"/>
		<path d="M479.9,409.2c0.3,0,0.5,0.1,0.7,0.3c0.2,0.2,0.3,0.4,0.3,0.7v13.7c0,0.2-0.1,0.5-0.3,0.6c-0.2,0.2-0.4,0.3-0.6,0.3
			c-0.3,0-0.5-0.1-0.7-0.3c-0.2-0.2-0.2-0.4-0.2-0.6v-3.6l0.5-0.2c0,0.5-0.2,1.1-0.5,1.7c-0.3,0.6-0.7,1.2-1.3,1.6
			c-0.5,0.5-1.2,0.9-1.9,1.2s-1.5,0.5-2.4,0.5c-1.4,0-2.6-0.4-3.7-1.1c-1.1-0.7-1.9-1.7-2.6-2.9c-0.6-1.2-0.9-2.6-0.9-4.2
			c0-1.6,0.3-3,0.9-4.2c0.6-1.2,1.5-2.2,2.6-2.9c1.1-0.7,2.3-1,3.6-1c0.9,0,1.7,0.2,2.5,0.5c0.8,0.3,1.4,0.7,2,1.3
			c0.6,0.5,1,1.1,1.3,1.8c0.3,0.7,0.5,1.4,0.5,2.1L479,414v-3.9c0-0.3,0.1-0.5,0.2-0.7C479.4,409.3,479.6,409.2,479.9,409.2z
			 M473.5,423.4c1.1,0,2-0.3,2.9-0.8c0.8-0.6,1.5-1.3,2-2.3c0.5-1,0.7-2.1,0.7-3.3c0-1.2-0.2-2.3-0.7-3.2c-0.5-1-1.1-1.7-2-2.3
			c-0.8-0.6-1.8-0.8-2.9-0.8c-1.1,0-2,0.3-2.9,0.8c-0.8,0.5-1.5,1.3-2,2.2c-0.5,1-0.7,2.1-0.7,3.3c0,1.2,0.2,2.3,0.7,3.3
			s1.1,1.8,2,2.3C471.5,423.1,472.5,423.4,473.5,423.4z"/>
		<path d="M485.9,424.8c-0.3,0-0.6-0.1-0.8-0.3c-0.2-0.2-0.3-0.5-0.3-0.9V423c0-0.4,0.1-0.7,0.3-0.9c0.2-0.2,0.4-0.3,0.8-0.3h0.2
			c0.3,0,0.6,0.1,0.8,0.3c0.2,0.2,0.3,0.5,0.3,0.9v0.6c0,0.3-0.1,0.6-0.3,0.9c-0.2,0.2-0.4,0.3-0.8,0.3H485.9z"/>
	</g>
</g>
</svg>
