<?xml version="1.0" encoding="utf-8"?>
<!-- Generator: Adobe Illustrator 28.4.1, SVG Export Plug-In . SVG Version: 6.00 Build 0)  -->
<svg version="1.1" id="Layer_1" xmlns="http://www.w3.org/2000/svg" xmlns:xlink="http://www.w3.org/1999/xlink" x="0px" y="0px"
	 viewBox="0 0 512 512" style="enable-background:new 0 0 512 512;" xml:space="preserve">
<style type="text/css">
	.st0{fill:#FFFFFF;}
	.st1{fill:#F9A64B;}
	.st2{fill:#FF8B00;}
</style>
<g>
	<g>
		<path class="st0" d="M256,28.2l-138.6,80V136l25.3,14.6v-27.8L256,57.5l82.6,47.7l25.3-14.7L256,28.2z M369.3,155v98.7L256,319.1
			l-113.3-65.4v-35.6l-25.3-14.6v64.8l138.6,80l138.6-80v-128L369.3,155z"/>
		<path class="st1" d="M201.7,203.9l-84.3-48.7v29.2L193,228C194.1,221.9,196.1,212.1,201.7,203.9z"/>
		<path class="st2" d="M394.6,108.3v12.9l-192.9,112l-8.8-5.1c0-6.7,0-17.9,8.8-24.2l178.8-103.8L394.6,108.3z"/>
	</g>
	<g>
		<path class="st0" d="M95.1,368.2H8.9v104.6h86.2c16.4,0,29.8-13.3,29.8-29.8v-45C124.9,381.5,111.6,368.2,95.1,368.2z M114.9,443
			c0,10.9-8.9,19.7-19.7,19.7H19v-84.6h76.2c10.9,0,19.7,8.9,19.7,19.7C114.9,397.8,114.9,443,114.9,443z"/>
		<path class="st0" d="M355.1,368.7c0.3-0.9-60.3-0.3-62.2-0.5c-16.4-0.1-29.9,13.6-29.8,29.8v74.8h10v-33h96.4v33h10V398
			C379.5,383.4,369,371.2,355.1,368.7z M273.1,429.8V398c0-10.8,8.8-19.7,19.8-19.7h56.9c10.9,0,19.7,8.9,19.7,19.7v31.8H273.1z"/>
		<polygon class="st0" points="149.6,378.2 149.6,409.4 239.9,409.4 239.9,419.4 149.6,419.4 149.6,462.8 248.4,462.8 248.4,472.8 
			139.6,472.8 139.6,368.2 248.4,368.2 248.4,378.2 		"/>
		<polygon class="st0" points="404.2,462.8 503.1,462.8 503.1,472.8 394.2,472.8 394.2,368.2 404.2,368.2 		"/>
	</g>
</g>
</svg>
