<?xml version="1.0" encoding="utf-8"?>
<!-- Generator: Adobe Illustrator -->
<svg id="logo" version="1.1"
xmlns="http://www.w3.org/2000/svg"
xmlns:xlink="http://www.w3.org/1999/xlink"
viewBox="0 0 512 512"
xml:space="preserve">

<style type="text/css">
.st0{fill:#ffffFF;}
.st1{fill:#FFffff;}
.st2{fill:#FFffFF;}
.st3{fill:#FFFFff;}
</style>

<path id="logo-a" class="st0" d="M312.8,200.7v41.9c-22.1-27.5-56-45.2-94-45.2c-66.4,0-120.5,54.1-120.5,120.5c0,66.5,54.1,120.5,120.5,120.5
c38,0,71.9-17.7,94-45.2v41.9h28.3V200.7H312.8z M218.8,414.4c-53.3,0-96.5-43.2-96.5-96.5c0-53.3,43.2-96.5,96.5-96.5
c45.7,0,84,31.8,94,74.5c1.7,7.1,2.5,14.5,2.5,22c0,7.6-0.9,15-2.5,22C302.9,382.6,264.6,414.4,218.8,414.4z"/>

<path id="star-red" class="st1" d="M296.5,112.2l3.8,9.5c2.5,6.2,7.4,11.1,13.6,13.6l9.5,3.8L314,143c-6.2,2.5-11.1,7.4-13.6,13.6l-3.8,9.5
l-3.8-9.5c-2.5-6.2-7.4-11.1-13.6-13.6l-9.5-3.8l9.5-3.8c6.2-2.5,11.1-7.4,13.6-13.6L296.5,112.2z"/>

<path id="star-magenta" class="st2" d="M374.5,132.7l7.3,18.2c2.5,6.2,7.4,11.1,13.6,13.6l18.2,7.3l-18.2,7.3c-6.2,2.5-11.1,7.4-13.6,13.6
l-7.3,18.2l-7.3-18.2c-2.5-6.2-7.4-11.1-13.6-13.6l-18.2-7.3l18.2-7.3c6.2-2.5,11.1-7.4,13.6-13.6L374.5,132.7z"/>

<path id="star-yellow" class="st3" d="M349.6,73.6l2.2,5.6c2.5,6.2,7.4,11.1,13.6,13.6l5.6,2.2l-5.6,2.2c-6.2,2.5-11.1,7.4-13.6,13.6
l-2.2,5.6l-2.2-5.6c-2.5-6.2-7.4-11.1-13.6-13.6l-5.6-2.2l5.6-2.2c6.2-2.5,11.1-7.4,13.6-13.6L349.6,73.6z"/>

</svg>