<?xml version="1.0" encoding="utf-8"?>
<!-- Generator: Adobe Illustrator 25.1.0, SVG Export Plug-In . SVG Version: 6.00 Build 0)  -->
<svg version="1.1" id="Layer_1" xmlns="http://www.w3.org/2000/svg" xmlns:xlink="http://www.w3.org/1999/xlink" x="0px" y="0px"
	 viewBox="0 0 500 100" style="enable-background:new 0 0 500 100;" xml:space="preserve">
<style type="text/css">
	.st0{fill:#FFFFFF;}
	.st1{fill:#D0D6D2;}
</style>
<g>
	<g>
		<path d="M55.84,16.21L30.47,83.7h21.29l3.29-11.14h23.68l3.38,11.14h21.84L78.59,16.21H55.84z M59.59,57.96l7.37-24.26l7.45,24.26
			H59.59z"/>
		<path d="M230.03,73.29V51.7c0-2.3-0.46-4.72-1.38-7.25c-0.92-2.53-2.18-4.49-3.78-5.87c-2.27-1.99-5.11-3.31-8.52-3.94
			c-3.41-0.63-7.92-0.94-13.54-0.94c-3.5,0-6.75,0.26-9.76,0.78c-3.01,0.52-5.37,1.26-7.09,2.21c-2.39,1.32-4.23,2.88-5.5,4.67
			c-1.27,1.8-2.25,4.26-2.92,7.39l17.91,1.89c0.74-2.12,1.7-3.56,2.9-4.33c1.53-0.98,3.84-1.47,6.91-1.47
			c2.39,0,4.07,0.46,5.02,1.38c0.95,0.92,1.43,2.53,1.43,4.83c-2.33,0.92-4.54,1.67-6.63,2.23c-2.09,0.57-6.65,1.56-13.67,2.97
			c-5.86,1.17-9.88,2.95-12.06,5.34c-2.12,2.33-3.2,5.29-3.26,8.87c-2.28,0.71-4.09,1.07-5.39,1.07c-1.53,0-2.61-0.52-3.22-1.56
			c-0.4-0.67-0.6-2.05-0.6-4.13V48.52h10.31V34.8h-10.31v-18.6l-18.78,9.62v8.98h-6.91v0.79c-2.75-1.26-5.3-1.89-7.67-1.89
			c-2.64,0-4.86,0.65-6.65,1.96c-1.8,1.3-3.54,3.69-5.23,7.16V34.8H104.1V83.7h18.83V67.31c0-7.83,0.97-13.17,2.9-16.02
			c1.35-2.03,3.25-3.04,5.71-3.04c1.29,0,3.04,0.46,5.25,1.38l4.4-10.12v9.01h6.91v17.2c0,5.46,0.53,9.4,1.59,11.84
			c1.06,2.44,2.69,4.25,4.9,5.45c2.21,1.19,5.65,1.79,10.31,1.79c4.02,0,8.35-0.51,12.98-1.52l-0.79-7.36
			c0.75,1.78,1.92,3.4,3.52,4.83c3.02,2.7,7.45,4.05,13.28,4.05c4.39,0,8.24-0.68,11.56-2.03c2.42-1.01,4.86-2.7,7.32-5.06
			c0.21,1.41,0.43,2.45,0.64,3.11c0.21,0.66,0.67,1.62,1.38,2.88h17.59c-0.98-2.03-1.62-3.69-1.91-5
			C230.18,77.4,230.03,75.59,230.03,73.29z M211.71,63.49c0,2.33-0.38,4.23-1.13,5.69c-0.75,1.46-2.03,2.69-3.82,3.71
			c-1.8,1.01-3.74,1.52-5.82,1.52c-2,0-3.51-0.47-4.54-1.4c-1.03-0.94-1.54-2.14-1.54-3.61c0-1.29,0.52-2.44,1.57-3.45
			c1.01-0.98,3.42-1.98,7.23-2.99c2.79-0.71,5.48-1.52,8.06-2.44V63.49z"/>
		<polygon points="263.66,34.8 253.82,65.79 244.34,34.8 224.84,34.8 245.17,83.7 261.79,83.7 282.57,34.8 		"/>
	</g>
	<path d="M330.45,50.64l-17.91-1.89c0.67-3.13,1.65-5.59,2.92-7.39c1.27-1.8,3.11-3.35,5.5-4.67c1.72-0.95,4.08-1.69,7.09-2.21
		c3.01-0.52,6.26-0.78,9.76-0.78c5.62,0,10.13,0.31,13.54,0.94c3.41,0.63,6.25,1.94,8.52,3.94c1.6,1.38,2.85,3.34,3.78,5.87
		c0.92,2.53,1.38,4.95,1.38,7.25v21.59c0,2.3,0.15,4.11,0.44,5.41c0.29,1.31,0.93,2.97,1.91,5h-17.59
		c-0.71-1.26-1.17-2.22-1.38-2.88c-0.22-0.66-0.43-1.69-0.64-3.11c-2.46,2.36-4.9,4.05-7.32,5.06c-3.31,1.35-7.17,2.03-11.56,2.03
		c-5.83,0-10.26-1.35-13.28-4.05c-3.02-2.7-4.53-6.03-4.53-9.99c0-3.71,1.09-6.77,3.27-9.16c2.18-2.39,6.2-4.17,12.06-5.34
		c7.03-1.41,11.59-2.4,13.67-2.97c2.09-0.57,4.3-1.31,6.63-2.23c0-2.3-0.48-3.91-1.43-4.83c-0.95-0.92-2.62-1.38-5.02-1.38
		c-3.07,0-5.37,0.49-6.91,1.47C332.16,47.08,331.19,48.52,330.45,50.64z M346.71,60.49c-2.58,0.92-5.26,1.73-8.06,2.44
		c-3.81,1.01-6.22,2.01-7.23,2.99c-1.04,1.01-1.57,2.16-1.57,3.45c0,1.47,0.51,2.68,1.54,3.61c1.03,0.94,2.54,1.4,4.54,1.4
		c2.09,0,4.03-0.51,5.82-1.52c1.8-1.01,3.07-2.25,3.82-3.71c0.75-1.46,1.13-3.35,1.13-5.69V60.49z"/>
	<polygon class="st0" points="320.25,49.72 305.3,49.72 305.3,34.78 286.28,34.78 286.28,49.72 271.33,49.72 271.33,68.75 
		286.28,68.75 286.28,83.7 305.3,83.7 305.3,68.75 320.25,68.75 	"/>
	<rect x="286.28" y="16.19" width="19.03" height="12.07"/>
	<path class="st1" d="M415.55,60.06l8.91,2.25c-1.87,7.32-5.23,12.89-10.08,16.73c-4.85,3.84-10.78,5.76-17.79,5.76
		c-7.25,0-13.15-1.48-17.7-4.43c-4.55-2.95-8-7.23-10.38-12.83c-2.37-5.6-3.56-11.62-3.56-18.04c0-7.01,1.34-13.12,4.02-18.34
		c2.68-5.22,6.49-9.18,11.43-11.89c4.94-2.71,10.38-4.06,16.32-4.06c6.73,0,12.4,1.71,16.99,5.14c4.59,3.43,7.79,8.25,9.6,14.46
		l-8.77,2.07c-1.56-4.9-3.83-8.46-6.79-10.7c-2.97-2.23-6.7-3.35-11.2-3.35c-5.17,0-9.5,1.24-12.97,3.72
		c-3.47,2.48-5.92,5.81-7.32,9.99c-1.41,4.18-2.11,8.49-2.11,12.92c0,5.72,0.83,10.72,2.5,14.99c1.67,4.27,4.26,7.46,7.78,9.57
		c3.52,2.11,7.33,3.17,11.43,3.17c4.99,0,9.21-1.44,12.67-4.32C411.99,69.99,414.33,65.72,415.55,60.06z M424.72,59.27
		c0-9.03,2.51-15.72,7.53-20.06c4.19-3.61,9.3-5.42,15.33-5.42c6.7,0,12.18,2.2,16.44,6.59c4.25,4.39,6.38,10.46,6.38,18.2
		c0,6.27-0.94,11.21-2.82,14.81c-1.88,3.6-4.62,6.39-8.22,8.38c-3.6,1.99-7.52,2.98-11.78,2.98c-6.83,0-12.34-2.19-16.55-6.57
		C426.82,73.81,424.72,67.51,424.72,59.27z M433.21,59.27c0,6.24,1.36,10.92,4.09,14.03c2.72,3.11,6.15,4.66,10.28,4.66
		c4.1,0,7.51-1.56,10.24-4.68c2.72-3.12,4.09-7.88,4.09-14.28c0-6.03-1.37-10.6-4.11-13.7c-2.74-3.11-6.15-4.66-10.22-4.66
		c-4.13,0-7.56,1.55-10.28,4.64C434.57,48.36,433.21,53.03,433.21,59.27z"/>
</g>
</svg>
