<?xml version="1.0" encoding="utf-8"?>
<!-- Generator: Adobe Illustrator 22.0.0, SVG Export Plug-In . SVG Version: 6.00 Build 0)  -->
<svg version="1.1" id="Layer_1" xmlns="http://www.w3.org/2000/svg" xmlns:xlink="http://www.w3.org/1999/xlink" x="0px" y="0px"
	 viewBox="0 0 792 202" style="enable-background:new 0 0 792 202;" xml:space="preserve">
<style type="text/css">
	.st0{fill:#FFFFFF;}
	.st1{fill:#F0B71C;}
	.st2{fill:#FBD707;}
</style>
<g>
	<path d="M19.5,109.1c0.1-48.4,36.6-81.5,75.7-84.2c25.1-1.7,46.8,6,64.7,23.6c14.7,14.4,22.9,32.1,24.2,52.7
		c1.4,22.3-5.1,42.2-19.7,59.1c-15.2,17.6-34.7,27.3-58,28.6c-23.4,1.3-44-6.1-61-22.2C28.4,150.7,19.9,130.7,19.5,109.1z
		 M179.3,98.6c-1.7-18.6-10.6-36.7-27.1-50.7c-16.6-14.1-35.9-20.4-57.6-18.4c-21,2-38.5,11.4-52.2,27.4
		c-13.9,16.3-19.9,35.4-18,56.8c1.7,20.3,10.5,37.4,25.8,50.9c16.3,14.4,35.5,21.1,57.1,19.5c21.9-1.6,40.1-11.1,54.2-27.9
		C174.6,140.6,180.7,122.3,179.3,98.6z"/>
	<path class="st0" d="M179.3,98.6c1.4,23.6-4.7,41.9-17.8,57.7c-14.1,16.8-32.3,26.3-54.2,27.9c-21.6,1.5-40.8-5.1-57.1-19.5
		c-15.3-13.5-24-30.6-25.8-50.9c-1.8-21.3,4.2-40.5,18-56.8c13.6-16,31.1-25.4,52.2-27.4c21.7-2,41,4.3,57.6,18.4
		C168.7,61.9,177.6,80.1,179.3,98.6z M29.1,129.9c0.5-2.7,1.2-5.3,1.7-7.9c0.8-3.6,1.4-7.2,2.2-10.8c0.9-4.4,1.9-8.8,2.9-13.2
		c0.8-3.6,1.5-7.1,2.3-10.7c0.9-4.3,1.9-8.6,2.7-12.9c0.2-1.1,0.7-1.4,1.7-1.4c0.3,0,0.7,0.1,1,0.1c5.2-0.2,10.4-0.1,15.6-0.1
		c1,0,1.2,0.5,1,1.4c-0.3,1.2-0.5,2.5-0.7,3.8c-0.1,0.4-0.5,0.9,0,1.2c0.5,0.3,0.9-0.2,1.2-0.5c3-2,6-3.8,9.5-4.8
		c3.4-1,6.9-1.6,10.3,0c3.1,1.4,5.7,3.3,7.6,6.2c0.6,0.9,1.2,1,2.1,0.3c1.1-0.9,2.3-1.7,3.5-2.4c4-2.3,8.1-4.5,12.9-5
		c1.6-0.2,3.1-0.1,4.6,0.3c3,0.9,5.4,2.5,7.5,4.8c3,3.2,4.5,7,4.6,11.5c0,2.5-0.5,4.8-1,7.2c-0.8,3.6-1.5,7.2-2.3,10.8
		c-0.6,2.7-1.1,5.4-1.8,8.1c-0.6,2.4-1,4.7-1.3,7.1c-0.2,2,0.5,4,3,4.2c1.3,0.1,2.6,0.2,4,0.1c1-0.1,1.1,0.3,0.8,1.1
		c-0.3,0.8-0.6,1.7-0.9,2.5c-1.7,3.5-4,6.6-7.9,7.7c-3.2,0.9-6.6,0.8-9.9-0.2c-3.7-1.1-5.9-3.7-7.2-7.1c-0.9-2.2-0.9-4.6-0.8-6.9
		c0.2-3.9,0.9-7.7,1.7-11.4c1.2-5.5,2.3-11,3.4-16.5c0.5-2.5,0.9-4.9,0.6-7.5c-0.3-2.2-2.2-5.4-4.9-5.6c-2.4-0.1-4.7,0.2-6.9,1.4
		c-1,0.6-1.4,1.2-1.1,2.3c0.8,2.9,0.3,5.8-0.3,8.7c-1,5.1-2.2,10.2-3.3,15.3c-0.9,4.5-1.8,9-2.8,13.4c-0.9,4.4-1.9,8.8-2.8,13.2
		c-0.2,0.9-0.6,1.3-1.4,1.3c-5.7,0-11.3,0-17,0c-0.8,0-1.1-0.4-0.9-1.1c0.7-3.2,1.3-6.4,2-9.6c1.2-5.9,2.5-11.7,3.7-17.6
		c1-4.7,2-9.5,3-14.2c0.5-2.3,1-4.7,0.6-7.1c-0.4-2.5-1.9-5.5-5.2-6c-3.2-0.4-5.8,0.9-8.3,2.6c-0.3,0.2-0.4,0.6-0.5,1
		c-1.2,6-2.5,12-3.7,18c-1.1,5.1-2.2,10.1-3.2,15.2c-1,5.1-2.2,10.2-3.3,15.3c-0.9,4-1.7,8-2.6,11.9c-0.5,2.4-0.9,4.8-1.6,7.2
		c-0.2,0.8-0.1,1.3,0.4,1.8c1.9,2.1,3.8,4.1,5.9,6c3.6,3.3,7.3,6.4,11.5,9c3.7,2.3,7.5,4.4,11.5,6c3.7,1.5,7.4,2.8,11.2,3.7
		c3.4,0.8,6.9,1.5,10.4,1.7c4.7,0.3,9.3,0.4,14,0.1c5.1-0.4,10.1-1.3,15-2.7c5.9-1.7,11.5-4,16.8-7.1c4.3-2.5,8.5-5.3,12.2-8.7
		c3.2-2.9,6.3-5.8,9-9.2c3.9-4.8,7.2-10,9.9-15.7c2.5-5.2,4.4-10.6,5.6-16.2c1.3-6.3,2-12.7,1.6-19.2c-0.3-6.3-1.2-12.5-3-18.6
		c-1.6-5.9-4-11.3-7-16.6c-4.5-7.9-10.4-14.7-17.3-20.6c-5.1-4.4-10.9-7.9-17.1-10.7c-3.8-1.8-7.8-3.1-11.9-4.2
		c-6.3-1.8-12.7-2.6-19.3-2.6c-4.5,0-8.9,0.2-13.3,0.9c-3.9,0.7-7.7,1.6-11.5,2.8c-6,2-11.6,4.7-17,8.1c-4.8,3-9.1,6.7-13.2,10.5
		c-2.3,2.1-4.2,4.5-6.1,7c-2.7,3.5-5.1,7.1-7.2,11c-2.6,5-4.7,10.2-6.2,15.7c-1,3.7-1.8,7.5-2.1,11.4c-0.4,4.4-0.7,8.8-0.4,13.3
		c0.3,4.9,1,9.8,2.2,14.6C28.1,127.1,28.3,128.6,29.1,129.9z"/>
	<path d="M29.1,129.9c-0.8-1.3-1-2.8-1.4-4.2c-1.2-4.8-1.8-9.6-2.2-14.6c-0.3-4.5,0-8.9,0.4-13.3c0.3-3.8,1.1-7.6,2.1-11.4
		c1.5-5.5,3.6-10.7,6.2-15.7c2-3.9,4.5-7.5,7.2-11c1.9-2.5,3.8-4.9,6.1-7c4.2-3.8,8.4-7.5,13.2-10.5c5.4-3.4,11-6.1,17-8.1
		c3.7-1.2,7.6-2.2,11.5-2.8c4.4-0.7,8.9-1,13.3-0.9c6.6,0,13,0.8,19.3,2.6c4.1,1.2,8.1,2.5,11.9,4.2c6.2,2.8,12,6.3,17.1,10.7
		c6.9,5.9,12.8,12.7,17.3,20.6c3,5.3,5.4,10.8,7,16.6c1.7,6.1,2.6,12.2,3,18.6c0.3,6.5-0.3,12.9-1.6,19.2c-1.2,5.6-3.1,11-5.6,16.2
		c-2.7,5.6-6,10.8-9.9,15.7c-2.7,3.4-5.8,6.3-9,9.2c-3.7,3.4-7.9,6.2-12.2,8.7c-5.3,3.1-10.9,5.4-16.8,7.1c-4.9,1.4-9.9,2.3-15,2.7
		c-4.7,0.4-9.3,0.3-14-0.1c-3.5-0.3-7-1-10.4-1.7c-3.9-0.9-7.6-2.2-11.2-3.7c-4-1.6-7.8-3.7-11.5-6c-4.2-2.6-7.9-5.7-11.5-9
		c-2.1-1.9-4-3.9-5.9-6c-0.5-0.6-0.6-1-0.4-1.8c0.6-2.4,1-4.8,1.6-7.2c0.9-4,1.7-8,2.6-11.9c1.1-5.1,2.3-10.2,3.3-15.3
		c1-5.1,2.2-10.1,3.2-15.2c1.3-6,2.5-12,3.7-18c0.1-0.4,0.1-0.8,0.5-1c2.5-1.7,5.1-3,8.3-2.6c3.3,0.4,4.9,3.4,5.2,6
		c0.4,2.4-0.2,4.7-0.6,7.1c-1,4.7-2,9.5-3,14.2c-1.2,5.9-2.5,11.7-3.7,17.6c-0.7,3.2-1.3,6.4-2,9.6c-0.2,0.7,0.1,1.1,0.9,1.1
		c5.7,0,11.3,0,17,0c0.9,0,1.3-0.4,1.4-1.3c0.9-4.4,1.9-8.8,2.8-13.2c0.9-4.5,1.8-9,2.8-13.4c1.1-5.1,2.3-10.2,3.3-15.3
		c0.6-2.9,1.1-5.8,0.3-8.7c-0.3-1,0.1-1.7,1.1-2.3c2.2-1.2,4.4-1.5,6.9-1.4c2.7,0.2,4.7,3.4,4.9,5.6c0.3,2.5-0.1,5-0.6,7.5
		c-1.1,5.5-2.2,11-3.4,16.5c-0.8,3.8-1.6,7.6-1.7,11.4c-0.1,2.3-0.1,4.7,0.8,6.9c1.3,3.5,3.5,6,7.2,7.1c3.3,1,6.7,1.1,9.9,0.2
		c3.9-1.1,6.2-4.2,7.9-7.7c0.4-0.8,0.6-1.7,0.9-2.5c0.3-0.8,0.2-1.2-0.8-1.1c-1.3,0.1-2.6,0.1-4-0.1c-2.5-0.2-3.2-2.3-3-4.2
		c0.3-2.4,0.7-4.8,1.3-7.1c0.7-2.7,1.2-5.4,1.8-8.1c0.8-3.6,1.5-7.2,2.3-10.8c0.5-2.4,1.1-4.7,1-7.2c-0.1-4.4-1.6-8.2-4.6-11.5
		c-2.1-2.3-4.6-3.9-7.5-4.8c-1.5-0.4-3-0.5-4.6-0.3c-4.8,0.5-8.9,2.7-12.9,5c-1.2,0.7-2.4,1.5-3.5,2.4c-0.9,0.7-1.5,0.6-2.1-0.3
		c-1.8-2.9-4.5-4.8-7.6-6.2c-3.4-1.5-6.9-0.9-10.3,0c-3.5,1-6.5,2.8-9.5,4.8c-0.4,0.2-0.7,0.8-1.2,0.5c-0.5-0.3-0.1-0.8,0-1.2
		c0.2-1.3,0.4-2.5,0.7-3.8c0.2-0.9,0-1.4-1-1.4c-5.2-0.1-10.4-0.1-15.6,0.1c-0.3,0-0.7,0-1-0.1c-1-0.1-1.5,0.3-1.7,1.4
		c-0.8,4.3-1.8,8.6-2.7,12.9c-0.8,3.6-1.5,7.1-2.3,10.7c-0.9,4.4-1.9,8.8-2.9,13.2c-0.8,3.6-1.5,7.2-2.2,10.8
		C30.3,124.6,29.6,127.2,29.1,129.9z M123.8,138.6c0.1,0.1,0.2,0.2,0.3,0.3c1-0.5,2-0.8,2.9-1.4c3.1-2.1,5.9-4.6,8-7.7
		c0.2-0.4,0.5-0.7,1-0.6c0.5,0.1,0.5,0.6,0.6,0.9c0.7,2.5,2.1,4.5,4.1,6c3.3,2.4,7.3,2.9,11.2,2.3c5.5-0.9,8.3-5,10-10
		c0.2-0.7-0.1-0.9-0.7-0.9c-0.4,0-0.8,0.1-1.3,0.2c-3.4,0.4-6.1-2.4-5.7-5.7c0.6-4.3,1.7-8.5,2.5-12.7c0.7-3.7,1.6-7.5,2.4-11.2
		c0.7-3.5,1.4-7,2.1-10.5c0.9-4.2,1.8-8.4,2.7-12.6c0.3-1.2,0-1.5-1.3-1.5c-4.7,0-9.5,0-14.2,0c-2.3,0-2.3,0-3,2.1
		c-0.3,0.9-0.6,1.2-1.5,0.6c-0.6-0.4-1.2-0.7-1.7-1.1c-2.3-1.4-4.9-1.9-7.4-2c-2.2,0-4.5,0.4-6.6,1.2c-1.2,0.4-2.4,0.8-3.6,1.2
		c-0.5,0.2-1.2,0.6-0.5,1.3c2.1,2.1,3,4.8,3.6,7.6c0.1,0.3,0,0.7,0.4,0.9c0.4,0.1,0.7-0.2,0.8-0.5c1-1.5,2.5-2.4,3.9-3.4
		c2.9-2,8.1-1.4,10.5,1.2c0.3,0.4,0.3,0.7,0.2,1.2c-0.6,2.9-1.2,5.7-1.8,8.6c-1.1,4.8-1.9,9.7-2.9,14.5c-0.9,4.2-1.7,8.5-2.6,12.7
		c-0.6,3.1-2.2,5.5-5.3,6.7c-0.7,0.3-1.1,0.7-1.3,1.4c-0.6,2.3-1.6,4.4-2.8,6.4C126.1,135.7,125,137.1,123.8,138.6z"/>
	<path class="st1" d="M123.8,138.6c1.2-1.4,2.3-2.9,3.3-4.5c1.2-2,2.2-4.1,2.8-6.4c0.2-0.7,0.6-1.1,1.3-1.4c3-1.2,4.7-3.6,5.3-6.7
		c0.9-4.2,1.6-8.5,2.6-12.7c1-4.8,1.8-9.7,2.9-14.5c0.7-2.9,1.2-5.7,1.8-8.6c0.1-0.4,0.1-0.8-0.2-1.2c-2.4-2.6-7.6-3.2-10.5-1.2
		c-1.4,1-2.9,1.9-3.9,3.4c-0.2,0.3-0.4,0.6-0.8,0.5c-0.4-0.1-0.4-0.6-0.4-0.9c-0.7-2.8-1.6-5.5-3.6-7.6c-0.7-0.7,0-1.1,0.5-1.3
		c1.2-0.5,2.4-0.8,3.6-1.2c2.1-0.8,4.4-1.3,6.6-1.2c2.5,0,5.1,0.6,7.4,2c0.6,0.4,1.2,0.7,1.7,1.1c0.8,0.6,1.2,0.3,1.5-0.6
		c0.7-2.1,0.7-2.1,3-2.1c4.7,0,9.5,0,14.2,0c1.3,0,1.5,0.3,1.3,1.5c-0.9,4.2-1.8,8.4-2.7,12.6c-0.7,3.5-1.4,7-2.1,10.5
		c-0.8,3.7-1.7,7.5-2.4,11.2c-0.8,4.2-2,8.4-2.5,12.7c-0.5,3.3,2.3,6.1,5.7,5.7c0.4,0,0.8-0.2,1.3-0.2c0.5,0,0.9,0.2,0.7,0.9
		c-1.7,5-4.5,9-10,10c-3.9,0.7-7.9,0.1-11.2-2.3c-2-1.4-3.4-3.5-4.1-6c-0.1-0.4-0.1-0.8-0.6-0.9c-0.5-0.1-0.8,0.3-1,0.6
		c-2.1,3.1-4.9,5.6-8,7.7c-0.9,0.6-1.9,1-2.9,1.4C124,138.8,123.9,138.7,123.8,138.6z"/>
</g>
<path d="M669.4,10.8c7.5,0,13.2,5.9,13.3,13.8c0,7.8-6,14.1-13.4,14c-7.4-0.1-13.1-6.1-13.2-13.8C656,16.8,661.7,10.8,669.4,10.8z"
	/>
<g>
	<path d="M446.4,105.5c0.3-0.5,0.6-1.1,0.8-1.7c2.6-15.4,6.2-30.6,9.4-45.8c0.4-1.8-0.1-2.4-1.8-2.2c-0.4,0.1-0.9,0-1.3,0
		c-1.6,0.2-2.1-0.5-1.7-2c0.1-0.3,0.1-0.7,0.2-1.1c0.7-3.9,0.7-4,4.7-4.1c1.3,0,1.7-0.5,2-1.7c1.4-6.9,2.9-13.8,4.3-20.7
		c0.2-1.1,0.6-1.6,1.7-1.7c7.3-1,14.5-2.1,21.8-3.1c1.3-0.2,1.6,0.2,1.3,1.5c-1.7,7.9-3.2,15.8-4.9,23.6c-0.3,1.6-0.1,2.2,1.7,2.1
		c2-0.1,4,0,6,0c1.3,0,1.9,0.4,1.5,1.8c0,0.1,0,0.1,0,0.2c-0.8,5.1-0.8,5.1-5.9,5.1c-5.1,0-4.9,0-6,5c-3.4,15.7-6.4,31.4-9.5,47.1
		c-0.4,1.8-0.6,3.7-0.6,5.5c-0.1,2.9,1.2,4.5,4,5.3c3.2,1,6.3,0.6,9.3-1c4.2-2.3,7.4-5.8,11.1-8.6c3.4-2.5,4.4-5.6,4.8-9.7
		c1-12.5,3.8-24.5,10.5-35.3c5.2-8.5,12.2-14.8,22.3-16.4c6-1,12.1-1,17.9,1.6c6.4,2.8,9.1,8.2,9.3,14.8
		c0.4,11.7-5.2,20.4-14.3,27.1c-6.5,4.8-13.7,7.9-21.6,9.2c-0.8,0.1-1.5,0.2-1.5,1.2c-0.4,4.2-0.9,8.4,0.5,12.5
		c2.6,7.5,10.4,10.6,18,7.3c8-3.5,14.1-9.4,19.2-16.2c7.4-9.8,13.1-20.6,16.7-32.3c2.1-6.8,3-14.1,4.4-21.1c0.6-3,0.6-3,3.6-3
		c6.3,0,12.7,0,19,0c1.6,0,2.2,0.4,1.7,2.1c-0.5,1.8-0.8,3.6-1.2,5.8c2.6-1.7,4.8-3.1,7-4.4c3.7-2.2,7.7-3.5,12.2-3.5
		c8.9,0,13.9,6.7,11.4,15.3c-1.7,6.1-6.3,9.6-12.3,9.5c-3.2,0-5.2-1.5-6-4.7c-0.3-1.3-0.5-2.7-0.9-4c-0.6-2.2-1.7-3-3.9-2.6
		c-3.7,0.5-6.8,2.3-9.2,5c-1.5,1.7-1.4,4.1-1.8,6.3c-2.9,13.8-5.7,27.6-8.5,41.5c-1.2,6.1-2.5,12.1-3.6,18.2
		c-0.3,1.6-0.9,2.3-2.6,2.2c-6.6-0.1-13.1-0.1-19.7,0c-1.9,0-2.3-0.5-1.9-2.3c2.1-10,4.2-20.1,6.2-30.1c0.2-0.9,0.3-1.8,0.2-2.8
		c-1.7,2.7-3.3,5.5-5.1,8.2c-5.8,9-12.9,16.6-22.4,21.9c-8.4,4.7-17.4,6.6-26.8,4.2c-8.7-2.3-13.7-8.5-16.1-17
		c-0.3-1.2-0.5-2.4-0.8-3.5c-0.1-0.4,0.1-1.1-0.5-1.3c-0.6-0.2-1,0.5-1.3,0.9c-2.8,3.4-6.1,6.4-9.3,9.4c-4.6,4.3-9.4,8.4-15.2,11
		c-7.7,3.5-18.9,1.1-23.7-5.1c-3.2-4.1-3.8-8.9-3.4-14c0-1.1,0.1-2.2,0.3-3.3C446.1,109.5,447.2,107.6,446.4,105.5z M548.7,65.8
		c-0.1-0.9-0.1-2.1-0.3-3.3c-0.9-5.7-5.2-7.5-10-4.2c-2.5,1.8-4.2,4.2-5.7,6.8c-4.9,8-7.3,16.8-9.5,25.7c-0.4,1.5,0.6,1.2,1.5,1.1
		C537.8,90.5,548.3,79.2,548.7,65.8z"/>
	<path d="M736.5,122.8c-2.4,3-4.6,5.5-7.2,7.8c-7.2,6-15.3,7.5-24,4.4c-7.6-2.8-10.7-9.2-11.7-16.8c-0.2-1.4-0.2-2.8-0.3-4.7
		c-2.8,2.8-5.3,5.4-7.8,7.8c-4.8,4.8-10.1,9-16.1,12.3c-6.2,3.4-20.2,2.2-25.2-5.6c-2.7-4.3-3.3-8.9-2.9-13.7
		c0.5-6.7,2.3-13.2,3.6-19.7c2.3-11.7,4.7-23.3,7-35c0.6-3.1,1.3-6.1,1.9-9.2c0.2-1.1,0.7-1.6,1.9-1.6c7,0,14,0,21,0
		c1.3,0,1.6,0.5,1.3,1.7c-2.9,14.2-5.9,28.5-8.7,42.7c-1.2,5.8-2.3,11.6-3.3,17.4c-1.1,6.8,3.5,10.6,10.2,8.5
		c3.4-1.1,6.2-3.2,8.9-5.4c1.5-1.2,2.8-2.6,4.4-3.8c3.2-2.3,4.5-5.2,4.9-9.3c1-11.4,3.9-22.5,9.8-32.4c6-10.1,14.5-16.9,26.4-18.7
		c6.1-0.9,12.1-0.9,17.1,3.5c0.2-0.2,0.3-0.2,0.3-0.3c0.4-1.2,0.5-2.8,1.3-3.5c1.1-0.9,2.9-0.3,4.4-0.3c5.7,0,11.4,0,17.1,0
		c1.6,0,2.2,0.3,1.8,2c-2.2,10.5-4.4,21.1-6.5,31.6c-2,9.8-3.9,19.6-5.7,29.4c-1.1,5.8,2,8.7,7.8,7.9c2.3-0.3,2.4-0.2,1.6,2
		c-0.9,2.5-2,4.8-3.5,7.1c-3.9,6.2-9.8,7.3-16.4,6.5c-6.3-0.7-10.4-4.3-12.6-10.1C737.1,124.4,736.9,123.8,736.5,122.8z M716.1,108
		c0,4.3,0.5,7,1.5,9.1c2.2,4.6,8,6.3,12.1,3.1c3.5-2.7,6.1-5.8,7-10.6c2.8-15.5,6.2-30.9,9.3-46.3c0.1-0.7,0.3-1.4-0.4-1.9
		c-2.7-2-5.6-3.2-9-2.3c-4.9,1.3-7.9,5-10.3,9.1C719,80.7,716.7,94.6,716.1,108z"/>
	<path d="M349.7,107c0.3-0.6,0.7-1.1,1-1.7c0.9,0.3,0.9,1,0.8,1.7c-0.1,2.1-0.2,4.1-0.3,6.2c0,1,0,2-0.9,2.7c-2.7,3-5.4,6.1-8.2,9
		c-3.8,3.9-7.8,7.5-13,9.5c-9.6,3.8-21.7-1.5-24.6-10.9c-1.6-5.2-1.1-10.6,0-15.9c2.3-11.4,4.8-22.7,6.8-34.2c0.4-2,0-4-0.6-5.9
		c-1.3-4.3-4.6-6.3-9-5.6c-1,0.2-2,0.4-2.9,0.7c-4,1.4-4.1,1.6-3.7,5.8c0.5,4.2-0.7,8.2-1.5,12.2c-3.5,17.5-7.1,35.1-10.5,52.6
		c-0.3,1.4-0.8,1.9-2.2,1.9c-6.8-0.1-13.7-0.1-20.5,0c-1.6,0-1.9-0.4-1.6-2c2.8-13.7,5.6-27.5,8.4-41.2c1.1-5.4,2.2-10.9,3.3-16.3
		c0.5-2.6,0.6-5.3-0.2-7.8c-1.4-4.7-4.9-6.8-9.7-5.7c-1.1,0.2-2.2,0.7-3.2,1.1c-2.6,1-4.1,2.5-4.7,5.6c-4.2,21.5-8.7,43-13,64.5
		c-0.3,1.4-0.8,1.9-2.2,1.9c-6.8-0.1-13.7-0.1-20.5,0c-1.6,0-1.8-0.6-1.5-2c1.9-8.8,3.7-17.7,5.5-26.6c2.1-10.5,4.2-21.1,6.3-31.6
		c1.7-8.2,3.4-16.5,5-24.7c0.3-1.3,0.8-1.8,2.1-1.8c6.8,0.1,13.7,0.1,20.5,0c1.7,0,1.9,0.6,1.6,2.1c-0.4,2-1.2,3.9-0.9,6.3
		c2.9-1.9,5.6-3.7,8.5-5.2c5.4-2.7,11-4.5,17.1-2.3c4.4,1.6,7.8,4.7,10.3,8.6c0.9,1.4,1.4,1.5,2.7,0.5c4.6-3.5,9.4-6.7,14.9-8.6
		c10.2-3.6,17.9,0.3,23.5,9c3.3,5.1,4,10.7,2.8,16.6c-2.3,11.1-4.6,22.2-6.9,33.3c-0.4,1.8-0.4,3.5-0.5,5.3
		c-0.2,6.2,5.1,7.6,9.2,6.1c2.9-1.1,5.1-3.1,7-5.4C346.2,112.4,348.1,109.8,349.7,107C349.7,107,349.7,107,349.7,107z"/>
	<path class="st0" d="M350.3,115.9c0.8-0.7,0.8-1.7,0.9-2.7c0-2.1,0.2-4.1,0.3-6.2c0-0.7,0.1-1.4-0.8-1.7c0.7-4.6,1.2-9.2,2.1-13.7
		c2.3-11.8,6.2-22.8,14.6-31.8c5.9-6.3,13.2-9.9,21.8-11.1c5.3-0.7,10.2-0.4,14.7,2.6c1.2,0.8,1.8,0.1,1.8-1c0-1.9,1.1-2.2,2.7-2.2
		c6.7,0,13.4,0,20.1,0c2.3,0,2.5,0.4,2.1,2.7c-2.7,13-5.3,25.9-7.9,38.9c-1.4,6.9-2.9,13.8-4.2,20.7c-1.2,6.3,2.2,9.2,8.6,8.2
		c5.4-0.8,9.2-4.6,13-8.1c2-1.9,4-3.8,6.4-5.1c0.8,2.1-0.2,4-0.5,6c-0.1,1.1-0.3,2.2-0.3,3.3c-1.1-0.8-1.3,0.3-1.7,0.8
		c-5.8,5.8-11.8,11.4-18.6,16.3c-7.7,5.6-20.6,4.6-26.7-1c-1.6-1.5-2.9-3.1-3.8-5.1c-1-2.4-1-2.4-2.6-0.4
		c-3.9,4.7-8.3,8.8-14.2,10.4c-9.5,2.6-19.6,0.6-24.8-9c-1.5-2.7-2-5.6-2.3-8.6C350.9,117.4,350.9,116.6,350.3,115.9z M373.8,109.3
		c-0.1,1,0.1,2.8,0.4,4.6c0.6,3.2,2.2,5.8,5.4,6.9c3.1,1.1,5.9,0.4,8.7-1.9c4.1-3.4,5.3-7.8,6.2-12.6c1.5-8.4,3.3-16.7,5-25.1
		c1.2-5.9,2.3-11.7,3.5-17.6c0.2-0.9,0.3-1.8-0.6-2.5c-2.7-2.2-7.9-2.7-10.9-0.9c-4.4,2.6-7.2,6.7-9.3,11.2
		C376.7,83.1,374.1,95.5,373.8,109.3z"/>
	<path class="st2" d="M349.7,107C349.7,107,349.7,107,349.7,107C349.7,107,349.7,107,349.7,107z"/>
	<g>
		<path d="M357.7,158.1h5.2l12.7,31.1h-6.7l-2.5-6.1h-11.9l-2.4,6.1h-6.7L357.7,158.1z M360.3,168.3l-3.7,9.2h7.4L360.3,168.3z"/>
		<path d="M389,158.1h10.2c3.1,0,5.6,0.8,7.4,2.5c1.8,1.6,2.7,3.9,2.7,6.6c0,1.6-0.4,3.2-1.2,5c-0.8,1.7-2.4,3.1-4.6,4l8.7,12.9
			h-7.7l-8-12h-0.8v12H389V158.1z M395.8,163.6v8.1h1.4c3.5,0,5.2-1.4,5.2-4.3c0-1.2-0.5-2.1-1.4-2.8s-2.2-1-3.8-1H395.8z"/>
		<path d="M450.1,185l3.8,4.4l-4.5,2.9l-3.5-4.2c-2.6,1-5,1.4-7,1.4c-4.6,0-8.4-1.5-11.3-4.6c-2.9-3.1-4.4-7-4.4-11.7
			c0-3.9,1.4-7.5,4.3-10.7c2.9-3.2,6.7-4.8,11.4-4.8c4.4,0,8.1,1.5,11.2,4.5c3,3,4.5,6.8,4.5,11.2C454.5,178,453.1,181.8,450.1,185z
			 M441.5,182.9l-3.3-3.9l4.4-2.9l3,3.5c1.2-1.4,1.8-3.3,1.8-6c0-3-0.8-5.4-2.4-7.2c-1.6-1.8-3.7-2.7-6.3-2.7
			c-2.5,0-4.6,0.9-6.2,2.7c-1.6,1.8-2.4,4.1-2.4,6.9c0,2.9,0.8,5.2,2.3,7c1.5,1.8,3.5,2.8,5.9,2.8
			C439.3,183.2,440.3,183.1,441.5,182.9z"/>
		<path d="M468.9,158.1h6.6v19c0,1.8,0.5,3.2,1.5,4.3c1,1.1,2.3,1.6,3.9,1.6c1.8,0,3.2-0.5,4.3-1.6c1-1.1,1.5-2.6,1.5-4.6v-18.7h6.6
			v20.1c0,1.8-0.5,3.6-1.4,5.5c-0.9,1.9-2.3,3.4-4.2,4.4c-1.9,1-4,1.5-6.4,1.5c-4.3,0-7.4-1.2-9.3-3.6c-2-2.4-3-4.9-3-7.5V158.1z"/>
		<path d="M508.1,158.1h6.7v31.1h-6.7V158.1z"/>
		<path d="M527.7,158.1h20.9v6.6h-7.1v24.5h-6.7v-24.5h-7.1V158.1z"/>
		<path d="M561.9,158.1h17.5v6.1h-10.8v6.3h10.8v6.1h-10.8v6.4h10.8v6.2h-17.5V158.1z"/>
		<path d="M617.1,159.7v7.6c-3.4-2-6.3-3-8.8-3s-4.5,0.9-6.1,2.6c-1.5,1.7-2.3,4.1-2.3,7c0,2.8,0.8,5,2.4,6.7
			c1.6,1.7,3.7,2.5,6.4,2.5c2.3,0,5.1-0.9,8.4-2.8v7.5c-3.6,1.2-6.7,1.8-9.1,1.8c-4.2,0-7.7-1.5-10.6-4.6c-2.9-3.1-4.4-6.8-4.4-11.2
			c0-4.5,1.5-8.3,4.5-11.4c3-3.1,6.6-4.7,10.8-4.7C611,157.7,614,158.3,617.1,159.7z"/>
		<path d="M628.8,158.1h20.9v6.6h-7.1v24.5h-6.7v-24.5h-7.1V158.1z"/>
		<path d="M663,158.1h6.6v19c0,1.8,0.5,3.2,1.5,4.3c1,1.1,2.3,1.6,3.9,1.6c1.8,0,3.3-0.5,4.3-1.6c1-1.1,1.5-2.6,1.5-4.6v-18.7h6.6
			v20.1c0,1.8-0.5,3.6-1.4,5.5c-0.9,1.9-2.3,3.4-4.2,4.4s-4,1.5-6.4,1.5c-4.3,0-7.4-1.2-9.3-3.6c-2-2.4-3-4.9-3-7.5V158.1z"/>
		<path d="M702.5,158.1h10.2c3.1,0,5.6,0.8,7.4,2.5c1.8,1.6,2.7,3.9,2.7,6.6c0,1.6-0.4,3.2-1.2,5c-0.8,1.7-2.4,3.1-4.6,4l8.7,12.9
			H718l-8-12h-0.8v12h-6.7V158.1z M709.2,163.6v8.1h1.4c3.5,0,5.2-1.4,5.2-4.3c0-1.2-0.5-2.1-1.4-2.8s-2.2-1-3.8-1H709.2z"/>
		<path d="M750.4,158.1h5.2l12.7,31.1h-6.7L759,183h-11.9l-2.4,6.1H738L750.4,158.1z M753,168.3l-3.7,9.2h7.4L753,168.3z"/>
	</g>
</g>
</svg>
