<?xml version="1.0" encoding="utf-8"?>
<!-- Generator: Adobe Illustrator 28.4.1, SVG Export Plug-In . SVG Version: 6.00 Build 0)  -->
<svg version="1.1" id="Layer_1" xmlns="http://www.w3.org/2000/svg" xmlns:xlink="http://www.w3.org/1999/xlink" x="0px" y="0px"
	 viewBox="0 0 512 290.3" style="enable-background:new 0 0 512 290.3;" xml:space="preserve">
<style type="text/css">
	.st0{fill:#83898F;}
	.st1{fill:url(#SVGID_1_);}
	.st2{fill:url(#SVGID_00000026144951247576625630000005982540181332812955_);}
	.st3{fill:url(#SVGID_00000017512479028253639020000013880647465357113011_);}
	.st4{fill:url(#SVGID_00000122707628274193473380000009394880738126544033_);}
	.st5{fill:url(#SVGID_00000039828814040150854070000009236323124468536497_);}
	.st6{fill:url(#SVGID_00000075857641845072897290000015662734430583350663_);}
	.st7{fill:url(#SVGID_00000163784016750977213160000009011657061874474914_);}
	.st8{fill:url(#SVGID_00000039849459900118352100000010293294021801013135_);}
	.st9{fill:url(#SVGID_00000092446718071779095220000004378063722526170804_);}
	.st10{fill:url(#SVGID_00000176027986863326068090000012714058537711669147_);}
	.st11{fill:url(#SVGID_00000132790111970471219540000011776498989943330988_);}
	.st12{fill:url(#SVGID_00000065072389323731550630000015890607984451902867_);}
	.st13{fill:url(#SVGID_00000043455341013856079030000005551944240184448153_);}
	.st14{fill:url(#SVGID_00000114782080816518386820000002389655066291622546_);}
</style>
<g>
	<path class="st0" d="M255.1,224.3c0-2.5-1.5-4.3-3.4-4.3h-8.4v11.3h2.2v-2.1h4.8l1.1,2.1h3.2l-1.3-2.1
		C254.5,228.2,255,226.5,255.1,224.3z M251.1,227.1h-5.7v-4.8h5.2c1,0,1.8,0.9,1.8,2.2l0,0.9C252.4,226.5,251.9,227.1,251.1,227.1z
		 M427.8,224.3c0-2.5-1.5-4.3-3.4-4.3h-8.4v11.3h2.2v-2.1h4.8l1.1,2.1h3.2l-1.3-2.1C427.2,228.2,427.7,226.5,427.8,224.3z
		 M423.8,227.1h-5.7v-4.8h5.2c1,0,1.8,0.9,1.8,2.2v0.9C425,226.5,424.6,227.1,423.8,227.1z M366.9,224.3c0-2.5-1.5-4.3-3.4-4.3H355
		v11.3h2.7v-2.1h5.8C365.4,229.5,366.9,227.5,366.9,224.3z M362.9,227.1h-5.2v-4.8h4.8c1,0,1.8,0.9,1.8,2.2v0.9
		C364.1,226.5,363.7,227.1,362.9,227.1z M371.7,220.1h-2.7v11.3h2.7V220.1z M231.8,224.6h3.7h3.6v2.3h-7.4c0.2,1.4,0.9,2.3,1.7,2.3
		h7.5v2.1h-8.4c-1.8,0-2.9-2.5-3-5.7c0.1-3.9,1.6-5.6,4.1-5.5h7.3v2.4h-5.5v0h-1.4C232.4,222.5,232,223.1,231.8,224.6z M189.8,224.6
		h3.7h3.6v2.3h-7.4c0.2,1.4,0.9,2.3,1.7,2.3h7.5v2.1h-8.4c-1.8,0-2.9-2.5-3-5.7c0.1-3.9,1.6-5.6,4.1-5.5h7.3v2.4h-5.5v0h-1.4
		C190.5,222.5,190,223.1,189.8,224.6z M259.2,224.6h3.7h3.6v2.3h-7.4c0.2,1.4,0.9,2.3,1.7,2.3h7.5v2.1h-8.4c-1.8,0-2.9-2.5-3-5.7
		c0.1-3.9,1.6-5.6,4.1-5.5h7.3v2.4h-5.5v0h-1.4C259.8,222.5,259.3,223.1,259.2,224.6z M287.4,220c-1.9,0-3.4,1.8-3.4,4.3v7h2.2v-2.1
		h7v2.1h2.2V220H287.4z M293.2,227.1h-7v-2.6c0-1.3,0.8-2.2,1.8-2.2h5.3V227.1z M433.7,220c-1.9,0-3.4,1.8-3.4,4.3v7h2.2v-2.1h7v2.1
		h2.2V220H433.7z M439.5,227.1h-7v-2.6c0-1.3,0.8-2.2,1.8-2.2h5.3V227.1z M212.8,223.7v7.7h-2.6v-7.5c0-1.2-0.5-1.7-1.7-1.7h-5v9.1
		H201v-11.3h3.8h4.7C211.1,220.1,212.8,221.3,212.8,223.7z M385.7,223.7v7.7h-2.6v-7.5c0-1.2-0.5-1.7-1.7-1.7h-5v9.1h-2.6v-11.3h3.8
		h4.7C384,220.1,385.7,221.3,385.7,223.7z M404.8,231.4c-1.6,0-3.3-1.2-3.3-3.6v-7.7h2.6v7.5c0,1.2,0.5,1.7,1.7,1.7h1.6h1.6
		c1.2,0,1.7-0.4,1.7-1.7v-7.5h2.6v7.7c0,2.4-1.7,3.6-3.3,3.6H404.8z M224.7,220.1H218h-1.7h-0.9v11.3h2.6v0h5.6
		c2.5,0.1,4-1.6,4.1-5.5C227.6,222.6,226.5,220.1,224.7,220.1z M222.7,228.9h-0.9v0H218v-6.7v-0.1h5.4c0.9,0,1.7,1,1.7,3.6
		S224.4,228.9,222.7,228.9z M307,220.1h-6.7h-1.7h-0.9v11.3h2.6v0h5.6c2.5,0.1,4-1.6,4.1-5.5C310,222.6,308.8,220.1,307,220.1z
		 M305.1,228.9h-0.9v0h-3.8v-6.7v-0.1h5.4c0.9,0,1.7,1,1.7,3.6S306.8,228.9,305.1,228.9z M281.1,222.4l-8,6.9h8v2h-10.5v-2.2
		l7.5-6.8h-7.5V220h10.5V222.4z M321.8,220h-6.1c-1.8,0-3.2,1.4-3.2,3.2v4.9c0,1.8,1.4,3.2,3.2,3.2h6.1c1.8,0,3.2-1.4,3.2-3.2v-4.9
		C325,221.4,323.6,220,321.8,220z M322.5,226.8c0,1.3-1,2.3-2.3,2.3h-2.9c-1.3,0-2.3-1-2.3-2.3v-2.2c0-1.3,1-2.3,2.3-2.3h2.9
		c1.3,0,2.3,1,2.3,2.3V226.8z M333.7,220h3.2v4.5h6.6V220h2.7v5.9v2.2c0,1.8-1.4,3.2-3.2,3.2h-6.1v-2.3h4.5c1.3,0,2.3-1,2.3-2.3
		h-6.8c-1.3,0-3.2-0.3-3.2-2.3V220z M399.2,222.7h-4.3v8.6h-2.7v-8.6h-4.3v-2.7h4.3h2.7h4.3V222.7z"/>
	<linearGradient id="SVGID_1_" gradientUnits="userSpaceOnUse" x1="498.5221" y1="142.6432" x2="28.8861" y2="142.6432">
		<stop  offset="1.736841e-02" style="stop-color:#D1D1D1"/>
		<stop  offset="9.011647e-02" style="stop-color:#CFB6B3"/>
		<stop  offset="0.1958" style="stop-color:#CC948C"/>
		<stop  offset="0.2511" style="stop-color:#CB877D"/>
		<stop  offset="0.4503" style="stop-color:#CA2F3E"/>
		<stop  offset="0.681" style="stop-color:#C3625B"/>
		<stop  offset="0.6852" style="stop-color:#C3605A"/>
		<stop  offset="0.7462" style="stop-color:#C64A4E"/>
		<stop  offset="0.813" style="stop-color:#C83B45"/>
		<stop  offset="0.8901" style="stop-color:#CA3240"/>
		<stop  offset="1" style="stop-color:#CA2F3E"/>
	</linearGradient>
	<path class="st1" d="M45.8,167.2c2.5-1.5,5.2-3,6.4-3.7c8.8-4.7,17.7-9.1,26.7-13.3c27.3-12.5,55.6-22.6,84.7-30.3
		c21.6-5.7,43.5-9.8,65.6-12.4c19.7-2.3,39.5-3.1,59.4-2.3c26,1.1,51.8,4.3,76.8,12c23.9,7.3,46.5,17.5,66.5,32.7
		c10.9,8.3,20.3,18,26.7,30.3c3.8,7.2,6,15,6.9,23.1c1,12-2,25.2-3.4,28.1c2.7-11.6,3-24.4,2.6-28.3c-1.2-10.6-5.1-20.4-11.5-29.5
		c-10-14.1-23.4-24.3-38.2-32.7c-19.1-10.9-39.5-19-60.9-24.2c-15.4-3.7-31-6-46.8-7.5c-16.6-1.6-33.3-1.8-49.9-1.1
		c-27.5,1.1-54.6,5-81.5,11.2c-31.8,7.3-62.5,17.5-92.5,30.3c-10.6,4.5-21,9.5-31.2,14.7C50.8,165.1,49.8,165.7,45.8,167.2z
		 M48.3,159.1c26.3-14.4,53.8-26.3,82.1-36.1c28.6-9.9,57.7-17.4,87.6-22c18.2-2.8,36.6-4.4,55-4.9c12.3-0.3,24.7,0.3,37,1.2
		c16,1.2,31.9,3.7,47.5,7.3c23.3,5.4,45.1,14.4,65.7,26.5c15,8.8,28.6,19.4,38.9,33.7c10.7,14.9,15.7,31.4,13.8,49.9
		c-0.3,3.3-1.7,9.5-2.9,16.3c1.3-4.4,2-7.1,2.1-7.4c4.1-15.6,3.4-30.9-2.6-45.8c-6.5-16-17.6-28.5-30.9-39.2
		c-18.3-14.7-39-25.1-61-33c-30.7-11-62.6-14.8-95-15.7c-8.9-0.2-17.7,0.3-26.6,0.7c-9.3,0.5-18.6,1.3-27.9,2.6
		c-23.7,3.2-47,8.1-69.8,15c-40.2,12.1-87,33.6-122.7,55.8C40.6,163.2,44.5,161.3,48.3,159.1z M41.5,152.3
		c21.2-14.9,43.8-27.5,67.2-38.5c29.4-13.9,59.9-24.8,91.6-31.9c21.4-4.8,43.1-7.8,65-8.4c12.6-0.4,25.3,0.2,37.9,1.2
		c8.8,0.7,17.5,1.1,26.3,2.2c19.6,2.4,39,6.1,57.9,11.9c25.1,7.8,48.7,18.5,68.6,36.3c11.1,9.9,19.6,21.5,25.3,35.2
		c8.2,19.5,9.2,39.8,5.8,60.4c-0.4,2.7-1.7,7.7-2.3,10.6c0.4-0.1,1.3-2.5,1.4-2.6c0.9-1.7,1.7-3.4,2.5-5.2
		c7.7-17.9,11.3-36.5,9.2-56c-2.4-22.2-12.1-41.1-27.2-57.3C460.4,99,447.8,91,434.6,84c-20-10.6-41.3-17.6-63.4-21.9
		c-58.9-10.4-86.3-8.6-109.2-7c-15.7,1.5-31.2,4.1-46.5,7.6c-33.2,7.5-64.9,19-95.2,34.6c-27.7,14.2-53.3,31.6-76.8,52
		c-4,3.4-10.8,9.1-14.6,12.6C32.2,159.4,38,154.8,41.5,152.3z"/>
	
		<linearGradient id="SVGID_00000045586183898736826020000003856321994047004067_" gradientUnits="userSpaceOnUse" x1="55.9027" y1="192.9088" x2="83.553" y2="192.9088">
		<stop  offset="1.736831e-02" style="stop-color:#B52743"/>
		<stop  offset="8.704721e-02" style="stop-color:#B93046"/>
		<stop  offset="0.5188" style="stop-color:#CE645A"/>
		<stop  offset="0.759" style="stop-color:#DF5247"/>
		<stop  offset="1" style="stop-color:#EC4438"/>
	</linearGradient>
	<path style="fill:url(#SVGID_00000045586183898736826020000003856321994047004067_);" d="M66.3,175.8c-5.9,0-10.4,5.5-10.4,13v21.3
		h6.7v-6.3h14.3v6.3h6.7v-34.3H66.3z M76.9,197.2H62.6v-7.8c0-3.9,2.3-6.7,5.4-6.7h8.9V197.2z"/>
	
		<linearGradient id="SVGID_00000156546327097645689610000005232593881251236241_" gradientUnits="userSpaceOnUse" x1="88.1614" y1="192.9088" x2="115.8118" y2="192.9088">
		<stop  offset="1.736831e-02" style="stop-color:#B52743"/>
		<stop  offset="8.704721e-02" style="stop-color:#B93046"/>
		<stop  offset="0.5188" style="stop-color:#CE645A"/>
		<stop  offset="0.759" style="stop-color:#DF5247"/>
		<stop  offset="1" style="stop-color:#EC4438"/>
	</linearGradient>
	<path style="fill:url(#SVGID_00000156546327097645689610000005232593881251236241_);" d="M115.8,188.7c0-7.5-4.5-13-10.4-13H88.2
		v34.3h6.7v-6.3h8.8l3.4,6.3h7l-3.8-6.3C114.1,200.6,115.6,195.3,115.8,188.7z M105.1,197.2H94.8v-14.5h8.9c3,0,5.4,2.8,5.4,6.7
		l0,2.7C108.8,195.2,107.6,197,105.1,197.2z"/>
	
		<linearGradient id="SVGID_00000145772436198928983720000011158998871623088055_" gradientUnits="userSpaceOnUse" x1="232.6984" y1="185.7548" x2="271.8806" y2="185.7548">
		<stop  offset="1.736831e-02" style="stop-color:#B52743"/>
		<stop  offset="8.704721e-02" style="stop-color:#B93046"/>
		<stop  offset="0.5188" style="stop-color:#CE645A"/>
		<stop  offset="0.759" style="stop-color:#DF5247"/>
		<stop  offset="1" style="stop-color:#EC4438"/>
	</linearGradient>
	<path style="fill:url(#SVGID_00000145772436198928983720000011158998871623088055_);" d="M271.9,179.8c0-10.6-6.4-18.4-14.8-18.4
		h-24.4v48.6h9.5v-8.9h12.5l4.8,8.9h10l-5.4-8.9C269.4,196.7,271.6,189.2,271.9,179.8z M256.7,191.8h-14.5v-20.6h12.6
		c4.3,0,7.6,4,7.6,9.5l0,3.9C262,189,260.2,191.6,256.7,191.8z"/>
	
		<linearGradient id="SVGID_00000114766124101042808070000018267564844743802503_" gradientUnits="userSpaceOnUse" x1="362.8198" y1="192.8563" x2="390.5548" y2="192.8563">
		<stop  offset="1.736831e-02" style="stop-color:#B52743"/>
		<stop  offset="8.704721e-02" style="stop-color:#B93046"/>
		<stop  offset="0.5188" style="stop-color:#CE645A"/>
		<stop  offset="0.759" style="stop-color:#DF5247"/>
		<stop  offset="1" style="stop-color:#EC4438"/>
	</linearGradient>
	<path style="fill:url(#SVGID_00000114766124101042808070000018267564844743802503_);" d="M390.6,188.7c0-7.5-4.5-13-10.4-13h-17.3
		v34.4h6.7v-6.3h8.9l3.4,6.3h7.1l-3.8-6.3C388.8,200.6,390.4,195.3,390.6,188.7z M379.8,197.1h-10.3v-14.6h8.9
		c3.1,0,5.4,2.8,5.4,6.7l0,2.8C383.5,195.1,382.3,197,379.8,197.1z"/>
	
		<linearGradient id="SVGID_00000181766582175123061890000009979670823179581857_" gradientUnits="userSpaceOnUse" x1="9.8082" y1="185.776" x2="50.3556" y2="185.776">
		<stop  offset="1.736831e-02" style="stop-color:#B52743"/>
		<stop  offset="8.704721e-02" style="stop-color:#B93046"/>
		<stop  offset="0.5188" style="stop-color:#CE645A"/>
		<stop  offset="0.759" style="stop-color:#DF5247"/>
		<stop  offset="1" style="stop-color:#EC4438"/>
	</linearGradient>
	<path style="fill:url(#SVGID_00000181766582175123061890000009979670823179581857_);" d="M35.2,181.1h-1.4v10h7.7v10.1H26.6
		c-4.7,0-7.7-6.5-7.9-14.9c0.3-10.2,4.1-14.6,10.6-14.4h5.9v0h15.2v-10.4h-23c-10.8-0.4-17.1,7-17.6,23.9
		c0.4,13.9,5.3,24.7,13.1,24.7h27.5v-29h-8.8H35.2z"/>
	
		<linearGradient id="SVGID_00000026877531845132241380000010921785488185898635_" gradientUnits="userSpaceOnUse" x1="152.4405" y1="192.7786" x2="181.2968" y2="192.7786">
		<stop  offset="1.736831e-02" style="stop-color:#B52743"/>
		<stop  offset="8.704721e-02" style="stop-color:#B93046"/>
		<stop  offset="0.5188" style="stop-color:#CE645A"/>
		<stop  offset="0.759" style="stop-color:#DF5247"/>
		<stop  offset="1" style="stop-color:#EC4438"/>
	</linearGradient>
	<path style="fill:url(#SVGID_00000026877531845132241380000010921785488185898635_);" d="M175,203.7h-10.6c-3.3,0-5.5-4.6-5.6-10.6
		c0.2-7.3,2.9-10.4,7.5-10.3h4.2v0h10.8v-7.4H165c-7.7-0.3-12.1,5-12.5,17c0.3,9.9,3.8,17.6,9.3,17.6h19.6v-20.6H175V203.7z"/>
	
		<linearGradient id="SVGID_00000014619114971334170200000006989556400014442148_" gradientUnits="userSpaceOnUse" x1="185.7858" y1="192.7786" x2="211.8264" y2="192.7786">
		<stop  offset="1.736831e-02" style="stop-color:#B52743"/>
		<stop  offset="8.704721e-02" style="stop-color:#B93046"/>
		<stop  offset="0.5188" style="stop-color:#CE645A"/>
		<stop  offset="0.759" style="stop-color:#DF5247"/>
		<stop  offset="1" style="stop-color:#EC4438"/>
	</linearGradient>
	<path style="fill:url(#SVGID_00000014619114971334170200000006989556400014442148_);" d="M199.7,182.9h4.2v0h8v-7.4h-13.5
		c-7.7-0.3-12.1,5-12.5,17c0.3,9.9,3.8,17.6,9.3,17.6h16.7v-6.3h-14.1c-2.7,0-4.5-2.9-5.3-7.2h15.9v-7.1h-4.5h-11.5
		C192.8,184.9,194.3,182.9,199.7,182.9z"/>
	
		<linearGradient id="SVGID_00000137845121873113285710000015310204784521569198_" gradientUnits="userSpaceOnUse" x1="394.0273" y1="192.7786" x2="420.0679" y2="192.7786">
		<stop  offset="1.736831e-02" style="stop-color:#B52743"/>
		<stop  offset="8.704721e-02" style="stop-color:#B93046"/>
		<stop  offset="0.5188" style="stop-color:#CE645A"/>
		<stop  offset="0.759" style="stop-color:#DF5247"/>
		<stop  offset="1" style="stop-color:#EC4438"/>
	</linearGradient>
	<path style="fill:url(#SVGID_00000137845121873113285710000015310204784521569198_);" d="M407.9,182.9h4.2v0h8v-7.4h-13.5
		c-7.7-0.3-12.1,5-12.5,17c0.3,9.9,3.8,17.6,9.3,17.6h16.7v-6.3H406c-2.7,0-4.5-2.9-5.3-7.2h15.9v-7.1h-4.5h-11.5
		C401.1,184.9,402.6,182.9,407.9,182.9z"/>
	
		<linearGradient id="SVGID_00000019663982956230622980000006700555861706641822_" gradientUnits="userSpaceOnUse" x1="120.0269" y1="192.9088" x2="147.6772" y2="192.9088">
		<stop  offset="1.736831e-02" style="stop-color:#B52743"/>
		<stop  offset="8.704721e-02" style="stop-color:#B93046"/>
		<stop  offset="0.5188" style="stop-color:#CE645A"/>
		<stop  offset="0.759" style="stop-color:#DF5247"/>
		<stop  offset="1" style="stop-color:#EC4438"/>
	</linearGradient>
	<path style="fill:url(#SVGID_00000019663982956230622980000006700555861706641822_);" d="M130.4,175.8c-5.9,0-10.4,5.5-10.4,13
		v21.3h6.7v-6.3H141v6.3h6.7v-34.3H130.4z M141,197.2h-14.3v-7.8c0-3.9,2.3-6.7,5.4-6.7h8.9V197.2z"/>
	
		<linearGradient id="SVGID_00000109737392842685126380000005460324903845052344_" gradientUnits="userSpaceOnUse" x1="277.0151" y1="192.9088" x2="304.6654" y2="192.9088">
		<stop  offset="1.736831e-02" style="stop-color:#B52743"/>
		<stop  offset="8.704721e-02" style="stop-color:#B93046"/>
		<stop  offset="0.5188" style="stop-color:#CE645A"/>
		<stop  offset="0.759" style="stop-color:#DF5247"/>
		<stop  offset="1" style="stop-color:#EC4438"/>
	</linearGradient>
	<path style="fill:url(#SVGID_00000109737392842685126380000005460324903845052344_);" d="M287.4,175.8c-5.9,0-10.4,5.5-10.4,13
		v21.3h6.7v-6.3H298v6.3h6.7v-34.3H287.4z M298,197.2h-14.3v-7.8c0-3.9,2.3-6.7,5.4-6.7h8.9V197.2z"/>
	
		<linearGradient id="SVGID_00000124144059768542186860000007754234276781118385_" gradientUnits="userSpaceOnUse" x1="309.4315" y1="192.9088" x2="346.9259" y2="192.9088">
		<stop  offset="1.736831e-02" style="stop-color:#B52743"/>
		<stop  offset="8.704721e-02" style="stop-color:#B93046"/>
		<stop  offset="0.5188" style="stop-color:#CE645A"/>
		<stop  offset="0.759" style="stop-color:#DF5247"/>
		<stop  offset="1" style="stop-color:#EC4438"/>
	</linearGradient>
	<path style="fill:url(#SVGID_00000124144059768542186860000007754234276781118385_);" d="M336.5,175.8h-14.9h-12.2v34.3h6.7v-27.4
		h3.8c3,0,5.4,2.8,5.4,6.7v20.7h6.7v-21.3c0-2.2-0.4-4.3-1.1-6.1h4c3,0,5.4,2.8,5.4,6.7v20.7h6.7v-21.3
		C346.9,181.2,342.4,175.8,336.5,175.8z"/>
	
		<linearGradient id="SVGID_00000043446743402518577470000008234270564233337015_" gradientUnits="userSpaceOnUse" x1="350.794" y1="184.8028" x2="358.6595" y2="184.8028">
		<stop  offset="1.736831e-02" style="stop-color:#B52743"/>
		<stop  offset="8.704721e-02" style="stop-color:#B93046"/>
		<stop  offset="0.5188" style="stop-color:#CE645A"/>
		<stop  offset="0.759" style="stop-color:#DF5247"/>
		<stop  offset="1" style="stop-color:#EC4438"/>
	</linearGradient>
	<path style="fill:url(#SVGID_00000043446743402518577470000008234270564233337015_);" d="M358.1,210.1h-6.7v-34.3h6.7V210.1z
		 M358.3,162.5l-1.5-2.1c-0.9-1.2-2.7-1.1-3.4,0.2l-2.4,4.7c-0.3,0.7-0.3,1.5,0.1,2.1l1.5,2.1c0.9,1.2,2.7,1.1,3.4-0.2l2.4-4.7
		C358.8,163.9,358.7,163.1,358.3,162.5z"/>
	
		<linearGradient id="SVGID_00000024003408362283051080000003207518608169725314_" gradientUnits="userSpaceOnUse" x1="425.5342" y1="192.7785" x2="451.3647" y2="192.7785">
		<stop  offset="1.736831e-02" style="stop-color:#B52743"/>
		<stop  offset="8.704721e-02" style="stop-color:#B93046"/>
		<stop  offset="0.5188" style="stop-color:#CE645A"/>
		<stop  offset="0.759" style="stop-color:#DF5247"/>
		<stop  offset="1" style="stop-color:#EC4438"/>
	</linearGradient>
	<polygon style="fill:url(#SVGID_00000024003408362283051080000003207518608169725314_);" points="451.4,175.5 425.5,175.5 
		425.5,182.6 442.5,182.6 425.5,203.3 425.5,210.1 451.4,210.1 451.4,203.8 433,203.8 451.4,182.6 	"/>
</g>
</svg>
