<?xml version="1.0" encoding="utf-8"?>
<!-- Generator: Adobe Illustrator 28.4.1, SVG Export Plug-In . SVG Version: 6.00 Build 0)  -->
<svg version="1.1" id="Layer_1" xmlns="http://www.w3.org/2000/svg" xmlns:xlink="http://www.w3.org/1999/xlink" x="0px" y="0px"
	 viewBox="0 0 841.89 595.28" style="enable-background:new 0 0 841.89 595.28;" xml:space="preserve">
<style type="text/css">
	.st0{fill:#FFFFFF;stroke:#FFFFFF;stroke-miterlimit:10;}
	.st1{fill:none;stroke:#FFFFFF;stroke-miterlimit:10;}
	.st2{fill:url(#SVGID_1_);stroke:#FFFFFF;stroke-miterlimit:10;}
</style>
<path class="st0" d="M406.71,321.23c-2.18-2.41-3.28-8.83-3.28-19.07v-47.59c1.11,0.07,2.19,0.12,3.23,0.15
	c1.23,0.04,2.38,0.06,3.44,0.06c1.24,0,2.66-0.02,4.23-0.05l55.87,77.3h5.87h120.1v-5.6h-6.52c-3.8,0-7.46-0.96-10.86-2.86
	c-2.49-1.4-4.14-3.08-4.9-4.98c-1.03-2.61-1.55-8.14-1.55-16.43V195.09c0-9.77,0.99-15.99,2.94-18.49
	c2.98-3.84,7.81-5.78,14.37-5.78h6.52v-5.59h-72.08v0.54h-5.9v4.52h5.87c0.01,0,0.02,0,0.03,0v0.54h4.84
	c2.18,0.48,4.3,1.27,6.37,2.4c2.52,1.47,4.2,3.22,5.01,5.26c1.06,2.69,1.59,8.23,1.59,16.62v107.07c0,9.94-0.98,16.22-2.93,18.82
	c-2.19,2.82-5.33,4.68-9.39,5.51h-8.45l-0.48-0.05c-8.92-0.96-16.25-3.24-21.77-6.76c-5.54-3.53-12.28-10.81-20.02-21.62
	l-33.75-46.89c13.58-3.13,23.79-8.47,30.35-15.88c6.7-7.56,10.1-16.61,10.1-26.88c0-9.62-2.98-18.02-8.87-24.97
	c-5.87-6.93-13.11-11.76-21.52-14.34c-8.36-2.57-21.51-3.87-39.09-3.87h-60.92v0.54h-5.9v4.52h5.9v0.54h5.7
	c3.67,0.77,6.62,2.37,8.82,4.84c2.28,2.53,3.42,9,3.42,19.43v107.07c0,9.45-0.86,15.44-2.57,17.97c-2.18,3.31-5.43,5.4-9.71,6.31
	h-5.65h-5.9v5.6h5.9h72.09v-5.6h-7.01C414.24,326.43,409.69,324.69,406.71,321.23z M595.1,327.51v3.45h-5.9v-3.46
	c0.15,0,0.3,0.01,0.45,0.01H595.1z M574.43,175.94c-2.13,2.73-3.17,8.99-3.17,19.15v107.07c0,8.54,0.53,14.04,1.63,16.82
	c0.86,2.14,2.66,4,5.37,5.52c2.08,1.16,4.25,1.98,6.48,2.47h-1.53c-3.91,0-7.62-0.98-11.12-2.93c-2.61-1.47-4.32-3.22-5.13-5.25
	c-1.06-2.69-1.59-8.23-1.59-16.62V195.09c0-9.94,1.02-16.21,3.06-18.82c3.1-3.99,8.02-5.99,14.79-5.99h0.94
	C579.97,171.13,576.7,173.01,574.43,175.94z M595.1,169.74h-5.45c-0.15,0-0.3,0.02-0.45,0.02v-3.47h5.9V169.74z M441.37,184.76
	c6.48,6.48,9.72,14.89,9.72,25.24c0,10.59-4.01,19.31-12.04,26.16c-6,5.11-14.17,8.31-24.5,9.61c-1.57,0.08-3.16,0.12-4.81,0.12
	c-0.73,0-1.66-0.02-2.79-0.06c-1.01-0.03-2.19-0.06-3.52-0.06v-67.95c7.8-1.48,14.07-2.23,18.65-2.23c0.27,0,0.53,0.01,0.79,0.02
	C430.25,176.77,436.42,179.82,441.37,184.76z M402.78,176.84l-0.44,0.08v69.49c-0.55-0.01-1.16-0.03-1.87-0.05
	c-1.14-0.04-2.49-0.06-4.03-0.06v-68.93c7.07-1.36,12.85-2.12,17.35-2.29C410.55,175.47,406.87,176.06,402.78,176.84z M405.9,321.94
	c2.22,2.57,5.25,4.24,9.02,5.03h-1.12c-6.19,0-10.84-1.79-13.93-5.38c-2.28-2.52-3.42-9-3.42-19.43V254
	c1.3,0.08,2.57,0.14,3.79,0.18c0.74,0.03,1.43,0.04,2.11,0.05v47.92C402.35,312.83,403.51,319.3,405.9,321.94z M475.87,184.13
	c5.71,6.76,8.61,14.93,8.61,24.28c0,10-3.31,18.81-9.83,26.17c-6.53,7.38-16.82,12.66-30.58,15.72l-0.79,0.18l34.7,48.2
	c7.82,10.92,14.66,18.29,20.31,21.9c5.16,3.29,11.86,5.51,19.89,6.62v3.76h-4.03v-3.99c-9.05-0.98-16.38-3.26-22-6.84
	c-5.62-3.58-12.35-10.84-20.17-21.76l-34.22-47.54c13.93-3.1,24.22-8.39,30.86-15.89c6.64-7.5,9.96-16.34,9.96-26.52
	c0-9.53-2.91-17.74-8.74-24.63c-5.83-6.89-12.92-11.61-21.27-14.18c-4-1.23-9.07-2.16-15.19-2.8c9.02,0.59,16.21,1.7,21.47,3.31
	C463.07,172.64,470.14,177.36,475.87,184.13z M426.18,330.96h-5.9v-3.45h5.9V330.96z"/>
<path class="st0" d="M277.45,521.23c-1.89-1.08-3.27-2.6-4.12-4.52c-1.1-2.44-1.66-7.22-1.66-14.2v-47.79
	c0-10.12-0.92-17.75-2.72-22.68c-2.64-7.08-6.24-12.24-10.71-15.35c-4.47-3.1-9.88-4.68-16.07-4.68c-1.81,0-3.63,0.2-5.47,0.57
	c-0.32-0.01-0.64-0.03-0.97-0.03c-9.77,0-19.95,5.34-30.55,16.01v-16.54h-7.94l-1.24,0.54h-3.04l-33.73,13.69l1.83,4.4
	c3.18-1.22,5.91-1.83,8.19-1.83c2.12,0,3.81,0.53,5.07,1.59c1.26,1.06,2.2,3.06,2.81,5.99c0.61,2.93,0.92,11.12,0.92,24.57v41.56
	c0,8.15-1,13.67-2.99,16.56c-1.3,1.89-3.41,3.15-6.29,3.8h-1.81h-5.9v5.47h5.9h56.44v-5.47h-0.54c-5.99,0-10-0.53-11.9-1.58
	c-1.89-1.04-3.4-2.71-4.48-4.96c-0.85-1.7-1.29-6.35-1.29-13.82v-58.83c8.92-9.78,17.96-14.98,26.92-15.51
	c3.74,0.94,6.57,3.03,8.46,6.32c2.65,4.6,3.97,12,3.97,22.18v45.83c0,6.44-0.16,10.27-0.49,11.49c-0.82,3.1-2.26,5.44-4.34,7.03
	c-1.1,0.84-2.65,1.45-4.62,1.85h-2.74h-5.9v5.47h5.9h56.44v-5.47h-0.54C282.98,522.87,279.35,522.32,277.45,521.23z M242.16,413.09
	c5.97,0,11.17,1.51,15.46,4.49c4.29,2.98,7.76,7.97,10.31,14.84c1.76,4.81,2.66,12.31,2.66,22.31v47.79
	c0,7.24,0.58,12.03,1.76,14.64c0.94,2.14,2.47,3.82,4.56,5.02c0.93,0.53,2.2,0.94,3.78,1.23c-4.77-0.08-8.1-0.64-9.95-1.7
	c-2-1.14-3.44-2.73-4.34-4.77c-1.14-2.52-1.71-7.33-1.71-14.42v-47.79c0-10.1-0.9-17.6-2.69-22.49
	c-2.61-7.01-6.11-12.04-10.51-15.09c-2.89-2.01-6.15-3.34-9.77-4.03C241.87,413.11,242.01,413.09,242.16,413.09z M204.1,429.66
	c-1.95,2.03-3.92,4.21-5.9,6.6v-23.17h5.9V429.66z M222.31,527.27h-5.9v-3.6c1.68,0.17,3.64,0.26,5.9,0.27V527.27z M204.24,443.12
	l-0.14,0.15v59.24c0,7.74,0.46,12.42,1.4,14.29c1.18,2.45,2.84,4.28,4.93,5.43c0.9,0.5,2.18,0.88,3.82,1.16
	c-4.92-0.12-8.25-0.66-10-1.62c-2-1.1-3.57-2.83-4.71-5.19c-0.9-1.79-1.34-6.48-1.34-14.06v-59.03c1.96-2.16,3.93-4.1,5.9-5.82v0.09
	l0.27-0.33c7.57-6.55,15.17-9.84,22.8-9.84c0.3,0,0.58,0.03,0.88,0.04C220.07,429.28,212.09,434.47,204.24,443.12z M287.7,527.27
	h-5.9v-3.7c1.66,0.23,3.61,0.36,5.9,0.37V527.27z"/>
<path class="st0" d="M352.24,505.57h-4.19c-1.39,3.26-3.34,5.73-5.87,7.39c-1.16,0.77-2.33,1.35-3.52,1.76
	c-2.14-0.43-3.94-1.55-5.45-3.39c-1.99-2.41-2.99-7.23-2.99-14.33v-72.06h26.16v-9.63h-26.16v-36.79h-7.33l-0.14,0.33
	c-0.03,0.07-0.05,0.13-0.08,0.2h-3.21c-3.34,8.23-5.95,13.89-7.82,16.99c-3.67,5.87-7.84,10.94-12.53,15.22
	c-4.69,4.28-9.27,7.31-13.75,9.11v4.03h5.9v0.54h11.82v74.75c0,8.07,0.85,14.04,2.57,17.91c1.71,3.87,4.36,6.85,7.94,8.92
	c3.58,2.08,7.25,3.12,11,3.12c0.51,0,1.02-0.04,1.53-0.07c1.63,0.4,3.26,0.61,4.91,0.61c5.64,0,11.18-2.07,16.46-6.16
	c5.27-4.08,9.4-10.23,12.28-18.27l0.26-0.72h-7.55L352.24,505.57z M332.38,512.02c1.24,1.5,2.69,2.57,4.34,3.22
	c-0.78,0.14-1.56,0.23-2.35,0.23c-3.26,0-5.93-1.26-8.01-3.79c-2.08-2.52-3.12-7.41-3.12-14.67v-72.6h5.9v72.6
	C329.14,504.46,330.2,509.37,332.38,512.02z M355.29,423.87h-5.9v-7.48h5.9V423.87z M329.14,379.6v36.25h-5.9v-35.3
	c0.12-0.32,0.23-0.63,0.36-0.95H329.14z M358.49,506.1c-2.79,7.5-6.71,13.24-11.66,17.07c-5.09,3.94-10.41,5.94-15.81,5.94
	c-0.47,0-0.94-0.02-1.4-0.05c3.78-0.86,7.48-2.66,11.1-5.46c3.54-2.74,6.53-6.42,8.98-10.99c1.44-1.63,2.16-3.36,3.11-5.63
	l0.36-0.87H358.49z"/>
<path class="st0" d="M452.17,484.35c-0.69,1.83-1.17,3.54-1.56,5.17c-3.27,7.18-7.12,12.43-11.57,15.74
	c-3.83,2.85-8.14,4.67-12.93,5.51c-10.69-0.07-20.14-4.77-28.08-13.98c-7.94-9.21-11.96-22.06-11.97-38.23h77.37v-0.54
	c0-13.93-4.12-25.22-12.25-33.56c-8.13-8.34-18.67-12.57-31.31-12.57c-2.8,0-5.51,0.19-8.14,0.58c-14.07,0.4-25.83,5.73-35.27,16.03
	c-9.82,10.72-14.73,25.65-14.73,44.8c0,17.68,4.79,31.76,14.36,42.23c9.34,10.22,20.53,15.43,33.56,15.68
	c2.41,0.37,4.87,0.56,7.41,0.56c12.49,0,23.02-4.69,31.32-13.93c8.26-9.2,13.32-19.56,15.04-30.77l0.08-0.49l-11.17-2.67
	L452.17,484.35z M397.23,497.48c6.63,7.69,14.3,12.32,22.85,13.82c-0.05,0-0.11,0.01-0.16,0.01c-11,0-20.58-4.72-28.72-14.18
	c-8.15-9.45-12.18-22.49-12.1-39.11h5.9C384.91,474.7,389.03,487.97,397.23,497.48z M386.12,450.39c0.95-8.92,4.02-15.99,9.13-21.02
	c4.82-4.75,10.31-7.33,16.33-7.68c2.62,0.62,5.17,1.72,7.66,3.33c4.03,2.61,7.07,6.19,9.1,10.76c1.27,2.86,2.11,7.74,2.53,14.62
	H386.12z M394.51,428.61c-5.4,5.32-8.6,12.81-9.51,22.27l0,0.05h-5.9c0.9-9.37,4.01-16.68,9.35-21.94
	c5.34-5.26,11.39-7.88,18.15-7.88c0.37,0,0.73,0.02,1.1,0.04C402.9,422.2,398.48,424.69,394.51,428.61z M462.36,457.48h-5.91
	c-0.1-13.6-4.13-24.48-12.09-32.65c-6.37-6.53-14.14-10.47-23.3-11.84c11.81,0.26,21.68,4.36,29.35,12.22
	C458.24,433.23,462.26,444.09,462.36,457.48z M447.59,517.12c-7.93,8.83-17.96,13.38-29.81,13.56c9.26-1.46,17.18-5.86,23.78-13.2
	c8.23-9.17,13.2-19.33,14.91-30.5l-2.43-1.57l8.26,1.97C460.53,498.21,455.59,508.21,447.59,517.12z"/>
<path class="st0" d="M653.1,521.05c-2.09-1.2-3.54-2.66-4.29-4.32c-1.03-2.53-1.55-7.31-1.55-14.22v-48.16
	c0-10.12-0.92-17.66-2.72-22.44c-2.72-7-6.47-12.12-11.14-15.23c-4.67-3.1-10.1-4.67-16.13-4.67c-2.08,0-4.14,0.19-6.19,0.54
	c-0.08,0-0.16-0.01-0.25-0.01c-6.11,0-12.06,1.53-17.84,4.58c-4.54,2.4-9.88,6.87-16.02,13.4c-1.95-5.1-4.82-9.23-8.62-12.29
	c-5.13-4.13-11.33-6.23-18.43-6.23c-1.93,0-3.88,0.19-5.83,0.56c-0.2,0-0.4-0.02-0.61-0.02c-4.16,0-8.35,0.86-12.59,2.57
	c-4.24,1.71-8.19,4.12-11.85,7.21c-0.98,0.82-3.47,3.2-7.45,7.12v-17.44h-5.79l-1.33,0.54h-5.11l-33.73,13.69l1.83,4.4
	c1.91-0.73,3.64-1.22,5.22-1.51l0.92,2.2l0.49-0.19c1.99-0.77,3.79-1.26,5.42-1.54c0.42,0.21,0.81,0.44,1.15,0.73
	c1.22,1.02,2.12,2.87,2.69,5.56c0.73,3.59,1.1,11.53,1.1,23.83v42.78c0,6.93-0.53,11.59-1.59,13.99c-1.06,2.4-2.61,4.16-4.64,5.26
	c-0.87,0.47-2.04,0.83-3.47,1.1c-0.28,0-0.55,0.01-0.85,0.01h-0.54c0,0-3.62,0-5.9,0v5.47h5.9h56.44v-5.47h-0.54
	c-5.99,0-10-0.53-11.9-1.58c-1.88-1.04-3.33-2.62-4.29-4.7c-0.98-2.12-1.48-6.85-1.48-14.07v-59.82c3.6-4.35,8.77-8.32,15.37-11.82
	c3.73-2.04,7.53-3.19,11.32-3.43c4.12,1.03,7.49,3.44,10.1,7.24c2.69,3.99,4.03,10.55,4.03,19.68v48.16c0,6.68-0.2,10.72-0.61,12.1
	c-0.9,2.93-2.5,5.13-4.83,6.6c-1.15,0.73-2.79,1.27-4.89,1.64c-0.47,0.01-0.94,0.02-1.44,0.02h-0.54c0,0-3.68,0-5.9,0v5.47h5.9
	h57.66v-5.47h-0.54c-5.59,0-9.58-0.62-11.85-1.83c-2.25-1.2-3.79-2.7-4.59-4.46c-0.82-1.79-1.24-6.53-1.24-14.08l0-53.44l-0.24-5.19
	l0.2-1.11c6.07-5.74,11.31-9.72,15.57-11.83c3.86-1.91,7.75-2.96,11.58-3.15c4.37,1.03,7.72,3.44,10.04,7.25
	c2.2,3.75,3.3,10.19,3.3,19.31v48.16c0,6.52-0.16,10.47-0.49,11.86c-0.82,2.85-2.16,4.93-4.03,6.23c-1.53,1.06-3.41,1.81-5.61,2.27
	h-2.05h-5.9v5.47h5.9h56.32v-5.47h-0.54C658.74,522.87,655.21,522.26,653.1,521.05z M617.27,413.09c5.81,0,11.04,1.51,15.53,4.49
	c4.49,2.98,8.1,7.93,10.73,14.72c1.76,4.65,2.65,12.07,2.65,22.05v48.16c0,7.15,0.53,11.93,1.64,14.64
	c0.86,1.89,2.45,3.51,4.74,4.83c1.09,0.63,2.47,1.1,4.17,1.42c-4.75-0.04-8.2-0.66-10.34-1.89c-2.2-1.26-3.71-2.79-4.52-4.58
	c-1.06-2.61-1.59-7.41-1.59-14.42v-48.16c0-10.1-0.9-17.52-2.69-22.24c-2.69-6.92-6.34-11.92-10.94-14.97
	c-3.02-2.01-6.34-3.34-9.94-4.03C616.9,413.1,617.08,413.09,617.27,413.09z M549.92,413.09c6.85,0,12.82,2.02,17.75,5.99
	c3.76,3.04,6.6,7.17,8.48,12.33c-1.43,1.55-2.91,3.21-4.43,4.98c-1.71-7.74-5.09-13.65-10.14-17.72c-3.57-2.88-7.63-4.72-12.17-5.56
	C549.57,413.1,549.75,413.09,549.92,413.09z M505.9,413.09h4.61v17.42c-1.72,1.7-3.68,3.66-5.9,5.87v-22.78L505.9,413.09z
	 M474.19,429.96l-0.42-1.02c0.66-0.08,1.29-0.13,1.88-0.13c0.63,0,1.21,0.06,1.77,0.15C476.39,429.22,475.33,429.54,474.19,429.96z
	 M528.73,527.27h-5.9v-3.6c1.68,0.17,3.64,0.26,5.9,0.27V527.27z M526.45,429.92c-6.79,3.6-12.11,7.72-15.81,12.23l-0.12,0.15v60.2
	c0,7.48,0.52,12.24,1.58,14.53c1.06,2.3,2.66,4.04,4.75,5.19c0.9,0.5,2.18,0.88,3.82,1.16c-4.92-0.12-8.25-0.66-10-1.62
	c-2-1.1-3.5-2.75-4.52-4.95c-1.02-2.2-1.53-6.97-1.53-14.3V442.5c1.65-2.01,3.63-3.93,5.9-5.77v0.95l0.92-0.92
	c0.95-0.95,1.85-1.85,2.71-2.7c1.88-1.27,3.91-2.49,6.12-3.67c4.32-2.36,8.68-3.54,13.08-3.54c0.4,0,0.79,0.01,1.17,0.03
	C531.8,427.46,529.1,428.47,526.45,429.92z M596.69,527.27h-5.9v-3.68c1.71,0.21,3.66,0.33,5.9,0.35V527.27z M594.6,429.98
	c-4.39,2.17-9.76,6.25-15.96,12.13l-0.13,0.12l-0.29,1.58l0.25,5.29v53.41c0,7.81,0.44,12.56,1.33,14.52
	c0.9,1.98,2.6,3.64,5.06,4.96c1.15,0.61,2.65,1.08,4.51,1.4c-4.96-0.1-8.53-0.72-10.69-1.87c-2.36-1.26-3.97-2.83-4.83-4.71
	c-0.86-1.87-1.28-6.64-1.28-14.3V449.1l-0.25-5.25l0.25-1.35c6.19-5.87,11.47-9.88,15.83-12.04c4.36-2.16,8.7-3.24,13.02-3.24
	c0.35,0,0.7,0.01,1.05,0.02C599.85,427.78,597.22,428.68,594.6,429.98z M663.05,527.27h-5.9v-3.8c1.67,0.29,3.63,0.45,5.9,0.47
	V527.27z"/>
<path class="st0" d="M758.14,483.91l-0.17,0.44c-0.69,1.83-1.17,3.54-1.56,5.17c-3.27,7.18-7.12,12.43-11.57,15.74
	c-3.83,2.85-8.14,4.67-12.93,5.51c-10.69-0.07-20.14-4.77-28.08-13.98c-7.94-9.21-11.96-22.06-11.97-38.23h77.37v-0.54
	c0-13.93-4.12-25.22-12.25-33.56c-8.13-8.34-18.67-12.57-31.31-12.57c-2.8,0-5.51,0.19-8.14,0.58c-14.07,0.4-25.83,5.74-35.27,16.03
	c-9.82,10.72-14.73,25.65-14.73,44.8c0,17.68,4.79,31.76,14.36,42.23c9.34,10.22,20.53,15.43,33.56,15.68
	c2.41,0.37,4.87,0.56,7.41,0.56c12.48,0,23.02-4.69,31.32-13.93c8.26-9.2,13.32-19.56,15.04-30.77l0.07-0.49L758.14,483.91z
	 M703.03,497.48c6.63,7.69,14.3,12.32,22.85,13.82c-0.05,0-0.11,0.01-0.16,0.01c-11,0-20.58-4.72-28.72-14.18
	c-8.15-9.45-12.18-22.49-12.1-39.11h5.9C690.72,474.7,694.83,487.97,703.03,497.48z M691.93,450.39c0.95-8.92,4.03-15.99,9.13-21.02
	c4.82-4.75,10.31-7.33,16.33-7.68c2.62,0.62,5.17,1.72,7.66,3.33c4.03,2.61,7.07,6.19,9.11,10.76c1.27,2.86,2.11,7.74,2.53,14.62
	H691.93z M700.31,428.61c-5.4,5.32-8.6,12.81-9.51,22.27l0,0.05h-5.9c0.9-9.37,4.01-16.68,9.35-21.94
	c5.34-5.26,11.39-7.88,18.15-7.88c0.37,0,0.73,0.02,1.1,0.04C708.7,422.2,704.28,424.69,700.31,428.61z M768.16,457.48h-5.91
	c-0.1-13.6-4.13-24.48-12.09-32.65c-6.37-6.53-14.14-10.47-23.3-11.84c11.81,0.26,21.68,4.36,29.35,12.22
	C764.04,433.23,768.06,444.09,768.16,457.48z M753.39,517.12c-7.93,8.83-17.96,13.38-29.81,13.56c9.26-1.46,17.18-5.86,23.78-13.2
	c8.23-9.17,13.2-19.33,14.91-30.5l-2.43-1.57l8.26,1.97C766.34,498.21,761.39,508.21,753.39,517.12z"/>
<path class="st0" d="M629.22,240.07c5.99,4.73,16.07,11.06,30.25,19.01c14.18,7.94,22.86,13.14,26.03,15.58
	c4.72,3.59,8.21,7.46,10.45,11.61c2.24,4.16,3.36,8.27,3.36,12.35c0,7.33-2.95,13.69-8.86,19.07c-4.37,3.97-9.9,6.47-16.6,7.51
	c-0.37,0.01-0.73,0.02-1.1,0.02c-8.67,0-16.75-1.95-24.01-5.8c-7.25-3.85-12.72-8.74-16.23-14.53c-3.53-5.82-6.39-14.74-8.49-26.52
	l-0.08-0.44h-7.81v0.54h-3.6v57.37h11.42l0.07-0.46c0.55-3.7,1.38-6.15,2.48-7.28c0.7-0.72,1.57-1.18,2.6-1.44
	c2.61,0.63,6.11,1.66,10.5,3.08c7.94,2.57,13.18,4.05,15.71,4.46c3.03,0.52,6.21,0.85,9.53,1c3.33,0.42,6.83,0.63,10.47,0.63
	c15.39,0,28.16-4.63,37.95-13.77c9.8-9.15,14.78-20.2,14.78-32.84c0-6.65-1.56-13.11-4.64-19.19c-3.08-6.07-7.53-11.42-13.23-15.89
	c-5.67-4.44-16.37-10.9-31.79-19.18c-18.84-10.1-30.91-18.29-35.9-24.32c-3.4-4.03-5.13-8.57-5.13-13.47
	c0-6.41,2.74-12.22,8.14-17.27c5.41-5.05,12.36-7.62,20.66-7.62c0.09,0,0.19,0.01,0.28,0.01c5.13,0.81,10.14,2.53,15.04,5.2
	c7.01,3.83,12.41,9,16.2,15.52c3.79,6.52,6.42,15.28,7.88,26.28h3.87c0,0.02,0.01,0.05,0.01,0.07l0.06,0.47h7.55v-58.4h-7.57
	l-0.09,0.42c-0.01,0.04-0.02,0.07-0.03,0.11h-3.8c-0.82,3.83-1.89,6.38-3.24,7.64c-0.4,0.38-0.85,0.68-1.31,0.94
	c-1.77-0.47-4.07-1.34-6.89-2.59c-9.88-4.33-19.37-6.52-28.2-6.52c-2.94,0-5.77,0.2-8.51,0.58c-13.16,0.4-24.09,4.68-32.76,12.85
	c-9.13,8.6-13.69,18.84-13.69,30.74c0,6.84,1.55,13.12,4.64,18.82C618.69,230.13,623.23,235.34,629.22,240.07z M623.05,278.98
	c2.11,11.69,4.99,20.59,8.55,26.45c3.62,5.96,9.22,10.98,16.65,14.92c5.16,2.73,10.72,4.51,16.6,5.35
	c-8.23-0.21-15.83-2.14-22.79-5.83c-7.38-3.91-12.85-8.82-16.44-14.73c-3.5-5.77-6.3-14.4-8.41-25.89v-0.28H623.05z M625.74,327.33
	c-1.22,1.27-2.11,3.7-2.7,7.42h-5.83v-0.37c0.57-3.31,1.39-5.55,2.48-6.67c1.18-1.22,2.79-1.83,4.83-1.83
	c0.63,0,1.53,0.12,2.69,0.35C626.67,326.51,626.17,326.88,625.74,327.33z M644.77,179.12c-5.63,5.25-8.48,11.33-8.48,18.05
	c0,5.16,1.81,9.92,5.38,14.15c5.07,6.14,17.26,14.41,36.22,24.58c15.38,8.25,26.02,14.67,31.64,19.08
	c5.58,4.37,9.93,9.6,12.93,15.53c3,5.93,4.53,12.22,4.53,18.7c0,12.33-4.86,23.12-14.44,32.06c-9.02,8.42-20.64,12.93-34.57,13.43
	c11.26-1.48,20.76-5.82,28.5-13.04c9.74-9.08,14.61-19.9,14.61-32.45c0-6.6-1.53-12.91-4.58-18.94
	c-3.06-6.03-7.42-11.26-13.08-15.71c-5.66-4.44-16.24-10.82-31.72-19.13c-18.99-10.19-31-18.33-36.06-24.45
	c-3.5-4.15-5.25-8.76-5.25-13.81c0-6.6,2.77-12.49,8.31-17.66c5.54-5.17,12.55-7.76,21.02-7.76c0.02,0,0.04,0,0.05,0
	C653.96,172.76,648.93,175.23,644.77,179.12z M715.98,162.5v56.25h-5.54c-0.13-0.96-0.24-1.88-0.36-2.81v-52.35
	c0.09-0.35,0.18-0.71,0.26-1.09H715.98z M699.39,171.19c-0.7,0.19-1.45,0.31-2.27,0.31c-1.88,0-5.09-1.02-9.66-3.06
	c-6.97-3.05-13.66-5-20.1-5.9c8.27,0.23,17.11,2.36,26.32,6.39C695.91,169.93,697.8,170.67,699.39,171.19z"/>
<path class="st1" d="M342.61,330.16v-0.1l-0.01-0.01l-17.08-28.57v-6.61h0.07v-2.97h-0.02v-0.13h-0.5v-2.19v-1.78h0.23v-2.27h-0.02
	v-0.13h-0.21h0h-8.53l-12.49-41.59c0.7-1.91,1.67-4.65,1.89-5.28h0.84v-1.96h0v-2.34h0h-3.86v-1.01h-1.12v-1.24h-1.25l-8.06-51.94
	l-4.52-80.21h1.99h0.1v-0.71h1.13h0.1v-3.47h-0.1v-1.96l0,0h-1.23v-1.56h-1.54v-0.22H289h0.1v-0.63H289h-0.67v-1.34H289v-0.63h-1.81
	v-1.52h0h-2.15l-1.85-11.13h0.22h0.24v-1.1h0.63h0.24v-0.98h-0.24h-0.87v-0.99h0.87h0v-0.98h0h-1.73v-8.08h-0.22h-0.02v-1.96h0
	h-0.21h-0.01h-0.22h-5.06V76.7l2.25,11.13h-2.15v1.52h-1.81v0.63h0.67v1.34h-0.67v0.63h0.67v0.22h-1.64v0.02h-0.07v1.51h0.07v0.02
	h-1.23h-0.13v3.56h0.13v1.87h1.23v0.71h2.09l-4.52,80.21l-8.06,51.94h-1.25v1.24h-1.12v1.01h-3.86h-0.24v2.27h0.24v0.07v1.96h0.84
	c0.35,0.98,1.77,4.96,1.94,5.13l-12.53,41.73h-8.53h-0.45v2.27h0.45v4.1h-0.74v2.97h0.29v6.73l-17.08,28.58v1.96h21.69l8.82-10.41
	l14.26-8.03l15.73-1.45l15.73,1.45l14.26,8.03l8.82,10.41h0h21.69h0v-1.84h0.02L342.61,330.16z M284.91,234.26h-2.76h-0.1h-3.33
	l3.38-31.16L284.91,234.26z M283.09,285.42h-1.03h-14.88l5.1-30.64h9.36h0.47h0.47h0.1h9.25l5.35,30.64H283.09z"/>
<path class="st0" d="M230.04,185.46c-5.9-7.3-13.26-12.55-21.87-15.63c-8.57-3.06-20.43-4.61-35.26-4.61h-61.28v0.54h-5.9v4.52h5.9
	v0.54h5.7c3.67,0.77,6.62,2.37,8.82,4.84c2.2,2.53,3.3,9,3.3,19.43v107.07c0,9.45-0.82,15.44-2.45,17.97
	c-2.18,3.31-5.43,5.4-9.71,6.31h-5.65h-5.9v5.6h5.9h72.09v-5.6h-6.89c-6.08,0-10.68-1.75-13.66-5.2c-2.18-2.41-3.28-8.83-3.28-19.07
	v-46.91c2.74,0.48,5.39,0.89,7.94,1.2c2.77,0.34,5.4,0.57,7.94,0.7c4.05,0.45,7.91,0.69,11.46,0.69c16.36,0,29.22-4.33,38.2-12.86
	c8.99-8.54,13.55-19.77,13.55-33.39C238.96,201.57,235.96,192.78,230.04,185.46z M176.74,327.5c0.03,0,0.05,0,0.08,0h5.82v3.45h-5.9
	V327.5z M162.36,321.94c2.22,2.57,5.27,4.24,9.08,5.03h-1.05c-6.28,0-10.96-1.79-14.05-5.38c-2.28-2.52-3.42-9-3.42-19.43v-48.28
	c2.02,0.44,3.98,0.82,5.9,1.17v47.11C158.81,312.83,159.97,319.3,162.36,321.94z M164.4,248.75c-3.34-0.41-7.17-1.02-11.49-1.83
	v-68.93c6.3-1.49,11.48-2.26,15.58-2.31c-2.78,0.39-5.87,0.98-9.26,1.79l-0.41,0.1v69.8l0.44,0.08c4.31,0.81,8.19,1.43,11.52,1.84
	c0.13,0.02,0.26,0.03,0.39,0.04C169.18,249.25,166.93,249.06,164.4,248.75z M178.73,248.81c-2.22-0.03-4.83-0.23-7.83-0.59
	c-3.2-0.39-6.91-0.98-11.02-1.75V178.4c6.27-1.47,11.47-2.21,15.47-2.21c0.1,0,0.19,0.01,0.29,0.01c4.19,0.69,8.06,2.02,11.61,4.04
	c5.38,3.05,9.53,7.66,12.47,13.81c2.93,6.15,4.4,12.81,4.4,19.98c0,10.43-3.08,18.93-9.23,25.48
	C190.19,244.54,184.8,247.63,178.73,248.81z M224.67,244.2c-8.08,7.67-19.4,11.85-33.69,12.47c11.45-1.45,20.67-5.47,27.63-12.08
	c8.92-8.47,13.38-19.47,13.38-33c0-9.94-2.93-18.54-8.8-25.79c-5.87-7.25-13.08-12.41-21.63-15.46c-4.84-1.73-10.68-2.97-17.53-3.72
	c9.61,0.6,17.59,2.01,23.79,4.22c8.42,3.01,15.62,8.15,21.4,15.29c5.76,7.12,8.68,15.68,8.68,25.45
	C237.89,224.9,233.44,235.87,224.67,244.2z"/>
<path class="st0" d="M79.72,341.92h-7.48v6.26h7.16c4.25,0,8.39,1.08,12.28,3.2c2.69,1.56,4.49,3.44,5.35,5.58
	c1.15,2.93,1.74,9.11,1.74,18.38v119.79c0,10.94-1.06,17.9-3.16,20.69c-3.33,4.29-8.78,6.47-16.21,6.47h-7.16v6.26h7.48h73.17h7.48
	v-6.26h-7.3c-4.25,0-8.34-1.08-12.15-3.2c-2.78-1.56-4.63-3.44-5.48-5.58c-1.15-2.92-1.74-9.11-1.74-18.38V375.34
	c0-10.93,1.11-17.89,3.29-20.69c3.33-4.29,8.74-6.47,16.07-6.47h7.3v-6.26h-7.48H79.72z M159.17,523.49v3.86h-6.28v-3.87
	c0.06,0,0.12,0.01,0.18,0.01H159.17z M136.05,353.91c-2.39,3.05-3.55,10.06-3.55,21.43v119.79c0,9.56,0.59,15.71,1.82,18.82
	c0.96,2.4,2.98,4.48,6.01,6.18c1.61,0.9,3.27,1.61,4.97,2.15c-4.15-0.05-8.14-1.12-11.86-3.2c-2.78-1.56-4.63-3.44-5.48-5.58
	c-1.15-2.92-1.74-9.11-1.74-18.38V375.34c0-10.93,1.11-17.89,3.29-20.69c3.15-4.06,8.19-6.21,14.94-6.43
	C140.96,349.35,138.13,351.24,136.05,353.91z M159.17,343.12v3.86h-6.1c-0.06,0-0.12,0.01-0.18,0.01v-3.87H159.17z"/>
<linearGradient id="SVGID_1_" gradientUnits="userSpaceOnUse" x1="242.562" y1="224.6566" x2="292.1765" y2="203.5563">
	<stop  offset="0" style="stop-color:#C28840"/>
	<stop  offset="0.2627" style="stop-color:#FFDA6E"/>
	<stop  offset="0.5015" style="stop-color:#C98F42"/>
	<stop  offset="0.7628" style="stop-color:#F6CB61"/>
	<stop  offset="1" style="stop-color:#E0B055"/>
</linearGradient>
<path class="st2" d="M337.31,330.16v-0.1l-0.01-0.01l-17.08-28.57v-6.61h0.07v-2.97h-0.02v-0.13h-0.5v-2.19v-1.78h0.23v-2.27h-0.02
	v-0.13h-0.21h0h-8.53l-12.49-41.59c0.7-1.91,1.67-4.65,1.89-5.28h0.84v-1.96h0v-2.34h0h-3.86v-1.01h-1.12v-1.24h-1.25l-8.06-51.94
	l-4.52-80.21h1.99h0.1v-0.71h1.13h0.1v-3.47h-0.1v-1.96l0,0h-1.23v-1.56h-1.54v-0.22h0.57h0.1v-0.63h-0.1h-0.67v-1.34h0.67v-0.63
	h-1.81v-1.52h0h-2.15L277.9,76.7h0.22h0.24v-1.1h0.63h0.24v-0.98h-0.24h-0.87v-0.99h0.87h0v-0.98h0h-1.73v-8.08h-0.22h-0.02v-1.96h0
	h-0.21h-0.01h-0.22h-0.22v1.96v8.08h-1.97v0.98h0.87v0.99h-0.87v0.98h0.87v1.1h0.36l-1.85,11.13h-2.15v1.52h-1.81v0.63h0.67v1.34
	h-0.67v0.63h0.67v0.22h-1.64v0.02h-0.07v1.51h0.07v0.02h-1.23h-0.13v3.56h0.13v1.87h1.23v0.71h2.09l-4.52,80.21l-8.06,51.94h-1.25
	v1.24h-1.12v1.01h-3.86h-0.24v2.27h0.24v0.07v1.96h0.84c0.35,0.98,1.77,4.96,1.94,5.13l-12.53,41.73h-8.53h-0.45v2.27h0.45v4.1
	h-0.74v2.97h0.29v6.73l-17.08,28.58v1.96H238l8.82-10.41l14.26-8.03l15.73-1.45l15.73,1.45l14.26,8.03l8.82,10.41h0h21.69h0v-1.84
	h0.02L337.31,330.16z M279.61,234.26h-2.76h-0.1h-3.33l3.38-31.16L279.61,234.26z M277.79,285.42h-1.03h-14.88l5.1-30.64h9.36h0.47
	h0.47h0.1h9.25l5.35,30.64H277.79z"/>
</svg>
