<?xml version="1.0" encoding="utf-8"?>
<!-- Generator: Adobe Illustrator 25.1.0, SVG Export Plug-In . SVG Version: 6.00 Build 0)  -->
<svg version="1.1" id="Layer_1" xmlns="http://www.w3.org/2000/svg" xmlns:xlink="http://www.w3.org/1999/xlink" x="0px" y="0px"
	 viewBox="0 0 1066.2 939.6" style="enable-background:new 0 0 1066.2 939.6;" xml:space="preserve">
<style type="text/css">
	.st0{fill:#FFFFFF;}
	.st1{fill:url(#SVGID_1_);}
	.st2{fill:url(#SVGID_2_);}
	.st3{fill:url(#SVGID_3_);}
	.st4{fill:url(#SVGID_4_);}
	.st5{fill:url(#SVGID_5_);}
	.st6{fill:#1B8190;}
	.st7{fill:url(#SVGID_6_);}
	.st8{fill:#602D1C;}
</style>
<g>
	<path class="st0" d="M217.1,770.4c-11.6,0-21.5,2.7-29.4,8.1c-7.6,5.1-13.6,12-18,20.2l-0.5-4.1c-4.5-38.1-25.7-58.2-61.5-58.2
		c-20.7,0-37.3,7.4-49.4,21.9c-11.7,14.1-17.7,32.2-17.7,53.9c0,23.2,6.2,41.7,18.4,55.2c12.4,13.7,28.8,20.7,48.5,20.7
		c16.1,0,30-4.8,41.2-14.2c7.7-6.4,13.3-14.8,16.8-25.1c2.4,8.4,6.3,15.8,11.9,22.2c9.9,11.3,23.2,17.1,39.5,17.1
		c16.7,0,30.3-5.8,40.5-17.1c10-11.1,15-25.1,15-41.5c0-16.5-4.9-30.5-14.4-41.7C248.2,776.3,234.4,770.4,217.1,770.4z M124,821
		l-1.3,7.5c-3,17.6-11,17.6-14.8,17.6c-5.2,0-8.7-1.7-11.4-5.3c-1.8-2.4-4.8-9.3-4.8-28.3c0-34.1,11.7-34.1,15.5-34.1
		c4.4,0,12.6,0,13.1,19.4l0.2,8.8l47.1-3c-2.3,5.9-3.8,12.5-4.2,19.7L124,821z"/>
	<path class="st0" d="M528.1,835.2c0,6.8-0.5,9.1-0.7,9.6c-0.2,0.5-0.8,1.4-2.2,2.5c-1.2,0.9-2.5,1.3-4.3,1.3c-1,0-1.5-0.2-1.5-0.2
		c-0.1-0.1-0.7-1.1-0.7-4.4v-71.7H474v65.5c-0.9-5-2.7-9.6-5.4-13.5c-2.9-4.2-6.5-7.6-10.9-10.1l15.5-4.2l-3.2-8.7
		c-3.9-10.6-9.7-18.5-17.4-23.5c-7.5-4.9-17.3-7.4-29.2-7.4c-14.9,0-26.9,3.7-35.5,11c-8.3,7-12.9,15.8-13.6,26.2
		c-1-12.9-4.6-22-11-27.6l0,0c-7.2-6.3-16.6-9.5-27.8-9.5c-6.3,0-12.3,1.5-17.8,4.3c-0.2,0.1-0.4,0.2-0.6,0.3v-2.6h-43.5v113.7h45.5
		v-62.8c0-13.7,4.4-13.7,6.5-13.7c1.4,0,1.8,0.4,2,0.5c0.6,0.5,0.8,1,0.9,1.5c0.2,0.8,0.6,3.7,0.6,11.8v62.8h45.5v-22.5
		c6.5,12.8,20.2,24.5,48.5,24.5c15.6,0,28.1-3.8,37.2-11.3c7.9-6.5,12.6-14.8,14-24.5c0.4,6.1,1.3,11.1,2.8,15.1
		c2.3,6.4,6.2,11.5,11.5,15.2c5.4,3.8,12.5,5.6,21.6,5.6c7.7,0,14.4-1.6,20-4.6v2.6h43.4V772.4h-45.5L528.1,835.2L528.1,835.2z"/>
	<path class="st0" d="M749,770.4c-11.6,0-21.5,2.7-29.5,8.1c-7.2,4.9-13,11.3-17.4,19.1v-25.2h-20.8v-31.2l-41,3.2l-2.2,28h-12.4
		v-34h-45.5v147.8h45.5v-74.5h10.1v36.5c0,14.6,3.3,24.7,10.2,31c6.7,6.1,16.8,9.1,31,9.1c4.2,0,10.5-0.7,19.3-2.2l7.1-1.2v-21.8
		c1.7,2.8,3.6,5.5,5.8,8c9.9,11.3,23.2,17.1,39.5,17.1c16.7,0,30.3-5.8,40.5-17.1c10-11.1,15-25.1,15-41.5
		c0-16.5-4.9-30.6-14.4-41.7C780.1,776.3,766.3,770.4,749,770.4z M694.4,848c-3.2,0.2-6,0.4-8.4,0.4c-2.1,0-3.5-0.1-4.3-0.3
		c-0.1-0.8-0.3-2.1-0.3-4.1v-32.4h15.4c-1.3,5.4-1.9,11.2-1.9,17.5c0,6.7,0.8,12.9,2.3,18.7L694.4,848z"/>
	<path class="st0" d="M936.9,753l-14.8-32.6l-54.4,31.9l9,20.2h-2.2v-1.1l-7.7-0.7c-2.3-0.2-4.3-0.3-6-0.3c-3.8,0-8.2,0.7-12.4,2.9
		v-0.8h-43.2v113.7h44.7v-47.9c0-6.6,0.8-11.8,2.3-15.3c1.2-2.8,2.7-4.8,4.2-5.6c1.1-0.6,3.8-1.6,9.4-1.6h7.4v70.4h45.5V772.4h-27.9
		L936.9,753z"/>
	<path class="st0" d="M1026.5,875.1c-0.5-1.6-1.3-5.7-1.3-15.5v-43.9c0-9.6-0.7-16.2-2.2-20.6c-1.6-4.7-4.6-9.2-8.8-13.2
		c-4.3-4-10.1-7-17.3-8.9c-6.5-1.7-13.5-2.6-20.8-2.6c-12.3,0-23.6,2.7-33.5,7.9c-11.1,5.9-17.9,15.8-20,29.6l-1.4,8.9l18.5,1.8
		c-6,3.3-10.7,7.5-13.9,12.6c-4.1,6.5-6.2,13.6-6.2,21.3c0,10.8,3.8,19.6,11.2,26.2c7.2,6.3,16.4,9.5,27.6,9.5
		c7.3,0,14.1-1.4,20-4.2c1.5-0.7,2.9-1.5,4.4-2.5l1.1,4.7h46L1026.5,875.1z"/>
	<path class="st0" d="M365.7,568.1c-2.4,4.9-7.5,7.9-13.4,7.9H114.8c-40,0-72.6,32.6-72.6,72.6s32.6,72.6,72.6,72.6h226.6
		c63.4,0,120.7-37.5,146-95.6c3.9-8.9,7-18.1,9.2-27.6v50.6c0,40,32.6,72.6,72.6,72.6h219.7h0.1c40-1.2,79.5-12.2,114.1-31.8
		c20.9-11.8,40-26.7,56.8-44.1c44.2-46.2,68.6-106.8,68.6-170.8c0-64-24.4-124.7-68.8-170.9c-16.6-17.3-35.5-32-56.4-43.9
		c-36.9-21-78.9-32-121.6-32H641.8V110.8c0-40-32.6-72.6-72.6-72.6s-72.6,32.6-72.6,72.6v116.9h-295c-53.1,0-102.5,26.3-132.2,70.3
		c-7.1,10.6-12.9,21.9-17.2,33.6c-6.6,17.6-9.9,36.3-9.9,55.4c0,31.9,9.4,62.7,27.2,89c13.4,19.9,31.5,36.8,52.3,48.8
		c21.3,12.4,45.7,19.7,70.4,21.2c0.3,0,0.7,0.1,1,0.1c0.6,0,1.4,0,2.5,0.1c2,0,5,0,8.7,0.1c6.5,0,15.8,0,29.5,0
		c26.7,0,65.1-0.1,114.1-0.2c2.8,0,4.4,0,4.5,0c7.9,0,14.9,7.4,14.9,15.8c0,2.2-0.5,4.3-1.4,6.1L365.7,568.1z M861.9,444.4v60.2
		c0,22.9-11.1,44.6-29.7,58c-12.2,8.8-26.6,13.5-41.8,13.5h-77.2c-25,0-48.6-13.4-61.4-35c-6.6-11-10-23.6-10-36.5V372.9h148.6
		c2.5,0,4.9,0.1,7.5,0.4c12.4,1.3,24.3,5.8,34.3,13C850.8,399.8,861.9,421.5,861.9,444.4z M496.6,525.8c-2.2-9.4-5.3-18.7-9.2-27.6
		c-0.4-0.8-0.7-1.6-1.1-2.4c-24.6-53.8-76.5-89.4-135.4-92.8c-3-0.2-6.1-0.3-9.5-0.3H204.6c-2,0-3.9-0.4-5.8-1.2l-0.5-0.2
		c-5.4-2.5-8.9-8.2-8.6-14.2c0.4-7.8,7.4-14.1,15.8-14.1h291V525.8z"/>
</g>
<g>
	
		<linearGradient id="SVGID_1_" gradientUnits="userSpaceOnUse" x1="50.71" y1="488.775" x2="478.6" y2="488.775" gradientTransform="matrix(1 0 0 -1 0 942)">
		<stop  offset="0.5126" style="stop-color:#1B8190"/>
		<stop  offset="0.5992" style="stop-color:#177687"/>
		<stop  offset="0.7507" style="stop-color:#0C596F"/>
		<stop  offset="0.8715" style="stop-color:#013D58"/>
	</linearGradient>
	<path class="st1" d="M478.6,499.3c-23.6,36.6-61.2,63.3-105.2,72.6c1.5-3,2.3-6.4,2.3-10c0-12.9-10.5-24.3-23.4-24.3
		c-1.3,0-71.7,0.2-118.6,0.2c-23.5,0-41.2,0-41.2-0.2c-48.4-2.8-90.6-28.5-116.1-66.3c-16.2-24-25.7-53.1-25.7-84.3
		c0-18.5,3.3-36.1,9.4-52.4c25.1,38.1,65.7,65.3,112.7,72.7c7.4,1.2,15,1.8,22.7,2c0,0,0,0,0,0c2.8,1.2,5.8,1.8,9.1,1.8h136.8
		c3,0,6,0.1,9,0.3C407.4,414.7,456,449.8,478.6,499.3z"/>
	
		<linearGradient id="SVGID_2_" gradientUnits="userSpaceOnUse" x1="136.6384" y1="198.134" x2="496.5382" y2="515.9201" gradientTransform="matrix(1 0 0 -1 0 942)">
		<stop  offset="5.810000e-02" style="stop-color:#200A0A"/>
		<stop  offset="0.1395" style="stop-color:#381711"/>
		<stop  offset="0.2396" style="stop-color:#4E2317"/>
		<stop  offset="0.3353" style="stop-color:#5B2A1B"/>
		<stop  offset="0.421" style="stop-color:#602D1C"/>
	</linearGradient>
	<path class="st2" d="M492.2,561.9c0,21.4-4.5,41.8-12.5,60.3c-23.2,53.3-76.4,90.5-138.2,90.5H114.8c-35.4,0-64.1-28.7-64.1-64.1
		c0-35.4,28.7-64.1,64.1-64.1c0,0,235.6,0,237.5,0c9.3,0,17.3-5,21-12.7c44-9.3,81.6-36,105.2-72.6c0.4,0.7,0.7,1.5,1,2.3
		C487.7,520,492.2,540.4,492.2,561.9z"/>
	
		<linearGradient id="SVGID_3_" gradientUnits="userSpaceOnUse" x1="69.5202" y1="619.275" x2="491.189" y2="619.275" gradientTransform="matrix(1 0 0 -1 0 942)">
		<stop  offset="0.1207" style="stop-color:#200A0A"/>
		<stop  offset="0.2448" style="stop-color:#3F1B13"/>
		<stop  offset="0.3536" style="stop-color:#562719"/>
		<stop  offset="0.706" style="stop-color:#58281A"/>
		<stop  offset="0.8327" style="stop-color:#5F2C1C"/>
		<stop  offset="0.8469" style="stop-color:#602D1C"/>
		<stop  offset="1" style="stop-color:#30130F"/>
	</linearGradient>
	<path class="st3" d="M542.8,364.4H205.6c-12.6,0-23.6,9.6-24.2,22.2c-0.5,10.2,5.5,19,14.2,22.7c-7.7-0.2-15.3-0.8-22.7-2
		c-47.1-7.4-87.6-34.5-112.7-72.7c4.2-11.3,9.7-22,16.3-31.8c27.1-40.2,73-66.6,125.1-66.6h341.2c35.4,0,64.1,28.7,64.1,64.1l0,0
		C606.9,335.7,578.2,364.4,542.8,364.4z"/>
	
		<linearGradient id="SVGID_4_" gradientUnits="userSpaceOnUse" x1="509.9281" y1="481.6033" x2="608.5986" y2="693.5344" gradientTransform="matrix(1 0 0 -1 0 942)">
		<stop  offset="5.810000e-02" style="stop-color:#200A0A"/>
		<stop  offset="0.2029" style="stop-color:#381711"/>
		<stop  offset="0.381" style="stop-color:#4E2317"/>
		<stop  offset="0.5513" style="stop-color:#5B2A1B"/>
		<stop  offset="0.7039" style="stop-color:#602D1C"/>
	</linearGradient>
	<path class="st4" d="M633.3,444.4v60.2c0,14.9,4.1,28.9,11.3,40.9c-3.7,0.3-7.5,0.4-11.3,0.4c-51.6,0-97.7-23.5-128.2-60.5V110.8
		c0-35.4,28.7-64.1,64.1-64.1c35.4,0,64.1,28.7,64.1,64.1v125.4C633.3,236.2,633.3,400.2,633.3,444.4z"/>
	
		<linearGradient id="SVGID_5_" gradientUnits="userSpaceOnUse" x1="633.29" y1="634.175" x2="870.3831" y2="634.175" gradientTransform="matrix(1 0 0 -1 0 942)">
		<stop  offset="5.810000e-02" style="stop-color:#200A0A"/>
		<stop  offset="0.2029" style="stop-color:#381711"/>
		<stop  offset="0.381" style="stop-color:#4E2317"/>
		<stop  offset="0.5513" style="stop-color:#5B2A1B"/>
		<stop  offset="0.7039" style="stop-color:#602D1C"/>
	</linearGradient>
	<path class="st5" d="M953.5,309.5c-48.1,5.8-89.9,32.1-116.3,70c-11-8-24.2-13.1-38.4-14.6c-2.8-0.3-5.5-0.5-8.3-0.5H633.3
		c0-34,0-128.2,0-128.2h148.4c42.7,0,82.8,11.2,117.4,30.9C919.3,278.6,937.6,292.9,953.5,309.5z"/>
	<path class="st6" d="M713.3,584.5c-29.2,0-54.8-15.7-68.7-39.1c-3.7,0.3-7.5,0.4-11.3,0.4c-51.6,0-97.7-23.5-128.2-60.5v163.3
		c0,35.4,28.7,64.1,64.1,64.1h193.3V584.5H713.3z"/>
	
		<linearGradient id="SVGID_6_" gradientUnits="userSpaceOnUse" x1="939.7023" y1="267.1544" x2="786.1864" y2="606.1553" gradientTransform="matrix(1 0 0 -1 0 942)">
		<stop  offset="0.5126" style="stop-color:#1B8190"/>
		<stop  offset="0.5992" style="stop-color:#177687"/>
		<stop  offset="0.7507" style="stop-color:#0C596F"/>
		<stop  offset="0.8715" style="stop-color:#013D58"/>
	</linearGradient>
	<path class="st7" d="M953.5,309.5c-48.1,5.8-89.9,32.1-116.3,70c20.1,14.5,33.2,38.2,33.2,64.9v60.2c0,26.7-13.1,50.3-33.2,64.9
		c-13.1,9.5-29.3,15.1-46.8,15.1h-27.9v128.2h12h14.3c40-1.2,77.5-12.2,110.1-30.7c20.3-11.5,38.8-25.9,54.8-42.6
		c41-42.8,66.2-100.9,66.2-164.9C1020,410.5,994.7,352.3,953.5,309.5z"/>
</g>
<g>
	<path class="st8" d="M160.8,795.6l-32.1,2c-0.4-18.5-7.7-27.7-21.6-27.7c-16,0-24,14.2-24,42.6c0,16.4,2.2,27.5,6.5,33.4
		s10.4,8.8,18.2,8.8c12.7,0,20.4-8.2,23.2-24.7l29.7,1.8c-1.9,15.7-7.7,27.5-17.5,35.7c-9.7,8.1-21.7,12.2-35.8,12.2
		c-17.3,0-31.4-6-42.2-17.9s-16.2-28.5-16.2-49.5c0-19.7,5.2-35.9,15.7-48.5s24.8-18.9,42.9-18.9
		C139.1,744.9,156.8,761.8,160.8,795.6z"/>
	<path class="st8" d="M217.1,778.9c14.7,0,26.2,4.8,34.5,14.5s12.4,21.7,12.4,36.2c0,14.3-4.3,26.2-12.9,35.8
		c-8.6,9.5-20,14.3-34.2,14.3c-13.8,0-24.8-4.7-33.1-14.2s-12.4-21.6-12.4-36.4c0-10.3,1.9-19,5.6-26.2c3.7-7.2,8.9-13,15.4-17.4
		C199,781.1,207.2,778.9,217.1,778.9z M217.9,797.6c-5.4,0-9.5,2.1-12.2,6.3c-2.7,4.2-4.1,12.5-4.1,25c0,11.4,1.3,19.6,3.9,24.6
		s6.7,7.5,12.2,7.5c4.8,0,8.8-2.1,11.8-6.4c3-4.2,4.5-12.3,4.5-24.3c0-12.7-1.3-21.3-4-25.9C227.4,799.8,223.3,797.6,217.9,797.6z"
		/>
	<path class="st8" d="M366.1,877.7h-28.5v-54.3c0-6.6-0.3-11.1-0.8-13.5c-0.5-2.4-1.8-4.5-3.7-6.2c-2-1.7-4.5-2.5-7.5-2.5
		c-10,0-15,7.4-15,22.2v54.3H282v-96.7h26.5v16.4c4.4-7.8,8.8-12.8,13-15s8.9-3.3,13.9-3.3c9.2,0,16.6,2.5,22.2,7.4
		s8.4,14.7,8.4,29.2V877.7z"/>
	<path class="st8" d="M462.1,804.3l-20.8,5.5c-2.4-8.8-8.7-13.1-18.9-13.1c-9.6,0-14.4,2.9-14.4,8.7c0,2.3,0.9,4.1,2.6,5.5
		s6.3,2.5,13.7,3.5c11,1.5,19.2,3.1,24.5,5.1s9.5,5.1,12.6,9.7c3.1,4.5,4.6,10.1,4.6,16.8c0,10-3.8,18.1-11.4,24.3
		s-18.1,9.4-31.8,9.4c-24.6,0-39.4-9.5-44.2-28.6l24-3.5c2,8.7,9.1,13,21.5,13c4.7,0,8.7-0.8,12-2.5c3.3-1.7,4.9-4,4.9-6.9
		c0-4.5-3.6-7.1-10.8-8c-19.5-2.4-32.4-6.2-38.6-11.2c-6.2-5.1-9.2-12.2-9.2-21.2c0-9.2,3.6-16.8,10.7-22.8c7.1-6,17.2-9,30.1-9
		c10.2,0,18.4,2,24.5,6C454.2,789,458.9,795.4,462.1,804.3z"/>
	<path class="st8" d="M565.2,780.9v96.7h-26.4v-16.5c-5,12.3-14.5,18.5-28.5,18.5c-7.3,0-12.9-1.4-16.8-4.1
		c-3.9-2.7-6.7-6.4-8.4-11.1s-2.5-11.5-2.5-20.3v-63.2h27.7v63.2c0,8.7,3.6,13,10.7,13c3.6,0,6.8-1,9.5-3.1s4.4-4.3,5.1-6.7
		c0.7-2.4,1.1-6.4,1.1-12.2v-54.3L565.2,780.9L565.2,780.9z"/>
	<path class="st8" d="M588.7,877.7V746.9h28.5v130.8L588.7,877.7L588.7,877.7z"/>
	<path class="st8" d="M672.9,803.1V844c0,5.1,0.8,8.5,2.3,10.2c1.5,1.7,5.1,2.6,10.8,2.6c2.6,0,5.6-0.1,9.1-0.4v21.2
		c-8.3,1.4-14.3,2.1-17.9,2.1c-11.9,0-20.3-2.3-25.3-6.8c-5-4.6-7.5-12.8-7.5-24.8v-45h-15.3v-22.2h17l2.3-28.5l24.6-1.9v30.5h20.8
		v22.2L672.9,803.1L672.9,803.1z"/>
	<path class="st8" d="M749,778.9c14.7,0,26.2,4.8,34.5,14.5s12.4,21.7,12.4,36.2c0,14.3-4.3,26.2-12.9,35.8s-20,14.3-34.2,14.3
		c-13.8,0-24.8-4.7-33.1-14.2s-12.4-21.6-12.4-36.4c0-10.3,1.9-19,5.6-26.2c3.7-7.2,8.8-13,15.4-17.4
		C730.8,781.1,739.1,778.9,749,778.9z M749.8,797.6c-5.4,0-9.5,2.1-12.2,6.3c-2.7,4.2-4.1,12.5-4.1,25c0,11.4,1.3,19.6,3.9,24.6
		s6.7,7.5,12.2,7.5c4.8,0,8.8-2.1,11.8-6.4c3-4.2,4.5-12.3,4.5-24.3c0-12.7-1.3-21.3-4-25.9C759.2,799.8,755.2,797.6,749.8,797.6z"
		/>
	<path class="st8" d="M841.6,877.7h-27.7v-96.7h26.2v18c4-13.4,11-20.1,20.9-20.1c1.4,0,3.1,0.1,5.2,0.3v28.2
		c-5.8,0-10.3,0.9-13.5,2.7c-3.2,1.8-5.9,5-7.9,9.6c-2,4.6-3.1,10.9-3.1,18.7V877.7z"/>
	<path class="st8" d="M918.3,732.5l7.3,16.1l-42.2,17.9l-4.8-10.7L918.3,732.5z M910.6,780.9v96.7H882v-96.7H910.6z"/>
	<path class="st8" d="M1018.4,877.7h-27.7c-0.9-3.8-1.3-8.9-1.3-15.1c-4.8,6.9-9.7,11.5-14.5,13.8s-10.3,3.4-16.4,3.4
		c-9,0-16.4-2.5-22-7.4s-8.4-11.5-8.4-19.8c0-6.1,1.6-11.7,4.9-16.8c3.2-5.1,8.5-9.1,15.7-12c7.2-2.9,20.3-5.1,39.4-6.5v-5.6
		c0-9.4-4.7-14.1-14-14.1c-10,0-15.6,4.7-16.7,14.1l-26.3-2.5c1.7-11,6.9-18.8,15.6-23.4s18.5-6.9,29.5-6.9c6.6,0,12.8,0.8,18.6,2.3
		c5.8,1.5,10.3,3.8,13.6,6.9c3.3,3.1,5.5,6.3,6.6,9.7c1.2,3.4,1.7,9.4,1.7,17.9v43.9C1016.7,868,1017.3,874,1018.4,877.7z
		 M988.2,831.3c-19.9,2-29.9,8-29.9,18.1c0,3.4,1,6.3,3.2,8.8c2.1,2.5,5.1,3.7,9,3.7c5,0,9.2-2.1,12.7-6.3c3.4-4.2,5.1-9.3,5.1-15.5
		L988.2,831.3L988.2,831.3z"/>
</g>
<rect x="759.3" y="584.5" class="st6" width="8" height="128.2"/>
</svg>
