<?xml version="1.0" encoding="utf-8"?>
<!-- Generator: Adobe Illustrator 25.1.0, SVG Export Plug-In . SVG Version: 6.00 Build 0)  -->
<svg version="1.1" id="svg2" xmlns="http://www.w3.org/2000/svg" xmlns:xlink="http://www.w3.org/1999/xlink" x="0px" y="0px"
	 viewBox="0 0 400 170.7" style="enable-background:new 0 0 400 170.7;" xml:space="preserve">
<style type="text/css">
	.st0{fill:#FFFFFF;}
	.st1{fill-rule:evenodd;clip-rule:evenodd;fill:#ED1C24;}
	.st2{fill-rule:evenodd;clip-rule:evenodd;fill:#918F90;}
	.st3{fill-rule:evenodd;clip-rule:evenodd;fill:#231F20;}
</style>
<path class="st0" d="M111.4,52.9c-3.7-3.8-7.8-6.3-12.6-7.7c0,1.3-0.5,2.5-1.4,3.5L86.2,60.3c-0.9,1-2.2,1.5-3.6,1.5
	c-1.4,0-2.6-0.5-3.6-1.5L69.7,51c-0.8,0.7-1.6,1.4-2.4,2.2c0,0-0.1,0.1-0.1,0.1c-0.7,0.7-1.3,1.3-1.9,2l9.4,9.5
	c1.9,2,1.9,5.1-0.1,7.1L63.5,83c-1.1,1.1-2.5,1.5-3.9,1.4c1.4,4.8,4,8.9,7.7,12.6c0,0,0.1,0.1,0.1,0.1c6.1,6.3,13.3,9.3,21.9,9.3
	c2.8,0,5,2.2,5,5V123c0,2.8-2.2,5-5,5c-14.5,0-27-5.2-37.4-15.6C41.6,101.9,36.4,89.3,36.4,75c0-3.8,0.4-7.5,1.1-11.1L22.3,48.7
	c-0.9-0.9-1.5-2.2-1.5-3.6c0-1.3,0.6-2.6,1.5-3.6l11.6-11.2c2-1.9,5.1-1.9,7,0.1l9,9.1c0.6-0.7,1.3-1.4,2-2.1
	c0.7-0.7,1.5-1.4,2.3-2.1l-9.3-9.3c-1.9-1.9-2-5.1-0.1-7L56,7.5C57,6.6,58.3,6,59.6,6c1.3,0,2.6,0.5,3.6,1.5l15.5,15.5
	c3.4-0.7,7-1,10.7-1c14.4,0,27,5.2,37.4,15.6C137.1,48,142.4,60.6,142.4,75c0,2.8-2.2,5-5,5h-11.9c-2.8,0-5-2.2-5-5
	C120.5,66.3,117.4,58.9,111.4,52.9z M360.8,108.6c-5.4,0-10.1,1.7-13.8,5c-3.1-3.2-7.5-5-13-5c-4.1,0-7.8,0.9-10.9,2.8
	c-0.9-0.7-2-1.1-3.2-1.1h-10.7c-2.8,0-5,2.2-5,5v43.4c0,2.8,2.2,5,5,5h11.4c2.8,0,5-2.2,5-5v-21.2c0-2.9,0.7-5.3,2.2-7.7
	c1.3-1.7,2.3-1.8,2.8-1.8c0.1,0.4,0.3,1.2,0.3,2.8v27.9c0,2.8,2.2,5,5,5h11.4c2.8,0,5-2.2,5-5v-21.2c0-3.1,0.7-5.5,2.2-7.2
	c0.1-0.1,0.2-0.2,0.3-0.3c1.3-1.8,2.2-1.9,2.6-1.9c0.1,0.4,0.3,1.2,0.3,2.8v27.9c0,2.8,2.2,5,5,5h11.4c2.8,0,5-2.2,5-5v-30.4
	C379.2,115.7,372.5,108.6,360.8,108.6z M299.7,111c1.3,0.9,2.2,2.4,2.2,4.2v43.4c0,2.8-2.2,5-5,5h-11.2c-2.3,0-4.3-1.6-4.8-3.7
	c-0.6,1.1-1.5,1.9-2.7,2.4c-4.5,1.6-9.1,2.5-13.7,2.5c-13.5,0-21.9-6.5-24.3-18.6v12.5c0,2.8-2.2,5-5,5h-11.2c-2.8,0-5-2.2-5-5
	v-16.5c-1,5.5-3.4,10.3-7.1,14.3c-5.1,5.5-11.8,8.3-19.9,8.3c-14.2,0-23-7.1-25.2-20.1v14c0,2.8-2.2,5-5,5h-11.4c-2.8,0-5-2.2-5-5
	v-21h-15.3v21c0,2.8-2.2,5-5,5h-11.9c-2.8,0-5-2.2-5-5V98.4c0-2.8,2.2-5,5-5h11.9c2.8,0,5,2.2,5,5v19.2h15.3V98.4c0-2.8,2.2-5,5-5
	h11.4c2.8,0,5,2.2,5,5V131c1-5.4,3.4-10.1,7.1-14.1c5.1-5.5,11.8-8.3,20-8.3c14.2,0,23,7.1,25.2,20.1V93.5c0-2.8,2.2-5,5-5h11.2
	c2.8,0,5,2.2,5,5v36.2c2.6-13.7,12.1-21.1,27.2-21.1c0.2,0,0.4,0,0.6,0l9,1.1c2,0.2,3.5,1.6,4.1,3.3c0.4-0.8,1-1.5,1.7-2
	c-2.4-2.1-3.7-5.2-3.7-9.2c0-7.7,4.5-12.2,12.1-12.2c7.5,0,12,4.6,12,12.2C303.4,105.8,302.1,109,299.7,111z"/>
<path id="red" class="st1" d="M115,49.4c-6.9-7.1-15.4-10.5-25.7-10.5c-9.9,0-18.5,3.6-25.5,10.8C56.7,56.6,53.3,65.1,53.3,75
	c0,10.1,3.4,18.6,10.5,25.5c7.1,7.2,15.6,10.9,25.5,10.9V123c-13.2,0-24.4-4.7-33.8-14.1C46.1,99.3,41.4,88.1,41.4,75
	c0-13.2,4.7-24.4,14.1-34c9.4-9.4,20.6-14.1,33.8-14.1s24.4,4.7,33.8,14.1c9.6,9.6,14.3,20.8,14.3,34h-11.9
	C125.5,65.1,122,56.4,115,49.4"/>
<path id="Holcim" class="st2" d="M150.4,122.6V98.4h11.4v60.2h-11.4v-26h-25.3v26h-11.9V98.4h11.9v24.2L150.4,122.6 M202.7,136.4
	c0,9.2-3.3,13.7-9.6,13.7c-6.7,0-10.1-4.5-10.1-13.7c0-8.9,3.4-13.4,10.1-13.4C199.5,123,202.7,127.5,202.7,136.4z M214.6,135.7
	c0-14.6-6.9-22.1-20.8-22.1c-6.7,0-12.1,2.2-16.3,6.7c-4.2,4.5-6.3,10.1-6.3,17.2c0,14.8,6.9,22.2,20.8,22.2
	c6.7,0,12.1-2.2,16.3-6.7C212.5,148.5,214.6,142.7,214.6,135.7 M224.1,158.6h11.2V93.5h-11.2V158.6z M244.5,138.2
	c0-16.5,7.6-24.6,23-24.6l9,1.1c-0.2,3.4-0.5,6.9-1.1,10.1l-8-1.5c-7.4,0-11,4.5-11,13.8c0,8.5,3.6,12.7,10.7,12.7
	c3.1-0.5,6-1.1,8.7-2l0.7,9.8c-4,1.4-8,2.2-11.9,2.2C251.2,159.7,244.5,152.5,244.5,138.2 M291.4,108.9c-4.7,0-7.1-2.4-7.1-7
	c0-4.9,2.4-7.2,7.1-7.2c4.7,0,7,2.4,7,7.2C298.4,106.5,296.1,108.9,291.4,108.9z M285.7,115.2H297v43.4h-11.2V115.2 M347.4,137.5
	v21.2H336v-27.9c0-5.2-1.8-7.8-5.3-7.8c-2.7,0-5.1,1.3-7,4c-2,3.1-3.1,6.5-3.1,10.5v21.2h-11.4v-43.4h10.7l-0.4,7.4
	c2.7-6,7.6-9,14.5-9c6.7,0,10.9,3.1,12.3,9c3.1-6,7.8-9,14.5-9c8.9,0,13.4,4.9,13.4,14.6v30.4h-11.4v-27.9c0-5.2-1.8-7.8-5.2-7.8
	c-2.5,0-4.7,1.3-6.7,4C348.5,129.7,347.4,133.3,347.4,137.5"/>
<path id="black" class="st3" d="M71.2,68.4L37.4,34L25.8,45.2L60,79.4L71.2,68.4 M93.8,45.2L59.6,11L48.4,22.6l34.2,34.2L93.8,45.2"
	/>
</svg>
