<?xml version="1.0" encoding="utf-8"?>
<!-- Generator: Adobe Illustrator 26.5.0, SVG Export Plug-In . SVG Version: 6.00 Build 0)  -->
<svg version="1.1" id="Layer_1" xmlns="http://www.w3.org/2000/svg" xmlns:xlink="http://www.w3.org/1999/xlink" x="0px" y="0px"
	 viewBox="0 0 1734.9 484.1" style="enable-background:new 0 0 1734.9 484.1;" xml:space="preserve">
<style type="text/css">
	.st0{fill:#FFFFFF;}
	.st1{fill:url(#SVGID_1_);}
</style>
<path class="st0" d="M-5199.2,4267.4c-0.4,2.6,2.2,2.3,3.4,3.4C-5199.2,4270.8-5199.2,4270.8-5199.2,4267.4z"/>
<path class="st0" d="M3932.3,2754.7c-6.8,0-13.3-0.6-19.9-2.8c-14.7-4.9-25-18.6-20.1-37.2c1-3.8,2.4-7.5,4.2-10.9
	c2.4-4.4,5.1-8.7,8.2-12.7c9.5-12.5,19.2-24.9,29.1-37.1c3.5-4.3,7.5-8.4,11.6-12.1c9.1-8.2,19.9-12.2,32.2-12.6
	c15-0.4,28.9,3.1,41.8,10.8c24.4,14.7,27,39.7,18.4,60c-2.6,6.3-6.6,11.7-11.1,16.8c-5.7,6.3-12.2,11.6-19.3,16.2
	C3987,2746.1,3954.6,2755.4,3932.3,2754.7z"/>
<linearGradient id="SVGID_1_" gradientUnits="userSpaceOnUse" x1="112.7475" y1="204.6114" x2="1622.1035" y2="204.6114">
	<stop  offset="1.385225e-07" style="stop-color:#957602"/>
	<stop  offset="5.664513e-02" style="stop-color:#9B7D0B"/>
	<stop  offset="0.1508" style="stop-color:#AD8F25"/>
	<stop  offset="0.2709" style="stop-color:#CAAD4E"/>
	<stop  offset="0.4109" style="stop-color:#F1D587"/>
	<stop  offset="0.4512" style="stop-color:#FDE299"/>
	<stop  offset="0.9944" style="stop-color:#B59110"/>
</linearGradient>
<path class="st1" d="M835.2,255.6c-4.7,35.7,17.7,41.5,48.1,40.1c35.8-2.2,71.4-10.8,104.1-25.5c10.9-5,21.4-10.7,31.2-17.6
	c13.4-12.9,25.1-28,42.3-36.4c7.8-4,16.8-7.7,25.5-4.9c7.3,1.6,11.7,12.9,2.2,15c-2.2,0.5-4-0.8-5.5-2.2c-9.3-5.1-20.6,4-28.5,8.8
	c-10.3,7.6-19.8,16.9-25.9,28.3c-4.5,7.2-4.6,19.7,7.1,13.9c9.5-4.5,16.5-12.9,22.6-21.3c4.7-6.1,7.4-13.4,11.4-20
	c2.5-3.3,9-4.8,10.8-0.1c-2.3,41.6,14.6,60.5,57.1,53.8c36.2-3.6,69.6-19.1,99.6-38.8c17.1-2.8-10.2,27.1,23.7,35.1
	c46.2,7,95.4-6,135.1-30c5.2-2.8,8.9-7.4,12.6-12c9.1-10.1,19.4-18.6,31.3-25.3c8.2-4.3,17.9-8.5,27.1-5c4.4,1.5,8.7,6.7,6.2,11.3
	c-2.1,3.6-7.2,4.8-10.1,1.4c-11.6-6.7-30.6,9.6-39.1,17.3c-33.1,30.7-16.3,52.4,12.7,14.4c6.2-6.1,9.7-21.9,17.1-24.9
	c13.4-3.3,3.3,18.9,8.3,28.8c5.5,29.3,34.3,31.3,58.7,27.2c20.6-2.7,40.8-8.7,59.6-17.4c10.2-4.8,20-10.3,29.4-16.5
	c2.2-1.4,4.5-3.2,7.3-3.1c24.3,10-50.8,38.3-58.2,40.4c-34.9,10.6-94.7,24.1-107.5-23.2c-2-8-5.4-4-8.8,0.4
	c-10.1,14.4-44.4,36-49.3,6.8c-0.9-6.1-6.9-1.6-10.3-0.3c-8.7,4.1-17.6,7.6-26.7,10.7c-18.9,6.2-38.5,10.6-58.4,12.3
	c-19.5,1.2-42.9,3-58.7-10.7c-6.8-4.3-6.6-17.9-11.6-17.2c-12.8,6-25.2,13.2-38.7,17.9c-37.2,12.8-104.3,31.1-117.8-21.4
	c-3-9.2-10.2,5.9-13.9,8.1c-9.6,9.8-29.2,23.1-40.8,9.4c-5.7-12.2-0.8-14.4-15.4-6.8c-37.4,18.7-78.9,29.9-120.8,31.5
	c-33.7,1.2-61.3-7.7-57.2-47c0.1-8.4,3.6-27.3-10.1-24.6c-18.3,5.5-33.3,18.4-47.6,30.5c-13.8,13.7-55.7,49.4-53.8,6.9
	c-0.6-3.6-4.5-1.4-6.4-0.4c-14.1,7.7-28.8,14.3-43.7,20.3c-40.6,16.2-83.4,26.4-126.5,33.3c-11.5,0.5-0.3,23.5-13.7,20.6
	c-7.2-3-6-15.3-14-16.7c-15.8,1.3-31.6,3.4-47.4,4.2c-40.9,2.4-82.2,4.5-123-0.3c-13.8-1.7-27.6-4.3-41-8.3
	c-3.1-0.9-6.3-2.1-9.6-1.4c-35.4,6.6-71.8,12.8-107.9,9c-58.9-5.5-84.3-69-50.8-116.1c5.6-7,12.3-12.9,19.9-17.6
	c8.9-5.4,19.5-8.1,27.4-15.2c19.7-24.8,15.9,5.9,16.2,19.9c-0.2,27.3-14.9,70-48.6,65.1c-5.5-6.3,2.5-8.5,8.4-9.3
	c6-1.7,11-4.9,15.3-9.4c10.7-11.8,14.2-28.4,15.1-43.9c3.3-23.8-8.9-6-20.6-3.2c-28.1,13.9-42.9,50.2-32.5,79.8
	c20.7,51,86.3,39.8,130.1,33.7c15.7-1.8,3.4-7-2.1-11.9c-29.5-22.4-35.1-73.2-3.5-96.2c42-29.6,99.5-20.7,143.2,0.7
	c11.7,5.6,23,11.9,33.8,19.1c5.6,3.6,11,7.6,16.5,11.5c3.4,2.6,6.7-0.1,9.5-2.1c46.3-32.9,85.4-76,112.7-125.9
	c6-11.1,11.7-22.3,16.5-34c3.1-5.6,3.5-14.4,9.9-17.2c9.9-2.5,7.3,9,4.3,14.3c-5.4,12.4-10.4,25-15.3,37.6
	c-6.1,15.5-11.9,31.1-17.4,46.8C549.7,209.7,536,260.9,532,312.7c0.7,6,30.5-3.4,36-3.5c37.1-7.6,73.8-18.3,108.2-34.3
	c14.7-6.6,28.7-14.6,42.2-23.4c4.5-4.4,12.1-2.6,11.7,4.4c-3.4,11.4-15,35.9,7.5,18.7c17.7-13.9,33.2-30.5,53.1-41.5
	C817,216.8,838.8,219.8,835.2,255.6z M319.5,203c-44.5-1.6-94.1,24.9-70.2,75.4c7.8,15.3,22.8,25.6,38.4,31.9
	c10.8,1.6,21.7-4.6,32.3-6.6c39.1-11.4,76.9-27.7,111.7-49c11-5.2-3.1-10.7-7.7-14.5c-13.1-8.7-26.9-16.3-41.4-22.6
	C362.7,209.2,341.3,202.8,319.5,203z M412,325.2C412,325.2,412,325.2,412,325.2c21-0.3,42-1.6,62.9-3.1c4.4-1.5,30.3,0.7,25.6-6.8
	c-9.6-14.8-21.3-28.2-33.9-40.5c-4.7-4.7-9.6-9.2-14.6-13.4c-3.2-3.3-7.2-1-10.3,1.2c-31.2,19.7-64.9,35.2-99.8,47
	c-3.4,2.2-25.2,5.5-22.1,9.6C349.5,327.2,381.4,325.4,412,325.2z M461.1,252c7.9,10,19.2,17.9,27.3,28
	c40.3,47.7,25.4,47.8,36.4-11.6c5.2-32,13.5-63.4,23.7-94.2c1.3-3.6,2.9-11.2-2.7-4.8c-16.8,20.8-34.9,40.4-55.3,57.7
	c-8.1,6.9-16.5,13.5-25.2,19.8C463.5,248.2,461,249.2,461.1,252z M1246.9,192.1c0-4.9-4.1-9-9.8-9c-4.3,0-7.6,6.5-7.6,11.5
	c0,4.9-3.8,10,1.9,10S1246.9,197,1246.9,192.1z"/>
<g>
	<path d="M604.3,410.2l-1-5.6c0-0.2-0.1-0.3-0.3-0.3h-7.7c-0.2,0-0.3,0.1-0.3,0.3l-1,5.6c0,0.4-0.3,0.6-0.7,0.6h-4.8
		c-0.5,0-0.7-0.2-0.6-0.7l7.8-35.8c0.1-0.4,0.3-0.6,0.7-0.6h5.6c0.4,0,0.6,0.2,0.7,0.6l7.8,35.8v0.2c0,0.3-0.2,0.5-0.6,0.5H605
		C604.6,410.8,604.3,410.6,604.3,410.2z M596.1,399.5h5.9c0.2,0,0.3-0.1,0.3-0.3l-3.1-16.7c0-0.1-0.1-0.2-0.2-0.2
		c-0.1,0-0.1,0.1-0.2,0.2l-3,16.7C595.8,399.4,595.9,399.5,596.1,399.5z"/>
	<path d="M662.9,408.5c-1.8-1.8-2.7-4.2-2.7-7.2v-18c0-3,0.9-5.4,2.7-7.2c1.8-1.8,4.2-2.7,7.2-2.7c3,0,5.5,0.9,7.3,2.7
		c1.8,1.8,2.8,4.2,2.8,7.2v0.6c0,0.2-0.1,0.3-0.2,0.5c-0.1,0.1-0.3,0.2-0.4,0.2l-4.9,0.2c-0.4,0-0.6-0.2-0.6-0.6v-1.3
		c0-1.2-0.4-2.2-1.1-3c-0.7-0.8-1.6-1.2-2.8-1.2c-1.1,0-2,0.4-2.8,1.2c-0.7,0.8-1.1,1.8-1.1,3v18.9c0,1.2,0.4,2.2,1.1,3
		c0.7,0.8,1.6,1.2,2.8,1.2c1.2,0,2.1-0.4,2.8-1.2c0.7-0.8,1.1-1.8,1.1-3v-1.3c0-0.2,0.1-0.3,0.2-0.5c0.1-0.1,0.3-0.2,0.4-0.2
		l4.9,0.2c0.2,0,0.3,0.1,0.4,0.2c0.1,0.1,0.2,0.3,0.2,0.4v0.6c0,3-0.9,5.4-2.8,7.2c-1.8,1.8-4.3,2.7-7.3,2.7
		C667.2,411.2,664.8,410.3,662.9,408.5z"/>
	<path d="M734.7,408.5c-1.8-1.8-2.7-4.2-2.7-7.2v-18c0-3,0.9-5.4,2.7-7.2c1.8-1.8,4.2-2.7,7.2-2.7c3,0,5.5,0.9,7.3,2.7
		c1.8,1.8,2.8,4.2,2.8,7.2v0.6c0,0.2-0.1,0.3-0.2,0.5c-0.1,0.1-0.3,0.2-0.4,0.2l-4.9,0.2c-0.4,0-0.6-0.2-0.6-0.6v-1.3
		c0-1.2-0.4-2.2-1.1-3c-0.7-0.8-1.6-1.2-2.8-1.2c-1.1,0-2,0.4-2.8,1.2c-0.7,0.8-1.1,1.8-1.1,3v18.9c0,1.2,0.4,2.2,1.1,3
		c0.7,0.8,1.6,1.2,2.8,1.2c1.2,0,2.1-0.4,2.8-1.2c0.7-0.8,1.1-1.8,1.1-3v-1.3c0-0.2,0.1-0.3,0.2-0.5c0.1-0.1,0.3-0.2,0.4-0.2
		l4.9,0.2c0.2,0,0.3,0.1,0.4,0.2c0.1,0.1,0.2,0.3,0.2,0.4v0.6c0,3-0.9,5.4-2.8,7.2c-1.8,1.8-4.3,2.7-7.3,2.7
		C739,411.2,736.6,410.3,734.7,408.5z"/>
	<path d="M822.7,378.8c-0.1,0.1-0.3,0.2-0.4,0.2h-11.4c-0.2,0-0.3,0.1-0.3,0.3v10c0,0.2,0.1,0.3,0.3,0.3h6.8c0.2,0,0.3,0.1,0.4,0.2
		c0.1,0.1,0.2,0.3,0.2,0.5v4.1c0,0.2-0.1,0.3-0.2,0.5c-0.1,0.1-0.3,0.2-0.4,0.2h-6.8c-0.2,0-0.3,0.1-0.3,0.3v10.1
		c0,0.2,0.1,0.3,0.3,0.3h11.4c0.2,0,0.3,0.1,0.4,0.2c0.1,0.1,0.2,0.3,0.2,0.4v4c0,0.2-0.1,0.3-0.2,0.4c-0.1,0.1-0.3,0.2-0.4,0.2
		h-17.2c-0.2,0-0.3-0.1-0.4-0.2c-0.1-0.1-0.2-0.3-0.2-0.4v-35.8c0-0.2,0.1-0.3,0.2-0.4c0.1-0.1,0.3-0.2,0.4-0.2h17.2
		c0.2,0,0.3,0.1,0.4,0.2c0.1,0.1,0.2,0.3,0.2,0.4v4C822.9,378.5,822.9,378.7,822.7,378.8z"/>
	<path d="M876.7,408.5c-1.8-1.8-2.7-4.1-2.7-6.9v-1.4c0-0.2,0.1-0.3,0.2-0.5c0.1-0.1,0.3-0.2,0.4-0.2h4.8c0.2,0,0.3,0.1,0.4,0.2
		c0.1,0.1,0.2,0.3,0.2,0.5v1.1c0,1.4,0.3,2.5,1,3.3s1.6,1.3,2.7,1.3c1.1,0,2-0.4,2.7-1.2c0.7-0.8,1.1-1.8,1.1-3.1
		c0-0.9-0.2-1.7-0.6-2.4c-0.4-0.7-0.9-1.3-1.6-1.9c-0.7-0.6-1.8-1.5-3.4-2.6c-1.8-1.3-3.2-2.4-4.3-3.4c-1.1-1-2-2.2-2.7-3.6
		c-0.7-1.4-1.1-3-1.1-4.8c0-2.9,0.9-5.3,2.6-7c1.8-1.7,4.1-2.6,7-2.6c2.9,0,5.3,0.9,7.1,2.7c1.8,1.8,2.7,4.2,2.7,7.2v1.3
		c0,0.2-0.1,0.3-0.2,0.5c-0.1,0.1-0.3,0.2-0.4,0.2h-4.8c-0.2,0-0.3-0.1-0.5-0.2c-0.1-0.1-0.2-0.3-0.2-0.5v-1.4c0-1.4-0.3-2.5-1-3.3
		c-0.7-0.8-1.6-1.2-2.7-1.2c-1.1,0-1.9,0.4-2.6,1.1c-0.7,0.8-1,1.8-1,3.1c0,1.3,0.4,2.3,1.1,3.2c0.7,0.9,2.1,2.1,4.3,3.7
		c2.2,1.6,3.8,2.9,4.9,3.9c1.1,1,1.9,2.1,2.5,3.3c0.6,1.2,0.9,2.6,0.9,4.3c0,3-0.9,5.4-2.7,7.2c-1.8,1.8-4.2,2.7-7.1,2.7
		C880.9,411.2,878.5,410.3,876.7,408.5z"/>
	<path d="M947.3,408.5c-1.8-1.8-2.7-4.1-2.7-6.9v-1.4c0-0.2,0.1-0.3,0.2-0.5c0.1-0.1,0.3-0.2,0.4-0.2h4.8c0.2,0,0.3,0.1,0.4,0.2
		c0.1,0.1,0.2,0.3,0.2,0.5v1.1c0,1.4,0.3,2.5,1,3.3s1.6,1.3,2.7,1.3c1.1,0,2-0.4,2.7-1.2c0.7-0.8,1.1-1.8,1.1-3.1
		c0-0.9-0.2-1.7-0.6-2.4c-0.4-0.7-0.9-1.3-1.6-1.9c-0.7-0.6-1.8-1.5-3.4-2.6c-1.8-1.3-3.2-2.4-4.3-3.4c-1.1-1-2-2.2-2.7-3.6
		c-0.7-1.4-1.1-3-1.1-4.8c0-2.9,0.9-5.3,2.6-7c1.8-1.7,4.1-2.6,7-2.6c2.9,0,5.3,0.9,7.1,2.7c1.8,1.8,2.7,4.2,2.7,7.2v1.3
		c0,0.2-0.1,0.3-0.2,0.5c-0.1,0.1-0.3,0.2-0.5,0.2h-4.8c-0.2,0-0.3-0.1-0.5-0.2c-0.1-0.1-0.2-0.3-0.2-0.5v-1.4c0-1.4-0.3-2.5-1-3.3
		c-0.7-0.8-1.6-1.2-2.7-1.2c-1.1,0-1.9,0.4-2.6,1.1c-0.7,0.8-1,1.8-1,3.1c0,1.3,0.4,2.3,1.1,3.2c0.7,0.9,2.1,2.1,4.3,3.7
		c2.2,1.6,3.8,2.9,4.9,3.9c1.1,1,1.9,2.1,2.5,3.3c0.6,1.2,0.9,2.6,0.9,4.3c0,3-0.9,5.4-2.7,7.2c-1.8,1.8-4.2,2.7-7.1,2.7
		C951.5,411.2,949.1,410.3,947.3,408.5z"/>
	<path d="M1018.4,408.4c-1.9-1.8-2.8-4.3-2.8-7.3v-17.8c0-3,0.9-5.5,2.8-7.3c1.9-1.8,4.3-2.8,7.3-2.8c3,0,5.5,0.9,7.4,2.8
		c1.9,1.8,2.8,4.3,2.8,7.3v17.8c0,3-0.9,5.5-2.8,7.3c-1.9,1.8-4.3,2.8-7.4,2.8C1022.7,411.2,1020.3,410.3,1018.4,408.4z
		 M1028.6,404.6c0.7-0.8,1.1-1.9,1.1-3.3v-18.3c0-1.3-0.4-2.4-1.1-3.3c-0.7-0.8-1.7-1.2-2.9-1.2s-2.2,0.4-2.9,1.2
		c-0.7,0.8-1.1,1.9-1.1,3.3v18.3c0,1.3,0.4,2.4,1.1,3.3c0.7,0.8,1.7,1.2,2.9,1.2S1027.9,405.5,1028.6,404.6z"/>
	<path d="M1102.6,410.2l-4.5-15.2c-0.1-0.1-0.2-0.2-0.3-0.2h-2.8c-0.2,0-0.3,0.1-0.3,0.3v15c0,0.2-0.1,0.3-0.2,0.4
		c-0.1,0.1-0.3,0.2-0.4,0.2h-4.9c-0.2,0-0.3-0.1-0.5-0.2c-0.1-0.1-0.2-0.3-0.2-0.4v-35.8c0-0.2,0.1-0.3,0.2-0.4
		c0.1-0.1,0.3-0.2,0.5-0.2h9.9c1.9,0,3.5,0.5,4.9,1.3s2.5,2.2,3.3,3.8c0.8,1.6,1.2,3.5,1.2,5.6c0,2.2-0.4,4.1-1.3,5.7
		c-0.8,1.6-2,2.8-3.5,3.6c-0.1,0-0.2,0.1-0.2,0.3l5.2,15.9c0,0.1,0.1,0.2,0.1,0.3c0,0.3-0.2,0.5-0.6,0.5h-5.1
		C1102.9,410.8,1102.7,410.6,1102.6,410.2z M1094.7,379.3v10.5c0,0.2,0.1,0.3,0.3,0.3h3.2c1.3,0,2.3-0.5,3.1-1.5
		c0.8-1,1.2-2.3,1.2-4c0-1.7-0.4-3-1.2-4c-0.8-1-1.8-1.5-3.1-1.5h-3.2C1094.8,379,1094.7,379.1,1094.7,379.3z"/>
	<path d="M1160.8,410.6c-0.1-0.1-0.2-0.3-0.2-0.4v-35.8c0-0.2,0.1-0.3,0.2-0.4c0.1-0.1,0.3-0.2,0.5-0.2h4.9c0.2,0,0.3,0.1,0.4,0.2
		c0.1,0.1,0.2,0.3,0.2,0.4v35.8c0,0.2-0.1,0.3-0.2,0.4c-0.1,0.1-0.3,0.2-0.4,0.2h-4.9C1161.1,410.8,1160.9,410.7,1160.8,410.6z"/>
	<path d="M1238.4,378.8c-0.1,0.1-0.3,0.2-0.4,0.2h-11.4c-0.2,0-0.3,0.1-0.3,0.3v10c0,0.2,0.1,0.3,0.3,0.3h6.8c0.2,0,0.3,0.1,0.4,0.2
		c0.1,0.1,0.2,0.3,0.2,0.5v4.1c0,0.2-0.1,0.3-0.2,0.5c-0.1,0.1-0.3,0.2-0.4,0.2h-6.8c-0.2,0-0.3,0.1-0.3,0.3v10.1
		c0,0.2,0.1,0.3,0.3,0.3h11.4c0.2,0,0.3,0.1,0.4,0.2c0.1,0.1,0.2,0.3,0.2,0.4v4c0,0.2-0.1,0.3-0.2,0.4c-0.1,0.1-0.3,0.2-0.4,0.2
		h-17.2c-0.2,0-0.3-0.1-0.5-0.2c-0.1-0.1-0.2-0.3-0.2-0.4v-35.8c0-0.2,0.1-0.3,0.2-0.4c0.1-0.1,0.3-0.2,0.5-0.2h17.2
		c0.2,0,0.3,0.1,0.4,0.2c0.1,0.1,0.2,0.3,0.2,0.4v4C1238.5,378.5,1238.5,378.7,1238.4,378.8z"/>
	<path d="M1292.3,408.5c-1.8-1.8-2.7-4.1-2.7-6.9v-1.4c0-0.2,0.1-0.3,0.2-0.5c0.1-0.1,0.3-0.2,0.4-0.2h4.8c0.2,0,0.3,0.1,0.4,0.2
		c0.1,0.1,0.2,0.3,0.2,0.5v1.1c0,1.4,0.3,2.5,1,3.3c0.7,0.8,1.6,1.3,2.7,1.3c1.1,0,2-0.4,2.7-1.2c0.7-0.8,1.1-1.8,1.1-3.1
		c0-0.9-0.2-1.7-0.6-2.4c-0.4-0.7-0.9-1.3-1.6-1.9c-0.7-0.6-1.8-1.5-3.4-2.6c-1.8-1.3-3.2-2.4-4.3-3.4c-1.1-1-2-2.2-2.7-3.6
		c-0.7-1.4-1.1-3-1.1-4.8c0-2.9,0.9-5.3,2.6-7c1.8-1.7,4.1-2.6,7-2.6c2.9,0,5.3,0.9,7.1,2.7c1.8,1.8,2.7,4.2,2.7,7.2v1.3
		c0,0.2-0.1,0.3-0.2,0.5c-0.1,0.1-0.3,0.2-0.5,0.2h-4.8c-0.2,0-0.3-0.1-0.5-0.2c-0.1-0.1-0.2-0.3-0.2-0.5v-1.4c0-1.4-0.3-2.5-1-3.3
		c-0.7-0.8-1.6-1.2-2.7-1.2c-1.1,0-1.9,0.4-2.6,1.1c-0.7,0.8-1,1.8-1,3.1c0,1.3,0.4,2.3,1.1,3.2c0.7,0.9,2.1,2.1,4.3,3.7
		c2.2,1.6,3.8,2.9,4.9,3.9c1.1,1,1.9,2.1,2.5,3.3c0.6,1.2,0.9,2.6,0.9,4.3c0,3-0.9,5.4-2.7,7.2c-1.8,1.8-4.2,2.7-7.1,2.7
		C1296.5,411.2,1294.1,410.3,1292.3,408.5z"/>
</g>
</svg>
