<?xml version="1.0" encoding="utf-8"?>
<!-- Generator: Adobe Illustrator 28.4.1, SVG Export Plug-In . SVG Version: 6.00 Build 0)  -->
<svg version="1.1" id="Layer_1" xmlns="http://www.w3.org/2000/svg" xmlns:xlink="http://www.w3.org/1999/xlink" x="0px" y="0px"
	 viewBox="0 0 116.2 116.2" style="enable-background:new 0 0 116.2 116.2;" xml:space="preserve">
<path id="qr-path_00000026145060063784153300000014637997481873826209_" d="M11.3,11.3h2.8v2.8h-2.8V11.3z M14.2,11.3H17v2.8h-2.8
	V11.3z M17,11.3h2.8v2.8H17V11.3z M19.8,11.3h2.8v2.8h-2.8V11.3z M22.7,11.3h2.8v2.8h-2.8V11.3z M25.5,11.3h2.8v2.8h-2.8V11.3z
	 M28.3,11.3h2.8v2.8h-2.8V11.3z M36.9,11.3h2.8v2.8h-2.8V11.3z M42.5,11.3h2.8v2.8h-2.8V11.3z M45.4,11.3h2.8v2.8h-2.8V11.3z
	 M53.9,11.3h2.8v2.8h-2.8V11.3z M56.7,11.3h2.8v2.8h-2.8V11.3z M62.4,11.3h2.8v2.8h-2.8V11.3z M65.2,11.3H68v2.8h-2.8V11.3z
	 M68,11.3h2.8v2.8H68V11.3z M70.9,11.3h2.8v2.8h-2.8V11.3z M76.5,11.3h2.8v2.8h-2.8V11.3z M79.4,11.3h2.8v2.8h-2.8V11.3z M85,11.3
	h2.8v2.8H85V11.3z M87.9,11.3h2.8v2.8h-2.8V11.3z M90.7,11.3h2.8v2.8h-2.8V11.3z M93.5,11.3h2.8v2.8h-2.8V11.3z M96.4,11.3h2.8v2.8
	h-2.8V11.3z M99.2,11.3h2.8v2.8h-2.8V11.3z M102,11.3h2.8v2.8H102V11.3z M11.3,14.2h2.8V17h-2.8V14.2z M28.3,14.2h2.8V17h-2.8V14.2z
	 M53.9,14.2h2.8V17h-2.8V14.2z M56.7,14.2h2.8V17h-2.8V14.2z M62.4,14.2h2.8V17h-2.8V14.2z M68,14.2h2.8V17H68V14.2z M70.9,14.2h2.8
	V17h-2.8V14.2z M73.7,14.2h2.8V17h-2.8V14.2z M79.4,14.2h2.8V17h-2.8V14.2z M85,14.2h2.8V17H85V14.2z M102,14.2h2.8V17H102V14.2z
	 M11.3,17h2.8v2.8h-2.8V17z M17,17h2.8v2.8H17V17z M19.8,17h2.8v2.8h-2.8V17z M22.7,17h2.8v2.8h-2.8V17z M28.3,17h2.8v2.8h-2.8V17z
	 M34,17h2.8v2.8H34V17z M39.7,17h2.8v2.8h-2.8V17z M45.4,17h2.8v2.8h-2.8V17z M51,17h2.8v2.8H51V17z M53.9,17h2.8v2.8h-2.8V17z
	 M70.9,17h2.8v2.8h-2.8V17z M76.5,17h2.8v2.8h-2.8V17z M79.4,17h2.8v2.8h-2.8V17z M85,17h2.8v2.8H85V17z M90.7,17h2.8v2.8h-2.8V17z
	 M93.5,17h2.8v2.8h-2.8V17z M96.4,17h2.8v2.8h-2.8V17z M102,17h2.8v2.8H102V17z M11.3,19.8h2.8v2.8h-2.8V19.8z M17,19.8h2.8v2.8H17
	V19.8z M19.8,19.8h2.8v2.8h-2.8V19.8z M22.7,19.8h2.8v2.8h-2.8V19.8z M28.3,19.8h2.8v2.8h-2.8V19.8z M34,19.8h2.8v2.8H34V19.8z
	 M42.5,19.8h2.8v2.8h-2.8V19.8z M45.4,19.8h2.8v2.8h-2.8V19.8z M53.9,19.8h2.8v2.8h-2.8V19.8z M62.4,19.8h2.8v2.8h-2.8V19.8z
	 M65.2,19.8H68v2.8h-2.8V19.8z M73.7,19.8h2.8v2.8h-2.8V19.8z M85,19.8h2.8v2.8H85V19.8z M90.7,19.8h2.8v2.8h-2.8V19.8z M93.5,19.8
	h2.8v2.8h-2.8V19.8z M96.4,19.8h2.8v2.8h-2.8V19.8z M102,19.8h2.8v2.8H102V19.8z M11.3,22.7h2.8v2.8h-2.8V22.7z M17,22.7h2.8v2.8H17
	V22.7z M19.8,22.7h2.8v2.8h-2.8V22.7z M22.7,22.7h2.8v2.8h-2.8V22.7z M28.3,22.7h2.8v2.8h-2.8V22.7z M34,22.7h2.8v2.8H34V22.7z
	 M36.9,22.7h2.8v2.8h-2.8V22.7z M39.7,22.7h2.8v2.8h-2.8V22.7z M42.5,22.7h2.8v2.8h-2.8V22.7z M45.4,22.7h2.8v2.8h-2.8V22.7z
	 M48.2,22.7H51v2.8h-2.8V22.7z M51,22.7h2.8v2.8H51V22.7z M53.9,22.7h2.8v2.8h-2.8V22.7z M56.7,22.7h2.8v2.8h-2.8V22.7z M68,22.7
	h2.8v2.8H68V22.7z M76.5,22.7h2.8v2.8h-2.8V22.7z M85,22.7h2.8v2.8H85V22.7z M90.7,22.7h2.8v2.8h-2.8V22.7z M93.5,22.7h2.8v2.8h-2.8
	V22.7z M96.4,22.7h2.8v2.8h-2.8V22.7z M102,22.7h2.8v2.8H102V22.7z M11.3,25.5h2.8v2.8h-2.8V25.5z M28.3,25.5h2.8v2.8h-2.8V25.5z
	 M34,25.5h2.8v2.8H34V25.5z M42.5,25.5h2.8v2.8h-2.8V25.5z M65.2,25.5H68v2.8h-2.8V25.5z M70.9,25.5h2.8v2.8h-2.8V25.5z M73.7,25.5
	h2.8v2.8h-2.8V25.5z M79.4,25.5h2.8v2.8h-2.8V25.5z M85,25.5h2.8v2.8H85V25.5z M102,25.5h2.8v2.8H102V25.5z M11.3,28.3h2.8v2.8h-2.8
	V28.3z M14.2,28.3H17v2.8h-2.8V28.3z M17,28.3h2.8v2.8H17V28.3z M19.8,28.3h2.8v2.8h-2.8V28.3z M22.7,28.3h2.8v2.8h-2.8V28.3z
	 M25.5,28.3h2.8v2.8h-2.8V28.3z M28.3,28.3h2.8v2.8h-2.8V28.3z M34,28.3h2.8v2.8H34V28.3z M39.7,28.3h2.8v2.8h-2.8V28.3z M45.4,28.3
	h2.8v2.8h-2.8V28.3z M51,28.3h2.8v2.8H51V28.3z M56.7,28.3h2.8v2.8h-2.8V28.3z M62.4,28.3h2.8v2.8h-2.8V28.3z M68,28.3h2.8v2.8H68
	V28.3z M73.7,28.3h2.8v2.8h-2.8V28.3z M79.4,28.3h2.8v2.8h-2.8V28.3z M85,28.3h2.8v2.8H85V28.3z M87.9,28.3h2.8v2.8h-2.8V28.3z
	 M90.7,28.3h2.8v2.8h-2.8V28.3z M93.5,28.3h2.8v2.8h-2.8V28.3z M96.4,28.3h2.8v2.8h-2.8V28.3z M99.2,28.3h2.8v2.8h-2.8V28.3z
	 M102,28.3h2.8v2.8H102V28.3z M34,31.2h2.8V34H34V31.2z M36.9,31.2h2.8V34h-2.8V31.2z M39.7,31.2h2.8V34h-2.8V31.2z M42.5,31.2h2.8
	V34h-2.8V31.2z M45.4,31.2h2.8V34h-2.8V31.2z M51,31.2h2.8V34H51V31.2z M56.7,31.2h2.8V34h-2.8V31.2z M62.4,31.2h2.8V34h-2.8V31.2z
	 M65.2,31.2H68V34h-2.8V31.2z M68,31.2h2.8V34H68V31.2z M70.9,31.2h2.8V34h-2.8V31.2z M73.7,31.2h2.8V34h-2.8V31.2z M79.4,31.2h2.8
	V34h-2.8V31.2z M11.3,34h2.8v2.8h-2.8V34z M17,34h2.8v2.8H17V34z M19.8,34h2.8v2.8h-2.8V34z M22.7,34h2.8v2.8h-2.8V34z M25.5,34h2.8
	v2.8h-2.8V34z M28.3,34h2.8v2.8h-2.8V34z M36.9,34h2.8v2.8h-2.8V34z M42.5,34h2.8v2.8h-2.8V34z M45.4,34h2.8v2.8h-2.8V34z M51,34
	h2.8v2.8H51V34z M59.5,34h2.8v2.8h-2.8V34z M62.4,34h2.8v2.8h-2.8V34z M65.2,34H68v2.8h-2.8V34z M73.7,34h2.8v2.8h-2.8V34z M76.5,34
	h2.8v2.8h-2.8V34z M85,34h2.8v2.8H85V34z M87.9,34h2.8v2.8h-2.8V34z M90.7,34h2.8v2.8h-2.8V34z M93.5,34h2.8v2.8h-2.8V34z M96.4,34
	h2.8v2.8h-2.8V34z M11.3,36.9h2.8v2.8h-2.8V36.9z M19.8,36.9h2.8v2.8h-2.8V36.9z M22.7,36.9h2.8v2.8h-2.8V36.9z M25.5,36.9h2.8v2.8
	h-2.8V36.9z M31.2,36.9H34v2.8h-2.8V36.9z M34,36.9h2.8v2.8H34V36.9z M45.4,36.9h2.8v2.8h-2.8V36.9z M48.2,36.9H51v2.8h-2.8V36.9z
	 M53.9,36.9h2.8v2.8h-2.8V36.9z M56.7,36.9h2.8v2.8h-2.8V36.9z M59.5,36.9h2.8v2.8h-2.8V36.9z M62.4,36.9h2.8v2.8h-2.8V36.9z
	 M65.2,36.9H68v2.8h-2.8V36.9z M68,36.9h2.8v2.8H68V36.9z M76.5,36.9h2.8v2.8h-2.8V36.9z M85,36.9h2.8v2.8H85V36.9z M87.9,36.9h2.8
	v2.8h-2.8V36.9z M93.5,36.9h2.8v2.8h-2.8V36.9z M96.4,36.9h2.8v2.8h-2.8V36.9z M99.2,36.9h2.8v2.8h-2.8V36.9z M102,36.9h2.8v2.8H102
	V36.9z M11.3,39.7h2.8v2.8h-2.8V39.7z M14.2,39.7H17v2.8h-2.8V39.7z M17,39.7h2.8v2.8H17V39.7z M22.7,39.7h2.8v2.8h-2.8V39.7z
	 M25.5,39.7h2.8v2.8h-2.8V39.7z M28.3,39.7h2.8v2.8h-2.8V39.7z M39.7,39.7h2.8v2.8h-2.8V39.7z M42.5,39.7h2.8v2.8h-2.8V39.7z
	 M48.2,39.7H51v2.8h-2.8V39.7z M51,39.7h2.8v2.8H51V39.7z M53.9,39.7h2.8v2.8h-2.8V39.7z M56.7,39.7h2.8v2.8h-2.8V39.7z M59.5,39.7
	h2.8v2.8h-2.8V39.7z M68,39.7h2.8v2.8H68V39.7z M70.9,39.7h2.8v2.8h-2.8V39.7z M73.7,39.7h2.8v2.8h-2.8V39.7z M82.2,39.7H85v2.8
	h-2.8V39.7z M85,39.7h2.8v2.8H85V39.7z M90.7,39.7h2.8v2.8h-2.8V39.7z M96.4,39.7h2.8v2.8h-2.8V39.7z M99.2,39.7h2.8v2.8h-2.8V39.7z
	 M11.3,42.5h2.8v2.8h-2.8V42.5z M14.2,42.5H17v2.8h-2.8V42.5z M17,42.5h2.8v2.8H17V42.5z M31.2,42.5H34v2.8h-2.8V42.5z M36.9,42.5
	h2.8v2.8h-2.8V42.5z M39.7,42.5h2.8v2.8h-2.8V42.5z M42.5,42.5h2.8v2.8h-2.8V42.5z M48.2,42.5H51v2.8h-2.8V42.5z M53.9,42.5h2.8v2.8
	h-2.8V42.5z M59.5,42.5h2.8v2.8h-2.8V42.5z M62.4,42.5h2.8v2.8h-2.8V42.5z M68,42.5h2.8v2.8H68V42.5z M70.9,42.5h2.8v2.8h-2.8V42.5z
	 M73.7,42.5h2.8v2.8h-2.8V42.5z M85,42.5h2.8v2.8H85V42.5z M90.7,42.5h2.8v2.8h-2.8V42.5z M93.5,42.5h2.8v2.8h-2.8V42.5z M96.4,42.5
	h2.8v2.8h-2.8V42.5z M14.2,45.4H17v2.8h-2.8V45.4z M17,45.4h2.8v2.8H17V45.4z M22.7,45.4h2.8v2.8h-2.8V45.4z M28.3,45.4h2.8v2.8
	h-2.8V45.4z M34,45.4h2.8v2.8H34V45.4z M36.9,45.4h2.8v2.8h-2.8V45.4z M39.7,45.4h2.8v2.8h-2.8V45.4z M42.5,45.4h2.8v2.8h-2.8V45.4z
	 M51,45.4h2.8v2.8H51V45.4z M56.7,45.4h2.8v2.8h-2.8V45.4z M68,45.4h2.8v2.8H68V45.4z M73.7,45.4h2.8v2.8h-2.8V45.4z M79.4,45.4h2.8
	v2.8h-2.8V45.4z M82.2,45.4H85v2.8h-2.8V45.4z M87.9,45.4h2.8v2.8h-2.8V45.4z M90.7,45.4h2.8v2.8h-2.8V45.4z M93.5,45.4h2.8v2.8
	h-2.8V45.4z M99.2,45.4h2.8v2.8h-2.8V45.4z M102,45.4h2.8v2.8H102V45.4z M11.3,48.2h2.8V51h-2.8V48.2z M14.2,48.2H17V51h-2.8V48.2z
	 M17,48.2h2.8V51H17V48.2z M31.2,48.2H34V51h-2.8V48.2z M39.7,48.2h2.8V51h-2.8V48.2z M45.4,48.2h2.8V51h-2.8V48.2z M48.2,48.2H51
	V51h-2.8V48.2z M53.9,48.2h2.8V51h-2.8V48.2z M59.5,48.2h2.8V51h-2.8V48.2z M62.4,48.2h2.8V51h-2.8V48.2z M70.9,48.2h2.8V51h-2.8
	V48.2z M76.5,48.2h2.8V51h-2.8V48.2z M85,48.2h2.8V51H85V48.2z M93.5,48.2h2.8V51h-2.8V48.2z M96.4,48.2h2.8V51h-2.8V48.2z
	 M99.2,48.2h2.8V51h-2.8V48.2z M102,48.2h2.8V51H102V48.2z M14.2,51H17v2.8h-2.8V51z M17,51h2.8v2.8H17V51z M25.5,51h2.8v2.8h-2.8
	V51z M28.3,51h2.8v2.8h-2.8V51z M36.9,51h2.8v2.8h-2.8V51z M42.5,51h2.8v2.8h-2.8V51z M45.4,51h2.8v2.8h-2.8V51z M48.2,51H51v2.8
	h-2.8V51z M53.9,51h2.8v2.8h-2.8V51z M56.7,51h2.8v2.8h-2.8V51z M59.5,51h2.8v2.8h-2.8V51z M68,51h2.8v2.8H68V51z M70.9,51h2.8v2.8
	h-2.8V51z M79.4,51h2.8v2.8h-2.8V51z M82.2,51H85v2.8h-2.8V51z M85,51h2.8v2.8H85V51z M93.5,51h2.8v2.8h-2.8V51z M96.4,51h2.8v2.8
	h-2.8V51z M99.2,51h2.8v2.8h-2.8V51z M14.2,53.9H17v2.8h-2.8V53.9z M25.5,53.9h2.8v2.8h-2.8V53.9z M31.2,53.9H34v2.8h-2.8V53.9z
	 M36.9,53.9h2.8v2.8h-2.8V53.9z M45.4,53.9h2.8v2.8h-2.8V53.9z M48.2,53.9H51v2.8h-2.8V53.9z M51,53.9h2.8v2.8H51V53.9z M53.9,53.9
	h2.8v2.8h-2.8V53.9z M62.4,53.9h2.8v2.8h-2.8V53.9z M70.9,53.9h2.8v2.8h-2.8V53.9z M73.7,53.9h2.8v2.8h-2.8V53.9z M76.5,53.9h2.8
	v2.8h-2.8V53.9z M82.2,53.9H85v2.8h-2.8V53.9z M85,53.9h2.8v2.8H85V53.9z M87.9,53.9h2.8v2.8h-2.8V53.9z M90.7,53.9h2.8v2.8h-2.8
	V53.9z M93.5,53.9h2.8v2.8h-2.8V53.9z M96.4,53.9h2.8v2.8h-2.8V53.9z M11.3,56.7h2.8v2.8h-2.8V56.7z M25.5,56.7h2.8v2.8h-2.8V56.7z
	 M28.3,56.7h2.8v2.8h-2.8V56.7z M31.2,56.7H34v2.8h-2.8V56.7z M34,56.7h2.8v2.8H34V56.7z M39.7,56.7h2.8v2.8h-2.8V56.7z M42.5,56.7
	h2.8v2.8h-2.8V56.7z M48.2,56.7H51v2.8h-2.8V56.7z M53.9,56.7h2.8v2.8h-2.8V56.7z M59.5,56.7h2.8v2.8h-2.8V56.7z M73.7,56.7h2.8v2.8
	h-2.8V56.7z M76.5,56.7h2.8v2.8h-2.8V56.7z M79.4,56.7h2.8v2.8h-2.8V56.7z M82.2,56.7H85v2.8h-2.8V56.7z M87.9,56.7h2.8v2.8h-2.8
	V56.7z M90.7,56.7h2.8v2.8h-2.8V56.7z M102,56.7h2.8v2.8H102V56.7z M17,59.5h2.8v2.8H17V59.5z M25.5,59.5h2.8v2.8h-2.8V59.5z
	 M31.2,59.5H34v2.8h-2.8V59.5z M34,59.5h2.8v2.8H34V59.5z M36.9,59.5h2.8v2.8h-2.8V59.5z M42.5,59.5h2.8v2.8h-2.8V59.5z M48.2,59.5
	H51v2.8h-2.8V59.5z M51,59.5h2.8v2.8H51V59.5z M53.9,59.5h2.8v2.8h-2.8V59.5z M56.7,59.5h2.8v2.8h-2.8V59.5z M62.4,59.5h2.8v2.8
	h-2.8V59.5z M65.2,59.5H68v2.8h-2.8V59.5z M68,59.5h2.8v2.8H68V59.5z M76.5,59.5h2.8v2.8h-2.8V59.5z M85,59.5h2.8v2.8H85V59.5z
	 M87.9,59.5h2.8v2.8h-2.8V59.5z M93.5,59.5h2.8v2.8h-2.8V59.5z M96.4,59.5h2.8v2.8h-2.8V59.5z M17,62.4h2.8v2.8H17V62.4z M19.8,62.4
	h2.8v2.8h-2.8V62.4z M25.5,62.4h2.8v2.8h-2.8V62.4z M28.3,62.4h2.8v2.8h-2.8V62.4z M31.2,62.4H34v2.8h-2.8V62.4z M39.7,62.4h2.8v2.8
	h-2.8V62.4z M42.5,62.4h2.8v2.8h-2.8V62.4z M45.4,62.4h2.8v2.8h-2.8V62.4z M48.2,62.4H51v2.8h-2.8V62.4z M51,62.4h2.8v2.8H51V62.4z
	 M53.9,62.4h2.8v2.8h-2.8V62.4z M56.7,62.4h2.8v2.8h-2.8V62.4z M62.4,62.4h2.8v2.8h-2.8V62.4z M70.9,62.4h2.8v2.8h-2.8V62.4z
	 M73.7,62.4h2.8v2.8h-2.8V62.4z M79.4,62.4h2.8v2.8h-2.8V62.4z M82.2,62.4H85v2.8h-2.8V62.4z M87.9,62.4h2.8v2.8h-2.8V62.4z
	 M90.7,62.4h2.8v2.8h-2.8V62.4z M96.4,62.4h2.8v2.8h-2.8V62.4z M99.2,62.4h2.8v2.8h-2.8V62.4z M14.2,65.2H17V68h-2.8V65.2z
	 M22.7,65.2h2.8V68h-2.8V65.2z M31.2,65.2H34V68h-2.8V65.2z M34,65.2h2.8V68H34V65.2z M36.9,65.2h2.8V68h-2.8V65.2z M39.7,65.2h2.8
	V68h-2.8V65.2z M56.7,65.2h2.8V68h-2.8V65.2z M65.2,65.2H68V68h-2.8V65.2z M68,65.2h2.8V68H68V65.2z M70.9,65.2h2.8V68h-2.8V65.2z
	 M87.9,65.2h2.8V68h-2.8V65.2z M90.7,65.2h2.8V68h-2.8V65.2z M93.5,65.2h2.8V68h-2.8V65.2z M96.4,65.2h2.8V68h-2.8V65.2z M99.2,65.2
	h2.8V68h-2.8V65.2z M17,68h2.8v2.8H17V68z M19.8,68h2.8v2.8h-2.8V68z M22.7,68h2.8v2.8h-2.8V68z M28.3,68h2.8v2.8h-2.8V68z M34,68
	h2.8v2.8H34V68z M39.7,68h2.8v2.8h-2.8V68z M42.5,68h2.8v2.8h-2.8V68z M45.4,68h2.8v2.8h-2.8V68z M62.4,68h2.8v2.8h-2.8V68z
	 M70.9,68h2.8v2.8h-2.8V68z M79.4,68h2.8v2.8h-2.8V68z M82.2,68H85v2.8h-2.8V68z M87.9,68h2.8v2.8h-2.8V68z M90.7,68h2.8v2.8h-2.8
	V68z M93.5,68h2.8v2.8h-2.8V68z M99.2,68h2.8v2.8h-2.8V68z M102,68h2.8v2.8H102V68z M11.3,70.9h2.8v2.8h-2.8V70.9z M17,70.9h2.8v2.8
	H17V70.9z M19.8,70.9h2.8v2.8h-2.8V70.9z M22.7,70.9h2.8v2.8h-2.8V70.9z M25.5,70.9h2.8v2.8h-2.8V70.9z M39.7,70.9h2.8v2.8h-2.8
	V70.9z M42.5,70.9h2.8v2.8h-2.8V70.9z M45.4,70.9h2.8v2.8h-2.8V70.9z M53.9,70.9h2.8v2.8h-2.8V70.9z M56.7,70.9h2.8v2.8h-2.8V70.9z
	 M68,70.9h2.8v2.8H68V70.9z M70.9,70.9h2.8v2.8h-2.8V70.9z M76.5,70.9h2.8v2.8h-2.8V70.9z M79.4,70.9h2.8v2.8h-2.8V70.9z M85,70.9
	h2.8v2.8H85V70.9z M93.5,70.9h2.8v2.8h-2.8V70.9z M102,70.9h2.8v2.8H102V70.9z M11.3,73.7h2.8v2.8h-2.8V73.7z M17,73.7h2.8v2.8H17
	V73.7z M25.5,73.7h2.8v2.8h-2.8V73.7z M28.3,73.7h2.8v2.8h-2.8V73.7z M31.2,73.7H34v2.8h-2.8V73.7z M42.5,73.7h2.8v2.8h-2.8V73.7z
	 M45.4,73.7h2.8v2.8h-2.8V73.7z M48.2,73.7H51v2.8h-2.8V73.7z M59.5,73.7h2.8v2.8h-2.8V73.7z M62.4,73.7h2.8v2.8h-2.8V73.7z
	 M65.2,73.7H68v2.8h-2.8V73.7z M79.4,73.7h2.8v2.8h-2.8V73.7z M85,73.7h2.8v2.8H85V73.7z M90.7,73.7h2.8v2.8h-2.8V73.7z M93.5,73.7
	h2.8v2.8h-2.8V73.7z M96.4,73.7h2.8v2.8h-2.8V73.7z M99.2,73.7h2.8v2.8h-2.8V73.7z M11.3,76.5h2.8v2.8h-2.8V76.5z M22.7,76.5h2.8
	v2.8h-2.8V76.5z M25.5,76.5h2.8v2.8h-2.8V76.5z M36.9,76.5h2.8v2.8h-2.8V76.5z M39.7,76.5h2.8v2.8h-2.8V76.5z M48.2,76.5H51v2.8
	h-2.8V76.5z M56.7,76.5h2.8v2.8h-2.8V76.5z M65.2,76.5H68v2.8h-2.8V76.5z M68,76.5h2.8v2.8H68V76.5z M70.9,76.5h2.8v2.8h-2.8V76.5z
	 M73.7,76.5h2.8v2.8h-2.8V76.5z M79.4,76.5h2.8v2.8h-2.8V76.5z M82.2,76.5H85v2.8h-2.8V76.5z M90.7,76.5h2.8v2.8h-2.8V76.5z
	 M93.5,76.5h2.8v2.8h-2.8V76.5z M96.4,76.5h2.8v2.8h-2.8V76.5z M99.2,76.5h2.8v2.8h-2.8V76.5z M102,76.5h2.8v2.8H102V76.5z
	 M11.3,79.4h2.8v2.8h-2.8V79.4z M17,79.4h2.8v2.8H17V79.4z M19.8,79.4h2.8v2.8h-2.8V79.4z M22.7,79.4h2.8v2.8h-2.8V79.4z M28.3,79.4
	h2.8v2.8h-2.8V79.4z M34,79.4h2.8v2.8H34V79.4z M36.9,79.4h2.8v2.8h-2.8V79.4z M39.7,79.4h2.8v2.8h-2.8V79.4z M45.4,79.4h2.8v2.8
	h-2.8V79.4z M48.2,79.4H51v2.8h-2.8V79.4z M59.5,79.4h2.8v2.8h-2.8V79.4z M65.2,79.4H68v2.8h-2.8V79.4z M68,79.4h2.8v2.8H68V79.4z
	 M73.7,79.4h2.8v2.8h-2.8V79.4z M76.5,79.4h2.8v2.8h-2.8V79.4z M79.4,79.4h2.8v2.8h-2.8V79.4z M82.2,79.4H85v2.8h-2.8V79.4z
	 M85,79.4h2.8v2.8H85V79.4z M87.9,79.4h2.8v2.8h-2.8V79.4z M90.7,79.4h2.8v2.8h-2.8V79.4z M99.2,79.4h2.8v2.8h-2.8V79.4z M102,79.4
	h2.8v2.8H102V79.4z M34,82.2h2.8V85H34V82.2z M36.9,82.2h2.8V85h-2.8V82.2z M39.7,82.2h2.8V85h-2.8V82.2z M42.5,82.2h2.8V85h-2.8
	V82.2z M48.2,82.2H51V85h-2.8V82.2z M59.5,82.2h2.8V85h-2.8V82.2z M62.4,82.2h2.8V85h-2.8V82.2z M65.2,82.2H68V85h-2.8V82.2z
	 M68,82.2h2.8V85H68V82.2z M73.7,82.2h2.8V85h-2.8V82.2z M76.5,82.2h2.8V85h-2.8V82.2z M79.4,82.2h2.8V85h-2.8V82.2z M90.7,82.2h2.8
	V85h-2.8V82.2z M96.4,82.2h2.8V85h-2.8V82.2z M102,82.2h2.8V85H102V82.2z M11.3,85h2.8v2.8h-2.8V85z M14.2,85H17v2.8h-2.8V85z
	 M17,85h2.8v2.8H17V85z M19.8,85h2.8v2.8h-2.8V85z M22.7,85h2.8v2.8h-2.8V85z M25.5,85h2.8v2.8h-2.8V85z M28.3,85h2.8v2.8h-2.8V85z
	 M42.5,85h2.8v2.8h-2.8V85z M48.2,85H51v2.8h-2.8V85z M53.9,85h2.8v2.8h-2.8V85z M56.7,85h2.8v2.8h-2.8V85z M59.5,85h2.8v2.8h-2.8
	V85z M68,85h2.8v2.8H68V85z M73.7,85h2.8v2.8h-2.8V85z M76.5,85h2.8v2.8h-2.8V85z M79.4,85h2.8v2.8h-2.8V85z M85,85h2.8v2.8H85V85z
	 M90.7,85h2.8v2.8h-2.8V85z M96.4,85h2.8v2.8h-2.8V85z M11.3,87.9h2.8v2.8h-2.8V87.9z M28.3,87.9h2.8v2.8h-2.8V87.9z M34,87.9h2.8
	v2.8H34V87.9z M39.7,87.9h2.8v2.8h-2.8V87.9z M42.5,87.9h2.8v2.8h-2.8V87.9z M53.9,87.9h2.8v2.8h-2.8V87.9z M56.7,87.9h2.8v2.8h-2.8
	V87.9z M59.5,87.9h2.8v2.8h-2.8V87.9z M62.4,87.9h2.8v2.8h-2.8V87.9z M76.5,87.9h2.8v2.8h-2.8V87.9z M79.4,87.9h2.8v2.8h-2.8V87.9z
	 M90.7,87.9h2.8v2.8h-2.8V87.9z M93.5,87.9h2.8v2.8h-2.8V87.9z M96.4,87.9h2.8v2.8h-2.8V87.9z M11.3,90.7h2.8v2.8h-2.8V90.7z
	 M17,90.7h2.8v2.8H17V90.7z M19.8,90.7h2.8v2.8h-2.8V90.7z M22.7,90.7h2.8v2.8h-2.8V90.7z M28.3,90.7h2.8v2.8h-2.8V90.7z M34,90.7
	h2.8v2.8H34V90.7z M36.9,90.7h2.8v2.8h-2.8V90.7z M42.5,90.7h2.8v2.8h-2.8V90.7z M48.2,90.7H51v2.8h-2.8V90.7z M51,90.7h2.8v2.8H51
	V90.7z M56.7,90.7h2.8v2.8h-2.8V90.7z M65.2,90.7H68v2.8h-2.8V90.7z M68,90.7h2.8v2.8H68V90.7z M70.9,90.7h2.8v2.8h-2.8V90.7z
	 M73.7,90.7h2.8v2.8h-2.8V90.7z M79.4,90.7h2.8v2.8h-2.8V90.7z M82.2,90.7H85v2.8h-2.8V90.7z M85,90.7h2.8v2.8H85V90.7z M87.9,90.7
	h2.8v2.8h-2.8V90.7z M90.7,90.7h2.8v2.8h-2.8V90.7z M93.5,90.7h2.8v2.8h-2.8V90.7z M99.2,90.7h2.8v2.8h-2.8V90.7z M11.3,93.5h2.8
	v2.8h-2.8V93.5z M17,93.5h2.8v2.8H17V93.5z M19.8,93.5h2.8v2.8h-2.8V93.5z M22.7,93.5h2.8v2.8h-2.8V93.5z M28.3,93.5h2.8v2.8h-2.8
	V93.5z M34,93.5h2.8v2.8H34V93.5z M36.9,93.5h2.8v2.8h-2.8V93.5z M39.7,93.5h2.8v2.8h-2.8V93.5z M42.5,93.5h2.8v2.8h-2.8V93.5z
	 M45.4,93.5h2.8v2.8h-2.8V93.5z M51,93.5h2.8v2.8H51V93.5z M53.9,93.5h2.8v2.8h-2.8V93.5z M59.5,93.5h2.8v2.8h-2.8V93.5z M62.4,93.5
	h2.8v2.8h-2.8V93.5z M70.9,93.5h2.8v2.8h-2.8V93.5z M82.2,93.5H85v2.8h-2.8V93.5z M90.7,93.5h2.8v2.8h-2.8V93.5z M102,93.5h2.8v2.8
	H102V93.5z M11.3,96.4h2.8v2.8h-2.8V96.4z M17,96.4h2.8v2.8H17V96.4z M19.8,96.4h2.8v2.8h-2.8V96.4z M22.7,96.4h2.8v2.8h-2.8V96.4z
	 M28.3,96.4h2.8v2.8h-2.8V96.4z M34,96.4h2.8v2.8H34V96.4z M39.7,96.4h2.8v2.8h-2.8V96.4z M45.4,96.4h2.8v2.8h-2.8V96.4z M53.9,96.4
	h2.8v2.8h-2.8V96.4z M56.7,96.4h2.8v2.8h-2.8V96.4z M59.5,96.4h2.8v2.8h-2.8V96.4z M68,96.4h2.8v2.8H68V96.4z M70.9,96.4h2.8v2.8
	h-2.8V96.4z M73.7,96.4h2.8v2.8h-2.8V96.4z M76.5,96.4h2.8v2.8h-2.8V96.4z M85,96.4h2.8v2.8H85V96.4z M87.9,96.4h2.8v2.8h-2.8V96.4z
	 M93.5,96.4h2.8v2.8h-2.8V96.4z M96.4,96.4h2.8v2.8h-2.8V96.4z M11.3,99.2h2.8v2.8h-2.8V99.2z M28.3,99.2h2.8v2.8h-2.8V99.2z
	 M42.5,99.2h2.8v2.8h-2.8V99.2z M45.4,99.2h2.8v2.8h-2.8V99.2z M48.2,99.2H51v2.8h-2.8V99.2z M51,99.2h2.8v2.8H51V99.2z M53.9,99.2
	h2.8v2.8h-2.8V99.2z M70.9,99.2h2.8v2.8h-2.8V99.2z M76.5,99.2h2.8v2.8h-2.8V99.2z M82.2,99.2H85v2.8h-2.8V99.2z M90.7,99.2h2.8v2.8
	h-2.8V99.2z M96.4,99.2h2.8v2.8h-2.8V99.2z M11.3,102h2.8v2.8h-2.8V102z M14.2,102H17v2.8h-2.8V102z M17,102h2.8v2.8H17V102z
	 M19.8,102h2.8v2.8h-2.8V102z M22.7,102h2.8v2.8h-2.8V102z M25.5,102h2.8v2.8h-2.8V102z M28.3,102h2.8v2.8h-2.8V102z M34,102h2.8
	v2.8H34V102z M39.7,102h2.8v2.8h-2.8V102z M42.5,102h2.8v2.8h-2.8V102z M48.2,102H51v2.8h-2.8V102z M53.9,102h2.8v2.8h-2.8V102z
	 M59.5,102h2.8v2.8h-2.8V102z M73.7,102h2.8v2.8h-2.8V102z M76.5,102h2.8v2.8h-2.8V102z M79.4,102h2.8v2.8h-2.8V102z M82.2,102H85
	v2.8h-2.8V102z M87.9,102h2.8v2.8h-2.8V102z M99.2,102h2.8v2.8h-2.8V102z"/>
</svg>
