<?xml version="1.0" encoding="utf-8"?>
<!-- Generator: Adobe Illustrator 22.0.0, SVG Export Plug-In . SVG Version: 6.00 Build 0)  -->
<svg version="1.1" id="Layer_1" xmlns="http://www.w3.org/2000/svg" xmlns:xlink="http://www.w3.org/1999/xlink" x="0px" y="0px"
	 viewBox="0 0 792 437.4" style="enable-background:new 0 0 792 437.4;" xml:space="preserve">
<style type="text/css">
	.st0{fill:#3E9B00;}
	.st1{fill:#00465F;}
	.st2{fill:#CB2128;}
</style>
<g>
	<path class="st0" d="M161.8,195.7c-4.5,2.4-8.5-3.8-4.5-6.9c0.1-0.1,0.2-0.2,0.3-0.3c13.7-10.8,27.3-21.7,41.2-32.3
		c2.5-1.9,6.1-3.8,9-3.4c11.6,1.4,18.5-5.3,25.9-12.4c20.6-19.9,41.6-39.4,63.4-59.9c6.3,4.3,15.3,9.8,23.6,16.3
		c5.5,4.4,8.6,3.3,13.2-1.3c27-27.1,54.4-53.9,81.7-80.8c1.4-1.4,2.8-2.7,4.9-4.6c13.7,16.4,27.2,32.6,40.7,48.8
		c3.2,3.9,5.9,8.4,9.8,11.6c4.1,3.4,8.9,7,13.8,7.8c7.3,1.2,12.2,5,16.8,10.1c5.9,6.4,12.2,12.5,17.7,19.2c3.6,4.4,7.1,4.5,11.7,2.1
		c9.7-5.1,19.6-9.8,29.2-15.2c4.4-2.5,7.2-1.9,10.9,1.5c37.4,34.5,46.9,48.7,84.4,83.1c5.4,4.9-14.7,0.5-40.1-15.6
		c-4.7-3-9.2-1-12.4,1.1c-13.6,7.3-17.3,7.2-25.3,9.3c-19.9,5.3-14.7-5.6-16-11c8.7-6.2,8.7-6.2,19.2-12.1
		c4.1-2.3-11.6-10.5-6.7-14.3c-8.3-7.7-16-14.9-24-22.2c-11.8,7.5-23.4,14.7-34.7,22.5c-2.2,1.5-3.5,5-4.2,7.8
		c-1.6,6.2-2.3,12.7-3.9,19c-0.5,2-2.5,4.5-4.3,5c-42.9,13-57.4,16.4-90.6,24c-4,0.9-6.2-4.5-2.7-6.6c30.3-18.4,42-31.6,83.1-54.8
		c-10.4-12.9-18.4-27.4-34.9-33.9c-15-5.9-15.8-7-25.3,5.4c-11,14.4-20.2,30.2-30.1,45.4c-2.4,3.6-12.1,10.4-22.3,17
		c-3,1.9-6.7-1.3-5.1-4.5c15.9-31.9,41.3-74.6,48.6-85.5c1.4-2.2,2.2-6,1.6-8.5c-2-9-4.7-17.9-7.3-27.8c-2,1.5-3.5,2.5-4.7,3.8
		c-18.7,20.7-37.5,41.2-55.9,62.1c-5.6,6.4-11.6,12.8-11.3,22.5c0.6,14.8-10.4,21.6-20.4,29.6c-9.1,7.3-22,17.7-34.2,27.6
		c-5.9,4.8-13.9-2.8-9.3-8.9l0.3-0.4c1.8-2.5,3.3-5.4,5.6-7.4c18.5-16,10.1-35.7,8.3-56.8c-26.6,24.5-51.9,47.7-77.9,71.7
		c-2.2,2-5.7,0.6-5.8-2.3c-0.2-3.8-0.4-7.5-0.7-11.8C198.2,175.9,178.9,186.4,161.8,195.7z"/>
	<path class="st1" d="M34.5,198.1c0-72,58.4-130.4,130.4-130.4c14.4,0,28.3,2.4,41.3,6.7c-18.2-9.8-39-15.4-61.1-15.4
		c-71,0-128.5,57.5-128.5,128.5c0,49,27.4,91.6,67.8,113.3C54.1,276.9,34.5,239.8,34.5,198.1z"/>
	<path class="st2" d="M774.6,253c-170.3-125.5-455.3,66.2-622.2,56.8c-59.3-3.3-106-53.4-106-113.7c0-62.9,51-114,114-114
		c4.1,0,8.1,0.2,12,0.6c-45.1,5.1-80.1,41.1-80.1,84.8c0,36.5,24.4,67.5,58.6,79.8c32.1,11.6,78.1,4.8,111.7-0.8
		c81.7-13.6,180.2-43.9,232.8-57.1C577.2,168.9,712.6,169.6,774.6,253z"/>
	<path class="st1" d="M400.4,196.3C213.3,244.2,179.9,235.9,168,235c-29.4-3.1-52.2-29.4-52.2-57.8c0-18.7,9.9-35.3,25.1-45.3
		c-5.3,8.3-8.4,18-8.4,28.4c0,30,25.5,54.4,57.2,55.1C241.4,217,317.1,205.2,400.4,196.3z"/>
	<g>
		<g>
			<path d="M174,352c-6.9,0.3-10.2,0.3-16.8,0.1c-3.2-0.1-4.8-1.8-4.8-5c0-5.9,0-8.9,0-14.7c21.8,0.6,42.8-1.2,64.4-4.4
				c3.7-0.6,5.5,0.7,5.5,3.8c0,5.9,0,8.9,0,14.8c-9.7,1.7-14.4,2.4-23.7,3.5c0,25,0,50.1,0,75.1c-7.9,0.9-11.8,1.3-19.4,1.7
				c-3.4,0.2-5.1-1.4-5.1-4.5C174,398.9,174,375.5,174,352z"/>
			<path d="M242.9,339.8c-5.2,1.1-8.9,1-11.1-0.1c-2.2-1.2-3.3-3.6-3.3-7.4c0-3.7,1.1-6.6,3.3-8.6c2.2-2,5.8-3.5,11.1-4.7
				c5.2-1.1,9-1.2,11.3-0.1c2.2,1.1,3.4,3.5,3.4,7.2c0,3.7-1.1,6.7-3.4,8.8C251.9,337.1,248.1,338.7,242.9,339.8z M255.9,414.8
				c-8.1,1.9-12.2,2.8-20.1,4.4c-3.8,0.8-5.6-0.5-5.6-3.7c0-22,0-44.1,0-66.1c7.9-1.5,11.9-2.3,20-4.2c3.8-0.9,5.8,0.3,5.8,3.5
				C255.9,370.7,255.9,392.7,255.9,414.8z"/>
			<path d="M325.9,393.1c-2.9,2-6.2,4.1-9.8,6c-3.6,2-8.4,4.1-14,5.4c-8.1,1.9-19.8,4.7-27.3-1.4c-7.4-6.1-7.7-17.7-8.1-26.1
				c-0.5-10.2,1.8-21.8,8-30.4c6.1-8.4,16.4-13.3,26.3-16.1c4-1.1,7.8-1.9,11.3-2.4c3.5-0.5,6.3-0.6,8.6-0.3c2,0.2,3.3,0.8,4,1.7
				c0.7,0.9,1,2.3,1,4.1c0,3.6,0,5.3,0,8.9c-3.3,0.7-6.7,1.5-10.1,2.4c-3.4,0.8-5.8,1.5-7.4,1.9c-3.1,0.9-5.5,1.9-7.4,3
				c-1.9,1.1-3.3,2.5-4.3,4.2c-1,1.7-1.6,3.7-2,6.1c-0.3,2.4-0.5,5.4-0.5,8.9c0,3.8,0.2,6.9,0.5,9.4c0.3,2.4,0.9,4.2,1.8,5.4
				c0.9,1.2,2.1,1.8,3.8,1.9c1.6,0.1,3.7-0.2,6.2-1c0.7-0.2,1.5-0.5,2.6-0.8c1.1-0.4,2.2-0.7,3.4-1c1.2-0.3,2.3-0.7,3.3-1
				c1-0.4,1.9-0.6,2.4-0.8c2.6-0.7,4.4-0.9,5.7-0.4c1.2,0.5,1.8,1.6,1.8,3.6C325.9,387.7,325.9,389.5,325.9,393.1z"/>
			<path d="M371,383.9c-7,2.1-12.9,3.3-17.9,3.4c-4.9,0.1-8.9-0.9-12-3c-3.1-2.1-5.3-5.2-6.7-9.5c-1.4-4.3-2.1-9.7-2.1-16.2
				c0-6.6,0.7-12.5,2.1-17.6c1.4-5.1,3.6-9.6,6.7-13.6c3.1-3.9,7.1-7.3,12-10.2c4.9-2.9,10.9-5.4,17.9-7.5c7-2.1,13-3.3,18-3.5
				c5-0.2,9.1,0.8,12.3,2.8c3.2,2,5.5,5.2,7,9.4c1.4,4.3,2.2,9.7,2.2,16.3c0,6.6-0.7,12.4-2.2,17.5c-1.5,5.1-3.8,9.7-7,13.7
				c-3.2,4-7.3,7.4-12.3,10.4C384,379.2,378,381.7,371,383.9z M381.2,343.6c0-4.4-0.1-7.8-0.4-10.3c-0.3-2.5-0.8-4.3-1.6-5.5
				c-0.8-1.2-1.8-1.8-3.1-1.8c-1.3-0.1-2.9,0.2-5,0.9c-2.1,0.6-3.7,1.4-5,2.2c-1.3,0.8-2.3,2.1-3.1,3.7c-0.8,1.7-1.3,3.8-1.6,6.5
				c-0.3,2.7-0.4,6.2-0.4,10.6c0,4.5,0.1,8,0.4,10.5c0.3,2.6,0.8,4.4,1.6,5.6c0.8,1.2,1.8,1.8,3.1,1.9c1.3,0.1,2.9-0.2,5-0.8
				c2.1-0.6,3.7-1.4,5-2.2c1.3-0.8,2.3-2.1,3.1-3.8c0.8-1.7,1.3-3.9,1.6-6.6C381,351.7,381.2,348.1,381.2,343.6z"/>
			<path d="M504.6,321c-9.8,2.3-14.7,3.5-24.5,6c-0.7,4.4-1.3,8.7-1.9,12.9c-0.6,4.2-1,8-1.2,11.1c-9.4,2.5-14.1,3.7-23.5,6.4
				c-1.6,0.5-3,0.4-3.9-0.1c-1-0.5-1.5-1.8-1.5-3.7c0-0.8,0.1-1.7,0.2-2.6c0.1-0.9,0.3-1.9,0.5-2.7c3.2-15.4,6.6-31,10.7-46
				c4.1-15.2,9.4-30.3,15.1-45.2c10.5-2.7,21.1-5.4,31.7-7.9c2.3-0.5,4-0.5,4.9,0.2c0.9,0.7,1.6,1.5,2.1,2.4
				c5.8,12.4,10.5,25.3,14.3,38.4c4.4,15.4,8.1,31,11.5,46.7c-10,1.9-15,2.9-25,5.2c-3.7,0.8-5.9-0.3-6.5-3.5
				C506.3,331.6,505.7,328.1,504.6,321z M492.3,270c-2.5,8.3-4.4,15.5-5.9,21.7c-1.5,6.2-2.8,12.2-4.1,17.8c8-2.1,12-3,20-4.9
				c-1.3-5-2.7-10.2-4.1-15.8C496.7,283.3,494.8,277,492.3,270z"/>
			<path d="M562.3,255.1c-5.8,0.9-10,0.8-12.5-0.4c-2.5-1.2-3.7-3.6-3.7-7.3c0-3.7,1.2-6.6,3.7-8.6c2.5-2,6.6-3.5,12.5-4.4
				c5.8-0.9,10-0.6,12.4,0.7c2.4,1.3,3.7,3.8,3.7,7.5c0,3.7-1.2,6.5-3.7,8.4C572.3,252.9,568.2,254.2,562.3,255.1z M576.7,331
				c-8.9,1.1-13.3,1.8-22.3,3.2c-4.3,0.7-6.4-0.5-6.4-3.7c0-22,0-44.1,0-66.1c9-1.6,13.5-2.3,22.3-3.5c4.2-0.6,6.3,0.8,6.3,4
				C576.7,286.9,576.7,308.9,576.7,331z"/>
			<path d="M635.1,256.2c4.3,0.1,6.4,1.7,6.4,4.9c0,6.3,0,9.4,0,15.7c-0.8-0.1-1.5-0.2-2.1-0.2c-0.7,0-1.4,0-2.3-0.1
				c-3.5-0.1-7,0.1-10.4,0.6c-3.5,0.5-6.3,1.6-8.5,3.2c0,15.8,0,31.5,0,47.3c-8.6,0.3-13,0.5-21.8,1.3c-4.2,0.3-6.3-1-6.3-4.2
				c0-22,0-44.1,0-66.1c6.5-0.6,9.7-0.9,16.2-1.3c2.5-0.2,4.2,0.1,5.2,0.7c1,0.6,1.9,2.1,2.8,4.3c0.5,1.5,0.8,2.2,1.3,3.6
				c2.3-3.1,5.2-5.5,8.6-7.3C627.7,257,631.3,256.1,635.1,256.2z"/>
			<path d="M712.3,336.1c-2.6,0.2-6.2,0.1-10.8-0.1c-4.6-0.2-10.4-1-17.3-2.3c-6.1-1.1-11.5-2.6-16-4.5c-4.5-1.9-8.4-4.5-11.4-7.7
				c-3-3.3-5.3-7.2-6.8-12c-1.5-4.8-2.1-10.5-2.2-17.1c-0.1-9.6,1.5-21,8.8-27.9c6.4-6.1,19.1-6.9,27-5.2c6,1.3,11.4,3.1,15.3,5.6
				c3.9,2.5,7,5.5,9.2,8.8c2.2,3.3,3.7,7,4.5,10.9c0.8,3.9,1.2,8,1.2,12.3c0,0.9-0.1,2-0.1,3.4c-0.1,1.3-0.3,2.6-0.5,3.9
				c-0.2,1.3-0.5,2.5-0.8,3.6c-0.3,1.1-0.6,2-0.9,2.5c-12.7-3.9-25.6-6.6-38.8-8.4c0,4.6,1.3,8,3.9,10.3c2.6,2.2,6.6,3.8,12.1,4.9
				c5.1,1,8.8,1.9,11.4,2.4c2.6,0.5,4.8,1.1,6.7,1.6c2,0.6,3.4,1.4,4.3,2.6c0.8,1.1,1.3,2.5,1.3,4
				C712.3,331.1,712.3,332.8,712.3,336.1z M692.3,292.3c0-5.6-0.6-9.7-1.9-12.1c-1.3-2.4-3.6-4-7.1-4.6c-4.2-0.7-7,0-8.4,2.1
				c-1.4,2.1-2.2,5.8-2.3,11.2C680.6,289.9,684.5,290.6,692.3,292.3z"/>
			<path d="M721,324.6c4.1,1.7,8.1,3.5,11.8,5.3c3.8,1.8,7,3.4,9.7,4.7c4.2,2.1,7.1,3.3,8.6,3.4c1.5,0.1,2.2-0.8,2.2-2.9
				c0-0.9-0.1-1.7-0.4-2.4c-0.3-0.7-0.8-1.5-1.5-2.3c-0.7-0.9-1.7-1.8-3-2.8c-1.3-1-2.9-2.3-5-3.8c-4-2.8-7.4-5.4-10.3-7.7
				c-2.9-2.3-5.3-4.5-7.3-6.8c-1.9-2.3-3.4-4.8-4.3-7.5c-0.9-2.7-1.4-6-1.4-9.7c0-4.7,0.7-8.3,2.1-10.8c1.4-2.5,3.3-4.1,5.8-4.8
				c2.5-0.7,5.4-0.7,8.7,0.1c3.3,0.9,7,2.3,10.9,4.3c5.5,2.9,9.8,5.8,13.1,8.6c3.2,2.8,5.6,5,7.1,6.7c1.6,1.8,2.7,3.4,3.3,4.7
				c0.6,1.3,0.9,2.9,0.9,4.8c0,3.7,0,5.5,0,9.2c-5.8-4.5-10.3-7.5-13.1-9.4s-5.1-3.2-6.5-4c-3.1-1.7-5.6-2.7-7.2-3.1
				c-1.6-0.3-2.5,0.5-2.5,2.4c0,1.8,0.8,3.5,2.3,5c1.5,1.5,4,3.5,7.2,6c3.9,3.1,7.2,6.2,10.1,9c2.8,2.8,5.2,5.6,6.9,8.5
				c1.8,2.8,3.1,5.8,4,8.8c0.9,3,1.3,6.4,1.3,10.2c0,4.6-0.6,8-1.9,10.2c-1.3,2.2-3.1,3.4-5.4,3.6c-2.3,0.3-5.1-0.3-8.4-1.5
				c-3.3-1.3-6.9-3-10.9-5.1c-4.8-2.5-9.2-4.9-13.3-7.4c-4.1-2.5-7.2-4.4-9.1-5.9c-1.7-1.4-3-2.7-3.6-4c-0.6-1.3-1-2.7-1-4.2
				C721,330.1,721,328.2,721,324.6z"/>
		</g>
	</g>
</g>
</svg>
