<?xml version="1.0" encoding="utf-8"?>
<!-- Generator: Adobe Illustrator 22.0.0, SVG Export Plug-In . SVG Version: 6.00 Build 0)  -->
<svg version="1.1" id="Layer_1" xmlns="http://www.w3.org/2000/svg" xmlns:xlink="http://www.w3.org/1999/xlink" x="0px" y="0px"
	 viewBox="0 0 792 612" style="enable-background:new 0 0 792 612;" xml:space="preserve">
<style type="text/css">
	.st0{fill:#0000FF;}
	.st1{fill:#FF0000;}
	.st2{fill:#0083FF;}
</style>
<path class="st0" d="M658.6,484.2c-0.8,4.8-1.4,9.6-2.5,14.2c-3.9,17.3-12.3,31.9-25.9,43.6c-20.2,17.4-42.8,29.6-69.3,33.9
	c-26.8,4.4-52.3,0.1-76.5-12.1c-25.2-12.7-44.9-31.7-61.1-54.5c-10.1-14.2-18.4-29.5-25.3-45.7c4.8-1.4,9.5-2.7,14.2-4.3
	c16.5-5.7,30.8-14.5,41-29.1c9.2-13.1,12.7-28,12.9-43.8c0-1.1,0-2.2,0-3.8c1,0.5,1.7,0.9,2.3,1.3c16.6,11.1,35.1,15.1,54.8,13.7
	c12-0.8,23.9-2.3,35.9-3.3c22.4-1.9,43.9,0.8,63.4,13.1c19.3,12.1,30.1,30,34.5,52c0.7,3.5,1.1,7.1,1.7,10.7
	C658.6,474.9,658.6,479.6,658.6,484.2z M333.2,452.6c-1-0.6-2.1-1.2-3.1-1.8c-13-7.7-23.6-17.8-30.4-31.5c-6-12-7.9-24.5-7.1-37.2
	h-130c-26.6,19.2-43.5,45.5-49.7,79.3c-0.9,4.9-1.4,9.9-2.1,14.9c0,6,0,11.9,0,17.9c0.7,5.4,1.5,10.8,2.2,16.3
	c5.6,44.7,45.1,69.3,74.5,73.3c2.2,0.3,4.4,0.7,6.6,1c3.7,0,7.5,0,11.2,0c0.6-0.2,1.2-0.4,1.8-0.5c10.8-1,20.9-4.4,30.3-9.9
	c15.8-9.4,27.6-22.6,35.9-38.9c6.4-12.6,12-25.6,18-38.4c8.2-17.2,19.8-31.5,36.8-40.8c1.9-1.1,3.9-2,5.8-3.1
	C333.5,452.9,333.4,452.7,333.2,452.6z M328.8,382.1c0,28.9,23.3,52.3,52.1,52.3c28.9,0,52.3-23.3,52.4-52.1c0-0.1,0-0.1,0-0.2
	H328.8z"/>
<g>
	<path class="st1" d="M137.1,296.3h-17.7c-3.5,0-5.2-1.6-5.2-4.9v-15.2h65.2c3.5,0,5.2,1.6,5.2,4.9v15.2h-22.8v77.4h-19.4
		c-3.5,0-5.2-1.6-5.2-4.9V296.3z"/>
	<path class="st1" d="M203.7,293.5c-4.8,0-8.2-0.8-10.2-2.5c-2-1.6-3-4.4-3-8.2c0-3.8,1-6.6,3-8.2c2-1.6,5.4-2.5,10.2-2.5
		s8.2,0.8,10.2,2.5c2,1.6,3,4.4,3,8.2c0,3.8-1,6.6-3,8.2C211.9,292.6,208.5,293.5,203.7,293.5z M215.5,373.7h-18.3
		c-3.5,0-5.2-1.6-5.2-4.9v-68.1h18.3c3.5,0,5.2,1.6,5.2,4.9V373.7z"/>
	<path class="st1" d="M276.2,370.9c-2.4,1.2-5.2,2.3-8.2,3.2c-3.1,0.9-7,1.4-11.9,1.4c-11,0-18.9-3-23.6-9.1s-7.2-15.7-7.2-29.1
		c0-13.3,2.3-23.1,7-29.2c4.7-6.1,12.3-9.2,22.8-9.2c3.5,0,6.7,0.3,9.6,0.8c3,0.6,5.4,1.3,7.2,2.3c1.7,0.8,2.8,1.8,3.4,3
		s0.8,2.6,0.8,4.5v9.1c-2.8-0.3-5.7-0.5-8.5-0.6c-2.9-0.1-4.9-0.2-6.3-0.2c-2.6,0-4.7,0.3-6.3,0.9c-1.6,0.6-2.8,1.6-3.7,3.1
		c-0.8,1.5-1.4,3.4-1.7,5.8c-0.3,2.4-0.4,5.4-0.4,9.1c0,3.9,0.1,7.2,0.4,9.8c0.3,2.6,0.8,4.6,1.5,6.1c0.8,1.5,1.8,2.5,3.2,3
		c1.4,0.6,3.2,0.8,5.3,0.8c0.6,0,1.3,0,2.3-0.1c0.9,0,1.9-0.1,2.9-0.1c1,0,1.9,0,2.8-0.1c0.9,0,1.6-0.1,2-0.1c2.2,0,3.8,0.4,4.8,1.3
		c1,0.8,1.5,2.3,1.5,4.2V370.9z"/>
	<path class="st1" d="M313.6,375.5c-5.7,0-10.6-0.7-14.7-2.2c-4.1-1.5-7.4-3.7-10-6.8c-2.6-3.1-4.5-7.1-5.6-11.9
		c-1.2-4.8-1.8-10.6-1.8-17.4c0-6.8,0.6-12.7,1.8-17.5c1.2-4.8,3-8.8,5.6-11.9c2.6-3.1,5.9-5.3,10-6.8c4.1-1.4,9-2.1,14.7-2.1
		c5.7,0,10.6,0.7,14.7,2.1c4.1,1.4,7.4,3.7,10,6.8c2.6,3.1,4.5,7.1,5.6,11.9c1.2,4.8,1.8,10.7,1.8,17.5c0,6.8-0.6,12.5-1.8,17.4
		c-1.2,4.8-3,8.8-5.6,11.9c-2.6,3.1-5.9,5.4-10,6.8C324.2,374.8,319.3,375.5,313.6,375.5z M321.9,337.2c0-4.5-0.1-8.1-0.4-10.8
		c-0.2-2.7-0.7-4.7-1.3-6.2c-0.7-1.5-1.5-2.4-2.5-2.9c-1-0.5-2.4-0.7-4.1-0.7c-1.7,0-3.1,0.2-4.1,0.7c-1,0.5-1.9,1.4-2.5,2.9
		c-0.7,1.5-1.1,3.5-1.3,6.2c-0.2,2.7-0.4,6.3-0.4,10.8c0,4.6,0.1,8.3,0.4,11c0.2,2.7,0.7,4.8,1.3,6.3c0.7,1.5,1.5,2.4,2.5,2.9
		c1,0.5,2.4,0.7,4.1,0.7c1.7,0,3-0.2,4.1-0.7c1-0.5,1.9-1.4,2.5-2.9c0.7-1.5,1.1-3.5,1.3-6.3C321.8,345.5,321.9,341.8,321.9,337.2z"
		/>
	<path class="st1" d="M421.4,349.8h-19.7c-0.6,4.3-1.1,8.6-1.5,12.8c-0.5,4.2-0.8,7.9-1,11.1h-18.9c-1.3,0-2.4-0.4-3.2-1.3
		c-0.8-0.8-1.2-2.3-1.2-4.2c0-0.8,0-1.7,0.1-2.7c0.1-0.9,0.2-1.8,0.4-2.7c2.5-15.4,5.4-30.2,8.6-44.3c3.2-14.2,7.2-28.3,12.1-42.4
		h25.5c1.9,0,3.2,0.5,3.9,1.4c0.8,0.9,1.3,1.9,1.7,3c4.2,12.6,8.1,26.8,11.5,42.7c3.5,15.9,6.6,32.7,9.3,50.5h-20.3
		c-3,0-4.7-1.7-5.2-5.1L421.4,349.8z M411.6,294.2c-2,7.9-3.5,14.8-4.7,20.9c-1.2,6.1-2.3,11.8-3.3,17.2h16
		c-1-5.4-2.1-11.2-3.3-17.2C415.1,309,413.5,302,411.6,294.2z"/>
	<path class="st1" d="M468.3,293.5c-4.8,0-8.2-0.8-10.2-2.5c-2-1.6-3-4.4-3-8.2c0-3.8,1-6.6,3-8.2c2-1.6,5.4-2.5,10.2-2.5
		c4.8,0,8.2,0.8,10.2,2.5c2,1.6,3,4.4,3,8.2c0,3.8-1,6.6-3,8.2C476.5,292.6,473.1,293.5,468.3,293.5z M480.1,373.7h-18.3
		c-3.5,0-5.2-1.6-5.2-4.9v-68.1h18.3c3.5,0,5.2,1.6,5.2,4.9V373.7z"/>
	<path class="st1" d="M529.2,300.2c3.7,0,5.5,1.6,5.5,4.9v16.2c-0.7-0.1-1.3-0.1-1.8-0.1c-0.6,0-1.2,0-2,0c-3,0-6,0.2-8.9,0.7
		c-3,0.5-5.4,1.5-7.2,3.1v48.7h-18.3c-3.5,0-5.2-1.6-5.2-4.9v-68.1h13.5c2.1,0,3.5,0.4,4.4,1.1c0.8,0.7,1.6,2.2,2.4,4.6l1.1,3.8
		c2-3.1,4.4-5.5,7.3-7.2C522.8,301.1,525.9,300.2,529.2,300.2z"/>
	<path class="st1" d="M598.3,370.9c-2.4,1-5.8,2.1-10.1,3.1c-4.3,1-9.5,1.5-15.8,1.5c-5.5,0-10.3-0.7-14.4-2.1
		c-4-1.4-7.4-3.7-10.1-6.8c-2.7-3.1-4.6-7.1-5.9-11.9c-1.3-4.8-1.9-10.7-1.9-17.5c0-13.6,2.6-23.4,7.7-29.3c5.1-6,13.1-8.9,24-8.9
		c5.7,0,10.4,0.8,14,2.4c3.6,1.6,6.4,3.8,8.5,6.5c2.1,2.8,3.5,6.1,4.2,9.9c0.8,3.8,1.1,7.9,1.1,12.3c0,0.9,0,2.1-0.1,3.5
		c-0.1,1.4-0.3,2.8-0.5,4.2c-0.2,1.4-0.5,2.7-0.8,4s-0.6,2.2-0.8,2.9H562c0,4.8,1.1,8.1,3.4,10c2.3,1.9,5.9,2.8,10.9,2.8
		c4.6,0,8.1-0.1,10.5-0.2s4.5-0.2,6.3-0.2c1.9,0,3.2,0.4,4,1.3c0.8,0.9,1.2,2.1,1.2,3.7V370.9z M579.7,331c0-5.8-0.6-9.8-1.8-12
		c-1.2-2.2-3.3-3.3-6.4-3.3c-3.8,0-6.3,1.2-7.5,3.5c-1.3,2.3-1.9,6.3-2,11.8H579.7z"/>
	<path class="st1" d="M606.6,355.9c3.9,0.3,7.7,0.5,11.4,0.7c3.7,0.2,6.8,0.3,9.6,0.3c4.2,0,7.1-0.4,8.6-1.1
		c1.5-0.7,2.3-2.1,2.3-4.3c0-0.9-0.1-1.7-0.4-2.3c-0.3-0.6-0.8-1.1-1.5-1.5c-0.8-0.5-1.8-0.9-3-1.3c-1.3-0.4-2.9-0.8-5-1.3
		c-3.9-0.9-7.3-1.9-10.1-3c-2.8-1.1-5.2-2.4-7-4c-1.9-1.6-3.3-3.6-4.2-6.1c-0.9-2.5-1.3-5.7-1.3-9.5c0-4.9,0.7-8.8,2-11.9
		c1.3-3,3.2-5.5,5.6-7.2c2.4-1.8,5.2-3,8.5-3.7c3.3-0.7,6.9-1,10.8-1c5.5,0,10,0.4,13.3,1.2c3.3,0.8,5.8,1.5,7.4,2.2
		c1.7,0.8,2.9,1.6,3.5,2.5c0.7,0.9,1,2.3,1,4.3v9.4c-6.2-0.4-10.8-0.6-13.7-0.8c-3-0.1-5.2-0.2-6.7-0.2c-3.2,0-5.6,0.3-7.2,0.8
		c-1.6,0.5-2.5,1.8-2.5,3.7c0,1.9,0.8,3.2,2.3,3.9c1.5,0.8,4,1.5,7.2,2.3c3.9,1,7.4,2.1,10.3,3.1c3,1,5.4,2.4,7.2,4
		c1.9,1.6,3.3,3.7,4.2,6.2c0.9,2.5,1.4,5.7,1.4,9.5c0,4.8-0.7,8.8-2,12c-1.4,3.2-3.3,5.7-5.7,7.6c-2.4,1.9-5.3,3.2-8.7,3.9
		c-3.4,0.7-7.1,1.1-11.1,1.1c-4.8,0-9.2-0.4-13.2-1.1c-4-0.8-6.9-1.5-8.8-2.3c-1.7-0.8-2.8-1.7-3.4-2.7c-0.6-1.1-0.9-2.4-0.9-4
		V355.9z"/>
</g>
<path class="st2" d="M143.9,256v9.6h35.5c2.5,0,4.7,0.5,6.7,1.3c0.2-0.2,0.4-0.4,0.6-0.5c4-3.3,9.5-4.8,16.9-4.8
	c7.2,0,12.7,1.5,16.7,4.7l20.9-12.8l61.9,35.7c3.2-0.5,6.5-0.8,10.1-0.8c6.9,0,13,0.9,18.2,2.7c3.2,1.1,6.1,2.7,8.8,4.6h39.2
	c2.2-7.7,4.6-15.3,7.2-22.9c1.5-4.3,5.5-7.1,10-7.1H422c6.5,0,10.2,2.9,12.2,5.4c1.5,1.9,2.6,3.9,3.4,6c2,5.9,3.9,12.2,5.7,18.7h3.3
	c0.1-0.2,0.2-0.4,0.3-0.6c-1.8-2.8-3.2-6.8-3.2-12.2c0-8.9,3.8-13.9,6.9-16.4c4-3.3,9.5-4.8,16.9-4.8c7.4,0,12.9,1.6,16.9,4.8
	c1.5,1.2,3.2,3.1,4.5,5.6l32.1-18.5l58.3,35.6c3.6,0.5,6.9,1.4,9.8,2.7c2.5,1.1,4.7,2.4,6.7,4h2.3l20.1-11.6v-28l-49.5-30.2l53.6-31
	v-28l-24.2-14l-53.6,30.9l-1.4-58l-24.2-14l-24.2,14l2.1,85.6l-91.4,52.8V158.6l75.1-41v-28l-24.2-14l-50.9,27.8V41.5l-24.2-14
	l-24.2,14v61.9l-50.9-27.8l-24.2,14v28l75.1,41v105.5l-91.4-52.8l2.1-85.6l-24.2-14l-24.2,14l-1.4,58l-53.6-31l-24.2,14v28
	l53.6,30.9L143.9,256z"/>
</svg>
