<?xml version="1.0" encoding="utf-8"?>
<!-- Generator: Adobe Illustrator 28.4.1, SVG Export Plug-In . SVG Version: 6.00 Build 0)  -->
<svg version="1.1" id="Layer_1" xmlns="http://www.w3.org/2000/svg" xmlns:xlink="http://www.w3.org/1999/xlink" x="0px" y="0px"
	 viewBox="0 0 512 512" style="enable-background:new 0 0 512 512;" xml:space="preserve">
<style type="text/css">
	.st0{fill:url(#SVGID_1_);}
	.st1{fill:none;stroke:#FFFFFF;stroke-width:3;stroke-miterlimit:10;}
	.st2{fill:#415C88;}
	.st3{fill:#3A5F8F;}
	.st4{fill:#F2DFCE;}
</style>
<linearGradient id="SVGID_1_" gradientUnits="userSpaceOnUse" x1="256" y1="512" x2="256" y2="-9.094947e-13">
	<stop  offset="0" style="stop-color:#F2DFCE;stop-opacity:0.5"/>
	<stop  offset="0.1257" style="stop-color:#F2DFCE;stop-opacity:0.5"/>
	<stop  offset="0.243" style="stop-color:#FFFFFF;stop-opacity:0.8"/>
	<stop  offset="0.3436" style="stop-color:#FCF7F2;stop-opacity:0.8"/>
	<stop  offset="0.6341" style="stop-color:#F2DFCE;stop-opacity:0.5"/>
	<stop  offset="1" style="stop-color:#F2DFCE;stop-opacity:0.5"/>
</linearGradient>
<rect class="st0" width="512" height="512"/>
<g>
	<g>
		<path class="st1" d="M99.9,213.2c0,26.2,2.6,48,7.7,65.3c5.1,17.3,14.1,26,26.8,26c6.3,0,11.2-1.2,14.4-3.7
			c3.3-2.5,5.4-5.2,6.2-8.3c0.8-3.1,1.3-6.7,1.5-10.9c0.2-4.1,0.2-9.3,0.2-15.5v-9.7c0-7.2-0.2-12-0.7-14.4
			c-0.5-5.4-1.6-9.2-3.4-11.2c-1.7-1.9-4.4-3.3-8.1-3.7c-3.7-0.5-7-0.8-9.9-0.9c-3-0.1-5.7-0.2-8.2-0.4v-4H243v4l-11.5,0.7
			c-5.1,0.5-8.6,1.7-10.3,3.6c-1.7,1.9-2.9,5.7-3.4,11.4l-0.5,11.7v32.6l0.5,22.4h-3.7c-2.2-4.8-5.9-9.2-11.4-13.2
			s-11.4-5.9-17.8-5.9c-5.8,0-14.1,3.6-24.9,10.8s-25.1,10.8-42.8,10.8c-24.6,0-45.3-8.9-62-26.6c-16.8-17.7-25.1-40-25.1-67
			c0-28.2,9.2-50.9,27.6-67.9c18.4-17.1,41.9-25.6,70.5-25.6c15.6,0,30.3,3.5,44.3,10.4c13.9,7,21.7,10.6,23.3,11
			c4.8,0,8.1-1.7,9.7-5.3c1.6-3.6,3.3-8.7,4.7-15.3h5v80.4h-4.2c-5-20.6-13.2-38-24.8-52.2c-11.6-14.2-26.2-21.4-44.1-21.4
			c-14.2,0-24.9,8.3-31.8,24.8C103.4,172,99.9,191.3,99.9,213.2z"/>
		<path class="st2" d="M99.9,213.2c0,26.2,2.6,48,7.7,65.3c5.1,17.3,14.1,26,26.8,26c6.3,0,11.2-1.2,14.4-3.7
			c3.3-2.5,5.4-5.2,6.2-8.3c0.8-3.1,1.3-6.7,1.5-10.9c0.2-4.1,0.2-9.3,0.2-15.5v-9.7c0-7.2-0.2-12-0.7-14.4
			c-0.5-5.4-1.6-9.2-3.4-11.2c-1.7-1.9-4.4-3.3-8.1-3.7c-3.7-0.5-7-0.8-9.9-0.9c-3-0.1-5.7-0.2-8.2-0.4v-4H243v4l-11.5,0.7
			c-5.1,0.5-8.6,1.7-10.3,3.6c-1.7,1.9-2.9,5.7-3.4,11.4l-0.5,11.7v32.6l0.5,22.4h-3.7c-2.2-4.8-5.9-9.2-11.4-13.2
			s-11.4-5.9-17.8-5.9c-5.8,0-14.1,3.6-24.9,10.8s-25.1,10.8-42.8,10.8c-24.6,0-45.3-8.9-62-26.6c-16.8-17.7-25.1-40-25.1-67
			c0-28.2,9.2-50.9,27.6-67.9c18.4-17.1,41.9-25.6,70.5-25.6c15.6,0,30.3,3.5,44.3,10.4c13.9,7,21.7,10.6,23.3,11
			c4.8,0,8.1-1.7,9.7-5.3c1.6-3.6,3.3-8.7,4.7-15.3h5v80.4h-4.2c-5-20.6-13.2-38-24.8-52.2c-11.6-14.2-26.2-21.4-44.1-21.4
			c-14.2,0-24.9,8.3-31.8,24.8C103.4,172,99.9,191.3,99.9,213.2z"/>
	</g>
	<g>
		<path class="st1" d="M348.9,222.8l-6.8,8v45.6l0.5,11.5c0.5,5.4,1.6,9.2,3.4,11.1c1.7,1.9,5.2,3.2,10.3,3.9l9,0.7v4H254.3v-4
			l12.5-1c4.8-0.6,8.2-2,10-4.2c1.9-2.2,3.1-5.8,3.6-11l0.5-11.5V157.7l-0.5-11.5c-0.5-5.3-1.6-9-3.4-11.1c-1.7-2-5.2-3.5-10.3-4.1
			l-12.9-1v-4H366v4l-9.7,0.7c-5.1,0.5-8.6,1.7-10.3,3.6c-1.7,1.9-2.9,5.7-3.4,11.4l-0.5,11.5v67.2c4.8-5.6,11.6-13.4,20.2-23.3
			c8.6-9.9,17.5-20.2,26.5-30.7c9-10.5,15.1-17.9,18.1-22.1c3.1-4.2,4.6-7.7,4.6-10.3c0-2.4-0.9-4-2.7-5c-1.7-1-4.1-1.6-7.1-1.9
			l-11.6-0.8v-4h63.5v4c-2.2,0.2-4.4,0.3-6.8,0.4c-2.4,0.1-5.1,0.4-8.5,1.1c-3.4,0.6-6.8,1.9-10.3,4c-3.6,2-7.8,5.6-12.6,11
			l-25.1,28.6l67.9,105.1c6.3,9.4,10.9,15.4,13.7,17.7s5.9,3.8,9.2,4.4c3.3,0.6,5.8,0.9,7.6,1c1.7,0.1,3.3,0.2,4.6,0.4v4H373.8v-4
			l10.4-0.5c3.5-0.3,6-0.8,7.7-1.5c1.6-0.6,2.5-2.3,2.5-4.7c0-1.5-0.4-3.4-1.2-5.6c-0.8-2.3-2.8-5.6-5.7-10.2
			c-3-4.6-6.3-9.7-10-15.5c-3.7-5.7-8.7-13.2-15-22.4C356.1,234,351.6,227.2,348.9,222.8z"/>
		<path class="st2" d="M348.9,222.8l-6.8,8v45.6l0.5,11.5c0.5,5.4,1.6,9.2,3.4,11.1c1.7,1.9,5.2,3.2,10.3,3.9l9,0.7v4H254.3v-4
			l12.5-1c4.8-0.6,8.2-2,10-4.2c1.9-2.2,3.1-5.8,3.6-11l0.5-11.5V157.7l-0.5-11.5c-0.5-5.3-1.6-9-3.4-11.1c-1.7-2-5.2-3.5-10.3-4.1
			l-12.9-1v-4H366v4l-9.7,0.7c-5.1,0.5-8.6,1.7-10.3,3.6c-1.7,1.9-2.9,5.7-3.4,11.4l-0.5,11.5v67.2c4.8-5.6,11.6-13.4,20.2-23.3
			c8.6-9.9,17.5-20.2,26.5-30.7c9-10.5,15.1-17.9,18.1-22.1c3.1-4.2,4.6-7.7,4.6-10.3c0-2.4-0.9-4-2.7-5c-1.7-1-4.1-1.6-7.1-1.9
			l-11.6-0.8v-4h63.5v4c-2.2,0.2-4.4,0.3-6.8,0.4c-2.4,0.1-5.1,0.4-8.5,1.1c-3.4,0.6-6.8,1.9-10.3,4c-3.6,2-7.8,5.6-12.6,11
			l-25.1,28.6l67.9,105.1c6.3,9.4,10.9,15.4,13.7,17.7s5.9,3.8,9.2,4.4c3.3,0.6,5.8,0.9,7.6,1c1.7,0.1,3.3,0.2,4.6,0.4v4H373.8v-4
			l10.4-0.5c3.5-0.3,6-0.8,7.7-1.5c1.6-0.6,2.5-2.3,2.5-4.7c0-1.5-0.4-3.4-1.2-5.6c-0.8-2.3-2.8-5.6-5.7-10.2
			c-3-4.6-6.3-9.7-10-15.5c-3.7-5.7-8.7-13.2-15-22.4C356.1,234,351.6,227.2,348.9,222.8z"/>
	</g>
</g>
<g>
	<g>
		<path class="st3" d="M97.8,362.7V374c-1.9,1.1-4,1.9-5.9,2.5c-1.9,0.5-4,0.8-5.9,0.8c-2.8,0-5.3-0.4-7.4-1.2
			c-2.2-0.8-3.9-1.9-5.4-3.5c-1.4-1.5-2.7-3.2-3.5-5c-0.8-1.8-1.2-4.2-1.2-7.1v-4.8c0-2.9,0.7-5.6,2.2-8.4s3.4-4.8,5.8-6.2
			c2.5-1.4,5.1-2.2,8.1-2.2c4.2,0,7.8,1.1,10.6,3.5c0-1,0-1.6,0.1-1.8c0.1-0.2,0.2-0.4,0.4-0.5c0.2-0.2,0.5-0.2,0.8-0.2
			c0.4,0,0.7,0.1,0.9,0.4c0.2,0.3,0.4,0.7,0.4,1.3v5.9c0,0.6-0.1,1.1-0.4,1.3c-0.2,0.3-0.5,0.4-0.9,0.4c-0.3,0-0.6-0.1-0.9-0.3
			c-0.2-0.2-0.4-0.6-0.4-1.2c-0.1-1.7-1.2-3.2-3.5-4.3c-2.2-1.1-4.5-1.6-7.1-1.6c-2.5,0-4.6,0.5-6.6,1.5c-1.9,1-3.8,3.1-5.4,6
			c-1.1,1.9-1.6,4.1-1.6,6.6v4.8c0,4.3,1.3,7.8,4,10.3s6.3,3.8,11,3.8c1.5,0,3.1-0.2,4.4-0.5c1.3-0.3,3-0.9,4.7-1.7v-9.7h-9
			c-0.6,0-1-0.1-1.3-0.3c-0.3-0.2-0.4-0.5-0.4-0.9c0-0.4,0.1-0.7,0.4-0.9c0.3-0.2,0.7-0.4,1.3-0.4h12.6c0.6,0,1,0.1,1.3,0.4
			c0.3,0.2,0.4,0.5,0.4,0.9c0,0.3-0.1,0.5-0.2,0.7c-0.2,0.2-0.3,0.4-0.5,0.4C99.4,362.7,98.8,362.7,97.8,362.7z"/>
	</g>
	<g>
		<path class="st3" d="M129.4,376.3v-3.8c-3.8,3.2-7.9,4.8-12.2,4.8c-3.2,0-5.6-0.8-7.4-2.4c-1.7-1.6-2.7-3.6-2.7-5.8
			c0-2.6,1.1-4.7,3.5-6.7c2.4-1.8,5.7-2.9,10.2-2.9c1.2,0,2.6,0.1,3.9,0.2c1.4,0.2,3,0.4,4.6,0.7v-4.2c0-1.4-0.6-2.7-1.9-3.8
			c-1.3-1-3.3-1.6-5.9-1.6c-2,0-4.9,0.6-8.6,1.7c-0.6,0.2-1.1,0.3-1.2,0.3c-0.3,0-0.6-0.1-0.8-0.4c-0.2-0.2-0.4-0.5-0.4-0.9
			c0-0.3,0.1-0.6,0.3-0.8c0.3-0.3,1.4-0.7,3.5-1.2c3.3-0.9,5.7-1.3,7.4-1.3c3.3,0,5.8,0.8,7.8,2.5c1.9,1.6,2.8,3.5,2.8,5.5v17.3h3.5
			c0.6,0,1.1,0.1,1.3,0.4c0.3,0.2,0.4,0.5,0.4,0.9c0,0.4-0.1,0.7-0.4,0.9c-0.3,0.2-0.7,0.4-1.3,0.4h-6.2V376.3z M129.4,363.2
			c-1.2-0.3-2.6-0.6-3.9-0.8c-1.3-0.2-2.9-0.2-4.3-0.2c-3.8,0-6.8,0.8-8.9,2.5c-1.6,1.2-2.5,2.7-2.5,4.4c0,1.5,0.6,2.9,1.8,4
			c1.2,1.1,3.1,1.6,5.4,1.6c2.3,0,4.4-0.4,6.3-1.3c1.9-0.9,4-2.4,6-4.3v-5.8H129.4z"/>
	</g>
	<g>
		<path class="st3" d="M150.3,337.1v17.4c3.2-4.1,7-6.1,11.5-6.1c3.8,0,7.1,1.4,9.8,4.2c2.8,2.8,4.1,6.1,4.1,10.2s-1.3,7.5-4.1,10.3
			c-2.8,2.9-6,4.2-9.7,4.2c-4.6,0-8.4-2-11.5-6.1v5.1h-6.1c-0.6,0-1-0.1-1.3-0.4c-0.3-0.2-0.4-0.5-0.4-0.9c0-0.4,0.1-0.7,0.4-0.9
			c0.3-0.2,0.7-0.4,1.3-0.4h3.5v-33.9h-3.5c-0.6,0-1-0.1-1.3-0.4c-0.3-0.2-0.4-0.6-0.4-0.9c0-0.4,0.1-0.7,0.4-0.9
			c0.3-0.2,0.7-0.4,1.3-0.4L150.3,337.1L150.3,337.1z M173.1,362.8c0-3.3-1.1-6.1-3.4-8.4c-2.3-2.3-4.9-3.5-8-3.5
			c-3.1,0-5.7,1.1-8,3.5c-2.3,2.3-3.4,5.1-3.4,8.4c0,3.3,1.1,6.1,3.4,8.4c2.3,2.3,4.9,3.5,8,3.5c3.1,0,5.7-1.1,8-3.5
			C171.9,368.9,173.1,366.2,173.1,362.8z"/>
	</g>
	<g>
		<path class="st3" d="M198.7,376.3l-12.2-24.4h-0.8c-0.6,0-1-0.1-1.3-0.4c-0.3-0.3-0.4-0.5-0.4-0.9c0-0.3,0.1-0.5,0.2-0.7
			c0.1-0.2,0.3-0.4,0.5-0.5c0.2-0.1,0.5-0.1,1-0.1h7.2c0.6,0,1,0.1,1.3,0.4c0.3,0.2,0.4,0.6,0.4,0.9c0,0.4-0.1,0.7-0.4,0.9
			c-0.3,0.2-0.7,0.4-1.3,0.4h-3.4l10.6,21.5l10.5-21.5h-3.5c-0.6,0-1-0.1-1.3-0.4c-0.3-0.2-0.4-0.6-0.4-0.9c0-0.4,0.1-0.7,0.4-0.9
			c0.3-0.2,0.7-0.4,1.3-0.4h7.2c0.6,0,1.1,0.1,1.3,0.4c0.3,0.2,0.4,0.6,0.4,0.9s-0.1,0.5-0.2,0.7c-0.2,0.2-0.3,0.4-0.5,0.4
			c-0.2,0.1-0.8,0.1-1.7,0.1L197,385.6h4.1c0.6,0,1,0.1,1.3,0.4s0.4,0.5,0.4,0.9c0,0.4-0.1,0.7-0.4,0.9c-0.3,0.2-0.7,0.4-1.3,0.4
			h-15.1c-0.6,0-1-0.1-1.3-0.3c-0.3-0.2-0.4-0.5-0.4-0.9c0-0.4,0.1-0.7,0.4-0.9c0.3-0.2,0.7-0.4,1.3-0.4h8.2L198.7,376.3z"/>
	</g>
	<g>
		<path class="st3" d="M266.6,362v11.7h4.8c0.6,0,1.1,0.1,1.3,0.4c0.2,0.3,0.4,0.5,0.4,0.9c0,0.4-0.1,0.7-0.4,0.9
			c-0.3,0.2-0.7,0.4-1.3,0.4h-11c-0.6,0-1-0.1-1.3-0.4c-0.3-0.2-0.4-0.5-0.4-0.9c0-0.4,0.1-0.7,0.4-0.9c0.3-0.2,0.7-0.4,1.3-0.4h3.5
			v-31.2h-3.5c-0.6,0-1-0.1-1.3-0.4c-0.3-0.2-0.4-0.5-0.4-0.9c0-0.4,0.1-0.7,0.4-0.9c0.3-0.2,0.7-0.3,1.3-0.3h11
			c0.6,0,1.1,0.1,1.3,0.3c0.3,0.2,0.4,0.5,0.4,0.9c0,0.4-0.1,0.7-0.4,0.9c-0.3,0.2-0.7,0.4-1.3,0.4h-4.8v16.1l18.1-16.1h-2.9
			c-0.6,0-1.1-0.1-1.3-0.4c-0.2-0.3-0.4-0.5-0.4-0.9c0-0.4,0.1-0.7,0.4-0.9c0.3-0.2,0.7-0.3,1.3-0.3h7.7c0.6,0,1,0.1,1.3,0.3
			s0.4,0.5,0.4,0.9c0,0.4-0.1,0.7-0.4,0.9c-0.3,0.2-0.7,0.4-1.3,0.4h-1l-14.4,12.9c2.2,0.9,3.9,1.9,5.3,3.3c1.4,1.3,2.8,3.2,4.1,5.5
			c0.7,1.3,2.2,4.5,4.1,9.5h3.3c0.6,0,1.1,0.1,1.3,0.4c0.3,0.2,0.4,0.5,0.4,0.9c0,0.4-0.1,0.7-0.4,0.9c-0.3,0.2-0.7,0.4-1.3,0.4h-5
			c-2.8-7.5-5-12.3-7-14.4c-1.8-2.2-4.2-3.7-7.1-4.5L266.6,362z"/>
	</g>
	<g>
		<path class="st3" d="M327.7,363.4H301c0.4,3.4,1.8,6.1,4.3,8.2c2.5,2,5.3,3.1,8.8,3.1c1.9,0,4-0.3,6.1-0.9
			c2.2-0.6,3.9-1.5,5.2-2.6c0.4-0.3,0.7-0.5,1-0.5c0.3,0,0.6,0.1,0.9,0.4c0.2,0.3,0.4,0.6,0.4,0.9s-0.2,0.7-0.5,1
			c-1,1-2.8,2-5.3,2.9s-5.1,1.3-7.9,1.3c-4.5,0-8.2-1.4-11.3-4.4c-3-3-4.5-6.5-4.5-10.6c0-3.8,1.4-7.1,4.2-9.8
			c2.9-2.8,6.3-4.1,10.4-4.1c4.3,0,7.8,1.4,10.5,4.2C326.3,355.3,327.7,358.9,327.7,363.4z M325,360.8c-0.5-2.9-1.8-5.2-4.1-7.1
			c-2.3-1.8-4.8-2.7-7.9-2.7c-3.1,0-5.7,0.9-7.9,2.7c-2.2,1.7-3.6,4.1-4.1,7.1H325z"/>
	</g>
	<g>
		<path class="st3" d="M353.1,337.1v36.6h10.2c0.6,0,1.1,0.1,1.3,0.4c0.2,0.3,0.4,0.5,0.4,0.9c0,0.4-0.1,0.7-0.4,0.9
			c-0.3,0.2-0.7,0.4-1.3,0.4h-23.2c-0.6,0-1-0.1-1.3-0.4c-0.3-0.2-0.4-0.5-0.4-0.9c0-0.4,0.1-0.7,0.4-0.9c0.3-0.2,0.7-0.4,1.3-0.4
			h10.2v-33.9h-7.6c-0.6,0-1.1-0.1-1.3-0.4c-0.3-0.2-0.4-0.6-0.4-0.9c0-0.4,0.1-0.7,0.4-0.9c0.3-0.2,0.7-0.4,1.3-0.4L353.1,337.1
			L353.1,337.1z"/>
	</g>
	<g>
		<path class="st3" d="M391.5,337.1v36.6h10.2c0.6,0,1.1,0.1,1.3,0.4c0.2,0.3,0.4,0.5,0.4,0.9c0,0.4-0.1,0.7-0.4,0.9
			c-0.3,0.2-0.7,0.4-1.3,0.4h-23.2c-0.6,0-1-0.1-1.3-0.4c-0.3-0.2-0.4-0.5-0.4-0.9c0-0.4,0.1-0.7,0.4-0.9c0.3-0.2,0.7-0.4,1.3-0.4
			h10.2v-33.9h-7.6c-0.6,0-1.1-0.1-1.3-0.4c-0.3-0.2-0.4-0.6-0.4-0.9c0-0.4,0.1-0.7,0.4-0.9c0.3-0.2,0.7-0.4,1.3-0.4L391.5,337.1
			L391.5,337.1z"/>
	</g>
	<g>
		<path class="st3" d="M428.5,376.3l-12.2-24.4h-0.8c-0.6,0-1-0.1-1.3-0.4c-0.3-0.2-0.4-0.5-0.4-0.9c0-0.3,0.1-0.5,0.2-0.7
			c0.1-0.2,0.3-0.4,0.5-0.5c0.2-0.1,0.5-0.1,1-0.1h7.2c0.6,0,1,0.1,1.3,0.4c0.3,0.2,0.4,0.6,0.4,0.9c0,0.4-0.1,0.7-0.4,0.9
			c-0.3,0.2-0.7,0.4-1.3,0.4h-3.5l10.6,21.5l10.5-21.5h-3.5c-0.6,0-1-0.1-1.3-0.4c-0.3-0.2-0.4-0.6-0.4-0.9c0-0.4,0.1-0.7,0.4-0.9
			c0.3-0.2,0.7-0.4,1.3-0.4h7.2c0.6,0,1.1,0.1,1.3,0.4c0.3,0.2,0.4,0.6,0.4,0.9s-0.1,0.5-0.2,0.7c-0.2,0.2-0.3,0.4-0.5,0.4
			s-0.8,0.1-1.7,0.1l-16.6,33.8h4.1c0.6,0,1,0.1,1.3,0.4s0.4,0.5,0.4,0.9c0,0.4-0.1,0.7-0.4,0.9c-0.3,0.2-0.7,0.4-1.3,0.4h-15.2
			c-0.6,0-1-0.1-1.3-0.3c-0.3-0.2-0.4-0.5-0.4-0.9c0-0.4,0.1-0.7,0.4-0.9c0.3-0.2,0.7-0.4,1.3-0.4h8.2L428.5,376.3z"/>
	</g>
</g>
<rect x="-193" y="71" class="st4" width="84" height="116"/>
</svg>
