<?xml version="1.0" encoding="utf-8"?>
<!-- Generator: Adobe Illustrator 28.4.1, SVG Export Plug-In . SVG Version: 6.00 Build 0)  -->
<svg version="1.1" id="Layer_1" xmlns="http://www.w3.org/2000/svg" xmlns:xlink="http://www.w3.org/1999/xlink" x="0px" y="0px"
	 viewBox="0 0 701.4 671.8" style="enable-background:new 0 0 701.4 671.8;" xml:space="preserve">
<g>
	<path d="M152.8,620.3c0.7-5.9,0.9-11.9,2.3-17.6c1.8-7.5,3.4-15.4,7-22c3.8-7,9.8-12.9,15.1-19c8.2-9.3,7.3-19.4-2.9-26.6
		c-2.3-1.6-4.7-3.1-7.2-4.3c-10.6-5.1-19.1-12.5-25.5-22.5c-8.5-13.2-20.2-22.1-36.2-22.9c-5.3-0.3-11,2.5-16,4.9
		c-5.7,2.7-10.9,6.5-16.2,10c-3.7,2.4-7.6,4.7-10.5,7.9c-5.4,6-11.9,8.6-19.5,6.9c-2.9-0.7-6.9-4-7.2-6.5c-0.4-2.7,3-5.9,4.7-8.8
		c0.1-0.2,0.5-0.4,0.7-0.4c17,0,28.8-12.2,43.1-18.7c4.7-2.2,8.8-7.2,11.5-11.9c3.3-5.7,5.3-12.3,6.9-18.8c0.6-2.6-0.5-7.1-2.5-8.6
		c-3.5-2.5-8.4-5-12.3-4.4c-4.6,0.7-8.4,5.4-13,7.2c-4.1,1.6-9,2.7-13.2,1.9c-1.8-0.3-4.5-6.7-3.6-8.9c1.5-3.5,5.4-6.5,9-8.6
		c3.3-1.9,7.8-1.8,11.1-3.7c2.9-1.6,5-4.7,7.2-7.3c3.4-4.1,6.3-8.7,10.1-12.4c3.1-3.1,8.1-4.6,10.7-7.9c2.7-3.6,5.3-8.7,4.8-12.8
		c-0.7-6.2-6.4-9.3-12.6-8.4c-6.6,0.9-13,3.3-19.6,4.3c-3.7,0.6-7.9,0.4-11.5-0.6c-6.8-1.9-11.3-6.6-11.1-14
		c0.2-7.1,5.6-10.2,11.6-11.4c7.7-1.5,15.6-1.7,23.2-3.3c3.4-0.8,7.8-3.2,8.9-6c0.9-2.2-1.8-6.9-4.1-9.2c-7.4-7.3-15.1-14.9-27-8.4
		c-1.3,0.7-3.3,0.5-5,0.4c-4.7-0.2-11.2,0.2-10.5-6.2c0.3-2.9,6.6-7.2,10.3-7.3c5.2-0.2,10.7,2.4,15.8,4.5
		c6.3,2.6,11.1,3.1,14.2-4.7c1.1-2.9,4.1-5.2,6.6-7.3c8-6.9,7.1-15.2-2.5-19.6c-5.1-2.4-10.7-3.8-15.7-7.2c10,2.1,19.9,4.2,28.8,6
		c4.4-3.8,8.8-8.1,13.6-11.8c4.2-3.3,4.3-6.7,0.5-9.7c-5.1-3.9-10.4-7.7-16.1-10.5c-11.6-5.7-23.5-10.6-35.2-15.9
		c-2-0.9-4.4-1.6-5.9-3.1c-1.3-1.3-1.8-3.6-2.6-5.4c2-0.4,4.5-1.6,6-0.9c3.2,1.5,5.9,4.1,9,6c6.4,4,12.6,8.2,19.4,11.4
		c2.2,1,5.9-1.2,8.9-2c-1-2.9-1.2-7-3.2-8.5c-4.4-3.3-9.7-5.5-14.8-7.7c-10.8-4.7-22-8.4-32.4-13.8c-3.9-2.1-6.1-7.6-9-11.6
		c4.7,0.1,10-1.1,14,0.7c9.2,4,17.8,9.4,26.6,14.3c12.3,6.7,24.3,14,37,19.7c5,2.3,12.8,3.3,17.3,1c12.1-6.2,12.7-11.6,3.9-22.1
		c-5.5-6.5-12.7-11.7-18.3-18.1c-3.6-4.1-5.9-9.4-8.4-14.4c-0.2-0.5,3.2-3.7,3.6-3.5c4.7,3.1,11.5,5.6,13.3,10.1
		c4.5,11.2,12.4,16,23.5,17.2c7.3,0.8,13.4-1,18.6-7.2c13.8-16.6,28-32.9,35.1-53.9c3.8-11.1,4.9-21.6,1.3-33.6
		c-2.6-8.7-3.8-17.7-9.1-25.5c-0.7-1.1-0.9-2.7-1-4c-0.6-5.1-1.3-11.3,4.8-12.8c6.5-1.7,8.1,4.5,9.5,9.3c0.9,3.2,1.6,6.8,1,9.9
		c-2.6,13.6,4,25.7,6.2,38.4c0.2,1.2,1.6,2.1,5.9,6.2c1.3-2.8,1.9-6.4,4-8.3c3.2-3,7.1-5.8,11.2-7c5.6-1.7,6.1-4.3,4.9-9.3
		c-1-4-2.3-9-0.7-12.4c1.8-3.8,6.4,0.8,5.5,7c-0.2,1.7-1.2,3.3-1.1,4.9c0.9,9.4,1.5,18.8,3.5,28c0.7,3.1,5.3,7.6,7.7,7.4
		c3.8-0.4,8.4-3.5,10.4-6.8c2.6-4.4,3.3-10,4.2-15.2c2.3-13.2,4.2-26.5,6.4-39.7c1.9-11.5-1-18.3-11.3-23.6
		c-8.8-4.5-14.4-10.9-13.7-21.1c0.9-13.4,11.9-23.4,23-21.5c14.1,2.4,25.1,18.5,21,32.2c-2.1,7.2-3,13.3,0.1,20.8
		c1.7,4.2-1,10.9-3.2,15.8c-5.7,12.3-2.8,23,4.9,33c5.4,7.1,10.5,6.6,15.1-1.1c8-13.6,15.3-27.3,11.4-44.3
		c-1.2-5.4,0.2-11.7,1.6-17.3c0.7-2.8,3.9-6.6,6.3-6.8c2.9-0.3,8.1,2,8.9,4.3c2.3,6.3,4.1,13.3,3.5,19.8c-0.6,6.4-0.8,9.5,6.5,11.3
		c8.4,2.1,10.8,7.5,9.2,16c-0.8,4.4-2.5,9.1-1.7,13.2c0.7,3.8,3.4,8.3,6.6,10.3c1.6,1,7.4-2,9.2-4.6c6-8.4,10.9-17.6,16.7-26.2
		c2.2-3.3,5.5-5.8,8.3-8.7c2.5,2.7,5.6,5,7.3,8.1c6.5,11.5,20.8,13,29.3,2.9c1.6-1.9,3.3-3.9,5.4-5.2c6.5-4,12.3-1.1,12,6.4
		c-0.3,5.4-2.2,10.9-4.1,16.1c-4.5,12.3,2.6,26.5,15.2,29.4c2.3,0.5,5.2,0,7.3-1c5.5-2.7,11.1-5.6,15.9-9.3
		c11.7-8.9,16-8.2,23.4,4.9c1,1.7,1.9,3.4,2.9,5.1c7.9,13.5,17.5,14.1,26.4,1.2c3.6-5.3,5.9-11.4,9.2-17
		c5.8-9.8,14.5-14.7,25.9-13.9c11,0.8,16.7,8.2,14.7,19c-1.8,9.7-7.7,16.6-15.8,21.8c-7.3,4.7-15,8.9-21.9,14
		c-7.3,5.5-11.6,12.9-9.7,22.6c2.5,12.2,14.3,18.6,25.6,13.6c5.9-2.6,11.2-6.4,17.2-8.8c6.9-2.8,14.2-5.2,21.5-6.5
		c7.3-1.3,13.1,1.8,15.5,9.7c2.5,8.3,0.7,15.8-6.3,19.9c-6.2,3.7-13.1,6.3-19.7,9.2c-10.6,4.6-13.7,8.8-13.2,18
		c0.5,9.2,5.7,16.1,15.2,18.9c6.2,1.8,12.5,2.9,18.8,4.2c5.9,1.3,10.5,3.9,11.6,10.5c1.1,7.1-0.8,12.8-7.5,16.3
		c-5,2.6-10,5-14.9,7.7c-7.1,3.9-9.6,9.3-7.1,17.5c3.5,11.5,0.9,14.8-11.3,16.8c-2.7,0.4-5.5,1.2-8,2.4c-6.5,3.1-7.5,8.2-2.3,13.3
		c2.7,2.7,6.3,4.6,9.5,6.8c17.3,12.2,16,25-2.4,35c-7,3.8-13.2,9.9-18.5,16c-4.3,4.9-0.3,9.8,3,14.2c2.9,3.9,5.5,4.9,10.5,3.2
		c8.6-2.9,17.4,2.3,20.9,11c3.2,8-0.2,18.2-7.6,22.9c-7.4,4.7-16.7,3.1-22.8-3.8c-1.1-1.3-1.9-2.7-3.1-4.5
		c-7.5,1.5-15.3,2.5-22.7,4.8c-3.3,1-6.5,4.1-8.6,7c-2.3,3.1-3.7,7-4.7,10.7c-4.5,17.9-17.4,24.2-34.2,27.5
		c-12.7,2.5-25.2,7.1-37.1,12.5c-11.3,5.1-12.1,9.4-7.3,20.4c-0.5,0-1,0.2-1.5,0.1c-4.3-1-8.7-2-13-3c-0.1,4.8-1.2,9.9,0,14.4
		c5.6,20.8,4.6,21.8-16.5,18.2c-21.6-3.8-43.4-5.9-65.3-2c-15.3,2.7-28.5,8.3-34.3,24.7c-0.9,2.6-3.9,4.4-6,6.5c-2-2-4-4-6.1-6
		c-2.7-2.6-6.1-7.5-8.2-7.1c-3.2,0.7-6.9,4.7-8.1,8.1c-2.8,8.1-4,16.8-6.5,25.1c-0.8,2.7-3.6,4.9-5.5,7.3c-2.4-2.7-6.3-5-6.9-8
		c-1.2-5.6,0.4-11.8-0.7-17.5c-2.4-12.4-8.1-23.4-21-27.3c-16.8-5-32.8-2.9-46.4,9.4c-7.7,7-14.5,15-22.9,21
		c-7.1,5.1-15.9,7.8-23.9,11.7c-6.5,3.1-12.9,6.2-19.3,9.3C153.3,620.7,153,620.5,152.8,620.3z"/>
	<path d="M634.1,392.8c-6.8-0.7-9.9-4.6-9.6-10.8c0.3-5.8,3.6-9.5,9.6-9.5c6.6,0,9.9,4.1,9.8,10.2
		C643.9,388.7,640.1,392.3,634.1,392.8z"/>
	<path d="M479.2,546.5c6.8,4.3,13.8,8.3,20.3,13c3.4,2.4,8.4,5.9,4,10.5c-1.3,1.3-8.5-0.8-10.9-3.4c-5.4-5.8-9.5-12.8-14.1-19.3
		C478.7,546.9,479,546.7,479.2,546.5z"/>
	<path d="M153.5,620.9c-1.9,6-3.3,12.4-6.1,18c-1.2,2.5-5.2,3.7-8,5.6c0-3.3-1.3-7.5,0.2-9.7c3.7-5.3,8.8-9.7,13.3-14.5
		C153,620.5,153.3,620.7,153.5,620.9z"/>
	<path d="M52.9,271.8c10.8-4.4,16.9,2.6,23.7,6.6C69.6,274.7,59.9,282,52.9,271.8z"/>
</g>
</svg>
