<?xml version="1.0" encoding="utf-8"?>
<!-- Generator: Adobe Illustrator 28.4.1, SVG Export Plug-In . SVG Version: 6.00 Build 0)  -->
<svg version="1.1" id="Layer_1" xmlns="http://www.w3.org/2000/svg" xmlns:xlink="http://www.w3.org/1999/xlink" x="0px" y="0px"
	 viewBox="0 0 701.4 671.8" style="enable-background:new 0 0 701.4 671.8;" xml:space="preserve">
<style type="text/css">
	.st0{fill:url(#SVGID_1_);}
	.st1{fill:url(#SVGID_00000113316938462955972740000001242827051646677426_);}
	.st2{fill:url(#SVGID_00000142877994391256648110000014107755918499190915_);}
	.st3{fill:url(#SVGID_00000031206371483615855510000001435220653471178156_);}
	.st4{fill:url(#SVGID_00000183937531855558097530000010335440361303632284_);}
	.st5{fill:url(#SVGID_00000044162468766509642460000015323132103534648727_);}
	.st6{fill:url(#SVGID_00000173868076447999179630000010929282939582565256_);}
	.st7{fill:url(#SVGID_00000116915745480495818940000003582773405212260227_);}
	.st8{fill:url(#SVGID_00000095332263781985693430000011941951706730827137_);}
	.st9{fill:url(#SVGID_00000121980173831618366380000017778912609816415674_);}
	.st10{fill:url(#SVGID_00000137128296584293837900000003258442593172193413_);}
	.st11{opacity:0.8;}
	.st12{fill:url(#SVGID_00000096774777518759384770000001372774036021040568_);}
	.st13{fill:url(#SVGID_00000034066561024417794030000011983633698006968234_);}
	.st14{fill:url(#SVGID_00000137112408996706358070000014001566718516907701_);}
	.st15{fill:url(#SVGID_00000167381690810786224600000015574591858224552610_);}
	.st16{fill:url(#SVGID_00000054985243289948454390000008157501955724430471_);}
	.st17{fill:url(#SVGID_00000085209603258151831530000012077299412282769323_);}
	.st18{fill:url(#SVGID_00000013874333476735559550000001160887748452023722_);}
	.st19{fill:url(#SVGID_00000065069317208925730530000000127825757316625804_);}
	.st20{fill:url(#SVGID_00000178901677911874291510000017894872639586133429_);}
	.st21{fill:url(#SVGID_00000004543180435585307660000013944024280412067478_);}
	.st22{fill:url(#SVGID_00000131363973716638471760000016517961875338994337_);}
	.st23{fill:url(#SVGID_00000072974876792147800670000014845625495540440742_);}
	.st24{fill:url(#SVGID_00000181794274411494882670000013039336589029103764_);}
	.st25{fill:url(#SVGID_00000132068715331033160140000003207775003960458676_);}
	.st26{opacity:0.3;fill:url(#SVGID_00000133516963798210449610000007507162160897256860_);}
	.st27{fill:url(#SVGID_00000098900644153571544200000007865827997468782486_);}
	.st28{opacity:0.3;fill:url(#SVGID_00000060010212311669939960000018213575858302073278_);}
	.st29{fill:url(#SVGID_00000007410941100459500870000004007880811520741800_);}
	.st30{fill:#FFFFFF;}
</style>
<g>
	
		<linearGradient id="SVGID_1_" gradientUnits="userSpaceOnUse" x1="304.3431" y1="681.9665" x2="345.0642" y2="681.9665" gradientTransform="matrix(0.6929 0.7211 -0.7211 0.6929 357.4057 -114.6502)">
		<stop  offset="0" style="stop-color:#742E15"/>
		<stop  offset="0.17" style="stop-color:#AA802C"/>
		<stop  offset="0.319" style="stop-color:#FFEC8F"/>
		<stop  offset="0.4294" style="stop-color:#D19B31"/>
		<stop  offset="0.5521" style="stop-color:#D19B31"/>
		<stop  offset="0.6933" style="stop-color:#FFFFFF"/>
		<stop  offset="0.7914" style="stop-color:#FFEC8F"/>
		<stop  offset="1" style="stop-color:#D19B31"/>
	</linearGradient>
	<path class="st0" d="M140.4,565.1L130,554.2l-10.4-10.9c-6.2,5.5-48.4,39.2-48.4,39.2c-2.6,17.6-19.8,47.3-19.8,47.3
		s30.4-16,48.1-17.9C99.3,611.9,134.6,571.1,140.4,565.1z"/>
	<g>
		
			<linearGradient id="SVGID_00000062900577094356992950000013869783491694503057_" gradientUnits="userSpaceOnUse" x1="313.5775" y1="760.5596" x2="313.5775" y2="616.2056" gradientTransform="matrix(0.6929 0.7211 -0.7211 0.6929 357.4057 -114.6502)">
			<stop  offset="0" style="stop-color:#742E15"/>
			<stop  offset="0.17" style="stop-color:#AA802C"/>
			<stop  offset="0.32" style="stop-color:#D19B31"/>
			<stop  offset="0.4233" style="stop-color:#FFEC8F"/>
			<stop  offset="0.5521" style="stop-color:#D19B31"/>
			<stop  offset="0.8773" style="stop-color:#FFEC8F"/>
			<stop  offset="1" style="stop-color:#D19B31"/>
		</linearGradient>
		<path style="fill:url(#SVGID_00000062900577094356992950000013869783491694503057_);" d="M54.4,624.2
			C54.4,624.2,54.4,624.2,54.4,624.2c10.5-12.3,17.7-36.5,23.2-40.1c5.5-3.5,44.8-37.7,44.9-37.8l-2.9-3
			c-6.2,5.5-48.4,39.2-48.4,39.2C69.2,595.4,59.5,614.8,54.4,624.2z"/>
		
			<linearGradient id="SVGID_00000181068388055384199460000001609737904559129759_" gradientUnits="userSpaceOnUse" x1="335.7567" y1="760.5593" x2="335.7567" y2="616.2061" gradientTransform="matrix(0.6929 0.7211 -0.7211 0.6929 357.4057 -114.6502)">
			<stop  offset="0" style="stop-color:#742E15"/>
			<stop  offset="0.17" style="stop-color:#AA802C"/>
			<stop  offset="0.32" style="stop-color:#D19B31"/>
			<stop  offset="0.4233" style="stop-color:#FFEC8F"/>
			<stop  offset="0.5521" style="stop-color:#D19B31"/>
			<stop  offset="0.8773" style="stop-color:#FFEC8F"/>
			<stop  offset="1" style="stop-color:#D19B31"/>
		</linearGradient>
		<path style="fill:url(#SVGID_00000181068388055384199460000001609737904559129759_);" d="M57,626.9C57,626.9,57,626.9,57,626.9
			c12.7-10,37.2-16.2,41-21.6c3.7-5.4,39.4-43.2,39.5-43.3l2.9,3c-5.8,6-41.1,46.8-41.1,46.8C86.3,613.2,66.6,622.2,57,626.9z"/>
	</g>
	
		<linearGradient id="SVGID_00000000907637751593730330000006449464204683520388_" gradientUnits="userSpaceOnUse" x1="298.0282" y1="575.3936" x2="351.4404" y2="575.3936" gradientTransform="matrix(0.6929 0.7211 -0.7211 0.6929 357.4057 -114.6502)">
		<stop  offset="0" style="stop-color:#000000"/>
		<stop  offset="0.4969" style="stop-color:#000000"/>
		<stop  offset="0.599" style="stop-color:#404042"/>
		<stop  offset="0.7117" style="stop-color:#8A8C8F"/>
		<stop  offset="0.7315" style="stop-color:#808284"/>
		<stop  offset="0.8113" style="stop-color:#5C5D5F"/>
		<stop  offset="0.8853" style="stop-color:#424343"/>
		<stop  offset="0.9505" style="stop-color:#333333"/>
		<stop  offset="1" style="stop-color:#2D2D2D"/>
	</linearGradient>
	<path style="fill:url(#SVGID_00000000907637751593730330000006449464204683520388_);" d="M165.4,553.1c1.6-2.9,55.1-49.4,55.1-49.4
		C208.9,495.7,201,486,201,486s-9.3-8.3-16.8-20.3c0,0-48.6,51.6-51.6,53.1c-3,1.5-11,4.8-16.1,11.9c0,0,0.5,6,16.3,20.7
		c14.1,16.4,20.1,17.1,20.1,17.1C160.2,563.8,163.8,556,165.4,553.1z"/>
	
		<linearGradient id="SVGID_00000167395114950322151010000001993435031092958620_" gradientUnits="userSpaceOnUse" x1="293.6284" y1="364.9822" x2="355.8394" y2="364.9822" gradientTransform="matrix(0.6929 0.7211 -0.7211 0.6929 357.4057 -114.6502)">
		<stop  offset="0" style="stop-color:#000000"/>
		<stop  offset="0.4969" style="stop-color:#000000"/>
		<stop  offset="0.599" style="stop-color:#404042"/>
		<stop  offset="0.7117" style="stop-color:#8A8C8F"/>
		<stop  offset="0.7315" style="stop-color:#808284"/>
		<stop  offset="0.8113" style="stop-color:#5C5D5F"/>
		<stop  offset="0.8853" style="stop-color:#424343"/>
		<stop  offset="0.9505" style="stop-color:#333333"/>
		<stop  offset="1" style="stop-color:#2D2D2D"/>
	</linearGradient>
	<path style="fill:url(#SVGID_00000167395114950322151010000001993435031092958620_);" d="M455.4,282.5l-20-21.7L414.5,240
		c0,0-75,69.4-100.9,94.7c-25.9,25.3-98.2,94.8-101.6,98.6c-3.5,3.8-4.7,7.2-7,9.8c-2.3,2.7-19.7,19.8-19.7,19.8s2.8,5.7,17.7,21.2
		c14.9,15.5,20.5,18.5,20.5,18.5s17.8-16.6,20.5-18.8c2.8-2.2,6.2-3.3,10.1-6.6c3.9-3.3,76.2-72.8,102.5-97.6
		C383,354.7,455.4,282.5,455.4,282.5z"/>
	
		<linearGradient id="SVGID_00000039817706474668914390000011159417716955109564_" gradientUnits="userSpaceOnUse" x1="288.6789" y1="52.0886" x2="360.7868" y2="52.0886" gradientTransform="matrix(0.6929 0.7211 -0.7211 0.6929 357.4057 -114.6502)">
		<stop  offset="0" style="stop-color:#000000"/>
		<stop  offset="0.4969" style="stop-color:#000000"/>
		<stop  offset="0.599" style="stop-color:#404042"/>
		<stop  offset="0.7117" style="stop-color:#8A8C8F"/>
		<stop  offset="0.7315" style="stop-color:#808284"/>
		<stop  offset="0.8113" style="stop-color:#5C5D5F"/>
		<stop  offset="0.8853" style="stop-color:#424343"/>
		<stop  offset="0.9505" style="stop-color:#333333"/>
		<stop  offset="1" style="stop-color:#2D2D2D"/>
	</linearGradient>
	<path style="fill:url(#SVGID_00000039817706474668914390000011159417716955109564_);" d="M652,101.5l19.3-26.1
		c-0.7-8.2-16.7-25.3-16.7-25.3S638.2,33.5,630,32.4l-26.9,18.3c0,0-130.2,123.4-152.9,146c-22.7,22.7-38.2,40.2-38.2,40.2
		c3.1,3.7,23.3,23.8,23.3,23.8s19.3,21,22.8,24.2c0,0,18.2-14.8,41.7-36.5C523.5,226.7,652,101.5,652,101.5z"/>
	
		<linearGradient id="SVGID_00000073684087283058913040000010810428991366993588_" gradientUnits="userSpaceOnUse" x1="289.476" y1="-64.3884" x2="359.9885" y2="-64.3884" gradientTransform="matrix(0.6929 0.7211 -0.7211 0.6929 357.4057 -114.6502)">
		<stop  offset="0" style="stop-color:#625315"/>
		<stop  offset="0.2454" style="stop-color:#D4B624"/>
		<stop  offset="0.589" style="stop-color:#D4B624"/>
		<stop  offset="0.6073" style="stop-color:#D9BE35"/>
		<stop  offset="0.6632" style="stop-color:#E6D666"/>
		<stop  offset="0.706" style="stop-color:#EFE584"/>
		<stop  offset="0.7301" style="stop-color:#F2EA8F"/>
		<stop  offset="0.7477" style="stop-color:#F1E88B"/>
		<stop  offset="0.7662" style="stop-color:#EDE17E"/>
		<stop  offset="0.785" style="stop-color:#E7D769"/>
		<stop  offset="0.8039" style="stop-color:#DEC84C"/>
		<stop  offset="0.8221" style="stop-color:#D4B629"/>
		<stop  offset="1" style="stop-color:#625315"/>
	</linearGradient>
	<path style="fill:url(#SVGID_00000073684087283058913040000010810428991366993588_);" d="M652.7,100.6c0,0-6.5-14.8-20.3-29.1
		C618.7,57.1,604.2,50,604.2,50l-3.3,2.9c5.8,1.5,28.4,21.7,28.4,21.7s19.3,23.3,20.5,29.2L652.7,100.6z"/>
	
		<linearGradient id="SVGID_00000070088750821080098090000000759881245937893822_" gradientUnits="userSpaceOnUse" x1="307.4363" y1="33.8429" x2="342.0298" y2="33.8429" gradientTransform="matrix(0.6929 0.7211 -0.7211 0.6929 357.4057 -114.6502)">
		<stop  offset="0.2945" style="stop-color:#77641F"/>
		<stop  offset="0.4233" style="stop-color:#D4B624"/>
		<stop  offset="0.4504" style="stop-color:#D9BE35"/>
		<stop  offset="0.5331" style="stop-color:#E6D666"/>
		<stop  offset="0.5963" style="stop-color:#EFE584"/>
		<stop  offset="0.6319" style="stop-color:#F2EA8F"/>
		<stop  offset="0.7134" style="stop-color:#E4D15C"/>
		<stop  offset="0.7975" style="stop-color:#D4B624"/>
		<stop  offset="0.839" style="stop-color:#C6A923"/>
		<stop  offset="0.9418" style="stop-color:#A88C21"/>
		<stop  offset="1" style="stop-color:#9D8120"/>
	</linearGradient>
	<path style="fill:url(#SVGID_00000070088750821080098090000000759881245937893822_);" d="M643.6,84.7c0,0-7.4-10.7-10.8-13.6
		c-2.8-3.5-13.2-11.3-13.2-11.3S608,75.8,588.8,97.9c-19.2,22-82.2,87.8-82.2,87.8l-7,0.1c-12.7,13.1-16.4,29.1-16.4,29.1
		s16.1-3.1,29.8-15.3l0.4-7c0,0,68.3-60.3,91.1-78.6C627.1,95.7,643.6,84.7,643.6,84.7z"/>
	
		<linearGradient id="SVGID_00000160175441905453103660000018364451349915796118_" gradientUnits="userSpaceOnUse" x1="288.9072" y1="155.0654" x2="360.5536" y2="155.0654" gradientTransform="matrix(0.6929 0.7211 -0.7211 0.6929 357.4057 -114.6502)">
		<stop  offset="0" style="stop-color:#625315"/>
		<stop  offset="0.2454" style="stop-color:#D4B624"/>
		<stop  offset="0.589" style="stop-color:#D4B624"/>
		<stop  offset="0.6073" style="stop-color:#D9BE35"/>
		<stop  offset="0.6632" style="stop-color:#E6D666"/>
		<stop  offset="0.706" style="stop-color:#EFE584"/>
		<stop  offset="0.7301" style="stop-color:#F2EA8F"/>
		<stop  offset="0.7477" style="stop-color:#F1E88B"/>
		<stop  offset="0.7662" style="stop-color:#EDE17E"/>
		<stop  offset="0.785" style="stop-color:#E7D769"/>
		<stop  offset="0.8039" style="stop-color:#DEC84C"/>
		<stop  offset="0.8221" style="stop-color:#D4B629"/>
		<stop  offset="1" style="stop-color:#625315"/>
	</linearGradient>
	<path style="fill:url(#SVGID_00000160175441905453103660000018364451349915796118_);" d="M448.7,198.3c0,0,30.2,27.3,49.4,51.9
		l-6.4,5.9c0,0-31.1-35.2-49.6-51.1L448.7,198.3z"/>
	
		<linearGradient id="SVGID_00000126308332043650369950000010331750163670077332_" gradientUnits="userSpaceOnUse" x1="289.342" y1="170.4536" x2="360.1138" y2="170.4536" gradientTransform="matrix(0.6929 0.7211 -0.7211 0.6929 357.4057 -114.6502)">
		<stop  offset="0" style="stop-color:#625315"/>
		<stop  offset="0.2454" style="stop-color:#D4B624"/>
		<stop  offset="0.589" style="stop-color:#D4B624"/>
		<stop  offset="0.6073" style="stop-color:#D9BE35"/>
		<stop  offset="0.6632" style="stop-color:#E6D666"/>
		<stop  offset="0.706" style="stop-color:#EFE584"/>
		<stop  offset="0.7301" style="stop-color:#F2EA8F"/>
		<stop  offset="0.7477" style="stop-color:#F1E88B"/>
		<stop  offset="0.7662" style="stop-color:#EDE17E"/>
		<stop  offset="0.785" style="stop-color:#E7D769"/>
		<stop  offset="0.8039" style="stop-color:#DEC84C"/>
		<stop  offset="0.8221" style="stop-color:#D4B629"/>
		<stop  offset="1" style="stop-color:#625315"/>
	</linearGradient>
	<path style="fill:url(#SVGID_00000126308332043650369950000010331750163670077332_);" d="M438.2,209.1c0,0,30.6,30.2,48.8,51.2
		l-6.5,5.8c0,0-39.2-42.2-48.7-50.3L438.2,209.1z"/>
	
		<linearGradient id="SVGID_00000113324791237081294500000012037527462114999720_" gradientUnits="userSpaceOnUse" x1="298.47" y1="624.2867" x2="350.9992" y2="624.2867" gradientTransform="matrix(0.6929 0.7211 -0.7211 0.6929 357.4057 -114.6502)">
		<stop  offset="0" style="stop-color:#D4B624"/>
		<stop  offset="3.346923e-02" style="stop-color:#C6A923"/>
		<stop  offset="0.1166" style="stop-color:#A88C21"/>
		<stop  offset="0.1636" style="stop-color:#9D8120"/>
		<stop  offset="0.478" style="stop-color:#F2EA8F"/>
		<stop  offset="0.5338" style="stop-color:#EFE68B"/>
		<stop  offset="0.5921" style="stop-color:#E5DA7E"/>
		<stop  offset="0.6515" style="stop-color:#D5C669"/>
		<stop  offset="0.7117" style="stop-color:#BFAB4C"/>
		<stop  offset="0.7719" style="stop-color:#A28727"/>
		<stop  offset="0.7818" style="stop-color:#9D8120"/>
		<stop  offset="1" style="stop-color:#D4B624"/>
	</linearGradient>
	<path style="fill:url(#SVGID_00000113324791237081294500000012037527462114999720_);" d="M132.8,551.5c0,0-14.6-14.4-16.3-20.7
		c0,0-2.3,4,2.3,10.7c4.6,6.7,11.1,12.9,11.1,12.9s6,6.7,12.5,11.6c6.5,4.9,10.6,2.7,10.6,2.7C146.6,566.7,132.8,551.5,132.8,551.5z
		"/>
	<g class="st11">
		<path d="M99.7,584.5c11.9-11.6,30.8-29.7,30.8-29.7l-0.8-0.8l-0.8-0.8c0,0-18.6,18.4-30.6,30c-11.9,11.6-43.8,41.3-43.8,41.3
			c-1,1.8-3.1,5.6-3.1,5.6s3.9-2,5.7-2.9C57.2,627.1,87.8,596.1,99.7,584.5z"/>
		<path d="M92.3,594.4c-1.1,1.1-2.9,1-4-0.1c-1.1-1.1-1-2.9,0.1-4c1.1-1.1,2.9-1,4,0.1C93.4,591.5,93.4,593.3,92.3,594.4z"/>
	</g>
	<g>
		<g>
			<g>
				
					<linearGradient id="SVGID_00000018917619967942443270000011642530586822949275_" gradientUnits="userSpaceOnUse" x1="324.7332" y1="495.347" x2="324.7332" y2="500.1367" gradientTransform="matrix(0.6929 0.7211 -0.7211 0.6929 357.4057 -114.6502)">
					<stop  offset="0" style="stop-color:#6D6E71"/>
					<stop  offset="1" style="stop-color:#000000"/>
				</linearGradient>
				<path style="fill:url(#SVGID_00000018917619967942443270000011642530586822949275_);" d="M242.3,485.4
					c-14.7-12.6-27.1-25.5-39-40.7c0.9-0.9,1.4-1.4,2.3-2.3c11.9,15.2,24.4,28.2,39.1,40.8C243.8,484.1,243.3,484.5,242.3,485.4z"/>
				
					<linearGradient id="SVGID_00000152953651306959392150000015314976195419571882_" gradientUnits="userSpaceOnUse" x1="324.7349" y1="498.6533" x2="324.7349" y2="503.4429" gradientTransform="matrix(0.6929 0.7211 -0.7211 0.6929 357.4057 -114.6502)">
					<stop  offset="0" style="stop-color:#6D6E71"/>
					<stop  offset="1" style="stop-color:#000000"/>
				</linearGradient>
				<path style="fill:url(#SVGID_00000152953651306959392150000015314976195419571882_);" d="M239.9,487.6
					c-14.7-12.5-27.1-25.4-38.9-40.6c0.9-0.9,1.4-1.4,2.3-2.4c11.9,15.2,24.4,28.2,39,40.7C241.4,486.3,240.9,486.8,239.9,487.6z"/>
				
					<linearGradient id="SVGID_00000029733210818678233280000003172897561541212607_" gradientUnits="userSpaceOnUse" x1="324.7402" y1="501.9424" x2="324.7402" y2="506.7433" gradientTransform="matrix(0.6929 0.7211 -0.7211 0.6929 357.4057 -114.6502)">
					<stop  offset="0" style="stop-color:#6D6E71"/>
					<stop  offset="1" style="stop-color:#000000"/>
				</linearGradient>
				<path style="fill:url(#SVGID_00000029733210818678233280000003172897561541212607_);" d="M237.4,489.8
					c-14.6-12.4-27-25.2-38.7-40.4c0.9-0.9,1.4-1.4,2.3-2.4c11.8,15.2,24.2,28.1,38.9,40.6C238.9,488.5,238.4,489,237.4,489.8z"/>
				
					<linearGradient id="SVGID_00000015314940718291030060000008009730207302355859_" gradientUnits="userSpaceOnUse" x1="324.7447" y1="505.212" x2="324.7447" y2="510.0353" gradientTransform="matrix(0.6929 0.7211 -0.7211 0.6929 357.4057 -114.6502)">
					<stop  offset="0" style="stop-color:#6D6E71"/>
					<stop  offset="1" style="stop-color:#000000"/>
				</linearGradient>
				<path style="fill:url(#SVGID_00000015314940718291030060000008009730207302355859_);" d="M235,492
					c-14.6-12.3-26.8-25.1-38.5-40.2c0.9-0.9,1.3-1.4,2.2-2.4c11.8,15.2,24.1,28,38.7,40.4C236.5,490.7,236,491.1,235,492z"/>
				
					<linearGradient id="SVGID_00000131343895742367392500000000868260518412296110_" gradientUnits="userSpaceOnUse" x1="324.7505" y1="508.4684" x2="324.7505" y2="513.3199" gradientTransform="matrix(0.6929 0.7211 -0.7211 0.6929 357.4057 -114.6502)">
					<stop  offset="0" style="stop-color:#6D6E71"/>
					<stop  offset="1" style="stop-color:#000000"/>
				</linearGradient>
				<path style="fill:url(#SVGID_00000131343895742367392500000000868260518412296110_);" d="M232.6,494.1
					c-14.6-12.2-26.7-24.9-38.3-40c0.9-0.9,1.3-1.4,2.2-2.4c11.7,15.1,23.9,27.9,38.5,40.2C234,492.8,233.5,493.3,232.6,494.1z"/>
				
					<linearGradient id="SVGID_00000030456239843280750140000013348872739000573071_" gradientUnits="userSpaceOnUse" x1="324.757" y1="511.7185" x2="324.757" y2="516.6003" gradientTransform="matrix(0.6929 0.7211 -0.7211 0.6929 357.4057 -114.6502)">
					<stop  offset="0" style="stop-color:#6D6E71"/>
					<stop  offset="1" style="stop-color:#000000"/>
				</linearGradient>
				<path style="fill:url(#SVGID_00000030456239843280750140000013348872739000573071_);" d="M230.1,496.3
					c-14.6-12.1-26.6-24.7-38.1-39.8c0.9-0.9,1.3-1.4,2.2-2.4c11.6,15.1,23.7,27.7,38.3,40C231.6,495,231.1,495.4,230.1,496.3z"/>
				
					<linearGradient id="SVGID_00000098202198364241645730000001262841554985445277_" gradientUnits="userSpaceOnUse" x1="324.7621" y1="514.9656" x2="324.7621" y2="519.8717" gradientTransform="matrix(0.6929 0.7211 -0.7211 0.6929 357.4057 -114.6502)">
					<stop  offset="0" style="stop-color:#6D6E71"/>
					<stop  offset="1" style="stop-color:#000000"/>
				</linearGradient>
				<path style="fill:url(#SVGID_00000098202198364241645730000001262841554985445277_);" d="M227.7,498.4
					c-14.5-12.1-26.5-24.5-37.9-39.6c0.9-0.9,1.4-1.4,2.2-2.3c11.5,15.1,23.5,27.6,38.1,39.8C229.1,497.1,228.7,497.6,227.7,498.4z"
					/>
				
					<linearGradient id="SVGID_00000160878363925566758430000006311311380218122938_" gradientUnits="userSpaceOnUse" x1="324.7677" y1="518.211" x2="324.7677" y2="523.1397" gradientTransform="matrix(0.6929 0.7211 -0.7211 0.6929 357.4057 -114.6502)">
					<stop  offset="0" style="stop-color:#6D6E71"/>
					<stop  offset="1" style="stop-color:#000000"/>
				</linearGradient>
				<path style="fill:url(#SVGID_00000160878363925566758430000006311311380218122938_);" d="M225.3,500.6
					c-14.5-12-26.4-24.4-37.8-39.4c0.9-0.9,1.4-1.4,2.3-2.3c11.4,15.1,23.4,27.5,37.9,39.6C226.7,499.3,226.2,499.7,225.3,500.6z"/>
				
					<linearGradient id="SVGID_00000156569836918003577110000009125415289369127863_" gradientUnits="userSpaceOnUse" x1="324.7724" y1="521.4561" x2="324.7724" y2="526.4015" gradientTransform="matrix(0.6929 0.7211 -0.7211 0.6929 357.4057 -114.6502)">
					<stop  offset="0" style="stop-color:#6D6E71"/>
					<stop  offset="1" style="stop-color:#000000"/>
				</linearGradient>
				<path style="fill:url(#SVGID_00000156569836918003577110000009125415289369127863_);" d="M222.9,502.8
					c-14.5-12-26.4-24.4-37.7-39.4c0.9-0.9,1.4-1.4,2.3-2.3c11.3,15,23.3,27.4,37.8,39.4C224.3,501.5,223.8,501.9,222.9,502.8z"/>
			</g>
			
				<linearGradient id="SVGID_00000160192863244842963880000006731177034204716932_" gradientUnits="userSpaceOnUse" x1="3423.7805" y1="-64.8442" x2="3480.3135" y2="-64.8442" gradientTransform="matrix(-0.6929 -0.7211 0.7211 -0.6929 2652.7463 2917.8015)">
				<stop  offset="0" style="stop-color:#000000"/>
				<stop  offset="3.054276e-03" style="stop-color:#050505"/>
				<stop  offset="4.741807e-02" style="stop-color:#464646"/>
				<stop  offset="9.110225e-02" style="stop-color:#7E7E7E"/>
				<stop  offset="0.133" style="stop-color:#ACACAC"/>
				<stop  offset="0.1728" style="stop-color:#D0D0D0"/>
				<stop  offset="0.2099" style="stop-color:#EAEAEA"/>
				<stop  offset="0.2433" style="stop-color:#FAFAFA"/>
				<stop  offset="0.2699" style="stop-color:#FFFFFF"/>
				<stop  offset="0.3084" style="stop-color:#ECECEC"/>
				<stop  offset="0.458" style="stop-color:#A5A5A5"/>
				<stop  offset="0.5992" style="stop-color:#6A6A6A"/>
				<stop  offset="0.728" style="stop-color:#3C3C3C"/>
				<stop  offset="0.8418" style="stop-color:#1B1B1B"/>
				<stop  offset="0.9363" style="stop-color:#070707"/>
				<stop  offset="1" style="stop-color:#000000"/>
			</linearGradient>
			<path style="fill:url(#SVGID_00000160192863244842963880000006731177034204716932_);" d="M205.6,442.4
				c12,15.2,24.4,28.2,39.1,40.8c-8.5,8-13.1,11.3-21.5,19.3c-15.1-11.1-26.4-24.4-37.7-39.4C193.8,455,197.3,450.5,205.6,442.4z"/>
		</g>
	</g>
	
		<linearGradient id="SVGID_00000142153850096935840080000016374392592631845271_" gradientUnits="userSpaceOnUse" x1="297.1873" y1="527.8938" x2="352.2805" y2="527.8938" gradientTransform="matrix(0.6929 0.7211 -0.7211 0.6929 357.4057 -114.6502)">
		<stop  offset="0" style="stop-color:#D4B624"/>
		<stop  offset="3.346923e-02" style="stop-color:#C6A923"/>
		<stop  offset="0.1166" style="stop-color:#A88C21"/>
		<stop  offset="0.1636" style="stop-color:#9D8120"/>
		<stop  offset="0.478" style="stop-color:#F2EA8F"/>
		<stop  offset="0.5338" style="stop-color:#EFE68B"/>
		<stop  offset="0.5921" style="stop-color:#E5DA7E"/>
		<stop  offset="0.6515" style="stop-color:#D5C669"/>
		<stop  offset="0.7117" style="stop-color:#BFAB4C"/>
		<stop  offset="0.7719" style="stop-color:#A28727"/>
		<stop  offset="0.7818" style="stop-color:#9D8120"/>
		<stop  offset="1" style="stop-color:#D4B624"/>
	</linearGradient>
	<path style="fill:url(#SVGID_00000142153850096935840080000016374392592631845271_);" d="M202.9,484.2c0,0-15.8-16.8-17.6-21.3
		l-2.9,4.8c0,0,8.2,11.9,16.7,20.2c8,8.8,19.5,17.5,19.5,17.5l4.9-2.8C219,500.7,202.9,484.2,202.9,484.2z"/>
	
		<linearGradient id="SVGID_00000180361741085688888610000006805174557754446768_" gradientUnits="userSpaceOnUse" x1="320.6075" y1="528.9965" x2="326.7359" y2="528.9965" gradientTransform="matrix(0.6929 0.7211 -0.7211 0.6929 357.4057 -114.6502)">
		<stop  offset="0" style="stop-color:#FFFFFF;stop-opacity:0"/>
		<stop  offset="2.161473e-03" style="stop-color:#FCFCFC;stop-opacity:4.322946e-03"/>
		<stop  offset="4.244468e-02" style="stop-color:#C8C8C8;stop-opacity:8.488935e-02"/>
		<stop  offset="8.487543e-02" style="stop-color:#999999;stop-opacity:0.1698"/>
		<stop  offset="0.1294" style="stop-color:#707070;stop-opacity:0.2589"/>
		<stop  offset="0.176" style="stop-color:#4D4D4D;stop-opacity:0.352"/>
		<stop  offset="0.2252" style="stop-color:#313131;stop-opacity:0.4504"/>
		<stop  offset="0.2779" style="stop-color:#1B1B1B;stop-opacity:0.5557"/>
		<stop  offset="0.3357" style="stop-color:#0C0C0C;stop-opacity:0.6714"/>
		<stop  offset="0.4027" style="stop-color:#030303;stop-opacity:0.8053"/>
		<stop  offset="0.5" style="stop-color:#000000"/>
		<stop  offset="0.5673" style="stop-color:#040404;stop-opacity:0.8815"/>
		<stop  offset="0.6307" style="stop-color:#0F0F0F;stop-opacity:0.77"/>
		<stop  offset="0.6925" style="stop-color:#222222;stop-opacity:0.6612"/>
		<stop  offset="0.7534" style="stop-color:#3D3D3D;stop-opacity:0.554"/>
		<stop  offset="0.8136" style="stop-color:#5F5F5F;stop-opacity:0.448"/>
		<stop  offset="0.8733" style="stop-color:#8A8A8A;stop-opacity:0.3429"/>
		<stop  offset="0.9326" style="stop-color:#BCBCBC;stop-opacity:0.2386"/>
		<stop  offset="0.9902" style="stop-color:#F5F5F5;stop-opacity:0.1372"/>
		<stop  offset="1" style="stop-color:#FFFFFF;stop-opacity:0.12"/>
	</linearGradient>
	<polygon style="fill:url(#SVGID_00000180361741085688888610000006805174557754446768_);" points="200,489.7 195.8,485.3 
		200.4,480.9 204.6,485.3 	"/>
	
		<linearGradient id="SVGID_00000063592678462943624680000011859197645645824668_" gradientUnits="userSpaceOnUse" x1="315.8401" y1="154.5136" x2="331.5038" y2="154.5136" gradientTransform="matrix(0.6929 0.7211 -0.7211 0.6929 357.4057 -114.6502)">
		<stop  offset="0" style="stop-color:#FFFFFF;stop-opacity:0"/>
		<stop  offset="2.161473e-03" style="stop-color:#FCFCFC;stop-opacity:4.322946e-03"/>
		<stop  offset="4.244468e-02" style="stop-color:#C8C8C8;stop-opacity:8.488935e-02"/>
		<stop  offset="8.487543e-02" style="stop-color:#999999;stop-opacity:0.1698"/>
		<stop  offset="0.1294" style="stop-color:#707070;stop-opacity:0.2589"/>
		<stop  offset="0.176" style="stop-color:#4D4D4D;stop-opacity:0.352"/>
		<stop  offset="0.2252" style="stop-color:#313131;stop-opacity:0.4504"/>
		<stop  offset="0.2779" style="stop-color:#1B1B1B;stop-opacity:0.5557"/>
		<stop  offset="0.3357" style="stop-color:#0C0C0C;stop-opacity:0.6714"/>
		<stop  offset="0.4027" style="stop-color:#030303;stop-opacity:0.8053"/>
		<stop  offset="0.5" style="stop-color:#000000"/>
		<stop  offset="0.5673" style="stop-color:#040404;stop-opacity:0.8815"/>
		<stop  offset="0.6307" style="stop-color:#0F0F0F;stop-opacity:0.77"/>
		<stop  offset="0.6925" style="stop-color:#222222;stop-opacity:0.6612"/>
		<stop  offset="0.7534" style="stop-color:#3D3D3D;stop-opacity:0.554"/>
		<stop  offset="0.8136" style="stop-color:#5F5F5F;stop-opacity:0.448"/>
		<stop  offset="0.8733" style="stop-color:#8A8A8A;stop-opacity:0.3429"/>
		<stop  offset="0.9326" style="stop-color:#BCBCBC;stop-opacity:0.2386"/>
		<stop  offset="0.9902" style="stop-color:#F5F5F5;stop-opacity:0.1372"/>
		<stop  offset="1" style="stop-color:#FFFFFF;stop-opacity:0.12"/>
	</linearGradient>
	<polygon style="fill:url(#SVGID_00000063592678462943624680000011859197645645824668_);" points="471.9,235.1 461.1,223.8 
		468.6,216.5 479.4,227.8 	"/>
	
		<linearGradient id="SVGID_00000076593376886737011930000013868058304363522188_" gradientUnits="userSpaceOnUse" x1="315.8408" y1="169.975" x2="331.5034" y2="169.975" gradientTransform="matrix(0.6929 0.7211 -0.7211 0.6929 357.4057 -114.6502)">
		<stop  offset="0" style="stop-color:#FFFFFF;stop-opacity:0"/>
		<stop  offset="2.161473e-03" style="stop-color:#FCFCFC;stop-opacity:4.322946e-03"/>
		<stop  offset="4.244468e-02" style="stop-color:#C8C8C8;stop-opacity:8.488935e-02"/>
		<stop  offset="8.487543e-02" style="stop-color:#999999;stop-opacity:0.1698"/>
		<stop  offset="0.1294" style="stop-color:#707070;stop-opacity:0.2589"/>
		<stop  offset="0.176" style="stop-color:#4D4D4D;stop-opacity:0.352"/>
		<stop  offset="0.2252" style="stop-color:#313131;stop-opacity:0.4504"/>
		<stop  offset="0.2779" style="stop-color:#1B1B1B;stop-opacity:0.5557"/>
		<stop  offset="0.3357" style="stop-color:#0C0C0C;stop-opacity:0.6714"/>
		<stop  offset="0.4027" style="stop-color:#030303;stop-opacity:0.8053"/>
		<stop  offset="0.5" style="stop-color:#000000"/>
		<stop  offset="0.5673" style="stop-color:#040404;stop-opacity:0.8815"/>
		<stop  offset="0.6307" style="stop-color:#0F0F0F;stop-opacity:0.77"/>
		<stop  offset="0.6925" style="stop-color:#222222;stop-opacity:0.6612"/>
		<stop  offset="0.7534" style="stop-color:#3D3D3D;stop-opacity:0.554"/>
		<stop  offset="0.8136" style="stop-color:#5F5F5F;stop-opacity:0.448"/>
		<stop  offset="0.8733" style="stop-color:#8A8A8A;stop-opacity:0.3429"/>
		<stop  offset="0.9326" style="stop-color:#BCBCBC;stop-opacity:0.2386"/>
		<stop  offset="0.9902" style="stop-color:#F5F5F5;stop-opacity:0.1372"/>
		<stop  offset="1" style="stop-color:#FFFFFF;stop-opacity:0.12"/>
	</linearGradient>
	<polygon style="fill:url(#SVGID_00000076593376886737011930000013868058304363522188_);" points="460.8,245.8 449.9,234.5 
		457.4,227.3 468.3,238.6 	"/>
	<g>
		
			<linearGradient id="SVGID_00000003105906918389442170000016792897344616758421_" gradientUnits="userSpaceOnUse" x1="307.4363" y1="32.6835" x2="324.7321" y2="32.6835" gradientTransform="matrix(0.6929 0.7211 -0.7211 0.6929 357.4057 -114.6502)">
			<stop  offset="0" style="stop-color:#9D8120"/>
			<stop  offset="0.362" style="stop-color:#D4B624"/>
			<stop  offset="0.3799" style="stop-color:#D9BE35"/>
			<stop  offset="0.4346" style="stop-color:#E6D666"/>
			<stop  offset="0.4764" style="stop-color:#EFE584"/>
			<stop  offset="0.5" style="stop-color:#F2EA8F"/>
			<stop  offset="0.5281" style="stop-color:#F1E88B"/>
			<stop  offset="0.5575" style="stop-color:#EDE27E"/>
			<stop  offset="0.5875" style="stop-color:#E7D869"/>
			<stop  offset="0.6178" style="stop-color:#DFC94C"/>
			<stop  offset="0.6482" style="stop-color:#D5B727"/>
			<stop  offset="0.6503" style="stop-color:#D4B624"/>
			<stop  offset="0.7218" style="stop-color:#C6A923"/>
			<stop  offset="0.8994" style="stop-color:#A88C21"/>
			<stop  offset="1" style="stop-color:#9D8120"/>
		</linearGradient>
		<path style="opacity:0.3;fill:url(#SVGID_00000003105906918389442170000016792897344616758421_);" d="M632.9,71
			c-2.8-3.5-13.2-11.3-13.2-11.3S608,75.8,588.8,97.9c-19.2,22-82.2,87.8-82.2,87.8l-7,0.1c-9.6,9.9-14.1,21.5-15.7,26.5
			c3.8-11.4,14.5-24.5,15.6-25.4c1.2-1,8.1,0.7,8.8,0.3c0.7-0.4,84.3-87.9,112.5-123.4C622.6,61.5,632.9,71,632.9,71z"/>
		
			<linearGradient id="SVGID_00000068634875033638807570000002007249221080836480_" gradientUnits="userSpaceOnUse" x1="324.37" y1="137.3863" x2="324.7326" y2="137.3863" gradientTransform="matrix(0.6929 0.7211 -0.7211 0.6929 357.4057 -114.6502)">
			<stop  offset="0" style="stop-color:#9D8120"/>
			<stop  offset="0.362" style="stop-color:#D4B624"/>
			<stop  offset="0.3799" style="stop-color:#D9BE35"/>
			<stop  offset="0.4346" style="stop-color:#E6D666"/>
			<stop  offset="0.4764" style="stop-color:#EFE584"/>
			<stop  offset="0.5" style="stop-color:#F2EA8F"/>
			<stop  offset="0.5281" style="stop-color:#F1E88B"/>
			<stop  offset="0.5575" style="stop-color:#EDE27E"/>
			<stop  offset="0.5875" style="stop-color:#E7D869"/>
			<stop  offset="0.6178" style="stop-color:#DFC94C"/>
			<stop  offset="0.6482" style="stop-color:#D5B727"/>
			<stop  offset="0.6503" style="stop-color:#D4B624"/>
			<stop  offset="0.7218" style="stop-color:#C6A923"/>
			<stop  offset="0.8994" style="stop-color:#A88C21"/>
			<stop  offset="1" style="stop-color:#9D8120"/>
		</linearGradient>
		<path style="fill:url(#SVGID_00000068634875033638807570000002007249221080836480_);" d="M483.1,214.9c0.1-0.2,0.1-0.4,0.2-0.7
			C483.2,214.7,483.1,214.9,483.1,214.9z"/>
	</g>
	<g>
		
			<linearGradient id="SVGID_00000140014239849895420470000008944121050577785988_" gradientUnits="userSpaceOnUse" x1="2893.8389" y1="121.2849" x2="2893.8389" y2="-63.6468" gradientTransform="matrix(-0.6929 -0.7211 -0.7211 0.6929 2593.5862 2212.4609)">
			<stop  offset="0" style="stop-color:#F2EA8F"/>
			<stop  offset="7.579665e-02" style="stop-color:#F1E88B"/>
			<stop  offset="0.155" style="stop-color:#EDE27E"/>
			<stop  offset="0.2357" style="stop-color:#E7D869"/>
			<stop  offset="0.3174" style="stop-color:#DFC94C"/>
			<stop  offset="0.3993" style="stop-color:#D5B727"/>
			<stop  offset="0.4049" style="stop-color:#D4B624"/>
			<stop  offset="0.5266" style="stop-color:#C6A923"/>
			<stop  offset="0.8288" style="stop-color:#A88C21"/>
			<stop  offset="1" style="stop-color:#9D8120"/>
		</linearGradient>
		<path style="opacity:0.3;fill:url(#SVGID_00000140014239849895420470000008944121050577785988_);" d="M632.9,71
			c3.4,3,10.8,13.6,10.8,13.6s-16.5,11-39.3,29.3c-22.8,18.3-91.1,78.6-91.1,78.6l-0.4,7c-10.3,9.2-22,13.2-27.2,14.6
			c11.5-3.3,25-13.5,26-14.6c1.1-1.2-0.4-8.1,0.1-8.8c0.5-0.7,91.9-79.8,127.8-107.5C641.9,81.6,632.9,71,632.9,71z"/>
		
			<linearGradient id="SVGID_00000074409455766805030480000003942391825896895902_" gradientUnits="userSpaceOnUse" x1="2902.3044" y1="121.2751" x2="2902.3044" y2="-63.7711" gradientTransform="matrix(-0.6929 -0.7211 -0.7211 0.6929 2593.5862 2212.4609)">
			<stop  offset="0" style="stop-color:#F2EA8F"/>
			<stop  offset="7.579665e-02" style="stop-color:#F1E88B"/>
			<stop  offset="0.155" style="stop-color:#EDE27E"/>
			<stop  offset="0.2357" style="stop-color:#E7D869"/>
			<stop  offset="0.3174" style="stop-color:#DFC94C"/>
			<stop  offset="0.3993" style="stop-color:#D5B727"/>
			<stop  offset="0.4049" style="stop-color:#D4B624"/>
			<stop  offset="0.5266" style="stop-color:#C6A923"/>
			<stop  offset="0.8288" style="stop-color:#A88C21"/>
			<stop  offset="1" style="stop-color:#9D8120"/>
		</linearGradient>
		<path style="fill:url(#SVGID_00000074409455766805030480000003942391825896895902_);" d="M483.1,214.9c0.2,0,0.5-0.1,0.7-0.1
			C483.4,214.9,483.1,214.9,483.1,214.9z"/>
	</g>
	<path class="st30" d="M486.3,212.8L631.8,72.5c0,0,7.8,8.5,4.6,11.1C630.3,88.5,510.7,191,510.7,191s0.9,6.7-0.6,8.2
		C503.7,205.5,486.3,212.8,486.3,212.8z"/>
</g>
</svg>
