<?xml version="1.0" encoding="utf-8"?>
<!-- Generator: Adobe Illustrator 22.0.0, SVG Export Plug-In . SVG Version: 6.00 Build 0)  -->
<svg version="1.1" id="Icon" xmlns="http://www.w3.org/2000/svg" xmlns:xlink="http://www.w3.org/1999/xlink" x="0px" y="0px"
	 viewBox="0 0 48 48" style="enable-background:new 0 0 48 48;" xml:space="preserve">
<style type="text/css">
	.st0{fill:url(#SVGID_1_);}
	.st1{fill:#FFFFFF;}
</style>
<linearGradient id="SVGID_1_" gradientUnits="userSpaceOnUse" x1="-227.7248" y1="471.541" x2="-227.7248" y2="478.1617" gradientTransform="matrix(7.2338 0 0 7.2338 1671.24 -3410.9497)">
	<stop  offset="0" style="stop-color:#4B71B8"/>
	<stop  offset="1" style="stop-color:#293F7E"/>
</linearGradient>
<path class="st0" d="M47.9,42c0,3.3-2.7,6-6,6h-36c-3.3,0-6-2.7-6-6V6.1c0-3.3,2.7-6,6-6h36c3.3,0,6,2.7,6,6V42z"/>
<path class="st1" d="M39.6,9.4c0,0-3.7,0-6.2,0c-3.7,0-7.7,1.5-7.7,6.8c0,1.8,0,3.6,0,5.6h-4.2v6.7h4.4V48h8V28.5h5.3l0.5-6.6h-5.9
	c0,0,0-2.9,0-3.8c0-2.1,2.2-2,2.3-2c1,0,3.1,0,3.6,0L39.6,9.4L39.6,9.4L39.6,9.4z"/>
</svg>
