<?xml version="1.0" encoding="utf-8"?>
<!-- Generator: Adobe Illustrator 22.0.0, SVG Export Plug-In . SVG Version: 6.00 Build 0)  -->
<svg version="1.1" id="Layer_1" xmlns="http://www.w3.org/2000/svg" xmlns:xlink="http://www.w3.org/1999/xlink" x="0px" y="0px"
	 viewBox="0 0 611.3 612" style="enable-background:new 0 0 611.3 612;" xml:space="preserve">
<style type="text/css">
	.st0{fill:url(#path42_2_);}
	.st1{fill:#FFFFFF;}
</style>
<g id="g24_1_">
	<g id="g26_1_">
		<g id="g32_1_">
			<g id="g34_1_">
				
					<linearGradient id="path42_2_" gradientUnits="userSpaceOnUse" x1="0.9997" y1="612.0809" x2="612.941" y2="612.0809" gradientTransform="matrix(0 -730.0437 -730.0437 0 447151.75 1341.7943)">
					<stop  offset="0" style="stop-color:#25CF43"/>
					<stop  offset="1" style="stop-color:#61FD7D"/>
				</linearGradient>
				<path id="path42_1_" class="st0" d="M139.1,0.3c-13.6,0.5-31.2,1.6-39.2,3.2C87.7,5.9,76.2,9.7,66.6,14.6
					c-11.3,5.7-21.4,13.1-30.1,21.8C27.8,45,20.4,55.1,14.7,66.4c-4.9,9.5-8.6,21-11.1,33.1c-1.6,8.1-2.7,25.8-3.2,39.5
					C0.2,144.7,0,151.9,0,155.3l0,301.4c0,3.3,0.1,10.6,0.3,16.2c0.5,13.6,1.6,31.2,3.2,39.2c2.5,12.2,6.2,23.7,11.1,33.3
					c5.7,11.3,13.1,21.4,21.8,30.1c8.7,8.7,18.8,16.1,30.1,21.8c9.5,4.9,21,8.6,33.1,11.1c8.1,1.6,25.8,2.7,39.5,3.2
					c5.6,0.2,12.9,0.3,16.2,0.3l301.4,0c3.3,0,10.6-0.1,16.2-0.3c13.6-0.5,31.2-1.6,39.2-3.2c12.2-2.5,23.7-6.2,33.3-11.1
					c11.3-5.7,21.4-13.1,30.1-21.8c8.7-8.7,16.1-18.8,21.8-30.1c4.9-9.5,8.6-21,11.1-33.1c1.6-8.1,2.7-25.8,3.2-39.5
					c0.2-5.6,0.3-12.9,0.3-16.2l0-301.4c0-3.3-0.1-10.6-0.3-16.2c-0.5-13.6-1.6-31.2-3.2-39.2c-2.5-12.2-6.2-23.7-11.1-33.3
					c-5.7-11.3-13.1-21.4-21.8-30.1c-8.7-8.7-18.8-16.1-30.1-21.8c-9.5-4.9-21-8.6-33.1-11.1c-8.1-1.6-25.8-2.7-39.5-3.2
					C467.3,0.1,460.1,0,456.7,0L155.3,0C152,0,144.7,0.1,139.1,0.3"/>
			</g>
		</g>
	</g>
</g>
<path id="path54_1_" class="st1" d="M412,346.3c-5.5-2.7-32.3-15.9-37.3-17.7c-5-1.8-8.6-2.7-12.3,2.7c-3.6,5.5-14.1,17.7-17.3,21.4
	c-3.2,3.6-6.4,4.1-11.8,1.4c-5.5-2.7-23-8.5-43.8-27c-16.2-14.4-27.1-32.3-30.3-37.7c-3.2-5.5-0.3-8.4,2.4-11.1
	c2.5-2.4,5.4-6.4,8.2-9.5c2.7-3.2,3.6-5.5,5.5-9.1c1.8-3.6,0.9-6.8-0.5-9.5c-1.4-2.7-12.3-29.5-16.8-40.5
	c-4.4-10.6-8.9-9.2-12.3-9.4c-3.2-0.2-6.8-0.2-10.4-0.2s-9.5,1.4-14.5,6.8c-5,5.5-19.1,18.6-19.1,45.5c0,26.8,19.5,52.7,22.3,56.4
	c2.7,3.6,38.4,58.7,93.1,82.3c13,5.6,23.2,9,31.1,11.5c13.1,4.1,24.9,3.6,34.3,2.2c10.5-1.6,32.3-13.2,36.8-25.9
	c4.5-12.7,4.5-23.6,3.1-25.9C421,350.4,417.4,349,412,346.3 M312.5,482.1L312.5,482.1c-32.6,0-64.5-8.7-92.4-25.3l-6.6-3.9l-68.6,18
	l18.3-66.9l-4.3-6.9c-18.1-28.9-27.7-62.2-27.7-96.5c0-99.9,81.4-181.3,181.4-181.3c48.4,0,93.9,18.9,128.1,53.2
	c34.3,34.3,53.2,79.8,53.1,128.3C493.8,400.8,412.4,482.1,312.5,482.1 M466.8,146.5c-41.2-41.2-96-63.9-154.3-64
	c-120.3,0-218.1,97.8-218.2,218.1c0,38.4,10,76,29.1,109l-31,113l115.7-30.3c31.9,17.4,67.7,26.5,104.2,26.5h0.1h0
	c120.2,0,218.1-97.8,218.2-218.1C530.6,242.4,508,187.6,466.8,146.5"/>
</svg>
