<?xml version="1.0" encoding="utf-8"?>
<!-- Generator: Adobe Illustrator 25.1.0, SVG Export Plug-In . SVG Version: 6.00 Build 0)  -->
<svg version="1.1" id="Layer_1" xmlns="http://www.w3.org/2000/svg" xmlns:xlink="http://www.w3.org/1999/xlink" x="0px" y="0px"
	 viewBox="0 0 500 500" style="enable-background:new 0 0 500 500;" xml:space="preserve">
<style type="text/css">
	.st0{fill:#173552;stroke:#173552;stroke-width:0.5;stroke-miterlimit:10;}
	.st1{fill:#84B026;}
	.st2{fill:#A64208;}
</style>
<g>
	<path class="st0" d="M394.27,177.48c5.68-1.08,10.75-6.29,15.21-15.61c4.46-9.33,6.69-19.67,6.69-31.03v-43.4
		c0-13.52-4.46-25.28-13.38-35.28c-8.92-10-20.01-15.68-33.26-17.03H242.18c-2.17,0-4.46,0.95-6.89,2.84
		c-1.21,1.21-2.03,2.59-2.47,4.13c8.24,5.96,15.18,13.36,20.7,22.1c7.44,11.79,11.36,25,11.67,39.26l0,0.15l-0.81,59.05
		c-0.01,6.49-1.84,11.68-5.42,15.43c-3.64,3.82-8.24,5.84-13.31,5.84c-2.65,0-5.13-0.55-7.36-1.64l-5.85-2.73v0.7
		c9.06,6.16,16.8,13.81,23.09,22.83c8.02,11.52,12.09,26.04,12.09,43.15c0,8.84,0.06,14.72,0.2,17.98c0.14,3.72,0.21,6.11,0.21,7.52
		v11.66l0,0.11c-0.3,12.04-3.1,23.73-8.33,34.74c-5.35,11.25-13.36,20.52-23.81,27.58c2.21,1.6,4.31,2.4,6.3,2.4h44.03h81.29
		c10.27-0.81,19.8-4.12,28.59-9.94c8.78-5.81,15.75-13.31,20.89-22.51c5.13-9.19,7.71-19.06,7.71-29.61V229.8
		C424.68,203.84,414.54,186.4,394.27,177.48z M299.72,106.38c0.02-5.45,0.05-10.9,0.09-16.35c0-0.48,0.06-0.95,0.1-1.47
		c0.93,0.11,1.8,0.2,2.66,0.32c1.24,0.17,2.47,0.38,3.7,0.55c0.68,0.1,1.36,0.16,2.04,0.25c0.76,0.1,1.51,0.23,2.27,0.34
		c0.52,0.08,1.04,0.16,1.57,0.22c0.38,0.04,0.44,0.26,0.44,0.6c-0.01,6.5,0,13,0,19.5c0,1.77,0,3.53,0,5.39c-0.95,0-1.84,0-2.72,0
		c-1.48,0-2.95,0-4.43-0.01c-1.61-0.01-3.23-0.01-4.84-0.04c-0.88-0.02-0.88-0.03-0.88-0.91
		C299.71,111.99,299.71,109.18,299.72,106.38z M299.83,146.37c0-2.89-0.02-5.77-0.03-8.66c-0.03-5.21-0.06-10.42-0.08-15.63
		c0-0.7,0.01-1.41,0-2.11c-0.01-0.33,0.11-0.46,0.44-0.46c3.99,0.01,7.98,0.01,11.97,0c0.48,0,0.45,0.29,0.45,0.61
		c0,3.96,0,7.91,0,11.87c0,0.09,0,0.17,0,0.26c0,0,0,0,0,0c0,3.99,0,7.98,0,11.97c0,0.7-0.17,0.87-0.88,0.95
		c-1.25,0.13-2.51,0.27-3.76,0.43c-1.96,0.26-3.92,0.54-5.88,0.82c-0.61,0.09-1.22,0.19-1.82,0.29
		C299.95,146.76,299.84,146.69,299.83,146.37z M358.99,319.09c-17.37,0-34.74,0-52.11,0c-0.01-0.06-0.03-0.11-0.04-0.17
		c3.09-0.95,6.18-1.9,9.27-2.85c10.67-3.28,21.34-6.56,32.03-9.81c0.78-0.24,1.03-0.56,1.03-1.35c-0.02-30.53-0.02-61.06,0-91.59
		c0-0.86-0.26-1.24-1.1-1.55c-14.91-5.48-29.81-10.99-44.71-16.5c-0.33-0.12-0.65-0.27-0.94-0.55c18.83,0,37.66,0,56.58,0
		C358.99,236.16,358.99,277.58,358.99,319.09z M329.08,256.93c-0.01-2.68,2.18-4.83,4.96-4.85c2.84-0.03,5.09,2.12,5.1,4.84
		c0,2.67-2.21,4.84-4.96,4.87C331.35,261.81,329.09,259.65,329.08,256.93z M359.79,112c0,11.84,0,23.67,0,35.51
		c0,1.55-0.05,3.09-0.07,4.64c0,0.17,0.04,0.33,0.07,0.54c-19.62,0-39.22,0-58.81,0c-0.02-0.1-0.04-0.23-0.07-0.41
		c0.66-0.11,1.33-0.23,2-0.32c1.8-0.25,3.6-0.49,5.39-0.74c1.17-0.16,2.35-0.31,3.52-0.48c1.3-0.18,2.6-0.39,3.91-0.57
		c1.68-0.23,3.37-0.42,5.05-0.65c1.27-0.17,2.54-0.39,3.81-0.57c1.09-0.16,2.18-0.29,3.27-0.44c1.35-0.19,2.71-0.4,4.06-0.59
		c1.2-0.16,2.41-0.29,3.62-0.46c0.91-0.13,1.83-0.25,2.73-0.45c0.2-0.04,0.43-0.39,0.46-0.63c0.07-0.49,0.02-0.99,0.02-1.49
		c0-10.77,0-21.54,0-32.32c0-1.55-0.01-3.1,0-4.65c0.03-6.24,0.05-12.49,0.09-18.73c0-0.26,0.1-0.52,0.17-0.82
		c-1.53-0.25-3.1-0.52-4.67-0.75c-1.2-0.18-2.41-0.29-3.61-0.46c-1.66-0.23-3.33-0.48-4.99-0.71c-1.21-0.17-2.42-0.3-3.62-0.47
		c-1.7-0.24-3.39-0.51-5.09-0.76c-0.75-0.11-1.5-0.17-2.25-0.27c-1.19-0.16-2.37-0.35-3.56-0.5c-1.37-0.18-2.75-0.34-4.12-0.53
		c-1.15-0.16-2.29-0.37-3.44-0.54c-0.71-0.11-1.43-0.17-2.14-0.27c-0.3-0.04-0.7,0.01-0.66-0.57c0.23,0,0.45,0,0.67,0
		c19.2,0,38.41,0,57.61,0c0.7,0,0.69,0,0.63,0.66c-0.02,0.22-0.01,0.45-0.01,0.67C359.78,93.25,359.79,102.63,359.79,112z
		 M330.98,97.85c0,1.27,0,2.55,0,3.82c0,2.6,0.01,5.2,0,7.79c-0.01,1.77-0.06,3.53-0.09,5.3c0,0.05,0,0.1,0,0.15
		c0.03,0.84,0.03,0.84-0.85,0.84c-1.56,0-3.12,0-4.69,0c-2.23,0-4.46-0.01-6.69,0.01c-0.48,0-0.66-0.12-0.66-0.64
		c0.02-3.2,0-6.4,0.01-9.6c0.02-4.61,0.07-9.21,0.08-13.82c0-0.46,0.16-0.63,0.6-0.57c0.71,0.1,1.42,0.2,2.13,0.3
		c0.81,0.11,1.62,0.21,2.43,0.33c0.67,0.1,1.34,0.22,2.01,0.33c0.1,0.02,0.2,0.05,0.3,0.07c1.25,0.14,2.5,0.28,3.75,0.43
		c0.44,0.05,0.87,0.15,1.31,0.2c0.38,0.05,0.34,0.33,0.34,0.58C330.98,94.86,330.98,96.36,330.98,97.85z M330.99,120.11
		c-0.01,7.24-0.01,14.49,0,21.73c0,0.5-0.17,0.62-0.65,0.66c-0.74,0.05-1.47,0.23-2.21,0.35c-0.52,0.08-1.04,0.16-1.57,0.23
		c-0.73,0.09-1.46,0.14-2.19,0.24c-0.72,0.1-1.44,0.25-2.16,0.36c-0.66,0.1-1.32,0.16-1.98,0.25c-0.47,0.06-0.94,0.17-1.42,0.2
		c-0.68,0.05-0.7,0.01-0.7-0.66c0-3.89,0-7.78,0-11.67c0-3.89,0.01-7.78-0.01-11.67c0-0.51,0.16-0.63,0.65-0.63
		c3.87,0.02,7.74,0.02,11.61,0C330.82,119.5,330.99,119.63,330.99,120.11z"/>
	<path class="st1" d="M221.72,183.71c10.81,6.11,19.73,14.21,26.77,24.3c7.03,10.1,10.54,22.84,10.54,38.24
		c0,8.76,0.06,14.88,0.2,18.32c0.13,3.45,0.2,5.84,0.2,7.17v11.55c-0.27,10.89-2.78,21.31-7.5,31.27
		c-4.73,9.96-11.76,18.06-21.09,24.3c-9.33,6.24-20.48,9.36-33.46,9.36h-47.86c-12.71,0-24.54-3.05-35.49-9.16
		c-10.95-6.11-19.74-14.34-26.36-24.7c-6.63-10.36-10.21-21.77-10.75-34.26v-42.22c0-4.24,1.22-7.7,3.65-10.36
		c2.43-2.65,5.27-3.98,8.52-3.98c1.89,0,3.65,0.4,5.27,1.19l50.7,22.71c5.94,3.19,9.59,6.31,10.95,9.36
		c1.35,3.06,2.03,6.31,2.03,9.76l0.41,14.74c0.27,2.93,1.48,5.32,3.65,7.17c2.16,1.86,4.59,2.79,7.3,2.79c2.97,0,5.48-0.86,7.5-2.59
		c2.03-1.72,3.04-4.05,3.04-6.97l-0.41-19.92c0-7.7-3.24-13.94-9.73-18.72c-6.49-4.78-17.44-10.36-32.85-16.73
		c-17.84-7.17-32.58-15.6-44.21-25.29c-11.63-9.69-17.44-23.17-17.44-40.43v-56.96c0-11.95,2.5-23.1,7.5-33.46
		c5-10.36,12.57-18.78,22.71-25.29c10.14-6.5,22.64-9.76,37.51-9.76h41.37c12.71,0,24.54,2.99,35.49,8.96
		c10.95,5.97,19.73,14.21,26.36,24.7c6.62,10.49,10.07,22.11,10.34,34.85l-0.81,58.95c0,4.25-1.01,7.44-3.04,9.56
		c-2.03,2.13-4.4,3.19-7.1,3.19c-1.36,0-2.57-0.26-3.65-0.8l-56.37-26.29c-2.98-1.06-5.27-2.85-6.89-5.38
		c-1.62-2.52-2.3-5.24-2.03-8.17V96.87c0-2.92-1.15-5.44-3.45-7.57c-2.3-2.12-4.94-3.19-7.91-3.19c-2.98,0-5.54,1.13-7.71,3.39
		c-2.17,2.26-3.24,4.85-3.24,7.77v26.69L154,136.7c0,6.37,1.42,11.35,4.26,14.94c2.84,3.59,9.26,7.37,19.26,11.35
		C196.17,170.7,210.91,177.6,221.72,183.71z"/>
	<g>
		<path class="st2" d="M97.06,372.89c1.06,0.44,2,1.08,2.8,1.92c0.81,0.81,1.43,1.74,1.87,2.81c0.44,1.06,0.64,2.18,0.6,3.35v9.68
			v0.11c0,0.33-0.11,0.61-0.33,0.83c-0.29,0.29-0.62,0.44-0.99,0.44h-7.97c-0.44,0-0.77-0.13-0.99-0.39
			c-0.29-0.29-0.4-0.62-0.33-0.99v-7.97v-0.16c0-0.29-0.06-0.57-0.19-0.83c-0.13-0.26-0.32-0.46-0.58-0.6
			c-0.29-0.18-0.59-0.28-0.88-0.28c-0.29,0-0.59,0.09-0.88,0.28c-0.26,0.15-0.46,0.37-0.6,0.66c-0.15,0.29-0.2,0.6-0.16,0.93v22.54
			c0,0.55,0.15,0.96,0.44,1.24c0.29,0.28,0.64,0.41,1.04,0.41c0.48,0,0.9-0.15,1.27-0.44c0.37-0.29,0.55-0.7,0.55-1.21v-8.85v-0.11
			c0-0.29,0.13-0.57,0.38-0.83c0.22-0.26,0.53-0.38,0.94-0.38h7.97c0.37,0.04,0.68,0.17,0.94,0.41c0.26,0.24,0.38,0.54,0.38,0.91
			v10.39c0.04,1.17-0.16,2.29-0.6,3.35c-0.44,1.06-1.06,2-1.87,2.8c-0.81,0.84-1.74,1.48-2.8,1.92s-2.16,0.66-3.3,0.66h-8.58
			c-1.5-0.08-2.88-0.52-4.12-1.35c-1.25-0.83-2.22-1.89-2.91-3.19c-0.7-1.3-1.03-2.7-0.99-4.21v-25.79c-0.04-1.5,0.29-2.9,0.99-4.21
			c0.7-1.3,1.67-2.36,2.91-3.19c1.25-0.82,2.62-1.27,4.12-1.35h8.58C94.9,372.23,96,372.45,97.06,372.89z"/>
		<path class="st2" d="M125.88,373.39c1.32,0.81,2.36,1.88,3.14,3.22c0.77,1.34,1.15,2.8,1.15,4.37v25.84c0,1.17-0.21,2.3-0.63,3.38
			c-0.42,1.08-1.04,2.03-1.84,2.83c-0.77,0.84-1.7,1.49-2.78,1.95c-1.08,0.46-2.21,0.7-3.38,0.74h-8.08
			c-1.58-0.04-3.02-0.46-4.34-1.27c-1.32-0.8-2.36-1.89-3.11-3.24c-0.75-1.35-1.13-2.82-1.13-4.4v-25.84c0-1.58,0.38-3.03,1.15-4.37
			c0.77-1.34,1.81-2.41,3.11-3.22c1.3-0.81,2.74-1.23,4.32-1.27h8.08C123.11,372.16,124.56,372.58,125.88,373.39z M118.73,380.89
			c-0.33-0.31-0.73-0.47-1.21-0.47c-0.44,0.04-0.82,0.21-1.13,0.52c-0.31,0.31-0.47,0.69-0.47,1.13v22.87c0,0.44,0.16,0.81,0.5,1.1
			c0.33,0.29,0.73,0.44,1.21,0.44c0.44,0,0.82-0.16,1.13-0.47c0.31-0.31,0.49-0.67,0.52-1.07v-22.87
			C119.24,381.6,119.06,381.2,118.73,380.89z"/>
		<path class="st2" d="M162.53,373.11c0.24,0.26,0.38,0.57,0.41,0.93v39.7c-0.04,0.37-0.17,0.68-0.41,0.93
			c-0.24,0.26-0.54,0.4-0.91,0.44h-9.35c-0.29,0-0.56-0.08-0.8-0.25c-0.24-0.16-0.41-0.38-0.52-0.63l-5.28-15.4
			c-0.11-0.29-0.29-0.44-0.55-0.44c-0.15,0-0.28,0.07-0.41,0.22c-0.13,0.15-0.19,0.33-0.19,0.55v14.57c0,0.4-0.13,0.73-0.39,0.99
			c-0.26,0.26-0.57,0.39-0.93,0.39h-8.8c-0.37-0.04-0.67-0.18-0.91-0.44c-0.24-0.26-0.38-0.57-0.41-0.93v-39.7
			c0.04-0.37,0.17-0.68,0.41-0.93c0.24-0.26,0.54-0.4,0.91-0.44h8.52c0.26,0,0.5,0.08,0.71,0.25c0.22,0.16,0.39,0.38,0.49,0.63
			l6.21,19.24c0.04,0.18,0.13,0.28,0.28,0.28c0.26,0,0.39-0.2,0.39-0.6v-18.42c0.04-0.37,0.17-0.68,0.41-0.93
			c0.24-0.26,0.54-0.4,0.91-0.44h9.29C161.98,372.71,162.29,372.86,162.53,373.11z"/>
		<path class="st2" d="M185.54,392.8c1.47,0.84,2.68,1.96,3.63,3.35c0.95,1.39,1.43,3.15,1.43,5.28c0,1.21,0.01,2.05,0.03,2.53
			c0.02,0.48,0.03,0.81,0.03,0.99v1.59c-0.04,1.5-0.38,2.94-1.02,4.32c-0.64,1.38-1.59,2.49-2.86,3.35
			c-1.26,0.86-2.78,1.29-4.54,1.29h-6.49c-1.72,0-3.33-0.42-4.81-1.27s-2.68-1.98-3.57-3.41c-0.9-1.43-1.38-3.01-1.46-4.73v-5.83
			c0-0.59,0.16-1.06,0.49-1.43c0.33-0.37,0.71-0.55,1.15-0.55c0.26,0,0.5,0.05,0.71,0.16l6.87,3.13c0.81,0.44,1.3,0.87,1.48,1.29
			c0.18,0.42,0.28,0.87,0.28,1.35l0.06,2.03c0.04,0.4,0.2,0.73,0.49,0.99c0.29,0.26,0.62,0.39,0.99,0.39c0.4,0,0.74-0.12,1.02-0.36
			s0.41-0.56,0.41-0.96l-0.06-2.75c0-1.06-0.44-1.92-1.32-2.58c-0.88-0.66-2.36-1.43-4.45-2.31c-2.42-0.99-4.42-2.15-5.99-3.49
			c-1.58-1.34-2.36-3.2-2.36-5.58v-7.86c0-1.65,0.34-3.19,1.02-4.62c0.68-1.43,1.71-2.59,3.08-3.49c1.37-0.9,3.07-1.35,5.09-1.35
			h5.61c1.72,0,3.33,0.41,4.81,1.24s2.68,1.96,3.57,3.41c0.9,1.45,1.37,3.05,1.4,4.81l-0.11,8.14c0,0.59-0.14,1.03-0.41,1.32
			c-0.28,0.29-0.6,0.44-0.96,0.44c-0.18,0-0.35-0.04-0.49-0.11l-7.64-3.63c-0.4-0.15-0.72-0.39-0.94-0.74
			c-0.22-0.35-0.31-0.72-0.27-1.13v-5.22c0-0.4-0.16-0.75-0.47-1.04c-0.31-0.29-0.67-0.44-1.07-0.44s-0.75,0.16-1.04,0.47
			c-0.29,0.31-0.44,0.67-0.44,1.07v3.68l-0.06,1.76c0,0.88,0.19,1.57,0.58,2.06c0.39,0.49,1.25,1.02,2.61,1.57
			C182.07,391,184.07,391.95,185.54,392.8z"/>
		<path class="st2" d="M217.81,373.08c0.26,0.24,0.4,0.52,0.44,0.85v32.77c0,1.58-0.39,3.04-1.15,4.37
			c-0.77,1.34-1.81,2.4-3.13,3.19c-1.32,0.79-2.77,1.18-4.34,1.18h-7.92c-1.14,0.04-2.24-0.16-3.3-0.6s-2.02-1.08-2.86-1.92
			c-0.84-0.84-1.48-1.81-1.9-2.89c-0.42-1.08-0.61-2.19-0.58-3.33v-32.77c0-0.36,0.15-0.66,0.44-0.88c0.22-0.26,0.53-0.38,0.93-0.38
			h8.25c0.36,0.04,0.68,0.17,0.93,0.41c0.26,0.24,0.4,0.52,0.44,0.85v31.29c0,0.48,0.16,0.86,0.49,1.15c0.33,0.33,0.75,0.5,1.27,0.5
			c0.48,0,0.88-0.16,1.21-0.47c0.33-0.31,0.51-0.71,0.55-1.18v-31.29c0-0.33,0.15-0.64,0.44-0.93c0.26-0.22,0.59-0.33,0.99-0.33
			h7.86C217.24,372.71,217.56,372.85,217.81,373.08z"/>
		<path class="st2" d="M240.69,405.61c0.26,0.26,0.39,0.57,0.39,0.93v7.2c0,0.4-0.13,0.73-0.39,0.99c-0.26,0.26-0.57,0.39-0.93,0.39
			h-17.1c-0.37-0.04-0.67-0.18-0.91-0.44c-0.24-0.26-0.38-0.57-0.41-0.93v-39.7c0.04-0.37,0.17-0.68,0.41-0.93
			c0.24-0.26,0.54-0.4,0.91-0.44h9.29c0.37,0,0.68,0.13,0.94,0.38c0.26,0.26,0.39,0.59,0.39,0.99v31.18h6.49
			C240.16,405.22,240.47,405.35,240.69,405.61z"/>
		<path class="st2" d="M259.91,373.14c0.28,0.28,0.39,0.61,0.36,1.02v6.43v0.16c0,0.29-0.11,0.59-0.33,0.88
			c-0.29,0.29-0.64,0.44-1.04,0.44h-3.52v31.67c0,0.33-0.13,0.66-0.39,0.99c-0.33,0.26-0.66,0.39-0.99,0.39h-9.18
			c-0.37-0.04-0.68-0.17-0.93-0.41c-0.26-0.24-0.42-0.56-0.49-0.96v-31.67h-3.63c-0.4-0.07-0.73-0.25-0.96-0.52
			c-0.24-0.28-0.36-0.6-0.36-0.96v-6.43c0-0.37,0.13-0.69,0.38-0.96c0.26-0.28,0.57-0.45,0.94-0.52h19.14
			C259.29,372.71,259.63,372.86,259.91,373.14z"/>
		<path class="st2" d="M282.64,373.39c1.32,0.81,2.36,1.88,3.14,3.22c0.77,1.34,1.15,2.8,1.15,4.37v25.84c0,1.17-0.21,2.3-0.63,3.38
			c-0.42,1.08-1.04,2.03-1.84,2.83c-0.77,0.84-1.7,1.49-2.78,1.95c-1.08,0.46-2.21,0.7-3.38,0.74h-8.08
			c-1.58-0.04-3.02-0.46-4.34-1.27c-1.32-0.8-2.36-1.89-3.11-3.24c-0.75-1.35-1.13-2.82-1.13-4.4v-25.84c0-1.58,0.38-3.03,1.15-4.37
			c0.77-1.34,1.81-2.41,3.11-3.22s2.74-1.23,4.32-1.27h8.08C279.87,372.16,281.32,372.58,282.64,373.39z M275.49,380.89
			c-0.33-0.31-0.73-0.47-1.21-0.47c-0.44,0.04-0.82,0.21-1.13,0.52c-0.31,0.31-0.47,0.69-0.47,1.13v22.87c0,0.44,0.16,0.81,0.5,1.1
			c0.33,0.29,0.73,0.44,1.21,0.44c0.44,0,0.82-0.16,1.13-0.47c0.31-0.31,0.49-0.67,0.52-1.07v-22.87
			C276.01,381.6,275.82,381.2,275.49,380.89z"/>
		<path class="st2" d="M313.43,403.58l1.92,10.06v0.11c0,0.29-0.08,0.57-0.25,0.82c-0.16,0.26-0.38,0.44-0.63,0.55h-9.24h-0.16
			c-0.18,0-0.39-0.07-0.6-0.22c-0.22-0.15-0.37-0.38-0.44-0.71l-0.05-8.19c0-0.59-0.26-0.88-0.77-0.88h-0.88
			c-0.51,0-0.77,0.29-0.77,0.88v7.97c0,0.33-0.11,0.6-0.33,0.83c-0.22,0.22-0.48,0.33-0.77,0.33h-9.57c-0.26,0-0.51-0.13-0.77-0.39
			c-0.18-0.18-0.28-0.44-0.28-0.77v-40.25c0-0.29,0.09-0.53,0.28-0.71c0.22-0.22,0.48-0.33,0.77-0.33h16.5
			c1.14,0,2.26,0.27,3.38,0.8c1.12,0.53,2.04,1.39,2.78,2.58c0.73,1.19,1.1,2.72,1.1,4.59v18.75
			C314.83,400.97,314.42,402.37,313.43,403.58z M303.89,380.62c-0.31-0.28-0.71-0.41-1.18-0.41c-0.4,0-0.76,0.16-1.07,0.47
			c-0.31,0.31-0.49,0.67-0.52,1.07v13.69c0.04,0.4,0.21,0.76,0.52,1.07c0.31,0.31,0.67,0.47,1.07,0.47c0.48,0,0.87-0.15,1.18-0.44
			c0.31-0.29,0.49-0.66,0.52-1.1v-13.69C304.38,381.27,304.21,380.89,303.89,380.62z"/>
		<path class="st2" d="M329.38,373.11c0.26,0.26,0.4,0.57,0.44,0.93v39.7c-0.04,0.37-0.18,0.68-0.44,0.93
			c-0.26,0.26-0.57,0.4-0.94,0.44h-9.24c-0.37-0.04-0.67-0.18-0.91-0.44c-0.24-0.26-0.38-0.57-0.41-0.93v-39.7
			c0.04-0.37,0.17-0.68,0.41-0.93c0.24-0.26,0.54-0.4,0.91-0.44h9.24C328.81,372.71,329.12,372.86,329.38,373.11z"/>
		<path class="st2" d="M354.65,373.11c0.31,0.29,0.5,0.66,0.58,1.1l5.22,39.7v0.22c0,0.22-0.05,0.42-0.16,0.6
			c-0.26,0.26-0.53,0.39-0.83,0.39h-9.18c-0.37,0-0.67-0.12-0.91-0.36c-0.24-0.24-0.39-0.52-0.47-0.85l-0.55-6.05
			c0-0.26-0.09-0.48-0.27-0.66c-0.15-0.15-0.37-0.22-0.66-0.22h-2.31c-0.26,0-0.48,0.08-0.66,0.22c-0.18,0.18-0.28,0.4-0.28,0.66
			l-0.55,6.05c-0.04,0.33-0.19,0.61-0.47,0.85c-0.27,0.24-0.58,0.36-0.91,0.36h-9.24c-0.33,0-0.59-0.13-0.77-0.39
			c-0.22-0.26-0.29-0.53-0.22-0.82l5.28-39.7c0.04-0.44,0.23-0.81,0.58-1.1c0.35-0.29,0.74-0.44,1.18-0.44h14.46
			C353.96,372.67,354.33,372.82,354.65,373.11z M347.85,398.41c0.15-0.15,0.18-0.33,0.11-0.55l-0.94-14.68
			c-0.04-0.48-0.27-0.71-0.71-0.71c-0.18,0-0.34,0.05-0.47,0.16c-0.13,0.11-0.19,0.28-0.19,0.49l-1.15,14.74v0.16
			c0,0.18,0.04,0.33,0.11,0.44c0.07,0.11,0.15,0.16,0.22,0.16h2.58C347.6,398.63,347.74,398.55,347.85,398.41z"/>
		<path class="st2" d="M390.63,373c0.26,0.26,0.39,0.55,0.39,0.88v6.54c0,0.4-0.13,0.71-0.39,0.93c-0.22,0.26-0.53,0.39-0.93,0.39
			h-6.16c-0.29,0-0.51,0.07-0.66,0.22c-0.18,0.18-0.28,0.4-0.28,0.66v6.87c0,0.18,0.09,0.4,0.28,0.66c0.15,0.15,0.37,0.22,0.66,0.22
			h4.18c0.33,0,0.64,0.15,0.94,0.44c0.26,0.26,0.38,0.59,0.38,0.99v6.93c0,0.4-0.13,0.73-0.38,0.99c-0.29,0.29-0.61,0.44-0.94,0.44
			h-4.18c-0.29,0-0.51,0.07-0.66,0.22c-0.18,0.18-0.28,0.4-0.28,0.66v4.01c0,0.26,0.09,0.48,0.28,0.66
			c0.15,0.15,0.37,0.22,0.66,0.22h6.16c0.4,0,0.71,0.13,0.93,0.39c0.26,0.26,0.39,0.59,0.39,0.99v6.38c0,0.44-0.13,0.77-0.39,0.99
			c-0.22,0.29-0.53,0.44-0.93,0.44h-17.6c-0.37,0-0.7-0.15-0.99-0.44c-0.26-0.26-0.39-0.59-0.39-0.99v-39.81
			c0-0.37,0.15-0.66,0.44-0.88c0.29-0.22,0.6-0.33,0.93-0.33h17.6C390.03,372.67,390.34,372.78,390.63,373z"/>
		<path class="st2" d="M422.61,373.11c0.24,0.26,0.38,0.57,0.41,0.93v39.7c-0.04,0.37-0.17,0.68-0.41,0.93
			c-0.24,0.26-0.54,0.4-0.91,0.44h-9.35c-0.29,0-0.56-0.08-0.8-0.25c-0.24-0.16-0.41-0.38-0.52-0.63l-5.28-15.4
			c-0.11-0.29-0.29-0.44-0.55-0.44c-0.15,0-0.28,0.07-0.41,0.22c-0.13,0.15-0.19,0.33-0.19,0.55v14.57c0,0.4-0.13,0.73-0.39,0.99
			c-0.26,0.26-0.57,0.39-0.93,0.39h-8.8c-0.37-0.04-0.67-0.18-0.91-0.44c-0.24-0.26-0.38-0.57-0.41-0.93v-39.7
			c0.04-0.37,0.17-0.68,0.41-0.93c0.24-0.26,0.54-0.4,0.91-0.44h8.52c0.26,0,0.5,0.08,0.71,0.25c0.22,0.16,0.39,0.38,0.49,0.63
			l6.21,19.24c0.04,0.18,0.13,0.28,0.28,0.28c0.26,0,0.39-0.2,0.39-0.6v-18.42c0.04-0.37,0.17-0.68,0.41-0.93
			c0.24-0.26,0.54-0.4,0.91-0.44h9.29C422.07,372.71,422.37,372.86,422.61,373.11z"/>
		<path class="st2" d="M97.61,422.04c1.06,0.44,2,1.08,2.8,1.92c0.81,0.81,1.43,1.74,1.87,2.81c0.44,1.06,0.64,2.18,0.6,3.35v9.68
			v0.11c0,0.33-0.11,0.61-0.33,0.83c-0.29,0.29-0.62,0.44-0.99,0.44H93.6c-0.44,0-0.77-0.13-0.99-0.39
			c-0.29-0.29-0.4-0.62-0.33-0.99v-7.97v-0.16c0-0.29-0.06-0.57-0.19-0.83c-0.13-0.26-0.32-0.46-0.58-0.6
			c-0.29-0.18-0.59-0.28-0.88-0.28c-0.29,0-0.59,0.09-0.88,0.28c-0.26,0.15-0.46,0.37-0.6,0.66c-0.15,0.29-0.2,0.6-0.16,0.93v22.54
			c0,0.55,0.15,0.96,0.44,1.24c0.29,0.28,0.64,0.41,1.04,0.41c0.48,0,0.9-0.15,1.27-0.44c0.37-0.29,0.55-0.7,0.55-1.21v-8.85v-0.11
			c0-0.29,0.13-0.57,0.38-0.83c0.22-0.26,0.53-0.38,0.94-0.38h7.97c0.37,0.04,0.68,0.17,0.94,0.41c0.26,0.24,0.38,0.54,0.38,0.91
			v10.39c0.04,1.17-0.16,2.29-0.6,3.35c-0.44,1.06-1.06,2-1.87,2.8c-0.81,0.84-1.74,1.48-2.8,1.92c-1.06,0.44-2.16,0.66-3.3,0.66
			h-8.58c-1.5-0.08-2.88-0.52-4.12-1.35c-1.25-0.83-2.22-1.89-2.91-3.19c-0.7-1.3-1.03-2.7-0.99-4.21v-25.79
			c-0.04-1.5,0.29-2.9,0.99-4.21c0.7-1.3,1.67-2.36,2.91-3.19c1.25-0.82,2.62-1.27,4.12-1.35h8.58
			C95.45,421.38,96.55,421.6,97.61,422.04z"/>
		<path class="st2" d="M130.93,422.53c1.32,0.81,2.36,1.88,3.14,3.22c0.77,1.34,1.15,2.8,1.15,4.37v25.84c0,1.17-0.21,2.3-0.63,3.38
			c-0.42,1.08-1.04,2.03-1.84,2.83c-0.77,0.84-1.7,1.49-2.78,1.95c-1.08,0.46-2.21,0.7-3.38,0.74h-8.08
			c-1.58-0.04-3.02-0.46-4.34-1.27c-1.32-0.8-2.36-1.89-3.11-3.24c-0.75-1.35-1.13-2.82-1.13-4.4v-25.84c0-1.58,0.38-3.03,1.15-4.37
			c0.77-1.34,1.81-2.41,3.11-3.22s2.74-1.23,4.32-1.27h8.08C128.17,421.3,129.61,421.73,130.93,422.53z M123.78,430.04
			c-0.33-0.31-0.73-0.47-1.21-0.47c-0.44,0.04-0.82,0.21-1.13,0.52c-0.31,0.31-0.47,0.69-0.47,1.13v22.87c0,0.44,0.16,0.81,0.5,1.1
			c0.33,0.29,0.73,0.44,1.21,0.44c0.44,0,0.82-0.16,1.13-0.47c0.31-0.31,0.49-0.67,0.52-1.07v-22.87
			C124.3,430.74,124.12,430.35,123.78,430.04z"/>
		<path class="st2" d="M172.09,422.26c0.24,0.26,0.38,0.57,0.41,0.93v39.7c-0.04,0.37-0.17,0.68-0.41,0.93
			c-0.24,0.26-0.54,0.4-0.91,0.44h-9.35c-0.29,0-0.56-0.08-0.8-0.25c-0.24-0.16-0.41-0.38-0.52-0.63l-5.28-15.4
			c-0.11-0.29-0.29-0.44-0.55-0.44c-0.15,0-0.28,0.07-0.41,0.22c-0.13,0.15-0.19,0.33-0.19,0.55v14.57c0,0.4-0.13,0.73-0.39,0.99
			c-0.26,0.26-0.57,0.39-0.93,0.39h-8.8c-0.37-0.04-0.67-0.18-0.91-0.44c-0.24-0.26-0.38-0.57-0.41-0.93v-39.7
			c0.04-0.37,0.17-0.68,0.41-0.93c0.24-0.26,0.54-0.4,0.91-0.44h8.52c0.26,0,0.5,0.08,0.72,0.25c0.22,0.16,0.39,0.38,0.49,0.63
			l6.21,19.24c0.04,0.18,0.13,0.28,0.28,0.28c0.26,0,0.39-0.2,0.39-0.6v-18.42c0.04-0.37,0.17-0.68,0.41-0.93
			c0.24-0.26,0.54-0.4,0.91-0.44h9.29C171.55,421.85,171.85,422,172.09,422.26z"/>
		<path class="st2" d="M200.68,422.45c1.01,0.42,1.9,1.04,2.67,1.84c0.81,0.77,1.41,1.66,1.81,2.67c0.4,1.01,0.6,2.06,0.6,3.16v25.9
			c0,1.5-0.37,2.89-1.1,4.15c-0.73,1.27-1.73,2.26-3,3c-1.27,0.73-2.65,1.1-4.15,1.1h-15.95c-0.29,0-0.6-0.13-0.93-0.39
			c-0.26-0.26-0.39-0.59-0.39-0.99v-39.7c0-0.4,0.13-0.73,0.39-0.99c0.33-0.26,0.64-0.38,0.93-0.38h15.95
			C198.62,421.82,199.68,422.03,200.68,422.45z M193.86,430.73c-0.35-0.33-0.76-0.5-1.24-0.5c-0.48,0-0.88,0.16-1.21,0.5
			c-0.33,0.33-0.49,0.73-0.49,1.21v22.27c0,0.48,0.16,0.88,0.49,1.21c0.33,0.33,0.73,0.5,1.21,0.5c0.48,0,0.89-0.16,1.24-0.5
			c0.35-0.33,0.52-0.73,0.52-1.21v-22.27C194.39,431.46,194.21,431.06,193.86,430.73z"/>
		<path class="st2" d="M233.87,422.53c1.32,0.81,2.36,1.88,3.14,3.22c0.77,1.34,1.15,2.8,1.15,4.37v25.84c0,1.17-0.21,2.3-0.63,3.38
			c-0.42,1.08-1.04,2.03-1.84,2.83c-0.77,0.84-1.7,1.49-2.78,1.95c-1.08,0.46-2.21,0.7-3.38,0.74h-8.08
			c-1.58-0.04-3.02-0.46-4.34-1.27c-1.32-0.8-2.36-1.89-3.11-3.24c-0.75-1.35-1.13-2.82-1.13-4.4v-25.84c0-1.58,0.38-3.03,1.15-4.37
			c0.77-1.34,1.81-2.41,3.11-3.22s2.74-1.23,4.32-1.27h8.08C231.1,421.3,232.55,421.73,233.87,422.53z M226.72,430.04
			c-0.33-0.31-0.73-0.47-1.21-0.47c-0.44,0.04-0.82,0.21-1.13,0.52c-0.31,0.31-0.47,0.69-0.47,1.13v22.87c0,0.44,0.16,0.81,0.5,1.1
			c0.33,0.29,0.73,0.44,1.21,0.44c0.44,0,0.82-0.16,1.13-0.47c0.31-0.31,0.49-0.67,0.52-1.07v-22.87
			C227.23,430.74,227.05,430.35,226.72,430.04z"/>
		<path class="st2" d="M281.16,422.31c0.26,0.26,0.4,0.57,0.44,0.93v39.59c0,0.37-0.14,0.7-0.41,0.99
			c-0.28,0.29-0.61,0.44-1.02,0.44h-8.41c-0.44,0-0.79-0.13-1.04-0.39c-0.26-0.26-0.37-0.6-0.33-1.04l2.03-16.28v-0.05
			c0-0.15-0.05-0.26-0.16-0.33c-0.11-0.07-0.22-0.11-0.33-0.11c-0.18,0-0.31,0.09-0.39,0.27l-4.51,16.83
			c-0.18,0.62-0.61,0.99-1.27,1.1h-4.07c-0.33,0-0.64-0.1-0.93-0.3c-0.29-0.2-0.48-0.47-0.55-0.8l-4.07-16.5
			c-0.04-0.18-0.18-0.28-0.44-0.28c-0.15,0-0.28,0.05-0.39,0.14c-0.11,0.09-0.15,0.23-0.11,0.41l1.65,15.89v0.11
			c0,0.33-0.13,0.62-0.39,0.88c-0.29,0.29-0.62,0.44-0.99,0.44h-8.52c-0.4,0-0.73-0.13-0.99-0.39c-0.26-0.26-0.39-0.6-0.39-1.04
			v-39.59c0-0.4,0.14-0.74,0.41-1.02s0.6-0.41,0.96-0.41h10.89c0.33,0,0.65,0.15,0.96,0.44c0.31,0.29,0.5,0.62,0.58,0.99l4.23,18.42
			c0.11,0.44,0.29,0.66,0.55,0.66c0.29,0,0.46-0.22,0.49-0.66l3.79-18.42c0.07-0.36,0.23-0.7,0.47-0.99
			c0.24-0.29,0.56-0.44,0.96-0.44h10.34C280.59,421.89,280.9,422.06,281.16,422.31z"/>
		<path class="st2" d="M300.79,422.26c0.26,0.26,0.4,0.57,0.44,0.93v39.7c-0.04,0.37-0.18,0.68-0.44,0.93
			c-0.26,0.26-0.57,0.4-0.94,0.44h-9.24c-0.37-0.04-0.67-0.18-0.91-0.44c-0.24-0.26-0.38-0.57-0.41-0.93v-39.7
			c0.04-0.37,0.17-0.68,0.41-0.93c0.24-0.26,0.54-0.4,0.91-0.44h9.24C300.22,421.85,300.53,422,300.79,422.26z"/>
		<path class="st2" d="M338.43,422.26c0.24,0.26,0.38,0.57,0.41,0.93v39.7c-0.04,0.37-0.17,0.68-0.41,0.93
			c-0.24,0.26-0.54,0.4-0.91,0.44h-9.35c-0.29,0-0.56-0.08-0.8-0.25c-0.24-0.16-0.41-0.38-0.52-0.63l-5.28-15.4
			c-0.11-0.29-0.29-0.44-0.55-0.44c-0.15,0-0.28,0.07-0.41,0.22c-0.13,0.15-0.19,0.33-0.19,0.55v14.57c0,0.4-0.13,0.73-0.39,0.99
			c-0.26,0.26-0.57,0.39-0.93,0.39h-8.8c-0.37-0.04-0.67-0.18-0.91-0.44c-0.24-0.26-0.38-0.57-0.41-0.93v-39.7
			c0.04-0.37,0.17-0.68,0.41-0.93c0.24-0.26,0.54-0.4,0.91-0.44h8.52c0.26,0,0.5,0.08,0.71,0.25c0.22,0.16,0.39,0.38,0.49,0.63
			l6.21,19.24c0.04,0.18,0.13,0.28,0.28,0.28c0.26,0,0.39-0.2,0.39-0.6v-18.42c0.04-0.37,0.17-0.68,0.41-0.93
			c0.24-0.26,0.54-0.4,0.91-0.44h9.29C337.89,421.85,338.19,422,338.43,422.26z"/>
		<path class="st2" d="M358.08,422.26c0.26,0.26,0.4,0.57,0.44,0.93v39.7c-0.04,0.37-0.18,0.68-0.44,0.93
			c-0.26,0.26-0.57,0.4-0.94,0.44h-9.24c-0.37-0.04-0.67-0.18-0.91-0.44c-0.24-0.26-0.38-0.57-0.41-0.93v-39.7
			c0.04-0.37,0.17-0.68,0.41-0.93c0.24-0.26,0.54-0.4,0.91-0.44h9.24C357.51,421.85,357.83,422,358.08,422.26z"/>
		<path class="st2" d="M386.95,422.53c1.32,0.81,2.36,1.88,3.14,3.22c0.77,1.34,1.15,2.8,1.15,4.37v25.84c0,1.17-0.21,2.3-0.63,3.38
			c-0.42,1.08-1.04,2.03-1.84,2.83c-0.77,0.84-1.7,1.49-2.78,1.95c-1.08,0.46-2.21,0.7-3.38,0.74h-8.08
			c-1.58-0.04-3.02-0.46-4.34-1.27c-1.32-0.8-2.36-1.89-3.11-3.24c-0.75-1.35-1.13-2.82-1.13-4.4v-25.84c0-1.58,0.38-3.03,1.15-4.37
			c0.77-1.34,1.81-2.41,3.11-3.22s2.74-1.23,4.32-1.27h8.08C384.18,421.3,385.63,421.73,386.95,422.53z M379.8,430.04
			c-0.33-0.31-0.73-0.47-1.21-0.47c-0.44,0.04-0.82,0.21-1.13,0.52c-0.31,0.31-0.47,0.69-0.47,1.13v22.87c0,0.44,0.16,0.81,0.5,1.1
			c0.33,0.29,0.73,0.44,1.21,0.44c0.44,0,0.82-0.16,1.13-0.47c0.31-0.31,0.49-0.67,0.52-1.07v-22.87
			C380.32,430.74,380.13,430.35,379.8,430.04z"/>
		<path class="st2" d="M418.02,441.94c1.47,0.84,2.68,1.96,3.63,3.35c0.95,1.39,1.43,3.15,1.43,5.28c0,1.21,0.01,2.05,0.03,2.53
			c0.02,0.48,0.03,0.81,0.03,0.99v1.59c-0.04,1.5-0.38,2.94-1.02,4.32c-0.64,1.38-1.59,2.49-2.86,3.35
			c-1.26,0.86-2.78,1.29-4.54,1.29h-6.49c-1.72,0-3.33-0.42-4.81-1.27c-1.48-0.84-2.68-1.98-3.58-3.41
			c-0.9-1.43-1.38-3.01-1.46-4.73v-5.83c0-0.59,0.16-1.06,0.49-1.43c0.33-0.37,0.71-0.55,1.15-0.55c0.26,0,0.5,0.05,0.72,0.16
			l6.87,3.13c0.81,0.44,1.3,0.87,1.48,1.29c0.18,0.42,0.28,0.87,0.28,1.35l0.06,2.03c0.04,0.4,0.2,0.73,0.49,0.99
			c0.29,0.26,0.62,0.39,0.99,0.39c0.4,0,0.74-0.12,1.02-0.36c0.28-0.24,0.41-0.56,0.41-0.96l-0.06-2.75c0-1.06-0.44-1.92-1.32-2.58
			c-0.88-0.66-2.36-1.43-4.45-2.31c-2.42-0.99-4.42-2.15-5.99-3.49c-1.58-1.34-2.36-3.2-2.36-5.58v-7.86c0-1.65,0.34-3.19,1.02-4.62
			s1.71-2.59,3.08-3.49c1.37-0.9,3.07-1.35,5.09-1.35h5.61c1.72,0,3.33,0.41,4.81,1.24c1.48,0.83,2.68,1.96,3.57,3.41
			c0.9,1.45,1.37,3.05,1.4,4.81l-0.11,8.14c0,0.59-0.14,1.03-0.41,1.32c-0.28,0.29-0.6,0.44-0.96,0.44c-0.18,0-0.35-0.04-0.49-0.11
			l-7.64-3.63c-0.4-0.15-0.71-0.39-0.94-0.74c-0.22-0.35-0.31-0.72-0.27-1.13v-5.22c0-0.4-0.16-0.75-0.47-1.04
			c-0.31-0.29-0.67-0.44-1.07-0.44s-0.75,0.16-1.04,0.47c-0.29,0.31-0.44,0.67-0.44,1.07v3.68l-0.06,1.76
			c0,0.88,0.19,1.57,0.58,2.06c0.39,0.49,1.25,1.02,2.61,1.57C414.56,440.15,416.55,441.1,418.02,441.94z"/>
	</g>
</g>
</svg>
