<?xml version="1.0" encoding="utf-8"?>
<!-- Generator: Adobe Illustrator 26.5.0, SVG Export Plug-In . SVG Version: 6.00 Build 0)  -->
<svg version="1.1" id="Layer_1" xmlns="http://www.w3.org/2000/svg" xmlns:xlink="http://www.w3.org/1999/xlink" x="0px" y="0px"
	 viewBox="0 0 1000 1000" style="enable-background:new 0 0 1000 1000;" xml:space="preserve">
<style type="text/css">
	.st0{fill:#FFFFFF;}
</style>
<g>
	<g>
		<path class="st0" d="M235,771.5l-4.9,3.1c-4.3-5.7-10.1-8.5-17.5-8.5c-5.9,0-10.8,1.9-14.7,5.7c-3.9,3.8-5.8,8.4-5.8,13.8
			c0,3.5,0.9,6.8,2.7,10c1.8,3.1,4.3,5.5,7.4,7.2s6.6,2.6,10.5,2.6c7.1,0,12.9-2.8,17.4-8.5l4.9,3.2c-2.3,3.5-5.4,6.2-9.3,8.1
			c-3.9,1.9-8.3,2.9-13.3,2.9c-7.7,0-14-2.4-19-7.3c-5-4.9-7.6-10.8-7.6-17.8c0-4.7,1.2-9,3.5-13.1c2.4-4,5.6-7.2,9.7-9.4
			c4.1-2.3,8.7-3.4,13.8-3.4c3.2,0,6.3,0.5,9.3,1.5s5.5,2.3,7.6,3.8C231.8,767.1,233.5,769.1,235,771.5z"/>
		<path class="st0" d="M269.9,760.2c7.5,0,13.6,2.7,18.5,8.1c4.5,4.9,6.7,10.8,6.7,17.5c0,6.8-2.4,12.7-7.1,17.7
			c-4.7,5.1-10.8,7.6-18.2,7.6c-7.4,0-13.5-2.5-18.2-7.6c-4.7-5.1-7.1-11-7.1-17.7c0-6.7,2.2-12.5,6.7-17.4
			C256.2,762.9,262.4,760.2,269.9,760.2z M269.8,766.3c-5.2,0-9.6,1.9-13.3,5.7c-3.7,3.8-5.6,8.5-5.6,13.9c0,3.5,0.8,6.8,2.5,9.8
			c1.7,3,4,5.4,6.9,7c2.9,1.6,6.1,2.5,9.5,2.5c3.5,0,6.6-0.8,9.5-2.5c2.9-1.6,5.2-4,6.9-7c1.7-3,2.5-6.3,2.5-9.8
			c0-5.4-1.9-10.1-5.6-13.9C279.4,768.2,275,766.3,269.8,766.3z"/>
		<path class="st0" d="M306.6,761.5h6.2v8.7c2.5-3.3,5.2-5.8,8.3-7.5c3-1.6,6.3-2.5,9.9-2.5c3.6,0,6.8,0.9,9.6,2.8s4.9,4.3,6.2,7.4
			s2,8,2,14.5v24.9h-6.2v-23.1c0-5.6-0.2-9.3-0.7-11.2c-0.7-3.2-2.1-5.6-4.2-7.2c-2-1.6-4.7-2.4-8-2.4c-3.8,0-7.1,1.2-10.1,3.7
			c-3,2.5-4.9,5.6-5.9,9.3c-0.6,2.4-0.9,6.8-0.9,13.2v17.7h-6.2V761.5z"/>
		<path class="st0" d="M386.5,766.7l-4,4.1c-3.3-3.2-6.6-4.8-9.8-4.8c-2,0-3.8,0.7-5.2,2c-1.4,1.3-2.2,2.9-2.2,4.7
			c0,1.6,0.6,3.1,1.8,4.5c1.2,1.5,3.7,3.2,7.5,5.1c4.6,2.4,7.8,4.7,9.5,6.9c1.6,2.3,2.5,4.8,2.5,7.6c0,4-1.4,7.3-4.2,10.1
			s-6.3,4.1-10.5,4.1c-2.8,0-5.5-0.6-8-1.8c-2.5-1.2-4.6-2.9-6.3-5l3.9-4.4c3.2,3.6,6.6,5.4,10.1,5.4c2.5,0,4.6-0.8,6.4-2.4
			c1.8-1.6,2.6-3.5,2.6-5.6c0-1.8-0.6-3.4-1.7-4.8c-1.2-1.4-3.8-3.1-7.8-5.2c-4.4-2.3-7.3-4.5-8.9-6.7c-1.6-2.2-2.4-4.7-2.4-7.5
			c0-3.7,1.3-6.7,3.8-9.2c2.5-2.4,5.7-3.6,9.5-3.6C377.5,760.2,382,762.4,386.5,766.7z"/>
		<path class="st0" d="M396.7,761.5h6.2v22.6c0,5.5,0.3,9.3,0.9,11.4c0.9,3,2.6,5.3,5.1,7c2.5,1.7,5.5,2.6,9,2.6
			c3.5,0,6.4-0.8,8.8-2.5c2.4-1.7,4.1-3.9,5-6.6c0.6-1.9,0.9-5.8,0.9-11.9v-22.6h6.4v23.8c0,6.7-0.8,11.7-2.3,15.1
			c-1.6,3.4-3.9,6-7,7.9c-3.1,1.9-7.1,2.9-11.8,2.9c-4.7,0-8.7-1-11.8-2.9c-3.2-1.9-5.5-4.6-7.1-8c-1.6-3.4-2.3-8.6-2.3-15.5V761.5z
			"/>
		<path class="st0" d="M452,742.8h6.2v67.1H452V742.8z"/>
		<path class="st0" d="M476.6,743.5h6.2v18h9.9v5.4h-9.9v43h-6.2v-43h-8.5v-5.4h8.5V743.5z"/>
		<path class="st0" d="M524.9,760.2c7.5,0,13.6,2.7,18.5,8.1c4.5,4.9,6.7,10.8,6.7,17.5c0,6.8-2.4,12.7-7.1,17.7s-10.8,7.6-18.2,7.6
			c-7.4,0-13.5-2.5-18.2-7.6c-4.7-5.1-7.1-11-7.1-17.7c0-6.7,2.2-12.5,6.7-17.4C511.3,762.9,517.4,760.2,524.9,760.2z M524.9,766.3
			c-5.2,0-9.6,1.9-13.3,5.7c-3.7,3.8-5.6,8.5-5.6,13.9c0,3.5,0.8,6.8,2.5,9.8c1.7,3,4,5.4,6.9,7c2.9,1.6,6.1,2.5,9.5,2.5
			s6.6-0.8,9.5-2.5c2.9-1.6,5.2-4,6.9-7c1.7-3,2.5-6.3,2.5-9.8c0-5.4-1.9-10.1-5.6-13.9C534.5,768.2,530.1,766.3,524.9,766.3z"/>
		<path class="st0" d="M559.3,761.5h6.4v7.1c1.9-2.8,3.9-4.9,6-6.2s4.3-2.1,6.6-2.1c1.7,0,3.6,0.5,5.5,1.6l-3.2,5.2
			c-1.3-0.6-2.4-0.8-3.3-0.8c-2.1,0-4.1,0.9-6,2.6c-1.9,1.7-3.4,4.4-4.4,7.9c-0.8,2.8-1.2,8.3-1.2,16.7v16.4h-6.4V761.5z"/>
		<path class="st0" d="M594.3,738.8h9.6l-13.1,13.7h-6.1L594.3,738.8z M588.1,761.5h6.2v48.4h-6.2V761.5z"/>
		<path class="st0" d="M655.5,761.5v48.4h-6.1v-8.3c-2.6,3.2-5.5,5.6-8.8,7.2c-3.2,1.6-6.8,2.4-10.7,2.4c-6.9,0-12.7-2.5-17.5-7.5
			c-4.8-5-7.3-11-7.3-18.1c0-7,2.4-12.9,7.3-17.9s10.8-7.4,17.7-7.4c4,0,7.6,0.8,10.8,2.5s6,4.2,8.5,7.6v-8.9H655.5z M630.6,766.2
			c-3.5,0-6.7,0.9-9.6,2.6c-2.9,1.7-5.3,4.1-7,7.2c-1.7,3.1-2.6,6.3-2.6,9.8c0,3.4,0.9,6.7,2.6,9.8c1.7,3.1,4.1,5.5,7,7.3
			c2.9,1.7,6.1,2.6,9.5,2.6c3.4,0,6.6-0.9,9.7-2.6c3.1-1.7,5.4-4,7-7s2.5-6.2,2.5-9.9c0-5.6-1.8-10.3-5.5-14
			C640.6,768.1,636,766.2,630.6,766.2z"/>
		<path class="st0" d="M735.5,793.8l5.2,2.8c-1.7,3.4-3.7,6.1-6,8.2c-2.3,2.1-4.8,3.7-7.6,4.7s-6,1.6-9.6,1.6
			c-7.9,0-14.1-2.6-18.5-7.8c-4.5-5.2-6.7-11-6.7-17.5c0-6.1,1.9-11.6,5.7-16.4c4.8-6.1,11.2-9.2,19.2-9.2c8.3,0,14.8,3.1,19.8,9.4
			c3.5,4.4,5.3,9.9,5.3,16.5h-43.6c0.1,5.6,1.9,10.2,5.4,13.8c3.5,3.6,7.8,5.4,12.9,5.4c2.5,0,4.9-0.4,7.2-1.3
			c2.3-0.9,4.3-2,5.9-3.4C731.9,799.2,733.6,797,735.5,793.8z M735.5,780.8c-0.8-3.3-2-6-3.6-8c-1.6-2-3.7-3.6-6.3-4.8
			c-2.6-1.2-5.4-1.8-8.2-1.8c-4.8,0-8.8,1.5-12.2,4.6c-2.5,2.2-4.4,5.6-5.7,10H735.5z"/>
		<path class="st0" d="M754,761.5h6.2v8.7c2.5-3.3,5.2-5.8,8.3-7.5c3-1.6,6.3-2.5,9.9-2.5c3.6,0,6.8,0.9,9.6,2.8s4.9,4.3,6.2,7.4
			c1.3,3.1,2,8,2,14.5v24.9H790v-23.1c0-5.6-0.2-9.3-0.7-11.2c-0.7-3.2-2.1-5.6-4.2-7.2c-2-1.6-4.7-2.4-8-2.4
			c-3.8,0-7.1,1.2-10.1,3.7c-3,2.5-4.9,5.6-5.9,9.3c-0.6,2.4-0.9,6.8-0.9,13.2v17.7H754V761.5z"/>
		<path class="st0" d="M242.5,849.9l-10.9,6c-2-2.1-4.1-3.6-6.1-4.4c-2-0.8-4.3-1.2-7-1.2c-4.9,0-8.8,1.5-11.8,4.4
			c-3,2.9-4.5,6.6-4.5,11.2c0,4.4,1.5,8,4.4,10.8c2.9,2.8,6.7,4.2,11.4,4.2c5.8,0,10.4-2,13.6-6l10.3,7
			c-5.6,7.3-13.4,10.9-23.6,10.9c-9.1,0-16.3-2.7-21.5-8.1c-5.2-5.4-7.8-11.8-7.8-19c0-5,1.3-9.7,3.8-13.9c2.5-4.2,6-7.6,10.5-10
			c4.5-2.4,9.5-3.6,15.1-3.6c5.2,0,9.8,1,13.9,3.1S239.9,846.1,242.5,849.9z"/>
		<path class="st0" d="M278.6,838.1c4.9,0,9.5,1.2,13.8,3.7c4.3,2.5,7.7,5.8,10.1,10c2.4,4.2,3.6,8.7,3.6,13.6
			c0,4.9-1.2,9.5-3.7,13.8c-2.4,4.3-5.8,7.6-10,10c-4.2,2.4-8.8,3.6-13.9,3.6c-7.5,0-13.8-2.7-19.1-8c-5.3-5.3-7.9-11.7-7.9-19.3
			c0-8.1,3-14.9,8.9-20.3C265.8,840.4,271.8,838.1,278.6,838.1z M278.8,850.4c-4.1,0-7.4,1.4-10.1,4.2c-2.7,2.8-4,6.4-4,10.8
			c0,4.5,1.3,8.2,4,11c2.7,2.8,6,4.2,10.1,4.2c4.1,0,7.5-1.4,10.2-4.3c2.7-2.8,4.1-6.5,4.1-10.9c0-4.5-1.3-8.1-4-10.9
			C286.3,851.8,282.9,850.4,278.8,850.4z"/>
		<path class="st0" d="M316.7,839.4h13v5.3c3-2.5,5.6-4.2,8-5.2c2.4-1,4.9-1.5,7.4-1.5c5.2,0,9.5,1.8,13.1,5.4
			c3,3.1,4.5,7.6,4.5,13.6v34.4h-12.9v-22.8c0-6.2-0.3-10.3-0.8-12.4c-0.6-2-1.5-3.6-2.9-4.7s-3.1-1.6-5.1-1.6
			c-2.6,0-4.9,0.9-6.8,2.6c-1.9,1.8-3.2,4.2-3.9,7.3c-0.4,1.6-0.6,5.1-0.6,10.5v20.9h-13V839.4z"/>
		<path class="st0" d="M413.7,819.3h13v72.1h-13v-5.5c-2.5,2.4-5.1,4.2-7.7,5.2c-2.6,1.1-5.3,1.6-8.3,1.6c-6.7,0-12.5-2.6-17.4-7.8
			c-4.9-5.2-7.4-11.7-7.4-19.4c0-8,2.4-14.6,7.1-19.7c4.7-5.1,10.5-7.7,17.3-7.7c3.1,0,6,0.6,8.8,1.8c2.7,1.2,5.3,2.9,7.6,5.3V819.3
			z M400,850.1c-4,0-7.4,1.4-10,4.3s-4,6.5-4,11c0,4.5,1.4,8.2,4.1,11.1c2.7,2.9,6.1,4.3,10,4.3c4.1,0,7.5-1.4,10.2-4.3
			c2.7-2.9,4-6.6,4-11.2c0-4.5-1.4-8.2-4-11C407.5,851.5,404.1,850.1,400,850.1z"/>
		<path class="st0" d="M464.3,838.1c4.9,0,9.5,1.2,13.8,3.7c4.3,2.5,7.7,5.8,10.1,10c2.4,4.2,3.6,8.7,3.6,13.6
			c0,4.9-1.2,9.5-3.7,13.8c-2.4,4.3-5.8,7.6-10,10c-4.2,2.4-8.8,3.6-13.9,3.6c-7.5,0-13.8-2.7-19.1-8c-5.3-5.3-7.9-11.7-7.9-19.3
			c0-8.1,3-14.9,8.9-20.3C451.5,840.4,457.5,838.1,464.3,838.1z M464.5,850.4c-4.1,0-7.4,1.4-10.1,4.2c-2.7,2.8-4,6.4-4,10.8
			c0,4.5,1.3,8.2,4,11c2.7,2.8,6,4.2,10.1,4.2c4.1,0,7.5-1.4,10.2-4.3c2.7-2.8,4.1-6.5,4.1-10.9c0-4.5-1.3-8.1-4-10.9
			C472,851.8,468.6,850.4,464.5,850.4z"/>
		<path class="st0" d="M502.3,839.4h13v6c2.2-2.5,4.7-4.3,7.4-5.5c2.7-1.2,5.7-1.8,8.9-1.8c3.3,0,6.2,0.8,8.8,2.4
			c2.6,1.6,4.7,3.9,6.3,7c2.1-3.1,4.6-5.4,7.6-7c3-1.6,6.3-2.4,9.9-2.4c3.7,0,7,0.9,9.8,2.6c2.8,1.7,4.8,4,6,6.7s1.8,7.3,1.8,13.5
			v30.5h-13.1V865c0-5.9-0.7-9.9-2.2-12c-1.5-2.1-3.7-3.1-6.6-3.1c-2.2,0-4.2,0.6-6,1.9c-1.8,1.3-3.1,3-3.9,5.3s-1.3,5.9-1.3,10.8
			v23.5h-13.1v-25.2c0-4.7-0.3-8-1-10.1c-0.7-2.1-1.7-3.6-3.1-4.7c-1.4-1-3-1.5-5-1.5c-2.2,0-4.1,0.6-5.9,1.9s-3.1,3.1-4,5.4
			c-0.9,2.3-1.3,6-1.3,11v23.1h-13V839.4z"/>
		<path class="st0" d="M599.4,818c2.3,0,4.2,0.8,5.9,2.5c1.6,1.7,2.5,3.7,2.5,6c0,2.3-0.8,4.3-2.4,5.9c-1.6,1.6-3.6,2.5-5.8,2.5
			c-2.3,0-4.3-0.8-5.9-2.5c-1.6-1.7-2.5-3.7-2.5-6.1c0-2.3,0.8-4.3,2.4-5.9S597.1,818,599.4,818z M592.9,839.4h13v52h-13V839.4z"/>
		<path class="st0" d="M617.7,839.4h13v5.3c3-2.5,5.6-4.2,8-5.2c2.4-1,4.9-1.5,7.4-1.5c5.2,0,9.5,1.8,13.1,5.4
			c3,3.1,4.5,7.6,4.5,13.6v34.4h-12.9v-22.8c0-6.2-0.3-10.3-0.8-12.4c-0.6-2-1.5-3.6-2.9-4.7S644,850,642,850
			c-2.6,0-4.9,0.9-6.8,2.6c-1.9,1.8-3.2,4.2-3.9,7.3c-0.4,1.6-0.6,5.1-0.6,10.5v20.9h-13V839.4z"/>
		<path class="st0" d="M681.4,818c2.3,0,4.2,0.8,5.9,2.5c1.6,1.7,2.5,3.7,2.5,6c0,2.3-0.8,4.3-2.4,5.9c-1.6,1.6-3.6,2.5-5.8,2.5
			c-2.3,0-4.3-0.8-5.9-2.5s-2.5-3.7-2.5-6.1c0-2.3,0.8-4.3,2.4-5.9S679.1,818,681.4,818z M674.9,839.4h13v52h-13V839.4z"/>
		<path class="st0" d="M724.1,838.1c4.9,0,9.5,1.2,13.8,3.7c4.3,2.5,7.7,5.8,10.1,10c2.4,4.2,3.6,8.7,3.6,13.6
			c0,4.9-1.2,9.5-3.7,13.8c-2.4,4.3-5.8,7.6-10,10c-4.2,2.4-8.8,3.6-13.9,3.6c-7.5,0-13.8-2.7-19.1-8c-5.3-5.3-7.9-11.7-7.9-19.3
			c0-8.1,3-14.9,8.9-20.3C711.3,840.4,717.3,838.1,724.1,838.1z M724.3,850.4c-4.1,0-7.4,1.4-10.1,4.2c-2.7,2.8-4,6.4-4,10.8
			c0,4.5,1.3,8.2,4,11c2.7,2.8,6,4.2,10.1,4.2s7.5-1.4,10.2-4.3c2.7-2.8,4.1-6.5,4.1-10.9c0-4.5-1.3-8.1-4-10.9
			C731.8,851.8,728.4,850.4,724.3,850.4z"/>
		<path class="st0" d="M794,846.7l-8.1,8.1c-3.3-3.2-6.3-4.9-8.9-4.9c-1.5,0-2.6,0.3-3.4,0.9c-0.8,0.6-1.2,1.4-1.2,2.3
			c0,0.7,0.3,1.3,0.8,1.9c0.5,0.6,1.8,1.4,3.9,2.4l4.8,2.4c5,2.5,8.5,5,10.4,7.6c1.9,2.6,2.8,5.6,2.8,9.1c0,4.6-1.7,8.5-5.1,11.6
			s-7.9,4.6-13.6,4.6c-7.6,0-13.6-3-18.2-8.9l8-8.7c1.5,1.8,3.3,3.2,5.4,4.3c2.1,1.1,3.9,1.6,5.5,1.6c1.7,0,3.1-0.4,4.2-1.2
			c1.1-0.8,1.6-1.8,1.6-2.9c0-2-1.9-4-5.7-5.9l-4.4-2.2c-8.4-4.2-12.6-9.5-12.6-15.9c0-4.1,1.6-7.6,4.8-10.5
			c3.2-2.9,7.2-4.4,12.2-4.4c3.4,0,6.6,0.7,9.5,2.2C789.4,841.8,792,843.9,794,846.7z"/>
	</g>
	<path class="st0" d="M832.9,633.1c-25.7,36.4-63.3,59.3-70.2,58.4c-9.3,0-135.3,0-256.1,0c0-14.5,0-106.1,0-141.6
		c6.7,3.9,6.1,4,30.2,20c13.8,9.2,103.3,60,171.4,17.8c32.9-22.7,31.4-61.1,13.9-81.8c-17.5-20.7-45.3-30.5-70.1-40.9
		c-43.8-18.2-89.6-32.6-130.3-57.5c-16.8-11.6-15.2-9-15.1-18.2c-0.1-27.3,0-267.8,0-282c10.3,0,25.2,0,35.4,0
		c22.2,0,52,0.1,74.3,0.1c0,11.7,0,20.4,0,28.1c0,36,0,87.5,0,154.6c0.1,26.6,2,33.7,39.4,49.1c27.8,10.6,103,35,149.9,75.4
		C891.8,497.8,854.9,602,832.9,633.1z"/>
	<path class="st0" d="M225,545.1c21.6,17.7,51.5,37.5,133.1,58.3c71.7,14.5,136.4-72.1,59.4-115.4
		c-93.6-49.5-235.4-67.8-256.4-193.3c-14.3-75.1,24.4-153.9,93.5-187.5c51.4,0.4,158.7,0.4,233.3,0c0.3,17.6,0,69.9,0,117.2
		c-0.2,5.6-4,12.2-11,15c-10.5-7.2-31.2-25.1-41.4-29.2c-30.3-13-66.8-20.4-98.8-11c-34.7,7.7-65.3,45.7-49.7,81
		c42.2,69.3,147,61.6,200.5,112.9c0,99.9,0,205.9,0,298.3c-102.4,0-172.4,0.2-256.4,0c-39.6-8.4-86.5-53.8-91-57.5
		C143,631,222.1,548.2,225,545.1z"/>
</g>
</svg>
