<?xml version="1.0" encoding="utf-8"?>
<!-- Generator: Adobe Illustrator 22.0.0, SVG Export Plug-In . SVG Version: 6.00 Build 0)  -->
<svg version="1.1" id="Layer_1" xmlns="http://www.w3.org/2000/svg" xmlns:xlink="http://www.w3.org/1999/xlink" x="0px" y="0px"
	 viewBox="0 0 1232 472" style="enable-background:new 0 0 1232 472;" xml:space="preserve">
<style type="text/css">
	.st0{fill:#FFFFFF;}
	.st1{fill:#0382BE;}
	.st2{fill:#1C305D;}
</style>
<g>
	<g>
		<path class="st0" d="M133.1,463.6c-4.7,0-10.5-1.6-17.6-4.9l-2.8-1.3l-2.8-25.1l8.3,3c6.1,2.2,9.5,2.7,11.4,2.7
			c3.3,0,6.3-0.9,9-2.8c2.9-1.9,5.5-5.2,7.8-9.8c3.1-6.1,6.5-18.5,10.1-37c-3.5,0-7.1,0-10.8,0c-5.9,0-11.3,0-16.4-0.1
			c-0.6,2.5-1.3,4.8-1.9,6.8c-4.7,15.2-11.3,28.5-19.5,39.5c-7.2,9.7-15.7,17.4-25.3,22.8c-7.2,4-14.4,6.1-21.4,6.1
			c-4.7,0-10.5-1.6-17.7-4.9l-2.8-1.3l-2.8-25.1l8.3,3c6.1,2.2,9.5,2.7,11.4,2.7c3.3,0,6.3-0.9,9-2.8c2.8-1.9,5.5-5.2,7.8-9.8
			c3.2-6.4,6.8-19.7,10.6-39.6c-16.6-2.1-27.5-5.8-36.9-12.2c-19-13.4-25.4-30.1-25.4-66.3c0-1.8,0-8.1,0.4-13l0.4-5.1h43v11.3
			c0.8,33.1,3.4,35.7,12.5,39.5c1.8,0.8,5.6,1.9,13.1,2.9c2.8-19.1,6.6-45.7,11.3-79.3c-28.5-1.6-47.9-8.2-60.7-20.5
			c-13.8-13.2-20.3-33.2-20.3-62.7c0-26.7,6.9-46.6,20.6-59.1c13.4-12.3,27.4-17.6,57.6-21.6c6.1-0.8,14.3-1.6,23.7-2.3
			c3.3-28.3,4-36.7,4-38.8c0-6.9-1.7-8.1-1.8-8.2c-0.6-0.3-5.1-2.2-30.6-4.2l-5.1-0.4V22.1l5.5,0c73.5,0.1,104.2,0.1,183.1,0l5.5,0
			v23.7l-5,0.5c-20.6,2-24.4,3.5-24.9,3.8c-1.5,0.9-2.9,2.6-4.3,5.1c-0.5,1-2.5,6.5-6.5,35.8l-1.2,9.2c17.4,3.5,30.2,9.3,40,18.1
			c15.6,13.8,20.3,28.7,20.6,66.6l0.1,5.6H259v-9.7c0-26.4-3.5-30.5-17.5-35.6c-1.3-0.5-2.9-1-4.5-1.4l-10.4,77.3l2.8,0
			c38.4,0,57.4,7.6,70.1,28.2c8,12.6,11.8,28.8,11.8,51.2c0,37.2-10.2,60.4-32.1,72.8l-0.1,0.1c-14.7,7.9-38.1,12.1-77.8,13.9
			c-0.7,2.9-1.5,5.5-2.2,7.8c-4.7,15.3-11.3,28.5-19.5,39.5c-7.2,9.7-15.7,17.4-25.3,22.8C147.2,461.5,140,463.6,133.1,463.6z
			 M137.6,345.6c7.9,0.2,16.6,0.3,25.9,0.3c2.9-19.2,6.8-46.7,11.7-81.8c-7.8,0-16.5,0-26.2,0l-7.2,53.6
			C140.4,327.8,139,337.2,137.6,345.6z M220.9,264.5l-7.2,53.2c-1.3,9.6-2.7,18.6-4,26.8c16.1-1.1,29.2-2.8,36.4-4.7l0.2,0
			c4.9-1.1,19.8-4.6,19.8-36.2c0-24.8-5.3-31.7-14.5-35.2C245.2,265.9,242.6,264.9,220.9,264.5z M154.8,220.7c6.4,0,12.9,0,26.2,0.1
			c3.3-24.9,6.4-49.4,9.2-73l0,0c0.4-3.1,0.8-6.2,1.1-9.2c-4.9-0.1-10-0.2-15.2-0.2c-3.5,0-7,0-10.3,0L154.8,220.7z M85.1,215.1
			c5.9,1.7,14,3,24.2,4c3.2-24.3,6.2-48.2,9-71.2c0.3-2.6,0.6-5.1,0.9-7.6c-46.3,4.2-51.6,16.5-51.6,40.6
			C67.5,205.4,71.7,210.7,85.1,215.1z M177.6,95.5c6.7,0,12.9,0.1,18.8,0.3c3.1-26.9,3.8-35.1,3.8-37c0-6.9-1.7-8.1-1.8-8.2
			c-0.3-0.2-3.2-2-9-2c-1.7,0-4.3,0.3-6.3,1.5c-1.6,0.9-3,2.7-4.3,5.2c-0.5,1-2.6,6.5-6.5,35.7l-0.6,4.5
			C173.6,95.5,175.7,95.5,177.6,95.5z"/>
	</g>
	<g>
		<g>
			<g>
				<path class="st1" d="M60.9,294.7v5.9c0.8,32.4,3,39.1,15.8,44.5c9.8,4.2,39.2,6.3,90.3,6.3c32.8,0,66.3-2.5,80.6-6.3
					c16.2-3.8,24.1-17.6,24.1-41.6c0-24.4-4.9-35.3-18.1-40.3c-12.4-4.6-12.4-4.6-135.1-4.6c-66.3,0-90.7-21-90.7-78.2
					c0-25.2,6.4-43.7,18.8-55c12.8-11.8,26-16.4,54.6-20.2c18.4-2.5,52.3-4.2,76.4-4.2c56.5,0,84.3,5.9,101.6,21.4
					c14.3,12.6,18.4,26.5,18.8,62.6h-33.5v-4.2c0-27.3-3.8-34.5-21.1-40.8c-12.4-4.6-35.8-7.1-67.4-7.1c-94.9,0-114.1,8-114.1,47.9
					c0,25.6,4.5,34,21.5,39.5c11.7,3.4,31.2,5.5,60.6,5.9c18.4,0,18.4,0,85.5,0.4c36.5,0,53.8,6.7,65.5,25.6
					c7.5,11.8,10.9,27.3,10.9,48.3c0,35.3-9.4,56.7-29.4,68.1c-18.8,10.1-55.3,14.3-131,14.3c-57.2,0-79.1-3.4-94.5-13.9
					c-17.3-12.2-23-26.9-23-61.8c0-0.8,0-7.6,0.4-12.6H60.9z"/>
			</g>
		</g>
		<g>
			<path class="st2" d="M96.2,27.6v13.2c19.3,1.5,30.3,3.3,33.2,5.1c2.8,1.9,4.3,6.1,4.3,12.8c0,5-3.3,34.9-10,89.8
				c-4.3,35.7-9,72.6-14.2,110.7c-7.7,55.7-13,92.4-15.9,110c-5.1,30.5-9.9,50-14.3,58.7c-2.8,5.4-6,9.4-9.6,11.8
				c-3.7,2.5-7.7,3.7-12.1,3.7c-3.3,0-7.7-1-13.2-3l1.5,13.2c6.4,2.9,11.5,4.4,15.3,4.4c6.1,0,12.3-1.8,18.7-5.3
				c9-5.1,16.9-12.2,23.6-21.3c7.9-10.5,14.1-23.1,18.7-37.8c4.6-14.9,9.3-40.4,14.3-76.6l15.2-113.2l15.2-113.5
				c2.9-21.7,5.3-34.2,7.1-37.6c1.8-3.4,3.9-5.8,6.3-7.3c1.3-0.8,4.2-2.3,9.2-2.3c6.5,0,10.5,1.9,12.1,2.9c2.8,1.9,4.3,6.1,4.3,12.8
				c0,5-3.3,34.9-10,89.8c-4.3,35.7-9,72.6-14.2,110.7c-7.7,55.7-13,92.4-15.9,110c-5.1,30.5-9.9,50-14.3,58.7
				c-2.8,5.4-6,9.4-9.6,11.8c-3.7,2.5-7.7,3.7-12.1,3.7c-3.3,0-7.7-1-13.2-3l1.5,13.2c6.4,2.9,11.5,4.4,15.3,4.4
				c6.1,0,12.3-1.8,18.7-5.3c9-5.1,16.9-12.2,23.6-21.3c7.9-10.5,14.1-23.1,18.7-37.8c4.6-14.9,9.3-40.4,14.3-76.6l15.2-113.2
				l15.2-113.5c2.9-21.7,5.3-34.2,7.1-37.6c1.8-3.4,3.9-5.8,6.3-7.3c2.4-1.5,11.5-3,27.1-4.5V27.6C200.8,27.7,169.3,27.7,96.2,27.6z
				"/>
		</g>
	</g>
</g>
<g>
	<path class="st0" d="M463.7,121v2c0.3,10.9,1.1,13.1,5.9,15c3.7,1.4,14.7,2.1,33.9,2.1c12.3,0,24.9-0.8,30.2-2.1
		c6.1-1.3,9-5.9,9-14c0-8.2-1.8-11.9-6.8-13.6c-4.7-1.6-4.7-1.6-50.7-1.6c-24.9,0-34-7.1-34-26.3c0-8.5,2.4-14.7,7.1-18.5
		c4.8-4,9.7-5.5,20.5-6.8c6.9-0.8,19.6-1.4,28.7-1.4c21.2,0,31.6,2,38.1,7.2c5.4,4.2,6.9,8.9,7.1,21h-12.6v-1.4
		c0-9.2-1.4-11.6-7.9-13.7c-4.7-1.6-13.4-2.4-25.3-2.4c-35.6,0-42.8,2.7-42.8,16.1c0,8.6,1.7,11.4,8.1,13.3c4.4,1.1,11.7,1.8,22.7,2
		c6.9,0,6.9,0,32.1,0.1c13.7,0,20.2,2.3,24.6,8.6c2.8,4,4.1,9.2,4.1,16.2c0,11.9-3.5,19.1-11,22.9c-7.1,3.4-20.8,4.8-49.2,4.8
		c-21.5,0-29.7-1.1-35.5-4.7c-6.5-4.1-8.6-9-8.6-20.8c0-0.3,0-2.5,0.1-4.2H463.7z"/>
	<path class="st0" d="M648.1,130.2c-0.4,15.7-9.6,21-36.2,21c-22.6,0-32.6-1.6-38.4-6.1c-6.2-4.8-9.3-13.8-9.3-27.3
		c0-16,3.8-25.1,12.3-29.8c5.4-3,12.9-4,28.7-4c22.6,0,30.4,1.8,36.4,8.6c4.9,5.8,6.4,11.7,6.6,27.3h-72.9
		c0.3,8.5,1.7,13.6,4.8,16.8c4,4.1,11,5.4,30.7,5.4c14.8,0,20.6-1.1,24-4.9c1.7-1.7,2-2.8,2.4-7.1H648.1z M636.8,111.2
		c-0.1-14.4-6.5-17.9-31.9-17.9c-22.6,0-28.1,3.4-29.2,17.9H636.8z"/>
	<path class="st0" d="M667.8,85v8.8h0.7c1.7-3.1,4.2-5.4,7.8-7.1c4-2,9.5-2.5,21.9-2.5c12.9,0,18.1,1.1,22.5,4.9s6.6,10,6.6,18.5
		v6.8h-10.6v-4.7c0-13.6-3.5-16.5-19.6-16.5c-24.9,0-29.2,4-29.2,27v30.2h-10.3V85H667.8z"/>
	<path class="st0" d="M739.9,85l31.6,55.8h1.1L804.4,85H817l-38.1,65.4h-13.4L727.7,85H739.9z"/>
	<path class="st0" d="M831.4,56.2v12.3h-10.3V56.2H831.4z M831.4,85v65.4h-10.3V85H831.4z"/>
	<path class="st0" d="M923.9,126.7c-0.1,8.8-1.7,13.4-5.5,17.4c-5.1,5.4-12.4,7.2-29.4,7.2c-23.3,0-32.3-1.4-38.1-6.2
		c-6.1-4.9-9-13.7-9-27.3c0-15.7,3.8-24.9,12-29.4c5.6-3.1,13.3-4.2,29-4.2c20.9,0,29.8,1.8,35,7.3c3.8,3.8,5.2,8.3,5.6,16.8h-10.7
		c-0.3-12.3-5.9-15.1-29.9-15.1c-25.3,0-29.9,4-29.9,25.3c0,11.7,2.5,18.1,8.5,20.8c4.1,2,12,2.8,25.7,2.8
		c21.2,0,25.9-2.7,26.3-15.4H923.9z"/>
	<path class="st0" d="M943.6,56.2v12.3h-10.3V56.2H943.6z M943.6,85v65.4h-10.3V85H943.6z"/>
	<path class="st0" d="M1029,88.8c7.9,5.1,11.2,13.6,11.2,28.8c0,15.8-3.5,24.7-11.7,29.4c-5.7,3.2-13,4.2-29.7,4.2
		c-19.2,0-27.3-1.1-33.2-4.7c-8.3-4.8-11.6-13.1-11.6-29.2c0-15.5,4-24.9,12.6-29.4c5.4-2.8,12.7-3.8,27.5-3.8
		C1015.3,84.2,1023.4,85.3,1029,88.8z M965,118.1c0,13.6,2.7,19.4,10.3,22c4.2,1.6,10.5,2.1,22.6,2.1c15.3,0,21-1,25.3-4.2
		c4.2-3.4,5.9-9.2,5.9-20.6c0-12.9-2.4-18.6-9-21.6c-4-1.8-11-2.5-24.3-2.5C969.7,93.2,965,97,965,118.1z"/>
	<path class="st0" d="M1059.2,127.7l0.1,1.8c-0.1,11.9,2.1,12.7,31.5,12.7c18.1,0,23.2-0.6,26.3-3.1c2-1.6,2.8-3.8,2.8-7.1
		c0-7.8-4.2-10.3-17.4-10.2c-2.8,0-4.9,0-29.9-0.3c-17.2-0.3-23.3-4.9-23.3-18.1c0-7.1,2.3-12,6.9-15.1c4.7-3,14.4-4.2,33.6-4.2
		c22,0,30.9,2,35.7,8.2c2.4,3,3,5.1,3,12.9h-11c0-4.8-0.4-6.5-2-7.9c-2.8-3-10.6-4.1-26.1-4.1c-14.6,0-23.2,1-26.1,3.2
		c-2,1.4-3,3.8-3,7.2c0,7.2,3.8,8.9,19.5,8.6c4.4-0.1,23.3,0.3,30.1,0.6c15,0.6,21,6.2,21,19.1c0,8.1-2.4,12.9-7.8,15.8
		c-4.7,2.5-14.1,3.5-32.8,3.5c-22.3,0-31.2-1.1-36.2-4.8c-4.5-3.2-6.1-7.3-6.1-15.4v-3.4H1059.2z"/>
	<path class="st0" d="M368.3,195.7h88.4v11h-75.9v29.9h72.5v11h-72.5v42.2h-12.6V195.7z"/>
	<path class="st0" d="M474.7,195.7V208h-10.3v-12.3H474.7z M474.7,224.5v65.4h-10.3v-65.4H474.7z"/>
	<path class="st0" d="M496.8,224.5v9.9h0.8c4.2-8.5,11.4-10.7,32.9-10.7c18.8,0,26.6,1.7,31.6,7.2c4,4.4,5.4,9.9,5.4,22.2v36.9
		h-10.3v-32.5c0-11.7-0.7-15.7-3.7-19.1c-3.4-4.1-9.9-5.6-24.2-5.6c-16.1,0-24.3,2.1-28.8,7.6c-3.2,3.8-3.8,6.9-3.8,19.4v30.2h-10.3
		v-65.4H496.8z"/>
	<path class="st0" d="M579.1,244.2v-2.8c0-13.7,8.3-17.7,36.7-17.7c22.2,0,29.8,1.6,35.3,7.3c4.5,4.5,5.5,8.9,5.5,24.4v34.5h-10.3
		l0.1-7.6H646c-4.9,7.1-9.7,8.5-29.7,8.5c-23.4,0-29.7-0.8-34.5-4.5c-4.2-3.4-5.7-7.3-5.7-15.3c0-10.3,2.5-15.4,9.3-17.9
		c4-1.6,10.2-2.1,24-2.1c26.8,0,31.4,0.8,35.9,7.1h0.8v-7.1c0-6.8-0.7-9.6-3.1-12.4c-3.7-4.5-9.6-5.8-26.7-5.8
		c-22.5,0-26.4,1.6-26.6,10.6v0.8H579.1z M591.1,262.4c-2.5,1.7-3.8,4.5-3.8,8.8c0,4.8,1.4,7.3,5.1,8.9c3,1.3,10,1.7,26.1,1.7
		c21.9,0,27.1-2.1,27.1-10.9c0-8.5-6.2-10.7-29.2-10.7C599,260.1,594,260.6,591.1,262.4z"/>
	<path class="st0" d="M677.8,224.5v9.9h0.8c4.2-8.5,11.4-10.7,32.9-10.7c18.8,0,26.6,1.7,31.6,7.2c4,4.4,5.4,9.9,5.4,22.2v36.9
		h-10.3v-32.5c0-11.7-0.7-15.7-3.7-19.1c-3.4-4.1-9.9-5.6-24.2-5.6c-16.1,0-24.3,2.1-28.8,7.6c-3.2,3.8-3.8,6.9-3.8,19.4v30.2h-10.3
		v-65.4H677.8z"/>
	<path class="st0" d="M840.1,266.2c-0.1,8.8-1.7,13.4-5.5,17.4c-5.1,5.4-12.4,7.2-29.4,7.2c-23.3,0-32.3-1.4-38.1-6.2
		c-6.1-4.9-9-13.7-9-27.3c0-15.7,3.8-24.9,12-29.4c5.6-3.1,13.3-4.2,29-4.2c20.9,0,29.8,1.8,35,7.3c3.8,3.8,5.2,8.3,5.7,16.8h-10.7
		c-0.3-12.3-5.9-15.1-29.9-15.1c-25.3,0-29.9,4-29.9,25.3c0,11.7,2.5,18.1,8.5,20.8c4.1,2,12,2.8,25.7,2.8
		c21.2,0,25.9-2.7,26.3-15.4H840.1z"/>
	<path class="st0" d="M859.7,195.7V208h-10.3v-12.3H859.7z M859.7,224.5v65.4h-10.3v-65.4H859.7z"/>
	<path class="st0" d="M954.1,269.7c-0.4,15.7-9.6,21-36.2,21c-22.6,0-32.6-1.6-38.4-6.1c-6.2-4.8-9.3-13.8-9.3-27.3
		c0-16,3.8-25.1,12.3-29.8c5.4-3,12.9-4,28.7-4c22.6,0,30.4,1.8,36.4,8.6c4.9,5.8,6.4,11.7,6.6,27.3h-72.9
		c0.3,8.5,1.7,13.6,4.8,16.8c4,4.1,11,5.4,30.7,5.4c14.8,0,20.6-1.1,24-4.9c1.7-1.7,2-2.8,2.4-7.1H954.1z M942.8,250.7
		c-0.1-14.4-6.5-17.9-31.9-17.9c-22.6,0-28.1,3.4-29.2,17.9H942.8z"/>
	<path class="st0" d="M973.9,224.5v8.8h0.7c1.7-3.1,4.2-5.4,7.8-7.1c4-2,9.5-2.5,21.9-2.5c12.9,0,18.1,1.1,22.5,4.9
		c4.4,3.8,6.6,10,6.6,18.5v6.8h-10.6v-4.7c0-13.6-3.5-16.5-19.6-16.5c-24.9,0-29.2,4-29.2,27v30.2h-10.3v-65.4H973.9z"/>
	<path class="st0" d="M1114.8,228.3c7.9,5.1,11.2,13.6,11.2,28.8c0,15.8-3.5,24.7-11.7,29.4c-5.7,3.2-13,4.2-29.7,4.2
		c-19.2,0-27.3-1.1-33.2-4.7c-8.3-4.8-11.6-13.1-11.6-29.2c0-15.5,4-24.9,12.6-29.4c5.4-2.8,12.7-3.8,27.5-3.8
		C1101.1,223.7,1109.2,224.8,1114.8,228.3z M1050.8,257.6c0,13.6,2.7,19.4,10.3,22c4.2,1.6,10.5,2.1,22.6,2.1c15.3,0,21-1,25.3-4.2
		c4.2-3.4,5.9-9.2,5.9-20.6c0-12.9-2.4-18.6-9-21.6c-4-1.8-11-2.5-24.3-2.5C1055.5,232.7,1050.8,236.5,1050.8,257.6z"/>
	<path class="st0" d="M1145,267.2l0.1,1.8c-0.1,11.9,2.1,12.7,31.5,12.7c18.1,0,23.2-0.6,26.3-3.1c2-1.6,2.8-3.8,2.8-7.1
		c0-7.8-4.2-10.3-17.4-10.2c-2.8,0-4.9,0-29.9-0.3c-17.2-0.3-23.3-4.9-23.3-18.1c0-7.1,2.3-12,6.9-15.1c4.7-3,14.4-4.2,33.6-4.2
		c22,0,30.9,2,35.7,8.2c2.4,3,3,5.1,3,12.9h-11c0-4.8-0.4-6.5-2-7.9c-2.8-3-10.6-4.1-26.1-4.1c-14.5,0-23.2,1-26.1,3.2
		c-2,1.4-3,3.8-3,7.2c0,7.2,3.8,8.9,19.5,8.6c4.4-0.1,23.3,0.3,30.1,0.6c15,0.6,21,6.2,21,19.1c0,8.1-2.4,12.9-7.8,15.8
		c-4.7,2.5-14.1,3.5-32.8,3.5c-22.3,0-31.2-1.1-36.2-4.8c-4.5-3.2-6.1-7.3-6.1-15.4v-3.4H1145z"/>
	<path class="st0" d="M784.8,335.2V384c-0.1,23.2-0.3,26-2.1,31.1c-4.5,12-13.3,14.7-48,14.7c-20.2,0-29.2-2-34.2-7.5
		c-4.4-4.9-5.5-10.6-5.7-27.4h11.9v3.1c0.3,13.6,1.6,16.5,8.2,18.8c3.5,1.1,10.5,1.7,22.3,1.7c2.7,0,17.1-0.6,19.8-0.7
		c8.3-0.6,11.7-2.4,13.6-6.9c1.4-3.7,1.7-6.1,1.7-26.8v-48.7H784.8z"/>
	<path class="st0" d="M880.8,335.2V384c-0.1,23.2-0.3,26-2.1,31.1c-4.5,12-13.3,14.7-48,14.7c-20.2,0-29.2-2-34.2-7.5
		c-4.4-4.9-5.5-10.6-5.7-27.4h11.9v3.1c0.3,13.6,1.6,16.5,8.2,18.8c3.5,1.1,10.5,1.7,22.3,1.7c2.7,0,17.1-0.6,19.8-0.7
		c8.3-0.6,11.7-2.4,13.6-6.9c1.4-3.7,1.7-6.1,1.7-26.8v-48.7H880.8z"/>
</g>
</svg>
