<?xml version="1.0" encoding="utf-8"?>
<!-- Generator: Adobe Illustrator 22.0.0, SVG Export Plug-In . SVG Version: 6.00 Build 0)  -->
<svg version="1.1" id="Layer_1" xmlns="http://www.w3.org/2000/svg" xmlns:xlink="http://www.w3.org/1999/xlink" x="0px" y="0px"
	 viewBox="0 0 792 348" style="enable-background:new 0 0 792 348;" xml:space="preserve">
<style type="text/css">
	.st0{fill:#FFFFFF;}
	.st1{fill:#D4AC29;}
</style>
<g>
	<path class="st0" d="M361.4,103.8l27.5-66.9h41.3v2.8h-3.3c-3,0-5.4,0.5-7.2,1.6c-1.2,0.7-2.2,1.9-3,3.5c-0.5,1.2-0.8,4.3-0.8,9.4
		V121c0,5.2,0.3,8.4,0.8,9.7c0.5,1.3,1.7,2.4,3.4,3.4c1.7,1,4,1.5,6.8,1.5h3.3v2.8h-53v-2.8h3.3c3,0,5.4-0.5,7.2-1.6
		c1.2-0.7,2.2-1.9,3-3.6c0.5-1.2,0.8-4.3,0.8-9.4V45.8l-38.9,92.6h-1.8l-39.5-91.9v71.5c0,5,0.1,8.1,0.4,9.2
		c0.6,2.5,2.1,4.5,4.2,6.1s5.6,2.4,10.2,2.4v2.8h-34.7v-2.8h1c2.2,0.1,4.3-0.3,6.3-1.1c1.9-0.8,3.4-1.8,4.4-3.1
		c1-1.3,1.8-3.1,2.3-5.5c0.1-0.5,0.1-3.1,0.1-7.6V54.1c0-5.1-0.3-8.3-0.8-9.6c-0.5-1.3-1.7-2.4-3.4-3.4c-1.7-1-4-1.5-6.8-1.5h-3.2
		v-2.8h41.5L361.4,103.8z"/>
	<path class="st0" d="M499,68.4v54.8c0,5.3,0.5,8.7,1.5,10c1,1.3,3,2.2,6.1,2.5v2.7H478V129c-3.3,4-6.7,6.9-10,8.7
		c-3.3,1.8-7.1,2.7-11.2,2.7c-3.9,0-7.4-1.2-10.5-3.6s-5.1-5.3-6.2-8.5c-1-3.2-1.6-8.9-1.6-17V83.6c0-5.3-0.5-8.6-1.5-9.9
		c-1-1.3-3-2.1-6.1-2.5v-2.8h28.5v47.8c0,5,0.2,8.2,0.7,9.7c0.5,1.4,1.2,2.5,2.2,3.3c1,0.7,2.2,1.1,3.6,1.1c1.8,0,3.4-0.5,4.9-1.4
		c2-1.3,4.4-3.9,7.2-7.9V83.6c0-5.3-0.5-8.6-1.5-9.9c-1-1.3-3-2.1-6.1-2.5v-2.8H499z"/>
	<path class="st0" d="M537.7,42.8v25.6h16.6v7.4h-16.6V119c0,4,0.2,6.6,0.6,7.8c0.4,1.2,1,2.1,2,2.8c0.9,0.7,1.8,1.1,2.6,1.1
		c3.2,0,6.3-2.5,9.2-7.4l2.2,1.6c-4,9.6-10.6,14.4-19.7,14.4c-4.4,0-8.2-1.2-11.3-3.7s-5-5.2-5.9-8.3c-0.5-1.7-0.7-6.3-0.7-13.8
		V75.8h-9.1v-2.6c6.3-4.4,11.6-9.1,16.1-14c4.4-4.9,8.3-10.4,11.6-16.4H537.7z"/>
	<path class="st0" d="M621.8,68.4v54.8c0,5.3,0.5,8.7,1.5,10c1,1.3,3,2.2,6.1,2.5v2.7h-28.5V129c-3.3,4-6.7,6.9-10,8.7
		c-3.3,1.8-7.1,2.7-11.2,2.7c-3.9,0-7.4-1.2-10.5-3.6s-5.1-5.3-6.2-8.5c-1-3.2-1.6-8.9-1.6-17V83.6c0-5.3-0.5-8.6-1.5-9.9
		c-1-1.3-3-2.1-6.1-2.5v-2.8h28.5v47.8c0,5,0.2,8.2,0.7,9.7c0.5,1.4,1.2,2.5,2.2,3.3c1,0.7,2.2,1.1,3.6,1.1c1.8,0,3.4-0.5,4.9-1.4
		c2-1.3,4.4-3.9,7.2-7.9V83.6c0-5.3-0.5-8.6-1.5-9.9c-1-1.3-3-2.1-6.1-2.5v-2.8H621.8z"/>
	<path class="st0" d="M671.3,128c-8.5,7.5-16.2,11.3-23,11.3c-4,0-7.3-1.3-10-3.9c-2.6-2.6-4-5.9-4-9.8c0-5.3,2.3-10.1,6.9-14.4
		c4.6-4.3,14.6-9.9,30-17v-7c0-5.3-0.3-8.6-0.9-10c-0.6-1.4-1.7-2.6-3.3-3.6c-1.6-1-3.4-1.5-5.4-1.5c-3.2,0-5.9,0.7-8,2.2
		c-1.3,0.9-1.9,1.9-1.9,3.1c0,1,0.7,2.3,2.1,3.9c1.9,2.1,2.8,4.2,2.8,6.2c0,2.4-0.9,4.5-2.7,6.2c-1.8,1.7-4.2,2.6-7.1,2.6
		c-3.1,0-5.8-0.9-7.9-2.8c-2.1-1.9-3.2-4.1-3.2-6.7c0-3.6,1.4-7,4.3-10.3c2.8-3.3,6.8-5.8,11.9-7.5c5.1-1.7,10.4-2.6,15.9-2.6
		c6.6,0,11.9,1.4,15.8,4.2c3.9,2.8,6.4,5.9,7.5,9.2c0.7,2.1,1,6.9,1,14.4v27.2c0,3.2,0.1,5.2,0.4,6c0.2,0.8,0.6,1.4,1.1,1.8
		c0.5,0.4,1.1,0.6,1.7,0.6c1.3,0,2.6-0.9,4-2.8l2.2,1.8c-2.5,3.7-5.1,6.4-7.7,8s-5.7,2.5-9.1,2.5c-4,0-7.1-0.9-9.4-2.8
		S671.8,131.8,671.3,128z M671.3,122.6V99.2c-6,3.5-10.5,7.3-13.5,11.4c-1.9,2.7-2.9,5.4-2.9,8.2c0,2.3,0.8,4.3,2.5,6.1
		c1.2,1.3,3,2,5.2,2C665.1,126.8,668,125.4,671.3,122.6z"/>
	<path class="st0" d="M730,36.9v87c0,4.9,0.6,8.1,1.7,9.5c1.1,1.4,3.4,2.2,6.7,2.4v2.7h-37.8v-2.7c3.1-0.1,5.4-1,6.9-2.7
		c1-1.1,1.5-4.2,1.5-9.1V51.4c0-4.9-0.6-8-1.7-9.4c-1.1-1.4-3.4-2.2-6.7-2.4v-2.8H730z"/>
	<path class="st0" d="M397.4,151.8v2.8c-3.7,0.6-7,2.6-9.9,5.9c-2.1,2.5-5.2,8.4-9.4,17.6l-34.9,77.5h-2.5L306,174.9
		c-4.2-9.7-7-15.4-8.4-17.1c-1.4-1.7-4.1-2.8-8-3.2v-2.8h48.6v2.8h-1.6c-4.4,0-7.4,0.5-9,1.6c-1.1,0.7-1.7,1.8-1.7,3.3
		c0,0.9,0.2,2,0.6,3.2c0.4,1.2,1.7,4.5,4,9.8l21.6,50.5l20.1-45c2.4-5.4,3.9-9.1,4.4-10.9c0.5-1.8,0.8-3.4,0.8-4.7
		c0-1.5-0.4-2.8-1.2-4c-0.8-1.1-2-2-3.5-2.6c-2.1-0.8-5-1.3-8.5-1.3v-2.8H397.4z"/>
	<path class="st0" d="M422,242.9c-8.5,7.5-16.2,11.3-23,11.3c-4,0-7.3-1.3-10-3.9c-2.6-2.6-4-5.9-4-9.8c0-5.3,2.3-10.1,6.9-14.4
		c4.6-4.3,14.6-9.9,30-17v-7c0-5.3-0.3-8.6-0.9-10c-0.6-1.4-1.7-2.6-3.3-3.6c-1.6-1-3.4-1.5-5.4-1.5c-3.2,0-5.9,0.7-8,2.2
		c-1.3,0.9-1.9,1.9-1.9,3.1c0,1,0.7,2.3,2.1,3.9c1.9,2.1,2.8,4.2,2.8,6.2c0,2.4-0.9,4.5-2.7,6.2c-1.8,1.7-4.2,2.6-7.1,2.6
		c-3.1,0-5.8-0.9-7.9-2.8c-2.1-1.9-3.2-4.1-3.2-6.7c0-3.6,1.4-7,4.3-10.3c2.8-3.3,6.8-5.8,11.9-7.5c5.1-1.7,10.4-2.6,15.9-2.6
		c6.6,0,11.9,1.4,15.8,4.2c3.9,2.8,6.4,5.9,7.5,9.2c0.7,2.1,1,6.9,1,14.4v27.2c0,3.2,0.1,5.2,0.4,6s0.6,1.4,1.1,1.8
		c0.5,0.4,1.1,0.6,1.7,0.6c1.3,0,2.6-0.9,4-2.8l2.2,1.8c-2.5,3.7-5.1,6.4-7.7,8c-2.7,1.7-5.7,2.5-9.1,2.5c-4,0-7.1-0.9-9.4-2.8
		C423.9,249.6,422.5,246.7,422,242.9z M422,237.5V214c-6,3.5-10.5,7.3-13.5,11.4c-1.9,2.7-2.9,5.4-2.9,8.2c0,2.3,0.8,4.3,2.5,6.1
		c1.2,1.3,3,2,5.2,2C415.8,241.7,418.7,240.3,422,237.5z"/>
	<path class="st0" d="M480.7,151.8v87c0,4.9,0.6,8.1,1.7,9.5c1.1,1.4,3.4,2.2,6.7,2.4v2.7h-37.8v-2.7c3.1-0.1,5.4-1,6.9-2.7
		c1-1.1,1.5-4.2,1.5-9.1v-72.4c0-4.9-0.6-8-1.7-9.4c-1.1-1.4-3.4-2.2-6.7-2.4v-2.8H480.7z"/>
	<path class="st0" d="M522.1,181.2c6.1,0,11.8,1.6,17,4.7c5.2,3.1,9.2,7.6,11.9,13.4c2.7,5.8,4.1,12.1,4.1,19
		c0,9.9-2.5,18.2-7.6,24.9c-6.1,8.1-14.5,12.1-25.2,12.1c-10.5,0-18.6-3.7-24.3-11.1c-5.7-7.4-8.5-15.9-8.5-25.7
		c0-10,2.9-18.8,8.7-26.2C504,184.9,512,181.2,522.1,181.2z M522.4,186.5c-2.5,0-4.7,1-6.5,2.9c-1.8,1.9-3,5.7-3.6,11.4
		c-0.6,5.7-0.9,13.5-0.9,23.6c0,5.3,0.3,10.3,1,15c0.5,3.5,1.7,6.2,3.5,8.1c1.8,1.8,3.8,2.8,6.1,2.8c2.2,0,4.1-0.6,5.6-1.9
		c1.9-1.7,3.2-4.1,3.9-7.1c1-4.7,1.5-14.3,1.5-28.7c0-8.5-0.5-14.3-1.4-17.5c-0.9-3.2-2.3-5.5-4.2-6.9
		C526.2,187,524.5,186.5,522.4,186.5z"/>
	<path class="st0" d="M588,183.3v15.9c4.6-7.2,8.7-12,12.2-14.4c3.5-2.4,6.9-3.6,10.1-3.6c2.8,0,5,0.9,6.7,2.6
		c1.7,1.7,2.5,4.2,2.5,7.3c0,3.3-0.8,5.9-2.4,7.8c-1.6,1.8-3.6,2.8-5.9,2.8c-2.6,0-4.9-0.8-6.9-2.5c-1.9-1.7-3.1-2.6-3.4-2.8
		c-0.5-0.3-1.1-0.4-1.7-0.4c-1.4,0-2.8,0.5-4.1,1.6c-2,1.7-3.6,4.1-4.6,7.3c-1.6,4.8-2.4,10.2-2.4,16v16.1l0.1,4.2
		c0,2.8,0.2,4.7,0.5,5.5c0.6,1.3,1.5,2.3,2.7,3c1.2,0.6,3.2,1,6,1.2v2.7h-37.8v-2.7c3-0.2,5.1-1.1,6.2-2.5c1.1-1.4,1.6-5.2,1.6-11.3
		v-38.7c0-4-0.2-6.5-0.6-7.6c-0.5-1.4-1.2-2.4-2.2-3.1c-0.9-0.6-2.6-1.1-5-1.3v-2.8H588z"/>
	<path class="st0" d="M676.8,215.8h-38.4c0.4,9.3,2.9,16.6,7.4,22c3.4,4.1,7.6,6.2,12.4,6.2c3,0,5.7-0.8,8.2-2.5
		c2.4-1.7,5.1-4.7,7.9-9l2.5,1.6c-3.8,7.7-8,13.2-12.6,16.4c-4.6,3.2-9.9,4.8-15.9,4.8c-10.4,0-18.2-4-23.6-12
		c-4.3-6.4-6.4-14.4-6.4-23.9c0-11.7,3.2-21,9.5-27.9c6.3-6.9,13.7-10.4,22.2-10.4c7.1,0,13.2,2.9,18.4,8.7
		C673.6,195.7,676.4,204.3,676.8,215.8z M658.4,210.7c0-8-0.4-13.5-1.3-16.5c-0.9-3-2.2-5.3-4.1-6.8c-1-0.9-2.4-1.3-4.2-1.3
		c-2.6,0-4.7,1.3-6.4,3.8c-2.9,4.4-4.4,10.5-4.4,18.3v2.6H658.4z"/>
	<path class="st0" d="M723,181.3l1.1,23.9h-2.5c-3-7.1-6.2-11.9-9.5-14.5c-3.3-2.6-6.5-3.9-9.8-3.9c-2,0-3.8,0.7-5.2,2.1
		c-1.4,1.4-2.2,3-2.2,4.8c0,1.3,0.5,2.6,1.5,3.9c1.6,2,6.1,5.6,13.4,10.5c7.3,5,12.2,9.2,14.5,12.6c2.3,3.5,3.5,7.3,3.5,11.6
		c0,3.9-1,7.7-2.9,11.5c-1.9,3.7-4.7,6.6-8.2,8.6c-3.5,2-7.5,3-11.7,3c-3.3,0-7.8-1-13.4-3.1c-1.5-0.5-2.5-0.8-3.1-0.8
		c-1.6,0-3,1.2-4.1,3.7h-2.5l-1.2-25.1h2.5c2.2,6.6,5.3,11.5,9.2,14.8c3.9,3.3,7.6,4.9,11.1,4.9c2.4,0,4.4-0.7,5.9-2.2
		c1.5-1.5,2.3-3.3,2.3-5.4c0-2.4-0.7-4.5-2.2-6.2c-1.5-1.7-4.8-4.4-10-7.9c-7.6-5.3-12.6-9.3-14.8-12.1c-3.3-4.1-4.9-8.6-4.9-13.5
		c0-5.4,1.9-10.3,5.6-14.6c3.7-4.4,9.1-6.5,16.1-6.5c3.8,0,7.5,0.9,11,2.8c1.3,0.7,2.4,1.1,3.3,1.1c0.9,0,1.6-0.2,2.2-0.6
		c0.5-0.4,1.4-1.4,2.6-3.2H723z"/>
</g>
<g>
	<path class="st0" d="M53.5,306.8v8.8c0,1.9,0.2,3.1,0.6,3.6c0.6,0.7,1.4,1,2.6,1h1.2v0.8h-13v-0.8H46c1.3,0,2.2-0.4,2.8-1.3
		c0.3-0.5,0.4-1.6,0.4-3.3V296c0-1.9-0.2-3.1-0.6-3.6c-0.6-0.7-1.4-1-2.6-1h-1.1v-0.8H56c2.7,0,4.9,0.3,6.4,0.8
		c1.6,0.6,2.9,1.5,4,2.8c1.1,1.3,1.6,2.9,1.6,4.7c0,2.5-0.8,4.5-2.5,6c-1.6,1.6-3.9,2.3-6.9,2.3c-0.7,0-1.5-0.1-2.4-0.2
		C55.4,307.1,54.5,307,53.5,306.8z M53.5,305.5c0.8,0.1,1.5,0.3,2.1,0.3c0.6,0.1,1.1,0.1,1.6,0.1c1.6,0,2.9-0.6,4-1.8
		c1.1-1.2,1.7-2.8,1.7-4.7c0-1.3-0.3-2.5-0.8-3.7c-0.5-1.1-1.3-2-2.3-2.5c-1-0.6-2.1-0.8-3.4-0.8c-0.8,0-1.7,0.1-2.9,0.4V305.5z"/>
	<path class="st0" d="M117.4,300.5v12.4c0,2.4,0.1,3.8,0.2,4.4c0.1,0.5,0.3,0.9,0.5,1.1c0.2,0.2,0.5,0.3,0.9,0.3
		c0.5,0,1-0.1,1.6-0.4l0.3,0.8l-6.1,2.5h-1v-4.3c-1.8,1.9-3.1,3.1-4,3.6c-0.9,0.5-1.9,0.7-2.9,0.7c-1.1,0-2.1-0.3-3-1
		c-0.8-0.7-1.4-1.5-1.8-2.6s-0.5-2.5-0.5-4.4v-9.2c0-1-0.1-1.6-0.3-2c-0.2-0.4-0.5-0.7-0.9-0.9s-1.2-0.3-2.2-0.3v-0.8h7.2v13.7
		c0,1.9,0.3,3.2,1,3.8s1.5,0.9,2.4,0.9c0.6,0,1.4-0.2,2.2-0.6c0.8-0.4,1.8-1.2,2.9-2.3v-11.6c0-1.2-0.2-1.9-0.6-2.4
		c-0.4-0.4-1.3-0.6-2.7-0.7v-0.8H117.4z"/>
	<path class="st0" d="M154.2,308.2c0,3,0.7,5.4,2.2,7.2s3.2,2.6,5.3,2.6c1.3,0,2.5-0.4,3.5-1.1s1.8-2,2.5-3.8l0.7,0.4
		c-0.3,2-1.2,3.9-2.7,5.6c-1.5,1.7-3.4,2.5-5.7,2.5c-2.5,0-4.6-1-6.3-2.9c-1.8-1.9-2.6-4.5-2.6-7.7c0-3.5,0.9-6.2,2.7-8.2
		c1.8-2,4.1-2.9,6.8-2.9c2.3,0,4.2,0.8,5.7,2.3c1.5,1.5,2.2,3.5,2.2,6.1H154.2z M154.2,306.9h9.5c-0.1-1.3-0.2-2.2-0.5-2.8
		c-0.4-0.8-0.9-1.5-1.7-2s-1.5-0.7-2.3-0.7c-1.2,0-2.3,0.5-3.3,1.4C154.9,303.9,154.3,305.2,154.2,306.9z"/>
	<path class="st0" d="M212.7,299.9v7H212c-0.6-2.2-1.3-3.7-2.2-4.5c-0.9-0.8-2-1.2-3.4-1.2c-1,0-1.9,0.3-2.5,0.8
		c-0.6,0.6-1,1.2-1,1.8c0,0.8,0.2,1.6,0.7,2.1c0.5,0.6,1.4,1.3,2.8,1.9l3.3,1.6c3,1.5,4.5,3.4,4.5,5.8c0,1.9-0.7,3.4-2.1,4.5
		c-1.4,1.1-3,1.7-4.7,1.7c-1.3,0-2.7-0.2-4.3-0.7c-0.5-0.1-0.9-0.2-1.2-0.2c-0.3,0-0.6,0.2-0.8,0.6h-0.7V314h0.7
		c0.4,2.1,1.2,3.7,2.4,4.7c1.2,1.1,2.5,1.6,4,1.6c1,0,1.9-0.3,2.5-0.9c0.6-0.6,1-1.3,1-2.2c0-1-0.4-1.9-1.1-2.6
		c-0.7-0.7-2.2-1.6-4.3-2.7c-2.2-1.1-3.6-2-4.3-2.9c-0.7-0.9-1-1.9-1-3.2c0-1.7,0.6-3.1,1.7-4.2c1.2-1.1,2.7-1.7,4.5-1.7
		c0.8,0,1.8,0.2,2.9,0.5c0.8,0.2,1.3,0.3,1.5,0.3c0.2,0,0.4-0.1,0.6-0.2c0.1-0.1,0.3-0.3,0.5-0.7H212.7z"/>
	<path class="st0" d="M251.7,293.8v6.7h4.8v1.6h-4.8v13.3c0,1.3,0.2,2.2,0.6,2.7c0.4,0.5,0.9,0.7,1.5,0.7c0.5,0,1-0.2,1.4-0.5
		c0.5-0.3,0.8-0.8,1.1-1.4h0.9c-0.5,1.5-1.3,2.6-2.2,3.3c-1,0.7-1.9,1.1-3,1.1c-0.7,0-1.4-0.2-2-0.6c-0.7-0.4-1.1-0.9-1.5-1.6
		c-0.3-0.7-0.5-1.8-0.5-3.3v-13.8h-3.2v-0.7c0.8-0.3,1.7-0.9,2.5-1.7c0.9-0.8,1.6-1.7,2.3-2.8c0.3-0.6,0.8-1.6,1.4-3.1H251.7z"/>
	<path class="st0" d="M296.9,299.9c3.1,0,5.6,1.2,7.5,3.5c1.6,2,2.4,4.3,2.4,6.9c0,1.8-0.4,3.7-1.3,5.6c-0.9,1.9-2.1,3.3-3.6,4.3
		c-1.5,1-3.3,1.4-5.2,1.4c-3.1,0-5.5-1.2-7.4-3.7c-1.5-2.1-2.3-4.4-2.3-7c0-1.9,0.5-3.7,1.4-5.6c0.9-1.9,2.2-3.2,3.7-4.1
		C293.6,300.3,295.2,299.9,296.9,299.9z M296.2,301.3c-0.8,0-1.6,0.2-2.4,0.7c-0.8,0.5-1.4,1.3-1.9,2.5s-0.7,2.7-0.7,4.5
		c0,3,0.6,5.6,1.8,7.7c1.2,2.2,2.7,3.2,4.7,3.2c1.4,0,2.6-0.6,3.6-1.8s1.4-3.2,1.4-6.2c0-3.6-0.8-6.5-2.3-8.6
		C299.2,302.1,297.8,301.3,296.2,301.3z"/>
	<path class="st0" d="M392.5,318.7c-1,1-2,1.8-2.9,2.2c-1,0.5-2,0.7-3.1,0.7c-2.2,0-4.2-0.9-5.9-2.8s-2.5-4.3-2.5-7.2
		s0.9-5.6,2.8-8.1c1.8-2.4,4.2-3.7,7.1-3.7c1.8,0,3.3,0.6,4.5,1.7v-3.8c0-2.3-0.1-3.8-0.2-4.3s-0.3-0.9-0.5-1.1
		c-0.2-0.2-0.5-0.3-0.9-0.3c-0.4,0-0.9,0.1-1.5,0.4l-0.3-0.8l6.1-2.5h1v23.7c0,2.4,0.1,3.9,0.2,4.4c0.1,0.5,0.3,0.9,0.5,1.1
		c0.2,0.2,0.5,0.3,0.9,0.3c0.4,0,0.9-0.1,1.6-0.4l0.2,0.8l-6.1,2.5h-1V318.7z M392.5,317.1v-10.6c-0.1-1-0.4-1.9-0.8-2.8
		c-0.4-0.8-1-1.5-1.8-1.9c-0.7-0.4-1.5-0.6-2.2-0.6c-1.3,0-2.5,0.6-3.5,1.8c-1.4,1.6-2,3.8-2,6.8c0,3,0.7,5.3,2,6.9s2.8,2.4,4.4,2.4
		C390,319.2,391.3,318.5,392.5,317.1z"/>
	<path class="st0" d="M432.8,308.2c0,3,0.7,5.4,2.2,7.2s3.2,2.6,5.3,2.6c1.3,0,2.5-0.4,3.5-1.1s1.8-2,2.5-3.8l0.7,0.4
		c-0.3,2-1.2,3.9-2.7,5.6c-1.5,1.7-3.4,2.5-5.7,2.5c-2.5,0-4.6-1-6.3-2.9c-1.8-1.9-2.6-4.5-2.6-7.7c0-3.5,0.9-6.2,2.7-8.2
		c1.8-2,4.1-2.9,6.8-2.9c2.3,0,4.2,0.8,5.7,2.3s2.2,3.5,2.2,6.1H432.8z M432.8,306.9h9.5c-0.1-1.3-0.2-2.2-0.5-2.8
		c-0.4-0.8-0.9-1.5-1.7-2s-1.5-0.7-2.3-0.7c-1.2,0-2.3,0.5-3.3,1.4C433.6,303.9,433,305.2,432.8,306.9z"/>
	<path class="st0" d="M537.7,305.5c2.1,0.4,3.7,1.2,4.7,2.1c1.4,1.4,2.2,3.1,2.2,5c0,1.5-0.5,2.9-1.4,4.3c-1,1.4-2.3,2.4-3.9,3
		c-1.7,0.6-4.2,1-7.6,1h-14.3v-0.8h1.1c1.3,0,2.2-0.4,2.7-1.2c0.3-0.5,0.5-1.6,0.5-3.3V296c0-1.9-0.2-3.1-0.6-3.6
		c-0.6-0.7-1.4-1-2.6-1h-1.1v-0.8h13.1c2.4,0,4.4,0.2,5.9,0.5c2.2,0.5,3.9,1.5,5.1,2.9c1.2,1.4,1.8,2.9,1.8,4.7
		c0,1.5-0.5,2.9-1.4,4.1C540.9,304,539.5,304.9,537.7,305.5z M526,304.3c0.6,0.1,1.2,0.2,1.9,0.2c0.7,0.1,1.5,0.1,2.3,0.1
		c2.2,0,3.8-0.2,4.9-0.7c1.1-0.5,1.9-1.2,2.5-2.2s0.9-2,0.9-3.2c0-1.8-0.7-3.3-2.2-4.5s-3.6-1.9-6.3-1.9c-1.5,0-2.8,0.2-4,0.5V304.3
		z M526,318.8c1.7,0.4,3.4,0.6,5.1,0.6c2.7,0,4.8-0.6,6.2-1.8s2.1-2.7,2.1-4.5c0-1.2-0.3-2.3-1-3.4c-0.6-1.1-1.7-1.9-3.1-2.6
		c-1.4-0.6-3.2-0.9-5.4-0.9c-0.9,0-1.7,0-2.4,0c-0.7,0-1.2,0.1-1.6,0.2V318.8z"/>
	<path class="st0" d="M587,299.9c3.1,0,5.6,1.2,7.5,3.5c1.6,2,2.4,4.3,2.4,6.9c0,1.8-0.4,3.7-1.3,5.6c-0.9,1.9-2.1,3.3-3.6,4.3
		c-1.5,1-3.3,1.4-5.2,1.4c-3.1,0-5.5-1.2-7.4-3.7c-1.5-2.1-2.3-4.4-2.3-7c0-1.9,0.5-3.7,1.4-5.6c0.9-1.9,2.2-3.2,3.7-4.1
		C583.7,300.3,585.3,299.9,587,299.9z M586.3,301.3c-0.8,0-1.6,0.2-2.4,0.7c-0.8,0.5-1.4,1.3-1.9,2.5s-0.7,2.7-0.7,4.5
		c0,3,0.6,5.6,1.8,7.7c1.2,2.2,2.7,3.2,4.7,3.2c1.4,0,2.6-0.6,3.6-1.8s1.4-3.2,1.4-6.2c0-3.6-0.8-6.5-2.3-8.6
		C589.3,302.1,587.9,301.3,586.3,301.3z"/>
	<path class="st0" d="M635.3,289.2v27.2c0,1.3,0.1,2.1,0.3,2.6c0.2,0.4,0.5,0.7,0.9,1c0.4,0.2,1.1,0.3,2.2,0.3v0.8h-10v-0.8
		c0.9,0,1.6-0.1,1.9-0.3c0.3-0.2,0.6-0.5,0.8-1c0.2-0.4,0.3-1.3,0.3-2.6v-18.6c0-2.3-0.1-3.7-0.2-4.3s-0.3-0.9-0.5-1.1
		c-0.2-0.2-0.5-0.3-0.9-0.3c-0.4,0-0.9,0.1-1.5,0.4l-0.4-0.8l6.1-2.5H635.3z"/>
	<path class="st0" d="M682.7,299.9v7h-0.7c-0.6-2.2-1.3-3.7-2.2-4.5c-0.9-0.8-2-1.2-3.4-1.2c-1,0-1.9,0.3-2.5,0.8s-1,1.2-1,1.8
		c0,0.8,0.2,1.6,0.7,2.1c0.5,0.6,1.4,1.3,2.8,1.9l3.3,1.6c3,1.5,4.5,3.4,4.5,5.8c0,1.9-0.7,3.4-2.1,4.5c-1.4,1.1-3,1.7-4.7,1.7
		c-1.3,0-2.7-0.2-4.3-0.7c-0.5-0.1-0.9-0.2-1.2-0.2c-0.3,0-0.6,0.2-0.8,0.6h-0.7V314h0.7c0.4,2.1,1.2,3.7,2.4,4.7
		c1.2,1.1,2.5,1.6,4,1.6c1,0,1.9-0.3,2.5-0.9c0.6-0.6,1-1.3,1-2.2c0-1-0.4-1.9-1.1-2.6s-2.2-1.6-4.3-2.7c-2.2-1.1-3.6-2-4.3-2.9
		c-0.7-0.9-1-1.9-1-3.2c0-1.7,0.6-3.1,1.7-4.2c1.2-1.1,2.7-1.7,4.5-1.7c0.8,0,1.8,0.2,2.9,0.5c0.8,0.2,1.3,0.3,1.5,0.3
		c0.2,0,0.4-0.1,0.6-0.2c0.1-0.1,0.3-0.3,0.5-0.7H682.7z"/>
	<path class="st0" d="M727.3,318c-2.1,1.6-3.4,2.6-4,2.8c-0.8,0.4-1.7,0.6-2.6,0.6c-1.4,0-2.6-0.5-3.5-1.5c-0.9-1-1.4-2.2-1.4-3.8
		c0-1,0.2-1.9,0.7-2.6c0.6-1,1.7-2,3.2-2.9c1.5-0.9,4-2,7.6-3.3v-0.8c0-2-0.3-3.4-1-4.2s-1.6-1.1-2.8-1.1c-0.9,0-1.7,0.3-2.2,0.8
		c-0.6,0.5-0.8,1.1-0.8,1.7l0,1.3c0,0.7-0.2,1.2-0.5,1.6c-0.4,0.4-0.8,0.6-1.4,0.6c-0.6,0-1-0.2-1.4-0.6c-0.4-0.4-0.5-0.9-0.5-1.6
		c0-1.3,0.7-2.5,2-3.5c1.3-1.1,3.2-1.6,5.5-1.6c1.8,0,3.3,0.3,4.5,0.9c0.9,0.5,1.5,1.2,1.9,2.2c0.3,0.6,0.4,2,0.4,3.9v7
		c0,2,0,3.2,0.1,3.6c0.1,0.4,0.2,0.7,0.4,0.9c0.2,0.1,0.4,0.2,0.6,0.2c0.2,0,0.4-0.1,0.6-0.2c0.3-0.2,0.9-0.7,1.8-1.6v1.3
		c-1.7,2.2-3.3,3.4-4.8,3.4c-0.7,0-1.3-0.3-1.7-0.8C727.5,320.1,727.3,319.3,727.3,318z M727.3,316.6v-7.8c-2.3,0.9-3.7,1.5-4.4,1.9
		c-1.2,0.7-2,1.3-2.5,2.1c-0.5,0.7-0.8,1.5-0.8,2.3c0,1.1,0.3,2,1,2.7c0.6,0.7,1.4,1.1,2.2,1.1C724,318.8,725.4,318.1,727.3,316.6z"
		/>
</g>
<path class="st1" d="M270,189.5v17.4l-10.4-3.4V259H39.1v-55.5l-10.4,3.4v-17.4l120.6-39L270,189.5z M39.1,35.7v134L149.3,134
	l110.2,35.7v-134H39.1z"/>
</svg>
