<?xml version="1.0" encoding="utf-8"?>
<!-- Generator: Adobe Illustrator 25.1.0, SVG Export Plug-In . SVG Version: 6.00 Build 0)  -->
<svg version="1.1" id="Layer_1" xmlns="http://www.w3.org/2000/svg" xmlns:xlink="http://www.w3.org/1999/xlink" x="0px" y="0px"
	 viewBox="0 0 500 500" style="enable-background:new 0 0 500 500;" xml:space="preserve">
<style type="text/css">
	.st0{fill:#E0A325;}
	.st1{fill:#60B2A6;}
	.st2{fill:#D85F50;}
	.st3{fill:#6B7598;}
</style>
<g>
	<path d="M181.63,448.92c2.83-8.59,5.58-16.93,8.38-25.46c-6.82-3.06-13.65-5.62-20-9.06c-34.58-18.72-59.17-46.01-65.85-85.48
		c-8.67-51.26,7.02-94.93,46.21-129.64c4.4-3.9,5.95-8.56,3.74-13.16c-2.34-4.88-7.21-7.01-13.07-5.29
		c-47.65,13.95-79.69,44.54-96.75,91.02c-0.74,2.02-1.41,4.08-2.14,6.11c-0.04,0.11-0.28,0.16-0.43,0.23
		C29.49,201,66.2,106.14,156.25,61.44c88.01-43.7,193.96-20.65,256.46,55.01c61.51,74.46,64,182.02,5.85,259.76
		C358.66,456.29,257.94,476.4,181.63,448.92z M391.46,185.89c-0.09-0.31-0.11-0.67-0.28-0.93c-0.45-0.7-0.95-1.36-1.45-2.02
		c-13.05-17.37-29.37-30.84-48.97-40.11c-27.18-12.85-55.34-19.55-85.65-13.47c-26.21,5.26-46.91,18.78-63.15,39.72
		c-18.91,24.38-25.57,52.47-25.81,82.7c-0.23,28.42,8.77,53.2,27.94,74.27c3.86,4.25,8.18,7.22,14.1,7.45
		c8.61,0.34,14.47-3.72,18.59-11.05c18.43-32.77,43.7-58.49,77.71-75.23c1.67-0.82,2.94-2.87,3.94-4.6
		c2.88-5.03,4.96-10.61,8.37-15.22c11.03-14.92,26.31-24.33,43.25-31.02C370.17,192.38,380.74,189.43,391.46,185.89z M419.71,273.17
		c0-22.49-4.1-41.85-12.11-60.45c-1.41-3.28-3.11-4.59-6.66-4.31c-17.56,1.39-34.03,6.2-48.82,15.85
		c-8.6,5.61-13.23,13.97-11.73,24.24c0.96,6.59,3.02,13.42,6.26,19.2c15.68,27.98,25.08,57.51,24.54,89.85
		c-0.07,3.89,1.51,6.76,5.27,8.19c3.69,1.4,6.45-0.16,8.81-2.87c0.66-0.75,1.29-1.53,1.92-2.3
		C408.3,334.42,419.35,304.59,419.71,273.17z M319.72,263.06c-1.78,0.82-3.14,1.41-4.48,2.06c-31.84,15.52-54.66,40.19-71.58,70.79
		c-7.43,13.43-3.02,23.51,11.92,27.41c30.83,8.05,61.32,5.34,91.69-2.8c3.53-0.94,3.26-3.08,3.23-5.6
		C350.06,321.16,337.37,291.52,319.72,263.06z M196.92,402.91c1.71-5.07,3.24-9.61,4.76-14.15c5.54-16.53,3.06-24.78-9.95-36.18
		c-27.05-23.7-43.99-52.71-45.53-89.4c-0.39-9.35-0.06-18.73-0.06-28.1c-21.52,31.7-30.72,65.88-18.29,102.95
		C139.02,371.36,162.95,392.42,196.92,402.91z M215.68,119.46c0.17,0-0.44-0.1-1.01,0.01c-23.72,4.65-47.01,10.83-69.33,20.23
		c-16.67,7.02-32.2,15.95-45.16,28.87c-3.07,3.06-4.69,6.23-1.73,10.06c2.89,3.74,6.14,2.66,9.7,0.59
		c5.17-3.01,10.47-5.84,15.92-8.31c12.58-5.7,25.83-8.48,39.67-8.92c3.92-0.12,8.9-0.72,11.51-3.14
		C189.13,146,202.42,132.5,215.68,119.46z M250.22,204.31c-9.56-0.08-17.52,7.7-17.65,17.26c-0.13,9.3,8.07,17.52,17.48,17.51
		c9.33-0.01,17.17-7.76,17.28-17.08C267.45,212.29,259.82,204.39,250.22,204.31z"/>
	<g>
		<path class="st0" d="M419.71,273.17c0-22.49-4.1-41.85-12.11-60.45c-1.41-3.28-3.11-4.59-6.66-4.31
			c-17.56,1.39-34.03,6.2-48.82,15.85c-8.6,5.61-13.23,13.97-11.73,24.24c0.96,6.59,3.02,13.42,6.26,19.2
			c15.68,27.98,25.08,57.51,24.54,89.85c-0.07,3.89,1.51,6.76,5.27,8.19c3.69,1.4,6.45-0.16,8.81-2.87c0.66-0.75,1.29-1.53,1.92-2.3
			C408.3,334.42,419.35,304.59,419.71,273.17z"/>
		<path class="st0" d="M319.72,263.06c-1.78,0.82-3.14,1.41-4.48,2.06c-31.84,15.52-54.66,40.19-71.58,70.79
			c-7.43,13.43-3.02,23.51,11.92,27.41c30.83,8.05,61.32,5.34,91.69-2.8c3.53-0.94,3.26-3.08,3.23-5.6
			C350.06,321.16,337.37,291.52,319.72,263.06z"/>
		<path class="st1" d="M196.92,402.91c1.71-5.07,3.24-9.61,4.76-14.15c5.54-16.53,3.06-24.78-9.95-36.18
			c-27.05-23.7-43.99-52.71-45.53-89.4c-0.39-9.35-0.06-18.73-0.06-28.1c-21.52,31.7-30.72,65.88-18.29,102.95
			C139.02,371.36,162.95,392.42,196.92,402.91z"/>
		<path class="st2" d="M215.68,119.46c0.17,0-0.44-0.1-1.01,0.01c-23.72,4.65-47.01,10.83-69.33,20.23
			c-16.67,7.02-32.2,15.95-45.16,28.87c-3.07,3.06-4.69,6.23-1.73,10.06c2.89,3.74,6.14,2.66,9.7,0.59
			c5.17-3.01,10.47-5.84,15.92-8.31c12.58-5.7,25.83-8.48,39.67-8.92c3.92-0.12,8.9-0.72,11.51-3.14
			C189.13,146,202.42,132.5,215.68,119.46z"/>
		<path class="st3" d="M391.17,184.96c-0.45-0.7-0.95-1.36-1.45-2.02c-13.05-17.37-29.37-30.84-48.97-40.11
			c-27.18-12.85-55.34-19.55-85.65-13.47c-26.21,5.26-46.91,18.78-63.15,39.72c-18.91,24.38-25.57,52.47-25.81,82.7
			c-0.23,28.42,8.77,53.2,27.94,74.27c3.86,4.25,8.18,7.22,14.1,7.45c8.61,0.34,14.47-3.72,18.59-11.05
			c18.43-32.77,43.7-58.49,77.71-75.23c1.67-0.82,2.94-2.87,3.94-4.6c2.88-5.03,4.96-10.61,8.37-15.22
			c11.03-14.92,26.31-24.33,43.25-31.02c10.15-4.01,20.71-6.96,31.43-10.5C391.37,185.58,391.34,185.22,391.17,184.96z
			 M250.04,239.08c-9.4,0.01-17.61-8.21-17.48-17.51c0.14-9.55,8.1-17.34,17.65-17.26c9.6,0.08,17.23,7.97,17.11,17.69
			C267.21,231.32,259.37,239.07,250.04,239.08z"/>
	</g>
</g>
</svg>
